<?xml version="1.0" encoding="utf-8"?>
<!-- Generator: Adobe Illustrator 26.0.1, SVG Export Plug-In . SVG Version: 6.00 Build 0)  -->
<svg version="1.1" id="Layer_1" xmlns="http://www.w3.org/2000/svg" xmlns:xlink="http://www.w3.org/1999/xlink" x="0px" y="0px"
	 viewBox="0 0 100 100" style="enable-background:new 0 0 100 100;" xml:space="preserve">
<g>
	<path d="M44.2,54.8c-0.8,0-1-0.4-1-0.9c0-0.4,0.2-0.8,0.6-1.4l7-11.4c0.5-0.8,1-1.1,1.9-1.1c1.1,0,1.9,0.6,1.9,2v10.7h1.2
		c0.6,0,1,0.5,1,1c0,0.6-0.5,1-1,1h-1.2v3.9c0,0.8-0.5,1.3-1.2,1.3c-0.7,0-1.2-0.5-1.2-1.3v-3.9H44.2z M52.1,52.7V42.6H52l-5.8,10.1
		H52.1z"/>
</g>
</svg>
