<?xml version="1.0" encoding="utf-8"?><svg version="1.1" id="BackgroundSVG" xmlns="http://www.w3.org/2000/svg" viewBox="0 0 300 300"><style> .st8 { font-family: 'Helvetica'; } .st9 { font-size: 12px; } </style><g transform="translate(39.5,20.5)"><rect id="boardBackground" fill="#FFF0C0" width="240" height="240" /><path id="movementLines" fill="none" stroke="#000000" d="M0,0h240v240H0V0 M40,40h160v160H40V40 M80,80h80v80H80V80 M120,0v80 M240,120h-80 M120,240v-80 M0,120h80H0z" /><g transform="translate(0,263.252)"><text transform="matrix(1 0 0 1 -3.3369 -6.087500e-05)" class="st8 st9">a</text><text transform="matrix(1 0 0 1 36.6631 -6.087500e-05)" class="st8 st9">b</text><text transform="matrix(1 0 0 1 77 -6.087500e-05)" class="st8 st9">c</text><text transform="matrix(1 0 0 1 116.6631 -6.087500e-05)" class="st8 st9">d</text><text transform="matrix(1 0 0 1 156.6631 -6.087500e-05)" class="st8 st9">e</text><text transform="matrix(1 0 0 1 198.333 -6.087500e-05)" class="st8 st9">f</text><text transform="matrix(1 0 0 1 236.6631 -6.087500e-05)" class="st8 st9">g</text></g><g transform="translate(-20,3.252)"><text transform="matrix(1 0 0 1 -3.3369 -4.687500e-05)" class="st8 st9">7</text><text transform="matrix(1 0 0 1 -3.3369 40)" class="st8 st9">6</text><text transform="matrix(1 0 0 1 -3.3369 80)" class="st8 st9">5</text><text transform="matrix(1 0 0 1 -3.3369 120)" class="st8 st9">4</text><text transform="matrix(1 0 0 1 -3.3369 160)" class="st8 st9">3</text><text transform="matrix(1 0 0 1 -3.3369 200)" class="st8 st9">2</text><text transform="matrix(1 0 0 1 -3.3369 240)" class="st8 st9">1</text></g></g></svg>