<?xml version="1.0" encoding="utf-8"?>
<!-- Generator: Adobe Illustrator 26.0.1, SVG Export Plug-In . SVG Version: 6.00 Build 0)  -->
<svg version="1.1"
	 id="svg2" inkscape:version="0.44" sodipodi:version="0.32" xmlns:cc="http://web.resource.org/cc/" xmlns:dc="http://purl.org/dc/elements/1.1/" xmlns:inkscape="http://www.inkscape.org/namespaces/inkscape" xmlns:rdf="http://www.w3.org/1999/02/22-rdf-syntax-ns#" xmlns:sodipodi="http://sodipodi.sourceforge.net/DTD/sodipodi-0.dtd" xmlns:svg="http://www.w3.org/2000/svg"
	 xmlns="http://www.w3.org/2000/svg" xmlns:xlink="http://www.w3.org/1999/xlink" x="0px" y="0px" viewBox="0 0 300 300"
	 style="enable-background:new 0 0 300 300;" xml:space="preserve">
<style type="text/css">
	.st0{display:none;}
	.st1{display:inline;}
	.st2{fill:url(#path5000_00000048477016430292046200000014042965228098890129_);}
	.st3{fill:url(#path5001_00000045592439147606962180000003767156944434413216_);}
	.st4{fill:url(#path6000_00000086655386847697026890000004411693081378275236_);}
	.st5{fill:url(#path6001_00000044897441953566362290000015660102596441335727_);}
	.st6{fill:#FFF0C0;}
	.st7{fill:none;stroke:#000000;}
	.st8{font-family:'Helvetica';}
	.st9{font-size:12px;}
	.st10{fill:url(#path5000_00000017498373958608475930000008454911120783659672_);}
	.st11{fill:url(#path5001_00000127760600181005379080000017636112726937086397_);}
	.st12{fill:url(#path5000_00000142885084747644599180000003298324569792794281_);}
	.st13{fill:url(#path5001_00000084496794054887907900000017671188794918200195_);}
	.st14{fill:url(#path5000_00000157298713052887598110000006984132175806079418_);}
	.st15{fill:url(#path5001_00000018953774100459441410000013440547041869392777_);}
	.st16{fill:url(#path5000_00000011729192073101672170000010799062890454562732_);}
	.st17{fill:url(#path5001_00000084528847322172218480000004149920764530776203_);}
	.st18{fill:url(#path5000_00000081612891864184250860000005692648814372850340_);}
	.st19{fill:url(#path5001_00000115490759327692761070000005354975588263840447_);}
	.st20{fill:url(#path6000_00000000201415462716531090000018442647120708176305_);}
	.st21{fill:url(#path6001_00000078045869930905865920000004625138339386568581_);}
	.st22{fill:url(#path6000_00000170980549128684589150000006012052517135251122_);}
	.st23{fill:url(#path6001_00000039118975436249988170000003741118341241825980_);}
	.st24{fill:url(#path6000_00000125590629078046505310000004230291308549244816_);}
	.st25{fill:url(#path6001_00000015356844296715320580000013254844771150937011_);}
	.st26{fill:url(#path6000_00000021839609914350135730000017141267207707488385_);}
	.st27{fill:url(#path6001_00000100348722194596836720000013429195276532148382_);}
	.st28{fill:url(#path6000_00000155125459421057002160000014033412137977573530_);}
	.st29{fill:url(#path6001_00000170240718216787368710000006639027096216826272_);}
	.st30{fill:url(#path6000_00000125560793457469502650000000607994630954097290_);}
	.st31{fill:url(#path6001_00000070079837935874597480000011316168024732387251_);}
</style>
<sodipodi:namedview  bordercolor="#666666" borderopacity="1.0" gridempspacing="0" gridoriginx="10px" gridoriginy="10px" gridspacingx="20px" gridspacingy="20px" gridtolerance="50" guidetolerance="10" id="base" inkscape:current-layer="layer1" inkscape:cx="150" inkscape:cy="150" inkscape:document-units="px" inkscape:grid-bbox="false" inkscape:grid-points="false" inkscape:guide-bbox="false" inkscape:guide-points="false" inkscape:object-bbox="false" inkscape:object-nodes="false" inkscape:object-paths="false" inkscape:object-points="false" inkscape:pageopacity="0.0" inkscape:pageshadow="2" inkscape:window-height="721" inkscape:window-width="1024" inkscape:window-x="-4" inkscape:window-y="-4" inkscape:zoom="1" objecttolerance="50" pagecolor="#ffffff" showgrid="true" showguides="true">
	</sodipodi:namedview>
<g id="layer1" transform="translate(39.5,20.5)" inkscape:groupmode="layer" inkscape:label="Layer 1">
	<g id="everything">
		<g id="pieceStyles" transform="translate(120,120)" class="st0">
			<g id="whitePiece" class="st1">
				
					<radialGradient id="path5000_00000052070884187305230710000008134874512261000352_" cx="-317" cy="-200" r="10" fx="-319" fy="-202" gradientTransform="matrix(1 0 0 1 319 202)" gradientUnits="userSpaceOnUse">
					<stop  offset="0" style="stop-color:#000000"/>
					<stop  offset="1" style="stop-color:#000000;stop-opacity:0"/>
				</radialGradient>
				
					<path id="path5000" sodipodi:cx="2" sodipodi:cy="2" sodipodi:rx="10" sodipodi:ry="10" sodipodi:type="arc" style="fill:url(#path5000_00000052070884187305230710000008134874512261000352_);" d="
					M12,2c0,5.5-4.5,10-10,10S-8,7.5-8,2S-3.5-8,2-8S12-3.5,12,2z"/>
				
					<radialGradient id="path5001_00000103967843026282571310000016594160973921433474_" cx="-319" cy="-202" r="10" fx="-324" fy="-207" gradientTransform="matrix(1 0 0 1 319 202)" gradientUnits="userSpaceOnUse">
					<stop  offset="0" style="stop-color:#FFFFFF"/>
					<stop  offset="0.5" style="stop-color:#DDDDDD"/>
					<stop  offset="1" style="stop-color:#999999"/>
				</radialGradient>
				
					<path id="path5001" sodipodi:cx="0" sodipodi:cy="0" sodipodi:rx="10" sodipodi:ry="10" sodipodi:type="arc" style="fill:url(#path5001_00000103967843026282571310000016594160973921433474_);" d="
					M10,0c0,5.5-4.5,10-10,10S-10,5.5-10,0s4.5-10,10-10S10-5.5,10,0z"/>
			</g>
			<g id="blackPiece" class="st1">
				
					<radialGradient id="path6000_00000083086214374514216390000015423062763215787440_" cx="-317" cy="-200" r="10" fx="-319" fy="-202" gradientTransform="matrix(1 0 0 1 319 202)" gradientUnits="userSpaceOnUse">
					<stop  offset="0" style="stop-color:#000000"/>
					<stop  offset="1" style="stop-color:#000000;stop-opacity:0"/>
				</radialGradient>
				
					<path id="path6000" sodipodi:cx="2" sodipodi:cy="2" sodipodi:rx="10" sodipodi:ry="10" sodipodi:type="arc" style="fill:url(#path6000_00000083086214374514216390000015423062763215787440_);" d="
					M12,2c0,5.5-4.5,10-10,10S-8,7.5-8,2S-3.5-8,2-8S12-3.5,12,2z"/>
				
					<radialGradient id="path6001_00000145059655219178893940000006607568067817364411_" cx="-319" cy="-202" r="10" fx="-324" fy="-207" gradientTransform="matrix(1 0 0 1 319 202)" gradientUnits="userSpaceOnUse">
					<stop  offset="0" style="stop-color:#888888"/>
					<stop  offset="0.5" style="stop-color:#5B5B5B"/>
					<stop  offset="1" style="stop-color:#000000"/>
				</radialGradient>
				
					<path id="path6001" sodipodi:cx="0" sodipodi:cy="0" sodipodi:rx="10" sodipodi:ry="10" sodipodi:type="arc" style="fill:url(#path6001_00000145059655219178893940000006607568067817364411_);" d="
					M10,0c0,5.5-4.5,10-10,10S-10,5.5-10,0s4.5-10,10-10S10-5.5,10,0z"/>
			</g>
		</g>
		<g id="boardAndNotation">
			<g id="board">
				<rect id="boardBackground" class="st6" width="240" height="240"/>
				<path id="movementLines" class="st7" d="M0,0h240v240H0V0 M40,40h160v160H40V40 M80,80h80v80H80V80 M120,0v80 M240,120h-80
					 M120,240v-80 M0,120h80H0z"/>
				<g id="intersections" class="st0">
					<path id="path1000" sodipodi:cx="0" sodipodi:cy="0" sodipodi:rx="2" sodipodi:ry="2" sodipodi:type="arc" class="st1" d="
						M-2,0c0-1.1,0.9-2,2-2s2,0.9,2,2S1.1,2,0,2S-2,1.1-2,0z"/>
					<g id="use1000" transform="translate(120,0)" class="st1">
						
							<path id="path1000_00000010285488947963004800000007310777108397447328_" sodipodi:cx="0" sodipodi:cy="0" sodipodi:rx="2" sodipodi:ry="2" sodipodi:type="arc" d="
							M118,0c0-1.1,0.9-2,2-2s2,0.9,2,2s-0.9,2-2,2S118,1.1,118,0z"/>
					</g>
					<g id="use1001" transform="translate(240,0)" class="st1">
						
							<path id="path1000_00000091695717842694915540000011321025928021674650_" sodipodi:cx="0" sodipodi:cy="0" sodipodi:rx="2" sodipodi:ry="2" sodipodi:type="arc" d="
							M238,0c0-1.1,0.9-2,2-2s2,0.9,2,2s-0.9,2-2,2S238,1.1,238,0z"/>
					</g>
					<g id="use1002" transform="translate(40,40)" class="st1">
						
							<path id="path1000_00000094607548707677586510000003174321155845559953_" sodipodi:cx="0" sodipodi:cy="0" sodipodi:rx="2" sodipodi:ry="2" sodipodi:type="arc" d="
							M38,40c0-1.1,0.9-2,2-2s2,0.9,2,2s-0.9,2-2,2S38,41.1,38,40z"/>
					</g>
					<g id="use1003" transform="translate(120,40)" class="st1">
						
							<path id="path1000_00000023278087176650919390000010031051821683563929_" sodipodi:cx="0" sodipodi:cy="0" sodipodi:rx="2" sodipodi:ry="2" sodipodi:type="arc" d="
							M118,40c0-1.1,0.9-2,2-2s2,0.9,2,2s-0.9,2-2,2S118,41.1,118,40z"/>
					</g>
					<g id="use1004" transform="translate(200,40)" class="st1">
						
							<path id="path1000_00000034062218702164278280000014772087762394751893_" sodipodi:cx="0" sodipodi:cy="0" sodipodi:rx="2" sodipodi:ry="2" sodipodi:type="arc" d="
							M198,40c0-1.1,0.9-2,2-2s2,0.9,2,2s-0.9,2-2,2S198,41.1,198,40z"/>
					</g>
					<g id="use1005" transform="translate(80,80)" class="st1">
						
							<path id="path1000_00000060720175788748131380000011748361773162957963_" sodipodi:cx="0" sodipodi:cy="0" sodipodi:rx="2" sodipodi:ry="2" sodipodi:type="arc" d="
							M78,80c0-1.1,0.9-2,2-2s2,0.9,2,2s-0.9,2-2,2S78,81.1,78,80z"/>
					</g>
					<g id="use1006" transform="translate(120,80)" class="st1">
						
							<path id="path1000_00000049184359463938234220000014708413127441212305_" sodipodi:cx="0" sodipodi:cy="0" sodipodi:rx="2" sodipodi:ry="2" sodipodi:type="arc" d="
							M118,80c0-1.1,0.9-2,2-2s2,0.9,2,2s-0.9,2-2,2S118,81.1,118,80z"/>
					</g>
					<g id="use1007" transform="translate(160,80)" class="st1">
						
							<path id="path1000_00000140693832662884274650000014375419764091348918_" sodipodi:cx="0" sodipodi:cy="0" sodipodi:rx="2" sodipodi:ry="2" sodipodi:type="arc" d="
							M158,80c0-1.1,0.9-2,2-2s2,0.9,2,2s-0.9,2-2,2S158,81.1,158,80z"/>
					</g>
					<g id="use1008" transform="translate(0,120)" class="st1">
						
							<path id="path1000_00000000932867264266932300000018354874207360748172_" sodipodi:cx="0" sodipodi:cy="0" sodipodi:rx="2" sodipodi:ry="2" sodipodi:type="arc" d="
							M-2,120c0-1.1,0.9-2,2-2s2,0.9,2,2s-0.9,2-2,2S-2,121.1-2,120z"/>
					</g>
					<g id="use1009" transform="translate(40,120)" class="st1">
						
							<path id="path1000_00000121960842176841485330000016568683280143749274_" sodipodi:cx="0" sodipodi:cy="0" sodipodi:rx="2" sodipodi:ry="2" sodipodi:type="arc" d="
							M38,120c0-1.1,0.9-2,2-2s2,0.9,2,2s-0.9,2-2,2S38,121.1,38,120z"/>
					</g>
					<g id="use1010" transform="translate(80,120)" class="st1">
						
							<path id="path1000_00000005232859330081357640000015138746933957780635_" sodipodi:cx="0" sodipodi:cy="0" sodipodi:rx="2" sodipodi:ry="2" sodipodi:type="arc" d="
							M78,120c0-1.1,0.9-2,2-2s2,0.9,2,2s-0.9,2-2,2S78,121.1,78,120z"/>
					</g>
					<g id="use1011" transform="translate(160,120)" class="st1">
						
							<path id="path1000_00000046317080023207055740000012247350123911717564_" sodipodi:cx="0" sodipodi:cy="0" sodipodi:rx="2" sodipodi:ry="2" sodipodi:type="arc" d="
							M158,120c0-1.1,0.9-2,2-2s2,0.9,2,2s-0.9,2-2,2S158,121.1,158,120z"/>
					</g>
					<g id="use1012" transform="translate(200,120)" class="st1">
						
							<path id="path1000_00000007388258224993233710000015881647523428657299_" sodipodi:cx="0" sodipodi:cy="0" sodipodi:rx="2" sodipodi:ry="2" sodipodi:type="arc" d="
							M198,120c0-1.1,0.9-2,2-2s2,0.9,2,2s-0.9,2-2,2S198,121.1,198,120z"/>
					</g>
					<g id="use1013" transform="translate(240,120)" class="st1">
						
							<path id="path1000_00000107553953970299493910000008329213790655385532_" sodipodi:cx="0" sodipodi:cy="0" sodipodi:rx="2" sodipodi:ry="2" sodipodi:type="arc" d="
							M238,120c0-1.1,0.9-2,2-2s2,0.9,2,2s-0.9,2-2,2S238,121.1,238,120z"/>
					</g>
					<g id="use1014" transform="translate(80,160)" class="st1">
						
							<path id="path1000_00000170264356883286732480000002637139303458064794_" sodipodi:cx="0" sodipodi:cy="0" sodipodi:rx="2" sodipodi:ry="2" sodipodi:type="arc" d="
							M78,160c0-1.1,0.9-2,2-2s2,0.9,2,2s-0.9,2-2,2S78,161.1,78,160z"/>
					</g>
					<g id="use1015" transform="translate(120,160)" class="st1">
						
							<path id="path1000_00000152253081149810556430000013333560786075305909_" sodipodi:cx="0" sodipodi:cy="0" sodipodi:rx="2" sodipodi:ry="2" sodipodi:type="arc" d="
							M118,160c0-1.1,0.9-2,2-2s2,0.9,2,2s-0.9,2-2,2S118,161.1,118,160z"/>
					</g>
					<g id="use1016" transform="translate(160,160)" class="st1">
						
							<path id="path1000_00000136393338981965038210000010759479000425084300_" sodipodi:cx="0" sodipodi:cy="0" sodipodi:rx="2" sodipodi:ry="2" sodipodi:type="arc" d="
							M158,160c0-1.1,0.9-2,2-2s2,0.9,2,2s-0.9,2-2,2S158,161.1,158,160z"/>
					</g>
					<g id="use1017" transform="translate(40,200)" class="st1">
						
							<path id="path1000_00000178884204138222432440000007316951101943534977_" sodipodi:cx="0" sodipodi:cy="0" sodipodi:rx="2" sodipodi:ry="2" sodipodi:type="arc" d="
							M38,200c0-1.1,0.9-2,2-2s2,0.9,2,2s-0.9,2-2,2S38,201.1,38,200z"/>
					</g>
					<g id="use1018" transform="translate(120,200)">
						
							<path id="path1000_00000052072331109162220640000011400227416503124106_" sodipodi:cx="0" sodipodi:cy="0" sodipodi:rx="2" sodipodi:ry="2" sodipodi:type="arc" class="st1" d="
							M118,200c0-1.1,0.9-2,2-2s2,0.9,2,2s-0.9,2-2,2S118,201.1,118,200z"/>
					</g>
					<g id="use1019" transform="translate(200,200)">
						
							<path id="path1000_00000072261033303218230070000008655665034406308016_" sodipodi:cx="0" sodipodi:cy="0" sodipodi:rx="2" sodipodi:ry="2" sodipodi:type="arc" class="st1" d="
							M198,200c0-1.1,0.9-2,2-2s2,0.9,2,2s-0.9,2-2,2S198,201.1,198,200z"/>
					</g>
					<g id="use1020" transform="translate(0,240)">
						
							<path id="path1000_00000017506393311169389890000007927785551541183123_" sodipodi:cx="0" sodipodi:cy="0" sodipodi:rx="2" sodipodi:ry="2" sodipodi:type="arc" class="st1" d="
							M-2,240c0-1.1,0.9-2,2-2s2,0.9,2,2s-0.9,2-2,2S-2,241.1-2,240z"/>
					</g>
					<g id="use1021" transform="translate(120,240)">
						
							<path id="path1000_00000068654437025268750040000018102396563165817521_" sodipodi:cx="0" sodipodi:cy="0" sodipodi:rx="2" sodipodi:ry="2" sodipodi:type="arc" class="st1" d="
							M118,240c0-1.1,0.9-2,2-2s2,0.9,2,2s-0.9,2-2,2S118,241.1,118,240z"/>
					</g>
					<g id="use1022" transform="translate(240,240)">
						
							<path id="path1000_00000049196674890677514490000003149927348515625888_" sodipodi:cx="0" sodipodi:cy="0" sodipodi:rx="2" sodipodi:ry="2" sodipodi:type="arc" class="st1" d="
							M238,240c0-1.1,0.9-2,2-2s2,0.9,2,2s-0.9,2-2,2S238,241.1,238,240z"/>
					</g>
				</g>
			</g>
			<g id="notation">
				<g id="g2000" transform="translate(0,263.252)">
					<text id="text1000" transform="matrix(1 0 0 1 -3.3369 -6.087500e-05)" class="st8 st9">a</text>
					<text id="text1001" transform="matrix(1 0 0 1 36.6631 -6.087500e-05)" class="st8 st9">b</text>
					<text id="text1002" transform="matrix(1 0 0 1 77 -6.087500e-05)" class="st8 st9">c</text>
					<text id="text1003" transform="matrix(1 0 0 1 116.6631 -6.087500e-05)" class="st8 st9">d</text>
					<text id="text1004" transform="matrix(1 0 0 1 156.6631 -6.087500e-05)" class="st8 st9">e</text>
					<text id="text1005" transform="matrix(1 0 0 1 198.333 -6.087500e-05)" class="st8 st9">f</text>
					<text id="text1006" transform="matrix(1 0 0 1 236.6631 -6.087500e-05)" class="st8 st9">g</text>
				</g>
				<g id="g3000" transform="translate(-20,3.252)">
					<text id="text3000" transform="matrix(1 0 0 1 -3.3369 -4.687500e-05)" class="st8 st9">7</text>
					<text id="text3001" transform="matrix(1 0 0 1 -3.3369 40)" class="st8 st9">6</text>
					<text id="text3002" transform="matrix(1 0 0 1 -3.3369 80)" class="st8 st9">5</text>
					<text id="text3003" transform="matrix(1 0 0 1 -3.3369 120)" class="st8 st9">4</text>
					<text id="text3004" transform="matrix(1 0 0 1 -3.3369 160)" class="st8 st9">3</text>
					<text id="text3005" transform="matrix(1 0 0 1 -3.3369 200)" class="st8 st9">2</text>
					<text id="text3006" transform="matrix(1 0 0 1 -3.3369 240)" class="st8 st9">1</text>
				</g>
			</g>
		</g>
		<g id="pieces" class="st0">
			<g id="whitePiece1" transform="translate(160,80)" class="st1">
				<g id="whitePiece_00000069391025720006290850000014596809886116939913_">
					
						<radialGradient id="path5000_00000128476609121553439160000012821809398026169738_" cx="-237" cy="-280" r="10" fx="-239" fy="-282" gradientTransform="matrix(1 0 0 1 399 362)" gradientUnits="userSpaceOnUse">
						<stop  offset="0" style="stop-color:#000000"/>
						<stop  offset="1" style="stop-color:#000000;stop-opacity:0"/>
					</radialGradient>
					
						<path id="path5000_00000126285849214882948010000013983214695670986936_" sodipodi:cx="2" sodipodi:cy="2" sodipodi:rx="10" sodipodi:ry="10" sodipodi:type="arc" style="fill:url(#path5000_00000128476609121553439160000012821809398026169738_);" d="
						M172,82c0,5.5-4.5,10-10,10s-10-4.5-10-10s4.5-10,10-10S172,76.5,172,82z"/>
					
						<radialGradient id="path5001_00000173852616538599739010000007833160355757292975_" cx="-239" cy="-282" r="10" fx="-244" fy="-287" gradientTransform="matrix(1 0 0 1 399 362)" gradientUnits="userSpaceOnUse">
						<stop  offset="0" style="stop-color:#FFFFFF"/>
						<stop  offset="0.5" style="stop-color:#DDDDDD"/>
						<stop  offset="1" style="stop-color:#999999"/>
					</radialGradient>
					
						<path id="path5001_00000023274700326383834620000003243527906702230401_" sodipodi:cx="0" sodipodi:cy="0" sodipodi:rx="10" sodipodi:ry="10" sodipodi:type="arc" style="fill:url(#path5001_00000173852616538599739010000007833160355757292975_);" d="
						M170,80c0,5.5-4.5,10-10,10s-10-4.5-10-10s4.5-10,10-10S170,74.5,170,80z"/>
				</g>
			</g>
			<g id="whitePiece2" transform="translate(160,120)" class="st1">
				<g id="whitePiece_00000027594882538941033840000007841305640923399832_">
					
						<radialGradient id="path5000_00000145032112382224066480000004813674745052788634_" cx="-237" cy="-320" r="10" fx="-239" fy="-322" gradientTransform="matrix(1 0 0 1 399 442)" gradientUnits="userSpaceOnUse">
						<stop  offset="0" style="stop-color:#000000"/>
						<stop  offset="1" style="stop-color:#000000;stop-opacity:0"/>
					</radialGradient>
					
						<path id="path5000_00000170981880694708590860000003207171326687475363_" sodipodi:cx="2" sodipodi:cy="2" sodipodi:rx="10" sodipodi:ry="10" sodipodi:type="arc" style="fill:url(#path5000_00000145032112382224066480000004813674745052788634_);" d="
						M172,122c0,5.5-4.5,10-10,10s-10-4.5-10-10s4.5-10,10-10S172,116.5,172,122z"/>
					
						<radialGradient id="path5001_00000055674420068770260440000012969783062608483495_" cx="-239" cy="-322" r="10" fx="-244" fy="-327" gradientTransform="matrix(1 0 0 1 399 442)" gradientUnits="userSpaceOnUse">
						<stop  offset="0" style="stop-color:#FFFFFF"/>
						<stop  offset="0.5" style="stop-color:#DDDDDD"/>
						<stop  offset="1" style="stop-color:#999999"/>
					</radialGradient>
					
						<path id="path5001_00000054228368440585696430000000033499982146872472_" sodipodi:cx="0" sodipodi:cy="0" sodipodi:rx="10" sodipodi:ry="10" sodipodi:type="arc" style="fill:url(#path5001_00000055674420068770260440000012969783062608483495_);" d="
						M170,120c0,5.5-4.5,10-10,10s-10-4.5-10-10s4.5-10,10-10S170,114.5,170,120z"/>
				</g>
			</g>
			<g id="whitePiece3" transform="translate(160,160)" class="st1">
				<g id="whitePiece_00000091729463749267312440000005047761569906722949_">
					
						<radialGradient id="path5000_00000085943767943104973770000016179444856390523030_" cx="-237" cy="-360" r="10" fx="-239" fy="-362" gradientTransform="matrix(1 0 0 1 399 522)" gradientUnits="userSpaceOnUse">
						<stop  offset="0" style="stop-color:#000000"/>
						<stop  offset="1" style="stop-color:#000000;stop-opacity:0"/>
					</radialGradient>
					
						<path id="path5000_00000150097776267636645240000011714239183951507862_" sodipodi:cx="2" sodipodi:cy="2" sodipodi:rx="10" sodipodi:ry="10" sodipodi:type="arc" style="fill:url(#path5000_00000085943767943104973770000016179444856390523030_);" d="
						M172,162c0,5.5-4.5,10-10,10s-10-4.5-10-10s4.5-10,10-10S172,156.5,172,162z"/>
					
						<radialGradient id="path5001_00000144315064910513894250000009012086671587682480_" cx="-239" cy="-362" r="10" fx="-244" fy="-367" gradientTransform="matrix(1 0 0 1 399 522)" gradientUnits="userSpaceOnUse">
						<stop  offset="0" style="stop-color:#FFFFFF"/>
						<stop  offset="0.5" style="stop-color:#DDDDDD"/>
						<stop  offset="1" style="stop-color:#999999"/>
					</radialGradient>
					
						<path id="path5001_00000181788093390916482740000000468800097929808316_" sodipodi:cx="0" sodipodi:cy="0" sodipodi:rx="10" sodipodi:ry="10" sodipodi:type="arc" style="fill:url(#path5001_00000144315064910513894250000009012086671587682480_);" d="
						M170,160c0,5.5-4.5,10-10,10s-10-4.5-10-10s4.5-10,10-10S170,154.5,170,160z"/>
				</g>
			</g>
			<g id="whitePiece4" transform="translate(120,200)" class="st1">
				<g id="whitePiece_00000031178777062811498660000008091045646237504672_">
					
						<radialGradient id="path5000_00000109016873650005596570000014511239903884390562_" cx="-197" cy="-400" r="10" fx="-199" fy="-402" gradientTransform="matrix(1 0 0 1 319 602)" gradientUnits="userSpaceOnUse">
						<stop  offset="0" style="stop-color:#000000"/>
						<stop  offset="1" style="stop-color:#000000;stop-opacity:0"/>
					</radialGradient>
					
						<path id="path5000_00000146467742276178370430000013524600854307121840_" sodipodi:cx="2" sodipodi:cy="2" sodipodi:rx="10" sodipodi:ry="10" sodipodi:type="arc" style="fill:url(#path5000_00000109016873650005596570000014511239903884390562_);" d="
						M132,202c0,5.5-4.5,10-10,10s-10-4.5-10-10s4.5-10,10-10S132,196.5,132,202z"/>
					
						<radialGradient id="path5001_00000075853117034252094140000010906087711316151196_" cx="-199" cy="-402" r="10" fx="-204" fy="-407" gradientTransform="matrix(1 0 0 1 319 602)" gradientUnits="userSpaceOnUse">
						<stop  offset="0" style="stop-color:#FFFFFF"/>
						<stop  offset="0.5" style="stop-color:#DDDDDD"/>
						<stop  offset="1" style="stop-color:#999999"/>
					</radialGradient>
					
						<path id="path5001_00000062892592229365712020000011529747870402028167_" sodipodi:cx="0" sodipodi:cy="0" sodipodi:rx="10" sodipodi:ry="10" sodipodi:type="arc" style="fill:url(#path5001_00000075853117034252094140000010906087711316151196_);" d="
						M130,200c0,5.5-4.5,10-10,10s-10-4.5-10-10s4.5-10,10-10S130,194.5,130,200z"/>
				</g>
			</g>
			<g id="whitePiece5" transform="translate(120,240)" class="st1">
				<g id="whitePiece_00000145742213461996372310000002932160919367646346_">
					
						<radialGradient id="path5000_00000177471395747975716230000012589409071989677199_" cx="-197" cy="-440" r="10" fx="-199" fy="-442" gradientTransform="matrix(1 0 0 1 319 682)" gradientUnits="userSpaceOnUse">
						<stop  offset="0" style="stop-color:#000000"/>
						<stop  offset="1" style="stop-color:#000000;stop-opacity:0"/>
					</radialGradient>
					
						<path id="path5000_00000142892406706768640590000012203522225655846319_" sodipodi:cx="2" sodipodi:cy="2" sodipodi:rx="10" sodipodi:ry="10" sodipodi:type="arc" style="fill:url(#path5000_00000177471395747975716230000012589409071989677199_);" d="
						M132,242c0,5.5-4.5,10-10,10s-10-4.5-10-10s4.5-10,10-10S132,236.5,132,242z"/>
					
						<radialGradient id="path5001_00000157297109767430588220000006582244276322480297_" cx="-199" cy="-442" r="10" fx="-204" fy="-447" gradientTransform="matrix(1 0 0 1 319 682)" gradientUnits="userSpaceOnUse">
						<stop  offset="0" style="stop-color:#FFFFFF"/>
						<stop  offset="0.5" style="stop-color:#DDDDDD"/>
						<stop  offset="1" style="stop-color:#999999"/>
					</radialGradient>
					
						<path id="path5001_00000092432949339499420800000015966178667885385387_" sodipodi:cx="0" sodipodi:cy="0" sodipodi:rx="10" sodipodi:ry="10" sodipodi:type="arc" style="fill:url(#path5001_00000157297109767430588220000006582244276322480297_);" d="
						M130,240c0,5.5-4.5,10-10,10s-10-4.5-10-10s4.5-10,10-10S130,234.5,130,240z"/>
				</g>
			</g>
			<g id="blackPiece1" transform="translate(200,40)" class="st1">
				<g id="blackPiece_00000018923952116464185120000007537891440172147589_">
					
						<radialGradient id="path6000_00000133493121025482179830000005176322990853205637_" cx="-277" cy="-240" r="10" fx="-279" fy="-242" gradientTransform="matrix(1 0 0 1 479 282)" gradientUnits="userSpaceOnUse">
						<stop  offset="0" style="stop-color:#000000"/>
						<stop  offset="1" style="stop-color:#000000;stop-opacity:0"/>
					</radialGradient>
					
						<path id="path6000_00000011019751977394196430000014616554744914831512_" sodipodi:cx="2" sodipodi:cy="2" sodipodi:rx="10" sodipodi:ry="10" sodipodi:type="arc" style="fill:url(#path6000_00000133493121025482179830000005176322990853205637_);" d="
						M212,42c0,5.5-4.5,10-10,10s-10-4.5-10-10s4.5-10,10-10S212,36.5,212,42z"/>
					
						<radialGradient id="path6001_00000021815846635299743070000006485145149639704244_" cx="-279" cy="-242" r="10" fx="-284" fy="-247" gradientTransform="matrix(1 0 0 1 479 282)" gradientUnits="userSpaceOnUse">
						<stop  offset="0" style="stop-color:#888888"/>
						<stop  offset="0.5" style="stop-color:#5B5B5B"/>
						<stop  offset="1" style="stop-color:#000000"/>
					</radialGradient>
					
						<path id="path6001_00000121268685504359443950000004563111305321064895_" sodipodi:cx="0" sodipodi:cy="0" sodipodi:rx="10" sodipodi:ry="10" sodipodi:type="arc" style="fill:url(#path6001_00000021815846635299743070000006485145149639704244_);" d="
						M210,40c0,5.5-4.5,10-10,10s-10-4.5-10-10s4.5-10,10-10S210,34.5,210,40z"/>
				</g>
			</g>
			<g id="blackPiece2" transform="translate(40,120)" class="st1">
				<g id="blackPiece_00000104682496208075064570000011191362159915872385_">
					
						<radialGradient id="path6000_00000100350913472699585350000004290692374386807954_" cx="-117" cy="-320" r="10" fx="-119" fy="-322" gradientTransform="matrix(1 0 0 1 159 442)" gradientUnits="userSpaceOnUse">
						<stop  offset="0" style="stop-color:#000000"/>
						<stop  offset="1" style="stop-color:#000000;stop-opacity:0"/>
					</radialGradient>
					
						<path id="path6000_00000078040533015338583420000013670248026150883490_" sodipodi:cx="2" sodipodi:cy="2" sodipodi:rx="10" sodipodi:ry="10" sodipodi:type="arc" style="fill:url(#path6000_00000100350913472699585350000004290692374386807954_);" d="
						M52,122c0,5.5-4.5,10-10,10s-10-4.5-10-10s4.5-10,10-10S52,116.5,52,122z"/>
					
						<radialGradient id="path6001_00000064328291852222681050000010932248329240802461_" cx="-119" cy="-322" r="10" fx="-124" fy="-327" gradientTransform="matrix(1 0 0 1 159 442)" gradientUnits="userSpaceOnUse">
						<stop  offset="0" style="stop-color:#888888"/>
						<stop  offset="0.5" style="stop-color:#5B5B5B"/>
						<stop  offset="1" style="stop-color:#000000"/>
					</radialGradient>
					
						<path id="path6001_00000059299819797293674530000017498584434738211004_" sodipodi:cx="0" sodipodi:cy="0" sodipodi:rx="10" sodipodi:ry="10" sodipodi:type="arc" style="fill:url(#path6001_00000064328291852222681050000010932248329240802461_);" d="
						M50,120c0,5.5-4.5,10-10,10s-10-4.5-10-10s4.5-10,10-10S50,114.5,50,120z"/>
				</g>
			</g>
			<g id="blackPiece3" transform="translate(80,120)" class="st1">
				<g id="blackPiece_00000119111604584524991370000017581691291535826095_">
					
						<radialGradient id="path6000_00000019657665622032136580000005613324636190506673_" cx="-157" cy="-320" r="10" fx="-159" fy="-322" gradientTransform="matrix(1 0 0 1 239 442)" gradientUnits="userSpaceOnUse">
						<stop  offset="0" style="stop-color:#000000"/>
						<stop  offset="1" style="stop-color:#000000;stop-opacity:0"/>
					</radialGradient>
					
						<path id="path6000_00000136386941454168549190000015452009856315869063_" sodipodi:cx="2" sodipodi:cy="2" sodipodi:rx="10" sodipodi:ry="10" sodipodi:type="arc" style="fill:url(#path6000_00000019657665622032136580000005613324636190506673_);" d="
						M92,122c0,5.5-4.5,10-10,10s-10-4.5-10-10s4.5-10,10-10S92,116.5,92,122z"/>
					
						<radialGradient id="path6001_00000055688230567316827880000005943071111736159621_" cx="-159" cy="-322" r="10" fx="-164" fy="-327" gradientTransform="matrix(1 0 0 1 239 442)" gradientUnits="userSpaceOnUse">
						<stop  offset="0" style="stop-color:#888888"/>
						<stop  offset="0.5" style="stop-color:#5B5B5B"/>
						<stop  offset="1" style="stop-color:#000000"/>
					</radialGradient>
					
						<path id="path6001_00000010995609153275794810000016787693627287723401_" sodipodi:cx="0" sodipodi:cy="0" sodipodi:rx="10" sodipodi:ry="10" sodipodi:type="arc" style="fill:url(#path6001_00000055688230567316827880000005943071111736159621_);" d="
						M90,120c0,5.5-4.5,10-10,10s-10-4.5-10-10s4.5-10,10-10S90,114.5,90,120z"/>
				</g>
			</g>
			<g id="blackPiece4" transform="translate(200,120)" class="st1">
				<g id="blackPiece_00000016041329494405174560000017094897323823090307_">
					
						<radialGradient id="path6000_00000153665909858972813490000012161420120798404275_" cx="-277" cy="-320" r="10" fx="-279" fy="-322" gradientTransform="matrix(1 0 0 1 479 442)" gradientUnits="userSpaceOnUse">
						<stop  offset="0" style="stop-color:#000000"/>
						<stop  offset="1" style="stop-color:#000000;stop-opacity:0"/>
					</radialGradient>
					
						<path id="path6000_00000027602484863786820060000008483251088086023613_" sodipodi:cx="2" sodipodi:cy="2" sodipodi:rx="10" sodipodi:ry="10" sodipodi:type="arc" style="fill:url(#path6000_00000153665909858972813490000012161420120798404275_);" d="
						M212,122c0,5.5-4.5,10-10,10s-10-4.5-10-10s4.5-10,10-10S212,116.5,212,122z"/>
					
						<radialGradient id="path6001_00000116952706201604787910000005664644342408663204_" cx="-279" cy="-322" r="10" fx="-284" fy="-327" gradientTransform="matrix(1 0 0 1 479 442)" gradientUnits="userSpaceOnUse">
						<stop  offset="0" style="stop-color:#888888"/>
						<stop  offset="0.5" style="stop-color:#5B5B5B"/>
						<stop  offset="1" style="stop-color:#000000"/>
					</radialGradient>
					
						<path id="path6001_00000061449081140404691420000011763807454431529373_" sodipodi:cx="0" sodipodi:cy="0" sodipodi:rx="10" sodipodi:ry="10" sodipodi:type="arc" style="fill:url(#path6001_00000116952706201604787910000005664644342408663204_);" d="
						M210,120c0,5.5-4.5,10-10,10s-10-4.5-10-10s4.5-10,10-10S210,114.5,210,120z"/>
				</g>
			</g>
			<g id="blackPiece5" transform="translate(40,200)" class="st1">
				<g id="blackPiece_00000127763126461792109870000007872599563734697120_">
					
						<radialGradient id="path6000_00000149380661655167327490000004571640282586478770_" cx="-117" cy="-400" r="10" fx="-119" fy="-402" gradientTransform="matrix(1 0 0 1 159 602)" gradientUnits="userSpaceOnUse">
						<stop  offset="0" style="stop-color:#000000"/>
						<stop  offset="1" style="stop-color:#000000;stop-opacity:0"/>
					</radialGradient>
					
						<path id="path6000_00000054268259538729001420000015061663103839774890_" sodipodi:cx="2" sodipodi:cy="2" sodipodi:rx="10" sodipodi:ry="10" sodipodi:type="arc" style="fill:url(#path6000_00000149380661655167327490000004571640282586478770_);" d="
						M52,202c0,5.5-4.5,10-10,10s-10-4.5-10-10s4.5-10,10-10S52,196.5,52,202z"/>
					
						<radialGradient id="path6001_00000044879084532915936870000014872026479182222522_" cx="-119" cy="-402" r="10" fx="-124" fy="-407" gradientTransform="matrix(1 0 0 1 159 602)" gradientUnits="userSpaceOnUse">
						<stop  offset="0" style="stop-color:#888888"/>
						<stop  offset="0.5" style="stop-color:#5B5B5B"/>
						<stop  offset="1" style="stop-color:#000000"/>
					</radialGradient>
					
						<path id="path6001_00000039818853045984387620000015779842510929568936_" sodipodi:cx="0" sodipodi:cy="0" sodipodi:rx="10" sodipodi:ry="10" sodipodi:type="arc" style="fill:url(#path6001_00000044879084532915936870000014872026479182222522_);" d="
						M50,200c0,5.5-4.5,10-10,10s-10-4.5-10-10s4.5-10,10-10S50,194.5,50,200z"/>
				</g>
			</g>
			<g id="blackPiece6" transform="translate(200,200)" class="st1">
				<g id="blackPiece_00000140707646915323736280000015930183880134197429_">
					
						<radialGradient id="path6000_00000101781984169801201070000009648060569586235315_" cx="-277" cy="-400" r="10" fx="-279" fy="-402" gradientTransform="matrix(1 0 0 1 479 602)" gradientUnits="userSpaceOnUse">
						<stop  offset="0" style="stop-color:#000000"/>
						<stop  offset="1" style="stop-color:#000000;stop-opacity:0"/>
					</radialGradient>
					
						<path id="path6000_00000054258533169497538730000003370912391492464259_" sodipodi:cx="2" sodipodi:cy="2" sodipodi:rx="10" sodipodi:ry="10" sodipodi:type="arc" style="fill:url(#path6000_00000101781984169801201070000009648060569586235315_);" d="
						M212,202c0,5.5-4.5,10-10,10s-10-4.5-10-10s4.5-10,10-10S212,196.5,212,202z"/>
					
						<radialGradient id="path6001_00000085225444639437596970000013819161851567463303_" cx="-279" cy="-402" r="10" fx="-284" fy="-407" gradientTransform="matrix(1 0 0 1 479 602)" gradientUnits="userSpaceOnUse">
						<stop  offset="0" style="stop-color:#888888"/>
						<stop  offset="0.5" style="stop-color:#5B5B5B"/>
						<stop  offset="1" style="stop-color:#000000"/>
					</radialGradient>
					
						<path id="path6001_00000124855246741162293580000003588972134077604005_" sodipodi:cx="0" sodipodi:cy="0" sodipodi:rx="10" sodipodi:ry="10" sodipodi:type="arc" style="fill:url(#path6001_00000085225444639437596970000013819161851567463303_);" d="
						M210,200c0,5.5-4.5,10-10,10s-10-4.5-10-10s4.5-10,10-10S210,194.5,210,200z"/>
				</g>
			</g>
		</g>
	</g>
</g>
</svg>
