<?xml version="1.0" encoding="utf-8"?><svg version="1.1" id="BackgroundSVG" xmlns="http://www.w3.org/2000/svg" viewBox="10 80 220 220"><style> .st8 { font-family: 'Helvetica'; } .st9 { font-size: 12px; } </style><g transform="translate(39.5,20.5)"><rect fill="#FFF0C0" y="80" width="160" height="160" /><path fill="none" stroke="#000000" d="M0,80h160v160h-160z M40,120h80v80h-80z M80,80v40 M160,160h-40 M80,240v-40 M0,160h40H0z" /><g transform="translate(0,263.252)"><text transform="matrix(1 0 0 1 -3.3369 -6.087500e-05)" class="st8 st9">a</text><text transform="matrix(1 0 0 1 36.6631 -6.087500e-05)" class="st8 st9">b</text><text transform="matrix(1 0 0 1 77 -6.087500e-05)" class="st8 st9">c</text><text transform="matrix(1 0 0 1 116.6631 -6.087500e-05)" class="st8 st9">d</text><text transform="matrix(1 0 0 1 156.6631 -6.087500e-05)" class="st8 st9">e</text></g><g transform="translate(-20,3.252)"><text transform="matrix(1 0 0 1 -3.3369 80)" class="st8 st9">5</text><text transform="matrix(1 0 0 1 -3.3369 120)" class="st8 st9">4</text><text transform="matrix(1 0 0 1 -3.3369 160)" class="st8 st9">3</text><text transform="matrix(1 0 0 1 -3.3369 200)" class="st8 st9">2</text><text transform="matrix(1 0 0 1 -3.3369 240)" class="st8 st9">1</text></g></g></svg>