<?xml version="1.0" encoding="utf-8"?>
<!-- Generator: Adobe Illustrator 26.0.1, SVG Export Plug-In . SVG Version: 6.00 Build 0)  -->
<svg version="1.1"
	 id="svg2" inkscape:version="0.44" sodipodi:version="0.32" xmlns:cc="http://web.resource.org/cc/" xmlns:dc="http://purl.org/dc/elements/1.1/" xmlns:inkscape="http://www.inkscape.org/namespaces/inkscape" xmlns:rdf="http://www.w3.org/1999/02/22-rdf-syntax-ns#" xmlns:sodipodi="http://sodipodi.sourceforge.net/DTD/sodipodi-0.dtd" xmlns:svg="http://www.w3.org/2000/svg"
	 xmlns="http://www.w3.org/2000/svg" xmlns:xlink="http://www.w3.org/1999/xlink" x="0px" y="0px" viewBox="10 80 220 220"
	 style="enable-background:new 10 80 220 220;" xml:space="preserve">
<style type="text/css">
	.st0{display:none;}
	.st1{display:inline;}
	.st4{fill:url(#path6000_00000086655386847697026890000004411693081378275236_);}
	.st5{fill:url(#path6001_00000044897441953566362290000015660102596441335727_);}
	.st6{fill:#FFF0C0;}
	.st7{fill:none;stroke:#000000;}
	.st8{font-family:'Helvetica';}
	.st9{font-size:12px;}
</style>
<sodipodi:namedview  bordercolor="#666666" borderopacity="1.0" gridempspacing="0" gridoriginx="10px" gridoriginy="10px" gridspacingx="20px" gridspacingy="20px" gridtolerance="50" guidetolerance="10" id="base" inkscape:current-layer="layer1" inkscape:cx="150" inkscape:cy="150" inkscape:document-units="px" inkscape:grid-bbox="false" inkscape:grid-points="false" inkscape:guide-bbox="false" inkscape:guide-points="false" inkscape:object-bbox="false" inkscape:object-nodes="false" inkscape:object-paths="false" inkscape:object-points="false" inkscape:pageopacity="0.0" inkscape:pageshadow="2" inkscape:window-height="721" inkscape:window-width="1024" inkscape:window-x="-4" inkscape:window-y="-4" inkscape:zoom="1" objecttolerance="50" pagecolor="#ffffff" showgrid="true" showguides="true">
	</sodipodi:namedview>
<g id="layer1" transform="translate(39.5,20.5)" inkscape:groupmode="layer" inkscape:label="Layer 1">
	<g id="everything">
		<g id="boardAndNotation">
			<g id="board">
				<rect id="boardBackground" class="st6" y="80" width="160" height="160"/>
				<path id="movementLines" class="st7" d="M0,80h160v160h-160z M40,120h80v80h-80z M80,80v40 M160,160h-40
					 M80,240v-40 M0,160h40H0z"/>
			</g>
			<g id="notation">
				<g id="g2000" transform="translate(0,263.252)">
					<text id="text1000" transform="matrix(1 0 0 1 -3.3369 -6.087500e-05)" class="st8 st9">a</text>
					<text id="text1001" transform="matrix(1 0 0 1 36.6631 -6.087500e-05)" class="st8 st9">b</text>
					<text id="text1002" transform="matrix(1 0 0 1 77 -6.087500e-05)" class="st8 st9">c</text>
					<text id="text1003" transform="matrix(1 0 0 1 116.6631 -6.087500e-05)" class="st8 st9">d</text>
					<text id="text1004" transform="matrix(1 0 0 1 156.6631 -6.087500e-05)" class="st8 st9">e</text>
				</g>
				<g id="g3000" transform="translate(-20,3.252)">
					<text id="text3002" transform="matrix(1 0 0 1 -3.3369 80)" class="st8 st9">5</text>
					<text id="text3003" transform="matrix(1 0 0 1 -3.3369 120)" class="st8 st9">4</text>
					<text id="text3004" transform="matrix(1 0 0 1 -3.3369 160)" class="st8 st9">3</text>
					<text id="text3005" transform="matrix(1 0 0 1 -3.3369 200)" class="st8 st9">2</text>
					<text id="text3006" transform="matrix(1 0 0 1 -3.3369 240)" class="st8 st9">1</text>
				</g>
			</g>
		</g>
	</g>
</g>
</svg>
