<svg version="1.1" viewBox="0.0 0.0 96.0 96.0" fill="none" stroke="none" stroke-linecap="square" stroke-miterlimit="10" xmlns:xlink="http://www.w3.org/1999/xlink" xmlns="http://www.w3.org/2000/svg"><clipPath id="p.0"><path d="m0 0l96.0 0l0 96.0l-96.0 0l0 -96.0z" clip-rule="nonzero"/></clipPath><g clip-path="url(#p.0)"><path fill="#000000" fill-opacity="0.0" d="m0 0l96.0 0l0 96.0l-96.0 0z" fill-rule="evenodd"/><path fill="#ff0000" d="m0.07874016 48.0l0 0c0 -26.213957 21.455078 -47.464565 47.92126 -47.464565l0 0c12.709507 0 24.898468 5.000717 33.885445 13.90205c8.986984 8.901333 14.035812 20.97413 14.035812 33.562515l0 0c0 26.213959 -21.455078 47.46457 -47.921257 47.46457l0 0c-26.46618 0 -47.92126 -21.25061 -47.92126 -47.46457z" fill-rule="evenodd"/><path stroke="#000000" stroke-width="2.0" stroke-linejoin="round" stroke-linecap="butt" d="m0.07874016 48.0l0 0c0 -26.213957 21.455078 -47.464565 47.92126 -47.464565l0 0c12.709507 0 24.898468 5.000717 33.885445 13.90205c8.986984 8.901333 14.035812 20.97413 14.035812 33.562515l0 0c0 26.213959 -21.455078 47.46457 -47.921257 47.46457l0 0c-26.46618 0 -47.92126 -21.25061 -47.92126 -47.46457z" fill-rule="evenodd"/><path fill="#000000" d="m50.779297 56.54l-3.296875 0l0 -12.40625q-1.8125 1.6875 -4.25 2.484375l0 -2.984375q1.28125 -0.421875 2.796875 -1.59375q1.515625 -1.1875 2.078125 -2.75l2.671875 0l0 17.25z" fill-rule="nonzero"/></g></svg>