<svg version="1.1" viewBox="0.0 0.0 96.0 96.0" fill="none" stroke="none" stroke-linecap="square" stroke-miterlimit="10" xmlns:xlink="http://www.w3.org/1999/xlink" xmlns="http://www.w3.org/2000/svg"><clipPath id="p.0"><path d="m0 0l96.0 0l0 96.0l-96.0 0l0 -96.0z" clip-rule="nonzero"/></clipPath><g clip-path="url(#p.0)"><path fill="#000000" fill-opacity="0.0" d="m0 0l96.0 0l0 96.0l-96.0 0z" fill-rule="evenodd"/><path fill="#ffff00" d="m0.07874016 48.0l0 0c0 -26.213957 21.455078 -47.464565 47.92126 -47.464565l0 0c12.709507 0 24.898468 5.000717 33.885445 13.90205c8.986984 8.901333 14.035812 20.97413 14.035812 33.562515l0 0c0 26.213959 -21.455078 47.46457 -47.921257 47.46457l0 0c-26.46618 0 -47.92126 -21.25061 -47.92126 -47.46457z" fill-rule="evenodd"/><path stroke="#000000" stroke-width="2.0" stroke-linejoin="round" stroke-linecap="butt" d="m0.07874016 48.0l0 0c0 -26.213957 21.455078 -47.464565 47.92126 -47.464565l0 0c12.709507 0 24.898468 5.000717 33.885445 13.90205c8.986984 8.901333 14.035812 20.97413 14.035812 33.562515l0 0c0 26.213959 -21.455078 47.46457 -47.921257 47.46457l0 0c-26.46618 0 -47.92126 -21.25061 -47.92126 -47.46457z" fill-rule="evenodd"/><path fill="#000000" d="m53.466797 53.4775l0 3.0625l-11.546875 0q0.1875 -1.734375 1.125 -3.28125q0.9375 -1.5625 3.703125 -4.125q2.234375 -2.078125 2.734375 -2.8125q0.6875 -1.015625 0.6875 -2.015625q0 -1.109375 -0.59375 -1.6875q-0.59375 -0.59375 -1.640625 -0.59375q-1.03125 0 -1.640625 0.625q-0.609375 0.609375 -0.703125 2.046875l-3.28125 -0.328125q0.296875 -2.71875 1.84375 -3.890625q1.546875 -1.1875 3.859375 -1.1875q2.546875 0 4.0 1.375q1.453125 1.359375 1.453125 3.40625q0 1.15625 -0.421875 2.203125q-0.40625 1.046875 -1.3125 2.203125q-0.59375 0.765625 -2.15625 2.203125q-1.5625 1.421875 -1.984375 1.890625q-0.40625 0.46875 -0.65625 0.90625l6.53125 0z" fill-rule="nonzero"/></g></svg>