<svg version="1.1" viewBox="0.0 0.0 96.0 96.0" fill="none" stroke="none" stroke-linecap="square" stroke-miterlimit="10" xmlns:xlink="http://www.w3.org/1999/xlink" xmlns="http://www.w3.org/2000/svg"><clipPath id="p.0"><path d="m0 0l96.0 0l0 96.0l-96.0 0l0 -96.0z" clip-rule="nonzero"/></clipPath><g clip-path="url(#p.0)"><path fill="#000000" fill-opacity="0.0" d="m0 0l96.0 0l0 96.0l-96.0 0z" fill-rule="evenodd"/><path fill="#ff9900" d="m0.07874016 48.0l0 0c0 -26.213957 21.455078 -47.464565 47.92126 -47.464565l0 0c12.709507 0 24.898468 5.000717 33.885445 13.90205c8.986984 8.901333 14.035812 20.97413 14.035812 33.562515l0 0c0 26.213959 -21.455078 47.46457 -47.921257 47.46457l0 0c-26.46618 0 -47.92126 -21.25061 -47.92126 -47.46457z" fill-rule="evenodd"/><path stroke="#000000" stroke-width="2.0" stroke-linejoin="round" stroke-linecap="butt" d="m0.07874016 48.0l0 0c0 -26.213957 21.455078 -47.464565 47.92126 -47.464565l0 0c12.709507 0 24.898468 5.000717 33.885445 13.90205c8.986984 8.901333 14.035812 20.97413 14.035812 33.562515l0 0c0 26.213959 -21.455078 47.46457 -47.921257 47.46457l0 0c-26.46618 0 -47.92126 -21.25061 -47.92126 -47.46457z" fill-rule="evenodd"/><path fill="#000000" d="m42.23242 51.9775l3.1875 -0.390625q0.15625 1.21875 0.8125 1.875q0.671875 0.640625 1.625 0.640625q1.015625 0 1.703125 -0.765625q0.703125 -0.78125 0.703125 -2.09375q0 -1.25 -0.671875 -1.96875q-0.65625 -0.734375 -1.625 -0.734375q-0.625 0 -1.5 0.25l0.359375 -2.6875q1.328125 0.046875 2.03125 -0.5625q0.703125 -0.625 0.703125 -1.640625q0 -0.875 -0.515625 -1.390625q-0.515625 -0.515625 -1.359375 -0.515625q-0.84375 0 -1.453125 0.59375q-0.59375 0.578125 -0.71875 1.703125l-3.03125 -0.515625q0.3125 -1.5625 0.953125 -2.484375q0.640625 -0.9375 1.78125 -1.46875q1.140625 -0.53125 2.5625 -0.53125q2.421875 0 3.890625 1.546875q1.203125 1.265625 1.203125 2.859375q0 2.265625 -2.46875 3.609375q1.46875 0.3125 2.34375 1.421875q0.890625 1.09375 0.890625 2.65625q0 2.265625 -1.65625 3.859375q-1.640625 1.59375 -4.109375 1.59375q-2.328125 0 -3.859375 -1.34375q-1.53125 -1.34375 -1.78125 -3.515625z" fill-rule="nonzero"/></g></svg>