<svg version="1.1" viewBox="0.0 0.0 96.0 96.0" fill="none" stroke="none" stroke-linecap="square" stroke-miterlimit="10" xmlns:xlink="http://www.w3.org/1999/xlink" xmlns="http://www.w3.org/2000/svg"><clipPath id="p.0"><path d="m0 0l96.0 0l0 96.0l-96.0 0l0 -96.0z" clip-rule="nonzero"/></clipPath><g clip-path="url(#p.0)"><path fill="#000000" fill-opacity="0.0" d="m0 0l96.0 0l0 96.0l-96.0 0z" fill-rule="evenodd"/><path fill="#00ffff" d="m0.07874016 48.0l0 0c0 -26.213957 21.455078 -47.464565 47.92126 -47.464565l0 0c12.709507 0 24.898468 5.000717 33.885445 13.90205c8.986984 8.901333 14.035812 20.97413 14.035812 33.562515l0 0c0 26.213959 -21.455078 47.46457 -47.921257 47.46457l0 0c-26.46618 0 -47.92126 -21.25061 -47.92126 -47.46457z" fill-rule="evenodd"/><path stroke="#000000" stroke-width="2.0" stroke-linejoin="round" stroke-linecap="butt" d="m0.07874016 48.0l0 0c0 -26.213957 21.455078 -47.464565 47.92126 -47.464565l0 0c12.709507 0 24.898468 5.000717 33.885445 13.90205c8.986984 8.901333 14.035812 20.97413 14.035812 33.562515l0 0c0 26.213959 -21.455078 47.46457 -47.921257 47.46457l0 0c-26.46618 0 -47.92126 -21.25061 -47.92126 -47.46457z" fill-rule="evenodd"/><path fill="#000000" d="m42.38867 52.118126l3.28125 -0.34375q0.140625 1.125 0.828125 1.78125q0.703125 0.640625 1.609375 0.640625q1.03125 0 1.734375 -0.828125q0.71875 -0.84375 0.71875 -2.53125q0 -1.59375 -0.71875 -2.375q-0.703125 -0.796875 -1.828125 -0.796875q-1.421875 0 -2.546875 1.25l-2.671875 -0.375l1.6875 -8.953125l8.703125 0l0 3.09375l-6.203125 0l-0.515625 2.90625q1.09375 -0.546875 2.25 -0.546875q2.1875 0 3.703125 1.59375q1.53125 1.59375 1.53125 4.140625q0 2.125 -1.234375 3.78125q-1.671875 2.28125 -4.65625 2.28125q-2.375 0 -3.875 -1.28125q-1.5 -1.28125 -1.796875 -3.4375z" fill-rule="nonzero"/></g></svg>