<svg version="1.1" viewBox="0.0 0.0 768.0 768.0" fill="none" stroke="none" stroke-linecap="square" stroke-miterlimit="10" xmlns:xlink="http://www.w3.org/1999/xlink" xmlns="http://www.w3.org/2000/svg"><clipPath id="p.0"><path d="m0 0l768.0 0l0 768.0l-768.0 0l0 -768.0z" clip-rule="nonzero"/></clipPath><g clip-path="url(#p.0)"><path fill="#000000" fill-opacity="0.0" d="m0 0l768.0 0l0 768.0l-768.0 0z" fill-rule="evenodd"/><path fill="#b7b7b7" d="m284.53525 77.765656l194.25943 0l0 612.48l-194.25943 0z" fill-rule="evenodd"/><path fill="#b7b7b7" d="m284.5194 77.765656l0 -38.88283l0 0c0 -21.474396 43.49356 -38.882835 97.14557 -38.882835c53.652008 0 97.14554 17.408438 97.14554 38.882835l0 38.88283z" fill-rule="evenodd"/><path fill="#b7b7b7" d="m478.8111 690.24567l0 38.881897l0 0c0 21.473877 -43.49536 38.881897 -97.14963 38.881897c-53.654236 0 -97.1496 -17.40802 -97.1496 -38.881897l0 -38.881897z" fill-rule="evenodd"/><path fill="#b7b7b7" d="m690.24567 295.2215l0 193.50595l-612.48 0l0 -193.50595z" fill-rule="evenodd"/><path fill="#b7b7b7" d="m690.24567 295.20572l38.882812 0l0 0c21.474426 0 38.882874 43.32486 38.882874 96.76877c0 53.44391 -17.408447 96.76874 -38.882874 96.76874l-38.882812 0z" fill-rule="evenodd"/><path fill="#b7b7b7" d="m77.76567 488.74323l-38.882835 0l0 0c-21.474398 0 -38.882835 -43.32483 -38.882835 -96.76874c-1.9097002E-14 -53.44391 17.408438 -96.76877 38.882835 -96.76877l38.882835 0z" fill-rule="evenodd"/></g></svg>