<svg xmlns="http://www.w3.org/2000/svg" xmlns:xlink="http://www.w3.org/1999/xlink" width="50" zoomAndPan="magnify" viewBox="0 0 37.5 30.000001" height="40" preserveAspectRatio="xMidYMid meet" version="1.0"><metadata/><defs><clipPath id="f3d5b8022b"><path d="M 0.363281 0 L 36.652344 0 L 36.652344 1 L 0.363281 1 Z M 0.363281 0 " clip-rule="nonzero"/></clipPath><clipPath id="1fb6831ecb"><path d="M 0.363281 0 L 36.652344 0 L 36.652344 8 L 0.363281 8 Z M 0.363281 0 " clip-rule="nonzero"/></clipPath><clipPath id="1c14f4740c"><path d="M 0.363281 7 L 36.652344 7 L 36.652344 15 L 0.363281 15 Z M 0.363281 7 " clip-rule="nonzero"/></clipPath><clipPath id="4181072e64"><path d="M 0.363281 14 L 36.652344 14 L 36.652344 22 L 0.363281 22 Z M 0.363281 14 " clip-rule="nonzero"/></clipPath><clipPath id="d3ded8166e"><path d="M 0.363281 21 L 36.652344 21 L 36.652344 29.03125 L 0.363281 29.03125 Z M 0.363281 21 " clip-rule="nonzero"/></clipPath></defs><g clip-path="url(#f3d5b8022b)"><path fill="#808080" d="M 0.359375 -7.257812 L 43.769531 -7.257812 L 43.769531 0.0742188 L 0.359375 0.0742188 Z M 1.082031 -3.628906 C 1.082031 -3.242188 1.15625 -2.875 1.300781 -2.519531 C 1.449219 -2.164062 1.65625 -1.847656 1.929688 -1.574219 C 2.199219 -1.304688 2.515625 -1.09375 2.867188 -0.945312 C 3.222656 -0.800781 3.59375 -0.726562 3.976562 -0.726562 C 4.359375 -0.726562 4.730469 -0.800781 5.082031 -0.945312 C 5.4375 -1.09375 5.75 -1.304688 6.023438 -1.574219 C 6.292969 -1.847656 6.503906 -2.164062 6.648438 -2.519531 C 6.796875 -2.875 6.871094 -3.242188 6.871094 -3.628906 C 6.871094 -4.015625 6.796875 -4.382812 6.648438 -4.738281 C 6.503906 -5.097656 6.292969 -5.410156 6.023438 -5.683594 C 5.75 -5.953125 5.4375 -6.164062 5.082031 -6.3125 C 4.730469 -6.457031 4.359375 -6.53125 3.976562 -6.53125 C 3.59375 -6.53125 3.222656 -6.457031 2.867188 -6.3125 C 2.515625 -6.164062 2.199219 -5.953125 1.929688 -5.683594 C 1.65625 -5.410156 1.449219 -5.097656 1.300781 -4.738281 C 1.15625 -4.382812 1.082031 -4.015625 1.082031 -3.628906 M 8.316406 -3.628906 C 8.316406 -3.242188 8.390625 -2.875 8.539062 -2.519531 C 8.683594 -2.164062 8.894531 -1.847656 9.164062 -1.574219 C 9.4375 -1.304688 9.75 -1.09375 10.105469 -0.945312 C 10.457031 -0.800781 10.828125 -0.726562 11.210938 -0.726562 C 11.59375 -0.726562 11.964844 -0.800781 12.320312 -0.945312 C 12.671875 -1.09375 12.988281 -1.304688 13.257812 -1.574219 C 13.527344 -1.847656 13.738281 -2.164062 13.886719 -2.519531 C 14.03125 -2.875 14.105469 -3.242188 14.105469 -3.628906 C 14.105469 -4.015625 14.03125 -4.382812 13.886719 -4.738281 C 13.738281 -5.097656 13.527344 -5.410156 13.257812 -5.683594 C 12.988281 -5.953125 12.671875 -6.164062 12.320312 -6.3125 C 11.964844 -6.457031 11.59375 -6.53125 11.210938 -6.53125 C 10.828125 -6.53125 10.457031 -6.457031 10.105469 -6.3125 C 9.75 -6.164062 9.4375 -5.953125 9.164062 -5.683594 C 8.894531 -5.410156 8.683594 -5.097656 8.539062 -4.738281 C 8.390625 -4.382812 8.316406 -4.015625 8.316406 -3.628906 M 15.550781 -3.628906 C 15.550781 -3.242188 15.625 -2.875 15.773438 -2.519531 C 15.917969 -2.164062 16.128906 -1.847656 16.398438 -1.574219 C 16.671875 -1.304688 16.984375 -1.09375 17.339844 -0.945312 C 17.695312 -0.800781 18.0625 -0.726562 18.445312 -0.726562 C 18.832031 -0.726562 19.199219 -0.800781 19.554688 -0.945312 C 19.910156 -1.09375 20.222656 -1.304688 20.492188 -1.574219 C 20.765625 -1.847656 20.972656 -2.164062 21.121094 -2.519531 C 21.265625 -2.875 21.339844 -3.242188 21.339844 -3.628906 C 21.339844 -4.015625 21.265625 -4.382812 21.121094 -4.738281 C 20.972656 -5.097656 20.765625 -5.410156 20.492188 -5.683594 C 20.222656 -5.953125 19.910156 -6.164062 19.554688 -6.3125 C 19.199219 -6.457031 18.832031 -6.53125 18.445312 -6.53125 C 18.0625 -6.53125 17.695312 -6.457031 17.339844 -6.3125 C 16.984375 -6.164062 16.671875 -5.953125 16.398438 -5.683594 C 16.128906 -5.410156 15.917969 -5.097656 15.773438 -4.738281 C 15.625 -4.382812 15.550781 -4.015625 15.550781 -3.628906 M 22.789062 -3.628906 C 22.789062 -3.242188 22.863281 -2.875 23.007812 -2.519531 C 23.15625 -2.164062 23.363281 -1.847656 23.636719 -1.574219 C 23.90625 -1.304688 24.21875 -1.09375 24.574219 -0.945312 C 24.929688 -0.800781 25.296875 -0.726562 25.683594 -0.726562 C 26.066406 -0.726562 26.433594 -0.800781 26.789062 -0.945312 C 27.144531 -1.09375 27.457031 -1.304688 27.730469 -1.574219 C 28 -1.847656 28.210938 -2.164062 28.355469 -2.519531 C 28.503906 -2.875 28.578125 -3.242188 28.578125 -3.628906 C 28.578125 -4.015625 28.503906 -4.382812 28.355469 -4.738281 C 28.210938 -5.097656 28 -5.410156 27.730469 -5.683594 C 27.457031 -5.953125 27.144531 -6.164062 26.789062 -6.3125 C 26.433594 -6.457031 26.066406 -6.53125 25.683594 -6.53125 C 25.296875 -6.53125 24.929688 -6.457031 24.574219 -6.3125 C 24.21875 -6.164062 23.90625 -5.953125 23.636719 -5.683594 C 23.363281 -5.410156 23.15625 -5.097656 23.007812 -4.738281 C 22.863281 -4.382812 22.789062 -4.015625 22.789062 -3.628906 M 30.023438 -3.628906 C 30.023438 -3.242188 30.097656 -2.875 30.242188 -2.519531 C 30.390625 -2.164062 30.601562 -1.847656 30.871094 -1.574219 C 31.144531 -1.304688 31.457031 -1.09375 31.808594 -0.945312 C 32.164062 -0.800781 32.535156 -0.726562 32.917969 -0.726562 C 33.300781 -0.726562 33.671875 -0.800781 34.023438 -0.945312 C 34.378906 -1.09375 34.691406 -1.304688 34.964844 -1.574219 C 35.234375 -1.847656 35.445312 -2.164062 35.589844 -2.519531 C 35.738281 -2.875 35.8125 -3.242188 35.8125 -3.628906 C 35.8125 -4.015625 35.738281 -4.382812 35.589844 -4.738281 C 35.445312 -5.097656 35.234375 -5.410156 34.964844 -5.683594 C 34.691406 -5.953125 34.378906 -6.164062 34.023438 -6.3125 C 33.671875 -6.457031 33.300781 -6.53125 32.917969 -6.53125 C 32.535156 -6.53125 32.164062 -6.457031 31.808594 -6.3125 C 31.457031 -6.164062 31.144531 -5.953125 30.871094 -5.683594 C 30.601562 -5.410156 30.390625 -5.097656 30.242188 -4.738281 C 30.097656 -4.382812 30.023438 -4.015625 30.023438 -3.628906 M 37.257812 -3.628906 C 37.257812 -3.242188 37.332031 -2.875 37.480469 -2.519531 C 37.625 -2.164062 37.835938 -1.847656 38.105469 -1.574219 C 38.378906 -1.304688 38.691406 -1.09375 39.046875 -0.945312 C 39.398438 -0.800781 39.769531 -0.726562 40.152344 -0.726562 C 40.535156 -0.726562 40.90625 -0.800781 41.261719 -0.945312 C 41.617188 -1.09375 41.929688 -1.304688 42.199219 -1.574219 C 42.472656 -1.847656 42.679688 -2.164062 42.828125 -2.519531 C 42.972656 -2.875 43.046875 -3.242188 43.046875 -3.628906 C 43.046875 -4.015625 42.972656 -4.382812 42.828125 -4.738281 C 42.679688 -5.097656 42.472656 -5.410156 42.199219 -5.683594 C 41.929688 -5.953125 41.617188 -6.164062 41.261719 -6.3125 C 40.90625 -6.457031 40.535156 -6.53125 40.152344 -6.53125 C 39.769531 -6.53125 39.398438 -6.457031 39.046875 -6.3125 C 38.691406 -6.164062 38.378906 -5.953125 38.105469 -5.683594 C 37.835938 -5.410156 37.625 -5.097656 37.480469 -4.738281 C 37.332031 -4.382812 37.257812 -4.015625 37.257812 -3.628906 " fill-opacity="1" fill-rule="evenodd"/></g><g clip-path="url(#1fb6831ecb)"><path fill="#808080" d="M 0.359375 0 L 43.769531 0 L 43.769531 7.332031 L 0.359375 7.332031 Z M 1.082031 3.628906 C 1.082031 4.015625 1.15625 4.382812 1.300781 4.738281 C 1.449219 5.097656 1.65625 5.410156 1.929688 5.683594 C 2.199219 5.953125 2.515625 6.164062 2.867188 6.3125 C 3.222656 6.457031 3.59375 6.53125 3.976562 6.53125 C 4.359375 6.53125 4.730469 6.457031 5.082031 6.3125 C 5.4375 6.164062 5.75 5.953125 6.023438 5.683594 C 6.292969 5.410156 6.503906 5.097656 6.648438 4.738281 C 6.796875 4.382812 6.871094 4.015625 6.871094 3.628906 C 6.871094 3.242188 6.796875 2.875 6.648438 2.519531 C 6.503906 2.164062 6.292969 1.847656 6.023438 1.574219 C 5.75 1.304688 5.4375 1.09375 5.082031 0.945312 C 4.730469 0.800781 4.359375 0.726562 3.976562 0.726562 C 3.59375 0.726562 3.222656 0.800781 2.867188 0.945312 C 2.515625 1.09375 2.199219 1.304688 1.929688 1.574219 C 1.65625 1.847656 1.449219 2.164062 1.300781 2.519531 C 1.15625 2.875 1.082031 3.242188 1.082031 3.628906 M 8.316406 3.628906 C 8.316406 4.015625 8.390625 4.382812 8.539062 4.738281 C 8.683594 5.097656 8.894531 5.410156 9.164062 5.683594 C 9.4375 5.953125 9.75 6.164062 10.105469 6.3125 C 10.457031 6.457031 10.828125 6.53125 11.210938 6.53125 C 11.59375 6.53125 11.964844 6.457031 12.320312 6.3125 C 12.671875 6.164062 12.988281 5.953125 13.257812 5.683594 C 13.527344 5.410156 13.738281 5.097656 13.886719 4.738281 C 14.03125 4.382812 14.105469 4.015625 14.105469 3.628906 C 14.105469 3.242188 14.03125 2.875 13.886719 2.519531 C 13.738281 2.164062 13.527344 1.847656 13.257812 1.574219 C 12.988281 1.304688 12.671875 1.09375 12.320312 0.945312 C 11.964844 0.800781 11.59375 0.726562 11.210938 0.726562 C 10.828125 0.726562 10.457031 0.800781 10.105469 0.945312 C 9.75 1.09375 9.4375 1.304688 9.164062 1.574219 C 8.894531 1.847656 8.683594 2.164062 8.539062 2.519531 C 8.390625 2.875 8.316406 3.242188 8.316406 3.628906 M 15.550781 3.628906 C 15.550781 4.015625 15.625 4.382812 15.773438 4.738281 C 15.917969 5.097656 16.128906 5.410156 16.398438 5.683594 C 16.671875 5.953125 16.984375 6.164062 17.339844 6.3125 C 17.695312 6.457031 18.0625 6.53125 18.445312 6.53125 C 18.832031 6.53125 19.199219 6.457031 19.554688 6.3125 C 19.910156 6.164062 20.222656 5.953125 20.492188 5.683594 C 20.765625 5.410156 20.972656 5.097656 21.121094 4.738281 C 21.265625 4.382812 21.339844 4.015625 21.339844 3.628906 C 21.339844 3.242188 21.265625 2.875 21.121094 2.519531 C 20.972656 2.164062 20.765625 1.847656 20.492188 1.574219 C 20.222656 1.304688 19.910156 1.09375 19.554688 0.945312 C 19.199219 0.800781 18.832031 0.726562 18.445312 0.726562 C 18.0625 0.726562 17.695312 0.800781 17.339844 0.945312 C 16.984375 1.09375 16.671875 1.304688 16.398438 1.574219 C 16.128906 1.847656 15.917969 2.164062 15.773438 2.519531 C 15.625 2.875 15.550781 3.242188 15.550781 3.628906 M 22.789062 3.628906 C 22.789062 4.015625 22.863281 4.382812 23.007812 4.738281 C 23.15625 5.097656 23.363281 5.410156 23.636719 5.683594 C 23.90625 5.953125 24.21875 6.164062 24.574219 6.3125 C 24.929688 6.457031 25.296875 6.53125 25.683594 6.53125 C 26.066406 6.53125 26.433594 6.457031 26.789062 6.3125 C 27.144531 6.164062 27.457031 5.953125 27.730469 5.683594 C 28 5.410156 28.210938 5.097656 28.355469 4.738281 C 28.503906 4.382812 28.578125 4.015625 28.578125 3.628906 C 28.578125 3.242188 28.503906 2.875 28.355469 2.519531 C 28.210938 2.164062 28 1.847656 27.730469 1.574219 C 27.457031 1.304688 27.144531 1.09375 26.789062 0.945312 C 26.433594 0.800781 26.066406 0.726562 25.683594 0.726562 C 25.296875 0.726562 24.929688 0.800781 24.574219 0.945312 C 24.21875 1.09375 23.90625 1.304688 23.636719 1.574219 C 23.363281 1.847656 23.15625 2.164062 23.007812 2.519531 C 22.863281 2.875 22.789062 3.242188 22.789062 3.628906 M 30.023438 3.628906 C 30.023438 4.015625 30.097656 4.382812 30.242188 4.738281 C 30.390625 5.097656 30.601562 5.410156 30.871094 5.683594 C 31.144531 5.953125 31.457031 6.164062 31.808594 6.3125 C 32.164062 6.457031 32.535156 6.53125 32.917969 6.53125 C 33.300781 6.53125 33.671875 6.457031 34.023438 6.3125 C 34.378906 6.164062 34.691406 5.953125 34.964844 5.683594 C 35.234375 5.410156 35.445312 5.097656 35.589844 4.738281 C 35.738281 4.382812 35.8125 4.015625 35.8125 3.628906 C 35.8125 3.242188 35.738281 2.875 35.589844 2.519531 C 35.445312 2.164062 35.234375 1.847656 34.964844 1.574219 C 34.691406 1.304688 34.378906 1.09375 34.023438 0.945312 C 33.671875 0.800781 33.300781 0.726562 32.917969 0.726562 C 32.535156 0.726562 32.164062 0.800781 31.808594 0.945312 C 31.457031 1.09375 31.144531 1.304688 30.871094 1.574219 C 30.601562 1.847656 30.390625 2.164062 30.242188 2.519531 C 30.097656 2.875 30.023438 3.242188 30.023438 3.628906 M 37.257812 3.628906 C 37.257812 4.015625 37.332031 4.382812 37.480469 4.738281 C 37.625 5.097656 37.835938 5.410156 38.105469 5.683594 C 38.378906 5.953125 38.691406 6.164062 39.046875 6.3125 C 39.398438 6.457031 39.769531 6.53125 40.152344 6.53125 C 40.535156 6.53125 40.90625 6.457031 41.261719 6.3125 C 41.617188 6.164062 41.929688 5.953125 42.199219 5.683594 C 42.472656 5.410156 42.679688 5.097656 42.828125 4.738281 C 42.972656 4.382812 43.046875 4.015625 43.046875 3.628906 C 43.046875 3.242188 42.972656 2.875 42.828125 2.519531 C 42.679688 2.164062 42.472656 1.847656 42.199219 1.574219 C 41.929688 1.304688 41.617188 1.09375 41.261719 0.945312 C 40.90625 0.800781 40.535156 0.726562 40.152344 0.726562 C 39.769531 0.726562 39.398438 0.800781 39.046875 0.945312 C 38.691406 1.09375 38.378906 1.304688 38.105469 1.574219 C 37.835938 1.847656 37.625 2.164062 37.480469 2.519531 C 37.332031 2.875 37.257812 3.242188 37.257812 3.628906 " fill-opacity="1" fill-rule="evenodd"/></g><g clip-path="url(#1c14f4740c)"><path fill="#808080" d="M 0.359375 7.257812 L 43.769531 7.257812 L 43.769531 14.589844 L 0.359375 14.589844 Z M 1.082031 10.886719 C 1.082031 11.273438 1.15625 11.640625 1.300781 12 C 1.449219 12.355469 1.65625 12.667969 1.929688 12.941406 C 2.199219 13.210938 2.515625 13.421875 2.867188 13.570312 C 3.222656 13.714844 3.59375 13.789062 3.976562 13.789062 C 4.359375 13.789062 4.730469 13.714844 5.082031 13.570312 C 5.4375 13.421875 5.75 13.210938 6.023438 12.941406 C 6.292969 12.667969 6.503906 12.355469 6.648438 12 C 6.796875 11.640625 6.871094 11.273438 6.871094 10.886719 C 6.871094 10.503906 6.796875 10.132812 6.648438 9.777344 C 6.503906 9.421875 6.292969 9.105469 6.023438 8.835938 C 5.75 8.5625 5.4375 8.351562 5.082031 8.203125 C 4.730469 8.058594 4.359375 7.984375 3.976562 7.984375 C 3.59375 7.984375 3.222656 8.058594 2.867188 8.203125 C 2.515625 8.351562 2.199219 8.5625 1.929688 8.835938 C 1.65625 9.105469 1.449219 9.421875 1.300781 9.777344 C 1.15625 10.132812 1.082031 10.503906 1.082031 10.886719 M 8.316406 10.886719 C 8.316406 11.273438 8.390625 11.640625 8.539062 12 C 8.683594 12.355469 8.894531 12.667969 9.164062 12.941406 C 9.4375 13.210938 9.75 13.421875 10.105469 13.570312 C 10.457031 13.714844 10.828125 13.789062 11.210938 13.789062 C 11.59375 13.789062 11.964844 13.714844 12.320312 13.570312 C 12.671875 13.421875 12.988281 13.210938 13.257812 12.941406 C 13.527344 12.667969 13.738281 12.355469 13.886719 12 C 14.03125 11.640625 14.105469 11.273438 14.105469 10.886719 C 14.105469 10.503906 14.03125 10.132812 13.886719 9.777344 C 13.738281 9.421875 13.527344 9.105469 13.257812 8.835938 C 12.988281 8.5625 12.671875 8.351562 12.320312 8.203125 C 11.964844 8.058594 11.59375 7.984375 11.210938 7.984375 C 10.828125 7.984375 10.457031 8.058594 10.105469 8.203125 C 9.75 8.351562 9.4375 8.5625 9.164062 8.835938 C 8.894531 9.105469 8.683594 9.421875 8.539062 9.777344 C 8.390625 10.132812 8.316406 10.503906 8.316406 10.886719 M 15.550781 10.886719 C 15.550781 11.273438 15.625 11.640625 15.773438 12 C 15.917969 12.355469 16.128906 12.667969 16.398438 12.941406 C 16.671875 13.210938 16.984375 13.421875 17.339844 13.570312 C 17.695312 13.714844 18.0625 13.789062 18.445312 13.789062 C 18.832031 13.789062 19.199219 13.714844 19.554688 13.570312 C 19.910156 13.421875 20.222656 13.210938 20.492188 12.941406 C 20.765625 12.667969 20.972656 12.355469 21.121094 12 C 21.265625 11.640625 21.339844 11.273438 21.339844 10.886719 C 21.339844 10.503906 21.265625 10.132812 21.121094 9.777344 C 20.972656 9.421875 20.765625 9.105469 20.492188 8.835938 C 20.222656 8.5625 19.910156 8.351562 19.554688 8.203125 C 19.199219 8.058594 18.832031 7.984375 18.445312 7.984375 C 18.0625 7.984375 17.695312 8.058594 17.339844 8.203125 C 16.984375 8.351562 16.671875 8.5625 16.398438 8.835938 C 16.128906 9.105469 15.917969 9.421875 15.773438 9.777344 C 15.625 10.132812 15.550781 10.503906 15.550781 10.886719 M 22.789062 10.886719 C 22.789062 11.273438 22.863281 11.640625 23.007812 12 C 23.15625 12.355469 23.363281 12.667969 23.636719 12.941406 C 23.90625 13.210938 24.21875 13.421875 24.574219 13.570312 C 24.929688 13.714844 25.296875 13.789062 25.683594 13.789062 C 26.066406 13.789062 26.433594 13.714844 26.789062 13.570312 C 27.144531 13.421875 27.457031 13.210938 27.730469 12.941406 C 28 12.667969 28.210938 12.355469 28.355469 12 C 28.503906 11.640625 28.578125 11.273438 28.578125 10.886719 C 28.578125 10.503906 28.503906 10.132812 28.355469 9.777344 C 28.210938 9.421875 28 9.105469 27.730469 8.835938 C 27.457031 8.5625 27.144531 8.351562 26.789062 8.203125 C 26.433594 8.058594 26.066406 7.984375 25.683594 7.984375 C 25.296875 7.984375 24.929688 8.058594 24.574219 8.203125 C 24.21875 8.351562 23.90625 8.5625 23.636719 8.835938 C 23.363281 9.105469 23.15625 9.421875 23.007812 9.777344 C 22.863281 10.132812 22.789062 10.503906 22.789062 10.886719 M 30.023438 10.886719 C 30.023438 11.273438 30.097656 11.640625 30.242188 12 C 30.390625 12.355469 30.601562 12.667969 30.871094 12.941406 C 31.144531 13.210938 31.457031 13.421875 31.808594 13.570312 C 32.164062 13.714844 32.535156 13.789062 32.917969 13.789062 C 33.300781 13.789062 33.671875 13.714844 34.023438 13.570312 C 34.378906 13.421875 34.691406 13.210938 34.964844 12.941406 C 35.234375 12.667969 35.445312 12.355469 35.589844 12 C 35.738281 11.640625 35.8125 11.273438 35.8125 10.886719 C 35.8125 10.503906 35.738281 10.132812 35.589844 9.777344 C 35.445312 9.421875 35.234375 9.105469 34.964844 8.835938 C 34.691406 8.5625 34.378906 8.351562 34.023438 8.203125 C 33.671875 8.058594 33.300781 7.984375 32.917969 7.984375 C 32.535156 7.984375 32.164062 8.058594 31.808594 8.203125 C 31.457031 8.351562 31.144531 8.5625 30.871094 8.835938 C 30.601562 9.105469 30.390625 9.421875 30.242188 9.777344 C 30.097656 10.132812 30.023438 10.503906 30.023438 10.886719 M 37.257812 10.886719 C 37.257812 11.273438 37.332031 11.640625 37.480469 12 C 37.625 12.355469 37.835938 12.667969 38.105469 12.941406 C 38.378906 13.210938 38.691406 13.421875 39.046875 13.570312 C 39.398438 13.714844 39.769531 13.789062 40.152344 13.789062 C 40.535156 13.789062 40.90625 13.714844 41.261719 13.570312 C 41.617188 13.421875 41.929688 13.210938 42.199219 12.941406 C 42.472656 12.667969 42.679688 12.355469 42.828125 12 C 42.972656 11.640625 43.046875 11.273438 43.046875 10.886719 C 43.046875 10.503906 42.972656 10.132812 42.828125 9.777344 C 42.679688 9.421875 42.472656 9.105469 42.199219 8.835938 C 41.929688 8.5625 41.617188 8.351562 41.261719 8.203125 C 40.90625 8.058594 40.535156 7.984375 40.152344 7.984375 C 39.769531 7.984375 39.398438 8.058594 39.046875 8.203125 C 38.691406 8.351562 38.378906 8.5625 38.105469 8.835938 C 37.835938 9.105469 37.625 9.421875 37.480469 9.777344 C 37.332031 10.132812 37.257812 10.503906 37.257812 10.886719 " fill-opacity="1" fill-rule="evenodd"/></g><g clip-path="url(#4181072e64)"><path fill="#808080" d="M 0.359375 14.515625 L 43.769531 14.515625 L 43.769531 21.847656 L 0.359375 21.847656 Z M 1.082031 18.144531 C 1.082031 18.53125 1.15625 18.902344 1.300781 19.257812 C 1.449219 19.613281 1.65625 19.925781 1.929688 20.199219 C 2.199219 20.46875 2.515625 20.679688 2.867188 20.828125 C 3.222656 20.976562 3.59375 21.046875 3.976562 21.046875 C 4.359375 21.046875 4.730469 20.976562 5.082031 20.828125 C 5.4375 20.679688 5.75 20.46875 6.023438 20.199219 C 6.292969 19.925781 6.503906 19.613281 6.648438 19.257812 C 6.796875 18.902344 6.871094 18.53125 6.871094 18.144531 C 6.871094 17.761719 6.796875 17.390625 6.648438 17.035156 C 6.503906 16.679688 6.292969 16.363281 6.023438 16.09375 C 5.75 15.820312 5.4375 15.609375 5.082031 15.464844 C 4.730469 15.316406 4.359375 15.242188 3.976562 15.242188 C 3.59375 15.242188 3.222656 15.316406 2.867188 15.464844 C 2.515625 15.609375 2.199219 15.820312 1.929688 16.09375 C 1.65625 16.363281 1.449219 16.679688 1.300781 17.035156 C 1.15625 17.390625 1.082031 17.761719 1.082031 18.144531 M 8.316406 18.144531 C 8.316406 18.53125 8.390625 18.902344 8.539062 19.257812 C 8.683594 19.613281 8.894531 19.925781 9.164062 20.199219 C 9.4375 20.46875 9.75 20.679688 10.105469 20.828125 C 10.457031 20.976562 10.828125 21.046875 11.210938 21.046875 C 11.59375 21.046875 11.964844 20.976562 12.320312 20.828125 C 12.671875 20.679688 12.988281 20.46875 13.257812 20.199219 C 13.527344 19.925781 13.738281 19.613281 13.886719 19.257812 C 14.03125 18.902344 14.105469 18.53125 14.105469 18.144531 C 14.105469 17.761719 14.03125 17.390625 13.886719 17.035156 C 13.738281 16.679688 13.527344 16.363281 13.257812 16.09375 C 12.988281 15.820312 12.671875 15.609375 12.320312 15.464844 C 11.964844 15.316406 11.59375 15.242188 11.210938 15.242188 C 10.828125 15.242188 10.457031 15.316406 10.105469 15.464844 C 9.75 15.609375 9.4375 15.820312 9.164062 16.09375 C 8.894531 16.363281 8.683594 16.679688 8.539062 17.035156 C 8.390625 17.390625 8.316406 17.761719 8.316406 18.144531 M 15.550781 18.144531 C 15.550781 18.53125 15.625 18.902344 15.773438 19.257812 C 15.917969 19.613281 16.128906 19.925781 16.398438 20.199219 C 16.671875 20.46875 16.984375 20.679688 17.339844 20.828125 C 17.695312 20.976562 18.0625 21.046875 18.445312 21.046875 C 18.832031 21.046875 19.199219 20.976562 19.554688 20.828125 C 19.910156 20.679688 20.222656 20.46875 20.492188 20.199219 C 20.765625 19.925781 20.972656 19.613281 21.121094 19.257812 C 21.265625 18.902344 21.339844 18.53125 21.339844 18.144531 C 21.339844 17.761719 21.265625 17.390625 21.121094 17.035156 C 20.972656 16.679688 20.765625 16.363281 20.492188 16.09375 C 20.222656 15.820312 19.910156 15.609375 19.554688 15.464844 C 19.199219 15.316406 18.832031 15.242188 18.445312 15.242188 C 18.0625 15.242188 17.695312 15.316406 17.339844 15.464844 C 16.984375 15.609375 16.671875 15.820312 16.398438 16.09375 C 16.128906 16.363281 15.917969 16.679688 15.773438 17.035156 C 15.625 17.390625 15.550781 17.761719 15.550781 18.144531 M 22.789062 18.144531 C 22.789062 18.53125 22.863281 18.902344 23.007812 19.257812 C 23.15625 19.613281 23.363281 19.925781 23.636719 20.199219 C 23.90625 20.46875 24.21875 20.679688 24.574219 20.828125 C 24.929688 20.976562 25.296875 21.046875 25.683594 21.046875 C 26.066406 21.046875 26.433594 20.976562 26.789062 20.828125 C 27.144531 20.679688 27.457031 20.46875 27.730469 20.199219 C 28 19.925781 28.210938 19.613281 28.355469 19.257812 C 28.503906 18.902344 28.578125 18.53125 28.578125 18.144531 C 28.578125 17.761719 28.503906 17.390625 28.355469 17.035156 C 28.210938 16.679688 28 16.363281 27.730469 16.09375 C 27.457031 15.820312 27.144531 15.609375 26.789062 15.464844 C 26.433594 15.316406 26.066406 15.242188 25.683594 15.242188 C 25.296875 15.242188 24.929688 15.316406 24.574219 15.464844 C 24.21875 15.609375 23.90625 15.820312 23.636719 16.09375 C 23.363281 16.363281 23.15625 16.679688 23.007812 17.035156 C 22.863281 17.390625 22.789062 17.761719 22.789062 18.144531 M 30.023438 18.144531 C 30.023438 18.53125 30.097656 18.902344 30.242188 19.257812 C 30.390625 19.613281 30.601562 19.925781 30.871094 20.199219 C 31.144531 20.46875 31.457031 20.679688 31.808594 20.828125 C 32.164062 20.976562 32.535156 21.046875 32.917969 21.046875 C 33.300781 21.046875 33.671875 20.976562 34.023438 20.828125 C 34.378906 20.679688 34.691406 20.46875 34.964844 20.199219 C 35.234375 19.925781 35.445312 19.613281 35.589844 19.257812 C 35.738281 18.902344 35.8125 18.53125 35.8125 18.144531 C 35.8125 17.761719 35.738281 17.390625 35.589844 17.035156 C 35.445312 16.679688 35.234375 16.363281 34.964844 16.09375 C 34.691406 15.820312 34.378906 15.609375 34.023438 15.464844 C 33.671875 15.316406 33.300781 15.242188 32.917969 15.242188 C 32.535156 15.242188 32.164062 15.316406 31.808594 15.464844 C 31.457031 15.609375 31.144531 15.820312 30.871094 16.09375 C 30.601562 16.363281 30.390625 16.679688 30.242188 17.035156 C 30.097656 17.390625 30.023438 17.761719 30.023438 18.144531 M 37.257812 18.144531 C 37.257812 18.53125 37.332031 18.902344 37.480469 19.257812 C 37.625 19.613281 37.835938 19.925781 38.105469 20.199219 C 38.378906 20.46875 38.691406 20.679688 39.046875 20.828125 C 39.398438 20.976562 39.769531 21.046875 40.152344 21.046875 C 40.535156 21.046875 40.90625 20.976562 41.261719 20.828125 C 41.617188 20.679688 41.929688 20.46875 42.199219 20.199219 C 42.472656 19.925781 42.679688 19.613281 42.828125 19.257812 C 42.972656 18.902344 43.046875 18.53125 43.046875 18.144531 C 43.046875 17.761719 42.972656 17.390625 42.828125 17.035156 C 42.679688 16.679688 42.472656 16.363281 42.199219 16.09375 C 41.929688 15.820312 41.617188 15.609375 41.261719 15.464844 C 40.90625 15.316406 40.535156 15.242188 40.152344 15.242188 C 39.769531 15.242188 39.398438 15.316406 39.046875 15.464844 C 38.691406 15.609375 38.378906 15.820312 38.105469 16.09375 C 37.835938 16.363281 37.625 16.679688 37.480469 17.035156 C 37.332031 17.390625 37.257812 17.761719 37.257812 18.144531 " fill-opacity="1" fill-rule="evenodd"/></g><g clip-path="url(#d3ded8166e)"><path fill="#808080" d="M 0.359375 21.773438 L 43.769531 21.773438 L 43.769531 29.105469 L 0.359375 29.105469 Z M 1.082031 25.402344 C 1.082031 25.789062 1.15625 26.160156 1.300781 26.515625 C 1.449219 26.871094 1.65625 27.183594 1.929688 27.457031 C 2.199219 27.726562 2.515625 27.9375 2.867188 28.085938 C 3.222656 28.234375 3.59375 28.304688 3.976562 28.304688 C 4.359375 28.304688 4.730469 28.234375 5.082031 28.085938 C 5.4375 27.9375 5.75 27.726562 6.023438 27.457031 C 6.292969 27.183594 6.503906 26.871094 6.648438 26.515625 C 6.796875 26.160156 6.871094 25.789062 6.871094 25.402344 C 6.871094 25.019531 6.796875 24.648438 6.648438 24.292969 C 6.503906 23.9375 6.292969 23.621094 6.023438 23.351562 C 5.75 23.078125 5.4375 22.867188 5.082031 22.722656 C 4.730469 22.574219 4.359375 22.5 3.976562 22.5 C 3.59375 22.5 3.222656 22.574219 2.867188 22.722656 C 2.515625 22.867188 2.199219 23.078125 1.929688 23.351562 C 1.65625 23.621094 1.449219 23.9375 1.300781 24.292969 C 1.15625 24.648438 1.082031 25.019531 1.082031 25.402344 M 8.316406 25.402344 C 8.316406 25.789062 8.390625 26.160156 8.539062 26.515625 C 8.683594 26.871094 8.894531 27.183594 9.164062 27.457031 C 9.4375 27.726562 9.75 27.9375 10.105469 28.085938 C 10.457031 28.234375 10.828125 28.304688 11.210938 28.304688 C 11.59375 28.304688 11.964844 28.234375 12.320312 28.085938 C 12.671875 27.9375 12.988281 27.726562 13.257812 27.457031 C 13.527344 27.183594 13.738281 26.871094 13.886719 26.515625 C 14.03125 26.160156 14.105469 25.789062 14.105469 25.402344 C 14.105469 25.019531 14.03125 24.648438 13.886719 24.292969 C 13.738281 23.9375 13.527344 23.621094 13.257812 23.351562 C 12.988281 23.078125 12.671875 22.867188 12.320312 22.722656 C 11.964844 22.574219 11.59375 22.5 11.210938 22.5 C 10.828125 22.5 10.457031 22.574219 10.105469 22.722656 C 9.75 22.867188 9.4375 23.078125 9.164062 23.351562 C 8.894531 23.621094 8.683594 23.9375 8.539062 24.292969 C 8.390625 24.648438 8.316406 25.019531 8.316406 25.402344 M 15.550781 25.402344 C 15.550781 25.789062 15.625 26.160156 15.773438 26.515625 C 15.917969 26.871094 16.128906 27.183594 16.398438 27.457031 C 16.671875 27.726562 16.984375 27.9375 17.339844 28.085938 C 17.695312 28.234375 18.0625 28.304688 18.445312 28.304688 C 18.832031 28.304688 19.199219 28.234375 19.554688 28.085938 C 19.910156 27.9375 20.222656 27.726562 20.492188 27.457031 C 20.765625 27.183594 20.972656 26.871094 21.121094 26.515625 C 21.265625 26.160156 21.339844 25.789062 21.339844 25.402344 C 21.339844 25.019531 21.265625 24.648438 21.121094 24.292969 C 20.972656 23.9375 20.765625 23.621094 20.492188 23.351562 C 20.222656 23.078125 19.910156 22.867188 19.554688 22.722656 C 19.199219 22.574219 18.832031 22.5 18.445312 22.5 C 18.0625 22.5 17.695312 22.574219 17.339844 22.722656 C 16.984375 22.867188 16.671875 23.078125 16.398438 23.351562 C 16.128906 23.621094 15.917969 23.9375 15.773438 24.292969 C 15.625 24.648438 15.550781 25.019531 15.550781 25.402344 M 22.789062 25.402344 C 22.789062 25.789062 22.863281 26.160156 23.007812 26.515625 C 23.15625 26.871094 23.363281 27.183594 23.636719 27.457031 C 23.90625 27.726562 24.21875 27.9375 24.574219 28.085938 C 24.929688 28.234375 25.296875 28.304688 25.683594 28.304688 C 26.066406 28.304688 26.433594 28.234375 26.789062 28.085938 C 27.144531 27.9375 27.457031 27.726562 27.730469 27.457031 C 28 27.183594 28.210938 26.871094 28.355469 26.515625 C 28.503906 26.160156 28.578125 25.789062 28.578125 25.402344 C 28.578125 25.019531 28.503906 24.648438 28.355469 24.292969 C 28.210938 23.9375 28 23.621094 27.730469 23.351562 C 27.457031 23.078125 27.144531 22.867188 26.789062 22.722656 C 26.433594 22.574219 26.066406 22.5 25.683594 22.5 C 25.296875 22.5 24.929688 22.574219 24.574219 22.722656 C 24.21875 22.867188 23.90625 23.078125 23.636719 23.351562 C 23.363281 23.621094 23.15625 23.9375 23.007812 24.292969 C 22.863281 24.648438 22.789062 25.019531 22.789062 25.402344 M 30.023438 25.402344 C 30.023438 25.789062 30.097656 26.160156 30.242188 26.515625 C 30.390625 26.871094 30.601562 27.183594 30.871094 27.457031 C 31.144531 27.726562 31.457031 27.9375 31.808594 28.085938 C 32.164062 28.234375 32.535156 28.304688 32.917969 28.304688 C 33.300781 28.304688 33.671875 28.234375 34.023438 28.085938 C 34.378906 27.9375 34.691406 27.726562 34.964844 27.457031 C 35.234375 27.183594 35.445312 26.871094 35.589844 26.515625 C 35.738281 26.160156 35.8125 25.789062 35.8125 25.402344 C 35.8125 25.019531 35.738281 24.648438 35.589844 24.292969 C 35.445312 23.9375 35.234375 23.621094 34.964844 23.351562 C 34.691406 23.078125 34.378906 22.867188 34.023438 22.722656 C 33.671875 22.574219 33.300781 22.5 32.917969 22.5 C 32.535156 22.5 32.164062 22.574219 31.808594 22.722656 C 31.457031 22.867188 31.144531 23.078125 30.871094 23.351562 C 30.601562 23.621094 30.390625 23.9375 30.242188 24.292969 C 30.097656 24.648438 30.023438 25.019531 30.023438 25.402344 M 37.257812 25.402344 C 37.257812 25.789062 37.332031 26.160156 37.480469 26.515625 C 37.625 26.871094 37.835938 27.183594 38.105469 27.457031 C 38.378906 27.726562 38.691406 27.9375 39.046875 28.085938 C 39.398438 28.234375 39.769531 28.304688 40.152344 28.304688 C 40.535156 28.304688 40.90625 28.234375 41.261719 28.085938 C 41.617188 27.9375 41.929688 27.726562 42.199219 27.457031 C 42.472656 27.183594 42.679688 26.871094 42.828125 26.515625 C 42.972656 26.160156 43.046875 25.789062 43.046875 25.402344 C 43.046875 25.019531 42.972656 24.648438 42.828125 24.292969 C 42.679688 23.9375 42.472656 23.621094 42.199219 23.351562 C 41.929688 23.078125 41.617188 22.867188 41.261719 22.722656 C 40.90625 22.574219 40.535156 22.5 40.152344 22.5 C 39.769531 22.5 39.398438 22.574219 39.046875 22.722656 C 38.691406 22.867188 38.378906 23.078125 38.105469 23.351562 C 37.835938 23.621094 37.625 23.9375 37.480469 24.292969 C 37.332031 24.648438 37.257812 25.019531 37.257812 25.402344 " fill-opacity="1" fill-rule="evenodd"/></g></svg>