<svg xmlns="http://www.w3.org/2000/svg" xmlns:xlink="http://www.w3.org/1999/xlink" width="40" zoomAndPan="magnify" viewBox="0 0 30 30.000001" height="40" preserveAspectRatio="xMidYMid meet" version="1.0"><metadata/><defs><clipPath id="9cf4167dec"><path d="M 0.484375 0 L 29.515625 0 L 29.515625 8 L 0.484375 8 Z M 0.484375 0 " clip-rule="nonzero"/></clipPath><clipPath id="ab86cc49d4"><path d="M 0.484375 7 L 29.515625 7 L 29.515625 15 L 0.484375 15 Z M 0.484375 7 " clip-rule="nonzero"/></clipPath><clipPath id="16e2e0a7e6"><path d="M 0.484375 14 L 29.515625 14 L 29.515625 22 L 0.484375 22 Z M 0.484375 14 " clip-rule="nonzero"/></clipPath><clipPath id="1fb6438db9"><path d="M 0.484375 21 L 29.515625 21 L 29.515625 28.90625 L 0.484375 28.90625 Z M 0.484375 21 " clip-rule="nonzero"/></clipPath></defs><g clip-path="url(#9cf4167dec)"><path fill="#808080" d="M 0.480469 -0.128906 L 43.886719 -0.128906 L 43.886719 7.203125 L 0.480469 7.203125 Z M 1.207031 3.5 C 1.207031 3.886719 1.277344 4.257812 1.425781 4.613281 C 1.574219 4.96875 1.78125 5.28125 2.054688 5.554688 C 2.324219 5.828125 2.636719 6.035156 2.992188 6.183594 C 3.347656 6.332031 3.714844 6.40625 4.097656 6.40625 C 4.484375 6.40625 4.851562 6.332031 5.207031 6.183594 C 5.5625 6.035156 5.875 5.828125 6.144531 5.554688 C 6.417969 5.28125 6.625 4.96875 6.773438 4.613281 C 6.917969 4.257812 6.992188 3.886719 6.992188 3.5 C 6.992188 3.117188 6.917969 2.746094 6.773438 2.390625 C 6.625 2.035156 6.417969 1.722656 6.144531 1.449219 C 5.875 1.175781 5.5625 0.96875 5.207031 0.820312 C 4.851562 0.671875 4.484375 0.597656 4.097656 0.597656 C 3.714844 0.597656 3.347656 0.671875 2.992188 0.820312 C 2.636719 0.96875 2.324219 1.175781 2.054688 1.449219 C 1.78125 1.722656 1.574219 2.035156 1.425781 2.390625 C 1.277344 2.746094 1.207031 3.117188 1.207031 3.5 M 8.441406 3.5 C 8.441406 3.886719 8.511719 4.257812 8.660156 4.613281 C 8.808594 4.96875 9.015625 5.28125 9.289062 5.554688 C 9.558594 5.828125 9.871094 6.035156 10.226562 6.183594 C 10.582031 6.332031 10.949219 6.40625 11.332031 6.40625 C 11.71875 6.40625 12.085938 6.332031 12.441406 6.183594 C 12.796875 6.035156 13.109375 5.828125 13.378906 5.554688 C 13.652344 5.28125 13.859375 4.96875 14.007812 4.613281 C 14.152344 4.257812 14.226562 3.886719 14.226562 3.5 C 14.226562 3.117188 14.152344 2.746094 14.007812 2.390625 C 13.859375 2.035156 13.652344 1.722656 13.378906 1.449219 C 13.109375 1.175781 12.796875 0.96875 12.441406 0.820312 C 12.085938 0.671875 11.71875 0.597656 11.332031 0.597656 C 10.949219 0.597656 10.582031 0.671875 10.226562 0.820312 C 9.871094 0.96875 9.558594 1.175781 9.289062 1.449219 C 9.015625 1.722656 8.808594 2.035156 8.660156 2.390625 C 8.511719 2.746094 8.441406 3.117188 8.441406 3.5 M 15.675781 3.5 C 15.675781 3.886719 15.746094 4.257812 15.894531 4.613281 C 16.042969 4.96875 16.25 5.28125 16.523438 5.554688 C 16.792969 5.828125 17.105469 6.035156 17.460938 6.183594 C 17.816406 6.332031 18.183594 6.40625 18.566406 6.40625 C 18.953125 6.40625 19.320312 6.332031 19.675781 6.183594 C 20.03125 6.035156 20.34375 5.828125 20.613281 5.554688 C 20.886719 5.28125 21.09375 4.96875 21.242188 4.613281 C 21.386719 4.257812 21.460938 3.886719 21.460938 3.5 C 21.460938 3.117188 21.386719 2.746094 21.242188 2.390625 C 21.09375 2.035156 20.886719 1.722656 20.613281 1.449219 C 20.34375 1.175781 20.03125 0.96875 19.675781 0.820312 C 19.320312 0.671875 18.953125 0.597656 18.566406 0.597656 C 18.183594 0.597656 17.816406 0.671875 17.460938 0.820312 C 17.105469 0.96875 16.792969 1.175781 16.523438 1.449219 C 16.25 1.722656 16.042969 2.035156 15.894531 2.390625 C 15.746094 2.746094 15.675781 3.117188 15.675781 3.5 M 22.910156 3.5 C 22.910156 3.886719 22.980469 4.257812 23.128906 4.613281 C 23.277344 4.96875 23.484375 5.28125 23.757812 5.554688 C 24.027344 5.828125 24.339844 6.035156 24.695312 6.183594 C 25.050781 6.332031 25.417969 6.40625 25.800781 6.40625 C 26.1875 6.40625 26.554688 6.332031 26.910156 6.183594 C 27.265625 6.035156 27.578125 5.828125 27.847656 5.554688 C 28.121094 5.28125 28.328125 4.96875 28.476562 4.613281 C 28.621094 4.257812 28.695312 3.886719 28.695312 3.5 C 28.695312 3.117188 28.621094 2.746094 28.476562 2.390625 C 28.328125 2.035156 28.121094 1.722656 27.847656 1.449219 C 27.578125 1.175781 27.265625 0.96875 26.910156 0.820312 C 26.554688 0.671875 26.1875 0.597656 25.800781 0.597656 C 25.417969 0.597656 25.050781 0.671875 24.695312 0.820312 C 24.339844 0.96875 24.027344 1.175781 23.757812 1.449219 C 23.484375 1.722656 23.277344 2.035156 23.128906 2.390625 C 22.980469 2.746094 22.910156 3.117188 22.910156 3.5 M 30.144531 3.5 C 30.144531 3.886719 30.214844 4.257812 30.363281 4.613281 C 30.511719 4.96875 30.71875 5.28125 30.992188 5.554688 C 31.261719 5.828125 31.574219 6.035156 31.929688 6.183594 C 32.285156 6.332031 32.652344 6.40625 33.035156 6.40625 C 33.421875 6.40625 33.789062 6.332031 34.144531 6.183594 C 34.5 6.035156 34.8125 5.828125 35.082031 5.554688 C 35.355469 5.28125 35.5625 4.96875 35.710938 4.613281 C 35.855469 4.257812 35.929688 3.886719 35.929688 3.5 C 35.929688 3.117188 35.855469 2.746094 35.710938 2.390625 C 35.5625 2.035156 35.355469 1.722656 35.082031 1.449219 C 34.8125 1.175781 34.5 0.96875 34.144531 0.820312 C 33.789062 0.671875 33.421875 0.597656 33.035156 0.597656 C 32.652344 0.597656 32.285156 0.671875 31.929688 0.820312 C 31.574219 0.96875 31.261719 1.175781 30.992188 1.449219 C 30.71875 1.722656 30.511719 2.035156 30.363281 2.390625 C 30.214844 2.746094 30.144531 3.117188 30.144531 3.5 M 37.378906 3.5 C 37.378906 3.886719 37.449219 4.257812 37.597656 4.613281 C 37.746094 4.96875 37.953125 5.28125 38.226562 5.554688 C 38.496094 5.828125 38.808594 6.035156 39.164062 6.183594 C 39.519531 6.332031 39.886719 6.40625 40.269531 6.40625 C 40.65625 6.40625 41.023438 6.332031 41.378906 6.183594 C 41.734375 6.035156 42.046875 5.828125 42.316406 5.554688 C 42.589844 5.28125 42.796875 4.96875 42.945312 4.613281 C 43.089844 4.257812 43.164062 3.886719 43.164062 3.5 C 43.164062 3.117188 43.089844 2.746094 42.945312 2.390625 C 42.796875 2.035156 42.589844 1.722656 42.316406 1.449219 C 42.046875 1.175781 41.734375 0.96875 41.378906 0.820312 C 41.023438 0.671875 40.65625 0.597656 40.269531 0.597656 C 39.886719 0.597656 39.519531 0.671875 39.164062 0.820312 C 38.808594 0.96875 38.496094 1.175781 38.226562 1.449219 C 37.953125 1.722656 37.746094 2.035156 37.597656 2.390625 C 37.449219 2.746094 37.378906 3.117188 37.378906 3.5 " fill-opacity="1" fill-rule="evenodd"/></g><g clip-path="url(#ab86cc49d4)"><path fill="#808080" d="M 0.480469 7.128906 L 43.886719 7.128906 L 43.886719 14.460938 L 0.480469 14.460938 Z M 1.207031 10.757812 C 1.207031 11.144531 1.277344 11.515625 1.425781 11.871094 C 1.574219 12.226562 1.78125 12.539062 2.054688 12.8125 C 2.324219 13.085938 2.636719 13.292969 2.992188 13.441406 C 3.347656 13.589844 3.714844 13.664062 4.097656 13.664062 C 4.484375 13.664062 4.851562 13.589844 5.207031 13.441406 C 5.5625 13.292969 5.875 13.085938 6.144531 12.8125 C 6.417969 12.539062 6.625 12.226562 6.773438 11.871094 C 6.917969 11.515625 6.992188 11.144531 6.992188 10.757812 C 6.992188 10.375 6.917969 10.003906 6.773438 9.648438 C 6.625 9.292969 6.417969 8.980469 6.144531 8.707031 C 5.875 8.433594 5.5625 8.226562 5.207031 8.078125 C 4.851562 7.929688 4.484375 7.855469 4.097656 7.855469 C 3.714844 7.855469 3.347656 7.929688 2.992188 8.078125 C 2.636719 8.226562 2.324219 8.433594 2.054688 8.707031 C 1.78125 8.980469 1.574219 9.292969 1.425781 9.648438 C 1.277344 10.003906 1.207031 10.375 1.207031 10.757812 M 8.441406 10.757812 C 8.441406 11.144531 8.511719 11.515625 8.660156 11.871094 C 8.808594 12.226562 9.015625 12.539062 9.289062 12.8125 C 9.558594 13.085938 9.871094 13.292969 10.226562 13.441406 C 10.582031 13.589844 10.949219 13.664062 11.332031 13.664062 C 11.71875 13.664062 12.085938 13.589844 12.441406 13.441406 C 12.796875 13.292969 13.109375 13.085938 13.378906 12.8125 C 13.652344 12.539062 13.859375 12.226562 14.007812 11.871094 C 14.152344 11.515625 14.226562 11.144531 14.226562 10.757812 C 14.226562 10.375 14.152344 10.003906 14.007812 9.648438 C 13.859375 9.292969 13.652344 8.980469 13.378906 8.707031 C 13.109375 8.433594 12.796875 8.226562 12.441406 8.078125 C 12.085938 7.929688 11.71875 7.855469 11.332031 7.855469 C 10.949219 7.855469 10.582031 7.929688 10.226562 8.078125 C 9.871094 8.226562 9.558594 8.433594 9.289062 8.707031 C 9.015625 8.980469 8.808594 9.292969 8.660156 9.648438 C 8.511719 10.003906 8.441406 10.375 8.441406 10.757812 M 15.675781 10.757812 C 15.675781 11.144531 15.746094 11.515625 15.894531 11.871094 C 16.042969 12.226562 16.25 12.539062 16.523438 12.8125 C 16.792969 13.085938 17.105469 13.292969 17.460938 13.441406 C 17.816406 13.589844 18.183594 13.664062 18.566406 13.664062 C 18.953125 13.664062 19.320312 13.589844 19.675781 13.441406 C 20.03125 13.292969 20.34375 13.085938 20.613281 12.8125 C 20.886719 12.539062 21.09375 12.226562 21.242188 11.871094 C 21.386719 11.515625 21.460938 11.144531 21.460938 10.757812 C 21.460938 10.375 21.386719 10.003906 21.242188 9.648438 C 21.09375 9.292969 20.886719 8.980469 20.613281 8.707031 C 20.34375 8.433594 20.03125 8.226562 19.675781 8.078125 C 19.320312 7.929688 18.953125 7.855469 18.566406 7.855469 C 18.183594 7.855469 17.816406 7.929688 17.460938 8.078125 C 17.105469 8.226562 16.792969 8.433594 16.523438 8.707031 C 16.25 8.980469 16.042969 9.292969 15.894531 9.648438 C 15.746094 10.003906 15.675781 10.375 15.675781 10.757812 M 22.910156 10.757812 C 22.910156 11.144531 22.980469 11.515625 23.128906 11.871094 C 23.277344 12.226562 23.484375 12.539062 23.757812 12.8125 C 24.027344 13.085938 24.339844 13.292969 24.695312 13.441406 C 25.050781 13.589844 25.417969 13.664062 25.800781 13.664062 C 26.1875 13.664062 26.554688 13.589844 26.910156 13.441406 C 27.265625 13.292969 27.578125 13.085938 27.847656 12.8125 C 28.121094 12.539062 28.328125 12.226562 28.476562 11.871094 C 28.621094 11.515625 28.695312 11.144531 28.695312 10.757812 C 28.695312 10.375 28.621094 10.003906 28.476562 9.648438 C 28.328125 9.292969 28.121094 8.980469 27.847656 8.707031 C 27.578125 8.433594 27.265625 8.226562 26.910156 8.078125 C 26.554688 7.929688 26.1875 7.855469 25.800781 7.855469 C 25.417969 7.855469 25.050781 7.929688 24.695312 8.078125 C 24.339844 8.226562 24.027344 8.433594 23.757812 8.707031 C 23.484375 8.980469 23.277344 9.292969 23.128906 9.648438 C 22.980469 10.003906 22.910156 10.375 22.910156 10.757812 M 30.144531 10.757812 C 30.144531 11.144531 30.214844 11.515625 30.363281 11.871094 C 30.511719 12.226562 30.71875 12.539062 30.992188 12.8125 C 31.261719 13.085938 31.574219 13.292969 31.929688 13.441406 C 32.285156 13.589844 32.652344 13.664062 33.035156 13.664062 C 33.421875 13.664062 33.789062 13.589844 34.144531 13.441406 C 34.5 13.292969 34.8125 13.085938 35.082031 12.8125 C 35.355469 12.539062 35.5625 12.226562 35.710938 11.871094 C 35.855469 11.515625 35.929688 11.144531 35.929688 10.757812 C 35.929688 10.375 35.855469 10.003906 35.710938 9.648438 C 35.5625 9.292969 35.355469 8.980469 35.082031 8.707031 C 34.8125 8.433594 34.5 8.226562 34.144531 8.078125 C 33.789062 7.929688 33.421875 7.855469 33.035156 7.855469 C 32.652344 7.855469 32.285156 7.929688 31.929688 8.078125 C 31.574219 8.226562 31.261719 8.433594 30.992188 8.707031 C 30.71875 8.980469 30.511719 9.292969 30.363281 9.648438 C 30.214844 10.003906 30.144531 10.375 30.144531 10.757812 M 37.378906 10.757812 C 37.378906 11.144531 37.449219 11.515625 37.597656 11.871094 C 37.746094 12.226562 37.953125 12.539062 38.226562 12.8125 C 38.496094 13.085938 38.808594 13.292969 39.164062 13.441406 C 39.519531 13.589844 39.886719 13.664062 40.269531 13.664062 C 40.65625 13.664062 41.023438 13.589844 41.378906 13.441406 C 41.734375 13.292969 42.046875 13.085938 42.316406 12.8125 C 42.589844 12.539062 42.796875 12.226562 42.945312 11.871094 C 43.089844 11.515625 43.164062 11.144531 43.164062 10.757812 C 43.164062 10.375 43.089844 10.003906 42.945312 9.648438 C 42.796875 9.292969 42.589844 8.980469 42.316406 8.707031 C 42.046875 8.433594 41.734375 8.226562 41.378906 8.078125 C 41.023438 7.929688 40.65625 7.855469 40.269531 7.855469 C 39.886719 7.855469 39.519531 7.929688 39.164062 8.078125 C 38.808594 8.226562 38.496094 8.433594 38.226562 8.707031 C 37.953125 8.980469 37.746094 9.292969 37.597656 9.648438 C 37.449219 10.003906 37.378906 10.375 37.378906 10.757812 " fill-opacity="1" fill-rule="evenodd"/></g><g clip-path="url(#16e2e0a7e6)"><path fill="#808080" d="M 0.480469 14.390625 L 43.886719 14.390625 L 43.886719 21.71875 L 0.480469 21.71875 Z M 1.207031 18.019531 C 1.207031 18.402344 1.277344 18.773438 1.425781 19.128906 C 1.574219 19.484375 1.78125 19.796875 2.054688 20.070312 C 2.324219 20.34375 2.636719 20.550781 2.992188 20.699219 C 3.347656 20.847656 3.714844 20.921875 4.097656 20.921875 C 4.484375 20.921875 4.851562 20.847656 5.207031 20.699219 C 5.5625 20.550781 5.875 20.34375 6.144531 20.070312 C 6.417969 19.796875 6.625 19.484375 6.773438 19.128906 C 6.917969 18.773438 6.992188 18.402344 6.992188 18.019531 C 6.992188 17.632812 6.917969 17.261719 6.773438 16.90625 C 6.625 16.550781 6.417969 16.238281 6.144531 15.964844 C 5.875 15.691406 5.5625 15.484375 5.207031 15.335938 C 4.851562 15.1875 4.484375 15.113281 4.097656 15.113281 C 3.714844 15.113281 3.347656 15.1875 2.992188 15.335938 C 2.636719 15.484375 2.324219 15.691406 2.054688 15.964844 C 1.78125 16.238281 1.574219 16.550781 1.425781 16.90625 C 1.277344 17.261719 1.207031 17.632812 1.207031 18.019531 M 8.441406 18.019531 C 8.441406 18.402344 8.511719 18.773438 8.660156 19.128906 C 8.808594 19.484375 9.015625 19.796875 9.289062 20.070312 C 9.558594 20.34375 9.871094 20.550781 10.226562 20.699219 C 10.582031 20.847656 10.949219 20.921875 11.332031 20.921875 C 11.71875 20.921875 12.085938 20.847656 12.441406 20.699219 C 12.796875 20.550781 13.109375 20.34375 13.378906 20.070312 C 13.652344 19.796875 13.859375 19.484375 14.007812 19.128906 C 14.152344 18.773438 14.226562 18.402344 14.226562 18.019531 C 14.226562 17.632812 14.152344 17.261719 14.007812 16.90625 C 13.859375 16.550781 13.652344 16.238281 13.378906 15.964844 C 13.109375 15.691406 12.796875 15.484375 12.441406 15.335938 C 12.085938 15.1875 11.71875 15.113281 11.332031 15.113281 C 10.949219 15.113281 10.582031 15.1875 10.226562 15.335938 C 9.871094 15.484375 9.558594 15.691406 9.289062 15.964844 C 9.015625 16.238281 8.808594 16.550781 8.660156 16.90625 C 8.511719 17.261719 8.441406 17.632812 8.441406 18.019531 M 15.675781 18.019531 C 15.675781 18.402344 15.746094 18.773438 15.894531 19.128906 C 16.042969 19.484375 16.25 19.796875 16.523438 20.070312 C 16.792969 20.34375 17.105469 20.550781 17.460938 20.699219 C 17.816406 20.847656 18.183594 20.921875 18.566406 20.921875 C 18.953125 20.921875 19.320312 20.847656 19.675781 20.699219 C 20.03125 20.550781 20.34375 20.34375 20.613281 20.070312 C 20.886719 19.796875 21.09375 19.484375 21.242188 19.128906 C 21.386719 18.773438 21.460938 18.402344 21.460938 18.019531 C 21.460938 17.632812 21.386719 17.261719 21.242188 16.90625 C 21.09375 16.550781 20.886719 16.238281 20.613281 15.964844 C 20.34375 15.691406 20.03125 15.484375 19.675781 15.335938 C 19.320312 15.1875 18.953125 15.113281 18.566406 15.113281 C 18.183594 15.113281 17.816406 15.1875 17.460938 15.335938 C 17.105469 15.484375 16.792969 15.691406 16.523438 15.964844 C 16.25 16.238281 16.042969 16.550781 15.894531 16.90625 C 15.746094 17.261719 15.675781 17.632812 15.675781 18.019531 M 22.910156 18.019531 C 22.910156 18.402344 22.980469 18.773438 23.128906 19.128906 C 23.277344 19.484375 23.484375 19.796875 23.757812 20.070312 C 24.027344 20.34375 24.339844 20.550781 24.695312 20.699219 C 25.050781 20.847656 25.417969 20.921875 25.800781 20.921875 C 26.1875 20.921875 26.554688 20.847656 26.910156 20.699219 C 27.265625 20.550781 27.578125 20.34375 27.847656 20.070312 C 28.121094 19.796875 28.328125 19.484375 28.476562 19.128906 C 28.621094 18.773438 28.695312 18.402344 28.695312 18.019531 C 28.695312 17.632812 28.621094 17.261719 28.476562 16.90625 C 28.328125 16.550781 28.121094 16.238281 27.847656 15.964844 C 27.578125 15.691406 27.265625 15.484375 26.910156 15.335938 C 26.554688 15.1875 26.1875 15.113281 25.800781 15.113281 C 25.417969 15.113281 25.050781 15.1875 24.695312 15.335938 C 24.339844 15.484375 24.027344 15.691406 23.757812 15.964844 C 23.484375 16.238281 23.277344 16.550781 23.128906 16.90625 C 22.980469 17.261719 22.910156 17.632812 22.910156 18.019531 M 30.144531 18.019531 C 30.144531 18.402344 30.214844 18.773438 30.363281 19.128906 C 30.511719 19.484375 30.71875 19.796875 30.992188 20.070312 C 31.261719 20.34375 31.574219 20.550781 31.929688 20.699219 C 32.285156 20.847656 32.652344 20.921875 33.035156 20.921875 C 33.421875 20.921875 33.789062 20.847656 34.144531 20.699219 C 34.5 20.550781 34.8125 20.34375 35.082031 20.070312 C 35.355469 19.796875 35.5625 19.484375 35.710938 19.128906 C 35.855469 18.773438 35.929688 18.402344 35.929688 18.019531 C 35.929688 17.632812 35.855469 17.261719 35.710938 16.90625 C 35.5625 16.550781 35.355469 16.238281 35.082031 15.964844 C 34.8125 15.691406 34.5 15.484375 34.144531 15.335938 C 33.789062 15.1875 33.421875 15.113281 33.035156 15.113281 C 32.652344 15.113281 32.285156 15.1875 31.929688 15.335938 C 31.574219 15.484375 31.261719 15.691406 30.992188 15.964844 C 30.71875 16.238281 30.511719 16.550781 30.363281 16.90625 C 30.214844 17.261719 30.144531 17.632812 30.144531 18.019531 M 37.378906 18.019531 C 37.378906 18.402344 37.449219 18.773438 37.597656 19.128906 C 37.746094 19.484375 37.953125 19.796875 38.226562 20.070312 C 38.496094 20.34375 38.808594 20.550781 39.164062 20.699219 C 39.519531 20.847656 39.886719 20.921875 40.269531 20.921875 C 40.65625 20.921875 41.023438 20.847656 41.378906 20.699219 C 41.734375 20.550781 42.046875 20.34375 42.316406 20.070312 C 42.589844 19.796875 42.796875 19.484375 42.945312 19.128906 C 43.089844 18.773438 43.164062 18.402344 43.164062 18.019531 C 43.164062 17.632812 43.089844 17.261719 42.945312 16.90625 C 42.796875 16.550781 42.589844 16.238281 42.316406 15.964844 C 42.046875 15.691406 41.734375 15.484375 41.378906 15.335938 C 41.023438 15.1875 40.65625 15.113281 40.269531 15.113281 C 39.886719 15.113281 39.519531 15.1875 39.164062 15.335938 C 38.808594 15.484375 38.496094 15.691406 38.226562 15.964844 C 37.953125 16.238281 37.746094 16.550781 37.597656 16.90625 C 37.449219 17.261719 37.378906 17.632812 37.378906 18.019531 " fill-opacity="1" fill-rule="evenodd"/></g><g clip-path="url(#1fb6438db9)"><path fill="#808080" d="M 0.480469 21.648438 L 43.886719 21.648438 L 43.886719 28.976562 L 0.480469 28.976562 Z M 1.207031 25.277344 C 1.207031 25.660156 1.277344 26.03125 1.425781 26.386719 C 1.574219 26.742188 1.78125 27.054688 2.054688 27.328125 C 2.324219 27.601562 2.636719 27.8125 2.992188 27.957031 C 3.347656 28.105469 3.714844 28.179688 4.097656 28.179688 C 4.484375 28.179688 4.851562 28.105469 5.207031 27.957031 C 5.5625 27.8125 5.875 27.601562 6.144531 27.328125 C 6.417969 27.054688 6.625 26.742188 6.773438 26.386719 C 6.917969 26.03125 6.992188 25.660156 6.992188 25.277344 C 6.992188 24.890625 6.917969 24.519531 6.773438 24.164062 C 6.625 23.808594 6.417969 23.496094 6.144531 23.222656 C 5.875 22.949219 5.5625 22.742188 5.207031 22.59375 C 4.851562 22.445312 4.484375 22.371094 4.097656 22.371094 C 3.714844 22.371094 3.347656 22.445312 2.992188 22.59375 C 2.636719 22.742188 2.324219 22.949219 2.054688 23.222656 C 1.78125 23.496094 1.574219 23.808594 1.425781 24.164062 C 1.277344 24.519531 1.207031 24.890625 1.207031 25.277344 M 8.441406 25.277344 C 8.441406 25.660156 8.511719 26.03125 8.660156 26.386719 C 8.808594 26.742188 9.015625 27.054688 9.289062 27.328125 C 9.558594 27.601562 9.871094 27.8125 10.226562 27.957031 C 10.582031 28.105469 10.949219 28.179688 11.332031 28.179688 C 11.71875 28.179688 12.085938 28.105469 12.441406 27.957031 C 12.796875 27.8125 13.109375 27.601562 13.378906 27.328125 C 13.652344 27.054688 13.859375 26.742188 14.007812 26.386719 C 14.152344 26.03125 14.226562 25.660156 14.226562 25.277344 C 14.226562 24.890625 14.152344 24.519531 14.007812 24.164062 C 13.859375 23.808594 13.652344 23.496094 13.378906 23.222656 C 13.109375 22.949219 12.796875 22.742188 12.441406 22.59375 C 12.085938 22.445312 11.71875 22.371094 11.332031 22.371094 C 10.949219 22.371094 10.582031 22.445312 10.226562 22.59375 C 9.871094 22.742188 9.558594 22.949219 9.289062 23.222656 C 9.015625 23.496094 8.808594 23.808594 8.660156 24.164062 C 8.511719 24.519531 8.441406 24.890625 8.441406 25.277344 M 15.675781 25.277344 C 15.675781 25.660156 15.746094 26.03125 15.894531 26.386719 C 16.042969 26.742188 16.25 27.054688 16.523438 27.328125 C 16.792969 27.601562 17.105469 27.8125 17.460938 27.957031 C 17.816406 28.105469 18.183594 28.179688 18.566406 28.179688 C 18.953125 28.179688 19.320312 28.105469 19.675781 27.957031 C 20.03125 27.8125 20.34375 27.601562 20.613281 27.328125 C 20.886719 27.054688 21.09375 26.742188 21.242188 26.386719 C 21.386719 26.03125 21.460938 25.660156 21.460938 25.277344 C 21.460938 24.890625 21.386719 24.519531 21.242188 24.164062 C 21.09375 23.808594 20.886719 23.496094 20.613281 23.222656 C 20.34375 22.949219 20.03125 22.742188 19.675781 22.59375 C 19.320312 22.445312 18.953125 22.371094 18.566406 22.371094 C 18.183594 22.371094 17.816406 22.445312 17.460938 22.59375 C 17.105469 22.742188 16.792969 22.949219 16.523438 23.222656 C 16.25 23.496094 16.042969 23.808594 15.894531 24.164062 C 15.746094 24.519531 15.675781 24.890625 15.675781 25.277344 M 22.910156 25.277344 C 22.910156 25.660156 22.980469 26.03125 23.128906 26.386719 C 23.277344 26.742188 23.484375 27.054688 23.757812 27.328125 C 24.027344 27.601562 24.339844 27.8125 24.695312 27.957031 C 25.050781 28.105469 25.417969 28.179688 25.800781 28.179688 C 26.1875 28.179688 26.554688 28.105469 26.910156 27.957031 C 27.265625 27.8125 27.578125 27.601562 27.847656 27.328125 C 28.121094 27.054688 28.328125 26.742188 28.476562 26.386719 C 28.621094 26.03125 28.695312 25.660156 28.695312 25.277344 C 28.695312 24.890625 28.621094 24.519531 28.476562 24.164062 C 28.328125 23.808594 28.121094 23.496094 27.847656 23.222656 C 27.578125 22.949219 27.265625 22.742188 26.910156 22.59375 C 26.554688 22.445312 26.1875 22.371094 25.800781 22.371094 C 25.417969 22.371094 25.050781 22.445312 24.695312 22.59375 C 24.339844 22.742188 24.027344 22.949219 23.757812 23.222656 C 23.484375 23.496094 23.277344 23.808594 23.128906 24.164062 C 22.980469 24.519531 22.910156 24.890625 22.910156 25.277344 M 30.144531 25.277344 C 30.144531 25.660156 30.214844 26.03125 30.363281 26.386719 C 30.511719 26.742188 30.71875 27.054688 30.992188 27.328125 C 31.261719 27.601562 31.574219 27.8125 31.929688 27.957031 C 32.285156 28.105469 32.652344 28.179688 33.035156 28.179688 C 33.421875 28.179688 33.789062 28.105469 34.144531 27.957031 C 34.5 27.8125 34.8125 27.601562 35.082031 27.328125 C 35.355469 27.054688 35.5625 26.742188 35.710938 26.386719 C 35.855469 26.03125 35.929688 25.660156 35.929688 25.277344 C 35.929688 24.890625 35.855469 24.519531 35.710938 24.164062 C 35.5625 23.808594 35.355469 23.496094 35.082031 23.222656 C 34.8125 22.949219 34.5 22.742188 34.144531 22.59375 C 33.789062 22.445312 33.421875 22.371094 33.035156 22.371094 C 32.652344 22.371094 32.285156 22.445312 31.929688 22.59375 C 31.574219 22.742188 31.261719 22.949219 30.992188 23.222656 C 30.71875 23.496094 30.511719 23.808594 30.363281 24.164062 C 30.214844 24.519531 30.144531 24.890625 30.144531 25.277344 M 37.378906 25.277344 C 37.378906 25.660156 37.449219 26.03125 37.597656 26.386719 C 37.746094 26.742188 37.953125 27.054688 38.226562 27.328125 C 38.496094 27.601562 38.808594 27.8125 39.164062 27.957031 C 39.519531 28.105469 39.886719 28.179688 40.269531 28.179688 C 40.65625 28.179688 41.023438 28.105469 41.378906 27.957031 C 41.734375 27.8125 42.046875 27.601562 42.316406 27.328125 C 42.589844 27.054688 42.796875 26.742188 42.945312 26.386719 C 43.089844 26.03125 43.164062 25.660156 43.164062 25.277344 C 43.164062 24.890625 43.089844 24.519531 42.945312 24.164062 C 42.796875 23.808594 42.589844 23.496094 42.316406 23.222656 C 42.046875 22.949219 41.734375 22.742188 41.378906 22.59375 C 41.023438 22.445312 40.65625 22.371094 40.269531 22.371094 C 39.886719 22.371094 39.519531 22.445312 39.164062 22.59375 C 38.808594 22.742188 38.496094 22.949219 38.226562 23.222656 C 37.953125 23.496094 37.746094 23.808594 37.597656 24.164062 C 37.449219 24.519531 37.378906 24.890625 37.378906 25.277344 " fill-opacity="1" fill-rule="evenodd"/></g></svg>