<?xml version="1.0" encoding="utf-8"?>
<!-- Generator: Adobe Illustrator 26.0.1, SVG Export Plug-In . SVG Version: 6.00 Build 0)  -->
<svg version="1.1" id="Layer_1" xmlns="http://www.w3.org/2000/svg" xmlns:xlink="http://www.w3.org/1999/xlink" x="0px" y="0px"
	 viewBox="0 0 100 100" style="enable-background:new 0 0 100 100;" xml:space="preserve">
<g>
	<path d="M23.5,20.6c0-5,2.8-8.1,8-8.1h18.4c16.1,0,26,7.2,26,23.6c0,11.5-8.7,18.1-19.3,19.7l17.8,19c1.5,1.6,2.1,3.1,2.1,4.6
		c0,4.1-3.2,8-7.8,8c-1.9,0-4.4-0.7-6.1-2.7L39.4,56.7h-0.2v22.7c0,5.2-3.3,8.1-7.8,8.1c-4.5,0-7.8-2.9-7.8-8.1V20.6z M39.2,45.4
		h10.8c5.7,0,9.7-3.4,9.7-9.3c0-6-4-9.2-9.7-9.2H39.2V45.4z"/>
</g>
</svg>
