<?xml version="1.0" encoding="utf-8"?>
<!-- Generator: Adobe Illustrator 26.0.1, SVG Export Plug-In . SVG Version: 6.00 Build 0)  -->
<svg version="1.1" id="Layer_1" xmlns="http://www.w3.org/2000/svg" xmlns:xlink="http://www.w3.org/1999/xlink" x="0px" y="0px"
	 viewBox="0 0 300 300" style="enable-background:new 0 0 300 300;" xml:space="preserve">
<style type="text/css">
	.st0{fill:#9D9E7A;}
	.st1{fill:none;stroke:#000000;stroke-width:14;stroke-miterlimit:10;}
	.st2{fill:none;stroke:#000000;stroke-width:4;stroke-linecap:square;stroke-miterlimit:10;}
	.st3{fill:none;stroke:#000000;stroke-width:7;stroke-miterlimit:10;}
	.st4{fill:none;stroke:#000000;stroke-width:4;stroke-miterlimit:10;}
	.st5{fill:none;stroke:#000000;stroke-width:6.6742;stroke-miterlimit:10;}
</style>
<rect class="st0" width="300" height="100"/>
<line class="st1" x1="100" y1="0" x2="100" y2="100"/>
<line class="st1" x1="200" y1="0" x2="200" y2="100"/>
<path class="st2" d="M3.3,3.3"/>
<path class="st3" d="M300,3.3"/>
<path class="st3" d="M0,3.3"/>
<path class="st4" d="M300,100"/>
<path class="st4" d="M0,100"/>
<rect x="3.3" y="3.3" class="st5" width="293.3" height="93.3"/>
<rect y="100" class="st0" width="300" height="100"/>
<line class="st1" x1="100" y1="100" x2="100" y2="200"/>
<line class="st1" x1="200" y1="100" x2="200" y2="200"/>
<path class="st2" d="M3.3,100.6"/>
<path class="st3" d="M300,100.6"/>
<path class="st3" d="M0,100.6"/>
<path class="st4" d="M300,197.3"/>
<path class="st4" d="M0,197.3"/>
<rect x="3.3" y="103.3" class="st5" width="293.3" height="93.3"/>
<rect y="200" class="st0" width="300" height="100"/>
<line class="st1" x1="100" y1="200" x2="100" y2="300"/>
<line class="st1" x1="200" y1="200" x2="200" y2="300"/>
<path class="st2" d="M3.3,203.3"/>
<path class="st3" d="M300,203.3"/>
<path class="st3" d="M0,203.3"/>
<path class="st4" d="M300,300"/>
<path class="st4" d="M0,300"/>
<rect x="3.3" y="203.3" class="st5" width="293.3" height="93.3"/>
</svg>
