<?xml version="1.0" encoding="utf-8"?>
<svg version="1.1" id="Layer_1" xmlns="http://www.w3.org/2000/svg" xmlns:xlink="http://www.w3.org/1999/xlink" x="0px"
     y="0px"
     viewBox="0 0 50 50" style="enable-background:new 0 0 50 50;" xml:space="preserve">
    <style type="text/css">
        .r {
            fill: #888888;
            width: 10px;
            height: 10px;
        }
        .b {
            fill: #DDDDDD;
            width: 10px;
            height: 10px;
        }
    </style>

    <rect x="0" y="0" class="r"/>
    <rect x="10" y="0" class="b"/>
    <rect x="20" y="0" class="r"/>
    <rect x="30" y="0" class="b"/>
    <rect x="40" y="0" class="r"/>

    <rect x="0" y="10" class="b"/>
    <rect x="10" y="10" class="r"/>
    <rect x="20" y="10" class="b"/>
    <rect x="30" y="10" class="r"/>
    <rect x="40" y="10" class="b"/>

    <rect x="0" y="20" class="r"/>
    <rect x="10" y="20" class="b"/>
    <rect x="20" y="20" class="r"/>
    <rect x="30" y="20" class="b"/>
    <rect x="40" y="20" class="r"/>

    <rect x="0" y="30" class="b"/>
    <rect x="10" y="30" class="r"/>
    <rect x="20" y="30" class="b"/>
    <rect x="30" y="30" class="r"/>
    <rect x="40" y="30" class="b"/>

    <rect x="0" y="40" class="r"/>
    <rect x="10" y="40" class="b"/>
    <rect x="20" y="40" class="r"/>
    <rect x="30" y="40" class="b"/>
    <rect x="40" y="40" class="r"/>

    <rect x="0" y="0" width="50" height="50" stroke="#000000" stroke-width="0.5" fill="none"/>

    <path d="M 10 0 V 50 M 20 0 V 50 M 30 0 V 50 M 40 0 V 50 
    M 0 10 H 50 M 0 20 H 50 M 0 30 H 50 M 0 40 H 50" stroke="black" stroke-width="0.25"/>

</svg>