<?xml version="1.0" encoding="utf-8"?>
<svg version="1.1" xmlns="http://www.w3.org/2000/svg" xmlns:xlink="http://www.w3.org/1999/xlink" x="0px" y="0px" 
viewBox="0 0 300 300" xml:space="preserve">
  <path d="
      M150 50 L275 175 L150 300 L25 175 Z

      M135 275 a 15,15 0 1,0 30,0 a 15,15 0 1,0 -30,0
      M160 250 a 15,15 0 1,0 30,0 a 15,15 0 1,0 -30,0
      M185 225 a 15,15 0 1,0 30,0 a 15,15 0 1,0 -30,0
      M210 200 a 15,15 0 1,0 30,0 a 15,15 0 1,0 -30,0
      M235 175 a 15,15 0 1,0 30,0 a 15,15 0 1,0 -30,0

      M110 250 a 15,15 0 1,0 30,0 a 15,15 0 1,0 -30,0
      M135 225 a 15,15 0 1,0 30,0 a 15,15 0 1,0 -30,0
      M160 200 a 15,15 0 1,0 30,0 a 15,15 0 1,0 -30,0
      M185 175 a 15,15 0 1,0 30,0 a 15,15 0 1,0 -30,0
      M210 150 a 15,15 0 1,0 30,0 a 15,15 0 1,0 -30,0

      M85 225 a 15,15 0 1,0 30,0 a 15,15 0 1,0 -30,0
      M110 200 a 15,15 0 1,0 30,0 a 15,15 0 1,0 -30,0
      M135 175 a 15,15 0 1,0 30,0 a 15,15 0 1,0 -30,0
      M160 150 a 15,15 0 1,0 30,0 a 15,15 0 1,0 -30,0
      M185 125 a 15,15 0 1,0 30,0 a 15,15 0 1,0 -30,0
      
      M60 200 a 15,15 0 1,0 30,0 a 15,15 0 1,0 -30,0
      M85 175 a 15,15 0 1,0 30,0 a 15,15 0 1,0 -30,0
      M110 150 a 15,15 0 1,0 30,0 a 15,15 0 1,0 -30,0
      M135 125 a 15,15 0 1,0 30,0 a 15,15 0 1,0 -30,0
      M160 100 a 15,15 0 1,0 30,0 a 15,15 0 1,0 -30,0

      M35 175 a 15,15 0 1,0 30,0 a 15,15 0 1,0 -30,0
      M60 150 a 15,15 0 1,0 30,0 a 15,15 0 1,0 -30,0
      M85 125 a 15,15 0 1,0 30,0 a 15,15 0 1,0 -30,0
      M110 100 a 15,15 0 1,0 30,0 a 15,15 0 1,0 -30,0
      M135 75 a 15,15 0 1,0 30,0 a 15,15 0 1,0 -30,0

    " 
    fill="gray" fill-rule="evenodd"/>

    <!-- <circle cx="35" cy="160" r="5"/> 
    <circle cx="5" cy="130" r="5"/> 

    <circle cx="60" cy="135" r="5"/> 
    <circle cx="30" cy="105" r="5"/> 

    <circle cx="85" cy="110" r="5"/> 
    <circle cx="55" cy="80" r="5"/>

    <circle cx="110" cy="85" r="5"/> 
    <circle cx="80" cy="55" r="5"/> 

    <circle cx="135" cy="60" r="5"/> 
    <circle cx="105" cy="30" r="5"/> 

    <circle cx="165" cy="60" r="5"/> 
    <circle cx="195" cy="30" r="5"/> 

    <circle cx="190" cy="85" r="5"/> 
    <circle cx="220" cy="55" r="5"/> 

    <circle cx="215" cy="110" r="5"/> 
    <circle cx="245" cy="80" r="5"/>

    <circle cx="240" cy="135" r="5"/> 
    <circle cx="270" cy="105" r="5"/> 

    <circle cx="265" cy="160" r="5"/> 
    <circle cx="295" cy="130" r="5"/>  -->
  
</svg>