<?xml version="1.0" encoding="utf-8"?>
<svg version="1.1" xmlns="http://www.w3.org/2000/svg" xmlns:xlink="http://www.w3.org/1999/xlink" x="0px" y="0px" 
viewBox="0 0 300 300" xml:space="preserve">
  <path d="
      M150 50 L275 175 L150 300 L25 175 Z

      M135 275 a 15,15 0 1,0 30,0 a 15,15 0 1,0 -30,0
      M160 250 a 15,15 0 1,0 30,0 a 15,15 0 1,0 -30,0
      M185 225 a 15,15 0 1,0 30,0 a 15,15 0 1,0 -30,0
      M210 200 a 15,15 0 1,0 30,0 a 15,15 0 1,0 -30,0
      M235 175 a 15,15 0 1,0 30,0 a 15,15 0 1,0 -30,0

      M110 250 a 15,15 0 1,0 30,0 a 15,15 0 1,0 -30,0
      M135 225 a 15,15 0 1,0 30,0 a 15,15 0 1,0 -30,0
      M160 200 a 15,15 0 1,0 30,0 a 15,15 0 1,0 -30,0
      M185 175 a 15,15 0 1,0 30,0 a 15,15 0 1,0 -30,0
      M210 150 a 15,15 0 1,0 30,0 a 15,15 0 1,0 -30,0

      M85 225 a 15,15 0 1,0 30,0 a 15,15 0 1,0 -30,0
      M110 200 a 15,15 0 1,0 30,0 a 15,15 0 1,0 -30,0
      M135 175 a 15,15 0 1,0 30,0 a 15,15 0 1,0 -30,0
      M160 150 a 15,15 0 1,0 30,0 a 15,15 0 1,0 -30,0
      M185 125 a 15,15 0 1,0 30,0 a 15,15 0 1,0 -30,0
      
      M60 200 a 15,15 0 1,0 30,0 a 15,15 0 1,0 -30,0
      M85 175 a 15,15 0 1,0 30,0 a 15,15 0 1,0 -30,0
      M110 150 a 15,15 0 1,0 30,0 a 15,15 0 1,0 -30,0
      M135 125 a 15,15 0 1,0 30,0 a 15,15 0 1,0 -30,0
      M160 100 a 15,15 0 1,0 30,0 a 15,15 0 1,0 -30,0

      M35 175 a 15,15 0 1,0 30,0 a 15,15 0 1,0 -30,0
      M60 150 a 15,15 0 1,0 30,0 a 15,15 0 1,0 -30,0
      M85 125 a 15,15 0 1,0 30,0 a 15,15 0 1,0 -30,0
      M110 100 a 15,15 0 1,0 30,0 a 15,15 0 1,0 -30,0
      M135 75 a 15,15 0 1,0 30,0 a 15,15 0 1,0 -30,0

    " 
    fill="gray" fill-rule="evenodd"/>
</svg>