<?xml version="1.0" encoding="utf-8"?><svg id="ForegroundSVG" version="1.1" xmlns="http://www.w3.org/2000/svg" viewBox="0 0 300 300"><path fill="gray" fill-rule="evenodd" d="M150 50L275 175L150 300L25 175ZM135 275 a 15,15 0 1,0 30,0 a 15,15 0 1,0 -30,0M160 250 a 15,15 0 1,0 30,0 a 15,15 0 1,0 -30,0M185 225 a 15,15 0 1,0 30,0 a 15,15 0 1,0 -30,0M210 200 a 15,15 0 1,0 30,0 a 15,15 0 1,0 -30,0M235 175 a 15,15 0 1,0 30,0 a 15,15 0 1,0 -30,0M110 250 a 15,15 0 1,0 30,0 a 15,15 0 1,0 -30,0M135 225 a 15,15 0 1,0 30,0 a 15,15 0 1,0 -30,0M160 200 a 15,15 0 1,0 30,0 a 15,15 0 1,0 -30,0M185 175 a 15,15 0 1,0 30,0 a 15,15 0 1,0 -30,0M210 150 a 15,15 0 1,0 30,0 a 15,15 0 1,0 -30,0M85 225 a 15,15 0 1,0 30,0 a 15,15 0 1,0 -30,0M110 200 a 15,15 0 1,0 30,0 a 15,15 0 1,0 -30,0M135 175 a 15,15 0 1,0 30,0 a 15,15 0 1,0 -30,0M160 150 a 15,15 0 1,0 30,0 a 15,15 0 1,0 -30,0M185 125 a 15,15 0 1,0 30,0 a 15,15 0 1,0 -30,0M60 200 a 15,15 0 1,0 30,0 a 15,15 0 1,0 -30,0M85 175 a 15,15 0 1,0 30,0 a 15,15 0 1,0 -30,0M110 150 a 15,15 0 1,0 30,0 a 15,15 0 1,0 -30,0M135 125 a 15,15 0 1,0 30,0 a 15,15 0 1,0 -30,0M160 100 a 15,15 0 1,0 30,0 a 15,15 0 1,0 -30,0M35 175 a 15,15 0 1,0 30,0 a 15,15 0 1,0 -30,0M60 150 a 15,15 0 1,0 30,0 a 15,15 0 1,0 -30,0M85 125 a 15,15 0 1,0 30,0 a 15,15 0 1,0 -30,0M110 100 a 15,15 0 1,0 30,0 a 15,15 0 1,0 -30,0M135 75 a 15,15 0 1,0 30,0 a 15,15 0 1,0 -30,0" /></svg>