<?xml version="1.0" encoding="utf-8"?>
<svg viewBox="0 0 80 80" xmlns="http://www.w3.org/2000/svg">
    <circle cx="10" cy="17" r="2" fill="gray"/>
    <circle cx="10" cy="35" r="2" fill="gray"/>
    <circle cx="10" cy="53" r="2" fill="gray"/>
    
    <circle cx="30" cy="8" r="2" fill="gray"/>
    <circle cx="30" cy="26" r="2" fill="gray"/>
    <circle cx="30" cy="44" r="2" fill="gray"/>
    <circle cx="30" cy="62" r="2" fill="gray"/>

    <circle cx="50" cy="17" r="2" fill="gray"/>
    <circle cx="50" cy="35" r="2" fill="gray"/>
    <circle cx="50" cy="53" r="2" fill="gray"/>
    <circle cx="50" cy="71" r="2" fill="gray"/>

    <circle cx="70" cy="26" r="2" fill="gray"/>
    <circle cx="70" cy="44" r="2" fill="gray"/>
    <circle cx="70" cy="62" r="2" fill="gray"/>

    <line x1="30" y1="8" x2="70" y2="26" stroke="gray"/>
    <line x1="10" y1="17" x2="70" y2="44" stroke="gray"/>
    <line x1="10" y1="35" x2="70" y2="62" stroke="gray"/>
    <line x1="10" y1="53" x2="50" y2="71" stroke="gray"/>

    <line x1="10" y1="53" x2="70" y2="26" stroke="gray"/>
    <line x1="10" y1="35" x2="50" y2="17" stroke="gray"/>
    <line x1="10" y1="17" x2="30" y2="8" stroke="gray"/>
    <line x1="30" y1="62" x2="70" y2="44" stroke="gray"/>
    <line x1="50" y1="71" x2="70" y2="62" stroke="gray"/>

</svg>