<?xml version="1.0"  encoding="utf-8"?><svg version="1.0" xmlns="http://www.w3.org/2000/svg" viewBox="0 0 90 30"><defs><path id="l" d="M-4,0.734A4.3 2 0 1 0 -4,-0.734L0,0z" fill="#88bd90" stroke="#0b5817" stroke-width="0.2"/><linearGradient id="sky" x1="0" x2="0" y1="0" y2="1"><stop offset="0%" stop-color="#f97ad3"/><stop offset="100%" stop-color="#ffa200"/></linearGradient><linearGradient id="water" x1="0" x2="0" y1="0" y2="1"><stop offset="0%" stop-color="#a5a5f6"/><stop offset="100%" stop-color="#00fff7"/></linearGradient><g id="t" transform="scale(0.01) translate(-512, -512)"><path d="M472,400h100v624h-100z" fill="#65320b"/><path d="M807.057402 313.232628v-2.320241c14.694864-85.075529-26.296073-172.471299-163.190333-151.589124-9.280967 1.546828-14.694864-62.646526-82.755287-76.567976-28.616314-5.413897-85.075529-6.187311-116.012084-0.773414-40.990937 6.960725-78.888218 40.217523-99.770393 89.716012H324.44713c-76.567976-4.640483-123.746224 63.41994-112.145015 134.574018 1.546828 6.960725 0.773414 13.92145 1.546828 20.882176-30.936556 20.882175-59.55287 68.060423-59.55287 114.465256 0 68.060423 53.365559 116.785498 109.824773 116.785499h0.773414c-6.960725 70.380665 56.459215 95.903323 107.504532 95.903323H471.39577c13.92145 0 27.069486-3.093656 39.444109-8.507553 13.92145 6.960725 28.616314 11.601208 44.858006 11.601209h99.770393c51.045317 0 94.356495-41.76435 107.504532-98.996979 0 0 106.731118 60.326284 133.02719-114.465257 12.374622-74.247734-38.670695-122.97281-88.942598-130.706949z" fill="#2c883e" /></g></defs><path d="M0,0h90v15h-90z" fill="url(#sky)"/><ellipse cx="45" cy="30" rx="167" ry="19" fill="#2fab2f"/><ellipse cx="45" cy="30" rx="90" ry="16" fill="url(#water)"/><use href="#l" x="5" y="22"/><use href="#l" x="15" y="22"/><use href="#l" x="25" y="22"/><use href="#l" x="35" y="22"/><use href="#l" x="45" y="22"/><use href="#l" x="55" y="22"/><use href="#l" x="65" y="22"/><use href="#l" x="75" y="22"/><use href="#l" x="85" y="22"/><circle cx="47" cy="3" r="1.5" fill="#ffff00"/><use href="#t" x="8" y="8.6"/><use href="#t" x="18" y="7"/><use href="#t" x="28" y="7.8"/><use href="#t" x="65" y="7.8"/><use href="#t" x="75" y="8.5"/><use href="#t" x="85" y="7.5"/></svg>