<?xml version="1.0" encoding="UTF-8"?>
<!-- Author: Jiachun Li -->
<svg version="1.1" id="EntitySVG" xmlns="http://www.w3.org/2000/svg" viewBox="-107 0 733 733">
<path fill="#010101" d="M 2.5,-0.5 C 173.5,-0.5 344.5,-0.5 515.5,-0.5C 516.167,0.833333 517.167,1.83333 518.5,2.5C 518.5,244.5 518.5,486.5 518.5,728.5C 517.5,730.167 516.167,731.5 514.5,732.5C 344.167,732.5 173.833,732.5 3.5,732.5C 2.13632,730.809 0.802988,729.142 -0.5,727.5C -0.5,486.167 -0.5,244.833 -0.5,3.5C 0.488369,2.20498 1.48837,0.871651 2.5,-0.5 Z"/>
<path fill="#f6f1e4" d="M 504.5,13.5 C 504.5,248.5 504.5,483.5 504.5,718.5C 341.167,718.5 177.833,718.5 14.5,718.5C 14.5,483.5 14.5,248.5 14.5,13.5C 177.833,13.5 341.167,13.5 504.5,13.5 Z"/>
<path fill="#0b0a09" d="M 495.5,703.5 C 495.5,704.5 495.5,705.5 495.5,706.5C 495.047,707.458 494.381,708.292 493.5,709C 337.5,709.667 181.5,709.667 25.5,709C 25,708.5 24.5,708 24,707.5C 23.8333,593.5 23.6667,479.5 23.5,365.5C 23.5005,251.264 23.8338,137.097 24.5,23C 180.833,22.3333 337.167,22.3333 493.5,23C 494,23.5 494.5,24 495,24.5C 495.5,250.833 495.667,477.166 495.5,703.5 Z"/>
<path fill="#fbf7ea" d="M 487.5,29.5 C 487.5,253.5 487.5,477.5 487.5,701.5C 335.167,701.5 182.833,701.5 30.5,701.5C 30.5,477.5 30.5,253.5 30.5,29.5C 182.833,29.5 335.167,29.5 487.5,29.5 Z"/>
<path fill="#0e0c0a" d="M 124.5,48.5 C 125.873,48.3433 127.207,48.51 128.5,49C 155.739,75.7376 182.406,102.904 208.5,130.5C 182.406,158.096 155.739,185.262 128.5,212C 127.167,212.667 125.833,212.667 124.5,212C 97.2611,185.262 70.5945,158.096 44.5,130.5C 44.6667,129.833 44.8333,129.167 45,128.5C 71.7016,101.965 98.2016,75.2987 124.5,48.5 Z"/>
<path fill="#fbf5e6" d="M 125.5,54.5 C 151.763,79.095 177.429,104.428 202.5,130.5C 177.5,156.167 152.167,181.5 126.5,206.5C 100.833,181.5 75.5,156.167 50.5,130.5C 75.5211,105.146 100.521,79.8125 125.5,54.5 Z"/>
<path fill="#d5a55e" d="M 367.5,274.5 C 365.557,277.88 364.057,281.547 363,285.5C 362.501,291.491 362.334,297.491 362.5,303.5C 359.7,295.271 360.2,286.938 364,278.5C 364.949,276.907 366.115,275.574 367.5,274.5 Z"/>
<path fill="#d3994a" d="M 410.5,322.5 C 405.932,326.859 400.432,328.859 394,328.5C 389.577,328.36 385.41,327.36 381.5,325.5C 381.866,324.305 382.699,323.639 384,323.5C 386.981,324.959 390.148,325.626 393.5,325.5C 399.208,324.708 404.874,323.708 410.5,322.5 Z"/>
<path fill="#f3cc49" d="M 95.5,381.5 C 105.198,375.331 115.864,371.998 127.5,371.5C 134.809,370.816 142.142,370.316 149.5,370C 151.32,369.8 152.653,368.966 153.5,367.5C 159.892,368.05 165.892,367.05 171.5,364.5C 175.609,362.55 179.943,361.05 184.5,360C 188.647,357.675 192.313,354.841 195.5,351.5C 198.478,350.011 201.478,348.511 204.5,347C 205.748,345.6 206.748,344.1 207.5,342.5C 223.139,332.403 238.473,321.569 253.5,310C 260.486,307.423 266.986,303.923 273,299.5C 275.319,298.129 277.819,297.462 280.5,297.5C 291.989,296.179 303.489,296.179 315,297.5C 320.509,299.684 326.009,301.851 331.5,304C 345.104,314.77 357.104,326.936 367.5,340.5C 379.77,364.447 379.437,388.113 366.5,411.5C 361.956,417.935 357.956,424.601 354.5,431.5C 353.5,431.5 352.5,431.5 351.5,431.5C 351.076,437.014 348.576,441.347 344,444.5C 342.238,446.936 340.904,449.602 340,452.5C 337.195,454.792 334.862,457.459 333,460.5C 332.517,461.448 332.351,462.448 332.5,463.5C 329.645,464.834 327.145,466.834 325,469.5C 321.33,474.753 317.664,480.086 314,485.5C 309.534,495.285 307.534,505.618 308,516.5C 305.356,537.761 297.856,557.095 285.5,574.5C 279.528,575.664 273.528,575.83 267.5,575C 256.325,571.41 245.658,566.744 235.5,561C 234.167,559.333 232.833,557.667 231.5,556C 222.529,553.356 215.196,548.356 209.5,541C 205.289,537.868 200.956,534.868 196.5,532C 193.473,528.728 190.306,525.561 187,522.5C 186.517,521.552 186.351,520.552 186.5,519.5C 183.111,517.95 180.444,515.45 178.5,512C 172.168,507.809 166.835,502.642 162.5,496.5C 161.675,495.614 160.675,495.281 159.5,495.5C 159.649,494.448 159.483,493.448 159,492.5C 155.686,488.352 152.186,484.352 148.5,480.5C 146.955,479.548 145.288,479.215 143.5,479.5C 141.644,475.159 139.478,470.826 137,466.5C 136.092,464.561 134.592,463.561 132.5,463.5C 132.509,461.692 132.009,460.025 131,458.5C 117.815,441.644 107.148,423.311 99,403.5C 97.1873,396.254 96.0206,388.921 95.5,381.5 Z"/>
<path fill="#f9e957" d="M 287.5,306.5 C 298.164,307.265 308.83,308.265 319.5,309.5C 322.63,311.286 325.964,312.619 329.5,313.5C 332.576,316.324 335.742,318.991 339,321.5C 341.13,326.285 340.964,330.952 338.5,335.5C 331.29,337.85 324.123,340.517 317,343.5C 305.193,345.882 293.36,346.049 281.5,344C 276.879,341.422 271.879,339.756 266.5,339C 263.725,337.626 261.392,335.793 259.5,333.5C 256.874,325.698 258.874,319.531 265.5,315C 272.63,311.254 279.963,308.42 287.5,306.5 Z"/>
<path fill="#f9e756" d="M 237.5,328.5 C 253.22,328.406 259.054,336.073 255,351.5C 251.131,360.964 244.298,363.964 234.5,360.5C 233.286,358.931 231.619,358.098 229.5,358C 221.741,349.816 221.741,341.483 229.5,333C 231.998,331.018 234.665,329.518 237.5,328.5 Z"/>
<path fill="#f4e290" d="M 207.5,342.5 C 206.748,344.1 205.748,345.6 204.5,347C 201.478,348.511 198.478,350.011 195.5,351.5C 198.929,347.738 202.929,344.738 207.5,342.5 Z"/>
<path fill="#f9efbf" d="M 171.5,364.5 C 165.892,367.05 159.892,368.05 153.5,367.5C 151.833,367.5 150.167,367.5 148.5,367.5C 148.881,366.069 149.881,365.236 151.5,365C 158.158,364.5 164.825,364.334 171.5,364.5 Z"/>
<path fill="#f3d870" d="M 148.5,367.5 C 150.167,367.5 151.833,367.5 153.5,367.5C 152.653,368.966 151.32,369.8 149.5,370C 142.142,370.316 134.809,370.816 127.5,371.5C 129.831,369.915 132.497,368.749 135.5,368C 139.821,367.501 144.154,367.334 148.5,367.5 Z"/>
<path fill="#e3c071" d="M 395.5,367.5 C 396.657,375.656 396.823,383.99 396,392.5C 395.302,395.004 394.469,397.337 393.5,399.5C 395.274,388.962 395.94,378.295 395.5,367.5 Z"/>
<path fill="#e8ad3e" d="M 410.5,322.5 C 404.874,323.708 399.208,324.708 393.5,325.5C 390.148,325.626 386.981,324.959 384,323.5C 382.699,323.639 381.866,324.305 381.5,325.5C 378.931,326.396 376.931,328.062 375.5,330.5C 385.574,340.981 392.241,353.314 395.5,367.5C 395.94,378.295 395.274,388.962 393.5,399.5C 393.799,401.604 393.466,403.604 392.5,405.5C 387.222,415.721 382.222,426.055 377.5,436.5C 371.798,445.72 365.798,454.72 359.5,463.5C 357.239,465.6 355.072,467.934 353,470.5C 352.209,471.745 351.709,473.078 351.5,474.5C 345.085,481.769 339.585,489.769 335,498.5C 331.006,502.279 328.172,506.612 326.5,511.5C 325.208,514.084 323.875,516.75 322.5,519.5C 321.21,530.481 320.21,541.481 319.5,552.5C 319.5,554.833 319.5,557.167 319.5,559.5C 316.171,570.044 312.837,580.71 309.5,591.5C 305.97,598.692 301.303,605.192 295.5,611C 289.231,612.679 282.897,612.679 276.5,611C 264.261,606.808 252.428,601.641 241,595.5C 227.406,587.064 214.239,578.064 201.5,568.5C 200.194,567.533 199.527,566.199 199.5,564.5C 198.448,564.649 197.448,564.483 196.5,564C 192.736,560.378 188.903,556.878 185,553.5C 184.617,554.056 184.117,554.389 183.5,554.5C 170.894,540.392 157.727,526.725 144,513.5C 141.869,510.898 140.035,508.232 138.5,505.5C 137.5,505.5 136.5,505.5 135.5,505.5C 135.435,503.304 134.768,501.304 133.5,499.5C 129.145,496.479 125.479,492.812 122.5,488.5C 122.532,486.381 121.532,485.048 119.5,484.5C 110.443,472.108 101.776,459.441 93.5,446.5C 88.454,436.49 83.954,426.156 80,415.5C 79.5045,413.527 79.3379,411.527 79.5,409.5C 78.3097,404.477 78.3097,399.477 79.5,394.5C 79.33,393.178 79.6634,392.011 80.5,391C 85.1344,387.188 90.1344,384.021 95.5,381.5C 96.0206,388.921 97.1873,396.254 99,403.5C 107.148,423.311 117.815,441.644 131,458.5C 132.009,460.025 132.509,461.692 132.5,463.5C 134.592,463.561 136.092,464.561 137,466.5C 139.478,470.826 141.644,475.159 143.5,479.5C 145.288,479.215 146.955,479.548 148.5,480.5C 152.186,484.352 155.686,488.352 159,492.5C 159.483,493.448 159.649,494.448 159.5,495.5C 160.675,495.281 161.675,495.614 162.5,496.5C 166.835,502.642 172.168,507.809 178.5,512C 180.444,515.45 183.111,517.95 186.5,519.5C 186.351,520.552 186.517,521.552 187,522.5C 190.306,525.561 193.473,528.728 196.5,532C 200.956,534.868 205.289,537.868 209.5,541C 215.196,548.356 222.529,553.356 231.5,556C 232.833,557.667 234.167,559.333 235.5,561C 245.658,566.744 256.325,571.41 267.5,575C 273.528,575.83 279.528,575.664 285.5,574.5C 297.856,557.095 305.356,537.761 308,516.5C 307.534,505.618 309.534,495.285 314,485.5C 317.664,480.086 321.33,474.753 325,469.5C 327.145,466.834 329.645,464.834 332.5,463.5C 332.351,462.448 332.517,461.448 333,460.5C 334.862,457.459 337.195,454.792 340,452.5C 340.904,449.602 342.238,446.936 344,444.5C 348.576,441.347 351.076,437.014 351.5,431.5C 352.5,431.5 353.5,431.5 354.5,431.5C 357.956,424.601 361.956,417.935 366.5,411.5C 379.437,388.113 379.77,364.447 367.5,340.5C 357.104,326.936 345.104,314.77 331.5,304C 326.009,301.851 320.509,299.684 315,297.5C 303.489,296.179 291.989,296.179 280.5,297.5C 284.244,295.638 288.244,294.138 292.5,293C 302.167,292.333 311.833,292.333 321.5,293C 327.536,295.87 333.703,298.37 340,300.5C 341.852,302.886 344.352,304.053 347.5,304C 350.622,306.909 353.955,309.409 357.5,311.5C 361.591,310.399 363.258,307.733 362.5,303.5C 362.334,297.491 362.501,291.491 363,285.5C 364.057,281.547 365.557,277.88 367.5,274.5C 367.5,273.5 367.5,272.5 367.5,271.5C 371.242,270.119 374.576,267.952 377.5,265C 385.656,262.552 393.99,261.886 402.5,263C 406.896,264.87 411.229,266.703 415.5,268.5C 415.5,269.5 415.5,270.5 415.5,271.5C 416.675,271.281 417.675,271.614 418.5,272.5C 429.913,288.887 429.08,304.553 416,319.5C 414.259,320.758 412.426,321.758 410.5,322.5 Z"/>
<path fill="#f1cb49" d="M 390.5,313.5 C 389.167,313.5 387.833,313.5 386.5,313.5C 386.5,314.833 386.5,316.167 386.5,317.5C 383.452,319.033 380.785,321.2 378.5,324C 377.365,324.749 376.365,324.583 375.5,323.5C 372.314,319.155 368.981,314.988 365.5,311C 366.78,308.64 367.447,306.14 367.5,303.5C 370.155,303.341 372.488,302.341 374.5,300.5C 373.873,299.583 373.539,298.583 373.5,297.5C 383.429,293.729 389.762,297.062 392.5,307.5C 392.637,309.841 391.97,311.841 390.5,313.5 Z"/>
<path fill="#fcf5e1" d="M 399.5,275.5 C 404.533,278.022 408.866,281.522 412.5,286C 413.412,290.446 413.745,294.946 413.5,299.5C 411.879,303.245 409.879,306.745 407.5,310C 404.048,310.892 401.048,312.558 398.5,315C 397.167,315.167 395.833,315.333 394.5,315.5C 392.667,315.415 391.334,314.748 390.5,313.5C 391.97,311.841 392.637,309.841 392.5,307.5C 389.762,297.062 383.429,293.729 373.5,297.5C 372.865,288.68 376.198,282.013 383.5,277.5C 388.676,275.816 394.009,275.15 399.5,275.5 Z"/>
<path fill="#efcd84" d="M 326.5,511.5 C 323.749,524.323 321.916,537.323 321,550.5C 320.722,551.416 320.222,552.082 319.5,552.5C 320.21,541.481 321.21,530.481 322.5,519.5C 323.875,516.75 325.208,514.084 326.5,511.5 Z"/>
<path fill="#f2cc4a" d="M 122.5,488.5 C 125.479,492.812 129.145,496.479 133.5,499.5C 134.768,501.304 135.435,503.304 135.5,505.5C 129.398,511.944 126.065,519.61 125.5,528.5C 125.904,545.476 133.904,557.31 149.5,564C 162.726,566.849 174.059,563.683 183.5,554.5C 184.117,554.389 184.617,554.056 185,553.5C 188.903,556.878 192.736,560.378 196.5,564C 197.448,564.483 198.448,564.649 199.5,564.5C 199.527,566.199 200.194,567.533 201.5,568.5C 198.711,571.624 195.378,573.957 191.5,575.5C 181.925,579.392 171.925,581.392 161.5,581.5C 154.211,581.745 147.544,579.912 141.5,576C 139.527,575.505 137.527,575.338 135.5,575.5C 135.719,574.325 135.386,573.325 134.5,572.5C 130.425,569.047 126.258,565.713 122,562.5C 119.162,556.816 115.828,551.483 112,546.5C 111.946,543.139 110.946,540.139 109,537.5C 107.122,524.839 108.956,512.839 114.5,501.5C 113.767,500.913 112.767,500.913 111.5,501.5C 112.047,497.737 114.047,495.07 117.5,493.5C 119.5,492.167 121.167,490.5 122.5,488.5 Z"/>
<path fill="#e7af42" d="M 191.5,575.5 C 189.13,577.669 186.463,579.669 183.5,581.5C 178.264,583.6 172.931,585.433 167.5,587C 143.269,588.805 124.602,579.638 111.5,559.5C 109.818,554.627 107.652,549.961 105,545.5C 102.911,534.028 103.077,522.694 105.5,511.5C 107.863,508.451 109.863,505.118 111.5,501.5C 112.767,500.913 113.767,500.913 114.5,501.5C 108.956,512.839 107.122,524.839 109,537.5C 110.946,540.139 111.946,543.139 112,546.5C 115.828,551.483 119.162,556.816 122,562.5C 126.258,565.713 130.425,569.047 134.5,572.5C 135.386,573.325 135.719,574.325 135.5,575.5C 137.527,575.338 139.527,575.505 141.5,576C 147.544,579.912 154.211,581.745 161.5,581.5C 171.925,581.392 181.925,579.392 191.5,575.5 Z"/>
<path fill="#f6dca2" d="M 319.5,559.5 C 318.383,571.016 315.049,581.682 309.5,591.5C 312.837,580.71 316.171,570.044 319.5,559.5 Z"/>
<path fill="#1c1a17" d="M 149.5,135.5 C 155.788,139.912 158.788,146.079 158.5,154C 157.404,168.44 149.737,177.44 135.5,181C 127.103,181.87 118.77,181.537 110.5,180C 107.761,178.974 105.428,177.474 103.5,175.5C 119,182.843 134,182.01 148.5,173C 155.878,165.668 158.378,156.834 156,146.5C 154.326,142.476 152.159,138.809 149.5,135.5 Z"/>
<path fill="#eae7db" d="M 148.5,96.5 C 147.577,95.6971 146.577,95.5304 145.5,96C 152.033,101.795 154.2,108.961 152,117.5C 149.366,123.464 144.866,127.297 138.5,129C 141.407,129.718 144.074,129.218 146.5,127.5C 148.59,129.692 149.59,132.359 149.5,135.5C 152.159,138.809 154.326,142.476 156,146.5C 158.378,156.834 155.878,165.668 148.5,173C 134,182.01 119,182.843 103.5,175.5C 99.9686,174.775 99.302,173.442 101.5,171.5C 115.85,178.294 130.183,178.127 144.5,171C 153.798,161.841 155.631,151.341 150,139.5C 148.954,137.91 147.787,136.41 146.5,135C 142.099,132.471 137.766,129.971 133.5,127.5C 147.827,122.524 151.994,113.19 146,99.5C 138.365,92.1265 129.198,89.1265 118.5,90.5C 123.363,90.0163 128.197,89.0163 133,87.5C 133.605,89.4812 134.605,89.8146 136,88.5C 139.155,91.6673 142.988,93.5006 147.5,94C 148.252,94.6708 148.586,95.5041 148.5,96.5 Z"/>
<path fill="#2f2b24" d="M 117.5,134.5 C 123.866,133.53 129.533,135.03 134.5,139C 128.778,137.107 122.778,136.107 116.5,136C 117.056,135.617 117.389,135.117 117.5,134.5 Z"/>
<path fill="#22201d" d="M 148.5,96.5 C 156.981,107.526 156.314,117.859 146.5,127.5C 144.074,129.218 141.407,129.718 138.5,129C 144.866,127.297 149.366,123.464 152,117.5C 154.2,108.961 152.033,101.795 145.5,96C 146.577,95.5304 147.577,95.6971 148.5,96.5 Z"/>
<path fill="#26231d" d="M 119.5,116.5 C 121.028,116.517 121.528,117.184 121,118.5C 116.611,124.288 111.111,125.788 104.5,123C 109.1,123.011 113.433,122.011 117.5,120C 118.823,119.184 119.489,118.017 119.5,116.5 Z"/>
<path fill="#090908" d="M 118.5,90.5 C 129.198,89.1265 138.365,92.1265 146,99.5C 151.994,113.19 147.827,122.524 133.5,127.5C 137.766,129.971 142.099,132.471 146.5,135C 147.787,136.41 148.954,137.91 150,139.5C 155.631,151.341 153.798,161.841 144.5,171C 130.183,178.127 115.85,178.294 101.5,171.5C 96.6808,166.865 93.6808,161.198 92.5,154.5C 97.1958,152.108 101.696,149.441 106,146.5C 105.003,151.874 105.336,157.208 107,162.5C 108.413,166.748 111.246,169.415 115.5,170.5C 116.209,171.404 117.209,171.737 118.5,171.5C 128.64,173.017 135.473,169.017 139,159.5C 141.974,146.726 137.808,137.226 126.5,131C 122.33,130.675 118.33,130.509 114.5,130.5C 115.167,128.833 115.833,127.167 116.5,125.5C 130.399,126.427 137.232,120.094 137,106.5C 131.584,95.2484 123.084,92.0818 111.5,97C 105.71,102.447 105.043,108.447 109.5,115C 111.898,115.374 114.231,115.374 116.5,115C 114.63,118.602 111.63,120.102 107.5,119.5C 96.6879,117.96 93.1879,111.96 97,101.5C 102.332,94.3285 109.499,90.6618 118.5,90.5 Z"/>
<path fill="#848278" d="M 114.5,166.5 C 117.618,167.232 118.951,168.899 118.5,171.5C 117.209,171.737 116.209,171.404 115.5,170.5C 116.239,170.631 116.906,170.464 117.5,170C 115.937,169.241 114.937,168.074 114.5,166.5 Z"/>
<path fill="#272421" d="M 114.5,166.5 C 109.235,161.33 108.235,155.33 111.5,148.5C 111.455,152.231 111.621,156.231 112,160.5C 113.122,162.407 113.955,164.407 114.5,166.5 Z"/>
<path fill="#1f1d18" d="M 116.5,99.5 C 124.931,97.5567 131.264,100.223 135.5,107.5C 135.333,107.833 135.167,108.167 135,108.5C 128.909,99.7424 121.576,98.409 113,104.5C 112.022,107.669 112.522,110.503 114.5,113C 113.004,113.507 111.837,113.007 111,111.5C 109.375,105.757 111.208,101.757 116.5,99.5 Z"/>
</svg>
