<?xml version="1.0" encoding="UTF-8"?>
<!-- Author: Jiachun Li -->
<!DOCTYPE svg PUBLIC "-//W3C//DTD SVG 1.1//EN" "http://www.w3.org/Graphics/SVG/1.1/DTD/svg11.dtd">
<svg xmlns="http://www.w3.org/2000/svg" version="1.1" viewBox="-107 0 733 733" style="shape-rendering:geometricPrecision; text-rendering:geometricPrecision; image-rendering:optimizeQuality; fill-rule:evenodd; clip-rule:evenodd" xmlns:xlink="http://www.w3.org/1999/xlink">
<g><path style="opacity:1" fill="#f1f0e1" d="M -0.5,-0.5 C 1.16667,-0.5 2.83333,-0.5 4.5,-0.5C 2.5,0.833333 0.833333,2.5 -0.5,4.5C -0.5,2.83333 -0.5,1.16667 -0.5,-0.5 Z"/></g>
<g><path style="opacity:1" fill="#dadad1" d="M 513.5,-0.5 C 515.167,-0.5 516.833,-0.5 518.5,-0.5C 518.5,0.833333 518.5,2.16667 518.5,3.5C 516.809,2.13632 515.142,0.802988 513.5,-0.5 Z"/></g>
<g><path style="opacity:1" fill="#050505" d="M 4.5,-0.5 C 174.167,-0.5 343.833,-0.5 513.5,-0.5C 515.142,0.802988 516.809,2.13632 518.5,3.5C 518.5,245.5 518.5,487.5 518.5,729.5C 517.599,730.29 516.932,731.29 516.5,732.5C 345.167,732.5 173.833,732.5 2.5,732.5C 1.48837,731.128 0.488369,729.795 -0.5,728.5C -0.5,487.167 -0.5,245.833 -0.5,4.5C 0.833333,2.5 2.5,0.833333 4.5,-0.5 Z"/></g>
<g><path style="opacity:1" fill="#fbf7e9" d="M 504.5,14.5 C 504.5,249.5 504.5,484.5 504.5,719.5C 502.5,719.5 500.5,719.5 498.5,719.5C 498.5,484.833 498.5,250.167 498.5,15.5C 496.143,15.3367 493.81,15.5034 491.5,16C 492.793,16.49 494.127,16.6567 495.5,16.5C 495.5,17.5 495.5,18.5 495.5,19.5C 490.167,19.5 484.833,19.5 479.5,19.5C 479.5,18.5 479.5,17.5 479.5,16.5C 329.793,16.1682 180.126,16.5016 30.5,17.5C 29.6919,17.1924 29.0253,16.6924 28.5,16C 24.1794,15.501 19.8461,15.3343 15.5,15.5C 15.3343,19.8461 15.501,24.1794 16,28.5C 16.6924,29.0253 17.1924,29.6919 17.5,30.5C 16.8333,255.167 16.1667,479.833 15.5,704.5C 17.7603,706.407 17.927,708.407 16,710.5C 15.502,713.482 15.3354,716.482 15.5,719.5C 15.1667,719.5 14.8333,719.5 14.5,719.5C 14.5,484.5 14.5,249.5 14.5,14.5C 177.833,14.5 341.167,14.5 504.5,14.5 Z"/></g>
<g><path style="opacity:1" fill="#99968d" d="M 504.5,14.5 C 341.167,14.5 177.833,14.5 14.5,14.5C 14.5,249.5 14.5,484.5 14.5,719.5C 13.5002,484.334 13.1669,249.001 13.5,13.5C 177.334,13.167 341.001,13.5003 504.5,14.5 Z"/></g>
<g><path style="opacity:1" fill="#fdf7e6" d="M 498.5,719.5 C 337.5,719.5 176.5,719.5 15.5,719.5C 15.3354,716.482 15.502,713.482 16,710.5C 17.927,708.407 17.7603,706.407 15.5,704.5C 16.1667,479.833 16.8333,255.167 17.5,30.5C 17.1924,29.6919 16.6924,29.0253 16,28.5C 15.501,24.1794 15.3343,19.8461 15.5,15.5C 19.8461,15.3343 24.1794,15.501 28.5,16C 29.0253,16.6924 29.6919,17.1924 30.5,17.5C 180.126,16.5016 329.793,16.1682 479.5,16.5C 479.5,17.5 479.5,18.5 479.5,19.5C 484.833,19.5 490.167,19.5 495.5,19.5C 495.5,18.5 495.5,17.5 495.5,16.5C 494.127,16.6567 492.793,16.49 491.5,16C 493.81,15.5034 496.143,15.3367 498.5,15.5C 498.5,250.167 498.5,484.833 498.5,719.5 Z"/></g>
<g><path style="opacity:1" fill="#f2eee2" d="M 495.5,25.5 C 494.711,25.2172 494.044,24.7172 493.5,24C 337.097,23.1683 180.764,23.335 24.5,24.5C 181.163,22.5014 338.163,21.8348 495.5,22.5C 495.5,23.5 495.5,24.5 495.5,25.5 Z"/></g>
<g><path style="opacity:1" fill="#010000" d="M 495.5,25.5 C 495.5,253.167 495.5,480.833 495.5,708.5C 494.711,708.783 494.044,709.283 493.5,710C 337.5,710.667 181.5,710.667 25.5,710C 25,709.5 24.5,709 24,708.5C 23.1678,480.431 23.3345,252.431 24.5,24.5C 180.764,23.335 337.097,23.1683 493.5,24C 494.044,24.7172 494.711,25.2172 495.5,25.5 Z"/></g>
<g><path style="opacity:1" fill="#e9e6dd" d="M 487.5,30.5 C 487.5,30.8333 487.5,31.1667 487.5,31.5C 335.5,31.5 183.5,31.5 31.5,31.5C 31.5,255.167 31.5,478.833 31.5,702.5C 31.5,702.833 31.5,703.167 31.5,703.5C 30.5002,479.334 30.1669,255.001 30.5,30.5C 182.833,30.5 335.167,30.5 487.5,30.5 Z"/></g>
<g><path style="opacity:1" fill="#fcf6e6" d="M 487.5,31.5 C 487.5,255.167 487.5,478.833 487.5,702.5C 335.5,702.5 183.5,702.5 31.5,702.5C 31.5,478.833 31.5,255.167 31.5,31.5C 183.5,31.5 335.5,31.5 487.5,31.5 Z"/></g>
<g><path style="opacity:1" fill="#11100e" d="M 124.5,49.5 C 125.873,49.3433 127.207,49.51 128.5,50C 155.68,77.0137 182.68,104.18 209.5,131.5C 182.443,159.558 154.776,186.891 126.5,213.5C 98.9043,187.406 71.7376,160.739 45,133.5C 44.3333,132.167 44.3333,130.833 45,129.5C 71.7016,102.965 98.2016,76.2987 124.5,49.5 Z"/></g>
<g><path style="opacity:1" fill="#f9f4e5" d="M 125.5,55.5 C 151.763,80.095 177.429,105.428 202.5,131.5C 188.514,145.986 174.347,160.319 160,174.5C 159.831,167.809 159.331,161.142 158.5,154.5C 157.504,160.798 157.17,167.132 157.5,173.5C 138.164,173.333 118.83,173.5 99.5,174C 119.017,175.321 138.684,175.988 158.5,176C 147.986,186.681 137.319,197.181 126.5,207.5C 100.833,182.5 75.5,157.167 50.5,131.5C 75.5211,106.146 100.521,80.8125 125.5,55.5 Z"/></g>
<g><path style="opacity:1" fill="#0e0d0c" d="M 109.5,159.5 C 110.167,159.5 110.833,159.5 111.5,159.5C 122.659,160.659 133.992,160.826 145.5,160C 149.283,158.718 151.95,156.218 153.5,152.5C 154.496,158.463 154.829,164.463 154.5,170.5C 134.5,170.5 114.5,170.5 94.5,170.5C 96.1997,161.767 100.033,154.101 106,147.5C 114.22,140.946 122.72,134.78 131.5,129C 141.079,119.406 142.912,108.573 137,96.5C 127.013,89.2273 117.679,89.8939 109,98.5C 105.022,109.745 108.856,115.578 120.5,116C 122.305,115.028 123.972,113.861 125.5,112.5C 126.583,113.365 126.749,114.365 126,115.5C 123.083,121.385 118.25,124.385 111.5,124.5C 98.2419,121.657 93.4086,113.657 97,100.5C 100.448,93.5219 105.948,89.0219 113.5,87C 127.36,84.0951 139.193,87.5951 149,97.5C 155.559,108.149 154.559,118.149 146,127.5C 142.833,130 139.667,132.5 136.5,135C 128.837,138.829 121.504,143.163 114.5,148C 110.897,151.38 107.897,155.213 105.5,159.5C 106.958,160.782 108.292,160.782 109.5,159.5 Z"/></g>
<g><path style="opacity:1" fill="#282520" d="M 120.5,94.5 C 127.633,93.7347 133.466,96.0681 138,101.5C 139.187,103.044 139.52,104.711 139,106.5C 133.882,96.6279 126.382,94.2946 116.5,99.5C 112.249,104.658 112.583,109.491 117.5,114C 114.883,113.74 113.05,112.24 112,109.5C 111.333,107.167 111.333,104.833 112,102.5C 114.074,98.9231 116.907,96.2565 120.5,94.5 Z"/></g>
<g><path style="opacity:1" fill="#302d26" d="M 128.5,115.5 C 129.376,115.369 130.043,115.702 130.5,116.5C 127.205,126.816 120.205,130.983 109.5,129C 106.308,127.906 103.642,126.073 101.5,123.5C 101.667,123.167 101.833,122.833 102,122.5C 107.192,127.332 113.358,128.832 120.5,127C 125.367,124.643 128.034,120.809 128.5,115.5 Z"/></g>
<g><path style="opacity:1" fill="#211e1a" d="M 111.5,159.5 C 110.833,159.5 110.167,159.5 109.5,159.5C 112.289,154.877 115.955,151.044 120.5,148C 128.329,143.92 135.996,139.587 143.5,135C 157.142,124.934 159.975,112.434 152,97.5C 150.167,95.6667 148.333,93.8333 146.5,92C 151.881,94.3939 155.715,98.5606 158,104.5C 160.458,117.076 156.625,127.243 146.5,135C 137.665,140.585 128.665,145.919 119.5,151C 116.601,153.729 113.934,156.562 111.5,159.5 Z"/></g>
<g><path style="opacity:1" fill="#fbecc6" d="M 422.5,276.5 C 410.025,262.95 395.025,259.617 377.5,266.5C 379.09,264.766 381.09,263.6 383.5,263C 392.774,262.642 401.94,262.475 411,262.5C 411.84,266.502 414.34,268.502 418.5,268.5C 419.914,271.213 421.247,273.88 422.5,276.5 Z"/></g>
<g><path style="opacity:1" fill="#d5953b" d="M 409.5,324.5 C 400.953,330.253 391.953,330.92 382.5,326.5C 382.528,323.658 383.862,322.491 386.5,323C 385.167,323.667 385.167,324.333 386.5,325C 394.185,325.597 401.852,325.43 409.5,324.5 Z"/></g>
<g><path style="opacity:1" fill="#f3cc4a" d="M 287.5,296.5 C 298.333,295.908 309,296.908 319.5,299.5C 326.086,302.461 332.419,305.961 338.5,310C 342.159,314.169 346.493,317.336 351.5,319.5C 353.107,323.313 355.441,326.813 358.5,330C 359.793,330.49 361.127,330.657 362.5,330.5C 362.12,333.792 363.453,336.125 366.5,337.5C 378.182,357.017 380.515,377.684 373.5,399.5C 370.682,405.806 367.848,412.14 365,418.5C 361.529,421.467 358.529,424.8 356,428.5C 355.798,430.256 355.298,431.922 354.5,433.5C 350.22,438.131 346.22,443.131 342.5,448.5C 341.291,452.375 338.958,455.375 335.5,457.5C 328.161,469.515 320.328,481.182 312,492.5C 308.751,507.981 306.751,523.647 306,539.5C 302.094,545.644 299.594,552.311 298.5,559.5C 297.325,559.281 296.325,559.614 295.5,560.5C 292.255,565.9 289.255,571.4 286.5,577C 282.239,578.363 277.905,578.696 273.5,578C 265.416,575.233 257.416,572.233 249.5,569C 242.843,564.179 235.843,560.012 228.5,556.5C 222.686,551.428 216.686,546.594 210.5,542C 209.552,541.517 208.552,541.351 207.5,541.5C 207.5,540.5 207.5,539.5 207.5,538.5C 206.448,538.649 205.448,538.483 204.5,538C 202.908,535.782 200.908,534.115 198.5,533C 191.303,525.469 183.803,518.302 176,511.5C 175.751,510.376 175.251,509.376 174.5,508.5C 171.763,506.726 169.096,505.059 166.5,503.5C 162.206,495.958 156.706,489.291 150,483.5C 149.667,482.5 149.333,481.5 149,480.5C 142.649,473.484 136.316,466.484 130,459.5C 121.256,445.084 112.922,430.417 105,415.5C 103.901,409.973 102.234,404.64 100,399.5C 98.9054,394.22 98.4054,388.887 98.5,383.5C 97.5,383.5 96.5,383.5 95.5,383.5C 99.7046,380.855 104.038,378.355 108.5,376C 115.18,375.372 121.514,373.872 127.5,371.5C 135.554,371.205 143.554,370.372 151.5,369C 152.416,368.722 153.082,368.222 153.5,367.5C 159.176,367.666 164.843,367.499 170.5,367C 174.805,366.128 178.472,364.128 181.5,361C 184.5,359.833 187.5,358.667 190.5,357.5C 197.94,349.613 206.607,343.446 216.5,339C 235.103,323.48 255.103,310.146 276.5,299C 279.876,297.101 283.543,296.268 287.5,296.5 Z"/></g>
<g><path style="opacity:1" fill="#f9e957" d="M 242.5,329.5 C 246.375,330.177 249.708,332.01 252.5,335C 253.448,335.483 254.448,335.649 255.5,335.5C 257.085,340.678 257.752,346.012 257.5,351.5C 256.5,351.5 255.5,351.5 254.5,351.5C 254.95,355.224 253.283,357.391 249.5,358C 248.183,360.961 245.849,362.128 242.5,361.5C 228.521,358.498 223.855,350.164 228.5,336.5C 231.4,335.557 233.733,333.89 235.5,331.5C 237.969,330.832 240.302,330.165 242.5,329.5 Z"/></g>
<g><path style="opacity:1" fill="#f9e957" d="M 285.5,309.5 C 300.855,308.378 315.855,310.044 330.5,314.5C 333.824,317.155 337.157,319.822 340.5,322.5C 341.659,326.122 341.825,329.789 341,333.5C 339.599,335.192 337.766,335.859 335.5,335.5C 335.5,336.5 335.5,337.5 335.5,338.5C 328.115,340.351 320.782,342.518 313.5,345C 299.441,345.754 285.441,345.254 271.5,343.5C 271.5,342.5 271.5,341.5 271.5,340.5C 270.127,340.657 268.793,340.49 267.5,340C 265.133,337.92 262.467,336.42 259.5,335.5C 259.089,332.447 258.423,329.447 257.5,326.5C 259.443,323.22 261.777,320.22 264.5,317.5C 267.696,316.476 270.529,314.809 273,312.5C 277.422,312.024 281.589,311.024 285.5,309.5 Z"/></g>
<g><path style="opacity:1" fill="#f7e392" d="M 153.5,367.5 C 153.082,368.222 152.416,368.722 151.5,369C 143.554,370.372 135.554,371.205 127.5,371.5C 135.939,369.531 144.606,368.198 153.5,367.5 Z"/></g>
<g><path style="opacity:1" fill="#f9ecc6" d="M 84.5,424.5 C 87.7163,432.104 91.0497,439.77 94.5,447.5C 92.9157,446.618 91.249,445.785 89.5,445C 90.885,443.035 90.7184,441.202 89,439.5C 88.7787,442.943 87.7787,443.276 86,440.5C 85.7408,438.009 85.9075,435.509 86.5,433C 85.5824,430.239 84.9157,427.406 84.5,424.5 Z"/></g>
<g><path style="opacity:1" fill="#e8ad3e" d="M 422.5,276.5 C 430.067,291.305 428.734,305.305 418.5,318.5C 417.675,319.386 416.675,319.719 415.5,319.5C 415.04,322.957 413.04,324.623 409.5,324.5C 401.852,325.43 394.185,325.597 386.5,325C 385.167,324.333 385.167,323.667 386.5,323C 383.862,322.491 382.528,323.658 382.5,326.5C 380.191,327.388 378.524,329.054 377.5,331.5C 381.073,336.962 384.906,342.296 389,347.5C 391.473,355.252 394.139,362.918 397,370.5C 398.095,380.994 397.429,391.328 395,401.5C 392.948,407.526 390.948,413.526 389,419.5C 384.632,424.902 381.298,430.902 379,437.5C 378,438.167 377,438.833 376,439.5C 370.865,450.047 364.365,459.714 356.5,468.5C 352.081,478.092 345.914,486.425 338,493.5C 333.99,500.023 330.157,506.69 326.5,513.5C 323.68,526.644 321.846,539.978 321,553.5C 319.832,559.503 318.666,565.503 317.5,571.5C 314.681,579.961 311.681,588.294 308.5,596.5C 307.206,597.29 306.039,598.29 305,599.5C 304.011,601.97 302.845,604.303 301.5,606.5C 301.5,607.167 301.167,607.5 300.5,607.5C 296.784,611.904 291.951,613.571 286,612.5C 281.113,612.024 276.28,611.357 271.5,610.5C 264.154,607.668 256.821,604.501 249.5,601C 233.452,591.28 217.952,580.78 203,569.5C 199.34,571.752 196.173,574.586 193.5,578C 188.515,580.158 183.515,582.325 178.5,584.5C 172.013,585.23 165.513,585.897 159,586.5C 152.402,586.058 145.902,585.058 139.5,583.5C 136.309,582.908 133.309,581.741 130.5,580C 128.909,577.244 126.576,575.411 123.5,574.5C 120.443,570.366 116.943,566.699 113,563.5C 112.295,559.683 110.795,556.35 108.5,553.5C 104.644,542.169 103.644,530.502 105.5,518.5C 106.806,513.844 108.306,509.177 110,504.5C 113.204,501.823 115.704,498.823 117.5,495.5C 118.908,499.259 118.742,502.925 117,506.5C 115.921,504.606 114.587,504.273 113,505.5C 108.885,520.523 109.052,535.523 113.5,550.5C 116.989,555.644 120.656,560.644 124.5,565.5C 131.379,571.03 138.712,575.864 146.5,580C 156.13,581.411 165.797,581.744 175.5,581C 180.811,579.926 185.811,578.092 190.5,575.5C 191.167,575.833 191.833,576.167 192.5,576.5C 194.65,573.516 196.984,570.683 199.5,568C 196.781,562.856 192.781,559.189 187.5,557C 184.958,556.993 182.624,557.826 180.5,559.5C 183.895,556.899 184.228,553.899 181.5,550.5C 174.484,543.65 167.317,536.983 160,530.5C 153.691,523.356 147.191,516.356 140.5,509.5C 139.614,508.675 139.281,507.675 139.5,506.5C 138.5,506.5 137.5,506.5 136.5,506.5C 132.542,500.863 128.542,495.197 124.5,489.5C 123.817,489.863 123.15,490.196 122.5,490.5C 117.527,479.987 111.027,470.32 103,461.5C 100.596,457.745 98.5955,453.745 97,449.5C 96.2917,448.619 95.4584,447.953 94.5,447.5C 91.0497,439.77 87.7163,432.104 84.5,424.5C 79.8669,415.113 78.3669,405.113 80,394.5C 84.0927,389.214 89.2594,385.547 95.5,383.5C 96.5,383.5 97.5,383.5 98.5,383.5C 98.4054,388.887 98.9054,394.22 100,399.5C 102.234,404.64 103.901,409.973 105,415.5C 112.922,430.417 121.256,445.084 130,459.5C 136.316,466.484 142.649,473.484 149,480.5C 149.333,481.5 149.667,482.5 150,483.5C 156.706,489.291 162.206,495.958 166.5,503.5C 169.096,505.059 171.763,506.726 174.5,508.5C 175.251,509.376 175.751,510.376 176,511.5C 183.803,518.302 191.303,525.469 198.5,533C 200.908,534.115 202.908,535.782 204.5,538C 205.448,538.483 206.448,538.649 207.5,538.5C 207.5,539.5 207.5,540.5 207.5,541.5C 208.552,541.351 209.552,541.517 210.5,542C 216.686,546.594 222.686,551.428 228.5,556.5C 235.843,560.012 242.843,564.179 249.5,569C 257.416,572.233 265.416,575.233 273.5,578C 277.905,578.696 282.239,578.363 286.5,577C 289.255,571.4 292.255,565.9 295.5,560.5C 296.325,559.614 297.325,559.281 298.5,559.5C 299.594,552.311 302.094,545.644 306,539.5C 306.751,523.647 308.751,507.981 312,492.5C 320.328,481.182 328.161,469.515 335.5,457.5C 338.958,455.375 341.291,452.375 342.5,448.5C 346.22,443.131 350.22,438.131 354.5,433.5C 355.298,431.922 355.798,430.256 356,428.5C 358.529,424.8 361.529,421.467 365,418.5C 367.848,412.14 370.682,405.806 373.5,399.5C 380.515,377.684 378.182,357.017 366.5,337.5C 363.453,336.125 362.12,333.792 362.5,330.5C 361.127,330.657 359.793,330.49 358.5,330C 355.441,326.813 353.107,323.313 351.5,319.5C 346.493,317.336 342.159,314.169 338.5,310C 332.419,305.961 326.086,302.461 319.5,299.5C 309,296.908 298.333,295.908 287.5,296.5C 289.148,295.073 291.148,294.24 293.5,294C 305.991,291.711 318.324,292.378 330.5,296C 340.564,300.572 350.064,306.072 359,312.5C 360.605,311.899 361.938,310.899 363,309.5C 362.673,304.876 362.173,300.21 361.5,295.5C 361.994,289.198 363.494,283.198 366,277.5C 369.812,273.702 373.645,270.035 377.5,266.5C 395.025,259.617 410.025,262.95 422.5,276.5 Z"/></g>
<g><path style="opacity:1" fill="#f2cb49" d="M 379.5,297.5 C 381.857,297.337 384.19,297.503 386.5,298C 388.416,300.09 390.416,301.923 392.5,303.5C 392.813,306.247 392.48,308.914 391.5,311.5C 388.465,314.037 385.965,317.037 384,320.5C 382.003,321.672 380.17,323.005 378.5,324.5C 377.446,324.32 376.446,323.987 375.5,323.5C 372.438,319.783 369.438,316.116 366.5,312.5C 367.526,308.975 369.526,306.141 372.5,304C 373.448,303.517 374.448,303.351 375.5,303.5C 375.5,302.5 375.5,301.5 375.5,300.5C 377.619,300.532 378.952,299.532 379.5,297.5 Z"/></g>
<g><path style="opacity:1" fill="#f5e197" d="M 392.5,303.5 C 390.416,301.923 388.416,300.09 386.5,298C 384.19,297.503 381.857,297.337 379.5,297.5C 379.167,297.5 378.833,297.5 378.5,297.5C 384.924,294.358 389.591,296.358 392.5,303.5 Z"/></g>
<g><path style="opacity:1" fill="#eec571" d="M 379.5,282.5 C 377.34,285.829 376.006,289.496 375.5,293.5C 375.585,295.333 376.252,296.666 377.5,297.5C 376.458,298.791 375.292,298.791 374,297.5C 372.347,291.053 374.181,286.053 379.5,282.5 Z"/></g>
<g><path style="opacity:1" fill="#fcf5e2" d="M 388.5,275.5 C 394.557,274.802 400.224,275.802 405.5,278.5C 407.5,281.167 409.833,283.5 412.5,285.5C 415.356,292.725 415.022,299.725 411.5,306.5C 408.729,308.767 406.062,311.267 403.5,314C 400.019,315.686 396.352,316.519 392.5,316.5C 393.662,312.02 393.662,307.687 392.5,303.5C 389.591,296.358 384.924,294.358 378.5,297.5C 378.167,297.5 377.833,297.5 377.5,297.5C 376.252,296.666 375.585,295.333 375.5,293.5C 376.006,289.496 377.34,285.829 379.5,282.5C 382.236,279.756 385.236,277.423 388.5,275.5 Z"/></g>
<g><path style="opacity:1" fill="#d49643" d="M 411.5,306.5 C 415.022,299.725 415.356,292.725 412.5,285.5C 409.833,283.5 407.5,281.167 405.5,278.5C 400.224,275.802 394.557,274.802 388.5,275.5C 389.707,274.761 391.707,274.428 394.5,274.5C 397.924,274.295 401.091,274.961 404,276.5C 404.95,275.978 405.784,275.311 406.5,274.5C 409.451,275.953 411.951,277.953 414,280.5C 415.017,284.703 416.184,288.87 417.5,293C 416.187,296.369 415.354,299.869 415,303.5C 414.578,305.426 413.411,306.426 411.5,306.5 Z"/></g>
<g><path style="opacity:1" fill="#fcf6e3" d="M 136.5,506.5 C 137.5,506.5 138.5,506.5 139.5,506.5C 139.281,507.675 139.614,508.675 140.5,509.5C 147.191,516.356 153.691,523.356 160,530.5C 167.317,536.983 174.484,543.65 181.5,550.5C 184.228,553.899 183.895,556.899 180.5,559.5C 172.058,565.128 162.724,566.962 152.5,565C 149.479,564.151 146.479,563.317 143.5,562.5C 143.5,561.5 143.5,560.5 143.5,559.5C 137.64,556.811 133.14,552.477 130,546.5C 125.831,533.672 126.831,521.338 133,509.5C 134.039,508.29 135.206,507.29 136.5,506.5 Z"/></g>
<g><path style="opacity:1" fill="#fef0c9" d="M 105.5,518.5 C 103.644,530.502 104.644,542.169 108.5,553.5C 106.905,551.889 105.739,549.889 105,547.5C 102.638,539.001 101.971,530.334 103,521.5C 103.852,520.429 104.685,519.429 105.5,518.5 Z"/></g>
<g><path style="opacity:1" fill="#f2cc4a" d="M 136.5,506.5 C 135.206,507.29 134.039,508.29 133,509.5C 126.831,521.338 125.831,533.672 130,546.5C 133.14,552.477 137.64,556.811 143.5,559.5C 143.5,560.5 143.5,561.5 143.5,562.5C 146.479,563.317 149.479,564.151 152.5,565C 162.724,566.962 172.058,565.128 180.5,559.5C 182.624,557.826 184.958,556.993 187.5,557C 192.781,559.189 196.781,562.856 199.5,568C 196.984,570.683 194.65,573.516 192.5,576.5C 191.833,576.167 191.167,575.833 190.5,575.5C 185.811,578.092 180.811,579.926 175.5,581C 165.797,581.744 156.13,581.411 146.5,580C 138.712,575.864 131.379,571.03 124.5,565.5C 120.656,560.644 116.989,555.644 113.5,550.5C 109.052,535.523 108.885,520.523 113,505.5C 114.587,504.273 115.921,504.606 117,506.5C 118.742,502.925 118.908,499.259 117.5,495.5C 118.189,492.811 119.856,491.144 122.5,490.5C 123.15,490.196 123.817,489.863 124.5,489.5C 128.542,495.197 132.542,500.863 136.5,506.5 Z"/></g>
<g><path style="opacity:1" fill="#e7be69" d="M 139.5,583.5 C 145.902,585.058 152.402,586.058 159,586.5C 165.513,585.897 172.013,585.23 178.5,584.5C 172.623,586.156 166.623,587.489 160.5,588.5C 154.815,587.829 149.148,586.996 143.5,586C 141.68,585.8 140.347,584.966 139.5,583.5 Z"/></g>
<g><path style="opacity:1" fill="#f2d593" d="M 308.5,596.5 C 307.609,600.833 305.276,604.166 301.5,606.5C 302.845,604.303 304.011,601.97 305,599.5C 306.039,598.29 307.206,597.29 308.5,596.5 Z"/></g>
<g><path style="opacity:1" fill="#f9e5b2" d="M 300.5,607.5 C 299.409,610.428 297.409,612.594 294.5,614C 286.32,615.291 278.653,614.124 271.5,610.5C 276.28,611.357 281.113,612.024 286,612.5C 291.951,613.571 296.784,611.904 300.5,607.5 Z"/></g>
<g><path style="opacity:1" fill="#e0dbce" d="M 487.5,30.5 C 488.5,254.666 488.833,478.999 488.5,703.5C 336.167,703.5 183.833,703.5 31.5,703.5C 31.5,703.167 31.5,702.833 31.5,702.5C 183.5,702.5 335.5,702.5 487.5,702.5C 487.5,478.833 487.5,255.167 487.5,31.5C 487.5,31.1667 487.5,30.8333 487.5,30.5 Z"/></g>
<g><path style="opacity:1" fill="#faf6ea" d="M 24.5,24.5 C 23.3345,252.431 23.1678,480.431 24,708.5C 24.5,709 25,709.5 25.5,710C 181.5,710.667 337.5,710.667 493.5,710C 494.044,709.283 494.711,708.783 495.5,708.5C 495.5,709.833 495.5,711.167 495.5,712.5C 338.846,713.657 182.179,713.823 25.5,713C 24.0692,712.535 22.9025,711.701 22,710.5C 21.8263,481.521 22.6596,252.855 24.5,24.5 Z"/></g>
<g><path style="opacity:1" fill="#dfddd4" d="M -0.5,728.5 C 0.488369,729.795 1.48837,731.128 2.5,732.5C 1.5,732.5 0.5,732.5 -0.5,732.5C -0.5,731.167 -0.5,729.833 -0.5,728.5 Z"/></g>
<g><path style="opacity:1" fill="#dbdad2" d="M 518.5,729.5 C 518.5,730.5 518.5,731.5 518.5,732.5C 517.833,732.5 517.167,732.5 516.5,732.5C 516.932,731.29 517.599,730.29 518.5,729.5 Z"/></g>
</svg>
