<?xml version="1.0" encoding="UTF-8"?>
<!-- Author: Jiachun Li -->
<!DOCTYPE svg PUBLIC "-//W3C//DTD SVG 1.1//EN" "http://www.w3.org/Graphics/SVG/1.1/DTD/svg11.dtd">
<svg xmlns="http://www.w3.org/2000/svg" version="1.1" width="518px" height="733px" style="shape-rendering:geometricPrecision; text-rendering:geometricPrecision; image-rendering:optimizeQuality; fill-rule:evenodd; clip-rule:evenodd" xmlns:xlink="http://www.w3.org/1999/xlink">
<g><path style="opacity:1" fill="#eeefe0" d="M -0.5,-0.5 C 0.833333,-0.5 2.16667,-0.5 3.5,-0.5C 2.20498,0.488369 0.871651,1.48837 -0.5,2.5C -0.5,1.5 -0.5,0.5 -0.5,-0.5 Z"/></g>
<g><path style="opacity:1" fill="#e1e0d5" d="M 512.5,-0.5 C 514.167,-0.5 515.833,-0.5 517.5,-0.5C 517.5,0.833333 517.5,2.16667 517.5,3.5C 515.809,2.13632 514.142,0.802988 512.5,-0.5 Z"/></g>
<g><path style="opacity:1" fill="#030303" d="M 3.5,-0.5 C 173.167,-0.5 342.833,-0.5 512.5,-0.5C 514.142,0.802988 515.809,2.13632 517.5,3.5C 517.5,245.5 517.5,487.5 517.5,729.5C 516.599,730.29 515.932,731.29 515.5,732.5C 344.167,732.5 172.833,732.5 1.5,732.5C 1.16667,731.5 0.5,730.833 -0.5,730.5C -0.5,487.833 -0.5,245.167 -0.5,2.5C 0.871651,1.48837 2.20498,0.488369 3.5,-0.5 Z"/></g>
<g><path style="opacity:1" fill="#99968d" d="M 503.5,14.5 C 340.167,14.5 176.833,14.5 13.5,14.5C 13.5,249.5 13.5,484.5 13.5,719.5C 12.5002,484.334 12.1669,249.001 12.5,13.5C 176.334,13.167 340.001,13.5003 503.5,14.5 Z"/></g>
<g><path style="opacity:1" fill="#fcf7e6" d="M 503.5,14.5 C 503.5,249.5 503.5,484.5 503.5,719.5C 340.167,719.5 176.833,719.5 13.5,719.5C 13.5,484.5 13.5,249.5 13.5,14.5C 176.833,14.5 340.167,14.5 503.5,14.5 Z"/></g>
<g><path style="opacity:1" fill="#010000" d="M 492.5,23.5 C 492.783,24.2891 493.283,24.9558 494,25.5C 494.667,253.167 494.667,480.833 494,708.5C 493.5,709 493,709.5 492.5,710C 336.5,710.667 180.5,710.667 24.5,710C 24,709.5 23.5,709 23,708.5C 22.5,481.834 22.3333,255.167 22.5,28.5C 22.2965,26.6096 22.9632,25.1096 24.5,24C 180.5,23.5 336.5,23.3333 492.5,23.5 Z"/></g>
<g><path style="opacity:1" fill="#faf6eb" d="M 492.5,23.5 C 493.5,23.5 494.5,23.5 495.5,23.5C 495.833,252.834 495.5,482.168 494.5,711.5C 492.705,712.265 490.872,712.932 489,713.5C 336.324,713.825 183.657,713.491 31,712.5C 26.5148,715.116 22.8481,714.116 20,709.5C 19.7489,707.567 19.2489,705.734 18.5,704C 19.448,703.517 20.448,703.351 21.5,703.5C 21.1669,478.333 21.5002,253.333 22.5,28.5C 22.3333,255.167 22.5,481.834 23,708.5C 23.5,709 24,709.5 24.5,710C 180.5,710.667 336.5,710.667 492.5,710C 493,709.5 493.5,709 494,708.5C 494.667,480.833 494.667,253.167 494,25.5C 493.283,24.9558 492.783,24.2891 492.5,23.5 Z"/></g>
<g><path style="opacity:1" fill="#e1dcce" d="M 486.5,30.5 C 487.5,254.666 487.833,478.999 487.5,703.5C 334.666,703.833 181.999,703.5 29.5,702.5C 29.8333,702.5 30.1667,702.5 30.5,702.5C 182.5,702.5 334.5,702.5 486.5,702.5C 486.5,478.833 486.5,255.167 486.5,31.5C 486.5,31.1667 486.5,30.8333 486.5,30.5 Z"/></g>
<g><path style="opacity:1" fill="#fcf6e6" d="M 486.5,31.5 C 486.5,255.167 486.5,478.833 486.5,702.5C 334.5,702.5 182.5,702.5 30.5,702.5C 30.5,478.833 30.5,255.167 30.5,31.5C 182.5,31.5 334.5,31.5 486.5,31.5 Z"/></g>
<g><path style="opacity:1" fill="#f8e4b1" d="M 189.5,580.5 C 185.951,584.779 181.285,587.279 175.5,588C 166.856,589.176 158.19,589.51 149.5,589C 148.944,588.617 148.611,588.117 148.5,587.5C 163.013,589.687 176.68,587.354 189.5,580.5 Z"/></g>
<g><path style="opacity:1" fill="#e8af42" d="M 116.5,495.5 C 116.007,497.806 115.674,500.139 115.5,502.5C 114.5,502.5 113.5,502.5 112.5,502.5C 105.951,522.123 107.451,541.123 117,559.5C 132.375,580.353 152.875,587.686 178.5,581.5C 182.127,580.458 185.627,579.125 189,577.5C 189.902,577.743 190.735,578.077 191.5,578.5C 190.833,579.167 190.167,579.833 189.5,580.5C 176.68,587.354 163.013,589.687 148.5,587.5C 137.798,586.314 128.465,582.147 120.5,575C 104.151,558.265 98.651,538.432 104,515.5C 107.249,510.078 109.915,504.411 112,498.5C 113.129,496.859 114.629,495.859 116.5,495.5 Z"/></g>
<g><path style="opacity:1" fill="#f2cc4b" d="M 120.5,487.5 C 124.339,495.341 129.672,502.008 136.5,507.5C 135.078,507.709 133.745,508.209 132.5,509C 126.747,515.305 124.08,522.805 124.5,531.5C 125.359,537.554 126.526,543.554 128,549.5C 131.113,552.613 134.279,555.779 137.5,559C 141.634,561.641 145.967,563.975 150.5,566C 160.291,568.127 168.958,566.127 176.5,560C 181.669,560.344 183.669,558.177 182.5,553.5C 188.302,560.634 195.302,566.301 203.5,570.5C 202.448,570.351 201.448,570.517 200.5,571C 197.602,573.741 194.602,576.241 191.5,578.5C 190.735,578.077 189.902,577.743 189,577.5C 185.627,579.125 182.127,580.458 178.5,581.5C 152.875,587.686 132.375,580.353 117,559.5C 107.451,541.123 105.951,522.123 112.5,502.5C 113.5,502.5 114.5,502.5 115.5,502.5C 115.674,500.139 116.007,497.806 116.5,495.5C 119.389,493.723 120.722,491.056 120.5,487.5 Z"/></g>
<g><path style="opacity:1" fill="#faeac2" d="M 325.5,519.5 C 323.139,534.68 321.972,550.013 322,565.5C 320.02,567.795 318.853,570.461 318.5,573.5C 319.396,575.801 319.562,578.134 319,580.5C 318.751,579.376 318.251,578.376 317.5,577.5C 316.24,579.353 316.24,581.186 317.5,583C 316.552,583.483 315.552,583.649 314.5,583.5C 313.912,586.063 312.912,588.396 311.5,590.5C 314.191,584.133 316.357,577.467 318,570.5C 320.327,554.62 322.327,538.62 324,522.5C 324.232,521.263 324.732,520.263 325.5,519.5 Z"/></g>
<g><path style="opacity:1" fill="#fcf6e2" d="M 136.5,507.5 C 142.238,514.078 148.238,520.578 154.5,527C 155.448,527.483 156.448,527.649 157.5,527.5C 157.351,528.552 157.517,529.552 158,530.5C 165.746,538.708 173.913,546.375 182.5,553.5C 183.669,558.177 181.669,560.344 176.5,560C 168.958,566.127 160.291,568.127 150.5,566C 145.967,563.975 141.634,561.641 137.5,559C 134.279,555.779 131.113,552.613 128,549.5C 126.526,543.554 125.359,537.554 124.5,531.5C 124.08,522.805 126.747,515.305 132.5,509C 133.745,508.209 135.078,507.709 136.5,507.5 Z"/></g>
<g><path style="opacity:1" fill="#f1d491" d="M 379.5,436.5 C 378.563,439.269 377.396,441.936 376,444.5C 375.292,445.381 374.458,446.047 373.5,446.5C 374.283,442.395 376.283,439.061 379.5,436.5 Z"/></g>
<g><path style="opacity:1" fill="#e8ad3e" d="M 297.5,296.5 C 306.038,295.212 314.705,295.212 323.5,296.5C 336.787,298.64 348.121,304.473 357.5,314C 360.294,314.972 362.294,314.139 363.5,311.5C 364.467,310.194 365.801,309.527 367.5,309.5C 367.52,311.143 366.853,312.476 365.5,313.5C 366.727,316.895 369.06,319.061 372.5,320C 374.601,323.627 377.601,325.794 381.5,326.5C 379.856,328.481 378.19,330.481 376.5,332.5C 397.202,353.822 403.035,378.822 394,407.5C 391.811,412.443 389.811,417.443 388,422.5C 385.409,427.356 382.575,432.023 379.5,436.5C 376.283,439.061 374.283,442.395 373.5,446.5C 370.724,449.783 368.557,453.45 367,457.5C 362.858,462.047 358.858,466.714 355,471.5C 353.007,473.818 351.841,476.484 351.5,479.5C 350.325,479.281 349.325,479.614 348.5,480.5C 342.941,490.547 336.441,499.88 329,508.5C 327.326,512.021 326.16,515.687 325.5,519.5C 324.732,520.263 324.232,521.263 324,522.5C 322.327,538.62 320.327,554.62 318,570.5C 316.357,577.467 314.191,584.133 311.5,590.5C 309.887,593.286 308.054,595.953 306,598.5C 304.869,601.445 304.036,604.445 303.5,607.5C 302.448,607.351 301.448,607.517 300.5,608C 298.461,610.374 296.128,612.374 293.5,614C 288.172,614.068 282.838,613.735 277.5,613C 264.483,608.716 251.817,603.549 239.5,597.5C 239.5,596.5 239.5,595.5 239.5,594.5C 237.146,594.162 234.813,593.662 232.5,593C 226.112,587.817 219.445,583.15 212.5,579C 209.071,576.589 206.071,573.756 203.5,570.5C 195.302,566.301 188.302,560.634 182.5,553.5C 173.913,546.375 165.746,538.708 158,530.5C 157.517,529.552 157.351,528.552 157.5,527.5C 156.448,527.649 155.448,527.483 154.5,527C 148.238,520.578 142.238,514.078 136.5,507.5C 129.672,502.008 124.339,495.341 120.5,487.5C 117.84,484.867 115.173,482.2 112.5,479.5C 105.937,470.456 99.7702,461.122 94,451.5C 86.5484,438.935 81.0484,425.602 77.5,411.5C 76.3425,406.133 76.3425,400.8 77.5,395.5C 82.2421,389.472 88.2421,385.472 95.5,383.5C 95.1718,388.875 95.5052,394.208 96.5,399.5C 102.92,417.003 110.92,433.67 120.5,449.5C 122.822,451.657 124.989,453.99 127,456.5C 127.497,458.81 127.663,461.143 127.5,463.5C 129.167,463.5 130.833,463.5 132.5,463.5C 132.351,464.552 132.517,465.552 133,466.5C 141.362,475.202 149.029,484.535 156,494.5C 157.205,495.071 158.372,495.738 159.5,496.5C 161.475,499.609 163.808,502.443 166.5,505C 167.448,505.483 168.448,505.649 169.5,505.5C 169.729,507.433 170.562,509.1 172,510.5C 173.011,511.337 174.178,511.67 175.5,511.5C 175.215,515.038 176.882,516.871 180.5,517C 182,519.833 184.167,522 187,523.5C 187.309,524.766 187.809,525.933 188.5,527C 196.495,532.342 203.828,538.342 210.5,545C 215.535,547.2 219.868,550.367 223.5,554.5C 228.654,555.991 232.654,558.991 235.5,563.5C 245.273,567.445 254.94,571.612 264.5,576C 271.947,578.085 279.28,577.919 286.5,575.5C 297.565,560.32 304.565,543.32 307.5,524.5C 308.889,513.828 310.389,503.161 312,492.5C 317.967,482.799 324.467,473.466 331.5,464.5C 332.689,463.571 334.022,463.238 335.5,463.5C 336.509,460.951 337.342,458.285 338,455.5C 340,453.5 342,451.5 344,449.5C 349.819,440.03 355.986,430.863 362.5,422C 364.277,417.695 366.777,413.862 370,410.5C 370.863,406.442 372.53,402.775 375,399.5C 378.304,389.027 379.137,378.361 377.5,367.5C 375.896,361.522 374.396,355.522 373,349.5C 367.305,342.368 361.972,335.035 357,327.5C 353.93,325.553 351.43,323.053 349.5,320C 348.1,318.562 346.433,317.729 344.5,317.5C 344.201,314.358 342.534,312.191 339.5,311C 331.598,305.882 323.265,301.549 314.5,298C 308.829,297.469 303.162,296.969 297.5,296.5 Z"/></g>
<g><path style="opacity:1" fill="#f2d364" d="M 164.5,367.5 C 150.45,370.609 136.116,373.109 121.5,375C 123.5,375.833 125.5,376.667 127.5,377.5C 125.051,378.91 122.884,378.576 121,376.5C 119.704,377.068 118.204,377.068 116.5,376.5C 115.5,376.833 114.5,377.167 113.5,377.5C 115.078,378.298 116.744,378.798 118.5,379C 118.167,379.333 117.833,379.667 117.5,380C 112.158,379.302 106.824,379.469 101.5,380.5C 101.5,381.5 101.5,382.5 101.5,383.5C 99.5,383.5 97.5,383.5 95.5,383.5C 95.9371,381.926 96.9371,380.759 98.5,380C 119.94,373.107 141.94,368.941 164.5,367.5 Z"/></g>
<g><path style="opacity:1" fill="#fbedbf" d="M 205.5,345.5 C 200.119,351.034 194.119,355.867 187.5,360C 184.936,361.396 182.269,362.563 179.5,363.5C 182.133,360.889 185.133,358.722 188.5,357C 186.519,356.395 186.185,355.395 187.5,354C 188.672,353.647 189.838,353.813 191,354.5C 192.098,353.616 192.598,352.616 192.5,351.5C 195.85,353.274 197.516,352.274 197.5,348.5C 200.553,348.428 203.219,347.428 205.5,345.5 Z"/></g>
<g><path style="opacity:1" fill="#f3cc4a" d="M 297.5,296.5 C 303.162,296.969 308.829,297.469 314.5,298C 323.265,301.549 331.598,305.882 339.5,311C 342.534,312.191 344.201,314.358 344.5,317.5C 346.433,317.729 348.1,318.562 349.5,320C 351.43,323.053 353.93,325.553 357,327.5C 361.972,335.035 367.305,342.368 373,349.5C 374.396,355.522 375.896,361.522 377.5,367.5C 379.137,378.361 378.304,389.027 375,399.5C 372.53,402.775 370.863,406.442 370,410.5C 366.777,413.862 364.277,417.695 362.5,422C 355.986,430.863 349.819,440.03 344,449.5C 342,451.5 340,453.5 338,455.5C 337.342,458.285 336.509,460.951 335.5,463.5C 334.022,463.238 332.689,463.571 331.5,464.5C 324.467,473.466 317.967,482.799 312,492.5C 310.389,503.161 308.889,513.828 307.5,524.5C 304.565,543.32 297.565,560.32 286.5,575.5C 279.28,577.919 271.947,578.085 264.5,576C 254.94,571.612 245.273,567.445 235.5,563.5C 232.654,558.991 228.654,555.991 223.5,554.5C 219.868,550.367 215.535,547.2 210.5,545C 203.828,538.342 196.495,532.342 188.5,527C 187.809,525.933 187.309,524.766 187,523.5C 184.167,522 182,519.833 180.5,517C 176.882,516.871 175.215,515.038 175.5,511.5C 174.178,511.67 173.011,511.337 172,510.5C 170.562,509.1 169.729,507.433 169.5,505.5C 168.448,505.649 167.448,505.483 166.5,505C 163.808,502.443 161.475,499.609 159.5,496.5C 158.372,495.738 157.205,495.071 156,494.5C 149.029,484.535 141.362,475.202 133,466.5C 132.517,465.552 132.351,464.552 132.5,463.5C 130.833,463.5 129.167,463.5 127.5,463.5C 127.663,461.143 127.497,458.81 127,456.5C 124.989,453.99 122.822,451.657 120.5,449.5C 110.92,433.67 102.92,417.003 96.5,399.5C 95.5052,394.208 95.1718,388.875 95.5,383.5C 97.5,383.5 99.5,383.5 101.5,383.5C 101.5,382.5 101.5,381.5 101.5,380.5C 106.824,379.469 112.158,379.302 117.5,380C 117.833,379.667 118.167,379.333 118.5,379C 116.744,378.798 115.078,378.298 113.5,377.5C 114.5,377.167 115.5,376.833 116.5,376.5C 118.204,377.068 119.704,377.068 121,376.5C 122.884,378.576 125.051,378.91 127.5,377.5C 125.5,376.667 123.5,375.833 121.5,375C 136.116,373.109 150.45,370.609 164.5,367.5C 169.786,367.209 174.786,365.876 179.5,363.5C 182.269,362.563 184.936,361.396 187.5,360C 194.119,355.867 200.119,351.034 205.5,345.5C 211.236,342.269 216.236,338.102 220.5,333C 222.952,332.71 225.285,332.044 227.5,331C 230.21,327.128 233.876,324.628 238.5,323.5C 250.084,313.98 262.751,306.313 276.5,300.5C 283.437,298.681 290.437,297.347 297.5,296.5 Z"/></g>
<g><path style="opacity:1" fill="#f9e956" d="M 234.5,331.5 C 251.324,330.32 258.324,337.987 255.5,354.5C 252.768,356.035 250.102,357.869 247.5,360C 244.544,360.989 241.544,361.822 238.5,362.5C 235.575,360.331 232.241,358.998 228.5,358.5C 226.311,355.711 224.977,352.544 224.5,349C 225.193,344.423 226.193,339.923 227.5,335.5C 230.578,335.413 232.911,334.08 234.5,331.5 Z"/></g>
<g><path style="opacity:1" fill="#d39847" d="M 407.5,327.5 C 407.209,328.649 406.376,329.316 405,329.5C 399.497,330.715 393.997,330.715 388.5,329.5C 386.345,328.999 384.678,327.999 383.5,326.5C 384.622,325.844 385.955,325.511 387.5,325.5C 394.066,327.154 400.733,327.821 407.5,327.5 Z"/></g>
<g><path style="opacity:1" fill="#f9e957" d="M 284.5,310.5 C 296.171,310.333 307.838,310.5 319.5,311C 327.859,312.991 334.859,317.158 340.5,323.5C 341.886,328.745 341.219,333.745 338.5,338.5C 333.242,342.072 327.575,344.906 321.5,347C 303.509,348.787 285.843,347.287 268.5,342.5C 265.067,340.695 262.067,338.362 259.5,335.5C 258.341,331.878 258.175,328.211 259,324.5C 262.042,321.067 265.542,318.234 269.5,316C 274.772,314.61 279.772,312.777 284.5,310.5 Z"/></g>
<g><path style="opacity:1" fill="#e8ac3f" d="M 410.5,267.5 C 417.122,270.789 422.122,275.789 425.5,282.5C 427.731,291.076 428.064,299.743 426.5,308.5C 422.817,317.517 416.483,323.85 407.5,327.5C 400.733,327.821 394.066,327.154 387.5,325.5C 385.955,325.511 384.622,325.844 383.5,326.5C 382.833,326.5 382.167,326.5 381.5,326.5C 383.074,322.307 385.407,318.641 388.5,315.5C 389.736,314.754 391.07,314.421 392.5,314.5C 392.5,315.5 392.5,316.5 392.5,317.5C 397.046,317.732 401.379,316.899 405.5,315C 409.465,311.216 412.799,307.05 415.5,302.5C 416.75,302.423 417.583,301.756 418,300.5C 419.405,288.82 415.238,279.987 405.5,274C 397.066,272.397 389.733,274.23 383.5,279.5C 381.117,280.885 379.45,282.885 378.5,285.5C 376.39,286.453 375.223,288.119 375,290.5C 374.502,293.482 374.335,296.482 374.5,299.5C 375.141,300.482 375.807,301.482 376.5,302.5C 374.388,305.941 371.388,308.275 367.5,309.5C 366.589,301.171 365.255,293.171 363.5,285.5C 364.904,279.433 368.237,274.767 373.5,271.5C 381.344,265.826 389.844,264.493 399,267.5C 402.858,266.207 406.692,266.207 410.5,267.5 Z"/></g>
<g><path style="opacity:1" fill="#f2cb4a" d="M 378.5,297.5 C 381.247,297.187 383.914,297.52 386.5,298.5C 388.234,300.234 390.234,301.568 392.5,302.5C 395.001,306.769 395.001,310.769 392.5,314.5C 391.07,314.421 389.736,314.754 388.5,315.5C 385.407,318.641 383.074,322.307 381.5,326.5C 377.601,325.794 374.601,323.627 372.5,320C 369.06,319.061 366.727,316.895 365.5,313.5C 366.853,312.476 367.52,311.143 367.5,309.5C 371.388,308.275 374.388,305.941 376.5,302.5C 375.807,301.482 375.141,300.482 374.5,299.5C 376.483,299.843 377.817,299.176 378.5,297.5 Z"/></g>
<g><path style="opacity:1" fill="#d3943d" d="M 363.5,285.5 C 365.255,293.171 366.589,301.171 367.5,309.5C 365.801,309.527 364.467,310.194 363.5,311.5C 362.359,302.803 362.359,294.136 363.5,285.5 Z"/></g>
<g><path style="opacity:1" fill="#d5943a" d="M 415.5,302.5 C 416.74,292.718 413.406,284.885 405.5,279C 398.119,276.991 390.785,277.157 383.5,279.5C 389.733,274.23 397.066,272.397 405.5,274C 415.238,279.987 419.405,288.82 418,300.5C 417.583,301.756 416.75,302.423 415.5,302.5 Z"/></g>
<g><path style="opacity:1" fill="#fdeab3" d="M 321.5,294.5 C 310.04,294.042 298.706,294.709 287.5,296.5C 289.019,295.59 290.685,294.757 292.5,294C 302.342,293.175 312.009,293.342 321.5,294.5 Z"/></g>
<g><path style="opacity:1" fill="#ecc980" d="M 425.5,282.5 C 427.067,283.681 427.901,285.347 428,287.5C 428.167,290.5 428.333,293.5 428.5,296.5C 428.722,300.797 428.055,304.797 426.5,308.5C 428.064,299.743 427.731,291.076 425.5,282.5 Z"/></g>
<g><path style="opacity:1" fill="#e9c36c" d="M 321.5,294.5 C 322.5,294.833 323.167,295.5 323.5,296.5C 314.705,295.212 306.038,295.212 297.5,296.5C 290.437,297.347 283.437,298.681 276.5,300.5C 279.8,298.358 283.467,297.025 287.5,296.5C 298.706,294.709 310.04,294.042 321.5,294.5 Z"/></g>
<g><path style="opacity:1" fill="#f8e2ab" d="M 378.5,285.5 C 377.531,288.246 376.864,291.079 376.5,294C 376.608,295.681 377.275,296.848 378.5,297.5C 377.817,299.176 376.483,299.843 374.5,299.5C 374.335,296.482 374.502,293.482 375,290.5C 375.223,288.119 376.39,286.453 378.5,285.5 Z"/></g>
<g><path style="opacity:1" fill="#fcf5e2" d="M 415.5,302.5 C 412.799,307.05 409.465,311.216 405.5,315C 401.379,316.899 397.046,317.732 392.5,317.5C 392.5,316.5 392.5,315.5 392.5,314.5C 395.001,310.769 395.001,306.769 392.5,302.5C 390.234,301.568 388.234,300.234 386.5,298.5C 383.914,297.52 381.247,297.187 378.5,297.5C 377.275,296.848 376.608,295.681 376.5,294C 376.864,291.079 377.531,288.246 378.5,285.5C 379.45,282.885 381.117,280.885 383.5,279.5C 390.785,277.157 398.119,276.991 405.5,279C 413.406,284.885 416.74,292.718 415.5,302.5 Z"/></g>
<g><path style="opacity:1" fill="#ecc16b" d="M 410.5,267.5 C 406.692,266.207 402.858,266.207 399,267.5C 389.844,264.493 381.344,265.826 373.5,271.5C 375.331,269.224 377.664,267.391 380.5,266C 388.013,263.721 395.679,263.054 403.5,264C 406.281,264.522 408.615,265.689 410.5,267.5 Z"/></g>
<g><path style="opacity:1" fill="#0f0e0c" d="M 123.5,49.5 C 124.873,49.3433 126.207,49.51 127.5,50C 154.68,77.0137 181.68,104.18 208.5,131.5C 181.443,159.558 153.776,186.891 125.5,213.5C 97.9043,187.406 70.7376,160.739 44,133.5C 43.3333,132.167 43.3333,130.833 44,129.5C 70.7016,102.965 97.2016,76.2987 123.5,49.5 Z"/></g>
<g><path style="opacity:1" fill="#36322e" d="M 151.5,176.5 C 142.043,178.157 132.376,179.157 122.5,179.5C 121.957,179.44 121.624,179.107 121.5,178.5C 131.149,177.668 140.816,177.168 150.5,177C 148.372,173.87 145.872,171.037 143,168.5C 142.173,164.459 142.34,160.459 143.5,156.5C 144.325,160.122 144.825,163.789 145,167.5C 147.41,170.397 149.577,173.397 151.5,176.5 Z"/></g>
<g><path style="opacity:1" fill="#faf5e5" d="M 151.5,176.5 C 149.577,173.397 147.41,170.397 145,167.5C 144.825,163.789 144.325,160.122 143.5,156.5C 142.34,160.459 142.173,164.459 143,168.5C 145.872,171.037 148.372,173.87 150.5,177C 140.816,177.168 131.149,177.668 121.5,178.5C 121.624,179.107 121.957,179.44 122.5,179.5C 132.839,179.334 143.172,179.5 153.5,180C 144.5,189 135.5,198 126.5,207C 125.833,207.667 125.167,207.667 124.5,207C 99.3195,181.986 74.3195,156.82 49.5,131.5C 74.5,105.833 99.8333,80.5 125.5,55.5C 151.167,80.5 176.5,105.833 201.5,131.5C 186.347,147.153 171.014,162.653 155.5,178C 153.934,178.3 152.601,177.8 151.5,176.5 Z"/></g>
<g><path style="opacity:1" fill="#55544c" d="M 121.5,172.5 C 129.316,173.492 137.316,173.826 145.5,173.5C 137.581,174.653 128.914,174.819 119.5,174C 120.044,173.283 120.711,172.783 121.5,172.5 Z"/></g>
<g><path style="opacity:1" fill="#4e4a3f" d="M 159.5,153.5 C 161.2,157.073 160.533,160.239 157.5,163C 155.029,163.706 152.695,163.373 150.5,162C 157.304,163.028 160.304,160.194 159.5,153.5 Z"/></g>
<g><path style="opacity:1" fill="#5d5a55" d="M 127.5,155.5 C 115.5,156.167 103.5,156.833 91.5,157.5C 90.9569,157.44 90.6236,157.107 90.5,156.5C 102.815,155.501 115.149,155.168 127.5,155.5 Z"/></g>
<g><path style="opacity:1" fill="#504c40" d="M 159.5,153.5 C 158.373,152.878 157.373,152.045 156.5,151C 158.489,150.481 159.489,151.314 159.5,153.5 Z"/></g>
<g><path style="opacity:1" fill="#4d4841" d="M 144.5,112.5 C 143.833,124.167 143.167,135.833 142.5,147.5C 142.168,135.482 142.501,123.482 143.5,111.5C 144.107,111.624 144.44,111.957 144.5,112.5 Z"/></g>
<g><path style="opacity:1" fill="#24211c" d="M 105.5,146.5 C 105.167,146.5 104.833,146.5 104.5,146.5C 104.167,146.5 103.833,146.5 103.5,146.5C 117.187,131.471 127.02,114.137 133,94.5C 128.298,114.239 119.132,131.572 105.5,146.5 Z"/></g>
<g><path style="opacity:1" fill="#080706" d="M 103.5,146.5 C 103.833,146.5 104.167,146.5 104.5,146.5C 107.938,147.823 111.771,148.49 116,148.5C 120.015,148.499 123.849,148.165 127.5,147.5C 127.334,138.161 127.5,128.827 128,119.5C 131.981,116.687 135.481,113.353 138.5,109.5C 139.499,122.149 139.832,134.816 139.5,147.5C 140.5,147.5 141.5,147.5 142.5,147.5C 143.167,135.833 143.833,124.167 144.5,112.5C 144.5,124.5 144.5,136.5 144.5,148.5C 153.382,147.207 156.715,150.707 154.5,159C 148.109,160.777 146.109,158.611 148.5,152.5C 145.5,152.5 142.5,152.5 139.5,152.5C 139.334,157.511 139.501,162.511 140,167.5C 142.04,169.37 143.873,171.37 145.5,173.5C 137.316,173.826 129.316,173.492 121.5,172.5C 126.772,169.039 128.772,164.039 127.5,157.5C 115.5,157.5 103.5,157.5 91.5,157.5C 103.5,156.833 115.5,156.167 127.5,155.5C 127.5,154.5 127.5,153.5 127.5,152.5C 114.833,152.5 102.167,152.5 89.5,152.5C 89.3433,151.127 89.51,149.793 90,148.5C 103.288,131.806 110.788,112.806 112.5,91.5C 117.833,91.5 123.167,91.5 128.5,91.5C 123.193,111.449 113.693,129.116 100,144.5C 99.5172,145.448 99.3505,146.448 99.5,147.5C 101.099,147.768 102.432,147.434 103.5,146.5 Z"/></g>
<g><path style="opacity:1" fill="#6a675f" d="M 104.5,146.5 C 104.833,146.5 105.167,146.5 105.5,146.5C 112.648,147.492 119.981,147.825 127.5,147.5C 123.849,148.165 120.015,148.499 116,148.5C 111.771,148.49 107.938,147.823 104.5,146.5 Z"/></g>
<g><path style="opacity:1" fill="#eae6dc" d="M 486.5,30.5 C 486.5,30.8333 486.5,31.1667 486.5,31.5C 334.5,31.5 182.5,31.5 30.5,31.5C 30.5,255.167 30.5,478.833 30.5,702.5C 30.1667,702.5 29.8333,702.5 29.5,702.5C 29.5,478.5 29.5,254.5 29.5,30.5C 181.833,30.5 334.167,30.5 486.5,30.5 Z"/></g>
<g><path style="opacity:1" fill="#c3c2bd" d="M -0.5,730.5 C 0.5,730.833 1.16667,731.5 1.5,732.5C 0.833333,732.5 0.166667,732.5 -0.5,732.5C -0.5,731.833 -0.5,731.167 -0.5,730.5 Z"/></g>
<g><path style="opacity:1" fill="#dadad2" d="M 517.5,729.5 C 517.5,730.5 517.5,731.5 517.5,732.5C 516.833,732.5 516.167,732.5 515.5,732.5C 515.932,731.29 516.599,730.29 517.5,729.5 Z"/></g>
</svg>
