<?xml version="1.0" encoding="UTF-8"?>
<!-- Author: Jiachun Li -->
<svg version="1.1" id="EntitySVG" xmlns="http://www.w3.org/2000/svg" viewBox="-107 0 733 733">
<path fill="#010101" d="M 2.5,-0.5 C 173.5,-0.5 344.5,-0.5 515.5,-0.5C 516.167,0.833333 517.167,1.83333 518.5,2.5C 518.5,244.5 518.5,486.5 518.5,728.5C 517.5,730.167 516.167,731.5 514.5,732.5C 344.167,732.5 173.833,732.5 3.5,732.5C 2.13632,730.809 0.802988,729.142 -0.5,727.5C -0.5,486.167 -0.5,244.833 -0.5,3.5C 0.488369,2.20498 1.48837,0.871651 2.5,-0.5 Z"/>
<path fill="#f6f1e4" d="M 504.5,13.5 C 504.5,248.5 504.5,483.5 504.5,718.5C 341.167,718.5 177.833,718.5 14.5,718.5C 14.5,483.5 14.5,248.5 14.5,13.5C 177.833,13.5 341.167,13.5 504.5,13.5 Z"/>
<path fill="#0b0a09" d="M 495.5,703.5 C 495.5,704.5 495.5,705.5 495.5,706.5C 495.047,707.458 494.381,708.292 493.5,709C 337.5,709.667 181.5,709.667 25.5,709C 25,708.5 24.5,708 24,707.5C 23.8333,593.5 23.6667,479.5 23.5,365.5C 23.5005,251.264 23.8338,137.097 24.5,23C 180.833,22.3333 337.167,22.3333 493.5,23C 494,23.5 494.5,24 495,24.5C 495.5,250.833 495.667,477.166 495.5,703.5 Z"/>
<path fill="#fbf7ea" d="M 487.5,29.5 C 487.5,253.5 487.5,477.5 487.5,701.5C 335.167,701.5 182.833,701.5 30.5,701.5C 30.5,477.5 30.5,253.5 30.5,29.5C 182.833,29.5 335.167,29.5 487.5,29.5 Z"/>
<path fill="#0e0c0a" d="M 124.5,48.5 C 125.873,48.3433 127.207,48.51 128.5,49C 155.739,75.7376 182.406,102.904 208.5,130.5C 182.406,158.096 155.739,185.262 128.5,212C 127.167,212.667 125.833,212.667 124.5,212C 97.2611,185.262 70.5945,158.096 44.5,130.5C 44.6667,129.833 44.8333,129.167 45,128.5C 71.7016,101.965 98.2016,75.2987 124.5,48.5 Z"/>
<path fill="#fbf5e6" d="M 125.5,54.5 C 151.763,79.095 177.429,104.428 202.5,130.5C 177.5,156.167 152.167,181.5 126.5,206.5C 100.833,181.5 75.5,156.167 50.5,130.5C 75.5211,105.146 100.521,79.8125 125.5,54.5 Z"/>
<path fill="#d5a55e" d="M 367.5,274.5 C 365.557,277.88 364.057,281.547 363,285.5C 362.501,291.491 362.334,297.491 362.5,303.5C 359.7,295.271 360.2,286.938 364,278.5C 364.949,276.907 366.115,275.574 367.5,274.5 Z"/>
<path fill="#d3994a" d="M 410.5,322.5 C 405.932,326.859 400.432,328.859 394,328.5C 389.577,328.36 385.41,327.36 381.5,325.5C 381.866,324.305 382.699,323.639 384,323.5C 386.981,324.959 390.148,325.626 393.5,325.5C 399.208,324.708 404.874,323.708 410.5,322.5 Z"/>
<path fill="#f3cc49" d="M 95.5,381.5 C 105.198,375.331 115.864,371.998 127.5,371.5C 134.809,370.816 142.142,370.316 149.5,370C 151.32,369.8 152.653,368.966 153.5,367.5C 159.892,368.05 165.892,367.05 171.5,364.5C 175.609,362.55 179.943,361.05 184.5,360C 188.647,357.675 192.313,354.841 195.5,351.5C 198.478,350.011 201.478,348.511 204.5,347C 205.748,345.6 206.748,344.1 207.5,342.5C 223.139,332.403 238.473,321.569 253.5,310C 260.486,307.423 266.986,303.923 273,299.5C 275.319,298.129 277.819,297.462 280.5,297.5C 291.989,296.179 303.489,296.179 315,297.5C 320.509,299.684 326.009,301.851 331.5,304C 345.104,314.77 357.104,326.936 367.5,340.5C 379.77,364.447 379.437,388.113 366.5,411.5C 361.956,417.935 357.956,424.601 354.5,431.5C 353.5,431.5 352.5,431.5 351.5,431.5C 351.076,437.014 348.576,441.347 344,444.5C 342.238,446.936 340.904,449.602 340,452.5C 337.195,454.792 334.862,457.459 333,460.5C 332.517,461.448 332.351,462.448 332.5,463.5C 329.645,464.834 327.145,466.834 325,469.5C 321.33,474.753 317.664,480.086 314,485.5C 309.534,495.285 307.534,505.618 308,516.5C 305.356,537.761 297.856,557.095 285.5,574.5C 279.528,575.664 273.528,575.83 267.5,575C 256.325,571.41 245.658,566.744 235.5,561C 234.167,559.333 232.833,557.667 231.5,556C 222.529,553.356 215.196,548.356 209.5,541C 205.289,537.868 200.956,534.868 196.5,532C 193.473,528.728 190.306,525.561 187,522.5C 186.517,521.552 186.351,520.552 186.5,519.5C 183.111,517.95 180.444,515.45 178.5,512C 172.168,507.809 166.835,502.642 162.5,496.5C 161.675,495.614 160.675,495.281 159.5,495.5C 159.649,494.448 159.483,493.448 159,492.5C 155.686,488.352 152.186,484.352 148.5,480.5C 146.955,479.548 145.288,479.215 143.5,479.5C 141.644,475.159 139.478,470.826 137,466.5C 136.092,464.561 134.592,463.561 132.5,463.5C 132.509,461.692 132.009,460.025 131,458.5C 117.815,441.644 107.148,423.311 99,403.5C 97.1873,396.254 96.0206,388.921 95.5,381.5 Z"/>
<path fill="#f9e957" d="M 287.5,306.5 C 298.164,307.265 308.83,308.265 319.5,309.5C 322.63,311.286 325.964,312.619 329.5,313.5C 332.576,316.324 335.742,318.991 339,321.5C 341.13,326.285 340.964,330.952 338.5,335.5C 331.29,337.85 324.123,340.517 317,343.5C 305.193,345.882 293.36,346.049 281.5,344C 276.879,341.422 271.879,339.756 266.5,339C 263.725,337.626 261.392,335.793 259.5,333.5C 256.874,325.698 258.874,319.531 265.5,315C 272.63,311.254 279.963,308.42 287.5,306.5 Z"/>
<path fill="#f9e756" d="M 237.5,328.5 C 253.22,328.406 259.054,336.073 255,351.5C 251.131,360.964 244.298,363.964 234.5,360.5C 233.286,358.931 231.619,358.098 229.5,358C 221.741,349.816 221.741,341.483 229.5,333C 231.998,331.018 234.665,329.518 237.5,328.5 Z"/>
<path fill="#f4e290" d="M 207.5,342.5 C 206.748,344.1 205.748,345.6 204.5,347C 201.478,348.511 198.478,350.011 195.5,351.5C 198.929,347.738 202.929,344.738 207.5,342.5 Z"/>
<path fill="#f9efbf" d="M 171.5,364.5 C 165.892,367.05 159.892,368.05 153.5,367.5C 151.833,367.5 150.167,367.5 148.5,367.5C 148.881,366.069 149.881,365.236 151.5,365C 158.158,364.5 164.825,364.334 171.5,364.5 Z"/>
<path fill="#f3d870" d="M 148.5,367.5 C 150.167,367.5 151.833,367.5 153.5,367.5C 152.653,368.966 151.32,369.8 149.5,370C 142.142,370.316 134.809,370.816 127.5,371.5C 129.831,369.915 132.497,368.749 135.5,368C 139.821,367.501 144.154,367.334 148.5,367.5 Z"/>
<path fill="#e3c071" d="M 395.5,367.5 C 396.657,375.656 396.823,383.99 396,392.5C 395.302,395.004 394.469,397.337 393.5,399.5C 395.274,388.962 395.94,378.295 395.5,367.5 Z"/>
<path fill="#e8ad3e" d="M 410.5,322.5 C 404.874,323.708 399.208,324.708 393.5,325.5C 390.148,325.626 386.981,324.959 384,323.5C 382.699,323.639 381.866,324.305 381.5,325.5C 378.931,326.396 376.931,328.062 375.5,330.5C 385.574,340.981 392.241,353.314 395.5,367.5C 395.94,378.295 395.274,388.962 393.5,399.5C 393.799,401.604 393.466,403.604 392.5,405.5C 387.222,415.721 382.222,426.055 377.5,436.5C 371.798,445.72 365.798,454.72 359.5,463.5C 357.239,465.6 355.072,467.934 353,470.5C 352.209,471.745 351.709,473.078 351.5,474.5C 345.085,481.769 339.585,489.769 335,498.5C 331.006,502.279 328.172,506.612 326.5,511.5C 325.208,514.084 323.875,516.75 322.5,519.5C 321.21,530.481 320.21,541.481 319.5,552.5C 319.5,554.833 319.5,557.167 319.5,559.5C 316.171,570.044 312.837,580.71 309.5,591.5C 305.97,598.692 301.303,605.192 295.5,611C 289.231,612.679 282.897,612.679 276.5,611C 264.261,606.808 252.428,601.641 241,595.5C 227.406,587.064 214.239,578.064 201.5,568.5C 200.194,567.533 199.527,566.199 199.5,564.5C 198.448,564.649 197.448,564.483 196.5,564C 192.736,560.378 188.903,556.878 185,553.5C 184.617,554.056 184.117,554.389 183.5,554.5C 170.894,540.392 157.727,526.725 144,513.5C 141.869,510.898 140.035,508.232 138.5,505.5C 137.5,505.5 136.5,505.5 135.5,505.5C 135.435,503.304 134.768,501.304 133.5,499.5C 129.145,496.479 125.479,492.812 122.5,488.5C 122.532,486.381 121.532,485.048 119.5,484.5C 110.443,472.108 101.776,459.441 93.5,446.5C 88.454,436.49 83.954,426.156 80,415.5C 79.5045,413.527 79.3379,411.527 79.5,409.5C 78.3097,404.477 78.3097,399.477 79.5,394.5C 79.33,393.178 79.6634,392.011 80.5,391C 85.1344,387.188 90.1344,384.021 95.5,381.5C 96.0206,388.921 97.1873,396.254 99,403.5C 107.148,423.311 117.815,441.644 131,458.5C 132.009,460.025 132.509,461.692 132.5,463.5C 134.592,463.561 136.092,464.561 137,466.5C 139.478,470.826 141.644,475.159 143.5,479.5C 145.288,479.215 146.955,479.548 148.5,480.5C 152.186,484.352 155.686,488.352 159,492.5C 159.483,493.448 159.649,494.448 159.5,495.5C 160.675,495.281 161.675,495.614 162.5,496.5C 166.835,502.642 172.168,507.809 178.5,512C 180.444,515.45 183.111,517.95 186.5,519.5C 186.351,520.552 186.517,521.552 187,522.5C 190.306,525.561 193.473,528.728 196.5,532C 200.956,534.868 205.289,537.868 209.5,541C 215.196,548.356 222.529,553.356 231.5,556C 232.833,557.667 234.167,559.333 235.5,561C 245.658,566.744 256.325,571.41 267.5,575C 273.528,575.83 279.528,575.664 285.5,574.5C 297.856,557.095 305.356,537.761 308,516.5C 307.534,505.618 309.534,495.285 314,485.5C 317.664,480.086 321.33,474.753 325,469.5C 327.145,466.834 329.645,464.834 332.5,463.5C 332.351,462.448 332.517,461.448 333,460.5C 334.862,457.459 337.195,454.792 340,452.5C 340.904,449.602 342.238,446.936 344,444.5C 348.576,441.347 351.076,437.014 351.5,431.5C 352.5,431.5 353.5,431.5 354.5,431.5C 357.956,424.601 361.956,417.935 366.5,411.5C 379.437,388.113 379.77,364.447 367.5,340.5C 357.104,326.936 345.104,314.77 331.5,304C 326.009,301.851 320.509,299.684 315,297.5C 303.489,296.179 291.989,296.179 280.5,297.5C 284.244,295.638 288.244,294.138 292.5,293C 302.167,292.333 311.833,292.333 321.5,293C 327.536,295.87 333.703,298.37 340,300.5C 341.852,302.886 344.352,304.053 347.5,304C 350.622,306.909 353.955,309.409 357.5,311.5C 361.591,310.399 363.258,307.733 362.5,303.5C 362.334,297.491 362.501,291.491 363,285.5C 364.057,281.547 365.557,277.88 367.5,274.5C 367.5,273.5 367.5,272.5 367.5,271.5C 371.242,270.119 374.576,267.952 377.5,265C 385.656,262.552 393.99,261.886 402.5,263C 406.896,264.87 411.229,266.703 415.5,268.5C 415.5,269.5 415.5,270.5 415.5,271.5C 416.675,271.281 417.675,271.614 418.5,272.5C 429.913,288.887 429.08,304.553 416,319.5C 414.259,320.758 412.426,321.758 410.5,322.5 Z"/>
<path fill="#f1cb49" d="M 390.5,313.5 C 389.167,313.5 387.833,313.5 386.5,313.5C 386.5,314.833 386.5,316.167 386.5,317.5C 383.452,319.033 380.785,321.2 378.5,324C 377.365,324.749 376.365,324.583 375.5,323.5C 372.314,319.155 368.981,314.988 365.5,311C 366.78,308.64 367.447,306.14 367.5,303.5C 370.155,303.341 372.488,302.341 374.5,300.5C 373.873,299.583 373.539,298.583 373.5,297.5C 383.429,293.729 389.762,297.062 392.5,307.5C 392.637,309.841 391.97,311.841 390.5,313.5 Z"/>
<path fill="#fcf5e1" d="M 399.5,275.5 C 404.533,278.022 408.866,281.522 412.5,286C 413.412,290.446 413.745,294.946 413.5,299.5C 411.879,303.245 409.879,306.745 407.5,310C 404.048,310.892 401.048,312.558 398.5,315C 397.167,315.167 395.833,315.333 394.5,315.5C 392.667,315.415 391.334,314.748 390.5,313.5C 391.97,311.841 392.637,309.841 392.5,307.5C 389.762,297.062 383.429,293.729 373.5,297.5C 372.865,288.68 376.198,282.013 383.5,277.5C 388.676,275.816 394.009,275.15 399.5,275.5 Z"/>
<path fill="#efcd84" d="M 326.5,511.5 C 323.749,524.323 321.916,537.323 321,550.5C 320.722,551.416 320.222,552.082 319.5,552.5C 320.21,541.481 321.21,530.481 322.5,519.5C 323.875,516.75 325.208,514.084 326.5,511.5 Z"/>
<path fill="#f2cc4a" d="M 122.5,488.5 C 125.479,492.812 129.145,496.479 133.5,499.5C 134.768,501.304 135.435,503.304 135.5,505.5C 129.398,511.944 126.065,519.61 125.5,528.5C 125.904,545.476 133.904,557.31 149.5,564C 162.726,566.849 174.059,563.683 183.5,554.5C 184.117,554.389 184.617,554.056 185,553.5C 188.903,556.878 192.736,560.378 196.5,564C 197.448,564.483 198.448,564.649 199.5,564.5C 199.527,566.199 200.194,567.533 201.5,568.5C 198.711,571.624 195.378,573.957 191.5,575.5C 181.925,579.392 171.925,581.392 161.5,581.5C 154.211,581.745 147.544,579.912 141.5,576C 139.527,575.505 137.527,575.338 135.5,575.5C 135.719,574.325 135.386,573.325 134.5,572.5C 130.425,569.047 126.258,565.713 122,562.5C 119.162,556.816 115.828,551.483 112,546.5C 111.946,543.139 110.946,540.139 109,537.5C 107.122,524.839 108.956,512.839 114.5,501.5C 113.767,500.913 112.767,500.913 111.5,501.5C 112.047,497.737 114.047,495.07 117.5,493.5C 119.5,492.167 121.167,490.5 122.5,488.5 Z"/>
<path fill="#e7af42" d="M 191.5,575.5 C 189.13,577.669 186.463,579.669 183.5,581.5C 178.264,583.6 172.931,585.433 167.5,587C 143.269,588.805 124.602,579.638 111.5,559.5C 109.818,554.627 107.652,549.961 105,545.5C 102.911,534.028 103.077,522.694 105.5,511.5C 107.863,508.451 109.863,505.118 111.5,501.5C 112.767,500.913 113.767,500.913 114.5,501.5C 108.956,512.839 107.122,524.839 109,537.5C 110.946,540.139 111.946,543.139 112,546.5C 115.828,551.483 119.162,556.816 122,562.5C 126.258,565.713 130.425,569.047 134.5,572.5C 135.386,573.325 135.719,574.325 135.5,575.5C 137.527,575.338 139.527,575.505 141.5,576C 147.544,579.912 154.211,581.745 161.5,581.5C 171.925,581.392 181.925,579.392 191.5,575.5 Z"/>
<path fill="#f6dca2" d="M 319.5,559.5 C 318.383,571.016 315.049,581.682 309.5,591.5C 312.837,580.71 316.171,570.044 319.5,559.5 Z"/>
<path fill="#0b0a09" d="M 133.5,101.5 C 123.833,101.5 114.167,101.5 104.5,101.5C 104.175,109.019 104.508,116.352 105.5,123.5C 106.458,123.047 107.292,122.381 108,121.5C 108.499,116.177 108.666,110.844 108.5,105.5C 119.877,105.826 131.21,105.326 142.5,104C 148.095,102.573 151.428,99.0734 152.5,93.5C 153.167,92.1667 153.833,90.8333 154.5,89.5C 153.995,99.5139 148.662,105.347 138.5,107C 129.173,107.5 119.839,107.666 110.5,107.5C 110.334,111.846 110.501,116.179 111,120.5C 125.999,114.666 138.999,117.666 150,129.5C 155.074,139.534 155.74,149.868 152,160.5C 148.381,167.451 142.881,172.284 135.5,175C 123.739,177.848 112.406,176.848 101.5,172C 95.255,167.836 92.255,162.169 92.5,155C 96.9287,152.898 101.095,150.398 105,147.5C 104.462,155.047 106.295,161.88 110.5,168C 124.179,175.218 134.012,171.718 140,157.5C 140.667,150.167 140.667,142.833 140,135.5C 135.257,124.791 127.09,120.958 115.5,124C 110.484,126.012 106.317,129.179 103,133.5C 101.541,133.192 100.374,132.525 99.5,131.5C 99.5,118.5 99.5,105.5 99.5,92.5C 113.01,92.8289 126.344,92.4956 139.5,91.5C 144.006,92.4728 146.172,90.8061 146,86.5C 140.633,88.1366 139.466,86.6366 142.5,82C 150.843,84.0044 152.676,88.8377 148,96.5C 143.706,99.6538 138.873,101.32 133.5,101.5 Z"/>
<path fill="#8e8b7d" d="M 154.5,89.5 C 153.833,90.8333 153.167,92.1667 152.5,93.5C 152.726,90.7508 152.393,88.0841 151.5,85.5C 151.846,84.3044 152.346,84.3044 153,85.5C 153.41,86.9007 153.91,88.234 154.5,89.5 Z"/>
<path fill="#88857e" d="M 139.5,91.5 C 126.344,92.4956 113.01,92.8289 99.5,92.5C 99.5,105.5 99.5,118.5 99.5,131.5C 98.5044,118.344 98.1711,105.01 98.5,91.5C 112.167,91.5 125.833,91.5 139.5,91.5 Z"/>
<path fill="#84827b" d="M 133.5,101.5 C 124.348,102.494 115.015,102.827 105.5,102.5C 105.5,109.5 105.5,116.5 105.5,123.5C 104.508,116.352 104.175,109.019 104.5,101.5C 114.167,101.5 123.833,101.5 133.5,101.5 Z"/>
<path fill="#302d26" d="M 117.5,126.5 C 125.799,125.323 132.466,127.99 137.5,134.5C 137.333,134.833 137.167,135.167 137,135.5C 130.833,128.465 123.333,126.631 114.5,130C 111.705,131.793 109.205,133.96 107,136.5C 107.546,133.907 109.046,131.74 111.5,130C 113.727,129.059 115.727,127.892 117.5,126.5 Z"/>
<path fill="#22201c" d="M 150.5,126.5 C 161.142,137.208 163.309,149.542 157,163.5C 148.202,178.646 135.035,184.813 117.5,182C 113.735,180.951 110.068,179.618 106.5,178C 105.304,177.346 105.304,176.846 106.5,176.5C 124.218,184.271 139.718,181.271 153,167.5C 160.993,153.165 160.16,139.498 150.5,126.5 Z"/>
<path fill="#1f1d18" d="M 110.5,148.5 C 109.65,158.294 113.65,165.46 122.5,170C 111.682,166.88 107.682,159.713 110.5,148.5 Z"/>
</svg>
