<?xml version="1.0" encoding="UTF-8"?>
<!-- Author: Jiachun Li -->
<!DOCTYPE svg PUBLIC "-//W3C//DTD SVG 1.1//EN" "http://www.w3.org/Graphics/SVG/1.1/DTD/svg11.dtd">
<svg xmlns="http://www.w3.org/2000/svg" version="1.1" width="519px" height="733px" style="shape-rendering:geometricPrecision; text-rendering:geometricPrecision; image-rendering:optimizeQuality; fill-rule:evenodd; clip-rule:evenodd" xmlns:xlink="http://www.w3.org/1999/xlink">
<g><path style="opacity:1" fill="#e3e3d7" d="M -0.5,-0.5 C 0.5,-0.5 1.5,-0.5 2.5,-0.5C 1.48837,0.871651 0.488369,2.20498 -0.5,3.5C -0.5,2.16667 -0.5,0.833333 -0.5,-0.5 Z"/></g>
<g><path style="opacity:1" fill="#010101" d="M 2.5,-0.5 C 173.5,-0.5 344.5,-0.5 515.5,-0.5C 516.167,0.833333 517.167,1.83333 518.5,2.5C 518.5,244.5 518.5,486.5 518.5,728.5C 517.5,730.167 516.167,731.5 514.5,732.5C 344.167,732.5 173.833,732.5 3.5,732.5C 2.13632,730.809 0.802988,729.142 -0.5,727.5C -0.5,486.167 -0.5,244.833 -0.5,3.5C 0.488369,2.20498 1.48837,0.871651 2.5,-0.5 Z"/></g>
<g><path style="opacity:1" fill="#dfdeda" d="M 515.5,-0.5 C 516.5,-0.5 517.5,-0.5 518.5,-0.5C 518.5,0.5 518.5,1.5 518.5,2.5C 517.167,1.83333 516.167,0.833333 515.5,-0.5 Z"/></g>
<g><path style="opacity:1" fill="#b9b7ac" d="M 504.5,13.5 C 341.167,13.5 177.833,13.5 14.5,13.5C 14.5,248.5 14.5,483.5 14.5,718.5C 13.5002,483.334 13.1669,248.001 13.5,12.5C 177.334,12.167 341.001,12.5003 504.5,13.5 Z"/></g>
<g><path style="opacity:1" fill="#f6f1e4" d="M 504.5,13.5 C 504.5,248.5 504.5,483.5 504.5,718.5C 341.167,718.5 177.833,718.5 14.5,718.5C 14.5,483.5 14.5,248.5 14.5,13.5C 177.833,13.5 341.167,13.5 504.5,13.5 Z"/></g>
<g><path style="opacity:1" fill="#fcf7e5" d="M 15.5,14.5 C 175.501,14.1667 335.501,14.5 495.5,15.5C 495.08,17.326 495.08,19.326 495.5,21.5C 493.396,21.7989 491.396,21.4656 489.5,20.5C 490.833,19.3801 491.333,18.0468 491,16.5C 487.757,16.3296 484.424,16.6629 481,17.5C 330.821,16.8341 180.654,16.1674 30.5,15.5C 29.6919,15.8076 29.0253,16.3076 28.5,17C 29.8333,18 29.8333,19 28.5,20C 25.6287,20.1177 22.962,20.7844 20.5,22C 21.6589,249.335 21.8256,476.835 21,704.5C 19.1862,705.76 17.3529,705.76 15.5,704.5C 16.3323,479.873 16.8323,255.206 17,30.5C 17.3333,249.5 17.6667,468.5 18,687.5C 18.6667,468.167 18.6667,248.833 18,29.5C 17.6827,27.6992 17.016,27.3659 16,28.5C 15.5008,23.8452 15.3342,19.1785 15.5,14.5 Z"/></g>
<g><path style="opacity:1" fill="#fdf7e6" d="M 495.5,706.5 C 495.5,705.5 495.5,704.5 495.5,703.5C 496.5,474.334 496.833,245.001 496.5,15.5C 498.167,15.5 499.833,15.5 501.5,15.5C 501.513,249.393 501.513,482.727 501.5,715.5C 499.635,716.666 497.968,716.333 496.5,714.5C 341.268,716.166 185.935,717.166 30.5,717.5C 25.4522,717.25 20.4522,716.75 15.5,716C 18.6465,713.306 22.1465,712.806 26,714.5C 183.15,713.67 340.316,713.17 497.5,713C 495.1,712.814 492.766,712.314 490.5,711.5C 492.396,710.534 494.396,710.201 496.5,710.5C 496.768,708.901 496.434,707.568 495.5,706.5 Z"/></g>
<g><path style="opacity:1" fill="#0b0a09" d="M 495.5,703.5 C 495.5,704.5 495.5,705.5 495.5,706.5C 495.047,707.458 494.381,708.292 493.5,709C 337.5,709.667 181.5,709.667 25.5,709C 25,708.5 24.5,708 24,707.5C 23.8333,593.5 23.6667,479.5 23.5,365.5C 23.5005,251.264 23.8338,137.097 24.5,23C 180.833,22.3333 337.167,22.3333 493.5,23C 494,23.5 494.5,24 495,24.5C 495.5,250.833 495.667,477.166 495.5,703.5 Z"/></g>
<g><path style="opacity:1" fill="#fbf7ea" d="M 487.5,29.5 C 487.5,253.5 487.5,477.5 487.5,701.5C 335.167,701.5 182.833,701.5 30.5,701.5C 30.5,477.5 30.5,253.5 30.5,29.5C 182.833,29.5 335.167,29.5 487.5,29.5 Z"/></g>
<g><path style="opacity:1" fill="#fcf6e6" d="M 31.5,30.5 C 182.737,30.1676 333.903,30.5009 485,31.5C 485.168,250.54 485.668,469.54 486.5,688.5C 485.833,689.833 485.167,691.167 484.5,692.5C 485.814,694.452 486.48,696.285 486.5,698C 485.391,698.638 484.225,699.138 483,699.5C 332.528,698.502 182.028,698.169 31.5,698.5C 31.5,696.5 31.5,694.5 31.5,692.5C 181.308,691.837 330.975,692.504 480.5,694.5C 483.151,692.585 482.817,691.085 479.5,690C 330.167,689.5 180.834,689.333 31.5,689.5C 31.5,469.833 31.5,250.167 31.5,30.5 Z"/></g>
<g><path style="opacity:1" fill="#0e0c0a" d="M 124.5,48.5 C 125.873,48.3433 127.207,48.51 128.5,49C 155.739,75.7376 182.406,102.904 208.5,130.5C 182.406,158.096 155.739,185.262 128.5,212C 127.167,212.667 125.833,212.667 124.5,212C 97.2611,185.262 70.5945,158.096 44.5,130.5C 44.6667,129.833 44.8333,129.167 45,128.5C 71.7016,101.965 98.2016,75.2987 124.5,48.5 Z"/></g>
<g><path style="opacity:1" fill="#fbf5e6" d="M 125.5,54.5 C 151.763,79.095 177.429,104.428 202.5,130.5C 177.5,156.167 152.167,181.5 126.5,206.5C 100.833,181.5 75.5,156.167 50.5,130.5C 75.5211,105.146 100.521,79.8125 125.5,54.5 Z"/></g>
<g><path style="opacity:1" fill="#050404" d="M 123.5,92.5 C 125.833,92.5 128.167,92.5 130.5,92.5C 130.169,117.672 130.502,142.672 131.5,167.5C 133.475,169.137 135.475,170.804 137.5,172.5C 129.35,173.493 121.017,173.826 112.5,173.5C 114.771,171.734 116.937,169.734 119,167.5C 119.5,148.503 119.667,129.503 119.5,110.5C 115.204,111.463 110.871,111.629 106.5,111C 104.745,110.28 103.911,109.113 104,107.5C 109.645,111.803 114.811,111.47 119.5,106.5C 119.167,105.833 118.833,105.167 118.5,104.5C 112.866,108.297 107.366,108.297 102,104.5C 101.506,102.866 101.34,101.199 101.5,99.5C 105.241,98.5985 107.241,99.9319 107.5,103.5C 115.014,102.984 120.347,99.3171 123.5,92.5 Z"/></g>
<g><path style="opacity:1" fill="#191714" d="M 113.5,179.5 C 123.167,178.833 132.833,178.167 142.5,177.5C 141.5,176.167 140.5,174.833 139.5,173.5C 139.167,172.5 138.5,171.833 137.5,171.5C 136.878,170.373 136.045,169.373 135,168.5C 135,68.5 135.667,68.5 137,168.5C 140.05,172.095 143.216,175.595 146.5,179C 135.505,179.5 124.505,179.667 113.5,179.5 Z"/></g>
<g><path style="opacity:1" fill="#47473f" d="M 123.5,92.5 C 125.948,91.5269 128.615,91.1936 131.5,91.5C 131.5,116.833 131.5,142.167 131.5,167.5C 130.502,142.672 130.169,117.672 130.5,92.5C 128.167,92.5 125.833,92.5 123.5,92.5 Z"/></g>
<g><path style="opacity:1" fill="#58564e" d="M 137.5,171.5 C 138.5,171.833 139.167,172.5 139.5,173.5C 129.83,174.835 120.83,174.835 112.5,173.5C 121.017,173.826 129.35,173.493 137.5,172.5C 137.5,172.167 137.5,171.833 137.5,171.5 Z"/></g>
<g><path style="opacity:1" fill="#403b39" d="M 142.5,177.5 C 132.833,178.167 123.167,178.833 113.5,179.5C 112.957,179.44 112.624,179.107 112.5,178.5C 122.478,177.501 132.478,177.168 142.5,177.5 Z"/></g>
<g><path style="opacity:1" fill="#d5a55e" d="M 367.5,274.5 C 365.557,277.88 364.057,281.547 363,285.5C 362.501,291.491 362.334,297.491 362.5,303.5C 359.7,295.271 360.2,286.938 364,278.5C 364.949,276.907 366.115,275.574 367.5,274.5 Z"/></g>
<g><path style="opacity:1" fill="#d3994a" d="M 410.5,322.5 C 405.932,326.859 400.432,328.859 394,328.5C 389.577,328.36 385.41,327.36 381.5,325.5C 381.866,324.305 382.699,323.639 384,323.5C 386.981,324.959 390.148,325.626 393.5,325.5C 399.208,324.708 404.874,323.708 410.5,322.5 Z"/></g>
<g><path style="opacity:1" fill="#f3cc49" d="M 95.5,381.5 C 105.198,375.331 115.864,371.998 127.5,371.5C 134.809,370.816 142.142,370.316 149.5,370C 151.32,369.8 152.653,368.966 153.5,367.5C 159.892,368.05 165.892,367.05 171.5,364.5C 175.609,362.55 179.943,361.05 184.5,360C 188.647,357.675 192.313,354.841 195.5,351.5C 198.478,350.011 201.478,348.511 204.5,347C 205.748,345.6 206.748,344.1 207.5,342.5C 223.139,332.403 238.473,321.569 253.5,310C 260.486,307.423 266.986,303.923 273,299.5C 275.319,298.129 277.819,297.462 280.5,297.5C 291.989,296.179 303.489,296.179 315,297.5C 320.509,299.684 326.009,301.851 331.5,304C 345.104,314.77 357.104,326.936 367.5,340.5C 379.77,364.447 379.437,388.113 366.5,411.5C 361.956,417.935 357.956,424.601 354.5,431.5C 353.5,431.5 352.5,431.5 351.5,431.5C 351.076,437.014 348.576,441.347 344,444.5C 342.238,446.936 340.904,449.602 340,452.5C 337.195,454.792 334.862,457.459 333,460.5C 332.517,461.448 332.351,462.448 332.5,463.5C 329.645,464.834 327.145,466.834 325,469.5C 321.33,474.753 317.664,480.086 314,485.5C 309.534,495.285 307.534,505.618 308,516.5C 305.356,537.761 297.856,557.095 285.5,574.5C 279.528,575.664 273.528,575.83 267.5,575C 256.325,571.41 245.658,566.744 235.5,561C 234.167,559.333 232.833,557.667 231.5,556C 222.529,553.356 215.196,548.356 209.5,541C 205.289,537.868 200.956,534.868 196.5,532C 193.473,528.728 190.306,525.561 187,522.5C 186.517,521.552 186.351,520.552 186.5,519.5C 183.111,517.95 180.444,515.45 178.5,512C 172.168,507.809 166.835,502.642 162.5,496.5C 161.675,495.614 160.675,495.281 159.5,495.5C 159.649,494.448 159.483,493.448 159,492.5C 155.686,488.352 152.186,484.352 148.5,480.5C 146.955,479.548 145.288,479.215 143.5,479.5C 141.644,475.159 139.478,470.826 137,466.5C 136.092,464.561 134.592,463.561 132.5,463.5C 132.509,461.692 132.009,460.025 131,458.5C 117.815,441.644 107.148,423.311 99,403.5C 97.1873,396.254 96.0206,388.921 95.5,381.5 Z"/></g>
<g><path style="opacity:1" fill="#f9e957" d="M 287.5,306.5 C 298.164,307.265 308.83,308.265 319.5,309.5C 322.63,311.286 325.964,312.619 329.5,313.5C 332.576,316.324 335.742,318.991 339,321.5C 341.13,326.285 340.964,330.952 338.5,335.5C 331.29,337.85 324.123,340.517 317,343.5C 305.193,345.882 293.36,346.049 281.5,344C 276.879,341.422 271.879,339.756 266.5,339C 263.725,337.626 261.392,335.793 259.5,333.5C 256.874,325.698 258.874,319.531 265.5,315C 272.63,311.254 279.963,308.42 287.5,306.5 Z"/></g>
<g><path style="opacity:1" fill="#f9e756" d="M 237.5,328.5 C 253.22,328.406 259.054,336.073 255,351.5C 251.131,360.964 244.298,363.964 234.5,360.5C 233.286,358.931 231.619,358.098 229.5,358C 221.741,349.816 221.741,341.483 229.5,333C 231.998,331.018 234.665,329.518 237.5,328.5 Z"/></g>
<g><path style="opacity:1" fill="#f4e290" d="M 207.5,342.5 C 206.748,344.1 205.748,345.6 204.5,347C 201.478,348.511 198.478,350.011 195.5,351.5C 198.929,347.738 202.929,344.738 207.5,342.5 Z"/></g>
<g><path style="opacity:1" fill="#f9efbf" d="M 171.5,364.5 C 165.892,367.05 159.892,368.05 153.5,367.5C 151.833,367.5 150.167,367.5 148.5,367.5C 148.881,366.069 149.881,365.236 151.5,365C 158.158,364.5 164.825,364.334 171.5,364.5 Z"/></g>
<g><path style="opacity:1" fill="#f3d870" d="M 148.5,367.5 C 150.167,367.5 151.833,367.5 153.5,367.5C 152.653,368.966 151.32,369.8 149.5,370C 142.142,370.316 134.809,370.816 127.5,371.5C 129.831,369.915 132.497,368.749 135.5,368C 139.821,367.501 144.154,367.334 148.5,367.5 Z"/></g>
<g><path style="opacity:1" fill="#e3c071" d="M 395.5,367.5 C 396.657,375.656 396.823,383.99 396,392.5C 395.302,395.004 394.469,397.337 393.5,399.5C 395.274,388.962 395.94,378.295 395.5,367.5 Z"/></g>
<g><path style="opacity:1" fill="#efd491" d="M 79.5,394.5 C 78.3097,399.477 78.3097,404.477 79.5,409.5C 77.9532,407.193 77.2865,404.527 77.5,401.5C 77.6667,399.5 77.8333,397.5 78,395.5C 78.3826,394.944 78.8826,394.611 79.5,394.5 Z"/></g>
<g><path style="opacity:1" fill="#e8ad3e" d="M 410.5,322.5 C 404.874,323.708 399.208,324.708 393.5,325.5C 390.148,325.626 386.981,324.959 384,323.5C 382.699,323.639 381.866,324.305 381.5,325.5C 378.931,326.396 376.931,328.062 375.5,330.5C 385.574,340.981 392.241,353.314 395.5,367.5C 395.94,378.295 395.274,388.962 393.5,399.5C 393.799,401.604 393.466,403.604 392.5,405.5C 387.222,415.721 382.222,426.055 377.5,436.5C 371.798,445.72 365.798,454.72 359.5,463.5C 357.239,465.6 355.072,467.934 353,470.5C 352.209,471.745 351.709,473.078 351.5,474.5C 345.085,481.769 339.585,489.769 335,498.5C 331.006,502.279 328.172,506.612 326.5,511.5C 325.208,514.084 323.875,516.75 322.5,519.5C 321.21,530.481 320.21,541.481 319.5,552.5C 319.5,554.833 319.5,557.167 319.5,559.5C 316.171,570.044 312.837,580.71 309.5,591.5C 305.97,598.692 301.303,605.192 295.5,611C 289.231,612.679 282.897,612.679 276.5,611C 264.261,606.808 252.428,601.641 241,595.5C 227.406,587.064 214.239,578.064 201.5,568.5C 200.194,567.533 199.527,566.199 199.5,564.5C 198.448,564.649 197.448,564.483 196.5,564C 192.736,560.378 188.903,556.878 185,553.5C 184.617,554.056 184.117,554.389 183.5,554.5C 170.894,540.392 157.727,526.725 144,513.5C 141.869,510.898 140.035,508.232 138.5,505.5C 137.5,505.5 136.5,505.5 135.5,505.5C 135.435,503.304 134.768,501.304 133.5,499.5C 129.145,496.479 125.479,492.812 122.5,488.5C 122.532,486.381 121.532,485.048 119.5,484.5C 110.443,472.108 101.776,459.441 93.5,446.5C 88.454,436.49 83.954,426.156 80,415.5C 79.5045,413.527 79.3379,411.527 79.5,409.5C 78.3097,404.477 78.3097,399.477 79.5,394.5C 79.33,393.178 79.6634,392.011 80.5,391C 85.1344,387.188 90.1344,384.021 95.5,381.5C 96.0206,388.921 97.1873,396.254 99,403.5C 107.148,423.311 117.815,441.644 131,458.5C 132.009,460.025 132.509,461.692 132.5,463.5C 134.592,463.561 136.092,464.561 137,466.5C 139.478,470.826 141.644,475.159 143.5,479.5C 145.288,479.215 146.955,479.548 148.5,480.5C 152.186,484.352 155.686,488.352 159,492.5C 159.483,493.448 159.649,494.448 159.5,495.5C 160.675,495.281 161.675,495.614 162.5,496.5C 166.835,502.642 172.168,507.809 178.5,512C 180.444,515.45 183.111,517.95 186.5,519.5C 186.351,520.552 186.517,521.552 187,522.5C 190.306,525.561 193.473,528.728 196.5,532C 200.956,534.868 205.289,537.868 209.5,541C 215.196,548.356 222.529,553.356 231.5,556C 232.833,557.667 234.167,559.333 235.5,561C 245.658,566.744 256.325,571.41 267.5,575C 273.528,575.83 279.528,575.664 285.5,574.5C 297.856,557.095 305.356,537.761 308,516.5C 307.534,505.618 309.534,495.285 314,485.5C 317.664,480.086 321.33,474.753 325,469.5C 327.145,466.834 329.645,464.834 332.5,463.5C 332.351,462.448 332.517,461.448 333,460.5C 334.862,457.459 337.195,454.792 340,452.5C 340.904,449.602 342.238,446.936 344,444.5C 348.576,441.347 351.076,437.014 351.5,431.5C 352.5,431.5 353.5,431.5 354.5,431.5C 357.956,424.601 361.956,417.935 366.5,411.5C 379.437,388.113 379.77,364.447 367.5,340.5C 357.104,326.936 345.104,314.77 331.5,304C 326.009,301.851 320.509,299.684 315,297.5C 303.489,296.179 291.989,296.179 280.5,297.5C 284.244,295.638 288.244,294.138 292.5,293C 302.167,292.333 311.833,292.333 321.5,293C 327.536,295.87 333.703,298.37 340,300.5C 341.852,302.886 344.352,304.053 347.5,304C 350.622,306.909 353.955,309.409 357.5,311.5C 361.591,310.399 363.258,307.733 362.5,303.5C 362.334,297.491 362.501,291.491 363,285.5C 364.057,281.547 365.557,277.88 367.5,274.5C 367.5,273.5 367.5,272.5 367.5,271.5C 371.242,270.119 374.576,267.952 377.5,265C 385.656,262.552 393.99,261.886 402.5,263C 406.896,264.87 411.229,266.703 415.5,268.5C 415.5,269.5 415.5,270.5 415.5,271.5C 416.675,271.281 417.675,271.614 418.5,272.5C 429.913,288.887 429.08,304.553 416,319.5C 414.259,320.758 412.426,321.758 410.5,322.5 Z"/></g>
<g><path style="opacity:1" fill="#f1cb49" d="M 390.5,313.5 C 389.167,313.5 387.833,313.5 386.5,313.5C 386.5,314.833 386.5,316.167 386.5,317.5C 383.452,319.033 380.785,321.2 378.5,324C 377.365,324.749 376.365,324.583 375.5,323.5C 372.314,319.155 368.981,314.988 365.5,311C 366.78,308.64 367.447,306.14 367.5,303.5C 370.155,303.341 372.488,302.341 374.5,300.5C 373.873,299.583 373.539,298.583 373.5,297.5C 383.429,293.729 389.762,297.062 392.5,307.5C 392.637,309.841 391.97,311.841 390.5,313.5 Z"/></g>
<g><path style="opacity:1" fill="#fcf5e1" d="M 399.5,275.5 C 404.533,278.022 408.866,281.522 412.5,286C 413.412,290.446 413.745,294.946 413.5,299.5C 411.879,303.245 409.879,306.745 407.5,310C 404.048,310.892 401.048,312.558 398.5,315C 397.167,315.167 395.833,315.333 394.5,315.5C 392.667,315.415 391.334,314.748 390.5,313.5C 391.97,311.841 392.637,309.841 392.5,307.5C 389.762,297.062 383.429,293.729 373.5,297.5C 372.865,288.68 376.198,282.013 383.5,277.5C 388.676,275.816 394.009,275.15 399.5,275.5 Z"/></g>
<g><path style="opacity:1" fill="#d5943e" d="M 413.5,299.5 C 413.745,294.946 413.412,290.446 412.5,286C 408.866,281.522 404.533,278.022 399.5,275.5C 395.366,274.515 391.032,274.182 386.5,274.5C 399.949,267.596 409.616,271.096 415.5,285C 414.907,289.98 414.24,294.814 413.5,299.5 Z"/></g>
<g><path style="opacity:1" fill="#ebc68d" d="M 386.5,274.5 C 391.032,274.182 395.366,274.515 399.5,275.5C 394.009,275.15 388.676,275.816 383.5,277.5C 384.1,276.1 385.1,275.1 386.5,274.5 Z"/></g>
<g><path style="opacity:1" fill="#f3d697" d="M 359.5,463.5 C 359.649,464.552 359.483,465.552 359,466.5C 356.267,469.062 353.767,471.729 351.5,474.5C 351.709,473.078 352.209,471.745 353,470.5C 355.072,467.934 357.239,465.6 359.5,463.5 Z"/></g>
<g><path style="opacity:1" fill="#efd586" d="M 119.5,484.5 C 121.532,485.048 122.532,486.381 122.5,488.5C 121.167,490.5 119.5,492.167 117.5,493.5C 118.259,491.564 119.259,489.731 120.5,488C 120.011,486.862 119.678,485.695 119.5,484.5 Z"/></g>
<g><path style="opacity:1" fill="#fcf6e2" d="M 135.5,505.5 C 136.5,505.5 137.5,505.5 138.5,505.5C 140.035,508.232 141.869,510.898 144,513.5C 157.727,526.725 170.894,540.392 183.5,554.5C 174.059,563.683 162.726,566.849 149.5,564C 133.904,557.31 125.904,545.476 125.5,528.5C 126.065,519.61 129.398,511.944 135.5,505.5 Z"/></g>
<g><path style="opacity:1" fill="#efcd84" d="M 326.5,511.5 C 323.749,524.323 321.916,537.323 321,550.5C 320.722,551.416 320.222,552.082 319.5,552.5C 320.21,541.481 321.21,530.481 322.5,519.5C 323.875,516.75 325.208,514.084 326.5,511.5 Z"/></g>
<g><path style="opacity:1" fill="#f2cc4a" d="M 122.5,488.5 C 125.479,492.812 129.145,496.479 133.5,499.5C 134.768,501.304 135.435,503.304 135.5,505.5C 129.398,511.944 126.065,519.61 125.5,528.5C 125.904,545.476 133.904,557.31 149.5,564C 162.726,566.849 174.059,563.683 183.5,554.5C 184.117,554.389 184.617,554.056 185,553.5C 188.903,556.878 192.736,560.378 196.5,564C 197.448,564.483 198.448,564.649 199.5,564.5C 199.527,566.199 200.194,567.533 201.5,568.5C 198.711,571.624 195.378,573.957 191.5,575.5C 181.925,579.392 171.925,581.392 161.5,581.5C 154.211,581.745 147.544,579.912 141.5,576C 139.527,575.505 137.527,575.338 135.5,575.5C 135.719,574.325 135.386,573.325 134.5,572.5C 130.425,569.047 126.258,565.713 122,562.5C 119.162,556.816 115.828,551.483 112,546.5C 111.946,543.139 110.946,540.139 109,537.5C 107.122,524.839 108.956,512.839 114.5,501.5C 113.767,500.913 112.767,500.913 111.5,501.5C 112.047,497.737 114.047,495.07 117.5,493.5C 119.5,492.167 121.167,490.5 122.5,488.5 Z"/></g>
<g><path style="opacity:1" fill="#fdedc6" d="M 105.5,511.5 C 103.077,522.694 102.911,534.028 105,545.5C 107.652,549.961 109.818,554.627 111.5,559.5C 110.5,559.5 109.5,559.5 108.5,559.5C 107.472,555.113 105.639,551.113 103,547.5C 102.333,537.167 102.333,526.833 103,516.5C 103.374,514.509 104.207,512.842 105.5,511.5 Z"/></g>
<g><path style="opacity:1" fill="#e7af42" d="M 191.5,575.5 C 189.13,577.669 186.463,579.669 183.5,581.5C 178.264,583.6 172.931,585.433 167.5,587C 143.269,588.805 124.602,579.638 111.5,559.5C 109.818,554.627 107.652,549.961 105,545.5C 102.911,534.028 103.077,522.694 105.5,511.5C 107.863,508.451 109.863,505.118 111.5,501.5C 112.767,500.913 113.767,500.913 114.5,501.5C 108.956,512.839 107.122,524.839 109,537.5C 110.946,540.139 111.946,543.139 112,546.5C 115.828,551.483 119.162,556.816 122,562.5C 126.258,565.713 130.425,569.047 134.5,572.5C 135.386,573.325 135.719,574.325 135.5,575.5C 137.527,575.338 139.527,575.505 141.5,576C 147.544,579.912 154.211,581.745 161.5,581.5C 171.925,581.392 181.925,579.392 191.5,575.5 Z"/></g>
<g><path style="opacity:1" fill="#f6dca2" d="M 319.5,559.5 C 318.383,571.016 315.049,581.682 309.5,591.5C 312.837,580.71 316.171,570.044 319.5,559.5 Z"/></g>
<g><path style="opacity:1" fill="#a8a59d" d="M 487.5,29.5 C 488.5,253.666 488.833,477.999 488.5,702.5C 335.666,702.833 182.999,702.5 30.5,701.5C 182.833,701.5 335.167,701.5 487.5,701.5C 487.5,477.5 487.5,253.5 487.5,29.5 Z"/></g>
<g><path style="opacity:1" fill="#e7e4da" d="M -0.5,727.5 C 0.802988,729.142 2.13632,730.809 3.5,732.5C 2.16667,732.5 0.833333,732.5 -0.5,732.5C -0.5,730.833 -0.5,729.167 -0.5,727.5 Z"/></g>
<g><path style="opacity:1" fill="#eeece2" d="M 518.5,728.5 C 518.5,729.833 518.5,731.167 518.5,732.5C 517.167,732.5 515.833,732.5 514.5,732.5C 516.167,731.5 517.5,730.167 518.5,728.5 Z"/></g>
</svg>
