<?xml version="1.0" encoding="UTF-8"?>
<!-- Author: Jiachun Li -->
<!DOCTYPE svg PUBLIC "-//W3C//DTD SVG 1.1//EN" "http://www.w3.org/Graphics/SVG/1.1/DTD/svg11.dtd">
<svg xmlns="http://www.w3.org/2000/svg" version="1.1" width="517px" height="733px" style="shape-rendering:geometricPrecision; text-rendering:geometricPrecision; image-rendering:optimizeQuality; fill-rule:evenodd; clip-rule:evenodd" xmlns:xlink="http://www.w3.org/1999/xlink">
<g><path style="opacity:1" fill="#020202" d="M 1.5,-0.5 C 172.5,-0.5 343.5,-0.5 514.5,-0.5C 514.833,0.5 515.5,1.16667 516.5,1.5C 516.5,244.5 516.5,487.5 516.5,730.5C 515.29,730.932 514.29,731.599 513.5,732.5C 343.167,732.5 172.833,732.5 2.5,732.5C 1.83333,731.167 0.833333,730.167 -0.5,729.5C -0.5,486.833 -0.5,244.167 -0.5,1.5C 0.5,1.16667 1.16667,0.5 1.5,-0.5 Z"/></g>
<g><path style="opacity:1" fill="#c3c4bf" d="M 514.5,-0.5 C 515.167,-0.5 515.833,-0.5 516.5,-0.5C 516.5,0.166667 516.5,0.833333 516.5,1.5C 515.5,1.16667 514.833,0.5 514.5,-0.5 Z"/></g>
<g><path style="opacity:1" fill="#eceee1" d="M -0.5,-0.5 C 0.166667,-0.5 0.833333,-0.5 1.5,-0.5C 1.16667,0.5 0.5,1.16667 -0.5,1.5C -0.5,0.833333 -0.5,0.166667 -0.5,-0.5 Z"/></g>
<g><path style="opacity:1" fill="#99968d" d="M 503.5,13.5 C 340.167,13.5 176.833,13.5 13.5,13.5C 13.5,248.5 13.5,483.5 13.5,718.5C 12.5002,483.334 12.1669,248.001 12.5,12.5C 176.334,12.167 340.001,12.5003 503.5,13.5 Z"/></g>
<g><path style="opacity:1" fill="#fbf7e9" d="M 503.5,13.5 C 503.5,248.5 503.5,483.5 503.5,718.5C 340.167,718.5 176.833,718.5 13.5,718.5C 13.5,483.5 13.5,248.5 13.5,13.5C 176.833,13.5 340.167,13.5 503.5,13.5 Z"/></g>
<g><path style="opacity:1" fill="#fcf7e6" d="M 15.5,14.5 C 175.874,14.1681 336.207,14.5015 496.5,15.5C 497.167,244.833 497.833,474.167 498.5,703.5C 499.5,474.168 499.833,244.834 499.5,15.5C 500.5,15.5 501.5,15.5 502.5,15.5C 502.667,248.834 502.5,482.167 502,715.5C 500.442,716.345 499.442,715.679 499,713.5C 498.167,714.333 497.333,715.167 496.5,716C 416.333,716.167 336.167,716.333 256,716.5C 175.36,716.666 94.8599,716.166 14.5,715C 18.9011,714.189 19.2344,713.023 15.5,711.5C 14.1678,479.098 14.1678,246.765 15.5,14.5 Z"/></g>
<g><path style="opacity:1" fill="#f7f4e9" d="M 20.5,15.5 C 21.5,15.5 22.5,15.5 23.5,15.5C 23.7035,17.3904 23.0368,18.8904 21.5,20C 22.8333,20.3333 24.1667,20.6667 25.5,21C 103.333,21.1667 181.167,21.3333 259,21.5C 337.308,21.4971 415.474,20.8304 493.5,19.5C 494.086,19.7093 494.586,20.0426 495,20.5C 495.833,250.167 495.667,479.834 494.5,709.5C 490.283,713.209 485.283,714.542 479.5,713.5C 479.5,712.5 479.5,711.5 479.5,710.5C 329.833,710.333 180.166,710.5 30.5,711C 28.1316,713.294 25.4649,713.794 22.5,712.5C 23.8793,711.137 23.7126,710.137 22,709.5C 19.9011,708.713 17.7345,708.38 15.5,708.5C 15.3505,707.448 15.5172,706.448 16,705.5C 16.3333,705.833 16.6667,706.167 17,706.5C 18.0852,705.707 19.2519,705.04 20.5,704.5C 21.6667,477.501 21.8333,250.501 21,23.5C 19.6054,22.1854 18.6054,22.5188 18,24.5C 14.6173,21.7876 15.1173,19.7876 19.5,18.5C 20.1272,17.5832 20.4606,16.5832 20.5,15.5 Z"/></g>
<g><path style="opacity:1" fill="#010000" d="M 24.5,22.5 C 180.5,22.3333 336.5,22.5 492.5,23C 493,23.5 493.5,24 494,24.5C 494.667,252.167 494.667,479.833 494,707.5C 493.5,708 493,708.5 492.5,709C 336.5,709.667 180.5,709.667 24.5,709C 24,708.5 23.5,708 23,707.5C 22.3333,479.833 22.3333,252.167 23,24.5C 23.7172,23.9558 24.2172,23.2891 24.5,22.5 Z"/></g>
<g><path style="opacity:1" fill="#e0dcd1" d="M 486.5,29.5 C 487.5,253.666 487.833,477.999 487.5,702.5C 334.666,702.833 181.999,702.5 29.5,701.5C 29.8333,701.5 30.1667,701.5 30.5,701.5C 182.5,701.5 334.5,701.5 486.5,701.5C 486.5,477.833 486.5,254.167 486.5,30.5C 486.5,30.1667 486.5,29.8333 486.5,29.5 Z"/></g>
<g><path style="opacity:1" fill="#eae6db" d="M 486.5,29.5 C 486.5,29.8333 486.5,30.1667 486.5,30.5C 334.5,30.5 182.5,30.5 30.5,30.5C 30.5,254.167 30.5,477.833 30.5,701.5C 30.1667,701.5 29.8333,701.5 29.5,701.5C 29.5,477.5 29.5,253.5 29.5,29.5C 181.833,29.5 334.167,29.5 486.5,29.5 Z"/></g>
<g><path style="opacity:1" fill="#fcf6e6" d="M 486.5,30.5 C 486.5,254.167 486.5,477.833 486.5,701.5C 334.5,701.5 182.5,701.5 30.5,701.5C 30.5,477.833 30.5,254.167 30.5,30.5C 182.5,30.5 334.5,30.5 486.5,30.5 Z"/></g>
<g><path style="opacity:1" fill="#f6db9a" d="M 297.5,607.5 C 296.652,610.845 294.485,612.512 291,612.5C 284.148,612.214 277.648,610.881 271.5,608.5C 278.758,610.105 286.091,610.605 293.5,610C 294.984,609.338 296.317,608.504 297.5,607.5 Z"/></g>
<g><path style="opacity:1" fill="#f9e7ba" d="M 143.5,584.5 C 154.169,585.789 164.835,585.789 175.5,584.5C 164.853,588.369 154.187,588.369 143.5,584.5 Z"/></g>
<g><path style="opacity:1" fill="#e8b043" d="M 117.5,492.5 C 115.754,499.074 113.421,505.407 110.5,511.5C 107.318,523.094 107.984,534.428 112.5,545.5C 113.48,546.981 114.647,548.315 116,549.5C 117.255,552.928 118.755,556.262 120.5,559.5C 123.282,562.238 125.949,565.071 128.5,568C 134.369,571.358 140.369,574.525 146.5,577.5C 156.077,579.451 165.743,579.951 175.5,579C 180.788,577.511 186.121,576.344 191.5,575.5C 187.022,578.489 182.188,580.822 177,582.5C 175.97,582.836 175.47,583.503 175.5,584.5C 164.835,585.789 154.169,585.789 143.5,584.5C 125.278,577.446 112.445,564.779 105,546.5C 103.635,536.866 103.302,527.199 104,517.5C 106.131,510.578 108.798,503.911 112,497.5C 113.704,495.627 115.537,493.96 117.5,492.5 Z"/></g>
<g><path style="opacity:1" fill="#fae4b4" d="M 319.5,559.5 C 319.049,566.722 317.549,573.722 315,580.5C 313.473,584.417 311.64,588.083 309.5,591.5C 313.08,582.227 315.747,572.561 317.5,562.5C 317.64,560.97 318.307,559.97 319.5,559.5 Z"/></g>
<g><path style="opacity:1" fill="#f2cd4b" d="M 135.5,504.5 C 124.956,515.713 122.623,528.713 128.5,543.5C 139.546,562.015 155.213,567.515 175.5,560C 178.379,557.615 181.379,555.448 184.5,553.5C 185.117,553.389 185.617,553.056 186,552.5C 190.27,556.997 194.604,561.33 199,565.5C 199.483,566.448 199.649,567.448 199.5,568.5C 197.457,571.543 194.79,573.876 191.5,575.5C 186.121,576.344 180.788,577.511 175.5,579C 165.743,579.951 156.077,579.451 146.5,577.5C 140.369,574.525 134.369,571.358 128.5,568C 125.949,565.071 123.282,562.238 120.5,559.5C 118.755,556.262 117.255,552.928 116,549.5C 114.647,548.315 113.48,546.981 112.5,545.5C 107.984,534.428 107.318,523.094 110.5,511.5C 113.421,505.407 115.754,499.074 117.5,492.5C 119.463,491.04 121.296,489.373 123,487.5C 123.908,489.439 125.408,490.439 127.5,490.5C 127.421,491.93 127.754,493.264 128.5,494.5C 131.671,497.323 134.005,500.656 135.5,504.5 Z"/></g>
<g><path style="opacity:1" fill="#f8e3ad" d="M 326.5,511.5 C 324.201,523.715 322.368,536.048 321,548.5C 320.722,549.416 320.222,550.082 319.5,550.5C 320.343,539.796 321.51,529.129 323,518.5C 323.144,515.558 324.311,513.224 326.5,511.5 Z"/></g>
<g><path style="opacity:1" fill="#fcf6e3" d="M 135.5,504.5 C 138.755,506.926 141.588,509.926 144,513.5C 155.694,524.105 166.86,535.272 177.5,547C 179.933,548.13 182.266,549.296 184.5,550.5C 184.5,551.5 184.5,552.5 184.5,553.5C 181.379,555.448 178.379,557.615 175.5,560C 155.213,567.515 139.546,562.015 128.5,543.5C 122.623,528.713 124.956,515.713 135.5,504.5 Z"/></g>
<g><path style="opacity:1" fill="#eed08e" d="M 358.5,463.5 C 356.938,467.392 354.605,470.725 351.5,473.5C 352.709,470.279 354.376,467.279 356.5,464.5C 356.957,463.702 357.624,463.369 358.5,463.5 Z"/></g>
<g><path style="opacity:1" fill="#e8ad3e" d="M 391.5,355.5 C 395.065,367.209 396.399,379.209 395.5,391.5C 393.562,399.42 391.562,407.42 389.5,415.5C 388.5,415.5 387.5,415.5 386.5,415.5C 386.162,417.854 385.662,420.187 385,422.5C 375.816,436.135 366.982,449.802 358.5,463.5C 357.624,463.369 356.957,463.702 356.5,464.5C 354.376,467.279 352.709,470.279 351.5,473.5C 346.824,480.04 341.824,486.54 336.5,493C 334.632,497.234 332.132,501.067 329,504.5C 328.009,506.808 327.176,509.141 326.5,511.5C 324.311,513.224 323.144,515.558 323,518.5C 321.51,529.129 320.343,539.796 319.5,550.5C 319.5,553.5 319.5,556.5 319.5,559.5C 318.307,559.97 317.64,560.97 317.5,562.5C 315.747,572.561 313.08,582.227 309.5,591.5C 306.032,597.262 302.032,602.595 297.5,607.5C 296.317,608.504 294.984,609.338 293.5,610C 286.091,610.605 278.758,610.105 271.5,608.5C 264.179,604.897 256.513,601.73 248.5,599C 246.021,596.33 243.021,594.83 239.5,594.5C 239.5,593.5 239.5,592.5 239.5,591.5C 237.146,591.162 234.813,590.662 232.5,590C 224.778,583.945 216.778,578.278 208.5,573C 206.584,568.844 203.584,567.344 199.5,568.5C 199.649,567.448 199.483,566.448 199,565.5C 194.604,561.33 190.27,556.997 186,552.5C 185.617,553.056 185.117,553.389 184.5,553.5C 184.5,552.5 184.5,551.5 184.5,550.5C 182.266,549.296 179.933,548.13 177.5,547C 166.86,535.272 155.694,524.105 144,513.5C 141.588,509.926 138.755,506.926 135.5,504.5C 134.005,500.656 131.671,497.323 128.5,494.5C 127.754,493.264 127.421,491.93 127.5,490.5C 125.408,490.439 123.908,489.439 123,487.5C 121.296,489.373 119.463,491.04 117.5,492.5C 117.685,490.804 118.519,489.471 120,488.5C 120.667,486.833 120.667,485.167 120,483.5C 113.903,476.286 108.57,468.619 104,460.5C 101.593,456.704 98.9265,453.037 96,449.5C 90.0739,438.505 84.7405,427.171 80,415.5C 78.371,408.583 77.7043,401.583 78,394.5C 79.0437,393.377 79.7104,392.044 80,390.5C 82.1238,389.378 83.9571,387.878 85.5,386C 87.441,384.097 89.7743,383.264 92.5,383.5C 93.5,383.5 94.5,383.5 95.5,383.5C 96.0133,387.879 96.8466,392.213 98,396.5C 101.116,406.647 105.283,416.314 110.5,425.5C 111.466,427.396 111.799,429.396 111.5,431.5C 112.675,431.281 113.675,431.614 114.5,432.5C 122.118,447.226 131.618,460.559 143,472.5C 143.333,473.833 143.667,475.167 144,476.5C 148.694,481.86 153.694,486.86 159,491.5C 160.452,495.802 162.952,499.469 166.5,502.5C 174.81,508.812 182.81,515.479 190.5,522.5C 191.452,524.045 191.785,525.712 191.5,527.5C 196.219,529.051 200.219,531.884 203.5,536C 209.928,540.244 216.261,544.744 222.5,549.5C 223.386,550.325 223.719,551.325 223.5,552.5C 226.463,553.765 229.463,555.098 232.5,556.5C 234.071,559.093 236.404,560.093 239.5,559.5C 239.5,560.5 239.5,561.5 239.5,562.5C 242.81,562.461 245.476,563.794 247.5,566.5C 254.516,567.891 260.849,570.724 266.5,575C 272.5,575.667 278.5,575.667 284.5,575C 286.693,572.975 287.693,570.475 287.5,567.5C 289.592,567.439 291.092,566.439 292,564.5C 295.032,557.221 298.532,550.221 302.5,543.5C 306.518,526.394 309.351,509.06 311,491.5C 315.533,487.109 318.533,481.776 320,475.5C 322.092,472.319 324.425,469.319 327,466.5C 327.483,465.552 327.649,464.552 327.5,463.5C 328.5,463.5 329.5,463.5 330.5,463.5C 330.626,460.532 332.126,458.532 335,457.5C 335.429,453.898 337.263,451.232 340.5,449.5C 342.796,443.897 346.296,439.23 351,435.5C 351.49,434.207 351.657,432.873 351.5,431.5C 352.5,431.5 353.5,431.5 354.5,431.5C 354.343,430.127 354.51,428.793 355,427.5C 363.316,416.026 369.983,403.693 375,390.5C 378.942,372.337 376.275,355.337 367,339.5C 361.732,332.625 356.232,325.958 350.5,319.5C 349.476,318.147 348.143,317.48 346.5,317.5C 346.5,316.5 346.5,315.5 346.5,314.5C 345.448,314.649 344.448,314.483 343.5,314C 328.182,298.571 309.515,292.071 287.5,294.5C 288.985,292.769 290.985,291.769 293.5,291.5C 310.097,289.787 325.764,292.454 340.5,299.5C 346.178,302.009 351.178,305.509 355.5,310C 357.809,310.756 359.809,310.256 361.5,308.5C 361.008,299.175 361.508,289.842 363,280.5C 372.703,262.583 387.537,256.75 407.5,263C 423.472,271.625 429.472,284.958 425.5,303C 418.992,320.595 406.326,328.595 387.5,327C 382.46,322.986 378.46,323.819 375.5,329.5C 379.596,334.245 383.43,339.245 387,344.5C 388.799,348.07 390.299,351.737 391.5,355.5 Z"/></g>
<g><path style="opacity:1" fill="#e6c378" d="M 391.5,355.5 C 392.117,355.611 392.617,355.944 393,356.5C 396.521,368.101 397.355,379.768 395.5,391.5C 396.399,379.209 395.065,367.209 391.5,355.5 Z"/></g>
<g><path style="opacity:1" fill="#faeaaa" d="M 127.5,369.5 C 122.423,371.341 117.09,372.675 111.5,373.5C 116.297,370.459 121.63,369.126 127.5,369.5 Z"/></g>
<g><path style="opacity:1" fill="#f1d770" d="M 207.5,342.5 C 203.799,344.782 200.299,347.449 197,350.5C 196.727,352.101 196.227,353.601 195.5,355C 190.991,354.848 187.325,356.515 184.5,360C 182.846,360.608 181.179,361.108 179.5,361.5C 186.289,356.592 192.955,351.426 199.5,346C 201.818,344.007 204.484,342.841 207.5,342.5 Z"/></g>
<g><path style="opacity:1" fill="#f3cc4a" d="M 287.5,294.5 C 309.515,292.071 328.182,298.571 343.5,314C 344.448,314.483 345.448,314.649 346.5,314.5C 346.5,315.5 346.5,316.5 346.5,317.5C 348.143,317.48 349.476,318.147 350.5,319.5C 356.232,325.958 361.732,332.625 367,339.5C 376.275,355.337 378.942,372.337 375,390.5C 369.983,403.693 363.316,416.026 355,427.5C 354.51,428.793 354.343,430.127 354.5,431.5C 353.5,431.5 352.5,431.5 351.5,431.5C 351.657,432.873 351.49,434.207 351,435.5C 346.296,439.23 342.796,443.897 340.5,449.5C 337.263,451.232 335.429,453.898 335,457.5C 332.126,458.532 330.626,460.532 330.5,463.5C 329.5,463.5 328.5,463.5 327.5,463.5C 327.649,464.552 327.483,465.552 327,466.5C 324.425,469.319 322.092,472.319 320,475.5C 318.533,481.776 315.533,487.109 311,491.5C 309.351,509.06 306.518,526.394 302.5,543.5C 298.532,550.221 295.032,557.221 292,564.5C 291.092,566.439 289.592,567.439 287.5,567.5C 287.693,570.475 286.693,572.975 284.5,575C 278.5,575.667 272.5,575.667 266.5,575C 260.849,570.724 254.516,567.891 247.5,566.5C 245.476,563.794 242.81,562.461 239.5,562.5C 239.5,561.5 239.5,560.5 239.5,559.5C 236.404,560.093 234.071,559.093 232.5,556.5C 229.463,555.098 226.463,553.765 223.5,552.5C 223.719,551.325 223.386,550.325 222.5,549.5C 216.261,544.744 209.928,540.244 203.5,536C 200.219,531.884 196.219,529.051 191.5,527.5C 191.785,525.712 191.452,524.045 190.5,522.5C 182.81,515.479 174.81,508.812 166.5,502.5C 162.952,499.469 160.452,495.802 159,491.5C 153.694,486.86 148.694,481.86 144,476.5C 143.667,475.167 143.333,473.833 143,472.5C 131.618,460.559 122.118,447.226 114.5,432.5C 113.675,431.614 112.675,431.281 111.5,431.5C 111.799,429.396 111.466,427.396 110.5,425.5C 105.283,416.314 101.116,406.647 98,396.5C 96.8466,392.213 96.0133,387.879 95.5,383.5C 94.5,383.5 93.5,383.5 92.5,383.5C 93.4663,381.943 94.7996,380.61 96.5,379.5C 101.385,377.124 106.385,375.124 111.5,373.5C 117.09,372.675 122.423,371.341 127.5,369.5C 139.692,367.941 152.025,366.441 164.5,365C 169.59,364.076 174.59,362.909 179.5,361.5C 181.179,361.108 182.846,360.608 184.5,360C 187.325,356.515 190.991,354.848 195.5,355C 196.227,353.601 196.727,352.101 197,350.5C 200.299,347.449 203.799,344.782 207.5,342.5C 209.101,340.147 211.101,337.98 213.5,336C 218.574,332.605 223.907,329.605 229.5,327C 232.286,323.109 235.952,320.442 240.5,319C 243.174,315.207 246.841,312.874 251.5,312C 256.972,305.984 263.639,302.484 271.5,301.5C 271.5,300.5 271.5,299.5 271.5,298.5C 276.833,297.167 282.167,295.833 287.5,294.5 Z"/></g>
<g><path style="opacity:1" fill="#f9e957" d="M 233.5,328.5 C 253.698,327.397 260.032,336.231 252.5,355C 241.892,362.442 233.225,360.775 226.5,350C 225.438,346.211 225.271,342.377 226,338.5C 227.919,334.746 230.419,331.412 233.5,328.5 Z"/></g>
<g><path style="opacity:1" fill="#fae3a4" d="M 392.5,303.5 C 393.783,306.365 393.783,309.365 392.5,312.5C 394.743,313.474 397.076,313.808 399.5,313.5C 396.713,314.477 393.713,314.81 390.5,314.5C 391.167,312.167 391.833,309.833 392.5,307.5C 392.5,306.167 392.5,304.833 392.5,303.5 Z"/></g>
<g><path style="opacity:1" fill="#f9e957" d="M 283.5,307.5 C 295.5,307.5 307.5,307.5 319.5,307.5C 319.5,308.5 319.5,309.5 319.5,310.5C 322.216,310.678 324.883,311.178 327.5,312C 331.582,315.038 335.915,317.538 340.5,319.5C 341.059,324.487 340.225,329.153 338,333.5C 331.964,336.432 325.797,339.265 319.5,342C 303.415,344.163 287.415,343.997 271.5,341.5C 271.5,340.5 271.5,339.5 271.5,338.5C 260.361,335.517 257.028,328.684 261.5,318C 267.415,312.544 274.415,309.544 282.5,309C 283.056,308.617 283.389,308.117 283.5,307.5 Z"/></g>
<g><path style="opacity:1" fill="#f1cb49" d="M 373.5,287.5 C 373.5,290.5 373.5,293.5 373.5,296.5C 375.998,295.373 378.664,294.706 381.5,294.5C 386.029,296.354 389.696,299.354 392.5,303.5C 392.5,304.833 392.5,306.167 392.5,307.5C 388.508,310.837 385.174,314.837 382.5,319.5C 381.071,320.935 379.405,321.935 377.5,322.5C 374.296,320.419 371.296,318.086 368.5,315.5C 367.63,313.593 366.63,311.76 365.5,310C 367.003,308.079 367.669,305.912 367.5,303.5C 369.722,303.822 371.556,303.155 373,301.5C 372.403,296.687 372.569,292.021 373.5,287.5 Z"/></g>
<g><path style="opacity:1" fill="#f9e4ab" d="M 373.5,287.5 C 373.833,287.5 374.167,287.5 374.5,287.5C 374.336,290.187 374.503,292.854 375,295.5C 376.822,293.955 378.989,293.288 381.5,293.5C 387.046,294.71 390.712,298.044 392.5,303.5C 389.696,299.354 386.029,296.354 381.5,294.5C 378.664,294.706 375.998,295.373 373.5,296.5C 373.5,293.5 373.5,290.5 373.5,287.5 Z"/></g>
<g><path style="opacity:1" fill="#feedc3" d="M 293.5,291.5 C 303.341,290.177 313.341,290.177 323.5,291.5C 328.691,293.43 334.024,294.764 339.5,295.5C 339.433,296.959 339.766,298.292 340.5,299.5C 325.764,292.454 310.097,289.787 293.5,291.5 Z"/></g>
<g><path style="opacity:1" fill="#fcf5e2" d="M 386.5,273.5 C 392.732,272.939 398.732,273.772 404.5,276C 406.311,278.978 408.644,281.478 411.5,283.5C 413.713,289.39 414.046,295.39 412.5,301.5C 409.443,306.891 405.109,310.891 399.5,313.5C 397.076,313.808 394.743,313.474 392.5,312.5C 393.783,309.365 393.783,306.365 392.5,303.5C 390.712,298.044 387.046,294.71 381.5,293.5C 378.989,293.288 376.822,293.955 375,295.5C 374.503,292.854 374.336,290.187 374.5,287.5C 376.333,284.694 378,281.694 379.5,278.5C 382.154,277.032 384.487,275.365 386.5,273.5 Z"/></g>
<g><path style="opacity:1" fill="#d4953e" d="M 412.5,301.5 C 414.046,295.39 413.713,289.39 411.5,283.5C 408.644,281.478 406.311,278.978 404.5,276C 398.732,273.772 392.732,272.939 386.5,273.5C 394.71,268.915 402.376,269.748 409.5,276C 410.448,276.483 411.448,276.649 412.5,276.5C 412.393,278.903 413.393,280.736 415.5,282C 414.484,282.519 413.818,283.353 413.5,284.5C 414.569,289.8 414.736,295.134 414,300.5C 413.617,301.056 413.117,301.389 412.5,301.5 Z"/></g>
<g><path style="opacity:1" fill="#0f0e0c" d="M 123.5,48.5 C 124.873,48.3433 126.207,48.51 127.5,49C 154.68,76.0137 181.68,103.18 208.5,130.5C 181.443,158.558 153.776,185.891 125.5,212.5C 97.9043,186.406 70.7376,159.739 44,132.5C 43.3333,131.167 43.3333,129.833 44,128.5C 70.7016,101.965 97.2016,75.2987 123.5,48.5 Z"/></g>
<g><path style="opacity:1" fill="#f9f4e4" d="M 124.5,54.5 C 150.763,79.095 176.429,104.428 201.5,130.5C 176.5,156.167 151.167,181.5 125.5,206.5C 99.8333,181.5 74.5,156.167 49.5,130.5C 74.5211,105.146 99.5211,79.8125 124.5,54.5 Z"/></g>
<g><path style="opacity:1" fill="#1c1a17" d="M 149.5,135.5 C 155.788,139.912 158.788,146.079 158.5,154C 157.92,167.257 151.253,175.924 138.5,180C 129.158,181.966 119.825,181.966 110.5,180C 107.761,178.974 105.428,177.474 103.5,175.5C 119,182.843 134,182.01 148.5,173C 155.878,165.668 158.378,156.834 156,146.5C 154.326,142.476 152.159,138.809 149.5,135.5 Z"/></g>
<g><path style="opacity:1" fill="#e9e6da" d="M 146.5,95.5 C 146.062,95.4346 145.728,95.6012 145.5,96C 152.033,101.795 154.2,108.961 152,117.5C 149.366,123.464 144.866,127.297 138.5,129C 141.407,129.718 144.074,129.218 146.5,127.5C 148.59,129.692 149.59,132.359 149.5,135.5C 152.159,138.809 154.326,142.476 156,146.5C 158.378,156.834 155.878,165.668 148.5,173C 134,182.01 119,182.843 103.5,175.5C 100.702,174.294 98.5355,172.294 97,169.5C 96.3923,167.846 95.8923,166.179 95.5,164.5C 104.325,174.993 115.658,178.826 129.5,176C 150.853,171.982 157.686,159.815 150,139.5C 148.954,137.91 147.787,136.41 146.5,135C 142.099,132.471 137.766,129.971 133.5,127.5C 147.827,122.524 151.994,113.19 146,99.5C 138.365,92.1265 129.198,89.1265 118.5,90.5C 123.363,90.0163 128.197,89.0163 133,87.5C 137.438,89.6629 141.938,92.3295 146.5,95.5 Z"/></g>
<g><path style="opacity:1" fill="#2f2b24" d="M 117.5,134.5 C 123.866,133.53 129.533,135.03 134.5,139C 128.778,137.107 122.778,136.107 116.5,136C 117.056,135.617 117.389,135.117 117.5,134.5 Z"/></g>
<g><path style="opacity:1" fill="#22201d" d="M 146.5,95.5 C 154.439,101.815 156.606,109.815 153,119.5C 151.043,122.46 148.876,125.126 146.5,127.5C 144.074,129.218 141.407,129.718 138.5,129C 144.866,127.297 149.366,123.464 152,117.5C 154.2,108.961 152.033,101.795 145.5,96C 145.728,95.6012 146.062,95.4346 146.5,95.5 Z"/></g>
<g><path style="opacity:1" fill="#26231d" d="M 119.5,116.5 C 121.028,116.517 121.528,117.184 121,118.5C 116.611,124.288 111.111,125.788 104.5,123C 109.1,123.011 113.433,122.011 117.5,120C 118.823,119.184 119.489,118.017 119.5,116.5 Z"/></g>
<g><path style="opacity:1" fill="#090907" d="M 118.5,90.5 C 129.198,89.1265 138.365,92.1265 146,99.5C 151.994,113.19 147.827,122.524 133.5,127.5C 137.766,129.971 142.099,132.471 146.5,135C 147.787,136.41 148.954,137.91 150,139.5C 157.686,159.815 150.853,171.982 129.5,176C 115.658,178.826 104.325,174.993 95.5,164.5C 94.5045,161.179 93.5045,157.846 92.5,154.5C 97.1958,152.108 101.696,149.441 106,146.5C 105.003,151.874 105.336,157.208 107,162.5C 108.413,166.748 111.246,169.415 115.5,170.5C 116.209,171.404 117.209,171.737 118.5,171.5C 128.64,173.017 135.473,169.017 139,159.5C 141.974,146.726 137.808,137.226 126.5,131C 122.33,130.675 118.33,130.509 114.5,130.5C 115.167,128.833 115.833,127.167 116.5,125.5C 130.399,126.427 137.232,120.094 137,106.5C 131.584,95.2484 123.084,92.0818 111.5,97C 105.71,102.447 105.043,108.447 109.5,115C 111.898,115.374 114.231,115.374 116.5,115C 114.63,118.602 111.63,120.102 107.5,119.5C 97.7535,118.57 93.9202,113.236 96,103.5C 101.148,95.1735 108.648,90.8401 118.5,90.5 Z"/></g>
<g><path style="opacity:1" fill="#848278" d="M 114.5,166.5 C 117.618,167.232 118.951,168.899 118.5,171.5C 117.209,171.737 116.209,171.404 115.5,170.5C 116.239,170.631 116.906,170.464 117.5,170C 115.937,169.241 114.937,168.074 114.5,166.5 Z"/></g>
<g><path style="opacity:1" fill="#272421" d="M 114.5,166.5 C 109.235,161.33 108.235,155.33 111.5,148.5C 111.455,152.231 111.621,156.231 112,160.5C 113.122,162.407 113.955,164.407 114.5,166.5 Z"/></g>
<g><path style="opacity:1" fill="#1f1d18" d="M 116.5,99.5 C 124.931,97.5567 131.264,100.223 135.5,107.5C 135.333,107.833 135.167,108.167 135,108.5C 128.909,99.7424 121.576,98.409 113,104.5C 112.022,107.669 112.522,110.503 114.5,113C 113.004,113.507 111.837,113.007 111,111.5C 109.375,105.757 111.208,101.757 116.5,99.5 Z"/></g>
<g><path style="opacity:1" fill="#dcdad1" d="M -0.5,729.5 C 0.833333,730.167 1.83333,731.167 2.5,732.5C 1.5,732.5 0.5,732.5 -0.5,732.5C -0.5,731.5 -0.5,730.5 -0.5,729.5 Z"/></g>
<g><path style="opacity:1" fill="#dbd9d0" d="M 516.5,730.5 C 516.5,731.167 516.5,731.833 516.5,732.5C 515.5,732.5 514.5,732.5 513.5,732.5C 514.29,731.599 515.29,730.932 516.5,730.5 Z"/></g>
</svg>
