<?xml version="1.0" encoding="UTF-8"?>
<!-- Author: Jiachun Li -->
<!DOCTYPE svg PUBLIC "-//W3C//DTD SVG 1.1//EN" "http://www.w3.org/Graphics/SVG/1.1/DTD/svg11.dtd">
<svg xmlns="http://www.w3.org/2000/svg" version="1.1" width="516px" height="733px" style="shape-rendering:geometricPrecision; text-rendering:geometricPrecision; image-rendering:optimizeQuality; fill-rule:evenodd; clip-rule:evenodd" xmlns:xlink="http://www.w3.org/1999/xlink">
<g><path style="opacity:1" fill="#020202" d="M -0.5,-0.5 C 170.833,-0.5 342.167,-0.5 513.5,-0.5C 513.833,0.5 514.5,1.16667 515.5,1.5C 515.5,244.5 515.5,487.5 515.5,730.5C 514.29,730.932 513.29,731.599 512.5,732.5C 342.167,732.5 171.833,732.5 1.5,732.5C 1.16667,731.5 0.5,730.833 -0.5,730.5C -0.5,486.833 -0.5,243.167 -0.5,-0.5 Z"/></g>
<g><path style="opacity:1" fill="#c5c6c0" d="M 513.5,-0.5 C 514.167,-0.5 514.833,-0.5 515.5,-0.5C 515.5,0.166667 515.5,0.833333 515.5,1.5C 514.5,1.16667 513.833,0.5 513.5,-0.5 Z"/></g>
<g><path style="opacity:1" fill="#9a978e" d="M 502.5,13.5 C 339.167,13.5 175.833,13.5 12.5,13.5C 12.5,248.5 12.5,483.5 12.5,718.5C 11.5002,483.334 11.1669,248.001 11.5,12.5C 175.334,12.167 339.001,12.5003 502.5,13.5 Z"/></g>
<g><path style="opacity:1" fill="#fbf7ea" d="M 502.5,13.5 C 502.5,248.5 502.5,483.5 502.5,718.5C 339.167,718.5 175.833,718.5 12.5,718.5C 12.5,483.5 12.5,248.5 12.5,13.5C 175.833,13.5 339.167,13.5 502.5,13.5 Z"/></g>
<g><path style="opacity:1" fill="#fcf7e7" d="M 488.5,708.5 C 489.822,708.67 490.989,708.337 492,707.5C 492.667,479.833 492.667,252.167 492,24.5C 335.5,23.1674 179,23.1674 22.5,24.5C 19.3099,26.2601 18.8099,28.5934 21,31.5C 21.6667,255.5 21.6667,479.5 21,703.5C 20.0975,704.701 18.9308,705.535 17.5,706C 19.5296,707.931 21.8629,709.431 24.5,710.5C 22.824,711.423 20.6574,712.09 18,712.5C 16.5643,712.441 15.231,712.108 14,711.5C 13.1667,479.499 13.3333,247.499 14.5,15.5C 176.477,14.1721 338.477,14.1721 500.5,15.5C 500.657,249.236 500.49,482.902 500,716.5C 338.609,716.826 177.109,716.493 15.5,715.5C 19.5,714.667 23.5,713.833 27.5,713C 26.8333,712.667 26.1667,712.333 25.5,712C 26.8333,711.333 26.8333,710.667 25.5,710C 177.361,709.169 329.194,709.336 481,710.5C 483.669,709.984 486.169,709.317 488.5,708.5 Z"/></g>
<g><path style="opacity:1" fill="#040302" d="M 488.5,708.5 C 333.263,708.832 178.097,708.499 23,707.5C 22.5,479.834 22.3333,252.167 22.5,24.5C 179,23.1674 335.5,23.1674 492,24.5C 492.667,252.167 492.667,479.833 492,707.5C 490.989,708.337 489.822,708.67 488.5,708.5 Z"/></g>
<g><path style="opacity:1" fill="#fcf6e6" d="M 486.5,28.5 C 486.5,253.167 486.5,477.833 486.5,702.5C 333.666,702.167 180.999,702.5 28.5,703.5C 27.5002,478.667 27.1669,253.667 27.5,28.5C 180.5,28.5 333.5,28.5 486.5,28.5 Z"/></g>
<g><path style="opacity:1" fill="#0f0e0c" d="M 122.5,48.5 C 123.873,48.3433 125.207,48.51 126.5,49C 153.739,75.7376 180.406,102.904 206.5,130.5C 180.406,158.096 153.739,185.262 126.5,212C 125.167,212.667 123.833,212.667 122.5,212C 95.2611,185.262 68.5945,158.096 42.5,130.5C 42.6667,129.833 42.8333,129.167 43,128.5C 69.7016,101.965 96.2016,75.2987 122.5,48.5 Z"/></g>
<g><path style="opacity:1" fill="#f9f4e5" d="M 123.5,54.5 C 149.763,79.095 175.429,104.428 200.5,130.5C 175.5,156.167 150.167,181.5 124.5,206.5C 98.8333,181.5 73.5,156.167 48.5,130.5C 73.5211,105.146 98.5211,79.8125 123.5,54.5 Z"/></g>
<g><path style="opacity:1" fill="#8e8a7d" d="M 152.5,90.5 C 151.833,91.8333 151.167,93.1667 150.5,94.5C 150.726,91.7508 150.393,89.0841 149.5,86.5C 149.846,85.3044 150.346,85.3044 151,86.5C 151.41,87.9007 151.91,89.234 152.5,90.5 Z"/></g>
<g><path style="opacity:1" fill="#0a0908" d="M 131.5,102.5 C 121.833,102.5 112.167,102.5 102.5,102.5C 102.175,110.019 102.508,117.352 103.5,124.5C 104.458,124.047 105.292,123.381 106,122.5C 106.499,117.177 106.666,111.844 106.5,106.5C 117.873,106.793 129.206,106.293 140.5,105C 146.095,103.573 149.428,100.073 150.5,94.5C 151.167,93.1667 151.833,91.8333 152.5,90.5C 151.995,100.514 146.662,106.347 136.5,108C 127.173,108.5 117.839,108.666 108.5,108.5C 108.334,112.846 108.501,117.179 109,121.5C 124.055,115.404 137.055,118.404 148,130.5C 153.188,140.506 153.855,150.84 150,161.5C 146.381,168.451 140.881,173.284 133.5,176C 121.739,178.848 110.406,177.848 99.5,173C 93.255,168.836 90.255,163.169 90.5,156C 94.9287,153.898 99.0954,151.398 103,148.5C 102.589,155.753 104.256,162.419 108,168.5C 113.205,172.319 119.038,173.486 125.5,172C 132.479,169.681 136.646,164.848 138,157.5C 140.577,148.081 139.577,139.081 135,130.5C 133.062,127.894 130.562,126.061 127.5,125C 116.542,122.402 107.709,125.568 101,134.5C 99.5405,134.192 98.3739,133.525 97.5,132.5C 97.5,119.5 97.5,106.5 97.5,93.5C 111.344,93.829 125.01,93.4957 138.5,92.5C 142.509,92.9864 144.342,91.3197 144,87.5C 138.633,89.1366 137.466,87.6366 140.5,83C 148.843,85.0044 150.676,89.8377 146,97.5C 141.706,100.654 136.873,102.32 131.5,102.5 Z"/></g>
<g><path style="opacity:1" fill="#84817a" d="M 131.5,102.5 C 122.348,103.494 113.015,103.827 103.5,103.5C 103.5,110.5 103.5,117.5 103.5,124.5C 102.508,117.352 102.175,110.019 102.5,102.5C 112.167,102.5 121.833,102.5 131.5,102.5 Z"/></g>
<g><path style="opacity:1" fill="#87857c" d="M 138.5,92.5 C 125.01,93.4957 111.344,93.829 97.5,93.5C 97.5,106.5 97.5,119.5 97.5,132.5C 96.5044,119.344 96.1711,106.01 96.5,92.5C 110.5,92.5 124.5,92.5 138.5,92.5 Z"/></g>
<g><path style="opacity:1" fill="#2f2c25" d="M 115.5,127.5 C 123.799,126.323 130.466,128.99 135.5,135.5C 135.333,135.833 135.167,136.167 135,136.5C 128.833,129.465 121.333,127.631 112.5,131C 109.689,132.644 107.356,134.81 105.5,137.5C 104.479,136.998 104.312,136.332 105,135.5C 107.94,131.963 111.44,129.297 115.5,127.5 Z"/></g>
<g><path style="opacity:1" fill="#221f1a" d="M 108.5,149.5 C 107.65,159.294 111.65,166.46 120.5,171C 109.669,167.85 105.669,160.684 108.5,149.5 Z"/></g>
<g><path style="opacity:1" fill="#211f1c" d="M 148.5,127.5 C 158.699,137.372 161.199,149.038 156,162.5C 147.542,178.98 134.042,185.813 115.5,183C 111.735,181.951 108.068,180.618 104.5,179C 103.304,178.346 103.304,177.846 104.5,177.5C 122.209,185.276 137.709,182.276 151,168.5C 159.028,154.159 158.195,140.492 148.5,127.5 Z"/></g>
<g><path style="opacity:1" fill="#e8c473" d="M 421.5,278.5 C 423.941,280.075 425.107,282.408 425,285.5C 425.819,291.681 425.653,297.681 424.5,303.5C 425.113,294.936 424.113,286.602 421.5,278.5 Z"/></g>
<g><path style="opacity:1" fill="#f1cd5d" d="M 291.5,294.5 C 287.65,297.056 283.316,298.556 278.5,299C 276.941,299.98 275.274,300.813 273.5,301.5C 274.025,302.192 274.692,302.692 275.5,303C 271.293,304.736 266.959,306.069 262.5,307C 260.945,309.555 258.778,311.388 256,312.5C 255.667,312.167 255.333,311.833 255,311.5C 252.069,312.716 249.236,314.05 246.5,315.5C 257.637,306.492 270.137,299.826 284,295.5C 286.498,295.083 288.998,294.749 291.5,294.5 Z"/></g>
<g><path style="opacity:1" fill="#ecc77b" d="M 424.5,303.5 C 424.231,307.474 423.064,311.14 421,314.5C 419.568,316.439 417.735,317.772 415.5,318.5C 418.372,313.525 421.372,308.525 424.5,303.5 Z"/></g>
<g><path style="opacity:1" fill="#f3cc49" d="M 291.5,294.5 C 300.454,293.766 309.121,294.932 317.5,298C 320.952,301.06 324.952,303.06 329.5,304C 333.268,306.486 336.934,309.153 340.5,312C 343.634,315.498 347.134,318.665 351,321.5C 351.333,322.5 351.667,323.5 352,324.5C 371.308,342.425 378.642,364.425 374,390.5C 370.301,400.183 366.634,409.85 363,419.5C 353.694,429.252 345.527,439.919 338.5,451.5C 337.675,452.386 336.675,452.719 335.5,452.5C 334.199,455.996 332.532,459.329 330.5,462.5C 326.509,466.509 323.009,470.842 320,475.5C 319.51,476.793 319.343,478.127 319.5,479.5C 318.448,479.351 317.448,479.517 316.5,480C 315.862,482.78 314.362,484.947 312,486.5C 308.892,496.23 307.225,506.23 307,516.5C 304.542,527.618 302.042,538.784 299.5,550C 294.964,558.424 289.964,566.591 284.5,574.5C 276.791,575.857 269.124,575.69 261.5,574C 253.662,570.58 245.995,566.913 238.5,563C 234.665,558.584 229.998,555.418 224.5,553.5C 219.467,548.827 213.801,545.493 207.5,543.5C 205.755,537.919 202.088,534.086 196.5,532C 188.817,524.317 181.15,516.65 173.5,509C 170.885,508.145 168.552,506.812 166.5,505C 165.024,502.357 163.024,500.19 160.5,498.5C 160.081,494.246 157.914,491.246 154,489.5C 151.882,484.544 148.382,481.211 143.5,479.5C 143.657,478.127 143.49,476.793 143,475.5C 139.774,472.352 136.44,469.352 133,466.5C 131.705,461.457 129.872,456.791 127.5,452.5C 126.325,452.719 125.325,452.386 124.5,451.5C 123.868,449.035 122.368,447.369 120,446.5C 119.667,445.167 119.333,443.833 119,442.5C 113.987,434.467 108.987,426.467 104,418.5C 101.379,410.924 99.046,403.257 97,395.5C 95.9847,391.56 95.4847,387.56 95.5,383.5C 94.5,383.5 93.5,383.5 92.5,383.5C 97.6289,380.392 102.962,377.559 108.5,375C 115.149,373.911 121.482,372.411 127.5,370.5C 134.507,370.166 141.507,369.666 148.5,369C 149.737,368.768 150.737,368.268 151.5,367.5C 155.846,367.666 160.179,367.499 164.5,367C 165.416,366.722 166.082,366.222 166.5,365.5C 176.419,364.265 184.752,359.932 191.5,352.5C 199.575,348.263 206.908,342.763 213.5,336C 224.244,328.635 235.244,321.801 246.5,315.5C 249.236,314.05 252.069,312.716 255,311.5C 255.333,311.833 255.667,312.167 256,312.5C 258.778,311.388 260.945,309.555 262.5,307C 266.959,306.069 271.293,304.736 275.5,303C 274.692,302.692 274.025,302.192 273.5,301.5C 275.274,300.813 276.941,299.98 278.5,299C 283.316,298.556 287.65,297.056 291.5,294.5 Z"/></g>
<g><path style="opacity:1" fill="#f9e957" d="M 287.5,307.5 C 301.997,306.562 315.997,308.728 329.5,314C 332.978,316.15 336.145,318.65 339,321.5C 339.667,324.833 339.667,328.167 339,331.5C 337.812,332.563 337.312,333.897 337.5,335.5C 333.25,337.126 328.917,338.459 324.5,339.5C 324.5,340.5 324.5,341.5 324.5,342.5C 304.98,346.937 285.646,346.27 266.5,340.5C 264.14,337.473 261.473,334.806 258.5,332.5C 257.34,328.541 257.173,324.541 258,320.5C 263.567,318.426 268.4,315.259 272.5,311C 277.511,309.292 282.511,308.126 287.5,307.5 Z"/></g>
<g><path style="opacity:1" fill="#f9e857" d="M 232.5,329.5 C 247.077,325.764 254.743,331.264 255.5,346C 252.629,356.498 245.629,361.164 234.5,360C 225.949,355.688 222.783,348.855 225,339.5C 226.947,335.724 229.447,332.39 232.5,329.5 Z"/></g>
<g><path style="opacity:1" fill="#e8ad3e" d="M 421.5,278.5 C 424.113,286.602 425.113,294.936 424.5,303.5C 421.372,308.525 418.372,313.525 415.5,318.5C 409.169,323.815 401.835,327.148 393.5,328.5C 388.459,327.631 383.459,326.797 378.5,326C 376.981,327.351 375.648,328.851 374.5,330.5C 377.175,334.005 380.009,337.339 383,340.5C 383.483,341.448 383.649,342.448 383.5,343.5C 386.214,348.31 388.381,353.31 390,358.5C 390.562,360.866 390.396,363.199 389.5,365.5C 390.169,368.028 391.002,368.028 392,365.5C 391.851,369.483 391.351,373.483 390.5,377.5C 390.833,379.5 391.167,381.5 391.5,383.5C 392.324,380.215 392.824,376.882 393,373.5C 394.758,380.755 394.925,388.089 393.5,395.5C 393.5,396.833 393.5,398.167 393.5,399.5C 390.381,405.774 387.714,412.441 385.5,419.5C 384.52,422.116 383.02,424.449 381,426.5C 379.359,433.146 376.026,438.812 371,443.5C 367.343,449.979 363.509,456.313 359.5,462.5C 358.675,463.386 357.675,463.719 356.5,463.5C 356.509,465.308 356.009,466.975 355,468.5C 345.187,480.783 335.854,493.449 327,506.5C 324.986,510.604 323.82,514.938 323.5,519.5C 321.84,524.472 320.673,529.806 320,535.5C 319.501,539.821 319.334,544.154 319.5,548.5C 319.5,548.833 319.5,549.167 319.5,549.5C 318.223,550.694 317.556,552.36 317.5,554.5C 316.773,561.588 315.773,568.588 314.5,575.5C 311.724,584.923 307.89,593.923 303,602.5C 300.715,605.432 298.215,608.098 295.5,610.5C 289.217,611.584 282.884,611.751 276.5,611C 273.014,609.376 269.347,608.21 265.5,607.5C 261.38,605.443 257.047,603.943 252.5,603C 245.472,598.153 238.139,593.819 230.5,590C 220.527,583.631 211.193,576.464 202.5,568.5C 199.926,567.536 197.592,566.036 195.5,564C 193.963,562.89 193.297,561.39 193.5,559.5C 192.448,559.649 191.448,559.483 190.5,559C 188.474,555.808 185.807,554.641 182.5,555.5C 182.762,554.022 182.429,552.689 181.5,551.5C 178.513,549.504 176.513,546.838 175.5,543.5C 174.127,543.657 172.793,543.49 171.5,543C 168.734,539.478 165.734,536.145 162.5,533C 161.552,532.517 160.552,532.351 159.5,532.5C 154.68,525 148.68,518.334 141.5,512.5C 139.543,510.445 138.043,508.112 137,505.5C 136.329,504.748 135.496,504.414 134.5,504.5C 132.311,501.681 130.645,498.681 129.5,495.5C 128.325,495.719 127.325,495.386 126.5,494.5C 123.642,491.674 121.308,488.674 119.5,485.5C 112.801,476.95 106.635,467.95 101,458.5C 100,457.833 99,457.167 98,456.5C 95.79,449.526 92.4566,443.193 88,437.5C 83.0781,426.849 79.4114,415.849 77,404.5C 76.3333,401.167 76.3333,397.833 77,394.5C 81.0015,389.125 86.1682,385.459 92.5,383.5C 93.5,383.5 94.5,383.5 95.5,383.5C 95.4847,387.56 95.9847,391.56 97,395.5C 99.046,403.257 101.379,410.924 104,418.5C 108.987,426.467 113.987,434.467 119,442.5C 119.333,443.833 119.667,445.167 120,446.5C 122.368,447.369 123.868,449.035 124.5,451.5C 125.325,452.386 126.325,452.719 127.5,452.5C 129.872,456.791 131.705,461.457 133,466.5C 136.44,469.352 139.774,472.352 143,475.5C 143.49,476.793 143.657,478.127 143.5,479.5C 148.382,481.211 151.882,484.544 154,489.5C 157.914,491.246 160.081,494.246 160.5,498.5C 163.024,500.19 165.024,502.357 166.5,505C 168.552,506.812 170.885,508.145 173.5,509C 181.15,516.65 188.817,524.317 196.5,532C 202.088,534.086 205.755,537.919 207.5,543.5C 213.801,545.493 219.467,548.827 224.5,553.5C 229.998,555.418 234.665,558.584 238.5,563C 245.995,566.913 253.662,570.58 261.5,574C 269.124,575.69 276.791,575.857 284.5,574.5C 289.964,566.591 294.964,558.424 299.5,550C 302.042,538.784 304.542,527.618 307,516.5C 307.225,506.23 308.892,496.23 312,486.5C 314.362,484.947 315.862,482.78 316.5,480C 317.448,479.517 318.448,479.351 319.5,479.5C 319.343,478.127 319.51,476.793 320,475.5C 323.009,470.842 326.509,466.509 330.5,462.5C 332.532,459.329 334.199,455.996 335.5,452.5C 336.675,452.719 337.675,452.386 338.5,451.5C 345.527,439.919 353.694,429.252 363,419.5C 366.634,409.85 370.301,400.183 374,390.5C 378.642,364.425 371.308,342.425 352,324.5C 351.667,323.5 351.333,322.5 351,321.5C 347.134,318.665 343.634,315.498 340.5,312C 336.934,309.153 333.268,306.486 329.5,304C 324.952,303.06 320.952,301.06 317.5,298C 309.121,294.932 300.454,293.766 291.5,294.5C 292.263,293.732 293.263,293.232 294.5,293C 311.792,289.622 327.459,292.955 341.5,303C 342.833,303.333 344.167,303.667 345.5,304C 349.656,306.485 353.489,309.318 357,312.5C 359.845,311.322 361.345,309.155 361.5,306C 357.456,290.469 361.456,277.469 373.5,267C 387.699,260.307 401.365,261.14 414.5,269.5C 417.263,272.252 419.597,275.252 421.5,278.5 Z"/></g>
<g><path style="opacity:1" fill="#f2cb4a" d="M 390.5,303.5 C 390.5,306.167 390.5,308.833 390.5,311.5C 389.325,311.281 388.325,311.614 387.5,312.5C 384.14,316.527 380.473,320.194 376.5,323.5C 371.297,320.464 367.297,316.297 364.5,311C 366.108,308.815 367.108,306.315 367.5,303.5C 369.936,303.683 372.103,303.016 374,301.5C 373.857,300.135 373.357,298.802 372.5,297.5C 373.791,297.737 374.791,297.404 375.5,296.5C 382.533,294.18 387.533,296.513 390.5,303.5 Z"/></g>
<g><path style="opacity:1" fill="#f6d997" d="M 383.5,276.5 C 380.921,279.584 378.087,282.584 375,285.5C 374.262,287.953 373.762,290.453 373.5,293C 373.608,294.681 374.275,295.848 375.5,296.5C 374.791,297.404 373.791,297.737 372.5,297.5C 370.694,287.56 374.361,280.56 383.5,276.5 Z"/></g>
<g><path style="opacity:1" fill="#d4933b" d="M 411.5,303.5 C 412.757,297.665 412.757,291.832 411.5,286C 407.867,281.853 403.867,278.353 399.5,275.5C 395.366,274.515 391.032,274.182 386.5,274.5C 387.091,273.849 387.757,273.182 388.5,272.5C 401.613,269.134 410.446,273.8 415,286.5C 415.881,291.808 415.381,296.975 413.5,302C 413.164,303.03 412.497,303.53 411.5,303.5 Z"/></g>
<g><path style="opacity:1" fill="#fcf6e3" d="M 399.5,275.5 C 403.867,278.353 407.867,281.853 411.5,286C 412.757,291.832 412.757,297.665 411.5,303.5C 407.946,308.542 403.279,312.375 397.5,315C 395.19,315.497 392.857,315.663 390.5,315.5C 391.242,313.406 391.909,311.239 392.5,309C 392.607,306.779 391.94,304.946 390.5,303.5C 387.533,296.513 382.533,294.18 375.5,296.5C 374.275,295.848 373.608,294.681 373.5,293C 373.762,290.453 374.262,287.953 375,285.5C 378.087,282.584 380.921,279.584 383.5,276.5C 388.772,275.6 394.105,275.267 399.5,275.5 Z"/></g>
<g><path style="opacity:1" fill="#ebbf84" d="M 386.5,274.5 C 391.032,274.182 395.366,274.515 399.5,275.5C 394.105,275.267 388.772,275.6 383.5,276.5C 383.821,274.952 384.821,274.285 386.5,274.5 Z"/></g>
<g><path style="opacity:1" fill="#f6ebaf" d="M 166.5,365.5 C 166.082,366.222 165.416,366.722 164.5,367C 160.179,367.499 155.846,367.666 151.5,367.5C 150.833,367.5 150.167,367.5 149.5,367.5C 154.735,365.55 160.402,364.883 166.5,365.5 Z"/></g>
<g><path style="opacity:1" fill="#f5de83" d="M 149.5,367.5 C 150.167,367.5 150.833,367.5 151.5,367.5C 150.737,368.268 149.737,368.768 148.5,369C 141.507,369.666 134.507,370.166 127.5,370.5C 134.537,368.305 141.871,367.305 149.5,367.5 Z"/></g>
<g><path style="opacity:1" fill="#e7b654" d="M 383.5,343.5 C 384.794,344.29 385.961,345.29 387,346.5C 395.193,362.2 397.36,378.533 393.5,395.5C 394.925,388.089 394.758,380.755 393,373.5C 392.824,376.882 392.324,380.215 391.5,383.5C 391.167,381.5 390.833,379.5 390.5,377.5C 391.351,373.483 391.851,369.483 392,365.5C 391.002,368.028 390.169,368.028 389.5,365.5C 390.396,363.199 390.562,360.866 390,358.5C 388.381,353.31 386.214,348.31 383.5,343.5 Z"/></g>
<g><path style="opacity:1" fill="#f9e1ac" d="M 393.5,399.5 C 391.84,406.158 390.173,412.825 388.5,419.5C 387.5,419.5 386.5,419.5 385.5,419.5C 387.714,412.441 390.381,405.774 393.5,399.5 Z"/></g>
<g><path style="opacity:1" fill="#fcf6e3" d="M 134.5,504.5 C 135.496,504.414 136.329,504.748 137,505.5C 138.043,508.112 139.543,510.445 141.5,512.5C 148.68,518.334 154.68,525 159.5,532.5C 160.552,532.351 161.552,532.517 162.5,533C 165.734,536.145 168.734,539.478 171.5,543C 172.793,543.49 174.127,543.657 175.5,543.5C 176.513,546.838 178.513,549.504 181.5,551.5C 182.429,552.689 182.762,554.022 182.5,555.5C 178.565,558.582 174.232,561.082 169.5,563C 153.245,567.453 140.079,562.953 130,549.5C 128.441,547.783 127.608,545.783 127.5,543.5C 126.249,534.825 126.249,526.159 127.5,517.5C 129.049,512.735 131.382,508.402 134.5,504.5 Z"/></g>
<g><path style="opacity:1" fill="#fef1c0" d="M 127.5,517.5 C 126.249,526.159 126.249,534.825 127.5,543.5C 125.061,538.92 124.061,533.92 124.5,528.5C 124.833,525.5 125.167,522.5 125.5,519.5C 126.182,518.757 126.849,518.091 127.5,517.5 Z"/></g>
<g><path style="opacity:1" fill="#eedba7" d="M 323.5,519.5 C 323.048,529.502 321.715,539.169 319.5,548.5C 319.334,544.154 319.501,539.821 320,535.5C 320.673,529.806 321.84,524.472 323.5,519.5 Z"/></g>
<g><path style="opacity:1" fill="#f2cc4a" d="M 119.5,485.5 C 121.308,488.674 123.642,491.674 126.5,494.5C 127.325,495.386 128.325,495.719 129.5,495.5C 130.645,498.681 132.311,501.681 134.5,504.5C 131.382,508.402 129.049,512.735 127.5,517.5C 126.849,518.091 126.182,518.757 125.5,519.5C 125.167,522.5 124.833,525.5 124.5,528.5C 124.061,533.92 125.061,538.92 127.5,543.5C 127.608,545.783 128.441,547.783 130,549.5C 140.079,562.953 153.245,567.453 169.5,563C 174.232,561.082 178.565,558.582 182.5,555.5C 185.807,554.641 188.474,555.808 190.5,559C 191.448,559.483 192.448,559.649 193.5,559.5C 193.297,561.39 193.963,562.89 195.5,564C 197.592,566.036 199.926,567.536 202.5,568.5C 199.886,568.277 198.219,569.444 197.5,572C 195.595,573.421 193.595,574.588 191.5,575.5C 186.991,576.71 182.658,578.377 178.5,580.5C 173.534,581.406 168.534,582.073 163.5,582.5C 154.624,579.865 145.624,577.698 136.5,576C 124.83,567.081 115.664,556.248 109,543.5C 107.649,535.203 107.316,526.87 108,518.5C 109.702,510.578 111.869,502.911 114.5,495.5C 115.373,493.114 116.873,491.114 119,489.5C 119.49,488.207 119.657,486.873 119.5,485.5 Z"/></g>
<g><path style="opacity:1" fill="#e7ae40" d="M 114.5,495.5 C 111.869,502.911 109.702,510.578 108,518.5C 107.316,526.87 107.649,535.203 109,543.5C 115.664,556.248 124.83,567.081 136.5,576C 145.624,577.698 154.624,579.865 163.5,582.5C 168.534,582.073 173.534,581.406 178.5,580.5C 182.658,578.377 186.991,576.71 191.5,575.5C 186.764,579.202 181.43,581.868 175.5,583.5C 164.885,585.606 154.219,585.939 143.5,584.5C 120.181,577.344 106.681,561.678 103,537.5C 100.633,524.021 103.299,511.688 111,500.5C 111.494,498.866 111.66,497.199 111.5,495.5C 112.5,495.5 113.5,495.5 114.5,495.5 Z"/></g>
<g><path style="opacity:1" fill="#f1d18c" d="M 319.5,549.5 C 319.271,558.568 317.604,567.234 314.5,575.5C 315.773,568.588 316.773,561.588 317.5,554.5C 317.556,552.36 318.223,550.694 319.5,549.5 Z"/></g>
<g><path style="opacity:1" fill="#e9bc62" d="M 175.5,583.5 C 167.438,587.155 158.772,588.322 149.5,587C 147.498,585.981 145.498,585.148 143.5,584.5C 154.219,585.939 164.885,585.606 175.5,583.5 Z"/></g>
<g><path style="opacity:1" fill="#f9e0a6" d="M 265.5,607.5 C 269.347,608.21 273.014,609.376 276.5,611C 282.884,611.751 289.217,611.584 295.5,610.5C 293.987,612.241 291.987,613.241 289.5,613.5C 284.863,612.78 280.197,612.28 275.5,612C 273.038,610.784 270.371,610.118 267.5,610C 266.619,609.292 265.953,608.458 265.5,607.5 Z"/></g>
<g><path style="opacity:1" fill="#f0ecdd" d="M 486.5,28.5 C 487.5,253.333 487.833,478.333 487.5,703.5C 334.5,703.5 181.5,703.5 28.5,703.5C 180.999,702.5 333.666,702.167 486.5,702.5C 486.5,477.833 486.5,253.167 486.5,28.5 Z"/></g>
<g><path style="opacity:1" fill="#cac9c3" d="M -0.5,730.5 C 0.5,730.833 1.16667,731.5 1.5,732.5C 0.833333,732.5 0.166667,732.5 -0.5,732.5C -0.5,731.833 -0.5,731.167 -0.5,730.5 Z"/></g>
<g><path style="opacity:1" fill="#dddad1" d="M 515.5,730.5 C 515.5,731.167 515.5,731.833 515.5,732.5C 514.5,732.5 513.5,732.5 512.5,732.5C 513.29,731.599 514.29,730.932 515.5,730.5 Z"/></g>
</svg>
