<?xml version="1.0" encoding="utf-8"?>
<!-- Author: Jiachun Li -->
<svg viewBox="0 0 1150 900" xmlns="http://www.w3.org/2000/svg">
    <rect x="0" y="0" width="1150" height="900" fill="#f1cb9d" />
    <rect x="50" y="50" width="1050" height="800" fill="#f1cb9d" stroke="black" stroke-width="4" />
    <!-- horizontal line -->
    <line x1="50" y1="250" x2="1100" y2="250" stroke="black" stroke-width="4" />
    <line x1="50" y1="650" x2="1100" y2="650" stroke="black" stroke-width="4" />
    <line x1="50" y1="350" x2="1100" y2="350" stroke="black" stroke-width="4" />    
    <line x1="50" y1="550" x2="1100" y2="550" stroke="black" stroke-width="4" />    
    <!-- vertical line -->
    <line x1="200" y1="50" x2="200" y2="250" stroke="black" stroke-width="4" />
    <line x1="200" y1="650" x2="200" y2="850" stroke="black" stroke-width="4" />
    <line x1="350" y1="50" x2="350" y2="250" stroke="black" stroke-width="4" />
    <line x1="350" y1="650" x2="350" y2="850" stroke="black" stroke-width="4" />
    <line x1="500" y1="50" x2="500" y2="250" stroke="black" stroke-width="4" />
    <line x1="500" y1="650" x2="500" y2="850" stroke="black" stroke-width="4" />
    <line x1="650" y1="50" x2="650" y2="250" stroke="black" stroke-width="4" />    
    <line x1="650" y1="650" x2="650" y2="850" stroke="black" stroke-width="4" />
    <line x1="800" y1="50" x2="800" y2="250" stroke="black" stroke-width="4" />    
    <line x1="800" y1="650" x2="800" y2="850" stroke="black" stroke-width="4" />
    <line x1="950" y1="50" x2="950" y2="250" stroke="black" stroke-width="4" />    
    <line x1="950" y1="650" x2="950" y2="850" stroke="black" stroke-width="4" />
    <line x1="350" y1="350" x2="350" y2="550" stroke="black" stroke-width="4" />
    <line x1="500" y1="350" x2="500" y2="550" stroke="black" stroke-width="4" />
    <line x1="800" y1="350" x2="800" y2="550" stroke="black" stroke-width="4" />
    <!-- prompt -->
    <text x="200" y="330" font-size="30" text-anchor="middle" dominant-baseline="central" fill="#000000">First Player Card</text>
    <text x="950" y="330" font-size="30" text-anchor="middle" dominant-baseline="central" fill="#000000">Second Player Card</text>    
    <text x="650" y="330" font-size="30" text-anchor="middle" dominant-baseline="central" fill="#000000">Decree Card</text>
    <text x="425" y="330" font-size="30" text-anchor="middle" dominant-baseline="central" fill="#000000">Score</text>
</svg>
