<?xml version="1.0" encoding="utf-8"?><!-- Author: Jiachun Li --><svg id="BackgroundSVG" viewBox="0 0 1150 900" xmlns="http://www.w3.org/2000/svg"><style>.t {font-size: 30px;text-anchor: middle;dominant-baseline:central;fill:#000;}</style><path d="M0,0h1150v900h-1150z" fill="#f1cb9d"/><path d="M50,50h1050v800h-1050zM50,250h1050M50,350h1050M50,550h1050M50,650h1050M200,50v200m0,400v200M350,50v200m0,400v200M500,50v200m0,100v200m0,100v200M650,50v200m0,100v200m0,100v200M800,50v200m0,400v200M950,50v200m0,400v200" fill="none" stroke="#000" stroke-width="4" stroke-linecap="round"/><text x="275" y="330" class="t">1st Player</text><text x="875" y="330" class="t">2nd Player</text><text x="575" y="330" class="t" fill="#000000">Decree Card</text></svg>