<?xml version="1.0" encoding="UTF-8"?>
<!-- Author: Jiachun Li -->
<!DOCTYPE svg PUBLIC "-//W3C//DTD SVG 1.1//EN" "http://www.w3.org/Graphics/SVG/1.1/DTD/svg11.dtd">
<svg xmlns="http://www.w3.org/2000/svg" version="1.1" viewBox="-107 0 733 733" style="shape-rendering:geometricPrecision; text-rendering:geometricPrecision; image-rendering:optimizeQuality; fill-rule:evenodd; clip-rule:evenodd" xmlns:xlink="http://www.w3.org/1999/xlink">
<g><path style="opacity:1" fill="#e3e3d7" d="M -0.5,-0.5 C 0.5,-0.5 1.5,-0.5 2.5,-0.5C 1.48837,0.871651 0.488369,2.20498 -0.5,3.5C -0.5,2.16667 -0.5,0.833333 -0.5,-0.5 Z"/></g>
<g><path style="opacity:1" fill="#010101" d="M 2.5,-0.5 C 173.5,-0.5 344.5,-0.5 515.5,-0.5C 516.167,0.833333 517.167,1.83333 518.5,2.5C 518.5,244.5 518.5,486.5 518.5,728.5C 517.599,729.29 516.932,730.29 516.5,731.5C 345.167,731.5 173.833,731.5 2.5,731.5C 1.48837,730.128 0.488369,728.795 -0.5,727.5C -0.5,486.167 -0.5,244.833 -0.5,3.5C 0.488369,2.20498 1.48837,0.871651 2.5,-0.5 Z"/></g>
<g><path style="opacity:1" fill="#dfdfda" d="M 515.5,-0.5 C 516.5,-0.5 517.5,-0.5 518.5,-0.5C 518.5,0.5 518.5,1.5 518.5,2.5C 517.167,1.83333 516.167,0.833333 515.5,-0.5 Z"/></g>
<g><path style="opacity:1" fill="#b9b7ac" d="M 504.5,13.5 C 341.167,13.5 177.833,13.5 14.5,13.5C 14.5,248.5 14.5,483.5 14.5,718.5C 13.5002,483.334 13.1669,248.001 13.5,12.5C 177.334,12.167 341.001,12.5003 504.5,13.5 Z"/></g>
<g><path style="opacity:1" fill="#f5f1e4" d="M 504.5,13.5 C 504.5,248.5 504.5,483.5 504.5,718.5C 341.167,718.5 177.833,718.5 14.5,718.5C 14.5,483.5 14.5,248.5 14.5,13.5C 177.833,13.5 341.167,13.5 504.5,13.5 Z"/></g>
<g><path style="opacity:1" fill="#fcf7e5" d="M 15.5,14.5 C 175.501,14.1667 335.501,14.5 495.5,15.5C 495.08,17.326 495.08,19.326 495.5,21.5C 493.396,21.7989 491.396,21.4656 489.5,20.5C 490.833,19.3801 491.333,18.0468 491,16.5C 487.757,16.3296 484.424,16.6629 481,17.5C 330.821,16.8341 180.654,16.1674 30.5,15.5C 29.6919,15.8076 29.0253,16.3076 28.5,17C 29.8333,18 29.8333,19 28.5,20C 25.6287,20.1177 22.962,20.7844 20.5,22C 21.6589,249.335 21.8256,476.835 21,704.5C 19.1862,705.76 17.3529,705.76 15.5,704.5C 16.3323,479.873 16.8323,255.206 17,30.5C 17.3333,249.5 17.6667,468.5 18,687.5C 18.6667,468.167 18.6667,248.833 18,29.5C 17.6827,27.6992 17.016,27.3659 16,28.5C 15.5008,23.8452 15.3342,19.1785 15.5,14.5 Z"/></g>
<g><path style="opacity:1" fill="#fdf7e6" d="M 495.5,706.5 C 495.5,705.5 495.5,704.5 495.5,703.5C 496.5,474.334 496.833,245.001 496.5,15.5C 498.167,15.5 499.833,15.5 501.5,15.5C 501.512,249.033 501.512,482.366 501.5,715.5C 499.635,716.666 497.968,716.333 496.5,714.5C 416.307,715.831 335.974,716.497 255.5,716.5C 175.5,716.333 95.5,716.167 15.5,716C 16.8333,715 18.1667,714 19.5,713C 17.522,712.519 16.1887,711.353 15.5,709.5C 16.6992,708.425 17.8659,707.425 19,706.5C 20.7685,708.54 22.9352,710.04 25.5,711C 21.4829,712.661 21.6496,713.828 26,714.5C 28.477,714.244 30.1437,712.911 31,710.5C 105.624,711.832 180.458,712.498 255.5,712.5C 330.641,712.497 405.641,711.83 480.5,710.5C 484.529,714.167 488.362,714.167 492,710.5C 493.235,711.615 494.402,711.615 495.5,710.5C 496.782,709.042 496.782,707.708 495.5,706.5 Z"/></g>
<g><path style="opacity:1" fill="#0b0a09" d="M 495.5,703.5 C 495.5,704.5 495.5,705.5 495.5,706.5C 495.047,707.458 494.381,708.292 493.5,709C 337.5,709.667 181.5,709.667 25.5,709C 25,708.5 24.5,708 24,707.5C 23.8333,593.5 23.6667,479.5 23.5,365.5C 23.5005,251.264 23.8338,137.097 24.5,23C 180.833,22.3333 337.167,22.3333 493.5,23C 494,23.5 494.5,24 495,24.5C 495.5,250.833 495.667,477.166 495.5,703.5 Z"/></g>
<g><path style="opacity:1" fill="#fbf7ea" d="M 487.5,29.5 C 487.5,253.5 487.5,477.5 487.5,701.5C 335.167,701.5 182.833,701.5 30.5,701.5C 30.5,477.5 30.5,253.5 30.5,29.5C 182.833,29.5 335.167,29.5 487.5,29.5 Z"/></g>
<g><path style="opacity:1" fill="#fcf6e6" d="M 31.5,30.5 C 182.737,30.1676 333.903,30.5009 485,31.5C 485.168,250.54 485.668,469.54 486.5,688.5C 485.833,689.833 485.167,691.167 484.5,692.5C 485.814,694.452 486.48,696.285 486.5,698C 485.391,698.638 484.225,699.138 483,699.5C 332.528,698.502 182.028,698.169 31.5,698.5C 31.5,696.5 31.5,694.5 31.5,692.5C 181.308,691.837 330.975,692.504 480.5,694.5C 483.151,692.585 482.817,691.085 479.5,690C 330.167,689.5 180.834,689.333 31.5,689.5C 31.5,469.833 31.5,250.167 31.5,30.5 Z"/></g>
<g><path style="opacity:1" fill="#a3a099" d="M 487.5,29.5 C 488.5,253.666 488.833,477.999 488.5,702.5C 335.666,702.833 182.999,702.5 30.5,701.5C 182.833,701.5 335.167,701.5 487.5,701.5C 487.5,477.5 487.5,253.5 487.5,29.5 Z"/></g>
<g><path style="opacity:1" fill="#0e0c0a" d="M 124.5,48.5 C 125.873,48.3433 127.207,48.51 128.5,49C 155.739,75.7376 182.406,102.904 208.5,130.5C 182.406,158.096 155.739,185.262 128.5,212C 127.167,212.667 125.833,212.667 124.5,212C 97.2611,185.262 70.5945,158.096 44.5,130.5C 44.6667,129.833 44.8333,129.167 45,128.5C 71.7016,101.965 98.2016,75.2987 124.5,48.5 Z"/></g>
<g><path style="opacity:1" fill="#fbf5e6" d="M 125.5,54.5 C 151.763,79.095 177.429,104.428 202.5,130.5C 177.5,156.167 152.167,181.5 126.5,206.5C 100.833,181.5 75.5,156.167 50.5,130.5C 75.5211,105.146 100.521,79.8125 125.5,54.5 Z"/></g>
<g><path style="opacity:1" fill="#050404" d="M 123.5,91.5 C 125.833,91.5 128.167,91.5 130.5,91.5C 130.169,116.672 130.502,141.672 131.5,166.5C 133.142,167.803 134.809,169.136 136.5,170.5C 136.611,171.117 136.944,171.617 137.5,172C 129.173,172.5 120.84,172.666 112.5,172.5C 114.771,170.734 116.937,168.734 119,166.5C 119.833,147.491 119.666,128.491 118.5,109.5C 114.558,110.6 110.558,110.767 106.5,110C 104.385,109.576 103.552,108.409 104,106.5C 107.338,109.318 111.171,110.151 115.5,109C 118.792,108.244 119.792,106.411 118.5,103.5C 112.866,107.297 107.366,107.297 102,103.5C 101.506,101.866 101.34,100.199 101.5,98.5C 105.241,97.5985 107.241,98.9319 107.5,102.5C 115.014,101.984 120.347,98.3171 123.5,91.5 Z"/></g>
<g><path style="opacity:1" fill="#48473f" d="M 123.5,91.5 C 125.948,90.5269 128.615,90.1936 131.5,90.5C 131.5,115.833 131.5,141.167 131.5,166.5C 130.502,141.672 130.169,116.672 130.5,91.5C 128.167,91.5 125.833,91.5 123.5,91.5 Z"/></g>
<g><path style="opacity:1" fill="#1a1714" d="M 113.5,178.5 C 123.167,177.833 132.833,177.167 142.5,176.5C 141.5,175.167 140.5,173.833 139.5,172.5C 138.833,171.167 137.833,170.167 136.5,169.5C 136.217,168.711 135.717,168.044 135,167.5C 135,67.5 135.667,67.5 137,167.5C 140.05,171.095 143.216,174.595 146.5,178C 135.505,178.5 124.505,178.667 113.5,178.5 Z"/></g>
<g><path style="opacity:1" fill="#5b5851" d="M 136.5,169.5 C 137.833,170.167 138.833,171.167 139.5,172.5C 129.83,173.835 120.83,173.835 112.5,172.5C 120.84,172.666 129.173,172.5 137.5,172C 136.944,171.617 136.611,171.117 136.5,170.5C 136.5,170.167 136.5,169.833 136.5,169.5 Z"/></g>
<g><path style="opacity:1" fill="#403d33" d="M 142.5,176.5 C 132.833,177.167 123.167,177.833 113.5,178.5C 112.957,178.44 112.624,178.107 112.5,177.5C 122.478,176.501 132.478,176.168 142.5,176.5 Z"/></g>
<g><path style="opacity:1" fill="#e2b076" d="M 133.5,303.5 C 134.552,303.351 135.552,303.517 136.5,304C 137.848,306.01 139.182,308.01 140.5,310C 139.685,311.98 138.352,313.48 136.5,314.5C 134.489,312.336 132.822,309.836 131.5,307C 131.808,305.541 132.475,304.374 133.5,303.5 Z"/></g>
<g><path style="opacity:1" fill="#e6b171" d="M 180.5,358.5 C 178.814,354.339 175.814,352.172 171.5,352C 161.217,362.291 151.217,372.791 141.5,383.5C 137.475,386.533 133.475,389.533 129.5,392.5C 121.14,384.472 112.807,376.472 104.5,368.5C 105.26,366.64 106.26,364.973 107.5,363.5C 108.833,364.167 110.167,364.833 111.5,365.5C 111.703,367.044 112.37,368.378 113.5,369.5C 118.119,374.422 122.952,379.089 128,383.5C 132.698,377.637 137.865,372.303 143.5,367.5C 149.855,363.145 155.188,357.812 159.5,351.5C 163.091,347.242 167.091,343.242 171.5,339.5C 176.289,343.745 180.622,348.411 184.5,353.5C 183.867,355.786 182.534,357.452 180.5,358.5 Z"/></g>
<g><path style="opacity:1" fill="#e9b270" d="M 146.5,313.5 C 153.456,321.126 160.456,328.793 167.5,336.5C 154.107,349.561 140.774,362.561 127.5,375.5C 122.449,370.445 117.115,365.778 111.5,361.5C 111.5,360.833 111.5,360.167 111.5,359.5C 116.594,355.523 121.594,351.356 126.5,347C 131.652,339.016 137.986,332.183 145.5,326.5C 146.583,325.635 146.749,324.635 146,323.5C 143.966,321.863 142.466,319.863 141.5,317.5C 142.353,315.107 144.019,313.774 146.5,313.5 Z"/></g>
<g><path style="opacity:1" fill="#f7f1e0" d="M 199.5,324.5 C 201.951,325.902 204.284,327.569 206.5,329.5C 228.249,351.581 249.916,373.581 271.5,395.5C 270.746,398.256 270.746,400.922 271.5,403.5C 264.517,397.412 257.85,390.912 251.5,384C 250.552,383.517 249.552,383.351 248.5,383.5C 248.649,382.448 248.483,381.448 248,380.5C 228.606,362.273 209.773,343.606 191.5,324.5C 194.205,324.653 196.872,324.653 199.5,324.5 Z"/></g>
<g><path style="opacity:1" fill="#5e5852" d="M 143.5,305.5 C 144.473,305.987 145.473,306.487 146.5,307C 183.057,344.389 219.724,381.556 256.5,418.5C 263.849,425.683 271.349,432.683 279,439.5C 279.667,440.833 279.667,442.167 279,443.5C 275.949,445.05 273.782,447.383 272.5,450.5C 271.761,450.369 271.094,450.536 270.5,451C 255.675,466.8 240.508,482.3 225,497.5C 222.525,504.174 222.025,510.841 223.5,517.5C 224.036,520.555 224.869,523.555 226,526.5C 243.5,544 261,561.5 278.5,579C 285.024,583.84 292.358,585.507 300.5,584C 307.369,581.651 313.369,577.818 318.5,572.5C 348.789,542.378 378.789,512.212 408.5,482C 409.094,481.536 409.761,481.369 410.5,481.5C 408.394,483.719 407.394,486.385 407.5,489.5C 407.631,490.239 407.464,490.906 407,491.5C 375.888,521.611 345.055,552.111 314.5,583C 309.833,585 305.167,587 300.5,589C 295.833,589.667 291.167,589.667 286.5,589C 283.558,586.514 280.224,584.681 276.5,583.5C 258.98,566.316 241.314,548.983 223.5,531.5C 217.262,520.853 216.096,509.519 220,497.5C 222.1,495.074 223.934,492.407 225.5,489.5C 240.44,475.227 255.107,460.56 269.5,445.5C 270.117,445.389 270.617,445.056 271,444.5C 271.667,442.5 271.667,440.5 271,438.5C 255.692,422.859 240.025,407.526 224,392.5C 223.517,391.552 223.351,390.552 223.5,389.5C 220.625,388.142 218.125,386.142 216,383.5C 201,397.667 186.167,412 171.5,426.5C 165.146,419.479 158.479,412.812 151.5,406.5C 149.006,404.201 146.506,401.867 144,399.5C 143.333,398.167 143.333,396.833 144,395.5C 156.636,383.494 168.803,371.161 180.5,358.5C 182.534,357.452 183.867,355.786 184.5,353.5C 180.622,348.411 176.289,343.745 171.5,339.5C 167.091,343.242 163.091,347.242 159.5,351.5C 153.758,356.575 148.425,361.908 143.5,367.5C 137.865,372.303 132.698,377.637 128,383.5C 122.952,379.089 118.119,374.422 113.5,369.5C 112.37,368.378 111.703,367.044 111.5,365.5C 111.5,364.167 111.5,362.833 111.5,361.5C 117.115,365.778 122.449,370.445 127.5,375.5C 140.774,362.561 154.107,349.561 167.5,336.5C 160.456,328.793 153.456,321.126 146.5,313.5C 148.225,313.157 148.725,312.157 148,310.5C 146.242,308.917 144.742,307.25 143.5,305.5 Z"/></g>
<g><path style="opacity:1" fill="#f8f2e2" d="M 184.5,361.5 C 187.055,363.606 189.388,365.94 191.5,368.5C 181.9,378.266 172.066,387.933 162,397.5C 160.24,399.721 158.74,402.055 157.5,404.5C 156.448,404.649 155.448,404.483 154.5,404C 153.219,401.597 151.386,399.763 149,398.5C 148.333,397.5 148.333,396.5 149,395.5C 161.118,384.21 172.952,372.876 184.5,361.5 Z"/></g>
<g><path style="opacity:1" fill="#ad8e65" d="M 159.5,351.5 C 155.188,357.812 149.855,363.145 143.5,367.5C 148.425,361.908 153.758,356.575 159.5,351.5 Z"/></g>
<g><path style="opacity:1" fill="#e9b270" d="M 157.5,404.5 C 158.74,402.055 160.24,399.721 162,397.5C 172.066,387.933 181.9,378.266 191.5,368.5C 189.388,365.94 187.055,363.606 184.5,361.5C 185.918,359.292 187.918,358.458 190.5,359C 196.75,365.588 203.25,371.754 210,377.5C 210.667,379.167 210.667,380.833 210,382.5C 197.194,393.973 185.027,406.14 173.5,419C 166.903,415.92 161.57,411.086 157.5,404.5 Z"/></g>
<g><path style="opacity:1" fill="#5f5e5b" d="M 420.5,473.5 C 419.37,475.315 418.704,477.315 418.5,479.5C 417.5,479.5 416.5,479.5 415.5,479.5C 413.974,483.698 411.307,487.032 407.5,489.5C 407.394,486.385 408.394,483.719 410.5,481.5C 411.728,478.044 413.228,474.71 415,471.5C 415.499,467.514 415.666,463.514 415.5,459.5C 415.412,454.987 413.912,450.987 411,447.5C 396.725,432.009 381.891,417.342 366.5,403.5C 353.367,387.965 338.7,386.465 322.5,399C 316.363,405.891 310.029,412.558 303.5,419C 301.545,421.071 299.212,421.738 296.5,421C 288.045,412.563 279.712,404.063 271.5,395.5C 249.916,373.581 228.249,351.581 206.5,329.5C 204.284,327.569 201.951,325.902 199.5,324.5C 183.18,307.68 166.68,291.013 150,274.5C 144.278,279.614 138.445,284.614 132.5,289.5C 131.759,293.675 133.425,296.675 137.5,298.5C 140.026,300.418 142.026,302.751 143.5,305.5C 144.742,307.25 146.242,308.917 148,310.5C 148.725,312.157 148.225,313.157 146.5,313.5C 144.019,313.774 142.353,315.107 141.5,317.5C 129.412,328.078 117.579,339.411 106,351.5C 105.582,353.788 106.249,355.788 108,357.5C 108.816,358.823 109.983,359.489 111.5,359.5C 111.5,360.167 111.5,360.833 111.5,361.5C 111.5,362.833 111.5,364.167 111.5,365.5C 110.167,364.833 108.833,364.167 107.5,363.5C 104.551,360.212 101.551,356.879 98.5,353.5C 111.27,340.399 123.937,327.399 136.5,314.5C 138.352,313.48 139.685,311.98 140.5,310C 139.182,308.01 137.848,306.01 136.5,304C 135.552,303.517 134.552,303.351 133.5,303.5C 131.976,299.798 129.81,296.464 127,293.5C 126.48,291.711 126.813,290.044 128,288.5C 134.5,282.167 141,275.833 147.5,269.5C 148.833,268.167 150.167,268.167 151.5,269.5C 199.897,318.396 248.23,366.896 296.5,415C 297.833,415.667 299.167,415.667 300.5,415C 307.5,408 314.5,401 321.5,394C 336.292,383.804 350.958,384.138 365.5,395C 382.641,411.808 399.474,428.975 416,446.5C 421.168,454.845 422.668,463.845 420.5,473.5 Z"/></g>
<g><path style="opacity:1" fill="#f9f3e4" d="M 141.5,317.5 C 142.466,319.863 143.966,321.863 146,323.5C 146.749,324.635 146.583,325.635 145.5,326.5C 137.986,332.183 131.652,339.016 126.5,347C 121.594,351.356 116.594,355.523 111.5,359.5C 109.983,359.489 108.816,358.823 108,357.5C 106.249,355.788 105.582,353.788 106,351.5C 117.579,339.411 129.412,328.078 141.5,317.5 Z"/></g>
<g><path style="opacity:1" fill="#f7f4ee" d="M 199.5,324.5 C 196.872,324.653 194.205,324.653 191.5,324.5C 179.033,312.866 167.033,300.699 155.5,288C 154.034,287.365 152.7,286.531 151.5,285.5C 146.173,289.189 141.506,293.522 137.5,298.5C 133.425,296.675 131.759,293.675 132.5,289.5C 138.445,284.614 144.278,279.614 150,274.5C 166.68,291.013 183.18,307.68 199.5,324.5 Z"/></g>
<g><path style="opacity:1" fill="#f6f5f2" d="M 366.5,403.5 C 366.428,405.311 365.595,406.644 364,407.5C 361.846,406.726 359.679,406.059 357.5,405.5C 351.635,403.844 345.635,403.177 339.5,403.5C 337.143,403.337 334.81,403.503 332.5,404C 327.924,407.413 323.924,411.246 320.5,415.5C 317.139,420.024 312.973,423.691 308,426.5C 306.214,429.08 304.714,431.747 303.5,434.5C 300.14,435.21 298.307,433.876 298,430.5C 289.585,421.061 280.752,412.061 271.5,403.5C 270.746,400.922 270.746,398.256 271.5,395.5C 279.712,404.063 288.045,412.563 296.5,421C 299.212,421.738 301.545,421.071 303.5,419C 310.029,412.558 316.363,405.891 322.5,399C 338.7,386.465 353.367,387.965 366.5,403.5 Z"/></g>
<g><path style="opacity:1" fill="#f7f1e3" d="M 366.5,403.5 C 381.891,417.342 396.725,432.009 411,447.5C 413.912,450.987 415.412,454.987 415.5,459.5C 400.086,445.588 385.086,431.088 370.5,416C 369.552,415.517 368.552,415.351 367.5,415.5C 367.649,414.448 367.483,413.448 367,412.5C 363.91,409.889 360.744,407.555 357.5,405.5C 359.679,406.059 361.846,406.726 364,407.5C 365.595,406.644 366.428,405.311 366.5,403.5 Z"/></g>
<g><path style="opacity:1" fill="#eab370" d="M 191.5,324.5 C 209.773,343.606 228.606,362.273 248,380.5C 248.483,381.448 248.649,382.448 248.5,383.5C 249.552,383.351 250.552,383.517 251.5,384C 257.85,390.912 264.517,397.412 271.5,403.5C 280.752,412.061 289.585,421.061 298,430.5C 298.307,433.876 300.14,435.21 303.5,434.5C 304.714,431.747 306.214,429.08 308,426.5C 312.973,423.691 317.139,420.024 320.5,415.5C 324.625,412.547 328.625,409.381 332.5,406C 335.004,405.302 337.337,404.469 339.5,403.5C 345.635,403.177 351.635,403.844 357.5,405.5C 360.744,407.555 363.91,409.889 367,412.5C 367.483,413.448 367.649,414.448 367.5,415.5C 368.552,415.351 369.552,415.517 370.5,416C 385.086,431.088 400.086,445.588 415.5,459.5C 415.666,463.514 415.499,467.514 415,471.5C 413.228,474.71 411.728,478.044 410.5,481.5C 409.761,481.369 409.094,481.536 408.5,482C 378.789,512.212 348.789,542.378 318.5,572.5C 313.369,577.818 307.369,581.651 300.5,584C 292.358,585.507 285.024,583.84 278.5,579C 261,561.5 243.5,544 226,526.5C 224.869,523.555 224.036,520.555 223.5,517.5C 223.547,514.072 224.713,511.072 227,508.5C 243.501,491.499 260.334,474.833 277.5,458.5C 278.833,457.167 278.833,455.833 277.5,454.5C 276.395,452.389 274.729,451.055 272.5,450.5C 273.782,447.383 275.949,445.05 279,443.5C 279.667,442.167 279.667,440.833 279,439.5C 271.349,432.683 263.849,425.683 256.5,418.5C 219.724,381.556 183.057,344.389 146.5,307C 145.473,306.487 144.473,305.987 143.5,305.5C 142.026,302.751 140.026,300.418 137.5,298.5C 141.506,293.522 146.173,289.189 151.5,285.5C 152.7,286.531 154.034,287.365 155.5,288C 167.033,300.699 179.033,312.866 191.5,324.5 Z"/></g>
<g><path style="opacity:1" fill="#f5dcbb" d="M 339.5,403.5 C 337.337,404.469 335.004,405.302 332.5,406C 328.625,409.381 324.625,412.547 320.5,415.5C 323.924,411.246 327.924,407.413 332.5,404C 334.81,403.503 337.143,403.337 339.5,403.5 Z"/></g>
<g><path style="opacity:1" fill="#e6b273" d="M 269.5,445.5 C 252.725,429.558 236.391,413.058 220.5,396C 218.833,395.333 217.167,395.333 215.5,396C 201.799,409.836 187.966,423.67 174,437.5C 167.562,430.991 160.895,424.657 154,418.5C 153.517,417.552 153.351,416.552 153.5,415.5C 152.178,415.67 151.011,415.337 150,414.5C 149.688,411.691 150.188,409.024 151.5,406.5C 158.479,412.812 165.146,419.479 171.5,426.5C 186.167,412 201,397.667 216,383.5C 218.125,386.142 220.625,388.142 223.5,389.5C 223.351,390.552 223.517,391.552 224,392.5C 240.025,407.526 255.692,422.859 271,438.5C 271.667,440.5 271.667,442.5 271,444.5C 270.617,445.056 270.117,445.389 269.5,445.5 Z"/></g>
<g><path style="opacity:1" fill="#625a50" d="M 377.5,452.5 C 376.542,452.047 375.708,451.381 375,450.5C 374.517,451.448 374.351,452.448 374.5,453.5C 366.61,447.61 359.61,440.61 353.5,432.5C 346.655,427.359 339.655,427.192 332.5,432C 310.963,454.87 288.797,477.037 266,498.5C 264.515,501.3 262.849,503.966 261,506.5C 260.333,509.833 260.333,513.167 261,516.5C 261.383,517.056 261.883,517.389 262.5,517.5C 262.5,518.167 262.5,518.833 262.5,519.5C 259.058,516.672 257.891,513.005 259,508.5C 259.454,506.464 260.287,504.63 261.5,503C 261.15,501.743 260.483,501.409 259.5,502C 258.362,504.629 257.029,507.129 255.5,509.5C 256.089,514.158 257.422,518.491 259.5,522.5C 253.646,515.293 253.146,507.626 258,499.5C 282.914,474.918 307.747,450.418 332.5,426C 340.578,422.302 348.244,422.969 355.5,428C 359.667,433.5 364.5,438.333 370,442.5C 372.976,445.544 375.476,448.878 377.5,452.5 Z"/></g>
<g><path style="opacity:1" fill="#fbf5e5" d="M 377.5,468.5 C 376.489,470.372 375.655,472.372 375,474.5C 352.058,496.275 329.558,518.608 307.5,541.5C 304.659,543.086 301.993,544.92 299.5,547C 296.106,547.752 292.773,547.585 289.5,546.5C 280.273,537.721 271.273,528.721 262.5,519.5C 262.5,518.833 262.5,518.167 262.5,517.5C 262.935,513.898 264.935,511.732 268.5,511C 270.333,508.5 272.167,506 274,503.5C 291.782,487.235 309.116,470.569 326,453.5C 327.974,449.692 330.808,446.692 334.5,444.5C 335.386,443.675 335.719,442.675 335.5,441.5C 340.149,440.705 344.816,440.539 349.5,441C 359.553,448.046 368.719,456.213 377,465.5C 377.483,466.448 377.649,467.448 377.5,468.5 Z"/></g>
<g><path style="opacity:1" fill="#f5f3f1" d="M 272.5,450.5 C 274.729,451.055 276.395,452.389 277.5,454.5C 278.833,455.833 278.833,457.167 277.5,458.5C 260.334,474.833 243.501,491.499 227,508.5C 224.713,511.072 223.547,514.072 223.5,517.5C 222.025,510.841 222.525,504.174 225,497.5C 240.508,482.3 255.675,466.8 270.5,451C 271.094,450.536 271.761,450.369 272.5,450.5 Z"/></g>
<g><path style="opacity:1" fill="#e7b172" d="M 374.5,453.5 C 375.164,455.487 376.331,457.154 378,458.5C 378.808,462.027 378.641,465.36 377.5,468.5C 377.649,467.448 377.483,466.448 377,465.5C 368.719,456.213 359.553,448.046 349.5,441C 344.816,440.539 340.149,440.705 335.5,441.5C 335.719,442.675 335.386,443.675 334.5,444.5C 330.808,446.692 327.974,449.692 326,453.5C 309.116,470.569 291.782,487.235 274,503.5C 272.167,506 270.333,508.5 268.5,511C 264.935,511.732 262.935,513.898 262.5,517.5C 261.883,517.389 261.383,517.056 261,516.5C 260.333,513.167 260.333,509.833 261,506.5C 262.849,503.966 264.515,501.3 266,498.5C 288.797,477.037 310.963,454.87 332.5,432C 339.655,427.192 346.655,427.359 353.5,432.5C 359.61,440.61 366.61,447.61 374.5,453.5 Z"/></g>
<g><path style="opacity:1" fill="#5f5d5b" d="M 377.5,452.5 C 378.5,452.5 379.5,452.5 380.5,452.5C 380.284,454.681 381.117,456.347 383,457.5C 383.499,461.821 383.666,466.154 383.5,470.5C 359.052,494.491 334.719,518.991 310.5,544C 306.262,548.119 301.262,550.619 295.5,551.5C 292.298,551.302 289.298,550.469 286.5,549C 277.302,540.633 268.302,532.133 259.5,523.5C 259.5,523.167 259.5,522.833 259.5,522.5C 257.422,518.491 256.089,514.158 255.5,509.5C 257.029,507.129 258.362,504.629 259.5,502C 260.483,501.409 261.15,501.743 261.5,503C 260.287,504.63 259.454,506.464 259,508.5C 257.891,513.005 259.058,516.672 262.5,519.5C 271.273,528.721 280.273,537.721 289.5,546.5C 292.773,547.585 296.106,547.752 299.5,547C 301.993,544.92 304.659,543.086 307.5,541.5C 329.558,518.608 352.058,496.275 375,474.5C 375.655,472.372 376.489,470.372 377.5,468.5C 378.641,465.36 378.808,462.027 378,458.5C 376.331,457.154 375.164,455.487 374.5,453.5C 374.351,452.448 374.517,451.448 375,450.5C 375.708,451.381 376.542,452.047 377.5,452.5 Z"/></g>
<g><path style="opacity:1" fill="#f8f3e2" d="M 383.5,470.5 C 384.405,477.325 383.238,483.658 380,489.5C 374.027,494.14 368.694,499.473 364,505.5C 356.808,512.028 349.641,518.528 342.5,525C 338.386,530.903 333.386,535.903 327.5,540C 321.146,548.019 314.146,555.352 306.5,562C 298.836,564.784 291.836,563.784 285.5,559C 276.215,550.555 267.882,541.389 260.5,531.5C 259.52,528.914 259.187,526.247 259.5,523.5C 268.302,532.133 277.302,540.633 286.5,549C 289.298,550.469 292.298,551.302 295.5,551.5C 301.262,550.619 306.262,548.119 310.5,544C 334.719,518.991 359.052,494.491 383.5,470.5 Z"/></g>
<g><path style="opacity:1" fill="#555552" d="M 122.5,573.5 C 166.833,573.5 211.167,573.5 255.5,573.5C 257.027,573.427 258.027,574.094 258.5,575.5C 211.665,576.831 164.665,576.831 117.5,575.5C 119.291,574.83 120.958,574.163 122.5,573.5 Z"/></g>
<g><path style="opacity:1" fill="#5c5b58" d="M 338.5,573.5 C 358.167,573.5 377.833,573.5 397.5,573.5C 397.5,574.833 397.5,576.167 397.5,577.5C 376.833,577.5 356.167,577.5 335.5,577.5C 335.738,575.596 336.738,574.262 338.5,573.5 Z"/></g>
<g><path style="opacity:1" fill="#72706b" d="M 122.5,573.5 C 120.958,574.163 119.291,574.83 117.5,575.5C 164.665,576.831 211.665,576.831 258.5,575.5C 259.338,575.842 259.672,576.508 259.5,577.5C 211.833,577.5 164.167,577.5 116.5,577.5C 116.5,576.167 116.5,574.833 116.5,573.5C 118.5,573.5 120.5,573.5 122.5,573.5 Z"/></g>
<g><path style="opacity:1" fill="#e6b172" d="M 420.5,473.5 C 421.638,476.304 421.805,479.304 421,482.5C 418.58,487.33 416.746,492.33 415.5,497.5C 409.631,500.198 405.131,504.532 402,510.5C 390.019,521.917 377.853,533.25 365.5,544.5C 356.817,554.514 347.817,564.181 338.5,573.5C 336.738,574.262 335.738,575.596 335.5,577.5C 333.186,579.477 330.853,581.477 328.5,583.5C 326.738,584.262 325.738,585.596 325.5,587.5C 322.029,588.633 320.029,590.967 319.5,594.5C 314.523,597.852 309.19,600.185 303.5,601.5C 297.322,601.893 291.322,601.06 285.5,599C 279.986,594.977 274.653,590.81 269.5,586.5C 268.738,584.738 267.404,583.738 265.5,583.5C 265.205,579.871 263.205,577.871 259.5,577.5C 259.672,576.508 259.338,575.842 258.5,575.5C 258.027,574.094 257.027,573.427 255.5,573.5C 255.649,572.448 255.483,571.448 255,570.5C 245.023,561.935 235.857,552.602 227.5,542.5C 224.752,539.339 223.419,535.673 223.5,531.5C 241.314,548.983 258.98,566.316 276.5,583.5C 280.224,584.681 283.558,586.514 286.5,589C 291.167,589.667 295.833,589.667 300.5,589C 305.167,587 309.833,585 314.5,583C 345.055,552.111 375.888,521.611 407,491.5C 407.464,490.906 407.631,490.239 407.5,489.5C 411.307,487.032 413.974,483.698 415.5,479.5C 416.5,479.5 417.5,479.5 418.5,479.5C 418.704,477.315 419.37,475.315 420.5,473.5 Z"/></g>
<g><path style="opacity:1" fill="#5c5b59" d="M 265.5,583.5 C 267.404,583.738 268.738,584.738 269.5,586.5C 259.347,587.494 249.014,587.828 238.5,587.5C 238.5,586.167 238.5,584.833 238.5,583.5C 247.5,583.5 256.5,583.5 265.5,583.5 Z"/></g>
<g><path style="opacity:1" fill="#5c5b59" d="M 328.5,583.5 C 335.833,583.5 343.167,583.5 350.5,583.5C 350.5,584.833 350.5,586.167 350.5,587.5C 342.167,587.5 333.833,587.5 325.5,587.5C 325.738,585.596 326.738,584.262 328.5,583.5 Z"/></g>
<g><path style="opacity:1" fill="#ebe9e6" d="M 319.5,594.5 C 320.117,594.611 320.617,594.944 321,595.5C 322.012,600.075 321.512,604.408 319.5,608.5C 311.833,609.833 304.167,609.833 296.5,608.5C 297.154,606.885 297.654,605.218 298,603.5C 299.948,602.891 301.782,602.224 303.5,601.5C 309.19,600.185 314.523,597.852 319.5,594.5 Z"/></g>
<g><path style="opacity:1" fill="#e3e3d9" d="M 518.5,728.5 C 518.5,729.5 518.5,730.5 518.5,731.5C 517.833,731.5 517.167,731.5 516.5,731.5C 516.932,730.29 517.599,729.29 518.5,728.5 Z"/></g>
<g><path style="opacity:1" fill="#dbd9d3" d="M -0.5,727.5 C 0.488369,728.795 1.48837,730.128 2.5,731.5C 1.5,731.5 0.5,731.5 -0.5,731.5C -0.5,730.167 -0.5,728.833 -0.5,727.5 Z"/></g>
</svg>
