<?xml version="1.0" encoding="UTF-8"?>
<!-- Author: Jiachun Li -->
<svg version="1.1" id="EntitySVG" xmlns="http://www.w3.org/2000/svg" viewBox="-107 0 733 733">
<path fill="#010101" d="M 2.5,-0.5 C 173.5,-0.5 344.5,-0.5 515.5,-0.5C 516.167,0.833333 517.167,1.83333 518.5,2.5C 518.5,244.5 518.5,486.5 518.5,728.5C 517.5,730.167 516.167,731.5 514.5,732.5C 344.167,732.5 173.833,732.5 3.5,732.5C 2.13632,730.809 0.802988,729.142 -0.5,727.5C -0.5,486.167 -0.5,244.833 -0.5,3.5C 0.488369,2.20498 1.48837,0.871651 2.5,-0.5 Z"/>
<path fill="#f6f1e4" d="M 504.5,13.5 C 504.5,248.5 504.5,483.5 504.5,718.5C 341.167,718.5 177.833,718.5 14.5,718.5C 14.5,483.5 14.5,248.5 14.5,13.5C 177.833,13.5 341.167,13.5 504.5,13.5 Z"/>
<path fill="#0b0a09" d="M 495.5,703.5 C 495.5,704.5 495.5,705.5 495.5,706.5C 495.047,707.458 494.381,708.292 493.5,709C 337.5,709.667 181.5,709.667 25.5,709C 25,708.5 24.5,708 24,707.5C 23.8333,593.5 23.6667,479.5 23.5,365.5C 23.5005,251.264 23.8338,137.097 24.5,23C 180.833,22.3333 337.167,22.3333 493.5,23C 494,23.5 494.5,24 495,24.5C 495.5,250.833 495.667,477.166 495.5,703.5 Z"/>
<path fill="#fbf7ea" d="M 487.5,29.5 C 487.5,253.5 487.5,477.5 487.5,701.5C 335.167,701.5 182.833,701.5 30.5,701.5C 30.5,477.5 30.5,253.5 30.5,29.5C 182.833,29.5 335.167,29.5 487.5,29.5 Z"/>
<path fill="#0e0c0a" d="M 124.5,48.5 C 125.873,48.3433 127.207,48.51 128.5,49C 155.739,75.7376 182.406,102.904 208.5,130.5C 182.406,158.096 155.739,185.262 128.5,212C 127.167,212.667 125.833,212.667 124.5,212C 97.2611,185.262 70.5945,158.096 44.5,130.5C 44.6667,129.833 44.8333,129.167 45,128.5C 71.7016,101.965 98.2016,75.2987 124.5,48.5 Z"/>
<path fill="#fbf5e6" d="M 125.5,54.5 C 151.763,79.095 177.429,104.428 202.5,130.5C 177.5,156.167 152.167,181.5 126.5,206.5C 100.833,181.5 75.5,156.167 50.5,130.5C 75.5211,105.146 100.521,79.8125 125.5,54.5 Z"/>
<path fill="#e2b076" d="M 133.5,303.5 C 134.552,303.351 135.552,303.517 136.5,304C 137.848,306.01 139.182,308.01 140.5,310C 139.685,311.98 138.352,313.48 136.5,314.5C 134.489,312.336 132.822,309.836 131.5,307C 131.808,305.541 132.475,304.374 133.5,303.5 Z"/>
<path fill="#e6b171" d="M 180.5,358.5 C 178.814,354.339 175.814,352.172 171.5,352C 161.217,362.291 151.217,372.791 141.5,383.5C 137.475,386.533 133.475,389.533 129.5,392.5C 121.14,384.472 112.807,376.472 104.5,368.5C 105.26,366.64 106.26,364.973 107.5,363.5C 108.833,364.167 110.167,364.833 111.5,365.5C 111.703,367.044 112.37,368.378 113.5,369.5C 118.119,374.422 122.952,379.089 128,383.5C 132.698,377.637 137.865,372.303 143.5,367.5C 149.855,363.145 155.188,357.812 159.5,351.5C 163.091,347.242 167.091,343.242 171.5,339.5C 176.289,343.745 180.622,348.411 184.5,353.5C 183.867,355.786 182.534,357.452 180.5,358.5 Z"/>
<path fill="#e9b270" d="M 146.5,313.5 C 153.456,321.126 160.456,328.793 167.5,336.5C 154.107,349.561 140.774,362.561 127.5,375.5C 122.449,370.445 117.115,365.778 111.5,361.5C 111.5,360.833 111.5,360.167 111.5,359.5C 116.594,355.523 121.594,351.356 126.5,347C 131.652,339.016 137.986,332.183 145.5,326.5C 146.583,325.635 146.749,324.635 146,323.5C 143.966,321.863 142.466,319.863 141.5,317.5C 142.353,315.107 144.019,313.774 146.5,313.5 Z"/>
<path fill="#5e5852" d="M 143.5,305.5 C 144.473,305.987 145.473,306.487 146.5,307C 183.057,344.389 219.724,381.556 256.5,418.5C 263.849,425.683 271.349,432.683 279,439.5C 279.667,440.833 279.667,442.167 279,443.5C 275.949,445.05 273.782,447.383 272.5,450.5C 271.761,450.369 271.094,450.536 270.5,451C 255.675,466.8 240.508,482.3 225,497.5C 222.525,504.174 222.025,510.841 223.5,517.5C 224.036,520.555 224.869,523.555 226,526.5C 243.5,544 261,561.5 278.5,579C 285.024,583.84 292.358,585.507 300.5,584C 307.369,581.651 313.369,577.818 318.5,572.5C 348.789,542.378 378.789,512.212 408.5,482C 409.094,481.536 409.761,481.369 410.5,481.5C 408.394,483.719 407.394,486.385 407.5,489.5C 407.631,490.239 407.464,490.906 407,491.5C 375.888,521.611 345.055,552.111 314.5,583C 309.833,585 305.167,587 300.5,589C 295.833,589.667 291.167,589.667 286.5,589C 283.558,586.514 280.224,584.681 276.5,583.5C 258.98,566.316 241.314,548.983 223.5,531.5C 217.262,520.853 216.096,509.519 220,497.5C 222.1,495.074 223.934,492.407 225.5,489.5C 240.44,475.227 255.107,460.56 269.5,445.5C 270.117,445.389 270.617,445.056 271,444.5C 271.667,442.5 271.667,440.5 271,438.5C 255.692,422.859 240.025,407.526 224,392.5C 223.517,391.552 223.351,390.552 223.5,389.5C 220.625,388.142 218.125,386.142 216,383.5C 201,397.667 186.167,412 171.5,426.5C 165.146,419.479 158.479,412.812 151.5,406.5C 149.006,404.201 146.506,401.867 144,399.5C 143.333,398.167 143.333,396.833 144,395.5C 156.636,383.494 168.803,371.161 180.5,358.5C 182.534,357.452 183.867,355.786 184.5,353.5C 180.622,348.411 176.289,343.745 171.5,339.5C 167.091,343.242 163.091,347.242 159.5,351.5C 153.758,356.575 148.425,361.908 143.5,367.5C 137.865,372.303 132.698,377.637 128,383.5C 122.952,379.089 118.119,374.422 113.5,369.5C 112.37,368.378 111.703,367.044 111.5,365.5C 111.5,364.167 111.5,362.833 111.5,361.5C 117.115,365.778 122.449,370.445 127.5,375.5C 140.774,362.561 154.107,349.561 167.5,336.5C 160.456,328.793 153.456,321.126 146.5,313.5C 148.225,313.157 148.725,312.157 148,310.5C 146.242,308.917 144.742,307.25 143.5,305.5 Z"/>
<path fill="#f8f2e2" d="M 184.5,361.5 C 187.055,363.606 189.388,365.94 191.5,368.5C 181.9,378.266 172.066,387.933 162,397.5C 160.24,399.721 158.74,402.055 157.5,404.5C 156.448,404.649 155.448,404.483 154.5,404C 153.219,401.597 151.386,399.763 149,398.5C 148.333,397.5 148.333,396.5 149,395.5C 161.118,384.21 172.952,372.876 184.5,361.5 Z"/>
<path fill="#ad8e65" d="M 159.5,351.5 C 155.188,357.812 149.855,363.145 143.5,367.5C 148.425,361.908 153.758,356.575 159.5,351.5 Z"/>
<path fill="#e9b270" d="M 157.5,404.5 C 158.74,402.055 160.24,399.721 162,397.5C 172.066,387.933 181.9,378.266 191.5,368.5C 189.388,365.94 187.055,363.606 184.5,361.5C 185.918,359.292 187.918,358.458 190.5,359C 196.75,365.588 203.25,371.754 210,377.5C 210.667,379.167 210.667,380.833 210,382.5C 197.194,393.973 185.027,406.14 173.5,419C 166.903,415.92 161.57,411.086 157.5,404.5 Z"/>
<path fill="#5f5e5b" d="M 420.5,473.5 C 419.37,475.315 418.704,477.315 418.5,479.5C 417.5,479.5 416.5,479.5 415.5,479.5C 413.974,483.698 411.307,487.032 407.5,489.5C 407.394,486.385 408.394,483.719 410.5,481.5C 411.728,478.044 413.228,474.71 415,471.5C 415.499,467.514 415.666,463.514 415.5,459.5C 415.412,454.987 413.912,450.987 411,447.5C 396.725,432.009 381.891,417.342 366.5,403.5C 353.367,387.965 338.7,386.465 322.5,399C 316.363,405.891 310.029,412.558 303.5,419C 301.545,421.071 299.212,421.738 296.5,421C 288.045,412.563 279.712,404.063 271.5,395.5C 249.916,373.581 228.249,351.581 206.5,329.5C 204.284,327.569 201.951,325.902 199.5,324.5C 183.18,307.68 166.68,291.013 150,274.5C 144.278,279.614 138.445,284.614 132.5,289.5C 131.759,293.675 133.425,296.675 137.5,298.5C 140.026,300.418 142.026,302.751 143.5,305.5C 144.742,307.25 146.242,308.917 148,310.5C 148.725,312.157 148.225,313.157 146.5,313.5C 144.019,313.774 142.353,315.107 141.5,317.5C 129.412,328.078 117.579,339.411 106,351.5C 105.582,353.788 106.249,355.788 108,357.5C 108.816,358.823 109.983,359.489 111.5,359.5C 111.5,360.167 111.5,360.833 111.5,361.5C 111.5,362.833 111.5,364.167 111.5,365.5C 110.167,364.833 108.833,364.167 107.5,363.5C 104.551,360.212 101.551,356.879 98.5,353.5C 111.27,340.399 123.937,327.399 136.5,314.5C 138.352,313.48 139.685,311.98 140.5,310C 139.182,308.01 137.848,306.01 136.5,304C 135.552,303.517 134.552,303.351 133.5,303.5C 131.976,299.798 129.81,296.464 127,293.5C 126.48,291.711 126.813,290.044 128,288.5C 134.5,282.167 141,275.833 147.5,269.5C 148.833,268.167 150.167,268.167 151.5,269.5C 199.897,318.396 248.23,366.896 296.5,415C 297.833,415.667 299.167,415.667 300.5,415C 307.5,408 314.5,401 321.5,394C 336.292,383.804 350.958,384.138 365.5,395C 382.641,411.808 399.474,428.975 416,446.5C 421.168,454.845 422.668,463.845 420.5,473.5 Z"/>
<path fill="#eab370" d="M 191.5,324.5 C 209.773,343.606 228.606,362.273 248,380.5C 248.483,381.448 248.649,382.448 248.5,383.5C 249.552,383.351 250.552,383.517 251.5,384C 257.85,390.912 264.517,397.412 271.5,403.5C 280.752,412.061 289.585,421.061 298,430.5C 298.307,433.876 300.14,435.21 303.5,434.5C 304.714,431.747 306.214,429.08 308,426.5C 312.973,423.691 317.139,420.024 320.5,415.5C 324.625,412.547 328.625,409.381 332.5,406C 335.004,405.302 337.337,404.469 339.5,403.5C 345.635,403.177 351.635,403.844 357.5,405.5C 360.744,407.555 363.91,409.889 367,412.5C 367.483,413.448 367.649,414.448 367.5,415.5C 368.552,415.351 369.552,415.517 370.5,416C 385.086,431.088 400.086,445.588 415.5,459.5C 415.666,463.514 415.499,467.514 415,471.5C 413.228,474.71 411.728,478.044 410.5,481.5C 409.761,481.369 409.094,481.536 408.5,482C 378.789,512.212 348.789,542.378 318.5,572.5C 313.369,577.818 307.369,581.651 300.5,584C 292.358,585.507 285.024,583.84 278.5,579C 261,561.5 243.5,544 226,526.5C 224.869,523.555 224.036,520.555 223.5,517.5C 223.547,514.072 224.713,511.072 227,508.5C 243.501,491.499 260.334,474.833 277.5,458.5C 278.833,457.167 278.833,455.833 277.5,454.5C 276.395,452.389 274.729,451.055 272.5,450.5C 273.782,447.383 275.949,445.05 279,443.5C 279.667,442.167 279.667,440.833 279,439.5C 271.349,432.683 263.849,425.683 256.5,418.5C 219.724,381.556 183.057,344.389 146.5,307C 145.473,306.487 144.473,305.987 143.5,305.5C 142.026,302.751 140.026,300.418 137.5,298.5C 141.506,293.522 146.173,289.189 151.5,285.5C 152.7,286.531 154.034,287.365 155.5,288C 167.033,300.699 179.033,312.866 191.5,324.5 Z"/>
<path fill="#e6b273" d="M 269.5,445.5 C 252.725,429.558 236.391,413.058 220.5,396C 218.833,395.333 217.167,395.333 215.5,396C 201.799,409.836 187.966,423.67 174,437.5C 167.562,430.991 160.895,424.657 154,418.5C 153.517,417.552 153.351,416.552 153.5,415.5C 152.178,415.67 151.011,415.337 150,414.5C 149.688,411.691 150.188,409.024 151.5,406.5C 158.479,412.812 165.146,419.479 171.5,426.5C 186.167,412 201,397.667 216,383.5C 218.125,386.142 220.625,388.142 223.5,389.5C 223.351,390.552 223.517,391.552 224,392.5C 240.025,407.526 255.692,422.859 271,438.5C 271.667,440.5 271.667,442.5 271,444.5C 270.617,445.056 270.117,445.389 269.5,445.5 Z"/>
<path fill="#625a50" d="M 377.5,452.5 C 376.542,452.047 375.708,451.381 375,450.5C 374.517,451.448 374.351,452.448 374.5,453.5C 366.61,447.61 359.61,440.61 353.5,432.5C 346.655,427.359 339.655,427.192 332.5,432C 310.963,454.87 288.797,477.037 266,498.5C 264.515,501.3 262.849,503.966 261,506.5C 260.333,509.833 260.333,513.167 261,516.5C 261.383,517.056 261.883,517.389 262.5,517.5C 262.5,518.167 262.5,518.833 262.5,519.5C 259.058,516.672 257.891,513.005 259,508.5C 259.454,506.464 260.287,504.63 261.5,503C 261.15,501.743 260.483,501.409 259.5,502C 258.362,504.629 257.029,507.129 255.5,509.5C 256.089,514.158 257.422,518.491 259.5,522.5C 253.646,515.293 253.146,507.626 258,499.5C 282.914,474.918 307.747,450.418 332.5,426C 340.578,422.302 348.244,422.969 355.5,428C 359.667,433.5 364.5,438.333 370,442.5C 372.976,445.544 375.476,448.878 377.5,452.5 Z"/>
<path fill="#fbf5e5" d="M 377.5,468.5 C 376.489,470.372 375.655,472.372 375,474.5C 352.058,496.275 329.558,518.608 307.5,541.5C 304.659,543.086 301.993,544.92 299.5,547C 296.106,547.752 292.773,547.585 289.5,546.5C 280.273,537.721 271.273,528.721 262.5,519.5C 262.5,518.833 262.5,518.167 262.5,517.5C 262.935,513.898 264.935,511.732 268.5,511C 270.333,508.5 272.167,506 274,503.5C 291.782,487.235 309.116,470.569 326,453.5C 327.974,449.692 330.808,446.692 334.5,444.5C 335.386,443.675 335.719,442.675 335.5,441.5C 340.149,440.705 344.816,440.539 349.5,441C 359.553,448.046 368.719,456.213 377,465.5C 377.483,466.448 377.649,467.448 377.5,468.5 Z"/>
<path fill="#e7b172" d="M 374.5,453.5 C 375.164,455.487 376.331,457.154 378,458.5C 378.808,462.027 378.641,465.36 377.5,468.5C 377.649,467.448 377.483,466.448 377,465.5C 368.719,456.213 359.553,448.046 349.5,441C 344.816,440.539 340.149,440.705 335.5,441.5C 335.719,442.675 335.386,443.675 334.5,444.5C 330.808,446.692 327.974,449.692 326,453.5C 309.116,470.569 291.782,487.235 274,503.5C 272.167,506 270.333,508.5 268.5,511C 264.935,511.732 262.935,513.898 262.5,517.5C 261.883,517.389 261.383,517.056 261,516.5C 260.333,513.167 260.333,509.833 261,506.5C 262.849,503.966 264.515,501.3 266,498.5C 288.797,477.037 310.963,454.87 332.5,432C 339.655,427.192 346.655,427.359 353.5,432.5C 359.61,440.61 366.61,447.61 374.5,453.5 Z"/>
<path fill="#5f5d5b" d="M 377.5,452.5 C 378.5,452.5 379.5,452.5 380.5,452.5C 380.284,454.681 381.117,456.347 383,457.5C 383.499,461.821 383.666,466.154 383.5,470.5C 359.052,494.491 334.719,518.991 310.5,544C 306.262,548.119 301.262,550.619 295.5,551.5C 292.298,551.302 289.298,550.469 286.5,549C 277.302,540.633 268.302,532.133 259.5,523.5C 259.5,523.167 259.5,522.833 259.5,522.5C 257.422,518.491 256.089,514.158 255.5,509.5C 257.029,507.129 258.362,504.629 259.5,502C 260.483,501.409 261.15,501.743 261.5,503C 260.287,504.63 259.454,506.464 259,508.5C 257.891,513.005 259.058,516.672 262.5,519.5C 271.273,528.721 280.273,537.721 289.5,546.5C 292.773,547.585 296.106,547.752 299.5,547C 301.993,544.92 304.659,543.086 307.5,541.5C 329.558,518.608 352.058,496.275 375,474.5C 375.655,472.372 376.489,470.372 377.5,468.5C 378.641,465.36 378.808,462.027 378,458.5C 376.331,457.154 375.164,455.487 374.5,453.5C 374.351,452.448 374.517,451.448 375,450.5C 375.708,451.381 376.542,452.047 377.5,452.5 Z"/>
<path fill="#f8f3e2" d="M 383.5,470.5 C 384.405,477.325 383.238,483.658 380,489.5C 374.027,494.14 368.694,499.473 364,505.5C 356.808,512.028 349.641,518.528 342.5,525C 338.386,530.903 333.386,535.903 327.5,540C 321.146,548.019 314.146,555.352 306.5,562C 298.836,564.784 291.836,563.784 285.5,559C 276.215,550.555 267.882,541.389 260.5,531.5C 259.52,528.914 259.187,526.247 259.5,523.5C 268.302,532.133 277.302,540.633 286.5,549C 289.298,550.469 292.298,551.302 295.5,551.5C 301.262,550.619 306.262,548.119 310.5,544C 334.719,518.991 359.052,494.491 383.5,470.5 Z"/>
<path fill="#555552" d="M 122.5,573.5 C 166.833,573.5 211.167,573.5 255.5,573.5C 257.027,573.427 258.027,574.094 258.5,575.5C 211.665,576.831 164.665,576.831 117.5,575.5C 119.291,574.83 120.958,574.163 122.5,573.5 Z"/>
<path fill="#5c5b58" d="M 338.5,573.5 C 358.167,573.5 377.833,573.5 397.5,573.5C 397.5,574.833 397.5,576.167 397.5,577.5C 376.833,577.5 356.167,577.5 335.5,577.5C 335.738,575.596 336.738,574.262 338.5,573.5 Z"/>
<path fill="#72706b" d="M 122.5,573.5 C 120.958,574.163 119.291,574.83 117.5,575.5C 164.665,576.831 211.665,576.831 258.5,575.5C 259.338,575.842 259.672,576.508 259.5,577.5C 211.833,577.5 164.167,577.5 116.5,577.5C 116.5,576.167 116.5,574.833 116.5,573.5C 118.5,573.5 120.5,573.5 122.5,573.5 Z"/>
<path fill="#e6b172" d="M 420.5,473.5 C 421.638,476.304 421.805,479.304 421,482.5C 418.58,487.33 416.746,492.33 415.5,497.5C 409.631,500.198 405.131,504.532 402,510.5C 390.019,521.917 377.853,533.25 365.5,544.5C 356.817,554.514 347.817,564.181 338.5,573.5C 336.738,574.262 335.738,575.596 335.5,577.5C 333.186,579.477 330.853,581.477 328.5,583.5C 326.738,584.262 325.738,585.596 325.5,587.5C 322.029,588.633 320.029,590.967 319.5,594.5C 314.523,597.852 309.19,600.185 303.5,601.5C 297.322,601.893 291.322,601.06 285.5,599C 279.986,594.977 274.653,590.81 269.5,586.5C 268.738,584.738 267.404,583.738 265.5,583.5C 265.205,579.871 263.205,577.871 259.5,577.5C 259.672,576.508 259.338,575.842 258.5,575.5C 258.027,574.094 257.027,573.427 255.5,573.5C 255.649,572.448 255.483,571.448 255,570.5C 245.023,561.935 235.857,552.602 227.5,542.5C 224.752,539.339 223.419,535.673 223.5,531.5C 241.314,548.983 258.98,566.316 276.5,583.5C 280.224,584.681 283.558,586.514 286.5,589C 291.167,589.667 295.833,589.667 300.5,589C 305.167,587 309.833,585 314.5,583C 345.055,552.111 375.888,521.611 407,491.5C 407.464,490.906 407.631,490.239 407.5,489.5C 411.307,487.032 413.974,483.698 415.5,479.5C 416.5,479.5 417.5,479.5 418.5,479.5C 418.704,477.315 419.37,475.315 420.5,473.5 Z"/>
<path fill="#5c5b59" d="M 265.5,583.5 C 267.404,583.738 268.738,584.738 269.5,586.5C 259.347,587.494 249.014,587.828 238.5,587.5C 238.5,586.167 238.5,584.833 238.5,583.5C 247.5,583.5 256.5,583.5 265.5,583.5 Z"/>
<path fill="#5c5b59" d="M 328.5,583.5 C 335.833,583.5 343.167,583.5 350.5,583.5C 350.5,584.833 350.5,586.167 350.5,587.5C 342.167,587.5 333.833,587.5 325.5,587.5C 325.738,585.596 326.738,584.262 328.5,583.5 Z"/>
<path fill="#0e0e0d" d="M 108.5,157.5 C 109.167,157.5 109.5,157.833 109.5,158.5C 120.659,159.659 131.992,159.826 143.5,159C 147.283,157.718 149.95,155.218 151.5,151.5C 152.496,157.463 152.829,163.463 152.5,169.5C 132.5,169.5 112.5,169.5 92.5,169.5C 94.1997,160.767 98.0331,153.101 104,146.5C 112.22,139.946 120.72,133.78 129.5,128C 139.079,118.406 140.912,107.573 135,95.5C 125.013,88.2273 115.679,88.8939 107,97.5C 103.051,108.813 106.884,114.646 118.5,115C 120.305,114.028 121.972,112.861 123.5,111.5C 124.583,112.365 124.749,113.365 124,114.5C 118.652,123.702 111.152,125.869 101.5,121C 90.9447,111.199 90.9447,101.199 101.5,91C 111.541,85.3482 122.208,84.0149 133.5,87C 152.031,95.5407 155.865,108.374 145,125.5C 141.5,128.333 138,131.167 134.5,134C 126.837,137.829 119.504,142.163 112.5,147C 108.897,150.38 105.897,154.213 103.5,158.5C 105.467,159.684 107.134,159.351 108.5,157.5 Z"/>
<path fill="#25231e" d="M 118.5,93.5 C 125.633,92.7347 131.466,95.0681 136,100.5C 137.187,102.044 137.52,103.711 137,105.5C 131.381,95.6387 123.548,93.472 113.5,99C 110.326,104.28 110.992,108.947 115.5,113C 112.883,112.74 111.05,111.24 110,108.5C 109.333,106.167 109.333,103.833 110,101.5C 112.074,97.9231 114.907,95.2565 118.5,93.5 Z"/>
<path fill="#2e2b24" d="M 126.5,114.5 C 127.376,114.369 128.043,114.702 128.5,115.5C 125.205,125.816 118.205,129.983 107.5,128C 104.308,126.906 101.642,125.073 99.5,122.5C 99.6667,122.167 99.8333,121.833 100,121.5C 105.192,126.332 111.358,127.832 118.5,126C 123.367,123.643 126.034,119.809 126.5,114.5 Z"/>
<path fill="#201d1a" d="M 109.5,158.5 C 109.5,157.833 109.167,157.5 108.5,157.5C 110.954,153.211 114.288,149.711 118.5,147C 126.329,142.92 133.996,138.587 141.5,134C 155.142,123.934 157.975,111.434 150,96.5C 148.167,94.6667 146.333,92.8333 144.5,91C 149.881,93.3939 153.715,97.5606 156,103.5C 158.458,116.076 154.625,126.243 144.5,134C 135.665,139.585 126.665,144.919 117.5,150C 114.601,152.729 111.934,155.562 109.5,158.5 Z"/>
<path fill="#191714" d="M 157.5,174.5 C 137.348,174.987 117.348,174.487 97.5,173C 117.164,172.5 136.831,172.333 156.5,172.5C 156.334,166.158 156.5,159.825 157,153.5C 157.5,160.492 157.666,167.492 157.5,174.5 Z"/>
</svg>
