<?xml version="1.0" encoding="UTF-8"?>
<!-- Author: Jiachun Li -->
<!DOCTYPE svg PUBLIC "-//W3C//DTD SVG 1.1//EN" "http://www.w3.org/Graphics/SVG/1.1/DTD/svg11.dtd">
<svg xmlns="http://www.w3.org/2000/svg" version="1.1" viewBox="-107 0 733 733" style="shape-rendering:geometricPrecision; text-rendering:geometricPrecision; image-rendering:optimizeQuality; fill-rule:evenodd; clip-rule:evenodd" xmlns:xlink="http://www.w3.org/1999/xlink">
<g><path style="opacity:1" fill="#eeefe1" d="M -0.5,-0.5 C 0.5,-0.5 1.5,-0.5 2.5,-0.5C 1.48837,0.871651 0.488369,2.20498 -0.5,3.5C -0.5,2.16667 -0.5,0.833333 -0.5,-0.5 Z"/></g>
<g><path style="opacity:1" fill="#040404" d="M 2.5,-0.5 C 173.5,-0.5 344.5,-0.5 515.5,-0.5C 516.167,0.833333 517.167,1.83333 518.5,2.5C 518.5,245.167 518.5,487.833 518.5,730.5C 346.167,730.5 173.833,730.5 1.5,730.5C 1.06795,729.29 0.40128,728.29 -0.5,727.5C -0.5,486.167 -0.5,244.833 -0.5,3.5C 0.488369,2.20498 1.48837,0.871651 2.5,-0.5 Z"/></g>
<g><path style="opacity:1" fill="#d2d1cd" d="M 515.5,-0.5 C 516.5,-0.5 517.5,-0.5 518.5,-0.5C 518.5,0.5 518.5,1.5 518.5,2.5C 517.167,1.83333 516.167,0.833333 515.5,-0.5 Z"/></g>
<g><path style="opacity:1" fill="#99968d" d="M 504.5,13.5 C 341.167,13.5 177.833,13.5 14.5,13.5C 14.5,248.5 14.5,483.5 14.5,718.5C 13.5002,483.334 13.1669,248.001 13.5,12.5C 177.334,12.167 341.001,12.5003 504.5,13.5 Z"/></g>
<g><path style="opacity:1" fill="#faf6e9" d="M 504.5,13.5 C 504.5,248.5 504.5,483.5 504.5,718.5C 341.167,718.5 177.833,718.5 14.5,718.5C 14.5,483.5 14.5,248.5 14.5,13.5C 177.833,13.5 341.167,13.5 504.5,13.5 Z"/></g>
<g><path style="opacity:1" fill="#010000" d="M 492.5,22.5 C 493.458,22.9528 494.292,23.6195 495,24.5C 495.5,252.166 495.667,479.833 495.5,707.5C 494.711,707.783 494.044,708.283 493.5,709C 337.5,709.667 181.5,709.667 25.5,709C 25,708.5 24.5,708 24,707.5C 23.3333,479.833 23.3333,252.167 24,24.5C 24.5,24 25,23.5 25.5,23C 181.166,22.5 336.833,22.3333 492.5,22.5 Z"/></g>
<g><path style="opacity:1" fill="#fcf7e6" d="M 495.5,707.5 C 495.667,479.833 495.5,252.166 495,24.5C 494.292,23.6195 493.458,22.9528 492.5,22.5C 338.667,21.6668 184.667,21.1668 30.5,21C 28.236,20.7638 26.0693,20.2638 24,19.5C 23.3333,20.1667 22.6667,20.8333 22,21.5C 21.7435,24.557 21.2435,27.557 20.5,30.5C 21.8313,142.86 22.498,255.36 22.5,368C 22.3333,480.167 22.1667,592.333 22,704.5C 19.9935,705.669 17.8268,706.335 15.5,706.5C 16.1652,481 16.8318,255.5 17.5,30C 15.6712,25.0276 15.0045,19.8609 15.5,14.5C 176.528,14.1709 337.528,14.5042 498.5,15.5C 498.833,932.833 499.167,932.833 499.5,15.5C 500.833,15.5 502.167,15.5 503.5,15.5C 503.658,248.908 503.491,482.241 503,715.5C 340.977,716.821 178.477,716.821 15.5,715.5C 16.5,714.667 17.5,713.833 18.5,713C 16.5614,712.092 15.5614,710.592 15.5,708.5C 17.9201,708.292 20.2534,708.626 22.5,709.5C 24.3885,715.525 27.3885,716.025 31.5,711C 180.833,710.5 330.166,710.333 479.5,710.5C 479.5,711.5 479.5,712.5 479.5,713.5C 484.179,713.666 488.845,713.499 493.5,713C 495.192,711.599 495.859,709.766 495.5,707.5 Z"/></g>
<g><path style="opacity:1" fill="#e4e1d7" d="M 30.5,29.5 C 183.167,29.5 335.833,29.5 488.5,29.5C 488.5,253.833 488.5,478.167 488.5,702.5C 335.833,702.5 183.167,702.5 30.5,702.5C 30.5,478.167 30.5,253.833 30.5,29.5 Z"/></g>
<g><path style="opacity:1" fill="#fcf6e6" d="M 31.5,30.5 C 183.5,30.5 335.5,30.5 487.5,30.5C 487.5,254.167 487.5,477.833 487.5,701.5C 335.5,701.5 183.5,701.5 31.5,701.5C 31.5,477.833 31.5,254.167 31.5,30.5 Z"/></g>
<g><path style="opacity:1" fill="#eecfad" d="M 314.5,601.5 C 311.109,603.743 307.442,605.41 303.5,606.5C 300.482,606.665 297.482,606.498 294.5,606C 293.584,605.722 292.918,605.222 292.5,604.5C 297.179,604.666 301.845,604.499 306.5,604C 308.927,602.409 311.593,601.575 314.5,601.5 Z"/></g>
<g><path style="opacity:1" fill="#ebeae8" d="M 303.5,606.5 C 307.442,605.41 311.109,603.743 314.5,601.5C 316.882,599.954 319.549,599.287 322.5,599.5C 322.223,602.448 322.556,605.281 323.5,608C 322.74,609.441 322.074,610.941 321.5,612.5C 313.528,613.498 305.528,613.831 297.5,613.5C 297.34,611.801 297.506,610.134 298,608.5C 299.948,607.891 301.782,607.224 303.5,606.5 Z"/></g>
<g><path style="opacity:1" fill="#555451" d="M 266.5,587.5 C 268.404,587.738 269.738,588.738 270.5,590.5C 260.167,590.5 249.833,590.5 239.5,590.5C 239.5,589.5 239.5,588.5 239.5,587.5C 248.5,587.5 257.5,587.5 266.5,587.5 Z"/></g>
<g><path style="opacity:1" fill="#585754" d="M 350.5,587.5 C 351.404,588.209 351.737,589.209 351.5,590.5C 343.167,590.5 334.833,590.5 326.5,590.5C 326.833,589.5 327.5,588.833 328.5,588.5C 335.746,587.536 343.08,587.203 350.5,587.5 Z"/></g>
<g><path style="opacity:1" fill="#b1aea8" d="M 330.5,586.5 C 337.354,586.176 344.021,586.509 350.5,587.5C 343.08,587.203 335.746,587.536 328.5,588.5C 328.5,587.167 329.167,586.5 330.5,586.5 Z"/></g>
<g><path style="opacity:1" fill="#dad7cb" d="M 117.5,580.5 C 165.167,580.5 212.833,580.5 260.5,580.5C 263.971,581.633 265.971,583.967 266.5,587.5C 257.5,587.5 248.5,587.5 239.5,587.5C 239.5,588.5 239.5,589.5 239.5,590.5C 249.833,590.5 260.167,590.5 270.5,590.5C 271.167,590.5 271.5,590.833 271.5,591.5C 260.346,592.495 249.012,592.828 237.5,592.5C 237.014,590.193 237.014,588.027 237.5,586C 234.874,583.625 232.04,583.125 229,584.5C 227.833,584.333 226.667,584.167 225.5,584C 225.833,583.667 226.167,583.333 226.5,583C 189.82,583.162 153.486,582.328 117.5,580.5 Z"/></g>
<g><path style="opacity:1" fill="#a4a39b" d="M 340.5,576.5 C 359.674,576.17 378.674,576.503 397.5,577.5C 378.497,577.333 359.497,577.5 340.5,578C 339.833,578.667 339.167,579.333 338.5,580C 358.164,580.5 377.831,580.667 397.5,580.5C 377.007,581.497 356.34,581.831 335.5,581.5C 336.785,579.548 338.451,577.882 340.5,576.5 Z"/></g>
<g><path style="opacity:1" fill="#545352" d="M 397.5,577.5 C 398.833,578.5 398.833,579.5 397.5,580.5C 377.831,580.667 358.164,580.5 338.5,580C 339.167,579.333 339.833,578.667 340.5,578C 359.497,577.5 378.497,577.333 397.5,577.5 Z"/></g>
<g><path style="opacity:1" fill="#61605e" d="M 256.5,576.5 C 258.71,576.894 260.043,578.227 260.5,580.5C 212.833,580.5 165.167,580.5 117.5,580.5C 117.5,579.167 117.5,577.833 117.5,576.5C 163.833,576.5 210.167,576.5 256.5,576.5 Z"/></g>
<g><path style="opacity:1" fill="#f2d6ac" d="M 372.5,543.5 C 372.631,544.239 372.464,544.906 372,545.5C 366.637,549.698 361.804,554.364 357.5,559.5C 361.132,552.869 366.132,547.536 372.5,543.5 Z"/></g>
<g><path style="opacity:1" fill="#e7b272" d="M 421.5,475.5 C 422.641,478.64 422.808,481.973 422,485.5C 420.357,489.46 418.69,493.46 417,497.5C 401.932,512.747 387.099,528.08 372.5,543.5C 366.132,547.536 361.132,552.869 357.5,559.5C 351.575,564.758 345.908,570.425 340.5,576.5C 338.451,577.882 336.785,579.548 335.5,581.5C 333.5,582.833 331.833,584.5 330.5,586.5C 329.167,586.5 328.5,587.167 328.5,588.5C 327.5,588.833 326.833,589.5 326.5,590.5C 322.158,593.844 318.158,597.51 314.5,601.5C 311.593,601.575 308.927,602.409 306.5,604C 301.845,604.499 297.179,604.666 292.5,604.5C 290.011,604.702 287.677,604.202 285.5,603C 280.94,598.931 276.274,595.098 271.5,591.5C 271.5,590.833 271.167,590.5 270.5,590.5C 269.738,588.738 268.404,587.738 266.5,587.5C 265.971,583.967 263.971,581.633 260.5,580.5C 260.043,578.227 258.71,576.894 256.5,576.5C 247.261,565.757 237.428,555.424 227,545.5C 225.836,542.505 224.67,539.505 223.5,536.5C 223.52,535.274 223.853,534.274 224.5,533.5C 242.019,551.519 259.686,569.352 277.5,587C 287.938,592.898 298.938,593.898 310.5,590C 313.557,587.277 316.89,584.944 320.5,583C 330.571,571.887 340.904,561.054 351.5,550.5C 357.442,546.227 362.776,541.227 367.5,535.5C 372.135,529.197 377.469,523.531 383.5,518.5C 385.932,517.25 388.266,515.75 390.5,514C 393.738,510.272 396.738,506.439 399.5,502.5C 405.033,497.173 410.366,491.506 415.5,485.5C 417.362,483.138 418.529,480.471 419,477.5C 419.708,476.619 420.542,475.953 421.5,475.5 Z"/></g>
<g><path style="opacity:1" fill="#887359" d="M 360.5,535.5 C 359.058,536.82 358.392,538.486 358.5,540.5C 359.552,540.649 360.552,540.483 361.5,540C 363.114,537.873 365.114,536.373 367.5,535.5C 362.776,541.227 357.442,546.227 351.5,550.5C 353.811,547.853 356.144,545.186 358.5,542.5C 357.995,541.081 356.995,540.415 355.5,540.5C 356.167,537.833 357.833,536.167 360.5,535.5 Z"/></g>
<g><path style="opacity:1" fill="#b49169" d="M 399.5,502.5 C 396.738,506.439 393.738,510.272 390.5,514C 388.266,515.75 385.932,517.25 383.5,518.5C 388.425,512.908 393.758,507.575 399.5,502.5 Z"/></g>
<g><path style="opacity:1" fill="#f6f4f0" d="M 272.5,452.5 C 275.285,452.933 277.619,454.266 279.5,456.5C 280.614,457.723 280.781,459.056 280,460.5C 273.634,466.275 267.134,471.941 260.5,477.5C 248.784,491.544 236.45,504.877 223.5,517.5C 222.825,509.716 224.658,502.716 229,496.5C 243.753,481.908 258.253,467.242 272.5,452.5 Z"/></g>
<g><path style="opacity:1" fill="#eab370" d="M 159.5,291.5 C 168.527,301.194 177.86,310.527 187.5,319.5C 187.369,320.239 187.536,320.906 188,321.5C 206.739,339.526 225.072,358.193 243,377.5C 251.704,385.707 260.537,393.707 269.5,401.5C 272.015,406.363 275.348,410.696 279.5,414.5C 287.495,421.494 295.495,428.494 303.5,435.5C 304.167,435.333 304.833,435.167 305.5,435C 312.038,426.425 319.371,418.592 327.5,411.5C 337.731,404.827 348.731,403.66 360.5,408C 363.238,411.404 366.571,414.071 370.5,416C 385.752,432.082 401.085,447.916 416.5,463.5C 416.851,468.978 416.184,474.312 414.5,479.5C 396.766,497.734 378.932,515.734 361,533.5C 360.536,534.094 360.369,534.761 360.5,535.5C 357.833,536.167 356.167,537.833 355.5,540.5C 353.278,542.398 350.945,544.231 348.5,546C 347,548.833 344.833,551 342,552.5C 340.559,556.608 337.725,559.441 333.5,561C 327.058,567.426 320.725,574.092 314.5,581C 310.519,583.83 306.185,585.996 301.5,587.5C 295.226,587.941 289.226,586.941 283.5,584.5C 282.078,584.291 280.745,583.791 279.5,583C 263.308,565.808 246.808,548.975 230,532.5C 226.006,528.372 223.84,523.372 223.5,517.5C 236.45,504.877 248.784,491.544 260.5,477.5C 267.134,471.941 273.634,466.275 280,460.5C 280.781,459.056 280.614,457.723 279.5,456.5C 277.619,454.266 275.285,452.933 272.5,452.5C 274.502,449.666 277.002,447.333 280,445.5C 280.781,444.056 280.614,442.723 279.5,441.5C 234.405,396.072 189.405,350.739 144.5,305.5C 142.5,303.5 140.5,301.5 138.5,299.5C 143.445,295.73 148.278,291.73 153,287.5C 155.038,289.037 157.205,290.37 159.5,291.5 Z"/></g>
<g><path style="opacity:1" fill="#605f5c" d="M 376.5,481.5 C 353.857,504.061 331.523,526.561 309.5,549C 306.991,550.421 304.657,552.088 302.5,554C 297.958,554.746 293.458,554.579 289,553.5C 287.3,551.394 285.133,549.894 282.5,549C 275.379,541.897 268.379,534.73 261.5,527.5C 261.5,527.167 261.5,526.833 261.5,526.5C 262.847,527.028 264.181,527.195 265.5,527C 263.323,525.814 262.323,523.981 262.5,521.5C 271.722,531.556 281.389,541.056 291.5,550C 294.5,550.667 297.5,550.667 300.5,550C 303.5,548 306.5,546 309.5,544C 330.198,522.473 350.865,501.307 371.5,480.5C 373.044,480.297 374.378,479.63 375.5,478.5C 376.386,479.325 376.719,480.325 376.5,481.5 Z"/></g>
<g><path style="opacity:1" fill="#f8f3e3" d="M 383.5,473.5 C 384.389,475.91 385.055,478.41 385.5,481C 384.943,484.895 383.443,488.395 381,491.5C 356.934,515.147 333.1,539.147 309.5,563.5C 303.819,566.535 297.819,567.202 291.5,565.5C 280.503,556.669 270.669,546.669 262,535.5C 260.304,532.881 260.137,530.214 261.5,527.5C 268.379,534.73 275.379,541.897 282.5,549C 285.133,549.894 287.3,551.394 289,553.5C 293.458,554.579 297.958,554.746 302.5,554C 304.657,552.088 306.991,550.421 309.5,549C 331.523,526.561 353.857,504.061 376.5,481.5C 378.577,478.623 380.911,475.957 383.5,473.5 Z"/></g>
<g><path style="opacity:1" fill="#e6b171" d="M 378.5,467.5 C 370.05,458.891 361.05,450.725 351.5,443C 347.167,442.333 342.833,442.333 338.5,443C 336.561,443.908 335.561,445.408 335.5,447.5C 334.325,447.281 333.325,447.614 332.5,448.5C 308.884,472.236 285.551,495.902 262.5,519.5C 259.861,514.891 260.028,510.225 263,505.5C 287.483,481.185 311.65,456.851 335.5,432.5C 340.833,431.167 346.167,431.167 351.5,432.5C 359.846,441.346 368.346,450.013 377,458.5C 378.289,461.351 378.789,464.351 378.5,467.5 Z"/></g>
<g><path style="opacity:1" fill="#fbf5e5" d="M 378.5,467.5 C 378.741,470.794 377.908,473.794 376,476.5C 374.008,477.328 372.508,478.661 371.5,480.5C 350.865,501.307 330.198,522.473 309.5,544C 306.5,546 303.5,548 300.5,550C 297.5,550.667 294.5,550.667 291.5,550C 281.389,541.056 271.722,531.556 262.5,521.5C 262.5,520.833 262.5,520.167 262.5,519.5C 285.551,495.902 308.884,472.236 332.5,448.5C 333.325,447.614 334.325,447.281 335.5,447.5C 335.561,445.408 336.561,443.908 338.5,443C 342.833,442.333 347.167,442.333 351.5,443C 361.05,450.725 370.05,458.891 378.5,467.5 Z"/></g>
<g><path style="opacity:1" fill="#625a52" d="M 383.5,473.5 C 380.911,475.957 378.577,478.623 376.5,481.5C 376.719,480.325 376.386,479.325 375.5,478.5C 374.378,479.63 373.044,480.297 371.5,480.5C 372.508,478.661 374.008,477.328 376,476.5C 377.908,473.794 378.741,470.794 378.5,467.5C 378.789,464.351 378.289,461.351 377,458.5C 368.346,450.013 359.846,441.346 351.5,432.5C 346.167,431.167 340.833,431.167 335.5,432.5C 311.65,456.851 287.483,481.185 263,505.5C 260.028,510.225 259.861,514.891 262.5,519.5C 262.5,520.167 262.5,520.833 262.5,521.5C 262.323,523.981 263.323,525.814 265.5,527C 264.181,527.195 262.847,527.028 261.5,526.5C 259.762,524.15 257.929,521.817 256,519.5C 254.841,513.836 255.508,508.502 258,503.5C 281.834,479.999 305.334,456.165 328.5,432C 336.739,424.679 345.739,423.679 355.5,429C 364.918,438.49 374.084,448.323 383,458.5C 383.499,463.489 383.666,468.489 383.5,473.5 Z"/></g>
<g><path style="opacity:1" fill="#f7f6f3" d="M 363.5,401.5 C 363.5,402.5 363.5,403.5 363.5,404.5C 361.516,404.383 359.85,405.05 358.5,406.5C 357.205,405.902 355.872,405.402 354.5,405C 346.5,404.333 338.5,404.333 330.5,405C 329.086,406.993 328.086,409.16 327.5,411.5C 319.371,418.592 312.038,426.425 305.5,435C 304.833,435.167 304.167,435.333 303.5,435.5C 295.495,428.494 287.495,421.494 279.5,414.5C 275.348,410.696 272.015,406.363 269.5,401.5C 269.077,399.219 269.744,397.552 271.5,396.5C 280.689,404.855 289.355,413.688 297.5,423C 299.809,423.756 301.809,423.256 303.5,421.5C 311.999,411.836 321.332,403.003 331.5,395C 341.678,391.184 351.345,392.184 360.5,398C 361.71,399.039 362.71,400.206 363.5,401.5 Z"/></g>
<g><path style="opacity:1" fill="#f7f1e3" d="M 363.5,401.5 C 380.325,416.798 396.492,432.798 412,449.5C 415.594,453.45 417.094,458.116 416.5,463.5C 401.085,447.916 385.752,432.082 370.5,416C 366.571,414.071 363.238,411.404 360.5,408C 348.731,403.66 337.731,404.827 327.5,411.5C 328.086,409.16 329.086,406.993 330.5,405C 338.5,404.333 346.5,404.333 354.5,405C 355.872,405.402 357.205,405.902 358.5,406.5C 359.85,405.05 361.516,404.383 363.5,404.5C 363.5,403.5 363.5,402.5 363.5,401.5 Z"/></g>
<g><path style="opacity:1" fill="#e5b072" d="M 270.5,447.5 C 264.011,442.237 258.178,436.237 253,429.5C 241.959,418.124 230.625,407.124 219,396.5C 204.014,410.486 189.347,424.819 175,439.5C 166.764,431.719 158.764,423.719 151,415.5C 151.14,413.149 151.64,410.816 152.5,408.5C 158.713,414.977 165.047,421.477 171.5,428C 172.5,428.667 173.5,428.667 174.5,428C 177.52,423.646 181.187,419.98 185.5,417C 189.99,411.178 194.823,405.678 200,400.5C 205.678,395.487 211.345,390.487 217,385.5C 236.005,404.505 255.005,423.505 274,442.5C 274.281,445.07 273.114,446.736 270.5,447.5 Z"/></g>
<g><path style="opacity:1" fill="#5f5d5a" d="M 421.5,475.5 C 420.542,475.953 419.708,476.619 419,477.5C 418.529,480.471 417.362,483.138 415.5,485.5C 410.366,491.506 405.033,497.173 399.5,502.5C 393.758,507.575 388.425,512.908 383.5,518.5C 377.469,523.531 372.135,529.197 367.5,535.5C 365.114,536.373 363.114,537.873 361.5,540C 360.552,540.483 359.552,540.649 358.5,540.5C 358.392,538.486 359.058,536.82 360.5,535.5C 360.369,534.761 360.536,534.094 361,533.5C 378.932,515.734 396.766,497.734 414.5,479.5C 416.184,474.312 416.851,468.978 416.5,463.5C 417.094,458.116 415.594,453.45 412,449.5C 396.492,432.798 380.325,416.798 363.5,401.5C 362.71,400.206 361.71,399.039 360.5,398C 351.345,392.184 341.678,391.184 331.5,395C 321.332,403.003 311.999,411.836 303.5,421.5C 301.809,423.256 299.809,423.756 297.5,423C 289.355,413.688 280.689,404.855 271.5,396.5C 248.19,371.523 224.19,347.19 199.5,323.5C 183.401,307.506 167.401,291.339 151.5,275C 150.833,274.333 150.167,274.333 149.5,275C 145.269,279.062 141.269,283.229 137.5,287.5C 135.191,288.388 133.524,290.054 132.5,292.5C 133.802,295.466 135.802,297.799 138.5,299.5C 140.5,301.5 142.5,303.5 144.5,305.5C 144.022,308.278 145.022,310.278 147.5,311.5C 146.635,312.583 145.635,312.749 144.5,312C 143.915,310.698 143.249,309.531 142.5,308.5C 139.851,306.86 137.184,305.193 134.5,303.5C 132.964,300.118 130.798,297.118 128,294.5C 127.333,293.167 127.333,291.833 128,290.5C 133.931,284.446 139.765,278.279 145.5,272C 147.269,270.936 148.936,269.769 150.5,268.5C 154.434,271.605 157.934,275.271 161,279.5C 201.616,320.089 242.616,360.756 284,401.5C 288.5,406.667 293,411.833 297.5,417C 298.833,417.667 300.167,417.667 301.5,417C 308.623,409.887 315.623,402.721 322.5,395.5C 336.746,386.371 351.08,386.204 365.5,395C 370,400.167 374.5,405.333 379,410.5C 392.333,422.5 405,435.167 417,448.5C 422.16,456.81 423.66,465.81 421.5,475.5 Z"/></g>
<g><path style="opacity:1" fill="#e6b171" d="M 181.5,359.5 C 179.895,356.393 177.728,353.726 175,351.5C 160.544,366.108 145.878,380.441 131,394.5C 123.762,388.266 116.762,381.6 110,374.5C 108.121,372.473 106.954,370.14 106.5,367.5C 107.5,367.5 108.5,367.5 109.5,367.5C 115.344,370.829 120.511,375.162 125,380.5C 125.483,381.448 125.649,382.448 125.5,383.5C 127.288,383.785 128.955,383.452 130.5,382.5C 132.995,380.836 134.995,378.67 136.5,376C 140.922,374.756 143.256,371.923 143.5,367.5C 145.433,367.271 147.1,366.438 148.5,365C 155.838,356.424 163.672,348.257 172,340.5C 177.574,344.404 182.074,349.238 185.5,355C 184.296,356.699 182.962,358.199 181.5,359.5 Z"/></g>
<g><path style="opacity:1" fill="#f6f0df" d="M 187.5,319.5 C 189.199,319.34 190.866,319.506 192.5,320C 191.663,321.011 191.33,322.178 191.5,323.5C 194.292,323.452 196.125,324.785 197,327.5C 198.085,326.264 198.918,324.931 199.5,323.5C 224.19,347.19 248.19,371.523 271.5,396.5C 269.744,397.552 269.077,399.219 269.5,401.5C 260.537,393.707 251.704,385.707 243,377.5C 225.072,358.193 206.739,339.526 188,321.5C 187.536,320.906 187.369,320.239 187.5,319.5 Z"/></g>
<g><path style="opacity:1" fill="#5e5953" d="M 144.5,305.5 C 189.405,350.739 234.405,396.072 279.5,441.5C 280.614,442.723 280.781,444.056 280,445.5C 277.002,447.333 274.502,449.666 272.5,452.5C 258.253,467.242 243.753,481.908 229,496.5C 224.658,502.716 222.825,509.716 223.5,517.5C 223.84,523.372 226.006,528.372 230,532.5C 246.808,548.975 263.308,565.808 279.5,583C 280.745,583.791 282.078,584.291 283.5,584.5C 285.075,586.941 287.408,588.107 290.5,588C 294.358,588.81 298.024,588.643 301.5,587.5C 306.185,585.996 310.519,583.83 314.5,581C 320.725,574.092 327.058,567.426 333.5,561C 337.725,559.441 340.559,556.608 342,552.5C 344.833,551 347,548.833 348.5,546C 350.945,544.231 353.278,542.398 355.5,540.5C 356.995,540.415 357.995,541.081 358.5,542.5C 356.144,545.186 353.811,547.853 351.5,550.5C 340.904,561.054 330.571,571.887 320.5,583C 316.89,584.944 313.557,587.277 310.5,590C 298.938,593.898 287.938,592.898 277.5,587C 259.686,569.352 242.019,551.519 224.5,533.5C 218.107,523.134 216.94,512.134 221,500.5C 223.215,498.21 224.881,495.543 226,492.5C 241.288,478.045 256.121,463.045 270.5,447.5C 273.114,446.736 274.281,445.07 274,442.5C 255.005,423.505 236.005,404.505 217,385.5C 211.345,390.487 205.678,395.487 200,400.5C 194.823,405.678 189.99,411.178 185.5,417C 181.187,419.98 177.52,423.646 174.5,428C 173.5,428.667 172.5,428.667 171.5,428C 165.047,421.477 158.713,414.977 152.5,408.5C 149.704,405.203 146.704,402.036 143.5,399C 156.483,386.036 169.149,372.869 181.5,359.5C 182.962,358.199 184.296,356.699 185.5,355C 182.074,349.238 177.574,344.404 172,340.5C 163.672,348.257 155.838,356.424 148.5,365C 147.1,366.438 145.433,367.271 143.5,367.5C 143.256,371.923 140.922,374.756 136.5,376C 134.995,378.67 132.995,380.836 130.5,382.5C 128.955,383.452 127.288,383.785 125.5,383.5C 125.649,382.448 125.483,381.448 125,380.5C 120.511,375.162 115.344,370.829 109.5,367.5C 109.392,365.217 108.559,363.217 107,361.5C 103.452,359.637 101.118,356.97 100,353.5C 112.811,340.858 125.311,328.191 137.5,315.5C 140.331,314.002 141.998,311.669 142.5,308.5C 143.249,309.531 143.915,310.698 144.5,312C 145.635,312.749 146.635,312.583 147.5,311.5C 145.022,310.278 144.022,308.278 144.5,305.5 Z"/></g>
<g><path style="opacity:1" fill="#a38867" d="M 283.5,584.5 C 289.226,586.941 295.226,587.941 301.5,587.5C 298.024,588.643 294.358,588.81 290.5,588C 287.408,588.107 285.075,586.941 283.5,584.5 Z"/></g>
<g><path style="opacity:1" fill="#f4d4b0" d="M 309.5,563.5 C 304.793,568.639 299.126,569.806 292.5,567C 291.944,566.617 291.611,566.117 291.5,565.5C 297.819,567.202 303.819,566.535 309.5,563.5 Z"/></g>
<g><path style="opacity:1" fill="#e9b270" d="M 205.5,389.5 C 201.167,391.833 197.833,395.167 195.5,399.5C 187.404,406.331 179.737,413.664 172.5,421.5C 166.431,416.098 160.764,410.431 155.5,404.5C 156.552,404.649 157.552,404.483 158.5,404C 169.539,393.353 180.372,382.52 191,371.5C 191.51,369.171 190.844,367.171 189,365.5C 187.89,363.963 186.39,363.297 184.5,363.5C 186.052,360.724 188.386,359.557 191.5,360C 198.333,366.833 205.167,373.667 212,380.5C 212.483,381.448 212.649,382.448 212.5,383.5C 209.268,384.394 206.935,386.394 205.5,389.5 Z"/></g>
<g><path style="opacity:1" fill="#987a5e" d="M 205.5,389.5 C 202.5,393.167 199.167,396.5 195.5,399.5C 197.833,395.167 201.167,391.833 205.5,389.5 Z"/></g>
<g><path style="opacity:1" fill="#f8f2e1" d="M 184.5,363.5 C 186.39,363.297 187.89,363.963 189,365.5C 190.844,367.171 191.51,369.171 191,371.5C 180.372,382.52 169.539,393.353 158.5,404C 157.552,404.483 156.552,404.649 155.5,404.5C 152.435,402.627 150.935,399.96 151,396.5C 161.76,384.912 172.926,373.912 184.5,363.5 Z"/></g>
<g><path style="opacity:1" fill="#eab270" d="M 113.5,361.5 C 124.835,349.491 136.169,337.491 147.5,325.5C 144.794,323.476 143.461,320.81 143.5,317.5C 143.722,314.924 145.055,314.09 147.5,315C 153.732,322.397 160.399,329.23 167.5,335.5C 168.833,336.5 168.833,337.5 167.5,338.5C 154.42,351.249 141.42,363.916 128.5,376.5C 122.506,372.506 117.506,367.506 113.5,361.5 Z"/></g>
<g><path style="opacity:1" fill="#f9f3e3" d="M 143.5,317.5 C 143.461,320.81 144.794,323.476 147.5,325.5C 136.169,337.491 124.835,349.491 113.5,361.5C 109.352,359.852 107.185,356.852 107,352.5C 118.779,340.216 130.946,328.55 143.5,317.5 Z"/></g>
<g><path style="opacity:1" fill="#d8ad79" d="M 134.5,303.5 C 137.184,305.193 139.851,306.86 142.5,308.5C 141.998,311.669 140.331,314.002 137.5,315.5C 136.627,313.114 135.127,311.114 133,309.5C 132.252,307.16 132.752,305.16 134.5,303.5 Z"/></g>
<g><path style="opacity:1" fill="#f4f3f1" d="M 199.5,323.5 C 198.918,324.931 198.085,326.264 197,327.5C 196.125,324.785 194.292,323.452 191.5,323.5C 191.33,322.178 191.663,321.011 192.5,320C 190.866,319.506 189.199,319.34 187.5,319.5C 177.86,310.527 168.527,301.194 159.5,291.5C 157.688,289.539 156.688,287.206 156.5,284.5C 151.837,283.376 149.003,285.043 148,289.5C 146.429,291.923 144.263,293.256 141.5,293.5C 141.646,290.446 140.313,288.446 137.5,287.5C 141.269,283.229 145.269,279.062 149.5,275C 150.167,274.333 150.833,274.333 151.5,275C 167.401,291.339 183.401,307.506 199.5,323.5 Z"/></g>
<g><path style="opacity:1" fill="#f6eedc" d="M 159.5,291.5 C 157.205,290.37 155.038,289.037 153,287.5C 148.278,291.73 143.445,295.73 138.5,299.5C 135.802,297.799 133.802,295.466 132.5,292.5C 133.524,290.054 135.191,288.388 137.5,287.5C 140.313,288.446 141.646,290.446 141.5,293.5C 144.263,293.256 146.429,291.923 148,289.5C 149.003,285.043 151.837,283.376 156.5,284.5C 156.688,287.206 157.688,289.539 159.5,291.5 Z"/></g>
<g><path style="opacity:1" fill="#0f0e0c" d="M 124.5,48.5 C 125.873,48.3433 127.207,48.51 128.5,49C 155.68,76.0137 182.68,103.18 209.5,130.5C 182.443,158.558 154.776,185.891 126.5,212.5C 98.9043,186.406 71.7376,159.739 45,132.5C 44.3333,131.167 44.3333,129.833 45,128.5C 71.7016,101.965 98.2016,75.2987 124.5,48.5 Z"/></g>
<g><path style="opacity:1" fill="#f9f4e4" d="M 159.5,173.5 C 148.854,184.812 137.854,195.812 126.5,206.5C 100.833,181.5 75.5,156.167 50.5,130.5C 75.5,104.833 100.833,79.5 126.5,54.5C 152.167,79.5 177.5,104.833 202.5,130.5C 188.479,145.188 174.146,159.521 159.5,173.5 Z"/></g>
<g><path style="opacity:1" fill="#171615" d="M 159.5,173.5 C 139.348,173.987 119.348,173.487 99.5,172C 119.164,171.5 138.831,171.333 158.5,171.5C 158.334,165.158 158.5,158.825 159,152.5C 159.5,159.492 159.666,166.492 159.5,173.5 Z"/></g>
<g><path style="opacity:1" fill="#26231f" d="M 138.5,158.5 C 128.932,159.817 119.265,159.817 109.5,158.5C 110.619,155.112 112.619,152.279 115.5,150C 124.5,143.831 133.834,138.164 143.5,133C 157.142,122.934 159.975,110.434 152,95.5C 150.167,93.6667 148.333,91.8333 146.5,90C 151.881,92.3939 155.715,96.5606 158,102.5C 160.458,115.076 156.625,125.243 146.5,133C 137.665,138.585 128.665,143.919 119.5,149C 116.462,151.703 113.795,154.703 111.5,158C 120.494,158.5 129.494,158.666 138.5,158.5 Z"/></g>
<g><path style="opacity:1" fill="#26231d" d="M 128.5,113.5 C 129.376,113.369 130.043,113.702 130.5,114.5C 127.216,124.811 120.216,128.978 109.5,127C 106.308,125.906 103.642,124.073 101.5,121.5C 101.667,121.167 101.833,120.833 102,120.5C 110.58,128.393 118.913,128.06 127,119.5C 127.813,117.564 128.313,115.564 128.5,113.5 Z"/></g>
<g><path style="opacity:1" fill="#0d0c0b" d="M 109.5,158.5 C 119.265,159.817 128.932,159.817 138.5,158.5C 145.598,159.59 150.598,156.923 153.5,150.5C 154.496,156.463 154.829,162.463 154.5,168.5C 134.5,168.5 114.5,168.5 94.5,168.5C 96.1997,159.767 100.033,152.101 106,145.5C 114.22,138.946 122.72,132.78 131.5,127C 141.079,117.406 142.912,106.573 137,94.5C 127.013,87.2273 117.679,87.8939 109,96.5C 105.022,107.745 108.856,113.578 120.5,114C 122.305,113.028 123.972,111.861 125.5,110.5C 125.671,117.495 122.005,121.328 114.5,122C 102.952,122.553 96.6186,117.053 95.5,105.5C 97.2379,93.9281 103.905,87.0947 115.5,85C 128.691,82.3625 139.858,85.8625 149,95.5C 155.332,105.545 154.665,115.212 147,124.5C 143.5,127.333 140,130.167 136.5,133C 128.837,136.829 121.504,141.163 114.5,146C 110.897,149.38 107.897,153.213 105.5,157.5C 106.689,158.429 108.022,158.762 109.5,158.5 Z"/></g>
<g><path style="opacity:1" fill="#22201c" d="M 120.5,92.5 C 127.633,91.7347 133.466,94.0681 138,99.5C 139.187,101.044 139.52,102.711 139,104.5C 135.345,96.5244 129.179,93.3577 120.5,95C 114.205,97.4252 112.038,101.925 114,108.5C 115.167,109.667 116.333,110.833 117.5,112C 114.883,111.74 113.05,110.24 112,107.5C 111.333,105.167 111.333,102.833 112,100.5C 114.074,96.9231 116.907,94.2565 120.5,92.5 Z"/></g>
<g><path style="opacity:1" fill="#cac9c4" d="M -0.5,727.5 C 0.40128,728.29 1.06795,729.29 1.5,730.5C 0.833333,730.5 0.166667,730.5 -0.5,730.5C -0.5,729.5 -0.5,728.5 -0.5,727.5 Z"/></g>
</svg>
