<?xml version="1.0" encoding="UTF-8"?>
<!-- Author: Jiachun Li -->
<!DOCTYPE svg PUBLIC "-//W3C//DTD SVG 1.1//EN" "http://www.w3.org/Graphics/SVG/1.1/DTD/svg11.dtd">
<svg xmlns="http://www.w3.org/2000/svg" version="1.1" viewBox="-107 0 733 733" style="shape-rendering:geometricPrecision; text-rendering:geometricPrecision; image-rendering:optimizeQuality; fill-rule:evenodd; clip-rule:evenodd" xmlns:xlink="http://www.w3.org/1999/xlink">
<g><path style="opacity:1" fill="#eaeae1" d="M -0.5,-0.5 C 0.5,-0.5 1.5,-0.5 2.5,-0.5C 1.70951,0.40128 0.709515,1.06795 -0.5,1.5C -0.5,0.833333 -0.5,0.166667 -0.5,-0.5 Z"/></g>
<g><path style="opacity:1" fill="#030303" d="M 2.5,-0.5 C 172.167,-0.5 341.833,-0.5 511.5,-0.5C 513.142,0.802988 514.809,2.13632 516.5,3.5C 516.5,245.5 516.5,487.5 516.5,729.5C 515.599,730.29 514.932,731.29 514.5,732.5C 342.833,732.5 171.167,732.5 -0.5,732.5C -0.5,488.833 -0.5,245.167 -0.5,1.5C 0.709515,1.06795 1.70951,0.40128 2.5,-0.5 Z"/></g>
<g><path style="opacity:1" fill="#e8e7d9" d="M 511.5,-0.5 C 513.167,-0.5 514.833,-0.5 516.5,-0.5C 516.5,0.833333 516.5,2.16667 516.5,3.5C 514.809,2.13632 513.142,0.802988 511.5,-0.5 Z"/></g>
<g><path style="opacity:1" fill="#9a978e" d="M 502.5,14.5 C 339.167,14.5 175.833,14.5 12.5,14.5C 12.5,249.5 12.5,484.5 12.5,719.5C 11.5002,484.334 11.1669,249.001 11.5,13.5C 175.334,13.167 339.001,13.5003 502.5,14.5 Z"/></g>
<g><path style="opacity:1" fill="#faf7eb" d="M 502.5,14.5 C 503.166,249.836 502.499,484.836 500.5,719.5C 500.5,484.833 500.5,250.167 500.5,15.5C 343.935,16.1362 187.435,16.8028 31,17.5C 27.8725,17.8268 24.7059,17.1601 21.5,15.5C 18.661,15.3368 16.9943,16.6701 16.5,19.5C 15.8333,18.1667 15.1667,16.8333 14.5,15.5C 13.5,250.166 13.1667,484.832 13.5,719.5C 13.1667,719.5 12.8333,719.5 12.5,719.5C 12.5,484.5 12.5,249.5 12.5,14.5C 175.833,14.5 339.167,14.5 502.5,14.5 Z"/></g>
<g><path style="opacity:1" fill="#fdf7e6" d="M 500.5,719.5 C 338.167,719.5 175.833,719.5 13.5,719.5C 13.1667,484.832 13.5,250.166 14.5,15.5C 15.1667,16.8333 15.8333,18.1667 16.5,19.5C 16.9943,16.6701 18.661,15.3368 21.5,15.5C 24.7059,17.1601 27.8725,17.8268 31,17.5C 187.435,16.8028 343.935,16.1362 500.5,15.5C 500.5,250.167 500.5,484.833 500.5,719.5 Z"/></g>
<g><path style="opacity:1" fill="#f9f5e9" d="M 491.5,23.5 C 492.833,23.5 494.167,23.5 495.5,23.5C 494.172,251.132 494.172,478.966 495.5,707C 495.172,710.789 493.006,712.956 489,713.5C 333.554,713.655 178.054,713.489 22.5,713C 21.5,712.5 20.5,712 19.5,711.5C 20.8291,482.911 20.8291,254.411 19.5,26C 20.1408,23.8697 21.4741,22.3697 23.5,21.5C 179.627,22.1652 335.627,22.8319 491.5,23.5 Z"/></g>
<g><path style="opacity:1" fill="#010000" d="M 491.5,23.5 C 491.783,24.2891 492.283,24.9558 493,25.5C 493.667,253.167 493.667,480.833 493,708.5C 492.5,709 492,709.5 491.5,710C 335.5,710.667 179.5,710.667 23.5,710C 23,709.5 22.5,709 22,708.5C 21.3333,480.833 21.3333,253.167 22,25.5C 22.5,25 23,24.5 23.5,24C 179.5,23.5 335.5,23.3333 491.5,23.5 Z"/></g>
<g><path style="opacity:1" fill="#e5e1d5" d="M 28.5,30.5 C 181.167,30.5 333.833,30.5 486.5,30.5C 486.5,254.833 486.5,479.167 486.5,703.5C 333.833,703.5 181.167,703.5 28.5,703.5C 28.5,479.167 28.5,254.833 28.5,30.5 Z"/></g>
<g><path style="opacity:1" fill="#fcf6e6" d="M 29.5,31.5 C 181.5,31.5 333.5,31.5 485.5,31.5C 485.5,255.167 485.5,478.833 485.5,702.5C 333.5,702.5 181.5,702.5 29.5,702.5C 29.5,478.833 29.5,255.167 29.5,31.5 Z"/></g>
<g><path style="opacity:1" fill="#ebeae9" d="M 303.5,605.5 C 304.167,605.5 304.833,605.5 305.5,605.5C 309.468,605.652 313.135,604.652 316.5,602.5C 315.613,599.325 316.946,597.658 320.5,597.5C 320.313,602.845 319.98,608.178 319.5,613.5C 311.5,613.5 303.5,613.5 295.5,613.5C 295.201,611.396 295.534,609.396 296.5,607.5C 298.982,606.933 301.316,606.266 303.5,605.5 Z"/></g>
<g><path style="opacity:1" fill="#565652" d="M 328.5,587.5 C 335.5,587.5 342.5,587.5 349.5,587.5C 349.5,588.5 349.5,589.5 349.5,590.5C 341.167,590.5 332.833,590.5 324.5,590.5C 325.436,589.026 326.77,588.026 328.5,587.5 Z"/></g>
<g><path style="opacity:1" fill="#565553" d="M 264.5,587.5 C 266.404,587.738 267.738,588.738 268.5,590.5C 258.167,590.5 247.833,590.5 237.5,590.5C 237.5,589.5 237.5,588.5 237.5,587.5C 246.5,587.5 255.5,587.5 264.5,587.5 Z"/></g>
<g><path style="opacity:1" fill="#d8d6ca" d="M 115.5,580.5 C 163.167,580.5 210.833,580.5 258.5,580.5C 260.175,582.002 262.008,583.335 264,584.5C 264.483,585.448 264.649,586.448 264.5,587.5C 255.5,587.5 246.5,587.5 237.5,587.5C 237.5,588.5 237.5,589.5 237.5,590.5C 247.833,590.5 258.167,590.5 268.5,590.5C 269.71,590.932 270.71,591.599 271.5,592.5C 259.5,592.5 247.5,592.5 235.5,592.5C 235.656,589.934 235.322,587.434 234.5,585C 234.905,584.055 235.572,583.388 236.5,583C 195.821,583.162 155.488,582.329 115.5,580.5 Z"/></g>
<g><path style="opacity:1" fill="#acaba4" d="M 335.5,579.5 C 355.66,580.497 375.993,580.83 396.5,580.5C 375.833,581.833 355.167,581.833 334.5,580.5C 334.5,579.833 334.833,579.5 335.5,579.5 Z"/></g>
<g><path style="opacity:1" fill="#61605e" d="M 339.5,576.5 C 358.17,576.333 376.836,576.5 395.5,577C 396.337,578.011 396.67,579.178 396.5,580.5C 375.993,580.83 355.66,580.497 335.5,579.5C 336.035,577.554 337.368,576.554 339.5,576.5 Z"/></g>
<g><path style="opacity:1" fill="#61605e" d="M 255.5,576.5 C 256.853,577.526 257.853,578.859 258.5,580.5C 210.833,580.5 163.167,580.5 115.5,580.5C 115.5,579.167 115.5,577.833 115.5,576.5C 162.167,576.5 208.833,576.5 255.5,576.5 Z"/></g>
<g><path style="opacity:1" fill="#e6b171" d="M 419.5,473.5 C 421.255,490.66 414.588,503.326 399.5,511.5C 399.5,512.833 399.5,514.167 399.5,515.5C 398.325,515.281 397.325,515.614 396.5,516.5C 393.593,519.117 390.927,521.951 388.5,525C 387.1,526.438 385.433,527.271 383.5,527.5C 383.271,529.433 382.438,531.1 381,532.5C 377.275,535.638 373.775,538.971 370.5,542.5C 369.675,543.386 368.675,543.719 367.5,543.5C 367.271,545.433 366.438,547.1 365,548.5C 361.611,551.6 358.445,554.933 355.5,558.5C 354.311,559.429 352.978,559.762 351.5,559.5C 351.649,560.552 351.483,561.552 351,562.5C 347.333,566.167 343.667,569.833 340,573.5C 339.517,574.448 339.351,575.448 339.5,576.5C 337.368,576.554 336.035,577.554 335.5,579.5C 334.833,579.5 334.5,579.833 334.5,580.5C 331.088,581.581 329.088,583.915 328.5,587.5C 326.77,588.026 325.436,589.026 324.5,590.5C 318.23,595.774 311.897,600.774 305.5,605.5C 304.833,605.5 304.167,605.5 303.5,605.5C 296.678,605.876 290.012,605.043 283.5,603C 279.307,599.635 275.307,596.135 271.5,592.5C 270.71,591.599 269.71,590.932 268.5,590.5C 267.738,588.738 266.404,587.738 264.5,587.5C 264.649,586.448 264.483,585.448 264,584.5C 262.008,583.335 260.175,582.002 258.5,580.5C 257.853,578.859 256.853,577.526 255.5,576.5C 247.484,566.651 238.651,557.651 229,549.5C 226.796,546.242 224.962,542.742 223.5,539C 223.528,537.93 223.861,537.097 224.5,536.5C 241.028,552.194 257.028,568.361 272.5,585C 281.111,591.277 290.611,593.777 301,592.5C 312.859,587.973 322.359,580.473 329.5,570C 332.686,566.818 336.186,563.985 340,561.5C 343.971,556.858 347.971,552.192 352,547.5C 373.42,526.739 394.42,505.406 415,483.5C 416.275,479.958 417.775,476.625 419.5,473.5 Z"/></g>
<g><path style="opacity:1" fill="#f5f4f3" d="M 271.5,452.5 C 272.764,454.27 274.264,455.937 276,457.5C 276.667,458.5 276.667,459.5 276,460.5C 264.007,471.66 252.507,483.326 241.5,495.5C 236.156,499.845 231.489,504.845 227.5,510.5C 224.786,513.049 222.786,516.049 221.5,519.5C 220.859,512.179 222.025,505.179 225,498.5C 240.47,482.862 255.97,467.529 271.5,452.5 Z"/></g>
<g><path style="opacity:1" fill="#eab270" d="M 191.5,326.5 C 215.163,350.664 239.163,374.831 263.5,399C 264.094,399.464 264.761,399.631 265.5,399.5C 268.541,402.254 270.541,405.588 271.5,409.5C 274.285,409.933 276.619,411.266 278.5,413.5C 284.377,418.547 289.377,424.38 293.5,431C 296.179,431.672 298.512,432.839 300.5,434.5C 306.645,430.189 311.978,425.022 316.5,419C 317.448,418.517 318.448,418.351 319.5,418.5C 319.281,417.325 319.614,416.325 320.5,415.5C 331.838,404.879 344.838,402.546 359.5,408.5C 377.019,426.851 395.185,444.851 414,462.5C 414.464,461.906 414.631,461.239 414.5,460.5C 415.404,461.209 415.737,462.209 415.5,463.5C 415.663,465.857 415.497,468.19 415,470.5C 412.452,479.343 407.452,486.677 400,492.5C 399.517,493.448 399.351,494.448 399.5,495.5C 398.448,495.351 397.448,495.517 396.5,496C 392.333,500.167 388.167,504.333 384,508.5C 383.517,509.448 383.351,510.448 383.5,511.5C 382.448,511.351 381.448,511.517 380.5,512C 357.683,535.148 335.016,558.148 312.5,581C 300.065,590.959 287.732,590.959 275.5,581C 257.875,563.879 240.875,546.379 224.5,528.5C 223.295,525.55 222.295,522.55 221.5,519.5C 222.786,516.049 224.786,513.049 227.5,510.5C 232.985,506.023 237.652,501.023 241.5,495.5C 252.507,483.326 264.007,471.66 276,460.5C 276.667,459.5 276.667,458.5 276,457.5C 274.264,455.937 272.764,454.27 271.5,452.5C 272.782,449.383 274.949,447.05 278,445.5C 278.667,444.167 278.667,442.833 278,441.5C 264.43,428.64 251.096,415.64 238,402.5C 232.536,396.366 227.036,390.199 221.5,384C 220.552,383.517 219.552,383.351 218.5,383.5C 218.649,382.448 218.483,381.448 218,380.5C 199.029,361.306 179.696,342.306 160,323.5C 153.797,316.001 147.297,308.834 140.5,302C 139.473,301.487 138.473,300.987 137.5,300.5C 136.833,300.5 136.5,300.167 136.5,299.5C 140.05,296.096 143.383,292.429 146.5,288.5C 148.765,287.353 151.098,287.186 153.5,288C 166.344,300.677 179.011,313.51 191.5,326.5 Z"/></g>
<g><path style="opacity:1" fill="#605e5c" d="M 380.5,459.5 C 382.217,462.845 382.884,466.511 382.5,470.5C 381.692,472.22 380.692,473.887 379.5,475.5C 353.653,502.18 327.32,528.347 300.5,554C 295.713,554.879 291.047,554.545 286.5,553C 277.355,544.689 268.355,536.189 259.5,527.5C 260.408,525.151 260.408,522.485 259.5,519.5C 260.167,519.833 260.833,520.167 261.5,520.5C 261.709,521.922 262.209,523.255 263,524.5C 271.737,533.115 280.571,541.615 289.5,550C 292.5,550.667 295.5,550.667 298.5,550C 301.328,547.752 304.328,545.752 307.5,544C 329.173,520.635 351.339,498.135 374,476.5C 375.707,474.091 376.54,471.425 376.5,468.5C 377.468,466.393 377.802,464.059 377.5,461.5C 376.708,460.033 376.708,458.7 377.5,457.5C 378.265,458.612 379.265,459.279 380.5,459.5 Z"/></g>
<g><path style="opacity:1" fill="#e8b272" d="M 377.5,461.5 C 377.802,464.059 377.468,466.393 376.5,468.5C 369.118,460.615 361.451,452.782 353.5,445C 348.194,442.419 342.694,441.919 337,443.5C 330.407,448.76 324.407,454.76 319,461.5C 306.985,473.349 294.818,485.016 282.5,496.5C 275.153,504.327 268.153,512.327 261.5,520.5C 260.833,520.167 260.167,519.833 259.5,519.5C 258.508,516.221 258.341,512.888 259,509.5C 262.418,504.07 266.585,499.403 271.5,495.5C 278.882,490.118 285.215,483.785 290.5,476.5C 304.074,462.096 317.74,447.929 331.5,434C 338.288,430.512 344.955,430.678 351.5,434.5C 360.733,443.082 369.399,452.082 377.5,461.5 Z"/></g>
<g><path style="opacity:1" fill="#fbf5e5" d="M 376.5,468.5 C 376.54,471.425 375.707,474.091 374,476.5C 351.339,498.135 329.173,520.635 307.5,544C 304.328,545.752 301.328,547.752 298.5,550C 295.5,550.667 292.5,550.667 289.5,550C 280.571,541.615 271.737,533.115 263,524.5C 262.209,523.255 261.709,521.922 261.5,520.5C 268.153,512.327 275.153,504.327 282.5,496.5C 294.818,485.016 306.985,473.349 319,461.5C 324.407,454.76 330.407,448.76 337,443.5C 342.694,441.919 348.194,442.419 353.5,445C 361.451,452.782 369.118,460.615 376.5,468.5 Z"/></g>
<g><path style="opacity:1" fill="#605950" d="M 380.5,459.5 C 379.265,459.279 378.265,458.612 377.5,457.5C 376.708,458.7 376.708,460.033 377.5,461.5C 369.399,452.082 360.733,443.082 351.5,434.5C 344.955,430.678 338.288,430.512 331.5,434C 317.74,447.929 304.074,462.096 290.5,476.5C 283.812,482.521 277.479,488.854 271.5,495.5C 266.585,499.403 262.418,504.07 259,509.5C 258.341,512.888 258.508,516.221 259.5,519.5C 260.408,522.485 260.408,525.151 259.5,527.5C 252.574,519.904 251.74,511.571 257,502.5C 269.693,489.229 282.526,476.062 295.5,463C 299.693,461.474 302.526,458.641 304,454.5C 310.059,449.774 315.392,444.441 320,438.5C 323.194,435.306 326.36,432.14 329.5,429C 336.268,424.759 343.268,424.425 350.5,428C 360.037,436.706 369.37,445.539 378.5,454.5C 379.456,456.075 380.123,457.742 380.5,459.5 Z"/></g>
<g><path style="opacity:1" fill="#f7f0e2" d="M 359.5,408.5 C 361.156,409.146 362.823,409.813 364.5,410.5C 366.029,410.471 367.196,409.804 368,408.5C 368.49,409.793 368.657,411.127 368.5,412.5C 371.148,413.683 373.815,415.016 376.5,416.5C 386.057,423.889 394.39,432.389 401.5,442C 404.333,442.167 405.833,443.667 406,446.5C 411.125,449.788 413.959,454.455 414.5,460.5C 414.631,461.239 414.464,461.906 414,462.5C 395.185,444.851 377.019,426.851 359.5,408.5 Z"/></g>
<g><path style="opacity:1" fill="#e6b172" d="M 268.5,447.5 C 251.208,430.608 234.041,413.608 217,396.5C 214.032,398.631 211.199,400.964 208.5,403.5C 197.488,415.846 185.821,427.512 173.5,438.5C 165.545,431.716 157.712,424.716 150,417.5C 149.219,416.271 148.719,414.938 148.5,413.5C 149.547,411.944 150.214,410.277 150.5,408.5C 156.27,414.771 162.27,420.938 168.5,427C 169.833,427.667 171.167,427.667 172.5,427C 186.401,412.764 200.568,398.931 215,385.5C 232.729,403.712 250.729,421.712 269,439.5C 269.85,441.01 270.683,442.51 271.5,444C 270.629,445.364 269.629,446.53 268.5,447.5 Z"/></g>
<g><path style="opacity:1" fill="#5e5d5c" d="M 419.5,470.5 C 417.588,471.98 416.421,473.98 416,476.5C 415.556,473.043 416.056,469.71 417.5,466.5C 417.36,464.97 416.693,463.97 415.5,463.5C 415.737,462.209 415.404,461.209 414.5,460.5C 413.959,454.455 411.125,449.788 406,446.5C 405.833,443.667 404.333,442.167 401.5,442C 394.39,432.389 386.057,423.889 376.5,416.5C 374.733,413.262 372.4,410.429 369.5,408C 364.468,403.63 359.468,399.297 354.5,395C 342.754,390.356 332.088,392.023 322.5,400C 314.565,408.44 306.232,416.274 297.5,423.5C 296.833,423.333 296.167,423.167 295.5,423C 286.687,413.519 277.854,404.019 269,394.5C 267.729,393.117 266.229,392.117 264.5,391.5C 253.95,379.776 243.117,368.109 232,356.5C 222.477,347.379 212.977,338.379 203.5,329.5C 201.053,326.224 198.053,323.39 194.5,321C 180.169,305.669 165.502,290.669 150.5,276C 148.191,275.244 146.191,275.744 144.5,277.5C 140.386,282.07 136.053,286.403 131.5,290.5C 130.386,291.723 130.219,293.056 131,294.5C 132.812,296.3 134.645,297.967 136.5,299.5C 136.5,300.167 136.833,300.5 137.5,300.5C 139.284,302.41 140.284,304.744 140.5,307.5C 142.942,307.119 143.609,307.786 142.5,309.5C 143.376,310.251 144.376,310.751 145.5,311C 144.667,311.833 143.833,312.667 143,313.5C 141.968,311.973 140.801,310.64 139.5,309.5C 138.367,306.029 136.033,304.029 132.5,303.5C 132.649,302.448 132.483,301.448 132,300.5C 128.184,298.067 126.184,294.734 126,290.5C 131.931,284.446 137.765,278.279 143.5,272C 145.269,270.936 146.936,269.769 148.5,268.5C 198.028,317.304 247.028,366.804 295.5,417C 296.833,417.667 298.167,417.667 299.5,417C 305.505,411.328 311.171,405.328 316.5,399C 321.322,394.844 326.655,391.511 332.5,389C 339.889,388.199 347.223,388.533 354.5,390C 359.484,392.831 364.151,396.165 368.5,400C 382.692,415.191 397.192,430.025 412,444.5C 416.66,450.981 419.494,458.147 420.5,466C 420.492,467.707 420.158,469.207 419.5,470.5 Z"/></g>
<g><path style="opacity:1" fill="#5f5952" d="M 137.5,300.5 C 138.473,300.987 139.473,301.487 140.5,302C 147.297,308.834 153.797,316.001 160,323.5C 179.696,342.306 199.029,361.306 218,380.5C 218.483,381.448 218.649,382.448 218.5,383.5C 219.552,383.351 220.552,383.517 221.5,384C 227.036,390.199 232.536,396.366 238,402.5C 251.096,415.64 264.43,428.64 278,441.5C 278.667,442.833 278.667,444.167 278,445.5C 274.949,447.05 272.782,449.383 271.5,452.5C 255.97,467.529 240.47,482.862 225,498.5C 222.025,505.179 220.859,512.179 221.5,519.5C 222.295,522.55 223.295,525.55 224.5,528.5C 240.875,546.379 257.875,563.879 275.5,581C 287.732,590.959 300.065,590.959 312.5,581C 335.016,558.148 357.683,535.148 380.5,512C 381.448,511.517 382.448,511.351 383.5,511.5C 383.351,510.448 383.517,509.448 384,508.5C 388.167,504.333 392.333,500.167 396.5,496C 397.448,495.517 398.448,495.351 399.5,495.5C 399.351,494.448 399.517,493.448 400,492.5C 407.452,486.677 412.452,479.343 415,470.5C 415.497,468.19 415.663,465.857 415.5,463.5C 416.693,463.97 417.36,464.97 417.5,466.5C 416.056,469.71 415.556,473.043 416,476.5C 416.421,473.98 417.588,471.98 419.5,470.5C 419.5,471.5 419.5,472.5 419.5,473.5C 417.775,476.625 416.275,479.958 415,483.5C 394.42,505.406 373.42,526.739 352,547.5C 347.971,552.192 343.971,556.858 340,561.5C 336.186,563.985 332.686,566.818 329.5,570C 322.359,580.473 312.859,587.973 301,592.5C 290.611,593.777 281.111,591.277 272.5,585C 257.028,568.361 241.028,552.194 224.5,536.5C 214.121,521.95 213.954,507.283 224,492.5C 239.342,477.991 254.176,462.991 268.5,447.5C 269.629,446.53 270.629,445.364 271.5,444C 270.683,442.51 269.85,441.01 269,439.5C 250.729,421.712 232.729,403.712 215,385.5C 200.568,398.931 186.401,412.764 172.5,427C 171.167,427.667 169.833,427.667 168.5,427C 162.27,420.938 156.27,414.771 150.5,408.5C 148.548,405.882 146.215,403.548 143.5,401.5C 142.572,400.232 142.405,398.899 143,397.5C 152.561,387.027 162.561,377.027 173,367.5C 173.483,366.552 173.649,365.552 173.5,364.5C 176.107,363.684 178.107,362.017 179.5,359.5C 182.221,358.304 183.387,356.304 183,353.5C 177.995,349.995 173.828,345.661 170.5,340.5C 156.672,353.495 143.338,366.995 130.5,381C 128.52,382.825 126.187,383.659 123.5,383.5C 123.649,382.448 123.483,381.448 123,380.5C 118.072,375.729 112.905,371.395 107.5,367.5C 106.772,365.488 105.938,363.488 105,361.5C 101.452,359.637 99.1182,356.97 98,353.5C 111.533,340.475 124.366,327.141 136.5,313.5C 138.262,312.738 139.262,311.404 139.5,309.5C 140.801,310.64 141.968,311.973 143,313.5C 143.833,312.667 144.667,311.833 145.5,311C 144.376,310.751 143.376,310.251 142.5,309.5C 143.609,307.786 142.942,307.119 140.5,307.5C 140.284,304.744 139.284,302.41 137.5,300.5 Z"/></g>
<g><path style="opacity:1" fill="#edbe85" d="M 328.5,543.5 C 328.291,544.922 327.791,546.255 327,547.5C 322.121,550.812 317.621,554.646 313.5,559C 317.332,561.73 317.165,563.896 313,565.5C 309.534,567.765 305.701,569.099 301.5,569.5C 297.685,569.311 294.352,568.311 291.5,566.5C 295.555,566.824 299.555,566.491 303.5,565.5C 311.476,559.191 318.809,552.191 325.5,544.5C 326.325,543.614 327.325,543.281 328.5,543.5 Z"/></g>
<g><path style="opacity:1" fill="#f8f3e4" d="M 379.5,475.5 C 381.508,476.616 382.508,478.449 382.5,481C 381.874,485.004 380.708,488.837 379,492.5C 364.398,505.689 350.232,519.356 336.5,533.5C 333.425,536.568 330.758,539.901 328.5,543.5C 327.325,543.281 326.325,543.614 325.5,544.5C 318.809,552.191 311.476,559.191 303.5,565.5C 299.555,566.491 295.555,566.824 291.5,566.5C 288.74,565.256 286.073,563.756 283.5,562C 277.622,554.956 271.288,548.456 264.5,542.5C 262.862,539.696 261.029,537.029 259,534.5C 258.204,531.961 258.371,529.628 259.5,527.5C 268.355,536.189 277.355,544.689 286.5,553C 291.047,554.545 295.713,554.879 300.5,554C 327.32,528.347 353.653,502.18 379.5,475.5 Z"/></g>
<g><path style="opacity:1" fill="#f2d4ad" d="M 241.5,495.5 C 237.652,501.023 232.985,506.023 227.5,510.5C 231.489,504.845 236.156,499.845 241.5,495.5 Z"/></g>
<g><path style="opacity:1" fill="#ebba7f" d="M 382.5,470.5 C 382.777,474.332 383.11,478.165 383.5,482C 382.321,487.043 381.321,492.21 380.5,497.5C 377.944,499.945 374.944,501.612 371.5,502.5C 371.762,503.978 371.429,505.311 370.5,506.5C 369.232,505.572 367.899,505.405 366.5,506C 364.954,508.257 363.288,510.424 361.5,512.5C 364.144,513.741 364.977,515.741 364,518.5C 362.29,517.055 360.456,516.222 358.5,516C 354.622,518.439 354.622,520.939 358.5,523.5C 356.428,526.154 354.761,525.82 353.5,522.5C 352.549,521.674 351.549,521.508 350.5,522C 346.975,525.557 343.809,529.39 341,533.5C 340.51,534.793 340.343,536.127 340.5,537.5C 338.473,537.338 336.473,537.505 334.5,538C 332.63,540.04 330.63,541.873 328.5,543.5C 330.758,539.901 333.425,536.568 336.5,533.5C 350.232,519.356 364.398,505.689 379,492.5C 380.708,488.837 381.874,485.004 382.5,481C 382.508,478.449 381.508,476.616 379.5,475.5C 380.692,473.887 381.692,472.22 382.5,470.5 Z"/></g>
<g><path style="opacity:1" fill="#b59266" d="M 290.5,476.5 C 285.215,483.785 278.882,490.118 271.5,495.5C 277.479,488.854 283.812,482.521 290.5,476.5 Z"/></g>
<g><path style="opacity:1" fill="#f7f5f3" d="M 264.5,391.5 C 266.229,392.117 267.729,393.117 269,394.5C 277.854,404.019 286.687,413.519 295.5,423C 296.167,423.167 296.833,423.333 297.5,423.5C 306.232,416.274 314.565,408.44 322.5,400C 332.088,392.023 342.754,390.356 354.5,395C 359.468,399.297 364.468,403.63 369.5,408C 372.4,410.429 374.733,413.262 376.5,416.5C 373.815,415.016 371.148,413.683 368.5,412.5C 368.657,411.127 368.49,409.793 368,408.5C 367.196,409.804 366.029,410.471 364.5,410.5C 362.823,409.813 361.156,409.146 359.5,408.5C 344.838,402.546 331.838,404.879 320.5,415.5C 319.614,416.325 319.281,417.325 319.5,418.5C 318.448,418.351 317.448,418.517 316.5,419C 311.978,425.022 306.645,430.189 300.5,434.5C 298.512,432.839 296.179,431.672 293.5,431C 289.377,424.38 284.377,418.547 278.5,413.5C 276.619,411.266 274.285,409.933 271.5,409.5C 270.541,405.588 268.541,402.254 265.5,399.5C 266.942,398.18 267.608,396.514 267.5,394.5C 265.345,394.628 263.345,394.128 261.5,393C 262.737,392.768 263.737,392.268 264.5,391.5 Z"/></g>
<g><path style="opacity:1" fill="#e9b272" d="M 154.5,405.5 C 166.159,394.341 177.659,383.008 189,371.5C 189.288,366.945 187.121,364.279 182.5,363.5C 184.47,360.687 187.137,359.52 190.5,360C 196.329,366.829 202.496,373.329 209,379.5C 209.781,380.944 209.614,382.277 208.5,383.5C 196.699,395.802 184.699,407.969 172.5,420C 170.711,420.52 169.044,420.187 167.5,419C 163.61,414.059 159.277,409.559 154.5,405.5 Z"/></g>
<g><path style="opacity:1" fill="#f7f1e0" d="M 191.5,326.5 C 194.1,327.919 196.6,329.585 199,331.5C 200.11,329.963 201.61,329.297 203.5,329.5C 212.977,338.379 222.477,347.379 232,356.5C 243.117,368.109 253.95,379.776 264.5,391.5C 263.737,392.268 262.737,392.768 261.5,393C 263.345,394.128 265.345,394.628 267.5,394.5C 267.608,396.514 266.942,398.18 265.5,399.5C 264.761,399.631 264.094,399.464 263.5,399C 239.163,374.831 215.163,350.664 191.5,326.5 Z"/></g>
<g><path style="opacity:1" fill="#f8f3e3" d="M 182.5,363.5 C 187.121,364.279 189.288,366.945 189,371.5C 177.659,383.008 166.159,394.341 154.5,405.5C 152.825,403.998 150.992,402.665 149,401.5C 148.018,400.241 147.685,398.908 148,397.5C 159.315,386.019 170.815,374.686 182.5,363.5 Z"/></g>
<g><path style="opacity:1" fill="#e6b173" d="M 179.5,359.5 C 177.931,354.427 174.598,352.594 169.5,354C 165.868,358.124 162.368,362.291 159,366.5C 156.104,370.061 152.604,372.894 148.5,375C 141.985,381.348 135.652,387.848 129.5,394.5C 123.236,388.246 116.57,382.246 109.5,376.5C 107.331,373.693 105.665,370.693 104.5,367.5C 105.5,367.5 106.5,367.5 107.5,367.5C 112.905,371.395 118.072,375.729 123,380.5C 123.483,381.448 123.649,382.448 123.5,383.5C 126.187,383.659 128.52,382.825 130.5,381C 143.338,366.995 156.672,353.495 170.5,340.5C 173.828,345.661 177.995,349.995 183,353.5C 183.387,356.304 182.221,358.304 179.5,359.5 Z"/></g>
<g><path style="opacity:1" fill="#eab270" d="M 111.5,361.5 C 122.566,349.26 133.9,337.094 145.5,325C 144.143,321.799 141.81,319.965 138.5,319.5C 139.999,316.468 142.332,314.968 145.5,315C 151.718,322.215 158.218,329.049 165,335.5C 165.667,336.5 165.667,337.5 165,338.5C 152.239,351.429 139.405,364.096 126.5,376.5C 120.811,372.057 115.811,367.057 111.5,361.5 Z"/></g>
<g><path style="opacity:1" fill="#f9f3e4" d="M 138.5,319.5 C 141.81,319.965 144.143,321.799 145.5,325C 133.9,337.094 122.566,349.26 111.5,361.5C 107.645,360.088 105.479,357.421 105,353.5C 115.754,341.581 126.921,330.247 138.5,319.5 Z"/></g>
<g><path style="opacity:1" fill="#dba970" d="M 132.5,303.5 C 136.033,304.029 138.367,306.029 139.5,309.5C 139.262,311.404 138.262,312.738 136.5,313.5C 134.188,311.854 132.188,309.854 130.5,307.5C 131.18,306.14 131.847,304.807 132.5,303.5 Z"/></g>
<g><path style="opacity:1" fill="#f6f4ee" d="M 203.5,329.5 C 201.61,329.297 200.11,329.963 199,331.5C 196.6,329.585 194.1,327.919 191.5,326.5C 179.011,313.51 166.344,300.677 153.5,288C 151.098,287.186 148.765,287.353 146.5,288.5C 143.383,292.429 140.05,296.096 136.5,299.5C 134.645,297.967 132.812,296.3 131,294.5C 130.219,293.056 130.386,291.723 131.5,290.5C 136.053,286.403 140.386,282.07 144.5,277.5C 146.191,275.744 148.191,275.244 150.5,276C 165.502,290.669 180.169,305.669 194.5,321C 198.053,323.39 201.053,326.224 203.5,329.5 Z"/></g>
<g><path style="opacity:1" fill="#0f0e0c" d="M 122.5,49.5 C 123.873,49.3433 125.207,49.51 126.5,50C 153.739,76.7376 180.406,103.904 206.5,131.5C 180.406,159.096 153.739,186.262 126.5,213C 125.167,213.667 123.833,213.667 122.5,213C 95.2611,186.262 68.5945,159.096 42.5,131.5C 42.6667,130.833 42.8333,130.167 43,129.5C 69.7016,102.965 96.2016,76.2987 122.5,49.5 Z"/></g>
<g><path style="opacity:1" fill="#f8f3e4" d="M 123.5,55.5 C 149.763,80.095 175.429,105.428 200.5,131.5C 175.5,157.167 150.167,182.5 124.5,207.5C 98.8333,182.5 73.5,157.167 48.5,131.5C 73.5211,106.146 98.5211,80.8125 123.5,55.5 Z"/></g>
<g><path style="opacity:1" fill="#1c1a17" d="M 148.5,136.5 C 148.56,135.957 148.893,135.624 149.5,135.5C 157.936,144.55 159.769,154.883 155,166.5C 147.452,177.523 136.952,182.523 123.5,181.5C 115.761,182.316 108.761,180.483 102.5,176C 113.376,180.642 124.71,181.642 136.5,179C 151.59,173.327 157.756,162.494 155,146.5C 153.556,142.589 151.389,139.256 148.5,136.5 Z"/></g>
<g><path style="opacity:1" fill="#2f2b26" d="M 116.5,134.5 C 122.866,133.53 128.533,135.03 133.5,139C 127.814,137.014 121.814,136.014 115.5,136C 116.056,135.617 116.389,135.117 116.5,134.5 Z"/></g>
<g><path style="opacity:1" fill="#221f1b" d="M 144.5,96.5 C 144.897,95.475 145.563,95.3083 146.5,96C 155.445,105.558 155.779,115.391 147.5,125.5C 144.836,128.669 141.503,129.835 137.5,129C 152.04,123.193 155.54,113.359 148,99.5C 146.961,98.2899 145.794,97.2899 144.5,96.5 Z"/></g>
<g><path style="opacity:1" fill="#26231c" d="M 118.5,116.5 C 120.028,116.517 120.528,117.184 120,118.5C 115.611,124.288 110.111,125.788 103.5,123C 108.1,123.011 112.433,122.011 116.5,120C 117.823,119.184 118.489,118.017 118.5,116.5 Z"/></g>
<g><path style="opacity:1" fill="#0a0908" d="M 114.5,170.5 C 115.209,171.404 116.209,171.737 117.5,171.5C 127.615,173.028 134.448,169.028 138,159.5C 140.974,146.726 136.808,137.226 125.5,131C 121.33,130.675 117.33,130.509 113.5,130.5C 114.167,128.833 114.833,127.167 115.5,125.5C 129.428,126.397 136.262,120.063 136,106.5C 131.324,96.0806 123.49,92.5806 112.5,96C 106.092,99.3228 103.925,104.489 106,111.5C 106.465,112.931 107.299,114.097 108.5,115C 110.898,115.374 113.231,115.374 115.5,115C 113.63,118.602 110.63,120.102 106.5,119.5C 96.7535,118.57 92.9202,113.236 95,103.5C 100.839,94.1522 109.339,89.8189 120.5,90.5C 130.152,89.6598 138.319,92.6598 145,99.5C 151.215,113.33 147.049,122.664 132.5,127.5C 136.766,129.971 141.099,132.471 145.5,135C 153.758,144.926 154.591,155.426 148,166.5C 140.606,173.967 131.606,177.3 121,176.5C 105.004,177.266 95.1708,169.933 91.5,154.5C 96.3801,152.477 100.88,149.81 105,146.5C 104.003,151.874 104.336,157.208 106,162.5C 107.413,166.748 110.246,169.415 114.5,170.5 Z"/></g>
<g><path style="opacity:1" fill="#838176" d="M 113.5,166.5 C 116.618,167.232 117.951,168.899 117.5,171.5C 116.209,171.737 115.209,171.404 114.5,170.5C 115.239,170.631 115.906,170.464 116.5,170C 114.937,169.241 113.937,168.074 113.5,166.5 Z"/></g>
<g><path style="opacity:1" fill="#2e2c26" d="M 113.5,166.5 C 109.111,162.49 107.611,157.49 109,151.5C 109.249,150.376 109.749,149.376 110.5,148.5C 110.455,152.231 110.621,156.231 111,160.5C 112.122,162.407 112.955,164.407 113.5,166.5 Z"/></g>
<g><path style="opacity:1" fill="#201e19" d="M 115.5,99.5 C 123.931,97.5567 130.264,100.223 134.5,107.5C 134.333,107.833 134.167,108.167 134,108.5C 127.909,99.7424 120.576,98.409 112,104.5C 111.022,107.669 111.522,110.503 113.5,113C 111.892,113.658 110.725,113.158 110,111.5C 108.375,105.757 110.208,101.757 115.5,99.5 Z"/></g>
<g><path style="opacity:1" fill="#dedbd2" d="M 516.5,729.5 C 516.5,730.5 516.5,731.5 516.5,732.5C 515.833,732.5 515.167,732.5 514.5,732.5C 514.932,731.29 515.599,730.29 516.5,729.5 Z"/></g>
</svg>
