<?xml version="1.0" encoding="UTF-8"?>
<!-- Author: Jiachun Li -->
<!DOCTYPE svg PUBLIC "-//W3C//DTD SVG 1.1//EN" "http://www.w3.org/Graphics/SVG/1.1/DTD/svg11.dtd">
<svg xmlns="http://www.w3.org/2000/svg" version="1.1" width="517px" height="734px" style="shape-rendering:geometricPrecision; text-rendering:geometricPrecision; image-rendering:optimizeQuality; fill-rule:evenodd; clip-rule:evenodd" xmlns:xlink="http://www.w3.org/1999/xlink">
<g><path style="opacity:1" fill="#eeefe0" d="M -0.5,-0.5 C 0.833333,-0.5 2.16667,-0.5 3.5,-0.5C 2.20498,0.488369 0.871651,1.48837 -0.5,2.5C -0.5,1.5 -0.5,0.5 -0.5,-0.5 Z"/></g>
<g><path style="opacity:1" fill="#deded5" d="M 512.5,-0.5 C 513.833,-0.5 515.167,-0.5 516.5,-0.5C 516.5,0.5 516.5,1.5 516.5,2.5C 515.128,1.48837 513.795,0.488369 512.5,-0.5 Z"/></g>
<g><path style="opacity:1" fill="#030303" d="M 3.5,-0.5 C 173.167,-0.5 342.833,-0.5 512.5,-0.5C 513.795,0.488369 515.128,1.48837 516.5,2.5C 516.5,245.5 516.5,488.5 516.5,731.5C 515.29,731.932 514.29,732.599 513.5,733.5C 343.167,733.5 172.833,733.5 2.5,733.5C 1.83333,732.167 0.833333,731.167 -0.5,730.5C -0.5,487.833 -0.5,245.167 -0.5,2.5C 0.871651,1.48837 2.20498,0.488369 3.5,-0.5 Z"/></g>
<g><path style="opacity:1" fill="#98958c" d="M 503.5,14.5 C 340.167,14.5 176.833,14.5 13.5,14.5C 13.5,249.5 13.5,484.5 13.5,719.5C 12.5002,484.334 12.1669,249.001 12.5,13.5C 176.334,13.167 340.001,13.5003 503.5,14.5 Z"/></g>
<g><path style="opacity:1" fill="#fcf7e6" d="M 503.5,14.5 C 503.5,249.5 503.5,484.5 503.5,719.5C 340.167,719.5 176.833,719.5 13.5,719.5C 13.5,484.5 13.5,249.5 13.5,14.5C 176.833,14.5 340.167,14.5 503.5,14.5 Z"/></g>
<g><path style="opacity:1" fill="#f9f5ea" d="M 22.5,25.5 C 21.2613,24.788 20.7613,23.788 21,22.5C 22.7378,21.8729 24.5711,21.5396 26.5,21.5C 182.531,22.1609 338.531,22.8276 494.5,23.5C 495.833,252.833 495.833,482.167 494.5,711.5C 492.705,712.265 490.872,712.932 489,713.5C 336.324,713.825 183.657,713.491 31,712.5C 29.5589,713.26 28.0589,713.926 26.5,714.5C 22.5914,712.718 19.258,710.218 16.5,707C 17.6853,705.647 19.0186,704.48 20.5,703.5C 21.1667,477.334 21.8333,251.334 22.5,25.5 Z"/></g>
<g><path style="opacity:1" fill="#010000" d="M 22.5,25.5 C 23.2891,25.2172 23.9558,24.7172 24.5,24C 180.5,23.3333 336.5,23.3333 492.5,24C 493,24.5 493.5,25 494,25.5C 494.667,253.167 494.667,480.833 494,708.5C 493.5,709 493,709.5 492.5,710C 336.5,710.667 180.5,710.667 24.5,710C 24,709.5 23.5,709 23,708.5C 22.5,480.834 22.3333,253.167 22.5,25.5 Z"/></g>
<g><path style="opacity:1" fill="#e5e1d6" d="M 29.5,30.5 C 182.167,30.5 334.833,30.5 487.5,30.5C 487.5,254.833 487.5,479.167 487.5,703.5C 334.833,703.5 182.167,703.5 29.5,703.5C 29.5,479.167 29.5,254.833 29.5,30.5 Z"/></g>
<g><path style="opacity:1" fill="#fcf6e6" d="M 30.5,31.5 C 182.5,31.5 334.5,31.5 486.5,31.5C 486.5,255.167 486.5,478.833 486.5,702.5C 334.5,702.5 182.5,702.5 30.5,702.5C 30.5,478.833 30.5,255.167 30.5,31.5 Z"/></g>
<g><path style="opacity:1" fill="#ece8e1" d="M 325.5,589.5 C 333.833,589.5 342.167,589.5 350.5,589.5C 342.645,590.26 334.645,590.927 326.5,591.5C 326.008,593.841 324.841,595.841 323,597.5C 322.803,602.086 322.303,606.586 321.5,611C 313.507,611.5 305.507,611.666 297.5,611.5C 297.674,609.139 298.007,606.806 298.5,604.5C 300.415,604.784 302.081,604.451 303.5,603.5C 305.476,601.989 307.809,601.156 310.5,601C 315.959,597.622 320.959,593.789 325.5,589.5 Z"/></g>
<g><path style="opacity:1" fill="#5c5c5b" d="M 330.5,585.5 C 337.5,585.5 344.5,585.5 351.5,585.5C 351.768,587.099 351.434,588.432 350.5,589.5C 342.167,589.5 333.833,589.5 325.5,589.5C 326.539,587.469 328.205,586.136 330.5,585.5 Z"/></g>
<g><path style="opacity:1" fill="#5d5c5a" d="M 265.5,585.5 C 267.833,585.833 269.167,587.167 269.5,589.5C 258.833,589.5 248.167,589.5 237.5,589.5C 237.5,588.167 237.5,586.833 237.5,585.5C 246.833,585.5 256.167,585.5 265.5,585.5 Z"/></g>
<g><path style="opacity:1" fill="#75726c" d="M 339.5,575.5 C 339.5,576.5 339.5,577.5 339.5,578.5C 359.167,578.5 378.833,578.5 398.5,578.5C 398.5,577.5 398.5,576.5 398.5,575.5C 399.434,576.568 399.768,577.901 399.5,579.5C 378.167,579.5 356.833,579.5 335.5,579.5C 336.402,577.659 337.736,576.326 339.5,575.5 Z"/></g>
<g><path style="opacity:1" fill="#73706b" d="M 256.5,575.5 C 258.262,576.262 259.262,577.596 259.5,579.5C 210.997,579.832 162.664,579.499 114.5,578.5C 162.168,578.667 209.834,578.5 257.5,578C 256.748,577.329 256.414,576.496 256.5,575.5 Z"/></g>
<g><path style="opacity:1" fill="#545352" d="M 339.5,575.5 C 339.833,575.5 340.167,575.5 340.5,575.5C 359.833,575.5 379.167,575.5 398.5,575.5C 398.5,576.5 398.5,577.5 398.5,578.5C 378.833,578.5 359.167,578.5 339.5,578.5C 339.5,577.5 339.5,576.5 339.5,575.5 Z"/></g>
<g><path style="opacity:1" fill="#535353" d="M 255.5,575.5 C 255.833,575.5 256.167,575.5 256.5,575.5C 256.414,576.496 256.748,577.329 257.5,578C 209.834,578.5 162.168,578.667 114.5,578.5C 114.5,577.5 114.5,576.5 114.5,575.5C 161.5,575.5 208.5,575.5 255.5,575.5 Z"/></g>
<g><path style="opacity:1" fill="#d7d0c1" d="M 351.5,563.5 C 348.522,566.813 345.522,570.147 342.5,573.5C 361.329,574.167 379.996,574.833 398.5,575.5C 379.167,575.5 359.833,575.5 340.5,575.5C 342.777,570.223 346.444,566.223 351.5,563.5 Z"/></g>
<g><path style="opacity:1" fill="#e7b170" d="M 422.5,475.5 C 423.364,488.06 419.03,498.56 409.5,507C 406.257,507.908 403.923,509.908 402.5,513C 401.552,513.483 400.552,513.649 399.5,513.5C 399.649,514.552 399.483,515.552 399,516.5C 391.408,523.334 383.908,530.167 376.5,537C 368.322,546.01 359.989,554.844 351.5,563.5C 346.444,566.223 342.777,570.223 340.5,575.5C 340.167,575.5 339.833,575.5 339.5,575.5C 337.736,576.326 336.402,577.659 335.5,579.5C 332.861,580.615 331.195,582.615 330.5,585.5C 328.205,586.136 326.539,587.469 325.5,589.5C 320.959,593.789 315.959,597.622 310.5,601C 307.809,601.156 305.476,601.989 303.5,603.5C 297.365,603.621 291.365,602.788 285.5,601C 279.856,597.369 274.523,593.535 269.5,589.5C 269.167,587.167 267.833,585.833 265.5,585.5C 265.205,581.871 263.205,579.871 259.5,579.5C 259.262,577.596 258.262,576.262 256.5,575.5C 256.167,575.5 255.833,575.5 255.5,575.5C 255.649,574.448 255.483,573.448 255,572.5C 246.808,565.064 238.808,557.397 231,549.5C 229.441,547.783 228.608,545.783 228.5,543.5C 227.5,543.5 226.5,543.5 225.5,543.5C 225.604,540.91 224.937,538.577 223.5,536.5C 223.543,535.584 223.876,534.917 224.5,534.5C 241.924,551.755 259.591,568.922 277.5,586C 284.506,590.541 292.173,592.208 300.5,591C 306.226,589.913 311.56,587.913 316.5,585C 324.058,575.61 332.392,567.11 341.5,559.5C 345.456,557.212 348.789,554.212 351.5,550.5C 352.543,547.944 354.21,545.777 356.5,544C 360.827,540.341 365.16,536.674 369.5,533C 372.4,530.603 374.733,527.77 376.5,524.5C 387.215,513.949 398.049,503.616 409,493.5C 413.763,487.614 418.263,481.614 422.5,475.5 Z"/></g>
<g><path style="opacity:1" fill="#ab8a66" d="M 351.5,550.5 C 348.789,554.212 345.456,557.212 341.5,559.5C 344.185,555.817 347.518,552.817 351.5,550.5 Z"/></g>
<g><path style="opacity:1" fill="#f6f5f2" d="M 272.5,452.5 C 275.407,453.734 277.741,455.734 279.5,458.5C 277.375,461.152 274.709,462.818 271.5,463.5C 271.649,464.552 271.483,465.552 271,466.5C 265.958,470.94 261.625,475.94 258,481.5C 254.757,484.417 251.257,486.917 247.5,489C 245.457,490.708 243.79,492.708 242.5,495C 241.552,495.483 240.552,495.649 239.5,495.5C 239.719,496.675 239.386,497.675 238.5,498.5C 232.771,503.06 227.938,508.394 224,514.5C 223.502,517.482 223.335,520.482 223.5,523.5C 221.577,518.439 221.077,513.105 222,507.5C 224.095,503.641 225.929,499.641 227.5,495.5C 242.264,480.731 257.264,466.398 272.5,452.5 Z"/></g>
<g><path style="opacity:1" fill="#e5b072" d="M 269.5,447.5 C 263.686,443.029 259.019,437.696 255.5,431.5C 254.448,431.649 253.448,431.483 252.5,431C 248.333,426.833 244.167,422.667 240,418.5C 239.517,417.552 239.351,416.552 239.5,415.5C 238.448,415.649 237.448,415.483 236.5,415C 230.341,410.34 225.008,404.84 220.5,398.5C 216.945,396.676 214.611,397.676 213.5,401.5C 200.002,412.832 187.336,424.998 175.5,438C 173.833,438.667 172.167,438.667 170.5,438C 163.057,429.774 155.39,421.774 147.5,414C 148.856,412.433 149.523,410.6 149.5,408.5C 156.763,414.951 163.763,421.618 170.5,428.5C 184.572,414.929 198.572,401.096 212.5,387C 213.833,386.333 215.167,386.333 216.5,387C 235.228,405.64 254.062,424.14 273,442.5C 273.239,445.011 272.072,446.677 269.5,447.5 Z"/></g>
<g><path style="opacity:1" fill="#f7f0e0" d="M 378.5,415.5 C 390.148,426.648 401.648,437.981 413,449.5C 415.616,452.729 417.116,456.396 417.5,460.5C 417.5,461.5 417.5,462.5 417.5,463.5C 412.757,458.581 408.09,453.414 403.5,448C 402.207,447.51 400.873,447.343 399.5,447.5C 399.657,446.127 399.49,444.793 399,443.5C 394.086,440.463 389.919,436.63 386.5,432C 385.552,431.517 384.552,431.351 383.5,431.5C 383.719,430.325 383.386,429.325 382.5,428.5C 376.435,423.102 370.769,417.435 365.5,411.5C 368.501,409.996 371.167,410.496 373.5,413C 370.645,415.336 370.978,417.169 374.5,418.5C 375.386,417.675 375.719,416.675 375.5,415.5C 376.5,415.5 377.5,415.5 378.5,415.5 Z"/></g>
<g><path style="opacity:1" fill="#5e5e5c" d="M 422.5,473.5 C 421.206,474.29 420.039,475.29 419,476.5C 418.827,470.984 418.327,465.651 417.5,460.5C 417.116,456.396 415.616,452.729 413,449.5C 401.648,437.981 390.148,426.648 378.5,415.5C 370.456,406.279 361.123,398.779 350.5,393C 342.724,391.991 335.391,393.324 328.5,397C 318.928,406.023 309.262,414.857 299.5,423.5C 297.734,422.909 296.067,422.076 294.5,421C 289.073,414.784 283.407,408.784 277.5,403C 276.473,402.487 275.473,401.987 274.5,401.5C 274.461,400.417 274.127,399.417 273.5,398.5C 250.41,376.182 227.743,353.682 205.5,331C 202.596,327.93 199.263,325.43 195.5,323.5C 180.118,307.284 164.285,291.618 148,276.5C 142.325,281.674 136.492,286.674 130.5,291.5C 129.167,293.167 129.167,294.833 130.5,296.5C 132.186,297.857 133.852,299.19 135.5,300.5C 142.14,306.473 148.473,312.806 154.5,319.5C 155.048,321.394 156.048,323.06 157.5,324.5C 157,324.833 156.5,325.167 156,325.5C 154.019,324.35 152.186,323.016 150.5,321.5C 147.599,320.208 145.266,318.208 143.5,315.5C 141.599,317.006 139.932,318.673 138.5,320.5C 125.827,331.173 114.161,342.839 103.5,355.5C 104.763,357.029 105.763,358.695 106.5,360.5C 105.761,360.369 105.094,360.536 104.5,361C 105.337,362.011 105.67,363.178 105.5,364.5C 102.215,361.882 99.2148,358.882 96.5,355.5C 108.623,342.542 121.123,330.209 134,318.5C 134.464,317.906 134.631,317.239 134.5,316.5C 136.127,315.009 137.793,313.509 139.5,312C 137.941,308.939 135.608,306.773 132.5,305.5C 130.725,301.613 128.225,298.279 125,295.5C 124.48,293.711 124.813,292.044 126,290.5C 132.279,284.765 138.446,278.931 144.5,273C 147.423,270.968 150.089,271.302 152.5,274C 200.726,321.558 249.059,369.224 297.5,417C 298.833,417.667 300.167,417.667 301.5,417C 306.056,412.565 310.39,407.898 314.5,403C 318.765,398.862 323.431,395.195 328.5,392C 339.322,387.195 349.988,387.362 360.5,392.5C 366.622,397.45 372.622,402.617 378.5,408C 389.772,420.36 401.605,432.194 414,443.5C 417.405,447.295 420.071,451.628 422,456.5C 423.828,462.126 423.995,467.793 422.5,473.5 Z"/></g>
<g><path style="opacity:1" fill="#f5f5f2" d="M 378.5,415.5 C 377.5,415.5 376.5,415.5 375.5,415.5C 375.719,416.675 375.386,417.675 374.5,418.5C 370.978,417.169 370.645,415.336 373.5,413C 371.167,410.496 368.501,409.996 365.5,411.5C 354.091,404.417 342.091,403.583 329.5,409C 326.757,411.403 324.424,414.069 322.5,417C 321.552,417.483 320.552,417.649 319.5,417.5C 319.439,420.73 317.772,422.563 314.5,423C 310.345,426.988 306.345,431.155 302.5,435.5C 294.776,429.102 287.442,422.435 280.5,415.5C 277.215,411.204 273.881,406.871 270.5,402.5C 271.689,401.571 273.022,401.238 274.5,401.5C 275.473,401.987 276.473,402.487 277.5,403C 283.407,408.784 289.073,414.784 294.5,421C 296.067,422.076 297.734,422.909 299.5,423.5C 309.262,414.857 318.928,406.023 328.5,397C 335.391,393.324 342.724,391.991 350.5,393C 361.123,398.779 370.456,406.279 378.5,415.5 Z"/></g>
<g><path style="opacity:1" fill="#e7b171" d="M 179.5,360.5 C 177.752,355.171 174.418,353.337 169.5,355C 159.913,363.638 150.913,372.971 142.5,383C 137.932,387.402 132.932,391.235 127.5,394.5C 119.113,386.779 111.113,378.779 103.5,370.5C 104.077,368.45 105.41,367.45 107.5,367.5C 112.787,372.45 118.12,377.45 123.5,382.5C 125.074,383.631 126.741,383.798 128.5,383C 142.32,369.013 156.32,355.18 170.5,341.5C 174.818,345.318 178.985,349.318 183,353.5C 183.009,356.35 181.842,358.683 179.5,360.5 Z"/></g>
<g><path style="opacity:1" fill="#f6efdd" d="M 184.5,319.5 C 186.846,320.523 189.179,321.523 191.5,322.5C 191.281,323.675 191.614,324.675 192.5,325.5C 193.265,324.388 194.265,323.721 195.5,323.5C 199.263,325.43 202.596,327.93 205.5,331C 227.743,353.682 250.41,376.182 273.5,398.5C 274.127,399.417 274.461,400.417 274.5,401.5C 273.022,401.238 271.689,401.571 270.5,402.5C 273.881,406.871 277.215,411.204 280.5,415.5C 273.057,408.12 265.724,400.62 258.5,393C 253.995,391.081 250.995,387.915 249.5,383.5C 248.325,383.719 247.325,383.386 246.5,382.5C 237.762,372.261 228.262,362.928 218,354.5C 213.861,349.027 209.027,344.194 203.5,340C 197.045,333.375 190.712,326.542 184.5,319.5 Z"/></g>
<g><path style="opacity:1" fill="#5f5952" d="M 154.5,319.5 C 174.469,337.802 193.803,356.802 212.5,376.5C 213.325,377.386 214.325,377.719 215.5,377.5C 215.22,380.388 216.553,381.888 219.5,382C 231.975,394.86 244.308,407.693 256.5,420.5C 264.452,426.95 271.952,433.95 279,441.5C 279.667,442.833 279.667,444.167 279,445.5C 275.949,447.05 273.782,449.383 272.5,452.5C 257.264,466.398 242.264,480.731 227.5,495.5C 225.929,499.641 224.095,503.641 222,507.5C 221.077,513.105 221.577,518.439 223.5,523.5C 227.499,529.461 231.999,535.128 237,540.5C 251.445,553.943 265.611,567.777 279.5,582C 281.332,582.748 282.999,583.748 284.5,585C 290.833,585.667 297.167,585.667 303.5,585C 307.017,583.076 310.684,581.409 314.5,580C 330.302,563.201 346.302,546.868 362.5,531C 381.032,513.968 398.699,496.135 415.5,477.5C 417.217,473.009 417.883,468.343 417.5,463.5C 417.5,462.5 417.5,461.5 417.5,460.5C 418.327,465.651 418.827,470.984 419,476.5C 420.039,475.29 421.206,474.29 422.5,473.5C 422.5,474.167 422.5,474.833 422.5,475.5C 418.263,481.614 413.763,487.614 409,493.5C 398.049,503.616 387.215,513.949 376.5,524.5C 374.733,527.77 372.4,530.603 369.5,533C 365.16,536.674 360.827,540.341 356.5,544C 354.21,545.777 352.543,547.944 351.5,550.5C 347.518,552.817 344.185,555.817 341.5,559.5C 332.392,567.11 324.058,575.61 316.5,585C 311.56,587.913 306.226,589.913 300.5,591C 292.173,592.208 284.506,590.541 277.5,586C 259.591,568.922 241.924,551.755 224.5,534.5C 214.691,521.709 214.024,508.376 222.5,494.5C 238.367,479.165 254.034,463.498 269.5,447.5C 272.072,446.677 273.239,445.011 273,442.5C 254.062,424.14 235.228,405.64 216.5,387C 215.167,386.333 213.833,386.333 212.5,387C 198.572,401.096 184.572,414.929 170.5,428.5C 163.763,421.618 156.763,414.951 149.5,408.5C 148.492,406.661 146.992,405.328 145,404.5C 143.398,402.631 142.398,400.631 142,398.5C 155.299,386.605 167.799,373.938 179.5,360.5C 181.842,358.683 183.009,356.35 183,353.5C 178.985,349.318 174.818,345.318 170.5,341.5C 156.32,355.18 142.32,369.013 128.5,383C 126.741,383.798 125.074,383.631 123.5,382.5C 118.12,377.45 112.787,372.45 107.5,367.5C 106.833,366.5 106.167,365.5 105.5,364.5C 105.67,363.178 105.337,362.011 104.5,361C 105.094,360.536 105.761,360.369 106.5,360.5C 108.332,361.248 109.999,362.248 111.5,363.5C 115.435,366.443 118.768,370.11 121.5,374.5C 123.622,376.115 125.955,376.615 128.5,376C 140.667,363.833 152.833,351.667 165,339.5C 165.667,338.5 165.667,337.5 165,336.5C 160.185,332.408 155.518,328.075 151,323.5C 150.536,322.906 150.369,322.239 150.5,321.5C 152.186,323.016 154.019,324.35 156,325.5C 156.5,325.167 157,324.833 157.5,324.5C 156.048,323.06 155.048,321.394 154.5,319.5 Z"/></g>
<g><path style="opacity:1" fill="#f8f2e1" d="M 184.5,363.5 C 187.79,365.639 188.957,368.639 188,372.5C 185.401,375.223 182.901,378.057 180.5,381C 179.1,382.438 177.433,383.271 175.5,383.5C 170.942,389.73 165.608,395.397 159.5,400.5C 157.722,402.264 156.389,404.264 155.5,406.5C 152.606,405.118 150.106,403.118 148,400.5C 147.251,399.365 147.417,398.365 148.5,397.5C 158.428,387.073 168.428,376.907 178.5,367C 180.927,366.373 182.927,365.206 184.5,363.5 Z"/></g>
<g><path style="opacity:1" fill="#eab371" d="M 155.5,406.5 C 156.389,404.264 157.722,402.264 159.5,400.5C 165.608,395.397 170.942,389.73 175.5,383.5C 177.433,383.271 179.1,382.438 180.5,381C 182.901,378.057 185.401,375.223 188,372.5C 188.957,368.639 187.79,365.639 184.5,363.5C 185.688,360.659 187.688,359.992 190.5,361.5C 196.527,368.194 202.86,374.527 209.5,380.5C 210.583,381.365 210.749,382.365 210,383.5C 196.86,395.306 184.36,407.806 172.5,421C 171.5,421.667 170.5,421.667 169.5,421C 164.603,416.271 159.936,411.438 155.5,406.5 Z"/></g>
<g><path style="opacity:1" fill="#f8f2e2" d="M 138.5,320.5 C 142.659,321.938 144.659,324.605 144.5,328.5C 134.401,339.602 123.734,349.935 112.5,359.5C 111.571,360.689 111.238,362.022 111.5,363.5C 109.999,362.248 108.332,361.248 106.5,360.5C 105.763,358.695 104.763,357.029 103.5,355.5C 114.161,342.839 125.827,331.173 138.5,320.5 Z"/></g>
<g><path style="opacity:1" fill="#eab270" d="M 184.5,319.5 C 190.712,326.542 197.045,333.375 203.5,340C 209.027,344.194 213.861,349.027 218,354.5C 228.262,362.928 237.762,372.261 246.5,382.5C 247.325,383.386 248.325,383.719 249.5,383.5C 250.995,387.915 253.995,391.081 258.5,393C 265.724,400.62 273.057,408.12 280.5,415.5C 287.442,422.435 294.776,429.102 302.5,435.5C 306.345,431.155 310.345,426.988 314.5,423C 317.772,422.563 319.439,420.73 319.5,417.5C 320.552,417.649 321.552,417.483 322.5,417C 324.424,414.069 326.757,411.403 329.5,409C 342.091,403.583 354.091,404.417 365.5,411.5C 370.769,417.435 376.435,423.102 382.5,428.5C 383.386,429.325 383.719,430.325 383.5,431.5C 384.552,431.351 385.552,431.517 386.5,432C 389.919,436.63 394.086,440.463 399,443.5C 399.49,444.793 399.657,446.127 399.5,447.5C 400.873,447.343 402.207,447.51 403.5,448C 408.09,453.414 412.757,458.581 417.5,463.5C 417.883,468.343 417.217,473.009 415.5,477.5C 398.699,496.135 381.032,513.968 362.5,531C 346.302,546.868 330.302,563.201 314.5,580C 310.684,581.409 307.017,583.076 303.5,585C 297.167,585.667 290.833,585.667 284.5,585C 282.999,583.748 281.332,582.748 279.5,582C 265.611,567.777 251.445,553.943 237,540.5C 231.999,535.128 227.499,529.461 223.5,523.5C 223.335,520.482 223.502,517.482 224,514.5C 227.938,508.394 232.771,503.06 238.5,498.5C 239.386,497.675 239.719,496.675 239.5,495.5C 240.552,495.649 241.552,495.483 242.5,495C 243.79,492.708 245.457,490.708 247.5,489C 251.257,486.917 254.757,484.417 258,481.5C 261.625,475.94 265.958,470.94 271,466.5C 271.483,465.552 271.649,464.552 271.5,463.5C 274.709,462.818 277.375,461.152 279.5,458.5C 277.741,455.734 275.407,453.734 272.5,452.5C 273.782,449.383 275.949,447.05 279,445.5C 279.667,444.167 279.667,442.833 279,441.5C 271.952,433.95 264.452,426.95 256.5,420.5C 244.308,407.693 231.975,394.86 219.5,382C 216.553,381.888 215.22,380.388 215.5,377.5C 214.325,377.719 213.325,377.386 212.5,376.5C 193.803,356.802 174.469,337.802 154.5,319.5C 148.473,312.806 142.14,306.473 135.5,300.5C 136.239,300.631 136.906,300.464 137.5,300C 141.138,296.026 144.805,292.026 148.5,288C 152.571,287.543 155.238,289.377 156.5,293.5C 165.547,302.55 174.88,311.216 184.5,319.5 Z"/></g>
<g><path style="opacity:1" fill="#605f5d" d="M 379.5,471.5 C 381.048,471.821 381.715,472.821 381.5,474.5C 379.786,478.082 377.453,481.248 374.5,484C 369.941,487.439 365.608,491.106 361.5,495C 343.302,513.198 324.969,531.531 306.5,550C 299.075,554.765 291.741,554.599 284.5,549.5C 276.146,541.479 267.813,533.479 259.5,525.5C 259.5,525.167 259.5,524.833 259.5,524.5C 259.121,521.433 260.121,520.433 262.5,521.5C 271.23,530.713 280.23,539.713 289.5,548.5C 295.77,550.34 301.437,549.173 306.5,545C 314.939,535.106 324.272,526.106 334.5,518C 349.395,502.274 364.395,486.774 379.5,471.5 Z"/></g>
<g><path style="opacity:1" fill="#f7f2e2" d="M 381.5,474.5 C 382.167,474.5 382.833,474.5 383.5,474.5C 385.427,477.137 385.927,480.137 385,483.5C 384.196,486.44 382.863,489.107 381,491.5C 355.814,516.02 330.647,540.52 305.5,565C 300.833,565.667 296.167,565.667 291.5,565C 288.833,563 286.167,561 283.5,559C 276.698,551.197 269.531,543.697 262,536.5C 259.791,533.211 258.958,529.544 259.5,525.5C 267.813,533.479 276.146,541.479 284.5,549.5C 291.741,554.599 299.075,554.765 306.5,550C 324.969,531.531 343.302,513.198 361.5,495C 365.608,491.106 369.941,487.439 374.5,484C 377.453,481.248 379.786,478.082 381.5,474.5 Z"/></g>
<g><path style="opacity:1" fill="#e7b172" d="M 379.5,467.5 C 374.466,464.304 370.132,460.137 366.5,455C 361.555,452.055 357.222,448.388 353.5,444C 347.531,441.649 341.864,442.149 336.5,445.5C 330.825,450.344 325.325,455.344 320,460.5C 319.517,461.448 319.351,462.448 319.5,463.5C 312.807,467.352 307.14,472.519 302.5,479C 295.625,484.207 289.792,490.374 285,497.5C 279.973,502.029 274.807,506.362 269.5,510.5C 266.761,513.233 264.427,516.233 262.5,519.5C 259.195,515.638 258.695,511.305 261,506.5C 285.761,481.571 310.595,456.905 335.5,432.5C 340.833,431.167 346.167,431.167 351.5,432.5C 360.877,441.043 369.71,450.043 378,459.5C 379.252,462.014 379.752,464.68 379.5,467.5 Z"/></g>
<g><path style="opacity:1" fill="#fbf5e5" d="M 379.5,467.5 C 379.5,468.833 379.5,470.167 379.5,471.5C 364.395,486.774 349.395,502.274 334.5,518C 324.272,526.106 314.939,535.106 306.5,545C 301.437,549.173 295.77,550.34 289.5,548.5C 280.23,539.713 271.23,530.713 262.5,521.5C 262.5,520.833 262.5,520.167 262.5,519.5C 264.427,516.233 266.761,513.233 269.5,510.5C 274.807,506.362 279.973,502.029 285,497.5C 289.792,490.374 295.625,484.207 302.5,479C 307.14,472.519 312.807,467.352 319.5,463.5C 319.351,462.448 319.517,461.448 320,460.5C 325.325,455.344 330.825,450.344 336.5,445.5C 341.864,442.149 347.531,441.649 353.5,444C 357.222,448.388 361.555,452.055 366.5,455C 370.132,460.137 374.466,464.304 379.5,467.5 Z"/></g>
<g><path style="opacity:1" fill="#625a51" d="M 383.5,474.5 C 382.833,474.5 382.167,474.5 381.5,474.5C 381.715,472.821 381.048,471.821 379.5,471.5C 379.5,470.167 379.5,468.833 379.5,467.5C 379.752,464.68 379.252,462.014 378,459.5C 369.71,450.043 360.877,441.043 351.5,432.5C 346.167,431.167 340.833,431.167 335.5,432.5C 310.595,456.905 285.761,481.571 261,506.5C 258.695,511.305 259.195,515.638 262.5,519.5C 262.5,520.167 262.5,520.833 262.5,521.5C 260.121,520.433 259.121,521.433 259.5,524.5C 253.053,516.811 252.886,508.811 259,500.5C 282.391,478.11 305.558,455.277 328.5,432C 339.036,423.296 349.37,423.63 359.5,433C 367.563,441.649 375.729,450.149 384,458.5C 386.01,463.93 385.843,469.263 383.5,474.5 Z"/></g>
<g><path style="opacity:1" fill="#eab270" d="M 150.5,321.5 C 150.369,322.239 150.536,322.906 151,323.5C 155.518,328.075 160.185,332.408 165,336.5C 165.667,337.5 165.667,338.5 165,339.5C 152.833,351.667 140.667,363.833 128.5,376C 125.955,376.615 123.622,376.115 121.5,374.5C 118.768,370.11 115.435,366.443 111.5,363.5C 111.238,362.022 111.571,360.689 112.5,359.5C 123.734,349.935 134.401,339.602 144.5,328.5C 144.659,324.605 142.659,321.938 138.5,320.5C 139.932,318.673 141.599,317.006 143.5,315.5C 145.266,318.208 147.599,320.208 150.5,321.5 Z"/></g>
<g><path style="opacity:1" fill="#f4f3ef" d="M 195.5,323.5 C 194.265,323.721 193.265,324.388 192.5,325.5C 191.614,324.675 191.281,323.675 191.5,322.5C 189.179,321.523 186.846,320.523 184.5,319.5C 174.88,311.216 165.547,302.55 156.5,293.5C 155.238,289.377 152.571,287.543 148.5,288C 144.805,292.026 141.138,296.026 137.5,300C 136.906,300.464 136.239,300.631 135.5,300.5C 133.852,299.19 132.186,297.857 130.5,296.5C 129.167,294.833 129.167,293.167 130.5,291.5C 136.492,286.674 142.325,281.674 148,276.5C 164.285,291.618 180.118,307.284 195.5,323.5 Z"/></g>
<g><path style="opacity:1" fill="#e3b176" d="M 132.5,305.5 C 135.608,306.773 137.941,308.939 139.5,312C 137.793,313.509 136.127,315.009 134.5,316.5C 134.208,313.199 132.541,311.199 129.5,310.5C 128.916,307.715 129.916,306.048 132.5,305.5 Z"/></g>
<g><path style="opacity:1" fill="#0f0e0c" d="M 123.5,49.5 C 124.873,49.3433 126.207,49.51 127.5,50C 154.68,77.0137 181.68,104.18 208.5,131.5C 181.443,159.558 153.776,186.891 125.5,213.5C 97.9043,187.406 70.7376,160.739 44,133.5C 43.3333,132.167 43.3333,130.833 44,129.5C 70.7016,102.965 97.2016,76.2987 123.5,49.5 Z"/></g>
<g><path style="opacity:1" fill="#2b2924" d="M 151.5,178.5 C 142.043,180.157 132.376,181.157 122.5,181.5C 121.957,181.44 121.624,181.107 121.5,180.5C 131.149,179.668 140.816,179.168 150.5,179C 148.372,175.87 145.872,173.037 143,170.5C 142.173,166.459 142.34,162.459 143.5,158.5C 144.325,162.122 144.825,165.789 145,169.5C 147.41,172.397 149.577,175.397 151.5,178.5 Z"/></g>
<g><path style="opacity:1" fill="#faf5e5" d="M 151.5,178.5 C 149.577,175.397 147.41,172.397 145,169.5C 144.825,165.789 144.325,162.122 143.5,158.5C 142.34,162.459 142.173,166.459 143,170.5C 145.872,173.037 148.372,175.87 150.5,179C 140.816,179.168 131.149,179.668 121.5,180.5C 121.624,181.107 121.957,181.44 122.5,181.5C 132.172,181.334 141.839,181.5 151.5,182C 143.167,190.333 134.833,198.667 126.5,207C 125.833,207.667 125.167,207.667 124.5,207C 99.3195,181.986 74.3195,156.82 49.5,131.5C 74.5,105.833 99.8333,80.5 125.5,55.5C 151.167,80.5 176.5,105.833 201.5,131.5C 186.014,147.486 170.347,163.319 154.5,179C 153.423,179.47 152.423,179.303 151.5,178.5 Z"/></g>
<g><path style="opacity:1" fill="#555547" d="M 121.5,174.5 C 129.316,175.492 137.316,175.826 145.5,175.5C 137.581,176.653 128.914,176.819 119.5,176C 120.044,175.283 120.711,174.783 121.5,174.5 Z"/></g>
<g><path style="opacity:1" fill="#4e4a3f" d="M 159.5,155.5 C 161.2,159.073 160.533,162.239 157.5,165C 155.029,165.706 152.695,165.373 150.5,164C 157.304,165.028 160.304,162.194 159.5,155.5 Z"/></g>
<g><path style="opacity:1" fill="#5d5a53" d="M 127.5,157.5 C 115.5,158.167 103.5,158.833 91.5,159.5C 90.9569,159.44 90.6236,159.107 90.5,158.5C 102.815,157.501 115.149,157.168 127.5,157.5 Z"/></g>
<g><path style="opacity:1" fill="#4f4c40" d="M 159.5,155.5 C 158.373,154.878 157.373,154.045 156.5,153C 158.489,152.481 159.489,153.314 159.5,155.5 Z"/></g>
<g><path style="opacity:1" fill="#4c4740" d="M 144.5,114.5 C 143.833,126.167 143.167,137.833 142.5,149.5C 142.168,137.482 142.501,125.482 143.5,113.5C 144.107,113.624 144.44,113.957 144.5,114.5 Z"/></g>
<g><path style="opacity:1" fill="#0a0908" d="M 105.5,148.5 C 104.957,148.56 104.624,148.893 104.5,149.5C 112.323,150.82 119.99,150.82 127.5,149.5C 127.334,140.161 127.5,130.827 128,121.5C 131.981,118.687 135.481,115.353 138.5,111.5C 139.499,124.149 139.832,136.816 139.5,149.5C 140.5,149.5 141.5,149.5 142.5,149.5C 143.167,137.833 143.833,126.167 144.5,114.5C 144.5,126.5 144.5,138.5 144.5,150.5C 153.382,149.207 156.715,152.707 154.5,161C 148.109,162.777 146.109,160.611 148.5,154.5C 145.5,154.5 142.5,154.5 139.5,154.5C 139.334,159.511 139.501,164.511 140,169.5C 142.04,171.37 143.873,173.37 145.5,175.5C 137.316,175.826 129.316,175.492 121.5,174.5C 126.772,171.039 128.772,166.039 127.5,159.5C 115.5,159.5 103.5,159.5 91.5,159.5C 103.5,158.833 115.5,158.167 127.5,157.5C 127.5,156.5 127.5,155.5 127.5,154.5C 114.833,154.5 102.167,154.5 89.5,154.5C 91.3014,149.841 93.8014,145.508 97,141.5C 105.695,126.582 110.862,110.582 112.5,93.5C 117.833,93.5 123.167,93.5 128.5,93.5C 123.193,113.449 113.693,131.116 100,146.5C 99.5172,147.448 99.3505,148.448 99.5,149.5C 100.978,149.762 102.311,149.429 103.5,148.5C 117.199,133.443 127.033,116.11 133,96.5C 128.315,116.204 119.148,133.537 105.5,148.5 Z"/></g>
<g><path style="opacity:1" fill="#68685f" d="M 105.5,148.5 C 112.648,149.492 119.981,149.825 127.5,149.5C 119.99,150.82 112.323,150.82 104.5,149.5C 104.624,148.893 104.957,148.56 105.5,148.5 Z"/></g>
<g><path style="opacity:1" fill="#dbdbd1" d="M -0.5,730.5 C 0.833333,731.167 1.83333,732.167 2.5,733.5C 1.5,733.5 0.5,733.5 -0.5,733.5C -0.5,732.5 -0.5,731.5 -0.5,730.5 Z"/></g>
<g><path style="opacity:1" fill="#dbdbd2" d="M 516.5,731.5 C 516.5,732.167 516.5,732.833 516.5,733.5C 515.5,733.5 514.5,733.5 513.5,733.5C 514.29,732.599 515.29,731.932 516.5,731.5 Z"/></g>
</svg>
