<?xml version="1.0" encoding="UTF-8"?>
<!-- Author: Jiachun Li -->
<!DOCTYPE svg PUBLIC "-//W3C//DTD SVG 1.1//EN" "http://www.w3.org/Graphics/SVG/1.1/DTD/svg11.dtd">
<svg xmlns="http://www.w3.org/2000/svg" version="1.1" viewBox="-107 0 733 733" style="shape-rendering:geometricPrecision; text-rendering:geometricPrecision; image-rendering:optimizeQuality; fill-rule:evenodd; clip-rule:evenodd" xmlns:xlink="http://www.w3.org/1999/xlink">
<g><path style="opacity:1" fill="#020202" d="M 1.5,-0.5 C 172.5,-0.5 343.5,-0.5 514.5,-0.5C 515.167,0.833333 516.167,1.83333 517.5,2.5C 517.5,244.5 517.5,486.5 517.5,728.5C 516.5,730.167 515.167,731.5 513.5,732.5C 343.167,732.5 172.833,732.5 2.5,732.5C 1.83333,731.167 0.833333,730.167 -0.5,729.5C -0.5,486.833 -0.5,244.167 -0.5,1.5C 0.5,1.16667 1.16667,0.5 1.5,-0.5 Z"/></g>
<g><path style="opacity:1" fill="#d2d3cd" d="M 514.5,-0.5 C 515.5,-0.5 516.5,-0.5 517.5,-0.5C 517.5,0.5 517.5,1.5 517.5,2.5C 516.167,1.83333 515.167,0.833333 514.5,-0.5 Z"/></g>
<g><path style="opacity:1" fill="#eceee1" d="M -0.5,-0.5 C 0.166667,-0.5 0.833333,-0.5 1.5,-0.5C 1.16667,0.5 0.5,1.16667 -0.5,1.5C -0.5,0.833333 -0.5,0.166667 -0.5,-0.5 Z"/></g>
<g><path style="opacity:1" fill="#fbf7e9" d="M 503.5,13.5 C 503.5,248.5 503.5,483.5 503.5,718.5C 340.167,718.5 176.833,718.5 13.5,718.5C 13.5,483.5 13.5,248.5 13.5,13.5C 176.833,13.5 340.167,13.5 503.5,13.5 Z"/></g>
<g><path style="opacity:1" fill="#fcf7e6" d="M 15.5,14.5 C 175.874,14.1681 336.207,14.5015 496.5,15.5C 497.167,244.833 497.833,474.167 498.5,703.5C 499.5,474.168 499.833,244.834 499.5,15.5C 500.5,15.5 501.5,15.5 502.5,15.5C 502.667,248.834 502.5,482.167 502,715.5C 500.442,716.345 499.442,715.679 499,713.5C 498.167,714.333 497.333,715.167 496.5,716C 336.167,716.667 175.833,716.667 15.5,716C 21.0113,713.402 20.678,711.902 14.5,711.5C 14.1677,479.097 14.5011,246.764 15.5,14.5 Z"/></g>
<g><path style="opacity:1" fill="#99968d" d="M 503.5,13.5 C 340.167,13.5 176.833,13.5 13.5,13.5C 13.5,248.5 13.5,483.5 13.5,718.5C 12.5002,483.334 12.1669,248.001 12.5,12.5C 176.334,12.167 340.001,12.5003 503.5,13.5 Z"/></g>
<g><path style="opacity:1" fill="#faf7ea" d="M 482.5,15.5 C 486.467,16.2541 487.133,18.0874 484.5,21C 486.5,23 488.5,23 490.5,21C 489.184,19.0224 489.684,17.5224 492,16.5C 493.772,17.9901 493.939,19.6568 492.5,21.5C 493.751,22.6311 494.751,23.9644 495.5,25.5C 495.662,253.068 495.496,480.734 495,708.5C 493.184,709.329 491.351,710.163 489.5,711C 493.389,713.13 493.055,714.13 488.5,714C 487.614,712.783 486.614,711.449 485.5,710C 333.833,709.333 182.167,709.333 30.5,710C 30,710.5 29.5,711 29,711.5C 25.7436,709.799 22.2436,708.466 18.5,707.5C 16.3802,708.872 15.3802,708.205 15.5,705.5C 18.0444,705.896 20.2111,705.229 22,703.5C 22.6597,477.143 22.6597,250.81 22,24.5C 23.3333,22.1667 25.3333,21.1667 28,21.5C 179.154,22.6614 330.321,22.8281 481.5,22C 482.167,21.6667 482.833,21.3333 483.5,21C 481.365,19.4443 481.032,17.6109 482.5,15.5 Z"/></g>
<g><path style="opacity:1" fill="#040302" d="M 24.5,23.5 C 180.737,23.1675 336.903,23.5009 493,24.5C 493.833,252.403 493.666,480.236 492.5,708C 336.264,708.832 180.097,708.666 24,707.5C 23.1678,479.431 23.3345,251.431 24.5,23.5 Z"/></g>
<g><path style="opacity:1" fill="#fcf6e6" d="M 28.5,28.5 C 181.833,28.5 335.167,28.5 488.5,28.5C 488.5,253.5 488.5,478.5 488.5,703.5C 335.167,703.5 181.833,703.5 28.5,703.5C 28.5,478.5 28.5,253.5 28.5,28.5 Z"/></g>
<g><path style="opacity:1" fill="#0f0e0c" d="M 123.5,48.5 C 124.873,48.3433 126.207,48.51 127.5,49C 154.68,76.0137 181.68,103.18 208.5,130.5C 181.443,158.558 153.776,185.891 125.5,212.5C 97.9043,186.406 70.7376,159.739 44,132.5C 43.3333,131.167 43.3333,129.833 44,128.5C 70.7016,101.965 97.2016,75.2987 123.5,48.5 Z"/></g>
<g><path style="opacity:1" fill="#f9f4e5" d="M 124.5,54.5 C 150.763,79.095 176.429,104.428 201.5,130.5C 176.5,156.167 151.167,181.5 125.5,206.5C 99.8333,181.5 74.5,156.167 49.5,130.5C 74.5211,105.146 99.5211,79.8125 124.5,54.5 Z"/></g>
<g><path style="opacity:1" fill="#79756a" d="M 153.5,90.5 C 152.833,91.5 152.167,92.5 151.5,93.5C 151.457,90.4135 151.29,87.4135 151,84.5C 152.319,86.2872 153.152,88.2872 153.5,90.5 Z"/></g>
<g><path style="opacity:1" fill="#0b0a09" d="M 132.5,101.5 C 122.833,101.5 113.167,101.5 103.5,101.5C 103.175,109.019 103.508,116.352 104.5,123.5C 105.458,123.047 106.292,122.381 107,121.5C 107.499,116.177 107.666,110.844 107.5,105.5C 118.888,105.883 130.221,105.383 141.5,104C 147.095,102.573 150.428,99.0734 151.5,93.5C 152.167,92.5 152.833,91.5 153.5,90.5C 152.522,99.9816 147.189,105.482 137.5,107C 128.173,107.5 118.839,107.666 109.5,107.5C 109.334,111.846 109.501,116.179 110,120.5C 125.055,114.404 138.055,117.404 149,129.5C 154.188,139.506 154.855,149.84 151,160.5C 147.381,167.451 141.881,172.284 134.5,175C 122.783,177.758 111.45,176.758 100.5,172C 94.255,167.836 91.255,162.169 91.5,155C 95.9287,152.898 100.095,150.398 104,147.5C 103.462,155.047 105.295,161.88 109.5,168C 123.753,175.362 133.586,171.528 139,156.5C 139.667,149.5 139.667,142.5 139,135.5C 134.257,124.791 126.09,120.958 114.5,124C 109.484,126.012 105.317,129.179 102,133.5C 100.541,133.192 99.3739,132.525 98.5,131.5C 98.5,118.5 98.5,105.5 98.5,92.5C 112.344,92.829 126.01,92.4957 139.5,91.5C 143.509,91.9864 145.342,90.3197 145,86.5C 139.633,88.1366 138.466,86.6366 141.5,82C 149.829,84.0841 151.663,88.9174 147,96.5C 142.706,99.6538 137.873,101.32 132.5,101.5 Z"/></g>
<g><path style="opacity:1" fill="#838279" d="M 132.5,101.5 C 123.348,102.494 114.015,102.827 104.5,102.5C 104.5,109.5 104.5,116.5 104.5,123.5C 103.508,116.352 103.175,109.019 103.5,101.5C 113.167,101.5 122.833,101.5 132.5,101.5 Z"/></g>
<g><path style="opacity:1" fill="#87857d" d="M 139.5,91.5 C 126.01,92.4957 112.344,92.829 98.5,92.5C 98.5,105.5 98.5,118.5 98.5,131.5C 97.5044,118.344 97.1711,105.01 97.5,91.5C 111.5,91.5 125.5,91.5 139.5,91.5 Z"/></g>
<g><path style="opacity:1" fill="#343129" d="M 116.5,126.5 C 124.929,124.965 131.596,127.631 136.5,134.5C 136.333,134.833 136.167,135.167 136,135.5C 129.833,128.465 122.333,126.631 113.5,130C 110.705,131.793 108.205,133.96 106,136.5C 106.546,133.907 108.046,131.74 110.5,130C 112.727,129.059 114.727,127.892 116.5,126.5 Z"/></g>
<g><path style="opacity:1" fill="#211e18" d="M 109.5,148.5 C 108.465,158.337 112.465,165.503 121.5,170C 110.687,166.891 106.687,159.724 109.5,148.5 Z"/></g>
<g><path style="opacity:1" fill="#23201d" d="M 149.5,126.5 C 160.152,137.138 162.318,149.471 156,163.5C 147.202,178.646 134.035,184.813 116.5,182C 112.735,180.951 109.068,179.618 105.5,178C 104.304,177.346 104.304,176.846 105.5,176.5C 123.218,184.271 138.718,181.271 152,167.5C 159.94,153.173 159.107,139.507 149.5,126.5 Z"/></g>
<g><path style="opacity:1" fill="#e0ae72" d="M 133.5,303.5 C 137.449,304.928 139.616,307.595 140,311.5C 139.292,312.381 138.458,313.047 137.5,313.5C 131.71,311.762 130.376,308.429 133.5,303.5 Z"/></g>
<g><path style="opacity:1" fill="#f5f4f1" d="M 196.5,321.5 C 196.038,322.88 195.038,323.547 193.5,323.5C 191.014,322.424 188.681,321.091 186.5,319.5C 175.027,308.86 164.027,297.693 153.5,286C 152.056,285.219 150.723,285.386 149.5,286.5C 145.271,290.181 141.937,294.514 139.5,299.5C 136.546,298.353 133.88,296.686 131.5,294.5C 131.351,293.448 131.517,292.448 132,291.5C 136.534,287.301 140.701,282.801 144.5,278C 146.212,276.249 148.212,275.582 150.5,276C 166.366,290.7 181.7,305.867 196.5,321.5 Z"/></g>
<g><path style="opacity:1" fill="#e6b171" d="M 180.5,359.5 C 178.909,356.569 176.909,353.902 174.5,351.5C 169.541,354.415 165.708,358.415 163,363.5C 151.99,373.844 140.99,384.178 130,394.5C 121.08,386.748 112.58,378.415 104.5,369.5C 105.32,367.889 106.654,367.222 108.5,367.5C 109.552,367.351 110.552,367.517 111.5,368C 115.833,373 120.167,378 124.5,383C 126.259,383.798 127.926,383.631 129.5,382.5C 143.113,368.221 157.113,354.221 171.5,340.5C 176.298,344.786 180.631,349.453 184.5,354.5C 183.388,356.419 182.054,358.086 180.5,359.5 Z"/></g>
<g><path style="opacity:1" fill="#f7f0de" d="M 186.5,319.5 C 188.681,321.091 191.014,322.424 193.5,323.5C 195.038,323.547 196.038,322.88 196.5,321.5C 219.331,343.829 242.164,366.496 265,389.5C 265.483,390.448 265.649,391.448 265.5,392.5C 266.552,392.351 267.552,392.517 268.5,393C 271.076,396.063 273.409,399.229 275.5,402.5C 272.631,399.488 271.298,400.155 271.5,404.5C 272.5,404.5 273.5,404.5 274.5,404.5C 274.343,405.873 274.51,407.207 275,408.5C 277.43,410.422 279.263,412.755 280.5,415.5C 262.182,396.515 243.515,377.848 224.5,359.5C 217.075,351.903 209.741,344.069 202.5,336C 201.552,335.517 200.552,335.351 199.5,335.5C 199.719,334.325 199.386,333.325 198.5,332.5C 193.949,328.584 189.949,324.251 186.5,319.5 Z"/></g>
<g><path style="opacity:1" fill="#5e5851" d="M 128.5,289.5 C 129.263,291.368 130.263,293.035 131.5,294.5C 133.88,296.686 136.546,298.353 139.5,299.5C 165.543,328.046 192.543,355.88 220.5,383C 221.448,383.483 222.448,383.649 223.5,383.5C 223.351,384.552 223.517,385.552 224,386.5C 235.337,398.004 246.837,409.337 258.5,420.5C 263.533,425.532 268.199,430.865 272.5,436.5C 271.876,436.917 271.543,437.584 271.5,438.5C 272.167,440.167 272.833,441.833 273.5,443.5C 273.547,445.038 272.88,446.038 271.5,446.5C 271.702,444.011 271.202,441.677 270,439.5C 252.04,421.374 233.873,403.374 215.5,385.5C 200.547,399.286 186.047,413.619 172,428.5C 164.621,422.286 157.788,415.62 151.5,408.5C 149.548,405.882 147.215,403.548 144.5,401.5C 143.572,400.232 143.405,398.899 144,397.5C 154.034,387.329 164.034,377.329 174,367.5C 174.483,366.552 174.649,365.552 174.5,364.5C 177.107,363.684 179.107,362.017 180.5,359.5C 182.054,358.086 183.388,356.419 184.5,354.5C 180.631,349.453 176.298,344.786 171.5,340.5C 157.113,354.221 143.113,368.221 129.5,382.5C 127.926,383.631 126.259,383.798 124.5,383C 120.167,378 115.833,373 111.5,368C 110.552,367.517 109.552,367.351 108.5,367.5C 108.649,366.448 108.483,365.448 108,364.5C 105.027,361.527 102.027,358.527 99,355.5C 98.3333,354.833 98.3333,354.167 99,353.5C 112.56,340.448 125.393,327.115 137.5,313.5C 138.458,313.047 139.292,312.381 140,311.5C 139.616,307.595 137.449,304.928 133.5,303.5C 133.649,302.448 133.483,301.448 133,300.5C 129.184,298.067 127.184,294.734 127,290.5C 127.383,289.944 127.883,289.611 128.5,289.5 Z"/></g>
<g><path style="opacity:1" fill="#eab270" d="M 111.5,360.5 C 112.239,360.631 112.906,360.464 113.5,360C 124.647,348.652 135.313,336.986 145.5,325C 144.144,323.433 143.477,321.6 143.5,319.5C 142.167,319.5 140.833,319.5 139.5,319.5C 141.388,317.959 143.221,316.293 145,314.5C 145.5,314.667 146,314.833 146.5,315C 152.705,322.37 159.371,329.204 166.5,335.5C 167.833,336.5 167.833,337.5 166.5,338.5C 153.151,351.015 140.318,364.015 128,377.5C 122.352,372.018 116.852,366.351 111.5,360.5 Z"/></g>
<g><path style="opacity:1" fill="#f9f4e5" d="M 139.5,319.5 C 140.833,319.5 142.167,319.5 143.5,319.5C 143.477,321.6 144.144,323.433 145.5,325C 135.313,336.986 124.647,348.652 113.5,360C 112.906,360.464 112.239,360.631 111.5,360.5C 108.909,359.746 107.076,358.079 106,355.5C 105.685,354.092 106.018,352.759 107,351.5C 117.755,340.577 128.589,329.91 139.5,319.5 Z"/></g>
<g><path style="opacity:1" fill="#5f5e5c" d="M 420.5,474.5 C 420.167,474.5 419.833,474.5 419.5,474.5C 419.891,469.989 419.225,465.655 417.5,461.5C 418.9,458.98 418.733,456.646 417,454.5C 416.283,455.044 415.783,455.711 415.5,456.5C 411.317,450.132 406.484,444.132 401,438.5C 390.527,428.027 380.027,417.527 369.5,407C 368.906,406.536 368.239,406.369 367.5,406.5C 359.868,395.331 349.202,390.831 335.5,393C 331.157,395.504 326.824,398.004 322.5,400.5C 315.078,408.925 307.078,416.592 298.5,423.5C 290.656,416.736 282.989,409.736 275.5,402.5C 273.409,399.229 271.076,396.063 268.5,393C 267.552,392.517 266.552,392.351 265.5,392.5C 265.649,391.448 265.483,390.448 265,389.5C 242.164,366.496 219.331,343.829 196.5,321.5C 181.7,305.867 166.366,290.7 150.5,276C 148.212,275.582 146.212,276.249 144.5,278C 140.701,282.801 136.534,287.301 132,291.5C 131.517,292.448 131.351,293.448 131.5,294.5C 130.263,293.035 129.263,291.368 128.5,289.5C 133.917,283.909 139.25,278.075 144.5,272C 146.269,270.936 147.936,269.769 149.5,268.5C 199.02,317.261 248.02,366.761 296.5,417C 297.833,417.667 299.167,417.667 300.5,417C 307.623,409.887 314.623,402.721 321.5,395.5C 330.394,388.821 340.394,386.655 351.5,389C 355.703,391.183 360.036,393.183 364.5,395C 381.805,412.966 398.971,430.799 416,448.5C 421.019,456.442 422.519,465.109 420.5,474.5 Z"/></g>
<g><path style="opacity:1" fill="#f6f1e1" d="M 183.5,363.5 C 187.869,364.04 190.369,366.373 191,370.5C 186.509,374.291 182.342,378.457 178.5,383C 177.552,383.483 176.552,383.649 175.5,383.5C 175.649,384.552 175.483,385.552 175,386.5C 168.603,392.729 162.436,399.062 156.5,405.5C 153.931,404.604 151.931,402.938 150.5,400.5C 149.167,398.833 149.167,397.167 150.5,395.5C 161.521,384.812 172.521,374.145 183.5,363.5 Z"/></g>
<g><path style="opacity:1" fill="#e9b271" d="M 156.5,405.5 C 162.436,399.062 168.603,392.729 175,386.5C 175.483,385.552 175.649,384.552 175.5,383.5C 176.552,383.649 177.552,383.483 178.5,383C 182.342,378.457 186.509,374.291 191,370.5C 190.369,366.373 187.869,364.04 183.5,363.5C 185.373,360.225 188.04,359.225 191.5,360.5C 197.458,366.959 203.624,373.292 210,379.5C 210.667,380.833 210.667,382.167 210,383.5C 197.005,395.828 184.339,408.495 172,421.5C 168.179,419.012 165.012,415.846 162.5,412C 161.552,411.517 160.552,411.351 159.5,411.5C 159.385,409.053 158.385,407.053 156.5,405.5 Z"/></g>
<g><path style="opacity:1" fill="#e6b172" d="M 271.5,446.5 C 270.833,446.833 270.167,447.167 269.5,447.5C 263.686,443.029 259.019,437.696 255.5,431.5C 254.448,431.649 253.448,431.483 252.5,431C 247.271,426.275 242.604,421.108 238.5,415.5C 231.608,409.016 224.774,402.683 218,396.5C 211.178,402.769 204.345,409.103 197.5,415.5C 190.685,422.483 184.018,429.65 177.5,437C 176.391,437.638 175.225,438.138 174,438.5C 166.331,430.665 158.498,422.998 150.5,415.5C 150.167,415 149.833,414.5 149.5,414C 150.856,412.433 151.523,410.6 151.5,408.5C 157.788,415.62 164.621,422.286 172,428.5C 186.047,413.619 200.547,399.286 215.5,385.5C 233.873,403.374 252.04,421.374 270,439.5C 271.202,441.677 271.702,444.011 271.5,446.5 Z"/></g>
<g><path style="opacity:1" fill="#eab370" d="M 186.5,319.5 C 189.949,324.251 193.949,328.584 198.5,332.5C 199.386,333.325 199.719,334.325 199.5,335.5C 200.552,335.351 201.552,335.517 202.5,336C 209.741,344.069 217.075,351.903 224.5,359.5C 243.515,377.848 262.182,396.515 280.5,415.5C 285.758,420.091 290.758,425.091 295.5,430.5C 297.746,432.763 300.413,434.096 303.5,434.5C 303.5,433.5 303.5,432.5 303.5,431.5C 305.433,431.271 307.1,430.438 308.5,429C 314.554,422.456 320.887,416.123 327.5,410C 335.007,404.947 343.007,403.447 351.5,405.5C 356.461,407.151 361.128,409.651 365.5,413C 382.346,429.738 399.013,446.238 415.5,462.5C 416.601,469.837 415.101,476.503 411,482.5C 376.884,517.08 342.717,551.246 308.5,585C 298.181,590.124 288.181,589.457 278.5,583C 266.96,570.629 255.294,558.462 243.5,546.5C 235.76,540.096 229.093,532.762 223.5,524.5C 223.5,522.833 223.5,521.167 223.5,519.5C 227.785,509.045 234.785,500.879 244.5,495C 254.609,482.723 265.609,471.223 277.5,460.5C 278.583,459.635 278.749,458.635 278,457.5C 276.574,455.234 274.74,453.568 272.5,452.5C 274.644,449.286 276.977,446.286 279.5,443.5C 278.175,440.175 275.841,437.841 272.5,436.5C 268.199,430.865 263.533,425.532 258.5,420.5C 246.837,409.337 235.337,398.004 224,386.5C 223.517,385.552 223.351,384.552 223.5,383.5C 222.448,383.649 221.448,383.483 220.5,383C 192.543,355.88 165.543,328.046 139.5,299.5C 141.937,294.514 145.271,290.181 149.5,286.5C 150.723,285.386 152.056,285.219 153.5,286C 164.027,297.693 175.027,308.86 186.5,319.5 Z"/></g>
<g><path style="opacity:1" fill="#f7f0e1" d="M 351.5,405.5 C 356.545,405.676 360.878,407.51 364.5,411C 365.448,411.483 366.448,411.649 367.5,411.5C 367.5,409.833 367.5,408.167 367.5,406.5C 368.239,406.369 368.906,406.536 369.5,407C 380.027,417.527 390.527,428.027 401,438.5C 406.484,444.132 411.317,450.132 415.5,456.5C 415.5,458.5 415.5,460.5 415.5,462.5C 399.013,446.238 382.346,429.738 365.5,413C 361.128,409.651 356.461,407.151 351.5,405.5 Z"/></g>
<g><path style="opacity:1" fill="#f7f6f4" d="M 367.5,406.5 C 367.5,408.167 367.5,409.833 367.5,411.5C 366.448,411.649 365.448,411.483 364.5,411C 360.878,407.51 356.545,405.676 351.5,405.5C 343.007,403.447 335.007,404.947 327.5,410C 320.887,416.123 314.554,422.456 308.5,429C 307.1,430.438 305.433,431.271 303.5,431.5C 303.5,432.5 303.5,433.5 303.5,434.5C 300.413,434.096 297.746,432.763 295.5,430.5C 290.758,425.091 285.758,420.091 280.5,415.5C 279.263,412.755 277.43,410.422 275,408.5C 274.51,407.207 274.343,405.873 274.5,404.5C 273.5,404.5 272.5,404.5 271.5,404.5C 271.298,400.155 272.631,399.488 275.5,402.5C 282.989,409.736 290.656,416.736 298.5,423.5C 307.078,416.592 315.078,408.925 322.5,400.5C 326.824,398.004 331.157,395.504 335.5,393C 349.202,390.831 359.868,395.331 367.5,406.5 Z"/></g>
<g><path style="opacity:1" fill="#615950" d="M 380.5,474.5 C 381.412,470.869 381.579,467.203 381,463.5C 380.667,465.5 380.333,467.5 380,469.5C 379.583,470.756 378.75,471.423 377.5,471.5C 377.5,470.5 377.5,469.5 377.5,468.5C 377.76,464.652 377.094,460.985 375.5,457.5C 366.677,448.845 357.677,440.345 348.5,432C 344.167,431.333 339.833,431.333 335.5,432C 309.999,457.168 284.832,482.668 260,508.5C 259.192,512.027 259.359,515.36 260.5,518.5C 261.5,520.5 262.5,522.5 263.5,524.5C 259.691,520.191 258.691,520.858 260.5,526.5C 260.167,526.5 259.833,526.5 259.5,526.5C 253.397,518.45 253.064,510.116 258.5,501.5C 278.536,482.299 297.869,462.799 316.5,443C 317.448,442.517 318.448,442.351 319.5,442.5C 319.351,441.448 319.517,440.448 320,439.5C 323.841,435.327 328.007,431.493 332.5,428C 339.711,424.365 346.711,424.699 353.5,429C 361.977,437.809 370.81,446.309 380,454.5C 380.113,456.974 381.113,458.974 383,460.5C 383.791,464.926 383.457,469.259 382,473.5C 381.617,474.056 381.117,474.389 380.5,474.5 Z"/></g>
<g><path style="opacity:1" fill="#fbf5e4" d="M 377.5,468.5 C 377.5,469.5 377.5,470.5 377.5,471.5C 375.907,474.924 373.74,477.924 371,480.5C 350.217,500.953 329.55,521.953 309,543.5C 305.833,545.667 302.667,547.833 299.5,550C 295.299,550.922 291.299,550.422 287.5,548.5C 279.785,540.119 271.785,532.119 263.5,524.5C 262.5,522.5 261.5,520.5 260.5,518.5C 262.905,517.313 265.239,515.813 267.5,514C 272.935,507.809 278.602,501.809 284.5,496C 285.448,495.517 286.448,495.351 287.5,495.5C 287.351,494.448 287.517,493.448 288,492.5C 292.167,488.333 296.333,484.167 300.5,480C 301.448,479.517 302.448,479.351 303.5,479.5C 303.351,478.448 303.517,477.448 304,476.5C 315.21,464.785 326.71,453.618 338.5,443C 344.62,441.812 350.286,442.812 355.5,446C 363.091,453.422 370.424,460.922 377.5,468.5 Z"/></g>
<g><path style="opacity:1" fill="#5e5d5b" d="M 272.5,436.5 C 275.841,437.841 278.175,440.175 279.5,443.5C 276.977,446.286 274.644,449.286 272.5,452.5C 256.943,466.787 241.776,481.787 227,497.5C 223.155,504.533 221.988,511.866 223.5,519.5C 223.5,521.167 223.5,522.833 223.5,524.5C 223.784,526.415 223.451,528.081 222.5,529.5C 221.503,529.53 220.836,529.03 220.5,528C 215.654,515.276 217.154,503.443 225,492.5C 240.342,477.991 255.176,462.991 269.5,447.5C 270.167,447.167 270.833,446.833 271.5,446.5C 272.88,446.038 273.547,445.038 273.5,443.5C 272.833,441.833 272.167,440.167 271.5,438.5C 271.543,437.584 271.876,436.917 272.5,436.5 Z"/></g>
<g><path style="opacity:1" fill="#f6f4f1" d="M 272.5,452.5 C 274.74,453.568 276.574,455.234 278,457.5C 278.749,458.635 278.583,459.635 277.5,460.5C 265.609,471.223 254.609,482.723 244.5,495C 234.785,500.879 227.785,509.045 223.5,519.5C 221.988,511.866 223.155,504.533 227,497.5C 241.776,481.787 256.943,466.787 272.5,452.5 Z"/></g>
<g><path style="opacity:1" fill="#5e5e5b" d="M 380.5,474.5 C 380.5,474.833 380.5,475.167 380.5,475.5C 354.646,502.187 328.313,528.354 301.5,554C 297.167,554.667 292.833,554.667 288.5,554C 278.587,545.252 269.254,536.086 260.5,526.5C 258.691,520.858 259.691,520.191 263.5,524.5C 271.785,532.119 279.785,540.119 287.5,548.5C 291.299,550.422 295.299,550.922 299.5,550C 302.667,547.833 305.833,545.667 309,543.5C 329.55,521.953 350.217,500.953 371,480.5C 373.74,477.924 375.907,474.924 377.5,471.5C 378.75,471.423 379.583,470.756 380,469.5C 380.333,467.5 380.667,465.5 381,463.5C 381.579,467.203 381.412,470.869 380.5,474.5 Z"/></g>
<g><path style="opacity:1" fill="#e6b171" d="M 377.5,468.5 C 370.424,460.922 363.091,453.422 355.5,446C 350.286,442.812 344.62,441.812 338.5,443C 326.71,453.618 315.21,464.785 304,476.5C 303.517,477.448 303.351,478.448 303.5,479.5C 302.448,479.351 301.448,479.517 300.5,480C 296.333,484.167 292.167,488.333 288,492.5C 287.517,493.448 287.351,494.448 287.5,495.5C 286.448,495.351 285.448,495.517 284.5,496C 278.602,501.809 272.935,507.809 267.5,514C 265.239,515.813 262.905,517.313 260.5,518.5C 259.359,515.36 259.192,512.027 260,508.5C 284.832,482.668 309.999,457.168 335.5,432C 339.833,431.333 344.167,431.333 348.5,432C 357.677,440.345 366.677,448.845 375.5,457.5C 377.094,460.985 377.76,464.652 377.5,468.5 Z"/></g>
<g><path style="opacity:1" fill="#f8f2e2" d="M 380.5,475.5 C 381.586,475.62 382.253,476.287 382.5,477.5C 382.972,479.307 383.306,481.14 383.5,483C 382.448,486.614 380.948,490.114 379,493.5C 377.829,494.893 376.329,495.727 374.5,496C 353.713,518.422 332.38,540.422 310.5,562C 307.79,563.015 305.457,564.515 303.5,566.5C 299.878,567.659 296.211,567.825 292.5,567C 284.317,561.149 277.151,554.315 271,546.5C 269.58,544.578 267.747,543.245 265.5,542.5C 264.239,539.736 262.405,537.403 260,535.5C 259.502,532.518 259.335,529.518 259.5,526.5C 259.833,526.5 260.167,526.5 260.5,526.5C 269.254,536.086 278.587,545.252 288.5,554C 292.833,554.667 297.167,554.667 301.5,554C 328.313,528.354 354.646,502.187 380.5,475.5 Z"/></g>
<g><path style="opacity:1" fill="#e7b171" d="M 419.5,474.5 C 419.833,474.5 420.167,474.5 420.5,474.5C 421.885,481.651 421.218,488.651 418.5,495.5C 417.5,495.5 416.5,495.5 415.5,495.5C 415.657,496.873 415.49,498.207 415,499.5C 406.58,507.122 398.746,515.289 391.5,524C 385,529.833 378.5,535.667 372,541.5C 371.727,543.329 370.893,544.829 369.5,546C 366.577,548.045 363.743,550.212 361,552.5C 353.632,560.365 346.466,568.365 339.5,576.5C 337.833,577.5 336.5,578.833 335.5,580.5C 332.553,581.985 330.553,584.318 329.5,587.5C 327.77,588.026 326.436,589.026 325.5,590.5C 324.5,590.833 323.833,591.5 323.5,592.5C 321.107,593.353 319.774,595.019 319.5,597.5C 314.128,600.186 308.795,602.853 303.5,605.5C 299.486,605.666 295.486,605.499 291.5,605C 288.637,603.601 285.637,602.601 282.5,602C 279.262,598.256 275.595,595.09 271.5,592.5C 270.833,591.833 270.167,591.167 269.5,590.5C 268.738,588.738 267.404,587.738 265.5,587.5C 265.5,587.167 265.5,586.833 265.5,586.5C 264.5,583.5 262.5,581.5 259.5,580.5C 258.473,578.806 257.139,577.473 255.5,576.5C 251.568,571.393 247.401,566.393 243,561.5C 238.34,557.84 234.007,553.84 230,549.5C 228.516,545.868 226.516,542.534 224,539.5C 223.506,537.866 223.34,536.199 223.5,534.5C 233.827,544.993 244.327,555.326 255,565.5C 255.483,566.448 255.649,567.448 255.5,568.5C 256.552,568.351 257.552,568.517 258.5,569C 265.67,577.249 273.67,584.583 282.5,591C 300,595.723 314,590.723 324.5,576C 354.653,545.847 385.153,515.347 416,484.5C 417.47,481.256 418.637,477.923 419.5,474.5 Z"/></g>
<g><path style="opacity:1" fill="#61605e" d="M 255.5,576.5 C 257.139,577.473 258.473,578.806 259.5,580.5C 211.833,580.5 164.167,580.5 116.5,580.5C 116.5,579.167 116.5,577.833 116.5,576.5C 162.833,576.5 209.167,576.5 255.5,576.5 Z"/></g>
<g><path style="opacity:1" fill="#62605d" d="M 339.5,576.5 C 358.833,576.5 378.167,576.5 397.5,576.5C 397.768,578.099 397.434,579.432 396.5,580.5C 376.167,580.5 355.833,580.5 335.5,580.5C 336.5,578.833 337.833,577.5 339.5,576.5 Z"/></g>
<g><path style="opacity:1" fill="#5f5951" d="M 419.5,474.5 C 418.637,477.923 417.47,481.256 416,484.5C 385.153,515.347 354.653,545.847 324.5,576C 314,590.723 300,595.723 282.5,591C 273.67,584.583 265.67,577.249 258.5,569C 257.552,568.517 256.552,568.351 255.5,568.5C 255.649,567.448 255.483,566.448 255,565.5C 244.327,555.326 233.827,544.993 223.5,534.5C 223.371,532.784 223.038,531.117 222.5,529.5C 223.451,528.081 223.784,526.415 223.5,524.5C 229.093,532.762 235.76,540.096 243.5,546.5C 255.294,558.462 266.96,570.629 278.5,583C 288.181,589.457 298.181,590.124 308.5,585C 342.717,551.246 376.884,517.08 411,482.5C 415.101,476.503 416.601,469.837 415.5,462.5C 415.5,460.5 415.5,458.5 415.5,456.5C 415.783,455.711 416.283,455.044 417,454.5C 418.733,456.646 418.9,458.98 417.5,461.5C 419.225,465.655 419.891,469.989 419.5,474.5 Z"/></g>
<g><path style="opacity:1" fill="#ddd9cc" d="M 335.5,580.5 C 355.833,580.5 376.167,580.5 396.5,580.5C 379.529,582.322 362.196,583.156 344.5,583C 345.634,584.016 345.301,584.683 343.5,585C 346.506,585.332 349.34,586.166 352,587.5C 352.342,589.818 351.842,591.985 350.5,594C 350.833,594.333 351.167,594.667 351.5,595C 349.863,595.601 348.197,596.101 346.5,596.5C 343.137,595.939 339.471,595.605 335.5,595.5C 335.5,594.5 335.5,593.5 335.5,592.5C 331.5,592.5 327.5,592.5 323.5,592.5C 323.833,591.5 324.5,590.833 325.5,590.5C 333.833,590.5 342.167,590.5 350.5,590.5C 350.5,589.5 350.5,588.5 350.5,587.5C 343.5,587.5 336.5,587.5 329.5,587.5C 330.553,584.318 332.553,581.985 335.5,580.5 Z"/></g>
<g><path style="opacity:1" fill="#575553" d="M 329.5,587.5 C 336.5,587.5 343.5,587.5 350.5,587.5C 350.5,588.5 350.5,589.5 350.5,590.5C 342.167,590.5 333.833,590.5 325.5,590.5C 326.436,589.026 327.77,588.026 329.5,587.5 Z"/></g>
<g><path style="opacity:1" fill="#565551" d="M 265.5,587.5 C 267.404,587.738 268.738,588.738 269.5,590.5C 259.167,590.5 248.833,590.5 238.5,590.5C 238.5,589.5 238.5,588.5 238.5,587.5C 247.5,587.5 256.5,587.5 265.5,587.5 Z"/></g>
<g><path style="opacity:1" fill="#cdcabf" d="M 265.5,586.5 C 265.5,586.833 265.5,587.167 265.5,587.5C 256.5,587.5 247.5,587.5 238.5,587.5C 238.5,588.5 238.5,589.5 238.5,590.5C 248.833,590.5 259.167,590.5 269.5,590.5C 270.167,591.167 270.833,591.833 271.5,592.5C 260.147,592.832 248.814,592.499 237.5,591.5C 236.691,589.929 236.357,588.262 236.5,586.5C 246.167,586.5 255.833,586.5 265.5,586.5 Z"/></g>
<g><path style="opacity:1" fill="#ebe9e6" d="M 319.5,597.5 C 321.446,602.396 322.113,607.729 321.5,613.5C 313.5,613.5 305.5,613.5 297.5,613.5C 297.201,611.396 297.534,609.396 298.5,607.5C 300.336,606.972 302.003,606.306 303.5,605.5C 308.795,602.853 314.128,600.186 319.5,597.5 Z"/></g>
<g><path style="opacity:1" fill="#dcdad1" d="M -0.5,729.5 C 0.833333,730.167 1.83333,731.167 2.5,732.5C 1.5,732.5 0.5,732.5 -0.5,732.5C -0.5,731.5 -0.5,730.5 -0.5,729.5 Z"/></g>
<g><path style="opacity:1" fill="#dfddd3" d="M 517.5,728.5 C 517.5,729.833 517.5,731.167 517.5,732.5C 516.167,732.5 514.833,732.5 513.5,732.5C 515.167,731.5 516.5,730.167 517.5,728.5 Z"/></g>
</svg>
