<?xml version="1.0" encoding="UTF-8"?>
<!-- Author: Jiachun Li -->
<!DOCTYPE svg PUBLIC "-//W3C//DTD SVG 1.1//EN" "http://www.w3.org/Graphics/SVG/1.1/DTD/svg11.dtd">
<svg xmlns="http://www.w3.org/2000/svg" version="1.1" width="519px" height="732px" style="shape-rendering:geometricPrecision; text-rendering:geometricPrecision; image-rendering:optimizeQuality; fill-rule:evenodd; clip-rule:evenodd" xmlns:xlink="http://www.w3.org/1999/xlink">
<g><path style="opacity:1" fill="#e3e3d7" d="M -0.5,-0.5 C 0.5,-0.5 1.5,-0.5 2.5,-0.5C 1.48837,0.871651 0.488369,2.20498 -0.5,3.5C -0.5,2.16667 -0.5,0.833333 -0.5,-0.5 Z"/></g>
<g><path style="opacity:1" fill="#010101" d="M 2.5,-0.5 C 173.5,-0.5 344.5,-0.5 515.5,-0.5C 516.167,0.833333 517.167,1.83333 518.5,2.5C 518.5,244.5 518.5,486.5 518.5,728.5C 517.599,729.29 516.932,730.29 516.5,731.5C 345.167,731.5 173.833,731.5 2.5,731.5C 1.48837,730.128 0.488369,728.795 -0.5,727.5C -0.5,486.167 -0.5,244.833 -0.5,3.5C 0.488369,2.20498 1.48837,0.871651 2.5,-0.5 Z"/></g>
<g><path style="opacity:1" fill="#dfdfda" d="M 515.5,-0.5 C 516.5,-0.5 517.5,-0.5 518.5,-0.5C 518.5,0.5 518.5,1.5 518.5,2.5C 517.167,1.83333 516.167,0.833333 515.5,-0.5 Z"/></g>
<g><path style="opacity:1" fill="#f4f1e4" d="M 504.5,13.5 C 504.5,248.5 504.5,483.5 504.5,718.5C 341.167,718.5 177.833,718.5 14.5,718.5C 14.5,483.5 14.5,248.5 14.5,13.5C 177.833,13.5 341.167,13.5 504.5,13.5 Z"/></g>
<g><path style="opacity:1" fill="#b9b7ac" d="M 504.5,13.5 C 341.167,13.5 177.833,13.5 14.5,13.5C 14.5,248.5 14.5,483.5 14.5,718.5C 13.5002,483.334 13.1669,248.001 13.5,12.5C 177.334,12.167 341.001,12.5003 504.5,13.5 Z"/></g>
<g><path style="opacity:1" fill="#fcf7e6" d="M 493.5,23.5 C 493.167,23.5 492.833,23.5 492.5,23.5C 338.396,23.1625 184.23,22.1625 30,20.5C 24.535,20.7986 21.7017,23.6319 21.5,29C 22.6642,254.15 22.8308,479.316 22,704.5C 20,705.167 18,705.833 16,706.5C 15.5047,479.919 15.3381,253.419 15.5,27C 17.2009,25.1397 18.2009,22.973 18.5,20.5C 17.5,20.5 16.5,20.5 15.5,20.5C 15.5,18.5 15.5,16.5 15.5,14.5C 175.5,14.5 335.5,14.5 495.5,14.5C 496.055,18.0122 495.388,21.0122 493.5,23.5 Z"/></g>
<g><path style="opacity:1" fill="#fcf7e6" d="M 25.5,708.5 C 25.8333,708.5 26.1667,708.5 26.5,708.5C 27.6412,709.339 28.9745,710.006 30.5,710.5C 183.321,709.167 336.154,709.167 489,710.5C 491.316,710.066 493.316,709.066 495,707.5C 496.496,476.876 496.996,246.209 496.5,15.5C 498.167,15.5 499.833,15.5 501.5,15.5C 501.512,249.033 501.512,482.366 501.5,715.5C 339.943,716.813 177.943,716.813 15.5,715.5C 24.5602,713.465 24.5602,712.465 15.5,712.5C 15.5,710.833 15.5,709.167 15.5,707.5C 18.7861,708.207 22.1194,708.54 25.5,708.5 Z"/></g>
<g><path style="opacity:1" fill="#121110" d="M 492.5,23.5 C 492.833,23.5 493.167,23.5 493.5,23.5C 494.666,251.097 494.832,478.764 494,706.5C 493.5,707 493,707.5 492.5,708C 337.167,708.5 181.834,708.667 26.5,708.5C 26.1667,708.5 25.8333,708.5 25.5,708.5C 24.3345,480.569 24.1678,252.569 25,24.5C 180.763,23.5009 336.597,23.1675 492.5,23.5 Z"/></g>
<g><path style="opacity:1" fill="#fcf6e6" d="M 488.5,28.5 C 488.5,253.167 488.5,477.833 488.5,702.5C 335.5,702.5 182.5,702.5 29.5,702.5C 29.5,477.833 29.5,253.167 29.5,28.5C 182.5,28.5 335.5,28.5 488.5,28.5 Z"/></g>
<g><path style="opacity:1" fill="#0e0c0a" d="M 124.5,48.5 C 125.873,48.3433 127.207,48.51 128.5,49C 155.739,75.7376 182.406,102.904 208.5,130.5C 182.406,158.096 155.739,185.262 128.5,212C 127.167,212.667 125.833,212.667 124.5,212C 97.2611,185.262 70.5945,158.096 44.5,130.5C 44.6667,129.833 44.8333,129.167 45,128.5C 71.7016,101.965 98.2016,75.2987 124.5,48.5 Z"/></g>
<g><path style="opacity:1" fill="#f8f3e4" d="M 125.5,54.5 C 151.763,79.095 177.429,104.428 202.5,130.5C 177.5,156.167 152.167,181.5 126.5,206.5C 100.833,181.5 75.5,156.167 50.5,130.5C 75.5211,105.146 100.521,79.8125 125.5,54.5 Z"/></g>
<g><path style="opacity:1" fill="#0b0a09" d="M 133.5,101.5 C 123.833,101.5 114.167,101.5 104.5,101.5C 104.175,109.019 104.508,116.352 105.5,123.5C 106.458,123.047 107.292,122.381 108,121.5C 108.499,116.177 108.666,110.844 108.5,105.5C 119.877,105.826 131.21,105.326 142.5,104C 148.095,102.573 151.428,99.0734 152.5,93.5C 153.167,92.1667 153.833,90.8333 154.5,89.5C 153.995,99.5139 148.662,105.347 138.5,107C 129.173,107.5 119.839,107.666 110.5,107.5C 110.334,111.846 110.501,116.179 111,120.5C 125.999,114.666 138.999,117.666 150,129.5C 155.074,139.534 155.74,149.868 152,160.5C 148.381,167.451 142.881,172.284 135.5,175C 123.739,177.848 112.406,176.848 101.5,172C 95.255,167.836 92.255,162.169 92.5,155C 96.9287,152.898 101.095,150.398 105,147.5C 104.462,155.047 106.295,161.88 110.5,168C 124.179,175.218 134.012,171.718 140,157.5C 140.667,150.167 140.667,142.833 140,135.5C 135.257,124.791 127.09,120.958 115.5,124C 110.484,126.012 106.317,129.179 103,133.5C 101.541,133.192 100.374,132.525 99.5,131.5C 99.5,118.5 99.5,105.5 99.5,92.5C 113.01,92.8289 126.344,92.4956 139.5,91.5C 144.006,92.4728 146.172,90.8061 146,86.5C 140.633,88.1366 139.466,86.6366 142.5,82C 150.843,84.0044 152.676,88.8377 148,96.5C 143.706,99.6538 138.873,101.32 133.5,101.5 Z"/></g>
<g><path style="opacity:1" fill="#8e8b7d" d="M 154.5,89.5 C 153.833,90.8333 153.167,92.1667 152.5,93.5C 152.726,90.7508 152.393,88.0841 151.5,85.5C 151.846,84.3044 152.346,84.3044 153,85.5C 153.41,86.9007 153.91,88.234 154.5,89.5 Z"/></g>
<g><path style="opacity:1" fill="#88857e" d="M 139.5,91.5 C 126.344,92.4956 113.01,92.8289 99.5,92.5C 99.5,105.5 99.5,118.5 99.5,131.5C 98.5044,118.344 98.1711,105.01 98.5,91.5C 112.167,91.5 125.833,91.5 139.5,91.5 Z"/></g>
<g><path style="opacity:1" fill="#84827b" d="M 133.5,101.5 C 124.348,102.494 115.015,102.827 105.5,102.5C 105.5,109.5 105.5,116.5 105.5,123.5C 104.508,116.352 104.175,109.019 104.5,101.5C 114.167,101.5 123.833,101.5 133.5,101.5 Z"/></g>
<g><path style="opacity:1" fill="#302d26" d="M 117.5,126.5 C 125.799,125.323 132.466,127.99 137.5,134.5C 137.333,134.833 137.167,135.167 137,135.5C 130.833,128.465 123.333,126.631 114.5,130C 111.705,131.793 109.205,133.96 107,136.5C 107.546,133.907 109.046,131.74 111.5,130C 113.727,129.059 115.727,127.892 117.5,126.5 Z"/></g>
<g><path style="opacity:1" fill="#22201c" d="M 150.5,126.5 C 161.142,137.208 163.309,149.542 157,163.5C 148.202,178.646 135.035,184.813 117.5,182C 113.735,180.951 110.068,179.618 106.5,178C 105.304,177.346 105.304,176.846 106.5,176.5C 124.218,184.271 139.718,181.271 153,167.5C 160.993,153.165 160.16,139.498 150.5,126.5 Z"/></g>
<g><path style="opacity:1" fill="#1f1d18" d="M 110.5,148.5 C 109.65,158.294 113.65,165.46 122.5,170C 111.682,166.88 107.682,159.713 110.5,148.5 Z"/></g>
<g><path style="opacity:1" fill="#a18169" d="M 311.5,294.5 C 302.518,296.288 293.851,295.622 285.5,292.5C 286.492,292.672 287.158,292.338 287.5,291.5C 297.135,294.424 306.635,294.09 316,290.5C 316.497,288.19 316.663,285.857 316.5,283.5C 313.763,283.401 311.096,283.735 308.5,284.5C 307.737,283.732 306.737,283.232 305.5,283C 306.044,282.283 306.711,281.783 307.5,281.5C 309.605,282.819 311.605,282.486 313.5,280.5C 311.362,278.218 309.029,277.551 306.5,278.5C 294.746,271.393 282.08,266.727 268.5,264.5C 269.552,264.649 270.552,264.483 271.5,264C 249.739,259.024 228.073,259.357 206.5,265C 217.144,264.724 227.811,264.557 238.5,264.5C 234.947,265.561 231.281,266.561 227.5,267.5C 228.263,266.732 229.263,266.232 230.5,266C 210.795,264.739 192.461,269.073 175.5,279C 169.291,283.266 163.291,287.766 157.5,292.5C 157.167,292.5 156.833,292.5 156.5,292.5C 160.906,288.116 165.572,283.949 170.5,280C 204.087,258.468 240.087,253.135 278.5,264C 293.24,268.878 307.573,274.545 321.5,281C 317.962,281.663 316.962,283.496 318.5,286.5C 318.101,288.197 317.601,289.863 317,291.5C 315.124,292.609 313.291,293.609 311.5,294.5 Z"/></g>
<g><path style="opacity:1" fill="#f4e5d0" d="M 268.5,264.5 C 258.5,264.5 248.5,264.5 238.5,264.5C 227.811,264.557 217.144,264.724 206.5,265C 228.073,259.357 249.739,259.024 271.5,264C 270.552,264.483 269.552,264.649 268.5,264.5 Z"/></g>
<g><path style="opacity:1" fill="#f8eedb" d="M 227.5,267.5 C 222.415,268.117 217.415,269.117 212.5,270.5C 209.603,271.129 206.936,272.129 204.5,273.5C 187.516,278.658 171.516,285.992 156.5,295.5C 156.167,295.333 155.833,295.167 155.5,295C 156.381,294.292 157.047,293.458 157.5,292.5C 163.291,287.766 169.291,283.266 175.5,279C 192.461,269.073 210.795,264.739 230.5,266C 229.263,266.232 228.263,266.732 227.5,267.5 Z"/></g>
<g><path style="opacity:1" fill="#ba9578" d="M 212.5,270.5 C 213.605,272.3 212.939,273.467 210.5,274C 208.455,274.49 206.455,274.323 204.5,273.5C 206.936,272.129 209.603,271.129 212.5,270.5 Z"/></g>
<g><path style="opacity:1" fill="#86492b" d="M 238.5,264.5 C 248.5,264.5 258.5,264.5 268.5,264.5C 282.08,266.727 294.746,271.393 306.5,278.5C 307.404,279.209 307.737,280.209 307.5,281.5C 306.711,281.783 306.044,282.283 305.5,283C 306.737,283.232 307.737,283.732 308.5,284.5C 304.186,285.275 299.853,285.941 295.5,286.5C 287.359,285.248 279.359,285.248 271.5,286.5C 262.902,288.297 254.569,290.963 246.5,294.5C 243.599,295.107 241.266,296.441 239.5,298.5C 235.682,299.714 232.015,301.38 228.5,303.5C 226.897,303.312 225.563,303.812 224.5,305C 225.942,305.377 226.942,306.21 227.5,307.5C 222.746,309.539 218.746,312.539 215.5,316.5C 214.711,316.217 214.044,315.717 213.5,315C 215.923,313.429 217.256,311.263 217.5,308.5C 219.735,307.613 220.235,306.613 219,305.5C 217.2,306.32 215.366,306.986 213.5,307.5C 214.167,306.5 214.833,305.5 215.5,304.5C 240.379,286.44 268.379,278.607 299.5,281C 286.549,276.577 273.215,274.41 259.5,274.5C 217.82,273.054 181.82,286.387 151.5,314.5C 137.536,326.135 126.536,340.135 118.5,356.5C 111.556,367.921 106.889,380.255 104.5,393.5C 103.232,395.905 102.565,398.572 102.5,401.5C 97.8604,425.142 99.1937,448.476 106.5,471.5C 107.587,477.67 109.254,483.67 111.5,489.5C 108.67,491.035 107.337,490.035 107.5,486.5C 106.167,486.5 104.833,486.5 103.5,486.5C 103.768,484.901 103.434,483.568 102.5,482.5C 101.89,481.609 101.557,480.609 101.5,479.5C 102.412,477.823 103.079,475.989 103.5,474C 103.486,472.615 103.152,471.449 102.5,470.5C 102.371,468.784 102.038,467.117 101.5,465.5C 100.422,459.723 99.4215,454.056 98.5,448.5C 98.9227,446.219 98.256,444.552 96.5,443.5C 95.8333,434.833 95.1667,426.167 94.5,417.5C 93.6403,413.566 93.307,409.566 93.5,405.5C 93.6144,396.146 95.4478,387.146 99,378.5C 103.374,367.42 108.541,356.753 114.5,346.5C 115.71,346.068 116.71,345.401 117.5,344.5C 126.484,333.868 134.484,322.535 141.5,310.5C 144.046,308.719 145.546,306.386 146,303.5C 144.639,306.118 142.806,306.785 140.5,305.5C 146.06,301.875 151.06,297.542 155.5,292.5C 155.833,292.5 156.167,292.5 156.5,292.5C 156.833,292.5 157.167,292.5 157.5,292.5C 157.047,293.458 156.381,294.292 155.5,295C 155.833,295.167 156.167,295.333 156.5,295.5C 171.516,285.992 187.516,278.658 204.5,273.5C 206.455,274.323 208.455,274.49 210.5,274C 212.939,273.467 213.605,272.3 212.5,270.5C 217.415,269.117 222.415,268.117 227.5,267.5C 231.281,266.561 234.947,265.561 238.5,264.5 Z"/></g>
<g><path style="opacity:1" fill="#f8ead8" d="M 306.5,278.5 C 309.029,277.551 311.362,278.218 313.5,280.5C 311.605,282.486 309.605,282.819 307.5,281.5C 307.737,280.209 307.404,279.209 306.5,278.5 Z"/></g>
<g><path style="opacity:1" fill="#f5efcd" d="M 287.5,291.5 C 285.436,291.313 283.436,290.813 281.5,290C 286.278,288.751 290.945,287.584 295.5,286.5C 299.853,285.941 304.186,285.275 308.5,284.5C 311.096,283.735 313.763,283.401 316.5,283.5C 316.663,285.857 316.497,288.19 316,290.5C 306.635,294.09 297.135,294.424 287.5,291.5 Z"/></g>
<g><path style="opacity:1" fill="#ebd7b4" d="M 271.5,286.5 C 276.844,286.334 282.177,286.501 287.5,287C 280.898,288.434 274.232,289.434 267.5,290C 261.223,291.986 254.89,293.82 248.5,295.5C 247.584,295.457 246.917,295.124 246.5,294.5C 254.569,290.963 262.902,288.297 271.5,286.5 Z"/></g>
<g><path style="opacity:1" fill="#987252" d="M 271.5,286.5 C 279.359,285.248 287.359,285.248 295.5,286.5C 290.945,287.584 286.278,288.751 281.5,290C 283.436,290.813 285.436,291.313 287.5,291.5C 287.158,292.338 286.492,292.672 285.5,292.5C 277.065,290.982 268.732,291.482 260.5,294C 249.189,297.824 238.189,302.324 227.5,307.5C 226.942,306.21 225.942,305.377 224.5,305C 225.563,303.812 226.897,303.312 228.5,303.5C 227.537,304.363 227.537,305.03 228.5,305.5C 233.294,302.847 238.294,300.68 243.5,299C 242.207,298.51 240.873,298.343 239.5,298.5C 241.266,296.441 243.599,295.107 246.5,294.5C 246.917,295.124 247.584,295.457 248.5,295.5C 254.89,293.82 261.223,291.986 267.5,290C 274.232,289.434 280.898,288.434 287.5,287C 282.177,286.501 276.844,286.334 271.5,286.5 Z"/></g>
<g><path style="opacity:1" fill="#f4e479" d="M 259.5,274.5 C 273.215,274.41 286.549,276.577 299.5,281C 268.379,278.607 240.379,286.44 215.5,304.5C 214.167,304.5 212.833,304.5 211.5,304.5C 211.5,305.5 211.5,306.5 211.5,307.5C 209.8,307.374 208.3,306.707 207,305.5C 205.715,305.95 204.548,306.617 203.5,307.5C 202.638,306.234 201.971,304.901 201.5,303.5C 202.117,301.771 203.117,300.271 204.5,299C 217.372,291.731 230.372,284.731 243.5,278C 248.854,276.362 254.187,275.196 259.5,274.5 Z"/></g>
<g><path style="opacity:1" fill="#f6f1ce" d="M 285.5,292.5 C 293.851,295.622 302.518,296.288 311.5,294.5C 310.41,296.437 309.076,298.27 307.5,300C 295.369,300.935 283.369,302.268 271.5,304C 260.546,305.991 249.879,308.824 239.5,312.5C 239.5,313.5 239.5,314.5 239.5,315.5C 238.127,315.343 236.793,315.51 235.5,316C 231.836,318.499 228.169,320.999 224.5,323.5C 220.998,327.17 217.664,331.003 214.5,335C 212.286,336.273 209.953,337.273 207.5,338C 205.393,339.264 204.393,341.097 204.5,343.5C 203.127,343.343 201.793,343.51 200.5,344C 199.252,345.959 197.585,347.459 195.5,348.5C 194.614,349.325 194.281,350.325 194.5,351.5C 192.712,351.215 191.045,351.548 189.5,352.5C 189.037,355.351 187.704,356.351 185.5,355.5C 185.655,351.364 186.989,347.698 189.5,344.5C 197.771,334.892 206.438,325.559 215.5,316.5C 218.746,312.539 222.746,309.539 227.5,307.5C 238.189,302.324 249.189,297.824 260.5,294C 268.732,291.482 277.065,290.982 285.5,292.5 Z"/></g>
<g><path style="opacity:1" fill="#f8f0a7" d="M 259.5,274.5 C 254.187,275.196 248.854,276.362 243.5,278C 230.372,284.731 217.372,291.731 204.5,299C 203.117,300.271 202.117,301.771 201.5,303.5C 200.448,303.351 199.448,303.517 198.5,304C 190.024,311.49 182.358,319.656 175.5,328.5C 172.041,329.436 169.207,331.436 167,334.5C 164.295,332.618 161.462,330.951 158.5,329.5C 157.833,329.833 157.167,330.167 156.5,330.5C 153.852,328.512 151.018,326.845 148,325.5C 146.982,326.706 146.482,326.373 146.5,324.5C 149.584,321.974 151.251,318.641 151.5,314.5C 181.82,286.387 217.82,273.054 259.5,274.5 Z"/></g>
<g><path style="opacity:1" fill="#e6c9a6" d="M 239.5,298.5 C 240.873,298.343 242.207,298.51 243.5,299C 238.294,300.68 233.294,302.847 228.5,305.5C 227.537,305.03 227.537,304.363 228.5,303.5C 232.015,301.38 235.682,299.714 239.5,298.5 Z"/></g>
<g><path style="opacity:1" fill="#f1d36b" d="M 201.5,303.5 C 201.971,304.901 202.638,306.234 203.5,307.5C 204.548,306.617 205.715,305.95 207,305.5C 208.3,306.707 209.8,307.374 211.5,307.5C 211.5,306.5 211.5,305.5 211.5,304.5C 212.833,304.5 214.167,304.5 215.5,304.5C 214.833,305.5 214.167,306.5 213.5,307.5C 210.953,308.999 208.286,310.499 205.5,312C 203.009,315.49 200.175,318.657 197,321.5C 195.906,323.078 195.072,324.745 194.5,326.5C 193.167,327.167 192.167,328.167 191.5,329.5C 189.037,329.219 186.87,328.219 185,326.5C 184.374,328.991 183.541,328.991 182.5,326.5C 180.578,328.292 179.078,330.292 178,332.5C 177.692,331.692 177.192,331.025 176.5,330.5C 174.481,332.19 172.481,333.856 170.5,335.5C 171.754,332.907 173.42,330.573 175.5,328.5C 182.358,319.656 190.024,311.49 198.5,304C 199.448,303.517 200.448,303.351 201.5,303.5 Z"/></g>
<g><path style="opacity:1" fill="#f2e7bc" d="M 217.5,308.5 C 209.535,315.964 201.702,323.631 194,331.5C 193.601,331.272 193.435,330.938 193.5,330.5C 193.833,329.167 194.167,327.833 194.5,326.5C 195.072,324.745 195.906,323.078 197,321.5C 200.175,318.657 203.009,315.49 205.5,312C 208.286,310.499 210.953,308.999 213.5,307.5C 215.366,306.986 217.2,306.32 219,305.5C 220.235,306.613 219.735,307.613 217.5,308.5 Z"/></g>
<g><path style="opacity:1" fill="#9a7555" d="M 141.5,310.5 C 141.565,310.062 141.399,309.728 141,309.5C 134.333,317.5 127.667,325.5 121,333.5C 119.226,336.715 117.726,340.048 116.5,343.5C 116.624,344.107 116.957,344.44 117.5,344.5C 116.71,345.401 115.71,346.068 114.5,346.5C 114.539,345.417 114.873,344.417 115.5,343.5C 115.154,342.304 114.654,342.304 114,343.5C 107.557,353.397 101.391,363.397 95.5,373.5C 95.1667,373.5 94.8333,373.5 94.5,373.5C 96.1054,370.622 97.4388,367.622 98.5,364.5C 109.292,349.519 119.126,333.852 128,317.5C 131.376,312.623 135.543,308.623 140.5,305.5C 142.806,306.785 144.639,306.118 146,303.5C 145.546,306.386 144.046,308.719 141.5,310.5 Z"/></g>
<g><path style="opacity:1" fill="#eacfaf" d="M 138.5,307.5 C 139.239,307.369 139.906,307.536 140.5,308C 134.957,313.874 129.79,320.041 125,326.5C 125.732,323.701 127.066,321.034 129,318.5C 132.002,314.666 135.169,311 138.5,307.5 Z"/></g>
<g><path style="opacity:1" fill="#f1e3be" d="M 141.5,310.5 C 134.484,322.535 126.484,333.868 117.5,344.5C 116.957,344.44 116.624,344.107 116.5,343.5C 117.726,340.048 119.226,336.715 121,333.5C 127.667,325.5 134.333,317.5 141,309.5C 141.399,309.728 141.565,310.062 141.5,310.5 Z"/></g>
<g><path style="opacity:1" fill="#efd8b0" d="M 134.5,323.5 C 136.008,326.08 135.341,328.08 132.5,329.5C 132.167,329.333 131.833,329.167 131.5,329C 132.639,327.22 133.639,325.386 134.5,323.5 Z"/></g>
<g><path style="opacity:1" fill="#976e4e" d="M 217.5,308.5 C 217.256,311.263 215.923,313.429 213.5,315C 214.044,315.717 214.711,316.217 215.5,316.5C 206.438,325.559 197.771,334.892 189.5,344.5C 188.167,343.5 188.167,342.5 189.5,341.5C 190.329,342.332 191.162,341.999 192,340.5C 197.427,333.069 203.593,326.236 210.5,320C 209.833,319.333 209.167,319.333 208.5,320C 203.634,324.367 198.968,328.867 194.5,333.5C 193.909,332.849 193.243,332.182 192.5,331.5C 192.624,330.893 192.957,330.56 193.5,330.5C 193.435,330.938 193.601,331.272 194,331.5C 201.702,323.631 209.535,315.964 217.5,308.5 Z"/></g>
<g><path style="opacity:1" fill="#e9d2af" d="M 189.5,341.5 C 190.655,338.525 192.322,335.858 194.5,333.5C 198.968,328.867 203.634,324.367 208.5,320C 209.167,319.333 209.833,319.333 210.5,320C 203.593,326.236 197.427,333.069 192,340.5C 191.162,341.999 190.329,342.332 189.5,341.5 Z"/></g>
<g><path style="opacity:1" fill="#f5edcc" d="M 155.5,292.5 C 151.06,297.542 146.06,301.875 140.5,305.5C 135.543,308.623 131.376,312.623 128,317.5C 119.126,333.852 109.292,349.519 98.5,364.5C 102.367,348.767 109.367,334.767 119.5,322.5C 119.023,321.522 118.357,320.689 117.5,320C 121.34,320.037 123.673,318.204 124.5,314.5C 126.193,312.973 128.027,311.64 130,310.5C 130.483,309.552 130.649,308.552 130.5,307.5C 131.675,307.719 132.675,307.386 133.5,306.5C 138.722,297.845 146.056,293.178 155.5,292.5 Z"/></g>
<g><path style="opacity:1" fill="#f7e496" d="M 151.5,314.5 C 151.251,318.641 149.584,321.974 146.5,324.5C 146.482,326.373 146.982,326.706 148,325.5C 151.018,326.845 153.852,328.512 156.5,330.5C 157.167,330.167 157.833,329.833 158.5,329.5C 161.462,330.951 164.295,332.618 167,334.5C 169.207,331.436 172.041,329.436 175.5,328.5C 173.42,330.573 171.754,332.907 170.5,335.5C 163.561,345.384 158.561,356.051 155.5,367.5C 153.799,368.211 152.799,369.545 152.5,371.5C 150.376,372.031 148.876,373.365 148,375.5C 147.259,372.438 147.425,369.438 148.5,366.5C 148.167,365.5 147.5,364.833 146.5,364.5C 145.804,367.556 144.97,370.556 144,373.5C 141.916,370.549 139.249,369.883 136,371.5C 135.51,370.207 135.343,368.873 135.5,367.5C 134.127,367.657 132.793,367.49 131.5,367C 129.089,364.193 126.256,363.026 123,363.5C 120.149,362.004 118.649,359.671 118.5,356.5C 126.536,340.135 137.536,326.135 151.5,314.5 Z"/></g>
<g><path style="opacity:1" fill="#efbf5b" d="M 191.5,329.5 C 184.892,338.787 179.559,348.787 175.5,359.5C 174.504,359.414 173.671,359.748 173,360.5C 172.592,358.59 171.425,357.59 169.5,357.5C 166.842,358.432 164.175,358.599 161.5,358C 159.213,361.104 157.213,364.271 155.5,367.5C 158.561,356.051 163.561,345.384 170.5,335.5C 172.481,333.856 174.481,332.19 176.5,330.5C 177.192,331.025 177.692,331.692 178,332.5C 179.078,330.292 180.578,328.292 182.5,326.5C 183.541,328.991 184.374,328.991 185,326.5C 186.87,328.219 189.037,329.219 191.5,329.5 Z"/></g>
<g><path style="opacity:1" fill="#f3e0ba" d="M 114.5,346.5 C 108.541,356.753 103.374,367.42 99,378.5C 95.4478,387.146 93.6144,396.146 93.5,405.5C 90.2632,415.1 88.7632,425.1 89,435.5C 88.6174,434.944 88.1174,434.611 87.5,434.5C 87.5,433.5 87.5,432.5 87.5,431.5C 88.8077,421.024 89.641,410.357 90,399.5C 90.8668,395.069 92.0334,390.736 93.5,386.5C 93.3601,384.97 92.6935,383.97 91.5,383.5C 92.8307,380.171 94.164,376.838 95.5,373.5C 101.391,363.397 107.557,353.397 114,343.5C 114.654,342.304 115.154,342.304 115.5,343.5C 114.873,344.417 114.539,345.417 114.5,346.5 Z"/></g>
<g><path style="opacity:1" fill="#ebaa45" d="M 175.5,359.5 C 171.959,370.206 169.959,381.206 169.5,392.5C 168.732,391.737 168.232,390.737 168,389.5C 167.51,390.793 167.343,392.127 167.5,393.5C 166.178,393.33 165.011,393.663 164,394.5C 162.927,390.916 162.26,387.25 162,383.5C 161.138,385.087 160.471,386.754 160,388.5C 159.46,385.639 158.46,382.972 157,380.5C 156.43,383.844 155.264,384.177 153.5,381.5C 151.031,385.09 150.031,389.09 150.5,393.5C 149.84,392.036 149.507,390.369 149.5,388.5C 150.5,383.167 151.5,377.834 152.5,372.5C 152.5,372.167 152.5,371.833 152.5,371.5C 152.799,369.545 153.799,368.211 155.5,367.5C 157.213,364.271 159.213,361.104 161.5,358C 164.175,358.599 166.842,358.432 169.5,357.5C 171.425,357.59 172.592,358.59 173,360.5C 173.671,359.748 174.504,359.414 175.5,359.5 Z"/></g>
<g><path style="opacity:1" fill="#f5d886" d="M 118.5,356.5 C 118.649,359.671 120.149,362.004 123,363.5C 126.256,363.026 129.089,364.193 131.5,367C 132.793,367.49 134.127,367.657 135.5,367.5C 135.343,368.873 135.51,370.207 136,371.5C 139.249,369.883 141.916,370.549 144,373.5C 144.97,370.556 145.804,367.556 146.5,364.5C 147.5,364.833 148.167,365.5 148.5,366.5C 147.425,369.438 147.259,372.438 148,375.5C 148.876,373.365 150.376,372.031 152.5,371.5C 152.5,371.833 152.5,372.167 152.5,372.5C 150.837,374.438 150.171,376.772 150.5,379.5C 149.5,379.5 148.5,379.5 147.5,379.5C 144.75,386.114 142.75,392.78 141.5,399.5C 140.674,403.982 140.174,408.649 140,413.5C 138.47,415.226 137.47,417.226 137,419.5C 136.641,416.456 135.974,416.122 135,418.5C 132.393,415.725 131.06,412.391 131,408.5C 130.586,408.043 130.086,407.709 129.5,407.5C 128.67,413.472 128.17,419.472 128,425.5C 127.667,420.5 127.333,415.5 127,410.5C 122.854,408.146 117.854,406.146 112,404.5C 111.667,408.167 111.333,411.833 111,415.5C 110.733,411.613 109.9,407.779 108.5,404C 109.617,400.927 109.784,397.76 109,394.5C 105.795,402.734 104.295,402.401 104.5,393.5C 106.889,380.255 111.556,367.921 118.5,356.5 Z"/></g>
<g><path style="opacity:1" fill="#ebd0b5" d="M 403.5,376.5 C 403.611,377.117 403.944,377.617 404.5,378C 400.563,380.373 398.563,383.873 398.5,388.5C 397.853,387.726 397.52,386.726 397.5,385.5C 398.172,382.488 398.839,379.488 399.5,376.5C 400.833,376.5 402.167,376.5 403.5,376.5 Z"/></g>
<g><path style="opacity:1" fill="#a88c79" d="M 182.5,367.5 C 186.544,386.298 189.711,405.298 192,424.5C 194.348,432.894 196.848,441.227 199.5,449.5C 196.538,443.803 194.038,437.803 192,431.5C 189.073,413.498 186.073,395.498 183,377.5C 182.392,375.934 181.558,374.6 180.5,373.5C 181.048,371.374 181.715,369.374 182.5,367.5 Z"/></g>
<g><path style="opacity:1" fill="#f6f2ce" d="M 395.5,383.5 C 393.908,399.238 391.741,414.905 389,430.5C 381.15,440.213 374.316,450.546 368.5,461.5C 367.876,461.083 367.543,460.416 367.5,459.5C 372.493,448.107 375.326,436.107 376,423.5C 378.05,413.965 380.716,404.631 384,395.5C 386.305,391.696 388.805,388.03 391.5,384.5C 392.689,383.571 394.022,383.238 395.5,383.5 Z"/></g>
<g><path style="opacity:1" fill="#a78e7d" d="M 94.5,373.5 C 94.8333,373.5 95.1667,373.5 95.5,373.5C 94.164,376.838 92.8307,380.171 91.5,383.5C 84.9667,396.764 82.8,410.764 85,425.5C 85.5662,427.723 86.3995,429.723 87.5,431.5C 87.5,432.5 87.5,433.5 87.5,434.5C 85.1441,431.285 83.6441,427.619 83,423.5C 81.7925,405.664 85.6258,388.997 94.5,373.5 Z"/></g>
<g><path style="opacity:1" fill="#e7923c" d="M 169.5,392.5 C 168.846,417.889 175.346,441.222 189,462.5C 193.295,468.299 197.795,473.966 202.5,479.5C 201.448,479.649 200.448,479.483 199.5,479C 196.278,476.112 192.778,473.612 189,471.5C 188.587,468.768 187.92,466.101 187,463.5C 183.394,455.951 179.561,448.618 175.5,441.5C 175.5,440.5 175.5,439.5 175.5,438.5C 174.5,438.5 173.5,438.5 172.5,438.5C 172.448,435.654 171.448,433.32 169.5,431.5C 165.402,423.631 161.069,415.964 156.5,408.5C 153.745,403.828 151.745,398.828 150.5,393.5C 150.031,389.09 151.031,385.09 153.5,381.5C 155.264,384.177 156.43,383.844 157,380.5C 158.46,382.972 159.46,385.639 160,388.5C 160.471,386.754 161.138,385.087 162,383.5C 162.26,387.25 162.927,390.916 164,394.5C 165.011,393.663 166.178,393.33 167.5,393.5C 167.343,392.127 167.51,390.793 168,389.5C 168.232,390.737 168.732,391.737 169.5,392.5 Z"/></g>
<g><path style="opacity:1" fill="#faf1e0" d="M 180.5,373.5 C 181.558,374.6 182.392,375.934 183,377.5C 186.073,395.498 189.073,413.498 192,431.5C 194.038,437.803 196.538,443.803 199.5,449.5C 202.816,459.467 208.149,468.134 215.5,475.5C 216.087,476.767 216.087,477.767 215.5,478.5C 213.09,476.628 210.423,475.295 207.5,474.5C 201.561,469.327 197.061,462.994 194,455.5C 189.559,442.009 185.059,428.676 180.5,415.5C 180.666,406.827 180.5,398.16 180,389.5C 179.667,394.167 179.333,398.833 179,403.5C 178.758,399.57 177.925,395.903 176.5,392.5C 176.351,389.393 176.851,386.393 178,383.5C 178.333,384.5 178.667,385.5 179,386.5C 179.292,382.118 179.792,377.785 180.5,373.5 Z"/></g>
<g><path style="opacity:1" fill="#f3e8a6" d="M 408.5,379.5 C 410.912,379.694 411.912,381.027 411.5,383.5C 412.5,383.5 413.5,383.5 414.5,383.5C 415.092,386.127 415.425,388.794 415.5,391.5C 417.493,398.591 417.826,405.757 416.5,413C 416.316,414.376 415.649,415.209 414.5,415.5C 414.666,407.826 414.5,400.159 414,392.5C 413.613,389.401 412.446,386.734 410.5,384.5C 410.107,382.716 409.441,381.05 408.5,379.5 Z"/></g>
<g><path style="opacity:1" fill="#895427" d="M 403.5,376.5 C 405.411,377.075 407.078,378.075 408.5,379.5C 409.441,381.05 410.107,382.716 410.5,384.5C 409.28,386.284 409.28,387.95 410.5,389.5C 411.218,400.813 411.718,412.146 412,423.5C 412.083,421.494 412.583,420.494 413.5,420.5C 413.094,426.863 412.427,433.197 411.5,439.5C 410.833,430.833 410.167,422.167 409.5,413.5C 408.633,402.561 406.467,391.894 403,381.5C 403.618,389.318 403.451,396.985 402.5,404.5C 402.083,400.165 401.583,395.832 401,391.5C 400.667,392.833 400.333,394.167 400,395.5C 399.667,394.833 399.333,394.167 399,393.5C 397.89,406.143 397.39,418.81 397.5,431.5C 397.672,432.492 397.338,433.158 396.5,433.5C 396.768,431.901 396.434,430.568 395.5,429.5C 395.167,428.833 394.833,428.167 394.5,427.5C 396.278,415.859 397.278,403.859 397.5,391.5C 398.404,390.791 398.737,389.791 398.5,388.5C 398.563,383.873 400.563,380.373 404.5,378C 403.944,377.617 403.611,377.117 403.5,376.5 Z"/></g>
<g><path style="opacity:1" fill="#debe79" d="M 414.5,418.5 C 414.672,419.492 414.338,420.158 413.5,420.5C 412.583,420.494 412.083,421.494 412,423.5C 411.718,412.146 411.218,400.813 410.5,389.5C 412.057,391.231 412.89,393.897 413,397.5C 413.171,404.679 413.671,411.679 414.5,418.5 Z"/></g>
<g><path style="opacity:1" fill="#f0bc58" d="M 152.5,372.5 C 151.5,377.834 150.5,383.167 149.5,388.5C 149.507,390.369 149.84,392.036 150.5,393.5C 151.745,398.828 153.745,403.828 156.5,408.5C 156.5,409.5 156.5,410.5 156.5,411.5C 154.876,411.64 153.71,410.973 153,409.5C 152.092,411.439 150.592,412.439 148.5,412.5C 148.649,411.448 148.483,410.448 148,409.5C 146,408.833 144.667,407.5 144,405.5C 142.481,411.444 142.315,417.444 143.5,423.5C 142.71,422.391 142.21,421.058 142,419.5C 141.5,412.842 141.334,406.175 141.5,399.5C 142.75,392.78 144.75,386.114 147.5,379.5C 148.5,379.5 149.5,379.5 150.5,379.5C 150.171,376.772 150.837,374.438 152.5,372.5 Z"/></g>
<g><path style="opacity:1" fill="#f6e5cd" d="M 174.5,393.5 C 175.117,393.611 175.617,393.944 176,394.5C 176.371,398.764 177.204,402.931 178.5,407C 178.475,408.876 177.809,410.376 176.5,411.5C 173.971,409.927 171.971,407.927 170.5,405.5C 171.642,401.408 172.975,397.408 174.5,393.5 Z"/></g>
<g><path style="opacity:1" fill="#824221" d="M 402.5,404.5 C 402.154,412.601 401.154,420.601 399.5,428.5C 398.833,429.5 398.167,430.5 397.5,431.5C 397.39,418.81 397.89,406.143 399,393.5C 399.333,394.167 399.667,394.833 400,395.5C 400.333,394.167 400.667,392.833 401,391.5C 401.583,395.832 402.083,400.165 402.5,404.5 Z"/></g>
<g><path style="opacity:1" fill="#eed45d" d="M 409.5,413.5 C 409.5,424.833 409.5,436.167 409.5,447.5C 408.1,448.1 407.1,449.1 406.5,450.5C 406.5,446.167 406.5,441.833 406.5,437.5C 404.508,437.328 402.842,437.995 401.5,439.5C 401.331,438.603 400.998,437.603 400.5,436.5C 399.914,436.709 399.414,437.043 399,437.5C 398.956,434.525 399.123,431.525 399.5,428.5C 401.154,420.601 402.154,412.601 402.5,404.5C 403.451,396.985 403.618,389.318 403,381.5C 406.467,391.894 408.633,402.561 409.5,413.5 Z"/></g>
<g><path style="opacity:1" fill="#9a7b67" d="M 180.5,415.5 C 178.29,415.106 176.957,413.773 176.5,411.5C 177.809,410.376 178.475,408.876 178.5,407C 177.204,402.931 176.371,398.764 176,394.5C 175.617,393.944 175.117,393.611 174.5,393.5C 174.842,392.662 175.508,392.328 176.5,392.5C 177.925,395.903 178.758,399.57 179,403.5C 179.333,398.833 179.667,394.167 180,389.5C 180.5,398.16 180.666,406.827 180.5,415.5 Z"/></g>
<g><path style="opacity:1" fill="#faf3e3" d="M 91.5,383.5 C 92.6935,383.97 93.3601,384.97 93.5,386.5C 92.0334,390.736 90.8668,395.069 90,399.5C 89.641,410.357 88.8077,421.024 87.5,431.5C 86.3995,429.723 85.5662,427.723 85,425.5C 82.8,410.764 84.9667,396.764 91.5,383.5 Z"/></g>
<g><path style="opacity:1" fill="#93752e" d="M 410.5,384.5 C 412.446,386.734 413.613,389.401 414,392.5C 414.5,400.159 414.666,407.826 414.5,415.5C 414.5,416.5 414.5,417.5 414.5,418.5C 413.671,411.679 413.171,404.679 413,397.5C 412.89,393.897 412.057,391.231 410.5,389.5C 409.28,387.95 409.28,386.284 410.5,384.5 Z"/></g>
<g><path style="opacity:1" fill="#efad4c" d="M 156.5,408.5 C 161.069,415.964 165.402,423.631 169.5,431.5C 169.824,434.694 168.658,435.694 166,434.5C 165.915,432.915 165.749,431.582 165.5,430.5C 163.528,431.305 162.028,432.639 161,434.5C 160.308,433.975 159.808,433.308 159.5,432.5C 160.853,431.476 161.52,430.143 161.5,428.5C 158.211,427.59 154.878,426.59 151.5,425.5C 152.376,424.749 153.376,424.249 154.5,424C 153.584,423.626 152.75,423.126 152,422.5C 149.853,423.113 147.686,423.779 145.5,424.5C 144.626,426.747 144.292,429.08 144.5,431.5C 143.527,429.052 143.194,426.385 143.5,423.5C 142.315,417.444 142.481,411.444 144,405.5C 144.667,407.5 146,408.833 148,409.5C 148.483,410.448 148.649,411.448 148.5,412.5C 150.592,412.439 152.092,411.439 153,409.5C 153.71,410.973 154.876,411.64 156.5,411.5C 156.5,410.5 156.5,409.5 156.5,408.5 Z"/></g>
<g><path style="opacity:1" fill="#ecd5b2" d="M 397.5,391.5 C 397.278,403.859 396.278,415.859 394.5,427.5C 393.504,427.414 392.671,427.748 392,428.5C 391.833,427.833 391.667,427.167 391.5,426.5C 393.033,413.401 395.033,401.734 397.5,391.5 Z"/></g>
<g><path style="opacity:1" fill="#f5d07b" d="M 104.5,393.5 C 104.295,402.401 105.795,402.734 109,394.5C 109.784,397.76 109.617,400.927 108.5,404C 109.9,407.779 110.733,411.613 111,415.5C 111.333,411.833 111.667,408.167 112,404.5C 117.854,406.146 122.854,408.146 127,410.5C 127.333,415.5 127.667,420.5 128,425.5C 128.17,419.472 128.67,413.472 129.5,407.5C 130.086,407.709 130.586,408.043 131,408.5C 131.06,412.391 132.393,415.725 135,418.5C 135.974,416.122 136.641,416.456 137,419.5C 137.47,417.226 138.47,415.226 140,413.5C 140.174,408.649 140.674,403.982 141.5,399.5C 141.334,406.175 141.5,412.842 142,419.5C 142.21,421.058 142.71,422.391 143.5,423.5C 143.194,426.385 143.527,429.052 144.5,431.5C 145.531,433.961 146.198,436.627 146.5,439.5C 147.031,442.237 147.864,444.904 149,447.5C 149.821,450.554 149.655,453.554 148.5,456.5C 147.522,456.023 146.689,455.357 146,454.5C 145.667,452.5 145.333,450.5 145,448.5C 140.453,446.387 135.286,444.887 129.5,444C 124.219,440.693 118.553,437.86 112.5,435.5C 111.833,433.167 111.167,430.833 110.5,428.5C 108.844,427.008 107.344,425.342 106,423.5C 105.781,424.938 105.281,426.271 104.5,427.5C 104.167,426.833 103.833,426.167 103.5,425.5C 102.986,417.604 102.653,409.604 102.5,401.5C 102.565,398.572 103.232,395.905 104.5,393.5 Z"/></g>
<g><path style="opacity:1" fill="#d9b35c" d="M 409.5,413.5 C 410.167,422.167 410.833,430.833 411.5,439.5C 411.037,442.33 410.371,444.997 409.5,447.5C 409.5,436.167 409.5,424.833 409.5,413.5 Z"/></g>
<g><path style="opacity:1" fill="#eda044" d="M 169.5,431.5 C 171.448,433.32 172.448,435.654 172.5,438.5C 173.5,438.5 174.5,438.5 175.5,438.5C 175.5,439.5 175.5,440.5 175.5,441.5C 175.469,447.964 175.303,454.63 175,461.5C 171.692,463.993 168.192,464.159 164.5,462C 156.793,455.801 150.793,448.301 146.5,439.5C 146.198,436.627 145.531,433.961 144.5,431.5C 144.292,429.08 144.626,426.747 145.5,424.5C 147.686,423.779 149.853,423.113 152,422.5C 152.75,423.126 153.584,423.626 154.5,424C 153.376,424.249 152.376,424.749 151.5,425.5C 154.878,426.59 158.211,427.59 161.5,428.5C 161.52,430.143 160.853,431.476 159.5,432.5C 159.808,433.308 160.308,433.975 161,434.5C 162.028,432.639 163.528,431.305 165.5,430.5C 165.749,431.582 165.915,432.915 166,434.5C 168.658,435.694 169.824,434.694 169.5,431.5 Z"/></g>
<g><path style="opacity:1" fill="#ebcca2" d="M 94.5,417.5 C 95.1667,426.167 95.8333,434.833 96.5,443.5C 94.9826,443.489 93.8159,442.823 93,441.5C 92.8333,437.5 92.6667,433.5 92.5,429.5C 92.5093,425.107 93.176,421.107 94.5,417.5 Z"/></g>
<g><path style="opacity:1" fill="#9f7d5d" d="M 403.5,376.5 C 402.167,376.5 400.833,376.5 399.5,376.5C 398.839,379.488 398.172,382.488 397.5,385.5C 397.52,386.726 397.853,387.726 398.5,388.5C 398.737,389.791 398.404,390.791 397.5,391.5C 395.033,401.734 393.033,413.401 391.5,426.5C 391.667,427.167 391.833,427.833 392,428.5C 392.671,427.748 393.504,427.414 394.5,427.5C 394.833,428.167 395.167,428.833 395.5,429.5C 393.418,429.472 391.584,430.139 390,431.5C 388.78,437.721 386.946,443.721 384.5,449.5C 383.833,449.5 383.167,449.5 382.5,449.5C 384.292,445.411 385.959,441.244 387.5,437C 386.898,435.437 386.065,435.604 385,437.5C 376.962,449.613 370.128,461.947 364.5,474.5C 361.49,477.874 358.49,481.208 355.5,484.5C 346.052,490.077 336.052,495.577 325.5,501C 322.833,503 320.167,505 317.5,507C 318.094,507.464 318.761,507.631 319.5,507.5C 314.39,507.688 309.057,507.688 303.5,507.5C 307.647,506.675 311.981,506.175 316.5,506C 319.379,503.615 322.379,501.448 325.5,499.5C 334.799,494.851 343.799,489.684 352.5,484C 359.33,478.506 364.33,471.673 367.5,463.5C 367.833,462.833 368.167,462.167 368.5,461.5C 374.316,450.546 381.15,440.213 389,430.5C 391.741,414.905 393.908,399.238 395.5,383.5C 396.791,381.051 397.791,378.384 398.5,375.5C 400.439,374.366 402.105,374.7 403.5,376.5 Z"/></g>
<g><path style="opacity:1" fill="#f4eac5" d="M 395.5,429.5 C 396.434,430.568 396.768,431.901 396.5,433.5C 396.5,434.167 396.5,434.833 396.5,435.5C 395.236,439.399 393.903,443.399 392.5,447.5C 391.818,448.243 391.151,448.909 390.5,449.5C 388.761,447.286 386.761,447.286 384.5,449.5C 386.946,443.721 388.78,437.721 390,431.5C 391.584,430.139 393.418,429.472 395.5,429.5 Z"/></g>
<g><path style="opacity:1" fill="#f5ecc6" d="M 415.5,391.5 C 416.79,392.058 417.623,393.058 418,394.5C 418.766,397.58 419.766,400.58 421,403.5C 423.673,422.131 423.673,440.797 421,459.5C 419.235,463.989 418.235,468.655 418,473.5C 414.417,482.114 411.084,490.781 408,499.5C 403.91,505.349 400.077,511.349 396.5,517.5C 392.076,521.915 388.076,526.581 384.5,531.5C 385.302,528.426 386.302,525.426 387.5,522.5C 391.291,514.918 395.125,507.251 399,499.5C 403.93,488.203 407.097,476.369 408.5,464C 408.486,462.615 408.152,461.449 407.5,460.5C 409.063,456.339 409.729,452.005 409.5,447.5C 410.371,444.997 411.037,442.33 411.5,439.5C 412.427,433.197 413.094,426.863 413.5,420.5C 414.338,420.158 414.672,419.492 414.5,418.5C 414.5,417.5 414.5,416.5 414.5,415.5C 415.649,415.209 416.316,414.376 416.5,413C 417.826,405.757 417.493,398.591 415.5,391.5 Z"/></g>
<g><path style="opacity:1" fill="#f0dfba" d="M 382.5,449.5 C 376.267,457.619 370.267,465.952 364.5,474.5C 370.128,461.947 376.962,449.613 385,437.5C 386.065,435.604 386.898,435.437 387.5,437C 385.959,441.244 384.292,445.411 382.5,449.5 Z"/></g>
<g><path style="opacity:1" fill="#8d5a3c" d="M 93.5,405.5 C 93.307,409.566 93.6403,413.566 94.5,417.5C 93.176,421.107 92.5093,425.107 92.5,429.5C 92.6667,433.5 92.8333,437.5 93,441.5C 93.8159,442.823 94.9826,443.489 96.5,443.5C 98.256,444.552 98.9227,446.219 98.5,448.5C 97.8826,448.389 97.3826,448.056 97,447.5C 96.3239,452.871 96.4905,458.204 97.5,463.5C 98.146,467.797 99.646,471.797 102,475.5C 102.494,473.866 102.66,472.199 102.5,470.5C 103.152,471.449 103.486,472.615 103.5,474C 103.079,475.989 102.412,477.823 101.5,479.5C 100.167,477.167 98.8333,474.833 97.5,472.5C 92.9024,462.017 90.4024,451.017 90,439.5C 88.6283,438.09 87.795,436.423 87.5,434.5C 88.1174,434.611 88.6174,434.944 89,435.5C 88.7632,425.1 90.2632,415.1 93.5,405.5 Z"/></g>
<g><path style="opacity:1" fill="#ecc252" d="M 399.5,428.5 C 399.123,431.525 398.956,434.525 399,437.5C 399.414,437.043 399.914,436.709 400.5,436.5C 400.998,437.603 401.331,438.603 401.5,439.5C 402.842,437.995 404.508,437.328 406.5,437.5C 406.5,441.833 406.5,446.167 406.5,450.5C 402.73,458.126 397.897,465.126 392,471.5C 393.225,462.831 394.891,454.164 397,445.5C 397.808,441.973 397.641,438.64 396.5,435.5C 396.5,434.833 396.5,434.167 396.5,433.5C 397.338,433.158 397.672,432.492 397.5,431.5C 398.167,430.5 398.833,429.5 399.5,428.5 Z"/></g>
<g><path style="opacity:1" fill="#a48876" d="M 199.5,449.5 C 204.429,458.426 209.762,467.093 215.5,475.5C 208.149,468.134 202.816,459.467 199.5,449.5 Z"/></g>
<g><path style="opacity:1" fill="#d7b186" d="M 93.5,445.5 C 94.8001,447.223 95.4668,449.39 95.5,452C 95.3333,454.167 95.1667,456.333 95,458.5C 93.7101,454.27 93.2101,449.936 93.5,445.5 Z"/></g>
<g><path style="opacity:1" fill="#eecca1" d="M 98.5,448.5 C 99.4215,454.056 100.422,459.723 101.5,465.5C 100.167,464.833 98.8333,464.167 97.5,463.5C 96.4905,458.204 96.3239,452.871 97,447.5C 97.3826,448.056 97.8826,448.389 98.5,448.5 Z"/></g>
<g><path style="opacity:1" fill="#f3c871" d="M 102.5,401.5 C 102.653,409.604 102.986,417.604 103.5,425.5C 103.833,426.167 104.167,426.833 104.5,427.5C 105.281,426.271 105.781,424.938 106,423.5C 107.344,425.342 108.844,427.008 110.5,428.5C 111.167,430.833 111.833,433.167 112.5,435.5C 118.553,437.86 124.219,440.693 129.5,444C 135.286,444.887 140.453,446.387 145,448.5C 145.333,450.5 145.667,452.5 146,454.5C 146.689,455.357 147.522,456.023 148.5,456.5C 149.655,453.554 149.821,450.554 149,447.5C 147.864,444.904 147.031,442.237 146.5,439.5C 150.793,448.301 156.793,455.801 164.5,462C 168.192,464.159 171.692,463.993 175,461.5C 175.303,454.63 175.469,447.964 175.5,441.5C 179.561,448.618 183.394,455.951 187,463.5C 187.92,466.101 188.587,468.768 189,471.5C 192.778,473.612 196.278,476.112 199.5,479C 200.448,479.483 201.448,479.649 202.5,479.5C 205.13,481.628 207.63,483.961 210,486.5C 210.399,486.272 210.565,485.938 210.5,485.5C 211.74,486.659 213.074,487.659 214.5,488.5C 214.062,488.435 213.728,488.601 213.5,489C 216.355,491.031 219.022,493.197 221.5,495.5C 215.423,495.936 209.423,497.103 203.5,499C 201.859,500.129 200.859,501.629 200.5,503.5C 198.867,504.945 197.034,506.279 195,507.5C 194.125,508.873 193.625,510.373 193.5,512C 196.643,517.123 199.643,522.29 202.5,527.5C 194.56,517.726 185.727,508.726 176,500.5C 175.506,498.866 175.34,497.199 175.5,495.5C 171.052,495.226 168.219,492.892 167,488.5C 163.154,486.498 160.654,483.498 159.5,479.5C 157.801,479.66 156.134,479.494 154.5,479C 149.086,474.577 143.419,470.577 137.5,467C 133.5,466.333 129.5,466.333 125.5,467C 123.383,468.731 121.883,470.898 121,473.5C 120.501,479.157 120.334,484.824 120.5,490.5C 117.568,483 117.068,475.334 119,467.5C 115.024,469.382 112.858,468.048 112.5,463.5C 111.21,465.657 110.376,467.99 110,470.5C 109.586,470.043 109.086,469.709 108.5,469.5C 107.818,470.243 107.151,470.909 106.5,471.5C 99.1937,448.476 97.8604,425.142 102.5,401.5 Z"/></g>
<g><path style="opacity:1" fill="#864829" d="M 194.5,326.5 C 194.167,327.833 193.833,329.167 193.5,330.5C 192.957,330.56 192.624,330.893 192.5,331.5C 193.243,332.182 193.909,332.849 194.5,333.5C 192.322,335.858 190.655,338.525 189.5,341.5C 188.167,342.5 188.167,343.5 189.5,344.5C 186.989,347.698 185.655,351.364 185.5,355.5C 183.584,359.163 182.584,363.163 182.5,367.5C 181.715,369.374 181.048,371.374 180.5,373.5C 179.792,377.785 179.292,382.118 179,386.5C 178.667,385.5 178.333,384.5 178,383.5C 176.851,386.393 176.351,389.393 176.5,392.5C 175.508,392.328 174.842,392.662 174.5,393.5C 172.975,397.408 171.642,401.408 170.5,405.5C 171.971,407.927 173.971,409.927 176.5,411.5C 176.957,413.773 178.29,415.106 180.5,415.5C 185.059,428.676 189.559,442.009 194,455.5C 197.061,462.994 201.561,469.327 207.5,474.5C 205.576,474.711 205.243,475.377 206.5,476.5C 208.105,479.378 209.439,482.378 210.5,485.5C 210.565,485.938 210.399,486.272 210,486.5C 207.63,483.961 205.13,481.628 202.5,479.5C 197.795,473.966 193.295,468.299 189,462.5C 175.346,441.222 168.846,417.889 169.5,392.5C 169.959,381.206 171.959,370.206 175.5,359.5C 179.559,348.787 184.892,338.787 191.5,329.5C 192.167,328.167 193.167,327.167 194.5,326.5 Z"/></g>
<g><path style="opacity:1" fill="#f9e7d3" d="M 97.5,463.5 C 98.8333,464.167 100.167,464.833 101.5,465.5C 102.038,467.117 102.371,468.784 102.5,470.5C 102.66,472.199 102.494,473.866 102,475.5C 99.646,471.797 98.146,467.797 97.5,463.5 Z"/></g>
<g><path style="opacity:1" fill="#f6f0cd" d="M 367.5,463.5 C 364.33,471.673 359.33,478.506 352.5,484C 343.799,489.684 334.799,494.851 325.5,499.5C 326.719,497.364 327.552,495.031 328,492.5C 336.656,481.648 346.822,472.981 358.5,466.5C 358.5,465.5 358.5,464.5 358.5,463.5C 361.5,463.5 364.5,463.5 367.5,463.5 Z"/></g>
<g><path style="opacity:1" fill="#f2d167" d="M 396.5,435.5 C 397.641,438.64 397.808,441.973 397,445.5C 394.891,454.164 393.225,462.831 392,471.5C 397.897,465.126 402.73,458.126 406.5,450.5C 407.1,449.1 408.1,448.1 409.5,447.5C 409.729,452.005 409.063,456.339 407.5,460.5C 406.89,461.391 406.557,462.391 406.5,463.5C 403.007,468.31 400.673,473.643 399.5,479.5C 396.103,480.568 394.103,482.901 393.5,486.5C 392.448,486.351 391.448,486.517 390.5,487C 386.384,493.614 381.384,499.448 375.5,504.5C 374.855,501.453 375.855,499.287 378.5,498C 377.748,497.329 377.414,496.496 377.5,495.5C 379.515,492.162 382.015,489.162 385,486.5C 385.69,483.474 386.857,480.641 388.5,478C 388.333,477.5 388.167,477 388,476.5C 386.242,478.083 384.742,479.75 383.5,481.5C 382.07,481.421 380.736,481.754 379.5,482.5C 377.446,480.806 375.112,479.639 372.5,479C 374.807,476.872 376.474,474.372 377.5,471.5C 382.701,464.643 387.034,457.31 390.5,449.5C 391.151,448.909 391.818,448.243 392.5,447.5C 393.903,443.399 395.236,439.399 396.5,435.5 Z"/></g>
<g><path style="opacity:1" fill="#f7dd92" d="M 202.5,527.5 C 204.678,529.858 206.345,532.525 207.5,535.5C 207.762,537.564 208.929,538.897 211,539.5C 211.49,540.793 211.657,542.127 211.5,543.5C 208.813,543.664 206.146,543.497 203.5,543C 204.38,541.644 204.714,540.144 204.5,538.5C 200.944,538.642 197.61,539.476 194.5,541C 190.833,541.667 187.167,541.667 183.5,541C 177.631,539.125 171.965,536.791 166.5,534C 162.782,529.725 158.949,525.558 155,521.5C 154.936,517.528 153.77,514.028 151.5,511C 152.138,509.293 152.138,507.46 151.5,505.5C 147.382,506.956 144.049,505.789 141.5,502C 139.285,500.956 136.952,500.29 134.5,500C 135.833,499.333 135.833,498.667 134.5,498C 131.943,496.881 129.443,496.715 127,497.5C 127.195,495.874 127.195,494.207 127,492.5C 126.632,493.91 125.799,494.91 124.5,495.5C 123.712,494.23 122.712,493.23 121.5,492.5C 120.662,492.158 120.328,491.492 120.5,490.5C 120.334,484.824 120.501,479.157 121,473.5C 121.883,470.898 123.383,468.731 125.5,467C 129.5,466.333 133.5,466.333 137.5,467C 143.419,470.577 149.086,474.577 154.5,479C 156.134,479.494 157.801,479.66 159.5,479.5C 160.654,483.498 163.154,486.498 167,488.5C 168.219,492.892 171.052,495.226 175.5,495.5C 175.34,497.199 175.506,498.866 176,500.5C 185.727,508.726 194.56,517.726 202.5,527.5 Z"/></g>
<g><path style="opacity:1" fill="#f4e9c7" d="M 97.5,472.5 C 98.8333,474.833 100.167,477.167 101.5,479.5C 101.557,480.609 101.89,481.609 102.5,482.5C 103.9,490.086 104.733,497.753 105,505.5C 105.818,510.451 107.318,515.118 109.5,519.5C 107.604,517.163 106.27,514.496 105.5,511.5C 104.5,511.5 103.5,511.5 102.5,511.5C 99.9789,503.732 97.6456,495.899 95.5,488C 95.5905,482.89 96.2572,477.724 97.5,472.5 Z"/></g>
<g><path style="opacity:1" fill="#f9efde" d="M 234.5,496.5 C 233.127,496.657 231.793,496.49 230.5,496C 225.3,493.211 219.966,490.711 214.5,488.5C 213.074,487.659 211.74,486.659 210.5,485.5C 209.439,482.378 208.105,479.378 206.5,476.5C 217.551,480.089 226.884,486.756 234.5,496.5 Z"/></g>
<g><path style="opacity:1" fill="#a17d69" d="M 207.5,474.5 C 210.423,475.295 213.09,476.628 215.5,478.5C 216.087,477.767 216.087,476.767 215.5,475.5C 223.583,483.374 232.25,490.541 241.5,497C 244.365,497.183 247.031,497.683 249.5,498.5C 247.585,498.216 245.919,498.549 244.5,499.5C 241.247,501.27 238.914,500.436 237.5,497C 236.552,496.517 235.552,496.351 234.5,496.5C 226.884,486.756 217.551,480.089 206.5,476.5C 205.243,475.377 205.576,474.711 207.5,474.5 Z"/></g>
<g><path style="opacity:1" fill="#e69d3e" d="M 377.5,495.5 C 373.187,499.478 368.854,503.478 364.5,507.5C 363.604,508.506 362.938,508.506 362.5,507.5C 369.485,498.845 376.485,490.179 383.5,481.5C 384.742,479.75 386.242,478.083 388,476.5C 388.167,477 388.333,477.5 388.5,478C 386.857,480.641 385.69,483.474 385,486.5C 382.015,489.162 379.515,492.162 377.5,495.5 Z"/></g>
<g><path style="opacity:1" fill="#efba56" d="M 377.5,471.5 C 376.474,474.372 374.807,476.872 372.5,479C 375.112,479.639 377.446,480.806 379.5,482.5C 380.736,481.754 382.07,481.421 383.5,481.5C 376.485,490.179 369.485,498.845 362.5,507.5C 362.938,508.506 363.604,508.506 364.5,507.5C 368.854,503.478 373.187,499.478 377.5,495.5C 377.414,496.496 377.748,497.329 378.5,498C 375.855,499.287 374.855,501.453 375.5,504.5C 372.851,507.497 370.184,510.497 367.5,513.5C 364.518,515.474 361.518,517.474 358.5,519.5C 358.5,518.5 358.5,517.5 358.5,516.5C 360.103,516.688 361.437,516.188 362.5,515C 360.222,510.494 356.556,507.661 351.5,506.5C 350.294,504.851 348.961,503.351 347.5,502C 347.833,501.667 348.167,501.333 348.5,501C 346.613,501.423 344.613,501.256 342.5,500.5C 355.649,492.69 367.316,483.023 377.5,471.5 Z"/></g>
<g><path style="opacity:1" fill="#f2e0ba" d="M 117.5,509.5 C 118.167,512.5 118.833,515.5 119.5,518.5C 111.403,511.646 107.736,502.98 108.5,492.5C 110.483,493.982 112.316,495.649 114,497.5C 114.569,501.795 115.736,505.795 117.5,509.5 Z"/></g>
<g><path style="opacity:1" fill="#f2ddb6" d="M 355.5,484.5 C 352.002,488.831 348.002,492.664 343.5,496C 335.352,499.574 327.352,503.408 319.5,507.5C 318.761,507.631 318.094,507.464 317.5,507C 320.167,505 322.833,503 325.5,501C 336.052,495.577 346.052,490.077 355.5,484.5 Z"/></g>
<g><path style="opacity:1" fill="#edac4b" d="M 342.5,500.5 C 344.613,501.256 346.613,501.423 348.5,501C 348.167,501.333 347.833,501.667 347.5,502C 348.961,503.351 350.294,504.851 351.5,506.5C 356.556,507.661 360.222,510.494 362.5,515C 361.437,516.188 360.103,516.688 358.5,516.5C 358.5,517.5 358.5,518.5 358.5,519.5C 348.25,526.305 336.917,530.638 324.5,532.5C 322.833,532.5 321.167,532.5 319.5,532.5C 322.046,532.018 324.379,531.018 326.5,529.5C 324.294,526.824 322.627,523.824 321.5,520.5C 316.145,516.824 310.145,514.991 303.5,515C 308.844,513.398 314.177,512.898 319.5,513.5C 319.5,512.5 319.5,511.5 319.5,510.5C 327.188,507.321 334.855,503.988 342.5,500.5 Z"/></g>
<g><path style="opacity:1" fill="#eda547" d="M 221.5,495.5 C 225.483,497.806 229.483,500.139 233.5,502.5C 250.594,519.377 271.26,529.377 295.5,532.5C 301.31,533.49 307.31,533.823 313.5,533.5C 313.611,534.117 313.944,534.617 314.5,535C 302.67,542.653 289.67,545.487 275.5,543.5C 274.167,542.833 272.833,542.167 271.5,541.5C 273.369,540.835 275.369,540.169 277.5,539.5C 259.546,530.697 241.213,522.03 222.5,513.5C 221.833,514.167 221.167,514.833 220.5,515.5C 218.587,514.627 216.753,513.627 215,512.5C 214.667,512.833 214.333,513.167 214,513.5C 211.632,511.726 209.132,510.059 206.5,508.5C 206.167,509 205.833,509.5 205.5,510C 206.32,511.8 206.986,513.634 207.5,515.5C 203.398,512.515 201.064,508.515 200.5,503.5C 200.859,501.629 201.859,500.129 203.5,499C 209.423,497.103 215.423,495.936 221.5,495.5 Z"/></g>
<g><path style="opacity:1" fill="#854727" d="M 390.5,449.5 C 387.034,457.31 382.701,464.643 377.5,471.5C 367.316,483.023 355.649,492.69 342.5,500.5C 334.855,503.988 327.188,507.321 319.5,510.5C 312.162,511.556 304.828,512.723 297.5,514C 288.84,514.5 280.173,514.666 271.5,514.5C 258.458,511.932 245.791,507.932 233.5,502.5C 229.483,500.139 225.483,497.806 221.5,495.5C 219.022,493.197 216.355,491.031 213.5,489C 213.728,488.601 214.062,488.435 214.5,488.5C 219.966,490.711 225.3,493.211 230.5,496C 231.793,496.49 233.127,496.657 234.5,496.5C 235.552,496.351 236.552,496.517 237.5,497C 238.914,500.436 241.247,501.27 244.5,499.5C 252.929,501.982 261.596,504.149 270.5,506C 278.422,507.632 286.422,508.465 294.5,508.5C 295.167,508.167 295.833,507.833 296.5,507.5C 298.833,507.5 301.167,507.5 303.5,507.5C 309.057,507.688 314.39,507.688 319.5,507.5C 327.352,503.408 335.352,499.574 343.5,496C 348.002,492.664 352.002,488.831 355.5,484.5C 358.49,481.208 361.49,477.874 364.5,474.5C 370.267,465.952 376.267,457.619 382.5,449.5C 383.167,449.5 383.833,449.5 384.5,449.5C 386.761,447.286 388.761,447.286 390.5,449.5 Z"/></g>
<g><path style="opacity:1" fill="#f2e2d0" d="M 249.5,498.5 C 258.63,500.322 267.964,501.822 277.5,503C 283.508,504.171 289.175,506.004 294.5,508.5C 286.422,508.465 278.422,507.632 270.5,506C 261.596,504.149 252.929,501.982 244.5,499.5C 245.919,498.549 247.585,498.216 249.5,498.5 Z"/></g>
<g><path style="opacity:1" fill="#a58b78" d="M 249.5,498.5 C 265.824,498.828 281.49,501.828 296.5,507.5C 295.833,507.833 295.167,508.167 294.5,508.5C 289.175,506.004 283.508,504.171 277.5,503C 267.964,501.822 258.63,500.322 249.5,498.5 Z"/></g>
<g><path style="opacity:1" fill="#e8983d" d="M 319.5,510.5 C 319.5,511.5 319.5,512.5 319.5,513.5C 314.177,512.898 308.844,513.398 303.5,515C 310.145,514.991 316.145,516.824 321.5,520.5C 322.627,523.824 324.294,526.824 326.5,529.5C 324.379,531.018 322.046,532.018 319.5,532.5C 317.735,533.461 315.735,533.795 313.5,533.5C 307.31,533.823 301.31,533.49 295.5,532.5C 300.179,532.666 304.845,532.499 309.5,532C 309.167,531.667 308.833,531.333 308.5,531C 300.701,527.552 292.701,524.552 284.5,522C 280.495,518.805 276.161,516.305 271.5,514.5C 280.173,514.666 288.84,514.5 297.5,514C 304.828,512.723 312.162,511.556 319.5,510.5 Z"/></g>
<g><path style="opacity:1" fill="#fae8a5" d="M 155.5,505.5 C 158.874,505.674 162.207,506.174 165.5,507C 168.782,508.826 172.116,510.326 175.5,511.5C 179.32,516.461 182.653,521.794 185.5,527.5C 189.906,527.748 194.24,528.415 198.5,529.5C 199.038,534.987 196.705,537.153 191.5,536C 180.736,530.967 170.069,525.967 159.5,521C 155.922,516.49 154.588,511.324 155.5,505.5 Z"/></g>
<g><path style="opacity:1" fill="#f5d584" d="M 406.5,463.5 C 400.639,491.228 387.972,515.228 368.5,535.5C 366.856,535.286 365.356,535.62 364,536.5C 359.98,532.979 355.813,529.646 351.5,526.5C 354.655,525.85 357.155,524.183 359,521.5C 360.84,522.833 361.34,522.666 360.5,521C 362.982,518.683 365.316,516.183 367.5,513.5C 370.184,510.497 372.851,507.497 375.5,504.5C 381.384,499.448 386.384,493.614 390.5,487C 391.448,486.517 392.448,486.351 393.5,486.5C 394.103,482.901 396.103,480.568 399.5,479.5C 400.673,473.643 403.007,468.31 406.5,463.5 Z"/></g>
<g><path style="opacity:1" fill="#e88836" d="M 233.5,502.5 C 245.791,507.932 258.458,511.932 271.5,514.5C 276.161,516.305 280.495,518.805 284.5,522C 292.701,524.552 300.701,527.552 308.5,531C 308.833,531.333 309.167,531.667 309.5,532C 304.845,532.499 300.179,532.666 295.5,532.5C 271.26,529.377 250.594,519.377 233.5,502.5 Z"/></g>
<g><path style="opacity:1" fill="#f6d57d" d="M 121.5,492.5 C 122.712,493.23 123.712,494.23 124.5,495.5C 125.799,494.91 126.632,493.91 127,492.5C 127.195,494.207 127.195,495.874 127,497.5C 129.443,496.715 131.943,496.881 134.5,498C 135.833,498.667 135.833,499.333 134.5,500C 136.952,500.29 139.285,500.956 141.5,502C 144.049,505.789 147.382,506.956 151.5,505.5C 152.138,507.46 152.138,509.293 151.5,511C 153.77,514.028 154.936,517.528 155,521.5C 158.949,525.558 162.782,529.725 166.5,534C 171.965,536.791 177.631,539.125 183.5,541C 187.167,541.667 190.833,541.667 194.5,541C 197.61,539.476 200.944,538.642 204.5,538.5C 204.714,540.144 204.38,541.644 203.5,543C 206.146,543.497 208.813,543.664 211.5,543.5C 211.657,542.127 211.49,540.793 211,539.5C 208.929,538.897 207.762,537.564 207.5,535.5C 210.394,536.882 212.894,538.882 215,541.5C 220.031,547.858 225.031,554.191 230,560.5C 230.495,562.473 230.662,564.473 230.5,566.5C 229.5,566.5 228.5,566.5 227.5,566.5C 226.167,566.5 224.833,566.5 223.5,566.5C 223.5,565.5 223.5,564.5 223.5,563.5C 220.245,563.986 217.578,562.986 215.5,560.5C 209.007,559.253 203.34,556.42 198.5,552C 192.749,549.559 186.749,547.726 180.5,546.5C 180.688,544.897 180.188,543.563 179,542.5C 177.274,543.576 175.441,543.743 173.5,543C 173.957,542.586 174.291,542.086 174.5,541.5C 171.783,541.001 169.449,539.835 167.5,538C 161.552,537.183 155.885,535.683 150.5,533.5C 150.127,530.151 148.46,529.151 145.5,530.5C 133.047,520.7 125.047,508.034 121.5,492.5 Z"/></g>
<g><path style="opacity:1" fill="#f2bf65" d="M 200.5,503.5 C 201.064,508.515 203.398,512.515 207.5,515.5C 209.101,517.853 211.101,520.02 213.5,522C 231.246,533.193 250.579,539.693 271.5,541.5C 272.833,542.167 274.167,542.833 275.5,543.5C 274.167,543.5 272.833,543.5 271.5,543.5C 271.238,544.978 271.571,546.311 272.5,547.5C 278.902,550.874 285.568,553.374 292.5,555C 294.555,555.687 296.221,556.854 297.5,558.5C 299.396,559.466 301.396,559.799 303.5,559.5C 303.5,560.833 303.5,562.167 303.5,563.5C 309.464,565.092 315.464,566.759 321.5,568.5C 323.179,566.896 325.179,566.229 327.5,566.5C 311.759,575.361 294.759,580.694 276.5,582.5C 276.389,581.883 276.056,581.383 275.5,581C 269.759,580.076 264.093,578.909 258.5,577.5C 255.933,578.838 253.266,579.338 250.5,579C 249.167,578.333 249.167,577.667 250.5,577C 252.167,576.667 253.833,576.333 255.5,576C 249.86,575.263 244.527,573.763 239.5,571.5C 239.9,568.239 238.733,567.572 236,569.5C 234.635,569.156 233.468,568.489 232.5,567.5C 224.097,569.58 215.763,569.914 207.5,568.5C 212.844,568.666 218.177,568.499 223.5,568C 225.058,567.79 226.391,567.29 227.5,566.5C 228.5,566.5 229.5,566.5 230.5,566.5C 230.662,564.473 230.495,562.473 230,560.5C 225.031,554.191 220.031,547.858 215,541.5C 212.894,538.882 210.394,536.882 207.5,535.5C 206.345,532.525 204.678,529.858 202.5,527.5C 199.643,522.29 196.643,517.123 193.5,512C 193.625,510.373 194.125,508.873 195,507.5C 197.034,506.279 198.867,504.945 200.5,503.5 Z"/></g>
<g><path style="opacity:1" fill="#eed3aa" d="M 119.5,520.5 C 120.5,521.833 121.5,523.167 122.5,524.5C 125.062,529.623 127.562,534.623 130,539.5C 119.179,530.831 111.679,519.831 107.5,506.5C 107.667,505.833 107.833,505.167 108,504.5C 110.534,510.852 114.368,516.186 119.5,520.5 Z"/></g>
<g><path style="opacity:1" fill="#f5d072" d="M 227.5,566.5 C 226.391,567.29 225.058,567.79 223.5,568C 218.177,568.499 212.844,568.666 207.5,568.5C 202.176,567.197 196.843,565.697 191.5,564C 185.858,561.293 180.525,558.126 175.5,554.5C 173.138,553.729 170.804,552.895 168.5,552C 159.841,545.798 152.175,538.632 145.5,530.5C 148.46,529.151 150.127,530.151 150.5,533.5C 155.885,535.683 161.552,537.183 167.5,538C 169.449,539.835 171.783,541.001 174.5,541.5C 174.291,542.086 173.957,542.586 173.5,543C 175.441,543.743 177.274,543.576 179,542.5C 180.188,543.563 180.688,544.897 180.5,546.5C 186.749,547.726 192.749,549.559 198.5,552C 203.34,556.42 209.007,559.253 215.5,560.5C 217.578,562.986 220.245,563.986 223.5,563.5C 223.5,564.5 223.5,565.5 223.5,566.5C 224.833,566.5 226.167,566.5 227.5,566.5 Z"/></g>
<g><path style="opacity:1" fill="#eb973e" d="M 271.5,541.5 C 250.579,539.693 231.246,533.193 213.5,522C 211.101,520.02 209.101,517.853 207.5,515.5C 206.986,513.634 206.32,511.8 205.5,510C 205.833,509.5 206.167,509 206.5,508.5C 209.132,510.059 211.632,511.726 214,513.5C 214.333,513.167 214.667,512.833 215,512.5C 216.753,513.627 218.587,514.627 220.5,515.5C 221.167,514.833 221.833,514.167 222.5,513.5C 241.213,522.03 259.546,530.697 277.5,539.5C 275.369,540.169 273.369,540.835 271.5,541.5 Z"/></g>
<g><path style="opacity:1" fill="#8f5c39" d="M 102.5,482.5 C 103.434,483.568 103.768,484.901 103.5,486.5C 104.833,486.5 106.167,486.5 107.5,486.5C 107.337,490.035 108.67,491.035 111.5,489.5C 113.957,492.751 115.624,496.418 116.5,500.5C 116.704,503.518 117.037,506.518 117.5,509.5C 115.736,505.795 114.569,501.795 114,497.5C 112.316,495.649 110.483,493.982 108.5,492.5C 107.736,502.98 111.403,511.646 119.5,518.5C 119.5,519.167 119.5,519.833 119.5,520.5C 114.368,516.186 110.534,510.852 108,504.5C 107.833,505.167 107.667,505.833 107.5,506.5C 111.679,519.831 119.179,530.831 130,539.5C 127.562,534.623 125.062,529.623 122.5,524.5C 123.492,524.328 124.158,524.662 124.5,525.5C 127.607,532.206 131.607,538.373 136.5,544C 141.288,546.729 146.288,548.896 151.5,550.5C 151.5,551.167 151.5,551.833 151.5,552.5C 147.908,552.302 144.574,551.302 141.5,549.5C 140.652,548.375 139.652,548.375 138.5,549.5C 135.399,546.067 131.732,543.4 127.5,541.5C 121.011,534.495 115.011,527.161 109.5,519.5C 107.318,515.118 105.818,510.451 105,505.5C 104.733,497.753 103.9,490.086 102.5,482.5 Z"/></g>
<g><path style="opacity:1" fill="#ead0a7" d="M 384.5,523.5 C 382.818,532.777 377.818,540.277 369.5,546C 368.241,546.982 366.908,547.315 365.5,547C 369.416,543.59 372.749,539.757 375.5,535.5C 377.731,530.934 380.731,526.934 384.5,523.5 Z"/></g>
<g><path style="opacity:1" fill="#eccca2" d="M 124.5,525.5 C 132.43,535.263 141.763,543.43 152.5,550C 152.272,550.399 151.938,550.565 151.5,550.5C 146.288,548.896 141.288,546.729 136.5,544C 131.607,538.373 127.607,532.206 124.5,525.5 Z"/></g>
<g><path style="opacity:1" fill="#f3c56d" d="M 319.5,532.5 C 321.167,532.5 322.833,532.5 324.5,532.5C 321.908,534.177 318.908,535.343 315.5,536C 313.072,539.05 310.072,541.383 306.5,543C 311.622,543.88 316.289,545.88 320.5,549C 325.167,550.667 329.833,552.333 334.5,554C 335.211,555.255 336.044,556.421 337,557.5C 337.779,556.272 338.779,555.272 340,554.5C 343.626,553.79 347.126,552.79 350.5,551.5C 343.666,557.647 336,562.647 327.5,566.5C 325.179,566.229 323.179,566.896 321.5,568.5C 315.464,566.759 309.464,565.092 303.5,563.5C 303.5,562.167 303.5,560.833 303.5,559.5C 301.396,559.799 299.396,559.466 297.5,558.5C 296.221,556.854 294.555,555.687 292.5,555C 285.568,553.374 278.902,550.874 272.5,547.5C 271.571,546.311 271.238,544.978 271.5,543.5C 272.833,543.5 274.167,543.5 275.5,543.5C 289.67,545.487 302.67,542.653 314.5,535C 313.944,534.617 313.611,534.117 313.5,533.5C 315.735,533.795 317.735,533.461 319.5,532.5 Z"/></g>
<g><path style="opacity:1" fill="#f4cb74" d="M 367.5,513.5 C 365.316,516.183 362.982,518.683 360.5,521C 361.34,522.666 360.84,522.833 359,521.5C 357.155,524.183 354.655,525.85 351.5,526.5C 355.813,529.646 359.98,532.979 364,536.5C 365.356,535.62 366.856,535.286 368.5,535.5C 362.917,541.293 356.917,546.627 350.5,551.5C 347.126,552.79 343.626,553.79 340,554.5C 338.779,555.272 337.779,556.272 337,557.5C 336.044,556.421 335.211,555.255 334.5,554C 329.833,552.333 325.167,550.667 320.5,549C 316.289,545.88 311.622,543.88 306.5,543C 310.072,541.383 313.072,539.05 315.5,536C 318.908,535.343 321.908,534.177 324.5,532.5C 336.917,530.638 348.25,526.305 358.5,519.5C 361.518,517.474 364.518,515.474 367.5,513.5 Z"/></g>
<g><path style="opacity:1" fill="#ecd4b0" d="M 127.5,541.5 C 131.732,543.4 135.399,546.067 138.5,549.5C 138.5,549.833 138.5,550.167 138.5,550.5C 136.002,549.088 133.336,547.921 130.5,547C 128.826,545.494 127.826,543.661 127.5,541.5 Z"/></g>
<g><path style="opacity:1" fill="#9d7755" d="M 384.5,523.5 C 385.209,522.596 386.209,522.263 387.5,522.5C 386.302,525.426 385.302,528.426 384.5,531.5C 380.14,539.526 373.806,545.526 365.5,549.5C 358.861,553.489 352.194,557.489 345.5,561.5C 344.375,560.348 344.375,559.348 345.5,558.5C 346.721,559.465 348.054,559.298 349.5,558C 351.618,556.951 353.284,555.451 354.5,553.5C 353.494,552.604 353.494,551.938 354.5,551.5C 356.564,551.313 358.564,550.813 360.5,550C 365.201,545.634 369.534,540.967 373.5,536C 373.272,535.601 372.938,535.435 372.5,535.5C 373.348,534.375 374.348,534.375 375.5,535.5C 372.749,539.757 369.416,543.59 365.5,547C 366.908,547.315 368.241,546.982 369.5,546C 377.818,540.277 382.818,532.777 384.5,523.5 Z"/></g>
<g><path style="opacity:1" fill="#e9c9a0" d="M 372.5,535.5 C 372.938,535.435 373.272,535.601 373.5,536C 369.534,540.967 365.201,545.634 360.5,550C 358.564,550.813 356.564,551.313 354.5,551.5C 360.177,545.824 366.177,540.491 372.5,535.5 Z"/></g>
<g><path style="opacity:1" fill="#f0d5a9" d="M 141.5,549.5 C 144.574,551.302 147.908,552.302 151.5,552.5C 159.29,555.088 165.957,559.588 171.5,566C 174.691,568.426 178.025,570.593 181.5,572.5C 179.712,573.622 177.712,573.789 175.5,573C 169.786,571.491 164.452,569.325 159.5,566.5C 160.239,566.631 160.906,566.464 161.5,566C 160.009,563.903 159.009,561.57 158.5,559C 153.958,557.184 149.292,555.684 144.5,554.5C 143.067,553.167 141.733,551.667 140.5,550C 140.728,549.601 141.062,549.435 141.5,549.5 Z"/></g>
<g><path style="opacity:1" fill="#e4b897" d="M 354.5,553.5 C 353.284,555.451 351.618,556.951 349.5,558C 348.054,559.298 346.721,559.465 345.5,558.5C 347.779,555.558 350.779,553.891 354.5,553.5 Z"/></g>
<g><path style="opacity:1" fill="#eed4ac" d="M 365.5,549.5 C 362.882,553.11 359.548,556.11 355.5,558.5C 349.414,561.872 343.414,565.205 337.5,568.5C 339.549,565.45 342.216,563.117 345.5,561.5C 352.194,557.489 358.861,553.489 365.5,549.5 Z"/></g>
<g><path style="opacity:1" fill="#a28574" d="M 141.5,549.5 C 141.062,549.435 140.728,549.601 140.5,550C 141.733,551.667 143.067,553.167 144.5,554.5C 148.233,559.236 152.566,563.236 157.5,566.5C 154.91,565.872 152.577,564.705 150.5,563C 146.269,558.938 142.269,554.771 138.5,550.5C 138.5,550.167 138.5,549.833 138.5,549.5C 139.652,548.375 140.652,548.375 141.5,549.5 Z"/></g>
<g><path style="opacity:1" fill="#faf1dc" d="M 144.5,554.5 C 149.292,555.684 153.958,557.184 158.5,559C 159.009,561.57 160.009,563.903 161.5,566C 160.906,566.464 160.239,566.631 159.5,566.5C 158.833,566.5 158.167,566.5 157.5,566.5C 152.566,563.236 148.233,559.236 144.5,554.5 Z"/></g>
<g><path style="opacity:1" fill="#eeb75e" d="M 120.5,490.5 C 120.328,491.492 120.662,492.158 121.5,492.5C 125.047,508.034 133.047,520.7 145.5,530.5C 152.175,538.632 159.841,545.798 168.5,552C 170.804,552.895 173.138,553.729 175.5,554.5C 180.525,558.126 185.858,561.293 191.5,564C 196.843,565.697 202.176,567.197 207.5,568.5C 215.763,569.914 224.097,569.58 232.5,567.5C 233.468,568.489 234.635,569.156 236,569.5C 238.733,567.572 239.9,568.239 239.5,571.5C 244.527,573.763 249.86,575.263 255.5,576C 253.833,576.333 252.167,576.667 250.5,577C 249.167,577.667 249.167,578.333 250.5,579C 253.266,579.338 255.933,578.838 258.5,577.5C 264.093,578.909 269.759,580.076 275.5,581C 276.056,581.383 276.389,581.883 276.5,582.5C 269.665,583.793 263.998,584.793 259.5,585.5C 254.833,586.833 250.167,586.833 245.5,585.5C 246.552,585.649 247.552,585.483 248.5,585C 190.44,580.718 146.44,552.551 116.5,500.5C 115.624,496.418 113.957,492.751 111.5,489.5C 109.254,483.67 107.587,477.67 106.5,471.5C 107.151,470.909 107.818,470.243 108.5,469.5C 109.086,469.709 109.586,470.043 110,470.5C 110.376,467.99 111.21,465.657 112.5,463.5C 112.858,468.048 115.024,469.382 119,467.5C 117.068,475.334 117.568,483 120.5,490.5 Z"/></g>
<g><path style="opacity:1" fill="#a27a57" d="M 157.5,566.5 C 158.167,566.5 158.833,566.5 159.5,566.5C 164.452,569.325 169.786,571.491 175.5,573C 177.712,573.789 179.712,573.622 181.5,572.5C 182.625,573.348 182.625,574.348 181.5,575.5C 177.127,574.657 172.793,573.657 168.5,572.5C 164.358,571.242 160.692,569.242 157.5,566.5 Z"/></g>
<g><path style="opacity:1" fill="#884c2b" d="M 407.5,460.5 C 408.152,461.449 408.486,462.615 408.5,464C 407.097,476.369 403.93,488.203 399,499.5C 395.125,507.251 391.291,514.918 387.5,522.5C 386.209,522.263 385.209,522.596 384.5,523.5C 380.731,526.934 377.731,530.934 375.5,535.5C 374.348,534.375 373.348,534.375 372.5,535.5C 366.177,540.491 360.177,545.824 354.5,551.5C 353.494,551.938 353.494,552.604 354.5,553.5C 350.779,553.891 347.779,555.558 345.5,558.5C 344.375,559.348 344.375,560.348 345.5,561.5C 342.216,563.117 339.549,565.45 337.5,568.5C 323.962,582.632 307.296,589.465 287.5,589C 282.525,591.936 277.192,593.769 271.5,594.5C 275.61,592.399 279.944,590.566 284.5,589C 277.5,588.423 270.5,587.923 263.5,587.5C 262.167,586.833 260.833,586.167 259.5,585.5C 263.998,584.793 269.665,583.793 276.5,582.5C 294.759,580.694 311.759,575.361 327.5,566.5C 336,562.647 343.666,557.647 350.5,551.5C 356.917,546.627 362.917,541.293 368.5,535.5C 387.972,515.228 400.639,491.228 406.5,463.5C 406.557,462.391 406.89,461.391 407.5,460.5 Z"/></g>
<g><path style="opacity:1" fill="#efd1a0" d="M 168.5,572.5 C 172.793,573.657 177.127,574.657 181.5,575.5C 186.892,576.46 192.226,577.96 197.5,580C 203.646,579.24 208.646,581.074 212.5,585.5C 204.158,584.841 195.824,583.841 187.5,582.5C 181.833,580 176.167,577.5 170.5,575C 169.619,574.292 168.953,573.458 168.5,572.5 Z"/></g>
<g><path style="opacity:1" fill="#8b4e2b" d="M 116.5,500.5 C 146.44,552.551 190.44,580.718 248.5,585C 247.552,585.483 246.552,585.649 245.5,585.5C 243.621,586.341 241.621,586.675 239.5,586.5C 230.376,585.719 221.376,584.552 212.5,583C 213.731,584.405 215.064,585.571 216.5,586.5C 216.167,586.5 215.833,586.5 215.5,586.5C 214.391,586.443 213.391,586.11 212.5,585.5C 208.646,581.074 203.646,579.24 197.5,580C 192.226,577.96 186.892,576.46 181.5,575.5C 182.625,574.348 182.625,573.348 181.5,572.5C 178.025,570.593 174.691,568.426 171.5,566C 165.957,559.588 159.29,555.088 151.5,552.5C 151.5,551.833 151.5,551.167 151.5,550.5C 151.938,550.565 152.272,550.399 152.5,550C 141.763,543.43 132.43,535.263 124.5,525.5C 124.158,524.662 123.492,524.328 122.5,524.5C 121.5,523.167 120.5,521.833 119.5,520.5C 119.5,519.833 119.5,519.167 119.5,518.5C 118.833,515.5 118.167,512.5 117.5,509.5C 117.037,506.518 116.704,503.518 116.5,500.5 Z"/></g>
<g><path style="opacity:1" fill="#ab7c48" d="M 245.5,585.5 C 250.167,586.833 254.833,586.833 259.5,585.5C 260.833,586.167 262.167,586.833 263.5,587.5C 255.45,588.831 247.45,588.497 239.5,586.5C 241.621,586.675 243.621,586.341 245.5,585.5 Z"/></g>
<g><path style="opacity:1" fill="#f0d4a4" d="M 239.5,586.5 C 247.45,588.497 255.45,588.831 263.5,587.5C 270.5,587.923 277.5,588.423 284.5,589C 279.944,590.566 275.61,592.399 271.5,594.5C 269.097,594.448 266.764,594.781 264.5,595.5C 251.305,594.032 238.138,591.698 225,588.5C 223.615,588.514 222.449,588.848 221.5,589.5C 219.999,588.248 218.332,587.248 216.5,586.5C 215.064,585.571 213.731,584.405 212.5,583C 221.376,584.552 230.376,585.719 239.5,586.5 Z"/></g>
<g><path style="opacity:1" fill="#faefdc" d="M 221.5,589.5 C 222.449,588.848 223.615,588.514 225,588.5C 238.138,591.698 251.305,594.032 264.5,595.5C 249.45,598.242 235.117,596.242 221.5,589.5 Z"/></g>
<g><path style="opacity:1" fill="#957863" d="M 215.5,586.5 C 215.833,586.5 216.167,586.5 216.5,586.5C 218.332,587.248 219.999,588.248 221.5,589.5C 235.117,596.242 249.45,598.242 264.5,595.5C 266.764,594.781 269.097,594.448 271.5,594.5C 269.046,595.621 266.379,596.454 263.5,597C 250.468,598.599 237.801,597.266 225.5,593C 221.589,591.556 218.256,589.389 215.5,586.5 Z"/></g>
<g><path style="opacity:1" fill="#b9b6a8" d="M 488.5,28.5 C 489.5,253.333 489.833,478.333 489.5,703.5C 335.999,703.833 182.666,703.5 29.5,702.5C 182.5,702.5 335.5,702.5 488.5,702.5C 488.5,477.833 488.5,253.167 488.5,28.5 Z"/></g>
<g><path style="opacity:1" fill="#e3e3d9" d="M 518.5,728.5 C 518.5,729.5 518.5,730.5 518.5,731.5C 517.833,731.5 517.167,731.5 516.5,731.5C 516.932,730.29 517.599,729.29 518.5,728.5 Z"/></g>
<g><path style="opacity:1" fill="#dbd9d3" d="M -0.5,727.5 C 0.488369,728.795 1.48837,730.128 2.5,731.5C 1.5,731.5 0.5,731.5 -0.5,731.5C -0.5,730.167 -0.5,728.833 -0.5,727.5 Z"/></g>
</svg>
