<?xml version="1.0" encoding="UTF-8"?>
<!-- Author: Jiachun Li -->
<!DOCTYPE svg PUBLIC "-//W3C//DTD SVG 1.1//EN" "http://www.w3.org/Graphics/SVG/1.1/DTD/svg11.dtd">
<svg xmlns="http://www.w3.org/2000/svg" version="1.1" width="518px" height="733px" style="shape-rendering:geometricPrecision; text-rendering:geometricPrecision; image-rendering:optimizeQuality; fill-rule:evenodd; clip-rule:evenodd" xmlns:xlink="http://www.w3.org/1999/xlink">
<g><path style="opacity:1" fill="#e3e3d7" d="M -0.5,-0.5 C 0.5,-0.5 1.5,-0.5 2.5,-0.5C 1.48837,0.871651 0.488369,2.20498 -0.5,3.5C -0.5,2.16667 -0.5,0.833333 -0.5,-0.5 Z"/></g>
<g><path style="opacity:1" fill="#010101" d="M 2.5,-0.5 C 173.5,-0.5 344.5,-0.5 515.5,-0.5C 515.833,0.5 516.5,1.16667 517.5,1.5C 517.5,244.5 517.5,487.5 517.5,730.5C 516.29,730.932 515.29,731.599 514.5,732.5C 344.167,732.5 173.833,732.5 3.5,732.5C 2.13632,730.809 0.802988,729.142 -0.5,727.5C -0.5,486.167 -0.5,244.833 -0.5,3.5C 0.488369,2.20498 1.48837,0.871651 2.5,-0.5 Z"/></g>
<g><path style="opacity:1" fill="#c4c4c2" d="M 515.5,-0.5 C 516.167,-0.5 516.833,-0.5 517.5,-0.5C 517.5,0.166667 517.5,0.833333 517.5,1.5C 516.5,1.16667 515.833,0.5 515.5,-0.5 Z"/></g>
<g><path style="opacity:1" fill="#b9b7ac" d="M 504.5,13.5 C 341.167,13.5 177.833,13.5 14.5,13.5C 14.5,248.5 14.5,483.5 14.5,718.5C 13.5002,483.334 13.1669,248.001 13.5,12.5C 177.334,12.167 341.001,12.5003 504.5,13.5 Z"/></g>
<g><path style="opacity:1" fill="#f5f1e4" d="M 504.5,13.5 C 504.5,248.5 504.5,483.5 504.5,718.5C 341.167,718.5 177.833,718.5 14.5,718.5C 14.5,483.5 14.5,248.5 14.5,13.5C 177.833,13.5 341.167,13.5 504.5,13.5 Z"/></g>
<g><path style="opacity:1" fill="#fcf7e5" d="M 15.5,14.5 C 175.501,14.1667 335.501,14.5 495.5,15.5C 495.08,17.326 495.08,19.326 495.5,21.5C 493.396,21.7989 491.396,21.4656 489.5,20.5C 490.833,19.3801 491.333,18.0468 491,16.5C 487.757,16.3296 484.424,16.6629 481,17.5C 330.821,16.8341 180.654,16.1674 30.5,15.5C 29.6919,15.8076 29.0253,16.3076 28.5,17C 29.8333,18 29.8333,19 28.5,20C 25.6287,20.1177 22.962,20.7844 20.5,22C 21.6589,249.335 21.8256,476.835 21,704.5C 19.6667,705.167 18.3333,705.833 17,706.5C 16.3076,705.975 15.8076,705.308 15.5,704.5C 16.3323,479.873 16.8323,255.206 17,30.5C 17.3333,249.5 17.6667,468.5 18,687.5C 18.6667,468.167 18.6667,248.833 18,29.5C 17.6827,27.6992 17.016,27.3659 16,28.5C 15.5008,23.8452 15.3342,19.1785 15.5,14.5 Z"/></g>
<g><path style="opacity:1" fill="#fdf7e6" d="M 495.5,706.5 C 495.5,705.5 495.5,704.5 495.5,703.5C 496.5,474.334 496.833,245.001 496.5,15.5C 498.167,15.5 499.833,15.5 501.5,15.5C 501.512,249.033 501.512,482.366 501.5,715.5C 499.635,716.666 497.968,716.333 496.5,714.5C 416.307,715.831 335.974,716.497 255.5,716.5C 175.5,716.333 95.5,716.167 15.5,716C 16.8333,715 18.1667,714 19.5,713C 17.7774,712.477 16.444,711.477 15.5,710C 16.4776,708.303 17.6442,707.136 19,706.5C 20.9947,708.177 23.1614,709.677 25.5,711C 21.4829,712.661 21.6496,713.828 26,714.5C 28.477,714.244 30.1437,712.911 31,710.5C 105.624,711.832 180.458,712.498 255.5,712.5C 330.641,712.497 405.641,711.83 480.5,710.5C 484.529,714.167 488.362,714.167 492,710.5C 493.235,711.615 494.402,711.615 495.5,710.5C 496.782,709.042 496.782,707.708 495.5,706.5 Z"/></g>
<g><path style="opacity:1" fill="#0b0a09" d="M 495.5,703.5 C 495.5,704.5 495.5,705.5 495.5,706.5C 495.047,707.458 494.381,708.292 493.5,709C 337.5,709.667 181.5,709.667 25.5,709C 25,708.5 24.5,708 24,707.5C 23.8333,593.5 23.6667,479.5 23.5,365.5C 23.5005,251.264 23.8338,137.097 24.5,23C 180.833,22.3333 337.167,22.3333 493.5,23C 494,23.5 494.5,24 495,24.5C 495.5,250.833 495.667,477.166 495.5,703.5 Z"/></g>
<g><path style="opacity:1" fill="#fbf7ea" d="M 487.5,29.5 C 487.5,253.5 487.5,477.5 487.5,701.5C 335.167,701.5 182.833,701.5 30.5,701.5C 30.5,477.5 30.5,253.5 30.5,29.5C 182.833,29.5 335.167,29.5 487.5,29.5 Z"/></g>
<g><path style="opacity:1" fill="#fcf6e6" d="M 31.5,30.5 C 182.737,30.1676 333.903,30.5009 485,31.5C 485.168,250.54 485.668,469.54 486.5,688.5C 485.833,689.833 485.167,691.167 484.5,692.5C 485.814,694.452 486.48,696.285 486.5,698C 485.391,698.638 484.225,699.138 483,699.5C 332.528,698.502 182.028,698.169 31.5,698.5C 31.5,696.5 31.5,694.5 31.5,692.5C 181.308,691.837 330.975,692.504 480.5,694.5C 483.151,692.585 482.817,691.085 479.5,690C 330.167,689.5 180.834,689.333 31.5,689.5C 31.5,469.833 31.5,250.167 31.5,30.5 Z"/></g>
<g><path style="opacity:1" fill="#a3a099" d="M 487.5,29.5 C 488.5,253.666 488.833,477.999 488.5,702.5C 335.666,702.833 182.999,702.5 30.5,701.5C 182.833,701.5 335.167,701.5 487.5,701.5C 487.5,477.5 487.5,253.5 487.5,29.5 Z"/></g>
<g><path style="opacity:1" fill="#0d0c0a" d="M 124.5,48.5 C 125.873,48.3433 127.207,48.51 128.5,49C 155.739,75.7376 182.406,102.904 208.5,130.5C 182.406,158.096 155.739,185.262 128.5,212C 127.167,212.667 125.833,212.667 124.5,212C 97.2611,185.262 70.5945,158.096 44.5,130.5C 44.6667,129.833 44.8333,129.167 45,128.5C 71.7016,101.965 98.2016,75.2987 124.5,48.5 Z"/></g>
<g><path style="opacity:1" fill="#faf5e5" d="M 152.5,177.5 C 150.577,174.397 148.41,171.397 146,168.5C 145.825,164.789 145.325,161.122 144.5,157.5C 143.34,161.459 143.173,165.459 144,169.5C 146.872,172.037 149.372,174.87 151.5,178C 141.816,178.168 132.149,178.668 122.5,179.5C 122.624,180.107 122.957,180.44 123.5,180.5C 133.172,180.334 142.839,180.5 152.5,181C 144.167,189.333 135.833,197.667 127.5,206C 126.833,206.667 126.167,206.667 125.5,206C 100.319,180.986 75.3195,155.82 50.5,130.5C 75.5,104.833 100.833,79.5 126.5,54.5C 152.167,79.5 177.5,104.833 202.5,130.5C 187.014,146.486 171.347,162.319 155.5,178C 154.423,178.47 153.423,178.303 152.5,177.5 Z"/></g>
<g><path style="opacity:1" fill="#0a0908" d="M 106.5,147.5 C 105.957,147.56 105.624,147.893 105.5,148.5C 113.323,149.82 120.99,149.82 128.5,148.5C 128.334,139.161 128.5,129.827 129,120.5C 132.981,117.687 136.481,114.353 139.5,110.5C 140.499,123.149 140.832,135.816 140.5,148.5C 141.5,148.5 142.5,148.5 143.5,148.5C 144.167,136.833 144.833,125.167 145.5,113.5C 145.5,125.5 145.5,137.5 145.5,149.5C 154.382,148.207 157.715,151.707 155.5,160C 149.109,161.777 147.109,159.611 149.5,153.5C 146.5,153.5 143.5,153.5 140.5,153.5C 140.334,158.511 140.501,163.511 141,168.5C 143.04,170.37 144.873,172.37 146.5,174.5C 138.316,174.826 130.316,174.492 122.5,173.5C 127.772,170.039 129.772,165.039 128.5,158.5C 116.5,158.5 104.5,158.5 92.5,158.5C 104.5,157.833 116.5,157.167 128.5,156.5C 128.5,155.5 128.5,154.5 128.5,153.5C 115.833,153.5 103.167,153.5 90.5,153.5C 92.3014,148.841 94.8014,144.508 98,140.5C 106.689,125.601 111.856,109.601 113.5,92.5C 118.833,92.5 124.167,92.5 129.5,92.5C 124.193,112.449 114.693,130.116 101,145.5C 100.517,146.448 100.351,147.448 100.5,148.5C 103.959,147.564 106.793,145.564 109,142.5C 120.208,128.42 128.541,112.754 134,95.5C 129.315,115.204 120.148,132.537 106.5,147.5 Z"/></g>
<g><path style="opacity:1" fill="#4a4744" d="M 145.5,113.5 C 144.833,125.167 144.167,136.833 143.5,148.5C 143.168,136.482 143.501,124.482 144.5,112.5C 145.107,112.624 145.44,112.957 145.5,113.5 Z"/></g>
<g><path style="opacity:1" fill="#6a675e" d="M 106.5,147.5 C 113.648,148.492 120.981,148.825 128.5,148.5C 120.99,149.82 113.323,149.82 105.5,148.5C 105.624,147.893 105.957,147.56 106.5,147.5 Z"/></g>
<g><path style="opacity:1" fill="#524d41" d="M 160.5,154.5 C 159.373,153.878 158.373,153.045 157.5,152C 159.489,151.481 160.489,152.314 160.5,154.5 Z"/></g>
<g><path style="opacity:1" fill="#5f5b52" d="M 128.5,156.5 C 116.5,157.167 104.5,157.833 92.5,158.5C 91.9569,158.44 91.6236,158.107 91.5,157.5C 103.815,156.501 116.149,156.168 128.5,156.5 Z"/></g>
<g><path style="opacity:1" fill="#4d4a3e" d="M 160.5,154.5 C 162.2,158.073 161.533,161.239 158.5,164C 156.029,164.706 153.695,164.373 151.5,163C 158.304,164.028 161.304,161.194 160.5,154.5 Z"/></g>
<g><path style="opacity:1" fill="#2e2c26" d="M 152.5,177.5 C 143.043,179.157 133.376,180.157 123.5,180.5C 122.957,180.44 122.624,180.107 122.5,179.5C 132.149,178.668 141.816,178.168 151.5,178C 149.372,174.87 146.872,172.037 144,169.5C 143.173,165.459 143.34,161.459 144.5,157.5C 145.325,161.122 145.825,164.789 146,168.5C 148.41,171.397 150.577,174.397 152.5,177.5 Z"/></g>
<g><path style="opacity:1" fill="#545352" d="M 122.5,173.5 C 130.316,174.492 138.316,174.826 146.5,174.5C 138.581,175.653 129.914,175.819 120.5,175C 121.044,174.283 121.711,173.783 122.5,173.5 Z"/></g>
<g><path style="opacity:1" fill="#a78369" d="M 305.5,276.5 C 303.473,276.662 301.473,276.495 299.5,276C 290.656,272.05 281.656,268.883 272.5,266.5C 268.395,264.218 262.729,262.718 255.5,262C 244.5,261.333 233.5,261.333 222.5,262C 216.913,262.751 211.413,263.918 206,265.5C 204.238,265.056 204.405,264.556 206.5,264C 241.144,255.645 274.144,259.811 305.5,276.5 Z"/></g>
<g><path style="opacity:1" fill="#ad8a70" d="M 210.5,271.5 C 210.918,272.222 211.584,272.722 212.5,273C 209.403,275.446 206.069,275.946 202.5,274.5C 204.936,273.129 207.603,272.129 210.5,271.5 Z"/></g>
<g><path style="opacity:1" fill="#95735f" d="M 236.5,265.5 C 233.947,266.255 231.28,266.922 228.5,267.5C 208.976,265.795 190.643,269.961 173.5,280C 166.777,284.357 160.444,289.19 154.5,294.5C 154.167,294.5 153.833,294.5 153.5,294.5C 153.5,294.167 153.5,293.833 153.5,293.5C 167.728,279.886 184.395,270.719 203.5,266C 200.937,266.763 200.937,267.263 203.5,267.5C 214.422,265.753 225.422,265.086 236.5,265.5 Z"/></g>
<g><path style="opacity:1" fill="#f9eedb" d="M 228.5,267.5 C 222.5,268.833 216.5,270.167 210.5,271.5C 207.603,272.129 204.936,273.129 202.5,274.5C 185.516,279.658 169.516,286.992 154.5,296.5C 153.537,296.03 153.537,295.363 154.5,294.5C 160.444,289.19 166.777,284.357 173.5,280C 190.643,269.961 208.976,265.795 228.5,267.5 Z"/></g>
<g><path style="opacity:1" fill="#f5e8d4" d="M 304.5,279.5 C 306.493,278.463 308.493,278.797 310.5,280.5C 311.386,281.325 311.719,282.325 311.5,283.5C 309.265,283.795 307.265,283.461 305.5,282.5C 305.737,281.209 305.404,280.209 304.5,279.5 Z"/></g>
<g><path style="opacity:1" fill="#a78971" d="M 305.5,276.5 C 310.274,278.197 314.94,280.197 319.5,282.5C 318.167,283.167 316.833,283.833 315.5,284.5C 317.527,291.421 314.86,295.088 307.5,295.5C 299.187,297.168 291.187,296.501 283.5,293.5C 284.492,293.672 285.158,293.338 285.5,292.5C 295.135,295.424 304.635,295.09 314,291.5C 314.497,289.19 314.663,286.857 314.5,284.5C 311.763,284.401 309.096,284.735 306.5,285.5C 305.737,284.732 304.737,284.232 303.5,284C 304.044,283.283 304.711,282.783 305.5,282.5C 307.265,283.461 309.265,283.795 311.5,283.5C 311.719,282.325 311.386,281.325 310.5,280.5C 308.493,278.797 306.493,278.463 304.5,279.5C 303.957,279.44 303.624,279.107 303.5,278.5C 304.243,277.818 304.909,277.151 305.5,276.5 Z"/></g>
<g><path style="opacity:1" fill="#85492a" d="M 272.5,266.5 C 281.656,268.883 290.656,272.05 299.5,276C 301.473,276.495 303.473,276.662 305.5,276.5C 304.909,277.151 304.243,277.818 303.5,278.5C 303.624,279.107 303.957,279.44 304.5,279.5C 305.404,280.209 305.737,281.209 305.5,282.5C 304.711,282.783 304.044,283.283 303.5,284C 304.737,284.232 305.737,284.732 306.5,285.5C 301.53,286.353 296.53,287.02 291.5,287.5C 284.038,286.22 276.704,286.22 269.5,287.5C 261.796,288.686 254.463,291.02 247.5,294.5C 245.233,295.423 242.9,296.256 240.5,297C 239.402,297.77 239.402,298.603 240.5,299.5C 235.907,300.064 231.574,301.397 227.5,303.5C 226.022,303.238 224.689,303.571 223.5,304.5C 222.687,305.814 221.687,306.981 220.5,308C 221.449,308.617 222.282,308.451 223,307.5C 223.464,308.094 223.631,308.761 223.5,309.5C 220.437,311.025 217.77,313.025 215.5,315.5C 214.624,315.631 213.957,315.298 213.5,314.5C 214.313,313.186 215.313,312.019 216.5,311C 215.944,310.617 215.611,310.117 215.5,309.5C 217.735,308.613 218.235,307.613 217,306.5C 214.747,307.377 212.581,308.377 210.5,309.5C 210.062,309.565 209.728,309.399 209.5,309C 227.553,294.253 248.22,285.42 271.5,282.5C 280.506,282.666 289.506,282.5 298.5,282C 292.626,280.095 286.626,278.928 280.5,278.5C 276.409,277.105 272.076,276.438 267.5,276.5C 223.432,271.967 184.766,284.301 151.5,313.5C 138.291,324.041 127.624,336.708 119.5,351.5C 116.326,356.516 113.659,361.849 111.5,367.5C 106.822,375.85 103.822,384.85 102.5,394.5C 100.59,401.451 98.9237,408.451 97.5,415.5C 96.7004,420.694 95.8671,426.028 95,431.5C 94.8079,423.244 93.9745,415.078 92.5,407C 92.8767,402.486 93.3767,397.986 94,393.5C 94.6152,391.884 95.6152,390.551 97,389.5C 97.4955,387.527 97.6621,385.527 97.5,383.5C 98.675,383.719 99.675,383.386 100.5,382.5C 99.5585,382.511 98.8919,382.011 98.5,381C 99.2865,378.901 99.6199,376.734 99.5,374.5C 103.319,364.865 107.653,355.532 112.5,346.5C 113.791,346.737 114.791,346.404 115.5,345.5C 124.57,334.362 132.903,322.695 140.5,310.5C 142.054,309.086 143.388,307.419 144.5,305.5C 143.645,304.707 142.811,305.04 142,306.5C 141.517,305.552 141.351,304.552 141.5,303.5C 146.066,301.269 150.066,298.269 153.5,294.5C 153.833,294.5 154.167,294.5 154.5,294.5C 153.537,295.363 153.537,296.03 154.5,296.5C 169.516,286.992 185.516,279.658 202.5,274.5C 206.069,275.946 209.403,275.446 212.5,273C 211.584,272.722 210.918,272.222 210.5,271.5C 216.5,270.167 222.5,268.833 228.5,267.5C 231.28,266.922 233.947,266.255 236.5,265.5C 248.529,264.168 260.529,264.501 272.5,266.5 Z"/></g>
<g><path style="opacity:1" fill="#ead177" d="M 280.5,278.5 C 286.626,278.928 292.626,280.095 298.5,282C 289.506,282.5 280.506,282.666 271.5,282.5C 274.701,280.74 278.367,279.906 282.5,280C 281.584,279.722 280.918,279.222 280.5,278.5 Z"/></g>
<g><path style="opacity:1" fill="#a17553" d="M 269.5,287.5 C 276.704,286.22 284.038,286.22 291.5,287.5C 288.772,289.076 285.772,289.576 282.5,289C 283.5,288.667 284.5,288.333 285.5,288C 280.177,287.501 274.844,287.334 269.5,287.5 Z"/></g>
<g><path style="opacity:1" fill="#f4e379" d="M 267.5,276.5 C 272.076,276.438 276.409,277.105 280.5,278.5C 280.918,279.222 281.584,279.722 282.5,280C 278.367,279.906 274.701,280.74 271.5,282.5C 248.22,285.42 227.553,294.253 209.5,309C 209.728,309.399 210.062,309.565 210.5,309.5C 204.225,313.109 198.892,317.776 194.5,323.5C 194.118,320.35 192.784,317.683 190.5,315.5C 184.948,318.44 179.948,322.106 175.5,326.5C 177.86,324.135 179.86,321.468 181.5,318.5C 184.102,315.723 187.102,313.556 190.5,312C 192.804,309.359 195.138,306.692 197.5,304C 202.668,300.327 208.001,296.66 213.5,293C 224.721,286.893 236.387,281.56 248.5,277C 254.825,276.5 261.158,276.334 267.5,276.5 Z"/></g>
<g><path style="opacity:1" fill="#f5eac9" d="M 285.5,292.5 C 283.073,292.477 280.74,291.977 278.5,291C 282.414,290.103 282.248,289.603 278,289.5C 268.37,290.722 258.87,292.722 249.5,295.5C 248.584,295.457 247.917,295.124 247.5,294.5C 254.463,291.02 261.796,288.686 269.5,287.5C 274.844,287.334 280.177,287.501 285.5,288C 284.5,288.333 283.5,288.667 282.5,289C 285.772,289.576 288.772,289.076 291.5,287.5C 296.53,287.02 301.53,286.353 306.5,285.5C 309.096,284.735 311.763,284.401 314.5,284.5C 314.663,286.857 314.497,289.19 314,291.5C 304.635,295.09 295.135,295.424 285.5,292.5 Z"/></g>
<g><path style="opacity:1" fill="#a07a5a" d="M 285.5,292.5 C 285.158,293.338 284.492,293.672 283.5,293.5C 277.862,292.541 272.195,292.374 266.5,293C 251.607,297.239 237.273,302.739 223.5,309.5C 223.631,308.761 223.464,308.094 223,307.5C 222.282,308.451 221.449,308.617 220.5,308C 221.687,306.981 222.687,305.814 223.5,304.5C 224.689,303.571 226.022,303.238 227.5,303.5C 227.047,304.458 226.381,305.292 225.5,306C 225.833,306.167 226.167,306.333 226.5,306.5C 231.822,304.044 236.489,301.711 240.5,299.5C 239.402,298.603 239.402,297.77 240.5,297C 242.9,296.256 245.233,295.423 247.5,294.5C 247.917,295.124 248.584,295.457 249.5,295.5C 258.87,292.722 268.37,290.722 278,289.5C 282.248,289.603 282.414,290.103 278.5,291C 280.74,291.977 283.073,292.477 285.5,292.5 Z"/></g>
<g><path style="opacity:1" fill="#f8f0a7" d="M 267.5,276.5 C 261.158,276.334 254.825,276.5 248.5,277C 236.387,281.56 224.721,286.893 213.5,293C 208.001,296.66 202.668,300.327 197.5,304C 195.138,306.692 192.804,309.359 190.5,312C 187.102,313.556 184.102,315.723 181.5,318.5C 179.86,321.468 177.86,324.135 175.5,326.5C 173.5,329.5 171.5,332.5 169.5,335.5C 169.167,335.5 168.833,335.5 168.5,335.5C 167.504,335.414 166.671,335.748 166,336.5C 165.833,335.833 165.667,335.167 165.5,334.5C 166.351,332.147 166.851,329.813 167,327.5C 165.326,329.009 163.66,329.676 162,329.5C 161.808,327.423 161.308,325.423 160.5,323.5C 159.614,324.325 159.281,325.325 159.5,326.5C 155.489,326.178 152.489,324.178 150.5,320.5C 151.376,319.749 152.376,319.249 153.5,319C 151.808,317.599 151.141,315.766 151.5,313.5C 184.766,284.301 223.432,271.967 267.5,276.5 Z"/></g>
<g><path style="opacity:1" fill="#eacbaa" d="M 240.5,299.5 C 236.489,301.711 231.822,304.044 226.5,306.5C 226.167,306.333 225.833,306.167 225.5,306C 226.381,305.292 227.047,304.458 227.5,303.5C 231.574,301.397 235.907,300.064 240.5,299.5 Z"/></g>
<g><path style="opacity:1" fill="#f6f1cd" d="M 283.5,293.5 C 291.187,296.501 299.187,297.168 307.5,295.5C 308.091,296.151 308.757,296.818 309.5,297.5C 307.604,298.466 305.604,298.799 303.5,298.5C 303.5,299.5 303.5,300.5 303.5,301.5C 292.838,302.5 282.171,303.5 271.5,304.5C 259.16,307.556 246.827,310.723 234.5,314C 230.718,315.954 227.385,318.454 224.5,321.5C 223.614,322.325 223.281,323.325 223.5,324.5C 220.642,325.507 218.142,327.173 216,329.5C 213.429,334.154 210.262,338.321 206.5,342C 202.059,346.211 197.059,349.378 191.5,351.5C 191.5,352.5 191.5,353.5 191.5,354.5C 188.412,354.639 185.745,355.639 183.5,357.5C 183.405,359.786 182.738,361.786 181.5,363.5C 182.279,357.036 184.279,351.036 187.5,345.5C 196.438,335.225 205.772,325.225 215.5,315.5C 217.77,313.025 220.437,311.025 223.5,309.5C 237.273,302.739 251.607,297.239 266.5,293C 272.195,292.374 277.862,292.541 283.5,293.5 Z"/></g>
<g><path style="opacity:1" fill="#f5edcc" d="M 153.5,293.5 C 153.5,293.833 153.5,294.167 153.5,294.5C 150.066,298.269 146.066,301.269 141.5,303.5C 129.3,312.543 120.467,324.21 115,338.5C 107.981,347.887 101.481,357.554 95.5,367.5C 95.6846,363.395 97.3513,360.062 100.5,357.5C 100.291,356.914 99.9574,356.414 99.5,356C 100.125,353.2 100.792,350.366 101.5,347.5C 103.742,342.926 106.742,338.926 110.5,335.5C 112.808,328.396 116.475,322.23 121.5,317C 120.939,315.434 121.606,314.101 123.5,313C 123.167,312.667 122.833,312.333 122.5,312C 124.107,312.019 125.774,312.185 127.5,312.5C 127.564,307.101 130.23,303.768 135.5,302.5C 140.167,296.833 146.167,293.833 153.5,293.5 Z"/></g>
<g><path style="opacity:1" fill="#f2e8c1" d="M 215.5,309.5 C 207.535,316.964 199.702,324.631 192,332.5C 191.952,329.587 192.785,326.921 194.5,324.5C 194.5,324.167 194.5,323.833 194.5,323.5C 198.892,317.776 204.225,313.109 210.5,309.5C 212.581,308.377 214.747,307.377 217,306.5C 218.235,307.613 217.735,308.613 215.5,309.5 Z"/></g>
<g><path style="opacity:1" fill="#f1cb63" d="M 194.5,323.5 C 194.5,323.833 194.5,324.167 194.5,324.5C 192.1,326.296 190.433,328.63 189.5,331.5C 185.436,335.947 182.102,340.947 179.5,346.5C 178.504,346.586 177.671,346.252 177,345.5C 176.666,343.153 176.833,340.819 177.5,338.5C 176.178,338.33 175.011,338.663 174,339.5C 172.38,338.94 170.88,337.607 169.5,335.5C 171.5,332.5 173.5,329.5 175.5,326.5C 179.948,322.106 184.948,318.44 190.5,315.5C 192.784,317.683 194.118,320.35 194.5,323.5 Z"/></g>
<g><path style="opacity:1" fill="#986e4d" d="M 215.5,309.5 C 215.611,310.117 215.944,310.617 216.5,311C 215.313,312.019 214.313,313.186 213.5,314.5C 213.957,315.298 214.624,315.631 215.5,315.5C 205.772,325.225 196.438,335.225 187.5,345.5C 186.167,344.5 186.167,343.5 187.5,342.5C 194.239,335.251 201.572,327.751 209.5,320C 208.833,319.333 208.167,319.333 207.5,320C 202.425,324.849 197.425,329.682 192.5,334.5C 191.5,333.5 190.5,332.5 189.5,331.5C 190.433,328.63 192.1,326.296 194.5,324.5C 192.785,326.921 191.952,329.587 192,332.5C 199.702,324.631 207.535,316.964 215.5,309.5 Z"/></g>
<g><path style="opacity:1" fill="#edd8b1" d="M 132.5,324.5 C 134.008,327.08 133.341,329.08 130.5,330.5C 130.167,330.167 129.833,329.833 129.5,329.5C 130.763,327.971 131.763,326.305 132.5,324.5 Z"/></g>
<g><path style="opacity:1" fill="#ebd2af" d="M 187.5,342.5 C 188.655,339.525 190.322,336.858 192.5,334.5C 197.425,329.682 202.425,324.849 207.5,320C 208.167,319.333 208.833,319.333 209.5,320C 201.572,327.751 194.239,335.251 187.5,342.5 Z"/></g>
<g><path style="opacity:1" fill="#efe0bb" d="M 140.5,310.5 C 132.903,322.695 124.57,334.362 115.5,345.5C 114.957,345.44 114.624,345.107 114.5,344.5C 115.806,340.554 117.639,336.888 120,333.5C 126.667,325.5 133.333,317.5 140,309.5C 140.399,309.728 140.565,310.062 140.5,310.5 Z"/></g>
<g><path style="opacity:1" fill="#f7e698" d="M 151.5,313.5 C 151.141,315.766 151.808,317.599 153.5,319C 152.376,319.249 151.376,319.749 150.5,320.5C 152.489,324.178 155.489,326.178 159.5,326.5C 159.281,325.325 159.614,324.325 160.5,323.5C 161.308,325.423 161.808,327.423 162,329.5C 163.66,329.676 165.326,329.009 167,327.5C 166.851,329.813 166.351,332.147 165.5,334.5C 165.667,335.167 165.833,335.833 166,336.5C 166.671,335.748 167.504,335.414 168.5,335.5C 164.424,341.981 160.59,348.647 157,355.5C 156.541,359.759 155.375,363.759 153.5,367.5C 153.167,367.5 152.833,367.5 152.5,367.5C 150.665,368.122 149.498,369.456 149,371.5C 148.51,370.207 148.343,368.873 148.5,367.5C 147.5,367.5 146.5,367.5 145.5,367.5C 145.662,369.527 145.495,371.527 145,373.5C 142.167,373.374 139.333,372.374 136.5,370.5C 134.612,377.039 133.778,377.039 134,370.5C 132.438,368.566 130.605,366.899 128.5,365.5C 127.614,364.675 127.281,363.675 127.5,362.5C 125.058,362.119 124.391,362.786 125.5,364.5C 123.952,368.417 122.619,368.251 121.5,364C 122.96,363.189 123.293,362.355 122.5,361.5C 119.891,362.443 117.891,364.11 116.5,366.5C 116.167,365.833 115.833,365.167 115.5,364.5C 117.265,360.211 118.599,355.877 119.5,351.5C 127.624,336.708 138.291,324.041 151.5,313.5 Z"/></g>
<g><path style="opacity:1" fill="#efbd59" d="M 168.5,335.5 C 168.833,335.5 169.167,335.5 169.5,335.5C 170.88,337.607 172.38,338.94 174,339.5C 175.011,338.663 176.178,338.33 177.5,338.5C 176.833,340.819 176.666,343.153 177,345.5C 177.671,346.252 178.504,346.586 179.5,346.5C 177.086,351.423 175.086,356.423 173.5,361.5C 172.85,361.804 172.183,362.137 171.5,362.5C 170.646,361.478 169.646,360.645 168.5,360C 165.242,359.788 162.076,359.288 159,358.5C 157.237,361.715 155.403,364.715 153.5,367.5C 155.375,363.759 156.541,359.759 157,355.5C 160.59,348.647 164.424,341.981 168.5,335.5 Z"/></g>
<g><path style="opacity:1" fill="#9c7858" d="M 141.5,303.5 C 141.351,304.552 141.517,305.552 142,306.5C 142.811,305.04 143.645,304.707 144.5,305.5C 143.388,307.419 142.054,309.086 140.5,310.5C 140.565,310.062 140.399,309.728 140,309.5C 133.333,317.5 126.667,325.5 120,333.5C 117.639,336.888 115.806,340.554 114.5,344.5C 114.624,345.107 114.957,345.44 115.5,345.5C 114.791,346.404 113.791,346.737 112.5,346.5C 112.804,345.85 113.137,345.183 113.5,344.5C 113.154,343.304 112.654,343.304 112,344.5C 103.878,355.742 97.0446,367.742 91.5,380.5C 90.8333,380.5 90.5,380.167 90.5,379.5C 92.1667,375.5 93.8333,371.5 95.5,367.5C 101.481,357.554 107.981,347.887 115,338.5C 120.467,324.21 129.3,312.543 141.5,303.5 Z"/></g>
<g><path style="opacity:1" fill="#ead1af" d="M 136.5,308.5 C 137.239,308.369 137.906,308.536 138.5,309C 132.957,314.874 127.79,321.041 123,327.5C 123.732,324.701 125.066,322.034 127,319.5C 130.002,315.666 133.169,312 136.5,308.5 Z"/></g>
<g><path style="opacity:1" fill="#864828" d="M 189.5,331.5 C 190.5,332.5 191.5,333.5 192.5,334.5C 190.322,336.858 188.655,339.525 187.5,342.5C 186.167,343.5 186.167,344.5 187.5,345.5C 184.279,351.036 182.279,357.036 181.5,363.5C 180.566,364.568 180.232,365.901 180.5,367.5C 179.732,369.715 179.065,372.048 178.5,374.5C 177.766,375.708 177.433,377.041 177.5,378.5C 176.715,380.374 176.048,382.374 175.5,384.5C 174.841,387.455 174.508,390.455 174.5,393.5C 173.508,393.328 172.842,393.662 172.5,394.5C 170.562,398.982 169.229,403.649 168.5,408.5C 167.511,403.025 167.178,397.358 167.5,391.5C 169.013,381.378 171.013,371.378 173.5,361.5C 175.086,356.423 177.086,351.423 179.5,346.5C 182.102,340.947 185.436,335.947 189.5,331.5 Z"/></g>
<g><path style="opacity:1" fill="#f3e0bb" d="M 112.5,346.5 C 107.653,355.532 103.319,364.865 99.5,374.5C 96.6709,380.145 94.5042,386.145 93,392.5C 92.1192,401.98 90.4525,411.313 88,420.5C 87.6667,425.833 87.3333,431.167 87,436.5C 86.6174,435.944 86.1174,435.611 85.5,435.5C 85.5,434.833 85.5,434.167 85.5,433.5C 86.4674,417.595 88.4674,401.762 91.5,386C 91.472,384.93 91.1386,384.097 90.5,383.5C 90.5569,382.391 90.8902,381.391 91.5,380.5C 97.0446,367.742 103.878,355.742 112,344.5C 112.654,343.304 113.154,343.304 113.5,344.5C 113.137,345.183 112.804,345.85 112.5,346.5 Z"/></g>
<g><path style="opacity:1" fill="#ecae4a" d="M 173.5,361.5 C 171.013,371.378 169.013,381.378 167.5,391.5C 166.542,391.953 165.708,392.619 165,393.5C 163.54,391.028 162.54,388.361 162,385.5C 161.581,386.672 160.915,387.672 160,388.5C 158.562,387.1 157.729,385.433 157.5,383.5C 155.089,383.137 153.589,384.137 153,386.5C 152.667,385.167 152.333,383.833 152,382.5C 148.37,387.693 147.703,393.36 150,399.5C 154.219,406.534 157.719,413.867 160.5,421.5C 160.5,422.833 160.5,424.167 160.5,425.5C 158.097,425.607 156.264,424.607 155,422.5C 154.667,422.833 154.333,423.167 154,423.5C 153.957,420.783 152.957,420.116 151,421.5C 147.327,420.681 144.661,418.681 143,415.5C 142.5,416.5 142,417.5 141.5,418.5C 142.439,422.765 142.772,427.098 142.5,431.5C 138.208,418.078 138.541,404.745 143.5,391.5C 143.5,388.833 143.5,386.167 143.5,383.5C 144.5,383.5 145.5,383.5 146.5,383.5C 149.555,378.695 151.555,373.361 152.5,367.5C 152.833,367.5 153.167,367.5 153.5,367.5C 155.403,364.715 157.237,361.715 159,358.5C 162.076,359.288 165.242,359.788 168.5,360C 169.646,360.645 170.646,361.478 171.5,362.5C 172.183,362.137 172.85,361.804 173.5,361.5 Z"/></g>
<g><path style="opacity:1" fill="#ab8f7c" d="M 180.5,367.5 C 184.19,384.974 187.023,402.641 189,420.5C 191.549,431.367 194.716,442.034 198.5,452.5C 194.822,445.995 191.989,438.995 190,431.5C 187.018,416.943 184.685,402.276 183,387.5C 182.427,382.721 180.927,378.387 178.5,374.5C 179.065,372.048 179.732,369.715 180.5,367.5 Z"/></g>
<g><path style="opacity:1" fill="#f6d987" d="M 119.5,351.5 C 118.599,355.877 117.265,360.211 115.5,364.5C 115.833,365.167 116.167,365.833 116.5,366.5C 117.891,364.11 119.891,362.443 122.5,361.5C 123.293,362.355 122.96,363.189 121.5,364C 122.619,368.251 123.952,368.417 125.5,364.5C 124.391,362.786 125.058,362.119 127.5,362.5C 127.281,363.675 127.614,364.675 128.5,365.5C 130.605,366.899 132.438,368.566 134,370.5C 133.778,377.039 134.612,377.039 136.5,370.5C 139.333,372.374 142.167,373.374 145,373.5C 145.495,371.527 145.662,369.527 145.5,367.5C 146.5,367.5 147.5,367.5 148.5,367.5C 148.343,368.873 148.51,370.207 149,371.5C 149.498,369.456 150.665,368.122 152.5,367.5C 151.555,373.361 149.555,378.695 146.5,383.5C 145.5,383.5 144.5,383.5 143.5,383.5C 143.5,386.167 143.5,388.833 143.5,391.5C 141.827,392.343 140.66,393.676 140,395.5C 138.865,403.567 136.532,411.234 133,418.5C 131.934,414.236 130.934,409.903 130,405.5C 129.822,410.784 129.155,416.118 128,421.5C 127.501,417.848 127.335,414.182 127.5,410.5C 120.821,409.474 114.154,408.307 107.5,407C 107.167,406.667 106.833,406.333 106.5,406C 108.016,404.103 108.683,401.936 108.5,399.5C 107.167,399.5 105.833,399.5 104.5,399.5C 104.178,397.278 104.845,395.444 106.5,394C 104.582,392.23 104.082,390.063 105,387.5C 106,385.833 107,384.167 108,382.5C 109.292,377.498 110.458,372.498 111.5,367.5C 113.659,361.849 116.326,356.516 119.5,351.5 Z"/></g>
<g><path style="opacity:1" fill="#edd6b5" d="M 401.5,377.5 C 401.611,378.117 401.944,378.617 402.5,379C 399.619,380.251 397.786,382.417 397,385.5C 394.761,399.737 393.927,414.07 394.5,428.5C 392.856,428.286 391.356,428.62 390,429.5C 391.68,412.066 394.18,394.733 397.5,377.5C 398.833,377.5 400.167,377.5 401.5,377.5 Z"/></g>
<g><path style="opacity:1" fill="#a68c7b" d="M 90.5,379.5 C 90.5,380.167 90.8333,380.5 91.5,380.5C 90.8902,381.391 90.5569,382.391 90.5,383.5C 81.9553,399.435 80.2886,416.102 85.5,433.5C 85.5,434.167 85.5,434.833 85.5,435.5C 83.8368,433.507 82.6701,431.174 82,428.5C 79.0164,411.064 81.8498,394.731 90.5,379.5 Z"/></g>
<g><path style="opacity:1" fill="#f0decd" d="M 175.5,384.5 C 177.429,390.915 177.929,397.582 177,404.5C 176.367,400.653 175.533,396.986 174.5,393.5C 174.508,390.455 174.841,387.455 175.5,384.5 Z"/></g>
<g><path style="opacity:1" fill="#9c7c67" d="M 177.5,378.5 C 178.412,388.153 178.579,397.82 178,407.5C 177.963,409.974 177.13,411.974 175.5,413.5C 174.833,413.5 174.5,413.167 174.5,412.5C 175.665,411.504 176.332,410.171 176.5,408.5C 175.474,404.204 174.641,399.871 174,395.5C 173.617,394.944 173.117,394.611 172.5,394.5C 172.842,393.662 173.508,393.328 174.5,393.5C 175.533,396.986 176.367,400.653 177,404.5C 177.929,397.582 177.429,390.915 175.5,384.5C 176.048,382.374 176.715,380.374 177.5,378.5 Z"/></g>
<g><path style="opacity:1" fill="#e9923a" d="M 167.5,391.5 C 167.178,397.358 167.511,403.025 168.5,408.5C 168.927,416.251 169.927,423.918 171.5,431.5C 172.205,434.244 172.205,436.911 171.5,439.5C 168.25,434.001 165.25,428.334 162.5,422.5C 162.043,421.702 161.376,421.369 160.5,421.5C 157.719,413.867 154.219,406.534 150,399.5C 147.703,393.36 148.37,387.693 152,382.5C 152.333,383.833 152.667,385.167 153,386.5C 153.589,384.137 155.089,383.137 157.5,383.5C 157.729,385.433 158.562,387.1 160,388.5C 160.915,387.672 161.581,386.672 162,385.5C 162.54,388.361 163.54,391.028 165,393.5C 165.708,392.619 166.542,391.953 167.5,391.5 Z"/></g>
<g><path style="opacity:1" fill="#faf2e0" d="M 90.5,383.5 C 91.1386,384.097 91.472,384.93 91.5,386C 88.4674,401.762 86.4674,417.595 85.5,433.5C 80.2886,416.102 81.9553,399.435 90.5,383.5 Z"/></g>
<g><path style="opacity:1" fill="#f6f1ce" d="M 394.5,381.5 C 392.141,398.182 389.641,414.848 387,431.5C 379.893,440.049 374.06,449.382 369.5,459.5C 368.833,459.833 368.167,460.167 367.5,460.5C 367.909,456.736 367.909,453.07 367.5,449.5C 368.781,446.483 369.947,443.483 371,440.5C 373.666,426.613 376.832,412.947 380.5,399.5C 381.5,399.5 382.5,399.5 383.5,399.5C 383.337,397.143 383.503,394.81 384,392.5C 385.663,390.842 386.496,388.842 386.5,386.5C 387.5,386.5 388.5,386.5 389.5,386.5C 389.999,383.736 391.665,382.069 394.5,381.5 Z"/></g>
<g><path style="opacity:1" fill="#f6e7a9" d="M 407.5,382.5 C 408.583,382.539 409.583,382.873 410.5,383.5C 414.164,388.096 415.83,393.429 415.5,399.5C 415.5,404.833 415.5,410.167 415.5,415.5C 414.5,415.5 413.5,415.5 412.5,415.5C 412.666,408.492 412.5,401.492 412,394.5C 411.698,390.755 410.531,387.422 408.5,384.5C 408.167,383.833 407.833,383.167 407.5,382.5 Z"/></g>
<g><path style="opacity:1" fill="#93752e" d="M 408.5,384.5 C 410.531,387.422 411.698,390.755 412,394.5C 412.5,401.492 412.666,408.492 412.5,415.5C 412.5,416.5 412.5,417.5 412.5,418.5C 411.672,412.347 411.172,406.013 411,399.5C 410.94,395.574 410.106,392.574 408.5,390.5C 407.427,388.653 407.427,386.653 408.5,384.5 Z"/></g>
<g><path style="opacity:1" fill="#864b23" d="M 401.5,377.5 C 404.089,378.419 406.089,380.086 407.5,382.5C 407.833,383.167 408.167,383.833 408.5,384.5C 407.427,386.653 407.427,388.653 408.5,390.5C 409.209,401.146 409.709,411.813 410,422.5C 411.043,418.774 411.543,419.107 411.5,423.5C 410.963,428.851 410.296,434.184 409.5,439.5C 409.052,426.079 407.719,412.746 405.5,399.5C 404.782,393.629 403.282,387.963 401,382.5C 402.074,396.924 401.241,411.258 398.5,425.5C 397.232,427.905 396.565,430.572 396.5,433.5C 395.833,433.833 395.167,434.167 394.5,434.5C 394.5,433.167 394.5,431.833 394.5,430.5C 394.5,429.833 394.5,429.167 394.5,428.5C 393.927,414.07 394.761,399.737 397,385.5C 397.786,382.417 399.619,380.251 402.5,379C 401.944,378.617 401.611,378.117 401.5,377.5 Z"/></g>
<g><path style="opacity:1" fill="#edd55e" d="M 405.5,399.5 C 406.408,413.903 406.742,428.237 406.5,442.5C 405.817,437.975 404.317,433.641 402,429.5C 400.883,430.949 400.216,432.616 400,434.5C 398.851,431.607 398.351,428.607 398.5,425.5C 401.241,411.258 402.074,396.924 401,382.5C 403.282,387.963 404.782,393.629 405.5,399.5 Z"/></g>
<g><path style="opacity:1" fill="#f8ebd5" d="M 172.5,394.5 C 173.117,394.611 173.617,394.944 174,395.5C 174.641,399.871 175.474,404.204 176.5,408.5C 176.332,410.171 175.665,411.504 174.5,412.5C 172.754,410.748 170.754,409.415 168.5,408.5C 169.229,403.649 170.562,398.982 172.5,394.5 Z"/></g>
<g><path style="opacity:1" fill="#dabe75" d="M 412.5,418.5 C 412.784,420.415 412.451,422.081 411.5,423.5C 411.543,419.107 411.043,418.774 410,422.5C 409.709,411.813 409.209,401.146 408.5,390.5C 410.106,392.574 410.94,395.574 411,399.5C 411.172,406.013 411.672,412.347 412.5,418.5 Z"/></g>
<g><path style="opacity:1" fill="#f5ce7a" d="M 111.5,367.5 C 110.458,372.498 109.292,377.498 108,382.5C 107,384.167 106,385.833 105,387.5C 104.082,390.063 104.582,392.23 106.5,394C 104.845,395.444 104.178,397.278 104.5,399.5C 105.833,399.5 107.167,399.5 108.5,399.5C 108.683,401.936 108.016,404.103 106.5,406C 106.833,406.333 107.167,406.667 107.5,407C 114.154,408.307 120.821,409.474 127.5,410.5C 127.335,414.182 127.501,417.848 128,421.5C 129.155,416.118 129.822,410.784 130,405.5C 130.934,409.903 131.934,414.236 133,418.5C 136.532,411.234 138.865,403.567 140,395.5C 140.66,393.676 141.827,392.343 143.5,391.5C 138.541,404.745 138.208,418.078 142.5,431.5C 144.615,440.164 148.282,448.164 153.5,455.5C 153.33,456.822 153.663,457.989 154.5,459C 153.167,459.667 151.833,459.667 150.5,459C 148.477,456.011 146.311,455.845 144,458.5C 143.505,456.527 143.338,454.527 143.5,452.5C 140.532,452.374 138.532,450.874 137.5,448C 135.711,447.086 133.877,446.253 132,445.5C 130.635,445.844 129.468,446.511 128.5,447.5C 127.859,445.704 126.859,444.204 125.5,443C 120.844,442.335 116.177,441.835 111.5,441.5C 111.881,439.058 111.214,438.391 109.5,439.5C 107.946,437.067 107.28,434.4 107.5,431.5C 106.5,431.5 105.5,431.5 104.5,431.5C 104.453,434.568 103.953,437.568 103,440.5C 101.178,432.967 100.012,425.3 99.5,417.5C 100.841,409.843 101.841,402.176 102.5,394.5C 103.822,384.85 106.822,375.85 111.5,367.5 Z"/></g>
<g><path style="opacity:1" fill="#eda346" d="M 160.5,421.5 C 161.376,421.369 162.043,421.702 162.5,422.5C 165.25,428.334 168.25,434.001 171.5,439.5C 172.205,436.911 172.205,434.244 171.5,431.5C 174.039,436.587 176.039,441.921 177.5,447.5C 176.069,447.119 175.236,446.119 175,444.5C 174.667,444.833 174.333,445.167 174,445.5C 173.698,451.533 173.198,457.533 172.5,463.5C 169.15,463.665 165.817,463.498 162.5,463C 159.469,460.492 156.469,457.992 153.5,455.5C 148.282,448.164 144.615,440.164 142.5,431.5C 142.772,427.098 142.439,422.765 141.5,418.5C 142,417.5 142.5,416.5 143,415.5C 144.661,418.681 147.327,420.681 151,421.5C 152.957,420.116 153.957,420.783 154,423.5C 154.333,423.167 154.667,422.833 155,422.5C 156.264,424.607 158.097,425.607 160.5,425.5C 160.5,424.167 160.5,422.833 160.5,421.5 Z"/></g>
<g><path style="opacity:1" fill="#9f7e5e" d="M 401.5,377.5 C 400.167,377.5 398.833,377.5 397.5,377.5C 394.18,394.733 391.68,412.066 390,429.5C 391.356,428.62 392.856,428.286 394.5,428.5C 394.5,429.167 394.5,429.833 394.5,430.5C 392.128,429.447 390.128,430.114 388.5,432.5C 387.092,438.723 385.092,444.723 382.5,450.5C 382.062,451.506 381.396,451.506 380.5,450.5C 382.715,446.023 384.215,441.356 385,436.5C 379.315,443.887 374.148,451.554 369.5,459.5C 374.06,449.382 379.893,440.049 387,431.5C 389.641,414.848 392.141,398.182 394.5,381.5C 395.084,379.223 396.251,377.223 398,375.5C 399.459,375.808 400.626,376.475 401.5,377.5 Z"/></g>
<g><path style="opacity:1" fill="#f5efc8" d="M 394.5,430.5 C 394.5,431.833 394.5,433.167 394.5,434.5C 394.092,439.038 393.092,443.372 391.5,447.5C 390.5,447.5 389.5,447.5 388.5,447.5C 388.5,448.5 388.5,449.5 388.5,450.5C 386.61,447.998 384.61,447.998 382.5,450.5C 385.092,444.723 387.092,438.723 388.5,432.5C 390.128,430.114 392.128,429.447 394.5,430.5 Z"/></g>
<g><path style="opacity:1" fill="#efdeb7" d="M 380.5,450.5 C 374.267,458.619 368.267,466.952 362.5,475.5C 361.957,475.44 361.624,475.107 361.5,474.5C 364.956,469.922 367.622,464.922 369.5,459.5C 374.148,451.554 379.315,443.887 385,436.5C 384.215,441.356 382.715,446.023 380.5,450.5 Z"/></g>
<g><path style="opacity:1" fill="#e19645" d="M 177.5,447.5 C 183.922,459.336 191.589,470.336 200.5,480.5C 198.407,479.955 196.407,479.122 194.5,478C 192.569,475.696 190.236,473.862 187.5,472.5C 185.203,465.111 182.037,458.111 178,451.5C 177.51,450.207 177.343,448.873 177.5,447.5 Z"/></g>
<g><path style="opacity:1" fill="#87492b" d="M 168.5,408.5 C 170.754,409.415 172.754,410.748 174.5,412.5C 174.5,413.167 174.833,413.5 175.5,413.5C 176.48,417.326 177.313,417.326 178,413.5C 182.725,429.341 188.058,445.008 194,460.5C 196,463.833 198,467.167 200,470.5C 203.299,473.551 206.799,476.218 210.5,478.5C 208.742,478.123 207.075,477.456 205.5,476.5C 205.167,476.833 204.833,477.167 204.5,477.5C 206.12,480.404 207.453,483.404 208.5,486.5C 208.565,486.938 208.399,487.272 208,487.5C 205.63,484.961 203.13,482.628 200.5,480.5C 191.589,470.336 183.922,459.336 177.5,447.5C 176.039,441.921 174.039,436.587 171.5,431.5C 169.927,423.918 168.927,416.251 168.5,408.5 Z"/></g>
<g><path style="opacity:1" fill="#edc150" d="M 398.5,425.5 C 398.351,428.607 398.851,431.607 400,434.5C 400.216,432.616 400.883,430.949 402,429.5C 404.317,433.641 405.817,437.975 406.5,442.5C 406.663,444.857 406.497,447.19 406,449.5C 401.606,457.734 396.272,465.401 390,472.5C 392.849,459.745 395.016,446.745 396.5,433.5C 396.565,430.572 397.232,427.905 398.5,425.5 Z"/></g>
<g><path style="opacity:1" fill="#faf2e1" d="M 178.5,374.5 C 180.927,378.387 182.427,382.721 183,387.5C 184.685,402.276 187.018,416.943 190,431.5C 191.989,438.995 194.822,445.995 198.5,452.5C 199.511,456.856 201.344,460.856 204,464.5C 206.65,468.975 209.817,472.975 213.5,476.5C 214.837,479.687 213.837,480.354 210.5,478.5C 206.799,476.218 203.299,473.551 200,470.5C 198,467.167 196,463.833 194,460.5C 188.058,445.008 182.725,429.341 178,413.5C 177.313,417.326 176.48,417.326 175.5,413.5C 177.13,411.974 177.963,409.974 178,407.5C 178.579,397.82 178.412,388.153 177.5,378.5C 177.433,377.041 177.766,375.708 178.5,374.5 Z"/></g>
<g><path style="opacity:1" fill="#a48977" d="M 198.5,452.5 C 203.492,460.495 208.492,468.495 213.5,476.5C 209.817,472.975 206.65,468.975 204,464.5C 201.344,460.856 199.511,456.856 198.5,452.5 Z"/></g>
<g><path style="opacity:1" fill="#f3c972" d="M 102.5,394.5 C 101.841,402.176 100.841,409.843 99.5,417.5C 100.012,425.3 101.178,432.967 103,440.5C 103.953,437.568 104.453,434.568 104.5,431.5C 105.5,431.5 106.5,431.5 107.5,431.5C 107.28,434.4 107.946,437.067 109.5,439.5C 111.214,438.391 111.881,439.058 111.5,441.5C 116.177,441.835 120.844,442.335 125.5,443C 126.859,444.204 127.859,445.704 128.5,447.5C 129.468,446.511 130.635,445.844 132,445.5C 133.877,446.253 135.711,447.086 137.5,448C 138.532,450.874 140.532,452.374 143.5,452.5C 143.338,454.527 143.505,456.527 144,458.5C 146.311,455.845 148.477,456.011 150.5,459C 151.833,459.667 153.167,459.667 154.5,459C 153.663,457.989 153.33,456.822 153.5,455.5C 156.469,457.992 159.469,460.492 162.5,463C 165.817,463.498 169.15,463.665 172.5,463.5C 173.198,457.533 173.698,451.533 174,445.5C 174.333,445.167 174.667,444.833 175,444.5C 175.236,446.119 176.069,447.119 177.5,447.5C 177.343,448.873 177.51,450.207 178,451.5C 182.037,458.111 185.203,465.111 187.5,472.5C 190.236,473.862 192.569,475.696 194.5,478C 196.407,479.122 198.407,479.955 200.5,480.5C 203.13,482.628 205.63,484.961 208,487.5C 208.399,487.272 208.565,486.938 208.5,486.5C 209.872,487.512 211.205,488.512 212.5,489.5C 212.062,489.435 211.728,489.601 211.5,490C 214.69,492.364 217.69,494.864 220.5,497.5C 216.167,497.5 211.833,497.5 207.5,497.5C 205.712,497.785 204.045,497.452 202.5,496.5C 200.507,494.501 198.173,493.001 195.5,492C 194.213,490.59 193.046,489.09 192,487.5C 191.136,490.739 191.969,493.406 194.5,495.5C 193.917,497.002 193.084,498.335 192,499.5C 189.134,496.669 185.634,495.003 181.5,494.5C 179.812,491.393 177.145,489.726 173.5,489.5C 171.929,486.907 169.596,485.907 166.5,486.5C 166.884,488.929 167.551,491.263 168.5,493.5C 161.025,486.865 153.358,480.365 145.5,474C 141.941,472.772 138.608,471.106 135.5,469C 131.551,467.816 127.551,467.482 123.5,468C 120.922,470.228 119.589,473.061 119.5,476.5C 118.513,481.305 118.179,486.305 118.5,491.5C 117.018,487.069 116.018,482.402 115.5,477.5C 116.553,474.869 117.053,472.202 117,469.5C 115.406,468.284 113.906,466.951 112.5,465.5C 111.476,466.853 110.143,467.52 108.5,467.5C 108.5,466.167 108.5,464.833 108.5,463.5C 107.167,463.5 105.833,463.5 104.5,463.5C 104.673,466.179 105.673,468.513 107.5,470.5C 106.698,473.449 106.364,476.449 106.5,479.5C 99.6012,458.873 96.6012,437.539 97.5,415.5C 98.9237,408.451 100.59,401.451 102.5,394.5 Z"/></g>
<g><path style="opacity:1" fill="#f1d067" d="M 405.5,399.5 C 407.719,412.746 409.052,426.079 409.5,439.5C 408.952,446.974 407.619,454.307 405.5,461.5C 405.672,462.492 405.338,463.158 404.5,463.5C 401.605,468.285 398.938,473.285 396.5,478.5C 395.675,479.386 394.675,479.719 393.5,479.5C 392.72,483.127 391.22,486.46 389,489.5C 385.932,492.639 383.098,495.972 380.5,499.5C 382.787,494.447 383.954,489.114 384,483.5C 386.315,481.465 387.148,479.132 386.5,476.5C 383.855,480.811 380.521,484.478 376.5,487.5C 375.244,487.096 374.077,486.429 373,485.5C 369.455,487.001 368.955,486.501 371.5,484C 370.833,483.667 370.167,483.333 369.5,483C 370.684,481.855 370.684,480.688 369.5,479.5C 373.834,474.329 378,468.995 382,463.5C 384.726,459.381 386.893,455.048 388.5,450.5C 388.5,449.5 388.5,448.5 388.5,447.5C 389.5,447.5 390.5,447.5 391.5,447.5C 393.092,443.372 394.092,439.038 394.5,434.5C 395.167,434.167 395.833,433.833 396.5,433.5C 395.016,446.745 392.849,459.745 390,472.5C 396.272,465.401 401.606,457.734 406,449.5C 406.497,447.19 406.663,444.857 406.5,442.5C 406.742,428.237 406.408,413.903 405.5,399.5 Z"/></g>
<g><path style="opacity:1" fill="#f6f1cd" d="M 365.5,463.5 C 362.304,471.873 357.304,479.04 350.5,485C 341.799,490.684 332.799,495.851 323.5,500.5C 325.519,497.962 326.686,494.962 327,491.5C 334.476,485.108 341.643,478.275 348.5,471C 352.571,469.639 355.905,467.305 358.5,464C 360.81,463.503 363.143,463.337 365.5,463.5 Z"/></g>
<g><path style="opacity:1" fill="#f5ecc8" d="M 415.5,399.5 C 416.5,399.5 417.5,399.5 418.5,399.5C 419.542,410.517 420.542,421.517 421.5,432.5C 420.444,444.161 419.278,455.828 418,467.5C 415.718,472.624 414.051,477.957 413,483.5C 409.662,490.891 406.329,498.225 403,505.5C 399.453,509.361 396.786,513.694 395,518.5C 391.696,521.092 389.363,524.425 388,528.5C 386.568,530.439 384.735,531.772 382.5,532.5C 383.038,530.883 383.371,529.216 383.5,527.5C 389.815,515.53 395.648,503.197 401,490.5C 403.135,483.628 404.801,476.628 406,469.5C 406.801,466.633 406.634,463.966 405.5,461.5C 407.619,454.307 408.952,446.974 409.5,439.5C 410.296,434.184 410.963,428.851 411.5,423.5C 412.451,422.081 412.784,420.415 412.5,418.5C 412.5,417.5 412.5,416.5 412.5,415.5C 413.5,415.5 414.5,415.5 415.5,415.5C 415.5,410.167 415.5,404.833 415.5,399.5 Z"/></g>
<g><path style="opacity:1" fill="#854829" d="M 388.5,450.5 C 386.893,455.048 384.726,459.381 382,463.5C 378,468.995 373.834,474.329 369.5,479.5C 362.47,485.863 355.137,491.863 347.5,497.5C 341.527,500.487 335.527,503.487 329.5,506.5C 323.785,509.096 317.785,510.763 311.5,511.5C 303.141,512.429 294.807,513.429 286.5,514.5C 283.5,514.167 280.5,513.833 277.5,513.5C 283.138,512.67 288.804,512.17 294.5,512C 289.803,511.72 285.137,511.22 280.5,510.5C 274.567,511.991 268.567,512.491 262.5,512C 262.833,511.667 263.167,511.333 263.5,511C 258.643,510.811 253.976,509.811 249.5,508C 251.889,507.261 253.889,506.095 255.5,504.5C 267.666,507.361 280,509.028 292.5,509.5C 293.167,509.167 293.833,508.833 294.5,508.5C 296.833,508.5 299.167,508.5 301.5,508.5C 307.057,508.688 312.39,508.688 317.5,508.5C 325.352,504.408 333.352,500.574 341.5,497C 344.729,493.601 348.062,490.435 351.5,487.5C 355.876,484.126 359.542,480.126 362.5,475.5C 368.267,466.952 374.267,458.619 380.5,450.5C 381.396,451.506 382.062,451.506 382.5,450.5C 384.61,447.998 386.61,447.998 388.5,450.5 Z"/></g>
<g><path style="opacity:1" fill="#f8dd93" d="M 168.5,493.5 C 173.387,500.528 179.221,506.862 186,512.5C 188.08,515.065 189.913,517.732 191.5,520.5C 193.271,524.372 195.771,527.706 199,530.5C 199.167,531.667 199.333,532.833 199.5,534C 199.392,535.681 198.725,536.848 197.5,537.5C 197.5,535.167 197.5,532.833 197.5,530.5C 192.777,529.993 188.111,529.16 183.5,528C 178.942,518.439 171.942,511.106 162.5,506C 159.833,505.333 157.167,505.333 154.5,506C 153.934,506.995 153.267,507.828 152.5,508.5C 152.413,507.502 152.08,506.335 151.5,505C 152.253,503.513 153.086,503.346 154,504.5C 155.487,503.747 155.654,502.914 154.5,502C 147.806,501.308 141.806,498.642 136.5,494C 130.405,492.695 124.739,490.528 119.5,487.5C 119.5,483.833 119.5,480.167 119.5,476.5C 119.589,473.061 120.922,470.228 123.5,468C 127.551,467.482 131.551,467.816 135.5,469C 138.608,471.106 141.941,472.772 145.5,474C 153.358,480.365 161.025,486.865 168.5,493.5 Z"/></g>
<g><path style="opacity:1" fill="#f7eedc" d="M 210.5,478.5 C 219.013,483.338 226.346,489.671 232.5,497.5C 230.801,497.66 229.134,497.494 227.5,497C 222.783,493.975 217.783,491.475 212.5,489.5C 211.205,488.512 209.872,487.512 208.5,486.5C 207.453,483.404 206.12,480.404 204.5,477.5C 204.833,477.167 205.167,476.833 205.5,476.5C 207.075,477.456 208.742,478.123 210.5,478.5 Z"/></g>
<g><path style="opacity:1" fill="#a17e5c" d="M 369.5,459.5 C 367.622,464.922 364.956,469.922 361.5,474.5C 361.624,475.107 361.957,475.44 362.5,475.5C 359.542,480.126 355.876,484.126 351.5,487.5C 351.103,486.475 350.437,486.308 349.5,487C 341.16,492.505 332.493,497.505 323.5,502C 320.833,504 318.167,506 315.5,508C 316.094,508.464 316.761,508.631 317.5,508.5C 312.39,508.688 307.057,508.688 301.5,508.5C 305.647,507.675 309.981,507.175 314.5,507C 317.379,504.615 320.379,502.448 323.5,500.5C 332.799,495.851 341.799,490.684 350.5,485C 357.304,479.04 362.304,471.873 365.5,463.5C 366.906,463.027 367.573,462.027 367.5,460.5C 368.167,460.167 368.833,459.833 369.5,459.5 Z"/></g>
<g><path style="opacity:1" fill="#f3dcb8" d="M 351.5,487.5 C 348.062,490.435 344.729,493.601 341.5,497C 333.352,500.574 325.352,504.408 317.5,508.5C 316.761,508.631 316.094,508.464 315.5,508C 318.167,506 320.833,504 323.5,502C 332.493,497.505 341.16,492.505 349.5,487C 350.437,486.308 351.103,486.475 351.5,487.5 Z"/></g>
<g><path style="opacity:1" fill="#f4e6c3" d="M 97.5,478.5 C 99.6246,481.088 100.958,484.088 101.5,487.5C 101.718,497.352 103.051,507.019 105.5,516.5C 103.978,515.569 102.645,514.402 101.5,513C 99.5944,508.562 97.7611,504.062 96,499.5C 94.9317,492.226 95.4317,485.226 97.5,478.5 Z"/></g>
<g><path style="opacity:1" fill="#efbb56" d="M 369.5,479.5 C 370.684,480.688 370.684,481.855 369.5,483C 370.167,483.333 370.833,483.667 371.5,484C 368.955,486.501 369.455,487.001 373,485.5C 374.077,486.429 375.244,487.096 376.5,487.5C 372.583,493.265 368.416,498.932 364,504.5C 360.384,508.687 356.217,511.353 351.5,512.5C 352.951,511.094 354.284,509.594 355.5,508C 354.181,506.372 352.848,506.539 351.5,508.5C 349.33,506.914 346.996,505.58 344.5,504.5C 345.729,503.719 347.062,503.219 348.5,503C 347.692,502.692 347.025,502.192 346.5,501.5C 346.788,500.139 347.121,498.806 347.5,497.5C 355.137,491.863 362.47,485.863 369.5,479.5 Z"/></g>
<g><path style="opacity:1" fill="#f6d988" d="M 119.5,476.5 C 119.5,480.167 119.5,483.833 119.5,487.5C 124.739,490.528 130.405,492.695 136.5,494C 141.806,498.642 147.806,501.308 154.5,502C 155.654,502.914 155.487,503.747 154,504.5C 153.086,503.346 152.253,503.513 151.5,505C 152.08,506.335 152.413,507.502 152.5,508.5C 152.336,511.187 152.503,513.854 153,516.5C 154.844,520.189 156.678,523.855 158.5,527.5C 157.5,527.5 156.5,527.5 155.5,527.5C 155.361,523.889 153.694,521.223 150.5,519.5C 149.52,516.914 149.187,514.247 149.5,511.5C 148.5,511.5 147.5,511.5 146.5,511.5C 144.769,520.581 143.436,520.581 142.5,511.5C 141.571,512.689 141.238,514.022 141.5,515.5C 136.648,512.739 131.814,509.739 127,506.5C 126.667,506.833 126.333,507.167 126,507.5C 125.623,506.058 124.79,505.058 123.5,504.5C 120.175,500.915 118.508,496.581 118.5,491.5C 118.179,486.305 118.513,481.305 119.5,476.5 Z"/></g>
<g><path style="opacity:1" fill="#f3e1ba" d="M 107.5,493.5 C 108.793,495.296 110.293,496.963 112,498.5C 112.808,504.383 114.308,510.05 116.5,515.5C 116.649,516.552 116.483,517.552 116,518.5C 110.371,512.575 106.871,505.575 105.5,497.5C 105.585,495.667 106.252,494.334 107.5,493.5 Z"/></g>
<g><path style="opacity:1" fill="#a88976" d="M 213.5,476.5 C 221.583,484.374 230.25,491.541 239.5,498C 252.304,498.678 264.971,500.344 277.5,503C 283.504,504.169 289.17,506.002 294.5,508.5C 293.833,508.833 293.167,509.167 292.5,509.5C 289.79,507.892 286.79,506.725 283.5,506C 270.641,502.995 257.641,500.828 244.5,499.5C 243.287,499.747 242.62,500.414 242.5,501.5C 239.343,501.921 237.01,500.755 235.5,498C 234.552,497.517 233.552,497.351 232.5,497.5C 226.346,489.671 219.013,483.338 210.5,478.5C 213.837,480.354 214.837,479.687 213.5,476.5 Z"/></g>
<g><path style="opacity:1" fill="#f3e4d1" d="M 292.5,509.5 C 280,509.028 267.666,507.361 255.5,504.5C 251.317,503.373 246.983,502.373 242.5,501.5C 242.62,500.414 243.287,499.747 244.5,499.5C 257.641,500.828 270.641,502.995 283.5,506C 286.79,506.725 289.79,507.892 292.5,509.5 Z"/></g>
<g><path style="opacity:1" fill="#894722" d="M 212.5,489.5 C 217.783,491.475 222.783,493.975 227.5,497C 229.134,497.494 230.801,497.66 232.5,497.5C 233.552,497.351 234.552,497.517 235.5,498C 237.01,500.755 239.343,501.921 242.5,501.5C 246.983,502.373 251.317,503.373 255.5,504.5C 253.889,506.095 251.889,507.261 249.5,508C 253.976,509.811 258.643,510.811 263.5,511C 263.167,511.333 262.833,511.667 262.5,512C 268.567,512.491 274.567,511.991 280.5,510.5C 285.137,511.22 289.803,511.72 294.5,512C 288.804,512.17 283.138,512.67 277.5,513.5C 280.5,513.833 283.5,514.167 286.5,514.5C 294.807,513.429 303.141,512.429 311.5,511.5C 305.809,513.677 299.809,515.01 293.5,515.5C 283.801,515.725 274.134,515.392 264.5,514.5C 252.507,512.281 241.174,508.281 230.5,502.5C 227.35,500.451 224.016,498.784 220.5,497.5C 217.69,494.864 214.69,492.364 211.5,490C 211.728,489.601 212.062,489.435 212.5,489.5 Z"/></g>
<g><path style="opacity:1" fill="#eeb04e" d="M 380.5,499.5 C 372.441,507.563 364.107,515.23 355.5,522.5C 351.267,524.451 346.934,526.117 342.5,527.5C 342.611,526.883 342.944,526.383 343.5,526C 342.025,523.691 340.358,521.524 338.5,519.5C 338.167,520.167 337.833,520.833 337.5,521.5C 332.72,517.269 327.387,513.769 321.5,511C 324.412,509.768 327.078,508.268 329.5,506.5C 335.527,503.487 341.527,500.487 347.5,497.5C 347.121,498.806 346.788,500.139 346.5,501.5C 347.025,502.192 347.692,502.692 348.5,503C 347.062,503.219 345.729,503.719 344.5,504.5C 346.996,505.58 349.33,506.914 351.5,508.5C 352.848,506.539 354.181,506.372 355.5,508C 354.284,509.594 352.951,511.094 351.5,512.5C 356.217,511.353 360.384,508.687 364,504.5C 368.416,498.932 372.583,493.265 376.5,487.5C 380.521,484.478 383.855,480.811 386.5,476.5C 387.148,479.132 386.315,481.465 384,483.5C 383.954,489.114 382.787,494.447 380.5,499.5 Z"/></g>
<g><path style="opacity:1" fill="#eda748" d="M 207.5,497.5 C 211.833,497.5 216.167,497.5 220.5,497.5C 224.016,498.784 227.35,500.451 230.5,502.5C 232.294,504.797 234.294,506.963 236.5,509C 251.834,520.574 268.834,528.407 287.5,532.5C 292.447,533.765 297.614,534.432 303,534.5C 311.906,533.492 320.74,531.992 329.5,530C 327.045,528.369 324.545,528.203 322,529.5C 321.828,522.653 318.328,518.487 311.5,517C 305.319,516.828 299.319,516.328 293.5,515.5C 299.809,515.01 305.809,513.677 311.5,511.5C 317.785,510.763 323.785,509.096 329.5,506.5C 327.078,508.268 324.412,509.768 321.5,511C 327.387,513.769 332.72,517.269 337.5,521.5C 337.833,520.833 338.167,520.167 338.5,519.5C 340.358,521.524 342.025,523.691 343.5,526C 342.944,526.383 342.611,526.883 342.5,527.5C 334.881,530.217 327.215,532.551 319.5,534.5C 317.143,534.337 314.81,534.503 312.5,535C 306.355,540.906 299.021,543.739 290.5,543.5C 282.771,538.668 274.438,534.835 265.5,532C 258.216,526.69 250.216,523.023 241.5,521C 235.014,517.924 228.681,514.591 222.5,511C 220.302,510.627 218.135,510.127 216,509.5C 214.003,507.267 211.503,505.767 208.5,505C 207.91,503.491 207.244,501.991 206.5,500.5C 203.913,501.054 201.58,502.054 199.5,503.5C 199.539,502.417 199.873,501.417 200.5,500.5C 203,499.641 205.333,498.641 207.5,497.5 Z"/></g>
<g><path style="opacity:1" fill="#e8943a" d="M 264.5,514.5 C 274.134,515.392 283.801,515.725 293.5,515.5C 299.319,516.328 305.319,516.828 311.5,517C 318.328,518.487 321.828,522.653 322,529.5C 324.545,528.203 327.045,528.369 329.5,530C 320.74,531.992 311.906,533.492 303,534.5C 297.614,534.432 292.447,533.765 287.5,532.5C 290.187,532.664 292.854,532.497 295.5,532C 293.331,529.797 290.665,528.964 287.5,529.5C 287.5,528.167 287.5,526.833 287.5,525.5C 284.813,525.664 282.146,525.497 279.5,525C 279.957,524.586 280.291,524.086 280.5,523.5C 277.581,522.686 274.748,521.686 272,520.5C 271.51,519.207 271.343,517.873 271.5,516.5C 269.473,516.662 267.473,516.495 265.5,516C 264.944,515.617 264.611,515.117 264.5,514.5 Z"/></g>
<g><path style="opacity:1" fill="#f5d483" d="M 404.5,463.5 C 397.797,494.913 382.797,521.58 359.5,543.5C 359.215,541.712 359.548,540.045 360.5,538.5C 361.086,538.709 361.586,539.043 362,539.5C 363.167,537.667 364.333,535.833 365.5,534C 365,533.5 364.5,533 364,532.5C 362.809,535.534 360.642,537.201 357.5,537.5C 357.351,536.448 357.517,535.448 358,534.5C 359.635,533.274 361.135,531.941 362.5,530.5C 357.991,529.42 354.658,531.087 352.5,535.5C 351.288,533.164 351.621,530.997 353.5,529C 352.978,528.05 352.311,527.216 351.5,526.5C 353.375,525.591 354.708,524.257 355.5,522.5C 364.107,515.23 372.441,507.563 380.5,499.5C 383.098,495.972 385.932,492.639 389,489.5C 391.22,486.46 392.72,483.127 393.5,479.5C 394.675,479.719 395.675,479.386 396.5,478.5C 398.938,473.285 401.605,468.285 404.5,463.5 Z"/></g>
<g><path style="opacity:1" fill="#894e2d" d="M 99.5,374.5 C 99.6199,376.734 99.2865,378.901 98.5,381C 98.8919,382.011 99.5585,382.511 100.5,382.5C 99.675,383.386 98.675,383.719 97.5,383.5C 97.6621,385.527 97.4955,387.527 97,389.5C 95.6152,390.551 94.6152,391.884 94,393.5C 93.3767,397.986 92.8767,402.486 92.5,407C 93.9745,415.078 94.8079,423.244 95,431.5C 95.8671,426.028 96.7004,420.694 97.5,415.5C 96.6012,437.539 99.6012,458.873 106.5,479.5C 112.578,498.651 122.078,515.984 135,531.5C 148.87,546.275 163.704,558.941 179.5,569.5C 179.833,568.833 180.167,568.167 180.5,567.5C 190.874,573.46 201.874,577.96 213.5,581C 224.77,583.25 234.77,585.084 243.5,586.5C 241.621,587.341 239.621,587.675 237.5,587.5C 228.364,587.003 219.364,585.67 210.5,583.5C 209.5,583.5 208.5,583.5 207.5,583.5C 198.213,581.203 188.88,578.87 179.5,576.5C 180.625,575.348 180.625,574.348 179.5,573.5C 171.801,568.977 164.801,563.477 158.5,557C 155.846,556.059 153.179,555.226 150.5,554.5C 150.073,553.262 150.073,552.262 150.5,551.5C 140.285,544.957 131.285,536.957 123.5,527.5C 122.791,526.596 121.791,526.263 120.5,526.5C 119.559,524.228 118.226,522.228 116.5,520.5C 117.72,518.716 117.72,517.05 116.5,515.5C 114.308,510.05 112.808,504.383 112,498.5C 110.293,496.963 108.793,495.296 107.5,493.5C 105.497,491.483 103.497,489.483 101.5,487.5C 100.958,484.088 99.6246,481.088 97.5,478.5C 96.2368,473.968 94.4035,469.635 92,465.5C 89.6929,457.324 88.3596,448.991 88,440.5C 86.6283,439.09 85.795,437.423 85.5,435.5C 86.1174,435.611 86.6174,435.944 87,436.5C 87.3333,431.167 87.6667,425.833 88,420.5C 90.4525,411.313 92.1192,401.98 93,392.5C 94.5042,386.145 96.6709,380.145 99.5,374.5 Z"/></g>
<g><path style="opacity:1" fill="#efd6b5" d="M 94.5,449.5 C 95.5,449.5 96.5,449.5 97.5,449.5C 98.5397,458.514 99.373,467.514 100,476.5C 95.6504,468.071 93.8171,459.071 94.5,449.5 Z"/></g>
<g><path style="opacity:1" fill="#e0b88e" d="M 90.5,444.5 C 91.4584,444.953 92.2917,445.619 93,446.5C 93.6667,450.833 93.6667,455.167 93,459.5C 91.3274,454.637 90.494,449.637 90.5,444.5 Z"/></g>
<g><path style="opacity:1" fill="#eccba0" d="M 90.5,417.5 C 91.7479,418.334 92.4146,419.667 92.5,421.5C 93.2077,426.995 93.8744,432.495 94.5,438C 94.5056,440.3 94.0056,442.466 93,444.5C 92.3333,443.833 91.6667,443.167 91,442.5C 90.5003,434.173 90.3336,425.84 90.5,417.5 Z"/></g>
<g><path style="opacity:1" fill="#f0d4ab" d="M 116.5,520.5 C 118.226,522.228 119.559,524.228 120.5,526.5C 123.325,531.16 125.825,535.827 128,540.5C 117.918,532.09 110.585,521.756 106,509.5C 105.333,508.167 105.333,506.833 106,505.5C 108.538,511.267 112.038,516.267 116.5,520.5 Z"/></g>
<g><path style="opacity:1" fill="#eb983f" d="M 290.5,543.5 C 260.223,545.233 232.89,537.4 208.5,520C 202.464,516.09 199.464,510.59 199.5,503.5C 201.58,502.054 203.913,501.054 206.5,500.5C 207.244,501.991 207.91,503.491 208.5,505C 211.503,505.767 214.003,507.267 216,509.5C 218.135,510.127 220.302,510.627 222.5,511C 228.681,514.591 235.014,517.924 241.5,521C 250.216,523.023 258.216,526.69 265.5,532C 274.438,534.835 282.771,538.668 290.5,543.5 Z"/></g>
<g><path style="opacity:1" fill="#e78736" d="M 230.5,502.5 C 241.174,508.281 252.507,512.281 264.5,514.5C 264.611,515.117 264.944,515.617 265.5,516C 267.473,516.495 269.473,516.662 271.5,516.5C 271.343,517.873 271.51,519.207 272,520.5C 274.748,521.686 277.581,522.686 280.5,523.5C 280.291,524.086 279.957,524.586 279.5,525C 282.146,525.497 284.813,525.664 287.5,525.5C 287.5,526.833 287.5,528.167 287.5,529.5C 290.665,528.964 293.331,529.797 295.5,532C 292.854,532.497 290.187,532.664 287.5,532.5C 268.834,528.407 251.834,520.574 236.5,509C 234.294,506.963 232.294,504.797 230.5,502.5 Z"/></g>
<g><path style="opacity:1" fill="#f3c168" d="M 207.5,497.5 C 205.333,498.641 203,499.641 200.5,500.5C 199.873,501.417 199.539,502.417 199.5,503.5C 199.464,510.59 202.464,516.09 208.5,520C 232.89,537.4 260.223,545.233 290.5,543.5C 299.021,543.739 306.355,540.906 312.5,535C 314.81,534.503 317.143,534.337 319.5,534.5C 317.444,535.216 315.277,535.883 313,536.5C 312.033,538.63 310.866,540.63 309.5,542.5C 309.667,543.167 309.833,543.833 310,544.5C 315.803,549.987 322.637,552.487 330.5,552C 329.833,552.333 329.167,552.667 328.5,553C 331.466,556.144 331.133,558.811 327.5,561C 329.783,561.291 331.95,560.791 334,559.5C 335.138,559.989 336.305,560.322 337.5,560.5C 325.442,568.979 312.109,574.979 297.5,578.5C 273.558,570.883 250.891,560.883 229.5,548.5C 228.691,546.929 228.357,545.262 228.5,543.5C 225.206,543.741 222.206,542.908 219.5,541C 218.321,538.487 216.487,536.654 214,535.5C 213.5,535.833 213,536.167 212.5,536.5C 213.946,538.618 214.613,540.951 214.5,543.5C 212.702,541.888 210.702,540.388 208.5,539C 203.683,532.018 198.016,525.851 191.5,520.5C 189.913,517.732 188.08,515.065 186,512.5C 179.221,506.862 173.387,500.528 168.5,493.5C 167.551,491.263 166.884,488.929 166.5,486.5C 169.596,485.907 171.929,486.907 173.5,489.5C 177.145,489.726 179.812,491.393 181.5,494.5C 185.634,495.003 189.134,496.669 192,499.5C 193.084,498.335 193.917,497.002 194.5,495.5C 191.969,493.406 191.136,490.739 192,487.5C 193.046,489.09 194.213,490.59 195.5,492C 198.173,493.001 200.507,494.501 202.5,496.5C 204.045,497.452 205.712,497.785 207.5,497.5 Z"/></g>
<g><path style="opacity:1" fill="#fae79e" d="M 197.5,537.5 C 194.937,540.211 191.77,541.877 188,542.5C 179.255,542.026 171.422,539.192 164.5,534C 161.655,532.455 159.655,530.288 158.5,527.5C 156.678,523.855 154.844,520.189 153,516.5C 152.503,513.854 152.336,511.187 152.5,508.5C 153.267,507.828 153.934,506.995 154.5,506C 157.167,505.333 159.833,505.333 162.5,506C 171.942,511.106 178.942,518.439 183.5,528C 188.111,529.16 192.777,529.993 197.5,530.5C 197.5,532.833 197.5,535.167 197.5,537.5 Z"/></g>
<g><path style="opacity:1" fill="#f6d379" d="M 123.5,504.5 C 124.79,505.058 125.623,506.058 126,507.5C 126.333,507.167 126.667,506.833 127,506.5C 131.814,509.739 136.648,512.739 141.5,515.5C 141.238,514.022 141.571,512.689 142.5,511.5C 143.436,520.581 144.769,520.581 146.5,511.5C 147.5,511.5 148.5,511.5 149.5,511.5C 149.187,514.247 149.52,516.914 150.5,519.5C 153.694,521.223 155.361,523.889 155.5,527.5C 156.5,527.5 157.5,527.5 158.5,527.5C 159.655,530.288 161.655,532.455 164.5,534C 171.422,539.192 179.255,542.026 188,542.5C 191.77,541.877 194.937,540.211 197.5,537.5C 198.725,536.848 199.392,535.681 199.5,534C 199.333,532.833 199.167,531.667 199,530.5C 195.771,527.706 193.271,524.372 191.5,520.5C 198.016,525.851 203.683,532.018 208.5,539C 210.702,540.388 212.702,541.888 214.5,543.5C 214.892,545.179 215.392,546.846 216,548.5C 218.544,550.554 220.877,552.887 223,555.5C 223.49,556.793 223.657,558.127 223.5,559.5C 227.514,560.543 229.18,563.209 228.5,567.5C 220.943,569.283 213.276,569.783 205.5,569C 195.267,566.31 185.267,563.143 175.5,559.5C 175.719,558.325 175.386,557.325 174.5,556.5C 156.199,545.6 140.699,531.6 128,514.5C 126.63,511.009 125.13,507.675 123.5,504.5 Z"/></g>
<g><path style="opacity:1" fill="#ecd0a8" d="M 383.5,527.5 C 380.378,533.552 376.378,539.052 371.5,544C 369.209,546.34 366.542,547.673 363.5,548C 367.416,544.59 370.749,540.757 373.5,536.5C 375.691,531.8 378.857,527.8 383,524.5C 383.483,525.448 383.649,526.448 383.5,527.5 Z"/></g>
<g><path style="opacity:1" fill="#eccca1" d="M 123.5,527.5 C 131.285,536.957 140.285,544.957 150.5,551.5C 144.858,550.182 139.525,548.015 134.5,545C 129.536,539.485 125.869,533.651 123.5,527.5 Z"/></g>
<g><path style="opacity:1" fill="#f4cb75" d="M 355.5,522.5 C 354.708,524.257 353.375,525.591 351.5,526.5C 352.311,527.216 352.978,528.05 353.5,529C 351.621,530.997 351.288,533.164 352.5,535.5C 354.658,531.087 357.991,529.42 362.5,530.5C 361.135,531.941 359.635,533.274 358,534.5C 357.517,535.448 357.351,536.448 357.5,537.5C 360.642,537.201 362.809,535.534 364,532.5C 364.5,533 365,533.5 365.5,534C 364.333,535.833 363.167,537.667 362,539.5C 361.586,539.043 361.086,538.709 360.5,538.5C 359.548,540.045 359.215,541.712 359.5,543.5C 352.928,550.123 345.594,555.79 337.5,560.5C 336.305,560.322 335.138,559.989 334,559.5C 331.95,560.791 329.783,561.291 327.5,561C 331.133,558.811 331.466,556.144 328.5,553C 329.167,552.667 329.833,552.333 330.5,552C 322.637,552.487 315.803,549.987 310,544.5C 309.833,543.833 309.667,543.167 309.5,542.5C 310.866,540.63 312.033,538.63 313,536.5C 315.277,535.883 317.444,535.216 319.5,534.5C 327.215,532.551 334.881,530.217 342.5,527.5C 346.934,526.117 351.267,524.451 355.5,522.5 Z"/></g>
<g><path style="opacity:1" fill="#8f5c3b" d="M 101.5,487.5 C 103.497,489.483 105.497,491.483 107.5,493.5C 106.252,494.334 105.585,495.667 105.5,497.5C 106.871,505.575 110.371,512.575 116,518.5C 116.483,517.552 116.649,516.552 116.5,515.5C 117.72,517.05 117.72,518.716 116.5,520.5C 112.038,516.267 108.538,511.267 106,505.5C 105.333,506.833 105.333,508.167 106,509.5C 110.585,521.756 117.918,532.09 128,540.5C 125.825,535.827 123.325,531.16 120.5,526.5C 121.791,526.263 122.791,526.596 123.5,527.5C 125.869,533.651 129.536,539.485 134.5,545C 139.525,548.015 144.858,550.182 150.5,551.5C 150.073,552.262 150.073,553.262 150.5,554.5C 146.438,553.198 142.438,552.031 138.5,551C 139.823,551.816 140.489,552.983 140.5,554.5C 132.589,547.765 124.756,540.765 117,533.5C 112.648,528.113 108.815,522.447 105.5,516.5C 103.051,507.019 101.718,497.352 101.5,487.5 Z"/></g>
<g><path style="opacity:1" fill="#eccaa0" d="M 369.5,537.5 C 369.938,537.435 370.272,537.601 370.5,538C 366.868,542.634 362.868,546.967 358.5,551C 356.564,551.813 354.564,552.313 352.5,552.5C 357.844,547.157 363.511,542.157 369.5,537.5 Z"/></g>
<g><path style="opacity:1" fill="#9c7351" d="M 383.5,527.5 C 383.371,529.216 383.038,530.883 382.5,532.5C 378.14,540.526 371.806,546.526 363.5,550.5C 356.861,554.489 350.194,558.489 343.5,562.5C 342.494,561.604 342.494,560.938 343.5,560.5C 346.94,558.945 350.273,557.112 353.5,555C 352.906,554.536 352.239,554.369 351.5,554.5C 351.328,553.508 351.662,552.842 352.5,552.5C 354.564,552.313 356.564,551.813 358.5,551C 362.868,546.967 366.868,542.634 370.5,538C 370.272,537.601 369.938,537.435 369.5,537.5C 370.403,535.38 371.737,535.046 373.5,536.5C 370.749,540.757 367.416,544.59 363.5,548C 366.542,547.673 369.209,546.34 371.5,544C 376.378,539.052 380.378,533.552 383.5,527.5 Z"/></g>
<g><path style="opacity:1" fill="#efd7b0" d="M 363.5,550.5 C 363.489,552.017 362.823,553.184 361.5,554C 353.599,560.451 344.932,565.617 335.5,569.5C 337.549,566.45 340.216,564.117 343.5,562.5C 350.194,558.489 356.861,554.489 363.5,550.5 Z"/></g>
<g><path style="opacity:1" fill="#a18873" d="M 140.5,554.5 C 141.5,555.167 142.5,555.833 143.5,556.5C 146.901,560.904 150.901,564.571 155.5,567.5C 148.947,564.946 143.947,560.613 140.5,554.5 Z"/></g>
<g><path style="opacity:1" fill="#e5b697" d="M 351.5,554.5 C 352.239,554.369 352.906,554.536 353.5,555C 350.273,557.112 346.94,558.945 343.5,560.5C 345.313,557.353 347.98,555.353 351.5,554.5 Z"/></g>
<g><path style="opacity:1" fill="#f1d7ab" d="M 150.5,554.5 C 153.179,555.226 155.846,556.059 158.5,557C 164.801,563.477 171.801,568.977 179.5,573.5C 172.453,573.94 165.787,572.273 159.5,568.5C 158.104,565.249 156.438,562.083 154.5,559C 150.899,558.06 147.399,556.893 144,555.5C 143.601,555.728 143.435,556.062 143.5,556.5C 142.5,555.833 141.5,555.167 140.5,554.5C 140.489,552.983 139.823,551.816 138.5,551C 142.438,552.031 146.438,553.198 150.5,554.5 Z"/></g>
<g><path style="opacity:1" fill="#faf2e0" d="M 159.5,568.5 C 158.167,568.167 156.833,567.833 155.5,567.5C 150.901,564.571 146.901,560.904 143.5,556.5C 143.435,556.062 143.601,555.728 144,555.5C 147.399,556.893 150.899,558.06 154.5,559C 156.438,562.083 158.104,565.249 159.5,568.5 Z"/></g>
<g><path style="opacity:1" fill="#efb85e" d="M 118.5,491.5 C 118.508,496.581 120.175,500.915 123.5,504.5C 125.13,507.675 126.63,511.009 128,514.5C 140.699,531.6 156.199,545.6 174.5,556.5C 175.386,557.325 175.719,558.325 175.5,559.5C 185.267,563.143 195.267,566.31 205.5,569C 213.276,569.783 220.943,569.283 228.5,567.5C 229.18,563.209 227.514,560.543 223.5,559.5C 223.657,558.127 223.49,556.793 223,555.5C 220.877,552.887 218.544,550.554 216,548.5C 215.392,546.846 214.892,545.179 214.5,543.5C 214.613,540.951 213.946,538.618 212.5,536.5C 213,536.167 213.5,535.833 214,535.5C 216.487,536.654 218.321,538.487 219.5,541C 222.206,542.908 225.206,543.741 228.5,543.5C 228.357,545.262 228.691,546.929 229.5,548.5C 250.891,560.883 273.558,570.883 297.5,578.5C 295.852,579.927 293.852,580.76 291.5,581C 278.875,583.244 267.542,585.077 257.5,586.5C 252.833,587.833 248.167,587.833 243.5,586.5C 234.77,585.084 224.77,583.25 213.5,581C 201.874,577.96 190.874,573.46 180.5,567.5C 180.167,568.167 179.833,568.833 179.5,569.5C 163.704,558.941 148.87,546.275 135,531.5C 122.078,515.984 112.578,498.651 106.5,479.5C 106.364,476.449 106.698,473.449 107.5,470.5C 105.673,468.513 104.673,466.179 104.5,463.5C 105.833,463.5 107.167,463.5 108.5,463.5C 108.5,464.833 108.5,466.167 108.5,467.5C 110.143,467.52 111.476,466.853 112.5,465.5C 113.906,466.951 115.406,468.284 117,469.5C 117.053,472.202 116.553,474.869 115.5,477.5C 116.018,482.402 117.018,487.069 118.5,491.5 Z"/></g>
<g><path style="opacity:1" fill="#a47f5a" d="M 155.5,567.5 C 156.833,567.833 158.167,568.167 159.5,568.5C 165.787,572.273 172.453,573.94 179.5,573.5C 180.625,574.348 180.625,575.348 179.5,576.5C 175.538,575.624 171.538,574.958 167.5,574.5C 163.277,572.538 159.277,570.205 155.5,567.5 Z"/></g>
<g><path style="opacity:1" fill="#874a2a" d="M 405.5,461.5 C 406.634,463.966 406.801,466.633 406,469.5C 404.801,476.628 403.135,483.628 401,490.5C 395.648,503.197 389.815,515.53 383.5,527.5C 383.649,526.448 383.483,525.448 383,524.5C 378.857,527.8 375.691,531.8 373.5,536.5C 371.737,535.046 370.403,535.38 369.5,537.5C 363.511,542.157 357.844,547.157 352.5,552.5C 351.662,552.842 351.328,553.508 351.5,554.5C 347.98,555.353 345.313,557.353 343.5,560.5C 342.494,560.938 342.494,561.604 343.5,562.5C 340.216,564.117 337.549,566.45 335.5,569.5C 321.299,583.908 303.965,590.908 283.5,590.5C 283.5,589.833 283.167,589.5 282.5,589.5C 275.496,589.227 268.496,588.894 261.5,588.5C 260.167,587.833 258.833,587.167 257.5,586.5C 267.542,585.077 278.875,583.244 291.5,581C 293.852,580.76 295.852,579.927 297.5,578.5C 312.109,574.979 325.442,568.979 337.5,560.5C 345.594,555.79 352.928,550.123 359.5,543.5C 382.797,521.58 397.797,494.913 404.5,463.5C 405.338,463.158 405.672,462.492 405.5,461.5 Z"/></g>
<g><path style="opacity:1" fill="#f0d3a4" d="M 167.5,574.5 C 171.538,574.958 175.538,575.624 179.5,576.5C 188.88,578.87 198.213,581.203 207.5,583.5C 208.527,585.194 209.861,586.527 211.5,587.5C 199.818,587.247 188.485,585.081 177.5,581C 173.589,579.556 170.256,577.389 167.5,574.5 Z"/></g>
<g><path style="opacity:1" fill="#ac7d4d" d="M 243.5,586.5 C 248.167,587.833 252.833,587.833 257.5,586.5C 258.833,587.167 260.167,587.833 261.5,588.5C 253.445,589.889 245.445,589.556 237.5,587.5C 239.621,587.675 241.621,587.341 243.5,586.5 Z"/></g>
<g><path style="opacity:1" fill="#f1d4a2" d="M 210.5,583.5 C 219.364,585.67 228.364,587.003 237.5,587.5C 245.445,589.556 253.445,589.889 261.5,588.5C 268.496,588.894 275.496,589.227 282.5,589.5C 275.956,592.894 268.956,595.227 261.5,596.5C 261.082,595.778 260.416,595.278 259.5,595C 246.663,594.296 233.997,592.463 221.5,589.5C 220.584,589.543 219.917,589.876 219.5,590.5C 216.19,588.518 213.19,586.185 210.5,583.5 Z"/></g>
<g><path style="opacity:1" fill="#9c7c64" d="M 207.5,583.5 C 208.5,583.5 209.5,583.5 210.5,583.5C 213.19,586.185 216.19,588.518 219.5,590.5C 232.789,597.203 246.789,599.203 261.5,596.5C 268.956,595.227 275.956,592.894 282.5,589.5C 283.167,589.5 283.5,589.833 283.5,590.5C 276.723,594.26 269.389,596.76 261.5,598C 243.326,601.2 226.66,597.7 211.5,587.5C 209.861,586.527 208.527,585.194 207.5,583.5 Z"/></g>
<g><path style="opacity:1" fill="#f9eeda" d="M 219.5,590.5 C 219.917,589.876 220.584,589.543 221.5,589.5C 233.997,592.463 246.663,594.296 259.5,595C 260.416,595.278 261.082,595.778 261.5,596.5C 246.789,599.203 232.789,597.203 219.5,590.5 Z"/></g>
<g><path style="opacity:1" fill="#e7e4da" d="M -0.5,727.5 C 0.802988,729.142 2.13632,730.809 3.5,732.5C 2.16667,732.5 0.833333,732.5 -0.5,732.5C -0.5,730.833 -0.5,729.167 -0.5,727.5 Z"/></g>
<g><path style="opacity:1" fill="#eae8de" d="M 517.5,730.5 C 517.5,731.167 517.5,731.833 517.5,732.5C 516.5,732.5 515.5,732.5 514.5,732.5C 515.29,731.599 516.29,730.932 517.5,730.5 Z"/></g>
</svg>
