<?xml version="1.0" encoding="UTF-8"?>
<!-- Author: Jiachun Li -->
<!DOCTYPE svg PUBLIC "-//W3C//DTD SVG 1.1//EN" "http://www.w3.org/Graphics/SVG/1.1/DTD/svg11.dtd">
<svg xmlns="http://www.w3.org/2000/svg" version="1.1" width="518px" height="732px" style="shape-rendering:geometricPrecision; text-rendering:geometricPrecision; image-rendering:optimizeQuality; fill-rule:evenodd; clip-rule:evenodd" xmlns:xlink="http://www.w3.org/1999/xlink">
<g><path style="opacity:1" fill="#000000" d="M -0.5,-0.5 C 172.167,-0.5 344.833,-0.5 517.5,-0.5C 517.5,242.5 517.5,485.5 517.5,728.5C 516.167,729.167 515.167,730.167 514.5,731.5C 344.167,731.5 173.833,731.5 3.5,731.5C 2.5,729.833 1.16667,728.5 -0.5,727.5C -0.5,484.833 -0.5,242.167 -0.5,-0.5 Z"/></g>
<g><path style="opacity:1" fill="#dcd8ce" d="M 503.5,717.5 C 503.5,482.5 503.5,247.5 503.5,12.5C 340.5,12.5 177.5,12.5 14.5,12.5C 14.5,246.833 14.5,481.167 14.5,715.5C 14.5,715.833 14.5,716.167 14.5,716.5C 14.5,716.833 14.5,717.167 14.5,717.5C 13.5002,482.334 13.1669,247.001 13.5,11.5C 177.167,11.5 340.833,11.5 504.5,11.5C 504.833,247.001 504.5,482.334 503.5,717.5 Z"/></g>
<g><path style="opacity:1" fill="#fcf7e6" d="M 14.5,716.5 C 14.5,716.167 14.5,715.833 14.5,715.5C 174.624,713.67 334.958,712.837 495.5,713C 493.381,712.902 491.714,712.069 490.5,710.5C 492.075,709.554 493.742,709.554 495.5,710.5C 497,710.547 498,709.881 498.5,708.5C 497.509,707.335 496.509,706.168 495.5,705C 496.665,475.194 496.832,245.361 496,15.5C 494.881,16.5521 494.381,17.7188 494.5,19C 491.315,19.7349 488.315,19.2349 485.5,17.5C 483.541,17.8748 481.707,18.5415 480,19.5C 405.042,18.1682 329.876,17.5015 254.5,17.5C 178.228,17.839 102.061,17.839 26,17.5C 23.679,18.8217 21.5123,20.3217 19.5,22C 19.0647,24.3977 19.7313,26.731 21.5,29C 21.1637,141.686 21.1637,254.519 21.5,367.5C 21.1667,479.5 20.8333,591.5 20.5,703.5C 19.646,704.522 18.646,705.355 17.5,706C 20.4091,707.029 23.4091,708.363 26.5,710C 25.737,710.944 24.737,711.444 23.5,711.5C 21.1144,711.219 18.7811,711.219 16.5,711.5C 17.8241,485.273 17.8241,257.606 16.5,28.5C 16.4858,26.4075 17.1524,24.5741 18.5,23C 17.2559,22.5439 16.4226,23.0439 16,24.5C 15.8333,24 15.6667,23.5 15.5,23C 16.8333,21.6667 16.8333,20.3333 15.5,19C 16.0223,18.0497 16.689,17.2164 17.5,16.5C 17.1543,15.3044 16.6543,15.3044 16,16.5C 15.5172,15.552 15.3505,14.552 15.5,13.5C 176.834,13.3333 338.167,13.5 499.5,14C 500,14.5 500.5,15 501,15.5C 501.177,248.731 501.677,481.565 502.5,714C 500.667,715.788 498.667,715.954 496.5,714.5C 335.975,716.497 175.308,717.163 14.5,716.5 Z"/></g>
<g><path style="opacity:1" fill="#e8e4d7" d="M 503.5,717.5 C 340.5,717.5 177.5,717.5 14.5,717.5C 14.5,717.167 14.5,716.833 14.5,716.5C 175.308,717.163 335.975,716.497 496.5,714.5C 498.667,715.954 500.667,715.788 502.5,714C 501.677,481.565 501.177,248.731 501,15.5C 500.5,15 500,14.5 499.5,14C 338.167,13.5 176.834,13.3333 15.5,13.5C 15.3505,14.552 15.5172,15.552 16,16.5C 16.6543,15.3044 17.1543,15.3044 17.5,16.5C 16.689,17.2164 16.0223,18.0497 15.5,19C 16.8333,20.3333 16.8333,21.6667 15.5,23C 15.6667,23.5 15.8333,24 16,24.5C 16.4226,23.0439 17.2559,22.5439 18.5,23C 17.1524,24.5741 16.4858,26.4075 16.5,28.5C 17.8241,257.606 17.8241,485.273 16.5,711.5C 18.7811,711.219 21.1144,711.219 23.5,711.5C 24.737,711.444 25.737,710.944 26.5,710C 23.4091,708.363 20.4091,707.029 17.5,706C 18.646,705.355 19.646,704.522 20.5,703.5C 20.8333,591.5 21.1667,479.5 21.5,367.5C 21.1637,254.519 21.1637,141.686 21.5,29C 19.7313,26.731 19.0647,24.3977 19.5,22C 21.5123,20.3217 23.679,18.8217 26,17.5C 102.061,17.839 178.228,17.839 254.5,17.5C 329.876,17.5015 405.042,18.1682 480,19.5C 481.707,18.5415 483.541,17.8748 485.5,17.5C 488.315,19.2349 491.315,19.7349 494.5,19C 494.381,17.7188 494.881,16.5521 496,15.5C 496.832,245.361 496.665,475.194 495.5,705C 496.509,706.168 497.509,707.335 498.5,708.5C 498,709.881 497,710.547 495.5,710.5C 493.742,709.554 492.075,709.554 490.5,710.5C 491.714,712.069 493.381,712.902 495.5,713C 334.958,712.837 174.624,713.67 14.5,715.5C 14.5,481.167 14.5,246.833 14.5,12.5C 177.5,12.5 340.5,12.5 503.5,12.5C 503.5,247.5 503.5,482.5 503.5,717.5 Z"/></g>
<g><path style="opacity:1" fill="#151514" d="M 24.5,21.5 C 181.07,21.1675 337.57,21.5009 494,22.5C 494.667,250.5 494.667,478.5 494,706.5C 493.5,707 493,707.5 492.5,708C 336.833,708.667 181.167,708.667 25.5,708C 25,707.5 24.5,707 24,706.5C 23.1678,478.097 23.3345,249.764 24.5,21.5 Z"/></g>
<g><path style="opacity:1" fill="#fcf6e6" d="M 30.5,28.5 C 182.833,28.5 335.167,28.5 487.5,28.5C 487.5,252.5 487.5,476.5 487.5,700.5C 335.167,700.5 182.833,700.5 30.5,700.5C 30.5,476.5 30.5,252.5 30.5,28.5 Z"/></g>
<g><path style="opacity:1" fill="#0d0c09" d="M 124.5,47.5 C 125.873,47.3433 127.207,47.51 128.5,48C 155.739,74.7376 182.406,101.904 208.5,129.5C 182.406,157.096 155.739,184.262 128.5,211C 127.167,211.667 125.833,211.667 124.5,211C 97.2611,184.262 70.5945,157.096 44.5,129.5C 44.6667,128.833 44.8333,128.167 45,127.5C 71.7016,100.965 98.2016,74.2987 124.5,47.5 Z"/></g>
<g><path style="opacity:1" fill="#fbf5e6" d="M 125.5,53.5 C 151.763,78.095 177.429,103.428 202.5,129.5C 177.5,155.167 152.167,180.5 126.5,205.5C 100.833,180.5 75.5,155.167 50.5,129.5C 75.5211,104.146 100.521,78.8125 125.5,53.5 Z"/></g>
<g><path style="opacity:1" fill="#050404" d="M 123.5,90.5 C 125.833,90.5 128.167,90.5 130.5,90.5C 130.169,115.672 130.502,140.672 131.5,165.5C 133.46,167.156 135.46,168.823 137.5,170.5C 129.5,171.833 121.5,171.833 113.5,170.5C 115.437,169.069 117.27,167.402 119,165.5C 119.833,146.491 119.666,127.491 118.5,108.5C 114.558,109.6 110.558,109.767 106.5,109C 104.385,108.576 103.552,107.409 104,105.5C 109.645,109.803 114.811,109.47 119.5,104.5C 119.167,103.833 118.833,103.167 118.5,102.5C 112.866,106.297 107.366,106.297 102,102.5C 101.506,100.866 101.34,99.1992 101.5,97.5C 103.167,97.5 104.833,97.5 106.5,97.5C 106.5,98.8333 106.5,100.167 106.5,101.5C 114.553,101.436 120.22,97.769 123.5,90.5 Z"/></g>
<g><path style="opacity:1" fill="#1a1714" d="M 113.5,177.5 C 123.167,176.833 132.833,176.167 142.5,175.5C 141.5,174.167 140.5,172.833 139.5,171.5C 139.167,170.5 138.5,169.833 137.5,169.5C 136.878,168.373 136.045,167.373 135,166.5C 135,66.5 135.667,66.5 137,166.5C 140.05,170.095 143.216,173.595 146.5,177C 135.505,177.5 124.505,177.667 113.5,177.5 Z"/></g>
<g><path style="opacity:1" fill="#47473f" d="M 123.5,90.5 C 125.948,89.5269 128.615,89.1936 131.5,89.5C 131.5,114.833 131.5,140.167 131.5,165.5C 130.502,140.672 130.169,115.672 130.5,90.5C 128.167,90.5 125.833,90.5 123.5,90.5 Z"/></g>
<g><path style="opacity:1" fill="#58554d" d="M 137.5,169.5 C 138.5,169.833 139.167,170.5 139.5,171.5C 130.244,172.638 120.911,172.805 111.5,172C 112.044,171.283 112.711,170.783 113.5,170.5C 121.5,171.833 129.5,171.833 137.5,170.5C 137.5,170.167 137.5,169.833 137.5,169.5 Z"/></g>
<g><path style="opacity:1" fill="#3d3c39" d="M 142.5,175.5 C 132.833,176.167 123.167,176.833 113.5,177.5C 112.957,177.44 112.624,177.107 112.5,176.5C 122.478,175.501 132.478,175.168 142.5,175.5 Z"/></g>
<g><path style="opacity:1" fill="#a27f67" d="M 304.5,273.5 C 303.735,273.923 302.902,274.257 302,274.5C 292.01,270.225 281.843,266.891 271.5,264.5C 275.449,264.307 275.449,263.807 271.5,263C 249.406,258.045 227.406,258.378 205.5,264C 219.98,263.751 234.48,263.251 249,262.5C 252.352,262.502 255.518,262.835 258.5,263.5C 247.663,263.18 236.997,264.18 226.5,266.5C 227.263,265.732 228.263,265.232 229.5,265C 208.421,263.545 189.088,268.545 171.5,280C 165.67,284.333 160.004,288.833 154.5,293.5C 154.167,293.5 153.833,293.5 153.5,293.5C 154.833,291.833 156.167,290.167 157.5,288.5C 203.307,252.966 252.307,247.966 304.5,273.5 Z"/></g>
<g><path style="opacity:1" fill="#f7ebd4" d="M 271.5,264.5 C 267.215,263.705 262.881,263.372 258.5,263.5C 255.518,262.835 252.352,262.502 249,262.5C 234.48,263.251 219.98,263.751 205.5,264C 227.406,258.378 249.406,258.045 271.5,263C 275.449,263.807 275.449,264.307 271.5,264.5 Z"/></g>
<g><path style="opacity:1" fill="#f8eedb" d="M 226.5,266.5 C 200.985,271.117 177.318,280.45 155.5,294.5C 154.893,294.376 154.56,294.043 154.5,293.5C 160.004,288.833 165.67,284.333 171.5,280C 189.088,268.545 208.421,263.545 229.5,265C 228.263,265.232 227.263,265.732 226.5,266.5 Z"/></g>
<g><path style="opacity:1" fill="#f4e479" d="M 251.5,273.5 C 265.789,273.124 279.789,274.791 293.5,278.5C 287.5,279.167 281.5,279.833 275.5,280.5C 250.636,282.329 228.97,291.329 210.5,307.5C 208.374,309.359 206.041,311.025 203.5,312.5C 202.761,312.631 202.094,312.464 201.5,312C 200.268,309.359 198.602,307.193 196.5,305.5C 203.821,298.893 211.821,293.059 220.5,288C 231.184,283.79 241.517,278.957 251.5,273.5 Z"/></g>
<g><path style="opacity:1" fill="#f8e9d6" d="M 305.5,277.5 C 308.029,276.551 310.362,277.218 312.5,279.5C 310.605,281.486 308.605,281.819 306.5,280.5C 306.737,279.209 306.404,278.209 305.5,277.5 Z"/></g>
<g><path style="opacity:1" fill="#9d785a" d="M 306.5,274.5 C 311.112,276.327 315.779,278.16 320.5,280C 316.962,280.663 315.962,282.496 317.5,285.5C 316.578,290.982 313.245,293.649 307.5,293.5C 298.363,294.647 289.363,293.814 280.5,291C 276.167,290.333 271.833,290.333 267.5,291C 257.306,293.676 247.306,296.843 237.5,300.5C 239.463,299.469 240.797,298.469 241.5,297.5C 240.402,296.603 240.402,295.77 241.5,295C 243.9,294.256 246.233,293.423 248.5,292.5C 254.293,293.107 259.96,291.941 265.5,289C 271.97,288.836 278.304,287.836 284.5,286C 278.843,285.501 273.176,285.334 267.5,285.5C 275.735,284.186 284.068,284.186 292.5,285.5C 288.409,287.083 284.076,288.25 279.5,289C 291.355,293.261 303.188,293.428 315,289.5C 315.497,287.19 315.663,284.857 315.5,282.5C 311.481,282.646 307.481,282.979 303.5,283.5C 302.552,282.022 301.219,281.022 299.5,280.5C 299.5,280.167 299.5,279.833 299.5,279.5C 301.717,280.369 304.05,280.702 306.5,280.5C 308.605,281.819 310.605,281.486 312.5,279.5C 310.362,277.218 308.029,276.551 305.5,277.5C 304.957,277.44 304.624,277.107 304.5,276.5C 305.243,275.818 305.909,275.151 306.5,274.5 Z"/></g>
<g><path style="opacity:1" fill="#f5efcd" d="M 292.5,285.5 C 296.425,285.57 300.091,284.903 303.5,283.5C 307.481,282.979 311.481,282.646 315.5,282.5C 315.663,284.857 315.497,287.19 315,289.5C 303.188,293.428 291.355,293.261 279.5,289C 284.076,288.25 288.409,287.083 292.5,285.5 Z"/></g>
<g><path style="opacity:1" fill="#f1e3bf" d="M 267.5,285.5 C 273.176,285.334 278.843,285.501 284.5,286C 278.304,287.836 271.97,288.836 265.5,289C 259.96,291.941 254.293,293.107 248.5,292.5C 254.73,289.885 261.063,287.552 267.5,285.5 Z"/></g>
<g><path style="opacity:1" fill="#864c2b" d="M 275.5,280.5 C 283.5,280.5 291.5,280.5 299.5,280.5C 301.219,281.022 302.552,282.022 303.5,283.5C 300.091,284.903 296.425,285.57 292.5,285.5C 284.068,284.186 275.735,284.186 267.5,285.5C 261.063,287.552 254.73,289.885 248.5,292.5C 246.233,293.423 243.9,294.256 241.5,295C 240.402,295.77 240.402,296.603 241.5,297.5C 237.018,298.37 232.685,299.703 228.5,301.5C 225.122,303.238 221.789,304.238 218.5,304.5C 215.833,305.5 213.167,306.5 210.5,307.5C 228.97,291.329 250.636,282.329 275.5,280.5 Z"/></g>
<g><path style="opacity:1" fill="#f6f2ce" d="M 307.5,293.5 C 307.611,294.117 307.944,294.617 308.5,295C 306.975,296.009 305.308,296.509 303.5,296.5C 303.5,297.5 303.5,298.5 303.5,299.5C 297.491,299.334 291.491,299.501 285.5,300C 277.728,302.629 269.728,303.962 261.5,304C 260.833,304.667 260.167,305.333 259.5,306C 252.726,307.763 246.059,309.596 239.5,311.5C 239.649,312.552 239.483,313.552 239,314.5C 238.667,314.167 238.333,313.833 238,313.5C 236.581,314.46 235.081,315.293 233.5,316C 233.833,316.333 234.167,316.667 234.5,317C 231.124,318.899 227.457,319.732 223.5,319.5C 223.785,321.288 223.452,322.955 222.5,324.5C 219.349,328.151 216.016,331.651 212.5,335C 210.866,335.494 209.199,335.66 207.5,335.5C 206.241,338.49 204.908,341.49 203.5,344.5C 196.64,347.995 189.973,351.995 183.5,356.5C 184.384,352.608 185.717,348.941 187.5,345.5C 196.711,333.948 206.711,322.948 217.5,312.5C 223.899,307.971 230.565,303.971 237.5,300.5C 247.306,296.843 257.306,293.676 267.5,291C 271.833,290.333 276.167,290.333 280.5,291C 289.363,293.814 298.363,294.647 307.5,293.5 Z"/></g>
<g><path style="opacity:1" fill="#86492a" d="M 258.5,263.5 C 262.881,263.372 267.215,263.705 271.5,264.5C 281.843,266.891 292.01,270.225 302,274.5C 302.902,274.257 303.735,273.923 304.5,273.5C 305.492,273.328 306.158,273.662 306.5,274.5C 305.909,275.151 305.243,275.818 304.5,276.5C 304.624,277.107 304.957,277.44 305.5,277.5C 306.404,278.209 306.737,279.209 306.5,280.5C 304.05,280.702 301.717,280.369 299.5,279.5C 297.5,279.167 295.5,278.833 293.5,278.5C 279.789,274.791 265.789,273.124 251.5,273.5C 219.617,273.462 190.95,282.795 165.5,301.5C 150.934,310.397 138.934,322.064 129.5,336.5C 121.723,345.711 115.723,356.044 111.5,367.5C 107.764,375.07 104.931,383.07 103,391.5C 101.202,396.689 100.369,402.022 100.5,407.5C 98.9805,413.762 98.3138,420.262 98.5,427C 98.339,434.064 99.0057,440.897 100.5,447.5C 100.899,453.067 101.899,458.401 103.5,463.5C 113.528,505.28 136.528,537.614 172.5,560.5C 174.751,563.295 177.418,565.628 180.5,567.5C 180.833,566.833 181.167,566.167 181.5,565.5C 191.885,571.463 202.885,575.963 214.5,579C 225.838,580.923 235.838,582.757 244.5,584.5C 243.609,585.11 242.609,585.443 241.5,585.5C 231.682,585.244 222.015,583.911 212.5,581.5C 211.584,581.543 210.917,581.876 210.5,582.5C 210.167,582.5 209.833,582.5 209.5,582.5C 208.373,581.878 207.373,581.045 206.5,580C 197.541,579.057 188.874,577.224 180.5,574.5C 181.625,573.348 181.625,572.348 180.5,571.5C 172.172,565.825 164.172,559.825 156.5,553.5C 154.723,552.4 152.723,551.566 150.5,551C 152.359,550.399 152.692,549.566 151.5,548.5C 141.862,543.163 133.529,536.163 126.5,527.5C 125.26,526.027 124.26,524.36 123.5,522.5C 124.706,520.484 124.706,518.484 123.5,516.5C 121.093,515.177 119.093,513.51 117.5,511.5C 115.502,505.861 113.502,500.194 111.5,494.5C 111.236,491.243 109.57,489.243 106.5,488.5C 106.5,487.5 106.5,486.5 106.5,485.5C 105.167,485.5 103.833,485.5 102.5,485.5C 102.122,483.079 101.455,480.746 100.5,478.5C 100.955,476.633 101.622,474.8 102.5,473C 102.472,471.93 102.139,471.097 101.5,470.5C 100.524,462.642 99.1909,454.976 97.5,447.5C 97.9227,445.219 97.256,443.552 95.5,442.5C 94.9907,433.457 93.9907,424.457 92.5,415.5C 91.5481,417.045 91.2148,418.712 91.5,420.5C 90.5318,418.393 90.1984,416.059 90.5,413.5C 91.3989,401.172 93.8989,389.172 98,377.5C 102.664,366.175 107.831,355.175 113.5,344.5C 114.791,344.737 115.791,344.404 116.5,343.5C 125.57,332.362 133.903,320.695 141.5,308.5C 143.054,307.086 144.388,305.419 145.5,303.5C 144.645,302.707 143.811,303.04 143,304.5C 142.283,303.956 141.783,303.289 141.5,302.5C 145.858,299.987 149.858,296.987 153.5,293.5C 153.833,293.5 154.167,293.5 154.5,293.5C 154.56,294.043 154.893,294.376 155.5,294.5C 177.318,280.45 200.985,271.117 226.5,266.5C 236.997,264.18 247.663,263.18 258.5,263.5 Z"/></g>
<g><path style="opacity:1" fill="#d0ab63" d="M 293.5,278.5 C 295.5,278.833 297.5,279.167 299.5,279.5C 299.5,279.833 299.5,280.167 299.5,280.5C 291.5,280.5 283.5,280.5 275.5,280.5C 281.5,279.833 287.5,279.167 293.5,278.5 Z"/></g>
<g><path style="opacity:1" fill="#f8f0a7" d="M 251.5,273.5 C 241.517,278.957 231.184,283.79 220.5,288C 211.821,293.059 203.821,298.893 196.5,305.5C 188.521,311.479 181.521,318.479 175.5,326.5C 172.981,326.848 171.147,328.181 170,330.5C 170.422,328.068 169.755,325.735 168,323.5C 167.418,327.251 165.251,328.918 161.5,328.5C 161.785,326.712 161.452,325.045 160.5,323.5C 159.808,324.025 159.308,324.692 159,325.5C 154.327,324.579 150.494,322.245 147.5,318.5C 148,318.167 148.5,317.833 149,317.5C 150.333,318.167 151.667,318.833 153,319.5C 154.667,318.167 156.333,318.167 158,319.5C 159.608,319.026 159.774,318.359 158.5,317.5C 156.929,316.691 155.262,316.357 153.5,316.5C 153.67,315.178 153.337,314.011 152.5,313C 154.137,311.049 155.637,311.216 157,313.5C 158.717,312.012 159.884,310.179 160.5,308C 161.76,306.887 162.927,306.72 164,307.5C 164.898,305.612 165.398,303.612 165.5,301.5C 190.95,282.795 219.617,273.462 251.5,273.5 Z"/></g>
<g><path style="opacity:1" fill="#e8cca7" d="M 241.5,297.5 C 240.797,298.469 239.463,299.469 237.5,300.5C 233.973,301.26 230.64,302.594 227.5,304.5C 227.167,304.333 226.833,304.167 226.5,304C 227.381,303.292 228.047,302.458 228.5,301.5C 232.685,299.703 237.018,298.37 241.5,297.5 Z"/></g>
<g><path style="opacity:1" fill="#f4edcb" d="M 157.5,288.5 C 156.167,290.167 154.833,291.833 153.5,293.5C 149.858,296.987 145.858,299.987 141.5,302.5C 135.875,306.291 131.042,310.957 127,316.5C 118.227,332.4 108.727,347.734 98.5,362.5C 98.255,359.135 98.9217,355.968 100.5,353C 99.6471,350.418 100.48,348.252 103,346.5C 105.072,343.029 106.572,339.362 107.5,335.5C 108.833,335.5 110.167,335.5 111.5,335.5C 111.34,333.801 111.506,332.134 112,330.5C 114.393,327.048 116.226,323.381 117.5,319.5C 118.833,319.5 120.167,319.5 121.5,319.5C 121.134,315.567 122.8,312.9 126.5,311.5C 128.167,307.167 131.167,304.167 135.5,302.5C 137.085,299.042 139.752,297.042 143.5,296.5C 143.561,294.408 144.561,292.908 146.5,292C 150.142,291.428 153.309,289.928 156,287.5C 156.765,287.57 157.265,287.903 157.5,288.5 Z"/></g>
<g><path style="opacity:1" fill="#996f4f" d="M 237.5,300.5 C 230.565,303.971 223.899,307.971 217.5,312.5C 206.711,322.948 196.711,333.948 187.5,345.5C 187.216,343.585 187.549,341.919 188.5,340.5C 189.329,341.332 190.162,340.999 191,339.5C 196.427,332.069 202.593,325.236 209.5,319C 208.833,318.333 208.167,318.333 207.5,319C 202.274,323.728 197.274,328.561 192.5,333.5C 191.659,331.621 191.325,329.621 191.5,327.5C 191.833,326.833 192.167,326.167 192.5,325.5C 192.929,326.953 193.096,328.619 193,330.5C 202.066,321.608 210.566,312.941 218.5,304.5C 221.789,304.238 225.122,303.238 228.5,301.5C 228.047,302.458 227.381,303.292 226.5,304C 226.833,304.167 227.167,304.333 227.5,304.5C 230.64,302.594 233.973,301.26 237.5,300.5 Z"/></g>
<g><path style="opacity:1" fill="#f3e7bf" d="M 218.5,304.5 C 210.566,312.941 202.066,321.608 193,330.5C 193.096,328.619 192.929,326.953 192.5,325.5C 195.465,320.57 199.131,316.237 203.5,312.5C 206.041,311.025 208.374,309.359 210.5,307.5C 213.167,306.5 215.833,305.5 218.5,304.5 Z"/></g>
<g><path style="opacity:1" fill="#f0e1bc" d="M 141.5,308.5 C 133.903,320.695 125.57,332.362 116.5,343.5C 115.957,343.44 115.624,343.107 115.5,342.5C 116.806,338.554 118.639,334.888 121,331.5C 127.667,323.5 134.333,315.5 141,307.5C 141.399,307.728 141.565,308.062 141.5,308.5 Z"/></g>
<g><path style="opacity:1" fill="#f1cf66" d="M 196.5,305.5 C 198.602,307.193 200.268,309.359 201.5,312C 202.094,312.464 202.761,312.631 203.5,312.5C 199.131,316.237 195.465,320.57 192.5,325.5C 192.167,326.167 191.833,326.833 191.5,327.5C 189.5,330.167 187.5,332.833 185.5,335.5C 184.5,335.5 183.5,335.5 182.5,335.5C 182.558,339.701 181.558,340.201 179.5,337C 181.657,335.915 181.824,334.749 180,333.5C 178.667,335.167 177.333,336.833 176,338.5C 175.759,335.711 175.092,333.044 174,330.5C 172.951,332.618 171.451,334.284 169.5,335.5C 170.745,332.013 172.745,329.013 175.5,326.5C 181.521,318.479 188.521,311.479 196.5,305.5 Z"/></g>
<g><path style="opacity:1" fill="#e8d0ae" d="M 188.5,340.5 C 189.569,338.031 190.902,335.698 192.5,333.5C 197.274,328.561 202.274,323.728 207.5,319C 208.167,318.333 208.833,318.333 209.5,319C 202.593,325.236 196.427,332.069 191,339.5C 190.162,340.999 189.329,341.332 188.5,340.5 Z"/></g>
<g><path style="opacity:1" fill="#f4d8b2" d="M 133.5,322.5 C 135.008,325.08 134.341,327.08 131.5,328.5C 131.167,328.167 130.833,327.833 130.5,327.5C 131.763,325.971 132.763,324.305 133.5,322.5 Z"/></g>
<g><path style="opacity:1" fill="#f8e79a" d="M 165.5,301.5 C 165.398,303.612 164.898,305.612 164,307.5C 162.927,306.72 161.76,306.887 160.5,308C 159.884,310.179 158.717,312.012 157,313.5C 155.637,311.216 154.137,311.049 152.5,313C 153.337,314.011 153.67,315.178 153.5,316.5C 155.262,316.357 156.929,316.691 158.5,317.5C 159.774,318.359 159.608,319.026 158,319.5C 156.333,318.167 154.667,318.167 153,319.5C 151.667,318.833 150.333,318.167 149,317.5C 148.5,317.833 148,318.167 147.5,318.5C 150.494,322.245 154.327,324.579 159,325.5C 159.308,324.692 159.808,324.025 160.5,323.5C 161.452,325.045 161.785,326.712 161.5,328.5C 165.251,328.918 167.418,327.251 168,323.5C 169.755,325.735 170.422,328.068 170,330.5C 171.147,328.181 172.981,326.848 175.5,326.5C 172.745,329.013 170.745,332.013 169.5,335.5C 165.636,340.574 162.303,345.907 159.5,351.5C 158.5,351.5 157.5,351.5 156.5,351.5C 155.404,355.449 154.238,359.449 153,363.5C 150.998,359.658 149.498,355.658 148.5,351.5C 145.979,351.44 143.646,352.106 141.5,353.5C 137.567,349.787 132.9,347.287 127.5,346C 125.448,343.199 126.281,341.033 130,339.5C 131.131,340.604 131.965,340.271 132.5,338.5C 131.726,337.289 130.893,337.289 130,338.5C 129.536,337.906 129.369,337.239 129.5,336.5C 138.934,322.064 150.934,310.397 165.5,301.5 Z"/></g>
<g><path style="opacity:1" fill="#9a7655" d="M 141.5,302.5 C 141.783,303.289 142.283,303.956 143,304.5C 143.811,303.04 144.645,302.707 145.5,303.5C 144.388,305.419 143.054,307.086 141.5,308.5C 141.565,308.062 141.399,307.728 141,307.5C 134.333,315.5 127.667,323.5 121,331.5C 118.639,334.888 116.806,338.554 115.5,342.5C 115.624,343.107 115.957,343.44 116.5,343.5C 115.791,344.404 114.791,344.737 113.5,344.5C 113.804,343.85 114.137,343.183 114.5,342.5C 114.154,341.304 113.654,341.304 113,342.5C 106.891,351.729 101.058,361.063 95.5,370.5C 95.1667,370.5 94.8333,370.5 94.5,370.5C 95.8333,367.833 97.1667,365.167 98.5,362.5C 108.727,347.734 118.227,332.4 127,316.5C 131.042,310.957 135.875,306.291 141.5,302.5 Z"/></g>
<g><path style="opacity:1" fill="#ebd3b0" d="M 137.5,306.5 C 138.239,306.369 138.906,306.536 139.5,307C 133.957,312.874 128.79,319.041 124,325.5C 124.732,322.701 126.066,320.034 128,317.5C 131.002,313.666 134.169,310 137.5,306.5 Z"/></g>
<g><path style="opacity:1" fill="#efbd58" d="M 185.5,335.5 C 180.027,344.438 175.694,353.772 172.5,363.5C 170.965,362.156 169.632,360.489 168.5,358.5C 165.185,357.688 162.019,357.354 159,357.5C 158.411,361.691 156.578,365.024 153.5,367.5C 155.039,361.973 157.039,356.639 159.5,351.5C 162.303,345.907 165.636,340.574 169.5,335.5C 171.451,334.284 172.951,332.618 174,330.5C 175.092,333.044 175.759,335.711 176,338.5C 177.333,336.833 178.667,335.167 180,333.5C 181.824,334.749 181.657,335.915 179.5,337C 181.558,340.201 182.558,339.701 182.5,335.5C 183.5,335.5 184.5,335.5 185.5,335.5 Z"/></g>
<g><path style="opacity:1" fill="#f2e0bd" d="M 113.5,344.5 C 107.831,355.175 102.664,366.175 98,377.5C 93.8989,389.172 91.3989,401.172 90.5,413.5C 89.71,414.609 89.21,415.942 89,417.5C 88.6667,423.167 88.3333,428.833 88,434.5C 87.3457,433.304 86.8457,433.304 86.5,434.5C 86.9424,435.739 87.6091,436.739 88.5,437.5C 89.4227,441.064 89.756,444.731 89.5,448.5C 89.1701,444.34 87.5034,440.674 84.5,437.5C 85.3482,435.591 85.6816,433.591 85.5,431.5C 85.5,430.833 85.5,430.167 85.5,429.5C 88.2036,415.559 90.2036,401.225 91.5,386.5C 91.4805,385.274 91.1471,384.274 90.5,383.5C 91.9704,379.088 93.6371,374.755 95.5,370.5C 101.058,361.063 106.891,351.729 113,342.5C 113.654,341.304 114.154,341.304 114.5,342.5C 114.137,343.183 113.804,343.85 113.5,344.5 Z"/></g>
<g><path style="opacity:1" fill="#f6de8e" d="M 129.5,336.5 C 129.369,337.239 129.536,337.906 130,338.5C 130.893,337.289 131.726,337.289 132.5,338.5C 131.965,340.271 131.131,340.604 130,339.5C 126.281,341.033 125.448,343.199 127.5,346C 132.9,347.287 137.567,349.787 141.5,353.5C 143.646,352.106 145.979,351.44 148.5,351.5C 149.498,355.658 150.998,359.658 153,363.5C 154.238,359.449 155.404,355.449 156.5,351.5C 157.5,351.5 158.5,351.5 159.5,351.5C 157.039,356.639 155.039,361.973 153.5,367.5C 152.5,367.5 151.5,367.5 150.5,367.5C 147.957,374.728 145.623,382.061 143.5,389.5C 138.677,390.227 135.677,388.227 134.5,383.5C 133.614,384.325 133.281,385.325 133.5,386.5C 132.5,386.5 131.5,386.5 130.5,386.5C 130.5,385.5 130.5,384.5 130.5,383.5C 123.407,382.791 117.074,380.125 111.5,375.5C 110.416,376.665 109.583,377.998 109,379.5C 110.079,375.631 110.912,371.631 111.5,367.5C 115.723,356.044 121.723,345.711 129.5,336.5 Z"/></g>
<g><path style="opacity:1" fill="#854729" d="M 191.5,327.5 C 191.325,329.621 191.659,331.621 192.5,333.5C 190.902,335.698 189.569,338.031 188.5,340.5C 187.549,341.919 187.216,343.585 187.5,345.5C 185.717,348.941 184.384,352.608 183.5,356.5C 182.583,359.417 181.916,362.417 181.5,365.5C 180.732,367.715 180.065,370.048 179.5,372.5C 178.656,376.099 178.323,379.766 178.5,383.5C 178.167,383.5 177.833,383.5 177.5,383.5C 177.19,382.262 176.69,382.262 176,383.5C 175.503,386.146 175.336,388.813 175.5,391.5C 174.508,391.328 173.842,391.662 173.5,392.5C 172.187,396.47 170.854,400.47 169.5,404.5C 171.139,406.806 173.139,408.806 175.5,410.5C 177.171,408.49 177.838,406.157 177.5,403.5C 178.167,403.5 178.5,403.167 178.5,402.5C 178.833,402.5 179.167,402.5 179.5,402.5C 179.25,406.102 178.25,409.435 176.5,412.5C 177.883,415.076 178.717,414.742 179,411.5C 183.06,426.015 187.727,440.348 193,454.5C 195.97,461.477 200.136,467.477 205.5,472.5C 204.375,473.652 204.375,474.652 205.5,475.5C 207.105,478.378 208.439,481.378 209.5,484.5C 209.565,484.938 209.399,485.272 209,485.5C 206.63,482.961 204.13,480.628 201.5,478.5C 183.491,458.481 172.491,435.148 168.5,408.5C 168.5,401.5 168.5,394.5 168.5,387.5C 169.207,379.385 170.54,371.385 172.5,363.5C 175.694,353.772 180.027,344.438 185.5,335.5C 187.5,332.833 189.5,330.167 191.5,327.5 Z"/></g>
<g><path style="opacity:1" fill="#ea993d" d="M 168.5,387.5 C 168.5,394.5 168.5,401.5 168.5,408.5C 168.649,409.552 168.483,410.552 168,411.5C 167.289,407.752 165.289,406.085 162,406.5C 161.377,402.068 160.377,401.735 159,405.5C 158.465,403.729 157.631,403.396 156.5,404.5C 157.309,406.071 157.643,407.738 157.5,409.5C 155.45,405.193 153.117,401.026 150.5,397C 149.487,392.529 149.321,388.029 150,383.5C 150.637,381.697 151.803,380.364 153.5,379.5C 154.667,381.167 155.833,382.833 157,384.5C 158.044,383.377 158.71,382.044 159,380.5C 159.333,382.5 159.667,384.5 160,386.5C 160.779,385.272 161.779,384.272 163,383.5C 164.713,384.137 164.879,385.137 163.5,386.5C 163.808,387.308 164.308,387.975 165,388.5C 166.011,387.663 167.178,387.33 168.5,387.5 Z"/></g>
<g><path style="opacity:1" fill="#a58b78" d="M 181.5,365.5 C 185.416,384.663 188.583,403.997 191,423.5C 193.35,431.905 195.85,440.238 198.5,448.5C 193.817,439.807 190.65,430.474 189,420.5C 187.318,405.726 184.985,391.06 182,376.5C 181.392,374.934 180.558,373.6 179.5,372.5C 180.065,370.048 180.732,367.715 181.5,365.5 Z"/></g>
<g><path style="opacity:1" fill="#f2e49e" d="M 407.5,378.5 C 409.017,378.511 410.184,379.177 411,380.5C 413.188,383.902 414.688,387.568 415.5,391.5C 415.666,399.507 415.5,407.507 415,415.5C 414.814,418.036 414.314,420.369 413.5,422.5C 413.666,412.161 413.5,401.828 413,391.5C 412.79,389.942 412.29,388.609 411.5,387.5C 410.439,384.378 409.105,381.378 407.5,378.5 Z"/></g>
<g><path style="opacity:1" fill="#9f8775" d="M 177.5,383.5 C 177.833,383.5 178.167,383.5 178.5,383.5C 179.49,389.645 179.823,395.978 179.5,402.5C 179.167,402.5 178.833,402.5 178.5,402.5C 178.653,396.131 178.32,389.797 177.5,383.5 Z"/></g>
<g><path style="opacity:1" fill="#a48873" d="M 173.5,392.5 C 173.842,391.662 174.508,391.328 175.5,391.5C 176.775,395.102 177.775,398.769 178.5,402.5C 178.5,403.167 178.167,403.5 177.5,403.5C 176.144,400.423 175.311,397.09 175,393.5C 174.617,392.944 174.117,392.611 173.5,392.5 Z"/></g>
<g><path style="opacity:1" fill="#caac8f" d="M 402.5,375.5 C 403.538,377.108 402.871,378.108 400.5,378.5C 397.78,383.807 396.447,389.474 396.5,395.5C 396.167,395.5 395.833,395.5 395.5,395.5C 395.167,395.5 394.833,395.5 394.5,395.5C 395.657,392.693 395.657,390.026 394.5,387.5C 394.833,384.833 395.167,382.167 395.5,379.5C 396.224,377.782 396.891,375.948 397.5,374C 399.535,373.401 401.201,373.901 402.5,375.5 Z"/></g>
<g><path style="opacity:1" fill="#864e23" d="M 402.5,375.5 C 404.411,376.075 406.078,377.075 407.5,378.5C 409.105,381.378 410.439,384.378 411.5,387.5C 411.631,388.239 411.464,388.906 411,389.5C 410.529,387.754 409.862,386.087 409,384.5C 409.915,397.442 410.581,410.442 411,423.5C 411.823,416.866 412.323,416.866 412.5,423.5C 411.963,428.186 411.296,432.853 410.5,437.5C 409.833,428.5 409.167,419.5 408.5,410.5C 407.726,400.19 405.56,390.19 402,380.5C 402.331,388.484 402.331,396.484 402,404.5C 400.439,412.116 399.272,419.783 398.5,427.5C 397.833,428.833 397.167,430.167 396.5,431.5C 396.5,419.5 396.5,407.5 396.5,395.5C 396.447,389.474 397.78,383.807 400.5,378.5C 402.871,378.108 403.538,377.108 402.5,375.5 Z"/></g>
<g><path style="opacity:1" fill="#f4dfcb" d="M 177.5,383.5 C 178.32,389.797 178.653,396.131 178.5,402.5C 177.775,398.769 176.775,395.102 175.5,391.5C 175.336,388.813 175.503,386.146 176,383.5C 176.69,382.262 177.19,382.262 177.5,383.5 Z"/></g>
<g><path style="opacity:1" fill="#f5d381" d="M 111.5,367.5 C 110.912,371.631 110.079,375.631 109,379.5C 109.583,377.998 110.416,376.665 111.5,375.5C 117.074,380.125 123.407,382.791 130.5,383.5C 130.5,384.5 130.5,385.5 130.5,386.5C 131.5,386.5 132.5,386.5 133.5,386.5C 133.281,385.325 133.614,384.325 134.5,383.5C 135.677,388.227 138.677,390.227 143.5,389.5C 143.5,390.5 143.5,391.5 143.5,392.5C 141.887,392.944 140.72,393.944 140,395.5C 139.358,407.514 139.524,419.514 140.5,431.5C 139.167,431.5 137.833,431.5 136.5,431.5C 135.734,419.585 134.401,419.585 132.5,431.5C 131.5,431.5 130.5,431.5 129.5,431.5C 129.425,428.794 129.092,426.127 128.5,423.5C 122.718,423.128 117.052,422.128 111.5,420.5C 112.26,416.949 112.094,413.282 111,409.5C 110.139,413.583 108.973,417.583 107.5,421.5C 105.717,419.977 105.051,417.977 105.5,415.5C 104.167,415.5 102.833,415.5 101.5,415.5C 101.737,414.209 101.404,413.209 100.5,412.5C 100.5,410.833 100.5,409.167 100.5,407.5C 100.369,402.022 101.202,396.689 103,391.5C 104.931,383.07 107.764,375.07 111.5,367.5 Z"/></g>
<g><path style="opacity:1" fill="#eeb24f" d="M 172.5,363.5 C 170.54,371.385 169.207,379.385 168.5,387.5C 167.178,387.33 166.011,387.663 165,388.5C 164.308,387.975 163.808,387.308 163.5,386.5C 164.879,385.137 164.713,384.137 163,383.5C 161.779,384.272 160.779,385.272 160,386.5C 159.667,384.5 159.333,382.5 159,380.5C 158.71,382.044 158.044,383.377 157,384.5C 155.833,382.833 154.667,381.167 153.5,379.5C 151.803,380.364 150.637,381.697 150,383.5C 149.321,388.029 149.487,392.529 150.5,397C 153.117,401.026 155.45,405.193 157.5,409.5C 159.821,413.655 161.821,417.989 163.5,422.5C 163.563,425.657 164.563,428.491 166.5,431C 165.552,431.483 164.552,431.649 163.5,431.5C 162.241,428.634 161.241,425.634 160.5,422.5C 154.051,421.29 148.551,418.29 144,413.5C 143.042,415.199 142.542,417.033 142.5,419C 143.031,421.817 143.364,424.65 143.5,427.5C 141.036,421.715 140.036,415.549 140.5,409C 140.473,403.244 141.473,397.744 143.5,392.5C 143.5,391.5 143.5,390.5 143.5,389.5C 145.623,382.061 147.957,374.728 150.5,367.5C 151.5,367.5 152.5,367.5 153.5,367.5C 156.578,365.024 158.411,361.691 159,357.5C 162.019,357.354 165.185,357.688 168.5,358.5C 169.632,360.489 170.965,362.156 172.5,363.5 Z"/></g>
<g><path style="opacity:1" fill="#f5e8d2" d="M 173.5,392.5 C 174.117,392.611 174.617,392.944 175,393.5C 175.311,397.09 176.144,400.423 177.5,403.5C 177.838,406.157 177.171,408.49 175.5,410.5C 173.139,408.806 171.139,406.806 169.5,404.5C 170.854,400.47 172.187,396.47 173.5,392.5 Z"/></g>
<g><path style="opacity:1" fill="#a78d7a" d="M 94.5,370.5 C 94.8333,370.5 95.1667,370.5 95.5,370.5C 93.6371,374.755 91.9704,379.088 90.5,383.5C 83.3371,398.149 81.6705,413.483 85.5,429.5C 85.5,430.167 85.5,430.833 85.5,431.5C 83.2817,428.281 82.115,424.614 82,420.5C 81.12,402.587 85.2866,385.92 94.5,370.5 Z"/></g>
<g><path style="opacity:1" fill="#f6f2ce" d="M 395.5,379.5 C 395.167,382.167 394.833,384.833 394.5,387.5C 392.531,401.509 390.365,415.509 388,429.5C 384.284,433.548 380.95,437.882 378,442.5C 374.726,448.727 371.226,454.727 367.5,460.5C 367.347,457.423 368.014,454.589 369.5,452C 369.156,450.635 368.489,449.468 367.5,448.5C 368.274,447.289 369.107,447.289 370,448.5C 372.213,438.556 374.213,428.556 376,418.5C 379.036,409.917 381.703,401.25 384,392.5C 385.24,389.588 386.906,386.921 389,384.5C 390.011,383.663 391.178,383.33 392.5,383.5C 392.687,381.436 393.187,379.436 394,377.5C 394.717,378.044 395.217,378.711 395.5,379.5 Z"/></g>
<g><path style="opacity:1" fill="#e58b3a" d="M 168.5,408.5 C 172.491,435.148 183.491,458.481 201.5,478.5C 196.356,476.533 191.856,473.533 188,469.5C 184.337,459.518 180.17,449.851 175.5,440.5C 171.124,434.783 167.124,428.783 163.5,422.5C 161.821,417.989 159.821,413.655 157.5,409.5C 157.643,407.738 157.309,406.071 156.5,404.5C 157.631,403.396 158.465,403.729 159,405.5C 160.377,401.735 161.377,402.068 162,406.5C 165.289,406.085 167.289,407.752 168,411.5C 168.483,410.552 168.649,409.552 168.5,408.5 Z"/></g>
<g><path style="opacity:1" fill="#eed55d" d="M 408.5,410.5 C 408.807,419.887 408.473,429.22 407.5,438.5C 406.998,439.521 406.332,439.688 405.5,439C 404.213,437.59 403.046,436.09 402,434.5C 401.085,435.328 400.419,436.328 400,437.5C 398.801,434.274 398.301,430.941 398.5,427.5C 399.272,419.783 400.439,412.116 402,404.5C 402.331,396.484 402.331,388.484 402,380.5C 405.56,390.19 407.726,400.19 408.5,410.5 Z"/></g>
<g><path style="opacity:1" fill="#ddac6a" d="M 100.5,407.5 C 100.5,409.167 100.5,410.833 100.5,412.5C 100.5,424.167 100.5,435.833 100.5,447.5C 99.0057,440.897 98.339,434.064 98.5,427C 98.3138,420.262 98.9805,413.762 100.5,407.5 Z"/></g>
<g><path style="opacity:1" fill="#c59d60" d="M 411.5,387.5 C 412.29,388.609 412.79,389.942 413,391.5C 413.5,401.828 413.666,412.161 413.5,422.5C 413.5,423.167 413.167,423.5 412.5,423.5C 412.323,416.866 411.823,416.866 411,423.5C 410.581,410.442 409.915,397.442 409,384.5C 409.862,386.087 410.529,387.754 411,389.5C 411.464,388.906 411.631,388.239 411.5,387.5 Z"/></g>
<g><path style="opacity:1" fill="#fcf4e2" d="M 90.5,383.5 C 91.1471,384.274 91.4805,385.274 91.5,386.5C 90.2036,401.225 88.2036,415.559 85.5,429.5C 81.6705,413.483 83.3371,398.149 90.5,383.5 Z"/></g>
<g><path style="opacity:1" fill="#e9c99f" d="M 95.5,442.5 C 93.9382,442.267 92.6049,441.6 91.5,440.5C 91.5,433.833 91.5,427.167 91.5,420.5C 91.2148,418.712 91.5481,417.045 92.5,415.5C 93.9907,424.457 94.9907,433.457 95.5,442.5 Z"/></g>
<g><path style="opacity:1" fill="#a57b5d" d="M 90.5,413.5 C 90.1984,416.059 90.5318,418.393 91.5,420.5C 91.5,427.167 91.5,433.833 91.5,440.5C 90.6721,434.347 90.1721,428.013 90,421.5C 89.7849,426.915 89.2849,432.248 88.5,437.5C 87.6091,436.739 86.9424,435.739 86.5,434.5C 86.8457,433.304 87.3457,433.304 88,434.5C 88.3333,428.833 88.6667,423.167 89,417.5C 89.21,415.942 89.71,414.609 90.5,413.5 Z"/></g>
<g><path style="opacity:1" fill="#9b7756" d="M 394.5,387.5 C 395.657,390.026 395.657,392.693 394.5,395.5C 393.215,406.196 392.048,416.863 391,427.5C 392.356,426.62 393.856,426.286 395.5,426.5C 395.5,416.167 395.5,405.833 395.5,395.5C 395.833,395.5 396.167,395.5 396.5,395.5C 396.5,407.5 396.5,419.5 396.5,431.5C 396.167,431.5 395.833,431.5 395.5,431.5C 395.778,429.654 395.111,428.32 393.5,427.5C 392.167,428.5 390.833,429.5 389.5,430.5C 388.058,436.71 386.058,442.71 383.5,448.5C 382.71,449.401 381.71,450.068 380.5,450.5C 382.608,445.775 384.608,440.942 386.5,436C 386.333,435.5 386.167,435 386,434.5C 384.333,436.5 382.667,438.5 381,440.5C 375.252,450.997 369.252,461.33 363,471.5C 362.308,472.437 362.475,473.103 363.5,473.5C 360.959,477.252 357.959,480.585 354.5,483.5C 342.869,490.002 330.869,496.668 318.5,503.5C 320.091,501.367 322.091,499.701 324.5,498.5C 333.799,493.851 342.799,488.684 351.5,483C 358.695,476.76 364.028,469.26 367.5,460.5C 371.226,454.727 374.726,448.727 378,442.5C 380.95,437.882 384.284,433.548 388,429.5C 390.365,415.509 392.531,401.509 394.5,387.5 Z"/></g>
<g><path style="opacity:1" fill="#f1e1be" d="M 394.5,395.5 C 394.833,395.5 395.167,395.5 395.5,395.5C 395.5,405.833 395.5,416.167 395.5,426.5C 393.856,426.286 392.356,426.62 391,427.5C 392.048,416.863 393.215,406.196 394.5,395.5 Z"/></g>
<g><path style="opacity:1" fill="#f5ecc6" d="M 395.5,431.5 C 395.5,432.167 395.5,432.833 395.5,433.5C 393.703,437.992 392.369,442.658 391.5,447.5C 390.5,447.5 389.5,447.5 388.5,447.5C 388.44,446.957 388.107,446.624 387.5,446.5C 386.14,447.18 384.807,447.847 383.5,448.5C 386.058,442.71 388.058,436.71 389.5,430.5C 390.833,429.5 392.167,428.5 393.5,427.5C 395.111,428.32 395.778,429.654 395.5,431.5 Z"/></g>
<g><path style="opacity:1" fill="#ed9f43" d="M 163.5,422.5 C 167.124,428.783 171.124,434.783 175.5,440.5C 174.883,440.389 174.383,440.056 174,439.5C 173.833,440.833 173.667,442.167 173.5,443.5C 174.423,448.483 174.59,453.483 174,458.5C 172.309,462.213 169.475,463.379 165.5,462C 153.273,453.734 145.94,442.234 143.5,427.5C 143.364,424.65 143.031,421.817 142.5,419C 142.542,417.033 143.042,415.199 144,413.5C 148.551,418.29 154.051,421.29 160.5,422.5C 161.241,425.634 162.241,428.634 163.5,431.5C 164.552,431.649 165.552,431.483 166.5,431C 164.563,428.491 163.563,425.657 163.5,422.5 Z"/></g>
<g><path style="opacity:1" fill="#f0deb8" d="M 380.5,450.5 C 374.479,457.861 368.813,465.528 363.5,473.5C 362.475,473.103 362.308,472.437 363,471.5C 369.252,461.33 375.252,450.997 381,440.5C 382.667,438.5 384.333,436.5 386,434.5C 386.167,435 386.333,435.5 386.5,436C 384.608,440.942 382.608,445.775 380.5,450.5 Z"/></g>
<g><path style="opacity:1" fill="#f6f1cd" d="M 415.5,391.5 C 417.284,392.574 418.451,394.24 419,396.5C 422.232,419.481 422.232,442.481 419,465.5C 418.584,467.55 417.417,468.884 415.5,469.5C 415.799,467.396 415.466,465.396 414.5,463.5C 413.571,464.689 413.238,466.022 413.5,467.5C 411.799,467.966 410.299,467.966 409,467.5C 408.335,460.805 408.502,454.138 409.5,447.5C 409.616,444.14 409.949,440.807 410.5,437.5C 411.296,432.853 411.963,428.186 412.5,423.5C 413.167,423.5 413.5,423.167 413.5,422.5C 414.314,420.369 414.814,418.036 415,415.5C 415.5,407.507 415.666,399.507 415.5,391.5 Z"/></g>
<g><path style="opacity:1" fill="#eed0ab" d="M 97.5,447.5 C 99.1909,454.976 100.524,462.642 101.5,470.5C 101.657,471.873 101.49,473.207 101,474.5C 96.1018,465.645 94.9351,456.645 97.5,447.5 Z"/></g>
<g><path style="opacity:1" fill="#a88b79" d="M 198.5,448.5 C 202.972,455.79 207.138,463.123 211,470.5C 205.504,463.832 201.337,456.499 198.5,448.5 Z"/></g>
<g><path style="opacity:1" fill="#f2d369" d="M 395.5,433.5 C 395.844,446.433 393.677,459.1 389,471.5C 387.406,472.716 385.906,474.049 384.5,475.5C 383.702,473.922 383.202,472.256 383,470.5C 382.417,472.002 381.584,473.335 380.5,474.5C 379.038,473.529 377.705,473.862 376.5,475.5C 375.566,473.905 375.566,472.239 376.5,470.5C 380.144,465.337 383.644,460.004 387,454.5C 388.202,452.323 388.702,449.989 388.5,447.5C 389.5,447.5 390.5,447.5 391.5,447.5C 392.369,442.658 393.703,437.992 395.5,433.5 Z"/></g>
<g><path style="opacity:1" fill="#f3c972" d="M 143.5,392.5 C 141.473,397.744 140.473,403.244 140.5,409C 140.036,415.549 141.036,421.715 143.5,427.5C 145.94,442.234 153.273,453.734 165.5,462C 169.475,463.379 172.309,462.213 174,458.5C 174.59,453.483 174.423,448.483 173.5,443.5C 173.667,442.167 173.833,440.833 174,439.5C 174.383,440.056 174.883,440.389 175.5,440.5C 180.17,449.851 184.337,459.518 188,469.5C 191.856,473.533 196.356,476.533 201.5,478.5C 204.13,480.628 206.63,482.961 209,485.5C 209.399,485.272 209.565,484.938 209.5,484.5C 210.74,485.659 212.074,486.659 213.5,487.5C 212.668,488.329 213.001,489.162 214.5,490C 217.07,492.087 219.737,493.92 222.5,495.5C 215.609,494.901 208.942,495.735 202.5,498C 201.29,499.039 200.29,500.206 199.5,501.5C 198.252,502.334 197.585,503.667 197.5,505.5C 198.044,507.674 198.044,509.674 197.5,511.5C 196.169,510.408 195.336,509.074 195,507.5C 193.025,507.508 191.191,508.508 189.5,510.5C 191.113,511.427 192.779,512.261 194.5,513C 194.167,513.333 193.833,513.667 193.5,514C 195.123,516.08 196.623,518.246 198,520.5C 200.172,521.585 202.172,522.919 204,524.5C 204.5,524 205,523.5 205.5,523C 204.483,521.951 204.316,520.784 205,519.5C 205.667,518.167 206.333,518.167 207,519.5C 207.957,523.099 207.457,526.432 205.5,529.5C 206.853,530.524 207.52,531.857 207.5,533.5C 200.238,524.734 192.404,516.401 184,508.5C 182.641,504.474 179.974,501.807 176,500.5C 175.506,498.866 175.34,497.199 175.5,495.5C 170.88,495.054 167.88,492.554 166.5,488C 165.5,487.667 164.5,487.333 163.5,487C 155.23,478.537 145.897,471.537 135.5,466C 122.748,463.92 117.415,469.42 119.5,482.5C 119.649,486.859 119.983,491.192 120.5,495.5C 117.25,490.339 116.25,484.672 117.5,478.5C 116.034,476.343 114.2,476.01 112,477.5C 111.333,475.833 111.333,474.167 112,472.5C 112.333,473.167 112.667,473.833 113,474.5C 114.337,473.096 115.503,471.596 116.5,470C 115.615,467.843 113.948,467.01 111.5,467.5C 110.881,471.895 110.215,475.895 109.5,479.5C 108.673,475.541 108.173,471.541 108,467.5C 107.55,464.894 106.05,463.561 103.5,463.5C 101.899,458.401 100.899,453.067 100.5,447.5C 100.5,435.833 100.5,424.167 100.5,412.5C 101.404,413.209 101.737,414.209 101.5,415.5C 102.833,415.5 104.167,415.5 105.5,415.5C 105.051,417.977 105.717,419.977 107.5,421.5C 108.973,417.583 110.139,413.583 111,409.5C 112.094,413.282 112.26,416.949 111.5,420.5C 117.052,422.128 122.718,423.128 128.5,423.5C 129.092,426.127 129.425,428.794 129.5,431.5C 130.5,431.5 131.5,431.5 132.5,431.5C 134.401,419.585 135.734,419.585 136.5,431.5C 137.833,431.5 139.167,431.5 140.5,431.5C 139.524,419.514 139.358,407.514 140,395.5C 140.72,393.944 141.887,392.944 143.5,392.5 Z"/></g>
<g><path style="opacity:1" fill="#f3d46a" d="M 407.5,447.5 C 407.5,451.5 407.5,455.5 407.5,459.5C 406.326,460.514 405.66,461.847 405.5,463.5C 400.649,471.22 395.482,478.887 390,486.5C 388.961,487.71 387.794,488.71 386.5,489.5C 387.833,486.167 387.833,482.833 386.5,479.5C 390.46,470.5 396.127,462.5 403.5,455.5C 403.982,452.297 405.315,449.631 407.5,447.5 Z"/></g>
<g><path style="opacity:1" fill="#8c5a3e" d="M 91.5,440.5 C 92.6049,441.6 93.9382,442.267 95.5,442.5C 97.256,443.552 97.9227,445.219 97.5,447.5C 94.9351,456.645 96.1018,465.645 101,474.5C 101.49,473.207 101.657,471.873 101.5,470.5C 102.139,471.097 102.472,471.93 102.5,473C 101.622,474.8 100.955,476.633 100.5,478.5C 98.8998,476.297 97.5665,473.964 96.5,471.5C 93.3085,464.111 90.9752,456.444 89.5,448.5C 89.756,444.731 89.4227,441.064 88.5,437.5C 89.2849,432.248 89.7849,426.915 90,421.5C 90.1721,428.013 90.6721,434.347 91.5,440.5 Z"/></g>
<g><path style="opacity:1" fill="#e1b78e" d="M 91.5,442.5 C 92.4584,442.953 93.2917,443.619 94,444.5C 94.6667,448.833 94.6667,453.167 94,457.5C 92.6552,452.587 91.8219,447.587 91.5,442.5 Z"/></g>
<g><path style="opacity:1" fill="#f6f1ce" d="M 367.5,460.5 C 364.028,469.26 358.695,476.76 351.5,483C 342.799,488.684 333.799,493.851 324.5,498.5C 325.605,491.941 328.938,486.941 334.5,483.5C 335.429,482.311 335.762,480.978 335.5,479.5C 336.873,479.657 338.207,479.49 339.5,479C 343.306,475.194 347.14,471.36 351,467.5C 350.965,463.755 351.965,463.088 354,465.5C 358.28,462.408 362.78,460.742 367.5,460.5 Z"/></g>
<g><path style="opacity:1" fill="#864827" d="M 388.5,447.5 C 388.702,449.989 388.202,452.323 387,454.5C 383.644,460.004 380.144,465.337 376.5,470.5C 370.5,477.167 364.167,483.5 357.5,489.5C 350.126,493.85 342.793,498.183 335.5,502.5C 328.313,504.937 321.313,507.604 314.5,510.5C 307.979,511.143 301.646,512.143 295.5,513.5C 273.653,515.084 252.986,511.084 233.5,501.5C 229.85,499.528 226.184,497.528 222.5,495.5C 219.737,493.92 217.07,492.087 214.5,490C 213.001,489.162 212.668,488.329 213.5,487.5C 218.752,489.459 223.752,491.959 228.5,495C 230.134,495.494 231.801,495.66 233.5,495.5C 236.108,495.606 238.108,496.772 239.5,499C 240.793,499.49 242.127,499.657 243.5,499.5C 259.926,503.641 276.593,506.308 293.5,507.5C 294.167,507.167 294.833,506.833 295.5,506.5C 298.167,506.5 300.833,506.5 303.5,506.5C 307.833,506.5 312.167,506.5 316.5,506.5C 316.56,507.043 316.893,507.376 317.5,507.5C 325.554,502.806 333.888,498.639 342.5,495C 347.002,491.664 351.002,487.831 354.5,483.5C 357.959,480.585 360.959,477.252 363.5,473.5C 368.813,465.528 374.479,457.861 380.5,450.5C 381.71,450.068 382.71,449.401 383.5,448.5C 384.807,447.847 386.14,447.18 387.5,446.5C 388.107,446.624 388.44,446.957 388.5,447.5 Z"/></g>
<g><path style="opacity:1" fill="#f7dc90" d="M 207.5,533.5 C 207.5,534.167 207.5,534.833 207.5,535.5C 206.726,538.381 205.393,541.048 203.5,543.5C 202.185,541.231 201.018,538.898 200,536.5C 198.871,538.141 197.371,539.141 195.5,539.5C 198.115,535.991 199.115,531.991 198.5,527.5C 193.821,527.666 189.155,527.499 184.5,527C 183.842,525.095 182.675,523.595 181,522.5C 180.689,520.444 180.189,518.444 179.5,516.5C 175.032,513.007 170.698,509.34 166.5,505.5C 162.802,502.269 158.969,501.935 155,504.5C 153.648,511.696 154.814,518.363 158.5,524.5C 157.761,524.631 157.094,524.464 156.5,524C 153.87,520.368 150.87,517.035 147.5,514C 145.765,513.349 144.098,513.515 142.5,514.5C 141.614,513.675 141.281,512.675 141.5,511.5C 139.712,511.785 138.045,511.452 136.5,510.5C 135.437,508.179 133.937,507.179 132,507.5C 128.712,506.005 125.878,504.005 123.5,501.5C 122.486,499.426 121.486,497.426 120.5,495.5C 119.983,491.192 119.649,486.859 119.5,482.5C 117.415,469.42 122.748,463.92 135.5,466C 145.897,471.537 155.23,478.537 163.5,487C 164.5,487.333 165.5,487.667 166.5,488C 167.88,492.554 170.88,495.054 175.5,495.5C 175.34,497.199 175.506,498.866 176,500.5C 179.974,501.807 182.641,504.474 184,508.5C 192.404,516.401 200.238,524.734 207.5,533.5 Z"/></g>
<g><path style="opacity:1" fill="#f3e5bf" d="M 407.5,447.5 C 408.167,447.5 408.833,447.5 409.5,447.5C 408.502,454.138 408.335,460.805 409,467.5C 410.299,467.966 411.799,467.966 413.5,467.5C 413.238,466.022 413.571,464.689 414.5,463.5C 415.466,465.396 415.799,467.396 415.5,469.5C 415.169,473.914 414.335,478.248 413,482.5C 412.586,482.957 412.086,483.291 411.5,483.5C 409.417,489.084 407.584,494.751 406,500.5C 404.185,502.1 403.018,504.1 402.5,506.5C 401.675,507.386 400.675,507.719 399.5,507.5C 399.762,508.978 399.429,510.311 398.5,511.5C 395.796,515.036 393.296,518.702 391,522.5C 388.911,525.428 386.411,527.761 383.5,529.5C 383.5,528.833 383.5,528.167 383.5,527.5C 389.522,515.786 395.355,503.786 401,491.5C 404.133,481.036 406.3,470.369 407.5,459.5C 407.5,455.5 407.5,451.5 407.5,447.5 Z"/></g>
<g><path style="opacity:1" fill="#eec159" d="M 408.5,410.5 C 409.167,419.5 409.833,428.5 410.5,437.5C 409.949,440.807 409.616,444.14 409.5,447.5C 408.833,447.5 408.167,447.5 407.5,447.5C 405.315,449.631 403.982,452.297 403.5,455.5C 396.127,462.5 390.46,470.5 386.5,479.5C 388.198,475.971 387.531,475.137 384.5,477C 379.175,484.509 373.508,491.676 367.5,498.5C 365.419,499.72 363.419,500.386 361.5,500.5C 359.459,499.764 357.459,498.931 355.5,498C 356.815,496.605 356.481,495.605 354.5,495C 356.481,494.395 356.815,493.395 355.5,492C 356.381,491.292 357.047,490.458 357.5,489.5C 364.167,483.5 370.5,477.167 376.5,470.5C 375.566,472.239 375.566,473.905 376.5,475.5C 377.705,473.862 379.038,473.529 380.5,474.5C 381.584,473.335 382.417,472.002 383,470.5C 383.202,472.256 383.702,473.922 384.5,475.5C 385.906,474.049 387.406,472.716 389,471.5C 393.677,459.1 395.844,446.433 395.5,433.5C 395.5,432.833 395.5,432.167 395.5,431.5C 395.833,431.5 396.167,431.5 396.5,431.5C 397.167,430.167 397.833,428.833 398.5,427.5C 398.301,430.941 398.801,434.274 400,437.5C 400.419,436.328 401.085,435.328 402,434.5C 403.046,436.09 404.213,437.59 405.5,439C 406.332,439.688 406.998,439.521 407.5,438.5C 408.473,429.22 408.807,419.887 408.5,410.5 Z"/></g>
<g><path style="opacity:1" fill="#e79f3f" d="M 386.5,479.5 C 380.975,490.144 373.309,499.144 363.5,506.5C 363.167,506.167 362.833,505.833 362.5,505.5C 363.931,502.961 365.597,500.628 367.5,498.5C 373.508,491.676 379.175,484.509 384.5,477C 387.531,475.137 388.198,475.971 386.5,479.5 Z"/></g>
<g><path style="opacity:1" fill="#f8eedc" d="M 233.5,495.5 C 231.801,495.66 230.134,495.494 228.5,495C 223.752,491.959 218.752,489.459 213.5,487.5C 212.074,486.659 210.74,485.659 209.5,484.5C 208.439,481.378 207.105,478.378 205.5,475.5C 216.551,479.089 225.884,485.756 233.5,495.5 Z"/></g>
<g><path style="opacity:1" fill="#f0ddb7" d="M 111.5,494.5 C 113.502,500.194 115.502,505.861 117.5,511.5C 118.014,513.512 118.18,515.512 118,517.5C 116.281,514.712 114.115,512.379 111.5,510.5C 108.983,505.796 107.316,500.796 106.5,495.5C 106.833,494.167 107.167,492.833 107.5,491.5C 108.852,492.524 110.185,493.524 111.5,494.5 Z"/></g>
<g><path style="opacity:1" fill="#f3e7c4" d="M 96.5,471.5 C 97.5665,473.964 98.8998,476.297 100.5,478.5C 101.455,480.746 102.122,483.079 102.5,485.5C 102.274,496.948 104.274,507.948 108.5,518.5C 105.167,517.722 103.834,515.889 104.5,513C 97.1483,500.1 94.4816,486.267 96.5,471.5 Z"/></g>
<g><path style="opacity:1" fill="#a68873" d="M 205.5,472.5 C 208.607,473.889 211.607,475.555 214.5,477.5C 214.911,476.738 215.077,475.738 215,474.5C 222.851,482.498 231.351,489.665 240.5,496C 253.232,497.175 265.899,498.842 278.5,501C 284.504,502.169 290.17,504.002 295.5,506.5C 294.833,506.833 294.167,507.167 293.5,507.5C 284.317,503.62 274.65,501.12 264.5,500C 257.93,499.645 251.43,498.812 245,497.5C 243.97,497.836 243.47,498.503 243.5,499.5C 242.127,499.657 240.793,499.49 239.5,499C 238.108,496.772 236.108,495.606 233.5,495.5C 225.884,485.756 216.551,479.089 205.5,475.5C 204.375,474.652 204.375,473.652 205.5,472.5 Z"/></g>
<g><path style="opacity:1" fill="#f0dbb5" d="M 354.5,483.5 C 351.002,487.831 347.002,491.664 342.5,495C 333.888,498.639 325.554,502.806 317.5,507.5C 316.893,507.376 316.56,507.043 316.5,506.5C 317.167,505.5 317.833,504.5 318.5,503.5C 330.869,496.668 342.869,490.002 354.5,483.5 Z"/></g>
<g><path style="opacity:1" fill="#f0e0ce" d="M 293.5,507.5 C 276.593,506.308 259.926,503.641 243.5,499.5C 243.47,498.503 243.97,497.836 245,497.5C 251.43,498.812 257.93,499.645 264.5,500C 274.65,501.12 284.317,503.62 293.5,507.5 Z"/></g>
<g><path style="opacity:1" fill="#efb451" d="M 386.5,479.5 C 387.833,482.833 387.833,486.167 386.5,489.5C 382.812,494.678 378.979,499.678 375,504.5C 372.002,506.333 369.502,508.666 367.5,511.5C 362.539,515.32 357.206,518.653 351.5,521.5C 351.751,519.83 352.418,518.33 353.5,517C 351.869,515.164 351.202,515.664 351.5,518.5C 347.896,517.186 344.23,515.853 340.5,514.5C 344.403,512.717 344.07,511.55 339.5,511C 337.803,507.816 335.136,506.15 331.5,506C 333.319,505.26 334.652,504.093 335.5,502.5C 342.793,498.183 350.126,493.85 357.5,489.5C 357.047,490.458 356.381,491.292 355.5,492C 356.815,493.395 356.481,494.395 354.5,495C 356.481,495.605 356.815,496.605 355.5,498C 357.459,498.931 359.459,499.764 361.5,500.5C 363.419,500.386 365.419,499.72 367.5,498.5C 365.597,500.628 363.931,502.961 362.5,505.5C 362.833,505.833 363.167,506.167 363.5,506.5C 373.309,499.144 380.975,490.144 386.5,479.5 Z"/></g>
<g><path style="opacity:1" fill="#eda346" d="M 222.5,495.5 C 226.184,497.528 229.85,499.528 233.5,501.5C 238.846,507.686 245.18,512.52 252.5,516C 263.401,523.131 275.068,527.964 287.5,530.5C 288.952,531.302 290.618,531.802 292.5,532C 299.492,532.5 306.492,532.666 313.5,532.5C 312.833,533.5 312.167,534.5 311.5,535.5C 303.334,540.677 294.334,543.01 284.5,542.5C 278.811,542.257 273.144,541.757 267.5,541C 264.478,540.902 261.811,540.068 259.5,538.5C 264.277,538.564 268.944,539.23 273.5,540.5C 276.259,540.458 278.925,539.958 281.5,539C 278.08,538.483 274.747,537.65 271.5,536.5C 258.531,529.392 245.197,522.892 231.5,517C 221.102,513.97 211.769,509.136 203.5,502.5C 202.386,503.723 202.219,505.056 203,506.5C 205.547,508.973 207.047,511.973 207.5,515.5C 202.642,512 199.975,507.333 199.5,501.5C 200.29,500.206 201.29,499.039 202.5,498C 208.942,495.735 215.609,494.901 222.5,495.5 Z"/></g>
<g><path style="opacity:1" fill="#b99885" d="M 318.5,503.5 C 317.833,504.5 317.167,505.5 316.5,506.5C 312.167,506.5 307.833,506.5 303.5,506.5C 308.555,505.991 313.555,504.991 318.5,503.5 Z"/></g>
<g><path style="opacity:1" fill="#f5d785" d="M 405.5,463.5 C 399.947,487.556 389.281,508.889 373.5,527.5C 372.5,527.5 371.5,527.5 370.5,527.5C 370.576,525.077 369.576,523.244 367.5,522C 368.732,518.61 369.566,518.777 370,522.5C 370.756,520.191 370.256,518.191 368.5,516.5C 365.982,518.464 363.316,519.13 360.5,518.5C 362.045,517.548 363.712,517.215 365.5,517.5C 365.253,515.142 365.919,513.142 367.5,511.5C 369.502,508.666 372.002,506.333 375,504.5C 378.979,499.678 382.812,494.678 386.5,489.5C 387.794,488.71 388.961,487.71 390,486.5C 395.482,478.887 400.649,471.22 405.5,463.5 Z"/></g>
<g><path style="opacity:1" fill="#e8993d" d="M 314.5,510.5 C 313.426,511.885 312.093,513.051 310.5,514C 317.947,515.605 321.947,520.105 322.5,527.5C 321.325,527.281 320.325,527.614 319.5,528.5C 320.729,529.281 322.062,529.781 323.5,530C 321.167,530.333 318.833,530.667 316.5,531C 315.944,531.383 315.611,531.883 315.5,532.5C 314.833,532.5 314.167,532.5 313.5,532.5C 306.492,532.666 299.492,532.5 292.5,532C 290.618,531.802 288.952,531.302 287.5,530.5C 295.916,530.675 304.249,530.675 312.5,530.5C 306.063,526.779 299.396,523.279 292.5,520C 289.5,519 286.5,518 283.5,517C 286.077,515.143 290.077,513.976 295.5,513.5C 301.646,512.143 307.979,511.143 314.5,510.5 Z"/></g>
<g><path style="opacity:1" fill="#eda848" d="M 335.5,502.5 C 334.652,504.093 333.319,505.26 331.5,506C 335.136,506.15 337.803,507.816 339.5,511C 344.07,511.55 344.403,512.717 340.5,514.5C 344.23,515.853 347.896,517.186 351.5,518.5C 351.202,515.664 351.869,515.164 353.5,517C 352.418,518.33 351.751,519.83 351.5,521.5C 340.465,527.835 328.465,531.501 315.5,532.5C 315.611,531.883 315.944,531.383 316.5,531C 318.833,530.667 321.167,530.333 323.5,530C 322.062,529.781 320.729,529.281 319.5,528.5C 320.325,527.614 321.325,527.281 322.5,527.5C 321.947,520.105 317.947,515.605 310.5,514C 312.093,513.051 313.426,511.885 314.5,510.5C 321.313,507.604 328.313,504.937 335.5,502.5 Z"/></g>
<g><path style="opacity:1" fill="#eb953e" d="M 259.5,538.5 C 239.566,536.189 222.233,528.522 207.5,515.5C 207.047,511.973 205.547,508.973 203,506.5C 202.219,505.056 202.386,503.723 203.5,502.5C 211.769,509.136 221.102,513.97 231.5,517C 245.197,522.892 258.531,529.392 271.5,536.5C 274.747,537.65 278.08,538.483 281.5,539C 278.925,539.958 276.259,540.458 273.5,540.5C 268.944,539.23 264.277,538.564 259.5,538.5 Z"/></g>
<g><path style="opacity:1" fill="#e78b37" d="M 233.5,501.5 C 252.986,511.084 273.653,515.084 295.5,513.5C 290.077,513.976 286.077,515.143 283.5,517C 286.5,518 289.5,519 292.5,520C 299.396,523.279 306.063,526.779 312.5,530.5C 304.249,530.675 295.916,530.675 287.5,530.5C 275.068,527.964 263.401,523.131 252.5,516C 245.18,512.52 238.846,507.686 233.5,501.5 Z"/></g>
<g><path style="opacity:1" fill="#f9e69c" d="M 195.5,539.5 C 191.689,540.645 187.689,540.812 183.5,540C 179.681,538.282 175.681,536.949 171.5,536C 166.32,532.979 161.987,529.146 158.5,524.5C 154.814,518.363 153.648,511.696 155,504.5C 158.969,501.935 162.802,502.269 166.5,505.5C 170.698,509.34 175.032,513.007 179.5,516.5C 180.189,518.444 180.689,520.444 181,522.5C 182.675,523.595 183.842,525.095 184.5,527C 189.155,527.499 193.821,527.666 198.5,527.5C 199.115,531.991 198.115,535.991 195.5,539.5 Z"/></g>
<g><path style="opacity:1" fill="#f2c168" d="M 199.5,501.5 C 199.975,507.333 202.642,512 207.5,515.5C 222.233,528.522 239.566,536.189 259.5,538.5C 261.811,540.068 264.478,540.902 267.5,541C 273.144,541.757 278.811,542.257 284.5,542.5C 294.334,543.01 303.334,540.677 311.5,535.5C 311.079,537.91 309.746,539.743 307.5,541C 303.886,541.945 300.219,542.612 296.5,543C 303.178,543.22 309.845,543.22 316.5,543C 314.5,543.333 312.5,543.667 310.5,544C 311.833,545.333 313.167,546.667 314.5,548C 319.126,549.547 323.793,550.88 328.5,552C 330.894,553.952 332.394,556.452 333,559.5C 333.671,560.252 334.504,560.586 335.5,560.5C 318.608,571.131 300.275,577.797 280.5,580.5C 280.918,579.778 281.584,579.278 282.5,579C 281.5,578.667 280.5,578.333 279.5,578C 284.016,577.23 288.349,576.73 292.5,576.5C 277.017,569.482 261.684,562.316 246.5,555C 244.664,553.581 242.664,552.414 240.5,551.5C 239.514,547.625 238.347,547.625 237,551.5C 232.259,550.271 230.092,547.271 230.5,542.5C 228.131,542.851 225.797,543.018 223.5,543C 225.405,542.174 225.739,541.007 224.5,539.5C 223.193,540.816 221.693,541.816 220,542.5C 218.925,545.531 219.925,547.531 223,548.5C 223.49,549.793 223.657,551.127 223.5,552.5C 218.845,546.186 213.512,540.52 207.5,535.5C 207.5,534.833 207.5,534.167 207.5,533.5C 207.52,531.857 206.853,530.524 205.5,529.5C 207.457,526.432 207.957,523.099 207,519.5C 206.333,518.167 205.667,518.167 205,519.5C 204.316,520.784 204.483,521.951 205.5,523C 205,523.5 204.5,524 204,524.5C 202.172,522.919 200.172,521.585 198,520.5C 196.623,518.246 195.123,516.08 193.5,514C 193.833,513.667 194.167,513.333 194.5,513C 192.779,512.261 191.113,511.427 189.5,510.5C 191.191,508.508 193.025,507.508 195,507.5C 195.336,509.074 196.169,510.408 197.5,511.5C 198.044,509.674 198.044,507.674 197.5,505.5C 197.585,503.667 198.252,502.334 199.5,501.5 Z"/></g>
<g><path style="opacity:1" fill="#f6d378" d="M 123.5,501.5 C 125.878,504.005 128.712,506.005 132,507.5C 133.937,507.179 135.437,508.179 136.5,510.5C 138.045,511.452 139.712,511.785 141.5,511.5C 141.281,512.675 141.614,513.675 142.5,514.5C 144.098,513.515 145.765,513.349 147.5,514C 150.87,517.035 153.87,520.368 156.5,524C 157.094,524.464 157.761,524.631 158.5,524.5C 161.987,529.146 166.32,532.979 171.5,536C 175.681,536.949 179.681,538.282 183.5,540C 187.689,540.812 191.689,540.645 195.5,539.5C 197.371,539.141 198.871,538.141 200,536.5C 201.018,538.898 202.185,541.231 203.5,543.5C 205.393,541.048 206.726,538.381 207.5,535.5C 213.512,540.52 218.845,546.186 223.5,552.5C 224.142,556.133 226.142,558.466 229.5,559.5C 229.5,561.5 229.5,563.5 229.5,565.5C 221.641,567.437 213.641,567.937 205.5,567C 182.939,561.05 163.273,549.883 146.5,533.5C 145.014,531.698 144.014,529.698 143.5,527.5C 142.325,527.719 141.325,527.386 140.5,526.5C 133.67,518.995 128.003,510.662 123.5,501.5 Z"/></g>
<g><path style="opacity:1" fill="#ecd2a8" d="M 383.5,527.5 C 380.465,532.717 376.798,537.55 372.5,542C 370.209,544.34 367.542,545.673 364.5,546C 368.416,542.59 371.749,538.757 374.5,534.5C 376.691,529.8 379.857,525.8 384,522.5C 383.981,524.107 383.815,525.774 383.5,527.5 Z"/></g>
<g><path style="opacity:1" fill="#f3cb74" d="M 367.5,511.5 C 365.919,513.142 365.253,515.142 365.5,517.5C 363.712,517.215 362.045,517.548 360.5,518.5C 363.316,519.13 365.982,518.464 368.5,516.5C 370.256,518.191 370.756,520.191 370,522.5C 369.566,518.777 368.732,518.61 367.5,522C 369.576,523.244 370.576,525.077 370.5,527.5C 371.5,527.5 372.5,527.5 373.5,527.5C 362.634,540.708 349.967,551.708 335.5,560.5C 334.504,560.586 333.671,560.252 333,559.5C 332.394,556.452 330.894,553.952 328.5,552C 323.793,550.88 319.126,549.547 314.5,548C 313.167,546.667 311.833,545.333 310.5,544C 312.5,543.667 314.5,543.333 316.5,543C 309.845,543.22 303.178,543.22 296.5,543C 300.219,542.612 303.886,541.945 307.5,541C 309.746,539.743 311.079,537.91 311.5,535.5C 312.167,534.5 312.833,533.5 313.5,532.5C 314.167,532.5 314.833,532.5 315.5,532.5C 328.465,531.501 340.465,527.835 351.5,521.5C 357.206,518.653 362.539,515.32 367.5,511.5 Z"/></g>
<g><path style="opacity:1" fill="#8d5a38" d="M 102.5,485.5 C 103.833,485.5 105.167,485.5 106.5,485.5C 106.5,486.5 106.5,487.5 106.5,488.5C 109.57,489.243 111.236,491.243 111.5,494.5C 110.185,493.524 108.852,492.524 107.5,491.5C 107.167,492.833 106.833,494.167 106.5,495.5C 107.316,500.796 108.983,505.796 111.5,510.5C 114.115,512.379 116.281,514.712 118,517.5C 118.18,515.512 118.014,513.512 117.5,511.5C 119.093,513.51 121.093,515.177 123.5,516.5C 124.706,518.484 124.706,520.484 123.5,522.5C 124.26,524.36 125.26,526.027 126.5,527.5C 125.535,528.721 125.702,530.054 127,531.5C 129.467,535.6 132.301,539.434 135.5,543C 140.156,545.578 144.989,547.745 150,549.5C 150.765,549.43 151.265,549.097 151.5,548.5C 152.692,549.566 152.359,550.399 150.5,551C 152.723,551.566 154.723,552.4 156.5,553.5C 150.903,552.634 145.57,550.967 140.5,548.5C 139.652,547.375 138.652,547.375 137.5,548.5C 134.264,545.203 130.597,542.37 126.5,540C 121.936,535.605 117.602,531.105 113.5,526.5C 112.331,523.489 110.664,520.822 108.5,518.5C 104.274,507.948 102.274,496.948 102.5,485.5 Z"/></g>
<g><path style="opacity:1" fill="#f0d6ac" d="M 111.5,510.5 C 113.667,515.181 116.833,519.181 121,522.5C 123.739,527.979 126.406,533.312 129,538.5C 117.898,529.735 110.398,518.568 106.5,505C 106.667,504.5 106.833,504 107,503.5C 108.026,506.239 109.526,508.572 111.5,510.5 Z"/></g>
<g><path style="opacity:1" fill="#edcda3" d="M 126.5,527.5 C 133.529,536.163 141.862,543.163 151.5,548.5C 151.265,549.097 150.765,549.43 150,549.5C 144.989,547.745 140.156,545.578 135.5,543C 132.301,539.434 129.467,535.6 127,531.5C 125.702,530.054 125.535,528.721 126.5,527.5 Z"/></g>
<g><path style="opacity:1" fill="#ecc9a1" d="M 370.5,535.5 C 370.938,535.435 371.272,535.601 371.5,536C 367.868,540.634 363.868,544.967 359.5,549C 357.564,549.813 355.564,550.313 353.5,550.5C 358.844,545.157 364.511,540.157 370.5,535.5 Z"/></g>
<g><path style="opacity:1" fill="#9c7351" d="M 383.5,527.5 C 383.5,528.167 383.5,528.833 383.5,529.5C 379.5,538.167 373.167,544.5 364.5,548.5C 357.861,552.489 351.194,556.489 344.5,560.5C 343.494,559.604 343.494,558.938 344.5,558.5C 348.049,557.277 351.049,555.277 353.5,552.5C 352.494,551.604 352.494,550.938 353.5,550.5C 355.564,550.313 357.564,549.813 359.5,549C 363.868,544.967 367.868,540.634 371.5,536C 371.272,535.601 370.938,535.435 370.5,535.5C 371.403,533.38 372.737,533.046 374.5,534.5C 371.749,538.757 368.416,542.59 364.5,546C 367.542,545.673 370.209,544.34 372.5,542C 376.798,537.55 380.465,532.717 383.5,527.5 Z"/></g>
<g><path style="opacity:1" fill="#eed1af" d="M 113.5,526.5 C 117.602,531.105 121.936,535.605 126.5,540C 130.597,542.37 134.264,545.203 137.5,548.5C 137.833,549.167 138.167,549.833 138.5,550.5C 137.022,550.762 135.689,550.429 134.5,549.5C 131.789,545.788 128.456,542.788 124.5,540.5C 120.023,536.369 116.356,531.703 113.5,526.5 Z"/></g>
<g><path style="opacity:1" fill="#e6ba95" d="M 353.5,552.5 C 351.049,555.277 348.049,557.277 344.5,558.5C 346.435,554.897 349.435,552.897 353.5,552.5 Z"/></g>
<g><path style="opacity:1" fill="#faf1dd" d="M 143.5,553.5 C 147.833,553.915 151.833,555.248 155.5,557.5C 157.107,560.443 159.107,563.11 161.5,565.5C 161.376,566.107 161.043,566.44 160.5,566.5C 153.565,563.861 147.898,559.528 143.5,553.5 Z"/></g>
<g><path style="opacity:1" fill="#f1d6a9" d="M 140.5,548.5 C 145.57,550.967 150.903,552.634 156.5,553.5C 164.172,559.825 172.172,565.825 180.5,571.5C 173.409,572.061 166.742,570.394 160.5,566.5C 161.043,566.44 161.376,566.107 161.5,565.5C 159.107,563.11 157.107,560.443 155.5,557.5C 151.833,555.248 147.833,553.915 143.5,553.5C 142.067,552.167 140.733,550.667 139.5,549C 139.728,548.601 140.062,548.435 140.5,548.5 Z"/></g>
<g><path style="opacity:1" fill="#efd7b0" d="M 364.5,548.5 C 363.797,550.716 362.464,552.549 360.5,554C 352.607,558.777 344.607,563.277 336.5,567.5C 338.549,564.45 341.216,562.117 344.5,560.5C 351.194,556.489 357.861,552.489 364.5,548.5 Z"/></g>
<g><path style="opacity:1" fill="#efb85e" d="M 103.5,463.5 C 106.05,463.561 107.55,464.894 108,467.5C 108.173,471.541 108.673,475.541 109.5,479.5C 110.215,475.895 110.881,471.895 111.5,467.5C 113.948,467.01 115.615,467.843 116.5,470C 115.503,471.596 114.337,473.096 113,474.5C 112.667,473.833 112.333,473.167 112,472.5C 111.333,474.167 111.333,475.833 112,477.5C 114.2,476.01 116.034,476.343 117.5,478.5C 116.25,484.672 117.25,490.339 120.5,495.5C 121.486,497.426 122.486,499.426 123.5,501.5C 128.003,510.662 133.67,518.995 140.5,526.5C 141.325,527.386 142.325,527.719 143.5,527.5C 144.014,529.698 145.014,531.698 146.5,533.5C 163.273,549.883 182.939,561.05 205.5,567C 213.641,567.937 221.641,567.437 229.5,565.5C 229.5,563.5 229.5,561.5 229.5,559.5C 226.142,558.466 224.142,556.133 223.5,552.5C 223.657,551.127 223.49,549.793 223,548.5C 219.925,547.531 218.925,545.531 220,542.5C 221.693,541.816 223.193,540.816 224.5,539.5C 225.739,541.007 225.405,542.174 223.5,543C 225.797,543.018 228.131,542.851 230.5,542.5C 230.092,547.271 232.259,550.271 237,551.5C 238.347,547.625 239.514,547.625 240.5,551.5C 242.664,552.414 244.664,553.581 246.5,555C 261.684,562.316 277.017,569.482 292.5,576.5C 288.349,576.73 284.016,577.23 279.5,578C 280.5,578.333 281.5,578.667 282.5,579C 281.584,579.278 280.918,579.778 280.5,580.5C 272.452,582.705 264.119,583.871 255.5,584C 256.448,584.483 257.448,584.649 258.5,584.5C 253.833,585.833 249.167,585.833 244.5,584.5C 235.838,582.757 225.838,580.923 214.5,579C 202.885,575.963 191.885,571.463 181.5,565.5C 181.167,566.167 180.833,566.833 180.5,567.5C 177.418,565.628 174.751,563.295 172.5,560.5C 136.528,537.614 113.528,505.28 103.5,463.5 Z"/></g>
<g><path style="opacity:1" fill="#a27c5f" d="M 140.5,548.5 C 140.062,548.435 139.728,548.601 139.5,549C 140.733,550.667 142.067,552.167 143.5,553.5C 147.898,559.528 153.565,563.861 160.5,566.5C 166.742,570.394 173.409,572.061 180.5,571.5C 181.625,572.348 181.625,573.348 180.5,574.5C 176.833,573.833 173.167,573.167 169.5,572.5C 156.964,568.301 146.63,560.967 138.5,550.5C 138.167,549.833 137.833,549.167 137.5,548.5C 138.652,547.375 139.652,547.375 140.5,548.5 Z"/></g>
<g><path style="opacity:1" fill="#874b2b" d="M 407.5,459.5 C 406.3,470.369 404.133,481.036 401,491.5C 395.355,503.786 389.522,515.786 383.5,527.5C 383.815,525.774 383.981,524.107 384,522.5C 379.857,525.8 376.691,529.8 374.5,534.5C 372.737,533.046 371.403,533.38 370.5,535.5C 364.511,540.157 358.844,545.157 353.5,550.5C 352.494,550.938 352.494,551.604 353.5,552.5C 349.435,552.897 346.435,554.897 344.5,558.5C 343.494,558.938 343.494,559.604 344.5,560.5C 341.216,562.117 338.549,564.45 336.5,567.5C 328.367,575.966 318.7,581.966 307.5,585.5C 299.828,586.567 292.161,587.567 284.5,588.5C 284.5,587.833 284.167,587.5 283.5,587.5C 276.16,587.277 268.827,586.944 261.5,586.5C 260.778,585.449 259.778,584.782 258.5,584.5C 257.448,584.649 256.448,584.483 255.5,584C 264.119,583.871 272.452,582.705 280.5,580.5C 300.275,577.797 318.608,571.131 335.5,560.5C 349.967,551.708 362.634,540.708 373.5,527.5C 389.281,508.889 399.947,487.556 405.5,463.5C 405.66,461.847 406.326,460.514 407.5,459.5 Z"/></g>
<g><path style="opacity:1" fill="#eed2a2" d="M 169.5,572.5 C 173.167,573.167 176.833,573.833 180.5,574.5C 188.874,577.224 197.541,579.057 206.5,580C 207.373,581.045 208.373,581.878 209.5,582.5C 210.306,583.728 211.306,584.728 212.5,585.5C 200.816,585.046 189.483,582.88 178.5,579C 175.584,576.56 172.584,574.393 169.5,572.5 Z"/></g>
<g><path style="opacity:1" fill="#ad7b4d" d="M 244.5,584.5 C 249.167,585.833 253.833,585.833 258.5,584.5C 259.778,584.782 260.778,585.449 261.5,586.5C 258.854,587.164 256.021,587.498 253,587.5C 248.867,587.714 245.034,587.048 241.5,585.5C 242.609,585.443 243.609,585.11 244.5,584.5 Z"/></g>
<g><path style="opacity:1" fill="#f1d5a6" d="M 210.5,582.5 C 210.917,581.876 211.584,581.543 212.5,581.5C 222.015,583.911 231.682,585.244 241.5,585.5C 245.034,587.048 248.867,587.714 253,587.5C 256.021,587.498 258.854,587.164 261.5,586.5C 268.827,586.944 276.16,587.277 283.5,587.5C 276.75,591.36 269.416,593.694 261.5,594.5C 251.715,592.523 241.715,591.023 231.5,590C 227.887,587.725 224.22,587.225 220.5,588.5C 217.411,586.075 214.078,584.075 210.5,582.5 Z"/></g>
<g><path style="opacity:1" fill="#e8cbab" d="M 307.5,585.5 C 296.362,587.264 285.362,589.931 274.5,593.5C 278.008,592.217 281.342,590.551 284.5,588.5C 292.161,587.567 299.828,586.567 307.5,585.5 Z"/></g>
<g><path style="opacity:1" fill="#9d7e64" d="M 209.5,582.5 C 209.833,582.5 210.167,582.5 210.5,582.5C 214.078,584.075 217.411,586.075 220.5,588.5C 233.453,595.156 247.12,597.156 261.5,594.5C 269.416,593.694 276.75,591.36 283.5,587.5C 284.167,587.5 284.5,587.833 284.5,588.5C 281.342,590.551 278.008,592.217 274.5,593.5C 257.648,597.941 240.982,597.441 224.5,592C 220.286,590.063 216.286,587.896 212.5,585.5C 211.306,584.728 210.306,583.728 209.5,582.5 Z"/></g>
<g><path style="opacity:1" fill="#f9f1dd" d="M 220.5,588.5 C 224.22,587.225 227.887,587.725 231.5,590C 241.715,591.023 251.715,592.523 261.5,594.5C 247.12,597.156 233.453,595.156 220.5,588.5 Z"/></g>
<g><path style="opacity:1" fill="#e7e4db" d="M -0.5,727.5 C 1.16667,728.5 2.5,729.833 3.5,731.5C 2.16667,731.5 0.833333,731.5 -0.5,731.5C -0.5,730.167 -0.5,728.833 -0.5,727.5 Z"/></g>
<g><path style="opacity:1" fill="#dddbd2" d="M 517.5,728.5 C 517.5,729.5 517.5,730.5 517.5,731.5C 516.5,731.5 515.5,731.5 514.5,731.5C 515.167,730.167 516.167,729.167 517.5,728.5 Z"/></g>
</svg>
