<?xml version="1.0" encoding="UTF-8"?>
<!-- Author: Jiachun Li -->
<!DOCTYPE svg PUBLIC "-//W3C//DTD SVG 1.1//EN" "http://www.w3.org/Graphics/SVG/1.1/DTD/svg11.dtd">
<svg xmlns="http://www.w3.org/2000/svg" version="1.1" viewBox="-107 0 733 733" style="shape-rendering:geometricPrecision; text-rendering:geometricPrecision; image-rendering:optimizeQuality; fill-rule:evenodd; clip-rule:evenodd" xmlns:xlink="http://www.w3.org/1999/xlink">
<g><path style="opacity:1" fill="#dcdcd2" d="M 512.5,-0.5 C 513.833,-0.5 515.167,-0.5 516.5,-0.5C 516.5,0.5 516.5,1.5 516.5,2.5C 515.128,1.48837 513.795,0.488369 512.5,-0.5 Z"/></g>
<g><path style="opacity:1" fill="#e1e1d5" d="M -0.5,-0.5 C 0.833333,-0.5 2.16667,-0.5 3.5,-0.5C 2.20498,0.488369 0.871651,1.48837 -0.5,2.5C -0.5,1.5 -0.5,0.5 -0.5,-0.5 Z"/></g>
<g><path style="opacity:1" fill="#010001" d="M 3.5,-0.5 C 173.167,-0.5 342.833,-0.5 512.5,-0.5C 513.795,0.488369 515.128,1.48837 516.5,2.5C 516.5,245.5 516.5,488.5 516.5,731.5C 515.29,731.932 514.29,732.599 513.5,733.5C 343.167,733.5 172.833,733.5 2.5,733.5C 1.83333,732.167 0.833333,731.167 -0.5,730.5C -0.5,487.833 -0.5,245.167 -0.5,2.5C 0.871651,1.48837 2.20498,0.488369 3.5,-0.5 Z"/></g>
<g><path style="opacity:1" fill="#b9b7ad" d="M 503.5,14.5 C 340.167,14.5 176.833,14.5 13.5,14.5C 13.5,249.5 13.5,484.5 13.5,719.5C 12.5002,484.334 12.1669,249.001 12.5,13.5C 176.334,13.167 340.001,13.5003 503.5,14.5 Z"/></g>
<g><path style="opacity:1" fill="#fbf7e9" d="M 503.5,14.5 C 503.833,249.667 503.5,484.667 502.5,719.5C 502.5,484.833 502.5,250.167 502.5,15.5C 501.5,15.5 500.5,15.5 499.5,15.5C 499.5,250.167 499.5,484.833 499.5,719.5C 498.833,719.5 498.167,719.5 497.5,719.5C 497.833,484.832 497.5,250.166 496.5,15.5C 495.784,16.311 494.95,16.9777 494,17.5C 491.696,17.389 489.696,16.7223 488,15.5C 485.266,16.3617 485.099,17.195 487.5,18C 485.5,18.6667 483.5,18.6667 481.5,18C 483.966,17.0703 483.799,16.237 481,15.5C 330.861,16.3311 180.694,16.8311 30.5,17C 180.167,17.3333 329.833,17.6667 479.5,18C 329.5,18.6667 179.5,18.6667 29.5,18C 27.6992,17.6827 27.3659,17.016 28.5,16C 23.8452,15.5008 19.1785,15.3342 14.5,15.5C 14.5,250.167 14.5,484.833 14.5,719.5C 14.1667,719.5 13.8333,719.5 13.5,719.5C 13.5,484.5 13.5,249.5 13.5,14.5C 176.833,14.5 340.167,14.5 503.5,14.5 Z"/></g>
<g><path style="opacity:1" fill="#fcf7e6" d="M 497.5,719.5 C 336.5,719.5 175.5,719.5 14.5,719.5C 14.5,484.833 14.5,250.167 14.5,15.5C 19.1785,15.3342 23.8452,15.5008 28.5,16C 27.3659,17.016 27.6992,17.6827 29.5,18C 179.5,18.6667 329.5,18.6667 479.5,18C 329.833,17.6667 180.167,17.3333 30.5,17C 180.694,16.8311 330.861,16.3311 481,15.5C 483.799,16.237 483.966,17.0703 481.5,18C 483.5,18.6667 485.5,18.6667 487.5,18C 485.099,17.195 485.266,16.3617 488,15.5C 489.696,16.7223 491.696,17.389 494,17.5C 494.95,16.9777 495.784,16.311 496.5,15.5C 497.5,250.166 497.833,484.832 497.5,719.5 Z"/></g>
<g><path style="opacity:1" fill="#fcf8e5" d="M 502.5,719.5 C 501.5,719.5 500.5,719.5 499.5,719.5C 499.5,484.833 499.5,250.167 499.5,15.5C 500.5,15.5 501.5,15.5 502.5,15.5C 502.5,250.167 502.5,484.833 502.5,719.5 Z"/></g>
<g><path style="opacity:1" fill="#0b0a09" d="M 25.5,23.5 C 181.167,23.3333 336.834,23.5 492.5,24C 493,24.5 493.5,25 494,25.5C 494.667,253.167 494.667,480.833 494,708.5C 493.5,709 493,709.5 492.5,710C 336.5,710.667 180.5,710.667 24.5,710C 24,709.5 23.5,709 23,708.5C 22.5,481.167 22.3333,253.834 22.5,26.5C 22.5,24.5 23.5,23.5 25.5,23.5 Z"/></g>
<g><path style="opacity:1" fill="#e1dfd4" d="M 22.5,26.5 C 22.3333,253.834 22.5,481.167 23,708.5C 23.5,709 24,709.5 24.5,710C 180.5,710.667 336.5,710.667 492.5,710C 493,709.5 493.5,709 494,708.5C 494.667,480.833 494.667,253.167 494,25.5C 493.5,25 493,24.5 492.5,24C 336.834,23.5 181.167,23.3333 25.5,23.5C 181.373,22.8319 337.373,22.1652 493.5,21.5C 494.086,21.7093 494.586,22.0426 495,22.5C 495.833,251.834 495.667,481.167 494.5,710.5C 492.568,711.366 490.568,712.033 488.5,712.5C 336.299,711.347 183.966,711.181 31.5,712C 29.6494,712.837 27.8161,713.671 26,714.5C 24.0015,712.747 21.8348,711.413 19.5,710.5C 21.1531,482.382 22.1531,254.382 22.5,26.5 Z"/></g>
<g><path style="opacity:1" fill="#aaa799" d="M 486.5,30.5 C 487.5,254.666 487.833,478.999 487.5,703.5C 334.666,703.833 181.999,703.5 29.5,702.5C 181.833,702.5 334.167,702.5 486.5,702.5C 486.5,478.5 486.5,254.5 486.5,30.5 Z"/></g>
<g><path style="opacity:1" fill="#fcf6e6" d="M 486.5,30.5 C 486.5,254.5 486.5,478.5 486.5,702.5C 334.167,702.5 181.833,702.5 29.5,702.5C 29.5,478.5 29.5,254.5 29.5,30.5C 181.833,30.5 334.167,30.5 486.5,30.5 Z"/></g>
<g><path style="opacity:1" fill="#99775f" d="M 215.5,591.5 C 215.833,591.5 216.167,591.5 216.5,591.5C 217.167,591.5 217.833,591.5 218.5,591.5C 227.905,597.814 238.405,600.814 250,600.5C 253.868,600.381 257.701,600.047 261.5,599.5C 269.195,598.576 276.528,596.409 283.5,593C 279.312,592.824 275.312,592.324 271.5,591.5C 276.595,591.221 281.595,591.555 286.5,592.5C 271.31,601.052 254.977,603.885 237.5,601C 229.358,599.461 222.025,596.295 215.5,591.5 Z"/></g>
<g><path style="opacity:1" fill="#fbf0db" d="M 218.5,591.5 C 232.787,594.959 247.12,597.625 261.5,599.5C 257.701,600.047 253.868,600.381 250,600.5C 238.405,600.814 227.905,597.814 218.5,591.5 Z"/></g>
<g><path style="opacity:1" fill="#f1d5a6" d="M 239.5,590.5 C 243.921,591.912 248.588,592.579 253.5,592.5C 256.355,592.497 259.022,592.164 261.5,591.5C 264.833,591.5 268.167,591.5 271.5,591.5C 275.312,592.324 279.312,592.824 283.5,593C 276.528,596.409 269.195,598.576 261.5,599.5C 247.12,597.625 232.787,594.959 218.5,591.5C 217.833,591.5 217.167,591.5 216.5,591.5C 214.906,590.017 213.24,588.517 211.5,587C 220.696,588.732 230.029,589.899 239.5,590.5 Z"/></g>
<g><path style="opacity:1" fill="#ad7946" d="M 237.5,587.5 C 241.182,587.335 244.848,587.501 248.5,588C 248.833,588.333 249.167,588.667 249.5,589C 247.833,589.333 246.167,589.667 244.5,590C 249.352,590.815 254.019,590.648 258.5,589.5C 259.5,590.167 260.5,590.833 261.5,591.5C 259.022,592.164 256.355,592.497 253.5,592.5C 248.588,592.579 243.921,591.912 239.5,590.5C 240.978,590.762 242.311,590.429 243.5,589.5C 241.369,588.831 239.369,588.165 237.5,587.5 Z"/></g>
<g><path style="opacity:1" fill="#864828" d="M 344.5,559.5 C 345.5,559.5 346.5,559.5 347.5,559.5C 346.306,560.272 345.306,561.272 344.5,562.5C 343.596,563.209 343.263,564.209 343.5,565.5C 340.5,566.5 338.5,568.5 337.5,571.5C 323.743,586.093 306.743,593.093 286.5,592.5C 281.595,591.555 276.595,591.221 271.5,591.5C 268.167,591.5 264.833,591.5 261.5,591.5C 260.5,590.833 259.5,590.167 258.5,589.5C 268.737,588.257 279.403,586.257 290.5,583.5C 308.063,579.982 324.063,572.982 338.5,562.5C 340.784,562.025 342.784,561.025 344.5,559.5 Z"/></g>
<g><path style="opacity:1" fill="#efd2a1" d="M 166.5,575.5 C 171.576,577.717 176.909,579.05 182.5,579.5C 190.614,582.258 198.948,584.258 207.5,585.5C 209.394,586.945 211.06,588.612 212.5,590.5C 200.036,590.111 188.036,587.611 176.5,583C 172.851,580.702 169.518,578.202 166.5,575.5 Z"/></g>
<g><path style="opacity:1" fill="#efd3a7" d="M 149.5,556.5 C 152.719,557.638 156.053,558.471 159.5,559C 166.081,565.422 173.081,571.255 180.5,576.5C 173.767,576.899 167.434,575.232 161.5,571.5C 159.241,563.605 154.074,559.271 146,558.5C 145.536,559.094 145.369,559.761 145.5,560.5C 144.5,559.833 143.5,559.167 142.5,558.5C 140.738,557.738 139.738,556.404 139.5,554.5C 139.369,553.624 139.702,552.957 140.5,552.5C 143.404,554.12 146.404,555.453 149.5,556.5 Z"/></g>
<g><path style="opacity:1" fill="#a48266" d="M 142.5,558.5 C 143.5,559.167 144.5,559.833 145.5,560.5C 149.782,565.645 155.115,569.312 161.5,571.5C 167.434,575.232 173.767,576.899 180.5,576.5C 181.401,577.29 182.068,578.29 182.5,579.5C 176.909,579.05 171.576,577.717 166.5,575.5C 157.496,572.329 149.663,567.329 143,560.5C 142.536,559.906 142.369,559.239 142.5,558.5 Z"/></g>
<g><path style="opacity:1" fill="#efb75e" d="M 119.5,493.5 C 120.069,500.458 122.736,506.458 127.5,511.5C 127.343,512.873 127.51,514.207 128,515.5C 142.219,535.39 159.886,551.39 181,563.5C 187.466,566.209 193.966,568.709 200.5,571C 210.038,573.273 219.372,572.94 228.5,570C 229.059,569.275 229.392,568.442 229.5,567.5C 228.428,564.796 227.428,562.13 226.5,559.5C 225.5,559.5 224.5,559.5 223.5,559.5C 223.5,558.5 223.5,557.5 223.5,556.5C 221.651,553.317 219.651,550.15 217.5,547C 218.995,545.839 220.495,544.673 222,543.5C 224.172,544.608 224.672,546.108 223.5,548C 225.674,551.161 228.507,552.328 232,551.5C 237.284,556.206 243.451,559.206 250.5,560.5C 254.195,562.679 257.862,564.845 261.5,567C 264.757,568.043 268.09,568.543 271.5,568.5C 271.5,569.5 271.5,570.5 271.5,571.5C 274.599,571.092 276.933,572.259 278.5,575C 283.5,575.333 288.5,575.667 293.5,576C 291.75,577.319 289.75,577.819 287.5,577.5C 287.5,578.5 287.5,579.5 287.5,580.5C 290.567,580.121 291.567,581.121 290.5,583.5C 279.403,586.257 268.737,588.257 258.5,589.5C 254.019,590.648 249.352,590.815 244.5,590C 246.167,589.667 247.833,589.333 249.5,589C 249.167,588.667 248.833,588.333 248.5,588C 244.848,587.501 241.182,587.335 237.5,587.5C 228.633,587.189 219.966,585.689 211.5,583C 166.324,568.551 133.158,539.384 112,495.5C 109.292,489.755 107.459,483.755 106.5,477.5C 106.709,471.739 107.542,471.406 109,476.5C 109.87,475.892 110.37,475.059 110.5,474C 109.618,471.738 108.618,469.571 107.5,467.5C 107.833,466.833 108.167,466.167 108.5,465.5C 109.971,466.381 110.804,467.714 111,469.5C 111.382,481.38 112.382,481.38 114,469.5C 115.113,468.289 116.28,468.289 117.5,469.5C 116.958,477.658 117.624,485.658 119.5,493.5 Z"/></g>
<g><path style="opacity:1" fill="#f8efdb" d="M 161.5,571.5 C 155.115,569.312 149.782,565.645 145.5,560.5C 145.369,559.761 145.536,559.094 146,558.5C 154.074,559.271 159.241,563.605 161.5,571.5 Z"/></g>
<g><path style="opacity:1" fill="#efd4ad" d="M 365.5,552.5 C 362.035,556.456 358.035,559.956 353.5,563C 348.343,566.08 343.009,568.913 337.5,571.5C 338.5,568.5 340.5,566.5 343.5,565.5C 348.833,563.337 353.499,560.17 357.5,556C 360.076,554.544 362.742,553.377 365.5,552.5 Z"/></g>
<g><path style="opacity:1" fill="#eabe9a" d="M 344.5,562.5 C 345.306,561.272 346.306,560.272 347.5,559.5C 349.16,557.752 351.16,557.252 353.5,558C 350.582,559.709 347.748,561.542 345,563.5C 344.601,563.272 344.435,562.938 344.5,562.5 Z"/></g>
<g><path style="opacity:1" fill="#986d47" d="M 384.5,529.5 C 384.371,531.216 384.038,532.883 383.5,534.5C 379.194,542.139 373.194,548.139 365.5,552.5C 362.742,553.377 360.076,554.544 357.5,556C 353.499,560.17 348.833,563.337 343.5,565.5C 343.263,564.209 343.596,563.209 344.5,562.5C 344.435,562.938 344.601,563.272 345,563.5C 347.748,561.542 350.582,559.709 353.5,558C 351.16,557.252 349.16,557.752 347.5,559.5C 346.5,559.5 345.5,559.5 344.5,559.5C 350.979,554.415 357.312,549.081 363.5,543.5C 363.5,544.167 363.833,544.5 364.5,544.5C 360.693,548.135 356.693,551.635 352.5,555C 355.017,555.257 357.35,554.59 359.5,553C 364.102,548.906 368.102,544.406 371.5,539.5C 372.105,537.519 373.105,537.185 374.5,538.5C 371.414,543.092 367.747,547.258 363.5,551C 369.327,549.217 374.16,545.717 378,540.5C 380.193,536.77 382.36,533.103 384.5,529.5 Z"/></g>
<g><path style="opacity:1" fill="#ebcba2" d="M 371.5,539.5 C 368.102,544.406 364.102,548.906 359.5,553C 357.35,554.59 355.017,555.257 352.5,555C 356.693,551.635 360.693,548.135 364.5,544.5C 366.657,542.588 368.991,540.921 371.5,539.5 Z"/></g>
<g><path style="opacity:1" fill="#f6d378" d="M 127.5,511.5 C 130.28,511.945 132.947,511.945 135.5,511.5C 138.271,514.392 141.271,517.058 144.5,519.5C 145.62,518.167 146.953,517.667 148.5,518C 152.339,523.884 157.339,529.384 163.5,534.5C 173.161,543.287 184.328,545.954 197,542.5C 198.123,539.751 199.623,537.251 201.5,535C 198.007,531.339 195.34,527.172 193.5,522.5C 203.041,534.258 213.041,545.591 223.5,556.5C 223.5,557.5 223.5,558.5 223.5,559.5C 224.5,559.5 225.5,559.5 226.5,559.5C 227.428,562.13 228.428,564.796 229.5,567.5C 229.392,568.442 229.059,569.275 228.5,570C 219.372,572.94 210.038,573.273 200.5,571C 193.966,568.709 187.466,566.209 181,563.5C 159.886,551.39 142.219,535.39 128,515.5C 127.51,514.207 127.343,512.873 127.5,511.5 Z"/></g>
<g><path style="opacity:1" fill="#ecd1ad" d="M 111.5,527.5 C 118.909,536.909 127.242,545.242 136.5,552.5C 134.217,552.392 132.217,551.559 130.5,550C 124.265,544.387 118.265,538.554 112.5,532.5C 111.691,530.929 111.357,529.262 111.5,527.5 Z"/></g>
<g><path style="opacity:1" fill="#f4cb75" d="M 371.5,511.5 C 371.771,513.821 371.104,515.821 369.5,517.5C 371.174,518.88 372.84,520.213 374.5,521.5C 375.554,521.32 376.554,520.987 377.5,520.5C 377.833,521.167 378.167,521.833 378.5,522.5C 377.453,524.056 376.786,525.723 376.5,527.5C 372.948,533.394 368.614,538.727 363.5,543.5C 357.312,549.081 350.979,554.415 344.5,559.5C 342.784,561.025 340.784,562.025 338.5,562.5C 334.653,561.157 331.32,558.991 328.5,556C 320.24,552.018 311.907,548.184 303.5,544.5C 304.609,543.71 305.942,543.21 307.5,543C 308.257,541.488 309.257,540.154 310.5,539C 329.352,536.89 346.352,530.39 361.5,519.5C 365.165,517.159 368.499,514.493 371.5,511.5 Z"/></g>
<g><path style="opacity:1" fill="#eccaa0" d="M 124.5,529.5 C 131.928,538.596 140.594,546.263 150.5,552.5C 150.265,553.097 149.765,553.43 149,553.5C 144.323,551.912 139.823,549.912 135.5,547.5C 130.654,541.731 126.987,535.731 124.5,529.5 Z"/></g>
<g><path style="opacity:1" fill="#eccfa8" d="M 384.5,529.5 C 382.36,533.103 380.193,536.77 378,540.5C 374.16,545.717 369.327,549.217 363.5,551C 367.747,547.258 371.414,543.092 374.5,538.5C 376.691,533.8 379.857,529.8 384,526.5C 384.483,527.448 384.649,528.448 384.5,529.5 Z"/></g>
<g><path style="opacity:1" fill="#edaa4a" d="M 344.5,501.5 C 344.047,502.458 343.381,503.292 342.5,504C 347.862,507.348 353.528,510.181 359.5,512.5C 358.91,513.799 357.91,514.632 356.5,515C 357.993,516.368 359.493,516.535 361,515.5C 362.511,516.564 362.677,517.897 361.5,519.5C 346.352,530.39 329.352,536.89 310.5,539C 309.257,540.154 308.257,541.488 307.5,543C 305.942,543.21 304.609,543.71 303.5,544.5C 292.765,546.651 282.098,546.984 271.5,545.5C 277.621,545.91 283.621,545.41 289.5,544C 280.46,540.766 271.793,536.766 263.5,532C 264.416,531.626 265.25,531.126 266,530.5C 268.381,531.435 270.881,531.768 273.5,531.5C 277.476,532.295 281.476,532.962 285.5,533.5C 285.918,534.222 286.584,534.722 287.5,535C 296.13,536.368 304.797,536.702 313.5,536C 318.035,534.847 320.035,532.18 319.5,528C 321.158,527.275 321.658,526.108 321,524.5C 315.397,520.073 308.897,517.907 301.5,518C 302.416,517.722 303.082,517.222 303.5,516.5C 317.831,513.51 331.497,508.51 344.5,501.5 Z"/></g>
<g><path style="opacity:1" fill="#ec9940" d="M 257.5,524.5 C 263.122,526.474 268.455,528.807 273.5,531.5C 270.881,531.768 268.381,531.435 266,530.5C 265.25,531.126 264.416,531.626 263.5,532C 271.793,536.766 280.46,540.766 289.5,544C 283.621,545.41 277.621,545.91 271.5,545.5C 248.673,542.902 228.007,535.069 209.5,522C 206.261,518.603 203.261,515.103 200.5,511.5C 200.201,509.396 200.534,507.396 201.5,505.5C 202.446,505.013 203.446,504.68 204.5,504.5C 208.806,506.204 212.806,508.371 216.5,511C 218.81,511.497 221.143,511.663 223.5,511.5C 223.5,512.5 223.5,513.5 223.5,514.5C 229.332,516.724 235.165,519.058 241,521.5C 246.691,525.662 253.358,528.662 261,530.5C 261.5,530 262,529.5 262.5,529C 260.715,527.837 258.715,527.17 256.5,527C 257.252,526.329 257.586,525.496 257.5,524.5 Z"/></g>
<g><path style="opacity:1" fill="#f2c167" d="M 219.5,499.5 C 213.996,499.068 208.663,499.735 203.5,501.5C 199.574,504.038 198.574,507.371 200.5,511.5C 203.261,515.103 206.261,518.603 209.5,522C 228.007,535.069 248.673,542.902 271.5,545.5C 282.098,546.984 292.765,546.651 303.5,544.5C 311.907,548.184 320.24,552.018 328.5,556C 331.32,558.991 334.653,561.157 338.5,562.5C 324.063,572.982 308.063,579.982 290.5,583.5C 291.567,581.121 290.567,580.121 287.5,580.5C 287.5,579.5 287.5,578.5 287.5,577.5C 289.75,577.819 291.75,577.319 293.5,576C 288.5,575.667 283.5,575.333 278.5,575C 276.933,572.259 274.599,571.092 271.5,571.5C 271.5,570.5 271.5,569.5 271.5,568.5C 268.09,568.543 264.757,568.043 261.5,567C 257.862,564.845 254.195,562.679 250.5,560.5C 243.451,559.206 237.284,556.206 232,551.5C 228.507,552.328 225.674,551.161 223.5,548C 224.672,546.108 224.172,544.608 222,543.5C 220.495,544.673 218.995,545.839 217.5,547C 219.651,550.15 221.651,553.317 223.5,556.5C 213.041,545.591 203.041,534.258 193.5,522.5C 190.75,518.689 187.75,515.022 184.5,511.5C 184.66,509.801 184.494,508.134 184,506.5C 182.434,507.061 181.101,506.394 180,504.5C 179.506,502.866 179.34,501.199 179.5,499.5C 182.245,499.373 184.245,500.54 185.5,503C 184.549,503.718 184.383,504.551 185,505.5C 186.333,506.167 187.667,506.833 189,507.5C 189.216,509.384 189.883,511.051 191,512.5C 191.182,509.774 191.682,507.107 192.5,504.5C 192.976,507.184 193.976,509.517 195.5,511.5C 197.414,508.428 198.748,505.095 199.5,501.5C 203.46,499.137 207.794,498.137 212.5,498.5C 215.025,498.503 217.359,498.837 219.5,499.5 Z"/></g>
<g><path style="opacity:1" fill="#eed4aa" d="M 118.5,523.5 C 119.752,525.001 120.752,526.668 121.5,528.5C 124.029,533.055 126.696,537.555 129.5,542C 129.167,542.167 128.833,542.333 128.5,542.5C 117.216,533.247 110.049,521.58 107,507.5C 109.63,513.783 113.463,519.117 118.5,523.5 Z"/></g>
<g><path style="opacity:1" fill="#8d5a3a" d="M 102.5,487.5 C 103.708,488.234 105.041,488.567 106.5,488.5C 106.185,491.211 106.852,493.544 108.5,495.5C 107.252,496.334 106.585,497.667 106.5,499.5C 108.34,507.849 112.173,515.183 118,521.5C 118.399,521.272 118.565,520.938 118.5,520.5C 119.625,521.348 119.625,522.348 118.5,523.5C 113.463,519.117 109.63,513.783 107,507.5C 110.049,521.58 117.216,533.247 128.5,542.5C 128.833,542.333 129.167,542.167 129.5,542C 126.696,537.555 124.029,533.055 121.5,528.5C 122.791,528.263 123.791,528.596 124.5,529.5C 126.987,535.731 130.654,541.731 135.5,547.5C 139.823,549.912 144.323,551.912 149,553.5C 149.765,553.43 150.265,553.097 150.5,552.5C 151.043,552.56 151.376,552.893 151.5,553.5C 150.624,554.251 149.624,554.751 148.5,555C 149.056,555.383 149.389,555.883 149.5,556.5C 146.404,555.453 143.404,554.12 140.5,552.5C 139.702,552.957 139.369,553.624 139.5,554.5C 138.5,553.833 137.5,553.167 136.5,552.5C 127.242,545.242 118.909,536.909 111.5,527.5C 109.576,523.983 107.909,520.316 106.5,516.5C 103.949,507.038 102.616,497.371 102.5,487.5 Z"/></g>
<g><path style="opacity:1" fill="#e8973b" d="M 251.5,512.5 C 268.495,517.464 285.828,518.797 303.5,516.5C 303.082,517.222 302.416,517.722 301.5,518C 308.897,517.907 315.397,520.073 321,524.5C 321.658,526.108 321.158,527.275 319.5,528C 320.035,532.18 318.035,534.847 313.5,536C 304.797,536.702 296.13,536.368 287.5,535C 286.584,534.722 285.918,534.222 285.5,533.5C 290.021,533.502 294.521,533.836 299,534.5C 300.5,534.167 302,533.833 303.5,533.5C 300.002,531.874 296.335,530.707 292.5,530C 292.833,529.667 293.167,529.333 293.5,529C 291.559,528.257 289.726,528.424 288,529.5C 287.727,527.899 287.227,526.399 286.5,525C 282.263,523.548 278.263,521.548 274.5,519C 268.245,517.441 261.911,516.274 255.5,515.5C 253.668,514.943 252.335,513.943 251.5,512.5 Z"/></g>
<g><path style="opacity:1" fill="#e88836" d="M 233.5,505.5 C 239.247,508.369 245.247,510.702 251.5,512.5C 252.335,513.943 253.668,514.943 255.5,515.5C 261.911,516.274 268.245,517.441 274.5,519C 278.263,521.548 282.263,523.548 286.5,525C 287.227,526.399 287.727,527.899 288,529.5C 289.726,528.424 291.559,528.257 293.5,529C 293.167,529.333 292.833,529.667 292.5,530C 296.335,530.707 300.002,531.874 303.5,533.5C 302,533.833 300.5,534.167 299,534.5C 294.521,533.836 290.021,533.502 285.5,533.5C 281.476,532.962 277.476,532.295 273.5,531.5C 268.455,528.807 263.122,526.474 257.5,524.5C 250.744,520.263 244.077,515.763 237.5,511C 235.536,509.549 234.203,507.716 233.5,505.5 Z"/></g>
<g><path style="opacity:1" fill="#854727" d="M 389.5,451.5 C 389.649,452.552 389.483,453.552 389,454.5C 385.478,460.223 381.978,465.889 378.5,471.5C 372.194,478.14 365.861,484.807 359.5,491.5C 354.293,494.527 349.293,497.86 344.5,501.5C 331.497,508.51 317.831,513.51 303.5,516.5C 285.828,518.797 268.495,517.464 251.5,512.5C 245.247,510.702 239.247,508.369 233.5,505.5C 229.833,503.5 226.167,501.5 222.5,499.5C 218.65,496.739 214.983,493.739 211.5,490.5C 217.599,493.049 223.599,495.882 229.5,499C 230.793,499.49 232.127,499.657 233.5,499.5C 235.655,500.269 237.655,501.435 239.5,503C 241.134,503.494 242.801,503.66 244.5,503.5C 260.584,507.569 276.917,510.236 293.5,511.5C 301.167,511.5 308.833,511.5 316.5,511.5C 324.367,507.4 332.367,503.567 340.5,500C 345.002,496.33 349.335,492.497 353.5,488.5C 357.513,484.485 361.179,480.152 364.5,475.5C 369.675,467.149 375.342,459.149 381.5,451.5C 382.652,452.625 383.652,452.625 384.5,451.5C 386.286,449.078 387.952,449.078 389.5,451.5 Z"/></g>
<g><path style="opacity:1" fill="#eda848" d="M 219.5,499.5 C 220.5,499.5 221.5,499.5 222.5,499.5C 226.167,501.5 229.833,503.5 233.5,505.5C 234.203,507.716 235.536,509.549 237.5,511C 244.077,515.763 250.744,520.263 257.5,524.5C 257.586,525.496 257.252,526.329 256.5,527C 258.715,527.17 260.715,527.837 262.5,529C 262,529.5 261.5,530 261,530.5C 253.358,528.662 246.691,525.662 241,521.5C 235.165,519.058 229.332,516.724 223.5,514.5C 223.5,513.5 223.5,512.5 223.5,511.5C 221.143,511.663 218.81,511.497 216.5,511C 212.806,508.371 208.806,506.204 204.5,504.5C 203.446,504.68 202.446,505.013 201.5,505.5C 200.534,507.396 200.201,509.396 200.5,511.5C 198.574,507.371 199.574,504.038 203.5,501.5C 208.663,499.735 213.996,499.068 219.5,499.5 Z"/></g>
<g><path style="opacity:1" fill="#f5d787" d="M 409.5,439.5 C 409.5,440.167 409.833,440.5 410.5,440.5C 409.58,448.198 408.58,455.864 407.5,463.5C 402.708,480.785 395.874,497.452 387,513.5C 383.723,518.414 380.223,523.08 376.5,527.5C 376.786,525.723 377.453,524.056 378.5,522.5C 378.167,521.833 377.833,521.167 377.5,520.5C 376.554,520.987 375.554,521.32 374.5,521.5C 372.84,520.213 371.174,518.88 369.5,517.5C 371.104,515.821 371.771,513.821 371.5,511.5C 374.158,508.876 376.825,506.209 379.5,503.5C 380.794,502.71 381.961,501.71 383,500.5C 384.012,497.69 385.178,495.024 386.5,492.5C 387.822,492.67 388.989,492.337 390,491.5C 392.648,487.688 394.815,483.688 396.5,479.5C 397.5,479.5 398.5,479.5 399.5,479.5C 399.34,477.801 399.506,476.134 400,474.5C 401.385,473.449 402.385,472.116 403,470.5C 403.889,464.41 405.056,458.41 406.5,452.5C 407.745,448.123 408.745,443.79 409.5,439.5 Z"/></g>
<g><path style="opacity:1" fill="#f4e5c0" d="M 407.5,463.5 C 408.324,467.312 408.824,471.312 409,475.5C 409.667,476.167 410.333,476.833 411,477.5C 412.333,473.5 413.667,469.5 415,465.5C 415.499,469.486 415.666,473.486 415.5,477.5C 411.546,489.035 407.213,500.368 402.5,511.5C 401.5,511.5 400.5,511.5 399.5,511.5C 399.805,515.227 398.305,517.894 395,519.5C 394.373,523.609 392.207,526.276 388.5,527.5C 388.031,530.643 386.364,532.977 383.5,534.5C 384.038,532.883 384.371,531.216 384.5,529.5C 389.855,519.119 395.021,508.452 400,497.5C 403.768,486.431 406.268,475.097 407.5,463.5 Z"/></g>
<g><path style="opacity:1" fill="#f5e7d6" d="M 292.5,509.5 C 292.833,510.167 293.167,510.833 293.5,511.5C 276.917,510.236 260.584,507.569 244.5,503.5C 242.946,502.105 243.279,501.439 245.5,501.5C 261.321,503.415 276.988,506.081 292.5,509.5 Z"/></g>
<g><path style="opacity:1" fill="#89512d" d="M 407.5,463.5 C 406.268,475.097 403.768,486.431 400,497.5C 395.021,508.452 389.855,519.119 384.5,529.5C 384.649,528.448 384.483,527.448 384,526.5C 379.857,529.8 376.691,533.8 374.5,538.5C 373.105,537.185 372.105,537.519 371.5,539.5C 368.991,540.921 366.657,542.588 364.5,544.5C 363.833,544.5 363.5,544.167 363.5,543.5C 368.614,538.727 372.948,533.394 376.5,527.5C 380.223,523.08 383.723,518.414 387,513.5C 395.874,497.452 402.708,480.785 407.5,463.5 Z"/></g>
<g><path style="opacity:1" fill="#aa8b75" d="M 292.5,509.5 C 276.988,506.081 261.321,503.415 245.5,501.5C 243.279,501.439 242.946,502.105 244.5,503.5C 242.801,503.66 241.134,503.494 239.5,503C 237.655,501.435 235.655,500.269 233.5,499.5C 233.369,498.761 233.536,498.094 234,497.5C 235.396,499.527 237.062,499.86 239,498.5C 239.75,499.126 240.584,499.626 241.5,500C 252.229,500.854 262.896,502.187 273.5,504C 280.256,504.775 286.589,506.608 292.5,509.5 Z"/></g>
<g><path style="opacity:1" fill="#efb955" d="M 359.5,491.5 C 357.281,494.958 358.115,495.291 362,492.5C 363.3,494.459 365.133,495.626 367.5,496C 365.715,497.593 365.548,499.093 367,500.5C 368.724,498.604 370.557,496.938 372.5,495.5C 369.343,499.804 366.176,504.137 363,508.5C 362.333,509.167 362.333,509.833 363,510.5C 369.724,504.941 375.891,498.941 381.5,492.5C 380.94,496.193 380.273,499.86 379.5,503.5C 376.825,506.209 374.158,508.876 371.5,511.5C 368.499,514.493 365.165,517.159 361.5,519.5C 362.677,517.897 362.511,516.564 361,515.5C 359.493,516.535 357.993,516.368 356.5,515C 357.91,514.632 358.91,513.799 359.5,512.5C 353.528,510.181 347.862,507.348 342.5,504C 343.381,503.292 344.047,502.458 344.5,501.5C 349.293,497.86 354.293,494.527 359.5,491.5 Z"/></g>
<g><path style="opacity:1" fill="#f0dab4" d="M 353.5,488.5 C 349.335,492.497 345.002,496.33 340.5,500C 332.367,503.567 324.367,507.4 316.5,511.5C 316.511,509.983 317.177,508.816 318.5,508C 321.672,506.248 324.672,504.248 327.5,502C 336.019,498.131 344.019,493.465 351.5,488C 352.437,487.308 353.103,487.475 353.5,488.5 Z"/></g>
<g><path style="opacity:1" fill="#9b7858" d="M 404.5,378.5 C 403.833,378.5 403.167,378.5 402.5,378.5C 401.292,377.766 399.959,377.433 398.5,377.5C 394.816,395.004 392.316,412.67 391,430.5C 392.356,429.62 393.856,429.286 395.5,429.5C 395.5,430.167 395.5,430.833 395.5,431.5C 393.173,431.247 391.173,431.914 389.5,433.5C 388.297,439.442 386.297,445.109 383.5,450.5C 383.624,451.107 383.957,451.44 384.5,451.5C 383.652,452.625 382.652,452.625 381.5,451.5C 383.898,447.058 385.398,442.391 386,437.5C 376.874,449.458 369.707,462.125 364.5,475.5C 361.179,480.152 357.513,484.485 353.5,488.5C 353.103,487.475 352.437,487.308 351.5,488C 344.019,493.465 336.019,498.131 327.5,502C 324.672,504.248 321.672,506.248 318.5,508C 317.177,508.816 316.511,509.983 316.5,511.5C 308.833,511.5 301.167,511.5 293.5,511.5C 293.167,510.833 292.833,510.167 292.5,509.5C 300.142,510.283 307.809,510.116 315.5,509C 318.69,506.636 321.69,504.136 324.5,501.5C 337.214,496.06 348.714,488.727 359,479.5C 361.845,474.473 364.679,469.473 367.5,464.5C 367.5,464.167 367.5,463.833 367.5,463.5C 373.316,452.546 380.15,442.213 388,432.5C 390.746,416.199 393.246,399.866 395.5,383.5C 395.548,375.56 398.548,373.893 404.5,378.5 Z"/></g>
<g><path style="opacity:1" fill="#f3e1bb" d="M 108.5,495.5 C 109.793,497.296 111.293,498.963 113,500.5C 114.331,507.323 116.164,513.99 118.5,520.5C 118.565,520.938 118.399,521.272 118,521.5C 112.173,515.183 108.34,507.849 106.5,499.5C 106.585,497.667 107.252,496.334 108.5,495.5 Z"/></g>
<g><path style="opacity:1" fill="#f7dd90" d="M 184.5,511.5 C 187.75,515.022 190.75,518.689 193.5,522.5C 195.34,527.172 198.007,531.339 201.5,535C 199.623,537.251 198.123,539.751 197,542.5C 184.328,545.954 173.161,543.287 163.5,534.5C 157.339,529.384 152.339,523.884 148.5,518C 146.953,517.667 145.62,518.167 144.5,519.5C 141.271,517.058 138.271,514.392 135.5,511.5C 132.947,511.945 130.28,511.945 127.5,511.5C 122.736,506.458 120.069,500.458 119.5,493.5C 118.927,485.965 119.761,478.632 122,471.5C 125.257,468.572 129.091,467.738 133.5,469C 137.465,470.993 141.465,472.993 145.5,475C 159.621,485.954 172.621,498.12 184.5,511.5 Z"/></g>
<g><path style="opacity:1" fill="#fae8a4" d="M 155.5,507.5 C 158.187,507.336 160.854,507.503 163.5,508C 173.097,513.214 180.097,520.88 184.5,531C 188.821,531.499 193.154,531.666 197.5,531.5C 197.664,534.187 197.497,536.854 197,539.5C 196.439,540.022 195.772,540.355 195,540.5C 190.878,538.272 186.545,536.605 182,535.5C 180.726,534.465 179.56,533.298 178.5,532C 177.216,531.316 176.049,531.483 175,532.5C 171.119,530.581 167.285,528.748 163.5,527C 160.89,525.616 159.39,523.449 159,520.5C 157.915,519.707 156.748,519.04 155.5,518.5C 154.242,514.79 154.242,511.123 155.5,507.5 Z"/></g>
<g><path style="opacity:1" fill="#e69d3e" d="M 381.5,492.5 C 375.891,498.941 369.724,504.941 363,510.5C 362.333,509.833 362.333,509.167 363,508.5C 366.176,504.137 369.343,499.804 372.5,495.5C 376.46,491.53 380.127,487.196 383.5,482.5C 384.13,480.065 385.463,479.398 387.5,480.5C 385.46,484.546 383.46,488.546 381.5,492.5 Z"/></g>
<g><path style="opacity:1" fill="#f2e7c3" d="M 96.5,475.5 C 99.0234,479.213 101.023,483.213 102.5,487.5C 102.616,497.371 103.949,507.038 106.5,516.5C 104.521,515.188 102.855,513.521 101.5,511.5C 96.1509,500.064 94.4842,488.064 96.5,475.5 Z"/></g>
<g><path style="opacity:1" fill="#efc45c" d="M 378.5,471.5 C 378.315,473.196 377.481,474.529 376,475.5C 375.163,477.821 374.83,480.155 375,482.5C 376.314,481.687 377.481,480.687 378.5,479.5C 379.695,481.297 381.362,482.297 383.5,482.5C 380.127,487.196 376.46,491.53 372.5,495.5C 370.557,496.938 368.724,498.604 367,500.5C 365.548,499.093 365.715,497.593 367.5,496C 365.133,495.626 363.3,494.459 362,492.5C 358.115,495.291 357.281,494.958 359.5,491.5C 365.861,484.807 372.194,478.14 378.5,471.5 Z"/></g>
<g><path style="opacity:1" fill="#f3d268" d="M 395.5,436.5 C 395.833,436.5 396.167,436.5 396.5,436.5C 394.987,449.282 393.154,461.948 391,474.5C 393.677,469.834 397.011,465.834 401,462.5C 401.144,459.558 402.311,457.224 404.5,455.5C 405.167,454.5 405.833,453.5 406.5,452.5C 405.056,458.41 403.889,464.41 403,470.5C 402.385,472.116 401.385,473.449 400,474.5C 399.506,476.134 399.34,477.801 399.5,479.5C 398.5,479.5 397.5,479.5 396.5,479.5C 394.815,483.688 392.648,487.688 390,491.5C 388.989,492.337 387.822,492.67 386.5,492.5C 385.178,495.024 384.012,497.69 383,500.5C 381.961,501.71 380.794,502.71 379.5,503.5C 380.273,499.86 380.94,496.193 381.5,492.5C 383.46,488.546 385.46,484.546 387.5,480.5C 385.463,479.398 384.13,480.065 383.5,482.5C 381.362,482.297 379.695,481.297 378.5,479.5C 377.481,480.687 376.314,481.687 375,482.5C 374.83,480.155 375.163,477.821 376,475.5C 377.481,474.529 378.315,473.196 378.5,471.5C 381.978,465.889 385.478,460.223 389,454.5C 389.483,453.552 389.649,452.552 389.5,451.5C 393.153,447.282 395.153,442.282 395.5,436.5 Z"/></g>
<g><path style="opacity:1" fill="#e49643" d="M 181.5,454.5 C 186.693,463.368 192.693,471.701 199.5,479.5C 195.281,479.472 191.781,477.805 189,474.5C 186.735,467.657 184.235,460.99 181.5,454.5 Z"/></g>
<g><path style="opacity:1" fill="#f6f1ce" d="M 367.5,464.5 C 364.679,469.473 361.845,474.473 359,479.5C 348.714,488.727 337.214,496.06 324.5,501.5C 325.795,497.577 327.628,493.91 330,490.5C 331.506,488.826 333.339,487.826 335.5,487.5C 335.281,486.325 335.614,485.325 336.5,484.5C 344.186,476.709 352.686,469.709 362,463.5C 363.699,464.406 365.533,464.739 367.5,464.5 Z"/></g>
<g><path style="opacity:1" fill="#f9f1df" d="M 179.5,374.5 C 180.117,374.611 180.617,374.944 181,375.5C 184.782,391.306 187.449,407.306 189,423.5C 193.005,444.838 201.838,463.838 215.5,480.5C 215.333,480.833 215.167,481.167 215,481.5C 211.717,479.109 208.217,477.109 204.5,475.5C 203.206,474.71 202.039,473.71 201,472.5C 198.079,467.659 195.412,462.659 193,457.5C 189.065,445.027 184.731,432.694 180,420.5C 179.505,418.527 179.338,416.527 179.5,414.5C 179.666,406.826 179.5,399.159 179,391.5C 178.667,396.167 178.333,400.833 178,405.5C 177.548,402.123 176.882,398.789 176,395.5C 175.708,400.055 176.208,404.555 177.5,409C 177.227,410.533 176.894,412.033 176.5,413.5C 174.813,411.834 172.813,410.5 170.5,409.5C 170.5,407.833 170.5,406.167 170.5,404.5C 172.362,398.792 174.196,393.125 176,387.5C 176.667,384.833 177.333,384.833 178,387.5C 178.228,383.083 178.728,378.75 179.5,374.5 Z"/></g>
<g><path style="opacity:1" fill="#ecbf51" d="M 399.5,426.5 C 398.664,433.35 397.664,440.184 396.5,447C 396.667,448.5 396.833,450 397,451.5C 397.308,450.692 397.808,450.025 398.5,449.5C 400.278,454.232 401.278,453.565 401.5,447.5C 402.5,447.5 403.5,447.5 404.5,447.5C 404.5,450.167 404.5,452.833 404.5,455.5C 402.311,457.224 401.144,459.558 401,462.5C 397.011,465.834 393.677,469.834 391,474.5C 393.154,461.948 394.987,449.282 396.5,436.5C 397.11,435.609 397.443,434.609 397.5,433.5C 397.41,430.848 398.076,428.515 399.5,426.5 Z"/></g>
<g><path style="opacity:1" fill="#86482a" d="M 170.5,409.5 C 172.813,410.5 174.813,411.834 176.5,413.5C 177.015,418.086 178.015,418.419 179.5,414.5C 179.338,416.527 179.505,418.527 180,420.5C 184.731,432.694 189.065,445.027 193,457.5C 195.412,462.659 198.079,467.659 201,472.5C 202.039,473.71 203.206,474.71 204.5,475.5C 204.5,476.167 204.5,476.833 204.5,477.5C 206.975,480.785 208.642,484.452 209.5,488.5C 205.564,486.234 202.231,483.234 199.5,479.5C 192.693,471.701 186.693,463.368 181.5,454.5C 181.5,454.167 181.5,453.833 181.5,453.5C 179.515,448.859 177.515,444.193 175.5,439.5C 172.396,430.749 170.396,421.749 169.5,412.5C 169.263,411.209 169.596,410.209 170.5,409.5 Z"/></g>
<g><path style="opacity:1" fill="#f1e1bb" d="M 381.5,451.5 C 375.342,459.149 369.675,467.149 364.5,475.5C 369.707,462.125 376.874,449.458 386,437.5C 385.398,442.391 383.898,447.058 381.5,451.5 Z"/></g>
<g><path style="opacity:1" fill="#ec9c41" d="M 173.5,461.5 C 173.044,464.286 171.377,465.619 168.5,465.5C 156.963,460.957 149.63,452.624 146.5,440.5C 147.033,432.813 148.533,432.813 151,440.5C 151.833,439.5 152.667,438.5 153.5,437.5C 155.79,439.967 157.957,439.967 160,437.5C 162.43,442.437 165.764,444.771 170,444.5C 172.995,449.722 174.162,455.389 173.5,461.5 Z"/></g>
<g><path style="opacity:1" fill="#f5edc8" d="M 395.5,431.5 C 395.5,433.167 395.5,434.833 395.5,436.5C 395.153,442.282 393.153,447.282 389.5,451.5C 387.952,449.078 386.286,449.078 384.5,451.5C 383.957,451.44 383.624,451.107 383.5,450.5C 386.297,445.109 388.297,439.442 389.5,433.5C 391.173,431.914 393.173,431.247 395.5,431.5 Z"/></g>
<g><path style="opacity:1" fill="#f3c972" d="M 100.5,423.5 C 101.117,423.611 101.617,423.944 102,424.5C 102.206,427.623 102.873,430.623 104,433.5C 104.333,432.167 104.667,430.833 105,429.5C 105.421,433.872 106.088,438.205 107,442.5C 107.914,438.858 108.748,435.192 109.5,431.5C 110.487,434.768 110.82,438.102 110.5,441.5C 115.519,441.752 120.519,442.252 125.5,443C 127.107,444.049 127.773,445.549 127.5,447.5C 132.823,446.58 137.157,448.08 140.5,452C 141.448,452.483 142.448,452.649 143.5,452.5C 142.961,449.305 143.961,446.805 146.5,445C 145.62,443.644 145.286,442.144 145.5,440.5C 145.833,440.5 146.167,440.5 146.5,440.5C 149.63,452.624 156.963,460.957 168.5,465.5C 171.377,465.619 173.044,464.286 173.5,461.5C 174.326,456.684 174.826,451.684 175,446.5C 176.742,449.213 178.909,451.546 181.5,453.5C 181.5,453.833 181.5,454.167 181.5,454.5C 184.235,460.99 186.735,467.657 189,474.5C 191.781,477.805 195.281,479.472 199.5,479.5C 202.231,483.234 205.564,486.234 209.5,488.5C 210.167,489.167 210.833,489.833 211.5,490.5C 214.983,493.739 218.65,496.739 222.5,499.5C 221.5,499.5 220.5,499.5 219.5,499.5C 217.359,498.837 215.025,498.503 212.5,498.5C 207.794,498.137 203.46,499.137 199.5,501.5C 198.748,505.095 197.414,508.428 195.5,511.5C 193.976,509.517 192.976,507.184 192.5,504.5C 191.682,507.107 191.182,509.774 191,512.5C 189.883,511.051 189.216,509.384 189,507.5C 187.667,506.833 186.333,506.167 185,505.5C 184.383,504.551 184.549,503.718 185.5,503C 184.245,500.54 182.245,499.373 179.5,499.5C 179.34,501.199 179.506,502.866 180,504.5C 181.101,506.394 182.434,507.061 184,506.5C 184.494,508.134 184.66,509.801 184.5,511.5C 172.621,498.12 159.621,485.954 145.5,475C 141.465,472.993 137.465,470.993 133.5,469C 129.091,467.738 125.257,468.572 122,471.5C 119.761,478.632 118.927,485.965 119.5,493.5C 117.624,485.658 116.958,477.658 117.5,469.5C 116.28,468.289 115.113,468.289 114,469.5C 112.382,481.38 111.382,481.38 111,469.5C 110.804,467.714 109.971,466.381 108.5,465.5C 108.167,466.167 107.833,466.833 107.5,467.5C 108.618,469.571 109.618,471.738 110.5,474C 110.37,475.059 109.87,475.892 109,476.5C 107.542,471.406 106.709,471.739 106.5,477.5C 102.859,467.963 100.859,457.963 100.5,447.5C 100.5,439.5 100.5,431.5 100.5,423.5 Z"/></g>
<g><path style="opacity:1" fill="#edd05a" d="M 408.5,409.5 C 409.332,419.476 409.666,429.476 409.5,439.5C 408.745,443.79 407.745,448.123 406.5,452.5C 405.833,453.5 405.167,454.5 404.5,455.5C 404.5,452.833 404.5,450.167 404.5,447.5C 403.5,447.5 402.5,447.5 401.5,447.5C 401.278,453.565 400.278,454.232 398.5,449.5C 397.808,450.025 397.308,450.692 397,451.5C 396.833,450 396.667,448.5 396.5,447C 397.664,440.184 398.664,433.35 399.5,426.5C 400.951,417.393 401.951,408.226 402.5,399C 402.057,393.818 401.891,388.651 402,383.5C 405.123,391.956 407.29,400.622 408.5,409.5 Z"/></g>
<g><path style="opacity:1" fill="#eda748" d="M 162.5,422.5 C 165.29,426.845 167.79,431.512 170,436.5C 171.583,437.971 173.417,438.971 175.5,439.5C 177.515,444.193 179.515,448.859 181.5,453.5C 178.909,451.546 176.742,449.213 175,446.5C 174.826,451.684 174.326,456.684 173.5,461.5C 174.162,455.389 172.995,449.722 170,444.5C 165.764,444.771 162.43,442.437 160,437.5C 157.957,439.967 155.79,439.967 153.5,437.5C 152.667,438.5 151.833,439.5 151,440.5C 148.533,432.813 147.033,432.813 146.5,440.5C 146.167,440.5 145.833,440.5 145.5,440.5C 143.609,435.71 142.609,430.71 142.5,425.5C 142.334,421.486 142.501,417.486 143,413.5C 143.251,415.433 143.751,417.266 144.5,419C 147.561,419.849 150.228,421.349 152.5,423.5C 153.086,423.291 153.586,422.957 154,422.5C 155.444,424.155 157.278,424.822 159.5,424.5C 159.312,426.103 159.812,427.437 161,428.5C 162.128,426.655 162.628,424.655 162.5,422.5 Z"/></g>
<g><path style="opacity:1" fill="#f5d07b" d="M 104.5,394.5 C 106.823,394.209 109.156,394.709 111.5,396C 110.383,399.073 110.216,402.24 111,405.5C 111.495,403.527 111.662,401.527 111.5,399.5C 113.924,399.192 116.257,399.526 118.5,400.5C 120.956,403.234 123.956,405.234 127.5,406.5C 129.077,408.449 130.577,410.449 132,412.5C 132.815,410.377 133.815,408.377 135,406.5C 135.454,408.771 136.121,411.104 137,413.5C 138.787,408.64 139.787,403.307 140,397.5C 141.039,396.29 142.206,395.29 143.5,394.5C 141.236,400.239 140.236,406.239 140.5,412.5C 140.316,417.107 140.983,421.44 142.5,425.5C 142.609,430.71 143.609,435.71 145.5,440.5C 145.286,442.144 145.62,443.644 146.5,445C 143.961,446.805 142.961,449.305 143.5,452.5C 142.448,452.649 141.448,452.483 140.5,452C 137.157,448.08 132.823,446.58 127.5,447.5C 127.773,445.549 127.107,444.049 125.5,443C 120.519,442.252 115.519,441.752 110.5,441.5C 110.82,438.102 110.487,434.768 109.5,431.5C 108.748,435.192 107.914,438.858 107,442.5C 106.088,438.205 105.421,433.872 105,429.5C 104.667,430.833 104.333,432.167 104,433.5C 102.873,430.623 102.206,427.623 102,424.5C 101.617,423.944 101.117,423.611 100.5,423.5C 101.167,415.5 101.833,407.5 102.5,399.5C 103.552,399.649 104.552,399.483 105.5,399C 104.62,397.644 104.286,396.144 104.5,394.5 Z"/></g>
<g><path style="opacity:1" fill="#a48774" d="M 181.5,367.5 C 185.155,386.739 188.322,406.072 191,425.5C 195.77,449.88 206.937,470.713 224.5,488C 227.328,490.248 230.328,492.248 233.5,494C 232.584,494.374 231.75,494.874 231,495.5C 223.386,487.722 214.553,481.722 204.5,477.5C 204.5,476.833 204.5,476.167 204.5,475.5C 208.217,477.109 211.717,479.109 215,481.5C 215.167,481.167 215.333,480.833 215.5,480.5C 201.838,463.838 193.005,444.838 189,423.5C 187.449,407.306 184.782,391.306 181,375.5C 180.617,374.944 180.117,374.611 179.5,374.5C 180.065,372.048 180.732,369.715 181.5,367.5 Z"/></g>
<g><path style="opacity:1" fill="#e88b38" d="M 169.5,412.5 C 170.396,421.749 172.396,430.749 175.5,439.5C 173.417,438.971 171.583,437.971 170,436.5C 167.79,431.512 165.29,426.845 162.5,422.5C 158.381,415.926 155.047,408.926 152.5,401.5C 155.7,398.591 158.2,399.258 160,403.5C 160.923,402.241 161.757,400.908 162.5,399.5C 164.002,405.999 165.502,405.999 167,399.5C 167.05,404.127 167.883,408.46 169.5,412.5 Z"/></g>
<g><path style="opacity:1" fill="#844621" d="M 402.5,378.5 C 403.167,378.5 403.833,378.5 404.5,378.5C 406.527,379.861 408.194,381.527 409.5,383.5C 409.833,384.833 410.167,386.167 410.5,387.5C 410.565,387.938 410.399,388.272 410,388.5C 409.667,387.833 409.333,387.167 409,386.5C 408.235,388.066 408.402,389.399 409.5,390.5C 409.5,392.167 409.5,393.833 409.5,395.5C 409.819,400.363 409.486,405.03 408.5,409.5C 407.29,400.622 405.123,391.956 402,383.5C 401.891,388.651 402.057,393.818 402.5,399C 401.951,408.226 400.951,417.393 399.5,426.5C 398.076,428.515 397.41,430.848 397.5,433.5C 396.341,422.674 396.174,411.674 397,400.5C 398.326,394.991 399.159,389.325 399.5,383.5C 400.075,381.589 401.075,379.922 402.5,378.5 Z"/></g>
<g><path style="opacity:1" fill="#ab8d7a" d="M 97.5,367.5 C 97.5,368.167 97.8333,368.5 98.5,368.5C 95.8957,373.375 93.5624,378.375 91.5,383.5C 83.7141,398.291 81.5474,413.957 85,430.5C 85.6189,433.032 86.6189,435.365 88,437.5C 88.4994,431.843 88.6661,426.176 88.5,420.5C 88.8333,420.5 89.1667,420.5 89.5,420.5C 89.7934,427.255 89.4601,433.922 88.5,440.5C 86.0214,437.28 84.188,433.613 83,429.5C 80.2881,407.017 85.1215,386.35 97.5,367.5 Z"/></g>
<g><path style="opacity:1" fill="#946d30" d="M 410.5,387.5 C 411.776,389.562 412.61,391.896 413,394.5C 413.5,403.827 413.666,413.161 413.5,422.5C 412.503,428.464 411.503,434.464 410.5,440.5C 409.833,440.5 409.5,440.167 409.5,439.5C 409.666,429.476 409.332,419.476 408.5,409.5C 409.486,405.03 409.819,400.363 409.5,395.5C 410.33,405.659 410.83,415.992 411,426.5C 412.431,417.541 412.765,408.541 412,399.5C 411.796,396.203 410.963,393.203 409.5,390.5C 408.402,389.399 408.235,388.066 409,386.5C 409.333,387.167 409.667,387.833 410,388.5C 410.399,388.272 410.565,387.938 410.5,387.5 Z"/></g>
<g><path style="opacity:1" fill="#895938" d="M 399.5,383.5 C 399.159,389.325 398.326,394.991 397,400.5C 396.174,411.674 396.341,422.674 397.5,433.5C 397.443,434.609 397.11,435.609 396.5,436.5C 396.167,436.5 395.833,436.5 395.5,436.5C 395.5,434.833 395.5,433.167 395.5,431.5C 395.5,430.833 395.5,430.167 395.5,429.5C 395.334,419.494 395.5,409.494 396,399.5C 396.231,393.832 397.398,388.499 399.5,383.5 Z"/></g>
<g><path style="opacity:1" fill="#e9d5b3" d="M 402.5,378.5 C 401.075,379.922 400.075,381.589 399.5,383.5C 397.398,388.499 396.231,393.832 396,399.5C 395.5,409.494 395.334,419.494 395.5,429.5C 393.856,429.286 392.356,429.62 391,430.5C 392.316,412.67 394.816,395.004 398.5,377.5C 399.959,377.433 401.292,377.766 402.5,378.5 Z"/></g>
<g><path style="opacity:1" fill="#f6f2cf" d="M 395.5,383.5 C 393.246,399.866 390.746,416.199 388,432.5C 380.15,442.213 373.316,452.546 367.5,463.5C 367.36,459.836 368.027,456.336 369.5,453C 369.507,451.188 368.84,449.688 367.5,448.5C 368.631,447.396 369.465,447.729 370,449.5C 373.491,438.793 375.824,427.793 377,416.5C 379.879,405.41 383.879,394.744 389,384.5C 390.822,384.032 392.989,383.699 395.5,383.5 Z"/></g>
<g><path style="opacity:1" fill="#e2bb7d" d="M 409.5,390.5 C 410.963,393.203 411.796,396.203 412,399.5C 412.765,408.541 412.431,417.541 411,426.5C 410.83,415.992 410.33,405.659 409.5,395.5C 409.5,393.833 409.5,392.167 409.5,390.5 Z"/></g>
<g><path style="opacity:1" fill="#a17e6b" d="M 179.5,414.5 C 178.015,418.419 177.015,418.086 176.5,413.5C 176.894,412.033 177.227,410.533 177.5,409C 176.208,404.555 175.708,400.055 176,395.5C 176.882,398.789 177.548,402.123 178,405.5C 178.333,400.833 178.667,396.167 179,391.5C 179.5,399.159 179.666,406.826 179.5,414.5 Z"/></g>
<g><path style="opacity:1" fill="#faf2df" d="M 91.5,383.5 C 92.1239,383.917 92.4573,384.584 92.5,385.5C 90.0874,397.037 88.7541,408.703 88.5,420.5C 88.6661,426.176 88.4994,431.843 88,437.5C 86.6189,435.365 85.6189,433.032 85,430.5C 81.5474,413.957 83.7141,398.291 91.5,383.5 Z"/></g>
<g><path style="opacity:1" fill="#f6f2cd" d="M 415.5,399.5 C 416.833,399.5 418.167,399.5 419.5,399.5C 421.932,420.119 422.099,440.786 420,461.5C 419.146,467.112 417.646,472.446 415.5,477.5C 415.666,473.486 415.499,469.486 415,465.5C 413.667,469.5 412.333,473.5 411,477.5C 410.333,476.833 409.667,476.167 409,475.5C 408.824,471.312 408.324,467.312 407.5,463.5C 408.58,455.864 409.58,448.198 410.5,440.5C 411.503,434.464 412.503,428.464 413.5,422.5C 415.465,415.24 416.132,407.573 415.5,399.5 Z"/></g>
<g><path style="opacity:1" fill="#e2b572" d="M 106.5,383.5 C 105.833,387.167 105.167,390.833 104.5,394.5C 104.286,396.144 104.62,397.644 105.5,399C 104.552,399.483 103.552,399.649 102.5,399.5C 101.833,407.5 101.167,415.5 100.5,423.5C 100.5,431.5 100.5,439.5 100.5,447.5C 99.6909,445.708 99.1909,443.708 99,441.5C 98.0157,426.705 99.0157,412.038 102,397.5C 102.903,392.524 104.403,387.858 106.5,383.5 Z"/></g>
<g><path style="opacity:1" fill="#f3e49d" d="M 409.5,383.5 C 414.795,387.36 416.795,392.693 415.5,399.5C 416.132,407.573 415.465,415.24 413.5,422.5C 413.666,413.161 413.5,403.827 413,394.5C 412.61,391.896 411.776,389.562 410.5,387.5C 410.167,386.167 409.833,384.833 409.5,383.5 Z"/></g>
<g><path style="opacity:1" fill="#f2dfb8" d="M 113.5,346.5 C 110.261,353.589 106.761,360.589 103,367.5C 95.8391,384.477 91.3391,402.143 89.5,420.5C 89.1667,420.5 88.8333,420.5 88.5,420.5C 88.7541,408.703 90.0874,397.037 92.5,385.5C 92.4573,384.584 92.1239,383.917 91.5,383.5C 93.5624,378.375 95.8957,373.375 98.5,368.5C 103.071,360.362 107.904,352.362 113,344.5C 113.654,343.304 114.154,343.304 114.5,344.5C 114.137,345.183 113.804,345.85 113.5,346.5 Z"/></g>
<g><path style="opacity:1" fill="#e99a3e" d="M 170.5,377.5 C 168.758,387.768 168.258,398.101 169,408.5C 169.21,406.942 169.71,405.609 170.5,404.5C 170.5,406.167 170.5,407.833 170.5,409.5C 169.596,410.209 169.263,411.209 169.5,412.5C 167.883,408.46 167.05,404.127 167,399.5C 165.502,405.999 164.002,405.999 162.5,399.5C 161.757,400.908 160.923,402.241 160,403.5C 158.2,399.258 155.7,398.591 152.5,401.5C 151.849,400.909 151.182,400.243 150.5,399.5C 149.217,394.479 149.217,389.479 150.5,384.5C 151.651,383.269 152.817,383.269 154,384.5C 154.419,383.328 155.085,382.328 156,381.5C 156.333,383.167 156.667,384.833 157,386.5C 158.406,385.332 159.572,385.665 160.5,387.5C 161.5,386.167 162.5,386.167 163.5,387.5C 164.429,386.311 164.762,384.978 164.5,383.5C 165.5,383.5 166.5,383.5 167.5,383.5C 167.351,384.552 167.517,385.552 168,386.5C 168.204,383.203 169.037,380.203 170.5,377.5 Z"/></g>
<g><path style="opacity:1" fill="#f5d988" d="M 124.5,345.5 C 125.716,348.638 124.55,350.972 121,352.5C 120.647,355.539 119.48,358.205 117.5,360.5C 118.375,362.773 120.042,363.773 122.5,363.5C 122.5,364.833 122.5,366.167 122.5,367.5C 124.143,367.52 125.476,366.853 126.5,365.5C 131.523,368.678 136.857,371.345 142.5,373.5C 143.149,375.624 143.983,377.624 145,379.5C 145.684,378.216 145.517,377.049 144.5,376C 145.784,375.316 146.951,375.483 148,376.5C 149.049,374.382 150.549,372.716 152.5,371.5C 151.698,375.75 150.364,379.75 148.5,383.5C 147.5,383.5 146.5,383.5 145.5,383.5C 144.537,387.101 143.87,390.767 143.5,394.5C 142.206,395.29 141.039,396.29 140,397.5C 139.787,403.307 138.787,408.64 137,413.5C 136.121,411.104 135.454,408.771 135,406.5C 133.815,408.377 132.815,410.377 132,412.5C 130.577,410.449 129.077,408.449 127.5,406.5C 123.956,405.234 120.956,403.234 118.5,400.5C 116.257,399.526 113.924,399.192 111.5,399.5C 111.662,401.527 111.495,403.527 111,405.5C 110.216,402.24 110.383,399.073 111.5,396C 109.156,394.709 106.823,394.209 104.5,394.5C 105.167,390.833 105.833,387.167 106.5,383.5C 110.38,369.744 116.38,357.077 124.5,345.5 Z"/></g>
<g><path style="opacity:1" fill="#edaf4a" d="M 177.5,351.5 C 174.852,360.091 172.519,368.758 170.5,377.5C 169.037,380.203 168.204,383.203 168,386.5C 167.517,385.552 167.351,384.552 167.5,383.5C 166.5,383.5 165.5,383.5 164.5,383.5C 164.762,384.978 164.429,386.311 163.5,387.5C 162.5,386.167 161.5,386.167 160.5,387.5C 159.572,385.665 158.406,385.332 157,386.5C 156.667,384.833 156.333,383.167 156,381.5C 155.085,382.328 154.419,383.328 154,384.5C 152.817,383.269 151.651,383.269 150.5,384.5C 149.217,389.479 149.217,394.479 150.5,399.5C 151.182,400.243 151.849,400.909 152.5,401.5C 155.047,408.926 158.381,415.926 162.5,422.5C 162.628,424.655 162.128,426.655 161,428.5C 159.812,427.437 159.312,426.103 159.5,424.5C 157.278,424.822 155.444,424.155 154,422.5C 153.586,422.957 153.086,423.291 152.5,423.5C 150.228,421.349 147.561,419.849 144.5,419C 143.751,417.266 143.251,415.433 143,413.5C 142.501,417.486 142.334,421.486 142.5,425.5C 140.983,421.44 140.316,417.107 140.5,412.5C 140.236,406.239 141.236,400.239 143.5,394.5C 143.87,390.767 144.537,387.101 145.5,383.5C 146.5,383.5 147.5,383.5 148.5,383.5C 150.364,379.75 151.698,375.75 152.5,371.5C 154.56,365.715 156.893,360.048 159.5,354.5C 160.5,354.5 161.5,354.5 162.5,354.5C 162.28,348.324 164.113,347.324 168,351.5C 169.162,350.813 170.328,350.647 171.5,351C 172.641,351.741 172.641,352.575 171.5,353.5C 172.325,354.386 173.325,354.719 174.5,354.5C 174.5,353.5 174.5,352.5 174.5,351.5C 175.5,351.5 176.5,351.5 177.5,351.5 Z"/></g>
<g><path style="opacity:1" fill="#864829" d="M 191.5,329.5 C 191.325,331.621 191.659,333.621 192.5,335.5C 190.917,337.663 189.584,339.996 188.5,342.5C 187.167,343.5 187.167,344.5 188.5,345.5C 186.175,348.754 184.842,352.42 184.5,356.5C 183.368,360.019 182.368,363.686 181.5,367.5C 180.732,369.715 180.065,372.048 179.5,374.5C 178.728,378.75 178.228,383.083 178,387.5C 177.333,384.833 176.667,384.833 176,387.5C 174.196,393.125 172.362,398.792 170.5,404.5C 169.71,405.609 169.21,406.942 169,408.5C 168.258,398.101 168.758,387.768 170.5,377.5C 172.519,368.758 174.852,360.091 177.5,351.5C 181.627,343.935 186.293,336.602 191.5,329.5 Z"/></g>
<g><path style="opacity:1" fill="#9a7656" d="M 142.5,303.5 C 144.329,307.183 143.329,309.849 139.5,311.5C 131.053,320.374 123.553,330.041 117,340.5C 116.598,341.872 116.098,343.205 115.5,344.5C 115.624,345.107 115.957,345.44 116.5,345.5C 115.791,346.404 114.791,346.737 113.5,346.5C 113.804,345.85 114.137,345.183 114.5,344.5C 114.154,343.304 113.654,343.304 113,344.5C 107.904,352.362 103.071,360.362 98.5,368.5C 97.8333,368.5 97.5,368.167 97.5,367.5C 97.5,367.167 97.5,366.833 97.5,366.5C 107.597,351.227 117.097,335.56 126,319.5C 130.707,313.292 136.207,307.958 142.5,303.5 Z"/></g>
<g><path style="opacity:1" fill="#f7e293" d="M 133.5,333.5 C 132.663,336.848 132.163,340.181 132,343.5C 134.397,342.707 137.23,342.874 140.5,344C 142.956,345.711 145.623,347.044 148.5,348C 149.958,350.057 150.792,352.223 151,354.5C 151.333,352.833 151.667,351.167 152,349.5C 153.586,350.376 155.086,351.376 156.5,352.5C 157.308,352.192 157.975,351.692 158.5,351C 156.5,349.667 154.5,348.333 152.5,347C 155.114,347.532 157.78,347.865 160.5,348C 161.69,344.75 163.69,342.25 166.5,340.5C 163.867,345.103 161.533,349.769 159.5,354.5C 156.893,360.048 154.56,365.715 152.5,371.5C 150.549,372.716 149.049,374.382 148,376.5C 146.951,375.483 145.784,375.316 144.5,376C 145.517,377.049 145.684,378.216 145,379.5C 143.983,377.624 143.149,375.624 142.5,373.5C 136.857,371.345 131.523,368.678 126.5,365.5C 125.476,366.853 124.143,367.52 122.5,367.5C 122.5,366.167 122.5,364.833 122.5,363.5C 120.042,363.773 118.375,362.773 117.5,360.5C 119.48,358.205 120.647,355.539 121,352.5C 124.55,350.972 125.716,348.638 124.5,345.5C 126.762,340.91 129.762,336.91 133.5,333.5 Z"/></g>
<g><path style="opacity:1" fill="#9b7453" d="M 217.5,308.5 C 216.909,311.614 215.242,314.114 212.5,316C 213.056,316.383 213.389,316.883 213.5,317.5C 205.138,326.859 196.805,336.192 188.5,345.5C 187.167,344.5 187.167,343.5 188.5,342.5C 188.81,343.738 189.31,343.738 190,342.5C 194.591,335.905 199.924,329.905 206,324.5C 206.627,322.414 206.127,322.081 204.5,323.5C 200.119,327.215 196.119,331.215 192.5,335.5C 191.659,333.621 191.325,331.621 191.5,329.5C 191.5,329.167 191.5,328.833 191.5,328.5C 192.167,328.5 192.5,328.167 192.5,327.5C 192.929,328.953 193.096,330.619 193,332.5C 201.089,324.243 209.255,316.243 217.5,308.5 Z"/></g>
<g><path style="opacity:1" fill="#f0c55e" d="M 191.5,328.5 C 191.5,328.833 191.5,329.167 191.5,329.5C 186.293,336.602 181.627,343.935 177.5,351.5C 176.5,351.5 175.5,351.5 174.5,351.5C 174.5,352.5 174.5,353.5 174.5,354.5C 173.325,354.719 172.325,354.386 171.5,353.5C 172.641,352.575 172.641,351.741 171.5,351C 170.328,350.647 169.162,350.813 168,351.5C 164.113,347.324 162.28,348.324 162.5,354.5C 161.5,354.5 160.5,354.5 159.5,354.5C 161.533,349.769 163.867,345.103 166.5,340.5C 169.016,336.134 172.016,332.134 175.5,328.5C 179.174,327.153 182.84,325.82 186.5,324.5C 186.384,327.91 188.05,329.244 191.5,328.5 Z"/></g>
<g><path style="opacity:1" fill="#ead2ad" d="M 188.5,342.5 C 189.584,339.996 190.917,337.663 192.5,335.5C 196.119,331.215 200.119,327.215 204.5,323.5C 206.127,322.081 206.627,322.414 206,324.5C 199.924,329.905 194.591,335.905 190,342.5C 189.31,343.738 188.81,343.738 188.5,342.5 Z"/></g>
<g><path style="opacity:1" fill="#f0e1bc" d="M 139.5,311.5 C 133.316,323.879 125.649,335.212 116.5,345.5C 115.957,345.44 115.624,345.107 115.5,344.5C 116.098,343.205 116.598,341.872 117,340.5C 123.553,330.041 131.053,320.374 139.5,311.5 Z"/></g>
<g><path style="opacity:1" fill="#f2d56c" d="M 199.5,303.5 C 201.938,305.975 204.604,308.309 207.5,310.5C 202.208,315.799 197.208,321.466 192.5,327.5C 192.5,328.167 192.167,328.5 191.5,328.5C 188.05,329.244 186.384,327.91 186.5,324.5C 182.84,325.82 179.174,327.153 175.5,328.5C 181.967,318.883 189.967,310.55 199.5,303.5 Z"/></g>
<g><path style="opacity:1" fill="#e8d1ad" d="M 138.5,307.5 C 139.525,307.897 139.692,308.563 139,309.5C 133.623,315.208 128.623,321.208 124,327.5C 124.642,325.193 125.642,322.859 127,320.5C 130.67,315.998 134.503,311.665 138.5,307.5 Z"/></g>
<g><path style="opacity:1" fill="#f3e7bd" d="M 217.5,308.5 C 209.255,316.243 201.089,324.243 193,332.5C 193.096,330.619 192.929,328.953 192.5,327.5C 197.208,321.466 202.208,315.799 207.5,310.5C 208.795,309.512 210.128,308.512 211.5,307.5C 211.56,308.043 211.893,308.376 212.5,308.5C 215.037,306.93 217.704,306.097 220.5,306C 219.429,306.852 218.429,307.685 217.5,308.5 Z"/></g>
<g><path style="opacity:1" fill="#a27f5e" d="M 241.5,300.5 C 236.232,303.134 230.899,305.801 225.5,308.5C 224.516,305.93 223.349,305.93 222,308.5C 222.355,304.965 224.188,303.632 227.5,304.5C 227.56,305.043 227.893,305.376 228.5,305.5C 232.533,302.981 236.866,301.314 241.5,300.5 Z"/></g>
<g><path style="opacity:1" fill="#f8efa5" d="M 268.5,275.5 C 262.158,275.334 255.825,275.5 249.5,276C 235.155,281.004 222.155,288.338 210.5,298C 208.5,298.333 206.5,298.667 204.5,299C 202.917,300.758 201.25,302.258 199.5,303.5C 189.967,310.55 181.967,318.883 175.5,328.5C 172.016,332.134 169.016,336.134 166.5,340.5C 163.69,342.25 161.69,344.75 160.5,348C 157.78,347.865 155.114,347.532 152.5,347C 154.5,348.333 156.5,349.667 158.5,351C 157.975,351.692 157.308,352.192 156.5,352.5C 155.086,351.376 153.586,350.376 152,349.5C 151.667,351.167 151.333,352.833 151,354.5C 150.792,352.223 149.958,350.057 148.5,348C 145.623,347.044 142.956,345.711 140.5,344C 137.23,342.874 134.397,342.707 132,343.5C 132.163,340.181 132.663,336.848 133.5,333.5C 151.526,309.989 174.526,293.155 202.5,283C 224.071,275.412 246.071,272.912 268.5,275.5 Z"/></g>
<g><path style="opacity:1" fill="#f6f1cd" d="M 313.5,293.5 C 310.753,296.207 307.42,297.873 303.5,298.5C 303.5,299.5 303.5,300.5 303.5,301.5C 294.827,301.334 286.16,301.5 277.5,302C 264.275,305.391 251.275,309.558 238.5,314.5C 236.902,313.515 235.235,313.349 233.5,314C 231.974,315.887 229.974,316.887 227.5,317C 228.711,317.893 228.711,318.726 227.5,319.5C 225.192,320.641 223.359,322.308 222,324.5C 221.667,323.833 221.333,323.167 221,322.5C 215.459,326.027 212.459,331.027 212,337.5C 206.731,341.855 201.565,346.355 196.5,351C 194.866,351.494 193.199,351.66 191.5,351.5C 191.66,353.199 191.494,354.866 191,356.5C 188.837,355.232 186.67,355.232 184.5,356.5C 184.842,352.42 186.175,348.754 188.5,345.5C 196.805,336.192 205.138,326.859 213.5,317.5C 216.934,313.731 220.934,310.731 225.5,308.5C 230.899,305.801 236.232,303.134 241.5,300.5C 246.91,298.974 252.244,297.141 257.5,295C 262.986,293.703 268.486,292.536 274,291.5C 282.589,293.351 291.256,294.685 300,295.5C 304.63,295.56 309.13,294.893 313.5,293.5 Z"/></g>
<g><path style="opacity:1" fill="#e0c2a1" d="M 241.5,300.5 C 236.866,301.314 232.533,302.981 228.5,305.5C 227.893,305.376 227.56,305.043 227.5,304.5C 229.412,301.851 232.079,300.518 235.5,300.5C 238.114,299.455 240.78,298.955 243.5,299C 242.584,299.278 241.918,299.778 241.5,300.5 Z"/></g>
<g><path style="opacity:1" fill="#864a2b" d="M 239.5,264.5 C 253.649,263.838 267.649,264.838 281.5,267.5C 290.017,270.093 298.017,273.759 305.5,278.5C 306.24,280.405 306.24,282.072 305.5,283.5C 305.5,284.167 305.833,284.5 306.5,284.5C 301.65,285.623 296.65,286.623 291.5,287.5C 290.167,287.167 288.833,286.833 287.5,286.5C 273.269,284.946 259.936,287.613 247.5,294.5C 242.801,295.32 238.801,297.32 235.5,300.5C 232.079,300.518 229.412,301.851 227.5,304.5C 224.188,303.632 222.355,304.965 222,308.5C 223.349,305.93 224.516,305.93 225.5,308.5C 220.934,310.731 216.934,313.731 213.5,317.5C 213.389,316.883 213.056,316.383 212.5,316C 215.242,314.114 216.909,311.614 217.5,308.5C 218.429,307.685 219.429,306.852 220.5,306C 217.704,306.097 215.037,306.93 212.5,308.5C 211.893,308.376 211.56,308.043 211.5,307.5C 236.432,287.585 265.099,278.751 297.5,281C 288.096,277.877 278.43,276.043 268.5,275.5C 246.071,272.912 224.071,275.412 202.5,283C 174.526,293.155 151.526,309.989 133.5,333.5C 129.762,336.91 126.762,340.91 124.5,345.5C 116.38,357.077 110.38,369.744 106.5,383.5C 104.403,387.858 102.903,392.524 102,397.5C 99.0157,412.038 98.0157,426.705 99,441.5C 99.1909,443.708 99.6909,445.708 100.5,447.5C 100.859,457.963 102.859,467.963 106.5,477.5C 107.459,483.755 109.292,489.755 112,495.5C 133.158,539.384 166.324,568.551 211.5,583C 219.966,585.689 228.633,587.189 237.5,587.5C 239.369,588.165 241.369,588.831 243.5,589.5C 242.311,590.429 240.978,590.762 239.5,590.5C 230.029,589.899 220.696,588.732 211.5,587C 213.24,588.517 214.906,590.017 216.5,591.5C 216.167,591.5 215.833,591.5 215.5,591.5C 214.609,590.89 213.609,590.557 212.5,590.5C 211.06,588.612 209.394,586.945 207.5,585.5C 198.948,584.258 190.614,582.258 182.5,579.5C 182.068,578.29 181.401,577.29 180.5,576.5C 173.081,571.255 166.081,565.422 159.5,559C 156.053,558.471 152.719,557.638 149.5,556.5C 149.389,555.883 149.056,555.383 148.5,555C 149.624,554.751 150.624,554.251 151.5,553.5C 151.376,552.893 151.043,552.56 150.5,552.5C 140.594,546.263 131.928,538.596 124.5,529.5C 123.791,528.596 122.791,528.263 121.5,528.5C 120.752,526.668 119.752,525.001 118.5,523.5C 119.625,522.348 119.625,521.348 118.5,520.5C 116.164,513.99 114.331,507.323 113,500.5C 111.293,498.963 109.793,497.296 108.5,495.5C 106.852,493.544 106.185,491.211 106.5,488.5C 105.041,488.567 103.708,488.234 102.5,487.5C 101.023,483.213 99.0234,479.213 96.5,475.5C 91.7917,464.291 89.125,452.624 88.5,440.5C 89.4601,433.922 89.7934,427.255 89.5,420.5C 91.3391,402.143 95.8391,384.477 103,367.5C 106.761,360.589 110.261,353.589 113.5,346.5C 114.791,346.737 115.791,346.404 116.5,345.5C 125.649,335.212 133.316,323.879 139.5,311.5C 143.329,309.849 144.329,307.183 142.5,303.5C 145.167,301.5 147.833,299.5 150.5,297.5C 151.847,296.829 153.014,296.829 154,297.5C 154.995,296.934 155.828,296.267 156.5,295.5C 164.611,291.228 172.611,286.728 180.5,282C 188.075,278.865 195.741,276.031 203.5,273.5C 207.105,274.934 210.439,274.434 213.5,272C 212.584,271.722 211.918,271.222 211.5,270.5C 217.574,269.481 223.574,268.148 229.5,266.5C 232.941,265.903 236.275,265.237 239.5,264.5 Z"/></g>
<g><path style="opacity:1" fill="#f0d9ba" d="M 95.5,450.5 C 96.4959,450.414 97.3292,450.748 98,451.5C 99.9875,460.416 100.987,469.416 101,478.5C 96.0356,469.829 94.2023,460.495 95.5,450.5 Z"/></g>
<g><path style="opacity:1" fill="#e4c198" d="M 91.5,418.5 C 93.295,425.487 94.6283,432.821 95.5,440.5C 95.4101,442.964 94.7435,445.13 93.5,447C 94.6349,451.748 94.8015,456.581 94,461.5C 92.9516,457.21 92.1182,452.876 91.5,448.5C 91.6409,438.594 91.6409,428.594 91.5,418.5 Z"/></g>
<g><path style="opacity:1" fill="#edd9b0" d="M 133.5,324.5 C 135.008,327.08 134.341,329.08 131.5,330.5C 131.167,330.167 130.833,329.833 130.5,329.5C 131.763,327.971 132.763,326.305 133.5,324.5 Z"/></g>
<g><path style="opacity:1" fill="#f5eecd" d="M 157.5,290.5 C 154.861,292.473 152.527,294.806 150.5,297.5C 147.833,299.5 145.167,301.5 142.5,303.5C 136.207,307.958 130.707,313.292 126,319.5C 117.097,335.56 107.597,351.227 97.5,366.5C 99.6837,355.287 104.017,344.953 110.5,335.5C 111.466,333.604 111.799,331.604 111.5,329.5C 112.978,329.762 114.311,329.429 115.5,328.5C 117.192,324.283 119.526,320.45 122.5,317C 122.167,316.667 121.833,316.333 121.5,316C 123.305,315.028 124.972,313.861 126.5,312.5C 127.431,309.376 129.097,306.709 131.5,304.5C 135.137,301.873 138.804,299.207 142.5,296.5C 143.167,295.167 143.833,293.833 144.5,292.5C 145.192,293.025 145.692,293.692 146,294.5C 149.613,292.35 153.447,291.017 157.5,290.5 Z"/></g>
<g><path style="opacity:1" fill="#f4e478" d="M 268.5,275.5 C 278.43,276.043 288.096,277.877 297.5,281C 265.099,278.751 236.432,287.585 211.5,307.5C 210.128,308.512 208.795,309.512 207.5,310.5C 204.604,308.309 201.938,305.975 199.5,303.5C 201.25,302.258 202.917,300.758 204.5,299C 206.5,298.667 208.5,298.333 210.5,298C 222.155,288.338 235.155,281.004 249.5,276C 255.825,275.5 262.158,275.334 268.5,275.5 Z"/></g>
<g><path style="opacity:1" fill="#f6f0ce" d="M 291.5,287.5 C 296.65,286.623 301.65,285.623 306.5,284.5C 309.482,284.037 312.482,283.704 315.5,283.5C 316.964,289.057 314.964,292.223 309.5,293C 300.342,294.093 291.342,293.426 282.5,291C 282.167,290.667 281.833,290.333 281.5,290C 284.952,289.115 288.286,288.282 291.5,287.5 Z"/></g>
<g><path style="opacity:1" fill="#eeddba" d="M 287.5,286.5 C 274.536,288.308 261.702,291.308 249,295.5C 248.235,295.43 247.735,295.097 247.5,294.5C 259.936,287.613 273.269,284.946 287.5,286.5 Z"/></g>
<g><path style="opacity:1" fill="#916953" d="M 198.5,266.5 C 199.5,266.833 200.167,267.5 200.5,268.5C 182.889,272.954 167.889,281.787 155.5,295C 155.728,295.399 156.062,295.565 156.5,295.5C 155.828,296.267 154.995,296.934 154,297.5C 153.014,296.829 151.847,296.829 150.5,297.5C 152.527,294.806 154.861,292.473 157.5,290.5C 169.451,279.687 183.118,271.687 198.5,266.5 Z"/></g>
<g><path style="opacity:1" fill="#9f7a5f" d="M 279.5,265.5 C 293.722,269.446 307.389,274.779 320.5,281.5C 319.311,282.429 317.978,282.762 316.5,282.5C 318.447,287.05 317.447,290.717 313.5,293.5C 309.13,294.893 304.63,295.56 300,295.5C 291.256,294.685 282.589,293.351 274,291.5C 268.486,292.536 262.986,293.703 257.5,295C 252.244,297.141 246.91,298.974 241.5,300.5C 241.918,299.778 242.584,299.278 243.5,299C 240.78,298.955 238.114,299.455 235.5,300.5C 238.801,297.32 242.801,295.32 247.5,294.5C 247.735,295.097 248.235,295.43 249,295.5C 261.702,291.308 274.536,288.308 287.5,286.5C 288.833,286.833 290.167,287.167 291.5,287.5C 288.286,288.282 284.952,289.115 281.5,290C 281.833,290.333 282.167,290.667 282.5,291C 291.342,293.426 300.342,294.093 309.5,293C 314.964,292.223 316.964,289.057 315.5,283.5C 312.482,283.704 309.482,284.037 306.5,284.5C 305.833,284.5 305.5,284.167 305.5,283.5C 307.96,283.301 310.293,282.635 312.5,281.5C 310.761,278.448 308.427,277.448 305.5,278.5C 298.017,273.759 290.017,270.093 281.5,267.5C 280.833,266.833 280.167,266.167 279.5,265.5 Z"/></g>
<g><path style="opacity:1" fill="#f4e4d0" d="M 305.5,278.5 C 308.427,277.448 310.761,278.448 312.5,281.5C 310.293,282.635 307.96,283.301 305.5,283.5C 306.24,282.072 306.24,280.405 305.5,278.5 Z"/></g>
<g><path style="opacity:1" fill="#f9eedc" d="M 229.5,266.5 C 223.574,268.148 217.574,269.481 211.5,270.5C 208.743,271.512 206.076,272.512 203.5,273.5C 195.741,276.031 188.075,278.865 180.5,282C 172.611,286.728 164.611,291.228 156.5,295.5C 156.062,295.565 155.728,295.399 155.5,295C 167.889,281.787 182.889,272.954 200.5,268.5C 203.067,268.279 205.401,267.612 207.5,266.5C 215,265.603 222.333,265.603 229.5,266.5 Z"/></g>
<g><path style="opacity:1" fill="#b59375" d="M 211.5,270.5 C 211.918,271.222 212.584,271.722 213.5,272C 210.439,274.434 207.105,274.934 203.5,273.5C 206.076,272.512 208.743,271.512 211.5,270.5 Z"/></g>
<g><path style="opacity:1" fill="#d6b495" d="M 264.5,262.5 C 269.464,263.657 274.464,264.657 279.5,265.5C 280.167,266.167 280.833,266.833 281.5,267.5C 267.649,264.838 253.649,263.838 239.5,264.5C 247.833,263.833 256.167,263.167 264.5,262.5 Z"/></g>
<g><path style="opacity:1" fill="#9b7e6b" d="M 239.5,264.5 C 236.275,265.237 232.941,265.903 229.5,266.5C 222.333,265.603 215,265.603 207.5,266.5C 208.952,265.698 210.618,265.198 212.5,265C 221.494,264.5 230.494,264.334 239.5,264.5 Z"/></g>
<g><path style="opacity:1" fill="#a38873" d="M 279.5,265.5 C 274.464,264.657 269.464,263.657 264.5,262.5C 243.54,258.897 222.873,260.064 202.5,266C 204.134,266.494 205.801,266.66 207.5,266.5C 205.401,267.612 203.067,268.279 200.5,268.5C 200.167,267.5 199.5,266.833 198.5,266.5C 225.374,256.203 252.374,255.869 279.5,265.5 Z"/></g>
<g><path style="opacity:1" fill="#faefdb" d="M 264.5,262.5 C 256.167,263.167 247.833,263.833 239.5,264.5C 230.494,264.334 221.494,264.5 212.5,265C 210.618,265.198 208.952,265.698 207.5,266.5C 205.801,266.66 204.134,266.494 202.5,266C 222.873,260.064 243.54,258.897 264.5,262.5 Z"/></g>
<g><path style="opacity:1" fill="#0e0d0a" d="M 123.5,49.5 C 124.873,49.3433 126.207,49.51 127.5,50C 154.739,76.7376 181.406,103.904 207.5,131.5C 181.406,159.096 154.739,186.262 127.5,213C 126.167,213.667 124.833,213.667 123.5,213C 96.2611,186.262 69.5945,159.096 43.5,131.5C 43.6667,130.833 43.8333,130.167 44,129.5C 70.7016,102.965 97.2016,76.2987 123.5,49.5 Z"/></g>
<g><path style="opacity:1" fill="#f9f4e5" d="M 124.5,55.5 C 150.763,80.095 176.429,105.428 201.5,131.5C 176.5,157.167 151.167,182.5 125.5,207.5C 99.8333,182.5 74.5,157.167 49.5,131.5C 74.5211,106.146 99.5211,80.8125 124.5,55.5 Z"/></g>
<g><path style="opacity:1" fill="#1c1a17" d="M 149.5,135.5 C 155.788,139.912 158.788,146.079 158.5,154C 157.404,168.44 149.737,177.44 135.5,181C 127.103,181.87 118.77,181.537 110.5,180C 107.761,178.974 105.428,177.474 103.5,175.5C 119,182.843 134,182.01 148.5,173C 155.878,165.668 158.378,156.834 156,146.5C 154.326,142.476 152.159,138.809 149.5,135.5 Z"/></g>
<g><path style="opacity:1" fill="#eae7db" d="M 148.5,96.5 C 147.577,95.6971 146.577,95.5304 145.5,96C 152.033,101.795 154.2,108.961 152,117.5C 149.366,123.464 144.866,127.297 138.5,129C 141.407,129.718 144.074,129.218 146.5,127.5C 148.59,129.692 149.59,132.359 149.5,135.5C 152.159,138.809 154.326,142.476 156,146.5C 158.378,156.834 155.878,165.668 148.5,173C 134,182.01 119,182.843 103.5,175.5C 99.9686,174.775 99.302,173.442 101.5,171.5C 115.85,178.294 130.183,178.127 144.5,171C 153.798,161.841 155.631,151.341 150,139.5C 148.954,137.91 147.787,136.41 146.5,135C 142.099,132.471 137.766,129.971 133.5,127.5C 147.827,122.524 151.994,113.19 146,99.5C 138.365,92.1265 129.198,89.1265 118.5,90.5C 123.363,90.0163 128.197,89.0163 133,87.5C 133.605,89.4812 134.605,89.8146 136,88.5C 139.155,91.6673 142.988,93.5006 147.5,94C 148.252,94.6708 148.586,95.5041 148.5,96.5 Z"/></g>
<g><path style="opacity:1" fill="#2f2b24" d="M 117.5,134.5 C 123.866,133.53 129.533,135.03 134.5,139C 128.778,137.107 122.778,136.107 116.5,136C 117.056,135.617 117.389,135.117 117.5,134.5 Z"/></g>
<g><path style="opacity:1" fill="#22201d" d="M 148.5,96.5 C 156.981,107.526 156.314,117.859 146.5,127.5C 144.074,129.218 141.407,129.718 138.5,129C 144.866,127.297 149.366,123.464 152,117.5C 154.2,108.961 152.033,101.795 145.5,96C 146.577,95.5304 147.577,95.6971 148.5,96.5 Z"/></g>
<g><path style="opacity:1" fill="#26231d" d="M 119.5,116.5 C 121.028,116.517 121.528,117.184 121,118.5C 116.611,124.288 111.111,125.788 104.5,123C 109.1,123.011 113.433,122.011 117.5,120C 118.823,119.184 119.489,118.017 119.5,116.5 Z"/></g>
<g><path style="opacity:1" fill="#090908" d="M 118.5,90.5 C 129.198,89.1265 138.365,92.1265 146,99.5C 151.994,113.19 147.827,122.524 133.5,127.5C 137.766,129.971 142.099,132.471 146.5,135C 147.787,136.41 148.954,137.91 150,139.5C 155.631,151.341 153.798,161.841 144.5,171C 130.183,178.127 115.85,178.294 101.5,171.5C 96.6808,166.865 93.6808,161.198 92.5,154.5C 97.1958,152.108 101.696,149.441 106,146.5C 105.003,151.874 105.336,157.208 107,162.5C 108.413,166.748 111.246,169.415 115.5,170.5C 116.209,171.404 117.209,171.737 118.5,171.5C 128.64,173.017 135.473,169.017 139,159.5C 141.974,146.726 137.808,137.226 126.5,131C 122.33,130.675 118.33,130.509 114.5,130.5C 115.167,128.833 115.833,127.167 116.5,125.5C 130.399,126.427 137.232,120.094 137,106.5C 131.584,95.2484 123.084,92.0818 111.5,97C 105.71,102.447 105.043,108.447 109.5,115C 111.898,115.374 114.231,115.374 116.5,115C 114.63,118.602 111.63,120.102 107.5,119.5C 96.6879,117.96 93.1879,111.96 97,101.5C 102.332,94.3285 109.499,90.6618 118.5,90.5 Z"/></g>
<g><path style="opacity:1" fill="#848278" d="M 114.5,166.5 C 117.618,167.232 118.951,168.899 118.5,171.5C 117.209,171.737 116.209,171.404 115.5,170.5C 116.239,170.631 116.906,170.464 117.5,170C 115.937,169.241 114.937,168.074 114.5,166.5 Z"/></g>
<g><path style="opacity:1" fill="#272421" d="M 114.5,166.5 C 109.235,161.33 108.235,155.33 111.5,148.5C 111.455,152.231 111.621,156.231 112,160.5C 113.122,162.407 113.955,164.407 114.5,166.5 Z"/></g>
<g><path style="opacity:1" fill="#1f1d18" d="M 116.5,99.5 C 124.931,97.5567 131.264,100.223 135.5,107.5C 135.333,107.833 135.167,108.167 135,108.5C 128.909,99.7424 121.576,98.409 113,104.5C 112.022,107.669 112.522,110.503 114.5,113C 113.004,113.507 111.837,113.007 111,111.5C 109.375,105.757 111.208,101.757 116.5,99.5 Z"/></g>
<g><path style="opacity:1" fill="#ddddd3" d="M -0.5,730.5 C 0.833333,731.167 1.83333,732.167 2.5,733.5C 1.5,733.5 0.5,733.5 -0.5,733.5C -0.5,732.5 -0.5,731.5 -0.5,730.5 Z"/></g>
<g><path style="opacity:1" fill="#eae8de" d="M 516.5,731.5 C 516.5,732.167 516.5,732.833 516.5,733.5C 515.5,733.5 514.5,733.5 513.5,733.5C 514.29,732.599 515.29,731.932 516.5,731.5 Z"/></g>
</svg>
