<?xml version="1.0" encoding="utf-8"?> <svg version="1.1" id="BackgroundSVG" xmlns="http://www.w3.org/2000/svg" viewBox="0 0 100 100"> <path d="M0,0h100v100h-100z" fill="#dcdcdc" /> <g stroke-linejoin="round" stroke="#000" fill="#fff"> <path transform="translate(100 35) scale(-1)" d="M20.5,10.25a12,4 0,0,1 0,4.1h1a12,4 0,0,1 0,4.1h-1a12,4 0,0,1 0,4.1h-1.34a12,4 0,0,1 0,4.1" /> <path transform="translate(0 35) scale(1,-1)" d="M20.5,10.25a12,4 0,0,1 0,4.1h1a12,4 0,0,1 0,4.1h-1a12,4 0,0,1 0,4.1h-1.34a12,4 0,0,1 0,4.1" /> <path transform="translate(100 65) scale(-1,1)" d="M20.5,10.25a12,4 0,0,1 0,4.1h1a12,4 0,0,1 0,4.1h-1a12,4 0,0,1 0,4.1h-1.34a12,4 0,0,1 0,4.1" /> <path transform="translate(0 65)" d="M20.5,10.25a12,4 0,0,1 0,4.1h1a12,4 0,0,1 0,4.1h-1a12,4 0,0,1 0,4.1h-1.34a12,4 0,0,1 0,4.1" /> </g> </svg>