<?xml version="1.0" encoding="utf-8"?>
<!-- Generator: Adobe Illustrator 26.0.1, SVG Export Plug-In . SVG Version: 6.00 Build 0)  -->
<svg version="1.1" id="Layer_1" xmlns="http://www.w3.org/2000/svg" xmlns:xlink="http://www.w3.org/1999/xlink" x="0px" y="0px"
	 viewBox="0 0 100 100" style="enable-background:new 0 0 100 100;" xml:space="preserve">
<g>
	<path d="M48.3,47.5c0.8-0.4,1.7-0.6,2.6-0.6c3.1,0,5.1,2.9,5.1,6c0,4.3-2.4,7-6.4,7c-3.3,0-5.6-2.1-5.6-3.3c0-0.5,0.3-1.1,0.9-1.1
		c1,0,1.9,2.1,4.7,2.1c2.4,0,3.8-2,3.8-4.3c0-2.3-1-4.2-3.4-4.2c-1.8,0-2.7,0.8-3.4,0.8c-0.6,0-0.8-0.4-0.8-0.8c0-0.3,0.1-1,0.2-1.6
		l1-6.9c0.1-0.5,0.3-0.6,0.9-0.6h6.9c0.6,0,1.1,0.5,1.1,1.1c0,0.6-0.5,1.1-1.1,1.1h-5.7L48.3,47.5z"/>
</g>
</svg>
