<svg version="1.1" viewBox="70 120 820 636" fill="none" stroke="none" stroke-linecap="square" stroke-miterlimit="10" xmlns:xlink="http://www.w3.org/1999/xlink" xmlns="http://www.w3.org/2000/svg"><clipPath id="p.0"><path d="m0 0l960.0 0l0 720.0l-960.0 0l0 -720.0z" clip-rule="nonzero"/></clipPath><g clip-path="url(#p.0)"><path fill="#000000" fill-opacity="0.0" d="m0 0l960.0 0l0 720.0l-960.0 0z" fill-rule="evenodd"/><path fill="#48907b" d="m72.91338 34.330708l162.83466 0l0 162.83466l-162.83466 0z" fill-rule="evenodd"/><path stroke="#000000" stroke-width="2.0" stroke-linejoin="round" stroke-linecap="butt" d="m72.91338 34.330708l162.83466 0l0 162.83466l-162.83466 0z" fill-rule="evenodd"/><path fill="#48907b" d="m72.912865 197.16536l162.83466 0l0 162.83464l-162.83466 0z" fill-rule="evenodd"/><path stroke="#000000" stroke-width="2.0" stroke-linejoin="round" stroke-linecap="butt" d="m72.912865 197.16536l162.83466 0l0 162.83464l-162.83466 0z" fill-rule="evenodd"/><path fill="#48907b" d="m72.91338 360.0l162.83466 0l0 162.83466l-162.83466 0z" fill-rule="evenodd"/><path stroke="#000000" stroke-width="2.0" stroke-linejoin="round" stroke-linecap="butt" d="m72.91338 360.0l162.83466 0l0 162.83466l-162.83466 0z" fill-rule="evenodd"/><path fill="#48907b" d="m72.912865 522.83466l162.83466 0l0 162.83466l-162.83466 0z" fill-rule="evenodd"/><path stroke="#000000" stroke-width="2.0" stroke-linejoin="round" stroke-linecap="butt" d="m72.912865 522.83466l162.83466 0l0 162.83466l-162.83466 0z" fill-rule="evenodd"/><path fill="#48907b" d="m235.74803 34.330708l162.83464 0l0 162.83466l-162.83464 0z" fill-rule="evenodd"/><path stroke="#000000" stroke-width="2.0" stroke-linejoin="round" stroke-linecap="butt" d="m235.74803 34.330708l162.83464 0l0 162.83466l-162.83464 0z" fill-rule="evenodd"/><path fill="#48907b" d="m235.74751 197.16536l162.83464 0l0 162.83464l-162.83464 0z" fill-rule="evenodd"/><path stroke="#000000" stroke-width="2.0" stroke-linejoin="round" stroke-linecap="butt" d="m235.74751 197.16536l162.83464 0l0 162.83464l-162.83464 0z" fill-rule="evenodd"/><path fill="#48907b" d="m235.74803 360.0l162.83464 0l0 162.83466l-162.83464 0z" fill-rule="evenodd"/><path stroke="#000000" stroke-width="2.0" stroke-linejoin="round" stroke-linecap="butt" d="m235.74803 360.0l162.83464 0l0 162.83466l-162.83464 0z" fill-rule="evenodd"/><path fill="#48907b" d="m235.74751 522.83466l162.83464 0l0 162.83466l-162.83464 0z" fill-rule="evenodd"/><path stroke="#000000" stroke-width="2.0" stroke-linejoin="round" stroke-linecap="butt" d="m235.74751 522.83466l162.83464 0l0 162.83466l-162.83464 0z" fill-rule="evenodd"/><path fill="#48907b" d="m398.58267 34.330708l162.83463 0l0 162.83466l-162.83463 0z" fill-rule="evenodd"/><path stroke="#000000" stroke-width="2.0" stroke-linejoin="round" stroke-linecap="butt" d="m398.58267 34.330708l162.83463 0l0 162.83466l-162.83463 0z" fill-rule="evenodd"/><path fill="#48907b" d="m398.58215 197.16536l162.83466 0l0 162.83464l-162.83466 0z" fill-rule="evenodd"/><path stroke="#000000" stroke-width="2.0" stroke-linejoin="round" stroke-linecap="butt" d="m398.58215 197.16536l162.83466 0l0 162.83464l-162.83466 0z" fill-rule="evenodd"/><path fill="#48907b" d="m398.58267 360.0l162.83463 0l0 162.83466l-162.83463 0z" fill-rule="evenodd"/><path stroke="#000000" stroke-width="2.0" stroke-linejoin="round" stroke-linecap="butt" d="m398.58267 360.0l162.83463 0l0 162.83466l-162.83463 0z" fill-rule="evenodd"/><path fill="#48907b" d="m398.58215 522.83466l162.83466 0l0 162.83466l-162.83466 0z" fill-rule="evenodd"/><path stroke="#000000" stroke-width="2.0" stroke-linejoin="round" stroke-linecap="butt" d="m398.58215 522.83466l162.83466 0l0 162.83466l-162.83466 0z" fill-rule="evenodd"/><path fill="#48907b" d="m561.4173 34.330708l162.83466 0l0 162.83466l-162.83466 0z" fill-rule="evenodd"/><path stroke="#000000" stroke-width="2.0" stroke-linejoin="round" stroke-linecap="butt" d="m561.4173 34.330708l162.83466 0l0 162.83466l-162.83466 0z" fill-rule="evenodd"/><path fill="#48907b" d="m561.4168 197.16536l162.83466 0l0 162.83464l-162.83466 0z" fill-rule="evenodd"/><path stroke="#000000" stroke-width="2.0" stroke-linejoin="round" stroke-linecap="butt" d="m561.4168 197.16536l162.83466 0l0 162.83464l-162.83466 0z" fill-rule="evenodd"/><path fill="#48907b" d="m561.4173 360.0l162.83466 0l0 162.83466l-162.83466 0z" fill-rule="evenodd"/><path stroke="#000000" stroke-width="2.0" stroke-linejoin="round" stroke-linecap="butt" d="m561.4173 360.0l162.83466 0l0 162.83466l-162.83466 0z" fill-rule="evenodd"/><path fill="#48907b" d="m561.4168 522.83466l162.83466 0l0 162.83466l-162.83466 0z" fill-rule="evenodd"/><path stroke="#000000" stroke-width="2.0" stroke-linejoin="round" stroke-linecap="butt" d="m561.4168 522.83466l162.83466 0l0 162.83466l-162.83466 0z" fill-rule="evenodd"/><path fill="#48907b" d="m724.25195 34.330708l162.83466 0l0 162.83466l-162.83466 0z" fill-rule="evenodd"/><path stroke="#000000" stroke-width="2.0" stroke-linejoin="round" stroke-linecap="butt" d="m724.25195 34.330708l162.83466 0l0 162.83466l-162.83466 0z" fill-rule="evenodd"/><path fill="#48907b" d="m724.25146 197.16536l162.83466 0l0 162.83464l-162.83466 0z" fill-rule="evenodd"/><path stroke="#000000" stroke-width="2.0" stroke-linejoin="round" stroke-linecap="butt" d="m724.25146 197.16536l162.83466 0l0 162.83464l-162.83466 0z" fill-rule="evenodd"/><path fill="#48907b" d="m724.25195 360.0l162.83466 0l0 162.83466l-162.83466 0z" fill-rule="evenodd"/><path stroke="#000000" stroke-width="2.0" stroke-linejoin="round" stroke-linecap="butt" d="m724.25195 360.0l162.83466 0l0 162.83466l-162.83466 0z" fill-rule="evenodd"/><path fill="#48907b" d="m724.25146 522.83466l162.83466 0l0 162.83466l-162.83466 0z" fill-rule="evenodd"/><path stroke="#000000" stroke-width="2.0" stroke-linejoin="round" stroke-linecap="butt" d="m724.25146 522.83466l162.83466 0l0 162.83466l-162.83466 0z" fill-rule="evenodd"/></g></svg>