<?xml version="1.0" standalone="no"?> <svg id="bc" viewBox="0 0 100 100" xmlns="http://www.w3.org/2000/svg"> <defs> <radialGradient id="rg1"> <stop offset="0%" stop-color="#ffffff" /> <stop offset="100%" stop-color="#c0c0c0" /> </radialGradient> <path id="h" transform="scale(14.142857142857142)" d="M-0.5,-0.5h1v1h-1z" stroke-width="0.0707070707070707" stroke="#000" stroke-linejoin="round" fill="url(#rg1)" /> </defs> <use href="#h" x="35.8571" y="7.5714"/><use href="#h" x="50.0" y="7.5714"/><use href="#h" x="64.1429" y="7.5714"/><use href="#h" x="35.8571" y="21.7143"/><use href="#h" x="50.0" y="21.7143"/><use href="#h" x="64.1429" y="21.7143"/><use href="#h" x="7.5714" y="35.8571"/><use href="#h" x="21.7143" y="35.8571"/><use href="#h" x="35.8571" y="35.8571"/><use href="#h" x="50.0" y="35.8571"/><use href="#h" x="64.1429" y="35.8571"/><use href="#h" x="78.2857" y="35.8571"/><use href="#h" x="92.4286" y="35.8571"/><use href="#h" x="7.5714" y="50.0"/><use href="#h" x="21.7143" y="50.0"/><use href="#h" x="35.8571" y="50.0"/><use href="#h" x="50.0" y="50.0"/><use href="#h" x="64.1429" y="50.0"/><use href="#h" x="78.2857" y="50.0"/><use href="#h" x="92.4286" y="50.0"/><use href="#h" x="7.5714" y="64.1429"/><use href="#h" x="21.7143" y="64.1429"/><use href="#h" x="35.8571" y="64.1429"/><use href="#h" x="50.0" y="64.1429"/><use href="#h" x="64.1429" y="64.1429"/><use href="#h" x="78.2857" y="64.1429"/><use href="#h" x="92.4286" y="64.1429"/><use href="#h" x="35.8571" y="78.2857"/><use href="#h" x="50.0" y="78.2857"/><use href="#h" x="64.1429" y="78.2857"/><use href="#h" x="35.8571" y="92.4286"/><use href="#h" x="50.0" y="92.4286"/><use href="#h" x="64.1429" y="92.4286"/> </svg>