<?xml version="1.0" encoding="utf-8"?>
<svg version="1.1" id="Layer_2" xmlns="http://www.w3.org/2000/svg" xmlns:xlink="http://www.w3.org/1999/xlink" x="0px"
     y="0px"
     viewBox="0 0 50 60" style="enable-background:new 0 0 50 60;" xml:space="preserve">

    <rect x="0" y="20" width="40" height="40" stroke="black" stroke-width="0.25" fill="#a77432"/>
    
        <!-- <rect x="3.5" y="23.5" width="3" height="3" stroke="black" stroke-width="0.25" fill="#c2ad91"/>
        <rect x="13.5" y="23.5" width="3" height="3" stroke="black" stroke-width="0.25" fill="#c2ad91"/>
        <rect x="23.5" y="23.5" width="3" height="3" stroke="black" stroke-width="0.25" fill="#c2ad91"/>
        <rect x="33.5" y="23.5" width="3" height="3" stroke="black" stroke-width="0.25" fill="#c2ad91"/>

        <rect x="3.5" y="33.5" width="3" height="3" stroke="black" stroke-width="0.25" fill="#c2ad91"/>
        <rect x="13.5" y="33.5" width="3" height="3" stroke="black" stroke-width="0.25" fill="#c2ad91"/>
        <rect x="23.5" y="33.5" width="3" height="3" stroke="black" stroke-width="0.25" fill="#c2ad91"/>
        <rect x="33.5" y="33.5" width="3" height="3" stroke="black" stroke-width="0.25" fill="#c2ad91"/>

        <rect x="3.5" y="43.5" width="3" height="3" stroke="black" stroke-width="0.25" fill="#c2ad91"/>
        <rect x="13.5" y="43.5" width="3" height="3" stroke="black" stroke-width="0.25" fill="#c2ad91"/>
        <rect x="23.5" y="43.5" width="3" height="3" stroke="black" stroke-width="0.25" fill="#c2ad91"/>
        <rect x="33.5" y="43.5" width="3" height="3" stroke="black" stroke-width="0.25" fill="#c2ad91"/>

        <rect x="3.5" y="53.5" width="3" height="3" stroke="black" stroke-width="0.25" fill="#c2ad91"/>
        <rect x="13.5" y="53.5" width="3" height="3" stroke="black" stroke-width="0.25" fill="#c2ad91"/>
        <rect x="23.5" y="53.5" width="3" height="3" stroke="black" stroke-width="0.25" fill="#c2ad91"/>
        <rect x="33.5" y="53.5" width="3" height="3" stroke="black" stroke-width="0.25" fill="#c2ad91"/> -->

    <rect x="40" y="30" width="10" height="30" stroke="black" stroke-width="0.25" fill="#9fce1e"/>

        <!-- <rect x="43.5" y="33.5" width="3" height="3" stroke="black" stroke-width="0.25" fill="#afbb8d"/>
        <rect x="43.5" y="43.5" width="3" height="3" stroke="black" stroke-width="0.25" fill="#afbb8d"/>
        <rect x="43.5" y="53.5" width="3" height="3" stroke="black" stroke-width="0.25" fill="#afbb8d"/> -->

    <rect x="0" y="10" width="30" height="10" stroke="black" stroke-width="0.25" fill="#6838b6"/>
        
        <!-- <rect x="3.5" y="13.5" width="3" height="3" stroke="black" stroke-width="0.25" fill="#a894c7"/>
        <rect x="13.5" y="13.5" width="3" height="3" stroke="black" stroke-width="0.25" fill="#a894c7"/>
        <rect x="23.5" y="13.5" width="3" height="3" stroke="black" stroke-width="0.25" fill="#a894c7"/> -->

    <rect x="30" y="10" width="20" height="10" stroke="black" stroke-width="0.25" fill="#black"/>
    <rect x="40" y="20" width="10" height="10" stroke="black" stroke-width="0.25" fill="#black"/>

    <line x1="0" y1="10" x2="50" y2="10" stroke="black" stroke-width="0.25"/>
    <line x1="0" y1="20" x2="50" y2="20" stroke="black" stroke-width="0.25"/>
    <line x1="0" y1="30" x2="50" y2="30" stroke="black" stroke-width="0.25"/>
    <line x1="0" y1="40" x2="50" y2="40" stroke="black" stroke-width="0.25"/>
    <line x1="0" y1="50" x2="50" y2="50" stroke="black" stroke-width="0.25"/>
    <line x1="0" y1="60" x2="50" y2="60" stroke="black" stroke-width="0.25"/>

    <line x1="0" y1="10" x2="0" y2="60" stroke="black" stroke-width="0.25"/>
    <line x1="10" y1="10" x2="10" y2="60" stroke="black" stroke-width="0.25"/>
    <line x1="20" y1="10" x2="20" y2="60" stroke="black" stroke-width="0.25"/>
    <line x1="30" y1="10" x2="30" y2="60" stroke="black" stroke-width="0.25"/>
    <line x1="40" y1="10" x2="40" y2="60" stroke="black" stroke-width="0.25"/>
    <line x1="50" y1="10" x2="50" y2="60" stroke="black" stroke-width="0.25"/>
    
</svg>