<?xml version="1.0" encoding="utf-8"?>
<!-- Generator: Adobe Illustrator 27.0.1, SVG Export Plug-In . SVG Version: 6.00 Build 0)  -->
<svg version="1.1"
	 id="svg2989" xmlns:cc="http://creativecommons.org/ns#" xmlns:dc="http://purl.org/dc/elements/1.1/" xmlns:sodipodi="http://sodipodi.sourceforge.net/DTD/sodipodi-0.dtd" xmlns:inkscape="http://www.inkscape.org/namespaces/inkscape" xmlns:rdf="http://www.w3.org/1999/02/22-rdf-syntax-ns#" xmlns:svg="http://www.w3.org/2000/svg"
	 xmlns="http://www.w3.org/2000/svg" xmlns:xlink="http://www.w3.org/1999/xlink" x="0px" y="0px" viewBox="0 0 113.5 106.4"
	 style="enable-background:new 0 0 113.5 106.4;" xml:space="preserve">
<style type="text/css">
	.st0{opacity:0.5;}
	.st1{fill:#FF0000;stroke:#000000;stroke-width:1.0101;}
</style>
<polyline class="st0" points="30.3,101.2 40.7,106.2 82.2,106.2 113.3,76.1 113.3,36 82.2,5.9 73.3,0.9 "/>
<path class="st1" d="M29.9,0.6h42.4l28.3,29.3v42.4l-28.3,28.3H29.9L0.6,72.4V29.9L29.9,0.6z"/>
<g>
	<g transform="scale(.4 .4) translate(80 80)">
		<path id="path2999" inkscape:connector-curvature="0" d="M8.6,92.5c0-0.5-1.6-3.2-3.5-6.1c-1.9-2.9-3.5-5.3-3.5-5.5
			c0-0.2,2.4-0.2,5.2-0.1l5.2,0.1l1.8-5.5c2.4-7.3,3.4-19.4,1.7-21.5c-2-2.5-7.3-1.8-12.1,1.5c-2.4,1.6-4.7,3-5,3s-0.9-1.2-1.3-2.6
			c-0.5-2-0.1-3.3,1.8-5.2C2.4,47,3.9,39.8,2.6,33.8c-0.6-2.5-0.8-4.9-0.4-5.2s2,0.2,3.6,1.1c2.9,1.7,3.2,1.7,7.4-0.2
			c3.9-1.7,4.5-2.5,5.9-7.2c1.7-5.8,2-10.5,0.7-11.3c-0.5-0.3-3.5,0.3-6.8,1.3C8.1,13.9,6.6,14,4.2,13c-5-2-4.1-3.3,2.9-4.1
			c3.7-0.4,8.6-1.8,11.3-3.1c5.7-2.9,6.6-2.9,10.4-0.7c3.6,2.1,3.6,2.7-0.1,6.9c-3.7,4.2-6.6,13.1-4.9,15.1c1.8,2.2-1,4.2-8.1,5.6
			c-3.5,0.7-6.7,1.9-7.1,2.8c-0.5,0.8-1.1,4.3-1.5,7.7c-0.8,7.1-0.4,7.4,6.6,4.6c3.8-1.5,4.4-1.5,7.5,0c3.7,1.8,3.9,2.3,2.5,9.3
			c-0.5,2.7-1.4,8.6-2,13.2c-0.6,4.6-1.9,10.3-3,12.8C16.1,88.7,8.6,95.8,8.6,92.5z M36.4,91.6c-2.8-3.2-2.8-4.1-0.6-7.9
			c2.1-3.5,2.3-5,2.3-19.3V48.9l-3.7,0.3c-3.6,0.3-7.8-1.1-7.8-2.7c0-0.4,3.7-1.2,8.2-1.7l8.2-0.9l0.3-12.4
			c0.3-11-0.1-15.2-2.4-25.6c-0.6-2.7-0.5-2.9,1.8-2.2c6.5,1.9,10.6,1.8,18-0.8c4.2-1.4,9.2-2.6,11.2-2.6c3.7,0,5.7,1.5,4,3.1
			c-0.8,0.8-14.1,3.9-23.6,5.4c-3.7,0.6-3.8,0.7-3.8,5.1c0,2.8,0.4,4.5,1.2,4.5c0.7,0,4.5-0.9,8.6-2.1c7.1-2,12.2-2,12.2,0.1
			c0,1.4-12.6,5-17.6,5h-4.4v4.5c0,5.3-0.1,5.2,9.9,2.5c8.1-2.2,11.6-2.2,11.6,0c0,1.8-5.7,3.6-14.6,4.6l-6.6,0.7l-0.6,3.9
			c-0.3,2.2-0.4,4.3-0.1,4.7s8-0.7,17.1-2.5c16.7-3.4,20.3-3.5,22.5-0.7c1.9,2.3,0.2,2.8-13.9,4.2c-7,0.7-16.5,1.8-21,2.4l-8.2,1.2
			l7.9,6.7l7.9,6.7l4.6-5.1c2.5-2.8,4.6-5.9,4.6-7s0.7-2.2,1.6-2.5c1.6-0.6,6.5,2.4,7.1,4.3c0.2,0.6-3.3,3.5-7.8,6.4l-8.2,5.4
			l3.9,3.4c4.7,4.1,15.7,9.4,24.2,11.8c3.5,1,5.9,2.1,5.5,2.5c-1.5,1.5-17.7,3.1-20.5,2C74,81,67.8,74.9,61.8,68.1
			s-12.6-13.6-14.5-15l-3.4-2.6l-0.6,14.7C43,73.2,42.9,80,43.2,80.3s1.7-0.1,3.2-0.9c10.6-5,13.3-5.9,13.2-4.8c0,0.7-2.4,3-5.4,5.1
			c-2.9,2.1-7.5,6-10.2,8.8c-2.7,2.7-5.1,4.9-5.5,4.9C38.2,93.4,37.2,92.6,36.4,91.6z"/>
	</g>
	<g transform="translate(35)">
		<path d="M50.6,47.8v-4.5l10,7.5l-10,7.5v-4.5h-10v-6H50.6z"/>
	</g>
	<g transform="rotate(180, 50, 50) translate(38)">
		<path d="M46.3,46.2v-4.5l10,7.5l-10,7.5v-4.5h-10v-6H46.3z"/>
	</g>
	<g transform="rotate(90, 50, 50) translate(38)">
		<path d="M47.8,46.4v-4.5l10,7.5l-10,7.5v-4.5h-10v-6H47.8z"/>
	</g>
	<g transform="rotate(270, 50, 50) translate(38)">
		<path d="M46.2,47.6v-4.5l10,7.5l-10,7.5v-4.5h-10v-6H46.2z"/>
	</g>
</g>
</svg>
