<?xml version="1.0" encoding="UTF-8" standalone="no"?>
<!-- Created with Inkscape (http://www.inkscape.org/) -->

<svg
        xmlns:dc="http://purl.org/dc/elements/1.1/"
        xmlns:cc="http://creativecommons.org/ns#"
        xmlns:rdf="http://www.w3.org/1999/02/22-rdf-syntax-ns#"
        xmlns:svg="http://www.w3.org/2000/svg"
        xmlns="http://www.w3.org/2000/svg"
        xmlns:sodipodi="http://sodipodi.sourceforge.net/DTD/sodipodi-0.dtd"
        xmlns:inkscape="http://www.inkscape.org/namespaces/inkscape"
        id="svg2989"
        version="1.1"
        inkscape:version="0.48.2 r9819"
        width="100"
        height="100"
        sodipodi:docname="張.png">
    <metadata
            id="metadata2995">
        <rdf:RDF>
            <cc:Work
                    rdf:about="">
                <dc:format>image/svg+xml</dc:format>
                <dc:type
                        rdf:resource="http://purl.org/dc/dcmitype/StillImage"/>
                <dc:title></dc:title>
            </cc:Work>
        </rdf:RDF>
    </metadata>
    <defs
            id="defs2993"/>
    <sodipodi:namedview
            pagecolor="#ffffff"
            bordercolor="#666666"
            borderopacity="1"
            objecttolerance="10"
            gridtolerance="10"
            guidetolerance="10"
            inkscape:pageopacity="0"
            inkscape:pageshadow="2"
            inkscape:window-width="640"
            inkscape:window-height="480"
            id="namedview2991"
            showgrid="false"
            inkscape:zoom="2.5106383"
            inkscape:cx="50"
            inkscape:cy="50"
            inkscape:window-x="0"
            inkscape:window-y="0"
            inkscape:window-maximized="0"
            inkscape:current-layer="svg2989"/>
    <path d="M29 0 L 71 0 L 99 29 L 99 71 L 71 99 L 29 99 L 0 71 L 0 29 Z" stroke="black" fill="white"></path>
    <g transform="scale(.4 .4) translate(80 80)">
        <path
                style="fill:#000000"
                d="M 12,93.100489 C 12,92.605758 10.425,89.860538 8.5,87 6.575,84.139462 5,81.669826 5,81.511921 5,81.354016 7.3625,81.286736 10.25,81.36241 L 15.5,81.5 17.335198,76 c 2.429087,-7.279856 3.382353,-19.430477 1.684867,-21.475823 -2.037584,-2.455139 -7.27477,-1.825261 -12.1195843,1.457626 -2.4202644,1.639991 -4.6891971,2.989991 -5.0420727,3 -0.3528756,0.01001 -0.93964633,-1.169346 -1.30393503,-2.620788 -0.50703978,-2.020207 -0.0769872,-3.251204 1.83410353,-5.25 C 5.7653869,47.579234 7.3114203,40.351819 5.9702627,34.367306 5.399248,31.819325 5.2013926,29.465274 5.5305839,29.136083 c 0.3291913,-0.329192 1.9607941,0.183303 3.6257839,1.138876 2.8954012,1.661732 3.2164742,1.653704 7.3716202,-0.184315 3.883834,-1.718004 4.510141,-2.479946 5.908189,-7.187683 1.712066,-5.765153 2.024134,-10.500439 0.74414,-11.291519 -0.450825,-0.278625 -3.488325,0.322056 -6.75,1.334848 -4.886229,1.517238 -6.4464907,1.632051 -8.862133,0.652127 -5.0056938,-2.030597 -4.1002935,-3.308439 2.8733,-4.0552474 3.667108,-0.392714 8.615678,-1.758543 11.292967,-3.1169131 5.680082,-2.8818902 6.58103,-2.9436837 10.361257,-0.710649 3.617156,2.1367069 3.612737,2.7134885 -0.05278,6.8882835 -3.699783,4.21382 -6.556935,13.071839 -4.8714,15.102785 1.840231,2.217343 -0.972171,4.174288 -8.083817,5.624935 -3.461087,0.705999 -6.663047,1.945078 -7.115467,2.753507 -0.45242,0.808429 -1.13938,4.269999 -1.526578,7.692377 -0.8057092,7.121526 -0.412536,7.393418 6.621481,4.578962 3.798049,-1.519678 4.364809,-1.520897 7.520237,-0.01618 3.735387,1.781282 3.860038,2.255448 2.453617,9.333432 C 26.513551,60.328168 25.61982,66.24593 25.054933,70.82429 24.490046,75.40265 23.145226,81.143934 22.066444,83.5827 19.54665,89.27911 12,96.414442 12,93.100489 z M 39.807092,92.25 C 37.028803,89.014881 36.968053,88.168442 39.23843,84.32677 41.325326,80.795563 41.5,79.302846 41.5,65 l 0,-15.5 -3.683743,0.320644 C 34.189666,50.136313 30,48.694423 30,47.130649 c 0,-0.439441 3.7125,-1.211108 8.25,-1.714816 L 46.5,44.5 46.781607,32.146816 C 47.033125,21.113545 46.639281,16.977426 44.34856,6.5951417 43.753095,3.8963026 43.877582,3.7412511 46.10382,4.4089261 52.595146,6.3557516 56.659264,6.1742307 64.102976,3.6050068 68.254037,2.1722531 73.277471,1 75.266163,1 78.99945,1 80.92234,2.4776596 79.300095,4.0999054 78.462587,4.9374135 65.228187,7.9654444 55.75,9.4881678 52.068034,10.079696 52,10.171445 52,14.545313 52,17.31464 52.448785,19 53.186214,19 53.838631,19 57.711169,18.063148 61.791853,16.918106 68.874604,14.930683 74,14.956195 74,16.978872 74,18.403122 61.388443,22 56.394665,22 L 52,22 l 0,4.5 c 0,5.258815 -0.10476,5.232956 9.931907,2.451653 C 70.031275,26.707203 73.5,26.712093 73.5,28.967961 c 0,1.810938 -5.743873,3.597808 -14.641138,4.554733 l -6.641138,0.714273 -0.630382,3.942189 c -0.346709,2.168204 -0.40631,4.304743 -0.132446,4.747864 0.273864,0.443122 7.988125,-0.704056 17.142801,-2.549284 16.656849,-3.357376 20.251319,-3.469514 22.546983,-0.703407 1.901832,2.291567 0.180381,2.810819 -13.891801,4.19027 -7.014083,0.687568 -16.463974,1.786811 -20.999757,2.442762 L 48.006243,47.5 l 7.938397,6.711975 7.938397,6.711975 4.558482,-5.070129 C 70.948683,53.065251 73,49.918239 73,48.860462 c 0,-1.057778 0.710138,-2.195737 1.578084,-2.528799 1.579446,-0.606091 6.489469,2.370997 7.142756,4.330857 0.190819,0.572456 -3.328781,3.45401 -7.821332,6.403455 l -8.168275,5.362626 3.884383,3.363991 c 4.732597,4.098568 15.678905,9.423177 24.18766,11.765595 3.466802,0.954394 5.941802,2.090618 5.5,2.524943 -1.519078,1.493371 -17.671969,3.107391 -20.466229,2.045015 C 77.39315,81.579176 71.239908,75.548838 65.163176,68.727393 59.086444,61.905948 52.581409,55.155366 50.707543,53.726098 l -3.40703,-2.598668 -0.593956,14.659252 c -0.326675,8.062589 -0.396193,14.857016 -0.154482,15.098726 0.24171,0.24171 1.678875,-0.141771 3.193699,-0.85218 10.616381,-4.978779 13.252854,-5.929276 13.232661,-4.770618 -0.01186,0.680564 -2.423677,2.957784 -5.359591,5.060488 -2.935914,2.102704 -7.521793,6.040204 -10.190843,8.75 C 44.758952,91.782894 42.290512,94 41.942579,94 41.594647,94 40.633678,93.2125 39.807092,92.25 z"
                id="path2999"
                inkscape:connector-curvature="0"/>
    </g>

    <g transform="translate(35)">
        <path d="M50 48v-3l10 5-10 5v-3h-10v-4z"/>
    </g>

    <g transform="rotate(180, 50, 50) translate(38)">
        <path d="M50 48v-3l10 5-10 5v-3h-10v-4z"/>
    </g>

    <g transform="rotate(90, 50, 50) translate(38)">
        <path d="M50 48v-3l10 5-10 5v-3h-10v-4z"/>
    </g>

    <g transform="rotate(270, 50, 50) translate(38)">
        <path d="M50 48v-3l10 5-10 5v-3h-10v-4z"/>
    </g>
</svg>
