<svg version="1.1" viewBox="0.0 0.0 115.20734908136482 108.20472440944881" fill="none" stroke="none" stroke-linecap="square" stroke-miterlimit="10" xmlns:xlink="http://www.w3.org/1999/xlink" xmlns="http://www.w3.org/2000/svg"><clipPath id="p.0"><path d="m0 0l115.20735 0l0 108.20473l-115.20735 0l0 -108.20473z" clip-rule="nonzero"/></clipPath><g clip-path="url(#p.0)"><path fill="#000000" fill-opacity="0.0" d="m0 0l115.20735 0l0 108.20473l-115.20735 0z" fill-rule="evenodd"/><path fill="#ffe599" d="m12.502038 54.101894l0 0c0 -23.526463 20.193016 -42.598427 45.102364 -42.598427l0 0c11.961891 0 23.433853 4.488036 31.892189 12.476789c8.458328 7.9887543 13.210175 18.823832 13.210175 30.121637l0 0c0 23.526463 -20.193016 42.598423 -45.102364 42.598423l0 0c-24.909348 0 -45.102364 -19.07196 -45.102364 -42.598423z" fill-rule="evenodd"/><path fill="#000000" fill-opacity="0.0" d="m4.2650924 54.102364l0 0c0 -27.831675 23.880497 -50.393703 53.338585 -50.393703l0 0c14.146271 0 27.71315 5.3093214 37.716072 14.759973c10.002922 9.450653 15.622513 22.268488 15.622513 35.633728l0 0c0 27.831673 -23.8805 50.3937 -53.338585 50.3937l0 0c-29.458086 0 -53.338585 -22.562027 -53.338585 -50.3937z" fill-rule="evenodd"/><path stroke="#000000" stroke-width="1.0" stroke-linejoin="round" stroke-linecap="butt" d="m4.2650924 54.102364l0 0c0 -27.831675 23.880497 -50.393703 53.338585 -50.393703l0 0c14.146271 0 27.71315 5.3093214 37.716072 14.759973c10.002922 9.450653 15.622513 22.268488 15.622513 35.633728l0 0c0 27.831673 -23.8805 50.3937 -53.338585 50.3937l0 0c-29.458086 0 -53.338585 -22.562027 -53.338585 -50.3937z" fill-rule="evenodd"/><path fill="#000000" fill-opacity="0.0" d="m31.874016 27.272966l58.803146 0l0 28.346457l-58.803146 0z" fill-rule="evenodd"/><path fill="#000000" d="m51.79589 64.43297l-2.578125 0l0 -16.421879q-0.921875 0.890625 -2.4375 1.78125q-1.515625 0.875 -2.71875 1.328125l0 -2.5q2.171875 -1.015625 3.78125 -2.453125q1.625 -1.453125 2.296875 -2.8125l1.65625 0l0 21.078129zm6.607788 -10.359379q0 -3.71875 0.765625 -5.984375q0.765625 -2.265625 2.265625 -3.5q1.515625 -1.234375 3.8125 -1.234375q1.6875 0 2.953125 0.6875q1.28125 0.671875 2.109375 1.953125q0.84375 1.28125 1.3125 3.125q0.46875 1.84375 0.46875 4.953125q0 3.703125 -0.765625 5.96875q-0.75 2.265625 -2.265625 3.515625q-1.5 1.2343788 -3.8125 1.2343788q-3.03125 0 -4.765625 -2.1718788q-2.078125 -2.625 -2.078125 -8.546875zm2.640625 0q0 5.171875 1.203125 6.890625q1.21875 1.703125 3.0 1.703125q1.78125 0 2.984375 -1.71875q1.21875 -1.71875 1.21875 -6.875q0 -5.171875 -1.21875 -6.875q-1.203125 -1.71875 -3.015625 -1.71875q-1.765625 0 -2.828125 1.515625q-1.34375 1.921875 -1.34375 7.078125z" fill-rule="nonzero"/></g></svg>