<svg version="1.1" viewBox="0.0 0.0 504.4488188976378 345.67979002624674" fill="none" stroke="none" stroke-linecap="square" stroke-miterlimit="10" xmlns:xlink="http://www.w3.org/1999/xlink" xmlns="http://www.w3.org/2000/svg"><clipPath id="p.0"><path d="m0 0l504.44882 0l0 345.67978l-504.44882 0l0 -345.67978z" clip-rule="nonzero"/></clipPath><g clip-path="url(#p.0)"><path fill="#000000" fill-opacity="0.0" d="m0 0l504.44882 0l0 345.67978l-504.44882 0z" fill-rule="evenodd"/><path fill="#cfe2f3" d="m131.23102 124.167984l0 0c0 -66.822105 54.17003 -120.99213 120.99213 -120.99213l0 0c32.08911 0 62.863922 12.747348 85.55435 35.43777c22.69043 22.690426 35.437775 53.46525 35.437775 85.55435l0 0c0 66.82211 -54.170013 120.99213 -120.99213 120.99213l0 0c-66.8221 0 -120.99213 -54.170013 -120.99213 -120.99213z" fill-rule="evenodd"/><path fill="#cfe2f3" d="m89.45544 64.74614l324.4033 0l0 0c42.49771 0 76.94891 60.31465 76.94891 134.71654c0 74.401886 -34.451202 134.71652 -76.94891 134.71652l-324.4033 0l0 0c-42.497707 0 -76.948906 -60.314636 -76.948906 -134.71652c0 -74.401886 34.4512 -134.71654 76.948906 -134.71654z" fill-rule="evenodd"/><path fill="#000000" d="m101.49658 79.29291l300.32498 0l0 0c39.343414 0 71.23752 53.80156 71.23752 120.16914c0 66.36757 -31.894104 120.16911 -71.23752 120.16911l-300.32498 0l0 0c-39.343388 0 -71.2375 -53.801544 -71.2375 -120.16911c0 -66.367584 31.894115 -120.16914 71.2375 -120.16914z" fill-rule="evenodd"/><path fill="#cfe2f3" d="m163.2364 167.22804l176.84203 0l0 0c23.16681 0 41.947174 14.432373 41.947174 32.235596c0 17.803223 -18.780365 32.23558 -41.947174 32.23558l-176.84203 0l0 0c-23.166779 0 -41.947166 -14.432358 -41.947166 -32.23558c0 -17.803223 18.780388 -32.235596 41.947166 -32.235596z" fill-rule="evenodd"/><path fill="#6d9eeb" d="m149.02753 124.167946l0 0c0 -56.99405 46.202805 -103.19685 103.19685 -103.19685l0 0c27.369492 0 53.618027 10.872494 72.971176 30.225657c19.35318 19.353168 30.225677 45.60169 30.225677 72.97119l0 0c0 56.99404 -46.20282 103.196846 -103.19685 103.196846l0 0c-56.99405 0 -103.19685 -46.202805 -103.19685 -103.196846z" fill-rule="evenodd"/><path fill="#000000" fill-opacity="0.0" d="m192.18616 204.3619l-0.3779602 -37.13385" fill-rule="evenodd"/><path stroke="#000000" stroke-width="3.0" stroke-linejoin="round" stroke-linecap="butt" d="m192.18614 204.3619l-0.19474792 -19.134796" fill-rule="evenodd"/><path fill="#000000" stroke="#000000" stroke-width="3.0" stroke-linecap="butt" d="m196.94633 185.17668l-5.093506 -13.563156l-4.8163757 13.664017z" fill-rule="evenodd"/><path fill="#6fa8dc" d="m149.02625 94.855644l0 0c0 -8.094376 6.561798 -14.656166 14.656174 -14.656166l177.08138 0c3.8870544 0 7.6148987 1.5441208 10.363464 4.2926865c2.7485657 2.7485657 4.292694 6.4764175 4.292694 10.36348l0 58.624672c0 8.094376 -6.561798 14.656174 -14.656158 14.656174l-177.08138 0c-8.094376 0 -14.656174 -6.561798 -14.656174 -14.656174z" fill-rule="evenodd"/></g></svg>