<svg version="1.1" viewBox="0.0 0.0 100.0 100.0" fill="none" stroke="none" stroke-linecap="square" stroke-miterlimit="10" xmlns:xlink="http://www.w3.org/1999/xlink" xmlns="http://www.w3.org/2000/svg"><clipPath id="p.0"><path d="m0 0l100.0 0l0 100.0l-100.0 0l0 -100.0z" clip-rule="nonzero"/></clipPath><g clip-path="url(#p.0)"><path fill="#000000" fill-opacity="0.0" d="m0 0l100.0 0l0 100.0l-100.0 0z" fill-rule="evenodd"/><path fill="#ffe599" d="m17.953217 50.000874l0 0c0 -17.003414 14.348038 -30.787401 32.047245 -30.787401l0 0c8.4994545 0 16.650799 3.2436638 22.660824 9.01742c6.010025 5.773758 9.386421 13.604656 9.386421 21.769981l0 0c0 17.003414 -14.348045 30.787403 -32.047245 30.787403l0 0c-17.699207 0 -32.047245 -13.783989 -32.047245 -30.787403z" fill-rule="evenodd"/><path fill="#000000" d="m54.777805 57.743996q0 0.21875 -0.03125 0.375q-0.03125 0.15625 -0.09375 0.25q-0.0625 0.09375 -0.140625 0.140625q-0.0625 0.03125 -0.15625 0.03125l-7.921875 0q-0.078125 0 -0.15625 -0.03125q-0.0625 -0.046875 -0.125 -0.140625q-0.0625 -0.09375 -0.109375 -0.25q-0.03125 -0.15625 -0.03125 -0.375q0 -0.21875 0.03125 -0.359375q0.046875 -0.15625 0.09375 -0.25q0.0625 -0.109375 0.125 -0.15625q0.078125 -0.0625 0.171875 -0.0625l3.171875 0l0 -11.53125l-2.9375 1.75q-0.21875 0.125 -0.359375 0.15625q-0.125 0.015625 -0.21875 -0.0625q-0.078125 -0.078125 -0.109375 -0.25q-0.015625 -0.1875 -0.015625 -0.453125q0 -0.203125 0.015625 -0.34375q0.015625 -0.140625 0.046875 -0.234375q0.03125 -0.09375 0.09375 -0.15625q0.078125 -0.078125 0.171875 -0.140625l3.5 -2.234375q0.046875 -0.046875 0.109375 -0.0625q0.078125 -0.03125 0.171875 -0.046875q0.109375 -0.03125 0.25 -0.03125q0.140625 0 0.359375 0q0.28125 0 0.46875 0.03125q0.1875 0.015625 0.28125 0.0625q0.109375 0.03125 0.140625 0.09375q0.046875 0.0625 0.046875 0.140625l0 13.3125l2.734375 0q0.09375 0 0.171875 0.0625q0.09375 0.046875 0.140625 0.15625q0.0625 0.09375 0.078125 0.25q0.03125 0.140625 0.03125 0.359375z" fill-rule="nonzero"/></g></svg>