<svg version="1.1" viewBox="0.0 0.0 115.20734908136482 108.20472440944881" fill="none" stroke="none" stroke-linecap="square" stroke-miterlimit="10" xmlns:xlink="http://www.w3.org/1999/xlink" xmlns="http://www.w3.org/2000/svg"><clipPath id="p.0"><path d="m0 0l115.20735 0l0 108.20473l-115.20735 0l0 -108.20473z" clip-rule="nonzero"/></clipPath><g clip-path="url(#p.0)"><path fill="#000000" fill-opacity="0.0" d="m0 0l115.20735 0l0 108.20473l-115.20735 0z" fill-rule="evenodd"/><path fill="#ffe599" d="m12.502038 54.101894l0 0c0 -23.526463 20.193016 -42.598427 45.102364 -42.598427l0 0c11.961891 0 23.433853 4.488036 31.892189 12.476789c8.458328 7.9887543 13.210175 18.823832 13.210175 30.121637l0 0c0 23.526463 -20.193016 42.598423 -45.102364 42.598423l0 0c-24.909348 0 -45.102364 -19.07196 -45.102364 -42.598423z" fill-rule="evenodd"/><path fill="#000000" fill-opacity="0.0" d="m4.2650924 54.102364l0 0c0 -27.831675 23.880497 -50.393703 53.338585 -50.393703l0 0c14.146271 0 27.71315 5.3093214 37.716072 14.759973c10.002922 9.450653 15.622513 22.268488 15.622513 35.633728l0 0c0 27.831673 -23.8805 50.3937 -53.338585 50.3937l0 0c-29.458086 0 -53.338585 -22.562027 -53.338585 -50.3937z" fill-rule="evenodd"/><path stroke="#000000" stroke-width="1.0" stroke-linejoin="round" stroke-linecap="butt" d="m4.2650924 54.102364l0 0c0 -27.831675 23.880497 -50.393703 53.338585 -50.393703l0 0c14.146271 0 27.71315 5.3093214 37.716072 14.759973c10.002922 9.450653 15.622513 22.268488 15.622513 35.633728l0 0c0 27.831673 -23.8805 50.3937 -53.338585 50.3937l0 0c-29.458086 0 -53.338585 -22.562027 -53.338585 -50.3937z" fill-rule="evenodd"/><path fill="#000000" fill-opacity="0.0" d="m40.333332 27.272966l27.811024 0l0 28.346457l-27.811024 0z" fill-rule="evenodd"/><path fill="#000000" d="m64.09896 61.94859l0 2.4843788l-13.875004 0q-0.03125 -0.9375038 0.296875 -1.7968788q0.53125 -1.40625 1.6875 -2.78125q1.171875 -1.375 3.390625 -3.1875q3.421875 -2.796875 4.625 -4.4375q1.203125 -1.640625 1.203125 -3.109375q0 -1.53125 -1.109375 -2.578125q-1.09375 -1.0625 -2.84375 -1.0625q-1.875 0 -3.0 1.125q-1.109375 1.109375 -1.109375 3.09375l-2.65625 -0.265625q0.265625 -2.96875 2.046875 -4.515625q1.78125 -1.5625 4.765625 -1.5625q3.03125 0 4.78125 1.671875q1.7656288 1.671875 1.7656288 4.15625q0 1.265625 -0.5156288 2.484375q-0.515625 1.203125 -1.71875 2.5625q-1.1875 1.34375 -3.96875 3.6875q-2.3125 1.953125 -2.984375 2.65625q-0.65625 0.6875 -1.078125 1.375l10.296879 0z" fill-rule="nonzero"/></g></svg>