<svg version="1.1" viewBox="0.0 0.0 100.0 100.0" fill="none" stroke="none" stroke-linecap="square" stroke-miterlimit="10" xmlns:xlink="http://www.w3.org/1999/xlink" xmlns="http://www.w3.org/2000/svg"><clipPath id="p.0"><path d="m0 0l100.0 0l0 100.0l-100.0 0l0 -100.0z" clip-rule="nonzero"/></clipPath><g clip-path="url(#p.0)"><path fill="#000000" fill-opacity="0.0" d="m0 0l100.0 0l0 100.0l-100.0 0z" fill-rule="evenodd"/><path fill="#ffe599" d="m17.953217 50.000874l0 0c0 -17.003414 14.348038 -30.787401 32.047245 -30.787401l0 0c8.4994545 0 16.650799 3.2436638 22.660824 9.01742c6.010025 5.773758 9.386421 13.604656 9.386421 21.769981l0 0c0 17.003414 -14.348045 30.787403 -32.047245 30.787403l0 0c-17.699207 0 -32.047245 -13.783989 -32.047245 -30.787403z" fill-rule="evenodd"/><path fill="#000000" d="m54.746555 57.66587q0 0.21875 -0.03125 0.390625q-0.03125 0.15625 -0.078125 0.265625q-0.046875 0.109375 -0.140625 0.171875q-0.09375 0.046875 -0.1875 0.046875l-8.390625 0q-0.15625 0 -0.28125 -0.03125q-0.125 -0.046875 -0.21875 -0.140625q-0.078125 -0.09375 -0.125 -0.265625q-0.03125 -0.1875 -0.03125 -0.4375q0 -0.234375 0.015625 -0.40625q0.015625 -0.1875 0.0625 -0.3125q0.0625 -0.140625 0.15625 -0.265625q0.09375 -0.140625 0.234375 -0.296875l2.9375 -3.125q1.015625 -1.078125 1.625 -1.921875q0.625 -0.859375 0.953125 -1.5625q0.34375 -0.703125 0.4375 -1.28125q0.109375 -0.578125 0.109375 -1.078125q0 -0.5 -0.171875 -0.953125q-0.15625 -0.453125 -0.46875 -0.78125q-0.3125 -0.34375 -0.78125 -0.546875q-0.46875 -0.203125 -1.078125 -0.203125q-0.703125 0 -1.28125 0.203125q-0.5625 0.203125 -1.0 0.4375q-0.421875 0.234375 -0.71875 0.4375q-0.28125 0.1875 -0.421875 0.1875q-0.078125 0 -0.140625 -0.046875q-0.0625 -0.046875 -0.109375 -0.140625q-0.03125 -0.109375 -0.0625 -0.28125q-0.015625 -0.1875 -0.015625 -0.4375q0 -0.171875 0 -0.296875q0.015625 -0.125 0.046875 -0.21875q0.03125 -0.09375 0.078125 -0.171875q0.046875 -0.09375 0.1875 -0.21875q0.140625 -0.125 0.484375 -0.328125q0.34375 -0.21875 0.859375 -0.421875q0.53125 -0.203125 1.15625 -0.34375q0.625 -0.140625 1.3125 -0.140625q1.109375 0 1.9375 0.3125q0.828125 0.3125 1.359375 0.859375q0.546875 0.53125 0.8125 1.25q0.28125 0.703125 0.28125 1.515625q0 0.734375 -0.140625 1.453125q-0.125 0.71875 -0.546875 1.5625q-0.40625 0.828125 -1.1875 1.859375q-0.78125 1.015625 -2.09375 2.359375l-2.390625 2.5l6.59375 0q0.09375 0 0.171875 0.0625q0.09375 0.046875 0.15625 0.15625q0.0625 0.109375 0.09375 0.265625q0.03125 0.15625 0.03125 0.359375z" fill-rule="nonzero"/></g></svg>