<svg version="1.1" viewBox="0.0 0.0 115.20734908136482 108.20472440944881" fill="none" stroke="none" stroke-linecap="square" stroke-miterlimit="10" xmlns:xlink="http://www.w3.org/1999/xlink" xmlns="http://www.w3.org/2000/svg"><clipPath id="p.0"><path d="m0 0l115.20735 0l0 108.20473l-115.20735 0l0 -108.20473z" clip-rule="nonzero"/></clipPath><g clip-path="url(#p.0)"><path fill="#000000" fill-opacity="0.0" d="m0 0l115.20735 0l0 108.20473l-115.20735 0z" fill-rule="evenodd"/><path fill="#ffe599" d="m12.502038 54.101894l0 0c0 -23.526463 20.193016 -42.598427 45.102364 -42.598427l0 0c11.961891 0 23.433853 4.488036 31.892189 12.476789c8.458328 7.9887543 13.210175 18.823832 13.210175 30.121637l0 0c0 23.526463 -20.193016 42.598423 -45.102364 42.598423l0 0c-24.909348 0 -45.102364 -19.07196 -45.102364 -42.598423z" fill-rule="evenodd"/><path fill="#000000" fill-opacity="0.0" d="m4.2650924 54.102364l0 0c0 -27.831675 23.880497 -50.393703 53.338585 -50.393703l0 0c14.146271 0 27.71315 5.3093214 37.716072 14.759973c10.002922 9.450653 15.622513 22.268488 15.622513 35.633728l0 0c0 27.831673 -23.8805 50.3937 -53.338585 50.3937l0 0c-29.458086 0 -53.338585 -22.562027 -53.338585 -50.3937z" fill-rule="evenodd"/><path stroke="#000000" stroke-width="1.0" stroke-linejoin="round" stroke-linecap="butt" d="m4.2650924 54.102364l0 0c0 -27.831675 23.880497 -50.393703 53.338585 -50.393703l0 0c14.146271 0 27.71315 5.3093214 37.716072 14.759973c10.002922 9.450653 15.622513 22.268488 15.622513 35.633728l0 0c0 27.831673 -23.8805 50.3937 -53.338585 50.3937l0 0c-29.458086 0 -53.338585 -22.562027 -53.338585 -50.3937z" fill-rule="evenodd"/><path fill="#000000" fill-opacity="0.0" d="m40.333332 27.272966l27.811024 0l0 28.346457l-27.811024 0z" fill-rule="evenodd"/><path fill="#000000" d="m50.567707 58.88609l2.578125 -0.34375q0.4375 2.203125 1.5 3.171875q1.078125 0.953125 2.609375 0.953125q1.8125 0 3.0625 -1.25q1.265625 -1.265625 1.265625 -3.125q0 -1.78125 -1.171875 -2.921875q-1.15625 -1.15625 -2.9375 -1.15625q-0.734375 0 -1.828125 0.28125l0.296875 -2.265625q0.25 0.03125 0.40625 0.03125q1.640625 0 2.953125 -0.859375q1.328125 -0.859375 1.328125 -2.65625q0 -1.40625 -0.96875 -2.328125q-0.953125 -0.9375 -2.46875 -0.9375q-1.5 0 -2.5 0.953125q-1.0 0.9375 -1.296875 2.828125l-2.578125 -0.46875q0.484375 -2.59375 2.15625 -4.015625q1.671875 -1.421875 4.15625 -1.421875q1.71875 0 3.171875 0.734375q1.453125 0.734375 2.21875 2.015625q0.765625 1.265625 0.765625 2.703125q0 1.359375 -0.734375 2.484375q-0.734375 1.109375 -2.15625 1.765625q1.859375 0.4375 2.890625 1.796875q1.0312538 1.34375 1.0312538 3.375q0 2.75 -2.0156288 4.671875q-2.0 1.9062538 -5.0625 1.9062538q-2.765625 0 -4.59375 -1.6406288q-1.828125 -1.65625 -2.078125 -4.28125z" fill-rule="nonzero"/></g></svg>