<svg version="1.1" viewBox="0.0 0.0 115.20734908136482 108.20472440944881" fill="none" stroke="none" stroke-linecap="square" stroke-miterlimit="10" xmlns:xlink="http://www.w3.org/1999/xlink" xmlns="http://www.w3.org/2000/svg"><clipPath id="p.0"><path d="m0 0l115.20735 0l0 108.20473l-115.20735 0l0 -108.20473z" clip-rule="nonzero"/></clipPath><g clip-path="url(#p.0)"><path fill="#000000" fill-opacity="0.0" d="m0 0l115.20735 0l0 108.20473l-115.20735 0z" fill-rule="evenodd"/><path fill="#ffe599" d="m12.502038 54.101894l0 0c0 -23.526463 20.193016 -42.598427 45.102364 -42.598427l0 0c11.961891 0 23.433853 4.488036 31.892189 12.476789c8.458328 7.9887543 13.210175 18.823832 13.210175 30.121637l0 0c0 23.526463 -20.193016 42.598423 -45.102364 42.598423l0 0c-24.909348 0 -45.102364 -19.07196 -45.102364 -42.598423z" fill-rule="evenodd"/><path fill="#000000" fill-opacity="0.0" d="m4.2650924 54.102364l0 0c0 -27.831675 23.880497 -50.393703 53.338585 -50.393703l0 0c14.146271 0 27.71315 5.3093214 37.716072 14.759973c10.002922 9.450653 15.622513 22.268488 15.622513 35.633728l0 0c0 27.831673 -23.8805 50.3937 -53.338585 50.3937l0 0c-29.458086 0 -53.338585 -22.562027 -53.338585 -50.3937z" fill-rule="evenodd"/><path stroke="#000000" stroke-width="1.0" stroke-linejoin="round" stroke-linecap="butt" d="m4.2650924 54.102364l0 0c0 -27.831675 23.880497 -50.393703 53.338585 -50.393703l0 0c14.146271 0 27.71315 5.3093214 37.716072 14.759973c10.002922 9.450653 15.622513 22.268488 15.622513 35.633728l0 0c0 27.831673 -23.8805 50.3937 -53.338585 50.3937l0 0c-29.458086 0 -53.338585 -22.562027 -53.338585 -50.3937z" fill-rule="evenodd"/><path fill="#000000" fill-opacity="0.0" d="m40.333332 27.272966l27.811024 0l0 28.346457l-27.811024 0z" fill-rule="evenodd"/><path fill="#000000" d="m58.817707 64.43297l0 -5.031254l-9.109375 0l0 -2.359375l9.578125 -13.609375l2.109375 0l0 13.609375l2.8281288 0l0 2.359375l-2.8281288 0l0 5.031254l-2.578125 0zm0 -7.390629l0 -9.46875l-6.578125 9.46875l6.578125 0z" fill-rule="nonzero"/></g></svg>