<svg version="1.1" viewBox="0.0 0.0 115.20734908136482 108.20472440944881" fill="none" stroke="none" stroke-linecap="square" stroke-miterlimit="10" xmlns:xlink="http://www.w3.org/1999/xlink" xmlns="http://www.w3.org/2000/svg"><clipPath id="p.0"><path d="m0 0l115.20735 0l0 108.20473l-115.20735 0l0 -108.20473z" clip-rule="nonzero"/></clipPath><g clip-path="url(#p.0)"><path fill="#000000" fill-opacity="0.0" d="m0 0l115.20735 0l0 108.20473l-115.20735 0z" fill-rule="evenodd"/><path fill="#ffe599" d="m12.502038 54.101894l0 0c0 -23.526463 20.193016 -42.598427 45.102364 -42.598427l0 0c11.961891 0 23.433853 4.488036 31.892189 12.476789c8.458328 7.9887543 13.210175 18.823832 13.210175 30.121637l0 0c0 23.526463 -20.193016 42.598423 -45.102364 42.598423l0 0c-24.909348 0 -45.102364 -19.07196 -45.102364 -42.598423z" fill-rule="evenodd"/><path fill="#000000" fill-opacity="0.0" d="m4.2650924 54.102364l0 0c0 -27.831675 23.880497 -50.393703 53.338585 -50.393703l0 0c14.146271 0 27.71315 5.3093214 37.716072 14.759973c10.002922 9.450653 15.622513 22.268488 15.622513 35.633728l0 0c0 27.831673 -23.8805 50.3937 -53.338585 50.3937l0 0c-29.458086 0 -53.338585 -22.562027 -53.338585 -50.3937z" fill-rule="evenodd"/><path stroke="#000000" stroke-width="1.0" stroke-linejoin="round" stroke-linecap="butt" d="m4.2650924 54.102364l0 0c0 -27.831675 23.880497 -50.393703 53.338585 -50.393703l0 0c14.146271 0 27.71315 5.3093214 37.716072 14.759973c10.002922 9.450653 15.622513 22.268488 15.622513 35.633728l0 0c0 27.831673 -23.8805 50.3937 -53.338585 50.3937l0 0c-29.458086 0 -53.338585 -22.562027 -53.338585 -50.3937z" fill-rule="evenodd"/><path fill="#000000" fill-opacity="0.0" d="m40.333332 27.272966l27.811024 0l0 28.346457l-27.811024 0z" fill-rule="evenodd"/><path fill="#000000" d="m63.927082 48.57359l-2.5625 0.203125q-0.34375 -1.515625 -0.96875 -2.203125q-1.046875 -1.09375 -2.578125 -1.09375q-1.234375 0 -2.171875 0.6875q-1.21875 0.875 -1.921875 2.578125q-0.703125 1.703125 -0.71875 4.859375q0.921875 -1.421875 2.265625 -2.109375q1.359375 -0.6875 2.828125 -0.6875q2.578125 0 4.390625 1.90625q1.8125038 1.890625 1.8125038 4.90625q0 1.96875 -0.8593788 3.671875q-0.84375 1.6875 -2.34375 2.59375q-1.484375 0.9062538 -3.375 0.9062538q-3.21875 0 -5.25 -2.3593788q-2.03125 -2.375 -2.03125 -7.828125q0 -6.078125 2.234375 -8.84375q1.96875 -2.40625 5.296875 -2.40625q2.46875 0 4.046875 1.390625q1.59375 1.390625 1.90625 3.828125zm-10.53125 9.0625q0 1.328125 0.5625 2.546875q0.578125 1.21875 1.59375 1.859375q1.015625 0.625 2.125 0.625q1.640625 0 2.8125 -1.3125q1.171875 -1.3125 1.171875 -3.578125q0 -2.171875 -1.15625 -3.421875q-1.15625 -1.265625 -2.921875 -1.265625q-1.75 0 -2.96875 1.265625q-1.21875 1.25 -1.21875 3.28125z" fill-rule="nonzero"/></g></svg>