<svg version="1.1" viewBox="0.0 0.0 115.20734908136482 108.20472440944881" fill="none" stroke="none" stroke-linecap="square" stroke-miterlimit="10" xmlns:xlink="http://www.w3.org/1999/xlink" xmlns="http://www.w3.org/2000/svg"><clipPath id="p.0"><path d="m0 0l115.20735 0l0 108.20473l-115.20735 0l0 -108.20473z" clip-rule="nonzero"/></clipPath><g clip-path="url(#p.0)"><path fill="#000000" fill-opacity="0.0" d="m0 0l115.20735 0l0 108.20473l-115.20735 0z" fill-rule="evenodd"/><path fill="#ffe599" d="m12.502038 54.101894l0 0c0 -23.526463 20.193016 -42.598427 45.102364 -42.598427l0 0c11.961891 0 23.433853 4.488036 31.892189 12.476789c8.458328 7.9887543 13.210175 18.823832 13.210175 30.121637l0 0c0 23.526463 -20.193016 42.598423 -45.102364 42.598423l0 0c-24.909348 0 -45.102364 -19.07196 -45.102364 -42.598423z" fill-rule="evenodd"/><path fill="#000000" fill-opacity="0.0" d="m4.2650924 54.102364l0 0c0 -27.831675 23.880497 -50.393703 53.338585 -50.393703l0 0c14.146271 0 27.71315 5.3093214 37.716072 14.759973c10.002922 9.450653 15.622513 22.268488 15.622513 35.633728l0 0c0 27.831673 -23.8805 50.3937 -53.338585 50.3937l0 0c-29.458086 0 -53.338585 -22.562027 -53.338585 -50.3937z" fill-rule="evenodd"/><path stroke="#000000" stroke-width="1.0" stroke-linejoin="round" stroke-linecap="butt" d="m4.2650924 54.102364l0 0c0 -27.831675 23.880497 -50.393703 53.338585 -50.393703l0 0c14.146271 0 27.71315 5.3093214 37.716072 14.759973c10.002922 9.450653 15.622513 22.268488 15.622513 35.633728l0 0c0 27.831673 -23.8805 50.3937 -53.338585 50.3937l0 0c-29.458086 0 -53.338585 -22.562027 -53.338585 -50.3937z" fill-rule="evenodd"/><path fill="#000000" fill-opacity="0.0" d="m40.333332 27.272966l27.811024 0l0 28.346457l-27.811024 0z" fill-rule="evenodd"/><path fill="#000000" d="m54.520832 53.04234q-1.609375 -0.578125 -2.390625 -1.671875q-0.765625 -1.09375 -0.765625 -2.609375q0 -2.28125 1.640625 -3.84375q1.65625 -1.5625 4.390625 -1.5625q2.75 0 4.421875 1.59375q1.671875 1.59375 1.671875 3.890625q0 1.453125 -0.765625 2.546875q-0.765625 1.078125 -2.328125 1.65625q1.9375 0.640625 2.9375 2.046875q1.0156288 1.390625 1.0156288 3.34375q0 2.6875 -1.9062538 4.53125q-1.890625 1.8281288 -5.0 1.8281288q-3.109375 0 -5.015625 -1.8437538q-1.90625 -1.84375 -1.90625 -4.59375q0 -2.046875 1.03125 -3.421875q1.046875 -1.390625 2.96875 -1.890625zm-0.515625 -4.359375q0 1.484375 0.953125 2.4375q0.96875 0.9375 2.5 0.9375q1.484375 0 2.4375 -0.9375q0.953125 -0.9375 0.953125 -2.296875q0 -1.421875 -0.984375 -2.375q-0.984375 -0.96875 -2.4375 -0.96875q-1.484375 0 -2.453125 0.953125q-0.96875 0.9375 -0.96875 2.25zm-0.828125 9.6875q0 1.109375 0.515625 2.140625q0.53125 1.03125 1.5625 1.59375q1.03125 0.5625 2.21875 0.5625q1.84375 0 3.046875 -1.1875q1.203125 -1.1875 1.203125 -3.015625q0 -1.859375 -1.25 -3.078125q-1.234375 -1.21875 -3.09375 -1.21875q-1.8125 0 -3.015625 1.203125q-1.1875 1.203125 -1.1875 3.0z" fill-rule="nonzero"/></g></svg>