<svg version="1.1" viewBox="0.0 0.0 115.20734908136482 108.20472440944881" fill="none" stroke="none" stroke-linecap="square" stroke-miterlimit="10" xmlns:xlink="http://www.w3.org/1999/xlink" xmlns="http://www.w3.org/2000/svg"><clipPath id="p.0"><path d="m0 0l115.20735 0l0 108.20473l-115.20735 0l0 -108.20473z" clip-rule="nonzero"/></clipPath><g clip-path="url(#p.0)"><path fill="#000000" fill-opacity="0.0" d="m0 0l115.20735 0l0 108.20473l-115.20735 0z" fill-rule="evenodd"/><path fill="#ffe599" d="m12.502038 54.101894l0 0c0 -23.526463 20.193016 -42.598427 45.102364 -42.598427l0 0c11.961891 0 23.433853 4.488036 31.892189 12.476789c8.458328 7.9887543 13.210175 18.823832 13.210175 30.121637l0 0c0 23.526463 -20.193016 42.598423 -45.102364 42.598423l0 0c-24.909348 0 -45.102364 -19.07196 -45.102364 -42.598423z" fill-rule="evenodd"/><path fill="#000000" fill-opacity="0.0" d="m4.2650924 54.102364l0 0c0 -27.831675 23.880497 -50.393703 53.338585 -50.393703l0 0c14.146271 0 27.71315 5.3093214 37.716072 14.759973c10.002922 9.450653 15.622513 22.268488 15.622513 35.633728l0 0c0 27.831673 -23.8805 50.3937 -53.338585 50.3937l0 0c-29.458086 0 -53.338585 -22.562027 -53.338585 -50.3937z" fill-rule="evenodd"/><path stroke="#000000" stroke-width="1.0" stroke-linejoin="round" stroke-linecap="butt" d="m4.2650924 54.102364l0 0c0 -27.831675 23.880497 -50.393703 53.338585 -50.393703l0 0c14.146271 0 27.71315 5.3093214 37.716072 14.759973c10.002922 9.450653 15.622513 22.268488 15.622513 35.633728l0 0c0 27.831673 -23.8805 50.3937 -53.338585 50.3937l0 0c-29.458086 0 -53.338585 -22.562027 -53.338585 -50.3937z" fill-rule="evenodd"/><path fill="#000000" fill-opacity="0.0" d="m40.333332 27.272966l27.811024 0l0 28.346457l-27.811024 0z" fill-rule="evenodd"/><path fill="#000000" d="m50.942707 59.57359l2.46875 -0.21875q0.3125 1.734375 1.203125 2.53125q0.890625 0.78125 2.28125 0.78125q1.1875 0 2.078125 -0.53125q0.90625 -0.546875 1.46875 -1.453125q0.578125 -0.921875 0.953125 -2.46875q0.390625 -1.546875 0.390625 -3.140625q0 -0.171875 -0.015625 -0.515625q-0.765625 1.21875 -2.109375 1.984375q-1.328125 0.765625 -2.890625 0.765625q-2.609375 0 -4.421875 -1.875q-1.796875 -1.890625 -1.796875 -4.984375q0 -3.203125 1.875 -5.140625q1.890625 -1.953125 4.71875 -1.953125q2.046875 0 3.75 1.109375q1.703125 1.09375 2.578125 3.140625q0.8750038 2.03125 0.8750038 5.90625q0 4.015625 -0.8750038 6.40625q-0.859375 2.375 -2.59375 3.625q-1.71875 1.2500038 -4.046875 1.2500038q-2.453125 0 -4.015625 -1.3593788q-1.5625 -1.375 -1.875 -3.859375zm10.546875 -9.265625q0 -2.21875 -1.1875 -3.515625q-1.171875 -1.3125 -2.828125 -1.3125q-1.71875 0 -3.0 1.40625q-1.28125 1.40625 -1.28125 3.640625q0 2.0 1.203125 3.265625q1.21875 1.25 3.0 1.25q1.796875 0 2.9375 -1.25q1.15625 -1.265625 1.15625 -3.484375z" fill-rule="nonzero"/></g></svg>