<svg version="1.1" viewBox="0.0 0.0 475.4278215223097 273.6745406824147" fill="none" stroke="none" stroke-linecap="square" stroke-miterlimit="10" xmlns:xlink="http://www.w3.org/1999/xlink" xmlns="http://www.w3.org/2000/svg"><clipPath id="p.0"><path d="m0 0l475.42783 0l0 273.67453l-475.42783 0l0 -273.67453z" clip-rule="nonzero"/></clipPath><g clip-path="url(#p.0)"><path fill="#000000" fill-opacity="0.0" d="m0 0l475.42783 0l0 273.67453l-475.42783 0z" fill-rule="evenodd"/><path fill="#b4a7d6" d="m368.08398 239.05774l-55.65576 -51.11023l25.555115 0l0 0c-16.318756 -90.26445 -73.32703 -153.33072 -138.6021 -153.33072l51.11023 0l0 0c65.27507 0 122.28334 63.06626 138.6021 153.33072l25.555115 0z" fill-rule="evenodd"/><path fill="#8f85ab" d="m224.93636 37.90098c-68.08951 17.64375 -117.59252 102.32486 -117.59252 201.15675l-51.110237 0l0 0c0 -60.608337 18.829536 -118.09253 51.405907 -156.93575c32.576363 -38.84321 75.541176 -55.04098 117.29685 -44.221012z" fill-rule="evenodd"/><path fill="#000000" fill-opacity="0.0" d="m224.93636 37.90098c-68.08951 17.64375 -117.59252 102.32486 -117.59252 201.15675l-51.110237 0l0 0c0 -112.909615 64.08938 -204.44095 143.14764 -204.44095l51.11023 0l0 0c65.27507 0 122.28334 63.06626 138.6021 153.33072l25.555115 0l-46.564697 51.11023l-55.65576 -51.11023l25.555115 0l0 0c-16.318756 -90.26445 -73.32703 -153.33072 -138.6021 -153.33072" fill-rule="evenodd"/><path stroke="#000000" stroke-width="1.0" stroke-linejoin="round" stroke-linecap="butt" d="m224.93636 37.90098c-68.08951 17.64375 -117.59252 102.32486 -117.59252 201.15675l-51.110237 0l0 0c0 -112.909615 64.08938 -204.44095 143.14764 -204.44095l51.11023 0l0 0c65.27507 0 122.28334 63.06626 138.6021 153.33072l25.555115 0l-46.564697 51.11023l-55.65576 -51.11023l25.555115 0l0 0c-16.318756 -90.26445 -73.32703 -153.33072 -138.6021 -153.33072" fill-rule="evenodd"/></g></svg>