<svg version="1.1" viewBox="0.0 0.0 475.4278215223097 273.6745406824147" fill="none" stroke="none" stroke-linecap="square" stroke-miterlimit="10" xmlns:xlink="http://www.w3.org/1999/xlink" xmlns="http://www.w3.org/2000/svg"><clipPath id="p.0"><path d="m0 0l475.42783 0l0 273.67453l-475.42783 0l0 -273.67453z" clip-rule="nonzero"/></clipPath><g clip-path="url(#p.0)"><path fill="#000000" fill-opacity="0.0" d="m0 0l475.42783 0l0 273.67453l-475.42783 0z" fill-rule="evenodd"/><path fill="#000000" fill-opacity="0.0" d="m189.01837 111.53543l0 -31.748032l0 0c0 -13.63752 11.055389 -24.69291 24.692917 -24.69291l33.13385 0l0 0c6.5489807 0 12.829727 2.6015663 17.460526 7.2323837c4.630829 4.630821 7.2323914 10.91156 7.2323914 17.460526l0 3.527565l7.0551147 0l-14.1102295 14.1102295l-14.110245 -14.1102295l7.05513 0l0 -3.527565c0 -5.8446503 -4.738037 -10.582672 -10.582687 -10.582672l-33.13385 0l0 0c-5.8446503 0 -10.582672 4.738022 -10.582672 10.582672l0 31.748032z" fill-rule="evenodd"/><path stroke="#000000" stroke-width="1.0" stroke-linejoin="round" stroke-linecap="butt" d="m189.01837 111.53543l0 -31.748032l0 0c0 -13.63752 11.055389 -24.69291 24.692917 -24.69291l33.13385 0l0 0c6.5489807 0 12.829727 2.6015663 17.460526 7.2323837c4.630829 4.630821 7.2323914 10.91156 7.2323914 17.460526l0 3.527565l7.0551147 0l-14.1102295 14.1102295l-14.110245 -14.1102295l7.05513 0l0 -3.527565c0 -5.8446503 -4.738037 -10.582672 -10.582687 -10.582672l-33.13385 0l0 0c-5.8446503 0 -10.582672 4.738022 -10.582672 10.582672l0 31.748032z" fill-rule="evenodd"/></g></svg>