<svg version="1.1" viewBox="0.0 0.0 115.20734908136482 108.20472440944881" fill="none" stroke="none" stroke-linecap="square" stroke-miterlimit="10" xmlns:xlink="http://www.w3.org/1999/xlink" xmlns="http://www.w3.org/2000/svg"><clipPath id="p.0"><path d="m0 0l115.20735 0l0 108.20473l-115.20735 0l0 -108.20473z" clip-rule="nonzero"/></clipPath><g clip-path="url(#p.0)"><path fill="#000000" fill-opacity="0.0" d="m0 0l115.20735 0l0 108.20473l-115.20735 0z" fill-rule="evenodd"/><path fill="#ffe599" d="m12.502038 54.101894l0 0c0 -23.526463 20.193016 -42.598427 45.102364 -42.598427l0 0c11.961891 0 23.433853 4.488036 31.892189 12.476789c8.458328 7.9887543 13.210175 18.823832 13.210175 30.121637l0 0c0 23.526463 -20.193016 42.598423 -45.102364 42.598423l0 0c-24.909348 0 -45.102364 -19.07196 -45.102364 -42.598423z" fill-rule="evenodd"/><path fill="#000000" d="m62.74112 57.735645q0 0.984375 -0.3125 1.921875q-0.296875 0.9375 -0.9375 1.640625q-0.625 0.703125 -1.609375 1.140625q-0.96875 0.421875 -2.28125 0.421875q-0.953125 0 -1.6875 -0.234375q-0.71875 -0.234375 -1.265625 -0.65625q-0.53125 -0.4375 -0.890625 -1.0625q-0.359375 -0.640625 -0.578125 -1.453125q-0.21875 -0.8125 -0.3125 -1.765625q-0.09375 -0.96875 -0.09375 -2.0625q0 -0.984375 0.109375 -1.96875q0.109375 -1.0 0.375 -1.921875q0.265625 -0.9375 0.734375 -1.75q0.46875 -0.8125 1.15625 -1.40625q0.703125 -0.609375 1.671875 -0.953125q0.96875 -0.359375 2.265625 -0.359375q0.4375 0 0.875 0.0625q0.453125 0.046875 0.828125 0.140625q0.375 0.078125 0.625 0.1875q0.265625 0.09375 0.34375 0.171875q0.078125 0.0625 0.109375 0.140625q0.046875 0.0625 0.0625 0.15625q0.03125 0.09375 0.046875 0.203125q0.015625 0.109375 0.015625 0.265625q0 0.21875 -0.015625 0.375q0 0.140625 -0.046875 0.234375q-0.03125 0.09375 -0.09375 0.140625q-0.0625 0.046875 -0.171875 0.046875q-0.125 0 -0.359375 -0.078125q-0.21875 -0.078125 -0.53125 -0.171875q-0.3125 -0.109375 -0.765625 -0.1875q-0.453125 -0.078125 -1.046875 -0.078125q-1.09375 0 -1.890625 0.453125q-0.78125 0.4375 -1.28125 1.1875q-0.484375 0.75 -0.734375 1.734375q-0.234375 0.984375 -0.265625 2.0625q0.296875 -0.171875 0.671875 -0.34375q0.390625 -0.171875 0.84375 -0.3125q0.453125 -0.140625 0.953125 -0.234375q0.5 -0.09375 1.078125 -0.09375q1.234375 0 2.078125 0.34375q0.84375 0.328125 1.359375 0.921875q0.515625 0.59375 0.734375 1.40625q0.234375 0.796875 0.234375 1.734375zm-2.046875 0.1875q0 -0.6875 -0.140625 -1.234375q-0.125 -0.5625 -0.4375 -0.953125q-0.3125 -0.390625 -0.84375 -0.59375q-0.53125 -0.21875 -1.296875 -0.21875q-0.4375 0 -0.875 0.078125q-0.4375 0.078125 -0.84375 0.21875q-0.390625 0.125 -0.765625 0.3125q-0.375 0.1875 -0.671875 0.390625q0 1.515625 0.1875 2.53125q0.203125 1.015625 0.5625 1.640625q0.375 0.609375 0.921875 0.875q0.546875 0.265625 1.296875 0.265625q0.75 0 1.296875 -0.28125q0.546875 -0.28125 0.90625 -0.75q0.375 -0.484375 0.53125 -1.078125q0.171875 -0.59375 0.171875 -1.203125z" fill-rule="nonzero"/></g></svg>