<svg version="1.1" viewBox="0.0 0.0 115.20734908136482 108.20472440944881" fill="none" stroke="none" stroke-linecap="square" stroke-miterlimit="10" xmlns:xlink="http://www.w3.org/1999/xlink" xmlns="http://www.w3.org/2000/svg"><clipPath id="p.0"><path d="m0 0l115.20735 0l0 108.20473l-115.20735 0l0 -108.20473z" clip-rule="nonzero"/></clipPath><g clip-path="url(#p.0)"><path fill="#000000" fill-opacity="0.0" d="m0 0l115.20735 0l0 108.20473l-115.20735 0z" fill-rule="evenodd"/><path fill="#ffe599" d="m12.502038 54.101894l0 0c0 -23.526463 20.193016 -42.598427 45.102364 -42.598427l0 0c11.961891 0 23.433853 4.488036 31.892189 12.476789c8.458328 7.9887543 13.210175 18.823832 13.210175 30.121637l0 0c0 23.526463 -20.193016 42.598423 -45.102364 42.598423l0 0c-24.909348 0 -45.102364 -19.07196 -45.102364 -42.598423z" fill-rule="evenodd"/><path fill="#000000" d="m62.569244 48.34502q0 0.203125 -0.015625 0.375q-0.015625 0.171875 -0.046875 0.328125q-0.03125 0.15625 -0.078125 0.3125q-0.046875 0.140625 -0.125 0.3125l-5.453125 12.578125q-0.0625 0.140625 -0.15625 0.234375q-0.078125 0.078125 -0.21875 0.140625q-0.140625 0.046875 -0.359375 0.0625q-0.203125 0.03125 -0.5 0.03125q-0.40625 0 -0.625 -0.046875q-0.21875 -0.03125 -0.328125 -0.109375q-0.09375 -0.078125 -0.078125 -0.1875q0.015625 -0.109375 0.078125 -0.265625l5.75 -12.859375l-7.28125 0q-0.21875 0 -0.34375 -0.234375q-0.109375 -0.234375 -0.109375 -0.65625q0 -0.234375 0.03125 -0.390625q0.03125 -0.171875 0.09375 -0.28125q0.0625 -0.109375 0.140625 -0.15625q0.078125 -0.0625 0.1875 -0.0625l8.828125 0q0.171875 0 0.296875 0.046875q0.125 0.03125 0.1875 0.140625q0.0625 0.09375 0.09375 0.265625q0.03125 0.15625 0.03125 0.421875z" fill-rule="nonzero"/></g></svg>