<svg version="1.1" viewBox="0.0 0.0 115.20734908136482 108.20472440944881" fill="none" stroke="none" stroke-linecap="square" stroke-miterlimit="10" xmlns:xlink="http://www.w3.org/1999/xlink" xmlns="http://www.w3.org/2000/svg"><clipPath id="p.0"><path d="m0 0l115.20735 0l0 108.20473l-115.20735 0l0 -108.20473z" clip-rule="nonzero"/></clipPath><g clip-path="url(#p.0)"><path fill="#000000" fill-opacity="0.0" d="m0 0l115.20735 0l0 108.20473l-115.20735 0z" fill-rule="evenodd"/><path fill="#ffe599" d="m12.502038 54.101894l0 0c0 -23.526463 20.193016 -42.598427 45.102364 -42.598427l0 0c11.961891 0 23.433853 4.488036 31.892189 12.476789c8.458328 7.9887543 13.210175 18.823832 13.210175 30.121637l0 0c0 23.526463 -20.193016 42.598423 -45.102364 42.598423l0 0c-24.909348 0 -45.102364 -19.07196 -45.102364 -42.598423z" fill-rule="evenodd"/><path fill="#000000" d="m62.475494 54.454395q0 0.984375 -0.125 2.0q-0.109375 1.0 -0.390625 1.9375q-0.28125 0.9375 -0.765625 1.75q-0.46875 0.8125 -1.1875 1.421875q-0.71875 0.609375 -1.71875 0.953125q-0.984375 0.34375 -2.296875 0.34375q-0.5 0 -0.984375 -0.0625q-0.46875 -0.0625 -0.859375 -0.15625q-0.375 -0.09375 -0.640625 -0.203125q-0.25 -0.109375 -0.375 -0.203125q-0.109375 -0.109375 -0.171875 -0.28125q-0.046875 -0.1875 -0.046875 -0.5q0 -0.25 0.015625 -0.40625q0.03125 -0.15625 0.0625 -0.234375q0.03125 -0.078125 0.09375 -0.109375q0.0625 -0.03125 0.15625 -0.03125q0.140625 0 0.375 0.09375q0.234375 0.078125 0.578125 0.1875q0.359375 0.109375 0.84375 0.203125q0.484375 0.078125 1.078125 0.078125q1.140625 0 1.953125 -0.4375q0.8125 -0.4375 1.328125 -1.171875q0.515625 -0.75 0.765625 -1.71875q0.265625 -0.96875 0.296875 -2.046875q-0.625 0.359375 -1.5 0.640625q-0.859375 0.28125 -1.984375 0.28125q-1.265625 0 -2.125 -0.34375q-0.859375 -0.34375 -1.390625 -0.9375q-0.515625 -0.609375 -0.75 -1.421875q-0.21875 -0.828125 -0.21875 -1.796875q0 -1.015625 0.28125 -1.921875q0.296875 -0.90625 0.921875 -1.59375q0.625 -0.6875 1.578125 -1.09375q0.96875 -0.421875 2.296875 -0.421875q0.953125 0 1.6875 0.25q0.734375 0.234375 1.265625 0.6875q0.546875 0.453125 0.921875 1.09375q0.375 0.625 0.59375 1.4375q0.234375 0.8125 0.328125 1.765625q0.109375 0.9375 0.109375 1.96875zm-2.0625 -0.21875q0 -1.5 -0.203125 -2.515625q-0.1875 -1.03125 -0.578125 -1.65625q-0.390625 -0.640625 -0.953125 -0.921875q-0.5625 -0.28125 -1.296875 -0.28125q-0.765625 0 -1.3125 0.28125q-0.53125 0.265625 -0.875 0.734375q-0.34375 0.453125 -0.515625 1.046875q-0.15625 0.578125 -0.15625 1.203125q0 0.6875 0.140625 1.265625q0.15625 0.578125 0.484375 0.984375q0.328125 0.390625 0.84375 0.609375q0.53125 0.21875 1.3125 0.21875q0.875 0 1.6875 -0.265625q0.828125 -0.265625 1.421875 -0.703125z" fill-rule="nonzero"/></g></svg>