<svg version="1.1" viewBox="0.0 0.0 115.20734908136482 108.20472440944881" fill="none" stroke="none" stroke-linecap="square" stroke-miterlimit="10" xmlns:xlink="http://www.w3.org/1999/xlink" xmlns="http://www.w3.org/2000/svg"><clipPath id="p.0"><path d="m0 0l115.20735 0l0 108.20473l-115.20735 0l0 -108.20473z" clip-rule="nonzero"/></clipPath><g clip-path="url(#p.0)"><path fill="#000000" fill-opacity="0.0" d="m0 0l115.20735 0l0 108.20473l-115.20735 0z" fill-rule="evenodd"/><path fill="#ffe599" d="m12.502038 54.101894l0 0c0 -23.526463 20.193016 -42.598427 45.102364 -42.598427l0 0c11.961891 0 23.433853 4.488036 31.892189 12.476789c8.458328 7.9887543 13.210175 18.823832 13.210175 30.121637l0 0c0 23.526463 -20.193016 42.598423 -45.102364 42.598423l0 0c-24.909348 0 -45.102364 -19.07196 -45.102364 -42.598423z" fill-rule="evenodd"/><path fill="#000000" d="m62.70987 58.75127q0 0.984375 -0.359375 1.75q-0.34375 0.765625 -1.015625 1.296875q-0.65625 0.53125 -1.640625 0.796875q-0.96875 0.265625 -2.21875 0.265625q-1.171875 0 -2.09375 -0.234375q-0.921875 -0.25 -1.578125 -0.734375q-0.640625 -0.484375 -0.984375 -1.1875q-0.328125 -0.703125 -0.328125 -1.609375q0 -0.703125 0.234375 -1.296875q0.234375 -0.609375 0.671875 -1.109375q0.4375 -0.5 1.078125 -0.9375q0.640625 -0.453125 1.453125 -0.84375q-0.703125 -0.359375 -1.25 -0.765625q-0.53125 -0.40625 -0.90625 -0.875q-0.375 -0.484375 -0.578125 -1.015625q-0.1875 -0.546875 -0.1875 -1.171875q0 -0.796875 0.28125 -1.5q0.296875 -0.703125 0.875 -1.21875q0.578125 -0.515625 1.46875 -0.8125q0.90625 -0.296875 2.109375 -0.296875q1.140625 0 1.96875 0.28125q0.84375 0.265625 1.390625 0.75q0.546875 0.46875 0.796875 1.125q0.265625 0.640625 0.265625 1.375q0 0.59375 -0.203125 1.15625q-0.1875 0.546875 -0.5625 1.046875q-0.375 0.484375 -0.921875 0.90625q-0.53125 0.421875 -1.234375 0.796875q0.828125 0.421875 1.46875 0.859375q0.65625 0.421875 1.09375 0.921875q0.4375 0.5 0.671875 1.0625q0.234375 0.546875 0.234375 1.21875zm-2.53125 -7.78125q0 -0.5 -0.171875 -0.890625q-0.171875 -0.40625 -0.5 -0.6875q-0.328125 -0.28125 -0.8125 -0.421875q-0.484375 -0.140625 -1.109375 -0.140625q-1.265625 0 -1.921875 0.578125q-0.640625 0.5625 -0.640625 1.5625q0 0.453125 0.15625 0.84375q0.15625 0.390625 0.484375 0.75q0.34375 0.34375 0.84375 0.6875q0.515625 0.328125 1.21875 0.6875q1.1875 -0.609375 1.8125 -1.34375q0.640625 -0.734375 0.640625 -1.625zm0.484375 7.984375q0 -0.53125 -0.203125 -0.96875q-0.1875 -0.4375 -0.59375 -0.8125q-0.40625 -0.390625 -1.015625 -0.75q-0.59375 -0.359375 -1.390625 -0.75q-0.75 0.375 -1.3125 0.734375q-0.546875 0.359375 -0.90625 0.75q-0.359375 0.390625 -0.546875 0.8125q-0.171875 0.421875 -0.171875 0.9375q0 1.140625 0.78125 1.765625q0.78125 0.625 2.328125 0.625q1.5 0 2.265625 -0.625q0.765625 -0.640625 0.765625 -1.71875z" fill-rule="nonzero"/></g></svg>