<svg version="1.1" viewBox="0.0 0.0 115.20734908136482 108.20472440944881" fill="none" stroke="none" stroke-linecap="square" stroke-miterlimit="10" xmlns:xlink="http://www.w3.org/1999/xlink" xmlns="http://www.w3.org/2000/svg"><clipPath id="p.0"><path d="m0 0l115.20735 0l0 108.20473l-115.20735 0l0 -108.20473z" clip-rule="nonzero"/></clipPath><g clip-path="url(#p.0)"><path fill="#000000" fill-opacity="0.0" d="m0 0l115.20735 0l0 108.20473l-115.20735 0z" fill-rule="evenodd"/><path fill="#ffe599" d="m12.502038 54.101894l0 0c0 -23.526463 20.193016 -42.598427 45.102364 -42.598427l0 0c11.961891 0 23.433853 4.488036 31.892189 12.476789c8.458328 7.9887543 13.210175 18.823832 13.210175 30.121637l0 0c0 23.526463 -20.193016 42.598423 -45.102364 42.598423l0 0c-24.909348 0 -45.102364 -19.07196 -45.102364 -42.598423z" fill-rule="evenodd"/><path fill="#000000" d="m62.287994 57.766895q0 1.21875 -0.421875 2.171875q-0.40625 0.9375 -1.15625 1.59375q-0.75 0.65625 -1.796875 1.0q-1.03125 0.328125 -2.296875 0.328125q-0.703125 0 -1.34375 -0.09375q-0.625 -0.09375 -1.125 -0.234375q-0.484375 -0.15625 -0.796875 -0.296875q-0.3125 -0.140625 -0.40625 -0.21875q-0.078125 -0.09375 -0.125 -0.15625q-0.03125 -0.078125 -0.0625 -0.171875q-0.03125 -0.109375 -0.046875 -0.25q0 -0.15625 0 -0.375q0 -0.1875 0.015625 -0.34375q0.015625 -0.171875 0.0625 -0.265625q0.046875 -0.09375 0.109375 -0.140625q0.0625 -0.046875 0.15625 -0.046875q0.109375 0 0.359375 0.140625q0.25 0.140625 0.65625 0.3125q0.421875 0.171875 1.03125 0.328125q0.625 0.15625 1.46875 0.15625q0.78125 0 1.4375 -0.1875q0.65625 -0.1875 1.125 -0.578125q0.484375 -0.40625 0.75 -1.015625q0.265625 -0.609375 0.265625 -1.46875q0 -0.734375 -0.234375 -1.28125q-0.21875 -0.5625 -0.703125 -0.921875q-0.46875 -0.375 -1.203125 -0.546875q-0.71875 -0.1875 -1.71875 -0.1875q-0.71875 0 -1.234375 0.078125q-0.515625 0.0625 -0.96875 0.0625q-0.328125 0 -0.46875 -0.15625q-0.140625 -0.15625 -0.140625 -0.59375l0 -6.171875q0 -0.390625 0.1875 -0.578125q0.1875 -0.1875 0.515625 -0.1875l6.71875 0q0.09375 0 0.171875 0.0625q0.09375 0.046875 0.15625 0.15625q0.0625 0.109375 0.09375 0.28125q0.03125 0.15625 0.03125 0.375q0 0.421875 -0.125 0.65625q-0.109375 0.234375 -0.328125 0.234375l-5.65625 0l0 4.25q0.40625 -0.0625 0.828125 -0.0625q0.4375 -0.015625 1.0 -0.015625q1.296875 0 2.265625 0.3125q0.984375 0.3125 1.625 0.875q0.65625 0.5625 0.984375 1.375q0.34375 0.8125 0.34375 1.796875z" fill-rule="nonzero"/></g></svg>