<svg version="1.1" viewBox="0.0 0.0 504.4488188976378 345.67979002624674" fill="none" stroke="none" stroke-linecap="square" stroke-miterlimit="10" xmlns:xlink="http://www.w3.org/1999/xlink" xmlns="http://www.w3.org/2000/svg"><clipPath id="p.0"><path d="m0 0l504.44882 0l0 345.67978l-504.44882 0l0 -345.67978z" clip-rule="nonzero"/></clipPath><g clip-path="url(#p.0)"><path fill="#000000" fill-opacity="0.0" d="m0 0l504.44882 0l0 345.67978l-504.44882 0z" fill-rule="evenodd"/><path fill="#cfe2f3" d="m89.45544 64.74614l324.4033 0l0 0c42.49771 0 76.94891 60.31465 76.94891 134.71654c0 74.401886 -34.451202 134.71652 -76.94891 134.71652l-324.4033 0l0 0c-42.497707 0 -76.948906 -60.314636 -76.948906 -134.71652c0 -74.401886 34.4512 -134.71654 76.948906 -134.71654z" fill-rule="evenodd"/><path fill="#cfe2f3" d="m140.95221 122.62722l0 0c0 -60.78611 49.276886 -110.06299 110.063 -110.06299l0 0c29.190506 0 57.18547 11.59589 77.82628 32.236702c20.640808 20.640816 32.236694 48.635765 32.236694 77.82629l0 0c0 60.78611 -49.276855 110.062996 -110.06297 110.062996l0 0c-60.786118 0 -110.063 -49.276886 -110.063 -110.062996z" fill-rule="evenodd"/><path fill="#000000" d="m101.49658 79.29291l300.32498 0l0 0c39.343414 0 71.23752 53.80156 71.23752 120.16914c0 66.36757 -31.894104 120.16911 -71.23752 120.16911l-300.32498 0l0 0c-39.343388 0 -71.2375 -53.801544 -71.2375 -120.16911c0 -66.367584 31.894115 -120.16914 71.2375 -120.16914z" fill-rule="evenodd"/><path fill="#cfe2f3" d="m163.2364 167.22804l176.84203 0l0 0c23.16681 0 41.947174 14.432373 41.947174 32.235596c0 17.803223 -18.780365 32.23558 -41.947174 32.23558l-176.84203 0l0 0c-23.166779 0 -41.947166 -14.432358 -41.947166 -32.23558c0 -17.803223 18.780388 -32.235596 41.947166 -32.235596z" fill-rule="evenodd"/><path fill="#3c78d8" d="m160.80913 122.61022l0 0c0 -49.809998 40.378983 -90.18898 90.18898 -90.18898l0 0c23.919586 0 46.859528 9.502026 63.773224 26.415741c16.913727 16.913712 26.415741 39.85363 26.415741 63.77324l0 0c0 49.80999 -40.378967 90.18897 -90.188965 90.18897l0 0c-49.809998 0 -90.18898 -40.378983 -90.18898 -90.18897z" fill-rule="evenodd"/><path fill="#6fa8dc" d="m160.80913 93.116264l0 0c0 -7.8421555 6.357315 -14.1994705 14.199478 -14.1994705l151.979 0c3.7659302 0 7.3776245 1.4960098 10.040527 4.158928c2.6629333 2.662918 4.1589355 6.274605 4.1589355 10.040543l0 56.797905c0 7.842148 -6.3573303 14.199478 -14.199463 14.199478l-151.979 0c-7.842163 0 -14.199478 -6.3573303 -14.199478 -14.199478z" fill-rule="evenodd"/></g></svg>