<svg version="1.1" viewBox="0.0 0.0 115.20734908136482 108.20472440944881" fill="none" stroke="none" stroke-linecap="square" stroke-miterlimit="10" xmlns:xlink="http://www.w3.org/1999/xlink" xmlns="http://www.w3.org/2000/svg"><clipPath id="p.0"><path d="m0 0l115.20735 0l0 108.20473l-115.20735 0l0 -108.20473z" clip-rule="nonzero"/></clipPath><g clip-path="url(#p.0)"><path fill="#000000" fill-opacity="0.0" d="m0 0l115.20735 0l0 108.20473l-115.20735 0z" fill-rule="evenodd"/><path fill="#ffe599" d="m12.502038 54.101894l0 0c0 -23.526463 20.193016 -42.598427 45.102364 -42.598427l0 0c11.961891 0 23.433853 4.488036 31.892189 12.476789c8.458328 7.9887543 13.210175 18.823832 13.210175 30.121637l0 0c0 23.526463 -20.193016 42.598423 -45.102364 42.598423l0 0c-24.909348 0 -45.102364 -19.07196 -45.102364 -42.598423z" fill-rule="evenodd"/><path fill="#000000" d="m62.24112 58.298145q0 1.046875 -0.375 1.890625q-0.359375 0.828125 -1.046875 1.4375q-0.671875 0.59375 -1.671875 0.921875q-0.984375 0.3125 -2.25 0.3125q-0.75 0 -1.421875 -0.125q-0.65625 -0.125 -1.171875 -0.28125q-0.515625 -0.171875 -0.859375 -0.359375q-0.34375 -0.1875 -0.4375 -0.265625q-0.078125 -0.078125 -0.125 -0.15625q-0.046875 -0.09375 -0.078125 -0.203125q-0.03125 -0.125 -0.0625 -0.28125q-0.015625 -0.171875 -0.015625 -0.421875q0 -0.421875 0.078125 -0.578125q0.09375 -0.171875 0.25 -0.171875q0.09375 0 0.40625 0.1875q0.3125 0.1875 0.796875 0.40625q0.484375 0.21875 1.140625 0.40625q0.65625 0.1875 1.453125 0.1875q0.765625 0 1.34375 -0.203125q0.59375 -0.203125 0.984375 -0.5625q0.40625 -0.359375 0.609375 -0.859375q0.203125 -0.5 0.203125 -1.09375q0 -0.640625 -0.265625 -1.15625q-0.25 -0.515625 -0.734375 -0.890625q-0.484375 -0.375 -1.203125 -0.5625q-0.703125 -0.203125 -1.59375 -0.203125l-1.453125 0q-0.09375 0 -0.1875 -0.046875q-0.078125 -0.046875 -0.140625 -0.140625q-0.0625 -0.09375 -0.109375 -0.234375q-0.03125 -0.15625 -0.03125 -0.40625q0 -0.21875 0.03125 -0.359375q0.03125 -0.15625 0.09375 -0.234375q0.0625 -0.09375 0.140625 -0.125q0.09375 -0.046875 0.203125 -0.046875l1.3125 0q0.78125 0 1.390625 -0.203125q0.625 -0.203125 1.046875 -0.578125q0.421875 -0.375 0.65625 -0.890625q0.234375 -0.53125 0.234375 -1.171875q0 -0.46875 -0.15625 -0.890625q-0.15625 -0.4375 -0.46875 -0.75q-0.296875 -0.3125 -0.78125 -0.484375q-0.46875 -0.1875 -1.078125 -0.1875q-0.6875 0 -1.265625 0.203125q-0.5625 0.203125 -1.015625 0.4375q-0.4375 0.234375 -0.734375 0.4375q-0.28125 0.203125 -0.40625 0.203125q-0.078125 0 -0.140625 -0.03125q-0.0625 -0.03125 -0.109375 -0.109375q-0.03125 -0.09375 -0.0625 -0.25q-0.015625 -0.15625 -0.015625 -0.421875q0 -0.171875 0.015625 -0.296875q0.015625 -0.140625 0.046875 -0.234375q0.03125 -0.109375 0.078125 -0.1875q0.046875 -0.078125 0.15625 -0.1875q0.125 -0.125 0.453125 -0.328125q0.34375 -0.21875 0.84375 -0.421875q0.5 -0.203125 1.140625 -0.34375q0.65625 -0.140625 1.40625 -0.140625q1.0625 0 1.859375 0.28125q0.796875 0.265625 1.328125 0.765625q0.53125 0.484375 0.796875 1.171875q0.265625 0.671875 0.265625 1.515625q0 0.703125 -0.1875 1.328125q-0.1875 0.609375 -0.5625 1.09375q-0.359375 0.46875 -0.890625 0.8125q-0.515625 0.328125 -1.21875 0.453125l0 0.015625q0.796875 0.09375 1.4375 0.40625q0.65625 0.296875 1.125 0.765625q0.46875 0.46875 0.734375 1.109375q0.265625 0.625 0.265625 1.328125z" fill-rule="nonzero"/></g></svg>