<svg version="1.1" viewBox="0.0 0.0 115.20734908136482 108.20472440944881" fill="none" stroke="none" stroke-linecap="square" stroke-miterlimit="10" xmlns:xlink="http://www.w3.org/1999/xlink" xmlns="http://www.w3.org/2000/svg"><clipPath id="p.0"><path d="m0 0l115.20735 0l0 108.20473l-115.20735 0l0 -108.20473z" clip-rule="nonzero"/></clipPath><g clip-path="url(#p.0)"><path fill="#000000" fill-opacity="0.0" d="m0 0l115.20735 0l0 108.20473l-115.20735 0z" fill-rule="evenodd"/><path fill="#ffe599" d="m12.502038 54.101894l0 0c0 -23.526463 20.193016 -42.598427 45.102364 -42.598427l0 0c11.961891 0 23.433853 4.488036 31.892189 12.476789c8.458328 7.9887543 13.210175 18.823832 13.210175 30.121637l0 0c0 23.526463 -20.193016 42.598423 -45.102364 42.598423l0 0c-24.909348 0 -45.102364 -19.07196 -45.102364 -42.598423z" fill-rule="evenodd"/><path fill="#000000" d="m56.299713 61.84502q0 0.21875 -0.03125 0.375q-0.03125 0.15625 -0.09375 0.25q-0.0625 0.09375 -0.140625 0.140625q-0.0625 0.03125 -0.15625 0.03125l-7.921875 0q-0.078125 0 -0.15625 -0.03125q-0.0625 -0.046875 -0.125 -0.140625q-0.0625 -0.09375 -0.109375 -0.25q-0.03125 -0.15625 -0.03125 -0.375q0 -0.21875 0.03125 -0.359375q0.046875 -0.15625 0.09375 -0.25q0.0625 -0.109375 0.125 -0.15625q0.078125 -0.0625 0.171875 -0.0625l3.171875 0l0 -11.53125l-2.9375 1.75q-0.21875 0.125 -0.359375 0.15625q-0.125 0.015625 -0.21875 -0.0625q-0.078125 -0.078125 -0.109375 -0.25q-0.015625 -0.1875 -0.015625 -0.453125q0 -0.203125 0.015625 -0.34375q0.015625 -0.140625 0.046875 -0.234375q0.03125 -0.09375 0.09375 -0.15625q0.078125 -0.078125 0.171875 -0.140625l3.5 -2.234375q0.046875 -0.046875 0.109375 -0.0625q0.078125 -0.03125 0.171875 -0.046875q0.109375 -0.03125 0.25 -0.03125q0.140625 0 0.359375 0q0.28125 0 0.46875 0.03125q0.1875 0.015625 0.28125 0.0625q0.109375 0.03125 0.140625 0.09375q0.046875 0.0625 0.046875 0.140625l0 13.3125l2.734375 0q0.09375 0 0.171875 0.0625q0.09375 0.046875 0.140625 0.15625q0.0625 0.09375 0.078125 0.25q0.03125 0.140625 0.03125 0.359375zm12.6328125 -6.828125q0 1.75 -0.28125 3.203125q-0.265625 1.4375 -0.90625 2.46875q-0.640625 1.03125 -1.671875 1.609375q-1.03125 0.5625 -2.53125 0.5625q-1.4375 0 -2.421875 -0.5q-0.96875 -0.515625 -1.578125 -1.5q-0.59375 -1.0 -0.84375 -2.4375q-0.25 -1.453125 -0.25 -3.328125q0 -1.734375 0.28125 -3.171875q0.28125 -1.453125 0.90625 -2.484375q0.640625 -1.046875 1.671875 -1.609375q1.03125 -0.578125 2.53125 -0.578125q1.4375 0 2.421875 0.515625q0.984375 0.5 1.578125 1.5q0.59375 0.984375 0.84375 2.4375q0.25 1.4375 0.25 3.3125zm-2.0625 0.140625q0 -1.125 -0.078125 -2.03125q-0.078125 -0.90625 -0.234375 -1.59375q-0.15625 -0.6875 -0.421875 -1.1875q-0.25 -0.5 -0.609375 -0.8125q-0.34375 -0.328125 -0.796875 -0.46875q-0.4375 -0.15625 -1.0 -0.15625q-1.0 0 -1.625 0.46875q-0.625 0.46875 -0.984375 1.296875q-0.34375 0.8125 -0.484375 1.921875q-0.125 1.09375 -0.125 2.359375q0 1.703125 0.171875 2.890625q0.1875 1.1875 0.5625 1.9375q0.375 0.75 0.96875 1.09375q0.59375 0.328125 1.4375 0.328125q0.65625 0 1.15625 -0.203125q0.5 -0.21875 0.859375 -0.609375q0.359375 -0.390625 0.59375 -0.9375q0.234375 -0.546875 0.375 -1.21875q0.140625 -0.671875 0.1875 -1.453125q0.046875 -0.78125 0.046875 -1.625z" fill-rule="nonzero"/></g></svg>