<svg version="1.1" viewBox="0.0 0.0 818.8635170603675 466.8530183727034" fill="none" stroke="none" stroke-linecap="square" stroke-miterlimit="10" xmlns:xlink="http://www.w3.org/1999/xlink" xmlns="http://www.w3.org/2000/svg"><clipPath id="p.0"><path d="m0 0l818.8635 0l0 466.85303l-818.8635 0l0 -466.85303z" clip-rule="nonzero"/></clipPath><g clip-path="url(#p.0)"><path fill="#000000" fill-opacity="0.0" d="m0 0l818.8635 0l0 466.85303l-818.8635 0z" fill-rule="evenodd"/><path fill="#cfe2f3" d="m189.19598 113.772964l440.47284 0l0 0c57.703125 0 104.48071 74.90184 104.48071 167.29796c0 92.39612 -46.777588 167.29794 -104.48071 167.29794l-440.47284 0l0 0c-57.70314 0 -104.48076 -74.901825 -104.48076 -167.29794c0 -92.39612 46.77762 -167.29796 104.48076 -167.29796z" fill-rule="evenodd"/><path fill="#cfe2f3" d="m267.0525 164.85957l0 0c0 -80.84231 63.74478 -146.37794 142.37796 -146.37794l0 0c37.760986 0 73.97537 15.421919 100.67642 42.873108c26.70105 27.451195 41.701538 64.683 41.701538 103.50484l0 0c0 80.842316 -63.74478 146.37794 -142.37796 146.37794l0 0c-78.63318 0 -142.37796 -65.53563 -142.37796 -146.37794z" fill-rule="evenodd"/><path fill="#000000" d="m202.49174 132.0407l413.87982 0l0 0c54.21936 0 98.17285 67.415344 98.17285 150.57637c0 83.16104 -43.95349 150.57639 -98.17285 150.57639l-413.87982 0l0 0c-54.21936 0 -98.172844 -67.415344 -98.172844 -150.57639c0 -83.161026 43.953484 -150.57637 98.172844 -150.57637z" fill-rule="evenodd"/><path fill="#cfe2f3" d="m252.94225 197.67848l311.00293 0l0 0c40.74225 0 73.770325 37.79294 73.770325 84.41292c0 46.619965 -33.028076 84.4129 -73.770325 84.4129l-311.00293 0l0 0c-40.742233 0 -73.770325 -37.79294 -73.770325 -84.4129c0 -46.61998 33.02809 -84.41292 73.770325 -84.41292z" fill-rule="evenodd"/><path fill="#3c78d8" d="m286.25195 164.85957l0 0c0 -69.944466 55.150055 -126.64566 123.18109 -126.64566l0 0c32.669678 0 64.00125 13.342991 87.1022 37.093662c23.100922 23.750664 36.078888 55.963486 36.078888 89.552l0 0c0 69.94447 -55.150055 126.645676 -123.18109 126.645676l0 0c-68.03104 0 -123.18109 -56.701202 -123.18109 -126.645676z" fill-rule="evenodd"/><path fill="#434343" d="m286.24933 142.98032l0 0c0 -6.041794 4.8978577 -10.939636 10.939636 -10.939636l224.48297 0c2.9013672 0 5.683899 1.1525726 7.7354736 3.2041473c2.0515747 2.0515747 3.2041626 4.8341217 3.2041626 7.735489l0 43.75853c0 6.041794 -4.897888 10.939636 -10.939636 10.939636l-224.48297 0c-6.0417786 0 -10.939636 -4.8978424 -10.939636 -10.939636z" fill-rule="evenodd"/></g></svg>