<?xml version="1.0" encoding="utf-8"?>
<svg version="1.1" id="Layer_1" xmlns="http://www.w3.org/2000/svg" xmlns:xlink="http://www.w3.org/1999/xlink" x="0px"
     y="0px"
     viewBox="0 0 60 70" style="enable-background:new 0 0 60 70;" xml:space="preserve">

    <path d="M0 10 h60 v60 h-60zz
      M1,15 a 4,4 0 1,0 8,0 a 4,4 0 1,0 -8,0
      M11,15 a 4,4 0 1,0 8,0 a 4,4 0 1,0 -8,0
      M21,15 a 4,4 0 1,0 8,0 a 4,4 0 1,0 -8,0
      M31,15 a 4,4 0 1,0 8,0 a 4,4 0 1,0 -8,0
      M41,15 a 4,4 0 1,0 8,0 a 4,4 0 1,0 -8,0
      M51,15 a 4,4 0 1,0 8,0 a 4,4 0 1,0 -8,0

      M1,25 a 4,4 0 1,0 8,0 a 4,4 0 1,0 -8,0
      M11,25 a 4,4 0 1,0 8,0 a 4,4 0 1,0 -8,0
      M21,25 a 4,4 0 1,0 8,0 a 4,4 0 1,0 -8,0
      M31,25 a 4,4 0 1,0 8,0 a 4,4 0 1,0 -8,0
      M41,25 a 4,4 0 1,0 8,0 a 4,4 0 1,0 -8,0
      M51,25 a 4,4 0 1,0 8,0 a 4,4 0 1,0 -8,0

      M1,35 a 4,4 0 1,0 8,0 a 4,4 0 1,0 -8,0
      M11,35 a 4,4 0 1,0 8,0 a 4,4 0 1,0 -8,0
      M21,35 a 4,4 0 1,0 8,0 a 4,4 0 1,0 -8,0
      M31,35 a 4,4 0 1,0 8,0 a 4,4 0 1,0 -8,0
      M41,35 a 4,4 0 1,0 8,0 a 4,4 0 1,0 -8,0
      M51,35 a 4,4 0 1,0 8,0 a 4,4 0 1,0 -8,0

      M1,45 a 4,4 0 1,0 8,0 a 4,4 0 1,0 -8,0
      M11,45 a 4,4 0 1,0 8,0 a 4,4 0 1,0 -8,0
      M21,45 a 4,4 0 1,0 8,0 a 4,4 0 1,0 -8,0
      M31,45 a 4,4 0 1,0 8,0 a 4,4 0 1,0 -8,0
      M41,45 a 4,4 0 1,0 8,0 a 4,4 0 1,0 -8,0
      M51,45 a 4,4 0 1,0 8,0 a 4,4 0 1,0 -8,0

      M1,55 a 4,4 0 1,0 8,0 a 4,4 0 1,0 -8,0
      M11,55 a 4,4 0 1,0 8,0 a 4,4 0 1,0 -8,0
      M21,55 a 4,4 0 1,0 8,0 a 4,4 0 1,0 -8,0
      M31,55 a 4,4 0 1,0 8,0 a 4,4 0 1,0 -8,0
      M41,55 a 4,4 0 1,0 8,0 a 4,4 0 1,0 -8,0
      M51,55 a 4,4 0 1,0 8,0 a 4,4 0 1,0 -8,0

      M1,65 a 4,4 0 1,0 8,0 a 4,4 0 1,0 -8,0
      M11,65 a 4,4 0 1,0 8,0 a 4,4 0 1,0 -8,0
      M21,65 a 4,4 0 1,0 8,0 a 4,4 0 1,0 -8,0
      M31,65 a 4,4 0 1,0 8,0 a 4,4 0 1,0 -8,0
      M41,65 a 4,4 0 1,0 8,0 a 4,4 0 1,0 -8,0
      M51,65 a 4,4 0 1,0 8,0 a 4,4 0 1,0 -8,0
      "  fill="gray" fill-rule="evenodd"/>

</svg>