<?xml version="1.0" encoding="utf-8"?>
<svg version="1.1" id="EntitySVG" xmlns="http://www.w3.org/2000/svg" viewBox="0 0 100 100">
<path d="M49.7,60c-4.1,0-5.7-3.1-5.7-4.5c0-0.9,0.4-1.4,1-1.4c0.7,0,1.1,0.4,1.4,1.3c0.5,1.4,1.5,2.5,3.3,2.5c2.2,0,3.7-1.6,3.7-3.6c0-2.9-1.6-3.7-3.4-3.7c-1,0-1.5-0.4-1.5-1c0-0.6,0.4-0.9,1.3-1c2-0.4,2.8-1.4,2.8-3.2c0-1.9-1.1-3.2-2.8-3.2c-1.9,0-2.7,1.4-2.8,2.9c-0.1,1.1-0.7,1.1-1.2,1.1c-0.7,0-1.1-0.5-1.1-1.1c0-2.6,1.9-5,5.2-5c3.1,0,5.1,2.3,5.1,5.1c0,1.6-0.8,3.2-2.3,4.2c2.2,0.7,3.4,2.5,3.4,4.8C56,57.8,53.2,60,49.7,60z"/>
</svg>
