<?xml version="1.0" encoding="utf-8"?>
<svg version="1.1" id="EntitySVG" xmlns="http://www.w3.org/2000/svg" viewBox="0 0 100 100">
<path d="M50,40c2.5,0,5,1.5,5,4.5c0,2.1-0.8,3.3-2.6,4.4c2.3,0.5,3.6,2.6,3.6,4.9c0,3.2-2.2,6.2-6,6.2s-6-3-6-6.2c0-2.3,1.3-4.4,3.6-4.9c-1.8-1.1-2.6-2.3-2.6-4.4C45,41.5,47.5,40,50,40z M50,57.9c1.8,0,3.4-1.5,3.4-4c0-2-1.2-3.9-3.4-3.9s-3.4,1.9-3.4,3.9C46.6,56.4,48.2,57.9,50,57.9z M50,47.9c1.7,0,2.8-1.2,2.8-2.9c0-1.7-1-2.9-2.8-2.9s-2.8,1.2-2.8,2.9C47.2,46.7,48.3,47.9,50,47.9z"/>
</svg>
