<?xml version="1.0" encoding="utf-8"?>
<!-- Generator: Adobe Illustrator 26.0.1, SVG Export Plug-In . SVG Version: 6.00 Build 0)  -->
<svg version="1.1" id="Layer_1" xmlns="http://www.w3.org/2000/svg" xmlns:xlink="http://www.w3.org/1999/xlink" x="0px" y="0px"
	 viewBox="0 0 100 100" style="enable-background:new 0 0 100 100;" xml:space="preserve">
<g>
	<path d="M56,46.8c0,5.7-3.9,10.2-6.9,12.7C48.6,59.9,48.3,60,48,60c-0.4,0-1-0.4-1-1.1c0-0.4,0.3-0.7,1-1.3
		c1.6-1.4,2.7-2.7,4.2-5.5h-0.1c-0.9,0.5-1.8,0.8-3.1,0.8c-3.2,0-5-3-5-6.5c0-3.6,2.5-6.4,6-6.4C53.5,40,56,42.8,56,46.8z
		 M50.1,42.3c-2.4,0-3.5,2-3.5,4.3c0,2.6,1,4.3,3.5,4.3c2.4,0,3.5-2,3.5-4.3C53.5,44.2,52.5,42.3,50.1,42.3z"/>
</g>
</svg>
