<?xml version="1.0" encoding="utf-8"?>
<svg version="1.1" id="Layer_1" xmlns="http://www.w3.org/2000/svg" xmlns:xlink="http://www.w3.org/1999/xlink" x="0px"
     y="0px"
     viewBox="0 0 50 10" style="enable-background:new 0 0 50 10;" xml:space="preserve">

    <path d="M0 0 h50 v10 h-50z
      M2,5 a 3,3 0 1,0 6,0 a 3,3 0 1,0 -6,0
      M12,5 a 3,3 0 1,0 6,0 a 3,3 0 1,0 -6,0
      M22,5 a 3,3 0 1,0 6,0 a 3,3 0 1,0 -6,0
      M32,5 a 3,3 0 1,0 6,0 a 3,3 0 1,0 -6,0
      M42,5 a 3,3 0 1,0 6,0 a 3,3 0 1,0 -6,0" stroke="black" stroke-width="0.25" fill="#AAAAAA" fill-rule="evenodd"/>

</svg>