<?xml version="1.0" standalone="no"?>
 <svg id="BackgroundSVG" viewBox="0 0 100 100" xmlns="http://www.w3.org/2000/svg">
    <defs>
        <path id="h" transform="scale(16.5)" d="M-0.5,-0.5h1v1h-1z" stroke-width="0.060606"
            stroke="#000" stroke-linejoin="round" fill="none" />
    </defs>
    <use href="#h" x="8.75" y="8.75"/><use href="#h" x="25.25" y="8.75"/><use href="#h" x="41.75" y="8.75"/><use href="#h" x="58.25" y="8.75"/><use href="#h" x="74.75" y="8.75"/><use href="#h" x="91.25" y="8.75"/><use href="#h" x="8.75" y="25.25"/><use href="#h" x="25.25" y="25.25"/><use href="#h" x="41.75" y="25.25"/><use href="#h" x="58.25" y="25.25"/><use href="#h" x="74.75" y="25.25"/><use href="#h" x="91.25" y="25.25"/><use href="#h" x="8.75" y="41.75"/><use href="#h" x="25.25" y="41.75"/><use href="#h" x="41.75" y="41.75"/><use href="#h" x="58.25" y="41.75"/><use href="#h" x="74.75" y="41.75"/><use href="#h" x="91.25" y="41.75"/><use href="#h" x="8.75" y="58.25"/><use href="#h" x="25.25" y="58.25"/><use href="#h" x="41.75" y="58.25"/><use href="#h" x="58.25" y="58.25"/><use href="#h" x="74.75" y="58.25"/><use href="#h" x="91.25" y="58.25"/><use href="#h" x="8.75" y="74.75"/><use href="#h" x="25.25" y="74.75"/><use href="#h" x="41.75" y="74.75"/><use href="#h" x="58.25" y="74.75"/><use href="#h" x="74.75" y="74.75"/><use href="#h" x="91.25" y="74.75"/><use href="#h" x="8.75" y="91.25"/><use href="#h" x="25.25" y="91.25"/><use href="#h" x="41.75" y="91.25"/><use href="#h" x="58.25" y="91.25"/><use href="#h" x="74.75" y="91.25"/><use href="#h" x="91.25" y="91.25"/>
</svg>