<svg version="1.1" id="BackgroundSVG" xmlns="http://www.w3.org/2000/svg" viewBox="0 0 80 80"><defs><path id="r" stroke="none" fill="#779556" d="M10,0h10v10h-10z M30,0h10v10h-10z M50,0h10v10h-10z M70,0h10v10h-10z" /><path id="s" stroke="none" fill="#779556" d="M0,0h10v10h-10z M20,0h10v10h-10z M40,0h10v10h-10z M60,0h10v10h-10z" /></defs><path d="M0,0 h80 v80 h-80 z" stroke="none" fill="#EBECD0" /><use href="#r" x="0" y="0" /><use href="#s" x="0" y="10" /><use href="#r" x="0" y="20" /><use href="#s" x="0" y="30" /><use href="#r" x="0" y="40" /><use href="#s" x="0" y="50" /><use href="#r" x="0" y="60" /><use href="#s" x="0" y="70" /></svg>