<?xml version="1.0" encoding="utf-8"?>
<!-- Generator: Adobe Illustrator 26.0.1, SVG Export Plug-In . SVG Version: 6.00 Build 0)  -->
<svg version="1.1" id="Layer_1" xmlns="http://www.w3.org/2000/svg" xmlns:xlink="http://www.w3.org/1999/xlink" x="0px" y="0px"
	 viewBox="0 0 110 70" style="enable-background:new 0 0 110 70;" xml:space="preserve">
<style type="text/css">
	.st0{display:none;}
	.st1{display:inline;}
	.st2{fill:#4C4C4C;}
	.st3{fill:#D7D904;}
	.st4{display:none;fill:#231F20;}
	.st5{fill:none;stroke:#A7A9AC;stroke-linecap:round;stroke-miterlimit:10;}
	.st6{fill:#A7A9AC;}
	.st7{display:none;enable-background:new    ;}
	.st8{font-family:'CourierNewPS-BoldMT';}
	.st9{font-size:7px;}
	.st10{fill:none;stroke:#0067AB;stroke-linecap:round;stroke-miterlimit:10;}
</style>

<g id="BG">
	<rect class="st2" width="110" height="70"/>
</g>

<g>
	<g>
		<line class="st5" x1="35" y1="21" x2="35" y2="26.1"/>
		<g>
			<polygon class="st6" points="33,25.5 35,29 37,25.5 			"/>
		</g>
	</g>
</g>
<g>
	<g>
		<line class="st5" x1="45" y1="21" x2="45" y2="26.1"/>
		<g>
			<polygon class="st6" points="43,25.5 45,29 47,25.5 			"/>
		</g>
	</g>
</g>
<g>
	<g>
		<line class="st5" x1="55" y1="21" x2="55" y2="26.1"/>
		<g>
			<polygon class="st6" points="53,25.5 55,29 57,25.5 			"/>
		</g>
	</g>
</g>
<g>
	<g>
		<line class="st5" x1="65" y1="21" x2="65" y2="26.1"/>
		<g>
			<polygon class="st6" points="63,25.5 65,29 67,25.5 			"/>
		</g>
	</g>
</g>
<g>
	<g>
		<line class="st5" x1="75" y1="21" x2="75" y2="26.1"/>
		<g>
			<polygon class="st6" points="73,25.5 75,29 77,25.5 			"/>
		</g>
	</g>
</g>

<g id="TOOT_OTTO">
	<text transform="matrix(1 0 0 1 22.8992 6.9999)" class="st7 st8 st9">T</text>
	<g>
		<line class="st10" x1="100.8" y1="5" x2="103.8" y2="5"/>
		<line class="st10" x1="102.2" y1="5" x2="102.2" y2="9"/>
	</g>
	<g>
		<line class="st10" x1="96.2" y1="5" x2="99.2" y2="5"/>
		<line class="st10" x1="97.8" y1="5" x2="97.8" y2="9"/>
	</g>
	<circle class="st10" cx="93.2" cy="7" r="2"/>
	<circle class="st10" cx="106.8" cy="7" r="2"/>
	<g>
		<line class="st10" x1="1.2" y1="5" x2="4.2" y2="5"/>
		<line class="st10" x1="2.8" y1="5" x2="2.8" y2="9"/>
	</g>
	<g>
		<line class="st10" x1="15.8" y1="5" x2="18.8" y2="5"/>
		<line class="st10" x1="17.2" y1="5" x2="17.2" y2="9"/>
	</g>
	<circle class="st10" cx="12.8" cy="7" r="2"/>
	<circle class="st10" cx="7.2" cy="7" r="2"/>
</g>
</svg>
