<?xml version="1.0" encoding="utf-8"?>
<!-- Generator: Adobe Illustrator 26.0.1, SVG Export Plug-In . SVG Version: 6.00 Build 0)  -->
<svg version="1.1" id="Layer_1" xmlns="http://www.w3.org/2000/svg" xmlns:xlink="http://www.w3.org/1999/xlink" x="0px" y="0px"
	 viewBox="0 0 100 70" style="enable-background:new 0 0 100 70;" xml:space="preserve">

<path 
	class="st3" 
	d="
		M70,70H30V32.7c0-1.5,1.2-2.7,2.7-2.7h34.7c1.5,0,2.7,1.2,2.7,2.7L70,70L70,70z
		M35,39L35,39c-2.2,0-4-1.8-4-4l0,0c0-2.2,1.8-4,4-4l0,0c2.2,0,4,1.8,4,4l0,0C39,37.2,37.2,39,35,39z
		M35,49L35,49c-2.2,0-4-1.8-4-4l0,0c0-2.2,1.8-4,4-4l0,0c2.2,0,4,1.8,4,4l0,0C39,47.2,37.2,49,35,49z
		M35,59L35,59c-2.2,0-4-1.8-4-4l0,0c0-2.2,1.8-4,4-4l0,0c2.2,0,4,1.8,4,4l0,0C39,57.2,37.2,59,35,59z
		M35,69L35,69c-2.2,0-4-1.8-4-4l0,0c0-2.2,1.8-4,4-4l0,0c2.2,0,4,1.8,4,4l0,0C39,67.2,37.2,69,35,69z
		M45,39L45,39c-2.2,0-4-1.8-4-4l0,0c0-2.2,1.8-4,4-4l0,0c2.2,0,4,1.8,4,4l0,0C49,37.2,47.2,39,45,39z
		M45,49L45,49c-2.2,0-4-1.8-4-4l0,0c0-2.2,1.8-4,4-4l0,0c2.2,0,4,1.8,4,4l0,0C49,47.2,47.2,49,45,49z
		M45,59L45,59c-2.2,0-4-1.8-4-4l0,0c0-2.2,1.8-4,4-4l0,0c2.2,0,4,1.8,4,4l0,0C49,57.2,47.2,59,45,59z
		M45,69L45,69c-2.2,0-4-1.8-4-4l0,0c0-2.2,1.8-4,4-4l0,0c2.2,0,4,1.8,4,4l0,0C49,67.2,47.2,69,45,69z
		M55,39L55,39c-2.2,0-4-1.8-4-4l0,0c0-2.2,1.8-4,4-4l0,0c2.2,0,4,1.8,4,4l0,0C59,37.2,57.2,39,55,39z
		M55,49L55,49c-2.2,0-4-1.8-4-4l0,0c0-2.2,1.8-4,4-4l0,0c2.2,0,4,1.8,4,4l0,0C59,47.2,57.2,49,55,49z
		M55,59L55,59c-2.2,0-4-1.8-4-4l0,0c0-2.2,1.8-4,4-4l0,0c2.2,0,4,1.8,4,4l0,0C59,57.2,57.2,59,55,59z
		M55,69L55,69c-2.2,0-4-1.8-4-4l0,0c0-2.2,1.8-4,4-4l0,0c2.2,0,4,1.8,4,4l0,0C59,67.2,57.2,69,55,69z
		M65,39L65,39c-2.2,0-4-1.8-4-4l0,0c0-2.2,1.8-4,4-4l0,0c2.2,0,4,1.8,4,4l0,0C69,37.2,67.2,39,65,39z
		M65,49L65,49c-2.2,0-4-1.8-4-4l0,0c0-2.2,1.8-4,4-4l0,0c2.2,0,4,1.8,4,4l0,0C69,47.2,67.2,49,65,49z
		M65,59L65,59c-2.2,0-4-1.8-4-4l0,0c0-2.2,1.8-4,4-4l0,0c2.2,0,4,1.8,4,4l0,0C69,57.2,67.2,59,65,59z
		M65,69L65,69c-2.2,0-4-1.8-4-4l0,0c0-2.2,1.8-4,4-4l0,0c2.2,0,4,1.8,4,4l0,0C69,67.2,67.2,69,65,69z
	" 
	fill="#D7D904"
	fill-rule="evenodd"
/>
</svg>
