<?xml version="1.0" encoding="utf-8"?>
<!-- Author: Jiachun Li -->
<svg id="EntitySVG" xmlns="http://www.w3.org/2000/svg" viewBox="0 0 100 100">
  <circle cx="50" cy="50" r="40" fill="#f1cb9d" stroke="#000000" stroke-width="1"/>
  <circle cx="50" cy="50" r="35" fill="#f1cb9d" stroke="#000000" stroke-width="2"/>
  <metadata> Svg Vector Icons : http://www.onlinewebfonts.com/icon </metadata>
  <g transform="translate(24, 55) scale(0.0058,-0.0058)" fill="#000000">
  <path d="M6274.6,2716.7c-1779.4-249.6-3284.4-457.2-3338.8-467.1l-103.8-12.4l-17.3,133.5c-19.8,165.6-86.5,259.5-187.8,259.5c-168,0-227.4-89-197.7-306.4l19.8-138.4l-89-12.4c-182.9-27.2-378.1-89-467.1-145.8c-128.5-81.6-296.6-271.8-353.4-400.4c-44.5-101.3-54.4-108.7-116.1-91.4c-373.2,106.3-743.9-175.5-746.3-561c0-464.6,496.7-743.9,892.2-496.7l116.1,71.7l69.2-71.7l69.2-71.7L1695.2,5.6c-71.7-222.4-289.2-887.2-481.9-1477.8l-353.4-1075l-306.4-7.4c-170.5-2.5-333.6-17.3-363.3-32.1c-76.6-42-113.7-160.6-74.1-239.7c54.4-116.2,118.6-131,553.6-123.6c365.8,7.4,405.3,12.4,452.2,56.8c32.1,34.6,227.4,595.6,570.9,1643.4c286.7,877.3,558.5,1675.6,603,1772c123.6,266.9,313.9,526.4,558.5,758.7c496.7,474.5,1077.5,706.8,1764.5,706.8c674.7,0,1275.2-234.8,1744.8-684.6l192.8-182.9L8182.4,1481c1191.2,264.4,1638.5,373.2,1673.1,405.3c24.7,27.2,44.5,81.6,44.5,128.5c0,74.1-158.2,924.3-192.8,1042.9c-12.4,39.5-133.5,118.6-175.5,113.7C9521.9,3171.4,8056.4,2966.3,6274.6,2716.7z"/><path d="M4376.6,1762.8c-541.2-56.8-1030.6-291.6-1416.1-674.7C1816.3-56.1,2132.6-1976.3,3580.8-2683.2c388-190.3,590.6-234.8,1050.3-232.3c457.2,2.5,647.5,44.5,1025.6,229.8C6823.2-2112.3,7300.2-720.9,6734.2,443.1c-373.2,763.6-1047.8,1230.7-1905.4,1322.2c-128.5,12.4-239.7,22.2-247.1,19.8C4574.3,1785,4482.8,1775.1,4376.6,1762.8z M4433.4,618.5v-430l-79.1-27.2c-79.1-27.2-79.1-27.2-383.1,274.3c-207.6,207.6-294.1,308.9-279.3,328.7c47,56.8,286.7,173,469.6,227.4C4458.1,1078.2,4433.4,1112.8,4433.4,618.5z M5048.8,999.1c190.3-54.4,373.2-135.9,467.1-212.5l56.8-47l-306.4-304c-304-301.5-304-301.5-383.1-274.3l-79.1,27.2v430c0,331.2,7.4,430,32.1,430C4853.5,1048.6,4947.5,1026.3,5048.8,999.1z M3931.7-199.5l-42-86.5h-442.4H3005l32.1,126.1c44.5,168,185.4,459.7,271.8,561l69.2,84l299-299l296.6-296.6L3931.7-199.5z M6062,186.1c51.9-103.8,113.7-252.1,133.4-328.7l37.1-143.3h-442.4h-442.4l-42,86.5l-42,89l294.1,294.1L5852,480.2l56.8-54.4C5938.5,398.6,6007.7,289.9,6062,186.1z M4831.3-244c257-170.5,237.3-551.1-37.1-682.1c-56.8-29.7-135.9-51.9-175.5-51.9c-39.5,0-118.6,22.2-175.5,51.9c-274.3,131-294.1,509.1-34.6,682.1C4522.4-164.9,4715.2-164.9,4831.3-244z M3870-802.5l37.1-121.1l-299-299c-165.6-165.6-306.4-299.1-316.3-299.1c-27.2,0-182.9,299.1-229.8,439.9c-22.2,71.7-49.4,190.3-59.3,264.4l-19.8,135.9h425.1h422.6L3870-802.5z M6244.9-785.2c-29.7-234.8-232.3-736.5-299-736.5c-9.9,0-150.8,133.5-311.4,294.1l-294.1,294.1l32.1,126.1l29.7,126h427.5h427.5L6244.9-785.2z M4295-1289.3l138.4-61.8v-420.1v-417.7h-69.2c-165.6,0-558.5,165.6-734,306.5l-74.1,61.8l296.6,296.6c163.1,165.6,296.6,299,299,299C4154.2-1225.1,4218.4-1254.7,4295-1289.3z M5384.9-1524.1l296.6-296.6l-74.1-61.8c-175.5-140.9-568.4-306.5-734-306.5h-69.2v417.7v420.1l131,61.8c69.2,32.1,133.5,61.8,140.9,61.8C5083.4-1225.1,5221.8-1358.5,5384.9-1524.1z"/>
  </g>
</svg>
