<?xml version="1.0" encoding="utf-8"?>
<!-- Author: Jiachun Li -->
<svg id="EntitySVG" xmlns="http://www.w3.org/2000/svg" viewBox="0 0 100 100">
  <circle cx="50" cy="50" r="40" fill="#f1cb9d" stroke="#000000" stroke-width="1"/>
  <circle cx="50" cy="50" r="35" fill="#f1cb9d" stroke="#000000" stroke-width="2"/>
  <metadata> Svg Vector Icons : http://www.onlinewebfonts.com/icon </metadata>
  <g transform="translate(20, 55) scale(0.006,-0.006)" fill="#000000">
    <path d="M4601.1,3321.7c-112.7-30.3-348.8-112.7-526.5-182c-175.5-71.5-342.3-130-370.5-130c-28.2,0-88.8-15.2-134.3-34.7c-69.3-28.2-101.8-30.3-212.3-8.7c-71.5,15.2-195,56.3-273,91c-173.3,80.2-383.5,99.7-624,60.7c-164.7-30.3-169-30.3-307.7-173.3c-296.8-305.5-656.5-834.2-771.3-1128.8c-99.7-264.3-156-359.7-279.5-472.3c-78-71.5-108.3-88.8-147.3-75.8c-80.2,26-138.7,71.5-201.5,164.7c-58.5,84.5-62.8,101.8-62.8,320.7c0,249.2-6.5,231.8,156,429c136.5,169,190.7,353.2,186.3,630.5c-4.3,169-13,234-39,260c-28.2,28.2-39,26-93.2-26c-45.5-43.3-82.3-58.5-149.5-58.5h-88.8l4.3-145.2c2.2-173.3-52-307.7-175.5-420.3c-281.7-264.3-342.3-400.8-387.8-875.3c-15.2-175.5,26-370.5,112.7-524.3c65-114.8,260-288.2,420.3-372.7c108.3-58.5,156-69.3,351-80.2c264.3-17.3,418.2,17.3,591.5,130c60.7,39,162.5,82.3,229.7,95.3c65,15.2,156,52,199.3,82.3c43.3,28.2,80.2,45.5,80.2,34.7c0-41.2-270.8-312-439.8-439.8c-101.8-78-296.8-192.8-457.2-268.7C1036.9,130.2,922.1,63,932.9,56.5c34.7-21.7,348.8,62.8,546,145.2c247,104,435.5,231.8,591.5,400.8c71.5,78,119.2,119.2,104,91c-39-73.7-351-396.5-483.2-498.3c-62.8-45.5-234-151.7-383.5-234c-299-162.5-303.3-201.5-6.5-104c381.3,127.8,689,320.7,890.5,556.8c123.5,145.2,296.8,468,320.7,593.7c19.5,99.7,71.5,91,123.5-23.8c80.2-186.3,114.8-238.3,184.2-277.3c80.2-47.7,134.3-23.8,134.3,54.2c0,39,13,32.5,93.2-39c49.8-47.7,177.7-153.8,283.8-236.2l190.7-151.7l-10.8-130c-15.2-147.3-86.7-383.5-143-465.8c-21.7-30.3-62.8-121.3-93.2-205.8c-30.3-82.3-114.8-305.5-188.5-496.2c-166.8-433.3-173.3-524.3-52-764.8c54.2-110.5,110.5-188.5,179.8-247c132.2-110.5,203.7-247,260-485.3c52-227.5,112.7-335.8,182-335.8c82.3,0,184.2,43.3,197.2,84.5c6.5,21.7,34.7,49.8,62.8,62.8c78,34.7,121.3,145.2,147.3,372.7c39,333.7,39,331.5-43.3,348.8c-97.5,19.5-153.8,75.8-214.5,214.5c-30.3,65-82.3,149.5-119.2,186.3l-65,69.3l43.3,82.3c56.3,108.3,279.5,329.3,303.3,301.2c45.5-52,177.7-654.3,177.7-803.8c0-54.2-15.2-221-34.7-372.6c-36.8-294.7-62.8-355.3-262.2-595.8c-54.2-62.9-71.5-106.2-71.5-166.8c0-80.2,4.3-84.5,75.8-99.7c41.2-6.5,95.3-8.7,119.2-2.2c23.8,6.5,91-4.3,153.8-21.7c97.5-28.2,132.2-28.2,316.3,2.2c255.7,43.3,312,69.3,335.8,153.8c13,49.8,4.3,88.8-36.8,169c-36.8,71.5-49.8,123.5-41.2,162.5c6.5,32.5,47.7,195,91,361.8l75.8,303.3l10.8,585c8.7,533,13,591.5,52,671.7c23.8,47.7,47.7,88.8,49.8,93.2s65-28.2,138.7-71.5c73.7-43.3,205.8-112.7,296.8-156c153.8-73.7,184.2-80.2,450.7-95.3c156-8.7,329.3-17.3,387.8-17.3l101.8-2.2v-251.3c0-244.8-2.2-260-86.7-468c-47.7-119.2-101.8-275.2-121.3-348.8c-41.2-160.3-192.8-433.3-348.8-624c-121.3-151.7-138.7-208-75.8-262.2c58.5-54.2,203.7-67.2,541.7-49.8c264.3,13,318.5,21.7,353.2,56.3c45.5,45.5,58.5,201.5,19.5,225.3c-34.7,21.7-23.8,95.3,21.7,145.2c21.7,23.8,62.8,114.8,86.7,199.3c93.2,318.5,286,894.8,331.5,985.8c26,54.2,69.3,110.5,93.2,125.7c43.3,28.2,49.9,23.8,101.8-65c75.8-127.8,201.5-238.3,377-327.2c192.8-95.3,507-387.8,559-515.7c41.2-104,67.2-372.7,45.5-461.5c-8.7-32.5-69.3-117-134.3-186.3c-93.2-97.5-123.5-143-132.2-212.3c-13-97.5-21.7-93.2,221-123.5c184.2-23.8,682.5-8.7,747.5,21.7c49.8,21.7,54.2,34.7,49.8,153.8c-2.2,71.5-6.5,273-10.8,446.3l-6.5,316.3l-82.3,160.3c-43.3,88.8-127.8,221-184.2,294.7c-56.3,73.7-173.3,225.3-262.2,340.1c-149.5,192.8-160.3,218.8-205.8,407.4c-39,173.3-43.3,227.5-26,385.7c13,119.2,13,303.3-4.3,526.5c-19.5,283.8-17.3,353.2,6.5,400.8c17.3,32.5,36.8,75.8,43.3,99.7c19.5,69.3,71.5,0,197.2-257.8c78-158.2,164.7-294.7,257.9-407.3c208-244.9,325-329.3,548.2-396.5c104-30.3,210.2-65,238.3-75.8c82.3-32.5,218.8-21.7,309.8,26c49.9,23.8,82.4,49.8,73.7,58.5c-8.7,8.7-114.8,15.2-236.2,15.2c-218.8,0-225.3,2.2-411.7,95.3L9060.1-431l-227.5,307.7c-244.8,331.5-301.2,452.8-429,944.7c-69.3,270.8-99.7,342.3-242.7,563.3c-301.2,461.5-524.3,697.7-884,936c-335.8,221-470.2,286-747.5,355.3c-203.7,52-242.7,56.3-405.2,39c-99.7-10.8-179.8-15.2-179.8-8.7c0,8.7,15.2,65,34.7,127.8c41.2,138.7,17.3,214.5-86.7,294.7c-143,108.3-695.5,251.3-964.2,249.2C4861.1,3375.8,4713.8,3352,4601.1,3321.7z"/>
  </g>
</svg>

