<?xml version="1.0" encoding="utf-8"?><svg version="1.1" id="BackgroundSVG" xmlns="http://www.w3.org/2000/svg" viewBox="0 0 200 200"><defs><g id="r" fill="black"><circle cx="20" cy="20" r="2" /><circle cx="60" cy="20" r="2" /><circle cx="100" cy="20" r="2" /><circle cx="140" cy="20" r="2" /><circle cx="180" cy="20" r="2" /></g></defs><path d="M0,0v200h200v-200z" fill="#fff0c0" /><g fill="none" opacity="0.7" stroke-width="1.5"><path stroke="#b7410e" d="M20,20l160,160M180,20l-160,160M100,20l80,80l-80,80l-80,-80l80,-80" /><path stroke="#87ceeb" d="M60,20l120,120l-40,40l-120,-120zM140,20l40,40l-120,120l-40,-40z"/></g><use href="#r" x="0" y="0" /><use href="#r" x="0" y="40" /><use href="#r" x="0" y="80" /><use href="#r" x="0" y="120" /><use href="#r" x="0" y="160" /></svg>