<svg id="eD9zPRr4VjJ1" xmlns="http://www.w3.org/2000/svg" xmlns:xlink="http://www.w3.org/1999/xlink" viewBox="0 0 200 200" shape-rendering="geometricPrecision" text-rendering="geometricPrecision">
  <rect width="200" height="200" rx="0" ry="0" fill="#fff0c0" stroke-width="0"/>
  <line x1="-40.127302" y1="40" x2="40.127302" y2="-40" transform="translate(59.872698 59.549344)" opacity="0.7" fill="none" stroke="#b7410e" stroke-width="1.5"/>
  <line x1="-40.127302" y1="40" x2="40.127302" y2="-40" transform="translate(139.618094 139.549344)" opacity="0.7" fill="none" stroke="#b7410e" stroke-width="1.5"/>
  <line x1="-20" y1="20" x2="20" y2="-20" transform="translate(159.745396 159.549344)" opacity="0.7" fill="none" stroke="#87ceeb" stroke-width="1.5"/>
  <line x1="-60" y1="-60" x2="60" y2="60" transform="translate(119.745396 79.549344)" opacity="0.7" fill="none" stroke="#87ceeb" stroke-width="1.5"/>
  <line x1="-40" y1="-40" x2="40" y2="40" transform="translate(139.745396 59.549344)" opacity="0.7" fill="none" stroke="#b7410e" stroke-width="1.5"/>
  <line x1="-40" y1="-40" x2="40" y2="40" transform="translate(59.745396 139.549344)" opacity="0.7" fill="none" stroke="#b7410e" stroke-width="1.5"/>
  <line x1="-20" y1="20" x2="20" y2="-20" transform="translate(39.745396 39.549344)" opacity="0.7" fill="none" stroke="#87ceeb" stroke-width="1.5"/>
  <line x1="-60" y1="-60" x2="60" y2="60" transform="translate(79.745396 119.549344)" opacity="0.7" fill="none" stroke="#87ceeb" stroke-width="1.5"/>
  <line x1="-59.936349" y1="60" x2="59.936349" y2="-60" transform="translate(79.681745 79.549344)" opacity="0.7" fill="none" stroke="#87ceeb" stroke-width="1.5"/>
  <line x1="-59.936349" y1="60" x2="59.936349" y2="-60" transform="translate(119.809047 119.549344)" opacity="0.7" fill="none" stroke="#87ceeb" stroke-width="1.5"/>
  <line x1="-20.063651" y1="-20" x2="20.063651" y2="20" transform="translate(39.809047 159.549344)" opacity="0.7" fill="none" stroke="#87ceeb" stroke-width="1.5"/>
  <line x1="-20.063651" y1="-20" x2="20.063651" y2="20" transform="translate(159.681745 39.549344)" opacity="0.7" fill="none" stroke="#87ceeb" stroke-width="1.5"/>
  <line x1="-80" y1="-80" x2="80" y2="80" transform="translate(99.745396 99.549344)" opacity="0.7" fill="none" stroke="#b7410e" stroke-width="1.5"/>
  <line x1="-80" y1="-80" x2="80" y2="80" transform="matrix(-1 0 0 1.000005 99.745396 99.549344)" opacity="0.7" fill="none" stroke="#b7410e" stroke-width="1.5"/>
  <ellipse rx="2" ry="2" transform="translate(179.745396 19.549344)" stroke-width="0"/>
  <ellipse rx="2" ry="2" transform="translate(179.745396 59.549344)" stroke-width="0"/>
  <ellipse rx="2" ry="2" transform="translate(179.745396 99.549344)" stroke-width="0"/>
  <ellipse rx="2" ry="2" transform="translate(179.745396 139.549344)" stroke-width="0"/>
  <ellipse rx="2" ry="2" transform="translate(179.745396 179.549344)" stroke-width="0"/>
  <ellipse rx="2" ry="2" transform="translate(139.745396 179.549344)" stroke-width="0"/>
  <ellipse rx="2" ry="2" transform="translate(59.745396 179.549344)" stroke-width="0"/>
  <ellipse rx="2" ry="2" transform="translate(99.745396 179.549344)" stroke-width="0"/>
  <ellipse rx="2" ry="2" transform="translate(19.745396 179.549344)" stroke-width="0"/>
  <ellipse rx="2" ry="2" transform="translate(139.745396 139.549344)" stroke-width="0"/>
  <ellipse rx="2" ry="2" transform="translate(59.745396 139.549344)" stroke-width="0"/>
  <ellipse rx="2" ry="2" transform="translate(99.745396 139.549344)" stroke-width="0"/>
  <ellipse rx="2" ry="2" transform="translate(19.745396 139.549344)" stroke-width="0"/>
  <ellipse rx="2" ry="2" transform="translate(139.745396 99.549344)" stroke-width="0"/>
  <ellipse rx="2" ry="2" transform="translate(59.745396 99.549344)" stroke-width="0"/>
  <ellipse rx="2" ry="2" transform="translate(99.745396 99.549344)" stroke-width="0"/>
  <ellipse rx="2" ry="2" transform="translate(19.745396 99.549344)" stroke-width="0"/>
  <ellipse rx="2" ry="2" transform="translate(139.745396 59.549344)" stroke-width="0"/>
  <ellipse rx="2" ry="2" transform="translate(59.745396 59.549344)" stroke-width="0"/>
  <ellipse rx="2" ry="2" transform="translate(99.745396 59.549344)" stroke-width="0"/>
  <ellipse rx="2" ry="2" transform="translate(19.745396 59.549344)" stroke-width="0"/>
  <ellipse rx="2" ry="2" transform="translate(139.745396 19.549344)" stroke-width="0"/>
  <ellipse rx="2" ry="2" transform="translate(59.745396 19.549344)" stroke-width="0"/>
  <ellipse rx="2" ry="2" transform="translate(99.745396 19.549344)" stroke-width="0"/>
  <ellipse rx="2" ry="2" transform="translate(19.745396 19.549344)" stroke-width="0"/>
</svg>
