<svg width="400" height="400" viewBox="0 0 400 400" xmlns="http://www.w3.org/2000/svg">
    <!-- Background -->
    <rect width="400" height="400" fill="#5A3D26" rx="20"/>

    <!-- Grid cells -->
    <g fill="#7A5234">
        <!-- Row 0 -->
        <rect x="10"  y="10"  width="90" height="90" />
        <rect x="105" y="10"  width="90" height="90" />
        <rect x="200" y="10"  width="90" height="90" />
        <rect x="295" y="10"  width="90" height="90" />
        <!-- Row 1 -->
        <rect x="10"  y="105" width="90" height="90" />
        <rect x="105" y="105" width="90" height="90" />
        <rect x="200" y="105" width="90" height="90" />
        <rect x="295" y="105" width="90" height="90" />
        <!-- Row 2 -->
        <rect x="10"  y="200" width="90" height="90" />
        <rect x="105" y="200" width="90" height="90" />
        <rect x="200" y="200" width="90" height="90" />
        <rect x="295" y="200" width="90" height="90" />
        <!-- Row 3 -->
        <rect x="10"  y="295" width="90" height="90" />
        <rect x="105" y="295" width="90" height="90" />
        <rect x="200" y="295" width="90" height="90" />
        <rect x="295" y="295" width="90" height="90" />
    </g>

    <!-- Holes (approx positions based on image) -->
    <!--
    <circle cx="150" cy="55"  r="20" fill="#5C3A21" />
    <circle cx="245" cy="150" r="20" fill="#5C3A21" />
    <circle cx="340" cy="245" r="20" fill="#5C3A21" />
    <circle cx="55"  cy="340" r="20" fill="#5C3A21" />
    -->
</svg>