<svg version="1.1" id="Layer_1" xmlns="http://www.w3.org/2000/svg" xmlns:xlink="http://www.w3.org/1999/xlink" x="0px" y="0px"
	 width="100%" viewBox="0 0 294 277" enable-background="new 0 0 294 277" xml:space="preserve">
<path fill="#190E06" opacity="1.000000" stroke="none" 
	d="
M201.934082,146.685577 
	C197.295624,180.985077 163.506058,201.758118 129.689957,186.912628 
	C108.617424,177.661652 95.559937,152.002792 105.345009,124.545570 
	C111.275940,107.903191 123.480309,99.225197 139.939560,94.600616 
	C158.756256,89.313675 174.442917,94.907829 188.296112,107.166611 
	C196.704788,114.607498 201.009659,124.518532 201.910141,135.744965 
	C202.188644,139.217087 201.953094,142.730423 201.934082,146.685577 
M175.820831,103.617676 
	C170.222809,101.681152 164.763626,98.847717 159.003860,97.956230 
	C125.972435,92.843727 100.821007,117.198616 107.730576,153.393372 
	C112.188225,176.744141 133.572266,189.576691 157.768951,186.917374 
	C178.127487,184.679901 192.748260,170.398376 196.918381,150.339661 
	C200.619812,132.535568 194.623199,114.950508 175.820831,103.617676 
z"/>
<path fill="#72411B" opacity="1.000000" stroke="none" 
	d="
M176.134903,103.804855 
	C194.623199,114.950508 200.619812,132.535568 196.918381,150.339661 
	C192.748260,170.398376 178.127487,184.679901 157.768951,186.917374 
	C133.572266,189.576691 112.188225,176.744141 107.730576,153.393372 
	C100.821007,117.198616 125.972435,92.843727 159.003860,97.956230 
	C164.763626,98.847717 170.222809,101.681152 176.134903,103.804855 
z"/>
</svg>