<svg version="1.1" id="Layer_1" xmlns="http://www.w3.org/2000/svg" xmlns:xlink="http://www.w3.org/1999/xlink" x="0px" y="0px"
	 width="100%" viewBox="-15 -75 3300 2550" enable-background="new 0 0 3300 2550" xml:space="preserve">
<path fill="#93C020" opacity="1.000000" stroke="none" 
	d="
M1750.000244,752.334534 
	C1842.987671,752.334595 1934.977905,752.729675 2026.960693,752.079529 
	C2052.582275,751.898438 2081.384521,770.435486 2086.152832,798.709351 
	C2087.083496,804.227478 2088.227051,809.811584 2088.238281,815.367432 
	C2088.380127,884.357361 2089.887695,953.390930 2087.970703,1022.327881 
	C2084.969482,1130.271118 2086.132812,1238.202637 2085.724365,1346.140015 
	C2085.609375,1376.460571 2086.051758,1406.784424 2086.380615,1437.105225 
	C2086.955322,1490.073364 2087.514160,1543.042358 2088.377197,1596.006104 
	C2088.569824,1607.824585 2083.961182,1617.325684 2076.512695,1625.777344 
	C2074.639648,1627.902710 2071.852783,1629.822754 2069.149414,1630.506104 
	C2060.177246,1632.774170 2051.133789,1635.162598 2041.970093,1636.199463 
	C2008.451050,1639.992432 1974.786499,1636.715942 1941.195312,1637.645508 
	C1913.566284,1638.410034 1885.933716,1639.458984 1858.300171,1639.538330 
	C1828.319458,1639.624390 1798.337280,1638.502197 1768.353271,1638.328857 
	C1730.372314,1638.109253 1692.387695,1638.126221 1654.406738,1638.375977 
	C1572.449585,1638.915039 1490.492920,1639.555176 1408.538208,1640.383423 
	C1371.590942,1640.756714 1334.648438,1641.634521 1297.705444,1642.372803 
	C1282.078369,1642.684937 1266.454834,1643.197266 1250.831543,1643.675781 
	C1240.499756,1643.991943 1231.142578,1641.159180 1222.675171,1635.272949 
	C1218.574097,1632.421753 1214.382935,1629.695190 1210.354614,1626.745361 
	C1196.968262,1616.943115 1190.732666,1602.813232 1190.600952,1587.100098 
	C1190.243530,1544.459595 1191.140991,1501.808594 1191.556152,1459.161865 
	C1191.796143,1434.505005 1192.093262,1409.848511 1192.315796,1385.191528 
	C1192.769897,1334.873901 1193.654419,1284.554688 1193.510376,1234.238647 
	C1193.321655,1168.260620 1192.226685,1102.285767 1191.677368,1036.308105 
	C1191.130981,970.680481 1190.621582,905.051636 1190.422729,839.422302 
	C1190.350952,815.772888 1191.151855,792.118835 1191.705322,768.470398 
	C1191.975342,756.933472 1197.357788,751.620239 1208.114502,751.675659 
	C1252.097046,751.902283 1296.079346,752.277527 1340.062012,752.304138 
	C1476.374756,752.386475 1612.687378,752.334412 1750.000244,752.334534 
M1469.545044,1048.107666 
	C1468.912842,1050.326538 1468.133911,1052.515503 1467.672119,1054.769287 
	C1464.695190,1069.297974 1461.162842,1083.595703 1452.747559,1096.188354 
	C1451.307373,1098.343262 1450.342041,1100.942383 1449.685059,1103.473389 
	C1445.616333,1119.145752 1447.173828,1134.472168 1454.297363,1148.852539 
	C1459.473633,1159.301514 1466.035522,1168.309082 1464.318359,1181.674194 
	C1463.087280,1191.255737 1467.068115,1201.760010 1469.832153,1211.539185 
	C1473.502808,1224.525757 1476.896362,1237.879639 1482.842529,1249.868774 
	C1492.840088,1270.026489 1506.271240,1288.034912 1523.468262,1302.963745 
	C1532.620605,1310.908813 1541.500122,1319.167847 1550.393677,1327.186890 
	C1539.718506,1335.456055 1531.930420,1346.495239 1528.680542,1360.174438 
	C1525.273438,1374.515503 1518.391479,1388.221191 1520.197266,1403.613770 
	C1520.382080,1405.189819 1519.724121,1406.868164 1519.437622,1408.495483 
	C1517.564575,1419.133423 1519.086182,1429.708008 1522.590210,1439.522339 
	C1528.790894,1456.889648 1536.935547,1473.562256 1543.154175,1490.923950 
	C1553.542236,1519.927002 1564.737915,1548.588257 1578.224854,1576.263794 
	C1586.935059,1594.137085 1601.078003,1606.786377 1619.614136,1614.479370 
	C1630.117554,1618.838501 1641.038696,1618.350586 1651.966187,1618.195190 
	C1667.393799,1617.975830 1680.540649,1613.191406 1689.119995,1599.327148 
	C1690.322510,1597.383789 1692.110962,1595.752197 1693.814575,1594.178101 
	C1702.831665,1585.846680 1707.531128,1574.966675 1712.646484,1564.112427 
	C1717.373047,1554.083252 1715.110107,1543.201538 1718.259644,1533.084351 
	C1720.112183,1527.133423 1721.083740,1520.905640 1722.406372,1514.792725 
	C1724.844727,1503.523438 1726.746338,1492.108154 1729.802856,1481.010254 
	C1733.208496,1468.644653 1737.967163,1456.657227 1741.567749,1444.338867 
	C1746.517944,1427.403442 1748.774170,1410.027710 1747.652954,1392.373047 
	C1746.812134,1379.133545 1744.611450,1366.063232 1738.729736,1354.017578 
	C1733.836670,1343.996338 1728.348755,1334.265259 1722.903076,1323.988037 
	C1723.846191,1323.306030 1724.867798,1322.546875 1725.909546,1321.816772 
	C1741.397217,1310.964722 1756.562378,1299.688599 1768.878052,1285.174683 
	C1772.885620,1280.451904 1775.756592,1274.784180 1779.510254,1269.823242 
	C1792.860352,1252.179321 1801.943481,1232.544800 1807.099854,1211.098145 
	C1810.021851,1198.945312 1812.670898,1186.704956 1810.377197,1174.066650 
	C1809.236084,1167.779541 1809.767212,1162.134155 1813.839844,1156.587769 
	C1818.690308,1149.981689 1820.128662,1141.743530 1819.527466,1133.836792 
	C1818.302124,1117.725586 1816.483643,1101.625854 1814.065063,1085.649292 
	C1811.997559,1071.993164 1809.852539,1058.173950 1805.780884,1045.034668 
	C1798.676270,1022.107300 1801.290527,998.418091 1798.446655,975.196411 
	C1797.364014,966.356689 1797.317017,957.393066 1796.334595,948.537354 
	C1794.705322,933.853333 1789.266968,920.339111 1781.930176,907.708801 
	C1777.921387,900.807678 1772.307373,895.103394 1763.506592,894.180237 
	C1755.357422,893.325439 1747.221313,892.347534 1739.856323,891.511963 
	C1733.777466,882.831177 1728.223389,874.218872 1721.981079,866.138184 
	C1711.463867,852.523438 1697.506226,843.439209 1682.117310,835.943848 
	C1669.964600,830.024658 1657.283081,827.065308 1644.086670,826.393066 
	C1620.724731,825.203003 1599.602539,833.707764 1580.287354,845.280396 
	C1564.263062,854.881287 1550.040283,867.516479 1539.698486,883.714355 
	C1537.793457,886.698120 1535.351196,889.338867 1532.774048,892.626160 
	C1528.012329,887.933350 1524.426880,882.726379 1516.878052,883.505371 
	C1501.727783,885.068970 1482.626099,901.663696 1480.307861,916.904846 
	C1478.818970,926.693054 1478.218872,936.641785 1477.679321,946.543518 
	C1476.740601,963.766785 1476.645142,981.048157 1475.282349,998.232727 
	C1474.006104,1014.324158 1471.545166,1030.321655 1469.545044,1048.107666 
z"/>
<path fill="#080502" opacity="1.000000" stroke="none" 
	d="
M1469.575317,1047.234131 
	C1471.545166,1030.321655 1474.006104,1014.324158 1475.282349,998.232727 
	C1476.645142,981.048157 1476.740601,963.766785 1477.679321,946.543518 
	C1478.218872,936.641785 1478.818970,926.693054 1480.307861,916.904846 
	C1482.626099,901.663696 1501.727783,885.068970 1516.878052,883.505371 
	C1524.426880,882.726379 1528.012329,887.933350 1532.774048,892.626160 
	C1535.351196,889.338867 1537.793457,886.698120 1539.698486,883.714355 
	C1550.040283,867.516479 1564.263062,854.881287 1580.287354,845.280396 
	C1599.602539,833.707764 1620.724731,825.203003 1644.086670,826.393066 
	C1657.283081,827.065308 1669.964600,830.024658 1682.117310,835.943848 
	C1697.506226,843.439209 1711.463867,852.523438 1721.981079,866.138184 
	C1728.223389,874.218872 1733.777466,882.831177 1739.856323,891.511963 
	C1747.221313,892.347534 1755.357422,893.325439 1763.506592,894.180237 
	C1772.307373,895.103394 1777.921387,900.807678 1781.930176,907.708801 
	C1789.266968,920.339111 1794.705322,933.853333 1796.334595,948.537354 
	C1797.317017,957.393066 1797.364014,966.356689 1798.446655,975.196411 
	C1801.290527,998.418091 1798.676270,1022.107300 1805.780884,1045.034668 
	C1809.852539,1058.173950 1811.997559,1071.993164 1814.065063,1085.649292 
	C1816.483643,1101.625854 1818.302124,1117.725586 1819.527466,1133.836792 
	C1820.128662,1141.743530 1818.690308,1149.981689 1813.839844,1156.587769 
	C1809.767212,1162.134155 1809.236084,1167.779541 1810.377197,1174.066650 
	C1812.670898,1186.704956 1810.021851,1198.945312 1807.099854,1211.098145 
	C1801.943481,1232.544800 1792.860352,1252.179321 1779.510254,1269.823242 
	C1775.756592,1274.784180 1772.885620,1280.451904 1768.878052,1285.174683 
	C1756.562378,1299.688599 1741.397217,1310.964722 1725.909546,1321.816772 
	C1724.867798,1322.546875 1723.846191,1323.306030 1722.903076,1323.988037 
	C1728.348755,1334.265259 1733.836670,1343.996338 1738.729736,1354.017578 
	C1744.611450,1366.063232 1746.812134,1379.133545 1747.652954,1392.373047 
	C1748.774170,1410.027710 1746.517944,1427.403442 1741.567749,1444.338867 
	C1737.967163,1456.657227 1733.208496,1468.644653 1729.802856,1481.010254 
	C1726.746338,1492.108154 1724.844727,1503.523438 1722.406372,1514.792725 
	C1721.083740,1520.905640 1720.112183,1527.133423 1718.259644,1533.084351 
	C1715.110107,1543.201538 1717.373047,1554.083252 1712.646484,1564.112427 
	C1707.531128,1574.966675 1702.831665,1585.846680 1693.814575,1594.178101 
	C1692.110962,1595.752197 1690.322510,1597.383789 1689.119995,1599.327148 
	C1680.540649,1613.191406 1667.393799,1617.975830 1651.966187,1618.195190 
	C1641.038696,1618.350586 1630.117554,1618.838501 1619.614136,1614.479370 
	C1601.078003,1606.786377 1586.935059,1594.137085 1578.224854,1576.263794 
	C1564.737915,1548.588257 1553.542236,1519.927002 1543.154175,1490.923950 
	C1536.935547,1473.562256 1528.790894,1456.889648 1522.590210,1439.522339 
	C1519.086182,1429.708008 1517.564575,1419.133423 1519.437622,1408.495483 
	C1519.724121,1406.868164 1520.382080,1405.189819 1520.197266,1403.613770 
	C1518.391479,1388.221191 1525.273438,1374.515503 1528.680542,1360.174438 
	C1531.930420,1346.495239 1539.718506,1335.456055 1550.393677,1327.186890 
	C1541.500122,1319.167847 1532.620605,1310.908813 1523.468262,1302.963745 
	C1506.271240,1288.034912 1492.840088,1270.026489 1482.842529,1249.868774 
	C1476.896362,1237.879639 1473.502808,1224.525757 1469.832153,1211.539185 
	C1467.068115,1201.760010 1463.087280,1191.255737 1464.318359,1181.674194 
	C1466.035522,1168.309082 1459.473633,1159.301514 1454.297363,1148.852539 
	C1447.173828,1134.472168 1445.616333,1119.145752 1449.685059,1103.473389 
	C1450.342041,1100.942383 1451.307373,1098.343262 1452.747559,1096.188354 
	C1461.162842,1083.595703 1464.695190,1069.297974 1467.672119,1054.769287 
	C1468.133911,1052.515503 1468.912842,1050.326538 1469.575317,1047.234131 
M1718.088135,891.919983 
	C1718.088135,891.919983 1718.240479,892.027222 1719.324707,890.851196 
	C1714.218140,880.944641 1706.386475,873.258057 1697.877197,866.518616 
	C1687.051147,857.944275 1675.825073,850.058472 1661.554077,847.329285 
	C1648.220825,844.779419 1635.359619,843.426392 1621.590088,845.352539 
	C1595.116455,849.055603 1575.251465,862.719360 1558.442383,882.223389 
	C1557.720215,883.061401 1557.943481,884.714111 1557.911377,885.857056 
	C1557.911377,885.857056 1558.045410,885.674500 1556.571045,885.573975 
	C1555.650513,885.924622 1554.424805,886.009705 1553.854492,886.665039 
	C1542.383667,899.846313 1535.166626,915.407593 1529.870483,931.789307 
	C1524.203247,949.318848 1523.801758,967.540100 1524.287109,985.837158 
	C1524.625122,998.573792 1527.043457,1010.995117 1531.956909,1022.442200 
	C1541.727905,1045.206055 1555.257446,1065.049316 1577.495361,1078.243408 
	C1591.263672,1086.412354 1605.609741,1091.604736 1621.281372,1092.073486 
	C1637.437256,1092.556519 1653.534180,1091.289185 1669.082153,1085.598145 
	C1685.004272,1079.770264 1697.691162,1069.769165 1709.389404,1057.873413 
	C1721.035889,1046.030396 1728.700928,1031.845215 1734.147461,1016.550659 
	C1737.652344,1006.708618 1740.306030,996.275330 1741.306885,985.910583 
	C1742.310791,975.513855 1742.882812,965.013306 1741.983887,954.311279 
	C1740.197510,933.042908 1732.829712,913.879761 1723.647583,895.132202 
	C1722.745850,893.290955 1721.575806,889.935608 1718.088135,891.919983 
M1498.008423,1181.698242 
	C1493.104492,1181.698242 1488.200439,1181.698242 1483.483032,1181.698242 
	C1478.996582,1213.505859 1525.102905,1299.168823 1555.443604,1319.317993 
	C1556.054565,1318.606812 1556.919678,1317.950317 1557.321777,1317.079712 
	C1565.027832,1300.397339 1580.679077,1293.771851 1596.272827,1288.637451 
	C1610.979736,1283.795044 1626.685181,1283.060059 1642.420044,1283.424805 
	C1662.491943,1283.890015 1680.646973,1289.754150 1697.221436,1300.427856 
	C1704.884277,1305.362671 1711.459839,1311.986206 1718.823364,1318.088623 
	C1720.703613,1317.084106 1723.109497,1316.406006 1724.662598,1314.867310 
	C1732.576294,1307.026733 1740.112305,1298.803101 1748.071167,1291.010376 
	C1766.794800,1272.677490 1776.777100,1249.324463 1785.671509,1225.447144 
	C1789.458862,1215.280151 1792.269897,1204.800293 1792.585327,1193.636963 
	C1792.758667,1187.503296 1795.412354,1181.459229 1790.210083,1175.679443 
	C1787.226196,1176.599976 1784.127319,1177.659790 1780.968384,1178.491089 
	C1779.102417,1178.982300 1776.910645,1179.821289 1775.261719,1179.285034 
	C1766.739258,1176.513062 1758.605225,1173.319580 1752.896362,1165.480469 
	C1745.056885,1154.715576 1738.702026,1143.460449 1734.436890,1130.712158 
	C1728.474854,1112.892456 1725.892700,1094.755127 1726.444946,1076.124390 
	C1726.548218,1072.638916 1728.034302,1069.015015 1729.623779,1065.824463 
	C1730.490356,1064.084717 1732.783325,1062.438110 1734.686279,1062.074097 
	C1735.749756,1061.870850 1737.950928,1064.139282 1738.554565,1065.710693 
	C1739.953979,1069.353638 1741.167725,1073.196411 1741.604614,1077.054565 
	C1742.569824,1085.575684 1742.913574,1094.165161 1743.682373,1102.711182 
	C1745.503540,1122.953369 1752.145264,1141.420166 1765.203247,1157.127197 
	C1778.324585,1172.910156 1793.306519,1170.684692 1802.267578,1155.186157 
	C1806.154907,1148.463135 1807.356934,1140.690918 1806.040894,1133.019531 
	C1803.037598,1115.513672 1799.563232,1098.088867 1796.293091,1080.628540 
	C1793.988647,1068.324585 1792.366211,1055.844482 1789.220703,1043.760498 
	C1786.284424,1032.481201 1784.210815,1021.254761 1784.282593,1009.615845 
	C1784.338135,1000.618530 1784.125732,991.616943 1784.327881,982.623901 
	C1784.779297,962.546936 1780.588257,943.264404 1774.466553,924.338013 
	C1770.277466,911.386658 1761.269775,905.844238 1746.999878,907.023132 
	C1747.287842,908.316162 1747.479126,909.605225 1747.863037,910.834167 
	C1753.795776,929.820984 1757.957397,949.128296 1757.620728,969.131714 
	C1757.526978,974.699829 1756.171021,980.234863 1755.781616,985.812134 
	C1754.761108,1000.427673 1752.016357,1014.605835 1745.058350,1027.636230 
	C1739.471924,1038.098145 1734.533447,1049.151611 1727.384277,1058.466675 
	C1719.810791,1068.334473 1712.646729,1078.942139 1701.259277,1085.529419 
	C1684.353149,1095.308838 1667.610474,1104.305908 1647.527222,1107.041260 
	C1631.661377,1109.202148 1616.309692,1108.156494 1601.610596,1103.993286 
	C1583.206177,1098.780640 1566.913330,1088.926392 1552.338867,1075.799438 
	C1527.181396,1053.140625 1514.671265,1024.349854 1510.627563,991.911865 
	C1507.053101,963.236877 1512.649536,935.350525 1524.465820,908.873291 
	C1525.759399,905.974731 1527.341309,903.204834 1529.120850,899.728210 
	C1526.477295,898.856323 1524.398193,898.665466 1522.948730,897.609985 
	C1515.215576,891.979431 1508.899414,896.375427 1503.311523,900.888123 
	C1493.822754,908.551147 1488.947388,919.276367 1488.554565,931.202026 
	C1487.824097,953.387756 1488.464600,975.513367 1484.725586,997.652710 
	C1481.597656,1016.173462 1481.131104,1035.162109 1479.834839,1053.967651 
	C1478.909546,1067.392090 1475.259033,1080.058960 1468.761719,1091.615234 
	C1464.941284,1098.410156 1462.064941,1104.863281 1461.336548,1112.808960 
	C1460.486572,1122.081421 1462.189331,1131.095825 1462.303711,1140.237183 
	C1462.350708,1143.996704 1464.348511,1147.790894 1465.738281,1151.463623 
	C1469.802002,1162.203247 1479.371460,1165.520996 1489.189209,1167.429810 
	C1499.026367,1169.342407 1504.723511,1162.726562 1510.416382,1155.651001 
	C1518.195679,1145.982544 1520.426270,1134.252319 1524.156128,1123.100220 
	C1527.291626,1113.724731 1529.872314,1104.235718 1529.957886,1094.001221 
	C1530.012939,1087.403198 1531.791016,1080.142090 1539.792969,1075.933350 
	C1541.173340,1078.711060 1543.335083,1081.169189 1543.500854,1083.755127 
	C1543.968628,1091.053833 1545.094238,1098.787842 1543.311401,1105.663452 
	C1537.968384,1126.270630 1534.719604,1147.562134 1520.933716,1165.421143 
	C1514.950317,1173.172607 1509.030396,1179.131470 1498.008423,1181.698242 
M1635.237305,1294.401245 
	C1618.743408,1294.462036 1603.099243,1298.479858 1588.087524,1304.986084 
	C1584.842163,1306.392822 1581.951294,1308.908569 1579.320801,1311.366821 
	C1576.250488,1314.236450 1573.777100,1317.734253 1570.812988,1320.730103 
	C1561.485352,1330.158081 1553.184692,1340.009155 1547.386475,1352.368896 
	C1541.527466,1364.857910 1538.560669,1377.912354 1535.412109,1391.032593 
	C1532.592896,1402.779785 1532.950562,1414.606567 1535.393921,1426.482910 
	C1537.510132,1436.768066 1543.067383,1445.476318 1547.133179,1454.883179 
	C1552.631226,1467.603516 1557.386230,1480.645874 1562.428101,1493.562378 
	C1567.833862,1507.411133 1573.546753,1521.152222 1578.513672,1535.157471 
	C1587.867188,1561.532471 1599.474731,1585.722778 1625.361572,1600.682495 
	C1639.228638,1608.696045 1664.825562,1608.142456 1675.937744,1592.993164 
	C1677.903687,1590.312988 1679.795288,1587.565552 1681.928223,1585.022827 
	C1692.320679,1572.633423 1699.398560,1558.728149 1701.649292,1542.568481 
	C1702.242676,1538.309082 1702.510742,1533.974854 1703.475708,1529.801636 
	C1707.562134,1512.128784 1711.635620,1494.447266 1716.143066,1476.879028 
	C1719.668823,1463.136475 1723.656494,1449.504883 1727.744507,1435.915894 
	C1733.294067,1417.469971 1733.554565,1398.787598 1730.586792,1379.978638 
	C1727.309082,1359.206909 1717.298706,1341.434937 1705.245972,1324.625366 
	C1695.314941,1310.774780 1683.630371,1299.298218 1665.802246,1296.906616 
	C1656.300659,1295.631958 1646.684814,1295.208618 1635.237305,1294.401245 
z"/>
<path fill="#D9702D" opacity="1.000000" stroke="none" 
	d="
M1498.862793,1181.673096 
	C1509.030396,1179.131470 1514.950317,1173.172607 1520.933716,1165.421143 
	C1534.719604,1147.562134 1537.968384,1126.270630 1543.311401,1105.663452 
	C1545.094238,1098.787842 1543.968628,1091.053833 1543.500854,1083.755127 
	C1543.335083,1081.169189 1541.173340,1078.711060 1539.792969,1075.933350 
	C1531.791016,1080.142090 1530.012939,1087.403198 1529.957886,1094.001221 
	C1529.872314,1104.235718 1527.291626,1113.724731 1524.156128,1123.100220 
	C1520.426270,1134.252319 1518.195679,1145.982544 1510.416382,1155.651001 
	C1504.723511,1162.726562 1499.026367,1169.342407 1489.189209,1167.429810 
	C1479.371460,1165.520996 1469.802002,1162.203247 1465.738281,1151.463623 
	C1464.348511,1147.790894 1462.350708,1143.996704 1462.303711,1140.237183 
	C1462.189331,1131.095825 1460.486572,1122.081421 1461.336548,1112.808960 
	C1462.064941,1104.863281 1464.941284,1098.410156 1468.761719,1091.615234 
	C1475.259033,1080.058960 1478.909546,1067.392090 1479.834839,1053.967651 
	C1481.131104,1035.162109 1481.597656,1016.173462 1484.725586,997.652710 
	C1488.464600,975.513367 1487.824097,953.387756 1488.554565,931.202026 
	C1488.947388,919.276367 1493.822754,908.551147 1503.311523,900.888123 
	C1508.899414,896.375427 1515.215576,891.979431 1522.948730,897.609985 
	C1524.398193,898.665466 1526.477295,898.856323 1529.120850,899.728210 
	C1527.341309,903.204834 1525.759399,905.974731 1524.465820,908.873291 
	C1512.649536,935.350525 1507.053101,963.236877 1510.627563,991.911865 
	C1514.671265,1024.349854 1527.181396,1053.140625 1552.338867,1075.799438 
	C1566.913330,1088.926392 1583.206177,1098.780640 1601.610596,1103.993286 
	C1616.309692,1108.156494 1631.661377,1109.202148 1647.527222,1107.041260 
	C1667.610474,1104.305908 1684.353149,1095.308838 1701.259277,1085.529419 
	C1712.646729,1078.942139 1719.810791,1068.334473 1727.384277,1058.466675 
	C1734.533447,1049.151611 1739.471924,1038.098145 1745.058350,1027.636230 
	C1752.016357,1014.605835 1754.761108,1000.427673 1755.781616,985.812134 
	C1756.171021,980.234863 1757.526978,974.699829 1757.620728,969.131714 
	C1757.957397,949.128296 1753.795776,929.820984 1747.863037,910.834167 
	C1747.479126,909.605225 1747.287842,908.316162 1746.999878,907.023132 
	C1761.269775,905.844238 1770.277466,911.386658 1774.466553,924.338013 
	C1780.588257,943.264404 1784.779297,962.546936 1784.327881,982.623901 
	C1784.125732,991.616943 1784.338135,1000.618530 1784.282593,1009.615845 
	C1784.210815,1021.254761 1786.284424,1032.481201 1789.220703,1043.760498 
	C1792.366211,1055.844482 1793.988647,1068.324585 1796.293091,1080.628540 
	C1799.563232,1098.088867 1803.037598,1115.513672 1806.040894,1133.019531 
	C1807.356934,1140.690918 1806.154907,1148.463135 1802.267578,1155.186157 
	C1793.306519,1170.684692 1778.324585,1172.910156 1765.203247,1157.127197 
	C1752.145264,1141.420166 1745.503540,1122.953369 1743.682373,1102.711182 
	C1742.913574,1094.165161 1742.569824,1085.575684 1741.604614,1077.054565 
	C1741.167725,1073.196411 1739.953979,1069.353638 1738.554565,1065.710693 
	C1737.950928,1064.139282 1735.749756,1061.870850 1734.686279,1062.074097 
	C1732.783325,1062.438110 1730.490356,1064.084717 1729.623779,1065.824463 
	C1728.034302,1069.015015 1726.548218,1072.638916 1726.444946,1076.124390 
	C1725.892700,1094.755127 1728.474854,1112.892456 1734.436890,1130.712158 
	C1738.702026,1143.460449 1745.056885,1154.715576 1752.896362,1165.480469 
	C1758.605225,1173.319580 1766.739258,1176.513062 1775.261719,1179.285034 
	C1776.910645,1179.821289 1779.102417,1178.982300 1780.968384,1178.491089 
	C1784.127319,1177.659790 1787.226196,1176.599976 1790.210083,1175.679443 
	C1795.412354,1181.459229 1792.758667,1187.503296 1792.585327,1193.636963 
	C1792.269897,1204.800293 1789.458862,1215.280151 1785.671509,1225.447144 
	C1776.777100,1249.324463 1766.794800,1272.677490 1748.071167,1291.010376 
	C1740.112305,1298.803101 1732.576294,1307.026733 1724.662598,1314.867310 
	C1723.109497,1316.406006 1720.703613,1317.084106 1718.823364,1318.088623 
	C1711.459839,1311.986206 1704.884277,1305.362671 1697.221436,1300.427856 
	C1680.646973,1289.754150 1662.491943,1283.890015 1642.420044,1283.424805 
	C1626.685181,1283.060059 1610.979736,1283.795044 1596.272827,1288.637451 
	C1580.679077,1293.771851 1565.027832,1300.397339 1557.321777,1317.079712 
	C1556.919678,1317.950317 1556.054565,1318.606812 1555.443604,1319.317993 
	C1525.102905,1299.168823 1478.996582,1213.505859 1483.483032,1181.698242 
	C1488.200439,1181.698242 1493.104492,1181.698242 1498.862793,1181.673096 
z"/>
<path fill="#9C5222" opacity="1.000000" stroke="none" 
	d="
M1636.178955,1294.401123 
	C1646.684814,1295.208618 1656.300659,1295.631958 1665.802246,1296.906616 
	C1683.630371,1299.298218 1695.314941,1310.774780 1705.245972,1324.625366 
	C1717.298706,1341.434937 1727.309082,1359.206909 1730.586792,1379.978638 
	C1733.554565,1398.787598 1733.294067,1417.469971 1727.744507,1435.915894 
	C1723.656494,1449.504883 1719.668823,1463.136475 1716.143066,1476.879028 
	C1711.635620,1494.447266 1707.562134,1512.128784 1703.475708,1529.801636 
	C1702.510742,1533.974854 1702.242676,1538.309082 1701.649292,1542.568481 
	C1699.398560,1558.728149 1692.320679,1572.633423 1681.928223,1585.022827 
	C1679.795288,1587.565552 1677.903687,1590.312988 1675.937744,1592.993164 
	C1664.825562,1608.142456 1639.228638,1608.696045 1625.361572,1600.682495 
	C1599.474731,1585.722778 1587.867188,1561.532471 1578.513672,1535.157471 
	C1573.546753,1521.152222 1567.833862,1507.411133 1562.428101,1493.562378 
	C1557.386230,1480.645874 1552.631226,1467.603516 1547.133179,1454.883179 
	C1543.067383,1445.476318 1537.510132,1436.768066 1535.393921,1426.482910 
	C1532.950562,1414.606567 1532.592896,1402.779785 1535.412109,1391.032593 
	C1538.560669,1377.912354 1541.527466,1364.857910 1547.386475,1352.368896 
	C1553.184692,1340.009155 1561.485352,1330.158081 1570.812988,1320.730103 
	C1573.777100,1317.734253 1576.250488,1314.236450 1579.320801,1311.366821 
	C1581.951294,1308.908569 1584.842163,1306.392822 1588.087524,1304.986084 
	C1603.099243,1298.479858 1618.743408,1294.462036 1636.178955,1294.401123 
z"/>
<path fill="#D9702D" opacity="1.000000" stroke="none" 
	d="
M1557.726318,885.987305 
	C1557.943481,884.714111 1557.720215,883.061401 1558.442383,882.223389 
	C1575.251465,862.719360 1595.116455,849.055603 1621.590088,845.352539 
	C1635.359619,843.426392 1648.220825,844.779419 1661.554077,847.329285 
	C1675.825073,850.058472 1687.051147,857.944275 1697.877197,866.518616 
	C1706.386475,873.258057 1714.218140,880.944641 1717.950439,891.618225 
	C1705.989502,889.969849 1695.574951,885.759338 1684.463013,887.711853 
	C1674.554199,889.453064 1663.688477,889.814636 1657.804932,900.144958 
	C1652.122681,910.121887 1647.026123,920.179565 1644.721802,931.806091 
	C1642.124146,944.912964 1643.801392,957.410828 1650.248779,968.096741 
	C1661.585083,986.885010 1676.240112,1002.951172 1697.186768,1011.925293 
	C1701.897461,1013.943542 1706.428833,1015.332825 1712.667236,1013.180481 
	C1713.865112,1004.546509 1715.693848,995.543457 1716.251099,986.462341 
	C1717.344727,968.639709 1716.702026,950.655334 1718.737915,932.963440 
	C1720.342163,919.022766 1721.161987,905.460266 1717.969238,891.776428 
	C1721.575806,889.935608 1722.745850,893.290955 1723.647583,895.132202 
	C1732.829712,913.879761 1740.197510,933.042908 1741.983887,954.311279 
	C1742.882812,965.013306 1742.310791,975.513855 1741.306885,985.910583 
	C1740.306030,996.275330 1737.652344,1006.708618 1734.147461,1016.550659 
	C1728.700928,1031.845215 1721.035889,1046.030396 1709.389404,1057.873413 
	C1697.691162,1069.769165 1685.004272,1079.770264 1669.082153,1085.598145 
	C1653.534180,1091.289185 1637.437256,1092.556519 1621.281372,1092.073486 
	C1605.609741,1091.604736 1591.263672,1086.412354 1577.495361,1078.243408 
	C1555.257446,1065.049316 1541.727905,1045.206055 1531.956909,1022.442200 
	C1527.043457,1010.995117 1524.625122,998.573792 1524.287109,985.837158 
	C1523.801758,967.540100 1524.203247,949.318848 1529.870483,931.789307 
	C1535.166626,915.407593 1542.383667,899.846313 1553.854492,886.665039 
	C1554.424805,886.009705 1555.650513,885.924622 1557.402100,886.506958 
	C1557.272705,890.591980 1555.699707,893.698547 1555.461670,896.904175 
	C1554.606445,908.419739 1553.856445,919.964233 1553.703613,931.506226 
	C1553.432373,951.973511 1553.623169,972.446960 1553.632812,992.917847 
	C1553.633911,995.246155 1553.423340,997.623779 1553.810791,999.893188 
	C1554.853638,1006.000549 1557.546265,1007.747253 1563.932373,1008.441467 
	C1579.917114,1010.179260 1594.247314,1006.108765 1606.709229,996.215759 
	C1610.732178,993.022278 1614.622925,988.836670 1616.770630,984.258667 
	C1623.693848,969.500854 1624.763794,953.730286 1622.831299,937.670593 
	C1621.448242,926.176086 1615.400879,916.702209 1610.075928,906.817322 
	C1600.704468,889.420288 1576.306274,881.768921 1557.726318,885.987305 
z"/>
<path fill="#080502" opacity="1.000000" stroke="none" 
	d="
M1718.028687,891.848206 
	C1721.161987,905.460266 1720.342163,919.022766 1718.737915,932.963440 
	C1716.702026,950.655334 1717.344727,968.639709 1716.251099,986.462341 
	C1715.693848,995.543457 1713.865112,1004.546509 1712.667236,1013.180481 
	C1706.428833,1015.332825 1701.897461,1013.943542 1697.186768,1011.925293 
	C1676.240112,1002.951172 1661.585083,986.885010 1650.248779,968.096741 
	C1643.801392,957.410828 1642.124146,944.912964 1644.721802,931.806091 
	C1647.026123,920.179565 1652.122681,910.121887 1657.804932,900.144958 
	C1663.688477,889.814636 1674.554199,889.453064 1684.463013,887.711853 
	C1695.574951,885.759338 1705.989502,889.969849 1717.408203,892.206238 
	C1718.240479,892.027222 1718.088135,891.919983 1718.028687,891.848206 
M1658.614136,963.568909 
	C1671.912964,982.591187 1686.491455,1000.165527 1709.721558,1009.484863 
	C1709.963623,1006.188782 1710.385742,1003.933228 1710.247192,1001.712646 
	C1709.691772,992.813049 1708.595215,983.933105 1708.382935,975.029541 
	C1708.057251,961.379822 1708.260254,947.716431 1708.326904,934.059326 
	C1708.339722,931.418518 1708.813110,928.783203 1708.976196,926.139343 
	C1709.424194,918.879944 1709.944092,911.621399 1710.188477,904.354309 
	C1710.327148,900.233093 1707.823730,898.140076 1703.857422,898.478271 
	C1699.285278,898.868164 1694.598877,899.236389 1690.244141,900.549683 
	C1683.403809,902.612488 1675.623169,903.994629 1670.322144,908.254883 
	C1655.887573,919.855408 1651.028931,943.930176 1658.614136,963.568909 
z"/>
<path fill="#080502" opacity="1.000000" stroke="none" 
	d="
M1557.818848,885.922180 
	C1576.306274,881.768921 1600.704468,889.420288 1610.075928,906.817322 
	C1615.400879,916.702209 1621.448242,926.176086 1622.831299,937.670593 
	C1624.763794,953.730286 1623.693848,969.500854 1616.770630,984.258667 
	C1614.622925,988.836670 1610.732178,993.022278 1606.709229,996.215759 
	C1594.247314,1006.108765 1579.917114,1010.179260 1563.932373,1008.441467 
	C1557.546265,1007.747253 1554.853638,1006.000549 1553.810791,999.893188 
	C1553.423340,997.623779 1553.633911,995.246155 1553.632812,992.917847 
	C1553.623169,972.446960 1553.432373,951.973511 1553.703613,931.506226 
	C1553.856445,919.964233 1554.606445,908.419739 1555.461670,896.904175 
	C1555.699707,893.698547 1557.272705,890.591980 1558.139282,886.557251 
	C1558.045410,885.674500 1557.911377,885.857056 1557.818848,885.922180 
M1563.706421,905.284119 
	C1563.706299,917.266052 1563.745972,929.248108 1563.685425,941.229736 
	C1563.663574,945.545288 1563.565796,949.873108 1563.216431,954.172058 
	C1562.122925,967.628540 1560.885010,981.073242 1559.732544,994.525024 
	C1559.648071,995.511230 1559.424194,996.793152 1559.914551,997.460754 
	C1561.163940,999.162170 1562.804932,1001.923157 1564.246582,1001.897278 
	C1569.767090,1001.797485 1575.578003,1001.645264 1580.699829,999.853027 
	C1586.538330,997.809875 1591.937744,994.274414 1597.194458,990.872131 
	C1602.553589,987.403442 1606.907471,982.903992 1608.312256,976.227295 
	C1608.852295,973.660461 1610.114502,971.241699 1610.615234,968.671265 
	C1612.540894,958.786133 1615.729370,949.319336 1612.804932,938.659119 
	C1609.496704,926.599854 1604.023926,915.476501 1596.454590,906.408386 
	C1588.941772,897.408264 1578.398193,890.077698 1563.706665,893.206726 
	C1563.706665,896.866150 1563.706665,900.120911 1563.706421,905.284119 
z"/>
<path fill="#D9702D" opacity="1.000000" stroke="none" 
	d="
M1658.269775,962.842651 
	C1651.028931,943.930176 1655.887573,919.855408 1670.322144,908.254883 
	C1675.623169,903.994629 1683.403809,902.612488 1690.244141,900.549683 
	C1694.598877,899.236389 1699.285278,898.868164 1703.857422,898.478271 
	C1707.823730,898.140076 1710.327148,900.233093 1710.188477,904.354309 
	C1709.944092,911.621399 1709.424194,918.879944 1708.976196,926.139343 
	C1708.813110,928.783203 1708.339722,931.418518 1708.326904,934.059326 
	C1708.260254,947.716431 1708.057251,961.379822 1708.382935,975.029541 
	C1708.595215,983.933105 1709.691772,992.813049 1710.247192,1001.712646 
	C1710.385742,1003.933228 1709.963623,1006.188782 1709.721558,1009.484863 
	C1686.491455,1000.165527 1671.912964,982.591187 1658.269775,962.842651 
z"/>
<path fill="#D9702D" opacity="1.000000" stroke="none" 
	d="
M1563.706543,904.329956 
	C1563.706665,900.120911 1563.706665,896.866150 1563.706665,893.206726 
	C1578.398193,890.077698 1588.941772,897.408264 1596.454590,906.408386 
	C1604.023926,915.476501 1609.496704,926.599854 1612.804932,938.659119 
	C1615.729370,949.319336 1612.540894,958.786133 1610.615234,968.671265 
	C1610.114502,971.241699 1608.852295,973.660461 1608.312256,976.227295 
	C1606.907471,982.903992 1602.553589,987.403442 1597.194458,990.872131 
	C1591.937744,994.274414 1586.538330,997.809875 1580.699829,999.853027 
	C1575.578003,1001.645264 1569.767090,1001.797485 1564.246582,1001.897278 
	C1562.804932,1001.923157 1561.163940,999.162170 1559.914551,997.460754 
	C1559.424194,996.793152 1559.648071,995.511230 1559.732544,994.525024 
	C1560.885010,981.073242 1562.122925,967.628540 1563.216431,954.172058 
	C1563.565796,949.873108 1563.663574,945.545288 1563.685425,941.229736 
	C1563.745972,929.248108 1563.706299,917.266052 1563.706543,904.329956 
z"/>
</svg>