<svg version="1.1" id="Layer_1" xmlns="http://www.w3.org/2000/svg" xmlns:xlink="http://www.w3.org/1999/xlink" x="0px" y="0px"
	 width="100%" viewBox="0 0 1116 1237" enable-background="new 0 0 1116 1237" xml:space="preserve">
<path fill="#93C120" opacity="1.000000" stroke="none" 
	d="
M344.000000,1066.000000 
	C333.167236,1066.000000 322.832703,1065.878906 312.502075,1066.027588 
	C296.054962,1066.264404 279.610016,1066.663086 263.164917,1067.027588 
	C249.717529,1067.325562 236.271896,1067.704834 222.824295,1067.992065 
	C205.715424,1068.357544 188.560059,1068.009766 171.508591,1069.185547 
	C154.597870,1070.351562 140.283417,1065.409790 126.839081,1055.527344 
	C115.658081,1047.308594 107.530991,1037.466064 105.036583,1023.608093 
	C104.114220,1018.483887 103.113258,1013.276489 103.091026,1008.103027 
	C102.927063,969.940125 102.881493,931.775757 103.043854,893.612854 
	C103.149338,868.819580 103.697838,844.028503 103.992546,819.235718 
	C104.358345,788.461426 104.693382,757.686584 104.993530,726.911560 
	C105.345665,690.807190 105.890343,654.702393 105.897804,618.597656 
	C105.904800,584.757751 105.370178,550.917175 104.974808,517.078064 
	C104.753311,498.120117 104.141403,479.165619 104.032257,460.207703 
	C103.616188,387.935760 103.257011,315.663269 103.056458,243.390488 
	C103.009453,226.452164 103.118530,209.477478 104.178238,192.583664 
	C104.993065,179.593964 112.696205,175.494644 124.897713,177.170410 
	C127.174179,177.483078 129.460281,177.965622 131.741989,177.965927 
	C402.059692,178.002045 672.377441,178.052872 942.695068,177.914642 
	C968.477173,177.901459 994.543640,198.297287 998.872864,224.862778 
	C1000.128235,232.565994 1000.890381,240.441055 1000.910034,248.239777 
	C1001.070068,311.735596 1001.066467,375.232117 1000.953369,438.728119 
	C1000.924988,454.678558 1000.330444,470.628204 999.977356,486.577820 
	C999.664856,500.691956 999.104370,514.804443 999.035828,528.919556 
	C998.628784,612.695557 998.212036,696.471924 998.062866,780.248657 
	C998.007507,811.351929 998.642578,842.456848 999.008179,873.560486 
	C999.350281,902.672974 999.743042,931.784912 1000.131531,960.896851 
	C1000.402039,981.164612 1000.584717,1001.434631 1001.033020,1021.698608 
	C1001.319885,1034.664185 995.905029,1045.288818 986.624451,1053.378784 
	C982.388733,1057.071289 975.748596,1058.969727 969.946411,1059.715088 
	C954.443420,1061.706299 938.815125,1063.592041 923.215820,1063.778564 
	C892.614868,1064.144165 862.000366,1063.177979 831.390320,1063.066528 
	C817.269958,1063.015015 803.148193,1063.740234 789.025024,1064.001953 
	C768.255920,1064.386719 747.484985,1064.925903 726.714844,1064.927002 
	C706.600586,1064.928223 686.485535,1064.374756 666.372375,1063.983643 
	C653.422119,1063.731812 640.473633,1063.021973 627.526367,1063.070068 
	C605.907898,1063.150391 584.290710,1063.655396 562.673523,1064.014893 
	C544.397705,1064.318848 526.123840,1064.829956 507.846954,1064.969971 
	C453.398560,1065.387085 398.949066,1065.666626 344.000000,1066.000000 
M460.371918,403.920807 
	C434.814728,415.716156 411.913879,431.445404 392.198303,451.484863 
	C379.902924,463.982208 368.930023,477.624817 359.679779,492.688293 
	C335.466217,532.118591 320.546295,574.062744 324.098602,621.056396 
	C325.139313,634.823792 326.115753,648.813599 329.380737,662.148315 
	C335.469910,687.017883 344.786255,710.826172 359.110413,732.328979 
	C364.002441,739.672607 368.840149,747.142334 374.559235,753.820862 
	C380.780823,761.086304 387.955872,767.541992 394.791229,774.273621 
	C407.476440,786.766113 422.268799,796.460266 437.649445,805.114441 
	C460.628082,818.043884 485.283630,826.620789 511.283691,831.247009 
	C527.392029,834.113159 543.451782,836.230530 559.937439,834.124939 
	C579.675537,831.603882 599.393066,829.180725 618.387939,822.952698 
	C646.997864,813.572021 675.491577,803.524780 698.876770,783.833374 
	C711.510071,773.195618 723.534607,761.366394 733.732300,748.419434 
	C747.482117,730.962585 756.641541,710.721619 763.139160,689.291931 
	C767.960876,673.389587 770.949402,657.204651 772.991455,640.793396 
	C774.758484,626.592834 777.200134,612.399658 777.715210,598.144409 
	C778.116760,587.029297 776.115662,575.813965 775.007019,564.660583 
	C773.145081,545.929443 767.252136,528.361328 760.198547,510.984344 
	C752.010620,490.812897 739.265381,473.919922 724.108215,458.838715 
	C708.176453,442.986725 691.461914,427.908234 671.139771,417.583099 
	C655.490662,409.632172 640.097839,401.120239 624.139526,393.848572 
	C604.313354,384.814392 583.144836,380.999603 561.372192,381.053925 
	C549.604065,381.083282 537.834473,381.598297 526.071655,382.052795 
	C522.955017,382.173218 519.805969,382.645325 516.765686,383.357117 
	C497.396942,387.891907 478.780609,394.545074 460.371918,403.920807 
z"/>
<path fill="#000000" opacity="1.000000" stroke="none" 
	d="
M460.686584,403.709412 
	C478.780609,394.545074 497.396942,387.891907 516.765686,383.357117 
	C519.805969,382.645325 522.955017,382.173218 526.071655,382.052795 
	C537.834473,381.598297 549.604065,381.083282 561.372192,381.053925 
	C583.144836,380.999603 604.313354,384.814392 624.139526,393.848572 
	C640.097839,401.120239 655.490662,409.632172 671.139771,417.583099 
	C691.461914,427.908234 708.176453,442.986725 724.108215,458.838715 
	C739.265381,473.919922 752.010620,490.812897 760.198547,510.984344 
	C767.252136,528.361328 773.145081,545.929443 775.007019,564.660583 
	C776.115662,575.813965 778.116760,587.029297 777.715210,598.144409 
	C777.200134,612.399658 774.758484,626.592834 772.991455,640.793396 
	C770.949402,657.204651 767.960876,673.389587 763.139160,689.291931 
	C756.641541,710.721619 747.482117,730.962585 733.732300,748.419434 
	C723.534607,761.366394 711.510071,773.195618 698.876770,783.833374 
	C675.491577,803.524780 646.997864,813.572021 618.387939,822.952698 
	C599.393066,829.180725 579.675537,831.603882 559.937439,834.124939 
	C543.451782,836.230530 527.392029,834.113159 511.283691,831.247009 
	C485.283630,826.620789 460.628082,818.043884 437.649445,805.114441 
	C422.268799,796.460266 407.476440,786.766113 394.791229,774.273621 
	C387.955872,767.541992 380.780823,761.086304 374.559235,753.820862 
	C368.840149,747.142334 364.002441,739.672607 359.110413,732.328979 
	C344.786255,710.826172 335.469910,687.017883 329.380737,662.148315 
	C326.115753,648.813599 325.139313,634.823792 324.098602,621.056396 
	C320.546295,574.062744 335.466217,532.118591 359.679779,492.688293 
	C368.930023,477.624817 379.902924,463.982208 392.198303,451.484863 
	C411.913879,431.445404 434.814728,415.716156 460.686584,403.709412 
M555.567505,415.997192 
	C550.287231,415.630554 544.959534,415.591248 539.735840,414.834229 
	C525.548157,412.778229 511.345367,413.200287 498.215790,418.676117 
	C483.474762,424.824036 469.360535,432.543182 455.210907,440.027344 
	C420.151520,458.571472 396.524536,488.074799 378.049164,522.168213 
	C368.310181,540.139954 363.300903,559.794556 358.744598,579.665833 
	C355.125580,595.449463 354.037048,611.147766 356.158264,627.022339 
	C357.967407,640.561829 360.852783,653.953735 362.996277,667.453125 
	C366.142792,687.269226 372.062744,706.105103 384.060944,722.357849 
	C396.273193,738.900452 411.537628,752.302063 428.529266,764.005859 
	C443.726959,774.474060 459.900330,782.895142 476.606781,790.476257 
	C478.097992,791.152893 479.712891,791.593262 481.306610,792.002197 
	C492.777466,794.945496 504.169525,798.289368 515.763489,800.629272 
	C524.628113,802.418335 533.764038,803.893860 542.757629,803.781189 
	C557.800354,803.592896 572.881042,802.536865 587.845337,800.917908 
	C609.592041,798.565002 629.628357,789.804199 649.881042,782.328735 
	C664.036987,777.103699 676.755066,768.667175 687.329041,757.771790 
	C695.842224,748.999817 703.965820,739.729309 711.281982,729.946777 
	C720.219849,717.995911 724.911438,703.718750 731.025146,690.216492 
	C742.140930,665.666748 748.582397,640.019592 749.869324,613.187500 
	C750.600220,597.948242 749.311523,582.677246 745.347534,567.894287 
	C740.094055,548.302246 731.004883,530.412659 719.411194,513.793518 
	C713.571472,505.422485 708.164185,496.690765 701.692322,488.838440 
	C696.466614,482.498199 690.350037,476.712128 683.900085,471.599335 
	C671.376892,461.672302 658.981506,451.317902 645.320557,443.174774 
	C633.966919,436.407043 621.211426,431.399750 608.471497,427.694305 
	C591.448425,422.743042 573.840027,419.803894 555.567505,415.997192 
z"/>
<path fill="#64811D" opacity="1.000000" stroke="none" 
	d="
M556.025269,415.998901 
	C573.840027,419.803894 591.448425,422.743042 608.471497,427.694305 
	C621.211426,431.399750 633.966919,436.407043 645.320557,443.174774 
	C658.981506,451.317902 671.376892,461.672302 683.900085,471.599335 
	C690.350037,476.712128 696.466614,482.498199 701.692322,488.838440 
	C708.164185,496.690765 713.571472,505.422485 719.411194,513.793518 
	C731.004883,530.412659 740.094055,548.302246 745.347534,567.894287 
	C749.311523,582.677246 750.600220,597.948242 749.869324,613.187500 
	C748.582397,640.019592 742.140930,665.666748 731.025146,690.216492 
	C724.911438,703.718750 720.219849,717.995911 711.281982,729.946777 
	C703.965820,739.729309 695.842224,748.999817 687.329041,757.771790 
	C676.755066,768.667175 664.036987,777.103699 649.881042,782.328735 
	C629.628357,789.804199 609.592041,798.565002 587.845337,800.917908 
	C572.881042,802.536865 557.800354,803.592896 542.757629,803.781189 
	C533.764038,803.893860 524.628113,802.418335 515.763489,800.629272 
	C504.169525,798.289368 492.777466,794.945496 481.306610,792.002197 
	C479.712891,791.593262 478.097992,791.152893 476.606781,790.476257 
	C459.900330,782.895142 443.726959,774.474060 428.529266,764.005859 
	C411.537628,752.302063 396.273193,738.900452 384.060944,722.357849 
	C372.062744,706.105103 366.142792,687.269226 362.996277,667.453125 
	C360.852783,653.953735 357.967407,640.561829 356.158264,627.022339 
	C354.037048,611.147766 355.125580,595.449463 358.744598,579.665833 
	C363.300903,559.794556 368.310181,540.139954 378.049164,522.168213 
	C396.524536,488.074799 420.151520,458.571472 455.210907,440.027344 
	C469.360535,432.543182 483.474762,424.824036 498.215790,418.676117 
	C511.345367,413.200287 525.548157,412.778229 539.735840,414.834229 
	C544.959534,415.591248 550.287231,415.630554 556.025269,415.998901 
z"/>
</svg>