<svg version="1.1" id="Layer_1" xmlns="http://www.w3.org/2000/svg" xmlns:xlink="http://www.w3.org/1999/xlink" x="0px" y="0px"
	 width="100%" viewBox="0 0 1116 1237" enable-background="new 0 0 1116 1237" xml:space="preserve">
<path fill="#93C120" opacity="1.000000" stroke="none" 
	d="
M237.000000,176.000000 
	C250.165543,176.000000 262.832458,176.118774 275.496307,175.972763 
	C295.602295,175.740952 315.707062,175.372849 335.810822,174.984055 
	C349.089661,174.727280 362.366943,174.025528 375.642975,174.072647 
	C395.747894,174.143982 415.851135,174.694031 435.955078,175.040009 
	C454.564697,175.360291 473.174774,175.959686 491.783813,175.928604 
	C515.055664,175.889725 538.326660,175.330048 561.598022,174.999146 
	C585.197815,174.663589 608.796692,174.195282 632.397644,174.027161 
	C690.842041,173.610809 749.287720,173.383118 807.732056,172.965240 
	C823.176331,172.854813 838.617249,172.307037 854.060486,172.000214 
	C872.008423,171.643631 889.957703,171.356537 907.905457,170.991608 
	C922.350037,170.697906 936.840881,170.949142 951.224121,169.834686 
	C967.058105,168.607849 979.546753,175.224960 991.632812,184.052536 
	C999.458923,189.768768 1006.641357,196.031952 1009.818359,205.415192 
	C1012.096313,212.142868 1014.658325,219.209518 1014.768494,226.161789 
	C1015.286011,258.817352 1015.129517,291.486328 1014.961548,324.149231 
	C1014.809326,353.756714 1014.362793,383.362946 1013.987671,412.968994 
	C1013.703247,435.407776 1013.185120,457.844391 1013.019531,480.283783 
	C1012.604553,536.526611 1012.170105,592.770264 1012.072144,649.014160 
	C1012.027588,674.621216 1012.751038,700.229736 1013.142944,725.837341 
	C1013.435730,744.967102 1013.912964,764.095459 1014.034119,783.226135 
	C1014.424377,844.831665 1014.822510,906.437683 1014.936340,968.044067 
	C1014.984558,994.146179 1014.746155,1020.264343 1013.815735,1046.345825 
	C1013.384888,1058.420898 1006.184570,1063.437744 993.665161,1061.959595 
	C989.737732,1061.495850 985.779236,1061.014893 981.834900,1061.014404 
	C712.359924,1060.978760 442.884918,1060.984985 173.409927,1061.020020 
	C160.612671,1061.021729 149.838684,1055.765015 139.952286,1048.378906 
	C128.682587,1039.959473 122.059212,1028.408203 119.209282,1014.791016 
	C117.976517,1008.900757 117.106071,1002.810364 117.092369,996.808594 
	C116.944374,931.981689 116.927101,867.154297 117.048721,802.327271 
	C117.081154,785.046997 117.696831,767.767578 118.067963,750.488159 
	C118.360466,736.869507 118.900772,723.252686 118.966293,709.633240 
	C119.368546,626.028503 119.775307,542.423462 119.938614,458.818085 
	C119.992561,431.198578 119.338074,403.577545 118.991440,375.957428 
	C118.672173,350.517578 118.320717,325.078094 118.002899,299.638245 
	C117.660034,272.194000 117.421982,244.748154 116.973396,217.305710 
	C116.762810,204.423401 121.948990,193.727859 131.291183,185.685852 
	C135.564697,182.007095 142.147964,180.122375 147.951782,179.287369 
	C161.943176,177.274399 176.069473,175.653458 190.184448,175.191910 
	C205.597687,174.687943 221.059402,175.667236 237.000000,176.000000 
M793.995239,647.182434 
	C794.324097,639.578247 795.413269,631.913635 794.814209,624.383240 
	C793.758301,611.109192 792.187073,597.827759 789.909607,584.709412 
	C785.265015,557.956726 775.271118,533.111267 760.943359,510.100403 
	C753.503784,498.152008 746.095398,486.093414 735.760742,476.254089 
	C723.773254,464.841095 711.330872,454.110657 697.634033,444.624054 
	C683.556641,434.873932 668.627380,426.971344 652.772461,421.161224 
	C637.831909,415.686218 622.327332,411.471222 606.779785,408.009430 
	C590.873413,404.467804 574.653748,402.817719 558.200134,404.900482 
	C538.469849,407.398041 518.760803,409.748291 499.745758,415.997314 
	C471.150269,425.394836 442.692841,435.372009 419.295258,455.058563 
	C406.902283,465.485901 394.733612,476.738647 384.855988,489.474243 
	C367.173615,512.272827 356.534332,538.850891 350.124817,566.939087 
	C347.724701,577.457031 346.395691,588.242065 344.994629,598.959717 
	C343.118134,613.314392 340.810059,627.690918 340.275360,642.116943 
	C339.875854,652.895142 341.899323,663.775696 343.003082,674.594482 
	C345.048950,694.647034 351.265594,713.524414 359.392670,731.847839 
	C373.568451,763.808777 398.786774,786.283752 425.048340,807.741577 
	C430.572052,812.254883 437.529663,814.964111 443.442200,819.059509 
	C464.558014,833.685852 487.789429,844.061890 512.051758,851.766602 
	C532.017578,858.106995 552.965698,858.719910 573.873291,858.029907 
	C588.737549,857.539368 603.297974,855.675232 617.585571,851.218140 
	C646.509277,842.195251 673.260620,828.852417 697.971191,811.454041 
	C715.297119,799.255188 730.429260,784.482910 743.366150,767.826172 
	C762.762451,742.852661 778.004333,715.437134 786.307190,684.690613 
	C789.549316,672.684692 791.455994,660.318237 793.995239,647.182434 
z"/>
<path fill="#000000" opacity="1.000000" stroke="none" 
	d="
M793.983093,647.649170 
	C791.455994,660.318237 789.549316,672.684692 786.307190,684.690613 
	C778.004333,715.437134 762.762451,742.852661 743.366150,767.826172 
	C730.429260,784.482910 715.297119,799.255188 697.971191,811.454041 
	C673.260620,828.852417 646.509277,842.195251 617.585571,851.218140 
	C603.297974,855.675232 588.737549,857.539368 573.873291,858.029907 
	C552.965698,858.719910 532.017578,858.106995 512.051758,851.766602 
	C487.789429,844.061890 464.558014,833.685852 443.442200,819.059509 
	C437.529663,814.964111 430.572052,812.254883 425.048340,807.741577 
	C398.786774,786.283752 373.568451,763.808777 359.392670,731.847839 
	C351.265594,713.524414 345.048950,694.647034 343.003082,674.594482 
	C341.899323,663.775696 339.875854,652.895142 340.275360,642.116943 
	C340.810059,627.690918 343.118134,613.314392 344.994629,598.959717 
	C346.395691,588.242065 347.724701,577.457031 350.124817,566.939087 
	C356.534332,538.850891 367.173615,512.272827 384.855988,489.474243 
	C394.733612,476.738647 406.902283,465.485901 419.295258,455.058563 
	C442.692841,435.372009 471.150269,425.394836 499.745758,415.997314 
	C518.760803,409.748291 538.469849,407.398041 558.200134,404.900482 
	C574.653748,402.817719 590.873413,404.467804 606.779785,408.009430 
	C622.327332,411.471222 637.831909,415.686218 652.772461,421.161224 
	C668.627380,426.971344 683.556641,434.873932 697.634033,444.624054 
	C711.330872,454.110657 723.773254,464.841095 735.760742,476.254089 
	C746.095398,486.093414 753.503784,498.152008 760.943359,510.100403 
	C775.271118,533.111267 785.265015,557.956726 789.909607,584.709412 
	C792.187073,597.827759 793.758301,611.109192 794.814209,624.383240 
	C795.413269,631.913635 794.324097,639.578247 793.983093,647.649170 
M392.110229,536.644470 
	C389.585205,542.745422 387.176758,548.897766 384.514709,554.938293 
	C373.694824,579.489685 368.433838,605.229431 368.057434,631.986938 
	C367.987732,636.940796 368.302704,641.962524 369.074097,646.852966 
	C370.738068,657.401489 371.796600,668.200928 374.941132,678.326843 
	C380.790833,697.163879 390.278351,714.406189 401.935822,730.332031 
	C408.726501,739.609131 415.243042,749.292847 423.297821,757.385193 
	C432.820099,766.951904 443.643616,775.286621 454.308624,783.637512 
	C469.381531,795.439819 486.164673,804.367859 504.480103,809.925537 
	C528.324158,817.160950 552.396057,822.995544 577.565735,824.347229 
	C593.355530,825.195129 608.829834,825.444519 623.349365,819.100037 
	C636.795349,813.224670 649.632324,805.931885 662.633118,799.065857 
	C697.729736,780.530396 721.356934,751.036682 739.891663,716.988647 
	C749.663086,699.038574 754.484680,679.312866 759.266785,659.504395 
	C763.730164,641.016541 763.517273,622.719543 760.857239,604.279175 
	C759.071106,591.896545 756.036377,579.698181 754.085144,567.334473 
	C750.295288,543.320679 740.515930,522.288452 723.948242,504.455139 
	C700.999634,479.753235 673.123291,462.078918 642.359375,449.127991 
	C624.092224,441.437958 604.717407,436.700409 584.719543,436.083069 
	C570.154846,435.633423 555.485718,435.078918 541.004395,436.277802 
	C521.653564,437.879791 503.049072,443.450745 485.004578,450.699280 
	C475.538147,454.501953 465.539551,457.323212 456.693726,462.231995 
	C447.675049,467.236786 439.029083,473.476807 431.576660,480.596222 
	C422.521820,489.246399 414.144440,498.852722 406.870636,509.042389 
	C401.006073,517.257935 397.215698,526.954041 392.110229,536.644470 
z"/>
<path fill="#64811D" opacity="1.000000" stroke="none" 
	d="
M392.307678,536.318848 
	C397.215698,526.954041 401.006073,517.257935 406.870636,509.042389 
	C414.144440,498.852722 422.521820,489.246399 431.576660,480.596222 
	C439.029083,473.476807 447.675049,467.236786 456.693726,462.231995 
	C465.539551,457.323212 475.538147,454.501953 485.004578,450.699280 
	C503.049072,443.450745 521.653564,437.879791 541.004395,436.277802 
	C555.485718,435.078918 570.154846,435.633423 584.719543,436.083069 
	C604.717407,436.700409 624.092224,441.437958 642.359375,449.127991 
	C673.123291,462.078918 700.999634,479.753235 723.948242,504.455139 
	C740.515930,522.288452 750.295288,543.320679 754.085144,567.334473 
	C756.036377,579.698181 759.071106,591.896545 760.857239,604.279175 
	C763.517273,622.719543 763.730164,641.016541 759.266785,659.504395 
	C754.484680,679.312866 749.663086,699.038574 739.891663,716.988647 
	C721.356934,751.036682 697.729736,780.530396 662.633118,799.065857 
	C649.632324,805.931885 636.795349,813.224670 623.349365,819.100037 
	C608.829834,825.444519 593.355530,825.195129 577.565735,824.347229 
	C552.396057,822.995544 528.324158,817.160950 504.480103,809.925537 
	C486.164673,804.367859 469.381531,795.439819 454.308624,783.637512 
	C443.643616,775.286621 432.820099,766.951904 423.297821,757.385193 
	C415.243042,749.292847 408.726501,739.609131 401.935822,730.332031 
	C390.278351,714.406189 380.790833,697.163879 374.941132,678.326843 
	C371.796600,668.200928 370.738068,657.401489 369.074097,646.852966 
	C368.302704,641.962524 367.987732,636.940796 368.057434,631.986938 
	C368.433838,605.229431 373.694824,579.489685 384.514709,554.938293 
	C387.176758,548.897766 389.585205,542.745422 392.307678,536.318848 
M397.069519,579.683899 
	C395.986664,583.647766 395.421326,587.849670 393.727722,591.532715 
	C387.692688,604.657227 386.579041,618.740601 386.256378,632.716919 
	C386.013977,643.215759 387.321686,653.900146 389.205383,664.272034 
	C396.974182,707.047913 416.836395,742.767578 451.379547,770.018982 
	C485.759888,797.141968 524.487671,809.961426 568.287903,808.130737 
	C582.941406,807.518311 597.190674,805.297791 611.087524,800.899109 
	C637.486206,792.543457 661.443298,779.727478 681.206726,760.079285 
	C687.515137,753.807556 692.547607,746.254883 698.185303,739.305664 
	C722.455811,709.389282 734.961487,674.727539 737.718994,636.730530 
	C738.944519,619.842957 738.609558,602.759155 735.200073,585.822571 
	C731.817322,569.019165 726.589233,552.960266 719.189636,537.615845 
	C707.600586,513.583740 690.320190,494.085846 669.321411,477.958435 
	C642.197815,457.127136 611.033142,447.100128 577.081787,446.198517 
	C566.245117,445.910706 555.180603,447.089447 544.504639,449.104034 
	C500.567017,457.395325 463.718964,478.224182 434.159119,512.110046 
	C416.974609,531.809387 404.661438,553.917725 397.069519,579.683899 
z"/>
<path fill="#010000" opacity="1.000000" stroke="none" 
	d="
M397.173706,579.286865 
	C404.661438,553.917725 416.974609,531.809387 434.159119,512.110046 
	C463.718964,478.224182 500.567017,457.395325 544.504639,449.104034 
	C555.180603,447.089447 566.245117,445.910706 577.081787,446.198517 
	C611.033142,447.100128 642.197815,457.127136 669.321411,477.958435 
	C690.320190,494.085846 707.600586,513.583740 719.189636,537.615845 
	C726.589233,552.960266 731.817322,569.019165 735.200073,585.822571 
	C738.609558,602.759155 738.944519,619.842957 737.718994,636.730530 
	C734.961487,674.727539 722.455811,709.389282 698.185303,739.305664 
	C692.547607,746.254883 687.515137,753.807556 681.206726,760.079285 
	C661.443298,779.727478 637.486206,792.543457 611.087524,800.899109 
	C597.190674,805.297791 582.941406,807.518311 568.287903,808.130737 
	C524.487671,809.961426 485.759888,797.141968 451.379547,770.018982 
	C416.836395,742.767578 396.974182,707.047913 389.205383,664.272034 
	C387.321686,653.900146 386.013977,643.215759 386.256378,632.716919 
	C386.579041,618.740601 387.692688,604.657227 393.727722,591.532715 
	C395.421326,587.849670 395.986664,583.647766 397.173706,579.286865 
M486.595764,520.625549 
	C487.058746,521.104248 487.521759,521.582886 488.342743,522.634094 
	C494.303223,525.428528 500.009064,529.573242 506.273712,530.754517 
	C522.558105,533.824890 538.261230,532.400757 553.291565,523.607239 
	C567.857178,515.085571 579.506470,504.577515 585.648499,488.655548 
	C588.832520,480.401672 590.707642,471.988281 589.240479,462.959229 
	C588.230713,456.745056 583.456970,458.592224 580.036865,458.189362 
	C575.935181,457.706146 577.351318,461.361389 577.002258,463.565002 
	C576.125183,469.101166 575.780579,474.786224 574.273621,480.144684 
	C571.153137,491.240417 563.330383,499.190094 554.266052,505.488342 
	C541.076416,514.653076 526.167114,516.166565 510.943146,511.742035 
	C497.682983,507.888275 487.574554,500.162567 483.776001,485.987854 
	C483.626160,485.428772 481.948761,485.279053 480.276062,485.029083 
	C478.502228,486.178070 476.832794,487.553650 474.932892,488.429108 
	C470.931122,490.273224 470.071594,493.098785 471.945038,496.853790 
	C474.923645,502.823883 477.801941,508.862518 481.168793,514.610901 
	C482.459869,516.815186 484.975830,518.302002 486.970764,520.041809 
	C486.970764,520.041809 486.896729,520.004822 486.595764,520.625549 
M467.888367,503.202759 
	C467.331238,500.900024 466.774139,498.597290 466.217010,496.294556 
	C465.684753,496.020050 465.152496,495.745514 464.620239,495.471008 
	C454.901642,505.724274 445.183044,515.977539 435.464447,526.230835 
	C435.877594,526.741516 436.290741,527.252197 436.703888,527.762878 
	C439.423340,526.407654 442.142761,525.052429 445.612183,523.762085 
	C454.800110,520.608032 463.988037,517.453979 473.415558,514.217651 
	C471.423218,510.534515 469.648285,507.253296 467.888367,503.202759 
M431.672577,581.833618 
	C437.095551,577.505371 442.518494,573.177124 448.581482,568.661987 
	C455.558624,563.713074 462.408875,558.568481 469.579742,553.918335 
	C472.196167,552.221619 473.209473,550.467957 473.013428,547.532959 
	C472.508881,539.979858 472.124481,532.418701 471.860840,524.117981 
	C471.860840,522.664612 471.860840,521.211243 471.860840,519.352844 
	C468.036072,521.043701 464.640442,522.673706 461.148865,524.062439 
	C453.205566,527.221680 445.181580,530.180847 437.277130,533.432129 
	C435.961884,533.973083 434.380219,535.437683 434.128174,536.713806 
	C433.154907,541.641663 432.364410,546.648132 432.068573,551.658447 
	C431.474640,561.717346 431.250214,571.798035 430.496674,581.963745 
	C430.527740,582.184143 430.558807,582.404541 430.589844,582.624939 
	C430.733276,582.424438 430.876740,582.223877 431.672577,581.833618 
M494.341614,577.623169 
	C496.592224,586.797180 498.842804,595.971252 501.093414,605.145264 
	C511.088043,591.120728 519.833130,577.108704 528.344604,562.956177 
	C529.136963,561.638733 529.039734,559.145447 528.336426,557.690857 
	C526.326843,553.534729 523.062256,549.876770 521.624207,545.577087 
	C519.091370,538.004028 513.661926,536.756958 506.178497,537.047729 
	C504.813019,537.427856 503.053040,537.394470 502.148346,538.257568 
	C497.483124,542.708496 492.980927,547.336548 488.572418,552.043823 
	C487.874115,552.789429 487.455902,554.394165 487.735260,555.363342 
	C489.809021,562.557800 492.091888,569.692017 494.341614,577.623169 
M491.226654,478.018097 
	C489.594482,479.058380 487.962311,480.098633 486.349731,481.126434 
	C488.636200,484.606323 490.770477,487.854584 493.262421,491.662506 
	C496.161346,494.396606 498.696716,497.720703 502.018982,499.767670 
	C521.434326,511.729889 547.586853,510.865662 563.337830,487.584595 
	C568.492981,479.964966 568.577942,471.350220 570.592590,463.063171 
	C571.510559,459.286865 570.374390,457.666016 566.487000,458.006195 
	C558.732849,458.684692 550.909241,458.908569 543.235535,460.100433 
	C525.086304,462.919312 507.759247,468.350250 491.226654,478.018097 
M446.628479,628.186462 
	C467.074951,635.078979 488.057983,634.979065 509.198364,633.062134 
	C534.806091,630.740173 558.829956,622.977966 582.149963,612.467407 
	C613.760681,598.220032 639.251465,575.671448 664.020020,552.246094 
	C672.430725,544.291443 679.553589,534.971741 687.229492,526.244629 
	C694.021973,518.522095 694.000244,518.502991 686.588074,511.090576 
	C684.348999,508.851471 682.076172,506.644989 679.876038,504.368256 
	C659.572693,483.357452 634.921021,469.909546 606.851013,462.454254 
	C602.774414,461.371552 598.589294,460.697693 594.453003,459.834351 
	C593.825867,467.571350 593.259216,474.562164 592.653137,482.039093 
	C601.265503,480.430206 609.393616,478.958252 617.501099,477.380219 
	C622.618774,476.384094 626.506165,477.100830 629.903076,481.993805 
	C640.397278,497.109619 651.462341,511.828400 662.237549,526.750549 
	C663.189880,528.069397 663.646057,529.746399 664.497559,531.619812 
	C662.684631,531.886719 661.685913,532.233643 660.727295,532.145325 
	C642.086548,530.427490 623.447205,528.691711 604.822693,526.809692 
	C603.820862,526.708496 602.562805,525.474365 602.083862,524.457092 
	C598.831604,517.548950 595.760620,510.555481 592.622681,503.593384 
	C591.298462,500.655609 589.953796,497.727020 588.531006,494.602173 
	C583.895813,502.254303 579.557190,509.416779 575.119995,516.742065 
	C580.724365,520.927551 586.556824,525.567993 592.700012,529.752014 
	C595.803833,531.865967 597.233215,534.220642 597.049500,537.967224 
	C596.569397,547.757874 596.567627,557.577576 595.878906,567.350708 
	C595.262573,576.096375 594.128662,584.815979 592.892639,593.500000 
	C592.599731,595.558411 591.397827,598.457703 589.854370,599.076965 
	C588.489319,599.624695 585.627808,597.976501 584.186401,596.537231 
	C577.597046,589.957703 571.068604,583.292175 564.916565,576.306824 
	C559.118286,569.722900 553.868042,562.659058 548.273499,555.891663 
	C545.991333,553.131104 545.727295,550.326599 547.069214,547.108948 
	C549.468079,541.356750 551.751770,535.556519 553.774902,530.541626 
	C543.462036,533.127747 532.884949,535.780151 522.072327,538.491638 
	C524.948792,542.748779 528.033264,547.439880 531.249695,552.038696 
	C534.517456,556.710938 535.839233,561.092712 532.278015,566.570435 
	C522.875000,581.033936 513.902222,595.777527 504.809326,610.441345 
	C503.844238,611.997681 503.218231,613.764282 502.434906,615.433289 
	C501.610504,614.926514 500.786072,614.419739 499.961639,613.912903 
	C498.934143,611.540527 497.568817,609.255005 496.933655,606.781860 
	C492.606262,589.933472 488.372833,573.060181 484.254150,556.159546 
	C483.302338,552.253906 483.982208,548.686218 487.505493,545.907043 
	C491.369019,542.859375 494.952209,539.456360 498.260559,536.556274 
	C490.859772,531.183105 483.619141,525.926208 475.496307,520.028870 
	C476.240906,527.335205 477.202332,534.306946 477.578033,541.310120 
	C477.834137,546.084290 480.334839,551.821655 475.738098,555.431091 
	C461.261627,566.798096 446.436340,577.722534 431.683197,588.734070 
	C428.537445,591.082031 426.118591,589.989807 426.099365,586.132324 
	C426.072968,580.833191 426.542297,575.531799 426.791809,570.231018 
	C427.095581,563.778381 427.391693,557.325317 427.806549,549.990662 
	C427.806549,546.769470 427.806549,543.548279 427.806549,539.501282 
	C426.571045,540.904114 425.765167,541.535217 425.325653,542.361328 
	C419.969971,552.427673 414.321442,562.359192 409.462280,572.662170 
	C405.592621,580.867188 402.226044,589.459290 403.094299,598.864319 
	C403.287750,600.959961 404.150513,603.417969 405.554291,604.910522 
	C416.627960,616.684998 430.561127,623.569763 446.628479,628.186462 
M482.428864,773.085938 
	C487.460144,775.446533 492.428253,777.954712 497.534393,780.140442 
	C513.692932,787.057373 530.707092,791.073486 548.137146,791.723633 
	C560.057251,792.168274 572.156494,790.636841 584.030762,788.961792 
	C622.724060,783.503479 653.776611,763.385681 681.434937,737.057312 
	C691.942078,727.055359 699.553406,714.913086 706.568604,702.400513 
	C721.288757,676.145081 729.419800,648.001221 729.973999,617.817688 
	C730.216980,604.586609 728.191406,591.618469 725.018616,578.789124 
	C719.867920,557.962280 710.903625,539.033813 697.386169,521.959412 
	C696.532593,523.297363 695.796265,524.365662 695.145813,525.483887 
	C682.532837,547.168579 667.525269,566.866577 647.829163,582.696899 
	C621.031494,604.234985 591.087036,620.045227 558.813110,631.602112 
	C540.655579,638.104004 521.906250,642.606323 502.733459,643.704834 
	C488.923706,644.496094 474.853119,643.523987 461.098877,641.770203 
	C444.874664,639.701355 429.558868,634.146545 416.048309,624.476379 
	C411.207581,621.011658 406.437439,617.448242 401.468262,613.807678 
	C400.934845,618.287170 400.115631,622.184082 400.068848,626.090210 
	C399.892456,640.818359 399.673553,655.506958 402.920837,670.089905 
	C408.914856,697.007874 421.429962,720.348206 440.047943,740.526917 
	C452.133728,753.625916 466.303528,764.072754 482.428864,773.085938 
M571.615051,522.951233 
	C566.367859,518.917419 565.257446,519.156616 562.915894,525.437134 
	C560.023987,533.193848 557.694275,541.179504 554.436768,548.772461 
	C552.738953,552.730042 553.464844,555.011963 556.276917,557.915222 
	C563.428528,565.298889 570.097107,573.149231 577.213867,580.568359 
	C580.890259,584.401062 585.109009,587.713501 589.626465,591.746399 
	C590.130371,583.493774 590.535156,576.385376 591.005554,569.281433 
	C591.607239,560.194275 592.385315,551.116211 592.799683,542.021179 
	C592.893982,539.950806 592.500854,536.885681 591.146729,535.889160 
	C585.058838,531.408875 578.543762,527.508972 571.615051,522.951233 
M638.020874,501.481964 
	C634.347107,496.990479 630.454895,492.656433 627.068298,487.958008 
	C624.327759,484.155914 620.994934,482.567383 616.423157,483.019684 
	C609.008057,483.753235 601.579834,484.352661 594.160461,485.044403 
	C590.948364,485.343872 589.143311,488.208679 590.560974,491.019867 
	C595.038635,499.899170 599.492126,508.797943 604.312866,517.490662 
	C605.224304,519.134033 607.667664,520.607239 609.593384,520.895569 
	C620.063049,522.463135 630.602112,523.558899 641.096008,524.975525 
	C646.063293,525.646118 650.982910,526.669678 656.426270,527.621094 
	C650.247620,518.790161 644.377136,510.399750 638.020874,501.481964 
z"/>
<path fill="#C97C39" opacity="1.000000" stroke="none" 
	d="
M482.064148,773.008179 
	C466.303528,764.072754 452.133728,753.625916 440.047943,740.526917 
	C421.429962,720.348206 408.914856,697.007874 402.920837,670.089905 
	C399.673553,655.506958 399.892456,640.818359 400.068848,626.090210 
	C400.115631,622.184082 400.934845,618.287170 401.468262,613.807678 
	C406.437439,617.448242 411.207581,621.011658 416.048309,624.476379 
	C429.558868,634.146545 444.874664,639.701355 461.098877,641.770203 
	C474.853119,643.523987 488.923706,644.496094 502.733459,643.704834 
	C521.906250,642.606323 540.655579,638.104004 558.813110,631.602112 
	C591.087036,620.045227 621.031494,604.234985 647.829163,582.696899 
	C667.525269,566.866577 682.532837,547.168579 695.145813,525.483887 
	C695.796265,524.365662 696.532593,523.297363 697.386169,521.959412 
	C710.903625,539.033813 719.867920,557.962280 725.018616,578.789124 
	C728.191406,591.618469 730.216980,604.586609 729.973999,617.817688 
	C729.419800,648.001221 721.288757,676.145081 706.568604,702.400513 
	C699.553406,714.913086 691.942078,727.055359 681.434937,737.057312 
	C653.776611,763.385681 622.724060,783.503479 584.030762,788.961792 
	C572.156494,790.636841 560.057251,792.168274 548.137146,791.723633 
	C530.707092,791.073486 513.692932,787.057373 497.534393,780.140442 
	C492.428253,777.954712 487.460144,775.446533 482.064148,773.008179 
z"/>
<path fill="#673219" opacity="1.000000" stroke="none" 
	d="
M427.691132,550.872437 
	C427.391693,557.325317 427.095581,563.778381 426.791809,570.231018 
	C426.542297,575.531799 426.072968,580.833191 426.099365,586.132324 
	C426.118591,589.989807 428.537445,591.082031 431.683197,588.734070 
	C446.436340,577.722534 461.261627,566.798096 475.738098,555.431091 
	C480.334839,551.821655 477.834137,546.084290 477.578033,541.310120 
	C477.202332,534.306946 476.240906,527.335205 475.496307,520.028870 
	C483.619141,525.926208 490.859772,531.183105 498.260559,536.556274 
	C494.952209,539.456360 491.369019,542.859375 487.505493,545.907043 
	C483.982208,548.686218 483.302338,552.253906 484.254150,556.159546 
	C488.372833,573.060181 492.606262,589.933472 496.933655,606.781860 
	C497.568817,609.255005 498.934143,611.540527 499.961639,613.912903 
	C500.786072,614.419739 501.610504,614.926514 502.434906,615.433289 
	C503.218231,613.764282 503.844238,611.997681 504.809326,610.441345 
	C513.902222,595.777527 522.875000,581.033936 532.278015,566.570435 
	C535.839233,561.092712 534.517456,556.710938 531.249695,552.038696 
	C528.033264,547.439880 524.948792,542.748779 522.072327,538.491638 
	C532.884949,535.780151 543.462036,533.127747 553.774902,530.541626 
	C551.751770,535.556519 549.468079,541.356750 547.069214,547.108948 
	C545.727295,550.326599 545.991333,553.131104 548.273499,555.891663 
	C553.868042,562.659058 559.118286,569.722900 564.916565,576.306824 
	C571.068604,583.292175 577.597046,589.957703 584.186401,596.537231 
	C585.627808,597.976501 588.489319,599.624695 589.854370,599.076965 
	C591.397827,598.457703 592.599731,595.558411 592.892639,593.500000 
	C594.128662,584.815979 595.262573,576.096375 595.878906,567.350708 
	C596.567627,557.577576 596.569397,547.757874 597.049500,537.967224 
	C597.233215,534.220642 595.803833,531.865967 592.700012,529.752014 
	C586.556824,525.567993 580.724365,520.927551 575.119995,516.742065 
	C579.557190,509.416779 583.895813,502.254303 588.531006,494.602173 
	C589.953796,497.727020 591.298462,500.655609 592.622681,503.593384 
	C595.760620,510.555481 598.831604,517.548950 602.083862,524.457092 
	C602.562805,525.474365 603.820862,526.708496 604.822693,526.809692 
	C623.447205,528.691711 642.086548,530.427490 660.727295,532.145325 
	C661.685913,532.233643 662.684631,531.886719 664.497559,531.619812 
	C663.646057,529.746399 663.189880,528.069397 662.237549,526.750549 
	C651.462341,511.828400 640.397278,497.109619 629.903076,481.993805 
	C626.506165,477.100830 622.618774,476.384094 617.501099,477.380219 
	C609.393616,478.958252 601.265503,480.430206 592.653137,482.039093 
	C593.259216,474.562164 593.825867,467.571350 594.453003,459.834351 
	C598.589294,460.697693 602.774414,461.371552 606.851013,462.454254 
	C634.921021,469.909546 659.572693,483.357452 679.876038,504.368256 
	C682.076172,506.644989 684.348999,508.851471 686.588074,511.090576 
	C694.000244,518.502991 694.021973,518.522095 687.229492,526.244629 
	C679.553589,534.971741 672.430725,544.291443 664.020020,552.246094 
	C639.251465,575.671448 613.760681,598.220032 582.149963,612.467407 
	C558.829956,622.977966 534.806091,630.740173 509.198364,633.062134 
	C488.057983,634.979065 467.074951,635.078979 446.206970,627.692993 
	C444.321350,625.673279 443.025940,623.924194 441.360901,622.663452 
	C436.725677,619.153625 432.003876,615.747681 427.192352,612.483459 
	C420.783905,608.135803 416.108337,602.480164 416.240692,594.554504 
	C416.381165,586.141296 416.705353,577.512390 418.719543,569.418213 
	C420.342529,562.895996 424.601593,557.029724 427.691132,550.872437 
z"/>
<path fill="#673219" opacity="1.000000" stroke="none" 
	d="
M491.902618,477.898193 
	C507.759247,468.350250 525.086304,462.919312 543.235535,460.100433 
	C550.909241,458.908569 558.732849,458.684692 566.487000,458.006195 
	C570.374390,457.666016 571.510559,459.286865 570.592590,463.063171 
	C568.577942,471.350220 568.492981,479.964966 563.337830,487.584595 
	C547.586853,510.865662 521.434326,511.729889 502.018982,499.767670 
	C498.696716,497.720703 496.161346,494.396606 493.278748,491.068970 
	C492.830902,486.283051 492.366760,482.090607 491.902618,477.898193 
z"/>
<path fill="#673219" opacity="1.000000" stroke="none" 
	d="
M480.983093,484.938599 
	C481.948761,485.279053 483.626160,485.428772 483.776001,485.987854 
	C487.574554,500.162567 497.682983,507.888275 510.943146,511.742035 
	C526.167114,516.166565 541.076416,514.653076 554.266052,505.488342 
	C563.330383,499.190094 571.153137,491.240417 574.273621,480.144684 
	C575.780579,474.786224 576.125183,469.101166 577.002258,463.565002 
	C577.351318,461.361389 575.935181,457.706146 580.036865,458.189362 
	C583.456970,458.592224 588.230713,456.745056 589.240479,462.959229 
	C590.707642,471.988281 588.832520,480.401672 585.648499,488.655548 
	C579.506470,504.577515 567.857178,515.085571 553.291565,523.607239 
	C538.261230,532.400757 522.558105,533.824890 506.273712,530.754517 
	C500.009064,529.573242 494.303223,525.428528 488.087219,522.062012 
	C487.520050,520.994873 487.208374,520.499817 486.896729,520.004822 
	C486.896729,520.004822 486.970764,520.041809 486.884460,519.730469 
	C479.506866,508.828400 475.856384,497.623627 480.983093,484.938599 
z"/>
<path fill="#673219" opacity="1.000000" stroke="none" 
	d="
M571.898926,523.175537 
	C578.543762,527.508972 585.058838,531.408875 591.146729,535.889160 
	C592.500854,536.885681 592.893982,539.950806 592.799683,542.021179 
	C592.385315,551.116211 591.607239,560.194275 591.005554,569.281433 
	C590.535156,576.385376 590.130371,583.493774 589.626465,591.746399 
	C585.109009,587.713501 580.890259,584.401062 577.213867,580.568359 
	C570.097107,573.149231 563.428528,565.298889 556.276917,557.915222 
	C553.464844,555.011963 552.738953,552.730042 554.436768,548.772461 
	C557.694275,541.179504 560.023987,533.193848 562.915894,525.437134 
	C565.257446,519.156616 566.367859,518.917419 571.898926,523.175537 
z"/>
<path fill="#673219" opacity="1.000000" stroke="none" 
	d="
M638.263794,501.745667 
	C644.377136,510.399750 650.247620,518.790161 656.426270,527.621094 
	C650.982910,526.669678 646.063293,525.646118 641.096008,524.975525 
	C630.602112,523.558899 620.063049,522.463135 609.593384,520.895569 
	C607.667664,520.607239 605.224304,519.134033 604.312866,517.490662 
	C599.492126,508.797943 595.038635,499.899170 590.560974,491.019867 
	C589.143311,488.208679 590.948364,485.343872 594.160461,485.044403 
	C601.579834,484.352661 609.008057,483.753235 616.423157,483.019684 
	C620.994934,482.567383 624.327759,484.155914 627.068298,487.958008 
	C630.454895,492.656433 634.347107,496.990479 638.263794,501.745667 
z"/>
<path fill="#673219" opacity="1.000000" stroke="none" 
	d="
M506.939972,537.153198 
	C513.661926,536.756958 519.091370,538.004028 521.624207,545.577087 
	C523.062256,549.876770 526.326843,553.534729 528.336426,557.690857 
	C529.039734,559.145447 529.136963,561.638733 528.344604,562.956177 
	C519.833130,577.108704 511.088043,591.120728 501.093414,605.145264 
	C498.842804,595.971252 496.592224,586.797180 494.641724,577.117737 
	C495.560181,575.218872 496.903625,573.697327 496.683533,572.452026 
	C494.728577,561.390076 499.000214,552.064270 504.356689,542.948364 
	C505.421448,541.136292 506.089172,539.090942 506.939972,537.153198 
z"/>
<path fill="#673219" opacity="1.000000" stroke="none" 
	d="
M471.692017,524.860779 
	C472.124481,532.418701 472.508881,539.979858 473.013428,547.532959 
	C473.209473,550.467957 472.196167,552.221619 469.579742,553.918335 
	C462.408875,558.568481 455.558624,563.713074 448.229614,568.464966 
	C446.779663,568.129883 445.438385,567.521729 444.628571,567.940735 
	C442.065094,569.267151 439.700317,570.977478 437.082886,572.651855 
	C433.268951,555.704529 450.622284,532.196899 471.692017,524.860779 
z"/>
<path fill="#8B4E31" opacity="1.000000" stroke="none" 
	d="
M427.748840,550.431519 
	C424.601593,557.029724 420.342529,562.895996 418.719543,569.418213 
	C416.705353,577.512390 416.381165,586.141296 416.240692,594.554504 
	C416.108337,602.480164 420.783905,608.135803 427.192352,612.483459 
	C432.003876,615.747681 436.725677,619.153625 441.360901,622.663452 
	C443.025940,623.924194 444.321350,625.673279 445.861389,627.523804 
	C430.561127,623.569763 416.627960,616.684998 405.554291,604.910522 
	C404.150513,603.417969 403.287750,600.959961 403.094299,598.864319 
	C402.226044,589.459290 405.592621,580.867188 409.462280,572.662170 
	C414.321442,562.359192 419.969971,552.427673 425.325653,542.361328 
	C425.765167,541.535217 426.571045,540.904114 427.806549,539.501282 
	C427.806549,543.548279 427.806549,546.769470 427.748840,550.431519 
z"/>
<path fill="#8B4E31" opacity="1.000000" stroke="none" 
	d="
M471.776428,524.489380 
	C450.622284,532.196899 433.268951,555.704529 437.082886,572.651855 
	C439.700317,570.977478 442.065094,569.267151 444.628571,567.940735 
	C445.438385,567.521729 446.779663,568.129883 447.909576,568.558472 
	C442.518494,573.177124 437.095551,577.505371 431.309631,581.890076 
	C430.946686,581.946533 430.873291,581.869751 430.873291,581.869751 
	C431.250214,571.798035 431.474640,561.717346 432.068573,551.658447 
	C432.364410,546.648132 433.154907,541.641663 434.128174,536.713806 
	C434.380219,535.437683 435.961884,533.973083 437.277130,533.432129 
	C445.181580,530.180847 453.205566,527.221680 461.148865,524.062439 
	C464.640442,522.673706 468.036072,521.043701 471.860840,519.352844 
	C471.860840,521.211243 471.860840,522.664612 471.776428,524.489380 
z"/>
<path fill="#8B4E31" opacity="1.000000" stroke="none" 
	d="
M506.559235,537.100464 
	C506.089172,539.090942 505.421448,541.136292 504.356689,542.948364 
	C499.000214,552.064270 494.728577,561.390076 496.683533,572.452026 
	C496.903625,573.697327 495.560181,575.218872 494.625427,576.728760 
	C492.091888,569.692017 489.809021,562.557800 487.735260,555.363342 
	C487.455902,554.394165 487.874115,552.789429 488.572418,552.043823 
	C492.980927,547.336548 497.483124,542.708496 502.148346,538.257568 
	C503.053040,537.394470 504.813019,537.427856 506.559235,537.100464 
z"/>
<path fill="#8A4D31" opacity="1.000000" stroke="none" 
	d="
M444.862213,523.697144 
	C442.142761,525.052429 439.423340,526.407654 436.703888,527.762878 
	C436.290741,527.252197 435.877594,526.741516 435.464447,526.230835 
	C445.183044,515.977539 454.901642,505.724274 464.620239,495.471008 
	C465.152496,495.745514 465.684753,496.020050 466.217010,496.294556 
	C466.774139,498.597290 467.331238,500.900024 467.543579,503.660736 
	C459.753265,510.644867 452.307739,517.171021 444.862213,523.697144 
z"/>
<path fill="#663219" opacity="1.000000" stroke="none" 
	d="
M445.237183,523.729614 
	C452.307739,517.171021 459.753265,510.644867 467.536072,504.045410 
	C469.648285,507.253296 471.423218,510.534515 473.415558,514.217651 
	C463.988037,517.453979 454.800110,520.608032 445.237183,523.729614 
z"/>
<path fill="#8A4D31" opacity="1.000000" stroke="none" 
	d="
M480.629578,484.983826 
	C475.856384,497.623627 479.506866,508.828400 486.865906,519.767456 
	C484.975830,518.302002 482.459869,516.815186 481.168793,514.610901 
	C477.801941,508.862518 474.923645,502.823883 471.945038,496.853790 
	C470.071594,493.098785 470.931122,490.273224 474.932892,488.429108 
	C476.832794,487.553650 478.502228,486.178070 480.629578,484.983826 
z"/>
<path fill="#8B4E31" opacity="1.000000" stroke="none" 
	d="
M491.564636,477.958130 
	C492.366760,482.090607 492.830902,486.283051 493.099915,490.789154 
	C490.770477,487.854584 488.636200,484.606323 486.349731,481.126434 
	C487.962311,480.098633 489.594482,479.058380 491.564636,477.958130 
z"/>
<path fill="#8A4D31" opacity="1.000000" stroke="none" 
	d="
M486.746246,520.315186 
	C487.208374,520.499817 487.520050,520.994873 487.908203,521.775757 
	C487.521759,521.582886 487.058746,521.104248 486.746246,520.315186 
z"/>
<path fill="#8B4E31" opacity="1.000000" stroke="none" 
	d="
M430.983429,581.984985 
	C430.876740,582.223877 430.733276,582.424438 430.589844,582.624939 
	C430.558807,582.404541 430.527740,582.184143 430.684998,581.916748 
	C430.873291,581.869751 430.946686,581.946533 430.983429,581.984985 
z"/>
</svg>