<?xml version="1.0" standalone="yes"?>
<svg xmlns="http://www.w3.org/2000/svg" width="90" height="90" viewBox = "0 0 2200 1700">
    <path style="fill:#90ad42; stroke:none;" d="M930 425C932 521.921 932 619 932 716C971.419 716 1010.69 717.239 1050 718.961C1062.65 719.514 1075.35 718.486 1088 719.039C1122.98 720.571 1158.02 721.429 1193 722.961C1217.2 724.02 1241.8 725 1266 725C1275.06 725 1283.99 725.765 1293 725.985C1300.64 726.173 1308.51 725.218 1316 727L1317 429C1234.62 429 1152.34 428 1070 428C1034.12 428 997.761 428.539 962 426.089C951.328 425.359 940.576 426.964 930 425z"/>
    <path style="fill:#596a28; stroke:none;" d="M932 425C933.769 425.779 935.036 425.912 937 426C935.231 425.221 933.964 425.088 932 425z"/>
    <path style="fill:#2a3214; stroke:none;" d="M937 425C941.974 427.087 948.638 426 954 426C949.026 423.913 942.362 425 937 425z"/>
    <path style="fill:#0e1107; stroke:none;" d="M954 425C958.471 426.876 964.183 426 969 426C964.529 424.124 958.817 425 954 425z"/>
    <path style="fill:#6a7f30; stroke:none;" d="M965 426C971.202 428.603 980.298 427 987 427C980.798 424.397 971.702 426 965 426z"/>
    <path style="fill:#576828; stroke:none;" d="M987 426C991.974 428.087 998.638 427 1004 427C999.026 424.913 992.362 426 987 426z"/>
    <path style="fill:#485721; stroke:none;" d="M1004 426C1006.61 427.098 1009.16 426.993 1012 427C1009.39 425.902 1006.84 426.007 1004 426z"/>
    <path style="fill:#303a16; stroke:none;" d="M1012 426C1015.16 427.327 1018.59 427 1022 427C1018.84 425.673 1015.41 426 1012 426z"/>
    <path style="fill:#151a09; stroke:none;" d="M1022 426C1030.13 429.411 1043.19 427 1052 427C1043.87 423.589 1030.81 426 1022 426z"/>
    <path style="fill:#0c0e06; stroke:none;" d="M929 427L929 454C931.541 447.945 931.541 433.055 929 427z"/>
    <path style="fill:#87a23e; stroke:none;" d="M1023 427C1027.22 428.769 1032.46 428 1037 428L1063 428C1058.78 426.231 1053.54 427 1049 427L1023 427z"/>
    <path style="fill:#6e8533; stroke:none;" d="M1063 427C1069.44 429.704 1079.03 428 1086 428C1079.56 425.296 1069.97 427 1063 427z"/>
    <path style="fill:#495722; stroke:none;" d="M1086 427C1093.41 430.109 1104.98 428 1113 428C1105.59 424.891 1094.02 427 1086 427z"/>
    <path style="fill:#313c16; stroke:none;" d="M1113 427C1117.47 428.876 1123.18 428 1128 428C1123.53 426.124 1117.82 427 1113 427z"/>
    <path style="fill:#232b10; stroke:none;" d="M1128 427C1132.97 429.087 1139.64 428 1145 428C1140.03 425.913 1133.36 427 1128 427z"/>
    <path style="fill:#0d0f06; stroke:none;" d="M1145 427C1148.7 428.552 1153.02 428 1157 428L1180 428C1176.3 426.448 1171.98 427 1168 427L1145 427z"/>
    <path style="fill:#799238; stroke:none;" d="M1148 428C1151.96 429.661 1156.74 429 1161 429L1185 429C1181.04 427.339 1176.26 428 1172 428L1148 428z"/>
    <path style="fill:#64782d; stroke:none;" d="M1185 428C1188.43 429.44 1192.3 429 1196 429C1192.57 427.56 1188.7 428 1185 428z"/>
    <path style="fill:#4b5a22; stroke:none;" d="M1196 428C1202.2 430.603 1211.3 429 1218 429C1211.8 426.397 1202.7 428 1196 428z"/>
    <path style="fill:#3e4a1c; stroke:none;" d="M1218 428C1222.97 430.087 1229.64 429 1235 429C1230.03 426.913 1223.36 428 1218 428z"/>
    <path style="fill:#20270f; stroke:none;" d="M1235 428C1239.22 429.769 1244.46 429 1249 429L1275 429C1270.78 427.231 1265.54 428 1261 428L1235 428z"/>
    <path style="fill:#171b0a; stroke:none;" d="M1275 428C1279.22 429.769 1284.46 429 1289 429L1317 429C1312.78 427.231 1307.54 428 1303 428L1275 428z"/>
    <path style="fill:#3a451b; stroke:none;" d="M1317 429L1317 481C1318.66 477.041 1318 472.26 1318 468L1318 443C1318 438.464 1318.77 433.215 1317 429z"/>
    <path style="fill:#799138; stroke:none;" d="M930 431L930 464C931.328 460.834 931 457.419 931 454C931 447.049 932.701 437.436 930 431z"/>
    <path style="fill:#5f722b; stroke:none;" d="M930 464L930 487C932.284 481.557 932.284 469.443 930 464z"/>
    <path style="fill:#293113; stroke:none;" d="M1317 481L1317 633C1318.55 629.301 1318 624.983 1318 621L1318 599L1318 520L1318 494C1318 489.74 1318.66 484.958 1317 481z"/>
    <path style="fill:#4b5a22; stroke:none;" d="M930 487L930 523C931.441 519.565 931 515.702 931 512C931 504.52 932.903 493.919 930 487z"/>
    <path style="fill:#63762d; stroke:none;" d="M1119 520C1121.33 520.984 1123.46 520.981 1126 521C1123.67 520.016 1121.54 520.019 1119 520z"/>
    <path style="fill:#708833; stroke:none;" d="M1106.67 521.333C1106.22 521.778 1107.28 521.722 1107.33 521.667C1107.78 521.222 1106.72 521.278 1106.67 521.333z"/>
    <path style="fill:#485621; stroke:none;" d="M1108 521C1110.61 522.098 1113.16 521.993 1116 522C1113.39 520.902 1110.84 521.007 1108 521z"/>
    <path style="fill:#000000; stroke:none;" d="M1116 521.424C1100.49 523.46 1087.44 526.78 1074 535.289C1026.31 565.48 1020.39 635.393 1052.43 678.961C1073.14 707.137 1108.36 722.223 1143 717.711C1154.51 716.212 1166.05 712.104 1176 706.195C1184.53 701.132 1191.97 694.643 1198.48 687.17C1245.73 632.931 1215.29 540.55 1146 523.769C1136.66 521.507 1125.59 520.165 1116 521.424z"/>
    <path style="fill:#191f0d; stroke:none;" d="M1128.67 521.333C1128.22 521.778 1129.28 521.722 1129.33 521.667C1129.78 521.222 1128.72 521.278 1128.67 521.333z"/>
    <path style="fill:#485721; stroke:none;" d="M1130 521C1132.61 522.098 1135.16 521.993 1138 522C1135.39 520.902 1132.84 521.007 1130 521z"/>
    <path style="fill:#506025; stroke:none;" d="M1103.67 522.333C1103.22 522.777 1104.28 522.722 1104.33 522.667C1104.78 522.222 1103.72 522.278 1103.67 522.333z"/>
    <path style="fill:#667a2f; stroke:none;" d="M1141.67 522.333C1141.22 522.777 1142.28 522.722 1142.33 522.667C1142.78 522.223 1141.72 522.277 1141.67 522.333z"/>
    <path style="fill:#2e3715; stroke:none;" d="M930 523L930 553C932.395 547.293 931 539.154 931 533C931 529.582 931.328 526.165 930 523z"/>
    <path style="fill:#4a5a22; stroke:none;" d="M1098 523C1099.51 523.683 1100.31 523.826 1102 524C1100.49 523.317 1099.69 523.174 1098 523z"/>
    <path style="fill:#44501f; stroke:none;" d="M1144 523C1145.51 523.683 1146.31 523.826 1148 524C1146.49 523.317 1145.69 523.174 1144 523z"/>
    <path style="fill:#181e0c; stroke:none;" d="M1096.67 524.333C1096.22 524.778 1097.28 524.722 1097.33 524.667C1097.78 524.222 1096.72 524.278 1096.67 524.333z"/>
    <path style="fill:#2c3615; stroke:none;" d="M1149 524L1150 525L1149 524z"/>
    <path style="fill:#323c18; stroke:none;" d="M1093.67 525.333C1093.22 525.778 1094.28 525.722 1094.33 525.667C1094.78 525.222 1093.72 525.278 1093.67 525.333z"/>
    <path style="fill:#222910; stroke:none;" d="M1111 525C1112.25 525.685 1112.55 525.749 1114 526C1112.75 525.315 1112.45 525.251 1111 525z"/>
    <path style="fill:#667b2f; stroke:none;" d="M1114 525C1118.97 527.087 1125.64 526 1131 526C1126.03 523.913 1119.36 525 1114 525z"/>
    <path style="fill:#20260f; stroke:none;" d="M1131 525C1132.51 525.683 1133.31 525.826 1135 526C1133.49 525.317 1132.69 525.174 1131 525z"/>
    <path style="fill:#43511e; stroke:none;" d="M1152 525L1153 526L1152 525z"/>
    <path style="fill:#4f5f25; stroke:none;" d="M1105.67 526.333C1105.22 526.778 1106.28 526.722 1106.33 526.667C1106.78 526.223 1105.72 526.278 1105.67 526.333z"/>
    <path style="fill:#789038; stroke:none;" d="M1107 526.464C1077.89 531.701 1053.05 553.234 1042.94 581C1038.58 592.961 1038 604.441 1038 617C1038 627.948 1038.69 638.568 1042.39 649C1057.85 692.545 1101.43 719.381 1147 711.385C1158.53 709.362 1169.46 704.946 1179 698.14C1186.81 692.57 1194.44 685.774 1199.94 677.83C1238.79 621.636 1205.08 535.984 1136 526.576C1127.03 525.355 1115.94 524.857 1107 526.464z"/>
    <path style="fill:#6a7f32; stroke:none;" d="M1135 526C1137.05 526.874 1138.75 526.953 1141 527C1138.95 526.126 1137.25 526.047 1135 526z"/>
    <path style="fill:#586929; stroke:none;" d="M1087 527L1088 528L1087 527z"/>
    <path style="fill:#374019; stroke:none;" d="M1101.67 527.333C1101.22 527.778 1102.28 527.722 1102.33 527.667C1102.78 527.222 1101.72 527.278 1101.67 527.333z"/>
    <path style="fill:#313a16; stroke:none;" d="M1143.67 527.333C1143.22 527.778 1144.28 527.722 1144.33 527.667C1144.78 527.223 1143.72 527.278 1143.67 527.333z"/>
    <path style="fill:#2e3715; stroke:none;" d="M1086 528L1087 529L1086 528z"/>
    <path style="fill:#2e3816; stroke:none;" d="M1146.67 528.333C1146.22 528.777 1147.28 528.722 1147.33 528.667C1147.78 528.223 1146.72 528.278 1146.67 528.333z"/>
    <path style="fill:#62762d; stroke:none;" d="M1084 529L1085 530L1084 529z"/>
    <path style="fill:#60722b; stroke:none;" d="M1163 529L1164 530L1163 529z"/>
    <path style="fill:#3e4a1d; stroke:none;" d="M1153 530L1154 531L1153 530z"/>
    <path style="fill:#354119; stroke:none;" d="M1164 530L1165 531L1164 530z"/>
    <path style="fill:#3a471a; stroke:none;" d="M1080.67 531.333C1080.22 531.778 1081.28 531.722 1081.33 531.667C1081.78 531.222 1080.72 531.278 1080.67 531.333z"/>
    <path style="fill:#465420; stroke:none;" d="M1090.67 531.333C1090.22 531.778 1091.28 531.722 1091.33 531.667C1091.78 531.222 1090.72 531.278 1090.67 531.333z"/>
    <path style="fill:#39441a; stroke:none;" d="M1155 531C1156.25 531.685 1156.55 531.749 1158 532C1156.75 531.315 1156.45 531.251 1155 531z"/>
    <path style="fill:#586b28; stroke:none;" d="M1166.67 531.333C1166.22 531.778 1167.28 531.722 1167.33 531.667C1167.78 531.222 1166.72 531.278 1166.67 531.333z"/>
    <path style="fill:#22290f; stroke:none;" d="M1086 532C1087.25 532.685 1087.55 532.749 1089 533C1087.75 532.315 1087.45 532.251 1086 532z"/>
    <path style="fill:#3e491d; stroke:none;" d="M1158 532L1159 533L1158 532z"/>
    <path style="fill:#414e1e; stroke:none;" d="M1168 532L1169 533L1168 532z"/>
    <path style="fill:#4a5a23; stroke:none;" d="M1077 533L1078 534L1077 533z"/>
    <path style="fill:#374219; stroke:none;" d="M1085 533L1086 534L1085 533z"/>
    <path style="fill:#3d491c; stroke:none;" d="M1160 533L1161 534L1160 533z"/>
    <path style="fill:#576727; stroke:none;" d="M1170 533L1171 534L1170 533z"/>
    <path style="fill:#63762e; stroke:none;" d="M1161.67 534.333C1161.22 534.778 1162.28 534.722 1162.33 534.667C1162.78 534.222 1161.72 534.278 1161.67 534.333z"/>
    <path style="fill:#495922; stroke:none;" d="M1172 534L1173 535L1172 534z"/>
    <path style="fill:#42501f; stroke:none;" d="M1164 535L1165 536L1164 535z"/>
    <path style="fill:#37441a; stroke:none;" d="M1173 535L1174 536L1173 535z"/>
    <path style="fill:#353f18; stroke:none;" d="M1072 536L1073 537L1072 536z"/>
    <path style="fill:#2e3715; stroke:none;" d="M1079 536L1080 537L1079 536z"/>
    <path style="fill:#5f742c; stroke:none;" d="M1070 537L1071 538L1070 537z"/>
    <path style="fill:#313a16; stroke:none;" d="M1176 537L1177 538L1176 537z"/>
    <path style="fill:#4c5c23; stroke:none;" d="M1169 538L1170 539L1169 538z"/>
    <path style="fill:#5d702b; stroke:none;" d="M1178 538L1179 539L1178 538z"/>
    <path style="fill:#4a5822; stroke:none;" d="M1171 539L1172 540L1171 539z"/>
    <path style="fill:#1e240e; stroke:none;" d="M1065.67 541.333C1065.22 541.777 1066.28 541.722 1066.33 541.667C1066.78 541.222 1065.72 541.278 1065.67 541.333z"/>
    <path style="fill:#333e17; stroke:none;" d="M1072 541L1073 542L1072 541z"/>
    <path style="fill:#1b220d; stroke:none;" d="M1174.67 541.333C1174.22 541.778 1175.28 541.722 1175.33 541.667C1175.78 541.222 1174.72 541.278 1174.67 541.333z"/>
    <path style="fill:#4d5d22; stroke:none;" d="M1181.67 541.333C1181.22 541.777 1182.28 541.722 1182.33 541.667C1182.78 541.222 1181.72 541.278 1181.67 541.333z"/>
    <path style="fill:#556626; stroke:none;" d="M1064 542L1065 543L1064 542z"/>
    <path style="fill:#4c5c23; stroke:none;" d="M1071 542L1072 543L1071 542z"/>
    <path style="fill:#414f1e; stroke:none;" d="M1183 542L1184 543L1183 542z"/>
    <path style="fill:#495922; stroke:none;" d="M1063 543L1064 544L1063 543z"/>
    <path style="fill:#4d5b23; stroke:none;" d="M1184 543L1185 544L1184 543z"/>
    <path style="fill:#38441a; stroke:none;" d="M1062 544L1063 545L1062 544z"/>
    <path style="fill:#2e3716; stroke:none;" d="M1068 544L1069 545L1068 544z"/>
    <path style="fill:#323b16; stroke:none;" d="M1061 545L1062 546L1061 545z"/>
    <path style="fill:#343e18; stroke:none;" d="M1182 547L1183 548L1182 547z"/>
    <path style="fill:#353f18; stroke:none;" d="M1183 548L1184 549L1183 548z"/>
    <path style="fill:#677b2f; stroke:none;" d="M1190 548L1191 549L1190 548z"/>
    <path style="fill:#4b5922; stroke:none;" d="M1184 549L1185 550L1184 549z"/>
    <path style="fill:#677a2f; stroke:none;" d="M1191 549L1192 550L1191 549z"/>
    <path style="fill:#3a481a; stroke:none;" d="M1056 550L1057 551L1056 550z"/>
    <path style="fill:#323c17; stroke:none;" d="M1055 551L1056 552L1055 551z"/>
    <path style="fill:#37441a; stroke:none;" d="M1061 551L1062 552L1061 551z"/>
    <path style="fill:#404c1e; stroke:none;" d="M1186 551L1187 552L1186 551z"/>
    <path style="fill:#64782d; stroke:none;" d="M1193 551L1194 552L1193 551z"/>
    <path style="fill:#5b6d2a; stroke:none;" d="M1054 552L1055 553L1054 552z"/>
    <path style="fill:#232910; stroke:none;" d="M930 553L930 573C932.087 568.027 932.087 557.973 930 553z"/>
    <path style="fill:#4a5923; stroke:none;" d="M1052 554L1053 555L1052 554z"/>
    <path style="fill:#2d3615; stroke:none;" d="M1058 554L1059 555L1058 554z"/>
    <path style="fill:#4c5b22; stroke:none;" d="M1189 554L1190 555L1189 554z"/>
    <path style="fill:#45511f; stroke:none;" d="M1196 555L1197 556L1196 555z"/>
    <path style="fill:#4b5c22; stroke:none;" d="M1051 556L1052 557L1051 556z"/>
    <path style="fill:#445220; stroke:none;" d="M1057 556L1058 557L1057 556z"/>
    <path style="fill:#4e5f25; stroke:none;" d="M1197 556L1198 557L1197 556z"/>
    <path style="fill:#343f18; stroke:none;" d="M1192 557L1193 558L1192 557z"/>
    <path style="fill:#3a451b; stroke:none;" d="M1055 558L1056 559L1055 558z"/>
    <path style="fill:#3d4a1c; stroke:none;" d="M1048 560L1049 561L1048 560z"/>
    <path style="fill:#60732c; stroke:none;" d="M1047 561L1048 562L1047 561z"/>
    <path style="fill:#495723; stroke:none;" d="M1053 561L1054 562L1053 561z"/>
    <path style="fill:#445520; stroke:none;" d="M1201 561L1202 562L1201 561z"/>
    <path style="fill:#5c6f2a; stroke:none;" d="M1046 563L1047 564L1046 563z"/>
    <path style="fill:#566a28; stroke:none;" d="M1045 564L1046 565L1045 564z"/>
    <path style="fill:#445320; stroke:none;" d="M1051 564L1052 565L1051 564z"/>
    <path style="fill:#48551f; stroke:none;" d="M1203 564L1204 565L1203 564z"/>
    <path style="fill:#323b17; stroke:none;" d="M1204 566L1205 567L1204 566z"/>
    <path style="fill:#2f3b16; stroke:none;" d="M1205 567L1206 568L1205 567z"/>
    <path style="fill:#556829; stroke:none;" d="M1043 568L1044 569L1043 568z"/>
    <path style="fill:#404d1f; stroke:none;" d="M1048 569L1049 570L1048 569z"/>
    <path style="fill:#546427; stroke:none;" d="M1201.33 569.667C1201.28 569.722 1201.22 570.778 1201.67 570.333C1201.72 570.278 1201.78 569.222 1201.33 569.667z"/>
    <path style="fill:#45551f; stroke:none;" d="M1206 569L1207 570L1206 569z"/>
    <path style="fill:#455321; stroke:none;" d="M1047.33 570.667C1047.28 570.722 1047.22 571.778 1047.67 571.333C1047.72 571.278 1047.78 570.222 1047.33 570.667z"/>
    <path style="fill:#61752c; stroke:none;" d="M1207 570L1208 571L1207 570z"/>
    <path style="fill:#3d4a1d; stroke:none;" d="M1202 571L1203 572L1202 571z"/>
    <path style="fill:#4d5c25; stroke:none;" d="M1041 572L1042 573L1041 572z"/>
    <path style="fill:#3e4a1c; stroke:none;" d="M1203.33 572.667C1203.28 572.722 1203.22 573.778 1203.67 573.333C1203.72 573.278 1203.78 572.222 1203.33 572.667z"/>
    <path style="fill:#404c1e; stroke:none;" d="M1046 573L1047 574L1046 573z"/>
    <path style="fill:#495a22; stroke:none;" d="M1209 574L1210 575L1209 574z"/>
    <path style="fill:#404c1e; stroke:none;" d="M1210 576L1211 577L1210 576z"/>
    <path style="fill:#495521; stroke:none;" d="M1211 577L1211 580C1211.7 578.446 1211.7 578.554 1211 577z"/>
    <path style="fill:#424e1f; stroke:none;" d="M1038 579L1039 580L1038 579z"/>
    <path style="fill:#455420; stroke:none;" d="M1206 579L1207 580L1206 579z"/>
    <path style="fill:#576827; stroke:none;" d="M1212 580L1213 581L1212 580z"/>
    <path style="fill:#43531f; stroke:none;" d="M1037 581L1037 584C1037.7 582.446 1037.7 582.554 1037 581z"/>
    <path style="fill:#2d3615; stroke:none;" d="M1042 581L1043 582L1042 581z"/>
    <path style="fill:#5e732c; stroke:none;" d="M1208.33 582.667C1208.28 582.722 1208.22 583.778 1208.67 583.333C1208.72 583.277 1208.78 582.223 1208.33 582.667z"/>
    <path style="fill:#42511f; stroke:none;" d="M1213.33 582.667C1213.28 582.722 1213.22 583.778 1213.67 583.333C1213.72 583.278 1213.78 582.222 1213.33 582.667z"/>
    <path style="fill:#586929; stroke:none;" d="M1041.33 585.667C1041.28 585.722 1041.22 586.778 1041.67 586.333C1041.72 586.278 1041.78 585.222 1041.33 585.667M1209.33 585.667C1209.28 585.722 1209.22 586.778 1209.67 586.333C1209.72 586.278 1209.78 585.222 1209.33 585.667z"/>
    <path style="fill:#5c6e29; stroke:none;" d="M1214 585L1215 586L1214 585z"/>
    <path style="fill:#36421a; stroke:none;" d="M1035.33 587.667C1035.28 587.722 1035.22 588.778 1035.67 588.333C1035.72 588.278 1035.78 587.222 1035.33 587.667z"/>
    <path style="fill:#465521; stroke:none;" d="M1040.33 587.667C1040.28 587.722 1040.22 588.778 1040.67 588.333C1040.72 588.278 1040.78 587.222 1040.33 587.667z"/>
    <path style="fill:#5e6f2a; stroke:none;" d="M1210.33 587.667C1210.28 587.722 1210.22 588.778 1210.67 588.333C1210.72 588.278 1210.78 587.222 1210.33 587.667z"/>
    <path style="fill:#303916; stroke:none;" d="M1215.33 587.667C1215.28 587.722 1215.22 588.778 1215.67 588.333C1215.72 588.278 1215.78 587.222 1215.33 587.667z"/>
    <path style="fill:#7e983a; stroke:none;" d="M1034 589L1034 593C1034.71 591.24 1034.71 590.76 1034 589z"/>
    <path style="fill:#3a481b; stroke:none;" d="M1211 589L1211 592C1211.7 590.446 1211.7 590.554 1211 589z"/>
    <path style="fill:#809a3b; stroke:none;" d="M931 591L931 620C932.328 616.834 932 613.419 932 610C932 604.113 933.292 596.462 931 591z"/>
    <path style="fill:#465521; stroke:none;" d="M1039.33 592.667C1039.28 592.722 1039.22 593.778 1039.67 593.333C1039.72 593.278 1039.78 592.222 1039.33 592.667z"/>
    <path style="fill:#21250f; stroke:none;" d="M1217.33 594.667C1217.28 594.722 1217.22 595.778 1217.67 595.333C1217.72 595.277 1217.78 594.223 1217.33 594.667z"/>
    <path style="fill:#596b28; stroke:none;" d="M1033.33 595.667C1033.28 595.722 1033.22 596.778 1033.67 596.333C1033.72 596.278 1033.78 595.222 1033.33 595.667z"/>
    <path style="fill:#576828; stroke:none;" d="M1038.33 596.667C1038.28 596.722 1038.22 597.778 1038.67 597.333C1038.72 597.278 1038.78 596.222 1038.33 596.667z"/>
    <path style="fill:#3c471c; stroke:none;" d="M1213 596L1213 599C1213.7 597.446 1213.7 597.554 1213 596z"/>
    <path style="fill:#262d12; stroke:none;" d="M1033.33 597.667C1033.28 597.722 1033.22 598.778 1033.67 598.333C1033.72 598.278 1033.78 597.222 1033.33 597.667z"/>
    <path style="fill:#3d491d; stroke:none;" d="M1037 599L1037 607C1038.16 604.23 1038.16 601.77 1037 599z"/>
    <path style="fill:#5a6b2a; stroke:none;" d="M1032.33 600.667C1032.28 600.722 1032.22 601.778 1032.67 601.333C1032.72 601.277 1032.78 600.223 1032.33 600.667z"/>
    <path style="fill:#0a0c05; stroke:none;" d="M1032 602L1032 629C1034.54 622.945 1034.54 608.055 1032 602z"/>
    <path style="fill:#475621; stroke:none;" d="M1219 602L1219 605C1219.7 603.446 1219.7 603.554 1219 602z"/>
    <path style="fill:#343f19; stroke:none;" d="M1215 604L1215 607C1215.7 605.446 1215.7 605.554 1215 604z"/>
    <path style="fill:#5a6b28; stroke:none;" d="M1220 606L1220 609C1220.7 607.446 1220.7 607.554 1220 606z"/>
    <path style="fill:#0e1107; stroke:none;" d="M1036 607L1036 622C1037.74 617.852 1037.74 611.148 1036 607z"/>
    <path style="fill:#6a7e31; stroke:none;" d="M1037 607L1037 623C1038.81 618.681 1038.81 611.319 1037 607z"/>
    <path style="fill:#0f1107; stroke:none;" d="M1216 607L1216 615C1217.16 612.23 1217.16 609.77 1216 607z"/>
    <path style="fill:#7f993a; stroke:none;" d="M1031 609L1031 622C1032.59 618.209 1032.59 612.791 1031 609z"/>
    <path style="fill:#485721; stroke:none;" d="M1221 613L1221 632C1223.02 627.187 1223.02 617.813 1221 613z"/>
    <path style="fill:#4f6024; stroke:none;" d="M1216 615L1216 630C1217.74 625.852 1217.74 619.148 1216 615z"/>
    <path style="fill:#6d8232; stroke:none;" d="M931 620L931 652C933.599 645.806 932 636.686 932 630C932 626.582 932.328 623.166 931 620z"/>
    <path style="fill:#3d4a1d; stroke:none;" d="M1037 623L1037 630C1038.06 627.466 1038.06 625.534 1037 623z"/>
    <path style="fill:#5c6f2b; stroke:none;" d="M1032 629L1032 632C1032.7 630.446 1032.7 630.554 1032 629z"/>
    <path style="fill:#21280f; stroke:none;" d="M1037.33 630.667C1037.28 630.722 1037.22 631.778 1037.67 631.333C1037.72 631.277 1037.78 630.223 1037.33 630.667z"/>
    <path style="fill:#2c3515; stroke:none;" d="M1216.33 630.667C1216.28 630.722 1216.22 631.778 1216.67 631.333C1216.72 631.278 1216.78 630.222 1216.33 630.667z"/>
    <path style="fill:#556728; stroke:none;" d="M1038 632L1038 635C1038.7 633.446 1038.7 633.554 1038 632z"/>
    <path style="fill:#819a3b; stroke:none;" d="M1221 632L1221 636C1221.71 634.24 1221.71 633.76 1221 632z"/>
    <path style="fill:#38441b; stroke:none;" d="M1033.33 633.667C1033.28 633.722 1033.22 634.778 1033.67 634.333C1033.72 634.278 1033.78 633.222 1033.33 633.667z"/>
    <path style="fill:#131608; stroke:none;" d="M1317 633L1317 727C1319.8 720.322 1318 710.216 1318 703L1318 655C1318 648.314 1319.6 639.194 1317 633z"/>
    <path style="fill:#738935; stroke:none;" d="M1033.33 635.667C1033.28 635.722 1033.22 636.778 1033.67 636.333C1033.72 636.278 1033.78 635.222 1033.33 635.667z"/>
    <path style="fill:#313b17; stroke:none;" d="M1039.33 637.667C1039.28 637.722 1039.22 638.778 1039.67 638.333C1039.72 638.278 1039.78 637.222 1039.33 637.667z"/>
    <path style="fill:#576828; stroke:none;" d="M1220 637L1220 640C1220.7 638.446 1220.7 638.554 1220 637z"/>
    <path style="fill:#65792d; stroke:none;" d="M1034.33 638.667C1034.28 638.722 1034.22 639.778 1034.67 639.333C1034.72 639.278 1034.78 638.222 1034.33 638.667z"/>
    <path style="fill:#343f18; stroke:none;" d="M1215 639L1215 642C1215.7 640.446 1215.7 640.554 1215 639z"/>
    <path style="fill:#455220; stroke:none;" d="M1219.33 641.667C1219.28 641.722 1219.22 642.778 1219.67 642.333C1219.72 642.278 1219.78 641.222 1219.33 641.667z"/>
    <path style="fill:#566727; stroke:none;" d="M1035.33 643.667C1035.28 643.722 1035.22 644.778 1035.67 644.333C1035.72 644.278 1035.78 643.222 1035.33 643.667z"/>
    <path style="fill:#39471b; stroke:none;" d="M1214.33 643.667C1214.28 643.722 1214.22 644.778 1214.67 644.333C1214.72 644.278 1214.78 643.222 1214.33 643.667z"/>
    <path style="fill:#788f37; stroke:none;" d="M1219.33 643.667C1219.28 643.722 1219.22 644.778 1219.67 644.333C1219.72 644.278 1219.78 643.222 1219.33 643.667z"/>
    <path style="fill:#242b11; stroke:none;" d="M1041.33 645.667C1041.28 645.722 1041.22 646.778 1041.67 646.333C1041.72 646.278 1041.78 645.222 1041.33 645.667z"/>
    <path style="fill:#353f18; stroke:none;" d="M1036 646L1037 647L1036 646z"/>
    <path style="fill:#3a461b; stroke:none;" d="M1213 647L1213 650C1213.7 648.446 1213.7 648.554 1213 647z"/>
    <path style="fill:#404d1e; stroke:none;" d="M1037 648L1037 651C1037.7 649.447 1037.7 649.554 1037 648z"/>
    <path style="fill:#6a7f30; stroke:none;" d="M1218.33 648.667C1218.28 648.722 1218.22 649.778 1218.67 649.333C1218.72 649.278 1218.78 648.222 1218.33 648.667z"/>
    <path style="fill:#424f1e; stroke:none;" d="M1217.33 650.667C1217.28 650.722 1217.22 651.778 1217.67 651.333C1217.72 651.278 1217.78 650.222 1217.33 650.667z"/>
    <path style="fill:#495721; stroke:none;" d="M1043 651L1044 652L1043 651z"/>
    <path style="fill:#5c6f2b; stroke:none;" d="M931 652L931 673C933.153 667.869 933.153 657.131 931 652z"/>
    <path style="fill:#3b461a; stroke:none;" d="M1038 652L1039 653L1038 652z"/>
    <path style="fill:#7e973a; stroke:none;" d="M1316 652L1316 727C1318.39 721.293 1317 713.154 1317 707L1317 670C1317 664.381 1318.19 657.217 1316 652z"/>
    <path style="fill:#1c200d; stroke:none;" d="M1044.33 653.667C1044.28 653.722 1044.22 654.778 1044.67 654.333C1044.72 654.278 1044.78 653.222 1044.33 653.667z"/>
    <path style="fill:#37431a; stroke:none;" d="M1211 654L1211 657C1211.7 655.446 1211.7 655.554 1211 654z"/>
    <path style="fill:#4b5b24; stroke:none;" d="M1045 656L1046 657L1045 656z"/>
    <path style="fill:#313a16; stroke:none;" d="M1215 657L1216 658L1215 657z"/>
    <path style="fill:#242c11; stroke:none;" d="M1047.33 660.667C1047.28 660.722 1047.22 661.778 1047.67 661.333C1047.72 661.278 1047.78 660.222 1047.33 660.667z"/>
    <path style="fill:#45531f; stroke:none;" d="M1213 661L1213 664C1213.7 662.446 1213.7 662.554 1213 661z"/>
    <path style="fill:#556727; stroke:none;" d="M1043 664L1044 665L1043 664z"/>
    <path style="fill:#475421; stroke:none;" d="M1207 664L1208 665L1207 664z"/>
    <path style="fill:#465620; stroke:none;" d="M1044 665L1045 666L1044 665z"/>
    <path style="fill:#364019; stroke:none;" d="M1050 666L1051 667L1050 666z"/>
    <path style="fill:#516024; stroke:none;" d="M1211.33 666.667C1211.28 666.722 1211.22 667.778 1211.67 667.333C1211.72 667.278 1211.78 666.222 1211.33 666.667z"/>
    <path style="fill:#455220; stroke:none;" d="M1051 667L1052 668L1051 667z"/>
    <path style="fill:#465320; stroke:none;" d="M1205 668L1206 669L1205 668z"/>
    <path style="fill:#414d1e; stroke:none;" d="M1046 669L1047 670L1046 669z"/>
    <path style="fill:#485520; stroke:none;" d="M1210 669L1211 670L1210 669z"/>
    <path style="fill:#516124; stroke:none;" d="M1047.33 670.667C1047.28 670.722 1047.22 671.778 1047.67 671.333C1047.72 671.278 1047.78 670.222 1047.33 670.667z"/>
    <path style="fill:#374118; stroke:none;" d="M1209 670L1210 671L1209 670z"/>
    <path style="fill:#2e3816; stroke:none;" d="M1203.33 671.667C1203.28 671.722 1203.22 672.778 1203.67 672.333C1203.72 672.278 1203.78 671.222 1203.33 671.667z"/>
    <path style="fill:#526226; stroke:none;" d="M931 673L931 716C934.507 707.643 932 694.06 932 685C932 681.017 932.552 676.699 931 673z"/>
    <path style="fill:#3f4b1d; stroke:none;" d="M1202 673L1203 674L1202 673z"/>
    <path style="fill:#63772d; stroke:none;" d="M1049 674L1050 675L1049 674z"/>
    <path style="fill:#3d491b; stroke:none;" d="M1207 674L1208 675L1207 674z"/>
    <path style="fill:#3a461b; stroke:none;" d="M1206 675L1207 676L1206 675z"/>
    <path style="fill:#63772e; stroke:none;" d="M1051 677L1052 678L1051 677z"/>
    <path style="fill:#62772d; stroke:none;" d="M1204 679L1205 680L1204 679z"/>
    <path style="fill:#3d4a1c; stroke:none;" d="M1197 680L1198 681L1197 680z"/>
    <path style="fill:#44511f; stroke:none;" d="M1203 680L1204 681L1203 680z"/>
    <path style="fill:#313b17; stroke:none;" d="M1062 682L1063 683L1062 682z"/>
    <path style="fill:#63772e; stroke:none;" d="M1202 682L1203 683L1202 682z"/>
    <path style="fill:#485622; stroke:none;" d="M1056 683L1057 684L1056 683z"/>
    <path style="fill:#3e471b; stroke:none;" d="M1063 683L1064 684L1063 683z"/>
    <path style="fill:#4d5c24; stroke:none;" d="M1201 683L1202 684L1201 683z"/>
    <path style="fill:#435020; stroke:none;" d="M1064 684L1065 685L1064 684z"/>
    <path style="fill:#3b461c; stroke:none;" d="M1193 685L1194 686L1193 685z"/>
    <path style="fill:#323c16; stroke:none;" d="M1199 685L1200 686L1199 685z"/>
    <path style="fill:#434f20; stroke:none;" d="M1066 686L1067 687L1066 686z"/>
    <path style="fill:#43501f; stroke:none;" d="M1192 686L1193 687L1192 686z"/>
    <path style="fill:#404c1f; stroke:none;" d="M1067 687L1068 688L1067 687z"/>
    <path style="fill:#566628; stroke:none;" d="M1198 687L1199 688L1198 687z"/>
    <path style="fill:#37421a; stroke:none;" d="M1068 688L1069 689L1068 688z"/>
    <path style="fill:#475621; stroke:none;" d="M1190 688L1191 689L1190 688z"/>
    <path style="fill:#61752c; stroke:none;" d="M1061 689L1062 690L1061 689z"/>
    <path style="fill:#333d17; stroke:none;" d="M1069 689L1070 690L1069 689z"/>
    <path style="fill:#465321; stroke:none;" d="M1189 689L1190 690L1189 689z"/>
    <path style="fill:#60742c; stroke:none;" d="M1196 689L1197 690L1196 689z"/>
    <path style="fill:#414d1f; stroke:none;" d="M1188 690L1189 691L1188 690z"/>
    <path style="fill:#546426; stroke:none;" d="M1195 690L1196 691L1195 690z"/>
    <path style="fill:#64772e; stroke:none;" d="M1063 691L1064 692L1063 691z"/>
    <path style="fill:#39451a; stroke:none;" d="M1187 691L1188 692L1187 691z"/>
    <path style="fill:#576727; stroke:none;" d="M1194 691L1195 692L1194 691z"/>
    <path style="fill:#657a2f; stroke:none;" d="M1064 692L1065 693L1064 692z"/>
    <path style="fill:#313a16; stroke:none;" d="M1186 692L1187 693L1186 692z"/>
    <path style="fill:#43521f; stroke:none;" d="M1193 692L1194 693L1193 692z"/>
    <path style="fill:#333e18; stroke:none;" d="M1074 693L1075 694L1074 693z"/>
    <path style="fill:#566627; stroke:none;" d="M1192 693L1193 694L1192 693z"/>
    <path style="fill:#596c2a; stroke:none;" d="M1191 694L1192 695L1191 694z"/>
    <path style="fill:#465420; stroke:none;" d="M1182 695L1183 696L1182 695z"/>
    <path style="fill:#4c5a22; stroke:none;" d="M1190 695L1191 696L1190 695z"/>
    <path style="fill:#4e5d23; stroke:none;" d="M1069 696L1070 697L1069 696z"/>
    <path style="fill:#4d5d24; stroke:none;" d="M1070 697L1071 698L1070 697z"/>
    <path style="fill:#2a3113; stroke:none;" d="M1179.67 697.333C1179.22 697.777 1180.28 697.723 1180.33 697.667C1180.78 697.222 1179.72 697.278 1179.67 697.333z"/>
    <path style="fill:#576828; stroke:none;" d="M1188 697L1189 698L1188 697z"/>
    <path style="fill:#303916; stroke:none;" d="M1072 698L1073 699L1072 698z"/>
    <path style="fill:#3b471c; stroke:none;" d="M1081 698L1082 699L1081 698z"/>
    <path style="fill:#465321; stroke:none;" d="M1178 698L1179 699L1178 698z"/>
    <path style="fill:#42511f; stroke:none;" d="M1186 698L1187 699L1186 698z"/>
    <path style="fill:#64792e; stroke:none;" d="M1074 700L1075 701L1074 700z"/>
    <path style="fill:#61752c; stroke:none;" d="M1075 701L1076 702L1075 701z"/>
    <path style="fill:#364019; stroke:none;" d="M1077 702L1078 703L1077 702z"/>
    <path style="fill:#333e18; stroke:none;" d="M1087 702L1088 703L1087 702z"/>
    <path style="fill:#42501e; stroke:none;" d="M1172 702L1173 703L1172 702z"/>
    <path style="fill:#343f18; stroke:none;" d="M1181 702L1182 703L1181 702z"/>
    <path style="fill:#343e17; stroke:none;" d="M1079 703L1080 704L1079 703z"/>
    <path style="fill:#2f3915; stroke:none;" d="M1080 704L1081 705L1080 704z"/>
    <path style="fill:#333d18; stroke:none;" d="M1168 704L1169 705L1168 704z"/>
    <path style="fill:#3d491c; stroke:none;" d="M1081.67 705.333C1081.22 705.777 1082.28 705.723 1082.33 705.667C1082.78 705.222 1081.72 705.278 1081.67 705.333z"/>
    <path style="fill:#3e4a1e; stroke:none;" d="M1093.67 705.333C1093.22 705.777 1094.28 705.723 1094.33 705.667C1094.78 705.222 1093.72 705.278 1093.67 705.333z"/>
    <path style="fill:#3a461c; stroke:none;" d="M1165 705C1166.25 705.685 1166.55 705.749 1168 706C1166.75 705.315 1166.45 705.251 1165 705z"/>
    <path style="fill:#526325; stroke:none;" d="M1176.67 705.333C1176.22 705.777 1177.28 705.722 1177.33 705.667C1177.78 705.222 1176.72 705.278 1176.67 705.333z"/>
    <path style="fill:#63782d; stroke:none;" d="M1083 706L1084 707L1083 706z"/>
    <path style="fill:#63752d; stroke:none;" d="M1096.67 706.333C1096.22 706.777 1097.28 706.722 1097.33 706.667C1097.78 706.222 1096.72 706.278 1096.67 706.333z"/>
    <path style="fill:#43521f; stroke:none;" d="M1175 706L1176 707L1175 706z"/>
    <path style="fill:#42501e; stroke:none;" d="M1085 707L1086 708L1085 707z"/>
    <path style="fill:#2f3815; stroke:none;" d="M1161.67 707.333C1161.22 707.777 1162.28 707.722 1162.33 707.667C1162.78 707.222 1161.72 707.278 1161.67 707.333z"/>
    <path style="fill:#566828; stroke:none;" d="M1087 708L1088 709L1087 708z"/>
    <path style="fill:#788e37; stroke:none;" d="M1171.67 708.333C1171.22 708.777 1172.28 708.722 1172.33 708.667C1172.78 708.222 1171.72 708.278 1171.67 708.333z"/>
    <path style="fill:#4b5a22; stroke:none;" d="M1089 709L1090 710L1089 709z"/>
    <path style="fill:#363f1a; stroke:none;" d="M1103.67 709.333C1103.22 709.777 1104.28 709.722 1104.33 709.667C1104.78 709.222 1103.72 709.278 1103.67 709.333z"/>
    <path style="fill:#5e702b; stroke:none;" d="M1170 709L1171 710L1170 709z"/>
    <path style="fill:#738934; stroke:none;" d="M1090.67 710.333C1090.22 710.777 1091.28 710.722 1091.33 710.667C1091.78 710.222 1090.72 710.278 1090.67 710.333z"/>
    <path style="fill:#445120; stroke:none;" d="M1092 710L1093 711L1092 710z"/>
    <path style="fill:#323d17; stroke:none;" d="M1111.67 711.333C1111.22 711.777 1112.28 711.722 1112.33 711.667C1112.78 711.222 1111.72 711.278 1111.67 711.333z"/>
    <path style="fill:#516126; stroke:none;" d="M1146.67 711.333C1146.22 711.777 1147.28 711.722 1147.33 711.667C1147.78 711.222 1146.72 711.278 1146.67 711.333z"/>
    <path style="fill:#1c220d; stroke:none;" d="M1148.67 711.333C1148.22 711.777 1149.28 711.723 1149.33 711.667C1149.78 711.222 1148.72 711.278 1148.67 711.333z"/>
    <path style="fill:#3a451c; stroke:none;" d="M1165 711L1166 712L1165 711z"/>
    <path style="fill:#475622; stroke:none;" d="M1116.67 712.333C1116.22 712.777 1117.28 712.722 1117.33 712.667C1117.78 712.222 1116.72 712.278 1116.67 712.333z"/>
    <path style="fill:#6b7f32; stroke:none;" d="M1134 712C1136.61 713.098 1139.16 712.993 1142 713C1139.39 711.902 1136.84 712.007 1134 712z"/>
    <path style="fill:#4b5b22; stroke:none;" d="M1142 712C1143.25 712.685 1143.55 712.749 1145 713C1143.75 712.315 1143.45 712.251 1142 712z"/>
    <path style="fill:#3f4d1e; stroke:none;" d="M1163 712L1164 713L1163 712z"/>
    <path style="fill:#4f5f25; stroke:none;" d="M1099 713L1100 714L1099 713z"/>
    <path style="fill:#242b11; stroke:none;" d="M1125 713C1128.16 714.327 1131.59 714 1135 714C1131.84 712.673 1128.41 713 1125 713z"/>
    <path style="fill:#546426; stroke:none;" d="M1160 713L1161 714L1160 713z"/>
    <path style="fill:#64782e; stroke:none;" d="M1101 714L1102 715L1101 714z"/>
    <path style="fill:#333d18; stroke:none;" d="M1102 714L1103 715L1102 714z"/>
    <path style="fill:#2f3916; stroke:none;" d="M1157 714L1158 715L1157 714z"/>
    <path style="fill:#566628; stroke:none;" d="M1103.67 715.333C1103.22 715.777 1104.28 715.722 1104.33 715.667C1104.78 715.222 1103.72 715.278 1103.67 715.333z"/>
    <path style="fill:#3c491d; stroke:none;" d="M1105 715C1106.25 715.685 1106.55 715.749 1108 716C1106.75 715.315 1106.45 715.251 1105 715z"/>
    <path style="fill:#516125; stroke:none;" d="M1152 715C1153.51 715.683 1154.31 715.826 1156 716C1154.49 715.317 1153.69 715.174 1152 715z"/>
    <path style="fill:#161a0a; stroke:none;" d="M931 716C936.469 718.295 944.099 717 950 717C944.531 714.705 936.901 716 931 716z"/>
    <path style="fill:#3c481b; stroke:none;" d="M950 716C951.248 716.685 951.549 716.749 953 717C951.752 716.315 951.452 716.251 950 716z"/>
    <path style="fill:#60742c; stroke:none;" d="M953 716C957.216 717.769 962.459 717 967 717C962.784 715.231 957.541 716 953 716z"/>
    <path style="fill:#859e3e; stroke:none;" d="M967 716C970.697 717.552 975.017 717 979 717C975.303 715.448 970.983 716 967 716z"/>
    <path style="fill:#556727; stroke:none;" d="M1108.67 716.333C1108.22 716.777 1109.28 716.723 1109.33 716.667C1109.78 716.222 1108.72 716.278 1108.67 716.333z"/>
    <path style="fill:#4f5e24; stroke:none;" d="M1149.67 716.333C1149.22 716.777 1150.28 716.723 1150.33 716.667C1150.78 716.222 1149.72 716.278 1149.67 716.333z"/>
    <path style="fill:#313c18; stroke:none;" d="M978 717C982.724 718.982 988.91 718 994 718C989.276 716.018 983.09 717 978 717z"/>
    <path style="fill:#4a5922; stroke:none;" d="M994 717C997.163 718.327 1000.59 718 1004 718C1000.84 716.673 997.414 717 994 717z"/>
    <path style="fill:#7e9739; stroke:none;" d="M1004 717C1008.72 718.982 1014.91 718 1020 718C1015.28 716.018 1009.09 717 1004 717z"/>
    <path style="fill:#445120; stroke:none;" d="M1112 717C1113.25 717.685 1113.55 717.749 1115 718C1113.75 717.315 1113.45 717.251 1112 717z"/>
    <path style="fill:#303916; stroke:none;" d="M1144 717C1145.25 717.685 1145.55 717.749 1147 718C1145.75 717.315 1145.45 717.251 1144 717z"/>
    <path style="fill:#2d3715; stroke:none;" d="M1028 718C1029.25 718.685 1029.55 718.749 1031 719C1029.75 718.315 1029.45 718.251 1028 718z"/>
    <path style="fill:#5d702b; stroke:none;" d="M1031 718C1035.47 719.876 1041.18 719 1046 719C1041.53 717.124 1035.82 718 1031 718z"/>
    <path style="fill:#7f993b; stroke:none;" d="M1115 718C1117.05 718.874 1118.75 718.953 1121 719C1118.95 718.126 1117.25 718.047 1115 718z"/>
    <path style="fill:#4f5e25; stroke:none;" d="M1121 718C1122.77 718.779 1124.04 718.912 1126 719C1124.23 718.221 1122.96 718.088 1121 718z"/>
    <path style="fill:#283112; stroke:none;" d="M1126 718C1128.33 718.984 1130.46 718.981 1133 719C1130.67 718.016 1128.54 718.019 1126 718z"/>
    <path style="fill:#586a28; stroke:none;" d="M1133 718C1135.33 718.985 1137.46 718.981 1140 719C1137.67 718.015 1135.54 718.019 1133 718z"/>
    <path style="fill:#7f993b; stroke:none;" d="M1140 718C1141.51 718.683 1142.31 718.826 1144 719C1142.49 718.317 1141.69 718.174 1140 718z"/>
    <path style="fill:#526326; stroke:none;" d="M931 719C932.724 720.055 932.921 720.036 935 720C933.494 719.317 932.685 719.174 931 719z"/>
    <path style="fill:#354018; stroke:none;" d="M935 719C937.052 719.874 938.747 719.953 941 720C938.948 719.126 937.253 719.047 935 719z"/>
    <path style="fill:#313c16; stroke:none;" d="M1056 719C1060.22 720.769 1065.46 720 1070 720C1065.78 718.231 1060.54 719 1056 719z"/>
    <path style="fill:#506125; stroke:none;" d="M1070 719C1072.61 720.098 1075.16 719.993 1078 720C1075.39 718.902 1072.84 719.007 1070 719z"/>
    <path style="fill:#7e9739; stroke:none;" d="M1078 719C1082.47 720.876 1088.18 720 1093 720C1088.53 718.124 1082.82 719 1078 719z"/>
    <path style="fill:#7f993b; stroke:none;" d="M933 720C935.613 721.098 938.165 720.993 941 721C938.387 719.902 935.836 720.007 933 720z"/>
    <path style="fill:#475722; stroke:none;" d="M951 720C953.052 720.874 954.747 720.953 957 721C954.948 720.126 953.253 720.047 951 720z"/>
    <path style="fill:#1c200c; stroke:none;" d="M1093 720C1095.61 721.098 1098.16 720.993 1101 721C1098.39 719.902 1095.84 720.007 1093 720z"/>
    <path style="fill:#5d702b; stroke:none;" d="M1101 720C1105.22 721.769 1110.46 721 1115 721C1110.78 719.231 1105.54 720 1101 720z"/>
    <path style="fill:#819b3c; stroke:none;" d="M1115 720C1117.61 721.098 1120.16 720.993 1123 721C1120.39 719.902 1117.84 720.007 1115 720z"/>
    <path style="fill:#323c18; stroke:none;" d="M968 721C969.769 721.779 971.036 721.912 973 722C971.231 721.221 969.964 721.088 968 721z"/>
    <path style="fill:#313c16; stroke:none;" d="M1122 721C1126.47 722.876 1132.18 722 1137 722C1132.53 720.124 1126.82 721 1122 721z"/>
    <path style="fill:#516226; stroke:none;" d="M1137 721C1139.89 722.213 1142.87 721.998 1146 722C1143.11 720.787 1140.13 721.002 1137 721z"/>
    <path style="fill:#7e9839; stroke:none;" d="M1146 721C1149.96 722.661 1154.74 722 1159 722C1155.04 720.339 1150.26 721 1146 721z"/>
    <path style="fill:#445521; stroke:none;" d="M1008 722C1009.77 722.779 1011.04 722.912 1013 723C1011.23 722.221 1009.96 722.088 1008 722z"/>
    <path style="fill:#121607; stroke:none;" d="M1013 722C1014.77 722.779 1016.04 722.912 1018 723C1016.23 722.221 1014.96 722.088 1013 722z"/>
    <path style="fill:#1c200c; stroke:none;" d="M1159 722C1161.33 722.985 1163.46 722.981 1166 723C1163.67 722.015 1161.54 722.019 1159 722z"/>
    <path style="fill:#5d702b; stroke:none;" d="M1166 722C1170.47 723.876 1176.18 723 1181 723C1176.53 721.124 1170.82 722 1166 722z"/>
    <path style="fill:#829e3d; stroke:none;" d="M1181 722C1183.61 723.098 1186.16 722.993 1189 723C1186.39 721.902 1183.84 722.007 1181 722z"/>
    <path style="fill:#313c16; stroke:none;" d="M1188 723C1192.47 724.876 1198.18 724 1203 724C1198.53 722.124 1192.82 723 1188 723z"/>
    <path style="fill:#546426; stroke:none;" d="M1203 723C1205.89 724.213 1208.87 723.998 1212 724C1209.11 722.787 1206.13 723.002 1203 723z"/>
    <path style="fill:#7e9839; stroke:none;" d="M1212 723C1215.7 724.552 1220.02 724 1224 724C1220.3 722.449 1215.98 723 1212 723z"/>
    <path style="fill:#232a10; stroke:none;" d="M1225 724C1227.05 724.874 1228.75 724.953 1231 725C1228.95 724.126 1227.25 724.047 1225 724z"/>
    <path style="fill:#5d702b; stroke:none;" d="M1231 724C1235.47 725.876 1241.18 725 1246 725C1241.53 723.124 1235.82 724 1231 724z"/>
    <path style="fill:#829b3c; stroke:none;" d="M1246 724C1248.61 725.098 1251.16 724.993 1254 725C1251.39 723.902 1248.84 724.007 1246 724z"/>
    <path style="fill:#2d3716; stroke:none;" d="M1110 725C1112.05 725.874 1113.75 725.953 1116 726C1113.95 725.126 1112.25 725.047 1110 725z"/>
    <path style="fill:#313a16; stroke:none;" d="M1253 725C1257.22 726.769 1262.46 726 1267 726C1262.78 724.231 1257.54 725 1253 725z"/>
    <path style="fill:#4f5e25; stroke:none;" d="M1267 725C1269.61 726.098 1272.16 725.993 1275 726C1272.39 724.902 1269.84 725.007 1267 725z"/>
    <path style="fill:#7e9739; stroke:none;" d="M1275 725C1278.96 726.661 1283.74 726 1288 726C1284.04 724.339 1279.26 725 1275 725z"/>
    <path style="fill:#3f4d1d; stroke:none;" d="M1135 726C1136.25 726.685 1136.55 726.749 1138 727C1136.75 726.315 1136.45 726.251 1135 726z"/>
    <path style="fill:#131608; stroke:none;" d="M1138 726C1139.51 726.683 1140.31 726.826 1142 727C1140.49 726.317 1139.69 726.174 1138 726z"/>
    <path style="fill:#232b11; stroke:none;" d="M1142 726C1143.51 726.683 1144.31 726.826 1146 727C1144.49 726.317 1143.69 726.174 1142 726z"/>
    <path style="fill:#101308; stroke:none;" d="M1150 726C1153.16 727.327 1156.59 727 1160 727C1156.84 725.673 1153.41 726 1150 726z"/>
    <path style="fill:#20250f; stroke:none;" d="M1288 726C1290.05 726.874 1291.75 726.953 1294 727C1291.95 726.126 1290.25 726.047 1288 726z"/>
    <path style="fill:#3c481c; stroke:none;" d="M1294.67 726.333C1294.22 726.778 1295.28 726.722 1295.33 726.667C1295.78 726.222 1294.72 726.278 1294.67 726.333z"/>
    <path style="fill:#5d702b; stroke:none;" d="M1296 726C1299.16 727.327 1302.59 727 1306 727C1302.84 725.673 1299.41 726 1296 726z"/>
    <path style="fill:#829d3b; stroke:none;" d="M1306 726C1308.89 727.213 1311.87 726.998 1315 727C1312.11 725.787 1309.13 726.002 1306 726z"/>
    <path style="fill:#4e5b23; stroke:none;" d="M1142 727C1143.51 727.683 1144.31 727.826 1146 728C1144.49 727.317 1143.69 727.174 1142 727z"/>
    <path style="fill:#303a16; stroke:none;" d="M1150 727C1153.16 728.327 1156.59 728 1160 728C1156.84 726.673 1153.41 727 1150 727z"/>
    <path style="fill:#434403; stroke:none;" d="M1168 727C1169.51 727.683 1170.31 727.826 1172 728C1170.49 727.317 1169.69 727.174 1168 727z"/>
    <path style="fill:#2d3814; stroke:none;" d="M1172 727C1175.16 728.327 1178.59 728 1182 728C1178.84 726.673 1175.41 727 1172 727z"/>
    <path style="fill:#101408; stroke:none;" d="M1168 728C1173.31 730.227 1180.46 729.029 1186 728C1181.04 726.222 1173.42 728 1168 728z"/>
    <path style="fill:#2c3313; stroke:none;" d="M1313 727C1314.51 727.683 1315.31 727.826 1317 728C1315.49 727.317 1314.69 727.174 1313 727z"/>
    <path style="fill:#8f9535; stroke:none;" d="M1183 728C1184.51 728.683 1185.31 728.826 1187 729C1185.49 728.317 1184.69 728.174 1183 728z"/>
    <path style="fill:#668429; stroke:none;" d="M1187.67 728.333C1187.22 728.777 1188.28 728.723 1188.33 728.667C1188.78 728.222 1187.72 728.278 1187.67 728.333z"/>
    <path style="fill:#3b5b2e; stroke:none;" d="M1191 728C1193.61 729.098 1196.16 728.993 1199 729C1196.39 727.902 1193.84 728.007 1191 728z"/>
    <path style="fill:#0b9004; stroke:none;" d="M1200 728L1201 729L1200 728z"/>
    <path style="fill:#445419; stroke:none;" d="M1201 728L1202 729L1201 728z"/>
    <path style="fill:#252d10; stroke:none;" d="M1205 728C1207.61 729.098 1210.16 728.993 1213 729C1210.39 727.902 1207.84 728.007 1205 728z"/>
    <path style="fill:#0c1006; stroke:none;" d="M1213 728C1218.02 730.107 1227.56 730.553 1233 730C1227.12 726.873 1219.48 728 1213 728z"/>
    <path style="fill:#4d5c24; stroke:none;" d="M1208 729C1210.05 729.874 1211.75 729.953 1214 730C1211.95 729.126 1210.25 729.047 1208 729z"/>
    <path style="fill:#303917; stroke:none;" d="M1214 729C1217.7 730.552 1222.02 730 1226 730C1222.3 728.448 1217.98 729 1214 729z"/>
    <path style="fill:#353500; stroke:none;" d="M1237.67 729.333C1237.22 729.777 1238.28 729.722 1238.33 729.667C1238.78 729.222 1237.72 729.278 1237.67 729.333z"/>
    <path style="fill:#2e3817; stroke:none;" d="M1244 729C1245.51 729.683 1246.31 729.826 1248 730C1246.49 729.317 1245.69 729.174 1244 729z"/>
    <path style="fill:#0f1107; stroke:none;" d="M1248 731L1254 730C1251.47 728.96 1249.82 728.907 1248 731z"/>
    <path style="fill:#6b6d07; stroke:none;" d="M1247 730L1248 731L1247 730z"/>
    <path style="fill:#404120; stroke:none;" d="M1253 730L1254 731L1253 730z"/>
    <path style="fill:#6d8734; stroke:none;" d="M1256.67 730.333C1256.22 730.777 1257.28 730.723 1257.33 730.667C1257.78 730.222 1256.72 730.278 1256.67 730.333z"/>
    <path style="fill:#139405; stroke:none;" d="M1258 730L1259 731L1258 730z"/>
    <path style="fill:#4e5a1f; stroke:none;" d="M1259 730C1260.51 730.683 1261.31 730.826 1263 731C1261.49 730.317 1260.69 730.174 1259 730z"/>
    <path style="fill:#515103; stroke:none;" d="M1268 730C1269.25 730.685 1269.55 730.749 1271 731C1269.75 730.315 1269.45 730.251 1268 730z"/>
    <path style="fill:#1d230e; stroke:none;" d="M1271 730C1274.14 731.474 1277.59 731.472 1281 732C1278.57 729.218 1274.51 730 1271 730z"/>
    <path style="fill:#171700; stroke:none;" d="M1283 730L1283 732L1285 732L1285 730L1283 730z"/>
    <path style="fill:#465524; stroke:none;" d="M1277 731C1278.25 731.685 1278.55 731.749 1280 732C1278.75 731.315 1278.45 731.251 1277 731z"/>
    <path style="fill:#363504; stroke:none;" d="M1291.67 731.333C1291.22 731.778 1292.28 731.722 1292.33 731.667C1292.78 731.222 1291.72 731.278 1291.67 731.333z"/>
    <path style="fill:#6c8926; stroke:none;" d="M1295 731C1296.25 731.685 1296.55 731.749 1298 732C1296.75 731.315 1296.45 731.251 1295 731z"/>
    <path style="fill:#187e0c; stroke:none;" d="M1298 731L1299 732L1298 731z"/>
    <path style="fill:#505426; stroke:none;" d="M1303 731C1304.51 731.683 1305.31 731.826 1307 732C1305.49 731.317 1304.69 731.174 1303 731z"/>
    <path style="fill:#313916; stroke:none;" d="M1311 731C1313.05 731.874 1314.75 731.953 1317 732C1314.95 731.126 1313.25 731.047 1311 731z"/>
    <path style="fill:#1b2208; stroke:none;" d="M1295 732C1296.51 732.683 1297.31 732.826 1299 733C1297.49 732.317 1296.69 732.174 1295 732z"/>
    <path style="fill:#191a0c; stroke:none;" d="M1303 732C1304.51 732.683 1305.31 732.826 1307 733C1305.49 732.317 1304.69 732.174 1303 732z"/>
</svg>