<svg version="1.1" viewBox="0.0 0.0 960.0 960.0" fill="none" stroke="none" stroke-linecap="square" stroke-miterlimit="10" xmlns:xlink="http://www.w3.org/1999/xlink" xmlns="http://www.w3.org/2000/svg"><clipPath id="p.0"><path d="m0 0l960.0 0l0 960.0l-960.0 0l0 -960.0z" clip-rule="nonzero"/></clipPath><g clip-path="url(#p.0)"><path fill="#000000" fill-opacity="0.0" d="m0 0l960.0 0l0 960.0l-960.0 0z" fill-rule="evenodd"/><path fill="#d0e0e3" d="m905.9256 37.069817l-426.4796 445.76376l-421.89835 -445.76376z" fill-rule="evenodd"/><path stroke="#000000" stroke-width="1.0" stroke-linejoin="round" stroke-linecap="butt" d="m905.9256 37.069817l-426.4796 445.76376l-421.89835 -445.76376z" fill-rule="evenodd"/><path fill="#d0e0e3" d="m53.27269 925.54456l428.9179 -445.7638l424.31046 445.7638z" fill-rule="evenodd"/><path stroke="#000000" stroke-width="1.0" stroke-linejoin="round" stroke-linecap="butt" d="m53.27269 925.54456l428.9179 -445.7638l424.31046 445.7638z" fill-rule="evenodd"/><path fill="#000000" fill-opacity="0.0" d="m53.07874 34.451443l853.2913 0" fill-rule="evenodd"/><path stroke="#000000" stroke-width="4.0" stroke-linejoin="round" stroke-linecap="butt" d="m53.07874 34.451443l853.2913 0" fill-rule="evenodd"/><path fill="#000000" fill-opacity="0.0" d="m53.1887 34.451443l853.2913 890.6457" fill-rule="evenodd"/><path stroke="#000000" stroke-width="4.0" stroke-linejoin="round" stroke-linecap="butt" d="m53.1887 34.451443l853.2913 890.6457" fill-rule="evenodd"/><path fill="#000000" fill-opacity="0.0" d="m906.5001 34.451443l-853.22833 888.9449" fill-rule="evenodd"/><path stroke="#000000" stroke-width="4.0" stroke-linejoin="round" stroke-linecap="butt" d="m906.5001 34.451443l-853.22833 888.9449" fill-rule="evenodd"/><path fill="#000000" fill-opacity="0.0" d="m53.1887 925.1101l853.73224 0.3779297" fill-rule="evenodd"/><path stroke="#000000" stroke-width="4.0" stroke-linejoin="round" stroke-linecap="butt" d="m53.1887 925.1101l853.73224 0.3779297" fill-rule="evenodd"/><path fill="#000000" fill-opacity="0.0" d="m479.84442 34.451443l0 890.6457" fill-rule="evenodd"/><path stroke="#000000" stroke-width="1.0" stroke-linejoin="round" stroke-linecap="butt" d="m479.84442 34.451443l0 890.6457" fill-rule="evenodd"/><path fill="#000000" fill-opacity="0.0" d="m195.40727 179.80327l570.58264 0" fill-rule="evenodd"/><path stroke="#000000" stroke-width="4.0" stroke-linejoin="round" stroke-linecap="butt" d="m195.40727 179.80327l570.58264 0" fill-rule="evenodd"/><path fill="#000000" fill-opacity="0.0" d="m337.31323 331.35303l283.1496 0" fill-rule="evenodd"/><path stroke="#000000" stroke-width="4.0" stroke-linejoin="round" stroke-linecap="butt" d="m337.31323 331.35303l283.1496 0" fill-rule="evenodd"/><path fill="#000000" fill-opacity="0.0" d="m339.40125 630.8102l286.2677 -0.72442627" fill-rule="evenodd"/><path stroke="#000000" stroke-width="4.0" stroke-linejoin="round" stroke-linecap="butt" d="m339.40125 630.8102l286.2677 -0.72442627" fill-rule="evenodd"/><path fill="#000000" fill-opacity="0.0" d="m192.52838 781.3372l578.3307 2.2677002" fill-rule="evenodd"/><path stroke="#000000" stroke-width="4.0" stroke-linejoin="round" stroke-linecap="butt" d="m192.52838 781.3372l578.3307 2.2677002" fill-rule="evenodd"/><path fill="#000000" fill-opacity="0.0" d="m478.237 37.07365l2.1732178 888.4724" fill-rule="evenodd"/><path stroke="#000000" stroke-width="4.0" stroke-linejoin="round" stroke-linecap="butt" d="m478.237 37.07365l2.1732178 888.4724" fill-rule="evenodd"/></g></svg>