<svg version="1.1" viewBox="0.0 0.0 887.0577427821522 881.01312335958" fill="none" stroke="none" stroke-linecap="square" stroke-miterlimit="10" xmlns:xlink="http://www.w3.org/1999/xlink" xmlns="http://www.w3.org/2000/svg"><clipPath id="p.0"><path d="m0 0l887.05774 0l0 881.0131l-887.05774 0l0 -881.0131z" clip-rule="nonzero"/></clipPath><g clip-path="url(#p.0)"><path fill="#000000" fill-opacity="0.0" d="m0 0l887.05774 0l0 881.0131l-887.05774 0z" fill-rule="evenodd"/><path fill="#cfe2f3" d="m56.02362 822.4068l384.4882 -382.77164l384.4882 382.77164z" fill-rule="evenodd"/><path stroke="#434343" stroke-width="4.0" stroke-linejoin="round" stroke-linecap="butt" d="m56.02362 822.4068l384.4882 -382.77164l384.4882 382.77164z" fill-rule="evenodd"/><path fill="#cfe2f3" d="m825.0 56.863518l-384.4882 382.77164l-384.4882 -382.77164z" fill-rule="evenodd"/><path stroke="#434343" stroke-width="4.0" stroke-linejoin="round" stroke-linecap="butt" d="m825.0 56.863518l-384.4882 382.77164l-384.4882 -382.77164z" fill-rule="evenodd"/><path fill="#000000" fill-opacity="0.0" d="m248.26772 248.24934l384.50397 0" fill-rule="evenodd"/><path stroke="#434343" stroke-width="4.0" stroke-linejoin="round" stroke-linecap="butt" d="m248.26772 248.24934l384.50397 0" fill-rule="evenodd"/><path fill="#000000" fill-opacity="0.0" d="m248.2466 632.53613l384.50397 0" fill-rule="evenodd"/><path stroke="#434343" stroke-width="4.0" stroke-linejoin="round" stroke-linecap="butt" d="m248.2466 632.53613l384.50397 0" fill-rule="evenodd"/><path fill="#000000" fill-opacity="0.0" d="m440.5118 56.863518l0 765.5433" fill-rule="evenodd"/><path stroke="#434343" stroke-width="4.0" stroke-linejoin="round" stroke-linecap="butt" d="m440.5118 56.863518l0 765.5433" fill-rule="evenodd"/></g></svg>