<svg version="1.1" viewBox="0.0 0.0 960.0 1728.0" fill="none" stroke="none" stroke-linecap="square" stroke-miterlimit="10" xmlns:xlink="http://www.w3.org/1999/xlink" xmlns="http://www.w3.org/2000/svg"><clipPath id="p.0"><path d="m0 0l960.0 0l0 1728.0l-960.0 0l0 -1728.0z" clip-rule="nonzero"/></clipPath><g clip-path="url(#p.0)"><path fill="#000000" fill-opacity="0.0" d="m0 0l960.0 0l0 1728.0l-960.0 0z" fill-rule="evenodd"/><path fill="#cfe2f3" d="m240.0 816.0l0 0c0 -26.509705 21.490326 -48.0 48.0 -48.0l0 0c12.730377 0 24.939392 5.057129 33.94113 14.058838c9.0017395 9.00177 14.058868 21.210754 14.058868 33.941162l0 0c0 26.509644 -21.490326 48.0 -48.0 48.0l0 0c-26.509674 0 -48.0 -21.490356 -48.0 -48.0z" fill-rule="evenodd"/><path stroke="#000000" stroke-width="8.0" stroke-linejoin="round" stroke-linecap="butt" d="m240.0 816.0l0 0c0 -26.509705 21.490326 -48.0 48.0 -48.0l0 0c12.730377 0 24.939392 5.057129 33.94113 14.058838c9.0017395 9.00177 14.058868 21.210754 14.058868 33.941162l0 0c0 26.509644 -21.490326 48.0 -48.0 48.0l0 0c-26.509674 0 -48.0 -21.490356 -48.0 -48.0z" fill-rule="evenodd"/><path fill="#cfe2f3" d="m431.9987 816.0l0 0c0 -26.509705 21.490326 -48.0 48.0 -48.0l0 0c12.730377 0 24.939392 5.057129 33.94113 14.058838c9.00177 9.00177 14.058838 21.210754 14.058838 33.941162l0 0c0 26.509644 -21.490295 48.0 -47.99997 48.0l0 0c-26.509674 0 -48.0 -21.490356 -48.0 -48.0z" fill-rule="evenodd"/><path stroke="#000000" stroke-width="8.0" stroke-linejoin="round" stroke-linecap="butt" d="m431.9987 816.0l0 0c0 -26.509705 21.490326 -48.0 48.0 -48.0l0 0c12.730377 0 24.939392 5.057129 33.94113 14.058838c9.00177 9.00177 14.058838 21.210754 14.058838 33.941162l0 0c0 26.509644 -21.490295 48.0 -47.99997 48.0l0 0c-26.509674 0 -48.0 -21.490356 -48.0 -48.0z" fill-rule="evenodd"/><path fill="#cfe2f3" d="m623.99866 816.0l0 0c0 -26.509705 21.490356 -48.0 48.0 -48.0l0 0c12.730408 0 24.939392 5.057129 33.941162 14.058838c9.00177 9.00177 14.058838 21.210754 14.058838 33.941162l0 0c0 26.509644 -21.490295 48.0 -48.0 48.0l0 0c-26.509644 0 -48.0 -21.490356 -48.0 -48.0z" fill-rule="evenodd"/><path stroke="#000000" stroke-width="8.0" stroke-linejoin="round" stroke-linecap="butt" d="m623.99866 816.0l0 0c0 -26.509705 21.490356 -48.0 48.0 -48.0l0 0c12.730408 0 24.939392 5.057129 33.941162 14.058838c9.00177 9.00177 14.058838 21.210754 14.058838 33.941162l0 0c0 26.509644 -21.490295 48.0 -48.0 48.0l0 0c-26.509644 0 -48.0 -21.490356 -48.0 -48.0z" fill-rule="evenodd"/><path fill="#cfe2f3" d="m431.9987 621.80835l0 0c0 -26.509644 21.490326 -48.0 48.0 -48.0l0 0c12.730377 0 24.939392 5.057129 33.94113 14.058899c9.00177 9.00177 14.058838 21.210754 14.058838 33.9411l0 0c0 26.509705 -21.490295 48.0 -47.99997 48.0l0 0c-26.509674 0 -48.0 -21.490295 -48.0 -48.0z" fill-rule="evenodd"/><path stroke="#000000" stroke-width="8.0" stroke-linejoin="round" stroke-linecap="butt" d="m431.9987 621.80835l0 0c0 -26.509644 21.490326 -48.0 48.0 -48.0l0 0c12.730377 0 24.939392 5.057129 33.94113 14.058899c9.00177 9.00177 14.058838 21.210754 14.058838 33.9411l0 0c0 26.509705 -21.490295 48.0 -47.99997 48.0l0 0c-26.509674 0 -48.0 -21.490295 -48.0 -48.0z" fill-rule="evenodd"/><path fill="#cfe2f3" d="m431.9987 47.99998l0 0c0 -26.509668 21.490326 -48.0 48.0 -48.0l0 0c12.730377 0 24.939392 5.0571284 33.94113 14.058875c9.00177 9.001746 14.058838 21.210732 14.058838 33.941124l0 0c0 26.50967 -21.490295 48.000004 -47.99997 48.000004l0 0c-26.509674 0 -48.0 -21.490334 -48.0 -48.000004z" fill-rule="evenodd"/><path stroke="#000000" stroke-width="8.0" stroke-linejoin="round" stroke-linecap="butt" d="m431.9987 47.99998l0 0c0 -26.509668 21.490326 -48.0 48.0 -48.0l0 0c12.730377 0 24.939392 5.0571284 33.94113 14.058875c9.00177 9.001746 14.058838 21.210732 14.058838 33.941124l0 0c0 26.50967 -21.490295 48.000004 -47.99997 48.000004l0 0c-26.509674 0 -48.0 -21.490334 -48.0 -48.000004z" fill-rule="evenodd"/><path fill="#cfe2f3" d="m431.9987 621.80835l0 0c0 -26.509644 21.490326 -48.0 48.0 -48.0l0 0c12.730377 0 24.939392 5.057129 33.94113 14.058899c9.00177 9.00177 14.058838 21.210754 14.058838 33.9411l0 0c0 26.509705 -21.490295 48.0 -47.99997 48.0l0 0c-26.509674 0 -48.0 -21.490295 -48.0 -48.0z" fill-rule="evenodd"/><path stroke="#000000" stroke-width="8.0" stroke-linejoin="round" stroke-linecap="butt" d="m431.9987 621.80835l0 0c0 -26.509644 21.490326 -48.0 48.0 -48.0l0 0c12.730377 0 24.939392 5.057129 33.94113 14.058899c9.00177 9.00177 14.058838 21.210754 14.058838 33.9411l0 0c0 26.509705 -21.490295 48.0 -47.99997 48.0l0 0c-26.509674 0 -48.0 -21.490295 -48.0 -48.0z" fill-rule="evenodd"/><path fill="#cfe2f3" d="m240.0 431.99866l0 0c0 -26.509644 21.490326 -48.0 48.0 -48.0l0 0c12.730377 0 24.939392 5.057129 33.94113 14.058899c9.0017395 9.0017395 14.058868 21.210724 14.058868 33.9411l0 0c0 26.509674 -21.490326 48.0 -48.0 48.0l0 0c-26.509674 0 -48.0 -21.490326 -48.0 -48.0z" fill-rule="evenodd"/><path stroke="#000000" stroke-width="8.0" stroke-linejoin="round" stroke-linecap="butt" d="m240.0 431.99866l0 0c0 -26.509644 21.490326 -48.0 48.0 -48.0l0 0c12.730377 0 24.939392 5.057129 33.94113 14.058899c9.0017395 9.0017395 14.058868 21.210724 14.058868 33.9411l0 0c0 26.509674 -21.490326 48.0 -48.0 48.0l0 0c-26.509674 0 -48.0 -21.490326 -48.0 -48.0z" fill-rule="evenodd"/><path fill="#cfe2f3" d="m431.9987 429.80707l0 0c0 -26.509674 21.490326 -48.0 48.0 -48.0l0 0c12.730377 0 24.939392 5.057129 33.94113 14.058868c9.00177 9.0017395 14.058838 21.210754 14.058838 33.94113l0 0c0 26.509674 -21.490295 48.0 -47.99997 48.0l0 0c-26.509674 0 -48.0 -21.490326 -48.0 -48.0z" fill-rule="evenodd"/><path stroke="#000000" stroke-width="8.0" stroke-linejoin="round" stroke-linecap="butt" d="m431.9987 429.80707l0 0c0 -26.509674 21.490326 -48.0 48.0 -48.0l0 0c12.730377 0 24.939392 5.057129 33.94113 14.058868c9.00177 9.0017395 14.058838 21.210754 14.058838 33.94113l0 0c0 26.509674 -21.490295 48.0 -47.99997 48.0l0 0c-26.509674 0 -48.0 -21.490326 -48.0 -48.0z" fill-rule="evenodd"/><path fill="#cfe2f3" d="m623.99866 431.99866l0 0c0 -26.509644 21.490356 -48.0 48.0 -48.0l0 0c12.730408 0 24.939392 5.057129 33.941162 14.058899c9.00177 9.0017395 14.058838 21.210724 14.058838 33.9411l0 0c0 26.509674 -21.490295 48.0 -48.0 48.0l0 0c-26.509644 0 -48.0 -21.490326 -48.0 -48.0z" fill-rule="evenodd"/><path stroke="#000000" stroke-width="8.0" stroke-linejoin="round" stroke-linecap="butt" d="m623.99866 431.99866l0 0c0 -26.509644 21.490356 -48.0 48.0 -48.0l0 0c12.730408 0 24.939392 5.057129 33.941162 14.058899c9.00177 9.0017395 14.058838 21.210724 14.058838 33.9411l0 0c0 26.509674 -21.490295 48.0 -48.0 48.0l0 0c-26.509644 0 -48.0 -21.490326 -48.0 -48.0z" fill-rule="evenodd"/><path fill="#cfe2f3" d="m240.0 47.99998l0 0c0 -26.509668 21.490326 -48.0 48.0 -48.0l0 0c12.730377 0 24.939392 5.0571284 33.94113 14.058875c9.0017395 9.001746 14.058868 21.210732 14.058868 33.941124l0 0c0 26.50967 -21.490326 48.000004 -48.0 48.000004l0 0c-26.509674 0 -48.0 -21.490334 -48.0 -48.000004z" fill-rule="evenodd"/><path stroke="#000000" stroke-width="8.0" stroke-linejoin="round" stroke-linecap="butt" d="m240.0 47.99998l0 0c0 -26.509668 21.490326 -48.0 48.0 -48.0l0 0c12.730377 0 24.939392 5.0571284 33.94113 14.058875c9.0017395 9.001746 14.058868 21.210732 14.058868 33.941124l0 0c0 26.50967 -21.490326 48.000004 -48.0 48.000004l0 0c-26.509674 0 -48.0 -21.490334 -48.0 -48.000004z" fill-rule="evenodd"/><path fill="#cfe2f3" d="m431.9987 47.99998l0 0c0 -26.509668 21.490326 -48.0 48.0 -48.0l0 0c12.730377 0 24.939392 5.0571284 33.94113 14.058875c9.00177 9.001746 14.058838 21.210732 14.058838 33.941124l0 0c0 26.50967 -21.490295 48.000004 -47.99997 48.000004l0 0c-26.509674 0 -48.0 -21.490334 -48.0 -48.000004z" fill-rule="evenodd"/><path stroke="#000000" stroke-width="8.0" stroke-linejoin="round" stroke-linecap="butt" d="m431.9987 47.99998l0 0c0 -26.509668 21.490326 -48.0 48.0 -48.0l0 0c12.730377 0 24.939392 5.0571284 33.94113 14.058875c9.00177 9.001746 14.058838 21.210732 14.058838 33.941124l0 0c0 26.50967 -21.490295 48.000004 -47.99997 48.000004l0 0c-26.509674 0 -48.0 -21.490334 -48.0 -48.000004z" fill-rule="evenodd"/><path fill="#cfe2f3" d="m623.99866 47.99998l0 0c0 -26.509668 21.490356 -48.0 48.0 -48.0l0 0c12.730408 0 24.939392 5.0571284 33.941162 14.058875c9.00177 9.001746 14.058838 21.210732 14.058838 33.941124l0 0c0 26.50967 -21.490295 48.000004 -48.0 48.000004l0 0c-26.509644 0 -48.0 -21.490334 -48.0 -48.000004z" fill-rule="evenodd"/><path stroke="#000000" stroke-width="8.0" stroke-linejoin="round" stroke-linecap="butt" d="m623.99866 47.99998l0 0c0 -26.509668 21.490356 -48.0 48.0 -48.0l0 0c12.730408 0 24.939392 5.0571284 33.941162 14.058875c9.00177 9.001746 14.058838 21.210732 14.058838 33.941124l0 0c0 26.50967 -21.490295 48.000004 -48.0 48.000004l0 0c-26.509644 0 -48.0 -21.490334 -48.0 -48.000004z" fill-rule="evenodd"/><path fill="#cfe2f3" d="m431.9987 237.80838l0 0c0 -26.509674 21.490326 -48.0 48.0 -48.0l0 0c12.730377 0 24.939392 5.057129 33.94113 14.058868c9.00177 9.001755 14.058838 21.21074 14.058838 33.94113l0 0c0 26.509674 -21.490295 48.0 -47.99997 48.0l0 0c-26.509674 0 -48.0 -21.490326 -48.0 -48.0z" fill-rule="evenodd"/><path stroke="#000000" stroke-width="8.0" stroke-linejoin="round" stroke-linecap="butt" d="m431.9987 237.80838l0 0c0 -26.509674 21.490326 -48.0 48.0 -48.0l0 0c12.730377 0 24.939392 5.057129 33.94113 14.058868c9.00177 9.001755 14.058838 21.21074 14.058838 33.94113l0 0c0 26.509674 -21.490295 48.0 -47.99997 48.0l0 0c-26.509674 0 -48.0 -21.490326 -48.0 -48.0z" fill-rule="evenodd"/><path fill="#000000" fill-opacity="0.0" d="m336.0 47.99998l96.0 0" fill-rule="evenodd"/><path stroke="#000000" stroke-width="4.0" stroke-linejoin="round" stroke-linecap="butt" d="m336.0 47.99998l96.0 0" fill-rule="evenodd"/><path fill="#000000" fill-opacity="0.0" d="m527.99866 47.99998l96.0 0" fill-rule="evenodd"/><path stroke="#000000" stroke-width="4.0" stroke-linejoin="round" stroke-linecap="butt" d="m527.99866 47.99998l96.0 0" fill-rule="evenodd"/><path fill="#000000" fill-opacity="0.0" d="m479.9987 95.999985l0 93.79527" fill-rule="evenodd"/><path stroke="#000000" stroke-width="4.0" stroke-linejoin="round" stroke-linecap="butt" d="m479.9987 95.999985l0 93.79527" fill-rule="evenodd"/><path fill="#000000" fill-opacity="0.0" d="m479.9987 285.80838l0 96.0" fill-rule="evenodd"/><path stroke="#000000" stroke-width="4.0" stroke-linejoin="round" stroke-linecap="butt" d="m479.9987 285.80838l0 96.0" fill-rule="evenodd"/><path fill="#000000" fill-opacity="0.0" d="m513.9398 271.7495l124.12598 126.299194" fill-rule="evenodd"/><path stroke="#000000" stroke-width="4.0" stroke-linejoin="round" stroke-linecap="butt" d="m513.9398 271.7495l124.12598 126.299194" fill-rule="evenodd"/><path fill="#000000" fill-opacity="0.0" d="m446.05756 271.7495l-124.12598 126.299194" fill-rule="evenodd"/><path stroke="#000000" stroke-width="4.0" stroke-linejoin="round" stroke-linecap="butt" d="m446.05756 271.7495l-124.12598 126.299194" fill-rule="evenodd"/><path fill="#000000" fill-opacity="0.0" d="m321.94113 465.9398l124.12598 121.921295" fill-rule="evenodd"/><path stroke="#000000" stroke-width="4.0" stroke-linejoin="round" stroke-linecap="butt" d="m321.94113 465.9398l124.12598 121.921295" fill-rule="evenodd"/><path fill="#000000" fill-opacity="0.0" d="m479.9987 573.80835l0 -95.99997" fill-rule="evenodd"/><path stroke="#000000" stroke-width="4.0" stroke-linejoin="round" stroke-linecap="butt" d="m479.9987 573.80835l0 -95.99997" fill-rule="evenodd"/><path fill="#000000" fill-opacity="0.0" d="m513.9398 587.86725l124.12598 -121.921265" fill-rule="evenodd"/><path stroke="#000000" stroke-width="4.0" stroke-linejoin="round" stroke-linecap="butt" d="m513.9398 587.86725l124.12598 -121.921265" fill-rule="evenodd"/><path fill="#000000" fill-opacity="0.0" d="m479.9987 669.80835l0 98.20477" fill-rule="evenodd"/><path stroke="#000000" stroke-width="4.0" stroke-linejoin="round" stroke-linecap="butt" d="m479.9987 669.80835l0 98.20477" fill-rule="evenodd"/><path fill="#000000" fill-opacity="0.0" d="m336.0 816.0l96.0 0" fill-rule="evenodd"/><path stroke="#000000" stroke-width="4.0" stroke-linejoin="round" stroke-linecap="butt" d="m336.0 816.0l96.0 0" fill-rule="evenodd"/><path fill="#000000" fill-opacity="0.0" d="m527.99866 816.0l96.0 0" fill-rule="evenodd"/><path stroke="#000000" stroke-width="4.0" stroke-linejoin="round" stroke-linecap="butt" d="m527.99866 816.0l96.0 0" fill-rule="evenodd"/></g></svg>