<svg version="1.1" viewBox="0.0 0.0 240.0 432.0" fill="none" stroke="none" stroke-linecap="square" stroke-miterlimit="10" xmlns:xlink="http://www.w3.org/1999/xlink" xmlns="http://www.w3.org/2000/svg"><clipPath id="p.0"><path d="m0 0l240.0 0l0 432.0l-240.0 0l0 -432.0z" clip-rule="nonzero"/></clipPath><g clip-path="url(#p.0)"><path fill="#000000" fill-opacity="0.0" d="m0 0l240.0 0l0 432.0l-240.0 0z" fill-rule="evenodd"/><path fill="#cfe2f3" d="m1.0498687E-6 408.0l0 0c0 -13.254822 10.745166 -24.0 24.0 -24.0l0 0c6.3651943 0 12.46969 2.5285645 16.97056 7.0294495c4.5008736 4.5008545 7.029438 10.605347 7.029438 16.97055l0 0c0 13.254822 -10.745167 24.0 -23.999998 24.0l0 0c-13.254835 0 -24.0 -10.745178 -24.0 -24.0z" fill-rule="evenodd"/><path stroke="#000000" stroke-width="4.0" stroke-linejoin="round" stroke-linecap="butt" d="m1.0498687E-6 408.0l0 0c0 -13.254822 10.745166 -24.0 24.0 -24.0l0 0c6.3651943 0 12.46969 2.5285645 16.97056 7.0294495c4.5008736 4.5008545 7.029438 10.605347 7.029438 16.97055l0 0c0 13.254822 -10.745167 24.0 -23.999998 24.0l0 0c-13.254835 0 -24.0 -10.745178 -24.0 -24.0z" fill-rule="evenodd"/><path fill="#cfe2f3" d="m95.999344 408.0l0 0c0 -13.254822 10.745171 -24.0 24.0 -24.0l0 0c6.365196 0 12.469696 2.5285645 16.970566 7.0294495c4.5008698 4.5008545 7.029434 10.605347 7.029434 16.97055l0 0c0 13.254822 -10.745163 24.0 -24.0 24.0l0 0c-13.254829 0 -24.0 -10.745178 -24.0 -24.0z" fill-rule="evenodd"/><path stroke="#000000" stroke-width="4.0" stroke-linejoin="round" stroke-linecap="butt" d="m95.999344 408.0l0 0c0 -13.254822 10.745171 -24.0 24.0 -24.0l0 0c6.365196 0 12.469696 2.5285645 16.970566 7.0294495c4.5008698 4.5008545 7.029434 10.605347 7.029434 16.97055l0 0c0 13.254822 -10.745163 24.0 -24.0 24.0l0 0c-13.254829 0 -24.0 -10.745178 -24.0 -24.0z" fill-rule="evenodd"/><path fill="#cfe2f3" d="m191.99934 408.0l0 0c0 -13.254822 10.745163 -24.0 24.0 -24.0l0 0c6.365204 0 12.469696 2.5285645 16.970566 7.0294495c4.5008698 4.5008545 7.029434 10.605347 7.029434 16.97055l0 0c0 13.254822 -10.745163 24.0 -24.0 24.0l0 0c-13.254837 0 -24.0 -10.745178 -24.0 -24.0z" fill-rule="evenodd"/><path stroke="#000000" stroke-width="4.0" stroke-linejoin="round" stroke-linecap="butt" d="m191.99934 408.0l0 0c0 -13.254822 10.745163 -24.0 24.0 -24.0l0 0c6.365204 0 12.469696 2.5285645 16.970566 7.0294495c4.5008698 4.5008545 7.029434 10.605347 7.029434 16.97055l0 0c0 13.254822 -10.745163 24.0 -24.0 24.0l0 0c-13.254837 0 -24.0 -10.745178 -24.0 -24.0z" fill-rule="evenodd"/><path fill="#cfe2f3" d="m95.999344 311.45013l0 0c0 -13.254852 10.745171 -24.0 24.0 -24.0l0 0c6.365196 0 12.469696 2.5285645 16.970566 7.0294495c4.5008698 4.5008545 7.029434 10.605347 7.029434 16.97055l0 0c0 13.254822 -10.745163 24.0 -24.0 24.0l0 0c-13.254829 0 -24.0 -10.745178 -24.0 -24.0z" fill-rule="evenodd"/><path stroke="#000000" stroke-width="4.0" stroke-linejoin="round" stroke-linecap="butt" d="m95.999344 311.45013l0 0c0 -13.254852 10.745171 -24.0 24.0 -24.0l0 0c6.365196 0 12.469696 2.5285645 16.970566 7.0294495c4.5008698 4.5008545 7.029434 10.605347 7.029434 16.97055l0 0c0 13.254822 -10.745163 24.0 -24.0 24.0l0 0c-13.254829 0 -24.0 -10.745178 -24.0 -24.0z" fill-rule="evenodd"/><path fill="#cfe2f3" d="m1.0498687E-6 215.99934l0 0c0 -13.254837 10.745166 -24.0 24.0 -24.0l0 0c6.3651943 0 12.46969 2.5285645 16.97056 7.029434c4.5008736 4.5008698 7.029438 10.605377 7.029438 16.970566l0 0c0 13.254837 -10.745167 24.0 -23.999998 24.0l0 0c-13.254835 0 -24.0 -10.745163 -24.0 -24.0z" fill-rule="evenodd"/><path stroke="#000000" stroke-width="4.0" stroke-linejoin="round" stroke-linecap="butt" d="m1.0498687E-6 215.99934l0 0c0 -13.254837 10.745166 -24.0 24.0 -24.0l0 0c6.3651943 0 12.46969 2.5285645 16.97056 7.029434c4.5008736 4.5008698 7.029438 10.605377 7.029438 16.970566l0 0c0 13.254837 -10.745167 24.0 -23.999998 24.0l0 0c-13.254835 0 -24.0 -10.745163 -24.0 -24.0z" fill-rule="evenodd"/><path fill="#cfe2f3" d="m95.999344 214.90355l0 0c0 -13.254837 10.745171 -24.0 24.0 -24.0l0 0c6.365196 0 12.469696 2.5285645 16.970566 7.029434c4.5008698 4.5008698 7.029434 10.605362 7.029434 16.970566l0 0c0 13.254822 -10.745163 24.0 -24.0 24.0l0 0c-13.254829 0 -24.0 -10.745178 -24.0 -24.0z" fill-rule="evenodd"/><path stroke="#000000" stroke-width="4.0" stroke-linejoin="round" stroke-linecap="butt" d="m95.999344 214.90355l0 0c0 -13.254837 10.745171 -24.0 24.0 -24.0l0 0c6.365196 0 12.469696 2.5285645 16.970566 7.029434c4.5008698 4.5008698 7.029434 10.605362 7.029434 16.970566l0 0c0 13.254822 -10.745163 24.0 -24.0 24.0l0 0c-13.254829 0 -24.0 -10.745178 -24.0 -24.0z" fill-rule="evenodd"/><path fill="#cfe2f3" d="m191.99934 215.99934l0 0c0 -13.254837 10.745163 -24.0 24.0 -24.0l0 0c6.365204 0 12.469696 2.5285645 16.970566 7.029434c4.5008698 4.5008698 7.029434 10.605377 7.029434 16.970566l0 0c0 13.254837 -10.745163 24.0 -24.0 24.0l0 0c-13.254837 0 -24.0 -10.745163 -24.0 -24.0z" fill-rule="evenodd"/><path stroke="#000000" stroke-width="4.0" stroke-linejoin="round" stroke-linecap="butt" d="m191.99934 215.99934l0 0c0 -13.254837 10.745163 -24.0 24.0 -24.0l0 0c6.365204 0 12.469696 2.5285645 16.970566 7.029434c4.5008698 4.5008698 7.029434 10.605377 7.029434 16.970566l0 0c0 13.254837 -10.745163 24.0 -24.0 24.0l0 0c-13.254837 0 -24.0 -10.745163 -24.0 -24.0z" fill-rule="evenodd"/><path fill="#cfe2f3" d="m1.0498687E-6 24.0l0 0c0 -13.254834 10.745166 -24.0 24.0 -24.0l0 0c6.3651943 0 12.46969 2.5285642 16.97056 7.029437c4.5008736 4.5008736 7.029438 10.605367 7.029438 16.970562l0 0c0 13.254833 -10.745167 24.0 -23.999998 24.0l0 0c-13.254835 0 -24.0 -10.745167 -24.0 -24.0z" fill-rule="evenodd"/><path stroke="#000000" stroke-width="4.0" stroke-linejoin="round" stroke-linecap="butt" d="m1.0498687E-6 24.0l0 0c0 -13.254834 10.745166 -24.0 24.0 -24.0l0 0c6.3651943 0 12.46969 2.5285642 16.97056 7.029437c4.5008736 4.5008736 7.029438 10.605367 7.029438 16.970562l0 0c0 13.254833 -10.745167 24.0 -23.999998 24.0l0 0c-13.254835 0 -24.0 -10.745167 -24.0 -24.0z" fill-rule="evenodd"/><path fill="#cfe2f3" d="m95.999344 23.994751l0 0c0 -13.254834 10.745171 -24.0 24.0 -24.0l0 0c6.365196 0 12.469696 2.528564 16.970566 7.0294375c4.5008698 4.5008726 7.029434 10.605367 7.029434 16.970562l0 0c0 13.254833 -10.745163 24.0 -24.0 24.0l0 0c-13.254829 0 -24.0 -10.745167 -24.0 -24.0z" fill-rule="evenodd"/><path stroke="#000000" stroke-width="4.0" stroke-linejoin="round" stroke-linecap="butt" d="m95.999344 23.994751l0 0c0 -13.254834 10.745171 -24.0 24.0 -24.0l0 0c6.365196 0 12.469696 2.528564 16.970566 7.0294375c4.5008698 4.5008726 7.029434 10.605367 7.029434 16.970562l0 0c0 13.254833 -10.745163 24.0 -24.0 24.0l0 0c-13.254829 0 -24.0 -10.745167 -24.0 -24.0z" fill-rule="evenodd"/><path fill="#cfe2f3" d="m191.99934 24.0l0 0c0 -13.254834 10.745163 -24.0 24.0 -24.0l0 0c6.365204 0 12.469696 2.5285642 16.970566 7.029437c4.5008698 4.5008736 7.029434 10.605367 7.029434 16.970562l0 0c0 13.254833 -10.745163 24.0 -24.0 24.0l0 0c-13.254837 0 -24.0 -10.745167 -24.0 -24.0z" fill-rule="evenodd"/><path stroke="#000000" stroke-width="4.0" stroke-linejoin="round" stroke-linecap="butt" d="m191.99934 24.0l0 0c0 -13.254834 10.745163 -24.0 24.0 -24.0l0 0c6.365204 0 12.469696 2.5285642 16.970566 7.029437c4.5008698 4.5008736 7.029434 10.605367 7.029434 16.970562l0 0c0 13.254833 -10.745163 24.0 -24.0 24.0l0 0c-13.254837 0 -24.0 -10.745167 -24.0 -24.0z" fill-rule="evenodd"/><path fill="#cfe2f3" d="m95.999344 118.9042l0 0c0 -13.254829 10.745171 -24.0 24.0 -24.0l0 0c6.365196 0 12.469696 2.5285645 16.970566 7.029442c4.5008698 4.5008698 7.029434 10.605362 7.029434 16.970558l0 0c0 13.254829 -10.745163 24.000008 -24.0 24.000008l0 0c-13.254829 0 -24.0 -10.745178 -24.0 -24.000008z" fill-rule="evenodd"/><path stroke="#000000" stroke-width="4.0" stroke-linejoin="round" stroke-linecap="butt" d="m95.999344 118.9042l0 0c0 -13.254829 10.745171 -24.0 24.0 -24.0l0 0c6.365196 0 12.469696 2.5285645 16.970566 7.029442c4.5008698 4.5008698 7.029434 10.605362 7.029434 16.970558l0 0c0 13.254829 -10.745163 24.000008 -24.0 24.000008l0 0c-13.254829 0 -24.0 -10.745178 -24.0 -24.000008z" fill-rule="evenodd"/><path fill="#000000" fill-opacity="0.0" d="m48.0 24.0l48.0 0" fill-rule="evenodd"/><path stroke="#000000" stroke-width="4.0" stroke-linejoin="round" stroke-linecap="butt" d="m48.0 24.0l48.0 0" fill-rule="evenodd"/><path fill="#000000" fill-opacity="0.0" d="m143.99934 23.994751l48.0 0" fill-rule="evenodd"/><path stroke="#000000" stroke-width="4.0" stroke-linejoin="round" stroke-linecap="butt" d="m143.99934 23.994751l48.0 0" fill-rule="evenodd"/><path fill="#000000" fill-opacity="0.0" d="m119.999344 47.99475l0 46.897636" fill-rule="evenodd"/><path stroke="#000000" stroke-width="4.0" stroke-linejoin="round" stroke-linecap="butt" d="m119.999344 47.99475l0 46.897636" fill-rule="evenodd"/><path fill="#000000" fill-opacity="0.0" d="m119.999344 142.9042l0 48.0" fill-rule="evenodd"/><path stroke="#000000" stroke-width="4.0" stroke-linejoin="round" stroke-linecap="butt" d="m119.999344 142.9042l0 48.0" fill-rule="evenodd"/><path fill="#000000" fill-opacity="0.0" d="m136.96991 135.87476l62.04724 63.149612" fill-rule="evenodd"/><path stroke="#000000" stroke-width="4.0" stroke-linejoin="round" stroke-linecap="butt" d="m136.96991 135.87476l62.04724 63.149612" fill-rule="evenodd"/><path fill="#000000" fill-opacity="0.0" d="m103.028786 135.87476l-62.04725 63.149612" fill-rule="evenodd"/><path stroke="#000000" stroke-width="4.0" stroke-linejoin="round" stroke-linecap="butt" d="m103.028786 135.87476l-62.04725 63.149612" fill-rule="evenodd"/><path fill="#000000" fill-opacity="0.0" d="m40.970562 232.96991l62.047245 61.51181" fill-rule="evenodd"/><path stroke="#000000" stroke-width="4.0" stroke-linejoin="round" stroke-linecap="butt" d="m40.970562 232.96991l62.047245 61.51181" fill-rule="evenodd"/><path fill="#000000" fill-opacity="0.0" d="m119.999344 287.45013l0 -48.53543" fill-rule="evenodd"/><path stroke="#000000" stroke-width="4.0" stroke-linejoin="round" stroke-linecap="butt" d="m119.999344 287.45013l0 -48.53543" fill-rule="evenodd"/><path fill="#000000" fill-opacity="0.0" d="m136.96991 294.47958l62.04724 -61.511826" fill-rule="evenodd"/><path stroke="#000000" stroke-width="4.0" stroke-linejoin="round" stroke-linecap="butt" d="m136.96991 294.47958l62.04724 -61.511826" fill-rule="evenodd"/><path fill="#000000" fill-opacity="0.0" d="m119.999344 335.45013l0 48.53543" fill-rule="evenodd"/><path stroke="#000000" stroke-width="4.0" stroke-linejoin="round" stroke-linecap="butt" d="m119.999344 335.45013l0 48.53543" fill-rule="evenodd"/><path fill="#000000" fill-opacity="0.0" d="m48.0 408.0l48.0 0" fill-rule="evenodd"/><path stroke="#000000" stroke-width="4.0" stroke-linejoin="round" stroke-linecap="butt" d="m48.0 408.0l48.0 0" fill-rule="evenodd"/><path fill="#000000" fill-opacity="0.0" d="m143.99934 408.0l48.0 0" fill-rule="evenodd"/><path stroke="#000000" stroke-width="4.0" stroke-linejoin="round" stroke-linecap="butt" d="m143.99934 408.0l48.0 0" fill-rule="evenodd"/></g></svg>