<svg version="1.1" viewBox="0.0 0.0 480.0 864.0" fill="none" stroke="none" stroke-linecap="square" stroke-miterlimit="10" xmlns:xlink="http://www.w3.org/1999/xlink" xmlns="http://www.w3.org/2000/svg"><clipPath id="p.0"><path d="m0 0l480.0 0l0 864.0l-480.0 0l0 -864.0z" clip-rule="nonzero"/></clipPath><g clip-path="url(#p.0)"><path fill="#000000" fill-opacity="0.0" d="m0 0l480.0 0l0 864.0l-480.0 0z" fill-rule="evenodd"/><path fill="#cfe2f3" d="m7.511811E-4 816.0006l0 0c0 -26.509644 21.490332 -48.0 48.0 -48.0l0 0c12.730392 0 24.93938 5.057129 33.941128 14.058899c9.001747 9.001709 14.058868 21.210693 14.058868 33.9411l0 0c0 26.509644 -21.490326 48.0 -47.999996 48.0l0 0c-26.509668 0 -48.0 -21.490356 -48.0 -48.0z" fill-rule="evenodd"/><path stroke="#000000" stroke-width="8.0" stroke-linejoin="round" stroke-linecap="butt" d="m7.511811E-4 816.0006l0 0c0 -26.509644 21.490332 -48.0 48.0 -48.0l0 0c12.730392 0 24.93938 5.057129 33.941128 14.058899c9.001747 9.001709 14.058868 21.210693 14.058868 33.9411l0 0c0 26.509644 -21.490326 48.0 -47.999996 48.0l0 0c-26.509668 0 -48.0 -21.490356 -48.0 -48.0z" fill-rule="evenodd"/><path fill="#cfe2f3" d="m191.99944 816.0006l0 0c0 -26.509644 21.490341 -48.0 48.0 -48.0l0 0c12.730392 0 24.939377 5.057129 33.941116 14.058899c9.00177 9.001709 14.058899 21.210693 14.058899 33.9411l0 0c0 26.509644 -21.490356 48.0 -48.000015 48.0l0 0c-26.509659 0 -48.0 -21.490356 -48.0 -48.0z" fill-rule="evenodd"/><path stroke="#000000" stroke-width="8.0" stroke-linejoin="round" stroke-linecap="butt" d="m191.99944 816.0006l0 0c0 -26.509644 21.490341 -48.0 48.0 -48.0l0 0c12.730392 0 24.939377 5.057129 33.941116 14.058899c9.00177 9.001709 14.058899 21.210693 14.058899 33.9411l0 0c0 26.509644 -21.490356 48.0 -48.000015 48.0l0 0c-26.509659 0 -48.0 -21.490356 -48.0 -48.0z" fill-rule="evenodd"/><path fill="#cfe2f3" d="m383.99945 816.0006l0 0c0 -26.509644 21.490326 -48.0 48.0 -48.0l0 0c12.730377 0 24.939362 5.057129 33.9411 14.058899c9.00177 9.001709 14.058899 21.210693 14.058899 33.9411l0 0c0 26.509644 -21.490356 48.0 -48.0 48.0l0 0c-26.509674 0 -48.0 -21.490356 -48.0 -48.0z" fill-rule="evenodd"/><path stroke="#000000" stroke-width="8.0" stroke-linejoin="round" stroke-linecap="butt" d="m383.99945 816.0006l0 0c0 -26.509644 21.490326 -48.0 48.0 -48.0l0 0c12.730377 0 24.939362 5.057129 33.9411 14.058899c9.00177 9.001709 14.058899 21.210693 14.058899 33.9411l0 0c0 26.509644 -21.490356 48.0 -48.0 48.0l0 0c-26.509674 0 -48.0 -21.490356 -48.0 -48.0z" fill-rule="evenodd"/><path fill="#cfe2f3" d="m191.99944 621.809l0 0c0 -26.509705 21.490341 -48.0 48.0 -48.0l0 0c12.730392 0 24.939377 5.057129 33.941116 14.058838c9.00177 9.00177 14.058899 21.210754 14.058899 33.941162l0 0c0 26.509644 -21.490356 48.0 -48.000015 48.0l0 0c-26.509659 0 -48.0 -21.490356 -48.0 -48.0z" fill-rule="evenodd"/><path stroke="#000000" stroke-width="8.0" stroke-linejoin="round" stroke-linecap="butt" d="m191.99944 621.809l0 0c0 -26.509705 21.490341 -48.0 48.0 -48.0l0 0c12.730392 0 24.939377 5.057129 33.941116 14.058838c9.00177 9.00177 14.058899 21.210754 14.058899 33.941162l0 0c0 26.509644 -21.490356 48.0 -48.000015 48.0l0 0c-26.509659 0 -48.0 -21.490356 -48.0 -48.0z" fill-rule="evenodd"/><path fill="#cfe2f3" d="m191.99944 48.000603l0 0c0 -26.509666 21.490341 -48.0 48.0 -48.0l0 0c12.730392 0 24.939377 5.057128 33.941116 14.058874c9.00177 9.001747 14.058899 21.210735 14.058899 33.941124l0 0c0 26.509666 -21.490356 48.0 -48.000015 48.0l0 0c-26.509659 0 -48.0 -21.490334 -48.0 -48.0z" fill-rule="evenodd"/><path stroke="#000000" stroke-width="8.0" stroke-linejoin="round" stroke-linecap="butt" d="m191.99944 48.000603l0 0c0 -26.509666 21.490341 -48.0 48.0 -48.0l0 0c12.730392 0 24.939377 5.057128 33.941116 14.058874c9.00177 9.001747 14.058899 21.210735 14.058899 33.941124l0 0c0 26.509666 -21.490356 48.0 -48.000015 48.0l0 0c-26.509659 0 -48.0 -21.490334 -48.0 -48.0z" fill-rule="evenodd"/><path fill="#cfe2f3" d="m191.99944 621.809l0 0c0 -26.509705 21.490341 -48.0 48.0 -48.0l0 0c12.730392 0 24.939377 5.057129 33.941116 14.058838c9.00177 9.00177 14.058899 21.210754 14.058899 33.941162l0 0c0 26.509644 -21.490356 48.0 -48.000015 48.0l0 0c-26.509659 0 -48.0 -21.490356 -48.0 -48.0z" fill-rule="evenodd"/><path stroke="#000000" stroke-width="8.0" stroke-linejoin="round" stroke-linecap="butt" d="m191.99944 621.809l0 0c0 -26.509705 21.490341 -48.0 48.0 -48.0l0 0c12.730392 0 24.939377 5.057129 33.941116 14.058838c9.00177 9.00177 14.058899 21.210754 14.058899 33.941162l0 0c0 26.509644 -21.490356 48.0 -48.000015 48.0l0 0c-26.509659 0 -48.0 -21.490356 -48.0 -48.0z" fill-rule="evenodd"/><path fill="#cfe2f3" d="m7.511811E-4 431.9993l0 0c0 -26.509674 21.490332 -48.0 48.0 -48.0l0 0c12.730392 0 24.93938 5.057129 33.941128 14.058868c9.001747 9.0017395 14.058868 21.210724 14.058868 33.94113l0 0c0 26.509674 -21.490326 48.0 -47.999996 48.0l0 0c-26.509668 0 -48.0 -21.490326 -48.0 -48.0z" fill-rule="evenodd"/><path stroke="#000000" stroke-width="8.0" stroke-linejoin="round" stroke-linecap="butt" d="m7.511811E-4 431.9993l0 0c0 -26.509674 21.490332 -48.0 48.0 -48.0l0 0c12.730392 0 24.93938 5.057129 33.941128 14.058868c9.001747 9.0017395 14.058868 21.210724 14.058868 33.94113l0 0c0 26.509674 -21.490326 48.0 -47.999996 48.0l0 0c-26.509668 0 -48.0 -21.490326 -48.0 -48.0z" fill-rule="evenodd"/><path fill="#cfe2f3" d="m191.99944 429.80768l0 0c0 -26.509644 21.490341 -48.0 48.0 -48.0l0 0c12.730392 0 24.939377 5.057129 33.941116 14.058899c9.00177 9.0017395 14.058899 21.210724 14.058899 33.9411l0 0c0 26.509674 -21.490356 48.0 -48.000015 48.0l0 0c-26.509659 0 -48.0 -21.490326 -48.0 -48.0z" fill-rule="evenodd"/><path stroke="#000000" stroke-width="8.0" stroke-linejoin="round" stroke-linecap="butt" d="m191.99944 429.80768l0 0c0 -26.509644 21.490341 -48.0 48.0 -48.0l0 0c12.730392 0 24.939377 5.057129 33.941116 14.058899c9.00177 9.0017395 14.058899 21.210724 14.058899 33.9411l0 0c0 26.509674 -21.490356 48.0 -48.000015 48.0l0 0c-26.509659 0 -48.0 -21.490326 -48.0 -48.0z" fill-rule="evenodd"/><path fill="#cfe2f3" d="m383.99945 431.9993l0 0c0 -26.509674 21.490326 -48.0 48.0 -48.0l0 0c12.730377 0 24.939362 5.057129 33.9411 14.058868c9.00177 9.0017395 14.058899 21.210724 14.058899 33.94113l0 0c0 26.509674 -21.490356 48.0 -48.0 48.0l0 0c-26.509674 0 -48.0 -21.490326 -48.0 -48.0z" fill-rule="evenodd"/><path stroke="#000000" stroke-width="8.0" stroke-linejoin="round" stroke-linecap="butt" d="m383.99945 431.9993l0 0c0 -26.509674 21.490326 -48.0 48.0 -48.0l0 0c12.730377 0 24.939362 5.057129 33.9411 14.058868c9.00177 9.0017395 14.058899 21.210724 14.058899 33.94113l0 0c0 26.509674 -21.490356 48.0 -48.0 48.0l0 0c-26.509674 0 -48.0 -21.490326 -48.0 -48.0z" fill-rule="evenodd"/><path fill="#cfe2f3" d="m7.511811E-4 48.000603l0 0c0 -26.509666 21.490332 -48.0 48.0 -48.0l0 0c12.730392 0 24.93938 5.057128 33.941128 14.058874c9.001747 9.001747 14.058868 21.210735 14.058868 33.941124l0 0c0 26.509666 -21.490326 48.0 -47.999996 48.0l0 0c-26.509668 0 -48.0 -21.490334 -48.0 -48.0z" fill-rule="evenodd"/><path stroke="#000000" stroke-width="8.0" stroke-linejoin="round" stroke-linecap="butt" d="m7.511811E-4 48.000603l0 0c0 -26.509666 21.490332 -48.0 48.0 -48.0l0 0c12.730392 0 24.93938 5.057128 33.941128 14.058874c9.001747 9.001747 14.058868 21.210735 14.058868 33.941124l0 0c0 26.509666 -21.490326 48.0 -47.999996 48.0l0 0c-26.509668 0 -48.0 -21.490334 -48.0 -48.0z" fill-rule="evenodd"/><path fill="#cfe2f3" d="m191.99944 48.000603l0 0c0 -26.509666 21.490341 -48.0 48.0 -48.0l0 0c12.730392 0 24.939377 5.057128 33.941116 14.058874c9.00177 9.001747 14.058899 21.210735 14.058899 33.941124l0 0c0 26.509666 -21.490356 48.0 -48.000015 48.0l0 0c-26.509659 0 -48.0 -21.490334 -48.0 -48.0z" fill-rule="evenodd"/><path stroke="#000000" stroke-width="8.0" stroke-linejoin="round" stroke-linecap="butt" d="m191.99944 48.000603l0 0c0 -26.509666 21.490341 -48.0 48.0 -48.0l0 0c12.730392 0 24.939377 5.057128 33.941116 14.058874c9.00177 9.001747 14.058899 21.210735 14.058899 33.941124l0 0c0 26.509666 -21.490356 48.0 -48.000015 48.0l0 0c-26.509659 0 -48.0 -21.490334 -48.0 -48.0z" fill-rule="evenodd"/><path fill="#cfe2f3" d="m383.99945 48.000603l0 0c0 -26.509666 21.490326 -48.0 48.0 -48.0l0 0c12.730377 0 24.939362 5.057128 33.9411 14.058874c9.00177 9.001747 14.058899 21.210735 14.058899 33.941124l0 0c0 26.509666 -21.490356 48.0 -48.0 48.0l0 0c-26.509674 0 -48.0 -21.490334 -48.0 -48.0z" fill-rule="evenodd"/><path stroke="#000000" stroke-width="8.0" stroke-linejoin="round" stroke-linecap="butt" d="m383.99945 48.000603l0 0c0 -26.509666 21.490326 -48.0 48.0 -48.0l0 0c12.730377 0 24.939362 5.057128 33.9411 14.058874c9.00177 9.001747 14.058899 21.210735 14.058899 33.941124l0 0c0 26.509666 -21.490356 48.0 -48.0 48.0l0 0c-26.509674 0 -48.0 -21.490334 -48.0 -48.0z" fill-rule="evenodd"/><path fill="#cfe2f3" d="m191.99944 237.809l0 0c0 -26.509674 21.490341 -48.0 48.0 -48.0l0 0c12.730392 0 24.939377 5.057129 33.941116 14.058868c9.00177 9.001755 14.058899 21.21074 14.058899 33.94113l0 0c0 26.509659 -21.490356 47.999985 -48.000015 47.999985l0 0c-26.509659 0 -48.0 -21.490326 -48.0 -47.999985z" fill-rule="evenodd"/><path stroke="#000000" stroke-width="8.0" stroke-linejoin="round" stroke-linecap="butt" d="m191.99944 237.809l0 0c0 -26.509674 21.490341 -48.0 48.0 -48.0l0 0c12.730392 0 24.939377 5.057129 33.941116 14.058868c9.00177 9.001755 14.058899 21.21074 14.058899 33.94113l0 0c0 26.509659 -21.490356 47.999985 -48.000015 47.999985l0 0c-26.509659 0 -48.0 -21.490326 -48.0 -47.999985z" fill-rule="evenodd"/><path fill="#000000" fill-opacity="0.0" d="m96.00075 48.000603l96.0 0" fill-rule="evenodd"/><path stroke="#000000" stroke-width="4.0" stroke-linejoin="round" stroke-linecap="butt" d="m96.00075 48.000603l96.0 0" fill-rule="evenodd"/><path fill="#000000" fill-opacity="0.0" d="m287.99945 48.000603l96.0 0" fill-rule="evenodd"/><path stroke="#000000" stroke-width="4.0" stroke-linejoin="round" stroke-linecap="butt" d="m287.99945 48.000603l96.0 0" fill-rule="evenodd"/><path fill="#000000" fill-opacity="0.0" d="m239.99944 96.0006l0 93.79528" fill-rule="evenodd"/><path stroke="#000000" stroke-width="4.0" stroke-linejoin="round" stroke-linecap="butt" d="m239.99944 96.0006l0 93.79528" fill-rule="evenodd"/><path fill="#000000" fill-opacity="0.0" d="m239.99944 285.809l0 96.0" fill-rule="evenodd"/><path stroke="#000000" stroke-width="4.0" stroke-linejoin="round" stroke-linecap="butt" d="m239.99944 285.809l0 96.0" fill-rule="evenodd"/><path fill="#000000" fill-opacity="0.0" d="m273.94055 271.75012l124.12601 126.299225" fill-rule="evenodd"/><path stroke="#000000" stroke-width="4.0" stroke-linejoin="round" stroke-linecap="butt" d="m273.94055 271.75012l124.12601 126.299225" fill-rule="evenodd"/><path fill="#000000" fill-opacity="0.0" d="m206.05832 271.75012l-124.12599 126.299225" fill-rule="evenodd"/><path stroke="#000000" stroke-width="4.0" stroke-linejoin="round" stroke-linecap="butt" d="m206.05832 271.75012l-124.12599 126.299225" fill-rule="evenodd"/><path fill="#000000" fill-opacity="0.0" d="m81.94188 465.94043l124.12598 121.921265" fill-rule="evenodd"/><path stroke="#000000" stroke-width="4.0" stroke-linejoin="round" stroke-linecap="butt" d="m81.94188 465.94043l124.12598 121.921265" fill-rule="evenodd"/><path fill="#000000" fill-opacity="0.0" d="m239.99944 573.809l0 -96.00003" fill-rule="evenodd"/><path stroke="#000000" stroke-width="4.0" stroke-linejoin="round" stroke-linecap="butt" d="m239.99944 573.809l0 -96.00003" fill-rule="evenodd"/><path fill="#000000" fill-opacity="0.0" d="m273.94055 587.86786l124.12601 -121.921234" fill-rule="evenodd"/><path stroke="#000000" stroke-width="4.0" stroke-linejoin="round" stroke-linecap="butt" d="m273.94055 587.86786l124.12601 -121.921234" fill-rule="evenodd"/><path fill="#000000" fill-opacity="0.0" d="m239.99944 669.809l0 98.20471" fill-rule="evenodd"/><path stroke="#000000" stroke-width="4.0" stroke-linejoin="round" stroke-linecap="butt" d="m239.99944 669.809l0 98.20471" fill-rule="evenodd"/><path fill="#000000" fill-opacity="0.0" d="m96.00075 816.0006l96.0 0" fill-rule="evenodd"/><path stroke="#000000" stroke-width="4.0" stroke-linejoin="round" stroke-linecap="butt" d="m96.00075 816.0006l96.0 0" fill-rule="evenodd"/><path fill="#000000" fill-opacity="0.0" d="m287.99945 816.0006l96.0 0" fill-rule="evenodd"/><path stroke="#000000" stroke-width="4.0" stroke-linejoin="round" stroke-linecap="butt" d="m287.99945 816.0006l96.0 0" fill-rule="evenodd"/></g></svg>