<svg version="1.1" viewBox="0.0 0.0 961.2178477690288 963.9553805774278" fill="none" stroke="none" stroke-linecap="square" stroke-miterlimit="10" xmlns:xlink="http://www.w3.org/1999/xlink" xmlns="http://www.w3.org/2000/svg"><clipPath id="p.0"><path d="m0 0l961.21783 0l0 963.9554l-961.21783 0l0 -963.9554z" clip-rule="nonzero"/></clipPath><g clip-path="url(#p.0)"><path fill="#000000" fill-opacity="0.0" d="m0 0l961.21783 0l0 963.9554l-961.21783 0z" fill-rule="evenodd"/><path fill="#cfe2f3" d="m240.0 829.69025l0 0c0 -26.509644 21.490326 -48.0 48.0 -48.0l0 0c12.730377 0 24.939392 5.057129 33.94113 14.058899c9.0017395 9.00177 14.058868 21.210754 14.058868 33.9411l0 0c0 26.509705 -21.490326 48.0 -48.0 48.0l0 0c-26.509674 0 -48.0 -21.490295 -48.0 -48.0z" fill-rule="evenodd"/><path stroke="#000000" stroke-width="8.0" stroke-linejoin="round" stroke-linecap="butt" d="m240.0 829.69025l0 0c0 -26.509644 21.490326 -48.0 48.0 -48.0l0 0c12.730377 0 24.939392 5.057129 33.94113 14.058899c9.0017395 9.00177 14.058868 21.210754 14.058868 33.9411l0 0c0 26.509705 -21.490326 48.0 -48.0 48.0l0 0c-26.509674 0 -48.0 -21.490295 -48.0 -48.0z" fill-rule="evenodd"/><path fill="#cfe2f3" d="m431.9987 829.69025l0 0c0 -26.509644 21.490326 -48.0 48.0 -48.0l0 0c12.730377 0 24.939392 5.057129 33.94113 14.058899c9.00177 9.00177 14.058838 21.210754 14.058838 33.9411l0 0c0 26.509705 -21.490295 48.0 -47.99997 48.0l0 0c-26.509674 0 -48.0 -21.490295 -48.0 -48.0z" fill-rule="evenodd"/><path stroke="#000000" stroke-width="8.0" stroke-linejoin="round" stroke-linecap="butt" d="m431.9987 829.69025l0 0c0 -26.509644 21.490326 -48.0 48.0 -48.0l0 0c12.730377 0 24.939392 5.057129 33.94113 14.058899c9.00177 9.00177 14.058838 21.210754 14.058838 33.9411l0 0c0 26.509705 -21.490295 48.0 -47.99997 48.0l0 0c-26.509674 0 -48.0 -21.490295 -48.0 -48.0z" fill-rule="evenodd"/><path fill="#cfe2f3" d="m623.99866 829.69025l0 0c0 -26.509644 21.490356 -48.0 48.0 -48.0l0 0c12.730408 0 24.939392 5.057129 33.941162 14.058899c9.00177 9.00177 14.058838 21.210754 14.058838 33.9411l0 0c0 26.509705 -21.490295 48.0 -48.0 48.0l0 0c-26.509644 0 -48.0 -21.490295 -48.0 -48.0z" fill-rule="evenodd"/><path stroke="#000000" stroke-width="8.0" stroke-linejoin="round" stroke-linecap="butt" d="m623.99866 829.69025l0 0c0 -26.509644 21.490356 -48.0 48.0 -48.0l0 0c12.730408 0 24.939392 5.057129 33.941162 14.058899c9.00177 9.00177 14.058838 21.210754 14.058838 33.9411l0 0c0 26.509705 -21.490295 48.0 -48.0 48.0l0 0c-26.509644 0 -48.0 -21.490295 -48.0 -48.0z" fill-rule="evenodd"/><path fill="#cfe2f3" d="m431.9987 635.49866l0 0c0 -26.509644 21.490326 -48.0 48.0 -48.0l0 0c12.730377 0 24.939392 5.057129 33.94113 14.058899c9.00177 9.001709 14.058838 21.210693 14.058838 33.9411l0 0c0 26.509705 -21.490295 48.0 -47.99997 48.0l0 0c-26.509674 0 -48.0 -21.490295 -48.0 -48.0z" fill-rule="evenodd"/><path stroke="#000000" stroke-width="8.0" stroke-linejoin="round" stroke-linecap="butt" d="m431.9987 635.49866l0 0c0 -26.509644 21.490326 -48.0 48.0 -48.0l0 0c12.730377 0 24.939392 5.057129 33.94113 14.058899c9.00177 9.001709 14.058838 21.210693 14.058838 33.9411l0 0c0 26.509705 -21.490295 48.0 -47.99997 48.0l0 0c-26.509674 0 -48.0 -21.490295 -48.0 -48.0z" fill-rule="evenodd"/><path fill="#cfe2f3" d="m431.9987 61.69027l0 0c0 -26.509666 21.490326 -48.0 48.0 -48.0l0 0c12.730377 0 24.939392 5.057129 33.94113 14.058874c9.00177 9.001745 14.058838 21.210733 14.058838 33.941124l0 0c0 26.509666 -21.490295 48.0 -47.99997 48.0l0 0c-26.509674 0 -48.0 -21.490334 -48.0 -48.0z" fill-rule="evenodd"/><path stroke="#000000" stroke-width="8.0" stroke-linejoin="round" stroke-linecap="butt" d="m431.9987 61.69027l0 0c0 -26.509666 21.490326 -48.0 48.0 -48.0l0 0c12.730377 0 24.939392 5.057129 33.94113 14.058874c9.00177 9.001745 14.058838 21.210733 14.058838 33.941124l0 0c0 26.509666 -21.490295 48.0 -47.99997 48.0l0 0c-26.509674 0 -48.0 -21.490334 -48.0 -48.0z" fill-rule="evenodd"/><path fill="#cfe2f3" d="m431.9987 635.49866l0 0c0 -26.509644 21.490326 -48.0 48.0 -48.0l0 0c12.730377 0 24.939392 5.057129 33.94113 14.058899c9.00177 9.001709 14.058838 21.210693 14.058838 33.9411l0 0c0 26.509705 -21.490295 48.0 -47.99997 48.0l0 0c-26.509674 0 -48.0 -21.490295 -48.0 -48.0z" fill-rule="evenodd"/><path stroke="#000000" stroke-width="8.0" stroke-linejoin="round" stroke-linecap="butt" d="m431.9987 635.49866l0 0c0 -26.509644 21.490326 -48.0 48.0 -48.0l0 0c12.730377 0 24.939392 5.057129 33.94113 14.058899c9.00177 9.001709 14.058838 21.210693 14.058838 33.9411l0 0c0 26.509705 -21.490295 48.0 -47.99997 48.0l0 0c-26.509674 0 -48.0 -21.490295 -48.0 -48.0z" fill-rule="evenodd"/><path fill="#cfe2f3" d="m240.0 445.68896l0 0c0 -26.509674 21.490326 -48.0 48.0 -48.0l0 0c12.730377 0 24.939392 5.057129 33.94113 14.058868c9.0017395 9.0017395 14.058868 21.210724 14.058868 33.94113l0 0c0 26.509674 -21.490326 48.0 -48.0 48.0l0 0c-26.509674 0 -48.0 -21.490326 -48.0 -48.0z" fill-rule="evenodd"/><path stroke="#000000" stroke-width="8.0" stroke-linejoin="round" stroke-linecap="butt" d="m240.0 445.68896l0 0c0 -26.509674 21.490326 -48.0 48.0 -48.0l0 0c12.730377 0 24.939392 5.057129 33.94113 14.058868c9.0017395 9.0017395 14.058868 21.210724 14.058868 33.94113l0 0c0 26.509674 -21.490326 48.0 -48.0 48.0l0 0c-26.509674 0 -48.0 -21.490326 -48.0 -48.0z" fill-rule="evenodd"/><path fill="#cfe2f3" d="m431.9987 445.6916l0 0c0 -26.509674 21.490326 -48.0 48.0 -48.0l0 0c12.730377 0 24.939392 5.057129 33.94113 14.058868c9.00177 9.0017395 14.058838 21.210724 14.058838 33.94113l0 0c0 26.509674 -21.490295 48.0 -47.99997 48.0l0 0c-26.509674 0 -48.0 -21.490326 -48.0 -48.0z" fill-rule="evenodd"/><path stroke="#000000" stroke-width="8.0" stroke-linejoin="round" stroke-linecap="butt" d="m431.9987 445.6916l0 0c0 -26.509674 21.490326 -48.0 48.0 -48.0l0 0c12.730377 0 24.939392 5.057129 33.94113 14.058868c9.00177 9.0017395 14.058838 21.210724 14.058838 33.94113l0 0c0 26.509674 -21.490295 48.0 -47.99997 48.0l0 0c-26.509674 0 -48.0 -21.490326 -48.0 -48.0z" fill-rule="evenodd"/><path fill="#cfe2f3" d="m623.99866 445.68896l0 0c0 -26.509674 21.490356 -48.0 48.0 -48.0l0 0c12.730408 0 24.939392 5.057129 33.941162 14.058868c9.00177 9.0017395 14.058838 21.210724 14.058838 33.94113l0 0c0 26.509674 -21.490295 48.0 -48.0 48.0l0 0c-26.509644 0 -48.0 -21.490326 -48.0 -48.0z" fill-rule="evenodd"/><path stroke="#000000" stroke-width="8.0" stroke-linejoin="round" stroke-linecap="butt" d="m623.99866 445.68896l0 0c0 -26.509674 21.490356 -48.0 48.0 -48.0l0 0c12.730408 0 24.939392 5.057129 33.941162 14.058868c9.00177 9.0017395 14.058838 21.210724 14.058838 33.94113l0 0c0 26.509674 -21.490295 48.0 -48.0 48.0l0 0c-26.509644 0 -48.0 -21.490326 -48.0 -48.0z" fill-rule="evenodd"/><path fill="#cfe2f3" d="m240.0 61.69027l0 0c0 -26.509666 21.490326 -48.0 48.0 -48.0l0 0c12.730377 0 24.939392 5.057129 33.94113 14.058874c9.0017395 9.001745 14.058868 21.210733 14.058868 33.941124l0 0c0 26.509666 -21.490326 48.0 -48.0 48.0l0 0c-26.509674 0 -48.0 -21.490334 -48.0 -48.0z" fill-rule="evenodd"/><path stroke="#000000" stroke-width="8.0" stroke-linejoin="round" stroke-linecap="butt" d="m240.0 61.69027l0 0c0 -26.509666 21.490326 -48.0 48.0 -48.0l0 0c12.730377 0 24.939392 5.057129 33.94113 14.058874c9.0017395 9.001745 14.058868 21.210733 14.058868 33.941124l0 0c0 26.509666 -21.490326 48.0 -48.0 48.0l0 0c-26.509674 0 -48.0 -21.490334 -48.0 -48.0z" fill-rule="evenodd"/><path fill="#cfe2f3" d="m431.9987 61.69027l0 0c0 -26.509666 21.490326 -48.0 48.0 -48.0l0 0c12.730377 0 24.939392 5.057129 33.94113 14.058874c9.00177 9.001745 14.058838 21.210733 14.058838 33.941124l0 0c0 26.509666 -21.490295 48.0 -47.99997 48.0l0 0c-26.509674 0 -48.0 -21.490334 -48.0 -48.0z" fill-rule="evenodd"/><path stroke="#000000" stroke-width="8.0" stroke-linejoin="round" stroke-linecap="butt" d="m431.9987 61.69027l0 0c0 -26.509666 21.490326 -48.0 48.0 -48.0l0 0c12.730377 0 24.939392 5.057129 33.94113 14.058874c9.00177 9.001745 14.058838 21.210733 14.058838 33.941124l0 0c0 26.509666 -21.490295 48.0 -47.99997 48.0l0 0c-26.509674 0 -48.0 -21.490334 -48.0 -48.0z" fill-rule="evenodd"/><path fill="#cfe2f3" d="m623.99866 61.69027l0 0c0 -26.509666 21.490356 -48.0 48.0 -48.0l0 0c12.730408 0 24.939392 5.057129 33.941162 14.058874c9.00177 9.001745 14.058838 21.210733 14.058838 33.941124l0 0c0 26.509666 -21.490295 48.0 -48.0 48.0l0 0c-26.509644 0 -48.0 -21.490334 -48.0 -48.0z" fill-rule="evenodd"/><path stroke="#000000" stroke-width="8.0" stroke-linejoin="round" stroke-linecap="butt" d="m623.99866 61.69027l0 0c0 -26.509666 21.490356 -48.0 48.0 -48.0l0 0c12.730408 0 24.939392 5.057129 33.941162 14.058874c9.00177 9.001745 14.058838 21.210733 14.058838 33.941124l0 0c0 26.509666 -21.490295 48.0 -48.0 48.0l0 0c-26.509644 0 -48.0 -21.490334 -48.0 -48.0z" fill-rule="evenodd"/><path fill="#cfe2f3" d="m431.9987 251.49867l0 0c0 -26.509674 21.490326 -48.0 48.0 -48.0l0 0c12.730377 0 24.939392 5.057129 33.94113 14.058868c9.00177 9.001755 14.058838 21.21074 14.058838 33.94113l0 0c0 26.509659 -21.490295 47.999985 -47.99997 47.999985l0 0c-26.509674 0 -48.0 -21.490326 -48.0 -47.999985z" fill-rule="evenodd"/><path stroke="#000000" stroke-width="8.0" stroke-linejoin="round" stroke-linecap="butt" d="m431.9987 251.49867l0 0c0 -26.509674 21.490326 -48.0 48.0 -48.0l0 0c12.730377 0 24.939392 5.057129 33.94113 14.058868c9.00177 9.001755 14.058838 21.21074 14.058838 33.94113l0 0c0 26.509659 -21.490295 47.999985 -47.99997 47.999985l0 0c-26.509674 0 -48.0 -21.490326 -48.0 -47.999985z" fill-rule="evenodd"/><path fill="#000000" fill-opacity="0.0" d="m336.0 61.69027l96.0 0" fill-rule="evenodd"/><path stroke="#000000" stroke-width="4.0" stroke-linejoin="round" stroke-linecap="butt" d="m336.0 61.69027l96.0 0" fill-rule="evenodd"/><path fill="#000000" fill-opacity="0.0" d="m527.99866 61.69027l96.0 0" fill-rule="evenodd"/><path stroke="#000000" stroke-width="4.0" stroke-linejoin="round" stroke-linecap="butt" d="m527.99866 61.69027l96.0 0" fill-rule="evenodd"/><path fill="#000000" fill-opacity="0.0" d="m479.9987 109.69027l0 93.79528" fill-rule="evenodd"/><path stroke="#000000" stroke-width="4.0" stroke-linejoin="round" stroke-linecap="butt" d="m479.9987 109.69027l0 93.79528" fill-rule="evenodd"/><path fill="#000000" fill-opacity="0.0" d="m479.9987 299.49866l0 98.20474" fill-rule="evenodd"/><path stroke="#000000" stroke-width="4.0" stroke-linejoin="round" stroke-linecap="butt" d="m479.9987 299.49866l0 98.20474" fill-rule="evenodd"/><path fill="#000000" fill-opacity="0.0" d="m513.9398 285.4398l124.12598 126.299225" fill-rule="evenodd"/><path stroke="#000000" stroke-width="4.0" stroke-linejoin="round" stroke-linecap="butt" d="m513.9398 285.4398l124.12598 126.299225" fill-rule="evenodd"/><path fill="#000000" fill-opacity="0.0" d="m446.05756 285.4398l-124.12598 126.299225" fill-rule="evenodd"/><path stroke="#000000" stroke-width="4.0" stroke-linejoin="round" stroke-linecap="butt" d="m446.05756 285.4398l-124.12598 126.299225" fill-rule="evenodd"/><path fill="#000000" fill-opacity="0.0" d="m321.94113 479.6301l124.12598 121.921234" fill-rule="evenodd"/><path stroke="#000000" stroke-width="4.0" stroke-linejoin="round" stroke-linecap="butt" d="m321.94113 479.6301l124.12598 121.921234" fill-rule="evenodd"/><path fill="#000000" fill-opacity="0.0" d="m479.9987 587.49866l0 -93.79526" fill-rule="evenodd"/><path stroke="#000000" stroke-width="4.0" stroke-linejoin="round" stroke-linecap="butt" d="m479.9987 587.49866l0 -93.79526" fill-rule="evenodd"/><path fill="#000000" fill-opacity="0.0" d="m513.9398 601.55756l124.12598 -121.921265" fill-rule="evenodd"/><path stroke="#000000" stroke-width="4.0" stroke-linejoin="round" stroke-linecap="butt" d="m513.9398 601.55756l124.12598 -121.921265" fill-rule="evenodd"/><path fill="#000000" fill-opacity="0.0" d="m479.9987 683.49866l0 98.20471" fill-rule="evenodd"/><path stroke="#000000" stroke-width="4.0" stroke-linejoin="round" stroke-linecap="butt" d="m479.9987 683.49866l0 98.20471" fill-rule="evenodd"/><path fill="#000000" fill-opacity="0.0" d="m336.0 829.69025l96.0 0" fill-rule="evenodd"/><path stroke="#000000" stroke-width="4.0" stroke-linejoin="round" stroke-linecap="butt" d="m336.0 829.69025l96.0 0" fill-rule="evenodd"/><path fill="#000000" fill-opacity="0.0" d="m527.99866 829.69025l96.0 0" fill-rule="evenodd"/><path stroke="#000000" stroke-width="4.0" stroke-linejoin="round" stroke-linecap="butt" d="m527.99866 829.69025l96.0 0" fill-rule="evenodd"/><path fill="#000000" fill-opacity="0.0" d="m335.9987 447.8963l96.0 -2.204712" fill-rule="evenodd"/><path stroke="#000000" stroke-width="4.0" stroke-linejoin="round" stroke-linecap="butt" d="m335.9987 447.8963l96.0 -2.204712" fill-rule="evenodd"/><path fill="#000000" fill-opacity="0.0" d="m527.99866 445.6916l96.0 0" fill-rule="evenodd"/><path stroke="#000000" stroke-width="4.0" stroke-linejoin="round" stroke-linecap="butt" d="m527.99866 445.6916l96.0 0" fill-rule="evenodd"/></g></svg>