<svg xmlns="http://www.w3.org/2000/svg" version="1.0" width="348.000000pt" height="335.000000pt" viewBox="0 0 348.000000 335.000000" preserveAspectRatio="xMidYMid meet">

<g transform="translate(0.000000,335.000000) scale(0.100000,-0.100000)" fill="#188ed4" stroke="none">
<path d="M2795 3339 c-22 -5 -92 -27 -156 -49 -79 -27 -146 -43 -212 -50 -116 -12 -265 -43 -304 -64 -15 -8 -43 -26 -62 -40 l-33 -25 38 -16 c21 -8 126 -38 233 -66 108 -27 209 -55 225 -62 48 -18 97 -68 122 -122 48 -103 36 -122 -178 -275 -353 -252 -477 -350 -635 -502 -88 -84 -185 -169 -216 -188 -31 -19 -170 -119 -308 -222 -350 -262 -464 -333 -677 -421 -176 -74 -300 -162 -391 -280 -24 -32 -44 -71 -48 -92 l-6 -37 39 5 c21 3 66 9 99 12 33 3 78 8 100 11 34 5 10 -13 -153 -111 -107 -64 -211 -123 -233 -132 -42 -17 -47 -29 -24 -72 16 -32 59 -51 116 -51 43 0 47 -10 24 -50 -26 -46 -43 -48 232 33 98 29 193 71 465 205 189 93 352 173 363 176 11 4 74 13 140 21 66 7 175 23 242 36 114 21 125 22 156 7 39 -18 66 -69 97 -176 17 -58 29 -81 63 -115 118 -116 248 -296 272 -376 l7 -23 -70 7 c-76 7 -94 2 -150 -46 -41 -36 -42 -36 -487 -4 -362 26 -545 31 -545 15 0 -29 55 -42 282 -66 128 -13 249 -26 268 -29 36 -5 225 -25 485 -50 202 -20 687 -40 975 -40 242 0 310 9 310 41 0 11 -19 14 -91 14 l-91 0 -43 45 c-52 53 -73 60 -164 48 l-70 -9 -6 28 c-10 42 -36 51 -136 46 -66 -4 -93 -2 -108 9 -38 26 -253 303 -262 338 -13 46 4 107 39 145 15 17 83 60 152 96 408 215 675 491 881 910 102 209 132 348 110 520 -7 49 -13 190 -15 314 -3 177 -7 237 -21 280 -29 94 -97 219 -165 303 -114 142 -210 197 -355 203 -44 2 -98 -1 -120 -7z m-625 -2479 c0 -6 -16 -33 -35 -61 -60 -88 -46 -185 42 -279 59 -65 222 -271 223 -282 0 -25 -33 9 -157 157 -164 197 -193 242 -193 306 0 72 20 157 39 162 32 9 81 7 81 -3z" fill="#188ed4"/>
</g>
</svg>