<svg version="1.1" id="Layer_1" xmlns="http://www.w3.org/2000/svg" xmlns:xlink="http://www.w3.org/1999/xlink" x="0px" y="0px"
	 width="100%" viewBox="0 0 432 432" enable-background="new 0 0 432 432" xml:space="preserve">
<path fill="#000000" opacity="1.000000" stroke="none" 
	d="
M319.336182,308.794312 
	C327.367279,333.547272 335.278595,357.922699 343.284851,382.266907 
	C344.706970,386.591034 344.904144,390.554993 340.902832,393.513092 
	C336.794647,396.550262 333.018677,394.762695 329.461090,392.175568 
	C304.671906,374.148682 279.887054,356.115814 255.102310,338.082794 
	C243.921768,329.947968 232.695129,321.875031 221.603149,313.621124 
	C219.048889,311.720428 217.268036,311.705292 214.633514,313.628510 
	C178.847076,339.752869 142.966766,365.748566 107.126244,391.798859 
	C104.525795,393.688965 101.949532,395.540131 98.500458,394.964081 
	C93.308022,394.096863 90.596741,389.246063 92.442627,383.461304 
	C99.576569,361.104279 106.841415,338.788971 114.075859,316.464081 
	C120.644096,296.195099 127.152939,275.906097 133.897217,255.695755 
	C135.062180,252.204758 134.339905,250.288437 131.432037,248.185837 
	C95.794266,222.416962 60.254539,196.512482 24.634270,170.719299 
	C20.725954,167.889221 17.486338,164.815689 19.133114,159.609985 
	C20.786995,154.381790 25.262177,153.708145 30.058968,153.712479 
	C73.050827,153.751358 116.042763,153.760727 159.034592,153.712616 
	C168.250244,153.702301 166.587067,154.863770 169.514618,145.903076 
	C182.955444,104.763245 196.266876,63.581020 209.547180,22.389009 
	C210.979691,17.945751 213.436325,14.888281 218.308899,14.986117 
	C222.716187,15.074612 225.034332,17.973299 226.337967,22.001375 
	C238.841217,60.634762 251.392807,99.252502 263.928894,137.875259 
	C264.596436,139.931976 265.229584,142.000000 265.911743,144.051804 
	C269.659180,155.323517 266.858490,153.691086 279.475555,153.711655 
	C321.134277,153.779556 362.793152,153.746384 404.451965,153.752090 
	C405.118500,153.752182 405.785248,153.764847 406.451538,153.751877 
	C411.082123,153.661728 415.330109,154.598053 416.919464,159.583755 
	C418.500580,164.543686 415.622894,167.602097 411.802216,170.368149 
	C376.723877,195.763641 341.766235,221.326340 306.614838,246.619904 
	C302.119995,249.854218 300.915375,252.586380 302.857269,258.090790 
	C308.723938,274.720459 313.840118,291.614899 319.336182,308.794312 
M258.467255,174.007187 
	C257.794525,171.415054 256.281586,170.228287 253.444229,170.237503 
	C229.786423,170.314423 206.128204,170.307663 182.470306,170.249344 
	C179.944122,170.243118 178.505920,171.073166 177.704666,173.560638 
	C170.408524,196.211426 163.039856,218.838867 155.669525,241.465698 
	C154.896271,243.839600 155.431381,245.501663 157.546143,247.025284 
	C176.736343,260.851196 195.889206,274.729309 214.985275,288.684845 
	C217.230484,290.325653 218.789764,290.360474 221.098557,288.662903 
	C239.614761,275.048615 258.194702,261.519470 276.872192,248.127441 
	C280.250671,245.705002 281.133057,243.360977 279.778717,239.312790 
	C272.597015,217.845993 265.682770,196.289703 258.467255,174.007187 
M210.219360,73.572037 
	C201.635193,100.036430 193.051025,126.500816 184.316757,153.427917 
	C207.249924,153.427917 229.000107,153.427917 251.740921,153.427917 
	C240.562393,118.949394 229.574646,85.059311 218.586899,51.169220 
	C218.238831,51.177975 217.890747,51.186729 217.542679,51.195484 
	C215.167252,58.398453 212.791840,65.601425 210.219360,73.572037 
M150.632858,204.218842 
	C153.595261,195.035767 156.566483,185.855530 159.516968,176.668625 
	C161.480789,170.553879 161.294067,170.283173 154.696487,170.280594 
	C122.379967,170.267944 90.063431,170.267197 57.746960,170.308487 
	C56.362061,170.310257 54.788822,169.727875 53.314175,171.175400 
	C82.314194,192.247559 111.197479,213.234894 140.632996,234.623505 
	C144.065277,224.180542 147.222458,214.574600 150.632858,204.218842 
M290.906281,220.778183 
	C292.417755,225.058258 292.940460,229.755295 296.144958,234.055969 
	C325.208130,212.936752 353.884857,192.098358 383.327759,170.703201 
	C346.538605,170.703201 310.921417,170.703201 274.567963,170.703201 
	C280.051117,187.553772 285.335327,203.793076 290.906281,220.778183 
M233.072205,300.687836 
	C233.100830,302.552704 234.770813,303.053406 235.901382,303.877502 
	C257.681335,319.753601 279.489685,335.590820 301.307617,351.414764 
	C307.149139,355.651489 313.041809,359.817749 318.910980,364.016357 
	C319.243896,363.762421 319.576813,363.508484 319.909729,363.254547 
	C308.959747,329.533630 298.009735,295.812683 286.742218,261.113861 
	C268.449860,274.507172 250.915451,287.345520 233.072205,300.687836 
M186.935120,313.406036 
	C192.209717,309.181946 198.182693,305.837585 203.581726,300.693573 
	C185.406464,287.498230 167.683701,274.631378 149.246567,261.245880 
	C138.085480,295.636047 127.187157,329.216614 116.288834,362.797150 
	C116.692451,363.131531 117.096069,363.465912 117.499680,363.800293 
	C140.453506,347.145233 163.407333,330.490143 186.935120,313.406036 
z"/>
</svg>