<?xml version="1.0" encoding="utf-8"?><svg version="1.1" xmlns="http://www.w3.org/2000/svg" viewBox="40 100 10 10"><rect x="0" y="0" width="90" height="110" fill="#01ede5"/><ellipse cx="60" cy="109" rx="20" ry="2" fill="#38a838"/><ellipse cx="10" cy="110" rx="40" ry="5" fill="#38a838"/><g transform="translate(45, 104.5) scale(0.02) translate(-214.65 -189.3)"><path fill="black" d="M226.657,323.625v86.399h-24.132v-86.399H226.657 M236.657,313.625h-44.132v106.399h44.132V313.625 L236.657,313.625z"/><path fill="#C4820E" d="M246.552,382.86v30.15c0,9-7.29,16.29-16.28,16.29h-31.36c-8.99,0-16.28-7.29-16.28-16.29v-30.15 H246.552z"/><path fill="#003262" d="M353.792,132.84c1.62,35.88-10.35,68.93-31.19,94.46c-31.76,38.89-59.99,80.5-85.95,123.49h-12.57 c11.12-42.99,23.22-84.6,36.82-123.49c8.94-25.53,14.07-58.58,13.37-94.46c-1.38-71.39-26.17-129.34-56.76-132.68 c-0.96-0.1-1.9-0.16-2.85-0.16c2.21,0,4.43,0.06,6.67,0.16C292.712,3.5,350.562,61.45,353.792,132.84zM205.172,350.79h-12.65c-26.69-43.63-56.17-85.5-87.69-125.83 c-18.47-23.62-29.47-53.35-29.47-85.66c0-76.93,62.35-139.28,139.28-139.3c-32.96,0.02-59.68,62.37-59.68,139.3 c0,32.31,4.72,62.04,12.63,85.66C181.092,265.29,193.732,307.16,205.172,350.79z"/><path fill="#FDB515" d="M274.272,132.84c0.7,35.88-4.43,68.93-13.37,94.46c-13.6,38.89-25.7,80.5-36.82,123.49h-18.91 c-11.44-43.63-24.08-85.5-37.58-125.83c-7.91-23.62-12.63-53.35-12.63-85.66c0-76.93,26.72-139.28,59.68-139.3 c0.01,0,0.01,0,0.02,0c0.95,0,1.89,0.06,2.85,0.16C248.102,3.5,272.892,61.45,274.272,132.84z"/></g></svg>