<?xml version="1.0" encoding="utf-8"?><svg version="1.1" xmlns="http://www.w3.org/2000/svg" viewBox="0 -35 80 80"><path d="M0,0h80v10h-80z" fill="#FEC595" /><path d="M0,0h10v10h-10zM20,0h10v10h-10zM40,0h10v10h-10zM60,0h10v10h-10z" fill="#C97D41" /><g fill="#fff" stroke="#000" stroke-width="1.5" transform="translate(-0.1,0) scale(0.2222)"><path d="M22.5 11.63V6M20 8h5" stroke-linecap="round" /><path d="M22.5 25s4.5-7.5 3-10.5c0 0-1-2.5-3-2.5s-3 2.5-3 2.5c-1.5 3 3 10.5 3 10.5" /><path d="M12.5 37c5.5 3.5 14.5 3.5 20 0v-7s9-4.5 6-10.5c-4-6.5-13.5-3.5-16 4V27v-3.5c-2.5-7.5-12-10.5-16-4-3 6 6 10.5 6 10.5v7" /><path d="M12.5 30c5.5-3 14.5-3 20 0m-20 3.5c5.5-3 14.5-3 20 0m-20 3.5c5.5-3 14.5-3 20 0" /></g><g style="fill:#fff; stroke:#000; stroke-width:1.5;" transform="translate(10,0.3) scale(0.2222)"><path d="M 22,10 C 32.5,11 38.5,18 38,39 L 15,39 C 15,30 25,32.5 23,18" /><path d="M 24,18 C 24.38,20.91 18.45,25.37 16,27 C 13,29 13.18,31.34 11,31 C 9.958,30.06 12.41,27.96 11,28 C 10,28 11.19,29.23 10,30 C 9,30 5.997,31 6,26 C 6,24 12,14 12,14 C 12,14 13.89,12.1 14,10.5 C 13.27,9.506 13.5,8.5 13.5,7.5 C 14.5,6.5 16.5,10 16.5,10 L 18.5,10 C 18.5,10 19.28,8.008 21,7 C 22,7 22,10 22,10" /><path d="M 9.5 25.5 A 0.5 0.5 0 1 1 8.5,25.5 A 0.5 0.5 0 1 1 9.5 25.5 z" /><path d="M 15 15.5 A 0.5 1.5 0 1 1  14,15.5 A 0.5 1.5 0 1 1  15 15.5 z" transform="matrix(0.866,0.5,-0.5,0.866,9.693,-5.173)" /></g><g style="fill:#fff;stroke:#000;stroke-width:1.5;stroke-linecap:round;" transform="translate(20,0.3) scale(0.2222)"><path d="M 9,39 L 36,39 L 36,36 L 9,36 L 9,39 z " /><path d="M 12,36 L 12,32 L 33,32 L 33,36 L 12,36 z " /><path d="M 11,14 L 11,9 L 15,9 L 15,11 L 20,11 L 20,9 L 25,9 L 25,11 L 30,11 L 30,9 L 34,9 L 34,14" /><path d="M 34,14 L 31,17 L 14,17 L 11,14" /><path d="M 31,17 L 31,29.5 L 14,29.5 L 14,17" /><path d="M 31,29.5 L 32.5,32 L 12.5,32 L 14,29.5" /><path d="M 11,14 L 34,14" /></g><g style="stroke:#000;stroke-width:1.5;stroke-linecap:round;stroke-linejoin:round;" transform="translate(50,0.3) scale(0.2222)"><path d="M 9,39 L 36,39 L 36,36 L 9,36 L 9,39 z "/><path d="M 12.5,32 L 14,29.5 L 31,29.5 L 32.5,32 L 12.5,32 z "/><path d="M 12,36 L 12,32 L 33,32 L 33,36 L 12,36 z "/><path d="M 14,29.5 L 14,16.5 L 31,16.5 L 31,29.5 L 14,29.5 z "/><path d="M 14,16.5 L 11,14 L 34,14 L 31,16.5 L 14,16.5 z "/><path d="M 11,14 L 11,9 L 15,9 L 15,11 L 20,11 L 20,9 L 25,9 L 25,11 L 30,11 L 30,9 L 34,9 L 34,14 L 11,14 z " /><path d="M 12,35.5 L 33,35.5 L 33,35.5" style="stroke:#ffffff; stroke-width:1;" /><path d="M 13,31.5 L 32,31.5" style="stroke:#ffffff; stroke-width:1;" /><path d="M 14,29.5 L 31,29.5" style="stroke:#ffffff; stroke-width:1;" /><path d="M 14,16.5 L 31,16.5" style="stroke:#ffffff; stroke-width:1;" /><path d="M 11,14 L 34,14" style="stroke:#ffffff; stroke-width:1;" /></g><g style="fill:#000;stroke:#000;stroke-width:1.5;" transform="translate(60,0.3) scale(0.2222)"><path d="M 22,10 C 32.5,11 38.5,18 38,39 L 15,39 C 15,30 25,32.5 23,18" style="stroke:#000000;" /><path d="M 24,18 C 24.38,20.91 18.45,25.37 16,27 C 13,29 13.18,31.34 11,31 C 9.958,30.06 12.41,27.96 11,28 C 10,28 11.19,29.23 10,30 C 9,30 5.997,31 6,26 C 6,24 12,14 12,14 C 12,14 13.89,12.1 14,10.5 C 13.27,9.506 13.5,8.5 13.5,7.5 C 14.5,6.5 16.5,10 16.5,10 L 18.5,10 C 18.5,10 19.28,8.008 21,7 C 22,7 22,10 22,10" style="stroke:#000000;" /><path d="M 9.5 25.5 A 0.5 0.5 0 1 1 8.5,25.5 A 0.5 0.5 0 1 1 9.5 25.5 z" style="fill:#ffffff; stroke:#ffffff;" /><path d="M 15 15.5 A 0.5 1.5 0 1 1  14,15.5 A 0.5 1.5 0 1 1  15 15.5 z" transform="matrix(0.866,0.5,-0.5,0.866,9.693,-5.173)" style="fill:#ffffff; stroke:#ffffff;" /><path d="M 24.55,10.4 L 24.1,11.85 L 24.6,12 C 27.75,13 30.25,14.49 32.5,18.75 C 34.75,23.01 35.75,29.06 35.25,39 L 35.2,39.5 L 37.45,39.5 L 37.5,39 C 38,28.94 36.62,22.15 34.25,17.66 C 31.88,13.17 28.46,11.02 25.06,10.5 L 24.55,10.4 z " style="fill:#ffffff; stroke:none;" /></g><g style="stroke:#000000; stroke-width:1.5; stroke-linecap:round;" transform="translate(69.9,0) scale(0.2222)"><path d="M 22.5,11.63 L 22.5,6" /><path d="M 22.5,25 C 22.5,25 27,17.5 25.5,14.5 C 25.5,14.5 24.5,12 22.5,12 C 20.5,12 19.5,14.5 19.5,14.5 C 18,17.5 22.5,25 22.5,25" /><path d="M 12.5,37 C 18,40.5 27,40.5 32.5,37 L 32.5,30 C 32.5,30 41.5,25.5 38.5,19.5 C 34.5,13 25,16 22.5,23.5 L 22.5,27 L 22.5,23.5 C 20,16 10.5,13 6.5,19.5 C 3.5,25.5 12.5,30 12.5,30 L 12.5,37" /><path d="M 20,8 L 25,8" /><path d="M 32,29.5 C 32,29.5 40.5,25.5 38.03,19.85 C 34.15,14 25,18 22.5,24.5 L 22.5,26.6 L 22.5,24.5 C 20,18 10.85,14 6.97,19.85 C 4.5,25.5 13,29.5 13,29.5" stroke="#ffffff" /><path d="M 12.5,30 C 18,27 27,27 32.5,30 M 12.5,33.5 C 18,30.5 27,30.5 32.5,33.5 M 12.5,37 C 18,34 27,34 32.5,37" stroke="#ffffff" /></g><path d="M27.4,5.5L51.2578,5.5L51.2578,6.5L53.4,5.0L51.2578,3.5L51.2578,4.5L27.4,4.5A 0.625 0.625 0 0 0 27.4 5.5Z" fill="#ffff00" stroke="#ffff00" /><path d="M17.4,5.5L31.2578,5.5L31.2578,6.5L33.4,5.0L31.2578,3.5L31.2578,4.5L17.4,4.5A 0.625 0.625 0 0 0 17.4 5.5Z" fill="#008000" stroke="#008000" /><path d="M27.4,5.5L41.2578,5.5L41.2578,6.5L43.4,5.0L41.2578,3.5L41.2578,4.5L27.4,4.5A 0.625 0.625 0 0 0 27.4 5.5Z" fill="#800000" stroke="#800000" opacity="0.75" /><path d="M27.4,5.5L31.2578,5.5L31.2578,6.5L33.4,5.0L31.2578,3.5L31.2578,4.5L27.4,4.5A 0.625 0.625 0 0 0 27.4 5.5Z" fill="#800000" stroke="#800000" /></svg>