<?xml version="1.0" encoding="utf-8"?>
<svg version="1.1" xmlns="http://www.w3.org/2000/svg" viewBox="-0.125 -0.125 30.25 30.25">
    <path d="M0,0h30v30h-30zM10,0v30M20,0v30M0,10h30M0,20h30" stroke="#000" stroke-width="0.25" fill="#555"/>
    <circle cx="15" cy="25" r="1" fill="#000"/>
    <circle cx="25" cy="25" r="1" fill="#000"/>
    <path d="M0.125,10.125h9.75v9.75h-9.75zM0.125,20.125h9.75v9.75h-9.75z" fill="blue"/>
    <path d="M0.125,0.125h9.75v9.75h-9.75zM10.125,0.125h9.75v9.75h-9.75z" fill="red"/>
    <path d="M10.125,20.125h9.75v9.75h-9.75zM20.125,20.125h9.75v9.75h-9.75z" fill="white"/>
    <ellipse cx="15" cy="20" rx="0.9" ry="1.5" fill="yellow"/>
    <ellipse cx="10" cy="15" rx="1.5" ry="0.9" fill="green"/>
    <ellipse cx="10" cy="25" rx="1.5" ry="0.9" fill="#800000"/>
    <ellipse cx="20" cy="25" rx="1.5" ry="0.9" fill="#800000"/>
</svg>