<?xml version="1.0" encoding="utf-8"?>
<svg version="1.1" xmlns="http://www.w3.org/2000/svg" viewBox="3 3 96 96">
    <path d="M10,10h80v80h-80zM10,10l80,80M90,10l-80,80M50,10v80M10,50h80" stroke-width="1.5" stroke="black" fill="#d0f1f2" />
    <defs>
    <radialGradient id="rg1" cx="-107.6189" cy="-90.5162" r="10" fx="-109.6206" fy="-92.5178"
        gradientTransform="matrix(1 0 0 1 159.5 142.5)" gradientUnits="userSpaceOnUse">
        <stop offset="0" stop-color="#000" />
        <stop offset="1" stop-color="#000" stop-opacity="0" />
    </radialGradient>
    <radialGradient id="rg2" cx="-109.6189" cy="-92.5162" r="10" fx="-114.623" fy="-97.5203"
        gradientTransform="matrix(1 0 0 1 159.5 142.5)" gradientUnits="userSpaceOnUse">
        <stop offset="0" stop-color="#888888" />
        <stop offset="0.5" stop-color="#5B5B5B" />
        <stop offset="1" stop-color="#000000" />
    </radialGradient>
    <radialGradient id="rg3" cx="-107.5" cy="190.5449" r="10" fx="-109.5" fy="188.55"
        gradientTransform="matrix(1 0 0 -1 159.5 242.5)" gradientUnits="userSpaceOnUse">
        <stop offset="0" stop-color="#000000" />
        <stop offset="1" stop-color="#000000" stop-opacity="0" />
    </radialGradient>
    <radialGradient id="rg4" cx="-109.5" cy="192.55" r="10" fx="-114.5" fy="187.55"
        gradientTransform="matrix(0 1 1 0 -142.5 159.5)" gradientUnits="userSpaceOnUse">
        <stop offset="0" stop-color="#FFFFFF" />
        <stop offset="0.5" stop-color="#DDDDDD" />
        <stop offset="1" stop-color="#999999" />
    </radialGradient>
    <g id="b" transform="scale(0.6) translate(-50 -50)">
        <path fill="url(#rg1)" d="M61.9,52c0,5.5-4.5,10-10,10s-10-4.5-10-10s4.5-10,10-10S61.9,46.5,61.9,52z" />
        <path fill="url(#rg2)" d="M59.9,50c0,5.5-4.5,10-10,10s-10-4.5-10-10s4.5-10,10-10S59.9,44.5,59.9,50z" />
    </g>
    <g id="w" transform="scale(0.6) translate(-50 -50)">
        <path fill="url(#rg3)" d="M61.9,52c0,5.5-4.5,10-10,10s-10-4.5-10-10s4.5-10,10-10S61.9,46.5,61.9,52z" />
        <path fill="url(#rg4)" d="M59.9,50c0,5.5-4.5,10-10,10s-10-4.5-10-10s4.5-10,10-10S59.9,44.5,59.9,50z" />
    </g>
    </defs>
    <path fill="#d0f1f2" stroke="black" stroke-width="1.5" d="M10,10h80v80h-80zM10,10l80,80M90,10l-80,80M50,10v80M10,50h80" />
    <path fill="#ffff00" stroke="#ffff00" d="M12.0,48.0L12.0,20.57L16.0,20.57L10.0,12.0L4.0,20.57L8.0,20.57L8.0,48.0ZM88.0,12.0L88.0,39.43L84.0,39.43L90.0,48.0L96.0,39.43L92.0,39.43L92.0,12.0ZM13.0,52.0L39.43,52.0L39.43,56.0L48.0,50.0L39.43,44.0L39.43,48.0L13.0,48.0ZM52.0,88.0L52.0,60.57L56.0,60.57L50.0,52.0L44.0,60.57L48.0,60.57L48.0,88.0Z" />
    <path fill="#800000" stroke="#800000" d="M86.46,10.0L56.06,41.11L53.23,38.28L51.41,48.59L61.72,46.77L58.89,43.94L89.29,12.83Z" />
    <use href="#b" x="50" y="10"/><use href="#w" x="90" y="10"/><use href="#w" x="10" y="50"/><use href="#b" x="10" y="90"/><use href="#w" x="50" y="90"/><use href="#b" x="90" y="90"/>
</svg>