<?xml version="1.0" encoding="utf-8"?><svg viewBox="0 0 50 50" xmlns="http://www.w3.org/2000/svg"><path d="M0,0h50v50h-50z" fill="#DDDDDD" /><path d="M0,0h10v10h-10zM20,0h10v10h-10zM40,0h10v10h-10zM10,10h10v10h-10zM30,10h10v10h-10zM0,20h10v10h-10zM20,20h10v10h-10zM40,20h10v10h-10zM10,30h10v10h-10zM30,30h10v10h-10zM0,40h10v10h-10zM20,40h10v10h-10zM40,40h10v10h-10z" fill="#888888" /><defs><g id="w" transform="scale(0.2222)" style="fill:#ffffff;stroke:#000000;stroke-width:1.5"><path d="M 9,26 C 17.5,24.5 30,24.5 36,26 L 38.5,13.5 L 31,25 L 30.7,10.9 L 25.5,24.5 L 22.5,10 L 19.5,24.5 L 14.3,10.9 L 14,25 L 6.5,13.5 L 9,26 z"/><path d="M 9,26 C 9,28 10.5,28 11.5,30 C 12.5,31.5 12.5,31 12,33.5 C 10.5,34.5 11,36 11,36 C 9.5,37.5 11,38.5 11,38.5 C 17.5,39.5 27.5,39.5 34,38.5 C 34,38.5 35.5,37.5 34,36 C 34,36 34.5,34.5 33,33.5 C 32.5,31 32.5,31.5 33.5,30 C 34.5,28 36,28 36,26 C 27.5,24.5 17.5,24.5 9,26 z"/><path d="M 11.5,30 C 15,29 30,29 33.5,30"/><path d="M 12,33.5 C 18,32.5 27,32.5 33,33.5"/><circle cx="6" cy="12" r="2" /><circle cx="14" cy="9" r="2" /><circle cx="22.5" cy="8" r="2" /><circle cx="31" cy="9" r="2" /><circle cx="39" cy="12" r="2" /></g><g id="b" transform="scale(0.2222)" style="fill:#000000;stroke:#000000;stroke-width:1.5;"><path d="M 9,26 C 17.5,24.5 30,24.5 36,26 L 38.5,13.5 L 31,25 L 30.7,10.9 L 25.5,24.5 L 22.5,10 L 19.5,24.5 L 14.3,10.9 L 14,25 L 6.5,13.5 L 9,26 z" style="stroke-linecap:butt;fill:#000000" /><path d="m 9,26 c 0,2 1.5,2 2.5,4 1,1.5 1,1 0.5,3.5 -1.5,1 -1,2.5 -1,2.5 -1.5,1.5 0,2.5 0,2.5 6.5,1 16.5,1 23,0 0,0 1.5,-1 0,-2.5 0,0 0.5,-1.5 -1,-2.5 -0.5,-2.5 -0.5,-2 0.5,-3.5 1,-2 2.5,-2 2.5,-4 -8.5,-1.5 -18.5,-1.5 -27,0 z" /><path d="M 11.5,30 C 15,29 30,29 33.5,30" /><path d="m 12,33.5 c 6,-1 15,-1 21,0" /><circle cx="6" cy="12" r="2" /><circle cx="14" cy="9" r="2" /><circle cx="22.5" cy="8" r="2" /><circle cx="31" cy="9" r="2" /><circle cx="39" cy="12" r="2" /><path d="M 11,38.5 A 35,35 1 0 0 34,38.5" style="fill:none; stroke:#000000;stroke-linecap:butt;" /><g style="fill:none; stroke:#ffffff;"><path d="M 11,29 A 35,35 1 0 1 34,29" /><path d="M 12.5,31.5 L 32.5,31.5" /><path d="M 11.5,34.5 A 35,35 1 0 0 33.5,34.5" /><path d="M 10.5,37.5 A 35,35 1 0 0 34.5,37.5" /></g></g></defs><path d="M16.1667,44.399L43.9445,16.2676L44.1567,16.4797L44.2929,15.7071L43.5203,15.8433L43.7324,16.0555L15.9546,44.1868A 0.15 0.15 0 0 0 16.1667 44.399Z" fill="#ffff00" stroke="#ffff00" /><path d="M43.8333,5.601L16.0555,33.7324L15.8433,33.5203L15.7071,34.2929L16.4797,34.1567L16.2676,33.9445L44.0454,5.8132A 0.15 0.15 0 0 0 43.8333 5.601Z" fill="#ffff00" stroke="#ffff00" /><path d="M5.9546,5.8132L33.7324,33.9445L33.5203,34.1567L34.2929,34.2929L34.1567,33.5203L33.9445,33.7324L6.1667,5.601A 0.15 0.15 0 0 0 5.9546 5.8132Z" fill="#ffff00" stroke="#ffff00" /><path d="M34.0454,44.1868L6.2676,16.0555L6.4797,15.8433L5.7071,15.7071L5.8433,16.4797L6.0555,16.2676L33.8333,44.399A 0.15 0.15 0 0 0 34.0454 44.1868Z" fill="#800000" stroke="#800000" /><path d="M35.15,44.0L35.15,16.6427L35.45,16.6427L35.0,16.0L34.55,16.6427L34.85,16.6427L34.85,44.0A 0.15 0.15 0 0 0 35.15 44.0Z" fill="#ffff00" stroke="#ffff00" /><path d="M43.5,24.85L16.6427,24.85L16.6427,24.55L16.0,25.0L16.6427,25.45L16.6427,25.15L43.5,25.15A 0.15 0.15 0 0 0 43.5 24.85Z" fill="#ffff00" stroke="#ffff00" /><path d="M24.85,6.0L24.85,33.3573L24.55,33.3573L25.0,34.0L25.45,33.3573L25.15,33.3573L25.15,6.0A 0.15 0.15 0 0 0 24.85 6.0Z" fill="#ffff00" stroke="#ffff00" /><path d="M15.15,44.0L15.15,16.6427L15.45,16.6427L15.0,16.0L14.55,16.6427L14.85,16.6427L14.85,44.0A 0.15 0.15 0 0 0 15.15 44.0Z" fill="#800000" stroke="#800000" /><path d="M5.9546,5.8132L23.7324,23.9445L23.5203,24.1567L24.2929,24.2929L24.1567,23.5203L23.9445,23.7324L6.1667,5.601A 0.15 0.15 0 0 0 5.9546 5.8132Z" fill="#008000" stroke="#008000" /><path d="M43.8333,5.601L26.0555,23.7324L25.8433,23.5203L25.7071,24.2929L26.4797,24.1567L26.2676,23.9445L44.0454,5.8132A 0.15 0.15 0 0 0 43.8333 5.601Z" fill="#008000" stroke="#008000" opacity="0.75" /><path d="M34.0454,44.1868L16.2676,26.0555L16.4797,25.8433L15.7071,25.7071L15.8433,26.4797L16.0555,26.2676L33.8333,44.399A 0.15 0.15 0 0 0 34.0454 44.1868Z" fill="#ffff00" stroke="#ffff00" /><path d="M16.1667,44.399L33.9445,26.2676L34.1567,26.4797L34.2929,25.7071L33.5203,25.8433L33.7324,26.0555L15.9546,44.1868A 0.15 0.15 0 0 0 16.1667 44.399Z" fill="#ffff00" stroke="#ffff00" /><path d="M24.85,6.0L24.85,23.3573L24.55,23.3573L25.0,24.0L25.45,23.3573L25.15,23.3573L25.15,6.0A 0.15 0.15 0 0 0 24.85 6.0Z" fill="#008000" stroke="#008000" opacity="0.5" /><path d="M35.15,44.0L35.15,26.6427L35.45,26.6427L35.0,26.0L34.55,26.6427L34.85,26.6427L34.85,44.0A 0.15 0.15 0 0 0 35.15 44.0Z" fill="#ffff00" stroke="#ffff00" /><path d="M43.5,24.85L26.6427,24.85L26.6427,24.55L26.0,25.0L26.6427,25.45L26.6427,25.15L43.5,25.15A 0.15 0.15 0 0 0 43.5 24.85Z" fill="#ffff00" stroke="#ffff00" /><path d="M15.15,44.0L15.15,26.6427L15.45,26.6427L15.0,26.0L14.55,26.6427L14.85,26.6427L14.85,44.0A 0.15 0.15 0 0 0 15.15 44.0Z" fill="#800000" stroke="#800000" opacity="0.5" /><path d="M36.1667,44.399L43.9445,36.2676L44.1567,36.4797L44.2929,35.7071L43.5203,35.8433L43.7324,36.0555L35.9546,44.1868A 0.15 0.15 0 0 0 36.1667 44.399Z" fill="#ffff00" stroke="#ffff00" /><path d="M34.0454,44.1868L26.2676,36.0555L26.4797,35.8433L25.7071,35.7071L25.8433,36.4797L26.0555,36.2676L33.8333,44.399A 0.15 0.15 0 0 0 34.0454 44.1868Z" fill="#ffff00" stroke="#ffff00" /><path d="M43.8333,25.601L36.0555,33.7324L35.8433,33.5203L35.7071,34.2929L36.4797,34.1567L36.2676,33.9445L44.0454,25.8132A 0.15 0.15 0 0 0 43.8333 25.601Z" fill="#ffff00" stroke="#ffff00" /><path d="M44.0454,24.1868L36.2676,16.0555L36.4797,15.8433L35.7071,15.7071L35.8433,16.4797L36.0555,16.2676L43.8333,24.399A 0.15 0.15 0 0 0 44.0454 24.1868Z" fill="#ffff00" stroke="#ffff00" /><path d="M43.8333,5.601L36.0555,13.7324L35.8433,13.5203L35.7071,14.2929L36.4797,14.1567L36.2676,13.9445L44.0454,5.8132A 0.15 0.15 0 0 0 43.8333 5.601Z" fill="#ffff00" stroke="#ffff00" /><path d="M25.9546,5.8132L33.7324,13.9445L33.5203,14.1567L34.2929,14.2929L34.1567,13.5203L33.9445,13.7324L26.1667,5.601A 0.15 0.15 0 0 0 25.9546 5.8132Z" fill="#ffff00" stroke="#ffff00" /><path d="M23.8333,5.601L16.0555,13.7324L15.8433,13.5203L15.7071,14.2929L16.4797,14.1567L16.2676,13.9445L24.0454,5.8132A 0.15 0.15 0 0 0 23.8333 5.601Z" fill="#ffff00" stroke="#ffff00" /><path d="M5.9546,5.8132L13.7324,13.9445L13.5203,14.1567L14.2929,14.2929L14.1567,13.5203L13.9445,13.7324L6.1667,5.601A 0.15 0.15 0 0 0 5.9546 5.8132Z" fill="#ffff00" stroke="#ffff00" /><path d="M14.0454,44.1868L6.2676,36.0555L6.4797,35.8433L5.7071,35.7071L5.8433,36.4797L6.0555,36.2676L13.8333,44.399A 0.15 0.15 0 0 0 14.0454 44.1868Z" fill="#800000" stroke="#800000" opacity="0.75" /><path d="M16.1667,44.399L23.9445,36.2676L24.1567,36.4797L24.2929,35.7071L23.5203,35.8433L23.7324,36.0555L15.9546,44.1868A 0.15 0.15 0 0 0 16.1667 44.399Z" fill="#800000" stroke="#800000" opacity="0.5" /><path d="M35.15,44.0L35.15,36.6427L35.45,36.6427L35.0,36.0L34.55,36.6427L34.85,36.6427L34.85,44.0A 0.15 0.15 0 0 0 35.15 44.0Z" fill="#ffff00" stroke="#ffff00" /><path d="M15.15,44.0L15.15,36.6427L15.45,36.6427L15.0,36.0L14.55,36.6427L14.85,36.6427L14.85,44.0A 0.15 0.15 0 0 0 15.15 44.0Z" fill="#ffff00" stroke="#ffff00" /><path d="M43.5,24.85L36.6427,24.85L36.6427,24.55L36.0,25.0L36.6427,25.45L36.6427,25.15L43.5,25.15A 0.15 0.15 0 0 0 43.5 24.85Z" fill="#ffff00" stroke="#ffff00" /><path d="M44.85,6.0L44.85,13.3573L44.55,13.3573L45.0,14.0L45.45,13.3573L45.15,13.3573L45.15,6.0A 0.15 0.15 0 0 0 44.85 6.0Z" fill="#ffff00" stroke="#ffff00" /><path d="M24.85,6.0L24.85,13.3573L24.55,13.3573L25.0,14.0L25.45,13.3573L25.15,13.3573L25.15,6.0A 0.15 0.15 0 0 0 24.85 6.0Z" fill="#ffff00" stroke="#ffff00" /><path d="M44.85,26.0L44.85,33.3573L44.55,33.3573L45.0,34.0L45.45,33.3573L45.15,33.3573L45.15,26.0A 0.15 0.15 0 0 0 44.85 26.0Z" fill="#800000" stroke="#800000" /><path d="M4.85,6.0L4.85,13.3573L4.55,13.3573L5.0,14.0L5.45,13.3573L5.15,13.3573L5.15,6.0A 0.15 0.15 0 0 0 4.85 6.0Z" fill="#800000" stroke="#800000" opacity="0.75" /><path d="M45.15,24.0L45.15,16.6427L45.45,16.6427L45.0,16.0L44.55,16.6427L44.85,16.6427L44.85,24.0A 0.15 0.15 0 0 0 45.15 24.0Z" fill="#800000" stroke="#800000" opacity="0.75" /><use x="0" y="0" href="#w"/><use x="20" y="0" href="#w"/><use x="40" y="0" href="#w"/><use x="40" y="20" href="#w"/><use x="10" y="40" href="#w"/><use x="30" y="40" href="#w"/><use x="10" y="0" href="#b"/><use x="30" y="0" href="#b"/><use x="0" y="20" href="#b"/><use x="0" y="40" href="#b"/><use x="20" y="40" href="#b"/><use x="40" y="40" href="#b"/></svg>