<?xml version="1.0" encoding="utf-8"?>
<svg version="1.1" xmlns="http://www.w3.org/2000/svg" viewBox="1 1 48 48">
    <defs>
        <g id="t" transform="scale(0.017) translate(-205.2065,-205.2065)">
            <path fill="#B36F0F" d="M144.426,173.016c-19.385,0-35.1,15.715-35.1,35.1v34.75h-3.304c-16.551,0-29.969,13.416-29.969,29.969v54.343c0,13.5,10.945,24.444,24.444,24.444h44.146c3.869,0,7.004-3.138,7.004-7.004c0-15.023-11.266-27.403-25.808-29.184v-31.294h12.614c22.684,0,41.071-18.387,41.071-41.071v-34.953C179.525,188.73,163.811,173.016,144.426,173.016zM312.58,315.328v-108.6c0-13.501-10.945-24.444-24.443-24.444c-13.5,0-24.444,10.943-24.444,24.444v120.448c0,13.5,10.944,24.444,24.444,24.444h44.146c3.869,0,7.004-3.138,7.004-7.004C339.287,329.283,327.555,316.698,312.58,315.328z"/>
            <path fill="#FF9E16" d="M305.799,117.676H113.345c-33.752,0-61.113,27.359-61.113,61.112v71.573h202.852c40.777,0,73.832-33.056,73.832-73.833V140.79C328.916,128.026,318.566,117.676,305.799,117.676z"/>
            <path fill="#333E48" d="M131.225,214.779L113.345,117.676L149.104,117.676zM220.508,214.779L202.628,117.676L238.388,117.676zM265.91,185.754L253.374,117.676L278.445,117.676z"/>
            <path fill="#FF9E16" d="M8.641,268.504c-4.772,0-8.641-3.868-8.641-8.641v-76.971c0-28.401,23.104-51.503,51.503-51.503h33.894c4.772,0,8.64,3.867,8.64,8.64c0,4.77-3.868,8.64-8.64,8.64H51.503c-18.871,0-34.223,15.353-34.223,34.224v76.971C17.28,264.635,13.413,268.504,8.641,268.504zM408.086,112.204l-54.961-44.435h-31.011c-31.041,0-56.205,25.165-56.205,56.206s25.164,56.204,56.205,56.204h31.011c31.042,0,56.205-25.163,56.205-56.204C409.331,119.937,408.896,116,408.086,112.204zM96.8,173.016c-19.385,0-35.1,15.715-35.1,35.1v34.75h-3.303c-16.551,0-29.969,13.416-29.969,29.969v54.343c0,13.5,10.944,24.444,24.444,24.444h44.146c3.869,0,7.004-3.138,7.004-7.004c0-15.023-11.266-27.403-25.809-29.184v-31.294h12.614c22.684,0,41.071-18.387,41.071-41.071v-34.953C131.899,188.73,116.185,173.016,96.8,173.016zM264.954,315.328v-108.6c0-13.501-10.944-24.444-24.443-24.444c-13.501,0-24.444,10.943-24.444,24.444v120.448c0,13.5,10.944,24.444,24.444,24.444h44.146c3.869,0,7.004-3.138,7.004-7.004C291.661,329.283,279.929,316.698,264.954,315.328z"/>
            <path fill="#E8E8E8" d="M400.691,116.134h-76.979c-20.281,0-36.722,16.44-36.722,36.721c0,2.851,0.335,5.617,0.949,8.281c-0.614,2.661-0.949,5.431-0.949,8.278c0,17.122,11.717,31.506,27.57,35.572c-1.755-4.286-2.728-8.977-2.728-13.895c0-0.414,0.018-0.823,0.031-1.234c4.646,4.816,10.592,8.374,17.278,10.089c-1.345-3.286-2.227-6.81-2.566-10.491c2.867-0.221,5.642-0.766,8.287-1.607v0.004l52.839-12.506c13.049-3.279,22.712-15.086,22.712-29.15v-20.342C410.411,120.487,406.059,116.134,400.691,116.134z"/>
            <circle fill="#333E48" cx="344.052" cy="101.374" r="5.156"/>
            <path fill="#333E48" d="M0,190.514L0,194.918L11.953,192.715zM0,237.035L17.28,233.854L17.28,231.574L0,228.392zM17.28,212.134L17.28,207.409L4.452,209.773zM21.666,166.163c0.632-1.125,1.327-2.208,2.078-3.25l-8.216-5.66L21.666,166.163zM44.385,131.892l2.633,14.305l2.719-14.763C47.928,131.495,46.143,131.648,44.385,131.892zM20.65,141.678l9.663,8.517l-5.846-11.115C23.155,139.893,21.879,140.757,20.65,141.678zM2.774,166.25c-0.686,2.003-1.264,4.057-1.701,6.163l11.324,7.803L2.774,166.25zM125.84,303.555L125.84,295.25L103.291,299.402zM165.809,273.697c4.657-4.164,8.354-9.372,10.732-15.255l-46.789,8.614L165.809,273.697zM263.693,267.767L263.693,281.94L302.173,274.852zM312.58,256.5L312.58,243.064L276.096,249.783zM312.58,301.503L312.58,288.066L276.096,294.784zM71.45,134.318l9.471,51.436l11.882-64.528C84.774,124.09,77.528,128.59,71.45,134.318zM175.562,185.754L163.027,117.676L188.098,117.676zM328.776,67.769L333.521,93.542L338.268,67.769zM295.024,74.726l6.547,35.558l7.547-40.986C304.13,70.479,299.398,72.314,295.024,74.726zM290.583,58.791c-7.305,0-13.228,5.921-13.228,13.228c0,7.306,5.922,13.228,13.228,13.228h8.068c2.85,0,5.16-2.312,5.16-5.161V72.02C303.811,64.711,297.889,58.791,290.583,58.791zM410.411,113.208c0-1.615-1.31-2.925-2.926-2.925l-5.094,0.063c-5.368,0.023-6.589,3.079-2.711,6.791l4.325,4.142c1.795,1.72,4.09,2.611,6.406,2.69L410.411,113.208L410.411,113.208zM61.7,226.305L61.7,239.124L96.505,232.712zM28.959,267.228c-0.344,1.816-0.531,3.689-0.531,5.605v10.142l43.021-7.922L28.959,267.228zM92.802,220.178L131.899,227.379L131.899,212.978zM118.184,273.697c4.656-4.164,8.353-9.372,10.731-15.255l-46.789,8.614L118.184,273.697zM78.214,303.555L78.214,295.25L55.665,299.402zM216.067,267.767L216.067,281.94L254.547,274.852zM216.067,227.665L216.067,236.445L239.907,232.056zM264.954,256.5L264.954,243.064L228.47,249.783zM235.332,212.978L264.954,218.434L264.954,207.523zM264.954,301.503L264.954,288.066L228.47,294.784z"/>
            <path fill="#FF9C9F" d="M292.114,82.416c-4.889,0-8.867-3.978-8.867-8.865c0-4.89,3.979-8.867,8.867-8.867c4.889,0,8.867,3.978,8.867,8.867v8.066c0,0.44-0.358,0.799-0.8,0.799C300.181,82.417,292.114,82.417,292.114,82.416z"/>
        </g>
        <g id="g" transform="scale(0.05) translate(-64,-64)">
            <path fill="#b68859" d="M66.67 49.49s5.07-2.25 9.57-3.1c4.5-.84 8.17-.7 8.17-.7s3.94-5.77 4.5-8.87s.63-5.98.7-6.48c.17-1.2 8.17-1.27 9.85 3.52c1.69 4.79-.42 10.56-1.83 12.67s-2.96 3.66-2.96 3.66s6.9 6.48 8.45 13.66s1.13 17.74 1.13 17.74s-.42 8.02-4.36 8.59c-3.94.56-8.73-3.03-9.43-3.87c-.7-.84-2.06-3.21-4.36-2.46c-2.6.84-3.27 3.84-3.8 6.48c-.66 3.24-1.64 11.5-1.64 11.5s-4.69 1.88-7.51 1.45c-2.82-.42-6.34-3.8-6.34-3.8s.28-4.22-1.13-5.07s-2.82 1.55-2.82 1.55l-5.63 6.19l-7.74-6.34s-.56-2.82-1.41-4.22c-.84-1.41-2.53-4.5-3.1-6.62c-1.4-5.21-.98-15.2-.98-15.2l-8.59-41.95l2.11-1.97s1.97-10.14 5.07-14.5s5.63-5.49 7.32-6.34s6.9-1.41 6.9 0s-2.39 3.24-3.8 5.49s-2.96 5.49-3.8 8.31S47.43 25 47.43 25l3.05.7s1.69-4.08 3.24-6.19c1.55-2.11 3.73-5 6.41-7.04c2.27-1.73 5.42-3.52 8.94-3.52c3.52 0 8.17.99 7.74 3.59c-.23 1.42-2.89.77-5.56 2.53c-3.25 2.14-6.76 5.7-9.36 11.68s-3.52 8.59-3.52 8.59s6.83 6.41 7.53 8.59s.77 5.56.77 5.56z"/>
            <path fill="#6d4938" d="M35.7 70.14s5.73 3.62 8.26 3.75c3.89.21 9.62-2.09 13.21-6.03s6.55-9.68 6.03-16.68c-.45-6.03-2.51-8.24-2.51-8.24s3.59 3.52 8.8 3.1c5.21-.42 9.43-3.59 11.05-6.76c1.28-2.5 2.46-5.56 1.69-6.12c-.77-.56-3.36 0-3.36 0l-9.81 4.43l-16.82 1.13l-17.6 25.13l1.06 6.29zM22.18 30.16c-.7.48.35 3.66 2.82 5.56s5.98 2.46 5.98 2.46l5.21-7.11s-12.67-1.83-14.01-.91z"/>
            <path fill="#855b52" d="M66.76 97.97s2.86 2.63 6.87 2.28c4.01-.35 7.63-2.93 7.63-2.93s-.8 8.21-.87 9.76c-.07 1.55-.21 6.1-.21 6.1s-5.07 5.44-7.81 4.95c-2.75-.49-6.57-5.3-6.5-6.22c.07-.92.66-5.04.8-7.16c.14-2.11.09-6.78.09-6.78zM56.32 96.72c4.29-.3 7.53-1.95 7.53-1.95s.23 6.01.14 7.6c-.16 2.78-.38 6.1-.66 6.95c-.28.84-9.41 2.04-9.41 2.04s-4.43-3.94-4.43-4.15c0-.21.23-3.21.33-5.44c.07-1.62-.42-6.66-.42-6.66s2.84 1.9 6.92 1.61zM90.04 85.77s3.03.33 5.07.12c2.04-.21 6.26-1.76 7.32-2.46c1.06-.7 1.83-1.83 1.83-1.83s-.42 8.73-.35 10.42c.07 1.69.07 5.7.07 5.7s-3.31 5.35-6.83 5.7c-3.52.35-7.11-6.15-7.11-6.15s.52-3.43.52-5.54c-.01-2.11-.52-5.96-.52-5.96zM39.71 32.88c.69.41 2.11-3.87 11.19-3.8c10 .07 15.27 4.93 16.05 5c.77.07 6.12 0 7.81-.14c1.69-.14 4.65-1.48 4.58-.49s-1.2 6.41-6.19 7.81c-5 1.41-13.44-1.62-15.06-1.76c-1.62-.14-3.03 0-2.89 2.46c.14 2.46-18.37 13.59-18.37 13.59s-13.54-6.31-13.75-7.09c-.21-.77 1.31-2.82 2.56-4.74c1.58-2.44 2.39-5.14 3.24-6.55c.84-1.41 2.18-3.24 2.18-3.24s-2.63.21-4.36-.54c-1.19-.51-4.15-2.49-4.29-3.19s3.31.07 6.12-.21c2.82-.28 8.09-3.24 8.09-3.24s1.76 1.41 2.25 2.75s.49 3.17.84 3.38z"/>
            <path fill="#46484a" d="M72.25 114.39c3.72.33 8-1.69 8-1.69s.35 6.41-.63 8.26c-.84 1.6-3.43 3.33-9.78 2.3c-4.12-.67-4.62-3.11-4.86-4.65c-.23-1.55.84-6.9.84-6.9s1.72 2.26 6.43 2.68zM97.08 99.38c2.96-.1 6.9-1.67 6.9-1.67s.21 6.26-2.18 8.45c-2.75 2.51-9.27 1.74-11.1-.31c-1.83-2.04-.66-8.78-.66-8.78s3.02 2.45 7.04 2.31zM55.97 108.69c3.46.14 7.65-1.1 7.65-1.1s.52 7.56-3 8.87c-3.74 1.4-8.63 1.08-10.56-1.36c-1.39-1.76-.63-8.17-.63-8.17s2.95 1.62 6.54 1.76zM27.53 66.18s-.81 3.1-.33 6.48c.38 2.65 2.37 5.21 2.72 6.12s.99 3.03.92 3.73c-.07.7.89.87 1.1.35c.26-.63-.02-1.51.7-1.34c.8.19 0 1.74 1.03 1.78c1.08.05.35-1.41 1.13-1.41c.82 0 .09 1.67 1.27 1.64c1.08-.02.07-1.48 1.1-1.45c.84.02.14 1.55 1.31 1.38c.66-.09-.11-1.66.75-1.85c.75-.16.35 1.41 1.22 1.08c.56-.21.75-1.67.54-3.36c-.21-1.69-.84-4.08-1.2-6.01c-.35-1.92-.75-3.97-.77-5.8s-.05-3.97-.05-3.97l-11.44 2.63z"/>
            <path fill="#fff3dd" d="M40.44 50.01c.55.05 2.63-2.25 3.57-3.89s3.43-5.26 7.09-5.68c3.76-.43 5.96 1.55 6.85 4.65c.82 2.86.05 6.15-3.71 7.93c-3.62 1.72-5.02 1.03-8.07 1.92c-1.62.47-4.13 1.88-4.27 2.06c-.14.19.83 6.93-4.5 9.85c-4.46 2.44-11.31 1.5-14.83-2.91c-3.86-4.84-3.14-12.11-.28-15.63c2.83-3.48 6.24-4.75 11.26-3.28c5.62 1.65 6.37 4.93 6.89 4.98z"/>
            <path fill="#2e2e2e" d="M55.22 47.57c0 2.06-1.31 3.94-3.89 3.99c-2.21.04-3.07-1.79-3.14-3.85c-.09-2.63 1.79-3.95 3.66-3.99c2.43-.05 3.37 1.79 3.37 3.85zM25.42 52.77s3.66-2.01 4.12-2.25s1.65-.67 2.29.32c.63.99-.39 1.87-1.2 2.22c-.81.35-4.22 2.43-4.22 2.43s-.39 2.57-.04 2.85c.94.75 2.36 1.16 3.52 1.06c1.16-.11 2.08-.6 2.43-.67c.35-.07 1.34-.11 1.55.6c.21.7-.29 1.52-1.16 1.94c-1.04.49-2.08 1.01-3.84.7c-1.37-.24-2.46-.56-3.1-.99c-.63-.42-1.3-1.2-1.3-1.2s-.95 1.16-1.83 1.13c-.88-.04-2.01-.6-2.04-.7c-.04-.11-1.2-1.02-.67-2.01c.53-.99 1.72.35 2.46.46c.74.11 1.2-.39 1.27-.63c.07-.25.04-2.99.04-2.99s-1.58-2.04-1.94-2.39c-.35-.35-1.27-1.51-.32-2.22s1.58 0 1.83.21s2.15 2.13 2.15 2.13z"/>
        </g>
    </defs>
    <path d="M0,0h50v50h-50z" fill="#93c59f" />
    <path d="M5,5h40v40h-40zM5,5l40,40M45,5l-40,40M15,5v40M25,5v40M35,5v40M5,15h40M5,25h40M5,35h40M25,5l20,20l-20,20l-20,-20l20,-20" stroke="black" stroke-width="0.5" fill="#c8efd1" />
    <path d="M44.875,16.0L44.875,33.4644L44.625,33.4644L45.0,34.0L45.375,33.4644L45.125,33.4644L45.125,16.0A 0.125 0.125 0 0 0 44.875 16.0Z" fill="#008000" stroke="#008000" /><path d="M16.5,45.125L23.4644,45.125L23.4644,45.375L24.0,45.0L23.4644,44.625L23.4644,44.875L16.5,44.875A 0.125 0.125 0 0 0 16.5 45.125Z" fill="#ffff00" stroke="#ffff00" /><path d="M26.5,5.125L33.4644,5.125L33.4644,5.375L34.0,5.0L33.4644,4.625L33.4644,4.875L26.5,4.875A 0.125 0.125 0 0 0 26.5 5.125Z" fill="#ffff00" stroke="#ffff00" />
    <use x="5" y="5" href="#g"/><use x="15" y="5" href="#g"/><use x="45" y="5" href="#g"/><use x="5" y="15" href="#g"/><use x="25" y="15" href="#g"/><use x="35" y="15" href="#g"/><use x="5" y="25" href="#g"/><use x="15" y="25" href="#g"/><use x="25" y="25" href="#g"/><use x="45" y="25" href="#g"/><use x="5" y="35" href="#g"/><use x="35" y="35" href="#g"/><use x="5" y="45" href="#g"/><use x="35" y="45" href="#g"/><use x="15" y="35" href="#g"/><use x="25" y="5" href="#t"/><use x="15" y="15" href="#t"/><use x="45" y="15" href="#t"/><use x="15" y="45" href="#t"/>
</svg>