<?xml version="1.0" encoding="utf-8"?>
<svg version="1.1" id="BackgroundSVG" xmlns="http://www.w3.org/2000/svg" viewBox="0 -48 240 240">
    <defs>
        <path id="h" d="M40 20 l-10,17.3 l-20,0 l-10,-17.3 l10,-17.3 l20,0 l10,17.3 z" fill="#fac45f" stroke="black"
            stroke-width="2" />
        <path id="b" transform="scale(0.0415) translate(-405,-405)" fill="#2391ff"
            d="M 403.1875 275.667969 C 492.324219 275.757812 564.523438 341.921875 564.40625 451.738281 C 564.300781 553.042969 512.550781 636.597656 433.039062 648.875 C 426.351562 649.90625 377.425781 649.703125 369.898438 648.371094 C 291.695312 634.5 241.496094 551.574219 241.597656 451.40625 C 241.714844 341.585938 314.042969 275.570312 403.1875 275.667969 " />
        <path id="r" transform="scale(0.0415) translate(-405,-405)" fill="#ff3131"
            d="M 403.1875 275.667969 C 492.324219 275.757812 564.523438 341.921875 564.40625 451.738281 C 564.300781 553.042969 512.550781 636.597656 433.039062 648.875 C 426.351562 649.90625 377.425781 649.703125 369.898438 648.371094 C 291.695312 634.5 241.496094 551.574219 241.597656 451.40625 C 241.714844 341.585938 314.042969 275.570312 403.1875 275.667969 " />
        <g id="f" transform="scale(0.0415) translate(-405,-405)">
            <path fill="#000" stroke="#000" stroke-width="18"
                d="M 515.417969 289.273438 C 515.472656 234.679688 466.015625 172.539062 404.933594 172.480469 C 343.847656 172.410156 294.261719 234.449219 294.207031 289.039062 C 294.148438 343.640625 343.710938 298.820312 404.800781 298.882812 C 465.886719 298.945312 515.355469 343.875 515.417969 289.273438 " />
            <g fill="#000">
                <path d="M 248.582031 458.171875 C 248.476562 557.078125 298.734375 635.082031 370.792969 647.867188 C 382.261719 649.902344 424.875 649.371094 431.519531 648.34375 C 505.082031 636.988281 556.539062 558.917969 556.644531 458.492188 C 556.742188 359.265625 493.476562 289.894531 402.789062 289.804688 C 312.097656 289.703125 248.6875 358.945312 248.582031 458.171875 Z M 371.558594 665.308594 C 369.5625 663.378906 366.988281 662.191406 364.269531 661.632812 C 326.011719 653.695312 293.410156 630.027344 269.777344 592.972656 C 246.546875 556.542969 233.78125 508.667969 233.832031 458.152344 C 233.890625 403.75 251 357.34375 283.316406 323.949219 C 313.875 292.367188 356.308594 275.003906 402.800781 275.050781 C 449.292969 275.101562 491.691406 292.558594 522.183594 324.203125 C 554.429688 357.664062 571.441406 404.105469 571.386719 458.507812 C 571.277344 562.753906 518.414062 644.769531 441.816406 661.429688 C 437.910156 662.277344 434.523438 664.664062 432.386719 668.042969 C 419.371094 688.613281 416.734375 728.027344 405.800781 724.246094 C 390.523438 718.960938 388.386719 681.613281 371.558594 665.308594 " />
                <path d="M 276.101562 578.589844 C 418.714844 514 531.421875 573.648438 532.546875 574.257812 L 562.210938 511.609375 C 556.519531 508.519531 420.933594 436.726562 250.597656 513.878906 L 276.101562 578.589844 " />
                <path d="M 236.683594 450.605469 C 379.300781 385.097656 563.292969 443.175781 564.414062 443.796875 L 546.464844 373.65625 C 540.773438 370.515625 431.691406 287.964844 261.351562 366.203125 L 236.683594 450.605469 " />
                <path d="M 344.496094 200.761719 L 359.070312 199.097656 C 358.835938 198 353.226562 171.933594 341.925781 144.753906 C 325.835938 106.074219 307.289062 86.039062 285.21875 83.511719 C 264.039062 81.089844 243.511719 94.929688 222.457031 125.832031 L 235.652344 130.679688 C 252.96875 105.257812 269.292969 92.648438 282.953125 94.203125 C 311.957031 97.523438 336.09375 161.328125 344.496094 200.761719 " />
                <path d="M 222.296875 111.628906 C 216.675781 127.359375 223.109375 142.234375 236.679688 144.855469 C 250.246094 147.46875 265.804688 136.839844 271.433594 121.109375 C 277.054688 105.375 270.621094 90.5 257.050781 87.886719 C 243.480469 85.265625 227.917969 95.894531 222.296875 111.628906 " />
                <path d="M 462.023438 200.886719 L 447.457031 199.1875 C 447.699219 198.09375 453.355469 172.035156 464.71875 144.882812 C 480.890625 106.234375 499.480469 86.242188 521.550781 83.765625 C 542.734375 81.378906 563.238281 95.269531 584.226562 126.207031 L 571.023438 131.023438 C 553.757812 105.570312 537.457031 92.929688 523.800781 94.457031 C 494.785156 97.714844 470.511719 161.460938 462.023438 200.886719 " />
                <path d="M 584.417969 112.003906 C 590.007812 127.746094 583.535156 142.609375 569.96875 145.199219 C 556.390625 147.789062 540.851562 137.128906 535.261719 121.386719 C 529.671875 105.640625 536.140625 90.777344 549.710938 88.195312 C 563.285156 85.597656 578.824219 96.265625 584.417969 112.003906 " />
            </g>
            <g fill="#fff" stroke="#000" stroke-width="13">
                <path d="M 452.496094 411.832031 C 452.496094 411.832031 585.898438 320.332031 665.722656 379.976562 C 745.535156 439.625 726.222656 517.542969 655.683594 537.382812 C 585.140625 557.226562 452.496094 411.832031 452.496094 411.832031 " />
                <path d="M 454.304688 409.082031 C 454.304688 409.082031 531.558594 207.128906 657.550781 207.226562 C 783.546875 207.332031 817.453125 304.941406 756.703125 381.554688 C 695.953125 458.175781 454.304688 409.082031 454.304688 409.082031 " />
                <path d="M 357.378906 411.832031 C 357.378906 411.832031 223.976562 320.332031 144.15625 379.976562 C 64.335938 439.625 83.652344 517.542969 154.195312 537.382812 C 224.738281 557.226562 357.378906 411.832031 357.378906 411.832031 " />
                <path d="M 355.578125 409.082031 C 355.578125 409.082031 278.316406 207.128906 152.324219 207.226562 C 26.328125 207.332031 -7.578125 304.941406 53.171875 381.554688 C 113.929688 458.175781 355.578125 409.082031 355.578125 409.082031 " />
            </g>
        </g>
    </defs>

    <use href="#h" x="100" y="0" />
    <use href="#h" x="70" y="17.3" />
    <use href="#h" x="130" y="17.3" />
    <use href="#h" x="40" y="34.6" />
    <use href="#h" x="100" y="34.6" />
    <use href="#h" x="160" y="34.6" />
    <use href="#h" x="10" y="51.9" />
    <use href="#h" x="70" y="51.9" />
    <use href="#h" x="130" y="51.9" />
    <use href="#h" x="190" y="51.9" />
    <use href="#h" x="40" y="69.2" />
    <use href="#h" x="100" y="69.2" />
    <use href="#h" x="160" y="69.2" />
    <use href="#h" x="70" y="86.5" />
    <use href="#h" x="130" y="86.5" />
    <use href="#h" x="100" y="103.8" />
    <path fill="#ffff00" stroke="#ffff00" d="M66.8174,53.2062L82.0326,43.0655L83.247,45.1355L85.8599,39.4289L79.6037,38.9254L80.8181,40.9954L65.603,51.1361A 1.2 1.2 0 0 0 66.8174 53.2062ZM65.6378,58.0374L80.7885,67.9733L79.5896,70.0524L85.8418,69.5021L83.1864,63.8151L81.9875,65.8942L66.8367,55.9583A 1.2 1.2 0 0 0 65.6378 58.0374ZM65.6378,92.6374L80.7885,102.5733L79.5896,104.6524L85.8418,104.1021L83.1864,98.4151L81.9875,100.4942L66.8367,90.5583A 1.2 1.2 0 0 0 65.6378 92.6374ZM66.8367,87.8417L81.9875,77.9058L83.1864,79.9849L85.8418,74.2979L79.5896,73.7476L80.7885,75.8267L65.6378,85.7626A 1.2 1.2 0 0 0 66.8367 87.8417Z"/>
    <use href="#b" x="30" y="74" />
    <use href="#f" x="30" y="74" />
    <use href="#b" x="60" y="57" />
    <use href="#f" x="60" y="57" />
    <use href="#b" x="60" y="91" />
    <use href="#f" x="60" y="91" />
    <use href="#r" x="210" y="74" />
    <use href="#f" x="210" y="74" />
    <use href="#r" x="180" y="57" />
    <use href="#f" x="180" y="57" />
    <use href="#r" x="180" y="91" />
    <use href="#f" x="180" y="91" />
</svg>