<svg version="1.1" id="BackgroundSVG" xmlns="http://www.w3.org/2000/svg" viewBox="0 -5 70 70">
    <defs>
        <path id="r" stroke="none" fill="#C97D41" d="M10,0h10v10h-10z M30,0h10v10h-10z M50,0h10v10h-10z" />
        <path id="s" stroke="none" fill="#C97D41" d="M0,0h10v10h-10z M20,0h10v10h-10z M40,0h10v10h-10z M60,0h10v10h-10z" />
        <g id="w" transform="scale(0.222) translate(-22.5, -22.5)">
        <g style="fill:none; fill-rule:evenodd; fill-opacity:1; stroke:#000000; stroke-width:1.5; stroke-linecap:round; stroke-linejoin:round; stroke-miterlimit:4; stroke-dasharray:none; stroke-opacity:1;" transform="translate(0,0.6)">
    <g style="fill:#ffffff; stroke:#000000; stroke-linecap:butt;">
      <path d="M 9,36 C 12.39,35.03 19.11,36.43 22.5,34 C 25.89,36.43 32.61,35.03 36,36 C 36,36 37.65,36.54 39,38 C 38.32,38.97 37.35,38.99 36,38.5 C 32.61,37.53 25.89,38.96 22.5,37.5 C 19.11,38.96 12.39,37.53 9,38.5 C 7.65,38.99 6.68,38.97 6,38 C 7.35,36.54 9,36 9,36 z"/>
      <path d="M 15,32 C 17.5,34.5 27.5,34.5 30,32 C 30.5,30.5 30,30 30,30 C 30,27.5 27.5,26 27.5,26 C 33,24.5 33.5,14.5 22.5,10.5 C 11.5,14.5 12,24.5 17.5,26 C 17.5,26 15,27.5 15,30 C 15,30 14.5,30.5 15,32 z"/>
      <path d="M 25 8 A 2.5 2.5 0 1 1  20,8 A 2.5 2.5 0 1 1  25 8 z"/>
    </g>
    <path d="M 17.5,26 L 27.5,26 M 15,30 L 30,30 M 22.5,15.5 L 22.5,20.5 M 20,18 L 25,18" style="fill:none; stroke:#000000; stroke-linejoin:miter;"/>
  </g></g>
  <g id="b" transform="scale(0.222) translate(-22.5, -22.5)">
    <g style="fill:none; fill-rule:evenodd; fill-opacity:1; stroke:#000000; stroke-width:1.5; stroke-linecap:round; stroke-linejoin:round; stroke-miterlimit:4; stroke-dasharray:none; stroke-opacity:1;" transform="translate(0,0.6)">
    <g style="fill:#000000; stroke:#000000; stroke-linecap:butt;">
      <path d="M 9,36 C 12.39,35.03 19.11,36.43 22.5,34 C 25.89,36.43 32.61,35.03 36,36 C 36,36 37.65,36.54 39,38 C 38.32,38.97 37.35,38.99 36,38.5 C 32.61,37.53 25.89,38.96 22.5,37.5 C 19.11,38.96 12.39,37.53 9,38.5 C 7.65,38.99 6.68,38.97 6,38 C 7.35,36.54 9,36 9,36 z"/>
      <path d="M 15,32 C 17.5,34.5 27.5,34.5 30,32 C 30.5,30.5 30,30 30,30 C 30,27.5 27.5,26 27.5,26 C 33,24.5 33.5,14.5 22.5,10.5 C 11.5,14.5 12,24.5 17.5,26 C 17.5,26 15,27.5 15,30 C 15,30 14.5,30.5 15,32 z"/>
      <path d="M 25 8 A 2.5 2.5 0 1 1  20,8 A 2.5 2.5 0 1 1  25 8 z"/>
    </g>
    <path d="M 17.5,26 L 27.5,26 M 15,30 L 30,30 M 22.5,15.5 L 22.5,20.5 M 20,18 L 25,18" style="fill:none; stroke:#ffffff; stroke-linejoin:miter;"/>
  </g>
    </g>
    </defs>
    <path d="M0,0h70v60h-70z" stroke="none" fill="#FEC595" />
    <use href="#r" x="0" y="0" />
    <use href="#s" x="0" y="10" />
    <use href="#r" x="0" y="20" />
    <use href="#s" x="0" y="30" />
    <use href="#r" x="0" y="40" />
    <use href="#s" x="0" y="50" />
    <use href="#w" x="5" y="5" />
    <use href="#w" x="5" y="25" />
    <use href="#w" x="5" y="45" />
    <use href="#b" x="65" y="5" />
    <use href="#b" x="65" y="25" />
    <use href="#b" x="65" y="45" />
</svg>