<?xml version="1.0" encoding="utf-8"?><!-- Author: Jiachun Li --><svg xmlns="http://www.w3.org/2000/svg" viewBox="-50 0 1000 1000"><style> .t { alignment-baseline: middle; text-anchor: middle; font-family: Arial, Helvetica, sans-serif; } .p { font-size: 60px; font-family: LiSu; text-anchor: middle; dominant-baseline: central; } </style><defs><path id="s" fill="none" stroke="#000" stroke-width="4" d="M-35,-7h28v-28m14,0v28h28m0,14h-28v28m-14,0v-28h-28" /><path id="r" fill="none" stroke="#000" stroke-width="4" d="M-7,-35v28h-28m0,14h28v28" /><path id="l" fill="none" stroke="#000" stroke-width="4" d="M7,-35v28h28m0,14h-28v28" /><g id="z"><circle cx="50" cy="50" r="40" fill="#f1cb9d" stroke="#000000" stroke-width="1"/><circle cx="50" cy="50" r="35" fill="#f1cb9d" stroke="#000000" stroke-width="2"/></g><g id="y"><circle cx="50" cy="50" r="40" fill="#f1cb9d" stroke="#cf2020" stroke-width="1"/><circle cx="50" cy="50" r="35" fill="#f1cb9d" stroke="#cf2020" stroke-width="2"/></g></defs><path d="M0,0h900v1000h-900z" fill="#f1cb9d" /><path d="M45,45h810v910h-810z" fill="none" stroke="black" stroke-width="3" /><path d="M50,50h800v900h-800zM50,150h800M50,250h800M50,350h800M50,450h800M50,550h800M50,650h800M50,750h800M50,850h800 M150,50v400M250,50v400M350,50v400M450,50v400M550,50v400M650,50v400M750,50v400 M150,550v400M250,550v400M350,550v400M450,550v400M550,550v400M650,550v400M750,550v400 M350,50l200,200M550,50l-200,200M350,750l200,200M550,750l-200,200" fill="none" stroke="#000" stroke-width="4" /><use href="#s" x="150" y="250" /><use href="#s" x="750" y="250" /><use href="#s" x="150" y="750" /><use href="#s" x="750" y="750" /><use href="#s" x="250" y="350" /><use href="#s" x="450" y="350" /><use href="#s" x="650" y="350" /><use href="#s" x="250" y="650" /><use href="#s" x="450" y="650" /><use href="#s" x="650" y="650" /><use href="#l" x="50" y="350" /><use href="#l" x="50" y="650" /><use href="#r" x="850" y="350" /><use href="#r" x="850" y="650" /><text x="250" y="500" font-size="80" font-family="LiSu" text-anchor="middle" dominant-baseline="central" fill="#000000">楚 河</text><text x="650" y="500" font-size="80" font-family="LiSu" text-anchor="middle" dominant-baseline="central" fill="#000000">汉 界</text><use href="#z"/><use href="#z" x="100"/><use href="#z" x="200"/><use href="#z" x="300"/><use href="#z" x="400"/><use href="#z" x="500"/><use href="#z" x="600"/><use href="#z" x="700"/><use href="#z" x="800"/><use href="#z" x="100" y="200"/><use href="#z" x="700" y="200"/><use href="#z" x="0" y="300"/><use href="#z" x="200" y="300"/><use href="#z" x="400" y="300"/><use href="#z" x="600" y="300"/><use href="#z" x="800" y="300"/><use href="#y" y="900"/><use href="#y" x="100" y="900"/><use href="#y" x="200" y="900"/><use href="#y" x="300" y="900"/><use href="#y" x="400" y="900"/><use href="#y" x="500" y="900"/><use href="#y" x="600" y="900"/><use href="#y" x="700" y="900"/><use href="#y" x="800" y="900"/><use href="#y" x="100" y="700"/><use href="#y" x="700" y="700"/><use href="#y" x="0" y="600"/><use href="#y" x="200" y="600"/><use href="#y" x="400" y="600"/><use href="#y" x="600" y="600"/><use href="#y" x="800" y="600"/><g fill="#000"><text x="50" y="50" class="p">車</text><text x="150" y="50" class="p">馬</text><text x="250" y="50" class="p">象</text><text x="350" y="50" class="p">士</text><text x="450" y="50" class="p">將</text><text x="550" y="50" class="p">士</text><text x="650" y="50" class="p">象</text><text x="750" y="50" class="p">馬</text><text x="850" y="50" class="p">車</text><text x="150" y="250" class="p">砲</text><text x="750" y="250" class="p">砲</text><text x="50" y="350" class="p">卒</text><text x="250" y="350" class="p">卒</text><text x="450" y="350" class="p">卒</text><text x="650" y="350" class="p">卒</text><text x="850" y="350" class="p">卒</text></g><g fill="#cf2020"><text x="50" y="950" class="p">俥</text><text x="150" y="950" class="p">傌</text><text x="250" y="950" class="p">相</text><text x="350" y="950" class="p">仕</text><text x="450" y="950" class="p">帥</text><text x="550" y="950" class="p">仕</text><text x="650" y="950" class="p">相</text><text x="750" y="950" class="p">傌</text><text x="850" y="950" class="p">俥</text><text x="150" y="750" class="p">炮</text><text x="750" y="750" class="p">炮</text><text x="50" y="650" class="p">兵</text><text x="250" y="650" class="p">兵</text><text x="450" y="650" class="p">兵</text><text x="650" y="650" class="p">兵</text><text x="850" y="650" class="p">兵</text></g></svg>