<?xml version="1.0" encoding="utf-8"?><svg version="1.1" xmlns="http://www.w3.org/2000/svg" viewBox="-0.5 -38 176 176"><defs><g id="x"><rect x="0" y="0" width="25" height="25" fill="#784A10" /><rect x="0.5" y="0.5" width="24" height="24" fill="#7A553B" /></g></defs><path d="M0,0h25v25h75v25h50v25h25v25h-175z" fill="#7A553B" /><path d="M0,0h25M0,25h100M0,50h150M0,75h175M0,100h175M0,0v100M25,0v100M50,100v-75M75,100v-75M100,100v-75 M125,100v-50M150,100v-50M175,100v-25" stroke-linecap="round" stroke="#784A10" fill="none" /><g transform="translate(0 75)"><circle cx="12.5" cy="12.5" r="10" fill="none" stroke-width="2" stroke="#784A10" /><line x1="5.42893218813" y1="5.42893218813" x2="19.5710678119" y2="19.5710678119" stroke-width="2" stroke="#784A10" /></g><g stroke="none" fill="#800000"><circle cx="62.5" cy="87.5" r="3.0" fill="#008000" /><circle cx="12.5" cy="37.5" r="3.0" fill="#008000" opacity="0.75" /><circle cx="12.5" cy="12.5" r="3.0" /><circle cx="37.5" cy="37.5" r="3.0" opacity="0.75" /><circle cx="62.5" cy="37.5" r="3.0" opacity="0.75" /><circle cx="87.5" cy="37.5" r="3.0" opacity="0.75" /><circle cx="37.5" cy="62.5" r="3.0" opacity="0.75" /><circle cx="62.5" cy="62.5" r="3.0" opacity="0.75" /><circle cx="87.5" cy="62.5" r="3.0" opacity="0.75" /><circle cx="112.5" cy="62.5" r="3.0" opacity="0.75" /><circle cx="137.5" cy="62.5" r="3.0" opacity="0.75" /><circle cx="87.5" cy="87.5" r="3.0" opacity="0.75" /><circle cx="112.5" cy="87.5" r="3.0" opacity="0.75" /><circle cx="137.5" cy="87.5" r="3.0" opacity="0.75" /><circle cx="162.5" cy="87.5" r="3.0" opacity="0.75" /><circle cx="12.5" cy="62.5" r="3.0" opacity="0.5" /><circle cx="37.5" cy="87.5" r="3.0" /></g></svg>