<?xml version="1.0" encoding="utf-8"?><svg version="1.1" xmlns="http://www.w3.org/2000/svg" viewBox="-0.5 -38 201 201"><defs><g id="x"><rect x="0" y="0" width="25" height="25" fill="#784A10" /><rect x="0.5" y="0.5" width="24" height="24" fill="#7A553B" /></g><circle id="c" cx="12.5" cy="12.5" r="3.0" /></defs><path d="M0,0h25v25h25v25h50v25h50v25h50v25h-200z" fill="#7A553B" /><path d="M0,0h25M0,25h50M0,50h100M0,75h150M0,100h200v25h-200v-125M25,0v125M50,25v100M75,50v75M100,50v75M125,75v50M150,75v50M175,100v25" stroke-linecap="round" stroke="#784A10" fill="none" /><g transform="translate(0 100)"><circle cx="12.5" cy="12.5" r="10" fill="none" stroke-width="2" stroke="#784A10" /><line x1="5.42893218813" y1="5.42893218813" x2="19.5710678119" y2="19.5710678119" stroke-width="2" stroke="#784A10" /></g><g fill="#800"><use href="#c" x="0" y="0"/><use href="#c" x="0" y="25"/><use href="#c" x="25" y="50"/></g><g fill="#800" opacity="0.75"><use href="#c" x="0" y="50" /><use href="#c" x="0" y="75" /><use href="#c" x="25" y="75" /><use href="#c" x="25" y="100" /><use href="#c" x="50" y="50" /><use href="#c" x="50" y="75" /><use href="#c" x="75" y="50" /><use href="#c" x="75" y="75" /><use href="#c" x="75" y="100" /><use href="#c" x="100" y="75" /><use href="#c" x="100" y="100" /><use href="#c" x="125" y="75" /><use href="#c" x="125" y="100" /><use href="#c" x="150" y="100" /><use href="#c" x="175" y="100" /></g><use href="#c" x="25" y="25" fill="#008000" /><use href="#c" x="50" y="100" fill="#008000" /></svg>