<?xml version="1.0" encoding="utf-8"?><svg version="1.1" xmlns="http://www.w3.org/2000/svg" viewBox="-0.5 -26 251 251"><defs><g id="x"><rect x="0" y="0" width="25" height="25" fill="#784A10" /><rect x="0.5" y="0.5" width="24" height="24" fill="#7A553B" /></g><circle id="c" cx="12.5" cy="12.5" r="3.0" /></defs><path d="M0,0v200h250v-25h-25v-25h-50v-25h-25v-25h-50v-25h-25v-25h-25v-25h-25v-25z" fill="#7A553B" /><path d="M0,0h25M0,25h50M0,50h75M0,75h100M0,100h150M0,125h175M0,150h225M0,175h250v25h-250v-200M25,200v-200M50,200v-175M75,200v-150M100,200v-125M125,200v-100M150,200v-100M175,200v-75M200,200v-50M225,200v-50" stroke-linecap="round" stroke="#784A10" fill="none" /><g transform="translate(0 175)"><circle cx="12.5" cy="12.5" r="10" fill="none" stroke-width="2" stroke="#784A10" /><line x1="5.42893218813" y1="5.42893218813" x2="19.5710678119" y2="19.5710678119" stroke-width="2" stroke="#784A10" /></g><g fill="#800"><use href="#c" x="0" y="0"/><use href="#c" x="0" y="25"/><use href="#c" x="25" y="25"/><use href="#c" x="0" y="50"/><use href="#c" x="25" y="50"/><use href="#c" x="50" y="50"/><use href="#c" x="0" y="75"/><use href="#c" x="25" y="75"/><use href="#c" x="50" y="75"/><use href="#c" x="75" y="75"/><use href="#c" x="0" y="100"/><use href="#c" x="25" y="100"/><use href="#c" x="50" y="100"/><use href="#c" x="75" y="100"/><use href="#c" x="100" y="100"/><use href="#c" x="125" y="100"/><use href="#c" x="25" y="125"/><use href="#c" x="50" y="125"/><use href="#c" x="75" y="125"/><use href="#c" x="100" y="125"/><use href="#c" x="125" y="125"/><use href="#c" x="150" y="125"/><use href="#c" x="0" y="150"/><use href="#c" x="25" y="150"/><use href="#c" x="50" y="150"/><use href="#c" x="75" y="150"/><use href="#c" x="100" y="150"/><use href="#c" x="125" y="150"/><use href="#c" x="150" y="150"/><use href="#c" x="175" y="150"/><use href="#c" x="200" y="150"/><use href="#c" x="25" y="175"/><use href="#c" x="75" y="175"/><use href="#c" x="100" y="175"/><use href="#c" x="125" y="175"/><use href="#c" x="150" y="175"/><use href="#c" x="175" y="175"/><use href="#c" x="200" y="175"/><use href="#c" x="225" y="175"/></g><use href="#c" x="0" y="125" fill="#008000" /><use href="#c" x="50" y="175" fill="#008000" /></svg>