<?xml version="1.0" encoding="utf-8"?><svg version="1.1" xmlns="http://www.w3.org/2000/svg" viewBox="0 0 100 100"><defs><path id="f" d="M-8.5,-2h17a2,2 1,1,1 0,4 h-17a2,2 1,1,1 0,-4z" stroke="#000" fill="#fff" /><g id="0"><circle cx="0" cy="0" r="2.75" fill="#dcdcdc" stroke-width="0.5"/><text y="0.4" text-anchor="middle" alignment-baseline="middle" font-size="5"  stroke-width="0" stroke="none" font-family="Arial">0</text></g><g id="1"><path d="M-1,2 h2 v9 h2 l-3,4.284 l-3,-4.284 h2 z" stroke="none" stroke-width="0"/><circle cx="0" cy="0" r="2.75" fill="#dcdcdc" stroke-width="0.5"/><text y="0.4" text-anchor="middle" alignment-baseline="middle" font-size="5" stroke-width="0" stroke="none" font-family="Arial">1</text></g><g id="8"><path d="M1,-2 h-2 v-9 h-2 l3,-4.284 l3,4.284 h-2 z" stroke="none" stroke-width="0"/><circle cx="0" cy="0" r="2.75" fill="#dcdcdc" stroke-width="0.5"/><text y="0.4" text-anchor="middle" alignment-baseline="middle" font-size="5" stroke-width="0" stroke="none" font-family="Arial">2</text></g><g id="9"><path d="M1,-2 h-2 v-9 h-2 l3,-4.284 l3,4.284 h-2 z" stroke="none" stroke-width="0"/><circle cx="0" cy="0" r="2.75" fill="#dcdcdc" stroke-width="0.5"/><text y="0.4" text-anchor="middle" alignment-baseline="middle" font-size="5" stroke-width="0" stroke="none" font-family="Arial">1</text></g></defs><path d="M0,0h100v100h-100z" fill="#dcdcdc" /><g stroke-linejoin="round" stroke="#000" fill="#fff"><path transform="translate(100 35) scale(-1)" d="M20.5,10.25a12,4 0,0,1 0,4.1h1a12,4 0,0,1 0,4.1h-1a12,4 0,0,1 0,4.1h-1.34a12,4 0,0,1 0,4.1" /><path transform="translate(0 35) scale(1,-1)" d="M20.5,10.25a12,4 0,0,1 0,4.1h1a12,4 0,0,1 0,4.1h-1a12,4 0,0,1 0,4.1h-1.34a12,4 0,0,1 0,4.1" /><path transform="translate(100 65) scale(-1,1)" d="M20.5,10.25a12,4 0,0,1 0,4.1h1a12,4 0,0,1 0,4.1h-1a12,4 0,0,1 0,4.1h-1.34a12,4 0,0,1 0,4.1" /><path transform="translate(0 65)" d="M20.5,10.25a12,4 0,0,1 0,4.1h1a12,4 0,0,1 0,4.1h-1a12,4 0,0,1 0,4.1h-1.34a12,4 0,0,1 0,4.1" /></g><use href="#f" x="25.5" y="22.5" /><use href="#f" x="25.5" y="77.5" /><use href="#f" x="28.5" y="81.5" /><use href="#f" x="74.5" y="77.5" /><use href="#f" x="71.5" y="81.5" /><use href="#f" x="74.5" y="22.5" /><use href="#f" x="71.5" y="18.5" /><g transform="translate(100 35) scale(-1)"><path d="M19.16,26.6l-8.66,-0.1l-2,-2h-2v-14h1.8c0,-2 3,-3.9 9,-3 c0,-0.5 3.5,2.9 3.5,2.9" stroke-linecap="round" stroke-linejoin="round" stroke="#000" fill="#fff" /><rect x="0.5" y="9.5" rx="1" ry="1" width="6" height="16" stroke-width="1" stroke="#000" fill="#FF0000" /></g><g transform="translate(0 35) scale(1,-1)"><path d="M19.16,26.6l-8.66,-0.1l-2,-2h-2v-14h1.8c0,-2 3,-3.9 9,-3 c0,-0.5 3.5,2.9 3.5,2.9" stroke-linecap="round" stroke-linejoin="round" stroke="#000" fill="#fff" /><rect x="0.5" y="9.5" rx="1" ry="1" width="6" height="16" stroke-width="1" stroke="#000" fill="#0000FF" /></g><g transform="translate(100 65) scale(-1,1)"><path d="M19.16,26.6l-8.66,-0.1l-2,-2h-2v-14h1.8c0,-2 3,-3.9 9,-3 c0,-0.5 3.5,2.9 3.5,2.9" stroke-linecap="round" stroke-linejoin="round" stroke="#000" fill="#fff" /><rect x="0.5" y="9.5" rx="1" ry="1" width="6" height="16" stroke-width="1" stroke="#000" fill="#FF0000" /></g><g transform="translate(0 65)"><path d="M19.16,26.6l-8.66,-0.1l-2,-2h-2v-14h1.8c0,-2 3,-3.9 9,-3 c0,-0.5 3.5,2.9 3.5,2.9" stroke-linecap="round" stroke-linejoin="round" stroke="#000" fill="#fff" /><rect x="0.5" y="9.5" rx="1" ry="1" width="6" height="16" stroke-width="1" stroke="#000" fill="#0000FF" /></g><g fill="#800000" stroke="#800000"><use href="#1" x="22.5" y="50" opacity="0.5"/><use href="#8" x="15.5" y="50" opacity="0.5"/><path d="M40.78885438199983,69.54032522475023L59.59475560152094,31.928522785708036L60.48918279252085,32.37573638120799 L60.10557280900009,29.788854381999833L57.805901219521104,31.03409559470812L58.70032841052102,31.481309190208076 L39.89442719099991,69.09311162925027A 0.5 0.5 0 0 0 40.78885438199983 69.54032522475023Z" opacity="0.75"/><path d="M39.89442719099991,30.906888370749726L58.70032841052102,68.51869080979193L57.805901219521104,68.9659044052919 L60.10557280900009,70.21114561800017L60.48918279252085,67.62426361879201L59.59475560152094,68.07147721429197 L40.78885438199983,30.459674775249766A 0.5 0.5 0 0 0 39.89442719099991 30.906888370749726Z"/><path d="M45,83.5L53.857778,83.5L53.857778,84.5 L56,83L53.857778,81.5L53.857778,82.5 L45,82.5A 0.5 0.5 0 0 0 45 83.5Z" opacity="0.75"/><path d="M45,17.5L53.857778,17.5L53.857778,18.5 L56,17L53.857778,15.5L53.857778,16.5 L45,16.5A 0.5 0.5 0 0 0 45 17.5Z"/></g></svg>