<?xml version="1.0" encoding="utf-8"?>
<svg version="1.1" id="ForegroundSVG" xmlns="http://www.w3.org/2000/svg" viewBox="0 0 70 70">
    <defs>
        <path id="z" d="M0,0h70v10.1h-70zM1,5a4,4 0 1,0 8,0 a4,4 0 1,0 -8,0M11,5 a 4,4 0 1,0 8,0 a 4,4 0 1,0 -8,0M21,5 a 4,4 0 1,0 8,0 a 4,4 0 1,0 -8,0M31,5 a 4,4 0 1,0 8,0 a 4,4 0 1,0 -8,0M41,5 a 4,4 0 1,0 8,0 a 4,4 0 1,0 -8,0M51,5 a 4,4 0 1,0 8,0 a 4,4 0 1,0 -8,0M61,5 a 4,4 0 1,0 8,0 a 4,4 0 1,0 -8,0" fill="gray" fill-rule="evenodd"/>
    </defs>
    <path fill="blue" d="M0,70v-10h20v-10h10v-30h10v20h10v20h20v10z"/>
    <path fill="red" d="M10,60v-20h10v20zM20,60h10v10h-10zM30,60v-20h10v20zM50,70v-20h10v20zM40,30h10v10h-10zM30,10h10v10h-10z"/>
    <use href="#z" x="0" y="10"/>
    <use href="#z" x="0" y="20"/>
    <use href="#z" x="0" y="30"/>
    <use href="#z" x="0" y="40"/>
    <use href="#z" x="0" y="50"/>
    <use href="#z" x="0" y="60"/>
    <path d="M14.35,1.4L14.35,5.8151L13.05,5.8151L15.0,8.6L16.95,5.8151L15.65,5.8151L15.65,1.4A 0.65 0.65 0 0 0 14.35 1.4Z" fill="#008000" stroke="#008000" /><path d="M24.35,1.4L24.35,5.8151L23.05,5.8151L25.0,8.6L26.95,5.8151L25.65,5.8151L25.65,1.4A 0.65 0.65 0 0 0 24.35 1.4Z" fill="#008000" stroke="#008000" /><path d="M44.35,1.4L44.35,5.8151L43.05,5.8151L45.0,8.6L46.95,5.8151L45.65,5.8151L45.65,1.4A 0.65 0.65 0 0 0 44.35 1.4Z" fill="#008000" stroke="#008000" /><path d="M54.35,1.4L54.35,5.8151L53.05,5.8151L55.0,8.6L56.95,5.8151L55.65,5.8151L55.65,1.4A 0.65 0.65 0 0 0 54.35 1.4Z" fill="#ffff00" stroke="#ffff00" /><path d="M4.35,1.4L4.35,5.8151L3.05,5.8151L5.0,8.6L6.95,5.8151L5.65,5.8151L5.65,1.4A 0.65 0.65 0 0 0 4.35 1.4Z" fill="#800000" stroke="#800000" /><path d="M64.35,1.4L64.35,5.8151L63.05,5.8151L65.0,8.6L66.95,5.8151L65.65,5.8151L65.65,1.4A 0.65 0.65 0 0 0 64.35 1.4Z" fill="#800000" stroke="#800000" />
</svg>