<?xml version="1.0" encoding="utf-8"?>
<svg version="1.1" id="ForegroundSVG" xmlns="http://www.w3.org/2000/svg" viewBox="0 0 70 70">
    <defs>
        <path id="z" d="M0,0h60v10.1h-60zM1,5a4,4 0 1,0 8,0 a4,4 0 1,0 -8,0M11,5 a 4,4 0 1,0 8,0 a 4,4 0 1,0 -8,0M21,5 a 4,4 0 1,0 8,0 a 4,4 0 1,0 -8,0M31,5 a 4,4 0 1,0 8,0 a 4,4 0 1,0 -8,0M41,5 a 4,4 0 1,0 8,0 a 4,4 0 1,0 -8,0M51,5 a 4,4 0 1,0 8,0 a 4,4 0 1,0 -8,0" fill="gray" fill-rule="evenodd"/>
    </defs>
    <path fill="red" d="M5,70v-30h10v10h20v-40h10v50h10v10z"/>
    <path fill="blue" d="M5,30h10v10h-10zM35,20h10v20h-10zM25,40h10v10h-10zm10,10h20v10h-10v10h-10zM55,60h10v10h-10zM15,70v-10h10v10z"/>
    <use href="#z" x="5" y="10"/>
    <use href="#z" x="5" y="20"/>
    <use href="#z" x="5" y="30"/>
    <use href="#z" x="5" y="40"/>
    <use href="#z" x="5" y="50"/>
    <use href="#z" x="5" y="60"/>
    <path d="M9.35,1.2L9.35,6.0151L8.05,6.0151L10.0,8.8L11.95,6.0151L10.65,6.0151L10.65,1.2A 0.65 0.65 0 0 0 9.35 1.2Z" fill="#008000" stroke="#008000" /><path d="M59.35,1.2L59.35,6.0151L58.05,6.0151L60.0,8.8L61.95,6.0151L60.65,6.0151L60.65,1.2A 0.65 0.65 0 0 0 59.35 1.2Z" fill="#008000" stroke="#008000" /><path d="M19.35,1.2L19.35,6.0151L18.05,6.0151L20.0,8.8L21.95,6.0151L20.65,6.0151L20.65,1.2A 0.65 0.65 0 0 0 19.35 1.2Z" fill="#ffff00" stroke="#ffff00" /><path d="M29.35,1.2L29.35,6.0151L28.05,6.0151L30.0,8.8L31.95,6.0151L30.65,6.0151L30.65,1.2A 0.65 0.65 0 0 0 29.35 1.2Z" fill="#800000" stroke="#800000" /><path d="M49.35,1.2L49.35,6.0151L48.05,6.0151L50.0,8.8L51.95,6.0151L50.65,6.0151L50.65,1.2A 0.65 0.65 0 0 0 49.35 1.2Z" fill="#800000" stroke="#800000" />
</svg>