<?xml version="1.0" encoding="utf-8"?>
<svg version="1.1" id="BackgroundSVG" xmlns="http://www.w3.org/2000/svg" viewBox="0 0 100 100">
    <path d="M0,0h100v100h-100z" stroke="#000" stroke-width="1.25" fill="#D8D9DA"/>
    <path d="M0,25h100M0,50h100M0,75h100M25,0v100M50,0v100M75,0v100" stroke="#000" stroke-width="0.625"/>
    <g fill="#FFFF00" stroke="#FFFF00"> 
    <path d="M36.26256313292354,60.20190296114372L18.5850462963738,41.81727934340743L20.35281324934017,40.04951239044106L13.914213562373096,38.91421356237309L15.049512390441063,45.352813249340166L16.81727934340743,43.5850462963738L34.49479617995717,61.96966991411009A 1.25 1.25 0 0 0 36.26256313292354 60.20190296114372Z"/><path d="M59.5,86.25L44.855555,86.25L44.855555,83.75L39.5,87.5L44.855555,91.25L44.855555,88.75L59.5,88.75A 1.25 1.25 0 0 0 59.5 86.25Z"/><path d="M65.5,88.75L80.144445,88.75L80.144445,91.25L85.5,87.5L80.144445,83.75L80.144445,86.25L65.5,86.25A 1.25 1.25 0 0 0 65.5 88.75Z"/><path d="M13.75,85.5L13.75,69.855555L16.25,69.855555L12.5,64.5L8.75,69.855555L11.25,69.855555L11.25,85.5A 1.25 1.25 0 0 0 13.75 85.5Z"/><path d="M15.5,88.75L30.144445,88.75L30.144445,91.25L35.5,87.5L30.144445,83.75L30.144445,86.25L15.5,86.25A 1.25 1.25 0 0 0 15.5 88.75Z"/><path d="M86.25,64.5L86.25,80.144445L83.75,80.144445L87.5,85.5L91.25,80.144445L88.75,80.144445L88.75,64.5A 1.25 1.25 0 0 0 86.25 64.5Z"/><path d="M88.75,60.5L88.75,44.855555L91.25,44.855555L87.5,39.5L83.75,44.855555L86.25,44.855555L86.25,60.5A 1.25 1.25 0 0 0 88.75 60.5Z"/><path d="M36.25,64.5L36.25,80.144445L33.75,80.144445L37.5,85.5L41.25,80.144445L38.75,80.144445L38.75,64.5A 1.25 1.25 0 0 0 36.25 64.5Z"/><path d="M34.5,61.25L19.855555,61.25L19.855555,58.75L14.5,62.5L19.855555,66.25L19.855555,63.75L34.5,63.75A 1.25 1.25 0 0 0 34.5 61.25Z" fill="#800000" stroke="#800000" />
    </g>
    <g fill="#fff">
        <circle cx="12.5" cy="87.5" r="11.25"/>
        <circle cx="37.5" cy="62.5" r="11.25"/>
        <circle cx="62.5" cy="87.5" r="11.25"/>
        <circle cx="87.5" cy="62.5" r="11.25"/>
    </g>
    <g fill="#000">
        <circle cx="12.5" cy="12.5" r="11.25"/>
        <circle cx="37.5" cy="37.5" r="11.25"/>
        <circle cx="62.5" cy="37.5" r="11.25"/>
        <circle cx="62.5" cy="62.5" r="11.25"/>
    </g>
</svg>