<?xml version="1.0" encoding="utf-8"?> <svg version="1.1" xmlns="http://www.w3.org/2000/svg" viewBox="-0.5 -20.5 51 51"> <defs><path id="k" fill="#fff" stroke="#000" stroke-linecap="round" stroke-width="1.5" transform="translate(-0.1,0) scale(0.2222)" d="M22.5 11.63V6M20 8h5M22.5 25s4.5-7.5 3-10.5c0 0-1-2.5-3-2.5s-3 2.5-3 2.5c-1.5 3 3 10.5 3 10.5M12.5 37c5.5 3.5 14.5 3.5 20 0v-7s9-4.5 6-10.5c-4-6.5-13.5-3.5-16 4V27v-3.5c-2.5-7.5-12-10.5-16-4-3 6 6 10.5 6 10.5v7M12.5 30c5.5-3 14.5-3 20 0m-20 3.5c5.5-3 14.5-3 20 0m-20 3.5c5.5-3 14.5-3 20 0" /></defs> <path d="M0,0h50v10h-50zM0,10h90M0,0v10M10,0v10M20,0v10M30,0v10M40,0v10" fill="white" stroke="#000" stroke-linecap="round" stroke-width="0.5"/> <use href="#k" x="0" y="0"/> <use href="#k" x="20" y="0"/> <use href="#k" x="40" y="0"/> </svg>