<?xml version="1.0" encoding="utf-8"?> <svg version="1.1" xmlns="http://www.w3.org/2000/svg" viewBox="0 0 100 100"> <defs> <radialGradient id="rg0" cx="-107.6189" cy="-90.5162" r="10.0083" fx="-109.6206" fy="-92.5178" gradientTransform="matrix(1 0 0 1 159.5 142.5)" gradientUnits="userSpaceOnUse"> <stop offset="0" stop-color="#000000" /> <stop offset="1" stop-color="#000000" stop-opacity="0" /> </radialGradient> <radialGradient id="rg1" cx="-109.6189" cy="-92.5162" r="10.0083" fx="-114.623" fy="-97.5203" gradientTransform="matrix(1 0 0 1 159.5 142.5)" gradientUnits="userSpaceOnUse"> <stop offset="0" stop-color="#b6a8fe" /> <stop offset="0.5" stop-color="#4960f7" /> <stop offset="1" stop-color="#0400f5" /> </radialGradient> <radialGradient id="rg2" cx="-107.6189" cy="-90.5162" r="10.0083" fx="-109.6206" fy="-92.5178" gradientTransform="matrix(1 0 0 1 159.5 142.5)" gradientUnits="userSpaceOnUse"> <stop offset="0" stop-color="#000000" /> <stop offset="1" stop-color="#000000" stop-opacity="0" /> </radialGradient> <radialGradient id="rg3" cx="-109.6189" cy="-92.5162" r="10.0083" fx="-114.623" fy="-97.5203" gradientTransform="matrix(1 0 0 1 159.5 142.5)" gradientUnits="userSpaceOnUse"> <stop offset="0" stop-color="#fea8a8" /> <stop offset="0.5" stop-color="#fc6464" /> <stop offset="1" stop-color="#d00000" /> </radialGradient> <g id="b" transform="scale(1.5) translate(-50,-50)"> <path fill="url(#rg0)" d="M61.9,52c0,5.5-4.5,10-10,10s-10-4.5-10-10s4.5-10,10-10S61.9,46.5,61.9,52z" /> <path fill="url(#rg1)" d="M59.9,50c0,5.5-4.5,10-10,10s-10-4.5-10-10s4.5-10,10-10S59.9,44.5,59.9,50z" /> </g> <g id="r" transform="scale(1.5) translate(-50,-50)"> <path fill="url(#rg2)" d="M61.9,52c0,5.5-4.5,10-10,10s-10-4.5-10-10s4.5-10,10-10S61.9,46.5,61.9,52z" /> <path fill="url(#rg3)" d="M59.9,50c0,5.5-4.5,10-10,10s-10-4.5-10-10s4.5-10,10-10S59.9,44.5,59.9,50z" /> </g> </defs> <rect x="0" y="0" width="100" height="100" fill="#BBB" rx="10" ry="10" /> <path d="M33.33,0v100M66.66,0v100M0,33.33h100M0,66.66h100" stroke="#DDD" stroke-width="0.833" /> <path d="M14.6667,52.0L14.6667,72.7644L10.6667,72.7644L16.6667,81.3333L22.6667,72.7644L18.6667,72.7644L18.6667,52.0A 2.0 2.0 0 0 0 14.6667 52.0Z" fill="#800000" stroke="#800000" opacity="0.75" /><path d="M19.6667,18.6667L39.4311,18.6667L39.4311,22.6667L48.0,16.6667L39.4311,10.6667L39.4311,14.6667L19.6667,14.6667A 2.0 2.0 0 0 0 19.6667 18.6667Z" fill="#008000" stroke="#008000" /><path d="M19.6667,52.0L39.4311,52.0L39.4311,56.0L48.0,50.0L39.4311,44.0L39.4311,48.0L19.6667,48.0A 2.0 2.0 0 0 0 19.6667 52.0Z" fill="#800000" stroke="#800000" /> <use href="#b" x="16.66" y="16.66"/> <use href="#b" x="16.66" y="50" /> <use href="#r" x="50" y="83.33" /> <use href="#r" x="83.33" y="83.33" /> </svg>