<?xml version="1.0" standalone="no"?><svg viewBox="0 0 100 100" xmlns="http://www.w3.org/2000/svg"><defs><path id="h" transform="scale(16.5)" d="M-0.5,-0.5h1v1h-1z" stroke-width="0.060606" stroke="#000" stroke-linejoin="round" fill="none" /><rect id="a" transform="scale(0.6)" x="-25.875" y="-12.3125" width="51.75" height="24.625" rx="3" ry="3" fill="red" /><rect id="b" transform="scale(0.6)" x="-12.3125" y="-25.875" width="24.625" height="51.75" rx="3" ry="3" fill="blue" /><ellipse id="c" rx="1.8" ry="3"/></defs><use href="#h" x="8.75" y="8.75"/><use href="#h" x="25.25" y="8.75"/><use href="#h" x="41.75" y="8.75"/><use href="#h" x="58.25" y="8.75"/><use href="#h" x="74.75" y="8.75"/><use href="#h" x="91.25" y="8.75"/><use href="#h" x="8.75" y="25.25"/><use href="#h" x="25.25" y="25.25"/><use href="#h" x="41.75" y="25.25"/><use href="#h" x="58.25" y="25.25"/><use href="#h" x="74.75" y="25.25"/><use href="#h" x="91.25" y="25.25"/><use href="#h" x="8.75" y="41.75"/><use href="#h" x="25.25" y="41.75"/><use href="#h" x="41.75" y="41.75"/><use href="#h" x="58.25" y="41.75"/><use href="#h" x="74.75" y="41.75"/><use href="#h" x="91.25" y="41.75"/><use href="#h" x="8.75" y="58.25"/><use href="#h" x="25.25" y="58.25"/><use href="#h" x="41.75" y="58.25"/><use href="#h" x="58.25" y="58.25"/><use href="#h" x="74.75" y="58.25"/><use href="#h" x="91.25" y="58.25"/><use href="#h" x="8.75" y="74.75"/><use href="#h" x="25.25" y="74.75"/><use href="#h" x="41.75" y="74.75"/><use href="#h" x="58.25" y="74.75"/><use href="#h" x="74.75" y="74.75"/><use href="#h" x="91.25" y="74.75"/><use href="#h" x="8.75" y="91.25"/><use href="#h" x="25.25" y="91.25"/><use href="#h" x="41.75" y="91.25"/><use href="#h" x="58.25" y="91.25"/><use href="#h" x="74.75" y="91.25"/><use href="#h" x="91.25" y="91.25"/><use href="#a" x="33.5" y="25.25" /><use href="#a" x="50" y="41.75" /><use href="#a" x="83" y="58.25" /><use href="#a" x="50" y="74.75" /><use href="#b" x="58.25" y="17" /><use href="#b" x="8.75" y="50" /><use href="#b" x="25.25" y="83" /><use href="#b" x="74.75" y="83" /><use href="#c" x="8.75" y="17" fill="#800" /><use href="#c" x="74.75" y="17" fill="#008000" /><use href="#c" x="91.25" y="17" fill="#008000" /><use href="#c" x="74.75" y="33.5" fill="#008000" /><use href="#c" x="91.25" y="33.5" fill="#008000" /><use href="#c" x="25.25" y="50" fill="#800" /><use href="#c" x="8.75" y="83" opacity="0.75" fill="#800" /><use href="#c" x="91.25" y="83" opacity="0.75" fill="#800" /></svg>