<?xml version="1.0" standalone="no"?><svg viewBox="0 0 100 100" xmlns="http://www.w3.org/2000/svg"><defs><path id="h" transform="scale(24.625)" d="M-0.5,-0.5h1v1h-1z" stroke-width="0.06091370558375635" stroke="#000" stroke-linejoin="round" fill="none" /><rect id="a" transform="scale(0.9)" x="-25.875" y="-12.3125" width="51.75" height="24.625" rx="3" ry="3" fill="red"/><rect id="b" transform="scale(0.9)" x="-12.3125" y="-25.875" width="24.625" height="51.75" rx="3" ry="3" fill="blue"/><ellipse id="c" rx="2.7" ry="4.5"/></defs><use href="#h" x="13.0625" y="13.0625"/><use href="#h" x="37.6875" y="13.0625"/><use href="#h" x="62.3125" y="13.0625"/><use href="#h" x="86.9375" y="13.0625"/><use href="#h" x="13.0625" y="37.6875"/><use href="#h" x="37.6875" y="37.6875"/><use href="#h" x="62.3125" y="37.6875"/><use href="#h" x="86.9375" y="37.6875"/><use href="#h" x="13.0625" y="62.3125"/><use href="#h" x="37.6875" y="62.3125"/><use href="#h" x="62.3125" y="62.3125"/><use href="#h" x="86.9375" y="62.3125"/><use href="#h" x="13.0625" y="86.9375"/><use href="#h" x="37.6875" y="86.9375"/><use href="#h" x="62.3125" y="86.9375"/><use href="#h" x="86.9375" y="86.9375"/><use href="#a" x="74.625" y="13.0625"/><use href="#a" x="25.375" y="86.9375"/><use href="#b" x="37.6875" y="50"/><use href="#b" x="86.9375" y="74.625"/><use href="#c" x="13.0625" y="25.375" fill="#008000"/><use href="#c" x="62.3125" y="50" fill="#008000"/><use href="#c" x="13.0625" y="50" fill="#800"/><use href="#c" x="62.3125" y="74.625" fill="#800"/></svg>