<?xml version="1.0" standalone="no"?><svg viewBox="0 0 100 100" xmlns="http://www.w3.org/2000/svg"><defs><path id="h" transform="scale(19.76)" d="M-0.5,-0.5h1v1h-1z" stroke-width="0.06072874493927126" stroke="#000" stroke-linejoin="round" fill="none" /><rect id="a" transform="scale(0.72)" x="-25.875" y="-12.3125" width="51.75" height="24.625" rx="3" ry="3" fill="red"/><rect id="b" transform="scale(0.72)" x="-12.3125" y="-25.875" width="24.625" height="51.75" rx="3" ry="3" fill="blue"/><ellipse id="c" rx="3.6" ry="2.16"/></defs><use href="#h" x="10.48" y="10.48"/><use href="#h" x="30.24" y="10.48"/><use href="#h" x="50.0" y="10.48"/><use href="#h" x="69.76" y="10.48"/><use href="#h" x="89.52" y="10.48"/><use href="#h" x="10.48" y="30.24"/><use href="#h" x="30.24" y="30.24"/><use href="#h" x="50.0" y="30.24"/><use href="#h" x="69.76" y="30.24"/><use href="#h" x="89.52" y="30.24"/><use href="#h" x="10.48" y="50.0"/><use href="#h" x="30.24" y="50.0"/><use href="#h" x="50.0" y="50.0"/><use href="#h" x="69.76" y="50.0"/><use href="#h" x="89.52" y="50.0"/><use href="#h" x="10.48" y="69.76"/><use href="#h" x="30.24" y="69.76"/><use href="#h" x="50.0" y="69.76"/><use href="#h" x="69.76" y="69.76"/><use href="#h" x="89.52" y="69.76"/><use href="#h" x="10.48" y="89.52"/><use href="#h" x="30.24" y="89.52"/><use href="#h" x="50.0" y="89.52"/><use href="#h" x="69.76" y="89.52"/><use href="#h" x="89.52" y="89.52"/><use href="#a" x="40.12" y="10.48"/><use href="#a" x="40.12" y="50"/><use href="#a" x="20.36" y="69.76"/><use href="#b" x="10.48" y="20.36"/><use href="#b" x="89.52" y="20.36"/><use href="#b" x="50" y="79.64"/><use href="#b" x="69.76" y="79.64"/><use href="#c" x="40.12" y="30.24" fill="#800"/><use href="#c" x="59.88" y="30.24" fill="#008000"/><use href="#c" x="79.64" y="50" opacity="0.75" fill="#008000"/><use href="#c" x="20.36" y="89.52" fill="#800"/></svg>