<svg xmlns="http://www.w3.org/2000/svg" viewBox="0 0 40 40"><defs><g id="x" transform="scale(0.0625) translate(-64 -64)"><path fill="#bdce44" d="M103.13 54.42s3.5-.66 6.57-2.96c2.75-2.06 6.77-5.88 5.4-7.32c-1.48-1.55-3.87 2.53-4.43 1.55c-.37-.65 2.32-2.89 3.52-6.34c1.07-3.07-.15-6.11-2.89-2.75c-.85 1.04-1.49 2.17-1.9 1.76c-.44-.44.61-3 1.38-5.39c1.29-4.04-.68-6.72-4.05-1.83c-1.44 2.08-2.09 4.82-3.17 4.62c-.77-.14-.38-1.7-.51-3.25c-.27-3.23-3.36-2.87-4.42 2.83c-.47 2.52-.06 5.43-.63 5.63c-.99.35-.77-3.94-2.39-3.52c-1.18.31-1.62 3.24-1.55 6.34s2.04 8.09 2.04 8.09l2.75 5l4.28-2.46z" /><path fill="#6d8038" d="M95.46 52.19s-2.21 5.16.82 11.8c2.21 4.85 5.37 8.27 3.5 10.21c-2.77 2.86-12.53-3.33-22.15-.49c-7.49 2.21-11.06 6.47-13.24 14.29c-1.63 5.85-3.24 8.12-5.96 8.92c-2.12.62-5.44.16-7.2-1.45c-3.72-3.42-3.63-7.37-2.23-10.69c1.31-3.11 5.64-6.15 7.65-7.19c5.56-2.89 19.22-7.11 23.09-14.5c3.45-6.59 4.36-14.15 2.25-19.08c-2.11-4.93-5.49-3.17-5.49-3.17l.77 11.68L63.83 66.6L44.47 79.83L41.8 93.91l6.76 11.4l13.94-1.06l14.22-21.4l13.73-.99l13.02-.7l4.93-13.8l-12.94-15.17z" /><path fill="#00aa48" d="M105.59 40.13c-2.32-1.57-10.23 5.63-10.3 13.73c-.07 8.09 4.81 13.8 5.8 15.42s4.11 7.3.07 9.85c-3.24 2.06-18.37-4.58-26.19.42c-7.81 5-5.16 13.59-12.34 20.53c-2.69 2.61-17.15 5.02-18.35-9.34s16.19-15.06 24.78-21.33c8.59-6.26 11.33-11.54 11.05-18.93c-.28-7.39-2.46-9.71-2.46-9.71l-13.8 5.63l-6.34 10.28s-8.27 3.03-15.58 7.95c-8.61 5.8-10.14 10-10.14 10s-2.02-.63-2.02-1.13s7.09-8.57 6.48-12.11c-.75-4.34-3.14-5.51-4.55-5.65c-1.41-.14-2.21 1.08-1.17 2.67c1.03 1.6 1.55 3 1.36 3.61c-.19.61-.81 1.25-.94.19c-.14-1.17-.99-3.17-1.6-3.99c-.5-.67-2.06-2.63-3.99-2.3s-2.06 2.16-.47 3.66c1.6 1.5 3.14 3.61 2.35 4.55c-.8.94-2.11-2.09-2.96-3.21c-.84-1.13-2.93-1.56-4.18-1.81c-1.31-.26-3.47 1.19-2.21 3.28c.94 1.55 2.21.8 3.75 2.44s1.6 2.25 1.55 2.67c-.05.42-2.96 2.58-3.28 4.55c-.33 1.97.23 3.19-.52 3.89c-.75.7-3.94.56-4.97.89c-1.03.33-2.16 2.96-.19 3.8c1.97.84 5.58.99 7.27.47c1.23-.38 1.6-.94 2.11-.84c.52.09 4.6 3.1 4.6 3.1s-.58 4.34-.49 8.02c.12 4.79 1.55 8.54 1.55 8.54s1.43 2.04.82 2.02c-1.74-.07-6.48-4.79-8.82-5.3c-2.35-.52-4.22-.37-5.12.66c-.82.94-1.12 3.01.52 3.14c1.79.14 2.63-.23 2.63.42c0 .43-.58.78-1.74 1.17c-1.67.56-2.14 1.89-1.74 3.52c.38 1.53 2.49 1.08 3.1.61s.84-.94 1.17-.52c.33.42-1.11 1.5-1.55 2.49c-.89 1.99.36 2.85 1.69 2.96c1.83.14 2.11-2.21 2.96-3.1c.84-.89 1.92-1.6 2.3-1.55c.38.05.23 1.55 1.92 3.38c1.69 1.83 3.99.8 4.36 1.13s-.28 2.77 1.17 4.08s3.8.75 3.8-1.27s.19-2.86.19-2.86s2.84 2.49 6.55 3.8c3.71 1.31 8.78 2.42 8.78 2.42s-.51.91-.4 2.7c.05.73.21 2.96 2.37 2.91c1.55-.03 1.62-3 2.18-3.1c.56-.09-.54 3.87 2.32 4.06c2.86.19 1.95-3.54 2.46-3.64c.52-.09.53 4.84 4.27 3.14c1.97-.89-.66-5.24-.47-5.63c.12-.23 1.97-.52 3.19-1.31c.81-.53 1.31-1.69 1.31-1.69s5.91-1.67 8.35-6.08c3.33-6.02 2.77-13.16 5.4-15.46c2.63-2.3 7.7-.47 10.14-.19c2.44.28 2.67.19 2.82.28c.14.09.42 1.22.19 1.55c-.23.33-6.9 2.72-8.49 5.4c-1.6 2.67-1.37 4.58-1.22 5.3c.33 1.55 1.85 1.76 2.53.47c.67-1.27 1.03-2.39 1.6-2.21c.56.19-.54 2.29-.09 3.28c.66 1.45 2.3 1.22 2.96.7c.66-.52.82-2.58 1.29-2.35c.47.23 0 1.13.87 2.65c.77 1.35 3.31.12 2.93-1.88c-.23-1.22-1.24-2.14.21-3.31s2.63-1.13 4.13-2.06c1.5-.94 1.36-2.3 3.05-1.69c1.69.61 1.74 2.14 3 1.27c1.9-1.31.99-3.94-.61-5.21s-3.94-1.41-4.27-1.55c-.33-.14-.47-1.92-.47-1.92s9.48-3.71 10.56-13.05S104.7 59.07 104 53.02c-.68-6.01 3.62-11.52 1.59-12.89z" /><path fill="green" d="M34.43 24.11s-.42-5.3 3.14-8.12c3.57-2.82 9.2-.94 12.29-.38s7.13.47 10.04-.19c2.91-.66 4.04-1.22 5.82-1.31s4.36-.28 6.62-.47c1.91-.16 5.73-.66 6.34 1.13c.46 1.33-.84 2.67-2.91 3.19c-2.06.52-2.67.75-2.25 1.69s3.85.33 4.6.09c.75-.23 5.12-1.13 5.12 1.41s-3.57 3.28-5.87 3.85c-2.3.56-3.7.23-3.61 1.41c.14 1.88 6.01.09 7.79-.14c1.78-.23 4.04-.56 4.27 1.13s-1.55 3.52-4.93 4.08s-5.58 1.13-5.54 2.02s4.2-.02 5.4-.23c1.55-.28 3.75-.32 3.99 1.27c.56 3.75-6.1 3.1-6.24 4.6c-.13 1.34 5.3-.09 5.96 2.11c.66 2.21-1.41 4.13-4.69 4.41c-2.28.2-10.09-1.36-11.31-.05s2.96 1.61 4.36 1.92c1.88.42 5.02.66 3.61 3.52c-.92 1.88-4.36 1.36-6.87 1.48s-6.97.4-6.97.4l-10.04.47l-8.4-.99l-5.3-1.97l-4.04-1.69l-1.27-1.36l11.68-14.41l-10.79-8.87z" /><path fill="#bece44" d="M66.88 50.8c0 3.25-2.22 6.86-6.83 6.9c-4.61.04-6.97-2.78-7.71-2.99s-.99 2.67-3.55 2.82c-2.57.14-6.37-3.2-6.86-3.31c-.49-.11-.63 2.53-3.41 2.53c-1.94 0-4.19-3.03-5.67-4.4s-4.12-3.38-4.12-3.38h7.46s2.5-.28 5.63 0c3.04.27 5.53 2.67 10.56 2.57c2.82-.06 4.15-.32 4.15-.32s1.02-3.68 5.67-3.91c4.33-.21 4.68 2.75 4.68 3.49z" /><path fill="#ffba02" d="M51.49 20.75s4.86-1.85 5.47-3.17c.61-1.31 2.53-6.24 5.02-7.13c2.49-.89 3.94 1.6 2.21 3.52s-4.27 3.52-2.86 4.41s4.5-3.47 5.3-4.5s2.63-3.71 4.69-3.66c2.06.05 3.34 3.58-.61 6.85c-4.08 3.38-6.1 4.18-10.79 4.5c-4.69.33-6.95.63-6.95.63l-1.48-1.45z" /><path fill="#7cdb8b" d="M27.48 20.96s-2.35-7.79 1.78-11.17s9.53-1.27 12.81.75c3.01 1.85 8.9 1.54 8.68-1.88c-.19-2.96-3.44-2.13-3.71-.8c-.23 1.17-.73 1.92-1.17 1.78c-.5-.15-.81-1.16-.75-1.78c.23-2.67 2.49-3.47 4.27-3.28c1.4.15 3.75 1.17 3.52 4.93s-4.15 4.81-7.93 4.18c-2.99-.5-5.68-2.58-8.39-3.31c-1.66-.44-4-.08-5.43.96c-1.67 1.22-2.11 3.15-2.1 4.74c.01 1.01.2 1.94.29 2.63c.21 1.57 1.97 6.34 1.97 6.34l-3.84-4.09zM54.61 26.5s2.39.52 2.49 3.28s-.33 3-.09 3.1s2.16-1.03 3.19.28c1.3 1.66-1.03 4.36-2.35 5.26c-1.31.89-2.11 1.03-2.3 1.45c-.19.42-1.96 5.87-4.36 6.85c-2.77 1.13-10.75.66-11.83.66s-2.16 1.06-3.17 1.58s-1.99.86-3.17.57c-1.17-.28-2.96-1.6-2.96-1.6L54.61 26.5z" /><path fill="#d43330" d="M38.61 38.79l2.86.14l1.45-5.12s-3.99-1.36-5.4-1.08s-4.46 1.45-5.44 1.97c-.99.52-1.78 1.83-3.66 1.55c-1.88-.28-5.91-1.03-8.31 1.69c-2.07 2.36-1.69 4.36.09 5.21c1.78.84 4.04-1.83 5.49-2.06c1.45-.23 3.66.8 3.66.8l9.26-3.1z" /><path fill="#fff" d="M28.05 32.88s.89 4.08 1.97 4.08s1.08-1.31 1.08-1.31s4.13-1.08 4.93-1.55c.8-.47 1.78-2.39 1.78-2.39l-7.32-.52l-2.44 1.69zM27.95 44s-.84-1.83-.52-2.63c.33-.8.61-2.25 1.55-2.16c1.03.1 1.17 1.69 1.17 1.69s2.72-2.49 4.83-3.33c1.13-.45 3.05-.61 3.19.28c.14.89-.52 3.43-.52 3.43L27.95 44z" /><path fill="#02ab47" d="M24.86 40.62c-.35.64-.66 3-.09 4.69c.56 1.69 2.44 4.32 5.35 4.5s8.31-6.01 8.63-6.19c.33-.19 9.48 1.03 12.06-2.63s1.23-10.1 2.53-12.11c1.41-2.16 3.47-.75 3.47-.75s-.23-1.5-1.27-2.53c-1.03-1.03-2.49-.84-2.06-2.06c.42-1.22 3.61-.09 3.8-.99c.19-.89-1.09-1.79-2.55-2.06c-.69-.13-2.43.19-2.52-.23c-.09-.42 1.36-.47 1.41-1.45c.05-.99-3.71-.61-5.26-.42c-1.55.19-3.57 1.08-3.71.7c-.14-.38 2.53-1.78 2.44-2.25s-2.21-.89-5.35.8c-3.14 1.69-7.23 5.82-7.23 5.82l-3.1-.23s-4.32-5.11-7.09-4.46c-2.92.69-3.89 3.52-3.85 7.51s1.74 6.19 6.05 6.99c2.44.45 8.78-.22 10.09-.28c3.43-.16 4.08 1.36 4.27 2.67s-2.35 2.77-3.57 3.05s-2.86.56-4.18 1.45c-1.31.89-2.82 3.38-3.71 3.33c-.89-.05-1.08-1.6-1.55-2.53c-.43-.95-2.17-1.88-3.01-.34z" /><path fill="#79da89" d="M48.61 23.45c-.04.39-1.09 3.94-3.8 5.49c-2.71 1.55-5.46 1.09-6.19-1.16c-.82-2.51.56-5.1 3.84-4.65c2.96.42 6.36-1.55 6.15.32z" /><ellipse fill="#2f2e2f" transform="rotate(-51.325 41.611 26.215)" cx="41.61" cy="26.21" rx="2.24" ry="1.94" /><path fill="#2f2e2f" d="M24.74 21.69c-.62.56.42 1.98.49 2.79s-.31 2.28.75 2.21c1.06-.07 1.38-1.31 1.16-2.75c-.3-1.94-1.31-3.24-2.4-2.25z" /></g><g id="o" transform="scale(0.12) translate(-18 -25)"><path fill="#E1E8ED" d="M3.427 7.034c-1.049-1.086-1.535-2.903.2-5.106s9.144-2.87 8.61 4.939c-.067 1.835-.768 4.605-2.603 8.376c-.467.968-1.268 2.536-1.602 4.839c.968-.801 3.904-2.236 6.908-1.835c3.003.4 18.054 7.142 21.057 4.305c.1 1.168-3.637 12.781-18.555 12.781S.122 27.824.122 24.421s.868-5.173 3.371-7.542S9.835 8.87 8.099 6.367c-.367.667-2.769 2.636-4.672.667z" /><path fill="#CCD6DD" d="M10.202 26.557c-.567 2.136 2.967 6.589 8.71 6.608c8.385.028 12.881-4.705 15.384-10.746c-2.436-1.068-13.826-3.254-17.129-1.919s-3.667 1.583-7.298 3.52c1.167.201.3 2.537.333 2.537z" /><path fill="#292F33" d="M5.475 7.377a.402.402 0 0 0 .155-.309c0-.968.067-2.503.4-2.903c.785.083 1.118-.735.618-1.269s-1.418.067-1.352.634c-1.414-.377-2.442-.142-2.784.912c-.104 1.066.302 1.957.915 2.592c.295.305 1.776.427 2.048.343z" /><path fill="#E1E8ED" d="M9.301 24.087c.033-1.468 1.368-7.375 9.077-7.542c7.709-.167 8.31 4.672 14.416-.467c-.1 1.301-2.269 15.017-13.849 15.017c-9.21 0-9.678-5.54-9.644-7.008z" /><path fill="#F4900C" d="M.754 10.571c.85-.264 3.775-1.968 4.843-3.17c.3-.334-1.495-2.405-3.164-2.639c.1.534.06 2.572-1.575 4.374c-.434.334-1.026 1.602-.104 1.435z" /></g></defs><path d="M5,5h30v30h-30zM15,5v30M25,5v30M5,15h30M5,25h30" stroke="#000" stroke-width="0.5" fill="#fb93f8" /><g transform="scale(0.4)"><path d="M36,40.5L36,79.073334L33,79.073334 L37.5,85.5L42,79.073334L39,79.073334 L39,40.5A 1.5 1.5 0 0 0 36 40.5Z" fill="#880000" stroke="#880000" opacity="1"/><path d="M40.5,39L79.073334,39L79.073334,42 L85.5,37.5L79.073334,33L79.073334,36 L40.5,36A 1.5 1.5 0 0 0 40.5 39Z" fill="#880000" stroke="#880000" opacity="1"/><path d="M39,34.5L39,20.926665999999997L42,20.926665999999997 L37.5,14.5L33,20.926665999999997L36,20.926665999999997 L36,34.5A 1.5 1.5 0 0 0 39 34.5Z" fill="#880000" stroke="#880000" opacity="0.75"/><path d="M34.5,36L20.926665999999997,36L20.926665999999997,33 L14.5,37.5L20.926665999999997,42L20.926665999999997,39 L34.5,39A 1.5 1.5 0 0 0 34.5 36Z" fill="#880000" stroke="#880000" opacity="0.75"/></g><use href="#x" x="15" y="15" /><use href="#o" x="25" y="5" /><use href="#o" x="25" y="15" /><use href="#o" x="5" y="25" /><use href="#o" x="15" y="25" /><use href="#o" x="25" y="25" /><use href="#o" x="35" y="25" /><use href="#o" x="25" y="35" /></svg>