<?xml version="1.0" encoding="utf-8"?><svg version="1.1" id="BackgroundSVG" xmlns="http://www.w3.org/2000/svg" viewBox="0 0 100 100"><style> .st0 { font-size: 5px; alignment-baseline: middle; text-anchor: middle; font-family: Arial, Helvetica, sans-serif; } </style><defs><circle id="h" r="4" fill="none" stroke="#008800" stroke-width="0.8"/><path id="c" transform="scale(0.01111) translate(-405 -405)" fill="#5e17eb" d="M 122.15625 175.757812 C 124.527344 181.09375 126.269531 186.570312 129.390625 191.460938 C 132.511719 196.355469 135.296875 201.3125 138.570312 206.019531 C 145.4375 216.035156 154.828125 225.902344 163.59375 234.21875 C 181.398438 251.132812 200.257812 266.898438 219.070312 282.679688 C 257.308594 314.59375 296.710938 345.054688 336.480469 374.953125 C 414.457031 433.550781 494.796875 488.824219 577.507812 540.765625 C 600.328125 555.097656 623.3125 569.164062 646.457031 582.957031 C 658.800781 590.3125 670.933594 596.335938 683.429688 602.53125 C 696.949219 609.226562 710.5625 613.921875 725.015625 607.117188 C 725.679688 606.746094 726.285156 606.292969 726.824219 605.757812 C 727.367188 605.222656 727.824219 604.625 728.203125 603.964844 C 728.582031 603.304688 728.867188 602.609375 729.054688 601.871094 C 729.242188 601.132812 729.328125 600.386719 729.316406 599.625 C 727.96875 586.351562 720.015625 576.761719 709.277344 569.347656 C 699.152344 562.359375 689.699219 555.414062 679.113281 549.144531 C 657.914062 536.625 636.851562 523.882812 615.929688 510.914062 C 574.875 485.429688 534.363281 459.121094 494.390625 431.992188 C 414.578125 377.765625 338.113281 320.113281 263.042969 260.324219 C 241.234375 242.964844 219.941406 224.859375 197.792969 207.949219 C 186.871094 199.570312 175.550781 191.765625 163.835938 184.535156 C 152.410156 177.5 139.714844 173.339844 127.019531 169.441406 C 123.089844 168.234375 120.734375 172.5 122.15625 175.757812 Z M 122.15625 175.757812M 671.710938 162.757812 C 659.78125 164.519531 650.007812 170.648438 639.757812 176.523438 C 628.867188 182.808594 617.566406 188.402344 607.484375 195.957031 C 587.335938 211.035156 567.40625 226.378906 547.695312 241.988281 C 508.964844 272.570312 470.820312 303.796875 432.472656 334.828125 C 356.730469 396.085938 279.824219 456.445312 205.992188 520.105469 C 164.695312 555.992188 125.839844 594.347656 89.425781 635.179688 C 85.050781 640.058594 90.585938 647.964844 96.597656 644.460938 C 118.242188 631.890625 140.207031 619.183594 160.746094 604.929688 C 180.632812 591.167969 201.113281 578.140625 220.261719 563.445312 C 259.664062 533.226562 298.269531 502.03125 336.769531 470.710938 C 412.46875 409.191406 488.53125 348.039062 563.480469 285.675781 C 584.527344 268.152344 605.480469 250.503906 626.007812 232.398438 C 636.566406 222.902344 646.402344 212.707031 655.515625 201.816406 C 664.371094 191.476562 673.699219 182.515625 678.457031 169.441406 C 679.988281 165.082031 675.398438 162.179688 671.726562 162.714844 Z M 671.710938 162.757812 "/></defs><path d="M0,0h100v100h-100z" stroke-width="1" fill="#fff" stroke="#fadf70" /><path fill="none" stroke="#fadf70" stroke-width="0.5" d="m10,0v100m10,-100v100m10,-100v100m10,-100v100m10,-100v100m10,-100v100m10,-100v100m10,-100v100m10,-100v100M0,10h100m-100,10h100m-100,10h100m-100,10h100m-100,10h100m-100,10h100m-100,10h100m-100,10h100m-100,10h100" /><text x="5" y="5.6" class="st0">1</text><text x="15" y="5.6" class="st0">2</text><text x="25" y="5.6" class="st0">3</text><text x="35" y="5.6" class="st0">4</text><text x="45" y="5.6" class="st0">5</text><text x="55" y="5.6" class="st0">6</text><text x="65" y="5.6" class="st0">7</text><text x="75" y="5.6" class="st0">8</text><text x="85" y="5.6" class="st0">9</text><text x="95" y="5.6" class="st0">10</text><text x="5" y="15.6" class="st0">11</text><text x="15" y="15.6" class="st0">12</text><text x="25" y="15.6" class="st0">13</text><text x="35" y="15.6" class="st0">14</text><text x="45" y="15.6" class="st0">15</text><text x="55" y="15.6" class="st0">16</text><text x="65" y="15.6" class="st0">17</text><text x="75" y="15.6" class="st0">18</text><text x="85" y="15.6" class="st0">19</text><text x="95" y="15.6" class="st0">20</text><text x="5" y="25.6" class="st0">21</text><text x="15" y="25.6" class="st0">22</text><text x="25" y="25.6" class="st0">23</text><text x="35" y="25.6" class="st0">24</text><text x="45" y="25.6" class="st0">25</text><text x="55" y="25.6" class="st0">26</text><text x="65" y="25.6" class="st0">27</text><text x="75" y="25.6" class="st0">28</text><text x="85" y="25.6" class="st0">29</text><text x="95" y="25.6" class="st0">30</text><text x="5" y="35.6" class="st0">31</text><text x="15" y="35.6" class="st0">32</text><text x="25" y="35.6" class="st0">33</text><text x="35" y="35.6" class="st0">34</text><text x="45" y="35.6" class="st0">35</text><text x="55" y="35.6" class="st0">36</text><text x="65" y="35.6" class="st0">37</text><text x="75" y="35.6" class="st0">38</text><text x="85" y="35.6" class="st0">39</text><text x="95" y="35.6" class="st0">40</text><text x="5" y="45.6" class="st0">41</text><text x="15" y="45.6" class="st0">42</text><text x="25" y="45.6" class="st0">43</text><text x="35" y="45.6" class="st0">44</text><text x="45" y="45.6" class="st0">45</text><text x="55" y="45.6" class="st0">46</text><text x="65" y="45.6" class="st0">47</text><text x="75" y="45.6" class="st0">48</text><text x="85" y="45.6" class="st0">49</text><text x="95" y="45.6" class="st0">50</text><text x="5" y="55.6" class="st0">51</text><text x="15" y="55.6" class="st0">52</text><text x="25" y="55.6" class="st0">53</text><text x="35" y="55.6" class="st0">54</text><text x="45" y="55.6" class="st0">55</text><text x="55" y="55.6" class="st0">56</text><text x="65" y="55.6" class="st0">57</text><text x="75" y="55.6" class="st0">58</text><text x="85" y="55.6" class="st0">59</text><text x="95" y="55.6" class="st0">60</text><text x="5" y="65.6" class="st0">61</text><text x="15" y="65.6" class="st0">62</text><text x="25" y="65.6" class="st0">63</text><text x="35" y="65.6" class="st0">64</text><text x="45" y="65.6" class="st0">65</text><text x="55" y="65.6" class="st0">66</text><text x="65" y="65.6" class="st0">67</text><text x="75" y="65.6" class="st0">68</text><text x="85" y="65.6" class="st0">69</text><text x="95" y="65.6" class="st0">70</text><text x="5" y="75.6" class="st0">71</text><text x="15" y="75.6" class="st0">72</text><text x="25" y="75.6" class="st0">73</text><text x="35" y="75.6" class="st0">74</text><text x="45" y="75.6" class="st0">75</text><text x="55" y="75.6" class="st0">76</text><text x="65" y="75.6" class="st0">77</text><text x="75" y="75.6" class="st0">78</text><text x="85" y="75.6" class="st0">79</text><text x="95" y="75.6" class="st0">80</text><text x="5" y="85.6" class="st0">81</text><text x="15" y="85.6" class="st0">82</text><text x="25" y="85.6" class="st0">83</text><text x="35" y="85.6" class="st0">84</text><text x="45" y="85.6" class="st0">85</text><text x="55" y="85.6" class="st0">86</text><text x="65" y="85.6" class="st0">87</text><text x="75" y="85.6" class="st0">88</text><text x="85" y="85.6" class="st0">89</text><text x="95" y="85.6" class="st0">90</text><text x="5" y="95.6" class="st0">91</text><text x="15" y="95.6" class="st0">92</text><text x="25" y="95.6" class="st0">93</text><text x="35" y="95.6" class="st0">94</text><text x="45" y="95.6" class="st0">95</text><text x="55" y="95.6" class="st0">96</text><text x="65" y="95.6" class="st0">97</text><text x="75" y="95.6" class="st0">98</text><text x="85" y="95.6" class="st0">99</text><text x="95" y="95.6" class="st0">100</text><use href="#h" x="15" y="5"/><use href="#h" x="5" y="15"/><use href="#h" x="25" y="15"/><use href="#h" x="45" y="35"/><use href="#h" x="75" y="45"/><use href="#h" x="15" y="65"/><use href="#c" x="35" y="25"/><use href="#c" x="55" y="25"/><use href="#c" x="65" y="35"/><use href="#c" x="95" y="45"/><use href="#c" x="5" y="65"/><use href="#c" x="35" y="75"/><use href="#c" x="75" y="95"/></svg>