<svg id="image-autogui" xmlns="http://www.w3.org/2000/svg" viewBox="-2 -2 104 104" data-turn="A" ><defs><path id="r" stroke="none" fill="#779556" d="M10,0h10v10h-10z M30,0h10v10h-10z M50,0h10v10h-10z M70,0h10v10h-10z" /><path id="s" stroke="none" fill="#779556" d="M0,0h10v10h-10z M20,0h10v10h-10z M40,0h10v10h-10z M60,0h10v10h-10z" /><g id="f" transform="scale(0.09765625)"><path d="M45.83 104.96l32.52 4.5l39.84-24.35s-4.93-11.83-7.46-17.88s-6.62-14.36-6.62-14.36s2.23-6.07 3.24-13.37c1.17-8.49.14-10.65.14-10.65l-21.21-9.67s-3.14 2.3-5.96 7.51s-3.8 7.32-3.8 7.32s-7.18-.56-10.42-.56s-8.59.7-8.59.7s-5.07-9.29-7.74-12.53s-6.85-6.38-6.85-6.38s-18.86 9.39-19.71 16.14s-.05 11.5.52 14.45c.56 2.96 2.25 7.18 2.25 7.18s-1.69 2.53-3.94 8.31s-4.79 12.81-6.62 15.77c-1.83 2.96-6.76 9.71-6.76 9.71l37.17 18.16z" fill="#ff6011"/><path d="M31.66 7.73c-2.02.56-4.41 5.16-6.57 12.76c-1.14 4.01-1.97 11.36-1.97 11.36s6.66-5.16 12.58-7.32s13.42-3.66 13.42-3.66s-3.45-3.94-7.51-7.51c-3.51-3.09-8.21-6.11-9.95-5.63z" fill="#575a5b"/><path d="M100.36 8.48c-1.46-.39-6.49 2.18-10.04 5.54S83.37 22 83.37 22s7.13.28 13.61 3.57c6.48 3.28 10.89 6.19 10.89 6.19s-.14-6.74-1.6-12.58c-1.5-6.01-3.47-10.04-5.91-10.7z" fill="#575a5b"/><path d="M33.73 16.55c-.66.38-4.1 7.11-3.85 17.18c.19 7.51 1.69 13.51 2.06 13.51c.19 0 3.84-4.33 7.7-7.04c3.86-2.71 8.82-4.19 8.96-4.52c.28-.66-2.86-7.21-7.08-12.74s-7.14-6.76-7.79-6.39z" fill="#ff9411"/><path d="M86.1 36.45c-.21-.96 2.44-9.1 5.16-13.42s6.57-8.63 7.6-8.45c1.03.19 5.07 9.67 3.75 18.3c-1.31 8.63-3 13.61-3.47 13.7c-.26.05-3.04-3.25-6.48-5.91c-2.86-2.22-6.48-3.84-6.56-4.22z" fill="#ff9411"/><path d="M4.73 87.41c-.15-.74 3.85-1.41 6.57-2.72c2.72-1.31 8.35-3.85 16.99-2.82c8.63 1.03 12.97 3.63 19.15 7.79c6.19 4.18 8.92 13.98 8.92 13.98l14.17 3s4.93-11.03 8.54-14.45c3.03-2.88 11.2-9.36 21.68-10.32c10.23-.94 14.36 1.31 17.83 2.63c2.4.91 4.5 1.41 4.79 2.16c.28.75-4.13 3.75-4.13 3.75s4.13.66 4.22 1.22c.14.84-3.1 2.72-5.35 4.13s-18 9.47-23.84 12.48c-3.1 1.6-15.49 6.19-17.36 6.1c-1.88-.09-23.84-1.13-25.34-1.22c-1.5-.09-16.24-5.26-23.84-8.17c-8.43-3.22-23.54-10.88-23.18-12.29c.19-.75 5.35-1.31 5.35-1.31s-4.99-3-5.17-3.94z" fill="#dfdfdf"/><path d="M64.13 119.7c16.97.83 17.64-13.42 15.86-19.52c-1.78-6.1-2.53-6.1-2.53-6.1s-3.61 4.18-5.44 9.39c-.57 1.63-15.67.19-15.67.19s-.75-3-2.16-5.73c-.93-1.8-2.35-3.71-2.35-3.71s-2.53 3.43-3 8.02c-.47 4.6-1.97 16.61 15.29 17.46z" fill="#fee9c9"/><path d="M52.59 110.45c-.75.86 1.27 3.03 2.25 4.01c.99.99 3.1 2.35 4.36 2.46c1.55.14 5.28-3.1 5.28-3.1s3.82 3.54 5.94 3.47c2.11-.07 4.69-3.05 5.61-4.04c.56-.61 1.67-1.75.77-2.82c-.77-.92-1.94-.04-2.89.84c-1.96 1.84-3.4 3.19-3.66 3.24c-.42.07-5.49-4.58-5.49-4.58s-4.86 3.66-5.77 3.66c-.55 0-2.24-1.53-3.59-2.82c-.87-.8-1.82-1.45-2.81-.32z" fill="#4a4a4c"/><path d="M64.7 99.82c-3.66.03-9.64.21-9.29 4.22c.35 4.01 2.32 7.67 9.57 7.6s9.08-3.87 9.22-7.67c.08-2.25-.77-4.22-9.5-4.15z" fill="#2d2a25"/><path d="M45.9 96.94c-.33.99-2.11 1.27-3.87.35c-1.76-.92-5-2.82-7.74-4.08c-2.3-1.06-4.86-1.69-4.65-3.17c.21-1.48 3.17-.42 5.63.35s7.53 2.89 8.59 3.52c1.06.63 2.54 1.55 2.04 3.03z" fill="#ffffff"/><path d="M36.19 98.06c-2.76-.87-7.62-2.61-7.88-.84c-.21 1.41 4.01 2.4 6.76 3.94c2.39 1.34 6.65 3.64 7.46 1.06c.7-2.26-3.67-3.31-6.34-4.16z" fill="#ffffff"/><path d="M83.98 97.15c.78 1.76 3.4-.01 6.05-1.34c3.1-1.55 7.18-3.31 8.38-3.66c1.2-.35 2.11-.84 1.9-1.62c-.21-.77-2.1-.86-3.52-.56c-2.04.42-5.35 1.13-8.24 2.6c-1.81.93-5.62 2.18-4.57 4.58z" fill="#ffffff"/><path d="M87.15 102.64c.62 2.07 5.56-.49 7.95-1.48s7.11-2.53 6.69-3.8c-.48-1.43-6.48-.02-8.17.42c-2.39.63-7.31 2.04-6.47 4.86z" fill="#ffffff"/><path d="M85.67 73.71c-.99 2.96-3.71 6.22-6.83 5.56s-4.36-3.87-3.73-8.45c.59-4.27 4.06-5.94 7.18-5.28s4.75 4.07 3.38 8.17z" fill="#2d2a25"/><path d="M53.6 71.25c.6 3.06.27 6.66-2.84 7.67c-3.11 1-6.82-.39-8.03-4.85c-1.34-4.94.65-7.19 3.76-8.19c3.12-1.01 6.27 1.13 7.11 5.37z" fill="#2d2a25"/><path d="M48.02 67.51c.86.86.35 2.39-.49 3.17c-.51.47-2.11 1.55-3.17.14c-.78-1.04-.21-2.18.7-3.1c.91-.91 2.18-.98 2.96-.21z" fill="#dfdfdf"/><path d="M80.04 67.72c.98.71.64 2.46-.07 3.36c-.43.55-1.93 2.17-3.1.86c-.63-.71-.56-2.33.19-3.38c.76-1.04 2.09-1.47 2.98-.84z" fill="#dfdfdf"/></g><g id="h" transform="scale(0.130208333333) translate(0, 7.5)"><g transform="translate(-416.104 -468.063)"><path d="M446.68,475.492s-5.354-3.79-10.159,3.231-18.168,10.3-20.2,19.93,11.028,24.064,10.511,29.91-4.574,12.344,0,12.057,12.828-11.822,12.442-18.992-3.5-20.79-1.944-25.046,9.352-10.838,9.352-10.838Z" fill="#232931"/><path d="M464.1,469.952s-16.955-5.9-20.581,3.154c-3.258,8.134-3.324,18.222-6.345,22.557s3.642,14.005,4.389,19.443-1.165,14.113,1.285,18.086,3.995,6.911,9.736,9.5S464.1,542.3,464.1,542.3Z" fill="#393e46"/><path d="M455.16,534.519c-1.374-3.763,4.528-19,2.4-20.017-3.79-1.813-9.2,14.2-11.318,13.9-1.422-.2-3.014-2.676-4.685-2.752-.027,2.985.076,5.818,1.294,7.542,7.464,10.561,3.995,12.241,9.736,14.833s11.516-.393,11.516-.393v-7.449S456.534,538.282,455.16,534.519Z" fill="#f7a747"/><path d="M464.1,531.452s-8.944-.958-8.944,3.067,5.047,8.049,8.944,8.049Z" fill="#232931"/><path d="M459.632,539.31s-3.514-3.258-1.214-3.45S463.423,541.463,459.632,539.31Z" fill="#393e46"/><path d="M453.264,505.368c-.656-1.569-1.9-4.9-5.314-4.088a21.158,21.158,0,0,0-5.128,1.811.224.224,0,0,0,.048.41,2.423,2.423,0,0,1,1.363.846,7.354,7.354,0,0,0,3.63,2.931c1.343.466,3.262-.537,4.443-.535a2.55,2.55,0,0,1,1.3.748.229.229,0,0,0,.363-.259C453.734,506.582,453.433,505.772,453.264,505.368Z" fill="#ffffff"/><ellipse cx="2.952" cy="3.044" rx="2.952" ry="3.044" transform="translate(445.452 501.244)" fill="#393e46"/><ellipse cx="1.782" cy="1.838" rx="1.782" ry="1.838" transform="translate(446.621 502.45)" fill="#232931"/><ellipse cx="0.55" cy="0.567" rx="0.55" ry="0.567" transform="translate(446.446 502.661)" fill="#fbfcfc"/><path d="M456.3,490.727c-2.184-1.808-5.606,2.7-4.793,3.9s3.679,1.431,4.793,4.1,2.932,4,2.58.31S457.453,491.678,456.3,490.727Z" fill="#f7a747"/><path d="M481.528,475.492s5.353-3.79,10.158,3.231,18.168,10.3,20.2,19.93-11.028,24.064-10.511,29.91,4.575,12.344,0,12.057S488.55,528.8,488.935,521.628s3.5-20.79,1.945-25.046-9.352-10.838-9.352-10.838Z" fill="#232931"/><path d="M464.1,469.952s16.954-5.9,20.58,3.154c3.258,8.134,3.324,18.222,6.346,22.557s-3.642,14.005-4.39,19.443,1.166,14.113-1.285,18.086-3.994,6.911-9.736,9.5S464.1,542.3,464.1,542.3Z" fill="#393e46"/><path d="M473.048,534.519c1.374-3.763-4.528-19-2.4-20.017,3.79-1.813,9.2,14.2,11.319,13.9,1.421-.2,3.013-2.676,4.685-2.752.027,2.985-.077,5.818-1.295,7.542-7.463,10.561-3.994,12.241-9.736,14.833s-11.515-.393-11.515-.393v-7.449S471.674,538.282,473.048,534.519Z" fill="#f7a747"/><path d="M464.1,531.452s8.944-.958,8.944,3.067-5.047,8.049-8.944,8.049Z" fill="#232931"/><path d="M468.576,539.31s3.514-3.258,1.214-3.45S464.785,541.463,468.576,539.31Z" fill="#393e46"/><path d="M474.943,505.368c.657-1.569,1.9-4.9,5.315-4.088a21.162,21.162,0,0,1,5.127,1.811.223.223,0,0,1-.048.41,2.426,2.426,0,0,0-1.363.846,7.349,7.349,0,0,1-3.63,2.931c-1.342.466-3.262-.537-4.442-.535a2.552,2.552,0,0,0-1.305.748.229.229,0,0,1-.362-.259C474.473,506.582,474.775,505.772,474.943,505.368Z" fill="#ffffff"/><ellipse cx="2.952" cy="3.044" rx="2.952" ry="3.044" transform="translate(476.852 501.244)" fill="#393e46"/><ellipse cx="1.782" cy="1.838" rx="1.782" ry="1.838" transform="translate(478.022 502.45)" fill="#232931"/><ellipse cx="0.55" cy="0.567" rx="0.55" ry="0.567" transform="translate(480.661 502.661)" fill="#fbfcfc"/><path d="M471.9,490.727c2.183-1.808,5.6,2.7,4.792,3.9s-3.678,1.431-4.792,4.1-2.932,4-2.581.31S470.755,491.678,471.9,490.727Z" fill="#f7a747"/></g></g></defs><g transform="scale(1.25)"><path d="M0,0 h80 v80 h-80 z" stroke="none" fill="#EBECD0" /><use href="#r" x="0" y="0" /><use href="#s" x="0" y="10" /><use href="#r" x="0" y="20" /><use href="#s" x="0" y="30" /><use href="#r" x="0" y="40" /><use href="#s" x="0" y="50" /><use href="#r" x="0" y="60" /><use href="#s" x="0" y="70" /></g><path d="M83.81326208180124,92.07062139468195L90.88425354710974,84.99962992937346L91.76813702359291,85.88351340585663 L92.33578643762691,82.66421356237309L89.11648659414337,83.23186297640709L90.00037007062654,84.11574645289026 L82.92937860531805,91.18673791819876A 0.625 0.625 0 0 0 83.81326208180124 92.07062139468195Z" fill="#008800" stroke="#008800" opacity="1" /><path d="M79.57062139468195,91.18673791819876L72.49962992937346,84.11574645289026L73.38351340585663,83.23186297640709 L70.16421356237309,82.66421356237309L70.73186297640709,85.88351340585663L71.61574645289026,84.99962992937346 L78.68673791819876,92.07062139468195A 0.625 0.625 0 0 0 79.57062139468195 91.18673791819876Z" fill="#008800" stroke="#008800" opacity="1" /><path d="M58.81326208180124,92.07062139468195L65.88425354710974,84.99962992937346L66.76813702359291,85.88351340585663 L67.33578643762691,82.66421356237309L64.11648659414337,83.23186297640709L65.00037007062654,84.11574645289026 L57.92937860531805,91.18673791819876A 0.625 0.625 0 0 0 58.81326208180124 92.07062139468195Z" fill="#008800" stroke="#008800" opacity="1" /><path d="M54.57062139468195,91.18673791819876L47.49962992937344,84.11574645289026L48.38351340585663,83.23186297640709 L45.16421356237309,82.66421356237309L45.73186297640707,85.88351340585663L46.615746452890264,84.99962992937346 L53.68673791819876,92.07062139468195A 0.625 0.625 0 0 0 54.57062139468195 91.18673791819876Z" fill="#008800" stroke="#008800" opacity="1" /><path d="M33.81326208180124,92.07062139468195L40.884253547109736,84.99962992937346L41.76813702359293,85.88351340585663 L42.33578643762691,82.66421356237309L39.11648659414337,83.23186297640709L40.00037007062656,84.11574645289026 L32.92937860531805,91.18673791819876A 0.625 0.625 0 0 0 33.81326208180124 92.07062139468195Z" fill="#008800" stroke="#008800" opacity="1" /><path d="M29.57062139468195,91.18673791819876L22.499629929373448,84.11574645289026L23.383513405856633,83.23186297640709 L20.164213562373096,82.66421356237309L20.73186297640708,85.88351340585663L21.615746452890264,84.99962992937346 L28.686737918198766,92.07062139468195A 0.625 0.625 0 0 0 29.57062139468195 91.18673791819876Z" fill="#008800" stroke="#008800" opacity="1" /><path d="M8.813262081801234,92.07062139468195L15.884253547109736,84.99962992937346L16.76813702359292,85.88351340585663 L17.335786437626904,82.66421356237309L14.116486594143367,83.23186297640709L15.000370070626552,84.11574645289026 L7.92937860531805,91.18673791819876A 0.625 0.625 0 0 0 8.813262081801234 92.07062139468195Z" fill="#008800" stroke="#008800" opacity="1" /><use href="#f" x="12.5" y="0"/><use href="#h" x="0" y="87.5"/><use href="#h" x="25" y="87.5"/><use href="#h" x="50" y="87.5"/><use href="#h" x="75" y="87.5"/></svg>