<?xml version="1.0" encoding="utf-8"?><svg viewBox="0 -80 260 260" xmlns="http://www.w3.org/2000/svg"><defs><g transform="scale(0.277) translate(-36 -36)" id="d"><path fill="#F4AA41" stroke="none" d="M23.5,14.5855l-4.5,1.75l-7.25,8.5l-4.5,10.75l2,5.25c1.2554,3.7911,3.5231,7.1832,7.25,10l2.5-3.3333 c0,0,3.8218,7.7098,10.7384,8.9598c0,0,10.2616,1.936,15.5949-0.8765c3.4203-1.8037,4.4167-4.4167,4.4167-4.4167l3.4167-3.4167 l1.5833,2.3333l2.0833-0.0833l5.4167-7.25L64,37.3355l-0.1667-4.5l-2.3333-5.5l-4.8333-7.4167c0,0-2.6667-4.9167-8.1667-3.9167 c0,0-6.5-4.8333-11.8333-4.0833S32.0833,10.6688,23.5,14.5855z" /><polygon fill="#EA5A47" stroke="none" points="36,47.2521 32.9167,49.6688 30.4167,49.6688 30.3333,53.5021 31.0833,57.0021 32.1667,58.9188 35,60.4188 39.5833,59.8355 41.1667,58.0855 42.1667,53.8355 41.9167,49.8355 39.9167,50.0855" /><polygon fill="#3F3F3F" stroke="none" points="32.5,36.9188 30.9167,40.6688 33.0833,41.9188 34.3333,42.4188 38.6667,42.5855 41.5833,40.3355 39.8333,37.0855" /><path fill="#000000" stroke="none" d="M29.5059,30.1088c0,0-1.8051,1.2424-2.7484,0.6679c-0.9434-0.5745-1.2424-1.8051-0.6679-2.7484 s1.805-1.2424,2.7484-0.6679S29.5059,30.1088,29.5059,30.1088z" /><path fill="none" stroke="#000000" stroke-linecap="round" stroke-linejoin="round" stroke-miterlimit="10" stroke-width="2" d="M33.1089,37.006h6.1457c0.4011,0,0.7634,0.2397,0.9203,0.6089l1.1579,2.7245l-2.1792,1.1456 c-0.6156,0.3236-1.3654-0.0645-1.4567-0.754" /><path fill="none" stroke="#000000" stroke-linecap="round" stroke-linejoin="round" stroke-miterlimit="10" stroke-width="2" d="M34.7606,40.763c-0.1132,0.6268-0.7757,0.9895-1.3647,0.7471l-2.3132-0.952l1.0899-2.9035 c0.1465-0.3901,0.5195-0.6486,0.9362-0.6486" /><path fill="none" stroke="#000000" stroke-linecap="round" stroke-linejoin="round" stroke-miterlimit="10" stroke-width="2" d="M30.4364,50.0268c0,0-0.7187,8.7934,3.0072,9.9375c2.6459,0.8125,5.1497,0.5324,6.0625-0.25 c0.875-0.75,2.6323-4.4741,1.8267-9.6875" /><path fill="#000000" stroke="none" d="M44.2636,30.1088c0,0,1.805,1.2424,2.7484,0.6679c0.9434-0.5745,1.2424-1.8051,0.6679-2.7484 c-0.5745-0.9434-1.805-1.2424-2.7484-0.6679C43.9881,27.9349,44.2636,30.1088,44.2636,30.1088z" /><path fill="none" stroke="#000000" stroke-linecap="round" stroke-linejoin="round" stroke-miterlimit="10" stroke-width="2" d="M25.6245,42.8393c-0.475,3.6024,2.2343,5.7505,4.2847,6.8414c1.1968,0.6367,2.6508,0.5182,3.7176-0.3181l2.581-2.0233l2.581,2.0233 c1.0669,0.8363,2.5209,0.9548,3.7176,0.3181c2.0504-1.0909,4.7597-3.239,4.2847-6.8414" /><path fill="none" stroke="#000000" stroke-linecap="round" stroke-linejoin="round" stroke-miterlimit="10" stroke-width="2" d="M19.9509,28.3572c-2.3166,5.1597-0.5084,13.0249,0.119,15.3759c0.122,0.4571,0.0755,0.9355-0.1271,1.3631l-1.9874,4.1937 c-0.623,1.3146-2.3934,1.5533-3.331,0.4409c-3.1921-3.7871-8.5584-11.3899-6.5486-16.686 c7.0625-18.6104,15.8677-18.1429,15.8677-18.1429c2.8453-1.9336,13.1042-6.9375,24.8125,0.875c0,0,8.6323-1.7175,14.9375,16.9375 c1.8036,5.3362-3.4297,12.8668-6.5506,16.6442c-0.9312,1.127-2.7162,0.8939-3.3423-0.4272l-1.9741-4.1656 c-0.2026-0.4275-0.2491-0.906-0.1271-1.3631c0.6275-2.3509,2.4356-10.2161,0.119-15.3759" /><path fill="none" stroke="#000000" stroke-linecap="round" stroke-linejoin="round" stroke-miterlimit="10" stroke-width="2" d="M52.6309,46.4628c0,0-3.0781,6.7216-7.8049,8.2712" /><path fill="none" stroke="#000000" stroke-linecap="round" stroke-linejoin="round" stroke-miterlimit="10" stroke-width="2" d="M19.437,46.969c0,0,3.0781,6.0823,7.8049,7.632" /><line x1="36.2078" x2="36.2078" y1="47.3393" y2="44.3093" fill="none" stroke="#000000" stroke-linecap="round" stroke-linejoin="round" stroke-miterlimit="10" stroke-width="2" /></g><g transform="scale(0.277)  translate(-36 -36)" id="r"><path fill="#FFFFFF" stroke="none" d="M30.921,28.0021c0,0,3.8009-4.523,10.1088,0.4052l-0.6097,11.5103l3.9176,6.0845 c0,0,4.5833,5.503,4.8333,6.2515s1.75,7.9151,1.5833,8.2485c-0.1667,0.3333-4.6667,6.5833-4.6667,6.5833L25.921,66.722 l-3.1667-5.703l0.5833-11.1003l5.5833-5.1667l2.8333-7L30.921,28.0021z" /><path fill="#3F3F3F" stroke="none" d="M39.7544,27.7521c0,0-4.8333,14.8333,4.6667,21.6667c0,0,8.3333,7.6667,0.1667,17l6-1l3.6667-2.6667 l2.5-6.1667l-0.8333-5.3333l-5.1667-7.3333l-0.8333-1c0,0-2.8333-2.8333,0.1667-5.5l6.3333-7.3333l4.5-8l2.6667-7l0.5-8.3333l-4-1 l-5.6667,1l-5.8333,5l-4,6.1667l-2.6667,6.3333L39.7544,27.7521z" /><path fill="#3F3F3F" stroke="none" d="M32.1082,27.7521c0,0,4.8333,14.8333-4.6667,21.6667c0,0-8.3333,7.6667-0.1667,17l-6-1l-3.6667-2.6667 l-2.5-6.1667l0.8333-5.3333l5.1667-7.3333l0.8333-1c0,0,2.8333-2.8333-0.1667-5.5l-6.3333-7.3333l-4.5-8l-2.6667-7l-0.5-8.3333l4-1 l5.6667,1l5.8333,5l4,6.1667l2.6667,6.3333L32.1082,27.7521z" /><path fill="none" stroke="#000000" stroke-linecap="round" stroke-linejoin="round" stroke-miterlimit="10" stroke-width="2" d="M60.5693,9.8131c0,0-12.4983-0.3048-16.784,19.8578" /><polyline fill="none" stroke="#000000" stroke-linecap="round" stroke-linejoin="round" stroke-miterlimit="10" stroke-width="2" points="41.0298,50.553 35.8398,53.9543 30.5638,50.553" /><polyline fill="none" stroke="#000000" stroke-linecap="round" stroke-linejoin="round" stroke-miterlimit="10" stroke-width="2" points="31.3767,61.0191 35.7968,58.9868 40.4201,61.0191" /><line x1="35.8398" x2="35.7968" y1="53.9543" y2="58.9868" fill="none" stroke="#000000" stroke-linecap="round" stroke-linejoin="round" stroke-miterlimit="10" stroke-width="2" /><ellipse cx="45.1214" cy="39.9176" rx="1.6461" ry="2.8119" fill="#000000" stroke="none" /><path fill="none" stroke="#000000" stroke-linecap="round" stroke-linejoin="round" stroke-miterlimit="10" stroke-width="2" d="M22.3332,36.7338C5.6688,23.7275,7.9043,6.2824,7.9043,6.2824C23.959,0.7258,31.3767,27.9952,31.3767,27.9952 s4.4135-3.561,9.0435,0c0,0,7.4177-27.2693,23.4724-21.7128c0,0,2.2355,17.4451-14.4289,30.4514" /><path fill="none" stroke="#000000" stroke-linecap="round" stroke-linejoin="round" stroke-miterlimit="10" stroke-width="2" d="M11.2275,9.8131c0,0,12.4983-0.3048,16.784,19.8578" /><path fill="none" stroke="#000000" stroke-linecap="round" stroke-linejoin="round" stroke-miterlimit="10" stroke-width="2" d="M22.3332,43.745c0,0-10.8725,8.2306-4.7758,17.9853c0,0,2.8451,5.2838,13.2096,4.979h10.2628 c10.3644,0.3048,13.2095-4.979,13.2095-4.979c6.0967-9.7547-4.7758-17.9853-4.7758-17.9853" /><ellipse cx="26.8786" cy="39.9176" rx="1.6461" ry="2.8119" fill="#000000" stroke="none" /></g></defs><path d="M10,50l40,-40h160l40,40l-40,40h-160z" stroke="#000" stroke-width="1.5" fill="#d0f1f2" /><path d="M10,50h240M50,10l80,80l80,-80v80l-80,-80l-80,80zM90,10v80m40,-80v80m40,-80v80" fill="none" stroke-linejoin="round" stroke="#000" stroke-width="1.5" /><g transform="scale(2.6)"><path d="M52.393284490169854,32.766028418435184L63.07715081269327,22.082162095911777L63.621079105913694,22.626090389132198 L63.970401822242295,20.64498279314233L61.989294226252426,20.994305509470937L62.53322251947285,21.53823380269136 L51.84935619694944,32.222100125214766A 0.38461538461538464 0.38461538461538464 0 0 0 52.393284490169854 32.766028418435184Z" fill="#880000" stroke="#880000" opacity="0.75" /><path d="M48.15064380305056,32.222100125214766L37.466777480527156,21.53823380269136L38.01070577374758,20.994305509470937 L36.02959817775771,20.64498279314233L36.37892089408631,22.626090389132198L36.92284918730674,22.082162095911777 L47.606715509830146,32.766028418435184A 0.38461538461538464 0.38461538461538464 0 0 0 48.15064380305056 32.222100125214766Z" fill="#008800" stroke="#008800" /><path d="M50.38461538461539,31.61538461538462L50.38461538461539,22.87863230769231L51.15384615384615,22.87863230769231 L50,21.230769230769234L48.84615384615385,22.87863230769231L49.61538461538461,22.87863230769231 L49.61538461538461,31.61538461538462A 0.38461538461538464 0.38461538461538464 0 0 0 50.38461538461539 31.61538461538462Z" fill="#ffff00" stroke="#ffff00" /><path d="M53,35.00000000000001L61.73675230769231,35.00000000000001L61.73675230769231,35.769230769230774 L63.38461538461539,34.61538461538462L61.73675230769231,33.46153846153847L61.73675230769231,34.23076923076923 L53,34.23076923076923A 0.38461538461538464 0.38461538461538464 0 0 0 53 35.00000000000001Z" fill="#880000" stroke="#880000" /></g><use href="#d" x="50" y="50" /><use href="#d" x="130" y="10" /><use href="#d" x="90" y="90" /><use href="#r" x="130" y="90" /></svg>