<?xml version="1.0" encoding="UTF-8"?>
<svg version="1.1" xmlns="http://www.w3.org/2000/svg" width="796" height="796">
<path d="M0 0 C262.68 0 525.36 0 796 0 C796 262.68 796 525.36 796 796 C533.32 796 270.64 796 0 796 C0 533.32 0 270.64 0 0 Z " fill="#FEFEFE" transform="translate(0,0)"/>
<path d="M0 0 C1.42179714 -0.02154238 2.84346298 -0.05560233 4.26464844 -0.10253906 C18.48846921 -0.56697011 18.48846921 -0.56697011 24.45263672 4.70507812 C28.08113297 8.9873187 29.89306641 12.78927475 29.89306641 18.4050293 C121.96306641 18.4050293 214.03306641 18.4050293 308.89306641 18.4050293 C309.22306641 16.0950293 309.55306641 13.7850293 309.89306641 11.4050293 C312.4577362 6.472972 315.74302556 2.62544322 320.89306641 0.4050293 C325.35029448 -0.21554799 329.73856952 -0.27318483 334.22631836 -0.19189453 C336.32298613 -0.15759471 338.4154235 -0.17125689 340.51220703 -0.19067383 C347.93731429 -0.18261092 353.61882657 0.21963343 359.89306641 4.4050293 C365.98140621 10.64948038 364.89306641 15.32850871 364.89306641 24.4050293 C420.33306641 24.4050293 475.77306641 24.4050293 532.89306641 24.4050293 C532.89306641 20.7750293 532.89306641 17.1450293 532.89306641 13.4050293 C535.7844803 7.53958969 538.91598459 3.39357021 544.89306641 0.4050293 C549.20815996 0.14575175 553.52722593 0.13389561 557.84912109 0.10986328 C559.28444312 0.09839234 560.71972415 0.07801832 562.15478516 0.04833984 C578.5016272 -0.28970137 578.5016272 -0.28970137 583.89306641 4.4050293 C588.42863516 8.81163796 589.21841379 13.27654743 589.52197266 19.4675293 C589.52492626 21.44053766 589.52722382 23.41381539 589.48999023 25.38647461 C589.45561989 27.40189338 589.46937988 29.41292503 589.48876953 31.4284668 C589.42388806 40.09663187 588.88112781 46.41696789 582.51806641 52.7800293 C576.27903576 56.64228636 572.62869797 56.4050293 564.89306641 56.4050293 C564.89306641 185.4350293 564.89306641 314.4650293 564.89306641 447.4050293 C567.86306641 447.4050293 570.83306641 447.4050293 573.89306641 447.4050293 C580.23213187 448.98052802 584.26070312 452.06999571 587.89306641 457.4050293 C589.61972903 462.58501716 589.15807399 468.12340873 589.18823242 473.54638672 C589.19974633 474.98854386 589.22018931 476.43065859 589.24975586 477.87255859 C589.29260565 479.9631019 589.30862387 482.05238163 589.31884766 484.14331055 C589.34072144 486.01563354 589.34072144 486.01563354 589.36303711 487.92578125 C588.65601235 493.15996817 585.9252655 496.95268922 581.83056641 500.2175293 C576.09702583 504.48718717 569.71421538 503.73262318 562.86157227 503.81005859 C561.43293998 503.83157463 560.00443725 503.86560281 558.57641602 503.91259766 C544.26686368 504.37847464 544.26686368 504.37847464 538.33129883 499.01342773 C532.4691291 492.45766909 532.89306641 489.21426966 532.89306641 479.4050293 C403.53306641 479.4050293 274.17306641 479.4050293 140.89306641 479.4050293 C140.89306641 483.3650293 140.89306641 487.3250293 140.89306641 491.4050293 C138.6594534 496.90315361 136.05935402 499.54708296 130.89306641 502.4050293 C125.83295969 504.09173154 120.53318211 503.66961765 115.23388672 503.70019531 C113.84706399 503.71169279 112.46028475 503.7321097 111.07373047 503.76171875 C100.83949397 503.98011745 95.54022508 503.75196776 87.99072266 496.69018555 C84.47379598 491.28141475 85.19133281 484.3250078 85.29614258 478.10742188 C85.33054352 475.84403492 85.31675557 473.58454197 85.29736328 471.32104492 C85.30426098 469.86855451 85.31393269 468.41607407 85.32666016 466.96362305 C85.33753662 465.65707764 85.34841309 464.35053223 85.35961914 463.00439453 C86.14118171 457.73090393 88.48959034 454.66815776 92.39306641 451.1550293 C99.08389892 446.47144654 105.12696063 447.00292918 113.14306641 446.9675293 C114.44115234 446.9346582 115.73923828 446.90178711 117.07666016 446.86791992 C124.62280647 446.82561227 130.16774111 447.180991 135.89306641 452.4050293 C142.37114482 459.54752601 140.89306641 460.70727425 140.89306641 472.4050293 C270.25306641 472.4050293 399.61306641 472.4050293 532.89306641 472.4050293 C532.89306641 468.7750293 532.89306641 465.1450293 532.89306641 461.4050293 C534.68844255 455.57005681 539.07316501 451.93249745 543.89306641 448.4050293 C546.89306641 447.4050293 546.89306641 447.4050293 557.89306641 447.4050293 C557.89306641 318.0450293 557.89306641 188.6850293 557.89306641 55.4050293 C553.60306641 55.4050293 549.31306641 55.4050293 544.89306641 55.4050293 C538.90642578 52.56925216 535.80726295 48.23342239 532.89306641 42.4050293 C532.89306641 38.7750293 532.89306641 35.1450293 532.89306641 31.4050293 C477.45306641 31.4050293 422.01306641 31.4050293 364.89306641 31.4050293 C364.89306641 35.6950293 364.89306641 39.9850293 364.89306641 44.4050293 C361.71874276 50.34671202 358.62807792 53.11641468 352.52978516 55.8112793 C349.89306641 56.4050293 349.89306641 56.4050293 340.89306641 56.4050293 C340.89306641 148.4750293 340.89306641 240.5450293 340.89306641 335.4050293 C343.86306641 335.4050293 346.83306641 335.4050293 349.89306641 335.4050293 C355.83237697 336.74247405 360.14697532 339.83480095 363.66479492 344.74291992 C366.0114973 349.82907431 365.6985338 355.31768377 365.56542969 360.8137207 C365.51814142 362.90171694 365.52433954 364.98459983 365.53759766 367.07299805 C365.50658102 374.45666563 365.09614778 380.18813035 360.89306641 386.4050293 C353.92715725 391.94932434 347.36293001 391.71399257 338.86157227 391.81005859 C337.43293998 391.83157463 336.00443725 391.86560281 334.57641602 391.91259766 C320.29516425 392.37755325 320.29516425 392.37755325 314.33129883 387.12329102 C308.96152244 380.70799883 308.89306641 375.8914529 308.89306641 367.4050293 C216.82306641 367.4050293 124.75306641 367.4050293 29.89306641 367.4050293 C29.89306641 370.3750293 29.89306641 373.3450293 29.89306641 376.4050293 C28.75280587 381.46868627 26.30927143 385.49675057 22.45556641 388.9675293 C17.89306641 391.4050293 17.89306641 391.4050293 4.89306641 391.4050293 C4.89306641 446.8450293 4.89306641 502.2850293 4.89306641 559.4050293 C8.52306641 559.4050293 12.15306641 559.4050293 15.89306641 559.4050293 C21.75850601 562.29644319 25.9045255 565.42794748 28.89306641 571.4050293 C28.89306641 575.6950293 28.89306641 579.9850293 28.89306641 584.4050293 C84.66306641 584.4050293 140.43306641 584.4050293 197.89306641 584.4050293 C197.89306641 580.1150293 197.89306641 575.8250293 197.89306641 571.4050293 C200.1785857 566.48237235 203.61001347 563.5945368 207.89306641 560.4050293 C212.81709152 558.76368759 217.91170931 559.10163647 223.07006836 559.05493164 C225.05637132 559.03032898 227.04219424 558.9737332 229.02783203 558.91674805 C236.59901638 558.84753458 242.15146236 559.14969421 247.89306641 564.4050293 C253.63907409 570.74037111 253.14280466 576.19150371 253.18823242 584.36108398 C253.19970337 585.79640601 253.22007738 587.23168704 253.24975586 588.66674805 C253.55889749 603.61607724 253.55889749 603.61607724 248.89306641 610.4050293 C241.95256983 615.929098 235.85091974 615.68029578 227.28881836 615.75512695 C225.90876325 615.77162357 224.52879134 615.79883084 223.14916992 615.8371582 C209.36685908 616.21738268 209.36685908 616.21738268 203.34277344 611.83959961 C200.04898917 608.58020649 198.35086616 604.77842856 196.89306641 600.4050293 C196.89306641 597.4350293 196.89306641 594.4650293 196.89306641 591.4050293 C141.78306641 591.4050293 86.67306641 591.4050293 29.89306641 591.4050293 C29.89306641 594.3750293 29.89306641 597.3450293 29.89306641 600.4050293 C28.4366521 606.04354948 25.94318743 610.32568721 20.89306641 613.4050293 C15.14627997 616.16521779 9.40411637 615.81333723 3.13793945 615.83056641 C1.09610056 615.84243897 -0.9426867 615.8916444 -2.98388672 615.94213867 C-15.45198592 616.00986662 -15.45198592 616.00986662 -20.59594727 611.97314453 C-26.97226298 605.3557466 -26.7351312 597.66569029 -26.62841797 588.88647461 C-26.60690185 586.77691665 -26.62832259 584.67073597 -26.65380859 582.5612793 C-26.65116626 581.20450104 -26.64604322 579.84772486 -26.63818359 578.4909668 C-26.63367188 577.2745752 -26.62916016 576.05818359 -26.62451172 574.80493164 C-25.84163118 569.66229275 -23.41328351 566.58074422 -19.60693359 563.1550293 C-13.027288 558.54927738 -11.41789977 559.4050293 -2.10693359 559.4050293 C-2.10693359 503.9650293 -2.10693359 448.5250293 -2.10693359 391.4050293 C-5.73693359 391.4050293 -9.36693359 391.4050293 -13.10693359 391.4050293 C-18.35555323 389.82211226 -21.13985241 388.02048892 -24.10693359 383.4050293 C-26.95502708 377.56714294 -26.47899595 371.45681728 -26.47753906 365.11279297 C-26.48191425 362.9769729 -26.51827832 360.84321904 -26.55615234 358.70776367 C-26.56202136 357.33732796 -26.56599019 355.96688253 -26.56787109 354.59643555 C-26.57608887 353.36094971 -26.58430664 352.12546387 -26.59277344 350.85253906 C-25.86488712 345.68747238 -23.43828441 342.63396851 -19.66943359 339.1550293 C-13.15841655 334.70848108 -7.00150135 335.03854218 0.64306641 335.0300293 C1.78517578 335.00553711 2.92728516 334.98104492 4.10400391 334.95581055 C11.65996649 334.9297555 18.67066422 335.53802621 24.47387695 340.8527832 C30.29910017 347.51766879 29.89306641 350.94534734 29.89306641 360.4050293 C121.96306641 360.4050293 214.03306641 360.4050293 308.89306641 360.4050293 C308.89306641 356.7750293 308.89306641 353.1450293 308.89306641 349.4050293 C312.29797576 342.49792747 315.96297289 338.87007605 322.89306641 335.4050293 C326.52306641 335.4050293 330.15306641 335.4050293 333.89306641 335.4050293 C333.89306641 243.3350293 333.89306641 151.2650293 333.89306641 56.4050293 C330.26306641 56.4050293 326.63306641 56.4050293 322.89306641 56.4050293 C317.7760762 53.88256934 313.84312785 51.39744097 310.89306641 46.4050293 C310.23306641 43.4350293 309.57306641 40.4650293 308.89306641 37.4050293 C216.82306641 37.4050293 124.75306641 37.4050293 29.89306641 37.4050293 C29.89306641 39.0550293 29.89306641 40.7050293 29.89306641 42.4050293 C27.71358068 47.38538605 24.49657113 51.48573362 19.89306641 54.4050293 C13.56425641 56.86000853 7.72657163 56.77253376 1.01806641 56.7800293 C-0.12791016 56.80452148 -1.27388672 56.82901367 -2.45458984 56.85424805 C-10.4619822 56.88189152 -15.72520175 56.06014529 -21.90307617 50.90673828 C-27.28065111 45.17354317 -26.92559644 38.3730228 -26.72436523 30.94140625 C-26.66944285 28.84288307 -26.66283827 26.74833889 -26.66357422 24.64916992 C-26.50888535 10.45108392 -26.50888535 10.45108392 -21.64208984 4.6628418 C-14.91741022 -0.50998868 -8.17913241 0.09296603 0 0 Z " fill="#929593" transform="translate(100.10693359375,71.594970703125)"/>
<path d="M0 0 C1.71316406 -0.03673828 1.71316406 -0.03673828 3.4609375 -0.07421875 C11.01690009 -0.10027379 18.02759781 0.50799691 23.83081055 5.82275391 C29.65603377 12.4876395 29.25 15.91531805 29.25 25.375 C121.32 25.375 213.39 25.375 308.25 25.375 C308.25 21.745 308.25 18.115 308.25 14.375 C311.46752074 7.84802935 315.38762298 3.21528045 322.25 0.375 C326.63380435 -0.0815264 331.03238097 0.00467883 335.4375 0 C336.63181641 -0.02449219 337.82613281 -0.04898437 339.05664062 -0.07421875 C347.32062915 -0.10150765 353.5726715 0.59699225 360.10766602 5.87548828 C365.4263487 11.5613261 365.10070893 18.41957432 364.92236328 25.78369141 C364.87507502 27.87168764 364.88127314 29.95457054 364.89453125 32.04296875 C364.86351461 39.42663633 364.45308138 45.15810105 360.25 51.375 C353.28409084 56.91929505 346.7198636 56.68396328 338.21850586 56.7800293 C336.78987357 56.80154533 335.36137084 56.83557351 333.93334961 56.88256836 C319.65209784 57.34752396 319.65209784 57.34752396 313.68823242 52.09326172 C308.31845603 45.67796954 308.25 40.8614236 308.25 32.375 C216.18 32.375 124.11 32.375 29.25 32.375 C29.25 35.345 29.25 38.315 29.25 41.375 C28.10973947 46.43865697 25.66620502 50.46672127 21.8125 53.9375 C17.25 56.375 17.25 56.375 4.25 56.375 C4.25 111.815 4.25 167.255 4.25 224.375 C7.88 224.375 11.51 224.375 15.25 224.375 C21.1154396 227.26641389 25.26145909 230.39791818 28.25 236.375 C28.25 240.665 28.25 244.955 28.25 249.375 C84.02 249.375 139.79 249.375 197.25 249.375 C197.25 245.085 197.25 240.795 197.25 236.375 C199.5355193 231.45234305 202.96694706 228.56450751 207.25 225.375 C212.17402511 223.7336583 217.26864291 224.07160717 222.42700195 224.02490234 C224.41330491 224.00029968 226.39912783 223.9437039 228.38476562 223.88671875 C235.95594997 223.81750528 241.50839595 224.11966491 247.25 229.375 C252.99600769 235.71034181 252.49973825 241.16147442 252.54516602 249.33105469 C252.55663696 250.76637672 252.57701097 252.20165774 252.60668945 253.63671875 C252.91583108 268.58604794 252.91583108 268.58604794 248.25 275.375 C241.30950343 280.8990687 235.20785333 280.65026649 226.64575195 280.72509766 C225.26569684 280.74159427 223.88572494 280.76880154 222.50610352 280.80712891 C208.72379267 281.18735339 208.72379267 281.18735339 202.69970703 276.80957031 C199.40592276 273.55017719 197.70779975 269.74839926 196.25 265.375 C196.25 262.405 196.25 259.435 196.25 256.375 C141.14 256.375 86.03 256.375 29.25 256.375 C29.25 259.345 29.25 262.315 29.25 265.375 C27.79358569 271.01352019 25.30012103 275.29565791 20.25 278.375 C14.50321356 281.13518849 8.76104996 280.78330793 2.49487305 280.80053711 C0.45303416 280.81240967 -1.5857531 280.86161511 -3.62695312 280.91210938 C-16.09505233 280.97983732 -16.09505233 280.97983732 -21.23901367 276.94311523 C-27.61532938 270.3257173 -27.37819761 262.63566099 -27.27148438 253.85644531 C-27.24996825 251.74688736 -27.271389 249.64070667 -27.296875 247.53125 C-27.29423267 246.17447174 -27.28910963 244.81769557 -27.28125 243.4609375 C-27.27673828 242.2445459 -27.27222656 241.0281543 -27.26757812 239.77490234 C-26.48469758 234.63226345 -24.05634992 231.55071493 -20.25 228.125 C-13.67035441 223.51924808 -12.06096618 224.375 -2.75 224.375 C-2.75 168.935 -2.75 113.495 -2.75 56.375 C-6.38 56.375 -10.01 56.375 -13.75 56.375 C-18.99861964 54.79208297 -21.78291882 52.99045962 -24.75 48.375 C-27.59809349 42.53711365 -27.12206236 36.42678798 -27.12060547 30.08276367 C-27.12498065 27.94694361 -27.16134473 25.81318974 -27.19921875 23.67773438 C-27.20508777 22.30729867 -27.20905659 20.93685323 -27.2109375 19.56640625 C-27.21915527 18.33092041 -27.22737305 17.09543457 -27.23583984 15.82250977 C-26.50795352 10.65744308 -24.08135081 7.60393921 -20.3125 4.125 C-13.80148296 -0.32154822 -7.64456775 0.00851288 0 0 Z " fill="#67C48D" transform="translate(100.75,406.625)"/>
<path d="M0 0 C1.29808594 -0.03287109 2.59617188 -0.06574219 3.93359375 -0.09960938 C11.47974006 -0.14191703 17.02467471 0.2134617 22.75 5.4375 C29.22807842 12.57999671 27.75 13.73974495 27.75 25.4375 C157.11 25.4375 286.47 25.4375 419.75 25.4375 C419.75 21.8075 419.75 18.1775 419.75 14.4375 C421.54537615 8.60252752 425.93009861 4.96496816 430.75 1.4375 C435.94824403 -0.29524801 441.43346223 0.16805014 446.875 0.125 C448.67324219 0.08149414 448.67324219 0.08149414 450.5078125 0.03710938 C458.27759128 -0.01826734 465.39772663 0.43683237 471.36376953 5.92089844 C476.8002437 12.11376827 476.00205552 18.82688716 476.04516602 26.57885742 C476.05667992 28.02101457 476.07712291 29.46312929 476.10668945 30.9050293 C476.14953925 32.99557261 476.16555746 35.08485234 476.17578125 37.17578125 C476.19765503 39.04810425 476.19765503 39.04810425 476.2199707 40.95825195 C475.51294595 46.19243887 472.7821991 49.98515992 468.6875 53.25 C462.95395943 57.51965787 456.57114898 56.76509388 449.71850586 56.8425293 C448.28987357 56.86404533 446.86137084 56.89807351 445.43334961 56.94506836 C431.12379727 57.41094534 431.12379727 57.41094534 425.18823242 52.04589844 C419.3260627 45.4901398 419.75 42.24674036 419.75 32.4375 C290.39 32.4375 161.03 32.4375 27.75 32.4375 C27.75 36.3975 27.75 40.3575 27.75 44.4375 C25.516387 49.93562431 22.91628762 52.57955366 17.75 55.4375 C12.68989328 57.12420224 7.39011571 56.70208836 2.09082031 56.73266602 C0.70399759 56.7441635 -0.68278166 56.7645804 -2.06933594 56.79418945 C-12.30357244 57.01258816 -17.60284133 56.78443846 -25.15234375 49.72265625 C-28.66927043 44.31388546 -27.9517336 37.3574785 -27.84692383 31.13989258 C-27.81252288 28.87650562 -27.82631084 26.61701267 -27.84570312 24.35351562 C-27.83880543 22.90102522 -27.82913372 21.44854477 -27.81640625 19.99609375 C-27.80552979 18.68954834 -27.79465332 17.38300293 -27.78344727 16.03686523 C-27.0018847 10.76337463 -24.65347607 7.70062846 -20.75 4.1875 C-14.05916749 -0.49608276 -8.01610577 0.03539988 0 0 Z " fill="#66CA8F" transform="translate(213.25,518.5625)"/>
<path d="M0 0 C1.71316406 -0.03673828 1.71316406 -0.03673828 3.4609375 -0.07421875 C11.01690009 -0.10027379 18.02759781 0.50799691 23.83081055 5.82275391 C29.65603377 12.4876395 29.25 15.91531805 29.25 25.375 C121.32 25.375 213.39 25.375 308.25 25.375 C308.25 21.745 308.25 18.115 308.25 14.375 C311.46752074 7.84802935 315.38762298 3.21528045 322.25 0.375 C326.63380435 -0.0815264 331.03238097 0.00467883 335.4375 0 C336.63181641 -0.02449219 337.82613281 -0.04898437 339.05664062 -0.07421875 C347.32062915 -0.10150765 353.5726715 0.59699225 360.10766602 5.87548828 C365.4263487 11.5613261 365.10070893 18.41957432 364.92236328 25.78369141 C364.87507502 27.87168764 364.88127314 29.95457054 364.89453125 32.04296875 C364.86351461 39.42663633 364.45308138 45.15810105 360.25 51.375 C353.28409084 56.91929505 346.7198636 56.68396328 338.21850586 56.7800293 C336.78987357 56.80154533 335.36137084 56.83557351 333.93334961 56.88256836 C319.65209784 57.34752396 319.65209784 57.34752396 313.68823242 52.09326172 C308.31845603 45.67796954 308.25 40.8614236 308.25 32.375 C216.18 32.375 124.11 32.375 29.25 32.375 C29.25 35.345 29.25 38.315 29.25 41.375 C27.84752835 47.60308133 24.63877993 51.47156202 19.53759766 55.12426758 C15.67495015 57.23615052 12.02127323 57.35053447 7.6875 57.375 C6.38401611 57.407146 6.38401611 57.407146 5.05419922 57.43994141 C-15.3654255 57.72110018 -15.3654255 57.72110018 -21.5 53.1875 C-27.2885267 45.95184162 -27.25079567 38.82319986 -27.19604492 29.93188477 C-27.18750458 27.81363611 -27.21639854 25.69806336 -27.24804688 23.58007812 C-27.24965865 22.2187508 -27.24908181 20.85741875 -27.24609375 19.49609375 C-27.24794678 18.2733374 -27.2497998 17.05058105 -27.25170898 15.79077148 C-26.49738467 10.65512601 -24.06449964 7.58838428 -20.3125 4.125 C-13.80148296 -0.32154822 -7.64456775 0.00851288 0 0 Z " fill="#67CA8F" transform="translate(100.75,406.625)"/>
<path d="M0 0 C1.43532203 -0.01147094 2.87060306 -0.03184496 4.30566406 -0.06152344 C20.65250611 -0.39956465 20.65250611 -0.39956465 26.04394531 4.29516602 C30.57951406 8.70177468 31.3692927 13.16668415 31.67285156 19.35766602 C31.67580517 21.33067438 31.67810272 23.30395211 31.64086914 25.27661133 C31.60649879 27.2920301 31.62025879 29.30306175 31.63964844 31.31860352 C31.57476696 39.98676859 31.03200672 46.30710461 24.66894531 52.67016602 C18.42991467 56.53242308 14.77957688 56.29516602 7.04394531 56.29516602 C7.04394531 185.32516602 7.04394531 314.35516602 7.04394531 447.29516602 C4.73394531 447.29516602 2.42394531 447.29516602 0.04394531 447.29516602 C0.04394531 317.93516602 0.04394531 188.57516602 0.04394531 55.29516602 C-4.24605469 55.29516602 -8.53605469 55.29516602 -12.95605469 55.29516602 C-18.94269531 52.45938888 -22.04185814 48.12355911 -24.95605469 42.29516602 C-24.95605469 38.66516602 -24.95605469 35.03516602 -24.95605469 31.29516602 C-80.06605469 31.29516602 -135.17605469 31.29516602 -191.95605469 31.29516602 C-191.95605469 28.98516602 -191.95605469 26.67516602 -191.95605469 24.29516602 C-136.84605469 24.29516602 -81.73605469 24.29516602 -24.95605469 24.29516602 C-24.95605469 20.66516602 -24.95605469 17.03516602 -24.95605469 13.29516602 C-19.09982966 1.41539525 -12.38707987 0.06887959 0 0 Z " fill="#66CA8F" transform="translate(657.9560546875,71.704833984375)"/>
<path d="M0 0 C2.09666777 0.03429982 4.18910514 0.02063764 6.28588867 0.0012207 C15.14641278 0.00820756 21.48904225 0.55420045 28.0847168 6.93676758 C32.78351081 14.83770269 31.89563039 26.06473269 31.66674805 35.03442383 C31.65961792 36.27591187 31.65961792 36.27591187 31.65234375 37.54248047 C31.3616765 43.91726881 29.24572229 48.12720785 24.66674805 52.59692383 C18.25477404 56.67043799 14.76945389 56.59692383 6.66674805 56.59692383 C6.66674805 148.66692383 6.66674805 240.73692383 6.66674805 335.59692383 C4.35674805 335.59692383 2.04674805 335.59692383 -0.33325195 335.59692383 C-0.33325195 243.52692383 -0.33325195 151.45692383 -0.33325195 56.59692383 C-3.96325195 56.59692383 -7.59325195 56.59692383 -11.33325195 56.59692383 C-16.58344266 54.00880165 -20.07923879 51.54302384 -23.33325195 46.59692383 C-25.10044388 41.29534806 -24.5985383 35.58045039 -24.62841797 30.02832031 C-24.63993321 28.53766382 -24.66037825 27.04704842 -24.68994141 25.55664062 C-24.73277356 23.39660788 -24.74880723 21.23779813 -24.7590332 19.07739258 C-24.77361572 17.78728271 -24.78819824 16.49717285 -24.80322266 15.16796875 C-24.07754329 9.65393646 -21.35733798 6.64111813 -17.5480957 2.75708008 C-12.34181448 -0.70406345 -6.01867261 -0.10902118 0 0 Z " fill="#66CA8F" transform="translate(434.333251953125,71.403076171875)"/>
<path d="M0 0 C1.19882812 -0.02900391 2.39765625 -0.05800781 3.6328125 -0.08789062 C11.40259128 -0.14326734 18.52272663 0.31183237 24.48876953 5.79589844 C29.9252437 11.98876827 29.12705552 18.70188716 29.17016602 26.45385742 C29.18167992 27.89601457 29.20212291 29.33812929 29.23168945 30.7800293 C29.27453925 32.87057261 29.29055746 34.95985234 29.30078125 37.05078125 C29.31536377 38.29899658 29.32994629 39.54721191 29.3449707 40.83325195 C28.63794595 46.06743887 25.9071991 49.86015992 21.8125 53.125 C16.07895943 57.39465787 9.69614898 56.64009388 2.84350586 56.7175293 C1.41487357 56.73904533 -0.01362916 56.77307351 -1.44165039 56.82006836 C-14.79792009 57.25490926 -14.79792009 57.25490926 -19.86328125 53.72265625 C-25.57111748 48.30728766 -27.30176014 44.30144487 -27.62109375 36.49609375 C-27.62241587 33.91398897 -27.60225945 31.33179899 -27.5625 28.75 C-27.56958984 27.44869141 -27.57667969 26.14738281 -27.58398438 24.80664062 C-27.53503586 17.46059861 -27.43781831 11.87244387 -22.1875 6.23046875 C-21.506875 5.65941406 -20.82625 5.08835937 -20.125 4.5 C-19.444375 3.91605469 -18.76375 3.33210937 -18.0625 2.73046875 C-12.91359167 -1.03778473 -6.08721439 0.04815834 0 0 Z " fill="#66CA8F" transform="translate(660.125,518.6875)"/>
<path d="M0 0 C1.19431641 -0.02449219 2.38863281 -0.04898437 3.61914062 -0.07421875 C11.88312915 -0.10150765 18.1351715 0.59699225 24.67016602 5.87548828 C29.9888487 11.5613261 29.66320893 18.41957432 29.48486328 25.78369141 C29.43757502 27.87168764 29.44377314 29.95457054 29.45703125 32.04296875 C29.42601461 39.42663633 29.01558138 45.15810105 24.8125 51.375 C17.84659084 56.91929505 11.2823636 56.68396328 2.78100586 56.7800293 C1.35237357 56.80154533 -0.07612916 56.83557351 -1.50415039 56.88256836 C-14.85121989 57.31710973 -14.85121989 57.31710973 -19.92578125 53.91015625 C-25.651502 48.51716122 -27.327961 42.57480848 -27.75390625 34.87109375 C-27.77363332 32.51831151 -27.77191615 30.16526287 -27.75 27.8125 C-27.77384766 26.63236328 -27.79769531 25.45222656 -27.82226562 24.23632812 C-27.81010345 16.99172462 -27.04909885 11.91690002 -22.1875 6.375 C-15.14967645 -0.14786085 -9.28031547 0.00985695 0 0 Z " fill="#67CA8F" transform="translate(436.1875,406.625)"/>
<path d="M0 0 C1.98630296 -0.02460266 3.97212588 -0.08119844 5.95776367 -0.13818359 C13.52894802 -0.20739706 19.081394 0.09476257 24.82299805 5.35009766 C30.56900573 11.68543946 30.0727363 17.13657207 30.11816406 25.30615234 C30.12963501 26.74147437 30.15000902 28.1767554 30.1796875 29.61181641 C30.48882913 44.5611456 30.48882913 44.5611456 25.82299805 51.35009766 C18.88250148 56.87416636 12.78085138 56.62536414 4.21875 56.70019531 C2.83869489 56.71669193 1.45872299 56.7438992 0.07910156 56.78222656 C-13.70320928 57.16245104 -13.70320928 57.16245104 -19.72729492 52.78466797 C-23.78214737 48.77215315 -26.08320984 43.70593483 -26.30981445 38.01416016 C-26.31451609 36.66781168 -26.31147643 35.321421 -26.30200195 33.97509766 C-26.29716797 33.26627441 -26.29233398 32.55745117 -26.28735352 31.82714844 C-26.06118495 11.63029549 -26.06118495 11.63029549 -21.17700195 6.35009766 C-14.49430792 -0.035199 -8.92468732 0.08080593 0 0 Z " fill="#66CA8F" transform="translate(323.177001953125,630.64990234375)"/>
<path d="M0 0 C1.42179714 -0.02154238 2.84346298 -0.05560233 4.26464844 -0.10253906 C18.47717089 -0.56660121 18.47717089 -0.56660121 24.40380859 4.61962891 C28.31585006 9.30958944 29.27521738 12.53963967 29.29150391 18.68237305 C29.29437408 19.37134171 29.29724426 20.06031036 29.30020142 20.77015686 C29.30223504 22.22161688 29.29675436 23.67310475 29.28417969 25.12451172 C29.26813868 27.33258117 29.28403752 29.53881376 29.30322266 31.74682617 C29.30123962 33.1628458 29.29739468 34.57886429 29.29150391 35.99487305 C29.28812012 37.27225342 29.28473633 38.54963379 29.28125 39.86572266 C28.69096974 45.24766792 26.92322711 48.39776106 23.08056641 52.1550293 C16.12601103 57.06412721 9.22744453 56.77085681 1.01806641 56.7800293 C-0.12791016 56.80452148 -1.27388672 56.82901367 -2.45458984 56.85424805 C-10.4619822 56.88189152 -15.72520175 56.06014529 -21.90307617 50.90673828 C-27.28065111 45.17354317 -26.92559644 38.3730228 -26.72436523 30.94140625 C-26.66944285 28.84288307 -26.66283827 26.74833889 -26.66357422 24.64916992 C-26.50888535 10.45108392 -26.50888535 10.45108392 -21.64208984 4.6628418 C-14.91741022 -0.50998868 -8.17913241 0.09296603 0 0 Z " fill="#66CA8F" transform="translate(100.10693359375,71.594970703125)"/>
<path d="M0 0 C129.03 0 258.06 0 391 0 C391 2.31 391 4.62 391 7 C261.97 7 132.94 7 0 7 C0 4.69 0 2.38 0 0 Z " fill="#5A5A5A" transform="translate(242,544)"/>
<path d="M0 0 C2.31 0 4.62 0 7 0 C7 129.03 7 258.06 7 391 C4.69 391 2.38 391 0 391 C0 261.97 0 132.94 0 0 Z " fill="#6E6E6E" transform="translate(658,128)"/>
<path d="M0 0 C92.07 0 184.14 0 279 0 C279 2.31 279 4.62 279 7 C186.93 7 94.86 7 0 7 C0 4.69 0 2.38 0 0 Z " fill="#232323" transform="translate(130,432)"/>
<path d="M0 0 C2.31 0 4.62 0 7 0 C7 92.07 7 184.14 7 279 C4.69 279 2.38 279 0 279 C0 186.93 0 94.86 0 0 Z " fill="#232323" transform="translate(434,128)"/>
<path d="M0 0 C2.31 0 4.62 0 7 0 C7 55.11 7 110.22 7 167 C4.69 167 2.38 167 0 167 C0 111.89 0 56.78 0 0 Z " fill="#191919" transform="translate(98,464)"/>
<path d="M0 0 C55.11 0 110.22 0 167 0 C167 2.31 167 4.62 167 7 C111.89 7 56.78 7 0 7 C0 4.69 0 2.38 0 0 Z " fill="#191919" transform="translate(466,96)"/>
<path d="M0 0 C92.07 0 184.14 0 279 0 C279 1.32 279 2.64 279 4 C186.93 4 94.86 4 0 4 C0 2.68 0 1.36 0 0 Z " fill="#F5F5F5" transform="translate(130,98)"/>
<path d="M0 0 C18.15 0 36.3 0 55 0 C55 1.98 55 3.96 55 6 C36.85 6 18.7 6 0 6 C0 4.02 0 2.04 0 0 Z " fill="#000000" transform="translate(242,656)"/>
<path d="M0 0 C18.15 0 36.3 0 55 0 C55 1.98 55 3.96 55 6 C36.85 6 18.7 6 0 6 C0 4.02 0 2.04 0 0 Z " fill="#000000" transform="translate(186,656)"/>
<path d="M0 0 C18.15 0 36.3 0 55 0 C55 1.98 55 3.96 55 6 C36.85 6 18.7 6 0 6 C0 4.02 0 2.04 0 0 Z " fill="#000000" transform="translate(130,656)"/>
<path d="M0 0 C1.98 0 3.96 0 6 0 C6 18.15 6 36.3 6 55 C4.02 55 2.04 55 0 55 C0 36.85 0 18.7 0 0 Z " fill="#010101" transform="translate(99,576)"/>
<path d="M0 0 C18.15 0 36.3 0 55 0 C55 1.98 55 3.96 55 6 C36.85 6 18.7 6 0 6 C0 4.02 0 2.04 0 0 Z " fill="#000000" transform="translate(578,544)"/>
<path d="M0 0 C18.15 0 36.3 0 55 0 C55 1.98 55 3.96 55 6 C36.85 6 18.7 6 0 6 C0 4.02 0 2.04 0 0 Z " fill="#000000" transform="translate(522,544)"/>
<path d="M0 0 C18.15 0 36.3 0 55 0 C55 1.98 55 3.96 55 6 C36.85 6 18.7 6 0 6 C0 4.02 0 2.04 0 0 Z " fill="#000000" transform="translate(466,544)"/>
<path d="M0 0 C18.15 0 36.3 0 55 0 C55 1.98 55 3.96 55 6 C36.85 6 18.7 6 0 6 C0 4.02 0 2.04 0 0 Z " fill="#000000" transform="translate(410,544)"/>
<path d="M0 0 C18.15 0 36.3 0 55 0 C55 1.98 55 3.96 55 6 C36.85 6 18.7 6 0 6 C0 4.02 0 2.04 0 0 Z " fill="#000000" transform="translate(354,544)"/>
<path d="M0 0 C18.15 0 36.3 0 55 0 C55 1.98 55 3.96 55 6 C36.85 6 18.7 6 0 6 C0 4.02 0 2.04 0 0 Z " fill="#000000" transform="translate(298,544)"/>
<path d="M0 0 C18.15 0 36.3 0 55 0 C55 1.98 55 3.96 55 6 C36.85 6 18.7 6 0 6 C0 4.02 0 2.04 0 0 Z " fill="#000000" transform="translate(242,544)"/>
<path d="M0 0 C1.98 0 3.96 0 6 0 C6 18.15 6 36.3 6 55 C4.02 55 2.04 55 0 55 C0 36.85 0 18.7 0 0 Z " fill="#010101" transform="translate(99,520)"/>
<path d="M0 0 C1.98 0 3.96 0 6 0 C6 18.15 6 36.3 6 55 C4.02 55 2.04 55 0 55 C0 36.85 0 18.7 0 0 Z " fill="#000000" transform="translate(658,464)"/>
<path d="M0 0 C18.15 0 36.3 0 55 0 C55 1.98 55 3.96 55 6 C36.85 6 18.7 6 0 6 C0 4.02 0 2.04 0 0 Z " fill="#000000" transform="translate(354,432)"/>
<path d="M0 0 C18.15 0 36.3 0 55 0 C55 1.98 55 3.96 55 6 C36.85 6 18.7 6 0 6 C0 4.02 0 2.04 0 0 Z " fill="#000000" transform="translate(298,432)"/>
<path d="M0 0 C18.15 0 36.3 0 55 0 C55 1.98 55 3.96 55 6 C36.85 6 18.7 6 0 6 C0 4.02 0 2.04 0 0 Z " fill="#000000" transform="translate(242,432)"/>
<path d="M0 0 C18.15 0 36.3 0 55 0 C55 1.98 55 3.96 55 6 C36.85 6 18.7 6 0 6 C0 4.02 0 2.04 0 0 Z " fill="#000000" transform="translate(186,432)"/>
<path d="M0 0 C1.98 0 3.96 0 6 0 C6 18.15 6 36.3 6 55 C4.02 55 2.04 55 0 55 C0 36.85 0 18.7 0 0 Z " fill="#000000" transform="translate(658,408)"/>
<path d="M0 0 C1.98 0 3.96 0 6 0 C6 18.15 6 36.3 6 55 C4.02 55 2.04 55 0 55 C0 36.85 0 18.7 0 0 Z " fill="#000000" transform="translate(658,352)"/>
<path d="M0 0 C1.98 0 3.96 0 6 0 C6 18.15 6 36.3 6 55 C4.02 55 2.04 55 0 55 C0 36.85 0 18.7 0 0 Z " fill="#000000" transform="translate(434,352)"/>
<path d="M0 0 C1.98 0 3.96 0 6 0 C6 18.15 6 36.3 6 55 C4.02 55 2.04 55 0 55 C0 36.85 0 18.7 0 0 Z " fill="#000000" transform="translate(658,296)"/>
<path d="M0 0 C1.98 0 3.96 0 6 0 C6 18.15 6 36.3 6 55 C4.02 55 2.04 55 0 55 C0 36.85 0 18.7 0 0 Z " fill="#000000" transform="translate(434,296)"/>
<path d="M0 0 C1.98 0 3.96 0 6 0 C6 18.15 6 36.3 6 55 C4.02 55 2.04 55 0 55 C0 36.85 0 18.7 0 0 Z " fill="#000000" transform="translate(658,240)"/>
<path d="M0 0 C1.98 0 3.96 0 6 0 C6 18.15 6 36.3 6 55 C4.02 55 2.04 55 0 55 C0 36.85 0 18.7 0 0 Z " fill="#000000" transform="translate(434,240)"/>
<path d="M0 0 C1.98 0 3.96 0 6 0 C6 18.15 6 36.3 6 55 C4.02 55 2.04 55 0 55 C0 36.85 0 18.7 0 0 Z " fill="#000000" transform="translate(658,184)"/>
<path d="M0 0 C1.98 0 3.96 0 6 0 C6 18.15 6 36.3 6 55 C4.02 55 2.04 55 0 55 C0 36.85 0 18.7 0 0 Z " fill="#000000" transform="translate(434,184)"/>
<path d="M0 0 C1.98 0 3.96 0 6 0 C6 18.15 6 36.3 6 55 C4.02 55 2.04 55 0 55 C0 36.85 0 18.7 0 0 Z " fill="#000000" transform="translate(658,128)"/>
<path d="M0 0 C18.15 0 36.3 0 55 0 C55 1.98 55 3.96 55 6 C36.85 6 18.7 6 0 6 C0 4.02 0 2.04 0 0 Z " fill="#000000" transform="translate(354,102)"/>
<path d="M0 0 C18.15 0 36.3 0 55 0 C55 1.98 55 3.96 55 6 C36.85 6 18.7 6 0 6 C0 4.02 0 2.04 0 0 Z " fill="#000000" transform="translate(298,102)"/>
<path d="M0 0 C18.15 0 36.3 0 55 0 C55 1.98 55 3.96 55 6 C36.85 6 18.7 6 0 6 C0 4.02 0 2.04 0 0 Z " fill="#000000" transform="translate(242,102)"/>
<path d="M0 0 C18.15 0 36.3 0 55 0 C55 1.98 55 3.96 55 6 C36.85 6 18.7 6 0 6 C0 4.02 0 2.04 0 0 Z " fill="#000000" transform="translate(186,102)"/>
<path d="M0 0 C18.15 0 36.3 0 55 0 C55 1.98 55 3.96 55 6 C36.85 6 18.7 6 0 6 C0 4.02 0 2.04 0 0 Z " fill="#000000" transform="translate(130,102)"/>
<path d="M0 0 C18.15 0 36.3 0 55 0 C55 1.98 55 3.96 55 6 C36.85 6 18.7 6 0 6 C0 4.02 0 2.04 0 0 Z " fill="#010101" transform="translate(578,97)"/>
<path d="M0 0 C18.15 0 36.3 0 55 0 C55 1.98 55 3.96 55 6 C36.85 6 18.7 6 0 6 C0 4.02 0 2.04 0 0 Z " fill="#010101" transform="translate(522,97)"/>
<path d="M0 0 C18.15 0 36.3 0 55 0 C55 1.98 55 3.96 55 6 C36.85 6 18.7 6 0 6 C0 4.02 0 2.04 0 0 Z " fill="#000000" transform="translate(354,91)"/>
<path d="M0 0 C18.15 0 36.3 0 55 0 C55 1.98 55 3.96 55 6 C36.85 6 18.7 6 0 6 C0 4.02 0 2.04 0 0 Z " fill="#000000" transform="translate(298,91)"/>
<path d="M0 0 C18.15 0 36.3 0 55 0 C55 1.98 55 3.96 55 6 C36.85 6 18.7 6 0 6 C0 4.02 0 2.04 0 0 Z " fill="#000000" transform="translate(242,91)"/>
<path d="M0 0 C18.15 0 36.3 0 55 0 C55 1.98 55 3.96 55 6 C36.85 6 18.7 6 0 6 C0 4.02 0 2.04 0 0 Z " fill="#000000" transform="translate(186,91)"/>
<path d="M0 0 C18.15 0 36.3 0 55 0 C55 1.98 55 3.96 55 6 C36.85 6 18.7 6 0 6 C0 4.02 0 2.04 0 0 Z " fill="#000000" transform="translate(130,91)"/>
<path d="M0 0 C2.05078125 0.03255208 4.1015625 0.06510417 6.15234375 0.09765625 C6.15234375 4.71765625 6.15234375 9.33765625 6.15234375 14.09765625 C7.14234375 14.09765625 8.13234375 14.09765625 9.15234375 14.09765625 C9.15234375 15.74765625 9.15234375 17.39765625 9.15234375 19.09765625 C8.16234375 19.09765625 7.17234375 19.09765625 6.15234375 19.09765625 C6.15234375 20.08765625 6.15234375 21.07765625 6.15234375 22.09765625 C4.17234375 22.09765625 2.19234375 22.09765625 0.15234375 22.09765625 C0.15234375 21.10765625 0.15234375 20.11765625 0.15234375 19.09765625 C-3.14765625 19.09765625 -6.44765625 19.09765625 -9.84765625 19.09765625 C-11.00505754 11.65721941 -7.07825154 6.96164684 -2.84765625 1.09765625 C-1.84765625 0.09765625 -1.84765625 0.09765625 0 0 Z " fill="#F8FCFA" transform="translate(437.84765625,88.90234375)"/>
<path d="M0 0 C2.5 1.0625 2.5 1.0625 4 3 C4.625 6.3125 4.625 6.3125 4 10 C2.19846276 12.3846938 0.29667056 14.03826057 -2 16 C0.31 16.33 2.62 16.66 5 17 C5 18.65 5 20.3 5 22 C-0.94 22 -6.88 22 -13 22 C-11.91761671 16.58808355 -11.47864134 16.10032408 -7.4375 12.875 C-4.96888047 10.95850597 -4.96888047 10.95850597 -3 9 C-3 8.01 -3 7.02 -3 6 C-3.99 6 -4.98 6 -6 6 C-6.33 6.66 -6.66 7.32 -7 8 C-8.98 8 -10.96 8 -13 8 C-12.68762196 5.11050316 -12.35661121 3.41366901 -10.4375 1.1875 C-6.92158856 -0.52537993 -3.8397516 -0.55865238 0 0 Z " fill="#F7FCF9" transform="translate(665,536)"/>
<path d="M0 0 C2.5 1.0625 2.5 1.0625 4 3 C4.625 6.3125 4.625 6.3125 4 10 C2.19846276 12.3846938 0.29667056 14.03826057 -2 16 C0.31 16.33 2.62 16.66 5 17 C5 18.65 5 20.3 5 22 C-0.94 22 -6.88 22 -13 22 C-11.91761671 16.58808355 -11.47864134 16.10032408 -7.4375 12.875 C-4.96888047 10.95850597 -4.96888047 10.95850597 -3 9 C-3 8.01 -3 7.02 -3 6 C-3.99 6 -4.98 6 -6 6 C-6.33 6.66 -6.66 7.32 -7 8 C-8.98 8 -10.96 8 -13 8 C-12.68762196 5.11050316 -12.35661121 3.41366901 -10.4375 1.1875 C-6.92158856 -0.52537993 -3.8397516 -0.55865238 0 0 Z " fill="#F7FCF9" transform="translate(665,89)"/>
<path d="M0 0 C2.16796875 0.34375 2.16796875 0.34375 4.79296875 1.90625 C6.16796875 4.34375 6.16796875 4.34375 6.29296875 7.78125 C4.82868024 12.4181636 3.08487821 13.59357953 -0.83203125 16.34375 C1.47796875 16.67375 3.78796875 17.00375 6.16796875 17.34375 C6.16796875 18.99375 6.16796875 20.64375 6.16796875 22.34375 C0.55796875 22.34375 -5.05203125 22.34375 -10.83203125 22.34375 C-10.83203125 17.34375 -10.83203125 17.34375 -8.64453125 14.95703125 C-7.25234375 13.81814453 -7.25234375 13.81814453 -5.83203125 12.65625 C-4.13543399 11.25420087 -2.46073448 9.8241249 -0.83203125 8.34375 C-0.83203125 7.68375 -0.83203125 7.02375 -0.83203125 6.34375 C-2.15203125 6.01375 -3.47203125 5.68375 -4.83203125 5.34375 C-5.16203125 6.33375 -5.49203125 7.32375 -5.83203125 8.34375 C-7.48203125 8.34375 -9.13203125 8.34375 -10.83203125 8.34375 C-9.8568179 1.12717124 -6.89479386 -0.26994299 0 0 Z " fill="#F8FCFA" transform="translate(103.83203125,647.65625)"/>
<path d="M0 0 C2.16796875 0.34375 2.16796875 0.34375 4.79296875 1.90625 C6.16796875 4.34375 6.16796875 4.34375 6.29296875 7.78125 C4.82868024 12.4181636 3.08487821 13.59357953 -0.83203125 16.34375 C1.47796875 16.67375 3.78796875 17.00375 6.16796875 17.34375 C6.16796875 18.99375 6.16796875 20.64375 6.16796875 22.34375 C0.55796875 22.34375 -5.05203125 22.34375 -10.83203125 22.34375 C-10.83203125 17.34375 -10.83203125 17.34375 -8.64453125 14.95703125 C-7.25234375 13.81814453 -7.25234375 13.81814453 -5.83203125 12.65625 C-4.13543399 11.25420087 -2.46073448 9.8241249 -0.83203125 8.34375 C-0.83203125 7.68375 -0.83203125 7.02375 -0.83203125 6.34375 C-2.15203125 6.01375 -3.47203125 5.68375 -4.83203125 5.34375 C-5.16203125 6.33375 -5.49203125 7.32375 -5.83203125 8.34375 C-7.48203125 8.34375 -9.13203125 8.34375 -10.83203125 8.34375 C-9.8568179 1.12717124 -6.89479386 -0.26994299 0 0 Z " fill="#F8FCFA" transform="translate(103.83203125,423.65625)"/>
<path d="M0 0 C2.16796875 0.34375 2.16796875 0.34375 4.79296875 1.90625 C6.16796875 4.34375 6.16796875 4.34375 6.29296875 7.78125 C4.82868024 12.4181636 3.08487821 13.59357953 -0.83203125 16.34375 C1.47796875 16.67375 3.78796875 17.00375 6.16796875 17.34375 C6.16796875 18.99375 6.16796875 20.64375 6.16796875 22.34375 C0.55796875 22.34375 -5.05203125 22.34375 -10.83203125 22.34375 C-10.83203125 17.34375 -10.83203125 17.34375 -8.64453125 14.95703125 C-7.25234375 13.81814453 -7.25234375 13.81814453 -5.83203125 12.65625 C-4.13543399 11.25420087 -2.46073448 9.8241249 -0.83203125 8.34375 C-0.83203125 7.68375 -0.83203125 7.02375 -0.83203125 6.34375 C-2.15203125 6.01375 -3.47203125 5.68375 -4.83203125 5.34375 C-5.16203125 6.33375 -5.49203125 7.32375 -5.83203125 8.34375 C-7.48203125 8.34375 -9.13203125 8.34375 -10.83203125 8.34375 C-9.8568179 1.12717124 -6.89479386 -0.26994299 0 0 Z " fill="#F8FCFA" transform="translate(103.83203125,88.65625)"/>
<path d="M0 0 C3.28004906 1.35480287 4.6151218 2.08591428 6 5.375 C6 8.80272592 5.06607824 10.29272507 3 13 C0.8125 14.8125 0.8125 14.8125 -1 16 C1.31 16.33 3.62 16.66 6 17 C6 18.65 6 20.3 6 22 C0.39 22 -5.22 22 -11 22 C-11 17 -11 17 -9.06640625 14.90234375 C-8.24011719 14.25394531 -7.41382813 13.60554688 -6.5625 12.9375 C-2.46296639 9.76842153 -2.46296639 9.76842153 -1 5 C-2.32 5 -3.64 5 -5 5 C-5.33 5.99 -5.66 6.98 -6 8 C-7.65 8 -9.3 8 -11 8 C-11.25 5.6875 -11.25 5.6875 -11 3 C-7.85965733 -0.64279749 -4.57607483 -0.48169209 0 0 Z " fill="#F8FCFA" transform="translate(440,424)"/>
<path d="M0 0 C0 7.26 0 14.52 0 22 C-1.98 22 -3.96 22 -6 22 C-6.33 17.05 -6.66 12.1 -7 7 C-8.98 7.99 -8.98 7.99 -11 9 C-11.3125 6.1875 -11.3125 6.1875 -11 3 C-7.16447589 -0.38428598 -5.39581949 0 0 0 Z " fill="#FCFEFD" transform="translate(330,648)"/>
<path d="M0 0 C0 7.26 0 14.52 0 22 C-1.98 22 -3.96 22 -6 22 C-6.33 17.05 -6.66 12.1 -7 7 C-8.98 7.99 -8.98 7.99 -11 9 C-11.3125 6.1875 -11.3125 6.1875 -11 3 C-7.16447589 -0.38428598 -5.39581949 0 0 0 Z " fill="#FCFEFD" transform="translate(218,536)"/>
<path d="M0 0 C0.33 0 0.66 0 1 0 C1 2.31 1 4.62 1 7 C-0.65 7 -2.3 7 -4 7 C-2.68 4.69 -1.36 2.38 0 0 Z " fill="#72CE98" transform="translate(437,96)"/>
</svg>
