<svg version="1.1" id="Layer_1" xmlns="http://www.w3.org/2000/svg" xmlns:xlink="http://www.w3.org/1999/xlink" x="0px" y="0px"
	 width="100%" viewBox="0 0 639 639" enable-background="new 0 0 639 639" xml:space="preserve">
<path fill="#FFFFFF" opacity="1.000000" stroke="none" 
	d="
M1.000000,226.000000 
	C1.000000,150.681290 1.000000,75.862587 1.000000,1.021939 
	C213.943741,1.021939 426.887482,1.021939 639.915649,1.021939 
	C639.915649,213.902084 639.915649,426.804230 639.915649,639.853149 
	C427.000061,639.853149 214.000046,639.853149 1.000000,639.853149 
	C1.000000,502.112427 1.000000,364.306213 1.000000,226.000000 
M80.971413,423.654327 
	C81.023155,424.109497 81.074898,424.564697 80.915733,425.933624 
	C80.993088,450.281708 81.070442,474.629761 81.020523,499.516937 
	C81.043411,499.700165 81.066299,499.883392 80.228767,500.226715 
	C64.019653,501.093781 55.135357,510.497986 55.094055,526.867249 
	C55.072643,535.353638 54.940338,543.843689 55.132099,552.325867 
	C55.438225,565.866821 65.565834,575.789429 79.064720,575.910645 
	C88.382446,575.994385 97.702362,576.003235 107.019836,575.905640 
	C120.446281,575.765015 130.655838,565.607605 130.950424,552.233643 
	C131.020020,549.073975 131.057281,545.913696 131.877502,542.777893 
	C132.885391,542.673096 133.893265,542.568237 135.817245,542.725037 
	C183.568878,542.737000 231.320511,542.752808 279.072144,542.740601 
	C280.377563,542.740234 281.682953,542.437927 283.841522,542.694275 
	C307.599915,542.714172 331.358337,542.743164 355.116730,542.729431 
	C356.416382,542.728699 357.715851,542.370911 359.817963,542.687439 
	C408.758118,542.712341 457.698273,542.743408 506.638428,542.727417 
	C507.888214,542.727051 509.137848,542.210693 510.432800,542.377014 
	C510.432800,542.377014 510.843262,542.547180 510.844025,543.412903 
	C510.875366,546.577026 510.903717,549.741272 510.938599,552.905334 
	C511.075043,565.281860 521.003296,575.596680 533.353516,575.846375 
	C543.510864,576.051758 553.679382,576.066284 563.836182,575.849487 
	C576.039856,575.588928 585.911377,565.610168 586.134827,553.376221 
	C586.317261,543.384583 586.297302,533.385132 586.141602,523.392639 
	C585.939514,510.418671 575.770142,500.498413 562.751221,500.416931 
	C553.256348,500.357483 543.760437,500.356079 534.265564,500.418762 
	C521.432434,500.503418 511.055634,510.842865 510.937897,523.569397 
	C510.907043,526.900513 510.884399,530.231750 510.468872,533.754150 
	C510.468872,533.754150 510.309357,534.155640 509.413757,533.734375 
	C493.416443,533.702026 477.419006,533.622253 461.421814,533.655701 
	C452.438629,533.674561 443.455841,533.880615 434.499695,533.864014 
	C434.499695,533.864014 434.519714,534.003662 433.554169,533.710632 
	C408.666931,533.756531 383.779724,533.802429 358.492218,533.581909 
	C358.492218,533.581909 358.100952,533.861328 357.165802,533.679077 
	C343.883331,533.668091 330.600677,533.609192 317.318451,533.660645 
	C305.878357,533.704895 294.438751,533.874878 282.501221,533.751038 
	C282.334595,533.828979 282.167969,533.906860 281.106049,533.683350 
	C231.107056,533.675476 181.108078,533.667603 131.066788,532.770264 
	C130.929932,528.633362 131.251556,524.419250 130.570175,520.374023 
	C128.533905,508.285065 119.907028,501.638336 104.957489,499.512177 
	C104.907448,499.332001 104.857414,499.151825 105.068321,498.070404 
	C104.989624,473.721863 104.910927,449.373322 105.015320,424.348114 
	C104.952797,423.889252 104.890274,423.430389 105.064453,422.064423 
	C104.993591,397.717590 104.922729,373.370758 105.061478,348.351868 
	C104.991798,347.893127 104.922119,347.434418 105.064682,346.062775 
	C105.002838,321.715118 104.941002,297.367493 105.101128,272.353943 
	C105.029846,271.897186 104.958557,271.440460 105.079445,270.065857 
	C105.086395,230.511932 105.106842,190.958008 105.090721,151.404083 
	C105.086723,141.604828 104.964149,131.805603 105.120872,121.500366 
	C105.126762,121.315895 105.132645,121.131432 105.958199,120.813873 
	C122.319893,119.394890 130.938049,110.014221 130.962677,93.620934 
	C130.965897,91.477432 131.056793,89.334061 132.024933,87.194405 
	C180.880417,87.201225 229.735916,87.211769 278.591400,87.197044 
	C280.066833,87.196602 281.542206,86.932220 283.906677,87.102516 
	C291.367493,87.117599 298.828491,87.172844 306.289093,87.139618 
	C323.188354,87.064339 340.087402,86.945457 357.550140,87.124107 
	C357.966278,87.085556 358.382385,87.046997 358.785950,87.942390 
	C358.830902,90.588158 358.903412,93.233803 358.916229,95.879723 
	C358.985626,110.200882 369.274811,120.488518 383.681519,120.660378 
	C386.488251,120.693863 389.293549,120.848709 392.085510,121.894600 
	C392.081635,170.613739 392.075012,219.332886 392.085571,268.052032 
	C392.085938,269.705933 392.259033,271.359741 392.132935,273.926300 
	C392.158112,298.637787 392.183289,323.349274 391.446808,348.392639 
	C387.645416,348.555908 383.843994,348.719208 379.665009,348.628693 
	C379.138977,348.828918 378.612976,349.029144 377.345795,349.155029 
	C365.425232,352.652161 358.966034,361.091858 358.939392,373.254395 
	C358.919739,382.236908 358.895935,391.219727 358.945618,400.201996 
	C359.020081,413.661774 369.071136,423.840179 382.574127,424.021851 
	C391.721405,424.144928 400.872070,424.109680 410.020355,424.037598 
	C424.095459,423.926636 434.046143,414.537537 434.525665,400.531067 
	C434.849915,391.060699 434.855957,381.560577 434.518616,372.091064 
	C434.082306,359.843872 426.162598,350.847046 414.660828,348.785889 
	C414.088287,348.808228 413.515778,348.830536 412.063354,348.660126 
	C408.397186,348.466644 404.731018,348.273193 401.155731,347.129028 
	C401.176849,340.493195 401.238556,333.857208 401.211334,327.221558 
	C401.137146,309.149261 401.025330,291.077118 401.184448,272.097504 
	C401.201874,221.730942 401.219330,171.364380 402.129059,120.855698 
	C404.788361,120.785294 407.447266,120.689880 410.107025,120.648651 
	C423.835815,120.435822 434.167694,110.542023 434.568268,96.789421 
	C434.844513,87.305321 434.832367,77.800713 434.567596,68.315926 
	C434.214325,55.662315 425.554962,45.826820 412.974854,44.972908 
	C401.884644,44.220135 390.647827,44.275749 379.565094,45.131290 
	C367.614563,46.053822 359.091736,56.302448 358.922546,68.227509 
	C358.875336,71.556084 358.837402,74.884789 358.170746,78.129433 
	C357.770935,78.197601 357.371094,78.265762 356.071014,78.071663 
	C341.649902,78.058594 327.228638,77.997780 312.807770,78.048920 
	C302.880127,78.084129 292.953064,78.274506 282.134674,78.073990 
	C231.791534,78.054176 181.448395,78.034370 131.078918,77.079979 
	C131.038132,74.582062 130.980377,72.084290 130.959351,69.586205 
	C130.840546,55.471115 121.163239,45.173038 107.028656,44.659447 
	C97.708427,44.320789 88.356613,44.324066 79.035789,44.652451 
	C64.850800,45.152203 55.240105,55.300808 55.104168,69.534676 
	C55.019825,78.366432 55.003296,87.200775 55.113480,96.031990 
	C55.274269,108.919128 63.701824,118.494179 76.390823,120.520493 
	C77.929756,120.766243 79.397491,121.457840 80.896233,122.886826 
	C80.895981,155.469025 80.875771,188.051239 80.903732,220.633423 
	C80.918129,237.418228 81.018288,254.202988 80.889458,271.653870 
	C80.952965,272.106781 81.016464,272.559723 80.913109,273.935272 
	C80.976677,298.284851 81.040253,322.634399 80.929764,347.653992 
	C80.987709,348.108063 81.045654,348.562164 80.913681,349.934509 
	C80.984673,374.283142 81.055656,398.631775 80.971413,423.654327 
z"/>
<path fill="#2FCD88" opacity="1.000000" stroke="none" 
	d="
M380.042603,348.882477 
	C383.843994,348.719208 387.645416,348.555908 392.171021,348.182739 
	C393.332520,348.114716 393.769775,348.256592 394.471863,348.594421 
	C396.448273,348.647919 398.159912,348.505432 400.154572,348.227661 
	C400.646667,348.088165 400.855774,348.083954 401.064850,348.079712 
	C404.731018,348.273193 408.397186,348.466644 412.628784,348.997375 
	C413.777466,349.274292 414.360779,349.213959 414.944061,349.153625 
	C426.162598,350.847046 434.082306,359.843872 434.518616,372.091064 
	C434.855957,381.560577 434.849915,391.060699 434.525665,400.531067 
	C434.046143,414.537537 424.095459,423.926636 410.020355,424.037598 
	C400.872070,424.109680 391.721405,424.144928 382.574127,424.021851 
	C369.071136,423.840179 359.020081,413.661774 358.945618,400.201996 
	C358.895935,391.219727 358.919739,382.236908 358.939392,373.254395 
	C358.966034,361.091858 365.425232,352.652161 377.887207,349.387878 
	C378.966644,349.374634 379.504608,349.128571 380.042603,348.882477 
M403.084015,376.671814 
	C402.973816,375.234802 402.863647,373.797791 402.761261,372.462219 
	C391.663422,370.709229 385.539032,375.567932 388.164276,383.927948 
	C390.236176,382.844147 392.273499,381.778412 395.071533,380.314728 
	C395.071533,387.997437 395.071533,394.579498 395.071533,401.312561 
	C397.881409,401.312561 400.274597,401.312561 403.084137,401.312561 
	C403.084137,393.198303 403.084137,385.418091 403.084015,376.671814 
z"/>
<path fill="#2FCD88" opacity="1.000000" stroke="none" 
	d="
M510.857971,533.562927 
	C510.884399,530.231750 510.907043,526.900513 510.937897,523.569397 
	C511.055634,510.842865 521.432434,500.503418 534.265564,500.418762 
	C543.760437,500.356079 553.256348,500.357483 562.751221,500.416931 
	C575.770142,500.498413 585.939514,510.418671 586.141602,523.392639 
	C586.297302,533.385132 586.317261,543.384583 586.134827,553.376221 
	C585.911377,565.610168 576.039856,575.588928 563.836182,575.849487 
	C553.679382,576.066284 543.510864,576.051758 533.353516,575.846375 
	C521.003296,575.596680 511.075043,565.281860 510.938599,552.905334 
	C510.903717,549.741272 510.875366,546.577026 510.893372,542.477295 
	C510.914459,538.882080 510.886200,536.222534 510.857971,533.562927 
M548.890686,553.663391 
	C550.816406,553.663391 552.742188,553.663391 554.964172,553.663391 
	C554.964172,548.097595 554.964172,543.287170 554.964172,538.476807 
	C554.964172,533.736267 554.964172,528.995728 554.964172,524.416138 
	C543.511230,522.596741 537.695068,527.187195 539.783691,535.996338 
	C541.801575,534.992615 543.754761,534.021057 546.262512,532.773682 
	C546.262512,538.676819 546.127991,543.827637 546.343567,548.963745 
	C546.409241,550.527527 547.439758,552.050720 548.890686,553.663391 
z"/>
<path fill="#34CD8A" opacity="1.000000" stroke="none" 
	d="
M80.898224,121.942802 
	C79.397491,121.457840 77.929756,120.766243 76.390823,120.520493 
	C63.701824,118.494179 55.274269,108.919128 55.113480,96.031990 
	C55.003296,87.200775 55.019825,78.366432 55.104168,69.534676 
	C55.240105,55.300808 64.850800,45.152203 79.035789,44.652451 
	C88.356613,44.324066 97.708427,44.320789 107.028656,44.659447 
	C121.163239,45.173038 130.840546,55.471115 130.959351,69.586205 
	C130.980377,72.084290 131.038132,74.582062 131.083893,78.002869 
	C131.094925,81.680717 131.100998,84.435669 131.107071,87.190628 
	C131.056793,89.334061 130.965897,91.477432 130.962677,93.620934 
	C130.938049,110.014221 122.319893,119.394890 105.261551,120.840034 
	C104.373749,120.893867 104.182602,120.921547 103.562149,120.855362 
	C101.089813,120.821144 99.046783,120.880791 96.744644,120.883759 
	C96.312889,120.864861 96.140236,120.902626 95.547188,120.839600 
	C93.409126,120.805084 91.691452,120.871368 89.611893,120.799332 
	C86.569008,121.107788 83.888016,121.554565 81.117432,122.052071 
	C81.027847,122.102798 80.898224,121.942802 80.898224,121.942802 
M98.044983,68.234413 
	C88.312469,65.838188 82.261002,68.843170 81.228867,77.758751 
	C84.280167,76.941895 86.906479,76.169426 89.568710,75.551720 
	C91.206749,75.171661 92.898705,74.891045 94.568611,74.879539 
	C94.960999,74.876831 95.752144,76.706467 95.702377,76.740829 
	C94.324043,77.692398 92.772705,78.403732 91.438667,79.405960 
	C90.326439,80.241539 88.491684,81.658356 88.681564,82.349327 
	C89.031204,83.621719 90.516525,84.716537 91.745186,85.575500 
	C93.002823,86.454735 94.612373,86.838745 95.836136,87.750549 
	C96.048073,87.908455 95.214508,90.385216 94.680405,90.458778 
	C93.013145,90.688393 91.221283,90.446915 89.545067,90.080223 
	C86.758453,89.470627 84.024178,88.621758 80.824280,87.753258 
	C81.458336,94.177414 83.838333,96.786697 88.837128,97.827682 
	C95.529694,99.221375 101.817017,97.329651 104.025566,93.080025 
	C106.424515,88.464043 104.759659,84.806831 100.788460,82.064369 
	C105.537086,75.611420 104.967514,72.220512 98.044983,68.234413 
z"/>
<path fill="#37CB8B" opacity="1.000000" stroke="none" 
	d="
M358.795227,78.213432 
	C358.837402,74.884789 358.875336,71.556084 358.922546,68.227509 
	C359.091736,56.302448 367.614563,46.053822 379.565094,45.131290 
	C390.647827,44.275749 401.884644,44.220135 412.974854,44.972908 
	C425.554962,45.826820 434.214325,55.662315 434.567596,68.315926 
	C434.832367,77.800713 434.844513,87.305321 434.568268,96.789421 
	C434.167694,110.542023 423.835815,120.435822 410.107025,120.648651 
	C407.447266,120.689880 404.788361,120.785294 401.323730,120.780907 
	C397.712128,120.786606 394.905792,120.867096 392.099487,120.947586 
	C389.293549,120.848709 386.488251,120.693863 383.681519,120.660378 
	C369.274811,120.488518 358.985626,110.200882 358.916229,95.879723 
	C358.903412,93.233803 358.830902,90.588158 358.729370,87.035522 
	C358.713593,83.490250 358.754395,80.851845 358.795227,78.213432 
M406.284576,81.527763 
	C408.648407,77.653580 408.559570,73.924011 405.373505,70.572128 
	C402.041412,67.066536 394.832520,66.252556 389.952515,68.812691 
	C386.447083,70.651703 384.400421,73.375854 385.425171,78.748955 
	C388.104828,77.932655 390.539490,77.113853 393.018036,76.461716 
	C394.821259,75.987259 396.682434,75.732941 398.517761,75.380486 
	C398.188049,77.165916 398.452179,79.491951 397.413940,80.632385 
	C394.632202,83.687981 391.438599,86.428986 388.130981,88.927444 
	C385.176575,91.159111 384.281189,93.705696 385.506531,97.327637 
	C392.880188,97.327637 400.276733,97.327637 407.693848,97.327637 
	C407.693848,95.106796 407.693848,93.217010 407.693848,91.143509 
	C404.306519,90.972046 401.295502,90.819626 396.969055,90.600624 
	C400.615845,87.148163 403.250824,84.653595 406.284576,81.527763 
z"/>
<path fill="#34CD8A" opacity="1.000000" stroke="none" 
	d="
M131.109421,542.753662 
	C131.057281,545.913696 131.020020,549.073975 130.950424,552.233643 
	C130.655838,565.607605 120.446281,575.765015 107.019836,575.905640 
	C97.702362,576.003235 88.382446,575.994385 79.064720,575.910645 
	C65.565834,575.789429 55.438225,565.866821 55.132099,552.325867 
	C54.940338,543.843689 55.072643,535.353638 55.094055,526.867249 
	C55.135357,510.497986 64.019653,501.093781 80.913261,500.140411 
	C81.758896,500.107208 81.920029,500.160278 82.352493,500.453613 
	C84.728645,500.516235 86.833458,500.338562 89.134911,500.073975 
	C89.331543,499.987061 89.754341,500.065186 90.202011,500.186798 
	C92.491936,500.229431 94.334206,500.150421 96.409477,500.053467 
	C96.642487,500.035522 97.079277,500.201935 97.348160,500.444275 
	C99.720436,500.519684 101.823822,500.352722 104.161255,500.098633 
	C104.395294,500.011505 104.891258,500.070465 104.891258,500.070465 
	C119.907028,501.638336 128.533905,508.285065 130.570175,520.374023 
	C131.251556,524.419250 130.929932,528.633362 131.077927,533.610107 
	C131.123459,534.973572 131.157852,535.497314 131.101379,536.435730 
	C131.043488,538.818176 131.076447,540.785950 131.109421,542.753662 
M102.911446,535.177979 
	C104.714790,532.023743 104.428291,528.917786 101.829887,526.533325 
	C97.753639,522.792725 92.768417,522.659302 87.755508,524.194031 
	C83.773018,525.413269 81.366096,528.108887 81.147163,533.788940 
	C84.284630,532.944275 86.910835,532.165771 89.574074,531.546631 
	C91.211830,531.165894 92.905472,530.892090 94.575668,530.883301 
	C94.966217,530.881287 95.752342,532.713318 95.700821,532.748779 
	C94.320526,533.698608 92.764977,534.404724 91.430618,535.406982 
	C90.318726,536.242188 88.489037,537.667358 88.680931,538.357483 
	C89.034561,539.629150 90.524284,540.716858 91.753723,541.576416 
	C93.010986,542.455505 94.615997,542.845764 95.837196,543.759521 
	C96.047623,543.916992 95.207733,546.390198 94.672173,546.463074 
	C93.004364,546.689697 91.213760,546.441650 89.536789,546.075500 
	C86.750984,545.467163 84.016525,544.623657 80.660904,543.717285 
	C80.983231,550.466187 84.323318,552.784241 88.853958,553.801697 
	C95.529663,555.300964 101.873497,553.346375 104.012146,549.060913 
	C105.705414,545.667908 105.590897,542.427979 102.605614,539.486389 
	C101.963058,538.853271 102.466377,537.057190 102.911446,535.177979 
z"/>
<path fill="#0C0C0C" opacity="1.000000" stroke="none" 
	d="
M392.092499,121.421097 
	C394.905792,120.867096 397.712128,120.786606 400.877594,120.851974 
	C401.219330,171.364380 401.201874,221.730942 400.623779,272.557098 
	C397.492615,273.015656 394.922119,273.014618 392.351593,273.013611 
	C392.259033,271.359741 392.085938,269.705933 392.085571,268.052032 
	C392.075012,219.332886 392.081635,170.613739 392.092499,121.421097 
z"/>
<path fill="#111212" opacity="1.000000" stroke="none" 
	d="
M131.566010,87.192520 
	C131.100998,84.435669 131.094925,81.680717 131.097046,78.470161 
	C181.448395,78.034370 231.791534,78.054176 282.593872,78.651344 
	C283.041229,81.749435 283.029419,84.270164 283.017609,86.790901 
	C281.542206,86.932220 280.066833,87.196602 278.591400,87.197044 
	C229.735916,87.211769 180.880417,87.201225 131.566010,87.192520 
z"/>
<path fill="#020202" opacity="1.000000" stroke="none" 
	d="
M434.472870,534.002319 
	C443.455841,533.880615 452.438629,533.674561 461.421814,533.655701 
	C477.419006,533.622253 493.416443,533.702026 509.752625,534.362549 
	C510.190155,537.305542 510.288849,539.620239 510.387543,541.934998 
	C509.137848,542.210693 507.888214,542.727051 506.638428,542.727417 
	C457.698273,542.743408 408.758118,542.712341 359.404724,542.232605 
	C358.986969,541.509583 358.987335,541.241394 358.934753,540.532898 
	C358.882111,538.011169 358.887299,535.929749 358.892487,533.848328 
	C383.779724,533.802429 408.666931,533.756531 433.955383,534.256042 
	C434.356598,536.484253 434.356598,538.167114 434.356598,539.849915 
	C434.395355,539.848877 434.434113,539.847900 434.472870,539.846924 
	C434.472870,537.898682 434.472870,535.950500 434.472870,534.002319 
z"/>
<path fill="#020202" opacity="1.000000" stroke="none" 
	d="
M131.192245,536.020996 
	C131.157852,535.497314 131.123459,534.973572 131.099075,534.054810 
	C181.108078,533.667603 231.107056,533.675476 281.541351,534.255371 
	C282.319122,536.912354 282.661591,538.997253 283.005615,541.281372 
	C283.013519,541.746094 283.007263,542.011414 282.988342,542.276428 
	C281.682953,542.437927 280.377563,542.740234 279.072144,542.740601 
	C231.320511,542.752808 183.568878,542.737000 135.077850,542.406677 
	C133.289703,540.065857 132.240982,538.043457 131.192245,536.020996 
z"/>
<path fill="#040404" opacity="1.000000" stroke="none" 
	d="
M97.003754,120.940437 
	C99.046783,120.880791 101.089813,120.821144 103.641739,121.085602 
	C104.322128,121.704781 104.570602,121.903664 104.896080,122.006355 
	C104.964149,131.805603 105.086723,141.604828 105.090721,151.404083 
	C105.106842,190.958008 105.086395,230.511932 104.547272,270.529480 
	C101.405731,270.987549 98.796371,270.982056 96.107819,270.515320 
	C96.023430,244.131561 95.994698,218.209045 96.019997,192.286591 
	C96.042862,168.860809 96.124779,145.435074 96.382408,121.887985 
	C96.825714,121.542908 96.965576,121.267494 97.003754,120.940437 
z"/>
<path fill="#000000" opacity="1.000000" stroke="none" 
	d="
M81.079697,270.987762 
	C81.018288,254.202988 80.918129,237.418228 80.903732,220.633423 
	C80.875771,188.051239 80.895981,155.469025 80.897232,122.414810 
	C80.898224,121.942802 81.027847,122.102798 81.545769,122.040237 
	C84.637604,121.995056 87.211510,122.012421 89.861198,122.491074 
	C89.941879,150.864365 89.970566,178.776398 89.943970,206.688400 
	C89.923553,228.116150 89.833458,249.543839 89.341980,270.976379 
	C86.299644,270.983368 83.689674,270.985565 81.079697,270.987762 
z"/>
<path fill="#000000" opacity="1.000000" stroke="none" 
	d="
M283.414917,542.485352 
	C283.007263,542.011414 283.013519,541.746094 283.012817,540.833740 
	C283.011963,538.121155 283.005432,536.055176 282.998932,533.989258 
	C294.438751,533.874878 305.878357,533.704895 317.318451,533.660645 
	C330.600677,533.609192 343.883331,533.668091 357.629089,534.196777 
	C358.392426,536.800659 358.692505,538.886963 358.992554,540.973206 
	C358.987335,541.241394 358.986969,541.509583 359.003418,541.978577 
	C357.715851,542.370911 356.416382,542.728699 355.116730,542.729431 
	C331.358337,542.743164 307.599915,542.714172 283.414917,542.485352 
z"/>
<path fill="#000000" opacity="1.000000" stroke="none" 
	d="
M392.242249,273.469940 
	C394.922119,273.014618 397.492615,273.015656 400.495789,273.010803 
	C401.025330,291.077118 401.137146,309.149261 401.211334,327.221558 
	C401.238556,333.857208 401.176849,340.493195 401.110291,347.604370 
	C400.855774,348.083954 400.646667,348.088165 399.934052,348.079407 
	C399.277069,347.977448 399.123596,347.888519 398.725800,347.563599 
	C396.990997,347.486633 395.500519,347.645599 394.045105,347.957764 
	C394.080200,348.110931 394.207062,348.398499 394.207062,348.398499 
	C393.769775,348.256592 393.332520,348.114716 392.551880,348.016785 
	C392.183289,323.349274 392.158112,298.637787 392.242249,273.469940 
z"/>
<path fill="#000000" opacity="1.000000" stroke="none" 
	d="
M81.103828,346.983978 
	C81.040253,322.634399 80.976677,298.284851 81.433334,273.462891 
	C84.560280,273.003143 87.167000,273.015839 89.854721,273.489136 
	C89.874664,298.289673 89.813614,322.629608 89.322205,346.964325 
	C86.295837,346.967407 83.699829,346.975677 81.103828,346.983978 
z"/>
<path fill="#000000" opacity="1.000000" stroke="none" 
	d="
M104.879158,273.019836 
	C104.941002,297.367493 105.002838,321.715118 104.526001,346.513550 
	C101.395805,346.966431 98.804291,346.968536 96.126442,346.510925 
	C96.091385,321.709991 96.142662,297.368774 96.626762,273.021057 
	C99.666115,273.016296 102.272636,273.018066 104.879158,273.019836 
z"/>
<path fill="#030303" opacity="1.000000" stroke="none" 
	d="
M104.832222,425.024780 
	C104.910927,449.373322 104.989624,473.721863 104.510147,498.501099 
	C101.386986,498.944794 98.822014,498.957794 96.147568,498.515442 
	C96.102547,473.716248 96.166985,449.372437 96.660690,425.039429 
	C99.670715,425.041748 102.251472,425.033264 104.832222,425.024780 
z"/>
<path fill="#000000" opacity="1.000000" stroke="none" 
	d="
M81.147797,498.977844 
	C81.070442,474.629761 80.993088,450.281708 81.453018,425.484985 
	C84.570084,425.034698 87.149872,425.033051 89.830490,425.488403 
	C89.857933,450.286224 89.784546,474.627075 89.285202,498.945709 
	C86.288765,498.941620 83.718277,498.959747 81.147797,498.977844 
z"/>
<path fill="#000000" opacity="1.000000" stroke="none" 
	d="
M283.462158,86.946709 
	C283.029419,84.270164 283.041229,81.749435 283.039368,78.812119 
	C292.953064,78.274506 302.880127,78.084129 312.807770,78.048920 
	C327.228638,77.997780 341.649902,78.058594 356.518646,78.625504 
	C356.973053,81.734337 356.979797,84.289322 356.986572,86.844299 
	C340.087402,86.945457 323.188354,87.064339 306.289093,87.139618 
	C298.828491,87.172844 291.367493,87.117599 283.462158,86.946709 
z"/>
<path fill="#000000" opacity="1.000000" stroke="none" 
	d="
M104.851860,349.023926 
	C104.922729,373.370758 104.993591,397.717590 104.516167,422.502106 
	C101.390579,422.949463 98.813278,422.959137 96.139465,422.510956 
	C96.099701,397.711945 96.156448,373.370758 96.644211,349.031982 
	C99.667435,349.030884 102.259644,349.027405 104.851860,349.023926 
z"/>
<path fill="#000000" opacity="1.000000" stroke="none" 
	d="
M81.126648,422.980408 
	C81.055656,398.631775 80.984673,374.283142 81.443031,349.474426 
	C84.565819,349.019592 87.159248,349.024811 89.843323,349.489014 
	C89.865891,374.287964 89.797821,398.627991 89.301605,422.953613 
	C86.291191,422.952911 83.708916,422.966644 81.126648,422.980408 
z"/>
<path fill="#1F201F" opacity="1.000000" stroke="none" 
	d="
M104.990143,272.686890 
	C102.272636,273.018066 99.666115,273.016296 96.528122,272.684235 
	C96.060097,271.894806 96.123543,271.435669 96.186996,270.976562 
	C98.796371,270.982056 101.405731,270.987549 104.451187,270.988403 
	C104.958557,271.440460 105.029846,271.897186 104.990143,272.686890 
z"/>
<path fill="#111212" opacity="1.000000" stroke="none" 
	d="
M357.268372,86.984207 
	C356.979797,84.289322 356.973053,81.734337 356.968781,78.756638 
	C357.371094,78.265762 357.770935,78.197601 358.482971,78.171432 
	C358.754395,80.851845 358.713593,83.490250 358.735657,86.568558 
	C358.382385,87.046997 357.966278,87.085556 357.268372,86.984207 
z"/>
<path fill="#1D1D1D" opacity="1.000000" stroke="none" 
	d="
M89.773720,273.028534 
	C87.167000,273.015839 84.560280,273.003143 81.516769,273.001556 
	C81.016464,272.559723 80.952965,272.106781 80.984573,271.320801 
	C83.689674,270.985565 86.299644,270.983368 89.429459,271.315521 
	C89.890770,272.109406 89.832245,272.568970 89.773720,273.028534 
z"/>
<path fill="#1D1D1D" opacity="1.000000" stroke="none" 
	d="
M89.752686,349.030029 
	C87.159248,349.024811 84.565819,349.019592 81.537987,349.015320 
	C81.045654,348.562164 80.987709,348.108063 81.016800,347.318970 
	C83.699829,346.975677 86.295837,346.967407 89.402969,347.304565 
	C89.860291,348.110016 89.806488,348.570038 89.752686,349.030029 
z"/>
<path fill="#1F201F" opacity="1.000000" stroke="none" 
	d="
M96.235977,422.968781 
	C98.813278,422.959137 101.390579,422.949463 104.397820,422.955658 
	C104.890274,423.430389 104.952797,423.889252 104.923767,424.686432 
	C102.251472,425.033264 99.670715,425.041748 96.577156,424.699341 
	C96.121559,423.888550 96.178772,423.428650 96.235977,422.968781 
z"/>
<path fill="#1F201F" opacity="1.000000" stroke="none" 
	d="
M104.956665,348.687927 
	C102.259644,349.027405 99.667435,349.030884 96.550934,348.693054 
	C96.088699,347.891357 96.150742,347.431030 96.212784,346.970673 
	C98.804291,346.968536 101.395805,346.966431 104.419876,346.969971 
	C104.922119,347.434418 104.991798,347.893127 104.956665,348.687927 
z"/>
<path fill="#1D1D1D" opacity="1.000000" stroke="none" 
	d="
M81.049026,423.317383 
	C83.708916,422.966644 86.291191,422.952911 89.373039,423.295044 
	C89.824966,424.111053 89.777313,424.571228 89.729660,425.031403 
	C87.149872,425.033051 84.570084,425.034698 81.558472,425.028107 
	C81.074898,424.564697 81.023155,424.109497 81.049026,423.317383 
z"/>
<path fill="#111212" opacity="1.000000" stroke="none" 
	d="
M131.101379,536.435730 
	C132.240982,538.043457 133.289703,540.065857 134.619797,542.275879 
	C133.893265,542.568237 132.885391,542.673096 131.493469,542.765747 
	C131.076447,540.785950 131.043488,538.818176 131.101379,536.435730 
z"/>
<path fill="#1D1D1D" opacity="1.000000" stroke="none" 
	d="
M81.084160,499.247406 
	C83.718277,498.959747 86.288765,498.941620 89.343353,499.218140 
	C89.803085,499.696930 89.778717,499.881073 89.754341,500.065186 
	C89.754341,500.065186 89.331543,499.987061 88.712357,499.993408 
	C86.089172,500.070923 84.085167,500.142120 82.081161,500.213318 
	C81.920029,500.160278 81.758896,500.107208 81.343475,500.060364 
	C81.066299,499.883392 81.043411,499.700165 81.084160,499.247406 
z"/>
<path fill="#1F201F" opacity="1.000000" stroke="none" 
	d="
M96.257034,498.970825 
	C98.822014,498.957794 101.386986,498.944794 104.379669,498.951721 
	C104.857414,499.151825 104.907448,499.332001 104.924377,499.791321 
	C104.891258,500.070465 104.395294,500.011505 103.740715,500.012878 
	C101.083847,500.076782 99.081566,500.139374 97.079277,500.201935 
	C97.079277,500.201935 96.642487,500.035522 96.381393,499.774445 
	C96.165878,499.332520 96.211456,499.151672 96.257034,498.970825 
z"/>
<path fill="#39C789" opacity="1.000000" stroke="none" 
	d="
M510.410156,542.156006 
	C510.288849,539.620239 510.190155,537.305542 510.200409,534.573242 
	C510.309357,534.155640 510.468872,533.754150 510.663391,533.658569 
	C510.886200,536.222534 510.914459,538.882080 510.893005,542.044434 
	C510.843262,542.547180 510.432800,542.377014 510.410156,542.156006 
z"/>
<path fill="#39C789" opacity="1.000000" stroke="none" 
	d="
M434.486267,533.933167 
	C434.472870,535.950500 434.472870,537.898682 434.472870,539.846924 
	C434.434113,539.847900 434.395355,539.848877 434.356598,539.849915 
	C434.356598,538.167114 434.356598,536.484253 434.438171,534.402588 
	C434.519714,534.003662 434.499695,533.864014 434.486267,533.933167 
z"/>
<path fill="#111212" opacity="1.000000" stroke="none" 
	d="
M282.750061,533.870117 
	C283.005432,536.055176 283.011963,538.121155 283.011230,540.634644 
	C282.661591,538.997253 282.319122,536.912354 281.989014,534.406128 
	C282.167969,533.906860 282.334595,533.828979 282.750061,533.870117 
z"/>
<path fill="#5D5D5D" opacity="1.000000" stroke="none" 
	d="
M358.934753,540.532898 
	C358.692505,538.886963 358.392426,536.800659 358.096649,534.287842 
	C358.100952,533.861328 358.492218,533.581909 358.692352,533.715088 
	C358.887299,535.929749 358.882111,538.011169 358.934753,540.532898 
z"/>
<path fill="#37CB8B" opacity="1.000000" stroke="none" 
	d="
M379.853821,348.755585 
	C379.504608,349.128571 378.966644,349.374634 378.257812,349.425049 
	C378.612976,349.029144 379.138977,348.828918 379.853821,348.755585 
z"/>
<path fill="#37CB8B" opacity="1.000000" stroke="none" 
	d="
M414.802429,348.969757 
	C414.360779,349.213959 413.777466,349.274292 413.068726,349.093750 
	C413.515778,348.830536 414.088287,348.808228 414.802429,348.969757 
z"/>
<path fill="#1F201F" opacity="1.000000" stroke="none" 
	d="
M105.008476,121.753357 
	C104.570602,121.903664 104.322128,121.704781 104.071045,121.179459 
	C104.182602,120.921547 104.373749,120.893867 104.851707,120.906586 
	C105.132645,121.131432 105.126762,121.315895 105.008476,121.753357 
z"/>
<path fill="#F6FDF9" opacity="1.000000" stroke="none" 
	d="
M403.084076,377.154846 
	C403.084137,385.418091 403.084137,393.198303 403.084137,401.312561 
	C400.274597,401.312561 397.881409,401.312561 395.071533,401.312561 
	C395.071533,394.579498 395.071533,387.997437 395.071533,380.314728 
	C392.273499,381.778412 390.236176,382.844147 388.164276,383.927948 
	C385.539032,375.567932 391.663422,370.709229 402.761261,372.462219 
	C402.863647,373.797791 402.973816,375.234802 403.084076,377.154846 
z"/>
<path fill="#37CB8B" opacity="1.000000" stroke="none" 
	d="
M398.970093,347.799561 
	C399.123596,347.888519 399.277069,347.977448 399.651031,348.214691 
	C398.159912,348.505432 396.448273,348.647919 394.471863,348.594421 
	C394.207062,348.398499 394.080200,348.110931 394.445343,348.079895 
	C396.197021,347.965759 397.583557,347.882660 398.970093,347.799561 
z"/>
<path fill="#F0FBF6" opacity="1.000000" stroke="none" 
	d="
M548.459534,553.627930 
	C547.439758,552.050720 546.409241,550.527527 546.343567,548.963745 
	C546.127991,543.827637 546.262512,538.676819 546.262512,532.773682 
	C543.754761,534.021057 541.801575,534.992615 539.783691,535.996338 
	C537.695068,527.187195 543.511230,522.596741 554.964172,524.416138 
	C554.964172,528.995728 554.964172,533.736267 554.964172,538.476807 
	C554.964172,543.287170 554.964172,548.097595 554.964172,553.663391 
	C552.742188,553.663391 550.816406,553.663391 548.459534,553.627930 
z"/>
<path fill="#F9F9F9" opacity="1.000000" stroke="none" 
	d="
M96.147568,498.515442 
	C96.211456,499.151672 96.165878,499.332520 96.148384,499.792389 
	C94.334206,500.150421 92.491936,500.229431 90.202011,500.186798 
	C89.778717,499.881073 89.803085,499.696930 89.769302,499.240356 
	C89.784546,474.627075 89.857933,450.286224 89.830490,425.488403 
	C89.777313,424.571228 89.824966,424.111053 89.801186,423.309448 
	C89.797821,398.627991 89.865891,374.287964 89.843323,349.488983 
	C89.806488,348.570038 89.860291,348.110016 89.833328,347.309753 
	C89.813614,322.629608 89.874664,298.289673 89.854721,273.489136 
	C89.832245,272.568970 89.890770,272.109406 89.861824,271.310699 
	C89.833458,249.543839 89.923553,228.116150 89.943970,206.688400 
	C89.970566,178.776398 89.941879,150.864365 89.952759,122.225708 
	C89.970299,121.311928 89.972046,121.124794 89.973785,120.937660 
	C91.691452,120.871368 93.409126,120.805084 95.555115,121.116150 
	C96.049179,121.665443 96.114914,121.837379 96.180649,122.009315 
	C96.124779,145.435074 96.042862,168.860809 96.019997,192.286591 
	C95.994698,218.209045 96.023430,244.131561 96.107811,270.515289 
	C96.123543,271.435669 96.060097,271.894806 96.095291,272.690765 
	C96.142662,297.368774 96.091385,321.709991 96.126450,346.510925 
	C96.150742,347.431030 96.088699,347.891357 96.119926,348.690643 
	C96.156448,373.370758 96.099701,397.711945 96.139465,422.510956 
	C96.178772,423.428650 96.121559,423.888550 96.147888,424.688538 
	C96.166985,449.372437 96.102547,473.716248 96.147568,498.515442 
z"/>
<path fill="#F3FCF8" opacity="1.000000" stroke="none" 
	d="
M98.411713,68.369431 
	C104.967514,72.220512 105.537086,75.611420 100.788460,82.064369 
	C104.759659,84.806831 106.424515,88.464043 104.025566,93.080025 
	C101.817017,97.329651 95.529694,99.221375 88.837128,97.827682 
	C83.838333,96.786697 81.458336,94.177414 80.824280,87.753258 
	C84.024178,88.621758 86.758453,89.470627 89.545067,90.080223 
	C91.221283,90.446915 93.013145,90.688393 94.680405,90.458778 
	C95.214508,90.385216 96.048073,87.908455 95.836136,87.750549 
	C94.612373,86.838745 93.002823,86.454735 91.745186,85.575500 
	C90.516525,84.716537 89.031204,83.621719 88.681564,82.349327 
	C88.491684,81.658356 90.326439,80.241539 91.438667,79.405960 
	C92.772705,78.403732 94.324043,77.692398 95.702377,76.740829 
	C95.752144,76.706467 94.960999,74.876831 94.568611,74.879539 
	C92.898705,74.891045 91.206749,75.171661 89.568710,75.551720 
	C86.906479,76.169426 84.280167,76.941895 81.228867,77.758751 
	C82.261002,68.843170 88.312469,65.838188 98.411713,68.369431 
z"/>
<path fill="#1D1D1D" opacity="1.000000" stroke="none" 
	d="
M89.611893,120.799332 
	C89.972046,121.124794 89.970299,121.311928 89.876984,121.764427 
	C87.211510,122.012421 84.637604,121.995056 81.635361,121.989517 
	C83.888016,121.554565 86.569008,121.107788 89.611893,120.799332 
z"/>
<path fill="#1F201F" opacity="1.000000" stroke="none" 
	d="
M96.382408,121.887985 
	C96.114914,121.837379 96.049179,121.665443 95.975510,121.216949 
	C96.140236,120.902626 96.312889,120.864861 96.744644,120.883759 
	C96.965576,121.267494 96.825714,121.542908 96.382408,121.887985 
z"/>
<path fill="#F1FBF7" opacity="1.000000" stroke="none" 
	d="
M406.085205,81.843391 
	C403.250824,84.653595 400.615845,87.148163 396.969055,90.600624 
	C401.295502,90.819626 404.306519,90.972046 407.693848,91.143509 
	C407.693848,93.217010 407.693848,95.106796 407.693848,97.327637 
	C400.276733,97.327637 392.880188,97.327637 385.506531,97.327637 
	C384.281189,93.705696 385.176575,91.159111 388.130981,88.927444 
	C391.438599,86.428986 394.632202,83.687981 397.413940,80.632385 
	C398.452179,79.491951 398.188049,77.165916 398.517761,75.380486 
	C396.682434,75.732941 394.821259,75.987259 393.018036,76.461716 
	C390.539490,77.113853 388.104828,77.932655 385.425171,78.748955 
	C384.400421,73.375854 386.447083,70.651703 389.952515,68.812691 
	C394.832520,66.252556 402.041412,67.066536 405.373505,70.572128 
	C408.559570,73.924011 408.648407,77.653580 406.085205,81.843391 
z"/>
<path fill="#F3FCF8" opacity="1.000000" stroke="none" 
	d="
M102.676651,535.487427 
	C102.466377,537.057190 101.963058,538.853271 102.605614,539.486389 
	C105.590897,542.427979 105.705414,545.667908 104.012146,549.060913 
	C101.873497,553.346375 95.529663,555.300964 88.853958,553.801697 
	C84.323318,552.784241 80.983231,550.466187 80.660904,543.717285 
	C84.016525,544.623657 86.750984,545.467163 89.536789,546.075500 
	C91.213760,546.441650 93.004364,546.689697 94.672173,546.463074 
	C95.207733,546.390198 96.047623,543.916992 95.837196,543.759521 
	C94.615997,542.845764 93.010986,542.455505 91.753723,541.576416 
	C90.524284,540.716858 89.034561,539.629150 88.680931,538.357483 
	C88.489037,537.667358 90.318726,536.242188 91.430618,535.406982 
	C92.764977,534.404724 94.320526,533.698608 95.700821,532.748779 
	C95.752342,532.713318 94.966217,530.881287 94.575668,530.883301 
	C92.905472,530.892090 91.211830,531.165894 89.574074,531.546631 
	C86.910835,532.165771 84.284630,532.944275 81.147163,533.788940 
	C81.366096,528.108887 83.773018,525.413269 87.755508,524.194031 
	C92.768417,522.659302 97.753639,522.792725 101.829887,526.533325 
	C104.428291,528.917786 104.714790,532.023743 102.676651,535.487427 
z"/>
<path fill="#39C789" opacity="1.000000" stroke="none" 
	d="
M82.352493,500.453613 
	C84.085167,500.142120 86.089172,500.070923 88.515732,500.080292 
	C86.833458,500.338562 84.728645,500.516235 82.352493,500.453613 
z"/>
<path fill="#39C789" opacity="1.000000" stroke="none" 
	d="
M97.348160,500.444275 
	C99.081566,500.139374 101.083847,500.076782 103.506676,500.100006 
	C101.823822,500.352722 99.720436,500.519684 97.348160,500.444275 
z"/>
<path fill="#0C0C0C" opacity="1.000000" stroke="none" 
	d="
M398.725800,347.563599 
	C397.583557,347.882660 396.197021,347.965759 394.410248,347.926697 
	C395.500519,347.645599 396.990997,347.486633 398.725800,347.563599 
z"/>
</svg>