<?xml version="1.0" encoding="UTF-8"?>
<svg version="1.1" xmlns="http://www.w3.org/2000/svg" width="760" height="760">
<path d="M0 0 C250.8 0 501.6 0 760 0 C760 250.8 760 501.6 760 760 C509.2 760 258.4 760 0 760 C0 509.2 0 258.4 0 0 Z " fill="#FEFEFE" transform="translate(0,0)"/>
<path d="M0 0 C1.42179714 -0.02154238 2.84346298 -0.05560233 4.26464844 -0.10253906 C18.47717089 -0.56660121 18.47717089 -0.56660121 24.40380859 4.61962891 C30.41621989 11.82762297 28.89306641 13.58185832 28.89306641 24.4050293 C121.29306641 24.4050293 213.69306641 24.4050293 308.89306641 24.4050293 C308.89306641 21.1050293 308.89306641 17.8050293 308.89306641 14.4050293 C310.89937637 8.72048441 313.35196086 5.18491991 318.23095703 1.65307617 C323.30745968 -0.72688362 328.80322256 -0.4004986 334.30175781 -0.26733398 C336.38975405 -0.22004572 338.47263694 -0.22624384 340.56103516 -0.23950195 C347.96066063 -0.20792138 353.6389568 0.24585456 359.89306641 4.4050293 C366.09149729 10.76239431 365.2027761 18.12576344 365.2980957 26.51196289 C365.31963808 27.93376003 365.35369803 29.35542587 365.40063477 30.77661133 C365.87220876 45.21919411 365.87220876 45.21919411 360.50805664 51.01733398 C358.50033247 52.74248957 356.68914659 53.96881059 354.20556641 54.9050293 C353.45919922 55.2040918 352.71283203 55.5031543 351.94384766 55.8112793 C349.89306641 56.4050293 349.89306641 56.4050293 346.89306641 56.4050293 C346.89306641 111.5150293 346.89306641 166.6250293 346.89306641 223.4050293 C349.86306641 224.0650293 352.83306641 224.7250293 355.89306641 225.4050293 C360.03140488 228.24055751 362.68466841 230.91901074 364.89306641 235.4050293 C365.43208965 239.78919362 365.36611907 244.17494958 365.33911133 248.58740234 C365.33063095 250.70144022 365.35933654 252.81274433 365.39111328 254.92651367 C365.43016519 262.40012114 365.1360001 268.09502534 360.89306641 274.4050293 C354.49818918 280.4879613 347.63046701 279.65549524 339.32446289 279.70019531 C337.8338064 279.71171056 336.343191 279.73215559 334.8527832 279.76171875 C332.69275045 279.8045509 330.53394071 279.82058457 328.37353516 279.83081055 C327.08342529 279.84539307 325.79331543 279.85997559 324.46411133 279.875 C319.22904571 279.1860343 316.21108266 276.79626867 312.64306641 273.0300293 C308.0847164 266.19250429 308.49382068 258.95291521 308.45556641 251.0300293 C308.42269531 249.83635742 308.38982422 248.64268555 308.35595703 247.4128418 C308.31138386 240.08663281 308.96196629 235.00884179 313.89306641 229.4050293 C318.23122569 225.28377798 321.88796011 223.4050293 327.89306641 223.4050293 C327.89306641 168.2950293 327.89306641 113.1850293 327.89306641 56.4050293 C325.58306641 56.0750293 323.27306641 55.7450293 320.89306641 55.4050293 C315.58817851 52.49254182 312.15416405 49.1794441 309.64306641 43.6550293 C308.89306641 40.4050293 308.89306641 40.4050293 308.89306641 31.4050293 C216.49306641 31.4050293 124.09306641 31.4050293 28.89306641 31.4050293 C28.89306641 35.3650293 28.89306641 39.3250293 28.89306641 43.4050293 C27.19476516 48.59428311 24.46324115 51.442879 19.89306641 54.4050293 C15.43806641 54.9000293 15.43806641 54.9000293 10.89306641 55.4050293 C10.89306641 147.8050293 10.89306641 240.2050293 10.89306641 335.4050293 C13.86306641 336.0650293 16.83306641 336.7250293 19.89306641 337.4050293 C22.23291016 338.7722168 22.23291016 338.7722168 23.83056641 340.2800293 C24.37583984 340.77245117 24.92111328 341.26487305 25.48291016 341.7722168 C30.70378597 347.81744142 28.89306641 351.42863991 28.89306641 360.4050293 C84.66306641 360.4050293 140.43306641 360.4050293 197.89306641 360.4050293 C197.89306641 356.1150293 197.89306641 351.8250293 197.89306641 347.4050293 C200.72884354 341.41838867 205.06467331 338.31922585 210.89306641 335.4050293 C214.52306641 335.4050293 218.15306641 335.4050293 221.89306641 335.4050293 C221.89306641 279.9650293 221.89306641 224.5250293 221.89306641 167.4050293 C217.60306641 167.4050293 213.31306641 167.4050293 208.89306641 167.4050293 C203.54169457 164.87016895 199.96714037 161.15791605 197.8046875 155.61547852 C196.29443551 150.29683531 196.52420697 145.02583538 196.51806641 139.5300293 C196.49357422 138.38405273 196.46908203 137.23807617 196.44384766 136.05737305 C196.4161796 128.04286008 197.25446696 122.81334401 202.3737793 116.61108398 C208.18213207 111.12644386 215.28156477 111.55753985 222.78393555 111.73266602 C224.955281 111.78002307 227.12172285 111.77374781 229.29345703 111.76049805 C238.80388378 111.79470083 243.81955963 112.54534051 250.79541016 119.1550293 C254.26194528 124.48772294 253.59704137 131.09022773 253.48999023 137.22045898 C253.45563803 139.40048405 253.46936542 141.57645385 253.48876953 143.7565918 C253.47506794 156.67117525 253.47506794 156.67117525 248.89306641 162.4050293 C242.63329555 168.50006935 237.64677298 168.4050293 228.89306641 168.4050293 C228.89306641 223.5150293 228.89306641 278.6250293 228.89306641 335.4050293 C231.86306641 335.4050293 234.83306641 335.4050293 237.89306641 335.4050293 C244.25624592 336.98652128 248.20041968 340.09684963 251.89306641 345.4050293 C254.13409791 349.88709231 252.89306641 355.3939305 252.89306641 360.4050293 C271.37306641 360.4050293 289.85306641 360.4050293 308.89306641 360.4050293 C308.89306641 362.7150293 308.89306641 365.0250293 308.89306641 367.4050293 C290.41306641 367.4050293 271.93306641 367.4050293 252.89306641 367.4050293 C252.89306641 371.3650293 252.89306641 375.3250293 252.89306641 379.4050293 C250.35425141 385.11736304 248.32994768 387.85881776 242.53759766 390.59350586 C237.31934059 392.19482478 231.89779275 392.07074382 226.484375 392.03637695 C224.39583841 392.03003771 222.31293944 392.07712178 220.22509766 392.12768555 C213.17643357 392.1950566 207.81453149 391.89799759 202.34228516 387.11669922 C196.94375797 380.74050749 196.89306641 375.86039262 196.89306641 367.4050293 C141.45306641 367.4050293 86.01306641 367.4050293 28.89306641 367.4050293 C28.89306641 371.3650293 28.89306641 375.3250293 28.89306641 379.4050293 C27.0667815 385.56874085 23.33604779 388.31576959 17.89306641 391.4050293 C13.60306641 391.4050293 9.31306641 391.4050293 4.89306641 391.4050293 C4.89306641 446.8450293 4.89306641 502.2850293 4.89306641 559.4050293 C8.52306641 559.4050293 12.15306641 559.4050293 15.89306641 559.4050293 C21.75850601 562.29644319 25.9045255 565.42794748 28.89306641 571.4050293 C28.89306641 575.6950293 28.89306641 579.9850293 28.89306641 584.4050293 C121.29306641 584.4050293 213.69306641 584.4050293 308.89306641 584.4050293 C308.89306641 586.7150293 308.89306641 589.0250293 308.89306641 591.4050293 C216.49306641 591.4050293 124.09306641 591.4050293 28.89306641 591.4050293 C28.89306641 595.3650293 28.89306641 599.3250293 28.89306641 603.4050293 C26.6594534 608.90315361 24.05935402 611.54708296 18.89306641 614.4050293 C13.84725453 616.08696659 8.57379371 615.70893725 3.28881836 615.75512695 C1.90876325 615.77162357 0.52879134 615.79883084 -0.85083008 615.8371582 C-15.19203758 616.23280145 -15.19203758 616.23280145 -20.6003418 611.9753418 C-26.96321903 605.34334919 -26.73521334 597.67244796 -26.62841797 588.88647461 C-26.60690185 586.77691665 -26.62832259 584.67073597 -26.65380859 582.5612793 C-26.65116626 581.20450104 -26.64604322 579.84772486 -26.63818359 578.4909668 C-26.63367188 577.2745752 -26.62916016 576.05818359 -26.62451172 574.80493164 C-25.84163118 569.66229275 -23.41328351 566.58074422 -19.60693359 563.1550293 C-13.027288 558.54927738 -11.41789977 559.4050293 -2.10693359 559.4050293 C-2.10693359 503.9650293 -2.10693359 448.5250293 -2.10693359 391.4050293 C-5.73693359 391.4050293 -9.36693359 391.4050293 -13.10693359 391.4050293 C-18.35555323 389.82211226 -21.13985241 388.02048892 -24.10693359 383.4050293 C-26.95502708 377.56714294 -26.47899595 371.45681728 -26.47753906 365.11279297 C-26.48191425 362.9769729 -26.51827832 360.84321904 -26.55615234 358.70776367 C-26.56202136 357.33732796 -26.56599019 355.96688253 -26.56787109 354.59643555 C-26.57608887 353.36094971 -26.58430664 352.12546387 -26.59277344 350.85253906 C-25.86488712 345.68747238 -23.43828441 342.63396851 -19.66943359 339.1550293 C-15.63975217 336.40305174 -13.01860908 335.4050293 -8.10693359 335.4050293 C-8.10693359 243.0050293 -8.10693359 150.6050293 -8.10693359 55.4050293 C-10.41693359 55.4050293 -12.72693359 55.4050293 -15.10693359 55.4050293 C-20.05818842 52.92940188 -23.90874559 49.52952306 -26.10693359 44.4050293 C-26.70571168 39.92914686 -26.74338074 35.52024806 -26.64892578 31.0168457 C-26.60702471 28.90961148 -26.60786981 26.80557958 -26.61474609 24.69799805 C-26.50461746 10.44600798 -26.50461746 10.44600798 -21.64208984 4.6628418 C-14.91741022 -0.50998868 -8.17913241 0.09296603 0 0 Z " fill="#66CA8F" transform="translate(98.10693359375,74.594970703125)"/>
<path d="M0 0 C1.43532203 -0.01147094 2.87060306 -0.03184496 4.30566406 -0.06152344 C20.65250611 -0.39956465 20.65250611 -0.39956465 26.04394531 4.29516602 C30.57951406 8.70177468 31.3692927 13.16668415 31.67285156 19.35766602 C31.67580517 21.33067438 31.67810272 23.30395211 31.64086914 25.27661133 C31.60649879 27.2920301 31.62025879 29.30306175 31.63964844 31.31860352 C31.58405326 38.74611953 31.16837642 44.04003249 27.04394531 50.29516602 C22.77452633 54.45511272 19.00657184 56.29516602 13.04394531 56.29516602 C13.04394531 111.40516602 13.04394531 166.51516602 13.04394531 223.29516602 C16.01394531 223.95516602 18.98394531 224.61516602 22.04394531 225.29516602 C26.67747534 228.38418603 28.9119303 231.2001733 31.04394531 236.29516602 C31.56610427 240.57024389 31.51743271 244.82088845 31.48999023 249.12573242 C31.48149404 251.15850654 31.5102575 253.18845097 31.54199219 255.22094727 C31.5382931 262.68570912 31.26681331 268.03708907 27.04394531 274.29516602 C19.9977562 279.90335735 16.79195124 279.29516602 7.04394531 279.29516602 C7.04394531 371.69516602 7.04394531 464.09516602 7.04394531 559.29516602 C10.67394531 559.29516602 14.30394531 559.29516602 18.04394531 559.29516602 C23.25672558 561.86484643 26.86567927 564.337071 30.04394531 569.29516602 C31.84052328 574.63146171 31.30693357 580.52518737 31.33911133 586.0847168 C31.35063842 587.47153928 31.37110233 588.85831713 31.40063477 590.24487305 C31.44347725 592.2587092 31.45690322 594.27310251 31.46972656 596.28735352 C31.49160034 598.0872876 31.49160034 598.0872876 31.51391602 599.92358398 C30.57345341 606.67048716 26.17596013 610.39037213 21.04394531 614.29516602 C16.77265403 616.43081166 11.15799949 615.52220279 6.46020508 615.53540039 C4.38158275 615.54504933 2.30397374 615.57604428 0.22558594 615.60766602 C-1.10969468 615.61420222 -2.44498235 615.61945026 -3.78027344 615.62329102 C-4.98772217 615.63263672 -6.1951709 615.64198242 -7.43920898 615.65161133 C-12.06110746 615.18316483 -16.06469187 613.91818903 -19.66308594 610.83032227 C-23.83410753 605.27387301 -24.95605469 603.46231979 -24.95605469 596.29516602 C-80.39605469 596.29516602 -135.83605469 596.29516602 -192.95605469 596.29516602 C-192.95605469 593.98516602 -192.95605469 591.67516602 -192.95605469 589.29516602 C-137.51605469 589.29516602 -82.07605469 589.29516602 -24.95605469 589.29516602 C-24.95605469 587.97516602 -24.95605469 586.65516602 -24.95605469 585.29516602 C-80.06605469 585.29516602 -135.17605469 585.29516602 -191.95605469 585.29516602 C-191.95605469 582.98516602 -191.95605469 580.67516602 -191.95605469 578.29516602 C-136.84605469 578.29516602 -81.73605469 578.29516602 -24.95605469 578.29516602 C-24.62605469 575.65516602 -24.29605469 573.01516602 -23.95605469 570.29516602 C-20.99060968 564.58393859 -17.06148359 561.33030898 -10.95605469 559.29516602 C-7.32605469 559.29516602 -3.69605469 559.29516602 0.04394531 559.29516602 C0.04394531 466.89516602 0.04394531 374.49516602 0.04394531 279.29516602 C-4.24605469 279.29516602 -8.53605469 279.29516602 -12.95605469 279.29516602 C-18.59991388 276.62175903 -22.60587098 272.09383836 -24.95605469 266.29516602 C-25.41614425 261.53613873 -25.3263809 256.76160911 -25.33105469 251.98266602 C-25.35554687 250.67620117 -25.38003906 249.36973633 -25.40527344 248.02368164 C-25.43047401 239.76209345 -25.02431381 234.84204386 -19.42871094 228.58813477 C-14.87338575 225.01706267 -11.76735915 223.29516602 -5.95605469 223.29516602 C-5.95605469 167.85516602 -5.95605469 112.41516602 -5.95605469 55.29516602 C-8.26605469 55.29516602 -10.57605469 55.29516602 -12.95605469 55.29516602 C-18.53966098 52.33913916 -22.56713619 48.16949298 -24.95605469 42.29516602 C-25.44163984 37.55771218 -25.37253524 32.80490384 -25.39355469 28.04516602 C-25.42642578 26.74708008 -25.45929688 25.44899414 -25.49316406 24.11157227 C-25.53547171 16.56542595 -25.18009298 11.02049131 -19.95605469 5.29516602 C-13.62071288 -0.45084167 -8.16958027 0.04542776 0 0 Z " fill="#A3A9A6" transform="translate(655.9560546875,74.704833984375)"/>
<path d="M0 0 C1.53245693 -0.02149966 3.06479375 -0.05550748 4.59667969 -0.10253906 C19.89101576 -0.56745776 19.89101576 -0.56745776 25.73974609 4.52197266 C30.81749826 11.11757764 30.68666069 17.20981793 30.63549805 25.2355957 C30.62700186 27.26836982 30.65576531 29.29831425 30.6875 31.33081055 C30.68315399 40.10104964 30.12398678 46.1332499 24.00195312 52.7800293 C21.18945312 54.4050293 21.18945312 54.4050293 12.18945312 56.4050293 C12.18945312 111.5150293 12.18945312 166.6250293 12.18945312 223.4050293 C15.15945313 224.0650293 18.12945313 224.7250293 21.18945312 225.4050293 C26.03540165 228.54592186 28.75884234 231.83405583 30.18945312 237.4050293 C30.64999257 242.22243583 30.65356627 247.00619561 30.62695312 251.8425293 C30.64693359 253.12708008 30.66691406 254.41163086 30.6875 255.73510742 C30.68371622 263.07942368 30.30722254 268.23580797 26.18945312 274.4050293 C19.22354397 279.94932434 12.65931673 279.71399257 4.15795898 279.81005859 C2.7293267 279.83157463 1.30082396 279.86560281 -0.12719727 279.91259766 C-14.40844903 280.37755325 -14.40844903 280.37755325 -20.37231445 275.12329102 C-25.74209084 268.70799883 -25.81054688 263.8914529 -25.81054688 255.4050293 C-62.44054687 255.4050293 -99.07054687 255.4050293 -136.81054688 255.4050293 C-136.81054688 253.0950293 -136.81054688 250.7850293 -136.81054688 248.4050293 C-100.18054688 248.4050293 -63.55054688 248.4050293 -25.81054688 248.4050293 C-25.81054688 244.7750293 -25.81054688 241.1450293 -25.81054688 237.4050293 C-22.66794363 231.03003415 -18.68337596 225.9823402 -11.81054688 223.4050293 C-10.16054688 223.4050293 -8.51054688 223.4050293 -6.81054688 223.4050293 C-6.81054688 167.9650293 -6.81054688 112.5250293 -6.81054688 55.4050293 C-9.12054687 55.4050293 -11.43054688 55.4050293 -13.81054688 55.4050293 C-19.39415316 52.44900244 -23.42162838 48.27935626 -25.81054688 42.4050293 C-26.29613202 37.66757546 -26.22702742 32.91476713 -26.24804688 28.1550293 C-26.28091797 26.85694336 -26.31378906 25.55885742 -26.34765625 24.22143555 C-26.3899639 16.67528923 -26.03458517 11.13035459 -20.81054688 5.4050293 C-14.28915136 -0.50972478 -8.35068657 0.08794872 0 0 Z " fill="#6DC08F" transform="translate(544.810546875,186.594970703125)"/>
<path d="M0 0 C2.31 0 4.62 0 7 0 C7 92.07 7 184.14 7 279 C10.63 279 14.26 279 18 279 C23.21278027 281.56968042 26.82173396 284.04190498 30 289 C31.79657797 294.33629569 31.26298825 300.23002135 31.29516602 305.78955078 C31.3066931 307.17637326 31.32715702 308.56315112 31.35668945 309.94970703 C31.39953194 311.96354319 31.41295791 313.9779365 31.42578125 315.9921875 C31.44765503 317.79212158 31.44765503 317.79212158 31.4699707 319.62841797 C30.5295081 326.37532114 26.13201482 330.09520611 21 334 C16.72870872 336.13564564 11.11405418 335.22703678 6.41625977 335.24023438 C4.33763743 335.24988331 2.26002842 335.28087827 0.18164062 335.3125 C-1.15363999 335.31903621 -2.48892766 335.32428425 -3.82421875 335.328125 C-5.03166748 335.3374707 -6.23911621 335.34681641 -7.4831543 335.35644531 C-12.10505277 334.88799882 -16.10863718 333.62302301 -19.70703125 330.53515625 C-23.87805284 324.97870699 -25 323.16715378 -25 316 C-80.44 316 -135.88 316 -193 316 C-193 313.69 -193 311.38 -193 309 C-137.56 309 -82.12 309 -25 309 C-25 307.68 -25 306.36 -25 305 C-80.11 305 -135.22 305 -192 305 C-192 302.69 -192 300.38 -192 298 C-136.89 298 -81.78 298 -25 298 C-24.67 295.36 -24.34 292.72 -24 290 C-21.03455499 284.28877258 -17.1054289 281.03514297 -11 279 C-7.37 279 -3.74 279 0 279 C0 186.93 0 94.86 0 0 Z " fill="#68BC8A" transform="translate(656,355)"/>
<path d="M0 0 C8.91 0 17.82 0 27 0 C26.01 0.33 25.02 0.66 24 1 C24 56.11 24 111.22 24 168 C26.97 168.66 29.94 169.32 33 170 C37.13833847 172.83552821 39.79160201 175.51398144 42 180 C42.53902325 184.38416432 42.47305266 188.76992028 42.44604492 193.18237305 C42.43756454 195.29641093 42.46627013 197.40771503 42.49804688 199.52148438 C42.53709878 206.99509184 42.2429337 212.68999604 38 219 C31.60512277 225.082932 24.7374006 224.25046594 16.43139648 224.29516602 C14.94073999 224.30668126 13.45012459 224.3271263 11.9597168 224.35668945 C9.79968405 224.39952161 7.6408743 224.41555528 5.48046875 224.42578125 C4.19035889 224.44036377 2.90024902 224.45494629 1.57104492 224.4699707 C-3.6640207 223.781005 -6.68198375 221.39123938 -10.25 217.625 C-14.80835 210.787475 -14.39924572 203.54788591 -14.4375 195.625 C-14.47037109 194.43132812 -14.50324219 193.23765625 -14.53710938 192.0078125 C-14.58168255 184.68160351 -13.93110011 179.6038125 -9 174 C-4.66184072 169.87874868 -1.0051063 168 5 168 C5 112.89 5 57.78 5 1 C3.35 1 1.7 1 0 1 C0 0.67 0 0.34 0 0 Z " fill="#929694" transform="translate(421,130)"/>
<path d="M0 0 C2.31 0 4.62 0 7 0 C7 55.11 7 110.22 7 167 C10.63 167 14.26 167 18 167 C23.8654396 169.89141389 28.01145909 173.02291818 31 179 C31 183.29 31 187.58 31 192 C123.4 192 215.8 192 311 192 C311 194.31 311 196.62 311 199 C218.6 199 126.2 199 31 199 C31 202.96 31 206.92 31 211 C28.766387 216.49812431 26.16628762 219.14205366 21 222 C15.95418813 223.68193729 10.6807273 223.30390796 5.39575195 223.35009766 C4.01569684 223.36659427 2.63572494 223.39380154 1.25610352 223.43212891 C-13.08510399 223.82777215 -13.08510399 223.82777215 -18.4934082 219.5703125 C-24.85628543 212.9383199 -24.62827975 205.26741867 -24.52148438 196.48144531 C-24.49996825 194.37188736 -24.521389 192.26570667 -24.546875 190.15625 C-24.54423267 188.79947174 -24.53910963 187.44269557 -24.53125 186.0859375 C-24.52673828 184.8695459 -24.52222656 183.6531543 -24.51757812 182.39990234 C-23.73469758 177.25726345 -21.30634992 174.17571493 -17.5 170.75 C-10.92035441 166.14424808 -9.31096618 167 0 167 C0 111.89 0 56.78 0 0 Z " fill="#67C08B" transform="translate(96,467)"/>
<path d="M0 0 C3.63 0 7.26 0 11 0 C11 92.4 11 184.8 11 280 C13.97 280.66 16.94 281.32 20 282 C22.33984375 283.3671875 22.33984375 283.3671875 23.9375 284.875 C24.48277344 285.36742187 25.02804688 285.85984375 25.58984375 286.3671875 C28.25983601 289.45875749 29.24265626 292.29530135 29.44921875 296.34375 C29.49336914 297.17245605 29.53751953 298.00116211 29.58300781 298.85498047 C29.61749023 299.72783691 29.65197266 300.60069336 29.6875 301.5 C29.72584961 302.39477051 29.76419922 303.28954102 29.80371094 304.21142578 C30.52131013 323.87435402 30.52131013 323.87435402 26 330 C20.49355577 335.26827333 15.97720748 336.95743595 8.4375 337 C7.56851074 337.02143066 6.69952148 337.04286133 5.80419922 337.06494141 C-14.6154255 337.34610018 -14.6154255 337.34610018 -20.75 332.8125 C-26.5385267 325.57684162 -26.50079567 318.44819986 -26.44604492 309.55688477 C-26.43750458 307.43863611 -26.46639854 305.32306336 -26.49804688 303.20507812 C-26.49965865 301.8437508 -26.49908181 300.48241875 -26.49609375 299.12109375 C-26.49794678 297.8983374 -26.4997998 296.67558105 -26.50170898 295.41577148 C-25.74738467 290.28012601 -23.31449964 287.21338428 -19.5625 283.75 C-12.64610389 279.02660754 -9.12044358 280 0 280 C0 187.6 0 95.2 0 0 Z " fill="#A5A7A5" transform="translate(98,130)"/>
<path d="M0 0 C2.22370135 -0.01713696 4.44588559 -0.06101048 6.66918945 -0.10522461 C8.09561085 -0.11535885 9.52204486 -0.12387266 10.94848633 -0.13061523 C12.23972412 -0.14519775 13.53096191 -0.15978027 14.86132812 -0.17480469 C20.40563926 0.52934514 24.04854444 2.70229956 27.93676758 6.79516602 C31.92042202 12.92386515 30.82237108 20.49416126 30.87426758 27.54516602 C30.90327148 28.84325195 30.93227539 30.14133789 30.9621582 31.47875977 C31.01129016 38.89390589 30.74549086 44.07225386 26.56176758 50.29516602 C19.59585842 55.83946106 13.03163118 55.60412929 4.53027344 55.70019531 C3.10164115 55.72171135 1.67313842 55.75573952 0.24511719 55.80273438 C-14.03613458 56.26768997 -14.03613458 56.26768997 -20 51.01342773 C-25.36977639 44.59813555 -25.43823242 39.78158962 -25.43823242 31.29516602 C-62.06823242 31.29516602 -98.69823242 31.29516602 -136.43823242 31.29516602 C-136.43823242 28.98516602 -136.43823242 26.67516602 -136.43823242 24.29516602 C-99.80823242 24.29516602 -63.17823242 24.29516602 -25.43823242 24.29516602 C-25.43823242 20.66516602 -25.43823242 17.03516602 -25.43823242 13.29516602 C-19.47765424 1.20370742 -12.57700122 0.0674924 0 0 Z " fill="#66CA8F" transform="translate(544.438232421875,410.704833984375)"/>
<path d="M0 0 C1.98630296 -0.02460266 3.97212588 -0.08119844 5.95776367 -0.13818359 C15.37184855 -0.2242443 20.42840427 1.18679829 27.19799805 7.60009766 C30.75455906 13.61889321 30.82299805 19.43187877 30.82299805 26.35009766 C85.93299805 26.35009766 141.04299805 26.35009766 197.82299805 26.35009766 C197.82299805 27.67009766 197.82299805 28.99009766 197.82299805 30.35009766 C142.38299805 30.35009766 86.94299805 30.35009766 29.82299805 30.35009766 C29.82299805 34.64009766 29.82299805 38.93009766 29.82299805 43.35009766 C27.88046447 49.17769838 25.72735167 52.18569201 20.48950195 55.3203125 C15.31909824 57.31708625 9.82746163 57.04637132 4.359375 56.94702148 C2.26060311 56.91259938 0.16603023 56.92642338 -1.93286133 56.94580078 C-9.00042986 56.93818215 -14.49623562 56.84840462 -20.17700195 52.35009766 C-26.1951664 45.85681496 -25.42716758 39.14330052 -25.47216797 30.78149414 C-25.48368321 29.29083765 -25.50412825 27.80022225 -25.53369141 26.30981445 C-25.57652356 24.1497817 -25.59255723 21.99097196 -25.6027832 19.83056641 C-25.61736572 18.54045654 -25.63194824 17.25034668 -25.64697266 15.92114258 C-24.95040795 10.62833636 -22.25413556 6.83826552 -18.11450195 3.53759766 C-12.51287534 -0.63382642 -6.74537647 0.06107401 0 0 Z " fill="#66CA8F" transform="translate(433.177001953125,633.64990234375)"/>
<path d="M0 0 C2.17134545 0.04735706 4.3377873 0.04108179 6.50952148 0.02783203 C16.01994823 0.06203482 21.03562408 0.81267449 28.01147461 7.42236328 C31.47800974 12.75505692 30.81310582 19.35756172 30.70605469 25.48779297 C30.67170248 27.66781804 30.68542987 29.84378783 30.70483398 32.02392578 C30.69113239 44.93850924 30.69113239 44.93850924 26.10913086 50.67236328 C20.61578413 56.02114825 15.03473654 56.94165987 7.54663086 56.85986328 C4.73300765 56.82204401 1.92171794 56.75690732 -0.89086914 56.67236328 C-2.1193457 56.64271484 -3.34782227 56.61306641 -4.61352539 56.58251953 C-12.38075075 56.21689813 -16.67166565 55.07041141 -22.14086914 49.29736328 C-26.6218656 42.5758686 -26.25716934 35.5836869 -26.26586914 27.79736328 C-26.29036133 26.65138672 -26.31485352 25.50541016 -26.34008789 24.32470703 C-26.36775594 16.31019407 -25.52946859 11.080678 -20.41015625 4.87841797 C-14.60180348 -0.60622215 -7.50237078 -0.17512616 0 0 Z " fill="#67CA8F" transform="translate(320.890869140625,186.32763671875)"/>
<path d="M0 0 C2.22370135 -0.01713696 4.44588559 -0.06101048 6.66918945 -0.10522461 C8.09561085 -0.11535885 9.52204486 -0.12387266 10.94848633 -0.13061523 C12.23972412 -0.14519775 13.53096191 -0.15978027 14.86132812 -0.17480469 C20.0171756 0.48000869 23.44548334 2.35261757 27.31933594 5.90844727 C31.39735179 11.96154821 31.29323779 18.14825719 31.15869141 25.27661133 C31.12432106 27.2920301 31.13808105 29.30306175 31.1574707 31.31860352 C31.10200811 38.72840604 30.73146946 44.07838223 26.56176758 50.29516602 C16.84021752 58.03272626 1.09923476 56.98088602 -10.79370117 55.79907227 C-16.7525528 54.66363377 -20.07463327 51.10030766 -23.43823242 46.29516602 C-26.8279932 40.84250238 -25.80717089 34.18058569 -25.81323242 27.98266602 C-25.8499707 26.02296875 -25.8499707 26.02296875 -25.88745117 24.02368164 C-25.91262229 15.77175139 -25.5702158 10.70393297 -19.80541992 4.55297852 C-13.28166614 -0.39960944 -7.9353153 0.04258356 0 0 Z " fill="#66CA8F" transform="translate(656.438232421875,298.704833984375)"/>
<path d="M0 0 C2.22370135 -0.01713696 4.44588559 -0.06101048 6.66918945 -0.10522461 C8.09561085 -0.11535885 9.52204486 -0.12387266 10.94848633 -0.13061523 C12.23972412 -0.14519775 13.53096191 -0.15978027 14.86132812 -0.17480469 C20.47024722 0.53755061 24.52235889 2.99687877 28.46411133 7.08032227 C31.8529349 12.2948589 31.26728983 18.63308452 31.15869141 24.62841797 C31.12439159 26.72508574 31.13805377 28.81752311 31.1574707 30.91430664 C31.14946497 38.33760451 30.75209605 44.02507892 26.56176758 50.29516602 C20.16689035 56.37809801 13.29916818 55.54563195 4.99316406 55.59033203 C3.50250757 55.60184728 2.01189217 55.62229231 0.52148438 55.65185547 C-1.63854837 55.69468762 -3.79735812 55.71072129 -5.95776367 55.72094727 C-7.24787354 55.73552979 -8.5379834 55.7501123 -9.8671875 55.76513672 C-15.10225312 55.07617102 -18.12021617 52.68640539 -21.68823242 48.92016602 C-26.24658242 42.08264101 -25.83747814 34.84305193 -25.87573242 26.92016602 C-25.90860352 25.72649414 -25.94147461 24.53282227 -25.9753418 23.30297852 C-26.01979828 15.99594936 -25.39105322 10.86934397 -20.43823242 5.29516602 C-13.9958655 -0.54791096 -8.30619956 0.04457384 0 0 Z " fill="#66CA8F" transform="translate(432.438232421875,298.704833984375)"/>
<path d="M0 0 C2.08799624 0.04728826 4.17087913 0.04109014 6.25927734 0.02783203 C13.65890282 0.0594126 19.33719899 0.51318855 25.59130859 4.67236328 C31.78973948 11.02972829 30.90101829 18.39309743 30.99633789 26.77929688 C31.01788027 28.20109401 31.05194022 29.62275985 31.09887695 31.04394531 C31.56205893 45.22951158 31.56205893 45.22951158 26.47436523 51.18310547 C19.75003145 56.5011965 12.94762442 56.16666732 4.79638672 56.1184082 C2.59687059 56.10988483 0.39994466 56.13871839 -1.79931641 56.17041016 C-3.21077397 56.17202228 -4.62223608 56.17144442 -6.03369141 56.16845703 C-7.30470703 56.17031006 -8.57572266 56.17216309 -9.88525391 56.17407227 C-15.0718334 55.43554532 -18.11564903 53.03724134 -21.65869141 49.29736328 C-26.13968786 42.5758686 -25.7749916 35.5836869 -25.78369141 27.79736328 C-25.80818359 26.65138672 -25.83267578 25.50541016 -25.85791016 24.32470703 C-25.88554 16.3212637 -25.0690973 11.04865071 -19.90820312 4.87841797 C-14.18894958 -0.47544317 -7.41560176 -0.17959252 0 0 Z " fill="#66CA8F" transform="translate(432.40869140625,74.32763671875)"/>
<path d="M0 0 C1.43532203 -0.01147094 2.87060306 -0.03184496 4.30566406 -0.06152344 C20.65250611 -0.39956465 20.65250611 -0.39956465 26.04394531 4.29516602 C30.57951406 8.70177468 31.3692927 13.16668415 31.67285156 19.35766602 C31.67580517 21.33067438 31.67810272 23.30395211 31.64086914 25.27661133 C31.60649879 27.2920301 31.62025879 29.30306175 31.63964844 31.31860352 C31.58406771 38.74418867 31.17516004 44.04518491 27.04394531 50.29516602 C20.64906808 56.37809801 13.78134592 55.54563195 5.4753418 55.59033203 C3.98468531 55.60184728 2.4940699 55.62229231 1.00366211 55.65185547 C-1.15637064 55.69468762 -3.31518039 55.71072129 -5.47558594 55.72094727 C-6.7656958 55.73552979 -8.05580566 55.7501123 -9.38500977 55.76513672 C-14.66858338 55.06978708 -17.70007147 52.69070292 -21.20605469 48.79516602 C-25.88963745 42.1043335 -25.35815481 36.06127179 -25.39355469 28.04516602 C-25.42642578 26.74708008 -25.45929687 25.44899414 -25.49316406 24.11157227 C-25.53547171 16.56542595 -25.18009298 11.02049131 -19.95605469 5.29516602 C-13.62071288 -0.45084167 -8.16958027 0.04542776 0 0 Z " fill="#66CA8F" transform="translate(655.9560546875,74.704833984375)"/>
<path d="M0 0 C2.23443348 -0.00966869 4.46793236 -0.04067264 6.70214844 -0.07226562 C8.13183049 -0.07879971 9.56151911 -0.08404859 10.99121094 -0.08789062 C12.93592285 -0.10190918 12.93592285 -0.10190918 14.91992188 -0.11621094 C19.43112755 0.33208475 22.818185 1.66389276 26.15136719 4.77539062 C33.42133193 14.2822676 32.28140415 29.32616729 30.93261719 40.89648438 C29.78070358 47.2372932 26.82717831 50.25945227 21.81420898 53.93017578 C17.95428321 56.12172818 14.30877088 56.21559575 9.94433594 56.24023438 C8.64085205 56.27238037 8.64085205 56.27238037 7.31103516 56.30517578 C-13.10858956 56.58633456 -13.10858956 56.58633456 -19.24316406 52.05273438 C-25.03169077 44.817076 -24.99395973 37.68843423 -24.93920898 28.79711914 C-24.93066864 26.67887049 -24.9595626 24.56329773 -24.99121094 22.4453125 C-24.99282271 21.08398517 -24.99224587 19.72265313 -24.98925781 18.36132812 C-24.99111084 17.13857178 -24.99296387 15.91581543 -24.99487305 14.65600586 C-24.22703403 9.42834859 -21.76768525 6.36302685 -17.86816406 2.92773438 C-12.44005978 -0.92907656 -6.42559263 0.01684297 0 0 Z " fill="#66CA8F" transform="translate(96.4931640625,410.759765625)"/>
<path d="M0 0 C2.64 0 5.28 0 8 0 C8 92.4 8 184.8 8 280 C5.36 280 2.72 280 0 280 C0 187.6 0 95.2 0 0 Z " fill="#A1A2A2" transform="translate(90,130)"/>
<path d="M0 0 C92.07 0 184.14 0 279 0 C279 2.31 279 4.62 279 7 C186.93 7 94.86 7 0 7 C0 4.69 0 2.38 0 0 Z " fill="#232323" transform="translate(128,99)"/>
<path d="M0 0 C55.11 0 110.22 0 167 0 C167 2.31 167 4.62 167 7 C111.89 7 56.78 7 0 7 C0 4.69 0 2.38 0 0 Z " fill="#1A1A1A" transform="translate(464,653)"/>
<path d="M0 0 C2.31 0 4.62 0 7 0 C7 55.11 7 110.22 7 167 C4.69 167 2.38 167 0 167 C0 111.89 0 56.78 0 0 Z " fill="#191919" transform="translate(96,467)"/>
<path d="M0 0 C55.11 0 110.22 0 167 0 C167 2.31 167 4.62 167 7 C111.89 7 56.78 7 0 7 C0 4.69 0 2.38 0 0 Z " fill="#1A1A1A" transform="translate(128,435)"/>
<path d="M0 0 C2.31 0 4.62 0 7 0 C7 55.11 7 110.22 7 167 C4.69 167 2.38 167 0 167 C0 111.89 0 56.78 0 0 Z " fill="#161616" transform="translate(320,243)"/>
<path d="M0 0 C2.31 0 4.62 0 7 0 C7 55.11 7 110.22 7 167 C4.69 167 2.38 167 0 167 C0 111.89 0 56.78 0 0 Z " fill="#1A1A1A" transform="translate(650,131)"/>
<path d="M0 0 C0.99 0 1.98 0 3 0 C3 92.07 3 184.14 3 279 C2.01 279 1.02 279 0 279 C0 186.93 0 94.86 0 0 Z " fill="#FFFFFF" transform="translate(98,131)"/>
<path d="M0 0 C36.63 0 73.26 0 111 0 C111 2.31 111 4.62 111 7 C74.37 7 37.74 7 0 7 C0 4.69 0 2.38 0 0 Z " fill="#131313" transform="translate(408,435)"/>
<path d="M0 0 C55.44 0 110.88 0 168 0 C168 1.32 168 2.64 168 4 C112.56 4 57.12 4 0 4 C0 2.68 0 1.36 0 0 Z " fill="#FEFEFE" transform="translate(463,660)"/>
<path d="M0 0 C1.32 0 2.64 0 4 0 C4 55.44 4 110.88 4 168 C2.68 168 1.36 168 0 168 C0 112.56 0 57.12 0 0 Z " fill="#FAFAFA" transform="translate(545,242)"/>
<path d="M0 0 C1.32 0 2.64 0 4 0 C4 55.11 4 110.22 4 167 C2.68 167 1.36 167 0 167 C0 111.89 0 56.78 0 0 Z " fill="#FFFFFF" transform="translate(657,131)"/>
<path d="M0 0 C1.32 0 2.64 0 4 0 C4 55.11 4 110.22 4 167 C2.68 167 1.36 167 0 167 C0 111.89 0 56.78 0 0 Z " fill="#F6F6F6" transform="translate(433,131)"/>
<path d="M0 0 C18.15 0 36.3 0 55 0 C55 2.31 55 4.62 55 7 C36.85 7 18.7 7 0 7 C0 4.69 0 2.38 0 0 Z " fill="#0A0A0A" transform="translate(352,435)"/>
<path d="M0 0 C18.15 0 36.3 0 55 0 C55 1.98 55 3.96 55 6 C36.85 6 18.7 6 0 6 C0 4.02 0 2.04 0 0 Z " fill="#000000" transform="translate(576,665)"/>
<path d="M0 0 C18.15 0 36.3 0 55 0 C55 1.98 55 3.96 55 6 C36.85 6 18.7 6 0 6 C0 4.02 0 2.04 0 0 Z " fill="#000000" transform="translate(520,665)"/>
<path d="M0 0 C18.15 0 36.3 0 55 0 C55 1.98 55 3.96 55 6 C36.85 6 18.7 6 0 6 C0 4.02 0 2.04 0 0 Z " fill="#000000" transform="translate(464,665)"/>
<path d="M0 0 C18.15 0 36.3 0 55 0 C55 1.98 55 3.96 55 6 C36.85 6 18.7 6 0 6 C0 4.02 0 2.04 0 0 Z " fill="#000000" transform="translate(352,659)"/>
<path d="M0 0 C18.15 0 36.3 0 55 0 C55 1.98 55 3.96 55 6 C36.85 6 18.7 6 0 6 C0 4.02 0 2.04 0 0 Z " fill="#000000" transform="translate(296,659)"/>
<path d="M0 0 C18.15 0 36.3 0 55 0 C55 1.98 55 3.96 55 6 C36.85 6 18.7 6 0 6 C0 4.02 0 2.04 0 0 Z " fill="#000000" transform="translate(240,659)"/>
<path d="M0 0 C18.15 0 36.3 0 55 0 C55 1.98 55 3.96 55 6 C36.85 6 18.7 6 0 6 C0 4.02 0 2.04 0 0 Z " fill="#000000" transform="translate(184,659)"/>
<path d="M0 0 C18.15 0 36.3 0 55 0 C55 1.98 55 3.96 55 6 C36.85 6 18.7 6 0 6 C0 4.02 0 2.04 0 0 Z " fill="#000000" transform="translate(128,659)"/>
<path d="M0 0 C18.15 0 36.3 0 55 0 C55 1.98 55 3.96 55 6 C36.85 6 18.7 6 0 6 C0 4.02 0 2.04 0 0 Z " fill="#000000" transform="translate(576,654)"/>
<path d="M0 0 C18.15 0 36.3 0 55 0 C55 1.98 55 3.96 55 6 C36.85 6 18.7 6 0 6 C0 4.02 0 2.04 0 0 Z " fill="#000000" transform="translate(520,654)"/>
<path d="M0 0 C1.98 0 3.96 0 6 0 C6 18.15 6 36.3 6 55 C4.02 55 2.04 55 0 55 C0 36.85 0 18.7 0 0 Z " fill="#000000" transform="translate(656,579)"/>
<path d="M0 0 C1.98 0 3.96 0 6 0 C6 18.15 6 36.3 6 55 C4.02 55 2.04 55 0 55 C0 36.85 0 18.7 0 0 Z " fill="#010101" transform="translate(97,579)"/>
<path d="M0 0 C1.98 0 3.96 0 6 0 C6 18.15 6 36.3 6 55 C4.02 55 2.04 55 0 55 C0 36.85 0 18.7 0 0 Z " fill="#000000" transform="translate(656,523)"/>
<path d="M0 0 C1.98 0 3.96 0 6 0 C6 18.15 6 36.3 6 55 C4.02 55 2.04 55 0 55 C0 36.85 0 18.7 0 0 Z " fill="#010101" transform="translate(97,523)"/>
<path d="M0 0 C1.98 0 3.96 0 6 0 C6 18.15 6 36.3 6 55 C4.02 55 2.04 55 0 55 C0 36.85 0 18.7 0 0 Z " fill="#000000" transform="translate(656,467)"/>
<path d="M0 0 C18.15 0 36.3 0 55 0 C55 1.98 55 3.96 55 6 C36.85 6 18.7 6 0 6 C0 4.02 0 2.04 0 0 Z " fill="#000000" transform="translate(464,435)"/>
<path d="M0 0 C18.15 0 36.3 0 55 0 C55 1.98 55 3.96 55 6 C36.85 6 18.7 6 0 6 C0 4.02 0 2.04 0 0 Z " fill="#000000" transform="translate(240,435)"/>
<path d="M0 0 C18.15 0 36.3 0 55 0 C55 1.98 55 3.96 55 6 C36.85 6 18.7 6 0 6 C0 4.02 0 2.04 0 0 Z " fill="#000000" transform="translate(184,435)"/>
<path d="M0 0 C1.98 0 3.96 0 6 0 C6 18.15 6 36.3 6 55 C4.02 55 2.04 55 0 55 C0 36.85 0 18.7 0 0 Z " fill="#000000" transform="translate(656,411)"/>
<path d="M0 0 C1.98 0 3.96 0 6 0 C6 18.15 6 36.3 6 55 C4.02 55 2.04 55 0 55 C0 36.85 0 18.7 0 0 Z " fill="#000000" transform="translate(656,355)"/>
<path d="M0 0 C1.98 0 3.96 0 6 0 C6 18.15 6 36.3 6 55 C4.02 55 2.04 55 0 55 C0 36.85 0 18.7 0 0 Z " fill="#000000" transform="translate(550,355)"/>
<path d="M0 0 C1.98 0 3.96 0 6 0 C6 18.15 6 36.3 6 55 C4.02 55 2.04 55 0 55 C0 36.85 0 18.7 0 0 Z " fill="#000000" transform="translate(539,355)"/>
<path d="M0 0 C1.98 0 3.96 0 6 0 C6 18.15 6 36.3 6 55 C4.02 55 2.04 55 0 55 C0 36.85 0 18.7 0 0 Z " fill="#040404" transform="translate(320,355)"/>
<path d="M0 0 C1.98 0 3.96 0 6 0 C6 18.15 6 36.3 6 55 C4.02 55 2.04 55 0 55 C0 36.85 0 18.7 0 0 Z " fill="#000000" transform="translate(102,355)"/>
<path d="M0 0 C1.98 0 3.96 0 6 0 C6 18.15 6 36.3 6 55 C4.02 55 2.04 55 0 55 C0 36.85 0 18.7 0 0 Z " fill="#000000" transform="translate(91,355)"/>
<path d="M0 0 C1.98 0 3.96 0 6 0 C6 18.15 6 36.3 6 55 C4.02 55 2.04 55 0 55 C0 36.85 0 18.7 0 0 Z " fill="#000000" transform="translate(550,299)"/>
<path d="M0 0 C1.98 0 3.96 0 6 0 C6 18.15 6 36.3 6 55 C4.02 55 2.04 55 0 55 C0 36.85 0 18.7 0 0 Z " fill="#000000" transform="translate(539,299)"/>
<path d="M0 0 C1.98 0 3.96 0 6 0 C6 18.15 6 36.3 6 55 C4.02 55 2.04 55 0 55 C0 36.85 0 18.7 0 0 Z " fill="#040404" transform="translate(320,299)"/>
<path d="M0 0 C1.98 0 3.96 0 6 0 C6 18.15 6 36.3 6 55 C4.02 55 2.04 55 0 55 C0 36.85 0 18.7 0 0 Z " fill="#000000" transform="translate(102,299)"/>
<path d="M0 0 C1.98 0 3.96 0 6 0 C6 18.15 6 36.3 6 55 C4.02 55 2.04 55 0 55 C0 36.85 0 18.7 0 0 Z " fill="#000000" transform="translate(91,299)"/>
<path d="M0 0 C1.98 0 3.96 0 6 0 C6 18.15 6 36.3 6 55 C4.02 55 2.04 55 0 55 C0 36.85 0 18.7 0 0 Z " fill="#000000" transform="translate(662,243)"/>
<path d="M0 0 C1.98 0 3.96 0 6 0 C6 18.15 6 36.3 6 55 C4.02 55 2.04 55 0 55 C0 36.85 0 18.7 0 0 Z " fill="#000000" transform="translate(651,243)"/>
<path d="M0 0 C1.98 0 3.96 0 6 0 C6 18.15 6 36.3 6 55 C4.02 55 2.04 55 0 55 C0 36.85 0 18.7 0 0 Z " fill="#000000" transform="translate(550,243)"/>
<path d="M0 0 C1.98 0 3.96 0 6 0 C6 18.15 6 36.3 6 55 C4.02 55 2.04 55 0 55 C0 36.85 0 18.7 0 0 Z " fill="#000000" transform="translate(539,243)"/>
<path d="M0 0 C1.98 0 3.96 0 6 0 C6 18.15 6 36.3 6 55 C4.02 55 2.04 55 0 55 C0 36.85 0 18.7 0 0 Z " fill="#000000" transform="translate(438,243)"/>
<path d="M0 0 C1.98 0 3.96 0 6 0 C6 18.15 6 36.3 6 55 C4.02 55 2.04 55 0 55 C0 36.85 0 18.7 0 0 Z " fill="#000000" transform="translate(427,243)"/>
<path d="M0 0 C1.98 0 3.96 0 6 0 C6 18.15 6 36.3 6 55 C4.02 55 2.04 55 0 55 C0 36.85 0 18.7 0 0 Z " fill="#000000" transform="translate(102,243)"/>
<path d="M0 0 C1.98 0 3.96 0 6 0 C6 18.15 6 36.3 6 55 C4.02 55 2.04 55 0 55 C0 36.85 0 18.7 0 0 Z " fill="#000000" transform="translate(91,243)"/>
<path d="M0 0 C1.98 0 3.96 0 6 0 C6 18.15 6 36.3 6 55 C4.02 55 2.04 55 0 55 C0 36.85 0 18.7 0 0 Z " fill="#000000" transform="translate(662,187)"/>
<path d="M0 0 C1.98 0 3.96 0 6 0 C6 18.15 6 36.3 6 55 C4.02 55 2.04 55 0 55 C0 36.85 0 18.7 0 0 Z " fill="#000000" transform="translate(651,187)"/>
<path d="M0 0 C1.98 0 3.96 0 6 0 C6 18.15 6 36.3 6 55 C4.02 55 2.04 55 0 55 C0 36.85 0 18.7 0 0 Z " fill="#000000" transform="translate(438,187)"/>
<path d="M0 0 C1.98 0 3.96 0 6 0 C6 18.15 6 36.3 6 55 C4.02 55 2.04 55 0 55 C0 36.85 0 18.7 0 0 Z " fill="#000000" transform="translate(427,187)"/>
<path d="M0 0 C1.98 0 3.96 0 6 0 C6 18.15 6 36.3 6 55 C4.02 55 2.04 55 0 55 C0 36.85 0 18.7 0 0 Z " fill="#000000" transform="translate(102,187)"/>
<path d="M0 0 C1.98 0 3.96 0 6 0 C6 18.15 6 36.3 6 55 C4.02 55 2.04 55 0 55 C0 36.85 0 18.7 0 0 Z " fill="#000000" transform="translate(91,187)"/>
<path d="M0 0 C1.98 0 3.96 0 6 0 C6 18.15 6 36.3 6 55 C4.02 55 2.04 55 0 55 C0 36.85 0 18.7 0 0 Z " fill="#000000" transform="translate(662,131)"/>
<path d="M0 0 C1.98 0 3.96 0 6 0 C6 18.15 6 36.3 6 55 C4.02 55 2.04 55 0 55 C0 36.85 0 18.7 0 0 Z " fill="#000000" transform="translate(438,131)"/>
<path d="M0 0 C1.98 0 3.96 0 6 0 C6 18.15 6 36.3 6 55 C4.02 55 2.04 55 0 55 C0 36.85 0 18.7 0 0 Z " fill="#000000" transform="translate(427,131)"/>
<path d="M0 0 C1.98 0 3.96 0 6 0 C6 18.15 6 36.3 6 55 C4.02 55 2.04 55 0 55 C0 36.85 0 18.7 0 0 Z " fill="#000000" transform="translate(102,131)"/>
<path d="M0 0 C1.98 0 3.96 0 6 0 C6 18.15 6 36.3 6 55 C4.02 55 2.04 55 0 55 C0 36.85 0 18.7 0 0 Z " fill="#000000" transform="translate(91,131)"/>
<path d="M0 0 C18.15 0 36.3 0 55 0 C55 1.98 55 3.96 55 6 C36.85 6 18.7 6 0 6 C0 4.02 0 2.04 0 0 Z " fill="#010101" transform="translate(352,100)"/>
<path d="M0 0 C18.15 0 36.3 0 55 0 C55 1.98 55 3.96 55 6 C36.85 6 18.7 6 0 6 C0 4.02 0 2.04 0 0 Z " fill="#010101" transform="translate(296,100)"/>
<path d="M0 0 C18.15 0 36.3 0 55 0 C55 1.98 55 3.96 55 6 C36.85 6 18.7 6 0 6 C0 4.02 0 2.04 0 0 Z " fill="#010101" transform="translate(240,100)"/>
<path d="M0 0 C18.15 0 36.3 0 55 0 C55 1.98 55 3.96 55 6 C36.85 6 18.7 6 0 6 C0 4.02 0 2.04 0 0 Z " fill="#010101" transform="translate(184,100)"/>
<path d="M0 0 C2.1875 0.02734375 2.1875 0.02734375 5.6875 0.83984375 C5.6875 5.45984375 5.6875 10.07984375 5.6875 14.83984375 C6.6775 14.83984375 7.6675 14.83984375 8.6875 14.83984375 C8.6875 16.48984375 8.6875 18.13984375 8.6875 19.83984375 C7.6975 19.83984375 6.7075 19.83984375 5.6875 19.83984375 C5.6875 20.82984375 5.6875 21.81984375 5.6875 22.83984375 C3.7075 22.83984375 1.7275 22.83984375 -0.3125 22.83984375 C-0.3125 21.84984375 -0.3125 20.85984375 -0.3125 19.83984375 C-3.6125 19.83984375 -6.9125 19.83984375 -10.3125 19.83984375 C-10.87228002 13.26242855 -8.16186957 8.84816666 -4.625 3.5234375 C-2.3125 0.83984375 -2.3125 0.83984375 0 0 Z " fill="#F9FDFA" transform="translate(100.3125,426.16015625)"/>
<path d="M0 0 C2.16796875 0.3515625 2.16796875 0.3515625 4.79296875 2.0390625 C6.16796875 4.3515625 6.16796875 4.3515625 5.98046875 6.9765625 C5.16796875 9.3515625 5.16796875 9.3515625 4.16796875 11.3515625 C4.68359375 11.7434375 5.19921875 12.1353125 5.73046875 12.5390625 C7.16796875 14.3515625 7.16796875 14.3515625 7.04296875 16.8515625 C6.08912655 19.57682593 5.41513301 20.58593344 3.16796875 22.3515625 C-0.22271921 23.04119395 -3.42908408 22.94762012 -6.83203125 22.3515625 C-9.95703125 19.9765625 -9.95703125 19.9765625 -11.83203125 17.3515625 C-11.83203125 16.6915625 -11.83203125 16.0315625 -11.83203125 15.3515625 C-7.3636391 15.13878192 -4.00940599 15.76018165 0.16796875 17.3515625 C0.16796875 16.3615625 0.16796875 15.3715625 0.16796875 14.3515625 C-2.80203125 13.8565625 -2.80203125 13.8565625 -5.83203125 13.3515625 C-5.83203125 12.0315625 -5.83203125 10.7115625 -5.83203125 9.3515625 C-3.85203125 9.0215625 -1.87203125 8.6915625 0.16796875 8.3515625 C-0.16203125 7.6915625 -0.49203125 7.0315625 -0.83203125 6.3515625 C-2.8566638 5.69942958 -2.8566638 5.69942958 -4.83203125 5.3515625 C-4.83203125 6.0115625 -4.83203125 6.6715625 -4.83203125 7.3515625 C-6.81203125 7.3515625 -8.79203125 7.3515625 -10.83203125 7.3515625 C-9.68781464 0.71510615 -6.17443215 -0.22159463 0 0 Z " fill="#F6FCF8" transform="translate(101.83203125,91.6484375)"/>
<path d="M0 0 C2.625 1.6875 2.625 1.6875 4 4 C3.75 6.5625 3.75 6.5625 3 9 C3 9.99 3 10.98 3 12 C3.33 12.33 3.66 12.66 4 13 C4.46444644 18.34113411 4.46444644 18.34113411 2.82421875 20.66796875 C-0.84421625 23.34663328 -5.68147423 22.59476702 -10 22 C-12.6875 20.1875 -12.6875 20.1875 -14 18 C-14 17.01 -14 16.02 -14 15 C-10.16774573 14.91087781 -6.73437848 15.12132271 -3 16 C-2.67 15.34 -2.34 14.68 -2 14 C-4.97 13.505 -4.97 13.505 -8 13 C-8 11.68 -8 10.36 -8 9 C-7.360625 8.896875 -6.72125 8.79375 -6.0625 8.6875 C-5.381875 8.460625 -4.70125 8.23375 -4 8 C-3.67 7.01 -3.34 6.02 -3 5 C-4.32 5 -5.64 5 -7 5 C-7 5.66 -7 6.32 -7 7 C-8.98 7 -10.96 7 -13 7 C-12.6875 4.625 -12.6875 4.625 -12 2 C-7.98272339 -0.67818441 -4.71973745 -0.68882655 0 0 Z " fill="#F7FCF9" transform="translate(440,651)"/>
<path d="M0 0 C2.625 1.6875 2.625 1.6875 4 4 C3.75 6.5625 3.75 6.5625 3 9 C3 9.99 3 10.98 3 12 C3.33 12.33 3.66 12.66 4 13 C4.46444644 18.34113411 4.46444644 18.34113411 2.82421875 20.66796875 C-0.84421625 23.34663328 -5.68147423 22.59476702 -10 22 C-12.6875 20.1875 -12.6875 20.1875 -14 18 C-14 17.01 -14 16.02 -14 15 C-10.16774573 14.91087781 -6.73437848 15.12132271 -3 16 C-2.67 15.34 -2.34 14.68 -2 14 C-4.97 13.505 -4.97 13.505 -8 13 C-8 11.68 -8 10.36 -8 9 C-7.360625 8.896875 -6.72125 8.79375 -6.0625 8.6875 C-5.381875 8.460625 -4.70125 8.23375 -4 8 C-3.67 7.01 -3.34 6.02 -3 5 C-4.32 5 -5.64 5 -7 5 C-7 5.66 -7 6.32 -7 7 C-8.98 7 -10.96 7 -13 7 C-12.6875 4.625 -12.6875 4.625 -12 2 C-7.98272339 -0.67818441 -4.71973745 -0.68882655 0 0 Z " fill="#F7FCF9" transform="translate(328,427)"/>
<path d="M0 0 C2.625 1.6875 2.625 1.6875 4 4 C3.75 6.5625 3.75 6.5625 3 9 C3 9.99 3 10.98 3 12 C3.33 12.33 3.66 12.66 4 13 C4.46444644 18.34113411 4.46444644 18.34113411 2.82421875 20.66796875 C-0.84421625 23.34663328 -5.68147423 22.59476702 -10 22 C-12.6875 20.1875 -12.6875 20.1875 -14 18 C-14 17.01 -14 16.02 -14 15 C-10.16774573 14.91087781 -6.73437848 15.12132271 -3 16 C-2.67 15.34 -2.34 14.68 -2 14 C-4.97 13.505 -4.97 13.505 -8 13 C-8 11.68 -8 10.36 -8 9 C-7.360625 8.896875 -6.72125 8.79375 -6.0625 8.6875 C-5.381875 8.460625 -4.70125 8.23375 -4 8 C-3.67 7.01 -3.34 6.02 -3 5 C-4.32 5 -5.64 5 -7 5 C-7 5.66 -7 6.32 -7 7 C-8.98 7 -10.96 7 -13 7 C-12.6875 4.625 -12.6875 4.625 -12 2 C-7.98272339 -0.67818441 -4.71973745 -0.68882655 0 0 Z " fill="#F7FCF9" transform="translate(440,92)"/>
<path d="M0 0 C2.5 1.125 2.5 1.125 4 3 C4.25 6 4.25 6 4 9 C4 9.99 4 10.98 4 12 C4.33 12.33 4.66 12.66 5 13 C5.3125 15.875 5.3125 15.875 5 19 C2.12887152 21.8054276 -0.03555461 22.43145664 -4 22.4375 C-7.47944353 22.33486155 -8.69827908 22.20833111 -11.625 20.1875 C-13 18 -13 18 -13 15 C-9.16774573 14.91087781 -5.73437848 15.12132271 -2 16 C-1.67 15.34 -1.34 14.68 -1 14 C-3.97 13.505 -3.97 13.505 -7 13 C-7 11.68 -7 10.36 -7 9 C-6.360625 8.896875 -5.72125 8.79375 -5.0625 8.6875 C-4.381875 8.460625 -3.70125 8.23375 -3 8 C-2.67 7.01 -2.34 6.02 -2 5 C-3.0828125 5.495 -3.0828125 5.495 -4.1875 6 C-7.01697427 7.00603529 -9.02895466 7.16977402 -12 7 C-11.6875 4.625 -11.6875 4.625 -11 2 C-7.29376793 -0.47082138 -4.29660742 -0.54464038 0 0 Z " fill="#F9FCFA" transform="translate(663,651)"/>
<path d="M0 0 C2.5 1.125 2.5 1.125 4 3 C4.25 6 4.25 6 4 9 C4 9.99 4 10.98 4 12 C4.33 12.33 4.66 12.66 5 13 C5.3125 15.875 5.3125 15.875 5 19 C2.12887152 21.8054276 -0.03555461 22.43145664 -4 22.4375 C-7.47944353 22.33486155 -8.69827908 22.20833111 -11.625 20.1875 C-13 18 -13 18 -13 15 C-9.16774573 14.91087781 -5.73437848 15.12132271 -2 16 C-1.67 15.34 -1.34 14.68 -1 14 C-3.97 13.505 -3.97 13.505 -7 13 C-7 11.68 -7 10.36 -7 9 C-6.360625 8.896875 -5.72125 8.79375 -5.0625 8.6875 C-4.381875 8.460625 -3.70125 8.23375 -3 8 C-2.67 7.01 -2.34 6.02 -2 5 C-3.0828125 5.495 -3.0828125 5.495 -4.1875 6 C-7.01697427 7.00603529 -9.02895466 7.16977402 -12 7 C-11.6875 4.625 -11.6875 4.625 -11 2 C-7.29376793 -0.47082138 -4.29660742 -0.54464038 0 0 Z " fill="#F9FCFA" transform="translate(551,427)"/>
<path d="M0 0 C2.5 1.125 2.5 1.125 4 3 C4.25 6 4.25 6 4 9 C4 9.99 4 10.98 4 12 C4.33 12.33 4.66 12.66 5 13 C5.3125 15.875 5.3125 15.875 5 19 C2.12887152 21.8054276 -0.03555461 22.43145664 -4 22.4375 C-7.47944353 22.33486155 -8.69827908 22.20833111 -11.625 20.1875 C-13 18 -13 18 -13 15 C-9.16774573 14.91087781 -5.73437848 15.12132271 -2 16 C-1.67 15.34 -1.34 14.68 -1 14 C-3.97 13.505 -3.97 13.505 -7 13 C-7 11.68 -7 10.36 -7 9 C-6.360625 8.896875 -5.72125 8.79375 -5.0625 8.6875 C-4.381875 8.460625 -3.70125 8.23375 -3 8 C-2.67 7.01 -2.34 6.02 -2 5 C-3.0828125 5.495 -3.0828125 5.495 -4.1875 6 C-7.01697427 7.00603529 -9.02895466 7.16977402 -12 7 C-11.6875 4.625 -11.6875 4.625 -11 2 C-7.29376793 -0.47082138 -4.29660742 -0.54464038 0 0 Z " fill="#F9FCFA" transform="translate(663,316)"/>
<path d="M0 0 C2.16796875 0.34375 2.16796875 0.34375 4.79296875 1.90625 C6.16796875 4.34375 6.16796875 4.34375 6.29296875 7.78125 C4.82868024 12.4181636 3.08487821 13.59357953 -0.83203125 16.34375 C1.47796875 16.67375 3.78796875 17.00375 6.16796875 17.34375 C6.16796875 18.99375 6.16796875 20.64375 6.16796875 22.34375 C0.55796875 22.34375 -5.05203125 22.34375 -10.83203125 22.34375 C-10.83203125 17.34375 -10.83203125 17.34375 -8.64453125 14.95703125 C-7.25234375 13.81814453 -7.25234375 13.81814453 -5.83203125 12.65625 C-4.13543399 11.25420087 -2.46073448 9.8241249 -0.83203125 8.34375 C-0.83203125 7.68375 -0.83203125 7.02375 -0.83203125 6.34375 C-2.15203125 6.01375 -3.47203125 5.68375 -4.83203125 5.34375 C-5.16203125 6.33375 -5.49203125 7.32375 -5.83203125 8.34375 C-7.48203125 8.34375 -9.13203125 8.34375 -10.83203125 8.34375 C-9.8568179 1.12717124 -6.89479386 -0.26994299 0 0 Z " fill="#F8FCFA" transform="translate(101.83203125,650.65625)"/>
<path d="M0 0 C2.5 1.0625 2.5 1.0625 4 3 C4.625 6.3125 4.625 6.3125 4 10 C2.19846276 12.3846938 0.29667056 14.03826057 -2 16 C0.31 16.33 2.62 16.66 5 17 C5 18.65 5 20.3 5 22 C-0.61 22 -6.22 22 -12 22 C-12 17 -12 17 -10.03125 14.8671875 C-9.1959375 14.20976563 -8.360625 13.55234375 -7.5 12.875 C-5.00515511 10.95670312 -5.00515511 10.95670312 -3 9 C-3 8.01 -3 7.02 -3 6 C-3.99 6 -4.98 6 -6 6 C-6.33 6.66 -6.66 7.32 -7 8 C-8.98 8 -10.96 8 -13 8 C-12.68762196 5.11050316 -12.35661121 3.41366901 -10.4375 1.1875 C-6.92158856 -0.52537993 -3.8397516 -0.55865238 0 0 Z " fill="#F8FCFA" transform="translate(663,92)"/>
<path d="M0 0 C3.28004906 1.35480287 4.6151218 2.08591428 6 5.375 C6 8.80272592 5.06607824 10.29272507 3 13 C0.8125 14.8125 0.8125 14.8125 -1 16 C1.31 16.33 3.62 16.66 6 17 C6 18.65 6 20.3 6 22 C0.39 22 -5.22 22 -11 22 C-11 17 -11 17 -9.06640625 14.90234375 C-8.24011719 14.25394531 -7.41382813 13.60554688 -6.5625 12.9375 C-2.46296639 9.76842153 -2.46296639 9.76842153 -1 5 C-2.32 5 -3.64 5 -5 5 C-5.33 5.99 -5.66 6.98 -6 8 C-7.65 8 -9.3 8 -11 8 C-11.25 5.6875 -11.25 5.6875 -11 3 C-7.85965733 -0.64279749 -4.57607483 -0.48169209 0 0 Z " fill="#F8FCFA" transform="translate(438,316)"/>
<path d="M0 0 C3.28004906 1.35480287 4.6151218 2.08591428 6 5.375 C6 8.80272592 5.06607824 10.29272507 3 13 C0.8125 14.8125 0.8125 14.8125 -1 16 C1.31 16.33 3.62 16.66 6 17 C6 18.65 6 20.3 6 22 C0.39 22 -5.22 22 -11 22 C-11 17 -11 17 -9.06640625 14.90234375 C-8.24011719 14.25394531 -7.41382813 13.60554687 -6.5625 12.9375 C-2.46296639 9.76842153 -2.46296639 9.76842153 -1 5 C-2.32 5 -3.64 5 -5 5 C-5.33 5.99 -5.66 6.98 -6 8 C-7.65 8 -9.3 8 -11 8 C-11.25 5.6875 -11.25 5.6875 -11 3 C-7.85965733 -0.64279749 -4.57607483 -0.48169209 0 0 Z " fill="#F8FCFA" transform="translate(550,204)"/>
<path d="M0 0 C0 7.26 0 14.52 0 22 C-1.98 22 -3.96 22 -6 22 C-6.33 17.05 -6.66 12.1 -7 7 C-8.98 7.99 -8.98 7.99 -11 9 C-11.3125 6.1875 -11.3125 6.1875 -11 3 C-7.16447589 -0.38428598 -5.39581949 0 0 0 Z " fill="#FCFEFD" transform="translate(328,204)"/>
<path d="M0 0 C0.33 0 0.66 0 1 0 C1 2.64 1 5.28 1 8 C-0.65 8 -2.3 8 -4 8 C-2.87548273 5.0280615 -1.77706209 2.66559313 0 0 Z " fill="#81D4A3" transform="translate(100,433)"/>
<path d="M0 0 C1.65 0.33 3.3 0.66 5 1 C5 1.66 5 2.32 5 3 C3.02 3.33 1.04 3.66 -1 4 C-0.67 2.68 -0.34 1.36 0 0 Z " fill="#73CF99" transform="translate(97,97)"/>
<path d="M0 0 C1.32 0 2.64 0 4 0 C3.67 1.32 3.34 2.64 3 4 C1.68 4 0.36 4 -1 4 C-0.67 2.68 -0.34 1.36 0 0 Z " fill="#74CF99" transform="translate(657,656)"/>
<path d="M0 0 C1.32 0 2.64 0 4 0 C3.67 1.32 3.34 2.64 3 4 C1.68 4 0.36 4 -1 4 C-0.67 2.68 -0.34 1.36 0 0 Z " fill="#74CF99" transform="translate(545,432)"/>
<path d="M0 0 C1.32 0 2.64 0 4 0 C3.67 1.32 3.34 2.64 3 4 C1.68 4 0.36 4 -1 4 C-0.67 2.68 -0.34 1.36 0 0 Z " fill="#74CF99" transform="translate(657,321)"/>
</svg>
