<?xml version="1.0" encoding="UTF-8"?>
<svg version="1.1" xmlns="http://www.w3.org/2000/svg" width="760" height="760">
<path d="M0 0 C250.8 0 501.6 0 760 0 C760 250.8 760 501.6 760 760 C509.2 760 258.4 760 0 760 C0 509.2 0 258.4 0 0 Z " fill="#FEFEFE" transform="translate(0,0)"/>
<path d="M0 0 C55.44 0 110.88 0 168 0 C168.99 5.94 168.99 5.94 170 12 C172.08905598 17.57081595 174.99696336 20.36978011 180.1875 23.1875 C184.3314017 24.38462716 188.70805097 24.5708051 193 25 C193 80.44 193 135.88 193 193 C188.71 193.33 184.42 193.66 180 194 C175.06565133 196.33732305 172.61299374 199.24061855 170 204 C169.34 206.31 168.68 208.62 168 211 C112.56 211 57.12 211 0 211 C-0.66 208.03 -1.32 205.06 -2 202 C-5.15234528 197.31408133 -6.63731656 196.14507338 -12 194 C-15.96 193.67 -19.92 193.34 -24 193 C-24 137.23 -24 81.46 -24 24 C-20.04 23.67 -16.08 23.34 -12 23 C-7.24418858 21.30149592 -4.81813482 19.17501455 -2 15 C-0.40486852 10.21460555 -0.41890205 5.0268246 0 0 Z " fill="#FEFEFE" transform="translate(125,104)"/>
<path d="M0 0 C1.42179714 -0.02154238 2.84346298 -0.05560233 4.26464844 -0.10253906 C18.47717089 -0.56660121 18.47717089 -0.56660121 24.40380859 4.61962891 C30.41621989 11.82762297 28.89306641 13.58185832 28.89306641 24.4050293 C84.66306641 24.4050293 140.43306641 24.4050293 197.89306641 24.4050293 C197.89306641 20.1150293 197.89306641 15.8250293 197.89306641 11.4050293 C200.14205229 6.36730092 203.7928506 2.59574608 208.89306641 0.4050293 C213.64149678 -0.26633333 218.29130443 -0.35674941 223.08081055 -0.30175781 C225.32319023 -0.28253394 227.55935446 -0.32195605 229.80126953 -0.36645508 C236.91961975 -0.40939465 242.8331797 -0.31299744 248.43237305 4.62841797 C254.4022075 11.88940499 252.89306641 13.51919076 252.89306641 24.4050293 C271.37306641 24.4050293 289.85306641 24.4050293 308.89306641 24.4050293 C308.89306641 26.7150293 308.89306641 29.0250293 308.89306641 31.4050293 C290.41306641 31.4050293 271.93306641 31.4050293 252.89306641 31.4050293 C252.89306641 35.3650293 252.89306641 39.3250293 252.89306641 43.4050293 C251.1862579 48.6202775 248.34404776 51.2631601 243.89306641 54.4050293 C238.46601302 56.93765421 235.45216953 56.4050293 228.89306641 56.4050293 C228.89306641 111.5150293 228.89306641 166.6250293 228.89306641 223.4050293 C231.86306641 223.4050293 234.83306641 223.4050293 237.89306641 223.4050293 C243.80587814 224.7365069 248.15944944 227.81767103 251.66479492 232.70727539 C254.05036769 237.94690551 253.69736993 243.64360387 253.56542969 249.29589844 C253.51807263 251.46724389 253.52434789 253.63368574 253.53759766 255.80541992 C253.50824725 262.95396571 253.47830913 268.67136483 248.89306641 274.4050293 C242.17554599 280.63102383 239.11727264 279.4050293 228.89306641 279.4050293 C228.89306641 297.8850293 228.89306641 316.3650293 228.89306641 335.4050293 C226.58306641 335.4050293 224.27306641 335.4050293 221.89306641 335.4050293 C221.89306641 316.9250293 221.89306641 298.4450293 221.89306641 279.4050293 C217.60306641 279.4050293 213.31306641 279.4050293 208.89306641 279.4050293 C202.68749422 276.08972361 200.07726991 272.92077856 197.48681641 266.45581055 C196.89306641 264.4050293 196.89306641 264.4050293 196.89306641 261.4050293 C141.45306641 261.4050293 86.01306641 261.4050293 28.89306641 261.4050293 C28.56306641 264.3750293 28.23306641 267.3450293 27.89306641 270.4050293 C26.65869141 272.74487305 26.65869141 272.74487305 25.14306641 274.3425293 C24.40830078 275.16043945 24.40830078 275.16043945 23.65869141 275.99487305 C17.65078148 280.79322588 12.81723336 279.4050293 4.89306641 279.4050293 C4.89306641 297.8850293 4.89306641 316.3650293 4.89306641 335.4050293 C2.58306641 335.4050293 0.27306641 335.4050293 -2.10693359 335.4050293 C-2.10693359 316.9250293 -2.10693359 298.4450293 -2.10693359 279.4050293 C-6.39693359 279.4050293 -10.68693359 279.4050293 -15.10693359 279.4050293 C-20.41526315 276.32045942 -23.35314414 273.88726226 -26.10693359 268.4050293 C-26.69310458 263.73766334 -26.66436629 259.06715986 -26.6628418 254.36816406 C-26.66938724 252.1085304 -26.72385309 249.85333614 -26.78076172 247.59448242 C-26.86583097 240.44361452 -26.87503075 234.48797788 -21.88793945 228.86132812 C-14.60350372 222.90496635 -13.0211605 224.4050293 -2.10693359 224.4050293 C-2.10693359 168.6350293 -2.10693359 112.8650293 -2.10693359 55.4050293 C-6.39693359 55.4050293 -10.68693359 55.4050293 -15.10693359 55.4050293 C-20.13598252 53.15991817 -23.89900735 49.48824071 -26.10693359 44.4050293 C-26.70762777 39.92940258 -26.74338024 35.52022424 -26.64892578 31.0168457 C-26.60702471 28.90961148 -26.60786981 26.80557958 -26.61474609 24.69799805 C-26.50461746 10.44600798 -26.50461746 10.44600798 -21.64208984 4.6628418 C-14.91741022 -0.50998868 -8.17913241 0.09296603 0 0 Z M28.89306641 31.4050293 C28.56306641 35.3650293 28.23306641 39.3250293 27.89306641 43.4050293 C26.19456233 48.16084072 24.06808095 50.58689448 19.89306641 53.4050293 C15.10767196 55.00016078 9.919891 54.98612725 4.89306641 55.4050293 C4.89306641 111.1750293 4.89306641 166.9450293 4.89306641 224.4050293 C8.85306641 224.7350293 12.81306641 225.0650293 16.89306641 225.4050293 C21.62457266 227.09485296 24.2743042 229.1027771 26.89306641 233.4050293 C27.55306641 236.3750293 28.21306641 239.3450293 28.89306641 242.4050293 C84.33306641 242.4050293 139.77306641 242.4050293 196.89306641 242.4050293 C198.21306641 238.7750293 199.53306641 235.1450293 200.89306641 231.4050293 C208.09396083 224.20413487 210.29845318 225.29692262 221.89306641 224.4050293 C221.89306641 168.9650293 221.89306641 113.5250293 221.89306641 56.4050293 C217.60306641 55.7450293 213.31306641 55.0850293 208.89306641 54.4050293 C203.79242331 51.76676563 200.97239173 48.98341757 198.76806641 43.7175293 C197.89306641 40.4050293 197.89306641 40.4050293 196.89306641 31.4050293 C141.45306641 31.4050293 86.01306641 31.4050293 28.89306641 31.4050293 Z " fill="#66CA8F" transform="translate(96.10693359375,72.594970703125)"/>
<path d="M0 0 C1.43532203 -0.01147094 2.87060306 -0.03184496 4.30566406 -0.06152344 C20.65250611 -0.39956465 20.65250611 -0.39956465 26.04394531 4.29516602 C30.57951406 8.70177468 31.3692927 13.16668415 31.67285156 19.35766602 C31.67580517 21.33067438 31.67810272 23.30395211 31.64086914 25.27661133 C31.60649879 27.2920301 31.62025879 29.30306175 31.63964844 31.31860352 C31.58405326 38.74611953 31.16837642 44.04003249 27.04394531 50.29516602 C22.77452633 54.45511272 19.00657184 56.29516602 13.04394531 56.29516602 C13.04394531 111.40516602 13.04394531 166.51516602 13.04394531 223.29516602 C16.01394531 223.95516602 18.98394531 224.61516602 22.04394531 225.29516602 C26.67747534 228.38418603 28.9119303 231.2001733 31.04394531 236.29516602 C31.56610427 240.57024389 31.51743271 244.82088845 31.48999023 249.12573242 C31.48149404 251.15850654 31.5102575 253.18845097 31.54199219 255.22094727 C31.5382931 262.68570912 31.26681331 268.03708907 27.04394531 274.29516602 C19.9977562 279.90335735 16.79195124 279.29516602 7.04394531 279.29516602 C7.04394531 334.73516602 7.04394531 390.17516602 7.04394531 447.29516602 C10.01394531 447.29516602 12.98394531 447.29516602 16.04394531 447.29516602 C22.38301077 448.87066474 26.41158202 451.96013243 30.04394531 457.29516602 C31.77060793 462.47515388 31.3089529 468.01354545 31.33911133 473.43652344 C31.35062523 474.87868058 31.37106822 476.32079531 31.40063477 477.76269531 C31.44348456 479.85323862 31.45950278 481.94251835 31.46972656 484.03344727 C31.49160034 485.90577026 31.49160034 485.90577026 31.51391602 487.81591797 C30.80689126 493.05010489 28.07614441 496.84282594 23.98144531 500.10766602 C18.24790474 504.37732389 11.86509429 503.6227599 5.01245117 503.70019531 C3.58381889 503.72171135 2.15531615 503.75573952 0.72729492 503.80273438 C-12.62897478 504.23757527 -12.62897478 504.23757527 -17.69433594 500.70532227 C-23.40217217 495.28995368 -25.13281482 491.28411089 -25.45214844 483.47875977 C-25.45347056 480.89665499 -25.43331414 478.31446501 -25.39355469 475.73266602 C-25.40064453 474.43135742 -25.40773438 473.13004883 -25.41503906 471.78930664 C-25.36609055 464.44326463 -25.268873 458.85510989 -20.01855469 453.21313477 C-19.33792969 452.64208008 -18.65730469 452.07102539 -17.95605469 451.48266602 C-17.27542969 450.8987207 -16.59480469 450.31477539 -15.89355469 449.71313477 C-10.71179652 445.92083998 -7.10651418 447.29516602 0.04394531 447.29516602 C0.04394531 391.85516602 0.04394531 336.41516602 0.04394531 279.29516602 C-4.24605469 279.29516602 -8.53605469 279.29516602 -12.95605469 279.29516602 C-18.59991388 276.62175903 -22.60587098 272.09383836 -24.95605469 266.29516602 C-25.41614425 261.53613873 -25.3263809 256.76160911 -25.33105469 251.98266602 C-25.35554687 250.67620117 -25.38003906 249.36973633 -25.40527344 248.02368164 C-25.43047401 239.76209345 -25.02431381 234.84204386 -19.42871094 228.58813477 C-14.87338575 225.01706267 -11.76735915 223.29516602 -5.95605469 223.29516602 C-5.95605469 167.85516602 -5.95605469 112.41516602 -5.95605469 55.29516602 C-8.26605469 55.29516602 -10.57605469 55.29516602 -12.95605469 55.29516602 C-18.87163217 52.1633897 -21.99999166 48.20729207 -24.95605469 42.29516602 C-24.95605469 38.66516602 -24.95605469 35.03516602 -24.95605469 31.29516602 C-98.54605469 31.29516602 -172.13605469 31.29516602 -247.95605469 31.29516602 C-247.95605469 28.98516602 -247.95605469 26.67516602 -247.95605469 24.29516602 C-174.36605469 24.29516602 -100.77605469 24.29516602 -24.95605469 24.29516602 C-24.95605469 20.66516602 -24.95605469 17.03516602 -24.95605469 13.29516602 C-19.09982966 1.41539525 -12.38707987 0.06887959 0 0 Z " fill="#66CA8F" transform="translate(653.9560546875,72.704833984375)"/>
<path d="M0 0 C1.53245693 -0.02149966 3.06479375 -0.05550748 4.59667969 -0.10253906 C19.89101576 -0.56745776 19.89101576 -0.56745776 25.73974609 4.52197266 C30.81749826 11.11757764 30.68666069 17.20981793 30.63549805 25.2355957 C30.62700186 27.26836982 30.65576531 29.29831425 30.6875 31.33081055 C30.68379291 38.8117094 30.3736559 44.11339838 26.18945312 50.4050293 C19.59957114 56.67345362 16.23947464 55.4050293 6.18945312 55.4050293 C6.18945312 184.7650293 6.18945312 314.1250293 6.18945312 447.4050293 C9.81945312 447.4050293 13.44945312 447.4050293 17.18945312 447.4050293 C22.96016933 450.12550979 27.6334013 453.32539097 30.18945312 459.4050293 C30.78430892 463.89960365 30.82600474 468.3266277 30.73144531 472.84814453 C30.68947635 474.9663569 30.69039436 477.08139149 30.69726562 479.19995117 C30.59253128 492.78973246 30.59253128 492.78973246 25.43554688 498.26831055 C24.83871094 498.74655273 24.241875 499.22479492 23.62695312 499.7175293 C23.02753906 500.20866211 22.428125 500.69979492 21.81054688 501.20581055 C17.04004137 504.7348351 10.87930316 503.66858493 5.1784668 503.70019531 C3.02717173 503.71732845 0.87744652 503.76120168 -1.2734375 503.80541992 C-14.16003425 503.951991 -14.16003425 503.951991 -19.81054688 499.4050293 C-25.83780117 492.90193914 -25.19124385 485.97155738 -25.32543945 477.57397461 C-25.35696365 476.05499326 -25.40459953 474.53625371 -25.46899414 473.01831055 C-26.06239763 458.81381136 -26.06239763 458.81381136 -21.08789062 452.9753418 C-14.78186196 446.85102367 -9.86149816 447.4050293 -0.81054688 447.4050293 C-0.81054688 318.0450293 -0.81054688 188.6850293 -0.81054688 55.4050293 C-5.10054687 55.4050293 -9.39054688 55.4050293 -13.81054688 55.4050293 C-19.458944 52.72947276 -23.45242234 48.20363423 -25.81054688 42.4050293 C-26.29613202 37.66757546 -26.22702742 32.91476713 -26.24804688 28.1550293 C-26.28091797 26.85694336 -26.31378906 25.55885742 -26.34765625 24.22143555 C-26.3899639 16.67528923 -26.03458517 11.13035459 -20.81054688 5.4050293 C-14.28915136 -0.50972478 -8.35068657 0.08794872 0 0 Z " fill="#66CA8F" transform="translate(542.810546875,184.594970703125)"/>
<path d="M0 0 C2.22370135 -0.01713696 4.44588559 -0.06101048 6.66918945 -0.10522461 C8.09561085 -0.11535885 9.52204486 -0.12387266 10.94848633 -0.13061523 C12.23972412 -0.14519775 13.53096191 -0.15978027 14.86132812 -0.17480469 C20.0171756 0.48000869 23.44548334 2.35261757 27.31933594 5.90844727 C31.39735179 11.96154821 31.29323779 18.14825719 31.15869141 25.27661133 C31.12432106 27.2920301 31.13808105 29.30306175 31.1574707 31.31860352 C31.10200811 38.72840604 30.73146946 44.07838223 26.56176758 50.29516602 C19.51557846 55.90335735 16.30977351 55.29516602 6.56176758 55.29516602 C6.56176758 110.73516602 6.56176758 166.17516602 6.56176758 223.29516602 C9.53176758 223.29516602 12.50176758 223.29516602 15.56176758 223.29516602 C21.90083304 224.87066474 25.92940429 227.96013243 29.56176758 233.29516602 C31.2884302 238.47515388 30.82677516 244.01354545 30.85693359 249.43652344 C30.8684475 250.87868058 30.88889049 252.32079531 30.91845703 253.76269531 C30.96130683 255.85323862 30.97732504 257.94251835 30.98754883 260.03344727 C31.00213135 261.2816626 31.01671387 262.52987793 31.03173828 263.81591797 C30.32471352 269.05010489 27.59396667 272.84282594 23.49926758 276.10766602 C17.76572701 280.37732389 11.38291655 279.6227599 4.53027344 279.70019531 C3.10164115 279.72171135 1.67313842 279.75573952 0.24511719 279.80273438 C-13.11115251 280.23757527 -13.11115251 280.23757527 -18.17651367 276.70532227 C-23.8843499 271.28995368 -25.61499256 267.28411089 -25.93432617 259.47875977 C-25.93564829 256.89665499 -25.91549187 254.31446501 -25.87573242 251.73266602 C-25.88282227 250.43135742 -25.88991211 249.13004883 -25.8972168 247.78930664 C-25.84826829 240.44326463 -25.75105073 234.85510989 -20.50073242 229.21313477 C-19.82010742 228.64208008 -19.13948242 228.07102539 -18.43823242 227.48266602 C-17.75760742 226.8987207 -17.07698242 226.31477539 -16.37573242 225.71313477 C-11.19397425 221.92083998 -7.58869192 223.29516602 -0.43823242 223.29516602 C-0.43823242 167.85516602 -0.43823242 112.41516602 -0.43823242 55.29516602 C-4.72823242 55.29516602 -9.01823242 55.29516602 -13.43823242 55.29516602 C-19.08209161 52.62175903 -23.08804871 48.09383836 -25.43823242 42.29516602 C-25.89832199 37.53613873 -25.80855864 32.76160911 -25.81323242 27.98266602 C-25.8499707 26.02296875 -25.8499707 26.02296875 -25.88745117 24.02368164 C-25.91262229 15.77175139 -25.5702158 10.70393297 -19.80541992 4.55297852 C-13.28166614 -0.39960944 -7.9353153 0.04258356 0 0 Z " fill="#67C48C" transform="translate(654.438232421875,296.704833984375)"/>
<path d="M0 0 C2.24237968 0.01922387 4.47854391 -0.02019824 6.72045898 -0.06469727 C13.83880921 -0.10763684 19.75236915 -0.01123962 25.3515625 4.93017578 C31.32139696 12.1911628 29.81225586 13.82094857 29.81225586 24.70678711 C48.29225586 24.70678711 66.77225586 24.70678711 85.81225586 24.70678711 C85.81225586 27.01678711 85.81225586 29.32678711 85.81225586 31.70678711 C67.33225586 31.70678711 48.85225586 31.70678711 29.81225586 31.70678711 C29.81225586 35.66678711 29.81225586 39.62678711 29.81225586 43.70678711 C28.10544736 48.92203531 25.26323722 51.56491792 20.81225586 54.70678711 C15.38520247 57.23941202 12.37135898 56.70678711 5.81225586 56.70678711 C5.81225586 111.81678711 5.81225586 166.92678711 5.81225586 223.70678711 C3.50225586 223.70678711 1.19225586 223.70678711 -1.18774414 223.70678711 C-1.18774414 168.59678711 -1.18774414 113.48678711 -1.18774414 56.70678711 C-4.48774414 56.70678711 -7.78774414 56.70678711 -11.18774414 56.70678711 C-18.22706356 54.05428994 -22.26086603 50.83581162 -25.50024414 43.89428711 C-26.18774414 40.70678711 -26.18774414 40.70678711 -26.18774414 31.70678711 C-81.29774414 31.70678711 -136.40774414 31.70678711 -193.18774414 31.70678711 C-193.18774414 29.39678711 -193.18774414 27.08678711 -193.18774414 24.70678711 C-137.74774414 24.70678711 -82.30774414 24.70678711 -25.18774414 24.70678711 C-25.18774414 20.41678711 -25.18774414 16.12678711 -25.18774414 11.70678711 C-20.14445167 0.40981198 -10.90886008 -0.12525208 0 0 Z " fill="#67CA8F" transform="translate(319.187744140625,72.293212890625)"/>
<path d="M0 0 C2.31 0 4.62 0 7 0 C7 73.59 7 147.18 7 223 C10.63 223 14.26 223 18 223 C23.8654396 225.89141389 28.01145909 229.02291818 31 235 C31.25945808 239.47592022 31.27111148 243.95574262 31.29516602 248.43823242 C31.31230297 250.66193377 31.35617649 252.88411801 31.40039062 255.10742188 C31.41052486 256.53384328 31.41903868 257.96027729 31.42578125 259.38671875 C31.44036377 260.67795654 31.45494629 261.96919434 31.4699707 263.29956055 C30.73723014 269.06898847 28.60953752 272.75178723 23.9375 276.375 C17.91065837 279.7089975 12.14656728 279.29109679 5.39575195 279.35009766 C4.01569684 279.36659427 2.63572494 279.39380154 1.25610352 279.43212891 C-13.08510399 279.82777215 -13.08510399 279.82777215 -18.4934082 275.5703125 C-24.85628543 268.9383199 -24.62827975 261.26741867 -24.52148438 252.48144531 C-24.49996825 250.37188736 -24.521389 248.26570667 -24.546875 246.15625 C-24.54423267 244.79947174 -24.53910963 243.44269557 -24.53125 242.0859375 C-24.52673828 240.8695459 -24.52222656 239.6531543 -24.51757812 238.39990234 C-23.73469758 233.25726345 -21.30634992 230.17571493 -17.5 226.75 C-10.92035441 222.14424808 -9.31096618 223 0 223 C0 149.41 0 75.82 0 0 Z " fill="#66CA8F" transform="translate(94,409)"/>
<path d="M0 0 C2.31 0 4.62 0 7 0 C7 36.63 7 73.26 7 111 C10.63 111 14.26 111 18 111 C23.8654396 113.89141389 28.01145909 117.02291818 31 123 C31.30685618 127.6003305 31.35648193 132.20099935 31.4050293 136.81054688 C31.42652896 138.34300381 31.46053677 139.87534063 31.50756836 141.40722656 C31.94314181 155.73619816 31.94314181 155.73619816 28.41015625 160.8671875 C23.10179054 166.37726341 18.42262769 167.13076757 11 167.43359375 C9.01305781 167.44640637 7.02600538 167.458751 5.0390625 167.44604492 C3.00418387 167.43751753 0.97210358 167.46637894 -1.0625 167.49804688 C-8.20168436 167.49450561 -13.28469144 167.47822878 -19 163 C-25.70696201 156.11176874 -25.3648788 148.18347638 -25.375 139.125 C-25.39949219 137.97902344 -25.42398437 136.83304688 -25.44921875 135.65234375 C-25.47505691 128.16789137 -24.96952733 122.15294225 -19.55224609 116.48535156 C-12.83901885 110.60203886 -9.58721901 111 0 111 C0 74.37 0 37.74 0 0 Z " fill="#67CA8F" transform="translate(318,409)"/>
<path d="M0 0 C7.59 0 15.18 0 23 0 C21.68 0.33 20.36 0.66 19 1 C19 56.11 19 111.22 19 168 C19.99 168.33 20.98 168.66 22 169 C13.42 169 4.84 169 -4 169 C-2.68 168.67 -1.36 168.34 0 168 C0 112.56 0 57.12 0 0 Z " fill="#A3A9A6" transform="translate(648,128)"/>
<path d="M0 0 C9.12671432 -0.42209439 17.33592464 -0.71622861 24.63671875 5.53686523 C30.06890364 11.63726765 29.82051186 18.27105483 29.64013672 25.99829102 C29.59277966 28.16963647 29.59905493 30.33607832 29.61230469 32.5078125 C29.58295428 39.65635828 29.55301616 45.37375741 24.96777344 51.10742188 C18.25025302 57.3334164 15.19197967 56.10742188 4.96777344 56.10742188 C4.96777344 74.58742188 4.96777344 93.06742188 4.96777344 112.10742188 C2.65777344 112.10742188 0.34777344 112.10742188 -2.03222656 112.10742188 C-2.03222656 93.62742187 -2.03222656 75.14742187 -2.03222656 56.10742188 C-6.32222656 56.10742188 -10.61222656 56.10742188 -15.03222656 56.10742188 C-20.939368 52.75471998 -23.36374556 50.35319123 -26.03222656 44.10742188 C-26.55875528 39.51596418 -26.50560596 34.92944748 -26.47827148 30.3125 C-26.46974812 28.11298387 -26.49858167 25.91605794 -26.53027344 23.71679688 C-26.53188556 22.30533931 -26.53130771 20.8938772 -26.52832031 19.48242188 C-26.53017334 18.21140625 -26.53202637 16.94039063 -26.53393555 15.63085938 C-25.77890214 10.32835709 -23.36102319 7.27802842 -19.40722656 3.79492188 C-13.64411448 -0.29992092 -6.87319854 0.36331179 0 0 Z " fill="#66CA8E" transform="translate(320.0322265625,295.892578125)"/>
<path d="M0 0 C0.33 0 0.66 0 1 0 C1 8.58 1 17.16 1 26 C0.67 25.01 0.34 24.02 0 23 C-55.44 23 -110.88 23 -168 23 C-168 16.73 -168 10.46 -168 4 C-112.56 4 -57.12 4 0 4 C0 2.68 0 1.36 0 0 Z " fill="#A2A5A3" transform="translate(293,311)"/>
<path d="M0 0 C1.19882812 -0.02900391 2.39765625 -0.05800781 3.6328125 -0.08789062 C11.40259128 -0.14326734 18.52272663 0.31183237 24.48876953 5.79589844 C29.9252437 11.98876827 29.12705552 18.70188716 29.17016602 26.45385742 C29.18167992 27.89601457 29.20212291 29.33812929 29.23168945 30.7800293 C29.27453925 32.87057261 29.29055746 34.95985234 29.30078125 37.05078125 C29.31536377 38.29899658 29.32994629 39.54721191 29.3449707 40.83325195 C28.63794595 46.06743887 25.9071991 49.86015992 21.8125 53.125 C16.07895943 57.39465787 9.69614898 56.64009388 2.84350586 56.7175293 C1.41487357 56.73904533 -0.01362916 56.77307351 -1.44165039 56.82006836 C-14.79792009 57.25490926 -14.79792009 57.25490926 -19.86328125 53.72265625 C-25.57111748 48.30728766 -27.30176014 44.30144487 -27.62109375 36.49609375 C-27.62241587 33.91398897 -27.60225945 31.33179899 -27.5625 28.75 C-27.56958984 27.44869141 -27.57667969 26.14738281 -27.58398438 24.80664062 C-27.53503586 17.46059861 -27.43781831 11.87244387 -22.1875 6.23046875 C-21.506875 5.65941406 -20.82625 5.08835937 -20.125 4.5 C-19.444375 3.91605469 -18.76375 3.33210937 -18.0625 2.73046875 C-12.91359167 -1.03778473 -6.08721439 0.04815834 0 0 Z " fill="#66CA8F" transform="translate(656.125,519.6875)"/>
<path d="M0 0 C1.94036133 -0.04930664 1.94036133 -0.04930664 3.91992188 -0.09960938 C11.4790549 -0.14214158 17.03732843 0.11684249 22.6875 5.4375 C23.20546143 5.88029297 23.72342285 6.32308594 24.25708008 6.77929688 C29.15873856 12.0273472 28.3704005 19.14284955 28.22949219 25.88061523 C28.18752323 27.9988276 28.18844123 30.11386219 28.1953125 32.23242188 C28.09057815 45.82220317 28.09057815 45.82220317 22.93359375 51.30078125 C22.33675781 51.77902344 21.73992188 52.25726562 21.125 52.75 C20.52558594 53.24113281 19.92617188 53.73226562 19.30859375 54.23828125 C14.53808824 57.76730581 8.37735003 56.70105563 2.67651367 56.73266602 C0.52521861 56.74979916 -1.6245066 56.79367238 -3.77539062 56.83789062 C-16.66198737 56.9844617 -16.66198737 56.9844617 -22.3125 52.4375 C-28.3397543 45.93440984 -27.69319697 39.00402808 -27.82739258 30.60644531 C-27.85891678 29.08746396 -27.90655266 27.56872441 -27.97094727 26.05078125 C-28.56435075 11.84628206 -28.56435075 11.84628206 -23.58984375 6.0078125 C-16.69566221 -0.68771066 -9.09514187 0.04042285 0 0 Z " fill="#66CA8F" transform="translate(545.3125,631.5625)"/>
<path d="M0 0 C1.42179714 -0.02154238 2.84346298 -0.05560233 4.26464844 -0.10253906 C17.56741801 -0.53689628 17.56741801 -0.53689628 22.68994141 3.11987305 C27.69131944 7.81381182 29.22813477 11.57444584 29.56396484 18.34790039 C29.59006836 19.21237793 29.61617187 20.07685547 29.64306641 20.9675293 C29.6769043 21.85778809 29.71074219 22.74804688 29.74560547 23.6652832 C30.35937067 43.09059913 30.35937067 43.09059913 25.89306641 49.4050293 C18.10519808 57.21423425 8.27227283 56.17962335 -2.10693359 56.4050293 C-15.91594951 56.33646417 -15.91594951 56.33646417 -21.10693359 51.4050293 C-26.58190987 45.81599102 -26.76001735 40.71322002 -26.69287109 33.11206055 C-26.67836914 32.42063965 -26.66386719 31.72921875 -26.64892578 31.0168457 C-26.60702471 28.90961148 -26.60786981 26.80557958 -26.61474609 24.69799805 C-26.50461746 10.44600798 -26.50461746 10.44600798 -21.64208984 4.6628418 C-14.91741022 -0.50998868 -8.17913241 0.09296603 0 0 Z " fill="#66CA8F" transform="translate(96.10693359375,72.594970703125)"/>
<path d="M0 0 C129.03 0 258.06 0 391 0 C391 2.31 391 4.62 391 7 C261.97 7 132.94 7 0 7 C0 4.69 0 2.38 0 0 Z " fill="#787878" transform="translate(126,662)"/>
<path d="M0 0 C2.31 0 4.62 0 7 0 C7 129.03 7 258.06 7 391 C4.69 391 2.38 391 0 391 C0 261.97 0 132.94 0 0 Z " fill="#5A5A5A" transform="translate(542,241)"/>
<path d="M0 0 C92.07 0 184.14 0 279 0 C279 2.31 279 4.62 279 7 C186.93 7 94.86 7 0 7 C0 4.69 0 2.38 0 0 Z " fill="#242424" transform="translate(126,651)"/>
<path d="M0 0 C2.31 0 4.62 0 7 0 C7 73.59 7 147.18 7 223 C4.69 223 2.38 223 0 223 C0 149.41 0 75.82 0 0 Z " fill="#1E1E1E" transform="translate(94,409)"/>
<path d="M0 0 C73.59 0 147.18 0 223 0 C223 2.31 223 4.62 223 7 C149.41 7 75.82 7 0 7 C0 4.69 0 2.38 0 0 Z " fill="#1E1E1E" transform="translate(406,97)"/>
<path d="M0 0 C2.31 0 4.62 0 7 0 C7 55.11 7 110.22 7 167 C4.69 167 2.38 167 0 167 C0 111.89 0 56.78 0 0 Z " fill="#1A1A1A" transform="translate(648,129)"/>
<path d="M0 0 C2.31 0 4.62 0 7 0 C7 55.11 7 110.22 7 167 C4.69 167 2.38 167 0 167 C0 111.89 0 56.78 0 0 Z " fill="#161616" transform="translate(318,129)"/>
<path d="M0 0 C2.31 0 4.62 0 7 0 C7 55.11 7 110.22 7 167 C4.69 167 2.38 167 0 167 C0 111.89 0 56.78 0 0 Z " fill="#191919" transform="translate(94,129)"/>
<path d="M0 0 C55.11 0 110.22 0 167 0 C167 2.31 167 4.62 167 7 C111.89 7 56.78 7 0 7 C0 4.69 0 2.38 0 0 Z " fill="#191919" transform="translate(126,97)"/>
<path d="M0 0 C36.63 0 73.26 0 111 0 C111 2.31 111 4.62 111 7 C74.37 7 37.74 7 0 7 C0 4.69 0 2.38 0 0 Z " fill="#131313" transform="translate(406,651)"/>
<path d="M0 0 C2.31 0 4.62 0 7 0 C7 36.63 7 73.26 7 111 C4.69 111 2.38 111 0 111 C0 74.37 0 37.74 0 0 Z " fill="#101010" transform="translate(318,409)"/>
<path d="M0 0 C1.32 0 2.64 0 4 0 C4 55.11 4 110.22 4 167 C2.68 167 1.36 167 0 167 C0 111.89 0 56.78 0 0 Z " fill="#FFFFFF" transform="translate(655,129)"/>
<path d="M0 0 C55.11 0 110.22 0 167 0 C167 0.99 167 1.98 167 3 C111.89 3 56.78 3 0 3 C0 2.01 0 1.02 0 0 Z " fill="#FFFFFF" transform="translate(126,323)"/>
<path d="M0 0 C2.31 0 4.62 0 7 0 C7 18.15 7 36.3 7 55 C4.69 55 2.38 55 0 55 C0 36.85 0 18.7 0 0 Z " fill="#0A0A0A" transform="translate(318,353)"/>
<path d="M0 0 C2.31 0 4.62 0 7 0 C7 18.15 7 36.3 7 55 C4.69 55 2.38 55 0 55 C0 36.85 0 18.7 0 0 Z " fill="#0A0A0A" transform="translate(94,353)"/>
<path d="M0 0 C18.15 0 36.3 0 55 0 C55 2.31 55 4.62 55 7 C36.85 7 18.7 7 0 7 C0 4.69 0 2.38 0 0 Z " fill="#0A0A0A" transform="translate(350,97)"/>
<path d="M0 0 C18.15 0 36.3 0 55 0 C55 1.98 55 3.96 55 6 C36.85 6 18.7 6 0 6 C0 4.02 0 2.04 0 0 Z " fill="#000000" transform="translate(462,663)"/>
<path d="M0 0 C18.15 0 36.3 0 55 0 C55 1.98 55 3.96 55 6 C36.85 6 18.7 6 0 6 C0 4.02 0 2.04 0 0 Z " fill="#000000" transform="translate(406,663)"/>
<path d="M0 0 C18.15 0 36.3 0 55 0 C55 1.98 55 3.96 55 6 C36.85 6 18.7 6 0 6 C0 4.02 0 2.04 0 0 Z " fill="#000000" transform="translate(350,663)"/>
<path d="M0 0 C18.15 0 36.3 0 55 0 C55 1.98 55 3.96 55 6 C36.85 6 18.7 6 0 6 C0 4.02 0 2.04 0 0 Z " fill="#000000" transform="translate(294,663)"/>
<path d="M0 0 C18.15 0 36.3 0 55 0 C55 1.98 55 3.96 55 6 C36.85 6 18.7 6 0 6 C0 4.02 0 2.04 0 0 Z " fill="#000000" transform="translate(238,663)"/>
<path d="M0 0 C18.15 0 36.3 0 55 0 C55 1.98 55 3.96 55 6 C36.85 6 18.7 6 0 6 C0 4.02 0 2.04 0 0 Z " fill="#000000" transform="translate(182,663)"/>
<path d="M0 0 C18.15 0 36.3 0 55 0 C55 1.98 55 3.96 55 6 C36.85 6 18.7 6 0 6 C0 4.02 0 2.04 0 0 Z " fill="#000000" transform="translate(126,663)"/>
<path d="M0 0 C18.15 0 36.3 0 55 0 C55 1.98 55 3.96 55 6 C36.85 6 18.7 6 0 6 C0 4.02 0 2.04 0 0 Z " fill="#000000" transform="translate(462,652)"/>
<path d="M0 0 C18.15 0 36.3 0 55 0 C55 1.98 55 3.96 55 6 C36.85 6 18.7 6 0 6 C0 4.02 0 2.04 0 0 Z " fill="#000000" transform="translate(350,652)"/>
<path d="M0 0 C18.15 0 36.3 0 55 0 C55 1.98 55 3.96 55 6 C36.85 6 18.7 6 0 6 C0 4.02 0 2.04 0 0 Z " fill="#000000" transform="translate(294,652)"/>
<path d="M0 0 C18.15 0 36.3 0 55 0 C55 1.98 55 3.96 55 6 C36.85 6 18.7 6 0 6 C0 4.02 0 2.04 0 0 Z " fill="#000000" transform="translate(238,652)"/>
<path d="M0 0 C18.15 0 36.3 0 55 0 C55 1.98 55 3.96 55 6 C36.85 6 18.7 6 0 6 C0 4.02 0 2.04 0 0 Z " fill="#000000" transform="translate(182,652)"/>
<path d="M0 0 C1.98 0 3.96 0 6 0 C6 18.15 6 36.3 6 55 C4.02 55 2.04 55 0 55 C0 36.85 0 18.7 0 0 Z " fill="#000000" transform="translate(542,577)"/>
<path d="M0 0 C1.98 0 3.96 0 6 0 C6 18.15 6 36.3 6 55 C4.02 55 2.04 55 0 55 C0 36.85 0 18.7 0 0 Z " fill="#010101" transform="translate(95,577)"/>
<path d="M0 0 C1.98 0 3.96 0 6 0 C6 18.15 6 36.3 6 55 C4.02 55 2.04 55 0 55 C0 36.85 0 18.7 0 0 Z " fill="#000000" transform="translate(542,521)"/>
<path d="M0 0 C1.98 0 3.96 0 6 0 C6 18.15 6 36.3 6 55 C4.02 55 2.04 55 0 55 C0 36.85 0 18.7 0 0 Z " fill="#010101" transform="translate(95,521)"/>
<path d="M0 0 C1.98 0 3.96 0 6 0 C6 18.15 6 36.3 6 55 C4.02 55 2.04 55 0 55 C0 36.85 0 18.7 0 0 Z " fill="#000000" transform="translate(654,465)"/>
<path d="M0 0 C1.98 0 3.96 0 6 0 C6 18.15 6 36.3 6 55 C4.02 55 2.04 55 0 55 C0 36.85 0 18.7 0 0 Z " fill="#000000" transform="translate(542,465)"/>
<path d="M0 0 C1.98 0 3.96 0 6 0 C6 18.15 6 36.3 6 55 C4.02 55 2.04 55 0 55 C0 36.85 0 18.7 0 0 Z " fill="#040404" transform="translate(318,465)"/>
<path d="M0 0 C1.98 0 3.96 0 6 0 C6 18.15 6 36.3 6 55 C4.02 55 2.04 55 0 55 C0 36.85 0 18.7 0 0 Z " fill="#010101" transform="translate(95,465)"/>
<path d="M0 0 C1.98 0 3.96 0 6 0 C6 18.15 6 36.3 6 55 C4.02 55 2.04 55 0 55 C0 36.85 0 18.7 0 0 Z " fill="#000000" transform="translate(654,409)"/>
<path d="M0 0 C1.98 0 3.96 0 6 0 C6 18.15 6 36.3 6 55 C4.02 55 2.04 55 0 55 C0 36.85 0 18.7 0 0 Z " fill="#000000" transform="translate(542,409)"/>
<path d="M0 0 C1.98 0 3.96 0 6 0 C6 18.15 6 36.3 6 55 C4.02 55 2.04 55 0 55 C0 36.85 0 18.7 0 0 Z " fill="#000000" transform="translate(654,353)"/>
<path d="M0 0 C1.98 0 3.96 0 6 0 C6 18.15 6 36.3 6 55 C4.02 55 2.04 55 0 55 C0 36.85 0 18.7 0 0 Z " fill="#000000" transform="translate(542,353)"/>
<path d="M0 0 C18.15 0 36.3 0 55 0 C55 1.98 55 3.96 55 6 C36.85 6 18.7 6 0 6 C0 4.02 0 2.04 0 0 Z " fill="#000000" transform="translate(238,327)"/>
<path d="M0 0 C18.15 0 36.3 0 55 0 C55 1.98 55 3.96 55 6 C36.85 6 18.7 6 0 6 C0 4.02 0 2.04 0 0 Z " fill="#000000" transform="translate(182,327)"/>
<path d="M0 0 C18.15 0 36.3 0 55 0 C55 1.98 55 3.96 55 6 C36.85 6 18.7 6 0 6 C0 4.02 0 2.04 0 0 Z " fill="#000000" transform="translate(126,327)"/>
<path d="M0 0 C18.15 0 36.3 0 55 0 C55 1.98 55 3.96 55 6 C36.85 6 18.7 6 0 6 C0 4.02 0 2.04 0 0 Z " fill="#000000" transform="translate(238,316)"/>
<path d="M0 0 C18.15 0 36.3 0 55 0 C55 1.98 55 3.96 55 6 C36.85 6 18.7 6 0 6 C0 4.02 0 2.04 0 0 Z " fill="#000000" transform="translate(182,316)"/>
<path d="M0 0 C18.15 0 36.3 0 55 0 C55 1.98 55 3.96 55 6 C36.85 6 18.7 6 0 6 C0 4.02 0 2.04 0 0 Z " fill="#000000" transform="translate(126,316)"/>
<path d="M0 0 C1.98 0 3.96 0 6 0 C6 18.15 6 36.3 6 55 C4.02 55 2.04 55 0 55 C0 36.85 0 18.7 0 0 Z " fill="#000000" transform="translate(542,297)"/>
<path d="M0 0 C1.98 0 3.96 0 6 0 C6 18.15 6 36.3 6 55 C4.02 55 2.04 55 0 55 C0 36.85 0 18.7 0 0 Z " fill="#000000" transform="translate(660,241)"/>
<path d="M0 0 C1.98 0 3.96 0 6 0 C6 18.15 6 36.3 6 55 C4.02 55 2.04 55 0 55 C0 36.85 0 18.7 0 0 Z " fill="#000000" transform="translate(649,241)"/>
<path d="M0 0 C1.98 0 3.96 0 6 0 C6 18.15 6 36.3 6 55 C4.02 55 2.04 55 0 55 C0 36.85 0 18.7 0 0 Z " fill="#000000" transform="translate(542,241)"/>
<path d="M0 0 C1.98 0 3.96 0 6 0 C6 18.15 6 36.3 6 55 C4.02 55 2.04 55 0 55 C0 36.85 0 18.7 0 0 Z " fill="#040404" transform="translate(318,241)"/>
<path d="M0 0 C1.98 0 3.96 0 6 0 C6 18.15 6 36.3 6 55 C4.02 55 2.04 55 0 55 C0 36.85 0 18.7 0 0 Z " fill="#010101" transform="translate(95,241)"/>
<path d="M0 0 C1.98 0 3.96 0 6 0 C6 18.15 6 36.3 6 55 C4.02 55 2.04 55 0 55 C0 36.85 0 18.7 0 0 Z " fill="#000000" transform="translate(660,185)"/>
<path d="M0 0 C1.98 0 3.96 0 6 0 C6 18.15 6 36.3 6 55 C4.02 55 2.04 55 0 55 C0 36.85 0 18.7 0 0 Z " fill="#000000" transform="translate(649,185)"/>
<path d="M0 0 C1.98 0 3.96 0 6 0 C6 18.15 6 36.3 6 55 C4.02 55 2.04 55 0 55 C0 36.85 0 18.7 0 0 Z " fill="#040404" transform="translate(318,185)"/>
<path d="M0 0 C1.98 0 3.96 0 6 0 C6 18.15 6 36.3 6 55 C4.02 55 2.04 55 0 55 C0 36.85 0 18.7 0 0 Z " fill="#010101" transform="translate(95,185)"/>
<path d="M0 0 C1.98 0 3.96 0 6 0 C6 18.15 6 36.3 6 55 C4.02 55 2.04 55 0 55 C0 36.85 0 18.7 0 0 Z " fill="#000000" transform="translate(660,129)"/>
<path d="M0 0 C18.15 0 36.3 0 55 0 C55 1.98 55 3.96 55 6 C36.85 6 18.7 6 0 6 C0 4.02 0 2.04 0 0 Z " fill="#010101" transform="translate(574,98)"/>
<path d="M0 0 C18.15 0 36.3 0 55 0 C55 1.98 55 3.96 55 6 C36.85 6 18.7 6 0 6 C0 4.02 0 2.04 0 0 Z " fill="#010101" transform="translate(518,98)"/>
<path d="M0 0 C18.15 0 36.3 0 55 0 C55 1.98 55 3.96 55 6 C36.85 6 18.7 6 0 6 C0 4.02 0 2.04 0 0 Z " fill="#010101" transform="translate(462,98)"/>
<path d="M0 0 C18.15 0 36.3 0 55 0 C55 1.98 55 3.96 55 6 C36.85 6 18.7 6 0 6 C0 4.02 0 2.04 0 0 Z " fill="#010101" transform="translate(238,98)"/>
<path d="M0 0 C18.15 0 36.3 0 55 0 C55 1.98 55 3.96 55 6 C36.85 6 18.7 6 0 6 C0 4.02 0 2.04 0 0 Z " fill="#010101" transform="translate(182,98)"/>
<path d="M0 0 C2.05078125 0.03255208 4.1015625 0.06510417 6.15234375 0.09765625 C6.15234375 4.71765625 6.15234375 9.33765625 6.15234375 14.09765625 C7.14234375 14.09765625 8.13234375 14.09765625 9.15234375 14.09765625 C9.15234375 15.74765625 9.15234375 17.39765625 9.15234375 19.09765625 C8.16234375 19.09765625 7.17234375 19.09765625 6.15234375 19.09765625 C6.15234375 20.08765625 6.15234375 21.07765625 6.15234375 22.09765625 C4.17234375 22.09765625 2.19234375 22.09765625 0.15234375 22.09765625 C0.15234375 21.10765625 0.15234375 20.11765625 0.15234375 19.09765625 C-3.14765625 19.09765625 -6.44765625 19.09765625 -9.84765625 19.09765625 C-11.00505754 11.65721941 -7.07825154 6.96164684 -2.84765625 1.09765625 C-1.84765625 0.09765625 -1.84765625 0.09765625 0 0 Z " fill="#F8FCFA" transform="translate(321.84765625,313.90234375)"/>
<path d="M0 0 C2.1875 0.02734375 2.1875 0.02734375 5.6875 0.83984375 C5.6875 5.45984375 5.6875 10.07984375 5.6875 14.83984375 C6.6775 14.83984375 7.6675 14.83984375 8.6875 14.83984375 C8.6875 16.48984375 8.6875 18.13984375 8.6875 19.83984375 C7.6975 19.83984375 6.7075 19.83984375 5.6875 19.83984375 C5.6875 20.82984375 5.6875 21.81984375 5.6875 22.83984375 C3.7075 22.83984375 1.7275 22.83984375 -0.3125 22.83984375 C-0.3125 21.84984375 -0.3125 20.85984375 -0.3125 19.83984375 C-3.6125 19.83984375 -6.9125 19.83984375 -10.3125 19.83984375 C-10.87228002 13.26242855 -8.16186957 8.84816666 -4.625 3.5234375 C-2.3125 0.83984375 -2.3125 0.83984375 0 0 Z " fill="#F9FDFA" transform="translate(98.3125,313.16015625)"/>
<path d="M0 0 C2.16796875 0.3515625 2.16796875 0.3515625 4.79296875 2.0390625 C6.16796875 4.3515625 6.16796875 4.3515625 5.98046875 6.9765625 C5.16796875 9.3515625 5.16796875 9.3515625 4.16796875 11.3515625 C4.68359375 11.7434375 5.19921875 12.1353125 5.73046875 12.5390625 C7.16796875 14.3515625 7.16796875 14.3515625 7.04296875 16.8515625 C6.08912655 19.57682593 5.41513301 20.58593344 3.16796875 22.3515625 C-0.22271921 23.04119395 -3.42908408 22.94762012 -6.83203125 22.3515625 C-9.95703125 19.9765625 -9.95703125 19.9765625 -11.83203125 17.3515625 C-11.83203125 16.6915625 -11.83203125 16.0315625 -11.83203125 15.3515625 C-7.3636391 15.13878192 -4.00940599 15.76018165 0.16796875 17.3515625 C0.16796875 16.3615625 0.16796875 15.3715625 0.16796875 14.3515625 C-2.80203125 13.8565625 -2.80203125 13.8565625 -5.83203125 13.3515625 C-5.83203125 12.0315625 -5.83203125 10.7115625 -5.83203125 9.3515625 C-3.85203125 9.0215625 -1.87203125 8.6915625 0.16796875 8.3515625 C-0.16203125 7.6915625 -0.49203125 7.0315625 -0.83203125 6.3515625 C-2.8566638 5.69942958 -2.8566638 5.69942958 -4.83203125 5.3515625 C-4.83203125 6.0115625 -4.83203125 6.6715625 -4.83203125 7.3515625 C-6.81203125 7.3515625 -8.79203125 7.3515625 -10.83203125 7.3515625 C-9.68781464 0.71510615 -6.17443215 -0.22159463 0 0 Z " fill="#F6FCF8" transform="translate(99.83203125,648.6484375)"/>
<path d="M0 0 C2.625 1.6875 2.625 1.6875 4 4 C3.75 6.5625 3.75 6.5625 3 9 C3 9.99 3 10.98 3 12 C3.33 12.33 3.66 12.66 4 13 C4.46444644 18.34113411 4.46444644 18.34113411 2.82421875 20.66796875 C-0.84421625 23.34663328 -5.68147423 22.59476702 -10 22 C-12.6875 20.1875 -12.6875 20.1875 -14 18 C-14 17.01 -14 16.02 -14 15 C-10.16774573 14.91087781 -6.73437848 15.12132271 -3 16 C-2.67 15.34 -2.34 14.68 -2 14 C-4.97 13.505 -4.97 13.505 -8 13 C-8 11.68 -8 10.36 -8 9 C-7.360625 8.896875 -6.72125 8.79375 -6.0625 8.6875 C-5.381875 8.460625 -4.70125 8.23375 -4 8 C-3.67 7.01 -3.34 6.02 -3 5 C-4.32 5 -5.64 5 -7 5 C-7 5.66 -7 6.32 -7 7 C-8.98 7 -10.96 7 -13 7 C-12.6875 4.625 -12.6875 4.625 -12 2 C-7.98272339 -0.67818441 -4.71973745 -0.68882655 0 0 Z " fill="#F7FCF9" transform="translate(326,90)"/>
<path d="M0 0 C2.5 1.125 2.5 1.125 4 3 C4.25 6 4.25 6 4 9 C4 9.99 4 10.98 4 12 C4.33 12.33 4.66 12.66 5 13 C5.3125 15.875 5.3125 15.875 5 19 C2.12887152 21.8054276 -0.03555461 22.43145664 -4 22.4375 C-7.47944353 22.33486155 -8.69827908 22.20833111 -11.625 20.1875 C-13 18 -13 18 -13 15 C-9.16774573 14.91087781 -5.73437848 15.12132271 -2 16 C-1.67 15.34 -1.34 14.68 -1 14 C-3.97 13.505 -3.97 13.505 -7 13 C-7 11.68 -7 10.36 -7 9 C-6.360625 8.896875 -5.72125 8.79375 -5.0625 8.6875 C-4.381875 8.460625 -3.70125 8.23375 -3 8 C-2.67 7.01 -2.34 6.02 -2 5 C-3.0828125 5.495 -3.0828125 5.495 -4.1875 6 C-7.01697427 7.00603529 -9.02895466 7.16977402 -12 7 C-11.6875 4.625 -11.6875 4.625 -11 2 C-7.29376793 -0.47082138 -4.29660742 -0.54464038 0 0 Z " fill="#F9FCFA" transform="translate(549,649)"/>
<path d="M0 0 C2.5 1.125 2.5 1.125 4 3 C4.25 6 4.25 6 4 9 C4 9.99 4 10.98 4 12 C4.33 12.33 4.66 12.66 5 13 C5.3125 15.875 5.3125 15.875 5 19 C2.12887152 21.8054276 -0.03555461 22.43145664 -4 22.4375 C-7.47944353 22.33486155 -8.69827908 22.20833111 -11.625 20.1875 C-13 18 -13 18 -13 15 C-9.16774573 14.91087781 -5.73437848 15.12132271 -2 16 C-1.67 15.34 -1.34 14.68 -1 14 C-3.97 13.505 -3.97 13.505 -7 13 C-7 11.68 -7 10.36 -7 9 C-6.360625 8.896875 -5.72125 8.79375 -5.0625 8.6875 C-4.381875 8.460625 -3.70125 8.23375 -3 8 C-2.67 7.01 -2.34 6.02 -2 5 C-3.0828125 5.495 -3.0828125 5.495 -4.1875 6 C-7.01697427 7.00603529 -9.02895466 7.16977402 -12 7 C-11.6875 4.625 -11.6875 4.625 -11 2 C-7.29376793 -0.47082138 -4.29660742 -0.54464038 0 0 Z " fill="#F9FCFA" transform="translate(661,314)"/>
<path d="M0 0 C2.5 1.125 2.5 1.125 4 3 C4.25 6 4.25 6 4 9 C4 9.99 4 10.98 4 12 C4.33 12.33 4.66 12.66 5 13 C5.3125 15.875 5.3125 15.875 5 19 C2.12887152 21.8054276 -0.03555461 22.43145664 -4 22.4375 C-7.47944353 22.33486155 -8.69827908 22.20833111 -11.625 20.1875 C-13 18 -13 18 -13 15 C-9.16774573 14.91087781 -5.73437848 15.12132271 -2 16 C-1.67 15.34 -1.34 14.68 -1 14 C-3.97 13.505 -3.97 13.505 -7 13 C-7 11.68 -7 10.36 -7 9 C-6.360625 8.896875 -5.72125 8.79375 -5.0625 8.6875 C-4.381875 8.460625 -3.70125 8.23375 -3 8 C-2.67 7.01 -2.34 6.02 -2 5 C-3.0828125 5.495 -3.0828125 5.495 -4.1875 6 C-7.01697427 7.00603529 -9.02895466 7.16977402 -12 7 C-11.6875 4.625 -11.6875 4.625 -11 2 C-7.29376793 -0.47082138 -4.29660742 -0.54464038 0 0 Z " fill="#F9FCFA" transform="translate(661,90)"/>
<path d="M0 0 C2.16796875 0.34375 2.16796875 0.34375 4.79296875 1.90625 C6.16796875 4.34375 6.16796875 4.34375 6.29296875 7.78125 C4.82868024 12.4181636 3.08487821 13.59357953 -0.83203125 16.34375 C1.47796875 16.67375 3.78796875 17.00375 6.16796875 17.34375 C6.16796875 18.99375 6.16796875 20.64375 6.16796875 22.34375 C0.55796875 22.34375 -5.05203125 22.34375 -10.83203125 22.34375 C-10.83203125 17.34375 -10.83203125 17.34375 -8.64453125 14.95703125 C-7.25234375 13.81814453 -7.25234375 13.81814453 -5.83203125 12.65625 C-4.13543399 11.25420087 -2.46073448 9.8241249 -0.83203125 8.34375 C-0.83203125 7.68375 -0.83203125 7.02375 -0.83203125 6.34375 C-2.15203125 6.01375 -3.47203125 5.68375 -4.83203125 5.34375 C-5.16203125 6.33375 -5.49203125 7.32375 -5.83203125 8.34375 C-7.48203125 8.34375 -9.13203125 8.34375 -10.83203125 8.34375 C-9.8568179 1.12717124 -6.89479386 -0.26994299 0 0 Z " fill="#F8FCFA" transform="translate(99.83203125,89.65625)"/>
<path d="M0 0 C0 7.26 0 14.52 0 22 C-1.98 22 -3.96 22 -6 22 C-6.33 17.05 -6.66 12.1 -7 7 C-8.65 7.66 -10.3 8.32 -12 9 C-12.3125 6.75 -12.3125 6.75 -12 4 C-7.94187515 -0.55001877 -6.58369599 0 0 0 Z " fill="#FBFDFC" transform="translate(662,537)"/>
<path d="M0 0 C0 7.26 0 14.52 0 22 C-1.98 22 -3.96 22 -6 22 C-6.33 17.05 -6.66 12.1 -7 7 C-8.65 7.66 -10.3 8.32 -12 9 C-12.3125 6.75 -12.3125 6.75 -12 4 C-7.94187515 -0.55001877 -6.58369599 0 0 0 Z " fill="#FBFDFC" transform="translate(550,202)"/>
<path d="M0 0 C0 7.26 0 14.52 0 22 C-1.98 22 -3.96 22 -6 22 C-6.33 17.05 -6.66 12.1 -7 7 C-8.98 7.99 -8.98 7.99 -11 9 C-11.3125 6.1875 -11.3125 6.1875 -11 3 C-7.16447589 -0.38428598 -5.39581949 0 0 0 Z " fill="#FCFEFD" transform="translate(326,537)"/>
<path d="M0 0 C0.33 0 0.66 0 1 0 C1 2.64 1 5.28 1 8 C-0.65 8 -2.3 8 -4 8 C-2.87548273 5.0280615 -1.77706209 2.66559313 0 0 Z " fill="#81D4A3" transform="translate(98,320)"/>
<path d="M0 0 C0.33 0 0.66 0 1 0 C1 2.31 1 4.62 1 7 C-0.65 7 -2.3 7 -4 7 C-2.68 4.69 -1.36 2.38 0 0 Z " fill="#72CE98" transform="translate(321,321)"/>
<path d="M0 0 C1.65 0.33 3.3 0.66 5 1 C5 1.66 5 2.32 5 3 C3.02 3.33 1.04 3.66 -1 4 C-0.67 2.68 -0.34 1.36 0 0 Z " fill="#73CF99" transform="translate(95,654)"/>
<path d="M0 0 C1.32 0 2.64 0 4 0 C3.67 1.32 3.34 2.64 3 4 C1.68 4 0.36 4 -1 4 C-0.67 2.68 -0.34 1.36 0 0 Z " fill="#74CF99" transform="translate(543,654)"/>
<path d="M0 0 C1.32 0 2.64 0 4 0 C3.67 1.32 3.34 2.64 3 4 C1.68 4 0.36 4 -1 4 C-0.67 2.68 -0.34 1.36 0 0 Z " fill="#74CF99" transform="translate(655,319)"/>
<path d="M0 0 C1.32 0 2.64 0 4 0 C3.67 1.32 3.34 2.64 3 4 C1.68 4 0.36 4 -1 4 C-0.67 2.68 -0.34 1.36 0 0 Z " fill="#74CF99" transform="translate(655,95)"/>
</svg>
