<?xml version="1.0" encoding="UTF-8"?>
<svg version="1.1" xmlns="http://www.w3.org/2000/svg" width="760" height="760">
<path d="M0 0 C250.8 0 501.6 0 760 0 C760 250.8 760 501.6 760 760 C509.2 760 258.4 760 0 760 C0 509.2 0 258.4 0 0 Z " fill="#FEFEFE" transform="translate(0,0)"/>
<path d="M0 0 C1.42179714 -0.02154238 2.84346298 -0.05560233 4.26464844 -0.10253906 C18.48846921 -0.56697011 18.48846921 -0.56697011 24.45263672 4.70507812 C28.08113297 8.9873187 29.89306641 12.78927475 29.89306641 18.4050293 C158.92306641 18.4050293 287.95306641 18.4050293 420.89306641 18.4050293 C421.22306641 16.0950293 421.55306641 13.7850293 421.89306641 11.4050293 C424.4577362 6.472972 427.74302556 2.62544322 432.89306641 0.4050293 C437.35029448 -0.21554799 441.73856952 -0.27318483 446.22631836 -0.19189453 C448.32298613 -0.15759471 450.4154235 -0.17125689 452.51220703 -0.19067383 C460.71357467 -0.18713481 467.38289867 0.02933581 473.45703125 5.92236328 C477.95773365 11.68981966 477.62278224 18.35106868 477.48999023 25.38647461 C477.45561989 27.40189338 477.46937988 29.41292503 477.48876953 31.4284668 C477.42388806 40.09663187 476.88112781 46.41696789 470.51806641 52.7800293 C464.27903576 56.64228636 460.62869797 56.4050293 452.89306641 56.4050293 C452.89306641 185.4350293 452.89306641 314.4650293 452.89306641 447.4050293 C455.86306641 447.4050293 458.83306641 447.4050293 461.89306641 447.4050293 C468.2098751 448.97499637 472.31919663 452.04422464 475.89306641 457.4050293 C477.8550891 463.1427091 477.16155666 469.67557175 477.20556641 475.6550293 C477.23457031 476.95311523 477.26357422 478.25120117 477.29345703 479.58862305 C477.34258899 487.00376918 477.07678969 492.18211714 472.89306641 498.4050293 C466.01448622 503.8798176 460.13491931 503.62045629 451.66113281 503.64526367 C449.66410336 503.6549275 447.66721589 503.68611446 445.67041016 503.7175293 C433.46993932 503.76697396 433.46993932 503.76697396 427.89306641 500.4050293 C424.19619363 496.70815652 421.99736065 493.52493897 420.89306641 488.4050293 C420.89306641 485.4350293 420.89306641 482.4650293 420.89306641 479.4050293 C328.49306641 479.4050293 236.09306641 479.4050293 140.89306641 479.4050293 C140.89306641 483.3650293 140.89306641 487.3250293 140.89306641 491.4050293 C138.6594534 496.90315361 136.05935402 499.54708296 130.89306641 502.4050293 C125.83295969 504.09173154 120.53318211 503.66961765 115.23388672 503.70019531 C113.84706399 503.71169279 112.46028475 503.7321097 111.07373047 503.76171875 C100.83949397 503.98011745 95.54022508 503.75196776 87.99072266 496.69018555 C84.47379598 491.28141475 85.19133281 484.3250078 85.29614258 478.10742188 C85.33054352 475.84403492 85.31675557 473.58454197 85.29736328 471.32104492 C85.30426098 469.86855451 85.31393269 468.41607407 85.32666016 466.96362305 C85.33753662 465.65707764 85.34841309 464.35053223 85.35961914 463.00439453 C86.14118171 457.73090393 88.48959034 454.66815776 92.39306641 451.1550293 C96.78757272 448.07887488 98.28904378 447.4050293 103.89306641 447.4050293 C103.89306641 355.0050293 103.89306641 262.6050293 103.89306641 167.4050293 C101.58306641 167.4050293 99.27306641 167.4050293 96.89306641 167.4050293 C94.56494141 166.3034668 94.56494141 166.3034668 92.64306641 164.7800293 C91.99853516 164.29276367 91.35400391 163.80549805 90.68994141 163.3034668 C84.8178017 157.09942354 85.33446737 149.70455825 85.3371582 141.7199707 C85.33060118 139.54158073 85.27607691 137.36776951 85.21923828 135.19018555 C85.13243087 128.14514258 85.23469692 122.43408825 90.11206055 116.88110352 C96.54000678 111.55370627 102.57007286 111.91183135 110.55761719 111.95898438 C112.75502715 111.96747889 114.94982012 111.93873603 117.14697266 111.90698242 C118.5597323 111.90536957 119.9724965 111.90594955 121.38525391 111.90893555 C122.65739746 111.90708252 123.92954102 111.90522949 125.24023438 111.90332031 C130.55201957 112.63288311 135.4321188 115.02867492 138.83056641 119.3425293 C140.89306641 123.4050293 140.89306641 123.4050293 140.89306641 136.4050293 C196.33306641 136.4050293 251.77306641 136.4050293 308.89306641 136.4050293 C308.89306641 133.1050293 308.89306641 129.8050293 308.89306641 126.4050293 C311.36738118 119.83857854 314.47857757 115.61227372 320.89306641 112.4050293 C325.36898663 112.14557122 329.84880902 112.13391782 334.33129883 112.10986328 C336.55500018 112.09272632 338.77718442 112.0488528 341.00048828 112.00463867 C342.42690968 111.99450444 343.85334369 111.98599062 345.27978516 111.97924805 C346.57102295 111.96466553 347.86226074 111.95008301 349.19262695 111.93505859 C354.73693809 112.63920842 358.37984327 114.81216284 362.26806641 118.9050293 C366.0581101 124.73586575 365.22163742 131.78517889 365.2980957 138.51196289 C365.31963808 139.93376003 365.35369803 141.35542587 365.40063477 142.77661133 C365.86490858 156.9956165 365.86490858 156.9956165 360.61132812 162.96459961 C354.20072325 168.3386503 349.37617941 168.4050293 340.89306641 168.4050293 C340.89306641 223.5150293 340.89306641 278.6250293 340.89306641 335.4050293 C343.86306641 335.4050293 346.83306641 335.4050293 349.89306641 335.4050293 C355.83237697 336.74247405 360.14697532 339.83480095 363.66479492 344.74291992 C366.0114973 349.82907431 365.6985338 355.31768377 365.56542969 360.8137207 C365.51814142 362.90171694 365.52433954 364.98459983 365.53759766 367.07299805 C365.50658102 374.45666563 365.09614778 380.18813035 360.89306641 386.4050293 C353.92715725 391.94932434 347.36293001 391.71399257 338.86157227 391.81005859 C337.43293998 391.83157463 336.00443725 391.86560281 334.57641602 391.91259766 C321.22934651 392.34713902 321.22934651 392.34713902 316.15478516 388.94018555 C310.42906441 383.54719052 308.75260541 377.60483778 308.32666016 369.90112305 C308.30693308 367.5483408 308.30865026 365.19529217 308.33056641 362.8425293 C308.30671875 361.66239258 308.28287109 360.48225586 308.25830078 359.26635742 C308.27046296 352.02175392 309.03146755 346.94692932 313.89306641 341.4050293 C320.61303325 335.17676734 324.01777495 335.4050293 333.89306641 335.4050293 C333.89306641 279.9650293 333.89306641 224.5250293 333.89306641 167.4050293 C329.60306641 167.4050293 325.31306641 167.4050293 320.89306641 167.4050293 C315.48266926 164.8422096 312.11380606 161.09065654 309.64306641 155.6550293 C308.89306641 152.4050293 308.89306641 152.4050293 308.89306641 143.4050293 C253.78306641 143.4050293 198.67306641 143.4050293 141.89306641 143.4050293 C141.89306641 146.3750293 141.89306641 149.3450293 141.89306641 152.4050293 C140.34383612 158.63840294 137.37047959 163.0979119 131.89306641 166.4050293 C128.92306641 166.7350293 125.95306641 167.0650293 122.89306641 167.4050293 C122.89306641 259.8050293 122.89306641 352.2050293 122.89306641 447.4050293 C125.20306641 447.7350293 127.51306641 448.0650293 129.89306641 448.4050293 C134.80686292 451.10279993 138.36757862 454.35405373 140.89306641 459.4050293 C140.89306641 463.6950293 140.89306641 467.9850293 140.89306641 472.4050293 C233.29306641 472.4050293 325.69306641 472.4050293 420.89306641 472.4050293 C420.89306641 468.7750293 420.89306641 465.1450293 420.89306641 461.4050293 C423.23924899 455.68034379 426.80751854 451.92125497 431.89306641 448.4050293 C434.89306641 447.4050293 434.89306641 447.4050293 445.89306641 447.4050293 C445.89306641 318.0450293 445.89306641 188.6850293 445.89306641 55.4050293 C441.60306641 55.4050293 437.31306641 55.4050293 432.89306641 55.4050293 C427.56093051 52.87928071 424.22093673 49.12716347 421.64306641 43.8425293 C420.89306641 41.4050293 420.89306641 41.4050293 420.89306641 37.4050293 C291.86306641 37.4050293 162.83306641 37.4050293 29.89306641 37.4050293 C29.89306641 39.0550293 29.89306641 40.7050293 29.89306641 42.4050293 C27.22718263 48.49685733 23.21623514 52.89449806 17.14306641 55.6550293 C13.89306641 56.4050293 13.89306641 56.4050293 4.89306641 56.4050293 C4.89306641 148.4750293 4.89306641 240.5450293 4.89306641 335.4050293 C2.58306641 335.4050293 0.27306641 335.4050293 -2.10693359 335.4050293 C-2.10693359 243.3350293 -2.10693359 151.2650293 -2.10693359 56.4050293 C-5.40693359 56.4050293 -8.70693359 56.4050293 -12.10693359 56.4050293 C-17.78728232 54.40020034 -21.33223709 51.94678797 -24.86328125 47.0715332 C-27.23905506 41.97765776 -26.87360358 36.45288816 -26.72436523 30.94140625 C-26.66944285 28.84288307 -26.66283827 26.74833889 -26.66357422 24.64916992 C-26.50888535 10.45108392 -26.50888535 10.45108392 -21.64208984 4.6628418 C-14.91741022 -0.50998868 -8.17913241 0.09296603 0 0 Z " fill="#65BE89" transform="translate(100.10693359375,73.594970703125)"/>
<path d="M0 0 C1.53921687 -0.01650721 3.07835874 -0.04372831 4.6171875 -0.08203125 C19.02456871 -0.4385345 19.02456871 -0.4385345 23.43530273 2.43603516 C30.34217397 9.89265736 30.78287152 15.17638305 30.65600586 25.25610352 C30.63459977 27.28019525 30.65584178 29.30072493 30.68139648 31.32470703 C30.65174607 38.77807931 30.29221545 44.07922712 26.13452148 50.35009766 C21.04193593 55.19426441 18.40112381 55.35009766 11.13452148 55.35009766 C11.13452148 184.71009766 11.13452148 314.07009766 11.13452148 447.35009766 C13.11452148 447.35009766 15.09452148 447.35009766 17.13452148 447.35009766 C22.14262502 449.44423348 26.20324324 452.77730359 29.13452148 457.35009766 C30.93109946 462.68639335 30.39750974 468.58011901 30.4296875 474.13964844 C30.44121459 475.52647092 30.4616785 476.91324878 30.49121094 478.29980469 C30.53405342 480.31364084 30.54747939 482.32803415 30.56030273 484.34228516 C30.58217651 486.14221924 30.58217651 486.14221924 30.60449219 487.97851562 C29.66402958 494.7254188 25.26653631 498.44530377 20.13452148 502.35009766 C15.8632302 504.4857433 10.24857567 503.57713443 5.55078125 503.59033203 C3.47215892 503.59998097 1.39454991 503.63097592 -0.68383789 503.66259766 C-2.01911851 503.66913386 -3.35440617 503.6743819 -4.68969727 503.67822266 C-5.897146 503.68756836 -7.10459473 503.69691406 -8.34863281 503.70654297 C-12.97053129 503.23809647 -16.9741157 501.97312067 -20.57250977 498.88525391 C-26.0403118 491.60129147 -25.86547852 489.51965665 -25.86547852 479.35009766 C-191.85547852 479.35009766 -357.84547852 479.35009766 -528.86547852 479.35009766 C-528.86547852 482.32009766 -528.86547852 485.29009766 -528.86547852 488.35009766 C-530.32189282 493.98861784 -532.81535749 498.27075557 -537.86547852 501.35009766 C-543.61226496 504.11028615 -549.35442855 503.75840559 -555.62060547 503.77563477 C-557.66244436 503.78750733 -559.70123162 503.83671276 -561.74243164 503.88720703 C-574.21053084 503.95493498 -574.21053084 503.95493498 -579.35449219 499.91821289 C-585.7308079 493.30081496 -585.49367612 485.61075865 -585.38696289 476.83154297 C-585.36544677 474.72198501 -585.38686751 472.61580433 -585.41235352 470.50634766 C-585.40971118 469.1495694 -585.40458814 467.79279322 -585.39672852 466.43603516 C-585.3922168 465.21964355 -585.38770508 464.00325195 -585.38305664 462.75 C-584.6001761 457.60736111 -582.17182843 454.52581258 -578.36547852 451.10009766 C-571.78583292 446.49434574 -570.1764447 447.35009766 -560.86547852 447.35009766 C-560.86547852 373.76009766 -560.86547852 300.17009766 -560.86547852 224.35009766 C-558.55547852 224.35009766 -556.24547852 224.35009766 -553.86547852 224.35009766 C-553.86547852 297.94009766 -553.86547852 371.53009766 -553.86547852 447.35009766 C-550.23547852 447.35009766 -546.60547852 447.35009766 -542.86547852 447.35009766 C-537.00003891 450.24151155 -532.85401943 453.37301584 -529.86547852 459.35009766 C-529.86547852 463.64009766 -529.86547852 467.93009766 -529.86547852 472.35009766 C-363.54547852 472.35009766 -197.22547852 472.35009766 -25.86547852 472.35009766 C-25.86547852 468.72009766 -25.86547852 465.09009766 -25.86547852 461.35009766 C-23.88491351 455.80451563 -21.75709992 452.70660338 -17.03735352 449.26025391 C-14.86547852 448.35009766 -14.86547852 448.35009766 -6.86547852 447.35009766 C-6.86547852 373.76009766 -6.86547852 300.17009766 -6.86547852 224.35009766 C-4.55547852 224.35009766 -2.24547852 224.35009766 0.13452148 224.35009766 C0.13452148 297.94009766 0.13452148 371.53009766 0.13452148 447.35009766 C1.45452148 447.35009766 2.77452148 447.35009766 4.13452148 447.35009766 C4.13452148 318.32009766 4.13452148 189.29009766 4.13452148 56.35009766 C2.81452148 56.35009766 1.49452148 56.35009766 0.13452148 56.35009766 C0.13452148 111.46009766 0.13452148 166.57009766 0.13452148 223.35009766 C-2.17547852 223.35009766 -4.48547852 223.35009766 -6.86547852 223.35009766 C-6.86547852 167.91009766 -6.86547852 112.47009766 -6.86547852 55.35009766 C-9.17547852 55.35009766 -11.48547852 55.35009766 -13.86547852 55.35009766 C-19.44476839 52.39635596 -23.4845485 48.22463119 -25.86547852 42.35009766 C-26.32556808 37.59107037 -26.23580473 32.81654075 -26.24047852 28.03759766 C-26.2649707 26.73113281 -26.28946289 25.42466797 -26.31469727 24.07861328 C-26.33986838 15.82668303 -25.9974619 10.75886461 -20.23266602 4.60791016 C-13.5863328 -0.43773548 -8.04006855 0.06312627 0 0 Z " fill="#67CA8F" transform="translate(658.865478515625,185.64990234375)"/>
<path d="M0 0 C1.42179714 -0.02154238 2.84346298 -0.05560233 4.26464844 -0.10253906 C18.48846921 -0.56697011 18.48846921 -0.56697011 24.45263672 4.70507812 C28.08113297 8.9873187 29.89306641 12.78927475 29.89306641 18.4050293 C158.92306641 18.4050293 287.95306641 18.4050293 420.89306641 18.4050293 C421.22306641 16.0950293 421.55306641 13.7850293 421.89306641 11.4050293 C424.4577362 6.472972 427.74302556 2.62544322 432.89306641 0.4050293 C437.35029448 -0.21554799 441.73856952 -0.27318483 446.22631836 -0.19189453 C448.32298613 -0.15759471 450.4154235 -0.17125689 452.51220703 -0.19067383 C460.71357467 -0.18713481 467.38289867 0.02933581 473.45703125 5.92236328 C477.95773365 11.68981966 477.62278224 18.35106868 477.48999023 25.38647461 C477.45561989 27.40189338 477.46937988 29.41292503 477.48876953 31.4284668 C477.42388806 40.09663187 476.88112781 46.41696789 470.51806641 52.7800293 C464.27903576 56.64228636 460.62869797 56.4050293 452.89306641 56.4050293 C452.89306641 185.4350293 452.89306641 314.4650293 452.89306641 447.4050293 C450.58306641 447.4050293 448.27306641 447.4050293 445.89306641 447.4050293 C445.89306641 318.0450293 445.89306641 188.6850293 445.89306641 55.4050293 C441.60306641 55.4050293 437.31306641 55.4050293 432.89306641 55.4050293 C427.56093051 52.87928071 424.22093673 49.12716347 421.64306641 43.8425293 C420.89306641 41.4050293 420.89306641 41.4050293 420.89306641 37.4050293 C291.86306641 37.4050293 162.83306641 37.4050293 29.89306641 37.4050293 C29.89306641 39.0550293 29.89306641 40.7050293 29.89306641 42.4050293 C27.22718263 48.49685733 23.21623514 52.89449806 17.14306641 55.6550293 C13.89306641 56.4050293 13.89306641 56.4050293 4.89306641 56.4050293 C4.89306641 148.4750293 4.89306641 240.5450293 4.89306641 335.4050293 C2.58306641 335.4050293 0.27306641 335.4050293 -2.10693359 335.4050293 C-2.10693359 243.3350293 -2.10693359 151.2650293 -2.10693359 56.4050293 C-5.40693359 56.4050293 -8.70693359 56.4050293 -12.10693359 56.4050293 C-17.78728232 54.40020034 -21.33223709 51.94678797 -24.86328125 47.0715332 C-27.23905506 41.97765776 -26.87360358 36.45288816 -26.72436523 30.94140625 C-26.66944285 28.84288307 -26.66283827 26.74833889 -26.66357422 24.64916992 C-26.50888535 10.45108392 -26.50888535 10.45108392 -21.64208984 4.6628418 C-14.91741022 -0.50998868 -8.17913241 0.09296603 0 0 Z " fill="#A1A5A2" transform="translate(100.10693359375,73.594970703125)"/>
<path d="M0 0 C2.19740997 0.00849452 4.39220293 -0.02024835 6.58935547 -0.05200195 C8.00211511 -0.05361481 9.41487931 -0.05303482 10.82763672 -0.05004883 C12.09978027 -0.05190186 13.37192383 -0.05375488 14.68261719 -0.05566406 C19.99440239 0.67389874 24.87450161 3.06969055 28.27294922 7.38354492 C30.33544922 11.44604492 30.33544922 11.44604492 30.33544922 24.44604492 C85.77544922 24.44604492 141.21544922 24.44604492 198.33544922 24.44604492 C198.33544922 21.14604492 198.33544922 17.84604492 198.33544922 14.44604492 C200.809764 7.87959417 203.92096038 3.65328934 210.33544922 0.44604492 C214.81136944 0.18658685 219.29119184 0.17493345 223.77368164 0.15087891 C225.99738299 0.13374195 228.21956723 0.08986843 230.44287109 0.0456543 C231.86929249 0.03552006 233.2957265 0.02700625 234.72216797 0.02026367 C236.01340576 0.00568115 237.30464355 -0.00890137 238.63500977 -0.02392578 C244.1793209 0.68022405 247.82222608 2.85317846 251.71044922 6.94604492 C255.50049292 12.77688138 254.66402024 19.82619452 254.74047852 26.55297852 C254.7620209 27.97477565 254.79608084 29.39644149 254.84301758 30.81762695 C255.30729139 45.03663212 255.30729139 45.03663212 250.05371094 51.00561523 C243.64310606 56.37966593 238.81856222 56.44604492 230.33544922 56.44604492 C230.33544922 111.55604492 230.33544922 166.66604492 230.33544922 223.44604492 C233.30544922 223.44604492 236.27544922 223.44604492 239.33544922 223.44604492 C245.27475978 224.78348967 249.58935813 227.87581657 253.10717773 232.78393555 C255.45388011 237.87008994 255.14091662 243.3586994 255.0078125 248.85473633 C254.96052424 250.94273256 254.96672236 253.02561546 254.97998047 255.11401367 C254.94896383 262.49768125 254.5385306 268.22914597 250.33544922 274.44604492 C243.36954006 279.99033997 236.80531282 279.7550082 228.30395508 279.85107422 C226.87532279 279.87259025 225.44682006 279.90661843 224.01879883 279.95361328 C210.67172932 280.38815465 210.67172932 280.38815465 205.59716797 276.98120117 C199.87144722 271.58820614 198.19498822 265.6458534 197.76904297 257.94213867 C197.7493159 255.58935643 197.75103307 253.23630779 197.77294922 250.88354492 C197.74910156 249.7034082 197.72525391 248.52327148 197.70068359 247.30737305 C197.71284577 240.06276954 198.47385036 234.98794494 203.33544922 229.44604492 C210.05541606 223.21778297 213.46015776 223.44604492 223.33544922 223.44604492 C223.33544922 168.00604492 223.33544922 112.56604492 223.33544922 55.44604492 C219.04544922 55.44604492 214.75544922 55.44604492 210.33544922 55.44604492 C204.92505207 52.88322522 201.55618887 49.13167216 199.08544922 43.69604492 C198.33544922 40.44604492 198.33544922 40.44604492 198.33544922 31.44604492 C143.22544922 31.44604492 88.11544922 31.44604492 31.33544922 31.44604492 C31.33544922 34.41604492 31.33544922 37.38604492 31.33544922 40.44604492 C29.78621893 46.67941856 26.8128624 51.13892753 21.33544922 54.44604492 C16.88044922 54.94104492 16.88044922 54.94104492 12.33544922 55.44604492 C12.33544922 110.88604492 12.33544922 166.32604492 12.33544922 223.44604492 C12.00544922 223.44604492 11.67544922 223.44604492 11.33544922 223.44604492 C11.33544922 205.29604492 11.33544922 187.14604492 11.33544922 168.44604492 C9.35544922 168.44604492 7.37544922 168.44604492 5.33544922 168.44604492 C5.33544922 168.11604492 5.33544922 167.78604492 5.33544922 167.44604492 C7.31544922 167.44604492 9.29544922 167.44604492 11.33544922 167.44604492 C11.33544922 149.29604492 11.33544922 131.14604492 11.33544922 112.44604492 C9.35544922 112.44604492 7.37544922 112.44604492 5.33544922 112.44604492 C5.33544922 112.11604492 5.33544922 111.78604492 5.33544922 111.44604492 C7.31544922 111.44604492 9.29544922 111.44604492 11.33544922 111.44604492 C11.33544922 93.29604492 11.33544922 75.14604492 11.33544922 56.44604492 C3.08544922 56.11604492 -5.16455078 55.78604492 -13.66455078 55.44604492 C-22.98853989 48.45305309 -22.98853989 48.45305309 -24.66455078 43.44604492 C-25.23287898 38.89241471 -25.22200372 34.34474123 -25.22045898 29.76098633 C-25.22701601 27.58259636 -25.28154027 25.40878514 -25.33837891 23.23120117 C-25.42518632 16.1861582 -25.32292027 10.47510387 -20.44555664 4.92211914 C-14.01761041 -0.40527811 -7.98754433 -0.04715302 0 0 Z " fill="#68C58E" transform="translate(210.66455078125,185.553955078125)"/>
<path d="M0 0 C2.09666777 0.03429982 4.18910514 0.02063764 6.28588867 0.0012207 C14.48725631 0.00475972 21.15658031 0.22123034 27.23071289 6.11425781 C31.73141529 11.88171419 31.39646388 18.54296322 31.26367188 25.57836914 C31.22930153 27.59378791 31.24306152 29.60481957 31.26245117 31.62036133 C31.1975697 40.2885264 30.65480945 46.60886242 24.29174805 52.97192383 C18.0527174 56.8341809 14.40237961 56.59692383 6.66674805 56.59692383 C6.66674805 185.62692383 6.66674805 314.65692383 6.66674805 447.59692383 C4.35674805 447.59692383 2.04674805 447.59692383 -0.33325195 447.59692383 C-0.33325195 318.23692383 -0.33325195 188.87692383 -0.33325195 55.59692383 C-4.62325195 55.59692383 -8.91325195 55.59692383 -13.33325195 55.59692383 C-18.36684829 53.21258872 -21.83321982 49.59698809 -24.33325195 44.59692383 C-24.46822591 42.18638202 -24.54580899 39.80601798 -24.5715332 37.39379883 C-24.57960495 36.67838928 -24.5876767 35.96297974 -24.59599304 35.22589111 C-24.60983153 33.70945659 -24.62055475 32.19299095 -24.62841797 30.67651367 C-24.64558453 28.36942489 -24.68946319 26.06378701 -24.73364258 23.75708008 C-24.74377407 22.28183017 -24.75228875 20.80656811 -24.7590332 19.33129883 C-24.77654129 18.64670593 -24.79404938 17.96211304 -24.81208801 17.2567749 C-24.7828464 10.7221548 -21.97469995 7.27060222 -17.5480957 2.75708008 C-12.34181448 -0.70406345 -6.01867261 -0.10902118 0 0 Z " fill="#66CA8E" transform="translate(546.333251953125,73.403076171875)"/>
<path d="M0 0 C13.5 0 13.5 0 18 1 C17.99666908 2.92151634 17.99666908 2.92151634 17.99327087 4.8818512 C17.97257217 17.24099431 17.95781128 29.6001337 17.94818783 41.9592905 C17.94307337 48.30595714 17.9361981 54.65260929 17.92456055 60.99926758 C17.87725413 87.50624741 17.94670685 113.99810252 18.5 140.5 C19.07900307 168.23336373 19.11952728 195.95698106 19.06866455 223.69549561 C19.05813357 230.08800906 19.05380566 236.48052711 19.04882812 242.87304688 C19.03834142 255.24870906 19.02145298 267.62435228 19 280 C20.65 280 22.3 280 24 280 C24 280.33 24 280.66 24 281 C14.43 281 4.86 281 -5 281 C-5 280.67 -5 280.34 -5 280 C-3.35 280 -1.7 280 0 280 C0 187.6 0 95.2 0 0 Z " fill="#A7AAA8" transform="translate(204,241)"/>
<path d="M0 0 C1.42179714 -0.02154238 2.84346298 -0.05560233 4.26464844 -0.10253906 C18.47717089 -0.56660121 18.47717089 -0.56660121 24.40380859 4.61962891 C28.31585006 9.30958944 29.27521738 12.53963967 29.29150391 18.68237305 C29.29437408 19.37134171 29.29724426 20.06031036 29.30020142 20.77015686 C29.30223504 22.22161688 29.29675436 23.67310475 29.28417969 25.12451172 C29.26813868 27.33258117 29.28403752 29.53881376 29.30322266 31.74682617 C29.30123962 33.1628458 29.29739468 34.57886429 29.29150391 35.99487305 C29.28812012 37.27225342 29.28473633 38.54963379 29.28125 39.86572266 C28.69096974 45.24766792 26.92322711 48.39776106 23.08056641 52.1550293 C16.63271497 56.70645384 13.17830292 56.4050293 4.89306641 56.4050293 C4.89306641 148.4750293 4.89306641 240.5450293 4.89306641 335.4050293 C2.58306641 335.4050293 0.27306641 335.4050293 -2.10693359 335.4050293 C-2.10693359 243.3350293 -2.10693359 151.2650293 -2.10693359 56.4050293 C-5.40693359 56.4050293 -8.70693359 56.4050293 -12.10693359 56.4050293 C-17.78728232 54.40020034 -21.33223709 51.94678797 -24.86328125 47.0715332 C-27.23905506 41.97765776 -26.87360358 36.45288816 -26.72436523 30.94140625 C-26.66944285 28.84288307 -26.66283827 26.74833889 -26.66357422 24.64916992 C-26.50888535 10.45108392 -26.50888535 10.45108392 -21.64208984 4.6628418 C-14.91741022 -0.50998868 -8.17913241 0.09296603 0 0 Z " fill="#66CA8F" transform="translate(100.10693359375,73.594970703125)"/>
<path d="M0 0 C2.31 0 4.62 0 7 0 C7 73.59 7 147.18 7 223 C10.63 223 14.26 223 18 223 C23.8654396 225.89141389 28.01145909 229.02291818 31 235 C31.55156224 239.3171662 31.77086786 243.65530213 32 248 C32.03544922 248.67063477 32.07089844 249.34126953 32.10742188 250.03222656 C32.85267327 266.14638678 32.85267327 266.14638678 28 273 C21.37118486 279.62881514 14.14803506 279.40105741 5.24487305 279.42553711 C3.20303416 279.43740967 1.1642469 279.48661511 -0.87695312 279.53710938 C-13.34505233 279.60483732 -13.34505233 279.60483732 -18.48901367 275.56811523 C-24.86532938 268.9507173 -24.62819761 261.26066099 -24.52148438 252.48144531 C-24.49996825 250.37188736 -24.521389 248.26570667 -24.546875 246.15625 C-24.54423267 244.79947174 -24.53910963 243.44269557 -24.53125 242.0859375 C-24.52673828 240.8695459 -24.52222656 239.6531543 -24.51757812 238.39990234 C-23.73469758 233.25726345 -21.30634992 230.17571493 -17.5 226.75 C-10.92035441 222.14424808 -9.31096618 223 0 223 C0 149.41 0 75.82 0 0 Z " fill="#66CA8F" transform="translate(98,410)"/>
<path d="M0 0 C2.31 0 4.62 0 7 0 C7 55.11 7 110.22 7 167 C9.97 167 12.94 167 16 167 C21.93931057 168.33744475 26.25390891 171.42977165 29.77172852 176.33789062 C32.11843089 181.42404501 31.8054674 186.91265448 31.67236328 192.40869141 C31.62507502 194.49668764 31.63127314 196.57957054 31.64453125 198.66796875 C31.61351461 206.05163633 31.20308138 211.78310105 27 218 C20.03409084 223.54429505 13.4698636 223.30896328 4.96850586 223.4050293 C3.53987357 223.42654533 2.11137084 223.46057351 0.68334961 223.50756836 C-12.66371989 223.94210973 -12.66371989 223.94210973 -17.73828125 220.53515625 C-23.464002 215.14216122 -25.140461 209.19980848 -25.56640625 201.49609375 C-25.58613332 199.14331151 -25.58441615 196.79026287 -25.5625 194.4375 C-25.58634766 193.25736328 -25.61019531 192.07722656 -25.63476562 190.86132812 C-25.62260345 183.61672462 -24.86159885 178.54190002 -20 173 C-13.28003316 166.77173805 -9.87529146 167 0 167 C0 111.89 0 56.78 0 0 Z " fill="#67CA8F" transform="translate(434,242)"/>
<path d="M0 0 C1.53921687 -0.01650721 3.07835874 -0.04372831 4.6171875 -0.08203125 C19.02456871 -0.4385345 19.02456871 -0.4385345 23.43530273 2.43603516 C30.34217397 9.89265736 30.78287152 15.17638305 30.65600586 25.25610352 C30.63459977 27.28019525 30.65584178 29.30072493 30.68139648 31.32470703 C30.64661497 40.06791131 29.99652822 46.03373719 24.00952148 52.72509766 C16.5380391 56.94810944 8.61310304 56.35009766 0.13452148 56.35009766 C0.13452148 111.46009766 0.13452148 166.57009766 0.13452148 223.35009766 C-2.17547852 223.35009766 -4.48547852 223.35009766 -6.86547852 223.35009766 C-6.86547852 167.91009766 -6.86547852 112.47009766 -6.86547852 55.35009766 C-9.17547852 55.35009766 -11.48547852 55.35009766 -13.86547852 55.35009766 C-19.44476839 52.39635596 -23.4845485 48.22463119 -25.86547852 42.35009766 C-26.32556808 37.59107037 -26.23580473 32.81654075 -26.24047852 28.03759766 C-26.2772168 26.07790039 -26.2772168 26.07790039 -26.31469727 24.07861328 C-26.33986838 15.82668303 -25.9974619 10.75886461 -20.23266602 4.60791016 C-13.5863328 -0.43773548 -8.04006855 0.06312627 0 0 Z " fill="#66CA8F" transform="translate(658.865478515625,185.64990234375)"/>
<path d="M0 0 C165.99 0 331.98 0 503 0 C503 2.31 503 4.62 503 7 C337.01 7 171.02 7 0 7 C0 4.69 0 2.38 0 0 Z " fill="#6E6E6E" transform="translate(130,658)"/>
<path d="M0 0 C1.19882812 -0.02900391 2.39765625 -0.05800781 3.6328125 -0.08789062 C11.42581308 -0.14343284 18.45659202 0.34796479 24.48876953 5.76049805 C30.36437552 12.33873462 29.12614723 20.22670332 29.1875 28.5625 C29.21650391 29.86058594 29.24550781 31.15867187 29.27539062 32.49609375 C29.32452258 39.91123988 29.05872329 45.08958785 24.875 51.3125 C17.99641982 56.78728831 12.11685291 56.527927 3.64306641 56.55273438 C1.64603695 56.5623982 -0.35085052 56.59358516 -2.34765625 56.625 C-14.54812709 56.67444466 -14.54812709 56.67444466 -20.125 53.3125 C-27.68949699 45.74800301 -27.4891852 37.99224429 -27.5 27.875 C-27.52449219 26.67294922 -27.54898438 25.47089844 -27.57421875 24.23242188 C-27.60111062 16.10659657 -26.93166712 11.42206321 -21.30859375 5.3515625 C-20.73238281 4.88492188 -20.15617188 4.41828125 -19.5625 3.9375 C-18.69431641 3.21433594 -18.69431641 3.21433594 -17.80859375 2.4765625 C-12.73766062 -1.02955832 -5.88781786 0.04658084 0 0 Z " fill="#67CA8F" transform="translate(548.125,520.6875)"/>
<path d="M0 0 C2.22370135 -0.01713696 4.44588559 -0.06101048 6.66918945 -0.10522461 C8.09561085 -0.11535885 9.52204486 -0.12387266 10.94848633 -0.13061523 C12.23972412 -0.14519775 13.53096191 -0.15978027 14.86132812 -0.17480469 C20.40563926 0.52934514 24.04854444 2.70229956 27.93676758 6.79516602 C31.72681128 12.62600247 30.8903386 19.67531561 30.96679688 26.40209961 C30.98833926 27.82389675 31.0223992 29.24556259 31.06933594 30.66674805 C31.53397462 44.89692774 31.53397462 44.89692774 26.23730469 50.85473633 C18.93318132 57.13396231 10.71425127 56.81807691 1.57641602 56.3894043 C-0.33109851 56.30017737 -2.24023055 56.24774501 -4.14916992 56.19750977 C-11.92216591 55.85065983 -16.2177782 54.69453436 -21.68823242 48.92016602 C-26.16922888 42.19867133 -25.80453262 35.20648963 -25.81323242 27.42016602 C-25.83772461 26.27418945 -25.8622168 25.12821289 -25.88745117 23.94750977 C-25.91323127 16.47987352 -25.33450456 10.27224509 -19.91967773 4.74511719 C-13.66929351 -0.65320098 -7.85914483 0.0421748 0 0 Z " fill="#67CA8F" transform="translate(434.438232421875,185.704833984375)"/>
<path d="M0 0 C2.31 0 4.62 0 7 0 C7 129.03 7 258.06 7 391 C4.69 391 2.38 391 0 391 C0 261.97 0 132.94 0 0 Z " fill="#777777" transform="translate(663,242)"/>
<path d="M0 0 C2.31 0 4.62 0 7 0 C7 129.03 7 258.06 7 391 C4.69 391 2.38 391 0 391 C0 261.97 0 132.94 0 0 Z " fill="#5B5B5B" transform="translate(546,130)"/>
<path d="M0 0 C110.88 0 221.76 0 336 0 C336 2.31 336 4.62 336 7 C206.97 7 77.94 7 -55 7 C-55 6.67 -55 6.34 -55 6 C-36.85 6 -18.7 6 0 6 C0 4.02 0 2.04 0 0 Z " fill="#727272" transform="translate(185,104)"/>
<path d="M0 0 C2.31 0 4.62 0 7 0 C7 92.07 7 184.14 7 279 C4.69 279 2.38 279 0 279 C0 186.93 0 94.86 0 0 Z " fill="#232323" transform="translate(98,130)"/>
<path d="M0 0 C129.03 0 258.06 0 391 0 C391 1.32 391 2.64 391 4 C261.97 4 132.94 4 0 4 C0 2.68 0 1.36 0 0 Z " fill="#F5F5F5" transform="translate(130,100)"/>
<path d="M0 0 C2.31 0 4.62 0 7 0 C7 73.59 7 147.18 7 223 C4.69 223 2.38 223 0 223 C0 149.41 0 75.82 0 0 Z " fill="#1F1F1F" transform="translate(652,410)"/>
<path d="M0 0 C2.31 0 4.62 0 7 0 C7 73.59 7 147.18 7 223 C4.69 223 2.38 223 0 223 C0 149.41 0 75.82 0 0 Z " fill="#1E1E1E" transform="translate(98,410)"/>
<path d="M0 0 C2.31 0 4.62 0 7 0 C7 55.11 7 110.22 7 167 C4.69 167 2.38 167 0 167 C0 111.89 0 56.78 0 0 Z " fill="#1A1A1A" transform="translate(652,242)"/>
<path d="M0 0 C2.31 0 4.62 0 7 0 C7 55.11 7 110.22 7 167 C4.69 167 2.38 167 0 167 C0 111.89 0 56.78 0 0 Z " fill="#1A1A1A" transform="translate(434,242)"/>
<path d="M0 0 C55.11 0 110.22 0 167 0 C167 2.31 167 4.62 167 7 C111.89 7 56.78 7 0 7 C0 4.69 0 2.38 0 0 Z " fill="#282828" transform="translate(242,210)"/>
<path d="M0 0 C0.99 0 1.98 0 3 0 C3 92.07 3 184.14 3 279 C2.01 279 1.02 279 0 279 C0 186.93 0 94.86 0 0 Z " fill="#FFFFFF" transform="translate(212,242)"/>
<path d="M0 0 C18.15 0 36.3 0 55 0 C55 1.98 55 3.96 55 6 C36.85 6 18.7 6 0 6 C0 4.02 0 2.04 0 0 Z " fill="#000000" transform="translate(578,658)"/>
<path d="M0 0 C18.15 0 36.3 0 55 0 C55 1.98 55 3.96 55 6 C36.85 6 18.7 6 0 6 C0 4.02 0 2.04 0 0 Z " fill="#000000" transform="translate(522,658)"/>
<path d="M0 0 C18.15 0 36.3 0 55 0 C55 1.98 55 3.96 55 6 C36.85 6 18.7 6 0 6 C0 4.02 0 2.04 0 0 Z " fill="#000000" transform="translate(466,658)"/>
<path d="M0 0 C18.15 0 36.3 0 55 0 C55 1.98 55 3.96 55 6 C36.85 6 18.7 6 0 6 C0 4.02 0 2.04 0 0 Z " fill="#000000" transform="translate(410,658)"/>
<path d="M0 0 C18.15 0 36.3 0 55 0 C55 1.98 55 3.96 55 6 C36.85 6 18.7 6 0 6 C0 4.02 0 2.04 0 0 Z " fill="#000000" transform="translate(354,658)"/>
<path d="M0 0 C18.15 0 36.3 0 55 0 C55 1.98 55 3.96 55 6 C36.85 6 18.7 6 0 6 C0 4.02 0 2.04 0 0 Z " fill="#000000" transform="translate(298,658)"/>
<path d="M0 0 C18.15 0 36.3 0 55 0 C55 1.98 55 3.96 55 6 C36.85 6 18.7 6 0 6 C0 4.02 0 2.04 0 0 Z " fill="#000000" transform="translate(242,658)"/>
<path d="M0 0 C18.15 0 36.3 0 55 0 C55 1.98 55 3.96 55 6 C36.85 6 18.7 6 0 6 C0 4.02 0 2.04 0 0 Z " fill="#000000" transform="translate(186,658)"/>
<path d="M0 0 C18.15 0 36.3 0 55 0 C55 1.98 55 3.96 55 6 C36.85 6 18.7 6 0 6 C0 4.02 0 2.04 0 0 Z " fill="#000000" transform="translate(130,658)"/>
<path d="M0 0 C1.98 0 3.96 0 6 0 C6 18.15 6 36.3 6 55 C4.02 55 2.04 55 0 55 C0 36.85 0 18.7 0 0 Z " fill="#000000" transform="translate(664,578)"/>
<path d="M0 0 C1.98 0 3.96 0 6 0 C6 18.15 6 36.3 6 55 C4.02 55 2.04 55 0 55 C0 36.85 0 18.7 0 0 Z " fill="#000000" transform="translate(653,578)"/>
<path d="M0 0 C1.98 0 3.96 0 6 0 C6 18.15 6 36.3 6 55 C4.02 55 2.04 55 0 55 C0 36.85 0 18.7 0 0 Z " fill="#010101" transform="translate(99,578)"/>
<path d="M0 0 C18.15 0 36.3 0 55 0 C55 1.98 55 3.96 55 6 C36.85 6 18.7 6 0 6 C0 4.02 0 2.04 0 0 Z " fill="#000000" transform="translate(466,546)"/>
<path d="M0 0 C18.15 0 36.3 0 55 0 C55 1.98 55 3.96 55 6 C36.85 6 18.7 6 0 6 C0 4.02 0 2.04 0 0 Z " fill="#000000" transform="translate(410,546)"/>
<path d="M0 0 C18.15 0 36.3 0 55 0 C55 1.98 55 3.96 55 6 C36.85 6 18.7 6 0 6 C0 4.02 0 2.04 0 0 Z " fill="#000000" transform="translate(354,546)"/>
<path d="M0 0 C18.15 0 36.3 0 55 0 C55 1.98 55 3.96 55 6 C36.85 6 18.7 6 0 6 C0 4.02 0 2.04 0 0 Z " fill="#000000" transform="translate(298,546)"/>
<path d="M0 0 C18.15 0 36.3 0 55 0 C55 1.98 55 3.96 55 6 C36.85 6 18.7 6 0 6 C0 4.02 0 2.04 0 0 Z " fill="#000000" transform="translate(242,546)"/>
<path d="M0 0 C1.98 0 3.96 0 6 0 C6 18.15 6 36.3 6 55 C4.02 55 2.04 55 0 55 C0 36.85 0 18.7 0 0 Z " fill="#000000" transform="translate(664,522)"/>
<path d="M0 0 C1.98 0 3.96 0 6 0 C6 18.15 6 36.3 6 55 C4.02 55 2.04 55 0 55 C0 36.85 0 18.7 0 0 Z " fill="#000000" transform="translate(653,522)"/>
<path d="M0 0 C1.98 0 3.96 0 6 0 C6 18.15 6 36.3 6 55 C4.02 55 2.04 55 0 55 C0 36.85 0 18.7 0 0 Z " fill="#010101" transform="translate(99,522)"/>
<path d="M0 0 C1.98 0 3.96 0 6 0 C6 18.15 6 36.3 6 55 C4.02 55 2.04 55 0 55 C0 36.85 0 18.7 0 0 Z " fill="#000000" transform="translate(664,466)"/>
<path d="M0 0 C1.98 0 3.96 0 6 0 C6 18.15 6 36.3 6 55 C4.02 55 2.04 55 0 55 C0 36.85 0 18.7 0 0 Z " fill="#000000" transform="translate(653,466)"/>
<path d="M0 0 C1.98 0 3.96 0 6 0 C6 18.15 6 36.3 6 55 C4.02 55 2.04 55 0 55 C0 36.85 0 18.7 0 0 Z " fill="#000000" transform="translate(546,466)"/>
<path d="M0 0 C1.98 0 3.96 0 6 0 C6 18.15 6 36.3 6 55 C4.02 55 2.04 55 0 55 C0 36.85 0 18.7 0 0 Z " fill="#000000" transform="translate(216,466)"/>
<path d="M0 0 C1.98 0 3.96 0 6 0 C6 18.15 6 36.3 6 55 C4.02 55 2.04 55 0 55 C0 36.85 0 18.7 0 0 Z " fill="#000000" transform="translate(205,466)"/>
<path d="M0 0 C1.98 0 3.96 0 6 0 C6 18.15 6 36.3 6 55 C4.02 55 2.04 55 0 55 C0 36.85 0 18.7 0 0 Z " fill="#010101" transform="translate(99,466)"/>
<path d="M0 0 C1.98 0 3.96 0 6 0 C6 18.15 6 36.3 6 55 C4.02 55 2.04 55 0 55 C0 36.85 0 18.7 0 0 Z " fill="#000000" transform="translate(664,410)"/>
<path d="M0 0 C1.98 0 3.96 0 6 0 C6 18.15 6 36.3 6 55 C4.02 55 2.04 55 0 55 C0 36.85 0 18.7 0 0 Z " fill="#000000" transform="translate(546,410)"/>
<path d="M0 0 C1.98 0 3.96 0 6 0 C6 18.15 6 36.3 6 55 C4.02 55 2.04 55 0 55 C0 36.85 0 18.7 0 0 Z " fill="#000000" transform="translate(216,410)"/>
<path d="M0 0 C1.98 0 3.96 0 6 0 C6 18.15 6 36.3 6 55 C4.02 55 2.04 55 0 55 C0 36.85 0 18.7 0 0 Z " fill="#000000" transform="translate(205,410)"/>
<path d="M0 0 C1.98 0 3.96 0 6 0 C6 18.15 6 36.3 6 55 C4.02 55 2.04 55 0 55 C0 36.85 0 18.7 0 0 Z " fill="#000000" transform="translate(664,354)"/>
<path d="M0 0 C1.98 0 3.96 0 6 0 C6 18.15 6 36.3 6 55 C4.02 55 2.04 55 0 55 C0 36.85 0 18.7 0 0 Z " fill="#000000" transform="translate(653,354)"/>
<path d="M0 0 C1.98 0 3.96 0 6 0 C6 18.15 6 36.3 6 55 C4.02 55 2.04 55 0 55 C0 36.85 0 18.7 0 0 Z " fill="#000000" transform="translate(546,354)"/>
<path d="M0 0 C1.98 0 3.96 0 6 0 C6 18.15 6 36.3 6 55 C4.02 55 2.04 55 0 55 C0 36.85 0 18.7 0 0 Z " fill="#000000" transform="translate(434,354)"/>
<path d="M0 0 C1.98 0 3.96 0 6 0 C6 18.15 6 36.3 6 55 C4.02 55 2.04 55 0 55 C0 36.85 0 18.7 0 0 Z " fill="#000000" transform="translate(216,354)"/>
<path d="M0 0 C1.98 0 3.96 0 6 0 C6 18.15 6 36.3 6 55 C4.02 55 2.04 55 0 55 C0 36.85 0 18.7 0 0 Z " fill="#000000" transform="translate(205,354)"/>
<path d="M0 0 C1.98 0 3.96 0 6 0 C6 18.15 6 36.3 6 55 C4.02 55 2.04 55 0 55 C0 36.85 0 18.7 0 0 Z " fill="#010101" transform="translate(99,354)"/>
<path d="M0 0 C1.98 0 3.96 0 6 0 C6 18.15 6 36.3 6 55 C4.02 55 2.04 55 0 55 C0 36.85 0 18.7 0 0 Z " fill="#000000" transform="translate(664,298)"/>
<path d="M0 0 C1.98 0 3.96 0 6 0 C6 18.15 6 36.3 6 55 C4.02 55 2.04 55 0 55 C0 36.85 0 18.7 0 0 Z " fill="#000000" transform="translate(653,298)"/>
<path d="M0 0 C1.98 0 3.96 0 6 0 C6 18.15 6 36.3 6 55 C4.02 55 2.04 55 0 55 C0 36.85 0 18.7 0 0 Z " fill="#000000" transform="translate(546,298)"/>
<path d="M0 0 C1.98 0 3.96 0 6 0 C6 18.15 6 36.3 6 55 C4.02 55 2.04 55 0 55 C0 36.85 0 18.7 0 0 Z " fill="#000000" transform="translate(434,298)"/>
<path d="M0 0 C1.98 0 3.96 0 6 0 C6 18.15 6 36.3 6 55 C4.02 55 2.04 55 0 55 C0 36.85 0 18.7 0 0 Z " fill="#000000" transform="translate(216,298)"/>
<path d="M0 0 C1.98 0 3.96 0 6 0 C6 18.15 6 36.3 6 55 C4.02 55 2.04 55 0 55 C0 36.85 0 18.7 0 0 Z " fill="#000000" transform="translate(205,298)"/>
<path d="M0 0 C1.98 0 3.96 0 6 0 C6 18.15 6 36.3 6 55 C4.02 55 2.04 55 0 55 C0 36.85 0 18.7 0 0 Z " fill="#010101" transform="translate(99,298)"/>
<path d="M0 0 C1.98 0 3.96 0 6 0 C6 18.15 6 36.3 6 55 C4.02 55 2.04 55 0 55 C0 36.85 0 18.7 0 0 Z " fill="#000000" transform="translate(664,242)"/>
<path d="M0 0 C1.98 0 3.96 0 6 0 C6 18.15 6 36.3 6 55 C4.02 55 2.04 55 0 55 C0 36.85 0 18.7 0 0 Z " fill="#000000" transform="translate(546,242)"/>
<path d="M0 0 C1.98 0 3.96 0 6 0 C6 18.15 6 36.3 6 55 C4.02 55 2.04 55 0 55 C0 36.85 0 18.7 0 0 Z " fill="#000000" transform="translate(216,242)"/>
<path d="M0 0 C1.98 0 3.96 0 6 0 C6 18.15 6 36.3 6 55 C4.02 55 2.04 55 0 55 C0 36.85 0 18.7 0 0 Z " fill="#000000" transform="translate(205,242)"/>
<path d="M0 0 C1.98 0 3.96 0 6 0 C6 18.15 6 36.3 6 55 C4.02 55 2.04 55 0 55 C0 36.85 0 18.7 0 0 Z " fill="#010101" transform="translate(99,242)"/>
<path d="M0 0 C1.98 0 3.96 0 6 0 C6 18.15 6 36.3 6 55 C4.02 55 2.04 55 0 55 C0 36.85 0 18.7 0 0 Z " fill="#000000" transform="translate(546,186)"/>
<path d="M0 0 C1.98 0 3.96 0 6 0 C6 18.15 6 36.3 6 55 C4.02 55 2.04 55 0 55 C0 36.85 0 18.7 0 0 Z " fill="#010101" transform="translate(99,186)"/>
<path d="M0 0 C1.98 0 3.96 0 6 0 C6 18.15 6 36.3 6 55 C4.02 55 2.04 55 0 55 C0 36.85 0 18.7 0 0 Z " fill="#000000" transform="translate(546,130)"/>
<path d="M0 0 C18.15 0 36.3 0 55 0 C55 1.98 55 3.96 55 6 C36.85 6 18.7 6 0 6 C0 4.02 0 2.04 0 0 Z " fill="#000000" transform="translate(466,104)"/>
<path d="M0 0 C18.15 0 36.3 0 55 0 C55 1.98 55 3.96 55 6 C36.85 6 18.7 6 0 6 C0 4.02 0 2.04 0 0 Z " fill="#000000" transform="translate(410,104)"/>
<path d="M0 0 C18.15 0 36.3 0 55 0 C55 1.98 55 3.96 55 6 C36.85 6 18.7 6 0 6 C0 4.02 0 2.04 0 0 Z " fill="#000000" transform="translate(354,104)"/>
<path d="M0 0 C18.15 0 36.3 0 55 0 C55 1.98 55 3.96 55 6 C36.85 6 18.7 6 0 6 C0 4.02 0 2.04 0 0 Z " fill="#000000" transform="translate(298,104)"/>
<path d="M0 0 C18.15 0 36.3 0 55 0 C55 1.98 55 3.96 55 6 C36.85 6 18.7 6 0 6 C0 4.02 0 2.04 0 0 Z " fill="#000000" transform="translate(242,104)"/>
<path d="M0 0 C18.15 0 36.3 0 55 0 C55 1.98 55 3.96 55 6 C36.85 6 18.7 6 0 6 C0 4.02 0 2.04 0 0 Z " fill="#000000" transform="translate(186,104)"/>
<path d="M0 0 C18.15 0 36.3 0 55 0 C55 1.98 55 3.96 55 6 C36.85 6 18.7 6 0 6 C0 4.02 0 2.04 0 0 Z " fill="#000000" transform="translate(130,104)"/>
<path d="M0 0 C18.15 0 36.3 0 55 0 C55 1.98 55 3.96 55 6 C36.85 6 18.7 6 0 6 C0 4.02 0 2.04 0 0 Z " fill="#000000" transform="translate(466,93)"/>
<path d="M0 0 C18.15 0 36.3 0 55 0 C55 1.98 55 3.96 55 6 C36.85 6 18.7 6 0 6 C0 4.02 0 2.04 0 0 Z " fill="#000000" transform="translate(410,93)"/>
<path d="M0 0 C18.15 0 36.3 0 55 0 C55 1.98 55 3.96 55 6 C36.85 6 18.7 6 0 6 C0 4.02 0 2.04 0 0 Z " fill="#000000" transform="translate(354,93)"/>
<path d="M0 0 C18.15 0 36.3 0 55 0 C55 1.98 55 3.96 55 6 C36.85 6 18.7 6 0 6 C0 4.02 0 2.04 0 0 Z " fill="#000000" transform="translate(298,93)"/>
<path d="M0 0 C18.15 0 36.3 0 55 0 C55 1.98 55 3.96 55 6 C36.85 6 18.7 6 0 6 C0 4.02 0 2.04 0 0 Z " fill="#000000" transform="translate(242,93)"/>
<path d="M0 0 C18.15 0 36.3 0 55 0 C55 1.98 55 3.96 55 6 C36.85 6 18.7 6 0 6 C0 4.02 0 2.04 0 0 Z " fill="#000000" transform="translate(186,93)"/>
<path d="M0 0 C18.15 0 36.3 0 55 0 C55 1.98 55 3.96 55 6 C36.85 6 18.7 6 0 6 C0 4.02 0 2.04 0 0 Z " fill="#000000" transform="translate(130,93)"/>
<path d="M0 0 C18.15 0 36.3 0 55 0 C55 1.65 55 3.3 55 5 C36.85 5 18.7 5 0 5 C0 3.35 0 1.7 0 0 Z " fill="#000000" transform="translate(354,211)"/>
<path d="M0 0 C18.15 0 36.3 0 55 0 C55 1.65 55 3.3 55 5 C36.85 5 18.7 5 0 5 C0 3.35 0 1.7 0 0 Z " fill="#000000" transform="translate(298,211)"/>
<path d="M0 0 C18.15 0 36.3 0 55 0 C55 1.65 55 3.3 55 5 C36.85 5 18.7 5 0 5 C0 3.35 0 1.7 0 0 Z " fill="#000000" transform="translate(242,211)"/>
<path d="M0 0 C2.16796875 0.3515625 2.16796875 0.3515625 4.79296875 2.0390625 C6.16796875 4.3515625 6.16796875 4.3515625 5.98046875 6.9765625 C5.16796875 9.3515625 5.16796875 9.3515625 4.16796875 11.3515625 C4.68359375 11.7434375 5.19921875 12.1353125 5.73046875 12.5390625 C7.16796875 14.3515625 7.16796875 14.3515625 7.04296875 16.8515625 C6.08912655 19.57682593 5.41513301 20.58593344 3.16796875 22.3515625 C-0.22271921 23.04119395 -3.42908408 22.94762012 -6.83203125 22.3515625 C-9.95703125 19.9765625 -9.95703125 19.9765625 -11.83203125 17.3515625 C-11.83203125 16.6915625 -11.83203125 16.0315625 -11.83203125 15.3515625 C-7.3636391 15.13878192 -4.00940599 15.76018165 0.16796875 17.3515625 C0.16796875 16.3615625 0.16796875 15.3715625 0.16796875 14.3515625 C-2.80203125 13.8565625 -2.80203125 13.8565625 -5.83203125 13.3515625 C-5.83203125 12.0315625 -5.83203125 10.7115625 -5.83203125 9.3515625 C-3.85203125 9.0215625 -1.87203125 8.6915625 0.16796875 8.3515625 C-0.16203125 7.6915625 -0.49203125 7.0315625 -0.83203125 6.3515625 C-2.8566638 5.69942958 -2.8566638 5.69942958 -4.83203125 5.3515625 C-4.83203125 6.0115625 -4.83203125 6.6715625 -4.83203125 7.3515625 C-6.81203125 7.3515625 -8.79203125 7.3515625 -10.83203125 7.3515625 C-9.68781464 0.71510615 -6.17443215 -0.22159463 0 0 Z " fill="#F6FCF8" transform="translate(103.83203125,90.6484375)"/>
<path d="M0 0 C2.625 1.6875 2.625 1.6875 4 4 C3.75 6.5625 3.75 6.5625 3 9 C3 9.99 3 10.98 3 12 C3.33 12.33 3.66 12.66 4 13 C4.46444644 18.34113411 4.46444644 18.34113411 2.82421875 20.66796875 C-0.84421625 23.34663328 -5.68147423 22.59476702 -10 22 C-12.6875 20.1875 -12.6875 20.1875 -14 18 C-14 17.01 -14 16.02 -14 15 C-10.16774573 14.91087781 -6.73437848 15.12132271 -3 16 C-2.67 15.34 -2.34 14.68 -2 14 C-4.97 13.505 -4.97 13.505 -8 13 C-8 11.68 -8 10.36 -8 9 C-7.360625 8.896875 -6.72125 8.79375 -6.0625 8.6875 C-5.381875 8.460625 -4.70125 8.23375 -4 8 C-3.67 7.01 -3.34 6.02 -3 5 C-4.32 5 -5.64 5 -7 5 C-7 5.66 -7 6.32 -7 7 C-8.98 7 -10.96 7 -13 7 C-12.6875 4.625 -12.6875 4.625 -12 2 C-7.98272339 -0.67818441 -4.71973745 -0.68882655 0 0 Z " fill="#F7FCF9" transform="translate(218,538)"/>
<path d="M0 0 C2.625 1.6875 2.625 1.6875 4 4 C3.75 6.5625 3.75 6.5625 3 9 C3 9.99 3 10.98 3 12 C3.33 12.33 3.66 12.66 4 13 C4.46444644 18.34113411 4.46444644 18.34113411 2.82421875 20.66796875 C-0.84421625 23.34663328 -5.68147423 22.59476702 -10 22 C-12.6875 20.1875 -12.6875 20.1875 -14 18 C-14 17.01 -14 16.02 -14 15 C-10.16774573 14.91087781 -6.73437848 15.12132271 -3 16 C-2.67 15.34 -2.34 14.68 -2 14 C-4.97 13.505 -4.97 13.505 -8 13 C-8 11.68 -8 10.36 -8 9 C-7.360625 8.896875 -6.72125 8.79375 -6.0625 8.6875 C-5.381875 8.460625 -4.70125 8.23375 -4 8 C-3.67 7.01 -3.34 6.02 -3 5 C-4.32 5 -5.64 5 -7 5 C-7 5.66 -7 6.32 -7 7 C-8.98 7 -10.96 7 -13 7 C-12.6875 4.625 -12.6875 4.625 -12 2 C-7.98272339 -0.67818441 -4.71973745 -0.68882655 0 0 Z " fill="#F7FCF9" transform="translate(218,203)"/>
<path d="M0 0 C2.5 1.125 2.5 1.125 4 3 C4.25 6 4.25 6 4 9 C4 9.99 4 10.98 4 12 C4.33 12.33 4.66 12.66 5 13 C5.3125 15.875 5.3125 15.875 5 19 C2.12887152 21.8054276 -0.03555461 22.43145664 -4 22.4375 C-7.47944353 22.33486155 -8.69827908 22.20833111 -11.625 20.1875 C-13 18 -13 18 -13 15 C-9.16774573 14.91087781 -5.73437848 15.12132271 -2 16 C-1.67 15.34 -1.34 14.68 -1 14 C-3.97 13.505 -3.97 13.505 -7 13 C-7 11.68 -7 10.36 -7 9 C-6.360625 8.896875 -5.72125 8.79375 -5.0625 8.6875 C-4.381875 8.460625 -3.70125 8.23375 -3 8 C-2.67 7.01 -2.34 6.02 -2 5 C-3.0828125 5.495 -3.0828125 5.495 -4.1875 6 C-7.01697427 7.00603529 -9.02895466 7.16977402 -12 7 C-11.6875 4.625 -11.6875 4.625 -11 2 C-7.29376793 -0.47082138 -4.29660742 -0.54464038 0 0 Z " fill="#F9FCFA" transform="translate(665,650)"/>
<path d="M0 0 C2.5 1.125 2.5 1.125 4 3 C4.25 6 4.25 6 4 9 C4 9.99 4 10.98 4 12 C4.33 12.33 4.66 12.66 5 13 C5.3125 15.875 5.3125 15.875 5 19 C2.12887152 21.8054276 -0.03555461 22.43145664 -4 22.4375 C-7.47944353 22.33486155 -8.69827908 22.20833111 -11.625 20.1875 C-13 18 -13 18 -13 15 C-9.16774573 14.91087781 -5.73437848 15.12132271 -2 16 C-1.67 15.34 -1.34 14.68 -1 14 C-3.97 13.505 -3.97 13.505 -7 13 C-7 11.68 -7 10.36 -7 9 C-6.360625 8.896875 -5.72125 8.79375 -5.0625 8.6875 C-4.381875 8.460625 -3.70125 8.23375 -3 8 C-2.67 7.01 -2.34 6.02 -2 5 C-3.0828125 5.495 -3.0828125 5.495 -4.1875 6 C-7.01697427 7.00603529 -9.02895466 7.16977402 -12 7 C-11.6875 4.625 -11.6875 4.625 -11 2 C-7.29376793 -0.47082138 -4.29660742 -0.54464038 0 0 Z " fill="#F9FCFA" transform="translate(553,91)"/>
<path d="M0 0 C2.16796875 0.34375 2.16796875 0.34375 4.79296875 1.90625 C6.16796875 4.34375 6.16796875 4.34375 6.29296875 7.78125 C4.82868024 12.4181636 3.08487821 13.59357953 -0.83203125 16.34375 C1.47796875 16.67375 3.78796875 17.00375 6.16796875 17.34375 C6.16796875 18.99375 6.16796875 20.64375 6.16796875 22.34375 C0.55796875 22.34375 -5.05203125 22.34375 -10.83203125 22.34375 C-10.83203125 17.34375 -10.83203125 17.34375 -8.64453125 14.95703125 C-7.25234375 13.81814453 -7.25234375 13.81814453 -5.83203125 12.65625 C-4.13543399 11.25420087 -2.46073448 9.8241249 -0.83203125 8.34375 C-0.83203125 7.68375 -0.83203125 7.02375 -0.83203125 6.34375 C-2.15203125 6.01375 -3.47203125 5.68375 -4.83203125 5.34375 C-5.16203125 6.33375 -5.49203125 7.32375 -5.83203125 8.34375 C-7.48203125 8.34375 -9.13203125 8.34375 -10.83203125 8.34375 C-9.8568179 1.12717124 -6.89479386 -0.26994299 0 0 Z " fill="#F8FCFA" transform="translate(103.83203125,649.65625)"/>
<path d="M0 0 C2.5 1.0625 2.5 1.0625 4 3 C4.625 6.3125 4.625 6.3125 4 10 C2.19846276 12.3846938 0.29667056 14.03826057 -2 16 C0.31 16.33 2.62 16.66 5 17 C5 18.65 5 20.3 5 22 C-0.61 22 -6.22 22 -12 22 C-12 17 -12 17 -10.03125 14.8671875 C-9.1959375 14.20976562 -8.360625 13.55234375 -7.5 12.875 C-5.00515511 10.95670312 -5.00515511 10.95670312 -3 9 C-3 8.01 -3 7.02 -3 6 C-3.99 6 -4.98 6 -6 6 C-6.33 6.66 -6.66 7.32 -7 8 C-8.98 8 -10.96 8 -13 8 C-12.68762196 5.11050316 -12.35661121 3.41366901 -10.4375 1.1875 C-6.92158856 -0.52537993 -3.8397516 -0.55865238 0 0 Z " fill="#F8FCFA" transform="translate(665,203)"/>
<path d="M0 0 C3.28004906 1.35480287 4.6151218 2.08591428 6 5.375 C6 8.80272592 5.06607824 10.29272507 3 13 C0.8125 14.8125 0.8125 14.8125 -1 16 C1.31 16.33 3.62 16.66 6 17 C6 18.65 6 20.3 6 22 C0.39 22 -5.22 22 -11 22 C-11 17 -11 17 -9.06640625 14.90234375 C-8.24011719 14.25394531 -7.41382813 13.60554687 -6.5625 12.9375 C-2.46296639 9.76842153 -2.46296639 9.76842153 -1 5 C-2.32 5 -3.64 5 -5 5 C-5.33 5.99 -5.66 6.98 -6 8 C-7.65 8 -9.3 8 -11 8 C-11.25 5.6875 -11.25 5.6875 -11 3 C-7.85965733 -0.64279749 -4.57607483 -0.48169209 0 0 Z " fill="#F8FCFA" transform="translate(552,538)"/>
<path d="M0 0 C3.28004906 1.35480287 4.6151218 2.08591428 6 5.375 C6 8.80272592 5.06607824 10.29272507 3 13 C0.8125 14.8125 0.8125 14.8125 -1 16 C1.31 16.33 3.62 16.66 6 17 C6 18.65 6 20.3 6 22 C0.39 22 -5.22 22 -11 22 C-11 17 -11 17 -9.06640625 14.90234375 C-8.24011719 14.25394531 -7.41382813 13.60554687 -6.5625 12.9375 C-2.46296639 9.76842153 -2.46296639 9.76842153 -1 5 C-2.32 5 -3.64 5 -5 5 C-5.33 5.99 -5.66 6.98 -6 8 C-7.65 8 -9.3 8 -11 8 C-11.25 5.6875 -11.25 5.6875 -11 3 C-7.85965733 -0.64279749 -4.57607483 -0.48169209 0 0 Z " fill="#F8FCFA" transform="translate(440,203)"/>
<path d="M0 0 C0 7.26 0 14.52 0 22 C-1.98 22 -3.96 22 -6 22 C-6.33 17.05 -6.66 12.1 -7 7 C-8.65 7.66 -10.3 8.32 -12 9 C-12.3125 6.75 -12.3125 6.75 -12 4 C-7.94187515 -0.55001877 -6.58369599 0 0 0 Z " fill="#FBFDFC" transform="translate(442,426)"/>
<path d="M0 0 C1.65 0.33 3.3 0.66 5 1 C5 1.66 5 2.32 5 3 C3.02 3.33 1.04 3.66 -1 4 C-0.67 2.68 -0.34 1.36 0 0 Z " fill="#73CF99" transform="translate(99,96)"/>
<path d="M0 0 C1.32 0 2.64 0 4 0 C3.67 1.32 3.34 2.64 3 4 C1.68 4 0.36 4 -1 4 C-0.67 2.68 -0.34 1.36 0 0 Z " fill="#74CF99" transform="translate(659,655)"/>
<path d="M0 0 C1.32 0 2.64 0 4 0 C3.67 1.32 3.34 2.64 3 4 C1.68 4 0.36 4 -1 4 C-0.67 2.68 -0.34 1.36 0 0 Z " fill="#74CF99" transform="translate(547,96)"/>
</svg>
