<?xml version="1.0" encoding="utf-8"?><svg version="1.1" id="BackgroundSVG" xmlns="http://www.w3.org/2000/svg" viewBox="-30 0 120 120"><defs><g id="m"><circle cx="5" cy="5" r="1" fill="#800000" /><circle cx="15" cy="5" r="1" fill="#008000" /><circle cx="25" cy="5" r="1" fill="#800000" /></g></defs><style> .small { font: 2px sans-serif; text-anchor: middle; alignment-baseline: middle; } </style><rect x="0" y="0" width="60" height="70" fill="#ead1dc" /><rect x="0" y="70" width="60" height="50" fill="#ffd966" /><path d="M0,0 V120 M10,0 V120 M20,0 V120 M30,0 V120 M40,0 V120 M50,0 V120 M60,0 V120 M0,0 H60 M0,10 H60 M0,20 H60 M0,30 H60 M0,40 H60 M0,50 H60 M0,60 H60 M0,70 H60 M0,80 H60 M0,90 H60 M0,100 H60 M0,110 H60 M0,120 H60" stroke="black" stroke-width="0.125" /><path d="M30,0 h 30 v 10 h-30 z M0,10 h30 v10 h-30 z M30,20 h30 v10 h-30 z M0,30 h30 v10 h-30 z M30,40 h30 v10 h-30 z M0,50 h30 v10 h-30 z M30,60 h30 v10 h-30 z M0,70 h30 v10 h-30 z M30,80 h30 v10 h-30 z M0,90 h30 v10 h-30 z M30,100 h30 v10 h-30 z M0,110 h30 v10 h-30 z" stroke="black" stroke-width="0.125" fill="#ffd966" /><g class="small" transform="translate(0 0.7)"><text x="45" y="5">Jenga</text><text x="15" y="15">Jenga</text><text x="45" y="25">Jenga</text><text x="15" y="35">Jenga</text><text x="45" y="45">Jenga</text><text x="15" y="55">Jenga</text><text x="45" y="65">Jenga</text><text x="15" y="75">Jenga</text><text x="45" y="85">Jenga</text><text x="15" y="95">Jenga</text><text x="45" y="105">Jenga</text><text x="15" y="115">Jenga</text><text x="5" y="5">X</text><text x="15" y="5">X</text><text x="25" y="5">X</text><text x="35" y="15">X</text><text x="45" y="15">X</text><text x="55" y="15">X</text><text x="5" y="25">X</text><text x="15" y="25">X</text><text x="25" y="25">X</text><text x="35" y="35">X</text><text x="45" y="35">X</text><text x="55" y="35">X</text><text x="5" y="45">X</text><text x="15" y="45">X</text><text x="25" y="45">X</text><text x="35" y="55">X</text><text x="45" y="55">X</text><text x="55" y="55">X</text><text x="5" y="65">X</text><text x="15" y="65">X</text><text x="25" y="65">X</text></g><use href="#m" x="0" y="80" /><use href="#m" x="30" y="90" /><use href="#m" x="0" y="100" /><use href="#m" x="30" y="110" /></svg>