<svg xmlns="http://www.w3.org/2000/svg" viewBox="0 0 100 100"><defs><g id="w" transform="scale(0.5555) translate(0,0.3)" style="stroke:#000000;stroke-width:1.5;stroke-linecap:round;stroke-linejoin:round;"><path d="M 22,10 C 32.5,11 38.5,18 38,39 L 15,39 C 15,30 25,32.5 23,18" style="fill:#ffffff; stroke:#000000;" /><path d="M 24,18 C 24.38,20.91 18.45,25.37 16,27 C 13,29 13.18,31.34 11,31 C 9.958,30.06 12.41,27.96 11,28 C 10,28 11.19,29.23 10,30 C 9,30 5.997,31 6,26 C 6,24 12,14 12,14 C 12,14 13.89,12.1 14,10.5 C 13.27,9.506 13.5,8.5 13.5,7.5 C 14.5,6.5 16.5,10 16.5,10 L 18.5,10 C 18.5,10 19.28,8.008 21,7 C 22,7 22,10 22,10" style="fill:#ffffff; stroke:#000000;" /><path d="M 9.5 25.5 A 0.5 0.5 0 1 1 8.5,25.5 A 0.5 0.5 0 1 1 9.5 25.5 z" style="fill:#000000; stroke:#000000;" /><path d="M 15 15.5 A 0.5 1.5 0 1 1  14,15.5 A 0.5 1.5 0 1 1  15 15.5 z" transform="matrix(0.866,0.5,-0.5,0.866,9.693,-5.173)" style="fill:#000000; stroke:#000000;" /></g><g id="b" transform="scale(0.5555) translate(0,0.3)" style="stroke:#000000;stroke-width:1.5;"><path d="M 22,10 C 32.5,11 38.5,18 38,39 L 15,39 C 15,30 25,32.5 23,18" style="fill:#000000; stroke:#000000;" /><path d="M 24,18 C 24.38,20.91 18.45,25.37 16,27 C 13,29 13.18,31.34 11,31 C 9.958,30.06 12.41,27.96 11,28 C 10,28 11.19,29.23 10,30 C 9,30 5.997,31 6,26 C 6,24 12,14 12,14 C 12,14 13.89,12.1 14,10.5 C 13.27,9.506 13.5,8.5 13.5,7.5 C 14.5,6.5 16.5,10 16.5,10 L 18.5,10 C 18.5,10 19.28,8.008 21,7 C 22,7 22,10 22,10" style="fill:#000000; stroke:#000000;" /><path d="M 9.5 25.5 A 0.5 0.5 0 1 1 8.5,25.5 A 0.5 0.5 0 1 1 9.5 25.5 z" style="fill:#ffffff; stroke:#ffffff;" /><path d="M 15 15.5 A 0.5 1.5 0 1 1  14,15.5 A 0.5 1.5 0 1 1  15 15.5 z" transform="matrix(0.866,0.5,-0.5,0.866,9.693,-5.173)" style="fill:#ffffff; stroke:#ffffff;" /><path d="M 24.55,10.4 L 24.1,11.85 L 24.6,12 C 27.75,13 30.25,14.49 32.5,18.75 C 34.75,23.01 35.75,29.06 35.25,39 L 35.2,39.5 L 37.45,39.5 L 37.5,39 C 38,28.94 36.62,22.15 34.25,17.66 C 31.88,13.17 28.46,11.02 25.06,10.5 L 24.55,10.4 z " style="fill:#ffffff; stroke:none;" /></g></defs><path d="M0,0 h100 v100 h-100 z" stroke="none" fill="#FEC595" /><path d="M0,0h25v25h-25zM50,0h25v25h-25zM25,25h25v25h-25zM75,25h25v25h-25zM0,50h25v25h-25zM50,50h25v25h-25zM25,75h25v25h-25zM75,75h25v25h-25z" stroke="none" fill="#C97D41" /><path d="M0,0h25v25h-25M50,25h25v25h-25zM75,75h25v25h-25z" fill="#444" /><use href="#w" x="0" y="50" /><use href="#b" x="25" y="50" /><path d="M40.85410196624969,62.5L80.63378119337546,42.610160386437116L81.97542197987532,45.29344195943686 L85.71114561800017,38.39442719099991L77.95049962037571,37.24359724043762L79.29214040687557,39.92687881343737 L39.512461179749806,59.816718427000254A 1.5 1.5 0 0 0 40.85410196624969 62.5Z" fill="#008800" stroke="#008800" opacity="1" /><path d="M40.183281572999746,60.487538820250194L60.07312118656263,20.707859593124432L62.75640275956238,22.049500379624305 L61.60557280900009,14.288854381999831L54.70655804056314,18.024578020124686L57.389839613562884,19.36621880662456 L37.5,59.14589803375031A 1.5 1.5 0 0 0 40.183281572999746 60.487538820250194Z" fill="#008800" stroke="#008800" opacity="1" /></svg>