<svg xmlns="http://www.w3.org/2000/svg" viewBox="0 0 100 100"><defs><g id="w" transform="scale(0.4444) translate(0,0.3)" style="stroke:#000000;stroke-width:1.5;stroke-linecap:round;stroke-linejoin:round;"><path d="M 22,10 C 32.5,11 38.5,18 38,39 L 15,39 C 15,30 25,32.5 23,18" style="fill:#ffffff; stroke:#000000;" /><path d="M 24,18 C 24.38,20.91 18.45,25.37 16,27 C 13,29 13.18,31.34 11,31 C 9.958,30.06 12.41,27.96 11,28 C 10,28 11.19,29.23 10,30 C 9,30 5.997,31 6,26 C 6,24 12,14 12,14 C 12,14 13.89,12.1 14,10.5 C 13.27,9.506 13.5,8.5 13.5,7.5 C 14.5,6.5 16.5,10 16.5,10 L 18.5,10 C 18.5,10 19.28,8.008 21,7 C 22,7 22,10 22,10" style="fill:#ffffff; stroke:#000000;" /><path d="M 9.5 25.5 A 0.5 0.5 0 1 1 8.5,25.5 A 0.5 0.5 0 1 1 9.5 25.5 z" style="fill:#000000; stroke:#000000;" /><path d="M 15 15.5 A 0.5 1.5 0 1 1  14,15.5 A 0.5 1.5 0 1 1  15 15.5 z" transform="matrix(0.866,0.5,-0.5,0.866,9.693,-5.173)" style="fill:#000000; stroke:#000000;" /></g><g id="b" transform="scale(0.4444) translate(0,0.3)" style="stroke:#000000;stroke-width:1.5;"><path d="M 22,10 C 32.5,11 38.5,18 38,39 L 15,39 C 15,30 25,32.5 23,18" style="fill:#000000; stroke:#000000;" /><path d="M 24,18 C 24.38,20.91 18.45,25.37 16,27 C 13,29 13.18,31.34 11,31 C 9.958,30.06 12.41,27.96 11,28 C 10,28 11.19,29.23 10,30 C 9,30 5.997,31 6,26 C 6,24 12,14 12,14 C 12,14 13.89,12.1 14,10.5 C 13.27,9.506 13.5,8.5 13.5,7.5 C 14.5,6.5 16.5,10 16.5,10 L 18.5,10 C 18.5,10 19.28,8.008 21,7 C 22,7 22,10 22,10" style="fill:#000000; stroke:#000000;" /><path d="M 9.5 25.5 A 0.5 0.5 0 1 1 8.5,25.5 A 0.5 0.5 0 1 1 9.5 25.5 z" style="fill:#ffffff; stroke:#ffffff;" /><path d="M 15 15.5 A 0.5 1.5 0 1 1  14,15.5 A 0.5 1.5 0 1 1  15 15.5 z" transform="matrix(0.866,0.5,-0.5,0.866,9.693,-5.173)" style="fill:#ffffff; stroke:#ffffff;" /><path d="M 24.55,10.4 L 24.1,11.85 L 24.6,12 C 27.75,13 30.25,14.49 32.5,18.75 C 34.75,23.01 35.75,29.06 35.25,39 L 35.2,39.5 L 37.45,39.5 L 37.5,39 C 38,28.94 36.62,22.15 34.25,17.66 C 31.88,13.17 28.46,11.02 25.06,10.5 L 24.55,10.4 z " style="fill:#ffffff; stroke:none;" /></g></defs><path d="M10,0h80v100h-80z" stroke="none" fill="#FEC595" /><path d="M10,0h20v20h-20zM50,0h20v20h-20zM30,20h20v20h-20zM70,20h20v20h-20zM10,40h20v20h-20zM50,40h20v20h-20zM30,60h20v20h-20zM70,60h20v20h-20zM10,80h20v20h-20zM50,80h20v20h-20z" stroke="none" fill="#C97D41" /><path d="M10,0h20v40h-20zM50,0h20v20h-20zM30,40h60v20h-60zM10,60h20v20h-20zM50,80h40v20h-40z" fill="#444" /><use href="#b" x="30" y="20" /><use href="#w" x="30" y="60" /><path d="M40,33.35410196624969L54.889839613562884,63.13378119337545L52.20655804056314,64.47542197987532 L59.10557280900009,68.21114561800017L60.25640275956238,60.450499620375695L57.57312118656263,61.79214040687557 L42.683281572999746,32.012461179749806A 1.5 1.5 0 0 0 40 33.35410196624969Z" fill="#008800" stroke="#008800"/><path d="M43.35410196624969,30L73.13378119337546,15.110160386437123L74.47542197987532,17.79344195943687 L78.21114561800017,10.894427190999917L70.45049962037571,9.743597240437628L71.79214040687557,12.426878813437376 L42.012461179749806,27.316718427000254A 1.5 1.5 0 0 0 43.35410196624969 30Z" fill="#880000" stroke="#880000"/></svg>