<?xml version="1.0" encoding="utf-8"?> <svg version="1.1" id="BackgroundSVG" xmlns="http://www.w3.org/2000/svg" viewBox="0 0 100 100"> <defs> <linearGradient id="Gradient2" x1="0" x2="0" y1="0" y2="1"> <stop offset="0%" stop-color="brown" /> <stop offset="100%" stop-color="#ffbe5c" /> </linearGradient> <g id="b" transform="scale(0.02936)"> <path stroke="#000" stroke-width="5" fill="#ccc" d="m-15.22 283.565c-35.189-3.573-45.307-42.166-54.281-70.403-21.728-71.925-19.353-150.59 8.8376-220.42 16.772-43.545 38.378-88.874 28.849-136.85-2.3962-39.516-16.314-82.146 1.4204-119.83 17.044-26.405 58.504-27.99 76.714-1.9176 19.432 36.189 2.366 78.176-1.6466 116.17-9.1357 37.648-3.8747 76.675 10.254 112.36 25.88 67.711 38.654 142.46 20.817 213.82-9.3019 35.22-18.208 74.114-45.21 100.26-13.22 8.5605-30.62 8.8407-45.755 6.8136z" /> <path fill="#b11313" d="m19.07 -161.995c-32.119 0.25109-50.588 2.2997-50.591 5.5625-0.004 4.0588 0.88754 31.93 3.695 33.031 2.1502 0.84331-1.5692 1.0786 5.7128-0.28125l51.177-1.9062 5.8555-0.0312c3.2644-0.0245 6.2735-0.61615 6.8314-1.3125 1.0757-1.3426 5.5787-30.94 4.8015-31.562-0.25639-0.20524-2.6034-0.97626-5.2309-1.7188l-4.7625-1.3438c4.1745-0.54949-15.183-0.5013-17.488-0.43755zm19.674 51.094zm-68.907 17.5c-0.41123 0.32919-0.83935 4.1122-1.8231 8.4062-0.98374 4.294-1.6917 13.099-4.181 19.562-1.7798 4.6214-3.1308 8.6738-3.6694 10.75 0.54822-0.32613 1.6195-0.39166 3.3571-0.1875 3.0948 0.36361 3.9478 0.56913 2.5374 0.96875 11.556-1.8424 45.114-1.6768 62.419-0.0937l-0.66362-0.0937 7.2608-0.6875c4.0026-0.3637 11.604-1.7648 12.143-2.2455 0.53897-0.48076-2.6318-4.4357-3.5208-9.6607-0.88896-5.225-2.6634-12.723-2.709-16.966-0.0932-8.6578-0.59458-9.4142-10.441-10.971-4.6333-2.101-45.835-0.77223-60.709 1.2186zm58.65 39.41 4.68 0.53c0.43069 0.0502 0.78069 0.10273 1.1711 0.15625-1.6126-0.25225-3.6078-0.48188-5.8555-0.6875zm-62.419 0.0937c-0.63888 0.10185-1.2592 0.19829-1.7566 0.3125-1.4294 0.32816-2.7553 0.49846-3.5914 0.5 0.55243 0.0657 1.3592-0.007 2.4593-0.21875 1.379-0.26483 2.3045-0.42822 2.8887-0.59375zm-5.348 0.8125c-0.37183-0.0443-0.66248-0.13603-0.81977-0.3125 0.00043 0.0852-0.0262 0.19772 0 0.21875 0.10497 0.084 0.43059 0.0945 0.81977 0.0937v0.00005zm-0.81977-0.3125c-0.001-0.22006 0.11843-0.6846 0.27326-1.2812-0.28241 0.16801-0.11631 0.73438-0.4294 0.6875-1.7678-0.26471 0.0258 0.44753 0.15614 0.59375z" /> </g> <circle id="e" cy="51" r="1" fill="#000"/> </defs> <rect x="0" y="0" rx="8" ry="8" width="100" height="100" fill="url(#Gradient2)" /> <use href="#b" x="9" y="50"/> <use href="#b" x="22" y="50"/> <use href="#b" x="35" y="50"/> <use href="#b" x="65" y="50"/> <use href="#b" x="78" y="50"/> <use href="#b" x="91" y="50"/> <use href="#e" x="45"/> <use href="#e" x="50"/> <use href="#e" x="55"/> </svg>