<?xml version="1.0" encoding="utf-8"?><svg version="1.1" id="BackgroundSVG" xmlns="http://www.w3.org/2000/svg" viewBox="-0.125 -0.125 40.25 40.25"><defs><radialGradient id="g"><stop offset="0%" stop-color="#ff5d78" /><stop offset="100%" stop-color="#FFC0CB" /></radialGradient><radialGradient id="rg1" cx="-107.6189" cy="-90.5162" r="10" fx="-109.6206" fy="-92.5178" gradientTransform="matrix(1 0 0 1 159.5 142.5)" gradientUnits="userSpaceOnUse"><stop offset="0" stop-color="#000" /><stop offset="1" stop-color="#000" stop-opacity="0" /></radialGradient><radialGradient id="rg2" cx="-109.6189" cy="-92.5162" r="10" fx="-114.623" fy="-97.5203" gradientTransform="matrix(1 0 0 1 159.5 142.5)" gradientUnits="userSpaceOnUse"><stop offset="0" stop-color="#888888" /><stop offset="0.5" stop-color="#5B5B5B" /><stop offset="1" stop-color="#000000" /></radialGradient><radialGradient id="rg3" cx="-107.5" cy="190.5449" r="10" fx="-109.5" fy="188.55" gradientTransform="matrix(1 0 0 -1 159.5 242.5)" gradientUnits="userSpaceOnUse"><stop offset="0" stop-color="#000000" /><stop offset="1" stop-color="#000000" stop-opacity="0" /></radialGradient><radialGradient id="rg4" cx="-109.5" cy="192.55" r="10" fx="-114.5" fy="187.55" gradientTransform="matrix(0 1 1 0 -142.5 159.5)" gradientUnits="userSpaceOnUse"><stop offset="0" stop-color="#FFFFFF" /><stop offset="0.5" stop-color="#DDDDDD" /><stop offset="1" stop-color="#999999" /></radialGradient><g id="b" transform="scale(0.40909) translate(-50 -50)"><path fill="url(#rg1)" d="M61.9,52c0,5.5-4.5,10-10,10s-10-4.5-10-10s4.5-10,10-10S61.9,46.5,61.9,52z" /><path fill="url(#rg2)" d="M59.9,50c0,5.5-4.5,10-10,10s-10-4.5-10-10s4.5-10,10-10S59.9,44.5,59.9,50z" /></g><g id="w" transform="scale(0.40909) translate(-50 -50)"><path fill="url(#rg3)" d="M61.9,52c0,5.5-4.5,10-10,10s-10-4.5-10-10s4.5-10,10-10S61.9,46.5,61.9,52z" /><path fill="url(#rg4)" d="M59.9,50c0,5.5-4.5,10-10,10s-10-4.5-10-10s4.5-10,10-10S59.9,44.5,59.9,50z" /></g></defs><path d="M0,0h40v40h-40z" stroke="#000" stroke-width="0.25" fill="url(#g)" /><path d="M0,10h40m-40,10h40m-40,10h40M10,0v40m10,-40v40m10,-40v40" stroke-width="0.25" stroke="#000" /><use href="#b" x="5" y="5"/><use href="#w" x="15" y="5"/><use href="#b" x="25" y="5"/><use href="#w" x="35" y="5"/><use href="#w" x="5" y="15"/><use href="#b" x="15" y="15"/><use href="#b" x="35" y="15"/><use href="#b" x="5" y="25"/><use href="#b" x="25" y="25"/><use href="#w" x="35" y="25"/><use href="#w" x="5" y="35"/><use href="#w" x="25" y="35"/><use href="#b" x="35" y="35"/><g transform="scale(0.4)"><path d="M64,84.5L64,45.926666L67,45.926666 L62.5,39.5L58,45.926666L61,45.926666 L61,84.5A 1.5 1.5 0 0 0 64 84.5Z" fill="#008800" stroke="#008800"/><path d="M36,15.5L36,54.073334L33,54.073334 L37.5,60.5L42,54.073334L39,54.073334 L39,15.5A 1.5 1.5 0 0 0 36 15.5Z" fill="#008800" stroke="#008800" opacity="0.75"/><path d="M15.5,39L54.073334,39L54.073334,42 L60.5,37.5L54.073334,33L54.073334,36 L15.5,36A 1.5 1.5 0 0 0 15.5 39Z" fill="#880000" stroke="#880000"/><path d="M84.5,61L45.926666,61L45.926666,58 L39.5,62.5L45.926666,67L45.926666,64 L84.5,64A 1.5 1.5 0 0 0 84.5 61Z" fill="#880000" stroke="#880000" opacity="0.75"/></g></svg>