<?xml version="1.0" encoding="utf-8"?><svg version="1.1" xmlns="http://www.w3.org/2000/svg" viewBox="-0.125 -0.125 50.25 50.25"><defs><radialGradient id="g"><stop offset="0%" stop-color="#ff5d78" /><stop offset="100%" stop-color="#FFC0CB" /></radialGradient><radialGradient id="rg1" cx="-107.6189" cy="-90.5162" r="10" fx="-109.6206" fy="-92.5178" gradientTransform="matrix(1 0 0 1 159.5 142.5)" gradientUnits="userSpaceOnUse"><stop offset="0" stop-color="#000" /><stop offset="1" stop-color="#000" stop-opacity="0" /></radialGradient><radialGradient id="rg2" cx="-109.6189" cy="-92.5162" r="10" fx="-114.623" fy="-97.5203" gradientTransform="matrix(1 0 0 1 159.5 142.5)" gradientUnits="userSpaceOnUse"><stop offset="0" stop-color="#888888" /><stop offset="0.5" stop-color="#5B5B5B" /><stop offset="1" stop-color="#000000" /></radialGradient><radialGradient id="rg3" cx="-107.5" cy="190.5449" r="10" fx="-109.5" fy="188.55" gradientTransform="matrix(1 0 0 -1 159.5 242.5)" gradientUnits="userSpaceOnUse"><stop offset="0" stop-color="#000000" /><stop offset="1" stop-color="#000000" stop-opacity="0" /></radialGradient><radialGradient id="rg4" cx="-109.5" cy="192.55" r="10" fx="-114.5" fy="187.55" gradientTransform="matrix(0 1 1 0 -142.5 159.5)" gradientUnits="userSpaceOnUse"><stop offset="0" stop-color="#FFFFFF" /><stop offset="0.5" stop-color="#DDDDDD" /><stop offset="1" stop-color="#999999" /></radialGradient><g id="b" transform="scale(0.40909) translate(-50 -50)"><path fill="url(#rg1)" d="M61.9,52c0,5.5-4.5,10-10,10s-10-4.5-10-10s4.5-10,10-10S61.9,46.5,61.9,52z" /><path fill="url(#rg2)" d="M59.9,50c0,5.5-4.5,10-10,10s-10-4.5-10-10s4.5-10,10-10S59.9,44.5,59.9,50z" /></g><g id="w" transform="scale(0.40909) translate(-50 -50)"><path fill="url(#rg3)" d="M61.9,52c0,5.5-4.5,10-10,10s-10-4.5-10-10s4.5-10,10-10S61.9,46.5,61.9,52z" /><path fill="url(#rg4)" d="M59.9,50c0,5.5-4.5,10-10,10s-10-4.5-10-10s4.5-10,10-10S59.9,44.5,59.9,50z" /></g></defs><path d="M0,0h50v50h-50z" stroke="#000" stroke-width="0.25" fill="url(#g)" /><path d="M0,10h50m-50,10h50m-50,10h50m-50,10h50M10,0v50m10,-50v50m10,-50v50m10,-50v50" stroke-width="0.25" stroke="#000" /><use href="#b" x="5" y="5"/><use href="#w" x="15" y="5"/><use href="#b" x="25" y="5"/><use href="#w" x="5" y="15"/><use href="#b" x="15" y="15"/><use href="#b" x="35" y="15"/><use href="#w" x="45" y="15"/><use href="#b" x="5" y="25"/><use href="#w" x="15" y="25"/><use href="#w" x="35" y="25"/><use href="#w" x="5" y="35"/><use href="#b" x="15" y="35"/><use href="#b" x="35" y="35"/><use href="#w" x="45" y="35"/><use href="#b" x="5" y="45"/><use href="#w" x="15" y="45"/><use href="#b" x="25" y="45"/><use href="#w" x="35" y="45"/><use href="#b" x="45" y="45"/><g transform="scale(0.5)"><path d="M87,68.5L58.426666,68.5L58.426666,65.5 L52,70L58.426666,74.5L58.426666,71.5 L87,71.5A 1.5 1.5 0 0 0 87 68.5Z" fill="#008800" stroke="#008800"/><path d="M71.5,47L71.5,18.426666L74.5,18.426666 L70,12L65.5,18.426666L68.5,18.426666 L68.5,47A 1.5 1.5 0 0 0 71.5 47Z" fill="#008800" stroke="#008800" opacity="0.75"/><path d="M31.5,87L31.5,58.426666L34.5,58.426666 L30,52L25.5,58.426666L28.5,58.426666 L28.5,87A 1.5 1.5 0 0 0 31.5 87Z" fill="#880000" stroke="#880000"/><path d="M13,71.5L41.573334,71.5L41.573334,74.5 L48,70L41.573334,65.5L41.573334,68.5 L13,68.5A 1.5 1.5 0 0 0 13 71.5Z" fill="#880000" stroke="#880000"/><path d="M87,28.5L58.426666,28.5L58.426666,25.5 L52,30L58.426666,34.5L58.426666,31.5 L87,31.5A 1.5 1.5 0 0 0 87 28.5Z" fill="#880000" stroke="#880000"/><path d="M13,31.5L41.573334,31.5L41.573334,34.5 L48,30L41.573334,25.5L41.573334,28.5 L13,28.5A 1.5 1.5 0 0 0 13 31.5Z" fill="#880000" stroke="#880000"/><path d="M28.5,13L28.5,41.573334L25.5,41.573334 L30,48L34.5,41.573334L31.5,41.573334 L31.5,13A 1.5 1.5 0 0 0 28.5 13Z" fill="#880000" stroke="#880000" opacity="0.75"/><path d="M33,11.5L61.573334,11.5L61.573334,14.5 L68,10L61.573334,5.5L61.573334,8.5 L33,8.5A 1.5 1.5 0 0 0 33 11.5Z" fill="#880000" stroke="#880000" opacity="0.75"/></g></svg>