<?xml version="1.0" encoding="utf-8"?><svg version="1.1" xmlns="http://www.w3.org/2000/svg" viewBox="-0.125 -5.125 60.25 60.25"><defs><radialGradient id="g"><stop offset="0%" stop-color="#ff5d78" /><stop offset="100%" stop-color="#FFC0CB" /></radialGradient><radialGradient id="rg1" cx="-107.6189" cy="-90.5162" r="10" fx="-109.6206" fy="-92.5178" gradientTransform="matrix(1 0 0 1 159.5 142.5)" gradientUnits="userSpaceOnUse"><stop offset="0" stop-color="#000" /><stop offset="1" stop-color="#000" stop-opacity="0" /></radialGradient><radialGradient id="rg2" cx="-109.6189" cy="-92.5162" r="10" fx="-114.623" fy="-97.5203" gradientTransform="matrix(1 0 0 1 159.5 142.5)" gradientUnits="userSpaceOnUse"><stop offset="0" stop-color="#888888" /><stop offset="0.5" stop-color="#5B5B5B" /><stop offset="1" stop-color="#000000" /></radialGradient><radialGradient id="rg3" cx="-107.5" cy="190.5449" r="10" fx="-109.5" fy="188.55" gradientTransform="matrix(1 0 0 -1 159.5 242.5)" gradientUnits="userSpaceOnUse"><stop offset="0" stop-color="#000000" /><stop offset="1" stop-color="#000000" stop-opacity="0" /></radialGradient><radialGradient id="rg4" cx="-109.5" cy="192.55" r="10" fx="-114.5" fy="187.55" gradientTransform="matrix(0 1 1 0 -142.5 159.5)" gradientUnits="userSpaceOnUse"><stop offset="0" stop-color="#FFFFFF" /><stop offset="0.5" stop-color="#DDDDDD" /><stop offset="1" stop-color="#999999" /></radialGradient><g id="b" transform="scale(0.40909) translate(-50 -50)"><path fill="url(#rg1)" d="M61.9,52c0,5.5-4.5,10-10,10s-10-4.5-10-10s4.5-10,10-10S61.9,46.5,61.9,52z" /><path fill="url(#rg2)" d="M59.9,50c0,5.5-4.5,10-10,10s-10-4.5-10-10s4.5-10,10-10S59.9,44.5,59.9,50z" /></g><g id="w" transform="scale(0.40909) translate(-50 -50)"><path fill="url(#rg3)" d="M61.9,52c0,5.5-4.5,10-10,10s-10-4.5-10-10s4.5-10,10-10S61.9,46.5,61.9,52z" /><path fill="url(#rg4)" d="M59.9,50c0,5.5-4.5,10-10,10s-10-4.5-10-10s4.5-10,10-10S59.9,44.5,59.9,50z" /></g></defs><path d="M0,0h60v50h-60z" stroke="#000" stroke-width="0.25" fill="url(#g)" /><path d="M0,10h60m-60,10h60m-60,10h60m-60,10h60M10,0v50m10,-50v50m10,-50v50m10,-50v50m10,-50v50" stroke-width="0.25" stroke="#000" /><use href="#b" x="5" y="5"/><use href="#w" x="15" y="5"/><use href="#b" x="25" y="5"/><use href="#b" x="45" y="5"/><use href="#w" x="55" y="5"/><use href="#w" x="5" y="15"/><use href="#w" x="25" y="15"/><use href="#w" x="45" y="15"/><use href="#b" x="55" y="15"/><use href="#b" x="5" y="25"/><use href="#b" x="25" y="25"/><use href="#w" x="35" y="25"/><use href="#b" x="45" y="25"/><use href="#w" x="55" y="25"/><use href="#b" x="15" y="35"/><use href="#w" x="25" y="35"/><use href="#b" x="35" y="35"/><use href="#w" x="45" y="35"/><use href="#b" x="55" y="35"/><use href="#b" x="25" y="45"/><use href="#w" x="35" y="45"/><use href="#b" x="45" y="45"/><use href="#w" x="55" y="45"/><g transform="scale(0.6)"><path d="M55.333333333333336,73.5L33.426666,73.5L33.426666,70.5 L27,75L33.426666,79.5L33.426666,76.5 L55.333333333333336,76.5A 1.5 1.5 0 0 0 55.333333333333336 73.5Z" fill="#008800" stroke="#008800"/><path d="M55.333333333333336,40.16666666666667L33.426666,40.16666666666667L33.426666,37.16666666666667 L27,41.66666666666667L33.426666,46.16666666666667L33.426666,43.16666666666667 L55.333333333333336,43.16666666666667A 1.5 1.5 0 0 0 55.333333333333336 40.16666666666667Z" fill="#008800" stroke="#008800"/><path d="M6.833333333333334,28L6.833333333333334,49.90666733333334L3.833333333333334,49.90666733333334 L8.333333333333334,56.333333333333336L12.833333333333334,49.90666733333334L9.833333333333334,49.90666733333334 L9.833333333333334,28A 1.5 1.5 0 0 0 6.833333333333334 28Z" fill="#008800" stroke="#008800"/><path d="M28,9.833333333333334L49.90666733333334,9.833333333333334L49.90666733333334,12.833333333333334 L56.333333333333336,8.333333333333334L49.90666733333334,3.833333333333334L49.90666733333334,6.833333333333334 L28,6.833333333333334A 1.5 1.5 0 0 0 28 9.833333333333334Z" fill="#008800" stroke="#008800"/><path d="M88.66666666666667,6.833333333333334L66.75999933333334,6.833333333333334L66.75999933333334,3.833333333333334 L60.333333333333336,8.333333333333334L66.75999933333334,12.833333333333334L66.75999933333334,9.833333333333334 L88.66666666666667,9.833333333333334A 1.5 1.5 0 0 0 88.66666666666667 6.833333333333334Z" fill="#008800" stroke="#008800" opacity="0.75"/><path d="M38.66666666666667,56.833333333333336L16.759999333333333,56.833333333333336L16.759999333333333,53.833333333333336 L10.333333333333334,58.333333333333336L16.759999333333333,62.833333333333336L16.759999333333333,59.833333333333336 L38.66666666666667,59.833333333333336A 1.5 1.5 0 0 0 38.66666666666667 56.833333333333336Z" fill="#880000" stroke="#880000"/></g></svg>