<?xml version="1.0" encoding="utf-8"?>
<svg xmlns="http://www.w3.org/2000/svg" viewBox="0 0 100 100">
<defs>
    <radialGradient id="rg1" cx="-107.6189" cy="-90.5162" r="10" fx="-109.6206" fy="-92.5178"
        gradientTransform="matrix(1 0 0 1 159.5 142.5)" gradientUnits="userSpaceOnUse">
        <stop offset="0" stop-color="#000" />
        <stop offset="1" stop-color="#000" stop-opacity="0" />
    </radialGradient>
    <radialGradient id="rg2" cx="-109.6189" cy="-92.5162" r="10" fx="-114.623" fy="-97.5203"
        gradientTransform="matrix(1 0 0 1 159.5 142.5)" gradientUnits="userSpaceOnUse">
        <stop offset="0" stop-color="#888888" />
        <stop offset="0.5" stop-color="#5B5B5B" />
        <stop offset="1" stop-color="#000000" />
    </radialGradient>
    <radialGradient id="rg3" cx="-107.5" cy="190.5449" r="10" fx="-109.5" fy="188.55"
        gradientTransform="matrix(1 0 0 -1 159.5 242.5)" gradientUnits="userSpaceOnUse">
        <stop offset="0" stop-color="#000000" />
        <stop offset="1" stop-color="#000000" stop-opacity="0" />
    </radialGradient>
    <radialGradient id="rg4" cx="-109.5" cy="192.55" r="10" fx="-114.5" fy="187.55"
        gradientTransform="matrix(0 1 1 0 -142.5 159.5)" gradientUnits="userSpaceOnUse">
        <stop offset="0" stop-color="#FFFFFF" />
        <stop offset="0.5" stop-color="#DDDDDD" />
        <stop offset="1" stop-color="#999999" />
    </radialGradient>
    <g id="b" transform="scale(0.6) translate(-50 -50)">
        <path fill="url(#rg1)" d="M61.9,52c0,5.5-4.5,10-10,10s-10-4.5-10-10s4.5-10,10-10S61.9,46.5,61.9,52z" />
        <path fill="url(#rg2)" d="M59.9,50c0,5.5-4.5,10-10,10s-10-4.5-10-10s4.5-10,10-10S59.9,44.5,59.9,50z" />
    </g>
    <g id="w" transform="scale(0.6) translate(-50 -50)">
        <path fill="url(#rg3)" d="M61.9,52c0,5.5-4.5,10-10,10s-10-4.5-10-10s4.5-10,10-10S61.9,46.5,61.9,52z" />
        <path fill="url(#rg4)" d="M59.9,50c0,5.5-4.5,10-10,10s-10-4.5-10-10s4.5-10,10-10S59.9,44.5,59.9,50z" />
    </g>
    <g id="h">
        <use href="#b" x="10" y="10"/>
        <use href="#w" x="30" y="10"/>
        <use href="#b" x="50" y="10"/>
        <use href="#w" x="70" y="10"/>
    </g>
</defs>
<path d="M0,0h100v100h-100z" fill="#b3a68e"/>
<path d="M10,10h80M10,30h80M10,50h80M10,70h80M10,90h80M10,10v80M30,10v80M50,10v80M70,10v80M90,10v80" stroke="black" stroke-linecap="round"/>
<path d="M67.0,49.0L56.2844,49.0L56.2844,47.0L52.0,50.0L56.2844,53.0L56.2844,51.0L67.0,51.0A 1.0 1.0 0 0 0 67.0 49.0Z" fill="#800000" stroke="#800000" /><path d="M33.0,51.0L43.7156,51.0L43.7156,53.0L48.0,50.0L43.7156,47.0L43.7156,49.0L33.0,49.0A 1.0 1.0 0 0 0 33.0 51.0Z" fill="#800000" stroke="#800000" /><path d="M51.0,68.0L51.0,56.2844L53.0,56.2844L50.0,52.0L47.0,56.2844L49.0,56.2844L49.0,68.0A 1.0 1.0 0 0 0 51.0 68.0Z" fill="#800000" stroke="#800000" /><path d="M49.0,32.0L49.0,43.7156L47.0,43.7156L50.0,48.0L53.0,43.7156L51.0,43.7156L51.0,32.0A 1.0 1.0 0 0 0 49.0 32.0Z" fill="#800000" stroke="#800000" />
<use href="#h" x="0" y="0"/><use href="#h" x="20" y="60"/><use href="#h" x="20" y="20"/><use href="#h" x="0" y="80"/><use href="#b" x="90" y="10"/><use href="#w" x="10" y="30"/><use href="#b" x="10" y="50"/><use href="#w" x="30" y="50"/><use href="#w" x="70" y="50"/><use href="#b" x="90" y="50"/><use href="#w" x="10" y="70"/><use href="#b" x="90" y="90"/>
</svg>