<?xml version="1.0" encoding="utf-8"?><svg version="1.1" xmlns="http://www.w3.org/2000/svg" viewBox="0 0 40 40"><defs><path id="r" transform="scale(0.4)" d="M0.25,0.25h24.5v24.5h-24.5z" fill="#F00" stroke-width="0.5" stroke="#D00"/><path id="b" transform="scale(0.4)" d="M0.25,0.25h24.5v24.5h-24.5z" fill="#00F" stroke-width="0.5" stroke="#00D"/><circle id="n" transform="scale(0.4)" cx="12.5" cy="12.5" r="11" stroke="#000" stroke-width="0.5" fill="#666"/></defs><path d="M0,0h40v40h-40z" fill="#B6B6B6" /><path d="M0,10h40m-40,10h40m-40,10h40M10,0v40m10,-40v40m10,-40v40" stroke="#888888" stroke-width="0.25" /><use href="#r" x="10" y="10"/><use href="#r" x="10" y="20"/><use href="#r" x="10" y="30"/><use href="#r" x="20" y="30"/><use href="#b" x="10" y="0"/><use href="#b" x="20" y="0"/><use href="#b" x="20" y="10"/><use href="#b" x="20" y="20"/><use href="#n"/><use href="#n" x="30" y="30"/><path d="M21,1h2.5v1.25h-1.25v2.5h-1.25z M21,29h2.5v-1.25h-1.25v-2.5h-1.25z M39,29h-2.5v-1.25h1.25v-2.5h1.25z M39,9h-1.25v-1.25h-2.5v-1.25h3.75z" fill="#ff0"/><path d="M39,1h-2.5v1.25h1.25v2.5h1.25z" fill="#800000"/></svg>