<svg xmlns="http://www.w3.org/2000/svg" viewBox="0 0 100 100"><defs><rect transform="scale(0.07692307692307693) translate(-50 -50)" id="r" x="2" y="26" width="96" height="48" rx="20" ry="20" stroke="#000" stroke-width="4" fill="#fff"/><circle transform="scale(0.07692307692307693) translate(-50 -50)" id="c" cx="50" cy="50" r="10" stroke="none" /></defs><path d="M0,0h100v100h-100z" fill="#808080"/><use href="#r" x="11.538461538461538" y="88.46153846153847"/><use href="#r" x="26.923076923076923" y="88.46153846153847"/><use href="#r" x="26.923076923076923" y="84.61538461538461"/><use href="#r" x="26.923076923076923" y="80.76923076923077"/><use href="#r" x="42.30769230769231" y="88.46153846153847"/><use href="#r" x="42.30769230769231" y="84.61538461538461"/><use href="#r" x="42.30769230769231" y="80.76923076923077"/><use href="#r" x="42.30769230769231" y="76.92307692307692"/><use href="#r" x="42.30769230769231" y="73.07692307692308"/><use href="#r" x="57.69230769230769" y="88.46153846153847"/><use href="#r" x="57.69230769230769" y="84.61538461538461"/><use href="#r" x="57.69230769230769" y="80.76923076923077"/><use href="#r" x="57.69230769230769" y="76.92307692307692"/><use href="#r" x="57.69230769230769" y="73.07692307692308"/><use href="#r" x="57.69230769230769" y="69.23076923076923"/><use href="#r" x="57.69230769230769" y="65.38461538461539"/><use href="#r" x="73.07692307692308" y="88.46153846153847"/><use href="#r" x="73.07692307692308" y="84.61538461538461"/><use href="#r" x="73.07692307692308" y="80.76923076923077"/><use href="#r" x="73.07692307692308" y="76.92307692307692"/><use href="#r" x="73.07692307692308" y="73.07692307692308"/><use href="#r" x="73.07692307692308" y="69.23076923076923"/><use href="#r" x="73.07692307692308" y="65.38461538461539"/><use href="#r" x="73.07692307692308" y="61.53846153846154"/><use href="#r" x="73.07692307692308" y="57.69230769230769"/><use href="#r" x="88.46153846153847" y="88.46153846153847"/><use href="#r" x="88.46153846153847" y="84.61538461538461"/><use href="#r" x="88.46153846153847" y="80.76923076923077"/><use href="#r" x="88.46153846153847" y="76.92307692307692"/><use href="#r" x="88.46153846153847" y="73.07692307692308"/><use href="#r" x="88.46153846153847" y="69.23076923076923"/><use href="#r" x="88.46153846153847" y="65.38461538461539"/><use href="#r" x="88.46153846153847" y="61.53846153846154"/><use href="#r" x="88.46153846153847" y="57.69230769230769"/><use href="#r" x="88.46153846153847" y="53.84615384615385"/><!--v-if--><!--v-if--><!--v-if--><!--v-if--><!--v-if--><!--v-if--><text text-anchor="middle" alignment-baseline="middle" font-family="Arial" x="11.538461538461538" y="96.15384615384616" style="font-size: 7.69231px;">1</text><text text-anchor="middle" alignment-baseline="middle" font-family="Arial" x="26.923076923076923" y="96.15384615384616" style="font-size: 7.69231px;">3</text><text text-anchor="middle" alignment-baseline="middle" font-family="Arial" x="42.30769230769231" y="96.15384615384616" style="font-size: 7.69231px;">5</text><text text-anchor="middle" alignment-baseline="middle" font-family="Arial" x="57.69230769230769" y="96.15384615384616" style="font-size: 7.69231px;">7</text><text text-anchor="middle" alignment-baseline="middle" font-family="Arial" x="73.07692307692308" y="96.15384615384616" style="font-size: 7.69231px;">9</text><text text-anchor="middle" alignment-baseline="middle" font-family="Arial" x="88.46153846153847" y="96.15384615384616" style="font-size: 7.69231px;">10</text><!--v-if--><use href="#c" x="26.923076923076923" y="88.46153846153847" fill="#008800" stroke="#008800"/><use href="#c" x="57.69230769230769" y="73.07692307692308" fill="#008800" stroke="#008800"/><use href="#c" x="88.46153846153847" y="53.84615384615385" fill="#008800" stroke="#008800"/><use href="#c" x="11.538461538461538" y="88.46153846153847" fill="#880000" stroke="#880000"/><use href="#c" x="26.923076923076923" y="84.61538461538461" fill="#880000" stroke="#880000"/><use href="#c" x="26.923076923076923" y="80.76923076923077" fill="#880000" stroke="#880000"/><use href="#c" x="42.30769230769231" y="88.46153846153847" fill="#880000" stroke="#880000"/><use href="#c" x="42.30769230769231" y="84.61538461538461" fill="#880000" stroke="#880000"/><use href="#c" x="42.30769230769231" y="80.76923076923077" fill="#880000" stroke="#880000"/><use href="#c" x="42.30769230769231" y="76.92307692307692" fill="#880000" stroke="#880000"/><use href="#c" x="42.30769230769231" y="73.07692307692308" fill="#880000" stroke="#880000"/><use href="#c" x="57.69230769230769" y="88.46153846153847" fill="#880000" stroke="#880000"/><use href="#c" x="57.69230769230769" y="84.61538461538461" fill="#880000" stroke="#880000"/><use href="#c" x="57.69230769230769" y="80.76923076923077" fill="#880000" stroke="#880000"/><use href="#c" x="57.69230769230769" y="76.92307692307692" fill="#880000" stroke="#880000"/><use href="#c" x="57.69230769230769" y="69.23076923076923" fill="#880000" stroke="#880000"/><use href="#c" x="57.69230769230769" y="65.38461538461539" fill="#880000" stroke="#880000"/><use href="#c" x="73.07692307692308" y="88.46153846153847" fill="#880000" stroke="#880000"/><use href="#c" x="73.07692307692308" y="84.61538461538461" fill="#880000" stroke="#880000"/><use href="#c" x="73.07692307692308" y="80.76923076923077" fill="#880000" stroke="#880000"/><use href="#c" x="73.07692307692308" y="76.92307692307692" fill="#880000" stroke="#880000"/><use href="#c" x="73.07692307692308" y="73.07692307692308" fill="#880000" stroke="#880000"/><use href="#c" x="73.07692307692308" y="69.23076923076923" fill="#880000" stroke="#880000"/><use href="#c" x="73.07692307692308" y="65.38461538461539" fill="#880000" stroke="#880000"/><use href="#c" x="73.07692307692308" y="61.53846153846154" fill="#880000" stroke="#880000"/><use href="#c" x="73.07692307692308" y="57.69230769230769" fill="#880000" stroke="#880000"/><use href="#c" x="88.46153846153847" y="88.46153846153847" fill="#880000" stroke="#880000"/><use href="#c" x="88.46153846153847" y="84.61538461538461" fill="#880000" stroke="#880000"/><use href="#c" x="88.46153846153847" y="80.76923076923077" fill="#880000" stroke="#880000"/><use href="#c" x="88.46153846153847" y="76.92307692307692" fill="#880000" stroke="#880000"/><use href="#c" x="88.46153846153847" y="73.07692307692308" fill="#880000" stroke="#880000"/><use href="#c" x="88.46153846153847" y="69.23076923076923" fill="#880000" stroke="#880000"/><use href="#c" x="88.46153846153847" y="65.38461538461539" fill="#880000" stroke="#880000"/><use href="#c" x="88.46153846153847" y="61.53846153846154" fill="#880000" stroke="#880000"/><use href="#c" x="88.46153846153847" y="57.69230769230769" fill="#880000" stroke="#880000"/><g></g></svg>