<svg xmlns="http://www.w3.org/2000/svg" viewBox="0 0 100 100"><defs><rect transform="scale(0.1111111111111111) translate(-50 -50)" id="r" x="2" y="26" width="96" height="48" rx="20" ry="20" stroke="#000" stroke-width="4" fill="#fff"/><circle transform="scale(0.1111111111111111) translate(-50 -50)" id="c" cx="50" cy="50" r="10" stroke="none"/></defs><path d="M0,0h100v100h-100z" fill="#808080"></path><use href="#r" x="16.666666666666664" y="83.33333333333333"/><use href="#r" x="16.666666666666664" y="77.77777777777777"/><use href="#r" x="38.888888888888886" y="83.33333333333333"/><use href="#r" x="38.888888888888886" y="77.77777777777777"/><use href="#r" x="38.888888888888886" y="72.22222222222221"/><use href="#r" x="61.11111111111111" y="83.33333333333333"/><use href="#r" x="61.11111111111111" y="77.77777777777777"/><use href="#r" x="61.11111111111111" y="72.22222222222221"/><use href="#r" x="61.11111111111111" y="66.66666666666666"/><use href="#r" x="61.11111111111111" y="61.11111111111111"/><use href="#r" x="83.33333333333333" y="83.33333333333333"/><use href="#r" x="83.33333333333333" y="77.77777777777777"/><use href="#r" x="83.33333333333333" y="72.22222222222221"/><use href="#r" x="83.33333333333333" y="66.66666666666666"/><use href="#r" x="83.33333333333333" y="61.11111111111111"/><use href="#r" x="83.33333333333333" y="55.55555555555556"/><use href="#r" x="83.33333333333333" y="50"/><text text-anchor="middle" alignment-baseline="middle" font-family="Arial" x="16.666666666666664" y="94.44444444444444" style="font-size: 11.1111px;">2</text><text text-anchor="middle" alignment-baseline="middle" font-family="Arial" x="38.888888888888886" y="94.44444444444444" style="font-size: 11.1111px;">3</text><text text-anchor="middle" alignment-baseline="middle" font-family="Arial" x="61.11111111111111" y="94.44444444444444" style="font-size: 11.1111px;">5</text><text text-anchor="middle" alignment-baseline="middle" font-family="Arial" x="83.33333333333333" y="94.44444444444444" style="font-size: 11.1111px;">7</text><use href="#c" x="16.666666666666664" y="77.77777777777777" fill="#008800" stroke="#008800"/><use href="#c" x="38.888888888888886" y="83.33333333333333" fill="#008800" stroke="#008800"/><use href="#c" x="83.33333333333333" y="61.11111111111111" fill="#008800" stroke="#008800"/><use href="#c" x="16.666666666666664" y="83.33333333333333" fill="#880000" stroke="#880000"/><use href="#c" x="38.888888888888886" y="77.77777777777777" fill="#880000" stroke="#880000"/><use href="#c" x="38.888888888888886" y="72.22222222222221" fill="#880000" stroke="#880000"/><use href="#c" x="61.11111111111111" y="83.33333333333333" fill="#880000" stroke="#880000"/><use href="#c" x="61.11111111111111" y="77.77777777777777" fill="#880000" stroke="#880000"/><use href="#c" x="61.11111111111111" y="72.22222222222221" fill="#880000" stroke="#880000"/><use href="#c" x="61.11111111111111" y="66.66666666666666" fill="#880000" stroke="#880000"/><use href="#c" x="61.11111111111111" y="61.11111111111111" fill="#880000" stroke="#880000"/><use href="#c" x="83.33333333333333" y="83.33333333333333" fill="#880000" stroke="#880000"/><use href="#c" x="83.33333333333333" y="77.77777777777777" fill="#880000" stroke="#880000"/><use href="#c" x="83.33333333333333" y="72.22222222222221" fill="#880000" stroke="#880000"/><use href="#c" x="83.33333333333333" y="66.66666666666666" fill="#880000" stroke="#880000"/><use href="#c" x="83.33333333333333" y="55.55555555555556" fill="#880000" stroke="#880000"/><use href="#c" x="83.33333333333333" y="50" fill="#880000" stroke="#880000"/><g></g></svg>