<svg xmlns="http://www.w3.org/2000/svg" viewBox="0 0 100 100"><defs><rect transform="scale(0.09090909090909091) translate(-50 -50)" id="r" x="2" y="26" width="96" height="48" rx="20" ry="20" stroke="#000" stroke-width="4" fill="#fff"/><circle transform="scale(0.09090909090909091) translate(-50 -50)" id="c" cx="50" cy="50" r="10" stroke="none" /></defs><path d="M0,0h100v100h-100z" fill="#808080"></path><use href="#r" x="13.636363636363637" y="86.36363636363637"/><use href="#r" x="13.636363636363637" y="81.81818181818183"/><use href="#r" x="13.636363636363637" y="77.27272727272728"/><use href="#r" x="13.636363636363637" y="72.72727272727273"/><use href="#r" x="13.636363636363637" y="68.18181818181819"/><use href="#r" x="13.636363636363637" y="63.63636363636364"/><use href="#r" x="13.636363636363637" y="59.09090909090909"/><use href="#r" x="31.81818181818182" y="86.36363636363637"/><use href="#r" x="31.81818181818182" y="81.81818181818183"/><use href="#r" x="31.81818181818182" y="77.27272727272728"/><use href="#r" x="31.81818181818182" y="72.72727272727273"/><use href="#r" x="31.81818181818182" y="68.18181818181819"/><use href="#r" x="31.81818181818182" y="63.63636363636364"/><use href="#r" x="31.81818181818182" y="59.09090909090909"/><use href="#r" x="31.81818181818182" y="54.54545454545455"/><use href="#r" x="50.00000000000001" y="86.36363636363637"/><use href="#r" x="50.00000000000001" y="81.81818181818183"/><use href="#r" x="50.00000000000001" y="77.27272727272728"/><use href="#r" x="50.00000000000001" y="72.72727272727273"/><use href="#r" x="50.00000000000001" y="68.18181818181819"/><use href="#r" x="50.00000000000001" y="63.63636363636364"/><use href="#r" x="50.00000000000001" y="59.09090909090909"/><use href="#r" x="50.00000000000001" y="54.54545454545455"/><use href="#r" x="50.00000000000001" y="50.00000000000001"/><use href="#r" x="50.00000000000001" y="45.45454545454546"/><use href="#r" x="50.00000000000001" y="40.909090909090914"/><use href="#r" x="68.18181818181819" y="86.36363636363637"/><use href="#r" x="68.18181818181819" y="81.81818181818183"/><use href="#r" x="68.18181818181819" y="77.27272727272728"/><use href="#r" x="68.18181818181819" y="72.72727272727273"/><use href="#r" x="68.18181818181819" y="68.18181818181819"/><use href="#r" x="68.18181818181819" y="63.63636363636364"/><use href="#r" x="68.18181818181819" y="59.09090909090909"/><use href="#r" x="68.18181818181819" y="54.54545454545455"/><use href="#r" x="68.18181818181819" y="50.00000000000001"/><use href="#r" x="68.18181818181819" y="45.45454545454546"/><use href="#r" x="68.18181818181819" y="40.909090909090914"/><use href="#r" x="68.18181818181819" y="36.36363636363637"/><use href="#r" x="68.18181818181819" y="31.81818181818182"/><use href="#r" x="86.36363636363637" y="86.36363636363637"/><use href="#r" x="86.36363636363637" y="81.81818181818183"/><use href="#r" x="86.36363636363637" y="77.27272727272728"/><use href="#r" x="86.36363636363637" y="72.72727272727273"/><use href="#r" x="86.36363636363637" y="68.18181818181819"/><use href="#r" x="86.36363636363637" y="63.63636363636364"/><use href="#r" x="86.36363636363637" y="59.09090909090909"/><use href="#r" x="86.36363636363637" y="54.54545454545455"/><use href="#r" x="86.36363636363637" y="50.00000000000001"/><use href="#r" x="86.36363636363637" y="45.45454545454546"/><use href="#r" x="86.36363636363637" y="40.909090909090914"/><use href="#r" x="86.36363636363637" y="36.36363636363637"/><use href="#r" x="86.36363636363637" y="31.81818181818182"/><use href="#r" x="86.36363636363637" y="27.272727272727273"/><use href="#r" x="86.36363636363637" y="22.72727272727273"/><text text-anchor="middle" alignment-baseline="middle" font-family="Arial" x="13.636363636363637" y="95.45454545454547" style="font-size: 9.09091px;">7</text><text text-anchor="middle" alignment-baseline="middle" font-family="Arial" x="31.81818181818182" y="95.45454545454547" style="font-size: 9.09091px;">8</text><text text-anchor="middle" alignment-baseline="middle" font-family="Arial" x="50.00000000000001" y="95.45454545454547" style="font-size: 9.09091px;">11</text><text text-anchor="middle" alignment-baseline="middle" font-family="Arial" x="68.18181818181819" y="95.45454545454547" style="font-size: 9.09091px;">13</text><text text-anchor="middle" alignment-baseline="middle" font-family="Arial" x="86.36363636363637" y="95.45454545454547" style="font-size: 9.09091px;">15</text><use href="#c" x="13.636363636363637" y="81.81818181818183" fill="#008800" stroke="#008800"/><use href="#c" x="68.18181818181819" y="36.36363636363637" fill="#008800" stroke="#008800"/><use href="#c" x="86.36363636363637" y="45.45454545454546" fill="#008800" stroke="#008800"/><use href="#c" x="13.636363636363637" y="86.36363636363637" fill="#880000" stroke="#880000"/><use href="#c" x="13.636363636363637" y="77.27272727272728" fill="#880000" stroke="#880000"/><use href="#c" x="13.636363636363637" y="72.72727272727273" fill="#880000" stroke="#880000"/><use href="#c" x="13.636363636363637" y="68.18181818181819" fill="#880000" stroke="#880000"/><use href="#c" x="13.636363636363637" y="63.63636363636364" fill="#880000" stroke="#880000"/><use href="#c" x="13.636363636363637" y="59.09090909090909" fill="#880000" stroke="#880000"/><use href="#c" x="31.81818181818182" y="86.36363636363637" fill="#880000" stroke="#880000"/><use href="#c" x="31.81818181818182" y="81.81818181818183" fill="#880000" stroke="#880000"/><use href="#c" x="31.81818181818182" y="77.27272727272728" fill="#880000" stroke="#880000"/><use href="#c" x="31.81818181818182" y="72.72727272727273" fill="#880000" stroke="#880000"/><use href="#c" x="31.81818181818182" y="68.18181818181819" fill="#880000" stroke="#880000"/><use href="#c" x="31.81818181818182" y="63.63636363636364" fill="#880000" stroke="#880000"/><use href="#c" x="31.81818181818182" y="59.09090909090909" fill="#880000" stroke="#880000"/><use href="#c" x="31.81818181818182" y="54.54545454545455" fill="#880000" stroke="#880000"/><use href="#c" x="50.00000000000001" y="86.36363636363637" fill="#880000" stroke="#880000"/><use href="#c" x="50.00000000000001" y="81.81818181818183" fill="#880000" stroke="#880000"/><use href="#c" x="50.00000000000001" y="77.27272727272728" fill="#880000" stroke="#880000"/><use href="#c" x="50.00000000000001" y="72.72727272727273" fill="#880000" stroke="#880000"/><use href="#c" x="50.00000000000001" y="68.18181818181819" fill="#880000" stroke="#880000"/><use href="#c" x="50.00000000000001" y="63.63636363636364" fill="#880000" stroke="#880000"/><use href="#c" x="50.00000000000001" y="59.09090909090909" fill="#880000" stroke="#880000"/><use href="#c" x="50.00000000000001" y="54.54545454545455" fill="#880000" stroke="#880000"/><use href="#c" x="50.00000000000001" y="50.00000000000001" fill="#880000" stroke="#880000"/><use href="#c" x="50.00000000000001" y="45.45454545454546" fill="#880000" stroke="#880000"/><use href="#c" x="50.00000000000001" y="40.909090909090914" fill="#880000" stroke="#880000"/><use href="#c" x="68.18181818181819" y="86.36363636363637" fill="#880000" stroke="#880000"/><use href="#c" x="68.18181818181819" y="81.81818181818183" fill="#880000" stroke="#880000"/><use href="#c" x="68.18181818181819" y="77.27272727272728" fill="#880000" stroke="#880000"/><use href="#c" x="68.18181818181819" y="72.72727272727273" fill="#880000" stroke="#880000"/><use href="#c" x="68.18181818181819" y="68.18181818181819" fill="#880000" stroke="#880000"/><use href="#c" x="68.18181818181819" y="63.63636363636364" fill="#880000" stroke="#880000"/><use href="#c" x="68.18181818181819" y="59.09090909090909" fill="#880000" stroke="#880000"/><use href="#c" x="68.18181818181819" y="54.54545454545455" fill="#880000" stroke="#880000"/><use href="#c" x="68.18181818181819" y="50.00000000000001" fill="#880000" stroke="#880000"/><use href="#c" x="68.18181818181819" y="45.45454545454546" fill="#880000" stroke="#880000"/><use href="#c" x="68.18181818181819" y="40.909090909090914" fill="#880000" stroke="#880000"/><use href="#c" x="68.18181818181819" y="31.81818181818182" fill="#880000" stroke="#880000"/><use href="#c" x="86.36363636363637" y="86.36363636363637" fill="#880000" stroke="#880000"/><use href="#c" x="86.36363636363637" y="81.81818181818183" fill="#880000" stroke="#880000"/><use href="#c" x="86.36363636363637" y="77.27272727272728" fill="#880000" stroke="#880000"/><use href="#c" x="86.36363636363637" y="72.72727272727273" fill="#880000" stroke="#880000"/><use href="#c" x="86.36363636363637" y="68.18181818181819" fill="#880000" stroke="#880000"/><use href="#c" x="86.36363636363637" y="63.63636363636364" fill="#880000" stroke="#880000"/><use href="#c" x="86.36363636363637" y="59.09090909090909" fill="#880000" stroke="#880000"/><use href="#c" x="86.36363636363637" y="54.54545454545455" fill="#880000" stroke="#880000"/><use href="#c" x="86.36363636363637" y="50.00000000000001" fill="#880000" stroke="#880000"/><use href="#c" x="86.36363636363637" y="40.909090909090914" fill="#880000" stroke="#880000"/><use href="#c" x="86.36363636363637" y="36.36363636363637" fill="#880000" stroke="#880000"/><use href="#c" x="86.36363636363637" y="31.81818181818182" fill="#880000" stroke="#880000"/><use href="#c" x="86.36363636363637" y="27.272727272727273" fill="#880000" stroke="#880000"/><use href="#c" x="86.36363636363637" y="22.72727272727273" fill="#880000" stroke="#880000"/><g></g></svg>