<svg xmlns="http://www.w3.org/2000/svg" viewBox="0 0 100 100"><defs><rect transform="scale(0.14285714285714285) translate(-50 -50)" id="r" x="2" y="26" width="96" height="48" rx="20" ry="20" stroke="#000" stroke-width="4" fill="#fff"/><circle transform="scale(0.14285714285714285) translate(-50 -50)" id="c" cx="50" cy="50" r="10" stroke="none"/></defs><path d="M0,0h100v100h-100z" fill="#808080"/><use href="#r" x="21.42857142857143" y="78.57142857142857"/><use href="#r" x="21.42857142857143" y="71.42857142857143"/><use href="#r" x="21.42857142857143" y="64.28571428571429"/><use href="#r" x="50" y="78.57142857142857"/><use href="#r" x="50" y="71.42857142857143"/><use href="#r" x="50" y="64.28571428571429"/><use href="#r" x="78.57142857142857" y="78.57142857142857"/><use href="#r" x="78.57142857142857" y="71.42857142857143"/><use href="#r" x="78.57142857142857" y="64.28571428571429"/><text text-anchor="middle" alignment-baseline="middle" font-family="Arial" x="21.42857142857143" y="92.85714285714286" style="font-size: 14.2857px;">3</text><text text-anchor="middle" alignment-baseline="middle" font-family="Arial" x="50" y="92.85714285714286" style="font-size: 14.2857px;">3</text><text text-anchor="middle" alignment-baseline="middle" font-family="Arial" x="78.57142857142857" y="92.85714285714286" style="font-size: 14.2857px;">3</text><use href="#c" x="21.42857142857143" y="78.57142857142857" fill="#008800" stroke="#008800"/><use href="#c" x="50" y="78.57142857142857" fill="#008800" stroke="#008800"/><use href="#c" x="78.57142857142857" y="78.57142857142857" fill="#008800" stroke="#008800"/><use href="#c" x="21.42857142857143" y="71.42857142857143" fill="#880000" stroke="#880000"/><use href="#c" x="21.42857142857143" y="64.28571428571429" fill="#880000" stroke="#880000"/><use href="#c" x="50" y="71.42857142857143" fill="#880000" stroke="#880000"/><use href="#c" x="50" y="64.28571428571429" fill="#880000" stroke="#880000"/><use href="#c" x="78.57142857142857" y="71.42857142857143" fill="#880000" stroke="#880000"/><use href="#c" x="78.57142857142857" y="64.28571428571429" fill="#880000" stroke="#880000"/><g></g></svg>