<svg xmlns="http://www.w3.org/2000/svg" viewBox="0 0 100 100"><defs><rect transform="scale(0.09090909090909091) translate(-50 -50)" id="r" x="2" y="26" width="96" height="48" rx="20" ry="20" stroke="#000" stroke-width="4" fill="#fff"/><circle transform="scale(0.09090909090909091) translate(-50 -50)" id="c" cx="50" cy="50" r="10" stroke="none"/></defs><path d="M0,0h100v100h-100z" fill="#808080"></path><use href="#r" x="13.636363636363637" y="86.36363636363637"/><use href="#r" x="31.81818181818182" y="86.36363636363637"/><use href="#r" x="31.81818181818182" y="81.81818181818183"/><use href="#r" x="50.00000000000001" y="86.36363636363637"/><use href="#r" x="50.00000000000001" y="81.81818181818183"/><use href="#r" x="50.00000000000001" y="77.27272727272728"/><use href="#r" x="68.18181818181819" y="86.36363636363637"/><use href="#r" x="68.18181818181819" y="81.81818181818183"/><use href="#r" x="68.18181818181819" y="77.27272727272728"/><use href="#r" x="68.18181818181819" y="72.72727272727273"/><use href="#r" x="86.36363636363637" y="86.36363636363637"/><use href="#r" x="86.36363636363637" y="81.81818181818183"/><use href="#r" x="86.36363636363637" y="77.27272727272728"/><use href="#r" x="86.36363636363637" y="72.72727272727273"/><use href="#r" x="86.36363636363637" y="68.18181818181819"/><text text-anchor="middle" alignment-baseline="middle" font-family="Arial" x="13.636363636363637" y="95.45454545454547" style="font-size: 9.09091px;">1</text><text text-anchor="middle" alignment-baseline="middle" font-family="Arial" x="31.81818181818182" y="95.45454545454547" style="font-size: 9.09091px;">2</text><text text-anchor="middle" alignment-baseline="middle" font-family="Arial" x="50.00000000000001" y="95.45454545454547" style="font-size: 9.09091px;">3</text><text text-anchor="middle" alignment-baseline="middle" font-family="Arial" x="68.18181818181819" y="95.45454545454547" style="font-size: 9.09091px;">4</text><text text-anchor="middle" alignment-baseline="middle" font-family="Arial" x="86.36363636363637" y="95.45454545454547" style="font-size: 9.09091px;">5</text><use href="#c" x="13.636363636363637" y="86.36363636363637" fill="#008800" stroke="#008800"/><use href="#c" x="50.00000000000001" y="77.27272727272728" fill="#008800" stroke="#008800"/><use href="#c" x="86.36363636363637" y="68.18181818181819" fill="#008800" stroke="#008800"/><use href="#c" x="31.81818181818182" y="86.36363636363637" fill="#880000" stroke="#880000"/><use href="#c" x="31.81818181818182" y="81.81818181818183" fill="#880000" stroke="#880000"/><use href="#c" x="50.00000000000001" y="86.36363636363637" fill="#880000" stroke="#880000"/><use href="#c" x="50.00000000000001" y="81.81818181818183" fill="#880000" stroke="#880000"/><use href="#c" x="68.18181818181819" y="86.36363636363637" fill="#880000" stroke="#880000"/><use href="#c" x="68.18181818181819" y="81.81818181818183" fill="#880000" stroke="#880000"/><use href="#c" x="68.18181818181819" y="77.27272727272728" fill="#880000" stroke="#880000"/><use href="#c" x="68.18181818181819" y="72.72727272727273" fill="#880000" stroke="#880000"/><use href="#c" x="86.36363636363637" y="86.36363636363637" fill="#880000" stroke="#880000"/><use href="#c" x="86.36363636363637" y="81.81818181818183" fill="#880000" stroke="#880000"/><use href="#c" x="86.36363636363637" y="77.27272727272728" fill="#880000" stroke="#880000"/><use href="#c" x="86.36363636363637" y="72.72727272727273" fill="#880000" stroke="#880000"/><g></g></svg>