<?xml version="1.0" encoding="utf-8"?><svg version="1.1" xmlns="http://www.w3.org/2000/svg" viewBox="25 5 270 270"><defs><radialGradient id="rg1" cx="-107.6189" cy="-90.5162" r="10" fx="-109.6206" fy="-92.5178" gradientTransform="matrix(1 0 0 1 159.5 142.5)" gradientUnits="userSpaceOnUse"><stop offset="0" stop-color="#000" /><stop offset="1" stop-color="#000" stop-opacity="0" /></radialGradient><radialGradient id="rg2" cx="-109.6189" cy="-92.5162" r="10" fx="-114.623" fy="-97.5203" gradientTransform="matrix(1 0 0 1 159.5 142.5)" gradientUnits="userSpaceOnUse"><stop offset="0" stop-color="#888888" /><stop offset="0.5" stop-color="#5B5B5B" /><stop offset="1" stop-color="#000000" /></radialGradient><radialGradient id="rg3" cx="-107.5" cy="190.5449" r="10" fx="-109.5" fy="188.55" gradientTransform="matrix(1 0 0 -1 159.5 242.5)" gradientUnits="userSpaceOnUse"><stop offset="0" stop-color="#000000" /><stop offset="1" stop-color="#000000" stop-opacity="0" /></radialGradient><radialGradient id="rg4" cx="-109.5" cy="192.55" r="10" fx="-114.5" fy="187.55" gradientTransform="matrix(0 1 1 0 -142.5 159.5)" gradientUnits="userSpaceOnUse"><stop offset="0" stop-color="#FFFFFF" /><stop offset="0.5" stop-color="#DDDDDD" /><stop offset="1" stop-color="#999999" /></radialGradient><g id="b" transform="scale(1.3) translate(-50 -50)"><path fill="url(#rg1)" d="M61.9,52c0,5.5-4.5,10-10,10s-10-4.5-10-10s4.5-10,10-10S61.9,46.5,61.9,52z" /><path fill="url(#rg2)" d="M59.9,50c0,5.5-4.5,10-10,10s-10-4.5-10-10s4.5-10,10-10S59.9,44.5,59.9,50z" /></g><g id="w" transform="scale(1.3) translate(-50 -50)"><path fill="url(#rg3)" d="M61.9,52c0,5.5-4.5,10-10,10s-10-4.5-10-10s4.5-10,10-10S61.9,46.5,61.9,52z" /><path fill="url(#rg4)" d="M59.9,50c0,5.5-4.5,10-10,10s-10-4.5-10-10s4.5-10,10-10S59.9,44.5,59.9,50z" /></g></defs><g transform="translate(39.5,20.5)"><rect fill="#FFF0C0" width="240" height="240" /><path fill="none" stroke="#000000" d="M0,0h240v240H0V0 M40,40h160v160H40V40 M80,80h80v80H80V80 M120,0v80 M240,120h-80 M120,240v-80 M0,120h80H0z" /></g><use href="#w" x="40" y="20" /><use href="#b" x="80" y="60" /><use href="#b" x="160" y="60" /><use href="#b" x="40" y="140" /><use href="#w" x="120" y="140" /><use href="#w" x="200" y="140" /><use href="#w" x="240" y="140" /><use href="#w" x="280" y="140" /><use href="#b" x="120" y="180" /><use href="#b" x="160" y="180" /><use href="#b" x="200" y="180" /><use href="#b" x="80" y="220" /><use href="#w" x="240" y="220" /><use href="#w" x="40" y="260" /><use href="#b" x="280" y="260" /><g transform="scale(3)"><path d="M90.333,85.833L58.903703333333326,85.833L58.903703333333326,84.166 L55.333,86.666L58.903703333333326,89.166L58.903703333333326,87.49999 L90.333,87.49999A 0.83333 0.83333 0 0 0 90.333 85.833Z" fill="#008800" stroke="#008800" opacity="0.5" /><path d="M56.333,20.8332L74.42963,20.8332L74.42963,22.5 L78,20L74.42963,17.5L74.42963,19.1668 L56.333,19.1668A 0.83333 0.83333 0 0 0 56.333 20.8332Z" fill="#008800" stroke="#008800" /><path d="M25.8332,23L25.8332,41.09629666666667L24.1664,41.09629666666667 L26.6664,44.6664L29.1664,41.09629666666667L27.499996,41.09629666666667 L27.499996,23A 0.83333 0.83333 0 0 0 25.8332 23Z" fill="#008800" stroke="#008800" opacity="0.75" /><path d="M29.6664,74.166L47.76296333333333,74.166L47.76296333333333,75.833 L51.333,73.333L47.76296333333333,70.833L47.76296333333333,72.5 L29.6664,72.5A 0.83333 0.83333 0 0 0 29.6664 74.166Z" fill="#008800" stroke="#008800" opacity="0.5" /><path d="M27.499996,70.333L27.499996,52.23703666666666L29.1664,52.23703666666666 L26.6664,48.6664L24.1664,52.23703666666666L25.8332,52.23703666666666 L25.8332,70.333A 0.83333 0.83333 0 0 0 27.499996 70.333Z" fill="#ffff00" stroke="#ffff00" /><path d="M54.1664,17L54.1664,12.237036666666665L55.833,12.237036666666665 L53.333,8.6666L50.833,12.237036666666665L52.49999,12.237036666666665 L52.49999,17A 0.83333 0.83333 0 0 0 54.1664 17Z" fill="#ffff00" stroke="#ffff00" /><path d="M16.3332,47.5L21.096296666666664,47.5L21.096296666666664,49.1664 L24.6664,46.6664L21.096296666666664,44.1664L21.096296666666664,45.833 L16.3332,45.833A 0.83333 0.83333 0 0 0 16.3332 47.5Z" fill="#008800" stroke="#008800" opacity="0.5" /><path d="M52.49999,63L52.49999,67.76296333333333L50.833,67.76296333333333 L53.333,71.333L55.833,67.76296333333333L54.1664,67.76296333333333 L54.1664,63A 0.83333 0.83333 0 0 0 52.49999 63Z" fill="#008800" stroke="#008800" opacity="0.5" /><path d="M52.49999,23L52.49999,27.762963L50.833,27.762963333333328 L53.333,31.333L55.833,27.762963333333328L54.1664,27.762963333333328 L54.1664,23A 0.83333 0.83333 0 0 0 52.49999 23Z" fill="#ffff00" stroke="#ffff00" /></g></svg>