<?xml version="1.0" encoding="utf-8"?><svg viewBox="0 -35 136 136" xmlns="http://www.w3.org/2000/svg"><defs><path id="x" d="M3,3L19,19M3,19L19,3" stroke="#000" stroke-width="2" /><circle cx="11" cy="11" id="c" r="2.222"/></defs><path d="M1,22h64m0,22h-64m21,-43v64m22,0v-64M71,22h64m0,22h-64m21,-43v64m22,0v-64" stroke-width="2" stroke="#bcbec0" /><use href="#x" x="0" y="22" /><use href="#x" x="22" y="22" /><use href="#x" x="22" y="44"/><use href="#x" x="114" y="0" /><use href="#x" x="92" y="22" /><g fill="#008000"><use href="#c" x="0" y="0"/><use href="#c" x="44" y="0"/><use href="#c" x="44" y="44"/><use href="#c" x="92" y="0"/><use href="#c" x="114" y="22"/></g><g fill="#800000"><use href="#c" x="22" y="0"/><use href="#c" x="44" y="22"/><use href="#c" x="0" y="44" opacity="0.75"/><use href="#c" x="70" y="0"/><use href="#c" x="70" y="22"/><use href="#c" x="70" y="44" opacity="0.75"/><use href="#c" x="92" y="44"/><use href="#c" x="114" y="44"/></g></svg>