<?xml version="1.0" encoding="utf-8"?><svg viewBox="0 0 180 180" xmlns="http://www.w3.org/2000/svg"><defs><rect id="b" x="4" y="4" rx="10" ry="10" width="52" height="52" fill="#f5adf5" /></defs><style> .t { font: 59px sans-serif; fill: #ae19ae; } </style><g transform="scale(1.8)"><path d="M80.33333333333334,48.5L58.426666,48.5L58.426666,45.5 L52,50L58.426666,54.5L58.426666,51.5 L80.33333333333334,51.5A 1.5 1.5 0 0 0 80.33333333333334 48.5Z" fill="#880000" stroke="#880000" opacity="1" /><path d="M51.5,80.33333333333334L51.5,58.426666L54.5,58.426666 L50,52L45.5,58.426666L48.5,58.426666 L48.5,80.33333333333334A 1.5 1.5 0 0 0 51.5 80.33333333333334Z" fill="#880000" stroke="#880000" opacity="1" /><path d="M19.666666666666668,51.5L41.573334,51.5L41.573334,54.5 L48,50L41.573334,45.5L41.573334,48.5 L19.666666666666668,48.5A 1.5 1.5 0 0 0 19.666666666666668 51.5Z" fill="#008800" stroke="#008800" opacity="1"/><path d="M48.5,19.666666666666668L48.5,41.573334L45.5,41.573334 L50,48L54.5,41.573334L51.5,41.573334 L51.5,19.666666666666668A 1.5 1.5 0 0 0 48.5 19.666666666666668Z" fill="#880000" stroke="#880000" opacity="1"/></g><use href="#b" x="0" y="0" /><text x="14" y="50.5" class="t">8</text><use href="#b" x="60" y="0" /><text x="75" y="50.5" class="t">1</text><use href="#b" x="120" y="0" /><text x="134" y="50.5" class="t">5</text><use href="#b" x="0" y="60" /><text x="14" y="110.5" class="t">2</text><use href="#b" x="120" y="60" /><text x="134" y="110.5" class="t">6</text><use href="#b" x="0" y="120" /><text x="14" y="170.5" class="t">3</text><use href="#b" x="60" y="120" /><text x="74" y="170.5" class="t">4</text><use href="#b" x="120" y="120" /><text x="134" y="170.5" class="t">7</text></svg>