<svg version="1.1" xmlns="http://www.w3.org/2000/svg" viewBox="0 0 90 90"><defs><path id="r" stroke="none" fill="#C97D41" d="M10,0h10v10h-10z M30,0h10v10h-10z M50,0h10v10h-10z M70,0h10v10h-10z" /><path id="s" stroke="none" fill="#C97D41" d="M0,0h10v10h-10z M20,0h10v10h-10z M40,0h10v10h-10z M60,0h10v10h-10z M80,0h10v10h-10z" /><g id="q" transform="scale(0.222) translate(-22.5 -22.5)" style="fill:#fff;stroke:#000;stroke-width:1.5;stroke-linejoin:round"><path d="M 9,26 C 17.5,24.5 30,24.5 36,26 L 38.5,13.5 L 31,25 L 30.7,10.9 L 25.5,24.5 L 22.5,10 L 19.5,24.5 L 14.3,10.9 L 14,25 L 6.5,13.5 L 9,26 z" /><path d="M 9,26 C 9,28 10.5,28 11.5,30 C 12.5,31.5 12.5,31 12,33.5 C 10.5,34.5 11,36 11,36 C 9.5,37.5 11,38.5 11,38.5 C 17.5,39.5 27.5,39.5 34,38.5 C 34,38.5 35.5,37.5 34,36 C 34,36 34.5,34.5 33,33.5 C 32.5,31 32.5,31.5 33.5,30 C 34.5,28 36,28 36,26 C 27.5,24.5 17.5,24.5 9,26 z" /><path d="M 11.5,30 C 15,29 30,29 33.5,30" style="fill:none" /><path d="M 12,33.5 C 18,32.5 27,32.5 33,33.5" style="fill:none" /><circle cx="6" cy="12" r="2" /><circle cx="14" cy="9" r="2" /><circle cx="22.5" cy="8" r="2" /><circle cx="31" cy="9" r="2" /><circle cx="39" cy="12" r="2" /></g></defs><path d="M0,0 h90 v90 h-90 z" stroke="none" fill="#FEC595" /><use href="#r" x="0" y="0" /><use href="#s" x="0" y="10" /><use href="#r" x="0" y="20" /><use href="#s" x="0" y="30" /><use href="#r" x="0" y="40" /><use href="#s" x="0" y="50" /><use href="#r" x="0" y="60" /><use href="#s" x="0" y="70" /><use href="#r" x="0" y="80" /><use href="#q" x="45" y="5" /><use href="#q" x="25" y="15" /><use href="#q" x="75" y="25" /><use href="#q" x="55" y="35" /><use href="#q" x="15" y="45" /><use href="#q" x="85" y="55" /><use href="#q" x="5" y="65" /><use href="#q" x="35" y="75" /><use href="#q" x="65" y="85" /></svg>