<?xml version="1.0" encoding="utf-8"?><svg viewBox="0 0 50 50" xmlns="http://www.w3.org/2000/svg"><defs><path transform="scale(0.45454)" id="x" d="M-8,-8L8,8M-8,8L8,-8" stroke="blue" stroke-width="2"/><circle transform="scale(0.45454)" id="o" r="8" fill="none" stroke="red" stroke-width="2"/><circle id="c" r="2"/></defs><path d="M15,0v50M25,0v50M35,0v50M5,10h40M5,20h40M5,30h40M5,40h40" stroke-width="1" stroke="#bcbec0"/><use href="#o" x="30" y="5"/><use href="#o" x="20" y="15"/><use href="#x" x="30" y="15"/><use href="#x" x="10" y="25"/><use href="#o" x="10" y="35"/><use href="#x" x="40" y="35"/><use href="#x" x="20" y="45"/><use href="#o" x="30" y="45"/><g transform="scale(0.5)"><path d="M23,70.75L34.786667,70.75L34.786667,72.25 L38,70L34.786667,67.75L34.786667,69.25 L23,69.25A 0.75 0.75 0 0 0 23 70.75Z" fill="#008800" stroke="#008800"/><path d="M60.75,87L60.75,75.213333L62.25,75.213333 L60,72L57.75,75.213333L59.25,75.213333 L59.25,87A 0.75 0.75 0 0 0 60.75 87Z" fill="#ffff00" stroke="#ffff00"/><path d="M39.25,33L39.25,44.786667L37.75,44.786667 L40,48L42.25,44.786667L40.75,44.786667 L40.75,33A 0.75 0.75 0 0 0 39.25 33Z" fill="#880000" stroke="#880000"/><path d="M63,90.75L74.786667,90.75L74.786667,92.25 L78,90L74.786667,87.75L74.786667,89.25 L63,89.25A 0.75 0.75 0 0 0 63 90.75Z" fill="#880000" stroke="#880000" opacity="0.75"/><path d="M19.25,73L19.25,84.786667L17.75,84.786667 L20,88L22.25,84.786667L20.75,84.786667 L20.75,73A 0.75 0.75 0 0 0 19.25 73Z" fill="#880000" stroke="#880000" opacity="0.75"/><path d="M40.75,27L40.75,15.213333L42.25,15.213333 L40,12L37.75,15.213333L39.25,15.213333 L39.25,27A 0.75 0.75 0 0 0 40.75 27Z" fill="#880000" stroke="#880000" opacity="0.75"/><path d="M37,29.25L25.213333,29.25L25.213333,27.75 L22,30L25.213333,32.25L25.213333,30.75 L37,30.75A 0.75 0.75 0 0 0 37 29.25Z" fill="#880000" stroke="#880000" opacity="0.75"/><path d="M63,10.75L74.786667,10.75L74.786667,12.25 L78,10L74.786667,7.75L74.786667,9.25 L63,9.25A 0.75 0.75 0 0 0 63 10.75Z" fill="#880000" stroke="#880000" opacity="0.75"/><path d="M57,9.25L45.213333,9.25L45.213333,7.75 L42,10L45.213333,12.25L45.213333,10.75 L57,10.75A 0.75 0.75 0 0 0 57 9.25Z" fill="#880000" stroke="#880000" opacity="0.75"/></g></svg>