<?xml version="1.0" encoding="utf-8"?><svg version="1.1" xmlns="http://www.w3.org/2000/svg" viewBox="-0.06 -0.06 40.12 40.12"><defs><radialGradient id="rg1" cx="-107.6189" cy="-90.5162" r="10" fx="-109.6206" fy="-92.5178" gradientTransform="matrix(1 0 0 1 159.5 142.5)" gradientUnits="userSpaceOnUse"><stop offset="0" stop-color="#000" /><stop offset="1" stop-color="#000" stop-opacity="0" /></radialGradient><radialGradient id="rg2" cx="-109.6189" cy="-92.5162" r="10" fx="-114.623" fy="-97.5203" gradientTransform="matrix(1 0 0 1 159.5 142.5)" gradientUnits="userSpaceOnUse"><stop offset="0" stop-color="#888888" /><stop offset="0.5" stop-color="#5B5B5B" /><stop offset="1" stop-color="#000000" /></radialGradient><radialGradient id="rg3" cx="-107.5" cy="190.5449" r="10" fx="-109.5" fy="188.55" gradientTransform="matrix(1 0 0 -1 159.5 242.5)" gradientUnits="userSpaceOnUse"><stop offset="0" stop-color="#000000" /><stop offset="1" stop-color="#000000" stop-opacity="0" /></radialGradient><radialGradient id="rg4" cx="-109.5" cy="192.55" r="10" fx="-114.5" fy="187.55" gradientTransform="matrix(0 1 1 0 -142.5 159.5)" gradientUnits="userSpaceOnUse"><stop offset="0" stop-color="#FFFFFF" /><stop offset="0.5" stop-color="#DDDDDD" /><stop offset="1" stop-color="#999999" /></radialGradient><g id="b" transform="scale(0.409009) translate(-50 -50)"><path fill="url(#rg1)" d="M61.9,52c0,5.5-4.5,10-10,10s-10-4.5-10-10s4.5-10,10-10S61.9,46.5,61.9,52z" /><path fill="url(#rg2)" d="M59.9,50c0,5.5-4.5,10-10,10s-10-4.5-10-10s4.5-10,10-10S59.9,44.5,59.9,50z" /></g><g id="w" transform="scale(0.409009) translate(-50 -50)"><path fill="url(#rg3)" d="M61.9,52c0,5.5-4.5,10-10,10s-10-4.5-10-10s4.5-10,10-10S61.9,46.5,61.9,52z" /><path fill="url(#rg4)" d="M59.9,50c0,5.5-4.5,10-10,10s-10-4.5-10-10s4.5-10,10-10S59.9,44.5,59.9,50z" /></g></defs><path d="M0,0h40v40h-40zM10,0v40m10,-40v40m10,-40v40M0,10h40m-40,10h40m-40,10h40" stroke="#000" stroke-width="0.12" fill="#48907B" /><use href="#b" x="25.06" y="5.06" /><use href="#b" x="25.06" y="15.06" /><use href="#b" x="25.06" y="25.06" /><use href="#b" x="25.06" y="35.06" /><use href="#b" x="15.06" y="25.06" /><use href="#b" x="15.06" y="35.06" /><use href="#w" x="5.06" y="15.06" /><use href="#w" x="15.06" y="15.06" /><use href="#w" x="35.06" y="5.06" /><use href="#w" x="35.06" y="15.06" /><use href="#w" x="35.06" y="25.06" /><g fill="#008000"><circle cx="15.06" cy="5.06" r="1.2" /><circle cx="5.06" cy="35.06" r="1.2" /><circle cx="35.06" cy="35.06" r="1.2" /></g><circle cx="5.06" cy="25.06" r="1.2" fill="#800" /></svg>