<?xml version="1.0" standalone="no"?> <svg id="bc" viewBox="0 0 100 100" xmlns="http://www.w3.org/2000/svg"> <defs> <radialGradient id="rg1"> <stop offset="0%" stop-color="#ffffff" /> <stop offset="100%" stop-color="#c0c0c0" /> </radialGradient> <path id="k" transform="scale(8.1653823)" d="M0,-1L0.866025,-0.5L0.866025,0.5L0,1L-0.866025,0.5L-0.866025,-0.5z" stroke-width="0.1318820411854475" stroke="#000" stroke-linejoin="round" fill="url(#rg1)" /> <radialGradient id="rg3" cx="-107.5" cy="190.5449" r="10" fx="-109.5" fy="188.55" gradientTransform="matrix(1 0 0 -1 159.5 242.5)" gradientUnits="userSpaceOnUse"> <stop offset="0" stop-color="#000000" /> <stop offset="1" stop-color="#000000" stop-opacity="0" /> </radialGradient> <radialGradient id="rg4" cx="-109.5" cy="192.55" r="10" fx="-114.5" fy="187.55" gradientTransform="matrix(0 1 1 0 -142.5 159.5)" gradientUnits="userSpaceOnUse"> <stop offset="0" stop-color="#b18366" /> <stop offset="0.5" stop-color="#76522e" /> <stop offset="1" stop-color="#322300" /> </radialGradient> <g id="h"> <use href="#k" x="0" y="0"/> <g transform="scale(0.5909) translate(-50 -50)"> <path fill="url(#rg3)" d="M61.9,52c0,5.5-4.5,10-10,10s-10-4.5-10-10s4.5-10,10-10S61.9,46.5,61.9,52z" /> <path fill="url(#rg4)" d="M59.9,50c0,5.5-4.5,10-10,10s-10-4.5-10-10s4.5-10,10-10S59.9,44.5,59.9,50z" /> </g></g> </defs> <use href="#k" x="28.7857" y="29.1562" /> <use href="#h" x="42.9286" y="29.1562" /> <use href="#h" x="57.0714" y="29.1562" /> <use href="#h" x="71.2143" y="29.1562" /> <use href="#h" x="21.7143" y="41.4043" /> <use href="#k" x="35.8571" y="41.4043" /> <use href="#k" x="50.0" y="41.4043" /> <use href="#k" x="64.1429" y="41.4043" /> <use href="#h" x="78.2857" y="41.4043" /> <use href="#h" x="14.6429" y="53.6523" /> <use href="#h" x="28.7857" y="53.6523" /> <use href="#k" x="42.9286" y="53.6523" /> <use href="#h" x="57.0714" y="53.6523" /> <use href="#h" x="71.2143" y="53.6523" /> <use href="#k" x="85.3571" y="53.6523" /> <use href="#h" x="7.5714" y="65.9004" /> <use href="#k" x="21.7143" y="65.9004" /> <use href="#k" x="35.8571" y="65.9004" /> <use href="#h" x="50.0" y="65.9004" /> <use href="#k" x="64.1429" y="65.9004" /> <use href="#h" x="78.2857" y="65.9004" /> <use href="#h" x="92.4286" y="65.9004" /> </svg>