<?xml version="1.0" standalone="no"?> <svg viewBox="0 0 100 100" xmlns="http://www.w3.org/2000/svg"> <defs> <radialGradient id="rg1"> <stop offset="0%" stop-color="#ffffff" /> <stop offset="100%" stop-color="#c0c0c0" /> </radialGradient> <path id="k" transform="scale(11.373800303035628)" d="M0,-1L0.866025,-0.5L0.866025,0.5L0,1L-0.866025,0.5L-0.866025,-0.5z" stroke-width="0.1318820411854475" stroke="#000" stroke-linejoin="round" fill="url(#rg1)" /> <radialGradient id="rg3" cx="-107.5" cy="190.5449" r="10" fx="-109.5" fy="188.55" gradientTransform="matrix(1 0 0 -1 159.5 242.5)" gradientUnits="userSpaceOnUse"> <stop offset="0" stop-color="#000000" /> <stop offset="1" stop-color="#000000" stop-opacity="0" /> </radialGradient> <radialGradient id="rg4" cx="-109.5" cy="192.55" r="10" fx="-114.5" fy="187.55" gradientTransform="matrix(0 1 1 0 -142.5 159.5)" gradientUnits="userSpaceOnUse"> <stop offset="0" stop-color="#b18366" /> <stop offset="0.5" stop-color="#76522e" /> <stop offset="1" stop-color="#322300" /> </radialGradient> <g id="h"> <use href="#k" x="0" y="0"/> <g transform="scale(0.818) translate(-50 -50)"> <path fill="url(#rg3)" d="M61.9,52c0,5.5-4.5,10-10,10s-10-4.5-10-10s4.5-10,10-10S61.9,46.5,61.9,52z" /> <path fill="url(#rg4)" d="M59.9,50c0,5.5-4.5,10-10,10s-10-4.5-10-10s4.5-10,10-10S59.9,44.5,59.9,50z" /> </g></g> </defs> <use href="#h" x="50" y="12.2398" /> <use href="#k" x="20.45" y="29.3005" /> <use href="#h" x="40.15" y="29.3005" /> <use href="#k" x="59.85" y="29.3005" /> <use href="#h" x="79.55" y="29.3005" /> <use href="#k" x="30.3" y="46.3612" /> <use href="#k" x="50" y="46.3612" /> <use href="#h" x="69.7" y="46.3612" /> <use href="#h" x="20.45" y="63.4219" /> <use href="#h" x="40.15" y="63.4219" /> <use href="#h" x="59.85" y="63.4219" /> <use href="#h" x="79.55" y="63.4219" /> <use href="#k" x="50" y="80.4826" /> </svg>