<svg xmlns="http://www.w3.org/2000/svg" viewBox="-1 -1 102 102"><defs><path id="rA" d="M-5.5 0 a 5.5,5.5 0 1,0 11,0 a 5.5,5.5 0 1,0 -11,0 M-2.5 0 a 2.5,2.5 0 1,0 5,0 a 2.5,2.5 0 1,0 -5,0" stroke="black" stroke-width="0.5" fill="black" fill-rule="evenodd" /><path id="rB" d="M-11 0 a 11,11 0 1,0 22,0 a 11,11 0 1,0 -22,0 M-5 0 a 5,5 0 1,0 10,0 a 5,5 0 1,0 -10,0" stroke="black" stroke-width="0.5" fill="black" fill-rule="evenodd" /><circle id="rC" r="5.5" stroke="black" stroke-width="0.5" fill="black" /><circle id="rD" r="11" stroke="black" stroke-width="0.5" fill="black" /><path id="rE" d="M-5.5 -5.5 h11 v11 h-11 z M-2.5 -2.5 h5 v5 h-5 z" stroke="black" stroke-width="0.5" fill="black" fill-rule="evenodd" /><path id="rF" d="M-11 -11 h22 v22 h-22 z M-5 -5 h10 v10 h-10 z" stroke="black" stroke-width="0.5" fill="black" fill-rule="evenodd" /><rect id="rG" x="-5.5" y="-5.5" width="11" height="11" stroke="black" stroke-width="0.5" fill="black" /><rect id="rH" x="-11" y="-11" width="22" height="22" stroke="black" stroke-width="0.5" fill="black" /><path id="rI" d="M-5.5 0 a 5.5,5.5 0 1,0 11,0 a 5.5,5.5 0 1,0 -11,0 M-2.5 0 a 2.5,2.5 0 1,0 5,0 a 2.5,2.5 0 1,0 -5,0" stroke="black" stroke-width="0.5" fill="white" fill-rule="evenodd" /><path id="rJ" d="M-11 0 a 11,11 0 1,0 22,0 a 11,11 0 1,0 -22,0 M-5 0 a 5,5 0 1,0 10,0 a 5,5 0 1,0 -10,0" stroke="black" stroke-width="0.5" fill="white" fill-rule="evenodd" /><circle id="rK" r="5.5" stroke="black" stroke-width="0.5" fill="white" /><circle id="rL" r="11" stroke="black" stroke-width="0.5" fill="white" /><path id="rM" d="M-5.5 -5.5 h11 v11 h-11 z M-2.5 -2.5 h5 v5 h-5 z" stroke="black" stroke-width="0.5" fill="white" fill-rule="evenodd" /><path id="rN" d="M-11 -11 h22 v22 h-22 z M-5 -5 h10 v10 h-10 z" stroke="black" stroke-width="0.5" fill="white" fill-rule="evenodd" /><rect id="rO" x="-5.5" y="-5.5" width="11" height="11" stroke="black" stroke-width="0.5" fill="white" /><rect id="rP" x="-11" y="-11" width="22" height="22" stroke="black" stroke-width="0.5" fill="white" /></defs><path d="M0,0h100v100h-100" fill="#888" /><path d="M0,0v100m25,-100v100m25,-100v100m25,-100v100m25,-100v100M0,0h100m-100,25h100m-100,25h100m-100,25h100m-100,25h100" stroke-linecap="round" stroke="#000" stroke-width="0.5" fill="none" /><use href="#rG" x="12.5" y="12.5" /><use href="#rP" x="62.5" y="12.5" /><use href="#rJ" x="87.5" y="37.5" /><use href="#rK" x="37.5" y="62.5" /><use href="#rH" x="87.5" y="62.5" /><use href="#rI" x="12.5" y="87.5" /><use href="#rD" x="37.5" y="87.5" /><g transform="translate(25 0)" fill="#800000"><rect x="0.625" y="0.625" width="5" height="5" rx="0.5" ry="0.5"/><rect x="6.875" y="0.625" width="5" height="5" rx="0.5" ry="0.5"/><rect x="13.125" y="0.625" width="5" height="5" rx="0.5" ry="0.5"/><rect x="6.875" y="6.875" width="5" height="5" rx="0.5" ry="0.5"/><rect x="19.375" y="13.125" width="5" height="5" rx="0.5" ry="0.5" fill="#ff0"/><rect x="0.625" y="19.375" width="5" height="5" rx="0.5" ry="0.5" /><rect x="6.875" y="19.375" width="5" height="5" rx="0.5" ry="0.5"/><rect x="13.125" y="19.375" width="5" height="5" rx="0.5" ry="0.5"/><use transform-origin="3.125 3.125" transform="scale(0.18)" href="#rA" x="3.125" y="3.125"/><use transform-origin="9.375 3.125" transform="scale(0.18)" href="#rB" x="9.375" y="3.125"/><use transform-origin="15.625 3.125" transform="scale(0.18)" href="#rC" x="15.625" y="3.125"/><use transform-origin="9.375 9.375" transform="scale(0.18)" href="#rF" x="9.375" y="9.375"/><use transform-origin="21.875 15.625" transform="scale(0.18)" href="#rL" x="21.875" y="15.625"/><use transform-origin="3.125 21.875" transform="scale(0.18)" href="#rM" x="3.125" y="21.875"/><use transform-origin="9.375 21.875" transform="scale(0.18)" href="#rN" x="9.375" y="21.875"/><use transform-origin="15.625 21.875" transform="scale(0.18)" href="#rO" x="15.625" y="21.875"/></g><g transform="translate(75 0)" fill="#800000"><rect x="0.625" y="0.625" width="5" height="5" rx="0.5" ry="0.5"/><rect x="6.875" y="0.625" width="5" height="5" rx="0.5" ry="0.5"/><rect x="13.125" y="0.625" width="5" height="5" rx="0.5" ry="0.5"/><rect x="6.875" y="6.875" width="5" height="5" rx="0.5" ry="0.5"/><rect x="19.375" y="13.125" width="5" height="5" rx="0.5" ry="0.5"/><rect x="0.625" y="19.375" width="5" height="5" rx="0.5" ry="0.5"/><rect x="6.875" y="19.375" width="5" height="5" rx="0.5" ry="0.5"/><rect x="13.125" y="19.375" width="5" height="5" rx="0.5" ry="0.5"/><use transform-origin="3.125 3.125" transform="scale(0.18)" href="#rA" x="3.125" y="3.125"/><use transform-origin="9.375 3.125" transform="scale(0.18)" href="#rB" x="9.375" y="3.125"/><use transform-origin="15.625 3.125" transform="scale(0.18)" href="#rC" x="15.625" y="3.125"/><use transform-origin="9.375 9.375" transform="scale(0.18)" href="#rF" x="9.375" y="9.375"/><use transform-origin="21.875 15.625" transform="scale(0.18)" href="#rL" x="21.875" y="15.625"/><use transform-origin="3.125 21.875" transform="scale(0.18)" href="#rM" x="3.125" y="21.875"/><use transform-origin="9.375 21.875" transform="scale(0.18)" href="#rN" x="9.375" y="21.875"/><use transform-origin="15.625 21.875" transform="scale(0.18)" href="#rO" x="15.625" y="21.875"/></g><g transform="translate(0 25)" fill="#800000"><rect x="0.625" y="0.625" width="5" height="5" rx="0.5" ry="0.5"/><rect x="6.875" y="0.625" width="5" height="5" rx="0.5" ry="0.5"/><rect x="13.125" y="0.625" width="5" height="5" rx="0.5" ry="0.5"/><rect x="6.875" y="6.875" width="5" height="5" rx="0.5" ry="0.5"/><rect x="19.375" y="13.125" width="5" height="5" rx="0.5" ry="0.5"/><rect x="0.625" y="19.375" width="5" height="5" rx="0.5" ry="0.5"/><rect x="6.875" y="19.375" width="5" height="5" rx="0.5" ry="0.5"/><rect x="13.125" y="19.375" width="5" height="5" rx="0.5" ry="0.5"/><use transform-origin="3.125 3.125" transform="scale(0.18)" href="#rA" x="3.125" y="3.125"/><use transform-origin="9.375 3.125" transform="scale(0.18)" href="#rB" x="9.375" y="3.125"/><use transform-origin="15.625 3.125" transform="scale(0.18)" href="#rC" x="15.625" y="3.125"/><use transform-origin="9.375 9.375" transform="scale(0.18)" href="#rF" x="9.375" y="9.375"/><use transform-origin="21.875 15.625" transform="scale(0.18)" href="#rL" x="21.875" y="15.625"/><use transform-origin="3.125 21.875" transform="scale(0.18)" href="#rM" x="3.125" y="21.875"/><use transform-origin="9.375 21.875" transform="scale(0.18)" href="#rN" x="9.375" y="21.875"/><use transform-origin="15.625 21.875" transform="scale(0.18)" href="#rO" x="15.625" y="21.875"/></g><g transform="translate(25 25)" fill="#ff0"><rect x="0.625" y="0.625" width="5" height="5" rx="0.5" ry="0.5"/><rect x="6.875" y="0.625" width="5" height="5" rx="0.5" ry="0.5" fill="#800000"/><rect x="13.125" y="0.625" width="5" height="5" rx="0.5" ry="0.5"/><rect x="6.875" y="6.875" width="5" height="5" rx="0.5" ry="0.5"/><rect x="19.375" y="13.125" width="5" height="5" rx="0.5" ry="0.5"/><rect x="0.625" y="19.375" width="5" height="5" rx="0.5" ry="0.5" fill="#800000"/><rect x="6.875" y="19.375" width="5" height="5" rx="0.5" ry="0.5"/><rect x="13.125" y="19.375" width="5" height="5" rx="0.5" ry="0.5" fill="#800000"/><use transform-origin="3.125 3.125" transform="scale(0.18)" href="#rA" x="3.125" y="3.125"/><use transform-origin="9.375 3.125" transform="scale(0.18)" href="#rB" x="9.375" y="3.125"/><use transform-origin="15.625 3.125" transform="scale(0.18)" href="#rC" x="15.625" y="3.125"/><use transform-origin="9.375 9.375" transform="scale(0.18)" href="#rF" x="9.375" y="9.375"/><use transform-origin="21.875 15.625" transform="scale(0.18)" href="#rL" x="21.875" y="15.625"/><use transform-origin="3.125 21.875" transform="scale(0.18)" href="#rM" x="3.125" y="21.875"/><use transform-origin="9.375 21.875" transform="scale(0.18)" href="#rN" x="9.375" y="21.875"/><use transform-origin="15.625 21.875" transform="scale(0.18)" href="#rO" x="15.625" y="21.875"/></g><g transform="translate(50 25)" fill="#800000"><rect x="0.625" y="0.625" width="5" height="5" rx="0.5" ry="0.5"/><rect x="6.875" y="0.625" width="5" height="5" rx="0.5" ry="0.5"/><rect x="13.125" y="0.625" width="5" height="5" rx="0.5" ry="0.5"/><rect x="6.875" y="6.875" width="5" height="5" rx="0.5" ry="0.5"/><rect x="19.375" y="13.125" width="5" height="5" rx="0.5" ry="0.5" fill="#ff0"/><rect x="0.625" y="19.375" width="5" height="5" rx="0.5" ry="0.5"/><rect x="6.875" y="19.375" width="5" height="5" rx="0.5" ry="0.5"/><rect x="13.125" y="19.375" width="5" height="5" rx="0.5" ry="0.5"/><use transform-origin="3.125 3.125" transform="scale(0.18)" href="#rA" x="3.125" y="3.125"/><use transform-origin="9.375 3.125" transform="scale(0.18)" href="#rB" x="9.375" y="3.125"/><use transform-origin="15.625 3.125" transform="scale(0.18)" href="#rC" x="15.625" y="3.125"/><use transform-origin="9.375 9.375" transform="scale(0.18)" href="#rF" x="9.375" y="9.375"/><use transform-origin="21.875 15.625" transform="scale(0.18)" href="#rL" x="21.875" y="15.625"/><use transform-origin="3.125 21.875" transform="scale(0.18)" href="#rM" x="3.125" y="21.875"/><use transform-origin="9.375 21.875" transform="scale(0.18)" href="#rN" x="9.375" y="21.875"/><use transform-origin="15.625 21.875" transform="scale(0.18)" href="#rO" x="15.625" y="21.875"/></g><g transform="translate(0 50)" fill="#800000"><rect x="0.625" y="0.625" width="5" height="5" rx="0.5" ry="0.5"/><rect x="6.875" y="0.625" width="5" height="5" rx="0.5" ry="0.5" fill="#ff0"/><rect x="13.125" y="0.625" width="5" height="5" rx="0.5" ry="0.5"/><rect x="6.875" y="6.875" width="5" height="5" rx="0.5" ry="0.5"/><rect x="19.375" y="13.125" width="5" height="5" rx="0.5" ry="0.5"/><rect x="0.625" y="19.375" width="5" height="5" rx="0.5" ry="0.5"/><rect x="6.875" y="19.375" width="5" height="5" rx="0.5" ry="0.5" fill="#008000"/><rect x="13.125" y="19.375" width="5" height="5" rx="0.5" ry="0.5"/><use transform-origin="3.125 3.125" transform="scale(0.18)" href="#rA" x="3.125" y="3.125"/><use transform-origin="9.375 3.125" transform="scale(0.18)" href="#rB" x="9.375" y="3.125"/><use transform-origin="15.625 3.125" transform="scale(0.18)" href="#rC" x="15.625" y="3.125"/><use transform-origin="9.375 9.375" transform="scale(0.18)" href="#rF" x="9.375" y="9.375"/><use transform-origin="21.875 15.625" transform="scale(0.18)" href="#rL" x="21.875" y="15.625"/><use transform-origin="3.125 21.875" transform="scale(0.18)" href="#rM" x="3.125" y="21.875"/><use transform-origin="9.375 21.875" transform="scale(0.18)" href="#rN" x="9.375" y="21.875"/><use transform-origin="15.625 21.875" transform="scale(0.18)" href="#rO" x="15.625" y="21.875"/></g><g transform="translate(50 50)" fill="#800000"><rect x="0.625" y="0.625" width="5" height="5" rx="0.5" ry="0.5" fill="#008000"/><rect x="6.875" y="0.625" width="5" height="5" rx="0.5" ry="0.5"/><rect x="13.125" y="0.625" width="5" height="5" rx="0.5" ry="0.5" fill="#008000"/><rect x="6.875" y="6.875" width="5" height="5" rx="0.5" ry="0.5"/><rect x="19.375" y="13.125" width="5" height="5" rx="0.5" ry="0.5" fill="#ff0"/><rect x="0.625" y="19.375" width="5" height="5" rx="0.5" ry="0.5" fill="#ff0"/><rect x="6.875" y="19.375" width="5" height="5" rx="0.5" ry="0.5"/><rect x="13.125" y="19.375" width="5" height="5" rx="0.5" ry="0.5"/><use transform-origin="3.125 3.125" transform="scale(0.18)" href="#rA" x="3.125" y="3.125"/><use transform-origin="9.375 3.125" transform="scale(0.18)" href="#rB" x="9.375" y="3.125"/><use transform-origin="15.625 3.125" transform="scale(0.18)" href="#rC" x="15.625" y="3.125"/><use transform-origin="9.375 9.375" transform="scale(0.18)" href="#rF" x="9.375" y="9.375"/><use transform-origin="21.875 15.625" transform="scale(0.18)" href="#rL" x="21.875" y="15.625"/><use transform-origin="3.125 21.875" transform="scale(0.18)" href="#rM" x="3.125" y="21.875"/><use transform-origin="9.375 21.875" transform="scale(0.18)" href="#rN" x="9.375" y="21.875"/><use transform-origin="15.625 21.875" transform="scale(0.18)" href="#rO" x="15.625" y="21.875"/></g><g transform="translate(50 75)" fill="#ff0"><rect x="0.625" y="0.625" width="5" height="5" rx="0.5" ry="0.5"/><rect x="6.875" y="0.625" width="5" height="5" rx="0.5" ry="0.5"/><rect x="13.125" y="0.625" width="5" height="5" rx="0.5" ry="0.5"/><rect x="6.875" y="6.875" width="5" height="5" rx="0.5" ry="0.5"/><rect x="19.375" y="13.125" width="5" height="5" rx="0.5" ry="0.5"  fill="#800000"/><rect x="0.625" y="19.375" width="5" height="5" rx="0.5" ry="0.5"/><rect x="6.875" y="19.375" width="5" height="5" rx="0.5" ry="0.5"/><rect x="13.125" y="19.375" width="5" height="5" rx="0.5" ry="0.5"/><use transform-origin="3.125 3.125" transform="scale(0.18)" href="#rA" x="3.125" y="3.125"/><use transform-origin="9.375 3.125" transform="scale(0.18)" href="#rB" x="9.375" y="3.125"/><use transform-origin="15.625 3.125" transform="scale(0.18)" href="#rC" x="15.625" y="3.125"/><use transform-origin="9.375 9.375" transform="scale(0.18)" href="#rF" x="9.375" y="9.375"/><use transform-origin="21.875 15.625" transform="scale(0.18)" href="#rL" x="21.875" y="15.625"/><use transform-origin="3.125 21.875" transform="scale(0.18)" href="#rM" x="3.125" y="21.875"/><use transform-origin="9.375 21.875" transform="scale(0.18)" href="#rN" x="9.375" y="21.875"/><use transform-origin="15.625 21.875" transform="scale(0.18)" href="#rO" x="15.625" y="21.875"/></g><g transform="translate(75 75)" fill="#ff0"><rect x="0.625" y="0.625" width="5" height="5" rx="0.5" ry="0.5"/><rect x="6.875" y="0.625" width="5" height="5" rx="0.5" ry="0.5"/><rect x="13.125" y="0.625" width="5" height="5" rx="0.5" ry="0.5" fill="#800000"/><rect x="6.875" y="6.875" width="5" height="5" rx="0.5" ry="0.5"/><rect x="19.375" y="13.125" width="5" height="5" rx="0.5" ry="0.5"  fill="#800000"/><rect x="0.625" y="19.375" width="5" height="5" rx="0.5" ry="0.5"/><rect x="6.875" y="19.375" width="5" height="5" rx="0.5" ry="0.5" fill="#800000"/><rect x="13.125" y="19.375" width="5" height="5" rx="0.5" ry="0.5"/><use transform-origin="3.125 3.125" transform="scale(0.18)" href="#rA" x="3.125" y="3.125"/><use transform-origin="9.375 3.125" transform="scale(0.18)" href="#rB" x="9.375" y="3.125"/><use transform-origin="15.625 3.125" transform="scale(0.18)" href="#rC" x="15.625" y="3.125"/><use transform-origin="9.375 9.375" transform="scale(0.18)" href="#rF" x="9.375" y="9.375"/><use transform-origin="21.875 15.625" transform="scale(0.18)" href="#rL" x="21.875" y="15.625"/><use transform-origin="3.125 21.875" transform="scale(0.18)" href="#rM" x="3.125" y="21.875"/><use transform-origin="9.375 21.875" transform="scale(0.18)" href="#rN" x="9.375" y="21.875"/><use transform-origin="15.625 21.875" transform="scale(0.18)" href="#rO" x="15.625" y="21.875"/></g></svg>