<?xml version="1.0" encoding="utf-8"?>
<svg id="BackgroundSVG" viewBox="0 0 400 400" xmlns="http://www.w3.org/2000/svg">
    <defs>
        <path id="c" stroke="#000" stroke-width="6" stroke-linecap="round" d="M-32,0h64M0,-32v64" />
        <path id="a" stroke-width="6" stroke-linecap="round" d="M-32,0h64" />
        <path id="b" stroke-width="6" stroke-linecap="round" d="M0,-32v64" />
        <path id="h" d="M-28,0h56" stroke="#c1a37f" stroke-width="16" stroke-linecap="round"/>
        <path id="v" d="M0,-28v56" stroke="#c1a37f" stroke-width="16" stroke-linecap="round"/>
        <path id="r" transform="scale(0.0903) translate(-187.5,-187.5)" d="M 302.566406 72.679688 C 273.167969 43.183594 232.582031 24.871094 187.621094 24.871094 C 97.703125 24.871094 25.074219 97.703125 25.074219 187.621094 C 25.074219 277.542969 97.703125 350.371094 187.621094 350.371094 C 263.402344 350.371094 326.875 298.496094 344.878906 228.308594 L 302.566406 228.308594 C 285.78125 275.710938 240.820312 309.683594 187.621094 309.683594 C 120.183594 309.683594 65.558594 255.0625 65.558594 187.621094 C 65.558594 120.183594 120.183594 65.558594 187.621094 65.558594 C 221.292969 65.558594 251.5 79.597656 273.574219 101.671875 L 207.964844 167.277344 L 350.371094 167.277344 L 350.371094 24.871094 Z M 302.566406 72.679688 " fill-opacity="1" fill-rule="nonzero"/>
    </defs>
    <rect x="0" y="0" width="400" height="400" rx="40" ry="40" fill="#48392e"/>
    <use href="#c" x="50" y="50"/>
    <use href="#c" x="50" y="150"/>
    <use href="#c" x="50" y="250"/>
    <use href="#c" x="50" y="350"/>
    <use href="#c" x="150" y="50"/>
    <use href="#c" x="150" y="150"/>
    <use href="#c" x="150" y="250"/>
    <use href="#c" x="150" y="350"/>
    <use href="#c" x="250" y="50"/>
    <use href="#c" x="250" y="150"/>
    <use href="#c" x="250" y="250"/>
    <use href="#c" x="250" y="350"/>
    <use href="#c" x="350" y="50"/>
    <use href="#c" x="350" y="150"/>
    <use href="#c" x="350" y="250"/>
    <use href="#c" x="350" y="350"/>

    <use href="#v" x="50" y="50"/>
    <use href="#v" x="250" y="50"/>
    <use href="#v" x="150" y="150"/>
    <use href="#h" x="350" y="150"/>
    <use href="#h" x="50" y="250"/>
    <use href="#h" x="250" y="250"/>
    <use href="#v" x="50" y="350"/>
    <use href="#h" x="250" y="350"/>
    <use href="#h" x="350" y="350"/>
    <g fill="#800000">
        <use href="#r" x="50" y="50"/>
        <use href="#r" x="250" y="50"/>
        <use href="#r" x="150" y="150"/>
        <use href="#r" x="350" y="150" fill="#FFFF00"/>
        <use href="#r" x="50" y="250"/>
        <use href="#r" x="250" y="250"/>
        <use href="#r" x="50" y="350"/>
        <use href="#r" x="250" y="350" fill="#FFFF00"/>
        <use href="#r" x="350" y="350"/>
    </g>
    <g stroke="#FFFF00">
        <use href="#a" x="150" y="50"/>
        <use href="#a" x="50" y="150"/>
        <use href="#b" x="150" y="250"/>
        <use href="#b" x="350" y="250"/>
        <use href="#b" x="150" y="350"/>
    </g>
    <use href="#b" x="250" y="150" stroke="#008000"/>
    <g stroke="#800000">
        <use href="#b" x="150" y="50"/>
        <use href="#a" x="350" y="50"/>
        <use href="#b" x="350" y="50"/>
        <use href="#b" x="50" y="150"/>
        <use href="#a" x="250" y="150"/>
        <use href="#a" x="150" y="250"/>
        <use href="#a" x="350" y="250"/>
        <use href="#a" x="150" y="350"/>
    </g>
</svg>