<?xml version="1.0" encoding="utf-8"?><svg xmlns="http://www.w3.org/2000/svg" viewBox="0 0 3000 3000"><style> .cls-3 { fill: #5a2f10; font-family: GillSans, 'Gill Sans'; font-size: 470px; } .cls-4 { fill: #5a2f10; font-family: Futura-Medium, Futura; font-size: 450px; font-weight: 500; } </style><defs><g id="b"><path fill="#e3c29e" d="M11,300.6V28.6c0-8.2,6.7-15,15-15h547.9c8.2,0,15,6.7,15,15v544.1c0,8.2-6.7,15-15,15H26c-8.2,0-15-6.7-15-15v-272h0Z" /><path fill="#eed8c5" d="M18.7,575.8c1.9-138.5,14.5-277.1,4.3-415.6-1.9-48.8-3.7-95.9-4.2-144.8,13.3,39.1,4.7,79.2,9.1,119.5.7,106.6,10.1,213.4-.9,319.7-2.6,41.2-4.3,82.4-4.3,123.7-3,10.1-5.9,2.2-4-2.6h0ZM58.4,547.6c-3.6-140.9-10.2-282.2.4-423,0-37-1.6-74.1,1.4-111,.5,129.9,3.7,245.2-3.2,368.4,7.5,74,.3,114.2,9.4,174.5,1.3,24.9-14.1,21.9-8-.6v-8.2h0ZM70.2,584c-5.3-198.7-4.5-373.5-.2-556.4,16.7-4.4,1.2,37.1,5.9,49.5-14.2,175.4,6.4,339.5,2,502.2-1.1,2.9-4.2,6.2-7.7,4.7h0ZM83.8,576.4c5.2-44.2,2.6-88.6-2.4-132.6-7-100.3-7.5-200.9-2.1-301.2,1.7-38.4,0-78,6.3-115.4,5.9,21-1.1,46.9-1,69.9-1.7,27.8-3.1,55.7-1.7,83.6,6-52.9,2-106.5,10.7-159.1-1.7,75.4-9.8,150.5-9.5,226-1.5,82.7,4.6,165.2,14.2,247.3,1.4,24.5.6,67.5-2.8,80.6-2.2-39.4,3.9-79.1-4-118.1-15-409.2-13.6-185.9.4,70.3-.5,12.2,3.1,50.5-8.1,48.9h0v-.2ZM77.2,303.2c-3.5,2,3.7,2.4,0,0ZM115.4,584.8c5-87.2,3.1-174.6,7.2-261.9-25.8-67.3-15.9-140.5-12.1-210.6,9.8-25.6-9.4-83.6,13.8-88.7,5.1,44.9-8.3,91.5,8.4,135.2,13.5,28.5,15.5,59.9,14.4,91-5.5,63.3,4.2,142.9,12.7,213.9,3.6,31.4,2.9,63,5.8,94.5,1.3,15.4-13.4,28.2-10.2,4.6-2.2-33.1,3.3-67.1-3.5-99.6-23.3-2.5-12.3,41-18.4,58.2-4.3,21.1-.8,49.8-13.6,65.8l-2.6-.8-1.9-1.4h0v-.2h0ZM130,577c7.4-20.1.6-75,19.1-74.2,3.7,20.9,5.1,60.4-.9,70.3-1.5-13.2,9.9-55.7-8.2-49.3-2.4,15.9.7,36.6-10.1,53.2h0ZM166.4,580.1c7.9-85.8-5-171.4-14.1-256.5-3.9-48.3-3.7-96.9-1.1-145.3-1.4-18.7-38.2-46.1-3.7-46.5,10.7-25.9-1.8-54.7,1.3-81.8,8.8-43.3-9.6,37.9,11.3,25.9,1.1-13.3,7.3-62.6,4.2-25.1-13.5,121.3-19.6,244.9,2.8,365.6,4.1,43.7,4.1,87.7,6.9,131.5-8.8,8.3,1.7,25.6-7.7,32.3h.1ZM172.7,581.5c8.9-28.2.2-58.5,11.3-85.7,3.5-15.7-9.8-61.3-1.9-60.6,7,47.8,4.8,96.8-5.1,143.8-.5,2.2-2.6,2-4.3,2.5h0ZM184.1,584.6c8.7-29.3,5-60.4,12.8-89.3-5.5-99-28.2-198.1-26.3-290.8,3.6-33-9.7-67.5,4.8-99.4,3.3-25.2-5.1-56.8,6.1-76.8,17.1-28.1,4.4,25.9,3.7,36.1-9.5,79.4-2.1,132.1-3.8,239.5,20.3,73.9,24.7,149.6,21.1,220.3-2.9,14.1-5.4,64.9-18.3,60.3h-.1ZM227.3,577.3c6.6-92.6,9.3-185.9-1.6-278.3-3.3,23.9-21.4,21.6-18.5-1.7-9.6-50.1-19.6-102.3-5-152.6,7.4-33.3,18.8-66.1,20.5-100.4-4.7,9.3-16.6,51.9-9.4,20.2-3.9-13,18-58.6,16.1-24.5-2.4,10.4-10.7,51.5-2.2,44.6,3-22.2-.8-78.2,36.1-61.9,3.6,40,5.2,80.2,15.6,119.1-.4,27.3,2.4,64.7-14.3,85.2-9.3-19.8,1.2-51.1-14.7-65.5-21.1,36.3-4.9,55.2-8.1,119.2-16.3,106.8,27.1,199.5,6.8,299.1-4.4-22.3-2,11.8-7.3-9.7-3.6-31.1,5.2-62.8-5.2-93.4-2.2,33.4,8.5,68.8-3.7,101.3-6.4,8.7-5.4,7.8-5.2-.8h0ZM229.6,580.1c-3.5,2,3.7,2.4,0,0ZM237.5,374.5c.3-45.3-5.1-103.2-8.7-154.9-7.2,9.4-8.3,55.6-18.9,23.2-14.8-36.3,2-74.4,13.1-109.1,5.5-14.1-8.2-26.8-6.8-5.8-9.1,37.5-19,76.3-12.2,115.1-6.8,24.2,23.7,37.8,24,13.4,7.4,24.1,3.1,50.8,6.8,75.9,1.5,28.7,2.2,57.5,1.2,86.2,1.8-14.6.9-29.3,1.5-44h0ZM215.7,273.1c-3.2-8.5,4.3,4.6,0,0ZM253.5,577c-8.4-13.3,14.8-42.4,11.6-12.6,2,8.5-6,36.1-11.6,12.6ZM268.4,586.2c3.8-40.5-8.9-79.7-15.9-119-6.9-83.3-12.1-167.5.1-250.6,7.6,5.7,5.7,55.1,16.5,32.5-1.4-22.2,25.2-24.9,16.7.4,6.3,97.9,3.4,196.1,7.9,294-7.3-98.1-2.5-196.8-11.9-294.8-16.1-7.5-10.7,49.5-24.9,19.1-14.2,43.6-7.6,90.1-7.5,135.1,3.9,59.9,23.4,118.6,19.7,178.8l-.8,4.3v.2h0ZM297.2,556.5c-4.8-73.5-6.5-226.7-5.7-340.5,7.9-66.8,12.2-134.4,6.5-201.6,13.8,9.2,2.3,62.8,6,23.6-1.7-19.3,4.4-20.7,2.9-.9-1.3,69.1,2.3,138.3-4.4,207.2-2.3,29.9,3.8,59.3-1.3,89.1-1.4,82.5,5.8,164.8,5,247.3-13.5,13.5-6.8-18.7-8.9-24.2h-.1ZM304,547.6c-2-16.2,0-37.7-3.7-50.7,1.1,16.9-2,34.4,3.7,50.7ZM319.1,584.6c-5-87.6-2.2-177.4-.5-285.4,6-77.9,13-156.3,2.8-234.1-3.2-12.8,1.4-65.4,4.4-29.6,2.7,44.2,4.6,88.4,5.5,132.6.2,27.7-.2,55.3-.6,83,14-30.2,4-64.9,6.9-97-3.3-39.1-4-78.4-8.4-117.4,10.5-31.6,12.7,19.3,12.6,30.4,10.4,187.5-15,348.1-4.8,517.4-24.9-107.5.4-226.6-2.1-328.1-15,39.2-4.3,74.1-13,137.6-1.3,44.9-.4,89.9,3.5,134.7-13,20.1,15.7,37-6.4,55.8h.1ZM365.5,585.1c-2.1-47.4-13.9-94.1-11.1-141.8-2.9-137.1,10.3-273.9,10.9-411,11-15,1.9,34.2,2.7,43.6-2.7,117.8-13.8,262.3-8.9,394.3-3.7,32.6,15.9,54,12.1,86.1-.9,9.4,8.4,25.1-5.8,28.8h0ZM377.3,582.3c6-49.6-5.6-98.7-13.7-147.2-6.5-65.3-1.3-131,.2-196.4,7,36.7-.1,74.3,2.4,111.4-.1,43.6,7.9,86.5,14.8,129.3,2.7,34.7,2.5,69.6-1.7,104.1h-1.4l-.7-1.1h.1ZM386.2,585.9c3.3-70.6,2-141.9-12.6-211.3-5.7-101.9-4.1-204.3,8.7-305.6-.8-12.7-2.8-55,16.3-42.5-1.4,49.5-12.4,98-17.5,147-4.6,169.2-2.7,163.3,10.5,214.7,2.8,40.5,6.6,81.4,6.7,121.7-1.7,25.7,8.8,59.9-11,75l-.4.9h-.7ZM404.3,508.6c1.8-137.4-18.3-275.2,0-412.1,0-18.4-1.4-67.4,4.5-66.3-5.2,124.8-12,250-2.8,374.8,2.1,60.4,3.6,120.9,2.9,181.4-12.5-24.5-.4-52-4.7-77.8h.1ZM446.3,582.3c0-41,2.5-81.9,7.1-122.6,32.9,13.3,4.4,55,10.7,81-.5,12.1,5.6,50.5-17.8,41.6h0ZM472,582.3c2.5-14.3,5.8-61.8,5.7-23.9-.2,8.2-1.4,16.7-5.7,23.9ZM507.6,579c-2.1-144.1,23.5-288.3,4.6-432.1-7.3-43.1-6.1-86.7-4.4-130.2,12.3,52.1,1.3,108.5,10.3,123.6,9.2,115.5,3,231.4,1.3,347-6.2,30.4-2.6,71.1-11,95.8l-.8-4.2h0ZM516,573.3c4.6-37.5,16.6-74.5,9.1-112.4-2-91,0-182,.4-273.1,1.6,124.2,1.5,248.7,2.7,372.7.2,8-15,37-12.2,12.8h0ZM525.3,432.1c-3.5,2,3.7,2.4,0,0ZM544,561.6c6-8.9-5.9-28.6-4.5-7.4,4.6-76.1,12.7-153-.5-228.7-3.5-66.3,2.9-132.7,1.6-199.2,2.6-35.6-4.6-74.1,5.6-108,26.9-16.6,53.4,15.5,38,39.3,6,159.5,4.2,319.2,2.8,478.8,4.5,22.6-7.6,53.5-32.6,49.9-9.6-4-13.5-15.5-10.4-24.8h0ZM571.3,271.5c3.4-71.6,1-143.3-4.9-214.7-14.1,27.6-2.7,60.7-8,90.5.4,44.3,4.6,88.5,11,132.4,1.1-2.6,1.7-5.3,1.8-8.2h.1ZM566.5,260.9c-1.5-6.6,2.6,2.1,0,0ZM586.2,152.9c-3.5,2,3.7,2.4,0,0ZM586.2,148.4c-3.5,2,3.7,2.4,0,0ZM372.3,580.4c-1.5-6.6,2.6,2.1,0,0ZM252.3,562.1c-5.9-12.3,5.8-.4,0,0ZM428.3,544.8c-14.7,3.2,6.3-23.5-10.2-13.7-2.5-110.2-8.8-220.3-7.3-330.5,1.2-28.7,4.9-57.8,4.2-86.3,17.6-21.3,11.4,26.1,15.5,38.3,1.5,28.3,6.1,56.2,12.4,83.7,15.9,64.1,21.7-65.3,25.8-87.1,5.5-22.3-1.5-54.5,15-70.5,9.1,24.2,7.3,51.7,12.6,77.2,10.9,85.4,14.6,173.5-2.6,258-16.1-31.9-16.3-71.1-26.3-105.8,7,22.6-11.9-19.5-12.1,8.9-6.3,45.4-12.3,90.9-18.6,136.3-4,30.3-5.1,61.4-7.2,91.6h-1.2,0ZM422.6,447.8c-3.5,2,3.7,2.4,0,0ZM437.2,294.3c-5.5-35.9-8.8-72.2-15.6-107.9-11.5,36.5-5.1,75.7-5.1,113.3,1.6,32.5.4,65.2,5.5,97.4,23.6,14.9,15.8-93.4,15.1-102.8h.1ZM494.2,350.6c11.6-74.5,4.5-150.6-9.2-224.3-22.8,31.3-10,71.6-16,107.1,2.1,40,6.8,81,25.2,117.2h0ZM182.6,544c-1.8-8.6,4.1,3.3,0,0ZM400,528.5c1.5-15,2.1,7.7,0,0ZM500.1,501.9c-2.8-16.1,4.9-21.2,2.5-.8.4,14.1-4.4,23.9-2.5.8ZM477.1,520.2c-5.3-13.7,2.6-44.3,1.4-12.2,0,4.1,0,8.3-1.4,12.2ZM144.2,512c-1.4-6.8,3.6,3.2,0,0ZM326.1,506.4c-.1-8.6,1.6,4.7,0,0ZM326.2,498c.9-9.1.9,9.1,0,0ZM162.4,496.4c-1.5-6.6,2.6,2.1,0,0ZM326.2,489c.6-7.7.6,7.7,0,0ZM18.1,450.3c10.6-133.7-1.3-115,1.8-4.2-.4,9.9-2.3,24.2-1.8,4.2ZM272.4,459.1c.2-21.2-13.7-75.8.6-77.4,6.1,25.1,11.3,50.4-.6,77.4ZM60.3,439.9c-3.1-27.1,4.4-12.2.9,6.1l-.9-6.1ZM64.8,413.1c-7.7-4.6,2.6-7.5,0,0ZM171.3,396.1c-9-57.4-8.8-115.8-10.2-173.8-1-60.9-5.4-74.9,10.8-193.5,7,14.2-8.2,57.7-6.4,82.5-2.8,61.1-1.5,122.3-.5,183.4,15.7,30.2-22.4,82.6,6.3,101.4h0ZM57.3,321.2c-30.9,177.5-15.4,88.7,0,0ZM224.8,304.6c-8-6.2,3.1-8.1,0,0ZM329.4,271c-1.5-6.6,2.6,2.1,0,0ZM330.5,254.2c-1.5-6.6,2.6,2.1,0,0ZM277.5,248.6c-1.5-6.6,2.6,2.1,0,0ZM504.3,232.7c4.3-4-.9,7.8,0,0ZM365,196.3c1.2-57.9,3.6-115.8,12-173.2,9.1,31.2-7.9,62.1-6.3,93.6-2.1,32.2-1.2,64.7-5.8,96.7-.4-5.7.1-11.4,0-17.1h0ZM587.9,186.9c-1.5-6.6,2.6,2.1,0,0ZM524.2,185.4c-1.9-43.5-10.8-67.1-8.6-160.3,15.2,4.2,3.1,44.5,7.5,62.3,1,32.6,4.9,65.4,1.1,98h0ZM521.9,80c-3.5,2,3.7,2.4,0,0ZM588.1,177.3c.9-9.1.9,9.1,0,0ZM253.1,167.1c-3.7-14.7,4.4,5.5,0,0ZM286.4,165.1c-6.1-45.3-11.7-90.8-17-136.2,12.8,21.7,6.4,51.7,10.9,76.6-1.2,15.1,15.1,32.4,15.6,6.8,3.8-21.9-4.1-66.8.1-74.8,1.8,42.1,4.9,85.1-5.9,126.4,2.8-10.9-1.3,1.1-3.7,1.2h0ZM395.5,164.2c.8-23.8,4.3-75.9,7-81.4-.6,27.3-3.4,54.4-7,81.4ZM191.9,157.9c.7-13.8,11.4-45.1,5.9-12.9-.7,4.7-2.3,9.6-5.9,12.9ZM586.7,142c1.4-9.5,1.7,10.9,0,0ZM287.7,130.3c-3.3-5.3,6.3,2.2,0,0ZM586.9,118.4c.3-10.5,1.1,6.9,0,0ZM135.2,111.2c-7.2-46.2,3.8-119.6,8.2-36.5-1.5,12.2-1.9,25.6-8.2,36.5ZM449.6,96.3c1-21.1-16.5-74.1,9.9-71.8,6.8,24.5-8.1,47.8-9.9,71.8ZM487.4,96.1c-1.5-6.6,2.6,2.1,0,0ZM269.1,90.4c2.3-4.9.9,8.1,0,0ZM143.2,74.8c-1.5-6.6,2.6,2.1,0,0ZM381.3,45.6c-1.5-6.6,2.6,2.1,0,0Z" /></g><g id="r"><use href="#b" x="0" y="0" /><use href="#b" x="600" y="0" /><use href="#b" x="1200" y="0" /><use href="#b" x="1800" y="0" /><use href="#b" x="2400" y="0" /></g><text id="x" class="cls-3" transform="translate(130 460.4)">X</text><text id="o" class="cls-4" transform="translate(93.7 459.1)">O</text></defs><use href="#r" x="0" y="0" /><use href="#r" x="0" y="600" /><use href="#r" x="0" y="1200" /><use href="#r" x="0" y="1800" /><use href="#r" x="0" y="2400" /><use href="#x" x="0" y="0" /><use href="#x" x="600" y="0" /><use href="#x" x="1800" y="0" /><use href="#o" x="600" y="2400" /><use href="#o" x="1800" y="2400" /><use href="#o" x="2400" y="2400" /><g transform="scale(30)"><path d="M47,9.75L45.571111,9.75L45.571111,9.25 L44.5,10L45.571111,10.75L45.571111,10.25 L47,10.25A 0.25 0.25 0 0 0 47 9.75Z" fill="#080" stroke="#080" /><path d="M50.25,87L50.25,85.571111L50.75,85.571111 L50,84.5L49.25,85.571111L49.75,85.571111 L49.75,87A 0.25 0.25 0 0 0 50.25 87Z" fill="#080" stroke="#080" /><g fill="#ff0" stroke="#ff0"><path d="M9.75,13L9.75,14.428889L9.25,14.428889 L10,15.5L10.75,14.428889L10.25,14.428889 L10.25,13A 0.25 0.25 0 0 0 9.75 13Z" /><path d="M13,10.25L14.428889,10.25L14.428889,10.75 L15.5,10L14.428889,9.25L14.428889,9.75 L13,9.75A 0.25 0.25 0 0 0 13 10.25Z" /><path d="M10.25,27L10.25,25.571111L10.75,25.571111 L10,24.5L9.25,25.571111L9.75,25.571111 L9.75,27A 0.25 0.25 0 0 0 10.25 27Z" /><path d="M9.75,33L9.75,34.428889L9.25,34.428889 L10,35.5L10.75,34.428889L10.25,34.428889 L10.25,33A 0.25 0.25 0 0 0 9.75 33Z" /><path d="M13,30.25L14.428889,30.25L14.428889,30.75 L15.5,30L14.428889,29.25L14.428889,29.75 L13,29.75A 0.25 0.25 0 0 0 13 30.25Z" /><path d="M10.25,47L10.25,45.571111L10.75,45.571111 L10,44.5L9.25,45.571111L9.75,45.571111 L9.75,47A 0.25 0.25 0 0 0 10.25 47Z" /><path d="M9.75,53L9.75,54.428889L9.25,54.428889 L10,55.5L10.75,54.428889L10.25,54.428889 L10.25,53A 0.25 0.25 0 0 0 9.75 53Z" /><path d="M13,50.25L14.428889,50.25L14.428889,50.75 L15.5,50L14.428889,49.25L14.428889,49.75 L13,49.75A 0.25 0.25 0 0 0 13 50.25Z" /><path d="M10.25,67L10.25,65.571111L10.75,65.571111 L10,64.5L9.25,65.571111L9.75,65.571111 L9.75,67A 0.25 0.25 0 0 0 10.25 67Z" /><path d="M9.75,73L9.75,74.428889L9.25,74.428889 L10,75.5L10.75,74.428889L10.25,74.428889 L10.25,73A 0.25 0.25 0 0 0 9.75 73Z" /><path d="M13,70.25L14.428889,70.25L14.428889,70.75 L15.5,70L14.428889,69.25L14.428889,69.75 L13,69.75A 0.25 0.25 0 0 0 13 70.25Z" /><path d="M10.25,87L10.25,85.571111L10.75,85.571111 L10,84.5L9.25,85.571111L9.75,85.571111 L9.75,87A 0.25 0.25 0 0 0 10.25 87Z" /><path d="M13,90.25L14.428889,90.25L14.428889,90.75 L15.5,90L14.428889,89.25L14.428889,89.75 L13,89.75A 0.25 0.25 0 0 0 13 90.25Z" /><path d="M29.75,13L29.75,14.428889L29.25,14.428889 L30,15.5L30.75,14.428889L30.25,14.428889 L30.25,13A 0.25 0.25 0 0 0 29.75 13Z" /><path d="M33,10.25L34.428889,10.25L34.428889,10.75 L35.5,10L34.428889,9.25L34.428889,9.75 L33,9.75A 0.25 0.25 0 0 0 33 10.25Z" /><path d="M49.75,13L49.75,14.428889L49.25,14.428889 L50,15.5L50.75,14.428889L50.25,14.428889 L50.25,13A 0.25 0.25 0 0 0 49.75 13Z" /><path d="M53,10.25L54.428889,10.25L54.428889,10.75 L55.5,10L54.428889,9.25L54.428889,9.75 L53,9.75A 0.25 0.25 0 0 0 53 10.25Z" /><path d="M47,89.75L45.571111,89.75L45.571111,89.25 L44.5,90L45.571111,90.75L45.571111,90.25 L47,90.25A 0.25 0.25 0 0 0 47 89.75Z" /><path d="M53,90.25L54.428889,90.25L54.428889,90.75 L55.5,90L54.428889,89.25L54.428889,89.75 L53,89.75A 0.25 0.25 0 0 0 53 90.25Z" /><path d="M69.75,13L69.75,14.428889L69.25,14.428889 L70,15.5L70.75,14.428889L70.25,14.428889 L70.25,13A 0.25 0.25 0 0 0 69.75 13Z" /><path d="M73,10.25L74.428889,10.25L74.428889,10.75 L75.5,10L74.428889,9.25L74.428889,9.75 L73,9.75A 0.25 0.25 0 0 0 73 10.25Z" /><path d="M89.75,13L89.75,14.428889L89.25,14.428889 L90,15.5L90.75,14.428889L90.25,14.428889 L90.25,13A 0.25 0.25 0 0 0 89.75 13Z" /><path d="M87,9.75L85.571111,9.75L85.571111,9.25 L84.5,10L85.571111,10.75L85.571111,10.25 L87,10.25A 0.25 0.25 0 0 0 87 9.75Z" /><path d="M90.25,27L90.25,25.571111L90.75,25.571111 L90,24.5L89.25,25.571111L89.75,25.571111 L89.75,27A 0.25 0.25 0 0 0 90.25 27Z" /><path d="M89.75,33L89.75,34.428889L89.25,34.428889 L90,35.5L90.75,34.428889L90.25,34.428889 L90.25,33A 0.25 0.25 0 0 0 89.75 33Z" /><path d="M87,29.75L85.571111,29.75L85.571111,29.25 L84.5,30L85.571111,30.75L85.571111,30.25 L87,30.25A 0.25 0.25 0 0 0 87 29.75Z" /><path d="M90.25,47L90.25,45.571111L90.75,45.571111 L90,44.5L89.25,45.571111L89.75,45.571111 L89.75,47A 0.25 0.25 0 0 0 90.25 47Z" /><path d="M89.75,53L89.75,54.428889L89.25,54.428889 L90,55.5L90.75,54.428889L90.25,54.428889 L90.25,53A 0.25 0.25 0 0 0 89.75 53Z" /><path d="M87,49.75L85.571111,49.75L85.571111,49.25 L84.5,50L85.571111,50.75L85.571111,50.25 L87,50.25A 0.25 0.25 0 0 0 87 49.75Z" /><path d="M90.25,67L90.25,65.571111L90.75,65.571111 L90,64.5L89.25,65.571111L89.75,65.571111 L89.75,67A 0.25 0.25 0 0 0 90.25 67Z" /><path d="M89.75,73L89.75,74.428889L89.25,74.428889 L90,75.5L90.75,74.428889L90.25,74.428889 L90.25,73A 0.25 0.25 0 0 0 89.75 73Z" /><path d="M87,69.75L85.571111,69.75L85.571111,69.25 L84.5,70L85.571111,70.75L85.571111,70.25 L87,70.25A 0.25 0.25 0 0 0 87 69.75Z" /></g><path d="M27,9.75L25.571111,9.75L25.571111,9.25 L24.5,10L25.571111,10.75L25.571111,10.25 L27,10.25A 0.25 0.25 0 0 0 27 9.75Z" fill="#800" stroke="#800" /><path d="M67,9.75L65.571111,9.75L65.571111,9.25 L64.5,10L65.571111,10.75L65.571111,10.25 L67,10.25A 0.25 0.25 0 0 0 67 9.75Z" fill="#800" stroke="#800" opacity="0.75" /></g></svg>