<?xml version="1.0" standalone="no"?><svg id="bc" viewBox="-2 -12 104 104" xmlns="http://www.w3.org/2000/svg"><defs><path id="a" d="M-3.75,6.25v-10l7.5,-2.5v10z" stroke="none"/><path id="b" d="M3.75,6.25v-10l-7.5,-2.5v10z" stroke="none"/><path id="c" d="M-7.5,0l7.5,-2.5l7.5,2.5l-7.5,2.5z" stroke="none"/></defs><use href="#b" x="38.75" y="41.25" fill="#00f"/><use href="#b" x="38.75" y="31.25" fill="green"/><use href="#b" x="46.25" y="43.75" fill="#00f"/><use href="#b" x="46.25" y="33.75" fill="#fff"/><use href="#a" x="8.75" y="28.75" fill="orange"/><use href="#a" x="16.25" y="26.5" fill="green"/><use href="#a" x="8.75" y="18.75" fill="orange"/><use href="#a" x="16.25" y="16.5" fill="#ff0"/><use href="#c" x="42.5" y="25" fill="#fff"/><use href="#c" x="50" y="22.5" fill="orange"/><use href="#c" x="50" y="27.5" fill="#f00"/><use href="#c" x="57.5" y="25" fill="#00f"/><use href="#a" x="53.75" y="33.75" fill="green"/><use href="#a" x="61.25" y="31.25" fill="#f00"/><use href="#a" x="53.75" y="43.75" fill="#f00"/><use href="#a" x="61.25" y="41.25" fill="#f00"/><use href="#b" x="83.75" y="16.5" fill="#00f"/><use href="#b" x="83.75" y="26.5" fill="orange"/><use href="#b" x="91.25" y="18.75" fill="#ff0"/><use href="#b" x="91.25" y="28.75" fill="#ff0"/><use href="#c" x="50" y="67.5" fill="#ff0"/><use href="#c" x="42.5" y="70" fill="#fff"/><use href="#c" x="57.5" y="70" fill="green"/><use href="#c" x="50" y="72.5" fill="#fff"/><path fill="none" stroke-width="0.5" stroke="#000" stroke-linejoin="round" d="M50,30v20l15,-5v-20zl-15,-5v20l15,5m15,-25l-15,-5l-15,5m7.5,-2.5l15,5v20 m0,-25l-15,5v20m22.5,-12.5l-15,5l-15,-5m-30,-20v20l15,-5v-20zm7.5,-2.5v20m7.5,-12.5l-15,5 m90,-10l-15,-5v20l15,5zm-7.5,-2.5v20m-7.5,-12.5l15,5m-60,45l15,-5l15,5l-15,5zl7.5,-2.5l15,5m0,-5l-15,5" /><path d="M0.5,20L0.5,28.857778L-0.5,28.857778 L1,31L2.5,28.857778L1.5,28.857778 L1.5,20A 0.5 0.5 0 0 0 0.5 20Z" fill="#008800" stroke="#008800"/><path d="M68.5,30L68.5,38.857778L67.5,38.857778 L69,41L70.5,38.857778L69.5,38.857778 L69.5,30A 0.5 0.5 0 0 0 68.5 30Z" fill="#008800" stroke="#008800"/><path d="M30.5,30L30.5,38.857778L29.5,38.857778 L31,41L32.5,38.857778L31.5,38.857778 L31.5,30A 0.5 0.5 0 0 0 30.5 30Z" fill="#880000" stroke="#880000"/><path d="M98.5,20L98.5,28.857778L97.5,28.857778 L99,31L100.5,28.857778L99.5,28.857778 L99.5,20A 0.5 0.5 0 0 0 98.5 20Z" fill="#880000" stroke="#880000"/><path d="M45.81206398885688,52.07697505292423L37.587770711225815,49.33554396038054L37.90399847724265,48.38686066233002 L35.39736659610103,49.132455532033674L36.95531517919214,51.23291055648157L37.27154294520898,50.28422725843105 L45.49583622284004,53.025658350974744A 0.5 0.5 0 0 0 45.81206398885688 52.07697505292423Z" fill="#880000" stroke="#880000"/><path d="M36.50416377715996,21.02565835097474L44.72845705479102,18.284227258431052L45.04468482080786,19.232910556481567 L46.60263340389897,17.132455532033674L44.09600152275735,16.386860662330026L44.412229288774185,17.33554396038054 L36.18793601114312,20.07697505292423A 0.5 0.5 0 0 0 36.50416377715996 21.02565835097474Z" fill="#880000" stroke="#880000"/><path d="M93.81206398885688,10.07697505292423L85.58777071122582,7.335543960380542L85.90399847724265,6.386860662330028 L83.39736659610102,7.132455532033676L84.95531517919213,9.232910556481569L85.27154294520896,8.284227258431056 L93.49583622284003,11.025658350974744A 0.5 0.5 0 0 0 93.81206398885688 10.07697505292423Z" fill="#880000" stroke="#880000"/><path d="M54.50416377715996,78.02565835097475L62.72845705479103,75.28422725843106L63.044684820807866,76.23291055648157 L64.60263340389898,74.13245553203367L62.096001522757355,73.38686066233002L62.41222928877419,74.33554396038053 L54.18793601114312,77.07697505292423A 0.5 0.5 0 0 0 54.50416377715996 78.02565835097475Z" fill="#880000" stroke="#880000"/><path d="M6.50416377715996,11.025658350974744L14.728457054791026,8.284227258431056L15.044684820807865,9.232910556481569 L16.602633403898974,7.132455532033676L14.09600152275735,6.386860662330028L14.412229288774189,7.335543960380542 L6.1879360111431225,10.07697505292423A 0.5 0.5 0 0 0 6.50416377715996 11.025658350974744Z" fill="#880000" stroke="#880000"/><path d="M63.81206398885688,20.07697505292423L55.587770711225815,17.33554396038054L55.90399847724265,16.386860662330026 L53.39736659610103,17.132455532033674L54.95531517919214,19.232910556481567L55.27154294520898,18.284227258431052 L63.49583622284004,21.02565835097474A 0.5 0.5 0 0 0 63.81206398885688 20.07697505292423Z" fill="#880000" stroke="#880000"/><path d="M54.50416377715996,53.025658350974744L62.72845705479103,50.28422725843105L63.044684820807866,51.23291055648157 L64.60263340389898,49.132455532033674L62.096001522757355,48.38686066233002L62.41222928877419,49.33554396038054 L54.18793601114312,52.07697505292423A 0.5 0.5 0 0 0 54.50416377715996 53.025658350974744Z" fill="#880000" stroke="#880000"/><path d="M45.81206398885688,77.07697505292423L37.587770711225815,74.33554396038053L37.90399847724265,73.38686066233002 L35.39736659610103,74.13245553203367L36.95531517919214,76.23291055648157L37.27154294520898,75.28422725843106 L45.49583622284004,78.02565835097475A 0.5 0.5 0 0 0 45.81206398885688 77.07697505292423Z" fill="#880000" stroke="#880000"/></svg>