<?xml version="1.0" encoding="utf-8"?><svg version="1.1" xmlns="http://www.w3.org/2000/svg" viewBox="0 0 40 40"><defs><radialGradient id="rg1"><stop offset="0%" stop-color="#dcdcdc" /><stop offset="100%" stop-color="#909090" /></radialGradient><linearGradient id="g" gradientTransform="rotate(90)" gradientUnits="objectBoundingBox"><stop offset="0%" stop-color="#ff0000" /><stop offset="20%" stop-color="rgba(255, 154, 0, 1)" /><stop offset="40%" stop-color="#ffff00" /><stop offset="65%" stop-color="rgba(79, 220, 74, 1)" /><stop offset="70%" stop-color="rgba(47, 201, 226, 1)" /><stop offset="85%" stop-color="rgba(28, 127, 238, 1)" /><stop offset="100%" stop-color="rgba(95, 21, 242, 1)" /></linearGradient><linearGradient id="f" gradientTransform="rotate(90)" gradientUnits="objectBoundingBox"><stop offset="0%" stop-color="#ff0000" /><stop offset="20%" stop-color="rgba(255, 154, 0, 1)" /><stop offset="40%" stop-color="#ffff00" /><stop offset="65%" stop-color="rgba(79, 220, 74, 1)" /><stop offset="70%" stop-color="rgba(47, 201, 226, 1)" /><stop offset="85%" stop-color="rgba(28, 127, 238, 1)" /><stop offset="100%" stop-color="rgba(95, 21, 242, 1)" /></linearGradient><g transform="scale(0.0625)" id="bc"><path d="M0,0h160v160h-160z" fill="#000" /><circle cx="80" cy="80" r="60" fill="url(#g)" /></g><g transform="scale(0.0625)" id="bd"><path d="M0,0h160v160h-160z" fill="#000" /><path d="M80,10L150,80L80,150L10,80z" fill="url(#f)" /></g><g transform="scale(0.0625)" id="wc"><path d="M0,0h160v160h-160z" fill="#fff" /><circle cx="80" cy="80" r="60" fill="url(#g)" /></g><g transform="scale(0.0625)" id="wd"><path d="M0,0h160v160h-160z" fill="#fff" /><path d="M80,10L150,80L80,150L10,80z" fill="url(#f)" /></g><path id="h" d="M-5,-5h10v10h-10z" stroke-linejoin="round" fill="url(#rg1)" /></defs><path d="M0,0h40v40h-40z" fill="#909090" /><use href="#h" x="5" y="5" /><use href="#h" x="15" y="5" /><use href="#h" x="25" y="5" /><use href="#h" x="35" y="5" /><use href="#h" x="5" y="15" /><use href="#h" x="15" y="15" /><use href="#h" x="25" y="15" /><use href="#h" x="35" y="15" /><use href="#h" x="5" y="25" /><use href="#h" x="15" y="25" /><use href="#h" x="25" y="25" /><use href="#h" x="35" y="25" /><use href="#h" x="5" y="35" /><use href="#h" x="15" y="35" /><use href="#h" x="25" y="35" /><use href="#h" x="35" y="35" /><g transform="scale(0.4)"><path d="M61.25,65.5L61.25,80.144445L58.75,80.144445 L62.5,85.5L66.25,80.144445L63.75,80.144445 L63.75,65.5A 1.25 1.25 0 0 0 61.25 65.5Z" fill="#008800" stroke="#008800"/><path d="M59.5,61.25L44.855555,61.25L44.855555,58.75 L39.5,62.5L44.855555,66.25L44.855555,63.75 L59.5,63.75A 1.25 1.25 0 0 0 59.5 61.25Z" fill="#ffff00" stroke="#ffff00"/><path d="M11.25,65.5L11.25,80.144445L8.75,80.144445 L12.5,85.5L16.25,80.144445L13.75,80.144445 L13.75,65.5A 1.25 1.25 0 0 0 11.25 65.5Z" fill="#ffff00" stroke="#ffff00"/><path d="M34.5,11.25L19.855555,11.25L19.855555,8.75 L14.5,12.5L19.855555,16.25L19.855555,13.75 L34.5,13.75A 1.25 1.25 0 0 0 34.5 11.25Z" fill="#ffff00" stroke="#ffff00"/><path d="M65.5,38.75L80.144445,38.75L80.144445,41.25 L85.5,37.5L80.144445,33.75L80.144445,36.25 L65.5,36.25A 1.25 1.25 0 0 0 65.5 38.75Z" fill="#880000" stroke="#880000"/><path d="M15.5,63.75L30.144445,63.75L30.144445,66.25 L35.5,62.5L30.144445,58.75L30.144445,61.25 L15.5,61.25A 1.25 1.25 0 0 0 15.5 63.75Z" fill="#880000" stroke="#880000" opacity="0.75"/><path d="M59.5,36.25L44.855555,36.25L44.855555,33.75 L39.5,37.5L44.855555,41.25L44.855555,38.75 L59.5,38.75A 1.25 1.25 0 0 0 59.5 36.25Z" fill="#880000" stroke="#880000" opacity="0.75"/><path d="M86.25,15.5L86.25,30.144445L83.75,30.144445 L87.5,35.5L91.25,30.144445L88.75,30.144445 L88.75,15.5A 1.25 1.25 0 0 0 86.25 15.5Z" fill="#880000" stroke="#880000" opacity="0.5"/><path d="M36.25,15.5L36.25,30.144445L33.75,30.144445 L37.5,35.5L41.25,30.144445L38.75,30.144445 L38.75,15.5A 1.25 1.25 0 0 0 36.25 15.5Z" fill="#880000" stroke="#880000" opacity="0.5"/></g><use href="#bc" x="10"/><use href="#wd" x="20"/><use href="#bc" x="30"/><use href="#bd" y="10"/><use href="#wc" x="20" y="10"/><use href="#wc" x="0" y="20"/><use href="#wc" x="20" y="20"/><use href="#bd" x="30" y="20"/><use href="#bd" x="10" y="30"/></svg>