<?xml version="1.0" encoding="utf-8"?><svg version="1.1" xmlns="http://www.w3.org/2000/svg" viewBox="0 0 75.25 75.25"><path d="M0,0h75.25v75.25h-75.25z" fill="#000" /><path d="M0.5,0.5h74.25v74.25h-74.25z" fill="#f2e3a5" /><path d="M12.875,0.5v74.25m12.375,-74.25v74.25m12.375,-74.25v74.25m12.375,-74.25v74.25m12.375,-74.25v74.25M0.5,12.875h74.25m-74.25,12.375h74.25m-74.25,12.375h74.25m-74.25,12.375h74.25m-74.25,12.375h74.25" stroke="#888" stroke-width="0.2" /><g stroke-width="0.37125" stroke="#000" fill="#f1944f"><rect x="1.7375" y="1.7375" width="34.65" height="9.9" rx="2.475" /><rect x="38.8625" y="1.7375" width="22.275" height="9.9" rx="2.475" /><rect x="26.4875" y="14.1125" width="9.9" height="22.275" rx="2.475" /><rect x="38.8625" y="14.1125" width="9.9" height="22.275" rx="2.475" /><rect x="51.2375" y="14.1125" width="22.275" height="9.9" rx="2.475" /><rect x="63.6125" y="26.4875" width="9.9" height="22.275" rx="2.475" /><rect x="14.1125" y="38.8625" width="22.275" height="9.9" rx="2.475" /><rect x="38.8625" y="38.8625" width="22.275" height="9.9" rx="2.475" /><rect x="14.1125" y="51.2375" width="22.275" height="9.9" rx="2.475" /><rect x="1.7375" y="63.6125" width="22.275" height="9.9" rx="2.475" /><rect x="51.2375" y="51.2375" width="9.9" height="22.275" rx="2.475" /><rect x="51.2375" y="51.2375" width="9.9" height="22.275" rx="2.475" /><rect x="1.7375" y="38.8625" width="9.9" height="22.275" rx="2.475" /></g><rect x="1.7375" y="26.4875" width="22.275" height="9.9" rx="2.475" stroke-width="0.37125" stroke="#000" fill="#e42b32" /><g stroke="#008000" fill="#008000"><path d="M68.0625,46.8125L68.0625,64.420278L67.0625,64.420278 L68.5625,66.5625L70.0625,64.420278L69.0625,64.420278 L69.0625,46.8125A 0.5 0.5 0 0 0 68.0625 46.8125Z" /><path d="M22.0625,69.0625L39.670278,69.0625L39.670278,70.0625 L41.8125,68.5625L39.670278,67.0625L39.670278,68.0625 L22.0625,68.0625A 0.5 0.5 0 0 0 22.0625 69.0625Z" /><path d="M59.1875,7.1875L64.420278,7.1875L64.420278,8.1875 L66.5625,6.6875L64.420278,5.1875L64.420278,6.1875 L59.1875,6.1875A 0.5 0.5 0 0 0 59.1875 7.1875Z" /><path d="M22.0625,69.0625L27.295278,69.0625L27.295278,70.0625 L29.4375,68.5625L27.295278,67.0625L27.295278,68.0625 L22.0625,68.0625A 0.5 0.5 0 0 0 22.0625 69.0625Z" /></g><g stroke="#ffff00" fill="#ffff00"><path d="M68.0625,46.8125L68.0625,52.045278L67.0625,52.045278 L68.5625,54.1875L70.0625,52.045278L69.0625,52.045278 L69.0625,46.8125A 0.5 0.5 0 0 0 68.0625 46.8125Z" /><path d="M34.4375,56.6875L39.670278,56.6875L39.670278,57.6875 L41.8125,56.1875L39.670278,54.6875L39.670278,55.6875 L34.4375,55.6875A 0.5 0.5 0 0 0 34.4375 56.6875Z" /></g></svg>