<?xml version="1.0" encoding="utf-8"?><svg version="1.1" xmlns="http://www.w3.org/2000/svg" viewBox="0 0 300 300"><defs><circle id="b" r="16" fill="#00f" /><circle id="r" r="16" fill="#f00" /></defs><use href="#b" x="150" y="75"/><use href="#b" x="125" y="100"/><use href="#b" x="100" y="125"/><use href="#r" x="75" y="150"/><use href="#b" x="50" y="175"/><use href="#r" x="175" y="100"/><use href="#r" x="150" y="125"/><use href="#r" x="125" y="150"/><use href="#b" x="100" y="175"/><use href="#b" x="75" y="200"/><use href="#b" x="200" y="125"/><use href="#r" x="175" y="150"/><use href="#r" x="150" y="175"/><use href="#b" x="125" y="200"/><use href="#r" x="100" y="225"/><use href="#r" x="225" y="150"/><use href="#r" x="200" y="175"/><use href="#b" x="175" y="200"/><use href="#r" x="250" y="175"/><use href="#r" x="225" y="200"/><use href="#r" x="200" y="225"/><use href="#b" x="175" y="250"/><path fill="gray" fill-rule="evenodd" d="M150 50L275 175L150 300L25 175ZM135 275 a 15,15 0 1,0 30,0 a 15,15 0 1,0 -30,0M160 250 a 15,15 0 1,0 30,0 a 15,15 0 1,0 -30,0M185 225 a 15,15 0 1,0 30,0 a 15,15 0 1,0 -30,0M210 200 a 15,15 0 1,0 30,0 a 15,15 0 1,0 -30,0M235 175 a 15,15 0 1,0 30,0 a 15,15 0 1,0 -30,0M110 250 a 15,15 0 1,0 30,0 a 15,15 0 1,0 -30,0M135 225 a 15,15 0 1,0 30,0 a 15,15 0 1,0 -30,0M160 200 a 15,15 0 1,0 30,0 a 15,15 0 1,0 -30,0M185 175 a 15,15 0 1,0 30,0 a 15,15 0 1,0 -30,0M210 150 a 15,15 0 1,0 30,0 a 15,15 0 1,0 -30,0M85 225 a 15,15 0 1,0 30,0 a 15,15 0 1,0 -30,0M110 200 a 15,15 0 1,0 30,0 a 15,15 0 1,0 -30,0M135 175 a 15,15 0 1,0 30,0 a 15,15 0 1,0 -30,0M160 150 a 15,15 0 1,0 30,0 a 15,15 0 1,0 -30,0M185 125 a 15,15 0 1,0 30,0 a 15,15 0 1,0 -30,0M60 200 a 15,15 0 1,0 30,0 a 15,15 0 1,0 -30,0M85 175 a 15,15 0 1,0 30,0 a 15,15 0 1,0 -30,0M110 150 a 15,15 0 1,0 30,0 a 15,15 0 1,0 -30,0M135 125 a 15,15 0 1,0 30,0 a 15,15 0 1,0 -30,0M160 100 a 15,15 0 1,0 30,0 a 15,15 0 1,0 -30,0M35 175 a 15,15 0 1,0 30,0 a 15,15 0 1,0 -30,0M60 150 a 15,15 0 1,0 30,0 a 15,15 0 1,0 -30,0M85 125 a 15,15 0 1,0 30,0 a 15,15 0 1,0 -30,0M110 100 a 15,15 0 1,0 30,0 a 15,15 0 1,0 -30,0M135 75 a 15,15 0 1,0 30,0 a 15,15 0 1,0 -30,0" /><g transform="scale(3)"><path d="M3.1987313592375193,46.043909327881764L7.138564614959769,49.98374258360401L5.96005331298219,51.16225388558159 L10.252453104293572,51.919119770960236L9.495587218914928,47.626719979648854L8.317075916937348,48.80523128162643 L4.3772426612150985,44.865398025904184A 0.8333333333333333 0.8333333333333333 0 0 0 3.1987313592375193 46.043909327881764Z" fill="#008800" stroke="#008800"/><path d="M19.865398025904184,29.377242661215096L23.805231281626433,33.31707591693735L22.626719979648854,34.49558721891493 L26.919119770960236,35.25245310429357L26.162253885581592,30.96005331298219L24.983742583604013,32.13856461495977 L21.043909327881764,28.198731359237517A 0.8333333333333333 0.8333333333333333 0 0 0 19.865398025904184 29.377242661215096Z" fill="#008800" stroke="#008800" opacity="0.75"/><path d="M28.198731359237517,21.043909327881764L32.13856461495977,24.983742583604013L30.96005331298219,26.162253885581592 L35.25245310429357,26.919119770960236L34.49558721891493,22.626719979648854L33.31707591693735,23.805231281626433 L29.377242661215096,19.865398025904184A 0.8333333333333333 0.8333333333333333 0 0 0 28.198731359237517 21.043909327881764Z" fill="#008800" stroke="#008800" opacity="0.5"/><path d="M36.532064692570856,12.710575994548432L40.471897948293105,16.65040925027068L39.293386646315525,17.82892055224826 L43.58578643762691,18.585786437626904L42.82892055224826,14.293386646315522L41.650409250270684,15.471897948293101 L37.710575994548435,11.532064692570852A 0.8333333333333333 0.8333333333333333 0 0 0 36.532064692570856 12.710575994548432Z" fill="#ffff00" stroke="#ffff00"/><path d="M95.6227573387849,44.865398025904184L91.68292408306264,48.80523128162643L90.50441278108507,47.626719979648854 L89.74754689570642,51.919119770960236L94.0399466870178,51.16225388558159L92.86143538504022,49.98374258360401 L96.80126864076247,46.043909327881764A 0.8333333333333333 0.8333333333333333 0 0 0 95.6227573387849 44.865398025904184Z" fill="#880000" stroke="#880000"/><path d="M87.28942400545156,36.532064692570856L83.34959074972932,40.471897948293105L82.17107944775174,39.293386646315525 L81.41421356237309,43.58578643762691L85.70661335368447,42.82892055224826L84.5281020517069,41.650409250270684 L88.46793530742914,37.710575994548435A 0.8333333333333333 0.8333333333333333 0 0 0 87.28942400545156 36.532064692570856Z" fill="#880000" stroke="#880000"/><path d="M78.95609067211822,28.198731359237517L75.01625741639597,32.13856461495977L73.8377461144184,30.96005331298219 L73.08088022903975,35.25245310429357L77.37328002035113,34.49558721891493L76.19476871837355,33.31707591693735 L80.1346019740958,29.377242661215096A 0.8333333333333333 0.8333333333333333 0 0 0 78.95609067211822 28.198731359237517Z" fill="#880000" stroke="#880000"/><path d="M70.6227573387849,19.865398025904184L66.68292408306264,23.805231281626433L65.50441278108507,22.626719979648854 L64.74754689570642,26.919119770960236L69.0399466870178,26.162253885581592L67.86143538504022,24.983742583604013 L71.80126864076247,21.043909327881764A 0.8333333333333333 0.8333333333333333 0 0 0 70.6227573387849 19.865398025904184Z" fill="#880000" stroke="#880000"/><path d="M62.289424005451565,11.532064692570852L58.349590749729316,15.471897948293101L57.17107944775174,14.293386646315522 L56.41421356237309,18.585786437626904L60.706613353684475,17.82892055224826L59.528102051706895,16.65040925027068 L63.467935307429144,12.710575994548432A 0.8333333333333333 0.8333333333333333 0 0 0 62.289424005451565 11.532064692570852Z" fill="#880000" stroke="#880000"/><path d="M11.532064692570852,37.710575994548435L15.471897948293101,41.650409250270684L14.293386646315522,42.82892055224826 L18.585786437626904,43.58578643762691L17.82892055224826,39.293386646315525L16.65040925027068,40.471897948293105 L12.710575994548432,36.532064692570856A 0.8333333333333333 0.8333333333333333 0 0 0 11.532064692570852 37.710575994548435Z" fill="#880000" stroke="#880000"/></g></svg>