<svg version="1.1" viewBox="0.0 0.0 768.0 768.0" fill="none" stroke="none" stroke-linecap="square" stroke-miterlimit="10" xmlns:xlink="http://www.w3.org/1999/xlink" xmlns="http://www.w3.org/2000/svg"><clipPath id="p.0"><path d="m0 0l768.0 0l0 768.0l-768.0 0l0 -768.0z" clip-rule="nonzero"/></clipPath><g clip-path="url(#p.0)"><path fill="#000000" fill-opacity="0.0" d="m0 0l768.0 0l0 768.0l-768.0 0z" fill-rule="evenodd"/><path fill="#adc178" d="m192.29134 0l0 192.28346l-192.28346 0l0 -192.28346z" fill-rule="evenodd"/><path fill="#dde5b6" d="m384.5748 0l0 192.28346l-192.28346 0l0 -192.28346z" fill-rule="evenodd"/><path fill="#dde5b6" d="m192.29134 192.28346l0 192.28346l-192.28346 0l0 -192.28346z" fill-rule="evenodd"/><path fill="#adc178" d="m384.5748 192.28346l0 192.28346l-192.28346 0l0 -192.28346z" fill-rule="evenodd"/><path fill="#adc178" d="m192.29134 384.56693l0 192.28348l-192.28346 0l0 -192.28348z" fill-rule="evenodd"/><path fill="#dde5b6" d="m384.5748 384.56693l0 192.28348l-192.28346 0l0 -192.28348z" fill-rule="evenodd"/><path fill="#dde5b6" d="m192.29134 576.8504l0 192.28345l-192.28346 0l0 -192.28345z" fill-rule="evenodd"/><path fill="#adc178" d="m384.5748 576.8504l0 192.28345l-192.28346 0l0 -192.28345z" fill-rule="evenodd"/><path fill="#adc178" d="m576.8583 0l0 192.28346l-192.28348 0l0 -192.28346z" fill-rule="evenodd"/><path fill="#dde5b6" d="m769.1417 0l0 192.28346l-192.28345 0l0 -192.28346z" fill-rule="evenodd"/><path fill="#dde5b6" d="m576.8583 192.28346l0 192.28346l-192.28348 0l0 -192.28346z" fill-rule="evenodd"/><path fill="#adc178" d="m769.1417 192.28346l0 192.28346l-192.28345 0l0 -192.28346z" fill-rule="evenodd"/><path fill="#adc178" d="m576.8583 384.56693l0 192.28348l-192.28348 0l0 -192.28348z" fill-rule="evenodd"/><path fill="#dde5b6" d="m769.1417 384.56693l0 192.28348l-192.28345 0l0 -192.28348z" fill-rule="evenodd"/><path fill="#dde5b6" d="m576.8583 576.8504l0 192.28345l-192.28348 0l0 -192.28345z" fill-rule="evenodd"/><path fill="#adc178" d="m769.1417 576.8504l0 192.28345l-192.28345 0l0 -192.28345z" fill-rule="evenodd"/><path fill="#595e3f" d="m10.149607 672.979c0 -45.88745 38.50351 -83.08661 86.0 -83.08661c22.808617 0 44.683052 8.753723 60.81118 24.33551c16.128128 15.581726 25.188828 36.71515 25.188828 58.7511c0 45.88745 -38.503525 83.08661 -86.00001 83.08661c-47.496487 0 -86.0 -37.199158 -86.0 -83.08661z" fill-rule="evenodd"/><path stroke="#595e3f" stroke-width="1.0" stroke-linejoin="round" stroke-linecap="butt" d="m10.149607 672.979c0 -45.88745 38.50351 -83.08661 86.0 -83.08661c22.808617 0 44.683052 8.753723 60.81118 24.33551c16.128128 15.581726 25.188828 36.71515 25.188828 58.7511c0 45.88745 -38.503525 83.08661 -86.00001 83.08661c-47.496487 0 -86.0 -37.199158 -86.0 -83.08661z" fill-rule="evenodd"/><path fill="#000000" d="m12.223097 682.8924c0 -40.425537 37.445915 -73.19684 83.637794 -73.19684c46.19187 0 83.637794 32.7713 83.637794 73.19684c0 40.425476 -37.445923 73.19684 -83.637794 73.19684c-46.19188 0 -83.637794 -32.771362 -83.637794 -73.19684z" fill-rule="evenodd"/><path stroke="#000000" stroke-width="1.0" stroke-linejoin="round" stroke-linecap="butt" d="m12.223097 682.8924c0 -40.425537 37.445915 -73.19684 83.637794 -73.19684c46.19187 0 83.637794 32.7713 83.637794 73.19684c0 40.425476 -37.445923 73.19684 -83.637794 73.19684c-46.19188 0 -83.637794 -32.771362 -83.637794 -73.19684z" fill-rule="evenodd"/><path fill="#f4cccc" d="m222.97475 678.11945l-7.194641 -0.65197754l0.63661194 -1.7727051l-7.292511 0.72875977l0.52601624 -1.8695679l-10.665131 -0.5437012l12.225967 -4.2109985l-0.73931885 2.1976929l7.6891937 -2.5351562l-0.6898804 2.7173462l8.097488 -2.6951294z" fill-rule="evenodd"/><path stroke="#f4cccc" stroke-width="1.0" stroke-linejoin="round" stroke-linecap="butt" d="m222.97475 678.11945l-7.194641 -0.65197754l0.63661194 -1.7727051l-7.292511 0.72875977l0.52601624 -1.8695679l-10.665131 -0.5437012l12.225967 -4.2109985l-0.73931885 2.1976929l7.6891937 -2.5351562l-0.6898804 2.7173462l8.097488 -2.6951294z" fill-rule="evenodd"/><path fill="#073763" d="m280.3071 607.35693l-63.68506 39.46881l0 52.30652l63.68506 39.46881z" fill-rule="evenodd"/><path fill="#073763" d="m325.43307 602.14435l-39.55905 4.5512695l0 132.56677l39.55905 4.5512695z" fill-rule="evenodd"/><path stroke="#073763" stroke-width="1.0" stroke-linejoin="round" stroke-linecap="butt" d="m325.43307 602.14435l-39.55905 4.5512695l0 132.56677l39.55905 4.5512695z" fill-rule="evenodd"/><path fill="#073763" d="m384.57425 727.96326l-32.692932 0l0 -109.98425l32.692932 0z" fill-rule="evenodd"/><path stroke="#073763" stroke-width="1.0" stroke-linejoin="round" stroke-linecap="butt" d="m384.57425 727.96326l-32.692932 0l0 -109.98425l32.692932 0z" fill-rule="evenodd"/><path fill="#073763" d="m579.7874 728.9921l-195.77954 0l0 -112.0l195.77954 0z" fill-rule="evenodd"/><path fill="#f1c232" d="m325.53018 602.3517l42.173218 14.780457l0 111.698975l-42.173218 14.780457z" fill-rule="evenodd"/><path fill="#f1c232" d="m576.8583 617.1365l103.212585 0l0 112.0l-103.212585 0z" fill-rule="evenodd"/><path fill="#f1c232" d="m617.2398 663.2479l0 -86.11023l112.0 0l0 86.11023z" fill-rule="evenodd"/><path fill="#f1c232" d="m683.3028 728.62585l-5.952759 0c-12.183228 0 -23.867493 -4.8397827 -32.48236 -13.454651c-8.614868 -8.614807 -13.454651 -20.299072 -13.454651 -32.48236l0 -45.93701c0 -4.272461E-4 3.6621094E-4 -7.9345703E-4 7.9345703E-4 -7.9345703E-4l97.82599 7.9345703E-4c4.272461E-4 0 7.9345703E-4 3.6621094E-4 7.9345703E-4 8.544922E-4l-7.9345703E-4 45.936157c0 25.3703 -20.566711 45.93701 -45.93701 45.93701z" fill-rule="evenodd"/><path fill="#073763" d="m617.23883 615.2861l0 -38.425232l112.0 0l0 38.425232z" fill-rule="evenodd"/><path fill="#073763" d="m667.06396 714.1928l-49.68506 -48.53546l0 -48.5354l99.370056 97.07086z" fill-rule="evenodd"/><path fill="#073763" d="m644.2582 647.9772l-0.2677002 56.409485l-28.157532 25.007874l0.5354614 -112.81891z" fill-rule="evenodd"/><path fill="#073763" d="m661.46027 723.02747l-41.496033 -47.24414l0 -47.24408l82.99213 94.48822z" fill-rule="evenodd"/><path stroke="#073763" stroke-width="1.0" stroke-linejoin="round" stroke-linecap="butt" d="m661.46027 723.02747l-41.496033 -47.24414l0 -47.24408l82.99213 94.48822z" fill-rule="evenodd"/><path fill="#073763" d="m631.40955 712.1272l34.33069 -0.07873535l19.307068 16.960632l-68.66138 0.1574707z" fill-rule="evenodd"/><path fill="#073763" d="m641.61743 695.8227l35.149597 0.06304932l19.84253 17.433044l-70.299194 -0.12597656z" fill-rule="evenodd"/><path stroke="#073763" stroke-width="1.0" stroke-linejoin="round" stroke-linecap="butt" d="m641.61743 695.8227l35.149597 0.06304932l19.84253 17.433044l-70.299194 -0.12597656z" fill-rule="evenodd"/><path fill="#073763" d="m716.7331 714.2044c-7.6220703 8.917419 -21.438538 14.305359 -33.838684 13.195801c-12.400085 -1.1095581 -20.370056 -8.446838 -19.519531 -17.970154c0.85046387 -9.523376 10.314697 -18.91803 23.17926 -23.009094z" fill-rule="evenodd"/><path fill="#f1c232" d="m280.24933 607.34906l-21.921234 13.585693l0 104.07269l21.921234 13.585754z" fill-rule="evenodd"/><path stroke="#f1c232" stroke-width="1.0" stroke-linejoin="round" stroke-linecap="butt" d="m280.24933 607.34906l-21.921234 13.585693l0 104.07269l21.921234 13.585754z" fill-rule="evenodd"/><path fill="#f1c232" d="m576.8583 616.98425l40.503906 0l0 112.188965l-40.503906 0z" fill-rule="evenodd"/><path fill="#073763" d="m712.77203 718.0734c-7.9713135 6.2524414 -19.318726 10.593811 -28.452698 10.885681c-9.133972 0.29187012 -14.128418 -3.5273438 -12.523132 -9.576416c1.6052246 -6.049011 9.47168 -13.052246 19.724426 -17.559998z" fill-rule="evenodd"/><path fill="#073763" d="m729.0 350.04462l0 234.74017l-112.0 0l0 -234.74017z" fill-rule="evenodd"/><path fill="#f1c232" d="m617.0 349.88452l56.0 -70.55118l56.0 70.55118z" fill-rule="evenodd"/><path fill="#f1c232" d="m497.74802 616.87665l40.503937 0l0 112.188965l-40.503937 0z" fill-rule="evenodd"/><path fill="#f1c232" d="m420.91077 616.87665l40.503937 0l0 112.188965l-40.503937 0z" fill-rule="evenodd"/><path fill="#f1c232" d="m344.0735 617.042l40.503937 0l0 112.188965l-40.503937 0z" fill-rule="evenodd"/><path fill="#073763" d="m325.042 602.0735l18.803162 6.589966l0 128.64685l-18.803162 6.589966z" fill-rule="evenodd"/><path stroke="#073763" stroke-width="1.0" stroke-linejoin="round" stroke-linecap="butt" d="m325.042 602.0735l18.803162 6.589966l0 128.64685l-18.803162 6.589966z" fill-rule="evenodd"/><path fill="#f1c232" d="m303.6824 604.7507l-23.559052 2.6159668l0 131.20898l23.559052 2.6159668z" fill-rule="evenodd"/><path stroke="#f1c232" stroke-width="1.0" stroke-linejoin="round" stroke-linecap="butt" d="m303.6824 604.7507l-23.559052 2.6159668l0 131.20898l23.559052 2.6159668z" fill-rule="evenodd"/><path fill="#f3f3f3" d="m282.05692 706.0044l-30.86615 0l30.86615 22.236267z" fill-rule="evenodd"/><path stroke="#f3f3f3" stroke-width="1.0" stroke-linejoin="round" stroke-linecap="butt" d="m282.05692 706.0044l-30.86615 0l30.86615 22.236267z" fill-rule="evenodd"/><path fill="#000000" d="m273.06824 722.4514l9.39444 -16.943787l-13.331451 14.140625z" fill-rule="evenodd"/><path fill="#f3f3f3" d="m282.05692 641.3404l-30.86615 0l30.86615 -22.236206z" fill-rule="evenodd"/><path stroke="#f3f3f3" stroke-width="1.0" stroke-linejoin="round" stroke-linecap="butt" d="m282.05692 641.3404l-30.86615 0l30.86615 -22.236206z" fill-rule="evenodd"/><path fill="#000000" d="m273.09973 624.88196l9.205475 16.691833l-13.142487 -13.888672z" fill-rule="evenodd"/><path fill="#f1c232" d="m617.0 577.1365l0 -38.425232l112.0 0l0 38.425232z" fill-rule="evenodd"/><path fill="#f1c232" d="m617.0 423.64172l0 -38.4252l112.0 0l0 38.4252z" fill-rule="evenodd"/><path fill="#f1c232" d="m617.0 500.38843l0 -38.4252l112.0 0l0 38.4252z" fill-rule="evenodd"/><path fill="#f4cccc" d="m293.57434 541.74884l-0.651947 7.194641l-1.7727051 -0.6366577l0.72872925 7.2925415l-1.8695374 -0.526001l-0.5437012 10.6651l-4.2110596 -12.225952l2.1977234 0.73931885l-2.5351562 -7.689209l2.7173462 0.6898804l-2.6951294 -8.097473z" fill-rule="evenodd"/><path stroke="#f4cccc" stroke-width="1.0" stroke-linejoin="round" stroke-linecap="butt" d="m293.57434 541.74884l-0.651947 7.194641l-1.7727051 -0.6366577l0.72872925 7.2925415l-1.8695374 -0.526001l-0.5437012 10.6651l-4.2110596 -12.225952l2.1977234 0.73931885l-2.5351562 -7.689209l2.7173462 0.6898804l-2.6951294 -8.097473z" fill-rule="evenodd"/></g></svg>