<svg version="1.1" id="Layer_1" xmlns="http://www.w3.org/2000/svg" xmlns:xlink="http://www.w3.org/1999/xlink" x="0px" y="0px"
	 width="100%" viewBox="0 0 898 892" enable-background="new 0 0 898 892" xml:space="preserve">
<path fill="#FFFEFE" opacity="1.000000" stroke="none" 
	d="
M1.000000,236.000000 
	C1.000000,157.333328 1.000000,79.166664 1.000000,1.000000 
	C300.333344,1.000000 599.666687,1.000000 899.000000,1.000000 
	C899.000000,298.333344 899.000000,595.666687 899.000000,893.000000 
	C599.666687,893.000000 300.333344,893.000000 1.000000,893.000000 
	C1.000000,674.166687 1.000000,455.333344 1.000000,236.000000 
M14.473955,228.624603 
	C14.418187,229.286530 14.313649,229.948441 14.313574,230.610367 
	C14.305532,301.207306 14.302503,371.804260 14.326636,442.401215 
	C14.327081,443.702972 14.656312,445.004608 14.856983,447.204773 
	C14.886261,519.783936 14.915538,592.363037 14.472813,665.622437 
	C14.416167,667.116699 14.310143,668.611023 14.309968,670.105286 
	C14.301813,739.364563 14.357417,808.623962 14.189594,877.882874 
	C14.177409,882.911011 15.851039,883.802979 20.444151,883.793701 
	C89.536667,883.654358 158.629547,883.701965 227.722321,883.670288 
	C229.500336,883.669495 231.278152,883.268982 233.984787,883.067505 
	C298.240112,883.067505 362.495422,883.062256 426.750732,883.073975 
	C435.072418,883.075500 443.394104,883.164856 452.498932,883.551941 
	C453.162079,883.598877 453.825195,883.686951 454.488342,883.687012 
	C525.065796,883.694153 595.643311,883.697937 666.220764,883.668701 
	C667.499084,883.668152 668.777283,883.267761 670.984314,883.067139 
	C743.187378,883.067139 815.390381,883.067139 888.053955,883.067139 
	C888.053955,809.877197 888.053955,737.466370 888.526001,664.375793 
	C888.581787,663.713867 888.686218,663.051941 888.686279,662.390015 
	C888.694336,591.792908 888.697510,521.195801 888.673401,450.598724 
	C888.672913,449.296967 888.343628,447.995331 888.142944,445.795197 
	C888.118164,443.631775 888.071899,441.468323 888.071594,439.304901 
	C888.062988,368.889404 888.058777,298.473907 888.526245,227.378586 
	C888.583374,225.884338 888.690186,224.390076 888.690369,222.895828 
	C888.698608,153.635864 888.643005,84.375763 888.810913,15.116203 
	C888.823059,10.086950 887.147705,9.196651 882.555481,9.205909 
	C813.462219,9.345191 744.368713,9.297610 675.275208,9.329357 
	C673.497253,9.330173 671.719482,9.731548 669.011658,9.931098 
	C605.424316,9.931257 541.837036,9.937098 478.249725,9.925125 
	C469.262451,9.923432 460.275208,9.834901 450.504059,9.448839 
	C449.840942,9.401640 449.177795,9.313165 448.514679,9.313098 
	C377.936432,9.305963 307.358154,9.302083 236.779907,9.331283 
	C235.501511,9.331811 234.223267,9.732139 232.016068,9.932870 
	C159.812912,9.932870 87.609749,9.932870 14.945979,9.932870 
	C14.945979,83.122986 14.945979,155.533966 14.473955,228.624603 
z"/>
<path fill="#F5C79C" opacity="1.000000" stroke="none" 
	d="
M888.053894,228.058411 
	C888.058777,298.473907 888.062988,368.889404 888.071594,439.304901 
	C888.071899,441.468323 888.118164,443.631775 887.675293,446.293640 
	C814.959656,446.792084 742.711609,446.792084 670.027893,446.792084 
	C670.027893,520.103882 670.027893,592.566345 669.557617,665.018311 
	C596.611145,664.989807 524.134949,664.971741 451.582520,664.987000 
	C451.506195,665.020264 451.343658,665.056274 451.272736,664.586609 
	C451.202057,591.584351 451.202301,519.051697 451.229401,446.447754 
	C451.256256,446.376373 451.519653,446.202332 452.018250,446.197571 
	C524.882019,446.192810 597.247192,446.192810 670.032166,446.192810 
	C670.032166,372.837555 670.032166,300.402710 670.016174,227.983841 
	C670.000183,227.999832 669.968201,228.031845 670.439209,228.021164 
	C743.291504,228.026459 815.672668,228.042435 888.053894,228.058411 
z"/>
<path fill="#BE814D" opacity="1.000000" stroke="none" 
	d="
M233.056061,883.054871 
	C231.278152,883.268982 229.500336,883.669495 227.722321,883.670288 
	C158.629547,883.701965 89.536667,883.654358 20.444151,883.793701 
	C15.851039,883.802979 14.177409,882.911011 14.189594,877.882874 
	C14.357417,808.623962 14.301813,739.364563 14.309968,670.105286 
	C14.310143,668.611023 14.416167,667.116699 15.181467,665.302185 
	C88.269165,664.978577 160.648209,664.975220 233.017227,665.442993 
	C233.023483,738.294434 233.039764,810.674622 233.056061,883.054871 
z"/>
<path fill="#BE804C" opacity="1.000000" stroke="none" 
	d="
M232.944962,9.945919 
	C234.223267,9.732139 235.501511,9.331811 236.779907,9.331283 
	C307.358154,9.302083 377.936432,9.305963 448.514679,9.313098 
	C449.177795,9.313165 449.840942,9.401640 450.855042,10.102682 
	C451.190216,82.192406 451.173584,153.628281 451.167297,225.064163 
	C451.167206,226.059692 451.297272,227.055222 450.855896,228.033279 
	C377.886108,227.999863 305.427032,227.983902 232.983948,227.983948 
	C232.999939,227.999939 233.031921,228.031921 233.020782,227.560867 
	C232.988068,154.708511 232.966522,82.327217 232.944962,9.945919 
z"/>
<path fill="#F5C79C" opacity="1.000000" stroke="none" 
	d="
M451.366608,228.050751 
	C451.297272,227.055222 451.167206,226.059692 451.167297,225.064163 
	C451.173584,153.628281 451.190216,82.192406 451.246979,10.271544 
	C460.275208,9.834901 469.262451,9.923432 478.249725,9.925125 
	C541.837036,9.937098 605.424316,9.931257 669.496704,10.411165 
	C669.977173,83.271439 669.972717,155.651642 669.968201,228.031845 
	C669.968201,228.031845 670.000183,227.999832 669.545044,227.995514 
	C596.612366,227.974426 524.134827,227.957657 451.584656,227.968384 
	C451.511993,227.995880 451.366608,228.050751 451.366608,228.050751 
z"/>
<path fill="#BE804C" opacity="1.000000" stroke="none" 
	d="
M451.658813,664.953735 
	C524.134949,664.971741 596.611145,664.989807 669.542603,665.003052 
	C669.997986,664.998291 669.968079,664.968079 669.979370,665.439087 
	C670.012268,738.291382 670.033875,810.672668 670.055542,883.053894 
	C668.777283,883.267761 667.499084,883.668152 666.220764,883.668701 
	C595.643311,883.697937 525.065796,883.694153 454.488342,883.687012 
	C453.825195,883.686951 453.162079,883.598877 452.147949,882.897705 
	C451.812469,810.642334 451.828583,739.041199 451.835754,667.440002 
	C451.835846,666.611267 451.720367,665.782471 451.658813,664.953735 
z"/>
<path fill="#BE804C" opacity="1.000000" stroke="none" 
	d="
M670.012939,665.013550 
	C670.027893,592.566345 670.027893,520.103882 670.027893,446.792084 
	C742.711609,446.792084 814.959656,446.792084 887.687744,446.742859 
	C888.343628,447.995331 888.672913,449.296967 888.673401,450.598724 
	C888.697510,521.195801 888.694336,591.792908 888.686279,662.390015 
	C888.686218,663.051941 888.581787,663.713867 887.817444,664.695679 
	C814.728638,664.999695 742.348328,664.983887 669.968079,664.968079 
	C669.968079,664.968079 669.997986,664.998291 670.012939,665.013550 
z"/>
<path fill="#F5C79C" opacity="1.000000" stroke="none" 
	d="
M233.027252,664.971863 
	C160.648209,664.975220 88.269165,664.978577 15.417467,664.962036 
	C14.915538,592.363037 14.886261,519.783936 15.324594,446.706329 
	C87.216080,446.191467 158.639954,446.174194 230.063828,446.167297 
	C231.059189,446.167175 232.054550,446.297241 233.022583,446.437073 
	C232.995270,446.507599 232.940033,446.657990 232.960266,447.147705 
	C232.976135,520.102234 232.971756,592.567017 232.982758,665.017334 
	C232.998154,665.002808 233.027252,664.971863 233.027252,664.971863 
z"/>
<path fill="#BE804C" opacity="1.000000" stroke="none" 
	d="
M233.049911,446.366547 
	C232.054550,446.297241 231.059189,446.167175 230.063828,446.167297 
	C158.639954,446.174194 87.216080,446.191467 15.312170,446.257080 
	C14.656312,445.004608 14.327081,443.702972 14.326636,442.401215 
	C14.302503,371.804260 14.305532,301.207306 14.313574,230.610367 
	C14.313649,229.948441 14.418187,229.286530 15.182540,228.304749 
	C88.271393,228.000549 160.651657,228.016235 233.031921,228.031921 
	C233.031921,228.031921 232.999939,227.999939 232.995514,228.455109 
	C233.010681,301.395691 233.030304,373.881134 233.049911,446.366547 
z"/>
<path fill="#BE814D" opacity="1.000000" stroke="none" 
	d="
M670.439209,228.021164 
	C669.972717,155.651642 669.977173,83.271439 669.961670,10.418674 
	C671.719482,9.731548 673.497253,9.330173 675.275208,9.329357 
	C744.368713,9.297610 813.462219,9.345191 882.555481,9.205909 
	C887.147705,9.196651 888.823059,10.086950 888.810913,15.116203 
	C888.643005,84.375763 888.698608,153.635864 888.690369,222.895828 
	C888.690186,224.390076 888.583374,225.884338 888.290039,227.718506 
	C815.672668,228.042435 743.291504,228.026459 670.439209,228.021164 
M806.594849,77.145683 
	C801.018494,60.740467 784.382751,53.388908 767.384521,60.061596 
	C760.436340,62.789127 755.530212,67.840065 752.695190,74.853905 
	C748.264282,85.815872 750.677063,95.864204 757.116760,105.446503 
	C753.137512,107.784004 749.384644,109.642128 746.071777,112.094551 
	C744.620850,113.168610 743.246277,115.469872 743.274231,117.190475 
	C743.338257,121.129852 744.464111,125.038933 744.818542,128.990845 
	C745.090759,132.024918 746.636719,132.981781 749.395691,132.941666 
	C753.506042,132.881851 757.617920,132.926147 762.680420,132.926147 
	C758.478760,146.865097 753.515320,159.204239 740.956726,166.417694 
	C727.460754,174.169571 719.524902,184.915390 720.142578,201.036194 
	C720.273682,204.456299 721.371277,206.174744 725.155151,206.165802 
	C761.121948,206.080734 797.088989,206.083969 833.055786,206.163666 
	C836.732483,206.171814 837.929504,204.749207 838.092896,201.152100 
	C838.771240,186.216660 832.641052,174.779053 819.739685,167.773346 
	C808.145325,161.477386 802.428894,151.257141 797.908508,139.805481 
	C797.104248,137.768204 796.626343,135.602097 796.007874,133.529358 
	C796.975525,133.214890 797.285645,133.030731 797.598816,133.025391 
	C800.427917,132.977142 803.257568,132.944122 806.087158,132.937241 
	C813.267761,132.919754 813.252625,132.924240 814.095642,126.019615 
	C814.437500,123.220230 815.288147,120.402130 815.102905,117.646637 
	C814.971619,115.694550 813.981689,113.195786 812.510925,112.061790 
	C809.274414,109.566406 805.490723,107.780754 801.489868,105.448654 
	C807.348083,96.874702 809.778931,87.853958 806.594849,77.145683 
z"/>
<path fill="#F4C79C" opacity="1.000000" stroke="none" 
	d="
M451.582520,664.987000 
	C451.720367,665.782471 451.835846,666.611267 451.835754,667.440002 
	C451.828583,739.041199 451.812469,810.642334 451.756409,882.728516 
	C443.394104,883.164856 435.072418,883.075500 426.750732,883.073975 
	C362.495422,883.062256 298.240112,883.067505 233.520416,883.061157 
	C233.039764,810.674622 233.023483,738.294434 233.017227,665.442993 
	C233.027252,664.971863 232.998154,665.002808 233.453964,665.005127 
	C306.387726,665.023743 378.865692,665.039978 451.343658,665.056274 
	C451.343658,665.056274 451.506195,665.020264 451.582520,664.987000 
M312.093323,727.587952 
	C288.390686,757.611328 282.902496,789.745056 301.263550,824.884460 
	C299.445801,825.485779 297.936951,826.103455 296.370453,826.483521 
	C287.574768,828.617310 282.930206,834.692078 281.074158,843.064880 
	C280.254730,846.761292 280.092743,850.651062 280.037720,854.458923 
	C279.937134,861.415955 280.483765,861.859802 287.345215,861.861267 
	C320.168976,861.868225 352.992737,861.864502 385.816498,861.864441 
	C389.981964,861.864441 394.161804,861.647705 398.308899,861.923706 
	C402.645782,862.212402 404.613678,860.222961 404.481201,856.171875 
	C404.340454,851.868591 404.164001,847.514160 403.388489,843.295044 
	C401.780762,834.547852 396.894897,828.533875 387.909424,826.380676 
	C386.508667,826.044983 385.163605,825.476868 383.875183,825.043884 
	C383.963165,824.288391 383.933563,823.935669 384.052124,823.642944 
	C384.363373,822.874207 384.714020,822.118713 385.092834,821.380493 
	C398.246735,795.748657 397.610748,770.315979 384.048737,745.042175 
	C381.403687,740.112915 379.960205,739.910400 376.979523,744.535156 
	C373.126251,750.513794 369.679047,756.769226 365.569550,762.559448 
	C364.120026,764.601868 361.343109,766.648926 358.982697,766.898071 
	C354.275848,767.394836 352.198578,762.451172 355.100342,757.362854 
	C360.100494,748.594910 365.376007,739.974792 370.820557,731.474915 
	C372.530975,728.804749 372.251251,727.006958 370.255768,724.901489 
	C365.472137,719.854187 360.764191,714.735107 355.893127,709.502625 
	C357.142242,707.381714 358.397705,705.250977 359.652313,703.119812 
	C362.467438,698.337830 361.666962,694.838989 357.024567,691.631531 
	C349.408722,686.369690 334.611359,686.407410 327.199005,691.707458 
	C323.257599,694.525574 322.411438,698.119690 324.695190,702.404602 
	C326.006409,704.864685 327.336731,707.314636 328.586060,709.634766 
	C323.084320,715.568726 317.786896,721.282288 312.093323,727.587952 
z"/>
<path fill="#F4C69C" opacity="1.000000" stroke="none" 
	d="
M233.020782,227.560867 
	C160.651657,228.016235 88.271393,228.000549 15.418552,227.964905 
	C14.945979,155.533966 14.945979,83.122986 14.945979,9.932870 
	C87.609749,9.932870 159.812912,9.932870 232.480515,9.939394 
	C232.966522,82.327217 232.988068,154.708511 233.020782,227.560867 
M75.453270,171.775024 
	C73.585510,172.826096 71.537033,173.649857 69.880577,174.966721 
	C61.736904,181.440750 61.689037,190.737122 61.432034,199.928421 
	C61.295483,204.811813 63.535954,206.313354 68.478767,206.283737 
	C103.619537,206.073166 138.762161,206.171555 173.904190,206.171570 
	C186.709137,206.171585 186.918350,206.153427 185.799698,193.251038 
	C185.014069,184.189636 182.479126,175.944305 172.855438,171.958786 
	C171.479660,171.389038 170.305359,169.112274 169.972839,167.439651 
	C167.611450,155.561340 165.478058,143.637451 163.302811,131.722458 
	C161.461746,121.637856 159.662018,111.545708 157.805328,101.242332 
	C168.652786,98.584595 172.980850,90.704987 173.756287,81.055130 
	C174.524048,71.500832 173.956299,61.831264 173.745316,52.217278 
	C173.721573,51.135239 172.349640,49.325294 171.367157,49.146210 
	C165.519302,48.080269 159.602112,47.394794 153.508377,46.553974 
	C152.401688,49.926838 151.390411,52.883713 150.461044,55.866112 
	C148.185608,63.168205 146.862381,63.842270 139.181015,61.478840 
	C138.356979,56.319454 137.530975,51.147827 136.681366,45.828423 
	C131.403656,45.828423 126.585999,45.828423 121.768333,45.828423 
	C110.336678,45.828423 110.171242,45.813210 109.130562,57.129276 
	C108.761765,61.139492 107.294968,62.580204 103.279137,62.478962 
	C100.175385,62.400707 98.299797,61.762188 97.642365,58.426785 
	C97.068840,55.517063 96.267639,52.563042 94.968971,49.922760 
	C94.312439,48.587990 92.256912,46.980408 90.963875,47.086086 
	C85.382462,47.542278 79.849113,48.586498 73.102524,49.595547 
	C73.102524,59.317467 72.606232,68.955345 73.248138,78.516815 
	C73.838989,87.317673 76.297630,95.946701 85.489784,99.720352 
	C89.060966,101.186432 89.489166,102.790871 88.906082,105.908020 
	C85.787140,122.581802 82.788940,139.278305 79.627747,155.943970 
	C78.647316,161.112778 77.287018,166.209518 75.453270,171.775024 
z"/>
<path fill="#F4C79C" opacity="1.000000" stroke="none" 
	d="
M669.979370,665.439087 
	C742.348328,664.983887 814.728638,664.999695 887.581421,665.035522 
	C888.053955,737.466370 888.053955,809.877197 888.053955,883.067139 
	C815.390381,883.067139 743.187378,883.067139 670.519897,883.060547 
	C670.033875,810.672668 670.012268,738.291382 669.979370,665.439087 
M736.998718,734.196045 
	C735.033020,736.717957 732.281982,738.958374 731.256897,741.817505 
	C728.734192,748.853271 729.130005,748.716919 721.815430,746.481079 
	C718.146973,745.359741 713.999329,744.449829 710.318787,745.030884 
	C704.268677,745.985962 703.670776,748.669861 707.245789,753.566650 
	C712.633118,760.945740 718.143494,768.252319 723.164978,775.877258 
	C732.140137,789.505798 738.776550,804.025513 739.224548,820.796387 
	C739.313965,824.141418 738.418762,825.544983 735.134216,826.094421 
	C727.063049,827.444702 721.257935,832.031433 719.070129,839.919312 
	C717.670593,844.965088 717.628723,850.392883 717.038574,855.656189 
	C716.493347,860.519043 718.926392,861.985962 723.538696,861.935669 
	C739.364990,861.762817 755.194397,861.869263 771.022583,861.869263 
	C792.348999,861.869263 813.676575,861.753906 835.000977,861.961426 
	C839.555603,862.005737 841.674805,860.233093 841.503174,855.993774 
	C841.309143,851.200256 841.114319,846.311951 840.035522,841.670349 
	C838.211182,833.820984 833.361389,828.438660 825.228394,826.476074 
	C823.179199,825.981506 821.162109,825.353699 819.085266,824.774597 
	C819.350464,812.733643 821.062988,801.247314 826.920288,791.209045 
	C834.508484,778.204163 843.175110,765.823547 851.509888,753.261963 
	C854.695312,748.461243 854.215332,745.606506 848.550537,745.069641 
	C843.877869,744.626770 838.892578,746.179749 834.218811,747.473022 
	C830.615234,748.470215 828.556274,748.362610 827.903870,744.104553 
	C827.075012,738.694824 825.063049,734.115173 818.515564,733.649597 
	C817.866638,733.603394 817.093689,732.805054 816.691284,732.160400 
	C810.582520,722.372681 802.254089,715.373169 791.050171,711.986084 
	C797.606750,702.125488 797.545593,694.576843 791.055420,688.999146 
	C784.418823,683.295410 773.168701,683.443970 766.731323,689.320312 
	C760.643311,694.877686 760.693481,702.461670 767.091309,711.975891 
	C756.272766,715.607483 747.767761,722.088562 741.855713,731.905457 
	C741.183716,733.021362 739.135010,733.308167 736.998718,734.196045 
z"/>
<path fill="#BE804C" opacity="1.000000" stroke="none" 
	d="
M451.272736,664.586609 
	C378.865692,665.039978 306.387726,665.023743 233.438568,665.019653 
	C232.971756,592.567017 232.976135,520.102234 233.430908,447.220093 
	C305.166016,446.817078 376.450714,446.832886 447.735413,446.832031 
	C448.891113,446.832001 450.046844,446.627930 451.202545,446.519104 
	C451.202301,519.051697 451.202057,591.584351 451.272736,664.586609 
z"/>
<path fill="#BE804C" opacity="1.000000" stroke="none" 
	d="
M451.657318,227.940903 
	C524.134827,227.957657 596.612366,227.974426 669.561035,227.979523 
	C670.032166,300.402710 670.032166,372.837555 670.032166,446.192810 
	C597.247192,446.192810 524.882019,446.192810 452.135437,445.714905 
	C451.785004,444.238861 451.843048,443.240723 451.843109,442.242554 
	C451.847412,372.136993 451.848206,302.031433 451.839325,231.925873 
	C451.839142,230.597549 451.720612,229.269226 451.657318,227.940903 
z"/>
<path fill="#F5C79C" opacity="1.000000" stroke="none" 
	d="
M451.584656,227.968384 
	C451.720612,229.269226 451.839142,230.597549 451.839325,231.925873 
	C451.848206,302.031433 451.847412,372.136993 451.843109,442.242554 
	C451.843048,443.240723 451.785004,444.238861 451.636810,445.719666 
	C451.519653,446.202332 451.256256,446.376373 451.229401,446.447754 
	C450.046844,446.627930 448.891113,446.832001 447.735413,446.832031 
	C376.450714,446.832886 305.166016,446.817078 233.410675,446.730408 
	C232.940033,446.657990 232.995270,446.507599 233.022583,446.437073 
	C233.030304,373.881134 233.010681,301.395691 232.979523,228.439117 
	C305.427032,227.983902 377.886108,227.999863 450.855896,228.033279 
	C451.366608,228.050751 451.511993,227.995880 451.584656,227.968384 
M313.993439,327.472717 
	C313.300873,327.934357 312.649017,328.478485 311.908875,328.843719 
	C308.170471,330.688538 304.878387,332.522461 306.449524,337.854614 
	C307.608734,341.788727 307.749908,346.017242 308.799316,349.994629 
	C308.983795,350.693817 311.402863,351.079376 312.806946,351.128937 
	C316.958893,351.275543 321.119354,351.181335 325.296600,351.181335 
	C324.009521,363.372986 313.835632,379.377014 303.724365,385.064972 
	C290.866394,392.298096 283.095001,402.614685 283.349243,417.955231 
	C283.453094,424.223114 284.034271,424.874054 290.175323,424.876740 
	C311.836670,424.886200 333.497986,424.880463 355.159332,424.880432 
	C368.489380,424.880432 381.820374,424.791779 395.148926,424.933197 
	C399.258545,424.976807 401.000916,423.830841 401.143951,419.280426 
	C401.603088,404.676758 395.589966,393.869507 383.016357,386.767303 
	C372.151093,380.630066 365.588348,371.210876 361.438446,359.796112 
	C360.469604,357.131226 359.651184,354.411682 358.587708,351.183350 
	C362.808441,351.183350 365.961395,351.184875 369.114349,351.183014 
	C376.163666,351.178833 376.168274,351.178772 377.081573,344.398895 
	C377.414337,341.928467 377.586395,339.427887 378.069519,336.988159 
	C378.743225,333.585968 377.829712,331.387238 374.473907,329.827728 
	C370.917633,328.175110 367.672577,325.852722 364.274139,323.812347 
	C373.622009,310.145142 373.094971,294.519745 363.173889,284.545349 
	C353.192413,274.510254 337.566528,273.271332 324.689117,281.716095 
	C319.489655,285.125824 316.409668,290.250183 314.694244,296.166260 
	C311.770020,306.251282 314.354187,315.377625 320.248535,324.030762 
	C318.097961,325.213837 316.367645,326.165710 313.993439,327.472717 
z"/>
<path fill="#444241" opacity="1.000000" stroke="none" 
	d="
M806.741577,77.527206 
	C809.778931,87.853958 807.348083,96.874702 801.489868,105.448654 
	C805.490723,107.780754 809.274414,109.566406 812.510925,112.061790 
	C813.981689,113.195786 814.971619,115.694550 815.102905,117.646637 
	C815.288147,120.402130 814.437500,123.220230 814.095642,126.019615 
	C813.252625,132.924240 813.267761,132.919754 806.087158,132.937241 
	C803.257568,132.944122 800.427917,132.977142 797.598816,133.025391 
	C797.285645,133.030731 796.975525,133.214890 796.007874,133.529358 
	C796.626343,135.602097 797.104248,137.768204 797.908508,139.805481 
	C802.428894,151.257141 808.145325,161.477386 819.739685,167.773346 
	C832.641052,174.779053 838.771240,186.216660 838.092896,201.152100 
	C837.929504,204.749207 836.732483,206.171814 833.055786,206.163666 
	C797.088989,206.083969 761.121948,206.080734 725.155151,206.165802 
	C721.371277,206.174744 720.273682,204.456299 720.142578,201.036194 
	C719.524902,184.915390 727.460754,174.169571 740.956726,166.417694 
	C753.515320,159.204239 758.478760,146.865097 762.680420,132.926147 
	C757.617920,132.926147 753.506042,132.881851 749.395691,132.941666 
	C746.636719,132.981781 745.090759,132.024918 744.818542,128.990845 
	C744.464111,125.038933 743.338257,121.129852 743.274231,117.190475 
	C743.246277,115.469872 744.620850,113.168610 746.071777,112.094551 
	C749.384644,109.642128 753.137512,107.784004 757.116760,105.446503 
	C750.677063,95.864204 748.264282,85.815872 752.695190,74.853905 
	C755.530212,67.840065 760.436340,62.789127 767.384521,60.061596 
	C784.382751,53.388908 801.018494,60.740467 806.741577,77.527206 
M756.884949,92.823601 
	C758.793396,96.249802 760.398438,99.898712 762.700989,103.035645 
	C764.746887,105.822998 764.199341,107.533089 761.592712,109.075745 
	C758.175110,111.098373 754.561707,112.820610 751.302490,115.064247 
	C750.101807,115.890778 749.043823,117.823097 749.021118,119.268341 
	C748.978760,121.961823 749.742493,124.667969 750.122864,127.066574 
	C767.202209,127.066574 783.613281,127.066574 800.913879,127.280174 
	C808.560486,127.410820 808.379578,127.383415 809.502563,119.970688 
	C809.904541,117.317276 809.278809,115.996017 806.984985,114.865028 
	C803.871033,113.329727 800.933105,111.442062 797.865479,109.807182 
	C794.335449,107.925858 793.199768,105.700943 796.390625,102.470772 
	C800.580688,98.229080 802.206360,92.878975 802.739746,87.122192 
	C803.451355,79.440834 798.912109,70.587769 792.390137,67.638306 
	C786.292542,62.327263 779.392822,61.774689 771.276794,64.181831 
	C758.892639,69.126427 753.353577,79.829544 756.884949,92.823601 
M725.591187,197.855042 
	C725.315796,201.618103 727.981995,200.986160 730.247681,200.985901 
	C763.075378,200.982224 795.903015,200.987213 828.730713,200.968475 
	C829.998962,200.967758 831.267029,200.750015 832.454590,200.640793 
	C834.146240,187.773270 826.590271,176.275070 812.863647,170.098724 
	C802.814270,163.222595 797.269470,153.148804 793.010010,142.156204 
	C789.425354,132.905121 789.414612,132.805847 779.420959,132.961472 
	C775.651489,133.020157 771.891357,133.676895 767.947021,134.665192 
	C767.927551,135.258636 767.908081,135.852066 767.293823,136.912552 
	C766.871460,138.274216 766.449036,139.635864 765.608459,141.490906 
	C765.581970,141.919861 765.555542,142.348816 765.088257,143.320328 
	C759.975220,156.515915 752.003906,167.072250 739.237305,174.081528 
	C730.589294,178.829559 725.996094,186.828323 725.591187,197.855042 
z"/>
<path fill="#414040" opacity="1.000000" stroke="none" 
	d="
M312.291412,727.291870 
	C317.786896,721.282288 323.084320,715.568726 328.586060,709.634766 
	C327.336731,707.314636 326.006409,704.864685 324.695190,702.404602 
	C322.411438,698.119690 323.257599,694.525574 327.199005,691.707458 
	C334.611359,686.407410 349.408722,686.369690 357.024567,691.631531 
	C361.666962,694.838989 362.467438,698.337830 359.652313,703.119812 
	C358.397705,705.250977 357.142242,707.381714 355.893127,709.502625 
	C360.764191,714.735107 365.472137,719.854187 370.255768,724.901489 
	C372.251251,727.006958 372.530975,728.804749 370.820557,731.474915 
	C365.376007,739.974792 360.100494,748.594910 355.100342,757.362854 
	C352.198578,762.451172 354.275848,767.394836 358.982697,766.898071 
	C361.343109,766.648926 364.120026,764.601868 365.569550,762.559448 
	C369.679047,756.769226 373.126251,750.513794 376.979523,744.535156 
	C379.960205,739.910400 381.403687,740.112915 384.048737,745.042175 
	C397.610748,770.315979 398.246735,795.748657 385.092834,821.380493 
	C384.714020,822.118713 384.363373,822.874207 384.052124,823.642944 
	C383.933563,823.935669 383.963165,824.288391 383.875183,825.043884 
	C385.163605,825.476868 386.508667,826.044983 387.909424,826.380676 
	C396.894897,828.533875 401.780762,834.547852 403.388489,843.295044 
	C404.164001,847.514160 404.340454,851.868591 404.481201,856.171875 
	C404.613678,860.222961 402.645782,862.212402 398.308899,861.923706 
	C394.161804,861.647705 389.981964,861.864441 385.816498,861.864441 
	C352.992737,861.864502 320.168976,861.868225 287.345215,861.861267 
	C280.483765,861.859802 279.937134,861.415955 280.037720,854.458923 
	C280.092743,850.651062 280.254730,846.761292 281.074158,843.064880 
	C282.930206,834.692078 287.574768,828.617310 296.370453,826.483521 
	C297.936951,826.103455 299.445801,825.485779 301.263550,824.884460 
	C282.902496,789.745056 288.390686,757.611328 312.291412,727.291870 
M394.891602,836.340149 
	C391.913239,834.660706 389.109039,832.102661 385.922943,831.471069 
	C377.337402,829.769104 368.621918,828.502014 359.898651,827.760010 
	C340.006500,826.067993 320.179291,826.847229 300.573364,830.884277 
	C295.890228,831.848572 291.141357,833.057190 288.223450,838.439514 
	C285.546021,844.094299 284.779205,850.012878 285.432861,856.224976 
	C323.447723,856.224976 361.119690,856.224976 399.063843,856.224976 
	C399.210999,849.285278 399.466431,842.694824 394.891602,836.340149 
M377.321228,754.040283 
	C375.107910,757.488403 372.753021,760.854919 370.709991,764.401123 
	C366.143463,772.327637 359.243317,773.810242 353.890076,771.132202 
	C348.558228,768.464844 347.269501,762.158936 350.831390,753.664001 
	C353.514801,749.320496 356.299988,745.035706 358.852112,740.616394 
	C361.253937,736.457275 365.694000,731.767090 365.055969,728.023071 
	C364.365814,723.973206 358.985291,720.588074 355.381989,717.198425 
	C348.643127,710.859009 348.534668,710.748230 353.376587,702.739563 
	C356.600281,697.407471 355.915649,695.685486 349.782654,694.053406 
	C348.208801,693.634521 346.553467,693.521729 344.063660,693.166809 
	C340.164001,693.716248 336.187653,693.958008 332.387085,694.905090 
	C328.873077,695.780823 327.389862,697.926636 330.058960,701.465576 
	C331.444031,703.302063 332.198273,705.611145 333.565277,707.465088 
	C335.332764,709.862244 334.822845,711.431335 332.769440,713.419922 
	C328.004456,718.034546 323.512817,722.931335 318.368500,727.949097 
	C318.182281,728.281677 317.996033,728.614197 317.360535,729.194275 
	C317.254364,729.512512 317.148193,729.830811 316.490479,730.507141 
	C311.289246,739.249268 305.143890,747.579285 301.106628,756.829407 
	C294.949036,770.937378 293.712219,785.910278 297.920074,801.802063 
	C300.388733,808.263306 302.688477,814.798706 305.465027,821.124756 
	C306.037140,822.428345 308.399506,823.737488 309.916626,823.714417 
	C327.947052,823.441650 345.973694,822.916687 364.722595,822.769043 
	C378.106049,823.830139 378.448273,823.974854 383.231293,812.662292 
	C392.176147,791.506348 391.087616,770.606201 380.357391,749.279785 
	C379.285797,751.190002 378.599182,752.413879 377.321228,754.040283 
z"/>
<path fill="#424141" opacity="1.000000" stroke="none" 
	d="
M75.776955,171.557144 
	C77.287018,166.209518 78.647316,161.112778 79.627747,155.943970 
	C82.788940,139.278305 85.787140,122.581802 88.906082,105.908020 
	C89.489166,102.790871 89.060966,101.186432 85.489784,99.720352 
	C76.297630,95.946701 73.838989,87.317673 73.248138,78.516815 
	C72.606232,68.955345 73.102524,59.317467 73.102524,49.595547 
	C79.849113,48.586498 85.382462,47.542278 90.963875,47.086086 
	C92.256912,46.980408 94.312439,48.587990 94.968971,49.922760 
	C96.267639,52.563042 97.068840,55.517063 97.642365,58.426785 
	C98.299797,61.762188 100.175385,62.400707 103.279137,62.478962 
	C107.294968,62.580204 108.761765,61.139492 109.130562,57.129276 
	C110.171242,45.813210 110.336678,45.828423 121.768333,45.828423 
	C126.585999,45.828423 131.403656,45.828423 136.681366,45.828423 
	C137.530975,51.147827 138.356979,56.319454 139.181015,61.478840 
	C146.862381,63.842270 148.185608,63.168205 150.461044,55.866112 
	C151.390411,52.883713 152.401688,49.926838 153.508377,46.553974 
	C159.602112,47.394794 165.519302,48.080269 171.367157,49.146210 
	C172.349640,49.325294 173.721573,51.135239 173.745316,52.217278 
	C173.956299,61.831264 174.524048,71.500832 173.756287,81.055130 
	C172.980850,90.704987 168.652786,98.584595 157.805328,101.242332 
	C159.662018,111.545708 161.461746,121.637856 163.302811,131.722458 
	C165.478058,143.637451 167.611450,155.561340 169.972839,167.439651 
	C170.305359,169.112274 171.479660,171.389038 172.855438,171.958786 
	C182.479126,175.944305 185.014069,184.189636 185.799698,193.251038 
	C186.918350,206.153427 186.709137,206.171585 173.904190,206.171570 
	C138.762161,206.171555 103.619537,206.073166 68.478767,206.283737 
	C63.535954,206.313354 61.295483,204.811813 61.432034,199.928421 
	C61.689037,190.737122 61.736904,181.440750 69.880577,174.966721 
	C71.537033,173.649857 73.585510,172.826096 75.776955,171.557144 
M100.241684,100.472687 
	C98.495613,100.757607 96.749535,101.042519 94.941483,101.337555 
	C93.011894,112.395241 91.127762,123.192451 88.995384,134.625656 
	C88.981590,135.077545 88.967796,135.529449 88.600945,136.501938 
	C88.484062,137.331207 88.367180,138.160461 88.026917,139.641190 
	C88.033051,140.099777 88.039177,140.558365 87.629150,141.561890 
	C87.476410,142.694626 87.323662,143.827347 86.981995,145.779358 
	C85.561142,153.662140 84.140297,161.544907 82.670906,169.696960 
	C108.033867,165.272827 132.544479,165.415726 157.878677,168.447800 
	C159.927094,168.714691 161.975510,168.981567 164.695389,169.335953 
	C162.884277,159.118713 161.189636,149.694839 159.547607,140.261795 
	C157.303543,127.370049 155.099503,114.471344 152.991837,100.767754 
	C154.409332,99.840500 155.874176,98.976883 157.230896,97.967926 
	C158.560364,96.979210 159.779800,95.842545 161.424515,94.246193 
	C163.623856,90.664001 167.215881,87.276337 167.748749,83.461380 
	C169.087692,73.875412 169.044327,64.096382 169.532074,54.834366 
	C167.984970,54.215775 167.688187,54.032467 167.370117,53.981220 
	C166.056931,53.769634 164.737305,53.598064 162.645294,53.089745 
	C160.887405,52.906239 159.129517,52.722729 157.147430,52.515812 
	C155.796722,56.958099 154.706711,61.129982 153.197495,65.144279 
	C152.752258,66.328545 151.165833,67.815598 150.027893,67.881691 
	C144.934006,68.177544 139.813232,68.010414 134.645325,68.010414 
	C133.714020,61.727238 132.928177,56.425533 132.170715,51.315254 
	C126.099998,51.315254 120.681114,51.315254 115.243080,51.315254 
	C114.427582,56.861683 113.659828,62.083363 112.790535,67.995644 
	C107.720078,67.995644 102.908508,67.804573 98.122574,68.072121 
	C95.530914,68.217003 94.643532,67.091797 94.046188,64.922485 
	C92.955063,60.959915 91.701691,57.042019 90.415985,52.773483 
	C88.867584,52.887615 87.431305,52.993481 85.187569,53.066746 
	C83.131805,53.451908 81.076050,53.837074 78.247543,54.367016 
	C78.247543,60.984570 78.247543,67.486671 78.171791,74.829880 
	C78.174721,75.492241 78.098381,76.166061 78.192268,76.815269 
	C80.147911,90.338257 83.740974,97.963341 100.126328,95.466354 
	C111.567368,93.722832 123.445366,94.846603 134.599625,95.385086 
	C124.979782,95.921371 115.361298,96.484138 105.739120,96.974678 
	C103.429848,97.092400 100.915565,96.653877 100.241684,100.472687 
M69.492371,183.531891 
	C68.325684,189.099014 67.159004,194.666138 65.887840,200.731812 
	C104.975548,200.731812 142.722397,200.731812 180.756348,200.731812 
	C180.667587,194.100571 180.917480,187.624741 176.686249,181.322357 
	C172.530090,179.216721 168.584473,176.082199 164.181808,175.181335 
	C143.743988,170.999390 123.017944,170.613831 102.309723,172.580139 
	C93.810623,173.387161 85.336929,175.061249 77.047112,177.125717 
	C74.390335,177.787338 72.360909,180.968124 69.492371,183.531891 
z"/>
<path fill="#424141" opacity="1.000000" stroke="none" 
	d="
M737.361694,734.087708 
	C739.135010,733.308167 741.183716,733.021362 741.855713,731.905457 
	C747.767761,722.088562 756.272766,715.607483 767.091309,711.975891 
	C760.693481,702.461670 760.643311,694.877686 766.731323,689.320312 
	C773.168701,683.443970 784.418823,683.295410 791.055420,688.999146 
	C797.545593,694.576843 797.606750,702.125488 791.050171,711.986084 
	C802.254089,715.373169 810.582520,722.372681 816.691284,732.160400 
	C817.093689,732.805054 817.866638,733.603394 818.515564,733.649597 
	C825.063049,734.115173 827.075012,738.694824 827.903870,744.104553 
	C828.556274,748.362610 830.615234,748.470215 834.218811,747.473022 
	C838.892578,746.179749 843.877869,744.626770 848.550537,745.069641 
	C854.215332,745.606506 854.695312,748.461243 851.509888,753.261963 
	C843.175110,765.823547 834.508484,778.204163 826.920288,791.209045 
	C821.062988,801.247314 819.350464,812.733643 819.085266,824.774597 
	C821.162109,825.353699 823.179199,825.981506 825.228394,826.476074 
	C833.361389,828.438660 838.211182,833.820984 840.035522,841.670349 
	C841.114319,846.311951 841.309143,851.200256 841.503174,855.993774 
	C841.674805,860.233093 839.555603,862.005737 835.000977,861.961426 
	C813.676575,861.753906 792.348999,861.869263 771.022583,861.869263 
	C755.194397,861.869263 739.364990,861.762817 723.538696,861.935669 
	C718.926392,861.985962 716.493347,860.519043 717.038574,855.656189 
	C717.628723,850.392883 717.670593,844.965088 719.070129,839.919312 
	C721.257935,832.031433 727.063049,827.444702 735.134216,826.094421 
	C738.418762,825.544983 739.313965,824.141418 739.224548,820.796387 
	C738.776550,804.025513 732.140137,789.505798 723.164978,775.877258 
	C718.143494,768.252319 712.633118,760.945740 707.245789,753.566650 
	C703.670776,748.669861 704.268677,745.985962 710.318787,745.030884 
	C713.999329,744.449829 718.146973,745.359741 721.815430,746.481079 
	C729.130005,748.716919 728.734192,748.853271 731.256897,741.817505 
	C732.281982,738.958374 735.033020,736.717957 737.361694,734.087708 
M785.750793,692.120544 
	C783.099731,691.418091 780.438965,690.106201 777.799683,690.148010 
	C773.180115,690.221191 769.012878,692.620850 767.990906,697.122498 
	C767.334595,700.013855 768.343262,704.078674 770.104553,706.548584 
	C773.228699,710.929749 778.824036,711.270874 785.599365,708.631714 
	C792.439270,703.519714 792.674072,696.671509 785.750793,692.120544 
M837.941223,751.877197 
	C837.941223,751.877197 837.879395,751.813293 837.141846,751.990784 
	C829.571350,754.812561 825.298401,753.452454 823.284851,747.580017 
	C819.587646,736.797180 818.654358,736.475342 808.789062,742.605652 
	C808.226135,742.955444 807.722717,743.400940 807.159302,743.749573 
	C799.705322,748.362976 793.577576,747.385437 787.883972,740.683228 
	C787.024780,739.671936 786.219055,738.611206 785.311035,737.646301 
	C780.977905,733.041260 777.996399,732.959656 773.624084,737.351257 
	C772.102295,738.879700 770.712524,740.538879 769.205688,742.082886 
	C764.391479,747.015991 758.995056,747.885681 752.957947,744.669617 
	C751.062988,743.660095 749.257263,742.484131 747.400146,741.402466 
	C739.485229,736.792908 737.433228,737.692993 735.360413,746.671570 
	C734.109863,752.088318 730.503540,754.398010 725.088135,753.080261 
	C722.700439,752.499207 720.386658,751.614624 717.463196,750.518188 
	C715.680054,750.194031 713.896851,749.869812 711.590393,749.450500 
	C719.718506,761.954407 727.307007,773.628235 734.995789,785.994324 
	C741.434753,797.676941 744.196045,810.365112 744.791626,823.173096 
	C760.147888,822.703125 775.046753,822.247192 790.851929,821.958496 
	C798.397644,822.548157 805.943420,823.137817 813.955811,823.763916 
	C813.537781,794.203552 830.577087,772.595459 845.868591,749.528687 
	C843.910889,750.021973 841.953247,750.515259 839.374268,750.947571 
	C838.877197,751.279907 838.380188,751.612244 837.941223,751.877197 
M796.634705,720.262817 
	C795.858093,719.987305 795.021118,719.819031 794.313721,719.420654 
	C778.241028,710.368042 754.870483,718.008423 747.004150,735.006287 
	C749.099854,736.267212 751.197388,737.555847 753.320190,738.801514 
	C759.881958,742.651733 762.497803,742.222351 767.454773,736.516296 
	C776.337341,726.291016 782.441956,726.372620 791.355103,736.469910 
	C793.065613,738.407715 795.752014,739.484131 798.765259,741.096497 
	C803.125916,739.163940 807.486572,737.231384 811.898438,735.276123 
	C807.682129,727.825989 803.004639,723.356140 796.634705,720.262817 
M831.887756,836.340149 
	C828.894165,834.657776 826.074463,832.095032 822.873474,831.462769 
	C814.249756,829.759583 805.496094,828.496765 796.735168,827.750488 
	C776.751343,826.048218 756.837769,826.919556 737.152405,830.966125 
	C732.631714,831.895447 728.025391,833.185547 725.228943,838.438354 
	C723.933594,844.255737 722.638184,850.073181 721.270325,856.216064 
	C760.462585,856.216064 798.127014,856.216064 836.108643,856.216064 
	C836.131531,849.291809 836.547180,842.673340 831.887756,836.340149 
z"/>
<path fill="#454443" opacity="1.000000" stroke="none" 
	d="
M314.315399,327.295166 
	C316.367645,326.165710 318.097961,325.213837 320.248535,324.030762 
	C314.354187,315.377625 311.770020,306.251282 314.694244,296.166260 
	C316.409668,290.250183 319.489655,285.125824 324.689117,281.716095 
	C337.566528,273.271332 353.192413,274.510254 363.173889,284.545349 
	C373.094971,294.519745 373.622009,310.145142 364.274139,323.812347 
	C367.672577,325.852722 370.917633,328.175110 374.473907,329.827728 
	C377.829712,331.387238 378.743225,333.585968 378.069519,336.988159 
	C377.586395,339.427887 377.414337,341.928467 377.081573,344.398895 
	C376.168274,351.178772 376.163666,351.178833 369.114349,351.183014 
	C365.961395,351.184875 362.808441,351.183350 358.587708,351.183350 
	C359.651184,354.411682 360.469604,357.131226 361.438446,359.796112 
	C365.588348,371.210876 372.151093,380.630066 383.016357,386.767303 
	C395.589966,393.869507 401.603088,404.676758 401.143951,419.280426 
	C401.000916,423.830841 399.258545,424.976807 395.148926,424.933197 
	C381.820374,424.791779 368.489380,424.880432 355.159332,424.880432 
	C333.497986,424.880463 311.836670,424.886200 290.175323,424.876740 
	C284.034271,424.874054 283.453094,424.223114 283.349243,417.955231 
	C283.095001,402.614685 290.866394,392.298096 303.724365,385.064972 
	C313.835632,379.377014 324.009521,363.372986 325.296600,351.181335 
	C321.119354,351.181335 316.958893,351.275543 312.806946,351.128937 
	C311.402863,351.079376 308.983795,350.693817 308.799316,349.994629 
	C307.749908,346.017242 307.608734,341.788727 306.449524,337.854614 
	C304.878387,332.522461 308.170471,330.688538 311.908875,328.843719 
	C312.649017,328.478485 313.300873,327.934357 314.315399,327.295166 
M363.831665,345.919891 
	C366.285370,345.919891 368.739075,345.919891 371.511505,345.919891 
	C371.985474,342.248077 372.406586,338.985626 372.879822,335.319611 
	C369.450348,333.262787 365.959167,331.116425 362.417786,329.056427 
	C355.995697,325.320801 355.983154,325.342255 360.622681,319.255219 
	C368.487762,308.936249 366.942810,294.584137 356.659302,286.288452 
	C349.670380,281.201721 342.148651,279.901794 333.281219,283.062744 
	C321.617462,288.248413 316.428375,299.073242 319.939392,311.800598 
	C321.708527,314.934357 323.196564,318.276276 325.321533,321.146606 
	C327.711700,324.375122 327.450439,326.342468 323.774628,328.115082 
	C320.500275,329.694092 317.330231,331.531921 314.281616,333.513214 
	C313.216705,334.205322 311.984924,335.665924 311.985291,336.775238 
	C311.986237,339.811371 312.601807,342.847382 312.960907,345.776581 
	C330.074890,345.776581 346.507477,345.776581 363.831665,345.919891 
M330.372894,354.792938 
	C330.285065,355.186523 330.197266,355.580078 329.804749,356.630341 
	C329.379547,358.011627 328.954346,359.392914 328.097534,361.328644 
	C323.462372,373.716980 316.648224,384.173615 304.628418,390.921570 
	C295.090454,396.276123 288.560394,404.141144 288.614319,416.889557 
	C288.794678,420.483826 291.563843,419.376892 293.461914,419.380035 
	C325.905518,419.434052 358.349243,419.423584 390.792938,419.403656 
	C392.373566,419.402679 393.954102,419.185272 395.440063,419.075653 
	C396.630829,405.800964 390.043457,395.494781 376.754700,389.129089 
	C373.856232,386.690948 370.626892,384.549683 368.122559,381.757965 
	C361.147339,373.982422 357.132660,364.567841 353.932068,354.740875 
	C353.501801,353.419800 352.177521,351.409119 351.238098,351.392761 
	C344.824585,351.281281 338.403290,351.617737 331.365723,352.022278 
	C331.209412,352.832855 331.053101,353.643402 330.372894,354.792938 
z"/>
<path fill="#F0F0F0" opacity="1.000000" stroke="none" 
	d="
M767.888611,136.445511 
	C767.908081,135.852066 767.927551,135.258636 768.336914,134.506195 
	C769.054016,134.717484 769.453430,135.045609 769.697815,135.464218 
	C777.226624,148.358948 786.764893,159.441910 799.782349,166.970428 
	C803.688843,169.229736 807.701782,172.899460 813.074036,170.724594 
	C826.590271,176.275070 834.146240,187.773270 832.454590,200.640793 
	C831.267029,200.750015 829.998962,200.967758 828.730713,200.968475 
	C795.903015,200.987213 763.075378,200.982224 730.247681,200.985901 
	C727.981995,200.986160 725.315796,201.618103 726.108093,197.385635 
	C727.116394,196.506409 727.812927,196.196686 728.068970,195.672012 
	C732.956482,185.657196 740.638611,178.132721 750.087463,172.704330 
	C759.122559,167.513611 763.126465,159.307053 765.728088,150.031708 
	C766.351990,147.807327 765.631348,145.205826 765.529114,142.777771 
	C765.555542,142.348816 765.581970,141.919861 766.202393,141.162262 
	C767.160461,139.370926 767.524536,137.908218 767.888611,136.445511 
z"/>
<path fill="#F0F0F0" opacity="1.000000" stroke="none" 
	d="
M800.024292,127.066574 
	C783.613281,127.066574 767.202209,127.066574 750.122864,127.066574 
	C749.742493,124.667969 748.978760,121.961823 749.021118,119.268341 
	C749.043823,117.823097 750.101807,115.890778 751.302490,115.064247 
	C754.561707,112.820610 758.175110,111.098373 761.592712,109.075745 
	C764.199341,107.533089 764.746887,105.822998 762.700989,103.035645 
	C760.398438,99.898712 758.793396,96.249802 757.167480,92.217361 
	C759.668579,81.079666 764.081665,71.712349 771.991150,64.199814 
	C779.392822,61.774689 786.292542,62.327263 792.727295,68.165276 
	C793.487549,69.390884 793.847473,70.138329 794.343445,70.780800 
	C801.424744,79.953888 801.008484,90.293304 792.900757,98.576820 
	C789.961548,101.579727 786.479248,104.051048 782.687561,107.232407 
	C785.721680,108.772034 788.213318,110.442963 790.957458,111.350098 
	C798.239197,113.757256 803.239502,117.310890 800.019104,126.077171 
	C799.912598,126.367218 800.017761,126.735016 800.024292,127.066574 
z"/>
<path fill="#CCCCCC" opacity="1.000000" stroke="none" 
	d="
M812.968872,170.411652 
	C807.701782,172.899460 803.688843,169.229736 799.782349,166.970428 
	C786.764893,159.441910 777.226624,148.358948 769.697815,135.464218 
	C769.453430,135.045609 769.054016,134.717484 768.426880,134.204102 
	C771.891357,133.676895 775.651489,133.020157 779.420959,132.961472 
	C789.414612,132.805847 789.425354,132.905121 793.010010,142.156204 
	C797.269470,153.148804 802.814270,163.222595 812.968872,170.411652 
z"/>
<path fill="#CBCBCB" opacity="1.000000" stroke="none" 
	d="
M800.469116,127.173370 
	C800.017761,126.735016 799.912598,126.367218 800.019104,126.077171 
	C803.239502,117.310890 798.239197,113.757256 790.957458,111.350098 
	C788.213318,110.442963 785.721680,108.772034 782.687561,107.232407 
	C786.479248,104.051048 789.961548,101.579727 792.900757,98.576820 
	C801.008484,90.293304 801.424744,79.953888 794.343445,70.780800 
	C793.847473,70.138329 793.487549,69.390884 793.034180,68.340195 
	C798.912109,70.587769 803.451355,79.440834 802.739746,87.122192 
	C802.206360,92.878975 800.580688,98.229080 796.390625,102.470772 
	C793.199768,105.700943 794.335449,107.925858 797.865479,109.807182 
	C800.933105,111.442062 803.871033,113.329727 806.984985,114.865028 
	C809.278809,115.996017 809.904541,117.317276 809.502563,119.970688 
	C808.379578,127.383415 808.560486,127.410820 800.469116,127.173370 
z"/>
<path fill="#FAFAFA" opacity="1.000000" stroke="none" 
	d="
M765.308716,143.049042 
	C765.631348,145.205826 766.351990,147.807327 765.728088,150.031708 
	C763.126465,159.307053 759.122559,167.513611 750.087463,172.704330 
	C740.638611,178.132721 732.956482,185.657196 728.068970,195.672012 
	C727.812927,196.196686 727.116394,196.506409 726.274780,196.961975 
	C725.996094,186.828323 730.589294,178.829559 739.237305,174.081528 
	C752.003906,167.072250 759.975220,156.515915 765.308716,143.049042 
z"/>
<path fill="#F6F6F6" opacity="1.000000" stroke="none" 
	d="
M771.633972,64.190826 
	C764.081665,71.712349 759.668579,81.079666 757.145874,91.843010 
	C753.353577,79.829544 758.892639,69.126427 771.633972,64.190826 
z"/>
<path fill="#FAFAFA" opacity="1.000000" stroke="none" 
	d="
M767.591187,136.679031 
	C767.524536,137.908218 767.160461,139.370926 766.411499,140.915573 
	C766.449036,139.635864 766.871460,138.274216 767.591187,136.679031 
z"/>
<path fill="#EFEFEF" opacity="1.000000" stroke="none" 
	d="
M318.910400,727.713806 
	C323.512817,722.931335 328.004456,718.034546 332.769440,713.419922 
	C334.822845,711.431335 335.332764,709.862244 333.565277,707.465088 
	C332.198273,705.611145 331.444031,703.302063 330.058960,701.465576 
	C327.389862,697.926636 328.873077,695.780823 332.387085,694.905090 
	C336.187653,693.958008 340.164001,693.716248 344.568481,693.551636 
	C347.255249,696.119385 351.421082,697.333618 349.522095,701.645020 
	C348.139709,704.783752 346.191284,707.673218 344.290222,711.036438 
	C347.743896,714.759277 351.072815,718.676941 354.762909,722.218201 
	C357.568970,724.911194 357.932159,727.483032 356.513397,731.053162 
	C353.950500,737.502258 351.797699,744.119324 349.656677,750.725586 
	C349.350708,751.669617 350.067108,752.945068 350.310303,754.067139 
	C347.269501,762.158936 348.558228,768.464844 353.890076,771.132202 
	C359.243317,773.810242 366.143463,772.327637 370.709991,764.401123 
	C372.753021,760.854919 375.107910,757.488403 377.643433,754.268555 
	C380.674957,764.359009 381.508026,774.286682 379.358002,784.397705 
	C376.738342,796.716980 372.089783,808.186584 365.471588,818.887512 
	C364.803619,819.967590 364.483063,821.262573 364.001282,822.457825 
	C345.973694,822.916687 327.947052,823.441650 309.916626,823.714417 
	C308.399506,823.737488 306.037140,822.428345 305.465027,821.124756 
	C302.688477,814.798706 300.388733,808.263306 298.246124,801.119263 
	C298.704163,799.961548 298.980042,799.476440 298.947449,799.013123 
	C297.642059,780.463928 302.889374,763.297668 310.000702,746.526367 
	C312.320374,741.055603 314.693420,735.607483 317.042053,730.149048 
	C317.148193,729.830811 317.254364,729.512512 317.852234,728.951538 
	C318.532776,728.377197 318.721588,728.045471 318.910400,727.713806 
z"/>
<path fill="#ECECEC" opacity="1.000000" stroke="none" 
	d="
M395.090332,837.011169 
	C399.466431,842.694824 399.210999,849.285278 399.063843,856.224976 
	C361.119690,856.224976 323.447723,856.224976 285.432861,856.224976 
	C284.779205,850.012878 285.546021,844.094299 288.883423,838.199463 
	C292.722168,836.649353 295.789276,834.785339 299.097626,834.118896 
	C321.095612,829.687256 343.328125,829.454102 365.615387,831.074646 
	C369.702728,831.371887 373.793549,832.005249 377.806793,832.846069 
	C383.604340,834.060791 389.332550,835.606628 395.090332,837.011169 
z"/>
<path fill="#CBCBCB" opacity="1.000000" stroke="none" 
	d="
M364.361938,822.613403 
	C364.483063,821.262573 364.803619,819.967590 365.471588,818.887512 
	C372.089783,808.186584 376.738342,796.716980 379.358002,784.397705 
	C381.508026,774.286682 380.674957,764.359009 377.939148,754.067322 
	C378.599182,752.413879 379.285797,751.190002 380.357391,749.279785 
	C391.087616,770.606201 392.176147,791.506348 383.231293,812.662292 
	C378.448273,823.974854 378.106049,823.830139 364.361938,822.613403 
z"/>
<path fill="#CBCBCB" opacity="1.000000" stroke="none" 
	d="
M350.570862,753.865601 
	C350.067108,752.945068 349.350708,751.669617 349.656677,750.725586 
	C351.797699,744.119324 353.950500,737.502258 356.513397,731.053162 
	C357.932159,727.483032 357.568970,724.911194 354.762909,722.218201 
	C351.072815,718.676941 347.743896,714.759277 344.290222,711.036438 
	C346.191284,707.673218 348.139709,704.783752 349.522095,701.645020 
	C351.421082,697.333618 347.255249,696.119385 345.004456,693.602417 
	C346.553467,693.521729 348.208801,693.634521 349.782654,694.053406 
	C355.915649,695.685486 356.600281,697.407471 353.376587,702.739563 
	C348.534668,710.748230 348.643127,710.859009 355.381989,717.198425 
	C358.985291,720.588074 364.365814,723.973206 365.055969,728.023071 
	C365.694000,731.767090 361.253937,736.457275 358.852112,740.616394 
	C356.299988,745.035706 353.514801,749.320496 350.570862,753.865601 
z"/>
<path fill="#F7F7F7" opacity="1.000000" stroke="none" 
	d="
M394.990967,836.675659 
	C389.332550,835.606628 383.604340,834.060791 377.806793,832.846069 
	C373.793549,832.005249 369.702728,831.371887 365.615387,831.074646 
	C343.328125,829.454102 321.095612,829.687256 299.097626,834.118896 
	C295.789276,834.785339 292.722168,836.649353 289.165680,837.994141 
	C291.141357,833.057190 295.890228,831.848572 300.573364,830.884277 
	C320.179291,826.847229 340.006500,826.067993 359.898651,827.760010 
	C368.621918,828.502014 377.337402,829.769104 385.922943,831.471069 
	C389.109039,832.102661 391.913239,834.660706 394.990967,836.675659 
z"/>
<path fill="#F6F6F6" opacity="1.000000" stroke="none" 
	d="
M316.766266,730.328125 
	C314.693420,735.607483 312.320374,741.055603 310.000702,746.526367 
	C302.889374,763.297668 297.642059,780.463928 298.947449,799.013123 
	C298.980042,799.476440 298.704163,799.961548 298.268127,800.726257 
	C293.712219,785.910278 294.949036,770.937378 301.106628,756.829407 
	C305.143890,747.579285 311.289246,739.249268 316.766266,730.328125 
z"/>
<path fill="#F6F6F6" opacity="1.000000" stroke="none" 
	d="
M318.639465,727.831421 
	C318.721588,728.045471 318.532776,728.377197 318.076874,728.827759 
	C317.996033,728.614197 318.182281,728.281677 318.639465,727.831421 
z"/>
<path fill="#EFEFEF" opacity="1.000000" stroke="none" 
	d="
M88.953995,135.981339 
	C88.967796,135.529449 88.981590,135.077545 89.462997,134.218719 
	C94.604713,122.615227 99.278809,111.418671 104.401978,100.106781 
	C108.229332,99.945068 111.607605,99.898682 115.221237,100.146332 
	C125.233780,102.689590 133.896774,106.843536 140.073883,115.101929 
	C151.851257,130.847519 155.636948,149.172180 157.103470,168.231934 
	C132.544479,165.415726 108.033867,165.272827 82.670906,169.696960 
	C84.140297,161.544907 85.561142,153.662140 87.304840,145.175568 
	C87.766891,143.386841 87.906097,142.201904 88.045303,141.016953 
	C88.039177,140.558365 88.033051,140.099777 88.445686,139.252136 
	C88.894302,137.902496 88.924149,136.941925 88.953995,135.981339 
z"/>
<path fill="#F0F0F0" opacity="1.000000" stroke="none" 
	d="
M176.851395,181.989532 
	C180.917480,187.624741 180.667587,194.100571 180.756348,200.731812 
	C142.722397,200.731812 104.975548,200.731812 65.887840,200.731812 
	C67.159004,194.666138 68.325684,189.099014 70.122757,183.226501 
	C76.482536,180.950302 82.112335,177.706177 87.960106,177.248764 
	C105.120399,175.906479 122.363449,175.502167 139.582718,175.106247 
	C144.818710,174.985886 150.157730,175.704056 155.315857,176.718201 
	C162.559814,178.142456 169.678909,180.201797 176.851395,181.989532 
z"/>
<path fill="#EFEFEF" opacity="1.000000" stroke="none" 
	d="
M135.128189,94.689651 
	C123.445366,94.846603 111.567368,93.722832 100.126328,95.466354 
	C83.740974,97.963341 80.147911,90.338257 78.192268,76.815269 
	C78.098381,76.166061 78.174721,75.492241 78.570953,74.305161 
	C81.311745,66.886734 83.653381,59.993042 85.995018,53.099342 
	C87.431305,52.993481 88.867584,52.887615 90.415985,52.773483 
	C91.701691,57.042019 92.955063,60.959915 94.046188,64.922485 
	C94.643532,67.091797 95.530914,68.217003 98.122574,68.072121 
	C102.908508,67.804573 107.720078,67.995644 112.790535,67.995644 
	C113.659828,62.083363 114.427582,56.861683 115.243080,51.315254 
	C120.681114,51.315254 126.099998,51.315254 132.170715,51.315254 
	C132.928177,56.425533 133.714020,61.727238 134.645325,68.010414 
	C139.813232,68.010414 144.934006,68.177544 150.027893,67.881691 
	C151.165833,67.815598 152.752258,66.328545 153.197495,65.144279 
	C154.706711,61.129982 155.796722,56.958099 157.147430,52.515812 
	C159.129517,52.722729 160.887405,52.906239 162.919891,53.743790 
	C163.145096,55.057934 163.055161,55.717857 163.052216,56.378166 
	C162.985123,71.459175 159.482605,84.907227 145.544937,93.448967 
	C145.206390,93.656441 145.141846,94.310974 144.503616,94.806183 
	C141.081207,94.800133 138.104706,94.744896 135.128189,94.689651 
z"/>
<path fill="#C9C9C9" opacity="1.000000" stroke="none" 
	d="
M157.491074,168.339874 
	C155.636948,149.172180 151.851257,130.847519 140.073883,115.101929 
	C133.896774,106.843536 125.233780,102.689590 115.576416,99.937294 
	C128.090256,100.148033 140.484283,100.861832 152.878311,101.575623 
	C155.099503,114.471344 157.303543,127.370049 159.547607,140.261795 
	C161.189636,149.694839 162.884277,159.118713 164.695389,169.335953 
	C161.975510,168.981567 159.927094,168.714691 157.491074,168.339874 
z"/>
<path fill="#CACACA" opacity="1.000000" stroke="none" 
	d="
M144.949493,94.756989 
	C145.141846,94.310974 145.206390,93.656441 145.544937,93.448967 
	C159.482605,84.907227 162.985123,71.459175 163.052216,56.378166 
	C163.055161,55.717857 163.145096,55.057934 163.307281,53.904808 
	C164.737305,53.598064 166.056931,53.769634 167.370117,53.981220 
	C167.688187,54.032467 167.984970,54.215775 169.532074,54.834366 
	C169.044327,64.096382 169.087692,73.875412 167.748749,83.461380 
	C167.215881,87.276337 163.623856,90.664001 160.816864,94.595825 
	C155.122635,94.882629 150.036057,94.819809 144.949493,94.756989 
z"/>
<path fill="#FAFAFA" opacity="1.000000" stroke="none" 
	d="
M176.768829,181.655945 
	C169.678909,180.201797 162.559814,178.142456 155.315857,176.718201 
	C150.157730,175.704056 144.818710,174.985886 139.582718,175.106247 
	C122.363449,175.502167 105.120399,175.906479 87.960106,177.248764 
	C82.112335,177.706177 76.482536,180.950302 70.398796,182.958710 
	C72.360909,180.968124 74.390335,177.787338 77.047112,177.125717 
	C85.336929,175.061249 93.810623,173.387161 102.309723,172.580139 
	C123.017944,170.613831 143.743988,170.999390 164.181808,175.181335 
	C168.584473,176.082199 172.530090,179.216721 176.768829,181.655945 
z"/>
<path fill="#353535" opacity="1.000000" stroke="none" 
	d="
M144.503601,94.806183 
	C150.036057,94.819809 155.122635,94.882629 160.628357,94.858139 
	C159.779800,95.842545 158.560364,96.979210 157.230896,97.967926 
	C155.874176,98.976883 154.409332,99.840500 152.935074,101.171692 
	C140.484283,100.861832 128.090256,100.148033 115.341057,99.643265 
	C111.607605,99.898682 108.229332,99.945068 104.082794,100.043930 
	C102.440041,100.088356 101.565552,100.080299 100.691055,100.072235 
	C100.915565,96.653877 103.429848,97.092400 105.739120,96.974678 
	C115.361298,96.484138 124.979782,95.921371 134.863907,95.037369 
	C138.104706,94.744896 141.081207,94.800133 144.503601,94.806183 
z"/>
<path fill="#F6F6F6" opacity="1.000000" stroke="none" 
	d="
M100.466370,100.272461 
	C101.565552,100.080299 102.440041,100.088356 103.633713,100.159271 
	C99.278809,111.418671 94.604713,122.615227 89.587128,133.900726 
	C91.127762,123.192451 93.011894,112.395241 94.941483,101.337555 
	C96.749535,101.042519 98.495613,100.757607 100.466370,100.272461 
z"/>
<path fill="#F6F6F6" opacity="1.000000" stroke="none" 
	d="
M85.591293,53.083046 
	C83.653381,59.993042 81.311745,66.886734 78.608826,73.884598 
	C78.247543,67.486671 78.247543,60.984570 78.247543,54.367016 
	C81.076050,53.837074 83.131805,53.451908 85.591293,53.083046 
z"/>
<path fill="#F6F6F6" opacity="1.000000" stroke="none" 
	d="
M87.837227,141.289429 
	C87.906097,142.201904 87.766891,143.386841 87.399307,144.765930 
	C87.323662,143.827347 87.476410,142.694626 87.837227,141.289429 
z"/>
<path fill="#F6F6F6" opacity="1.000000" stroke="none" 
	d="
M88.777466,136.241638 
	C88.924149,136.941925 88.894302,137.902496 88.557373,138.926407 
	C88.367180,138.160461 88.484062,137.331207 88.777466,136.241638 
z"/>
<path fill="#EFEFEF" opacity="1.000000" stroke="none" 
	d="
M789.945557,821.791260 
	C775.046753,822.247192 760.147888,822.703125 744.791626,823.173096 
	C744.196045,810.365112 741.434753,797.676941 734.976807,785.231689 
	C732.111267,777.652649 729.559631,770.691772 726.317383,764.069031 
	C724.046204,759.429688 720.832214,755.251831 718.039307,750.867920 
	C720.386658,751.614624 722.700439,752.499207 725.088135,753.080261 
	C730.503540,754.398010 734.109863,752.088318 735.360413,746.671570 
	C737.433228,737.692993 739.485229,736.792908 747.400146,741.402466 
	C749.257263,742.484131 751.062988,743.660095 752.957947,744.669617 
	C758.995056,747.885681 764.391479,747.015991 769.205688,742.082886 
	C770.712524,740.538879 772.102295,738.879700 773.624084,737.351257 
	C777.996399,732.959656 780.977905,733.041260 785.311035,737.646301 
	C786.219055,738.611206 787.024780,739.671936 787.883972,740.683228 
	C793.577576,747.385437 799.705322,748.362976 807.159302,743.749573 
	C807.722717,743.400940 808.226135,742.955444 808.789062,742.605652 
	C818.654358,736.475342 819.587646,736.797180 823.284851,747.580017 
	C825.298401,753.452454 829.571350,754.812561 837.572205,752.279419 
	C837.707397,753.487061 837.617432,754.550781 837.086792,755.303894 
	C826.547607,770.260864 815.962219,785.185303 805.375793,800.108948 
	C800.243286,807.344116 795.089600,814.564270 789.945557,821.791260 
z"/>
<path fill="#ECECEC" opacity="1.000000" stroke="none" 
	d="
M832.086853,837.010925 
	C836.547180,842.673340 836.131531,849.291809 836.108643,856.216064 
	C798.127014,856.216064 760.462585,856.216064 721.270325,856.216064 
	C722.638184,850.073181 723.933594,844.255737 725.888062,838.198608 
	C729.908264,836.639648 733.162903,834.805176 736.647766,834.085510 
	C758.411377,829.590576 780.421509,829.528748 802.473511,831.073303 
	C806.744873,831.372498 811.017517,832.055481 815.213684,832.926941 
	C820.876526,834.103027 826.465942,835.632874 832.086853,837.010925 
z"/>
<path fill="#ECECEC" opacity="1.000000" stroke="none" 
	d="
M797.988220,740.957947 
	C795.752014,739.484131 793.065613,738.407715 791.355103,736.469910 
	C782.441956,726.372620 776.337341,726.291016 767.454773,736.516296 
	C762.497803,742.222351 759.881958,742.651733 753.320190,738.801514 
	C751.197388,737.555847 749.099854,736.267212 747.004150,735.006287 
	C754.870483,718.008423 778.241028,710.368042 794.313721,719.420654 
	C795.021118,719.819031 795.858093,719.987305 796.825562,720.915161 
	C799.353821,727.930115 800.981201,734.328247 797.988220,740.957947 
z"/>
<path fill="#CBCBCB" opacity="1.000000" stroke="none" 
	d="
M790.398743,821.874878 
	C795.089600,814.564270 800.243286,807.344116 805.375793,800.108948 
	C815.962219,785.185303 826.547607,770.260864 837.086792,755.303894 
	C837.617432,754.550781 837.707397,753.487061 837.940979,752.190674 
	C837.879395,751.813293 837.941223,751.877197 838.226074,751.904419 
	C839.005859,751.623901 839.500732,751.316223 839.995544,751.008545 
	C841.953247,750.515259 843.910889,750.021973 845.868591,749.528687 
	C830.577087,772.595459 813.537781,794.203552 813.955811,823.763916 
	C805.943420,823.137817 798.397644,822.548157 790.398743,821.874878 
z"/>
<path fill="#F7F7F7" opacity="1.000000" stroke="none" 
	d="
M831.987305,836.675537 
	C826.465942,835.632874 820.876526,834.103027 815.213684,832.926941 
	C811.017517,832.055481 806.744873,831.372498 802.473511,831.073303 
	C780.421509,829.528748 758.411377,829.590576 736.647766,834.085510 
	C733.162903,834.805176 729.908264,836.639648 726.169800,837.993774 
	C728.025391,833.185547 732.631714,831.895447 737.152405,830.966125 
	C756.837769,826.919556 776.751343,826.048218 796.735168,827.750488 
	C805.496094,828.496765 814.249756,829.759583 822.873474,831.462769 
	C826.074463,832.095032 828.894165,834.657776 831.987305,836.675537 
z"/>
<path fill="#EDEDED" opacity="1.000000" stroke="none" 
	d="
M784.914917,708.677368 
	C778.824036,711.270874 773.228699,710.929749 770.104553,706.548584 
	C768.343262,704.078674 767.334595,700.013855 767.990906,697.122498 
	C769.012878,692.620850 773.180115,690.221191 777.799683,690.148010 
	C780.438965,690.106201 783.099731,691.418091 785.891968,692.911133 
	C785.660400,698.693542 785.287659,703.685486 784.914917,708.677368 
z"/>
<path fill="#F6F6F6" opacity="1.000000" stroke="none" 
	d="
M717.751221,750.693054 
	C720.832214,755.251831 724.046204,759.429688 726.317383,764.069031 
	C729.559631,770.691772 732.111267,777.652649 734.926758,784.885620 
	C727.307007,773.628235 719.718506,761.954407 711.590393,749.450500 
	C713.896851,749.869812 715.680054,750.194031 717.751221,750.693054 
z"/>
<path fill="#CBCBCB" opacity="1.000000" stroke="none" 
	d="
M798.376709,741.027222 
	C800.981201,734.328247 799.353821,727.930115 797.076050,721.162903 
	C803.004639,723.356140 807.682129,727.825989 811.898438,735.276123 
	C807.486572,737.231384 803.125916,739.163940 798.376709,741.027222 
z"/>
<path fill="#CACACA" opacity="1.000000" stroke="none" 
	d="
M785.257141,708.654541 
	C785.287659,703.685486 785.660400,698.693542 786.088623,693.225220 
	C792.674072,696.671509 792.439270,703.519714 785.257141,708.654541 
z"/>
<path fill="#EFEFEF" opacity="1.000000" stroke="none" 
	d="
M839.684937,750.978027 
	C839.500732,751.316223 839.005859,751.623901 838.197083,751.938110 
	C838.380188,751.612244 838.877197,751.279907 839.684937,750.978027 
z"/>
<path fill="#F0F0F0" opacity="1.000000" stroke="none" 
	d="
M377.068665,389.697510 
	C390.043457,395.494781 396.630829,405.800964 395.440063,419.075653 
	C393.954102,419.185272 392.373566,419.402679 390.792938,419.403656 
	C358.349243,419.423584 325.905518,419.434052 293.461914,419.380035 
	C291.563843,419.376892 288.794678,420.483826 289.129181,416.397278 
	C295.678680,405.009766 304.054138,396.380188 314.668335,389.871552 
	C321.014648,385.979980 325.389252,380.330902 327.201538,373.212006 
	C328.212128,369.242279 331.663940,365.266663 328.529144,360.774200 
	C328.954346,359.392914 329.379547,358.011627 330.183228,356.109497 
	C330.673370,355.210449 330.785095,354.832214 330.896790,354.453979 
	C331.053101,353.643402 331.209412,352.832855 331.705872,352.284851 
	C340.020630,367.511139 351.273438,379.356018 366.229828,387.359283 
	C369.362762,389.035797 373.431274,388.963776 377.068665,389.697510 
z"/>
<path fill="#EFEFEF" opacity="1.000000" stroke="none" 
	d="
M333.994141,283.099548 
	C342.148651,279.901794 349.670380,281.201721 356.834930,286.925568 
	C357.216248,288.352600 357.205109,289.306335 357.659760,289.908173 
	C366.127289,301.116119 361.966461,312.640503 352.541504,320.027313 
	C350.291473,321.790741 348.026611,323.535156 345.255493,325.686646 
	C348.466217,327.251190 350.716705,328.708466 353.181732,329.482910 
	C361.363770,332.053436 366.232086,336.420044 362.940063,345.776581 
	C346.507477,345.776581 330.074890,345.776581 312.960907,345.776581 
	C312.601807,342.847382 311.986237,339.811371 311.985291,336.775238 
	C311.984924,335.665924 313.216705,334.205322 314.281616,333.513214 
	C317.330231,331.531921 320.500275,329.694092 323.774628,328.115082 
	C327.450439,326.342468 327.711700,324.375122 325.321533,321.146606 
	C323.196564,318.276276 321.708527,314.934357 320.202515,311.198486 
	C323.082489,303.876526 325.470062,297.053528 328.425659,290.486145 
	C329.659729,287.743988 332.101501,285.545349 333.994141,283.099548 
z"/>
<path fill="#CACACA" opacity="1.000000" stroke="none" 
	d="
M376.911682,389.413300 
	C373.431274,388.963776 369.362762,389.035797 366.229828,387.359283 
	C351.273438,379.356018 340.020630,367.511139 332.015259,352.178589 
	C338.403290,351.617737 344.824585,351.281281 351.238098,351.392761 
	C352.177521,351.409119 353.501801,353.419800 353.932068,354.740875 
	C357.132660,364.567841 361.147339,373.982422 368.122559,381.757965 
	C370.626892,384.549683 373.856232,386.690948 376.911682,389.413300 
z"/>
<path fill="#CBCBCB" opacity="1.000000" stroke="none" 
	d="
M363.385864,345.848236 
	C366.232086,336.420044 361.363770,332.053436 353.181732,329.482910 
	C350.716705,328.708466 348.466217,327.251190 345.255493,325.686646 
	C348.026611,323.535156 350.291473,321.790741 352.541504,320.027313 
	C361.966461,312.640503 366.127289,301.116119 357.659760,289.908173 
	C357.205109,289.306335 357.216248,288.352600 357.069519,287.178711 
	C366.942810,294.584137 368.487762,308.936249 360.622681,319.255219 
	C355.983154,325.342255 355.995697,325.320801 362.417786,329.056427 
	C365.959167,331.116425 369.450348,333.262787 372.879822,335.319611 
	C372.406586,338.985626 371.985474,342.248077 371.511505,345.919891 
	C368.739075,345.919891 366.285370,345.919891 363.385864,345.848236 
z"/>
<path fill="#FAFAFA" opacity="1.000000" stroke="none" 
	d="
M328.313354,361.051422 
	C331.663940,365.266663 328.212128,369.242279 327.201538,373.212006 
	C325.389252,380.330902 321.014648,385.979980 314.668335,389.871552 
	C304.054138,396.380188 295.678680,405.009766 289.293640,415.955566 
	C288.560394,404.141144 295.090454,396.276123 304.628418,390.921570 
	C316.648224,384.173615 323.462372,373.716980 328.313354,361.051422 
z"/>
<path fill="#F7F7F7" opacity="1.000000" stroke="none" 
	d="
M333.637695,283.081146 
	C332.101501,285.545349 329.659729,287.743988 328.425659,290.486145 
	C325.470062,297.053528 323.082489,303.876526 320.160767,310.832733 
	C316.428375,299.073242 321.617462,288.248413 333.637695,283.081146 
z"/>
<path fill="#FAFAFA" opacity="1.000000" stroke="none" 
	d="
M330.634827,354.623474 
	C330.785095,354.832214 330.673370,355.210449 330.335571,355.781189 
	C330.197266,355.580078 330.285065,355.186523 330.634827,354.623474 
z"/>
</svg>