<svg version="1.1" id="Layer_1" xmlns="http://www.w3.org/2000/svg" xmlns:xlink="http://www.w3.org/1999/xlink" x="0px" y="0px"
	 width="100%" viewBox="0 0 360 360" enable-background="new 0 0 360 360" xml:space="preserve">
<path fill="#FFCE9E" opacity="1.000000" stroke="none" 
	d="
M1.000000,91.000000 
	C1.000000,61.073086 1.000000,31.146170 1.000000,1.000000 
	C30.687201,1.000000 60.374943,1.000000 90.531342,1.468657 
	C91.009529,31.634098 91.019058,61.330879 90.557358,91.017403 
	C60.390751,91.004761 30.695375,91.002380 1.000000,91.000000 
z"/>
<path fill="#D18B47" opacity="1.000000" stroke="none" 
	d="
M91.028595,91.027664 
	C91.019058,61.330879 91.009529,31.634098 91.000000,1.468657 
	C120.687561,1.000000 150.375122,1.000000 180.531342,1.468657 
	C181.009415,31.633986 181.018829,61.330658 180.557037,91.017189 
	C150.379837,90.993988 120.673851,90.980919 90.982956,90.982841 
	C90.998039,90.997833 91.028595,91.027664 91.028595,91.027664 
z"/>
<path fill="#FFCE9E" opacity="1.000000" stroke="none" 
	d="
M181.028244,91.027328 
	C181.018829,61.330658 181.009415,31.633986 181.000000,1.468657 
	C210.687561,1.000000 240.375122,1.000000 270.532410,1.468656 
	C270.990570,31.635736 270.978973,61.334160 270.983704,91.016296 
	C271.000000,91.000000 271.032593,90.967415 270.561401,90.980339 
	C240.382584,90.984642 210.675003,90.976021 180.982529,90.982422 
	C180.997650,90.997437 181.028244,91.027328 181.028244,91.027328 
z"/>
<path fill="#FFCE9E" opacity="1.000000" stroke="none" 
	d="
M361.000000,271.000000 
	C361.000000,300.926910 361.000000,330.853821 361.000000,361.000000 
	C331.312805,361.000000 301.625061,361.000000 271.468628,360.531342 
	C270.990234,330.365753 270.980469,300.668823 271.442017,270.981537 
	C301.608917,270.994110 331.304443,270.997070 361.000000,271.000000 
z"/>
<path fill="#D18B47" opacity="1.000000" stroke="none" 
	d="
M270.970703,270.971893 
	C270.980469,300.668823 270.990234,330.365753 271.000000,360.531342 
	C241.312439,361.000000 211.624878,361.000000 181.470337,360.531342 
	C180.992874,330.366028 180.982407,300.669373 181.443115,270.984497 
	C211.620148,271.007812 241.325974,271.019348 271.016174,271.016602 
	C271.000549,271.002289 270.970734,270.971893 270.970703,270.971893 
z"/>
<path fill="#FFCE9E" opacity="1.000000" stroke="none" 
	d="
M1.000000,271.000000 
	C1.000000,241.312439 1.000000,211.624878 1.468657,181.468658 
	C31.633986,181.009415 61.330658,181.018829 91.012383,181.012939 
	C90.997437,180.997650 90.967422,180.967422 90.980316,181.438629 
	C90.984245,211.617111 90.975273,241.324417 90.982742,271.017822 
	C90.999168,271.003906 91.027786,270.971527 90.557495,270.982239 
	C60.391468,270.995300 30.695734,270.997650 1.000000,271.000000 
z"/>
<path fill="#D18B47" opacity="1.000000" stroke="none" 
	d="
M91.027328,181.028244 
	C61.330658,181.018829 31.633986,181.009415 1.468657,181.000000 
	C1.000000,151.312439 1.000000,121.624878 1.000000,91.468658 
	C30.695375,91.002380 60.390751,91.004761 90.557358,91.017403 
	C91.028595,91.027664 90.998039,90.997833 90.994568,91.454010 
	C91.003166,121.616203 91.015244,151.322220 91.027328,181.028244 
z"/>
<path fill="#FFCE9E" opacity="1.000000" stroke="none" 
	d="
M361.000000,91.000000 
	C361.000000,120.687561 361.000000,150.375122 360.531342,180.532089 
	C330.365723,181.010757 300.668732,181.020035 270.981110,180.557983 
	C271.004486,150.380264 271.018555,120.673836 271.032593,90.967415 
	C271.032593,90.967415 271.000000,91.000000 271.454895,91.003372 
	C301.606537,91.004494 331.303284,91.002243 361.000000,91.000000 
z"/>
<path fill="#D08A47" opacity="1.000000" stroke="none" 
	d="
M1.000000,271.468658 
	C30.695734,270.997650 60.391468,270.995300 90.544678,271.453369 
	C91.001442,301.609222 91.000725,331.304626 91.000000,361.000000 
	C61.073086,361.000000 31.146173,361.000000 1.000000,361.000000 
	C1.000000,331.312805 1.000000,301.625061 1.000000,271.468658 
M68.905563,342.752197 
	C67.228714,334.451538 63.343124,327.519043 56.149921,322.616852 
	C60.697720,315.495239 60.807793,308.840607 55.024437,302.429779 
	C54.243816,301.564453 54.257790,299.738342 54.337421,298.382599 
	C54.708187,292.070435 50.662197,287.418884 44.764862,287.563019 
	C39.065952,287.702271 35.263268,292.253784 35.666965,298.343933 
	C35.749649,299.591217 36.018684,301.348816 35.346588,302.042145 
	C29.051987,308.535767 29.292284,315.504486 33.733978,322.652313 
	C23.914196,329.917511 20.340736,339.538086 20.636583,351.292419 
	C37.036362,351.292419 53.051620,351.292419 69.544281,351.292419 
	C69.346184,348.472351 69.174255,346.024719 68.905563,342.752197 
z"/>
<path fill="#D08A47" opacity="1.000000" stroke="none" 
	d="
M270.971771,181.029297 
	C300.668732,181.020035 330.365723,181.010757 360.531342,181.000748 
	C361.000000,210.687561 361.000000,240.375122 361.000000,270.531342 
	C331.304443,270.997070 301.608917,270.994110 271.442047,270.981537 
	C270.970734,270.971893 271.000549,271.002289 271.007111,270.545532 
	C271.019440,240.382034 271.025208,210.675308 271.016388,180.983856 
	C271.001770,180.999161 270.971771,181.029297 270.971771,181.029297 
M290.492859,259.306793 
	C291.989105,260.083435 293.476807,261.514801 294.982910,261.534424 
	C308.457458,261.709900 321.935272,261.647217 335.412048,261.619110 
	C336.675262,261.616486 337.937958,261.370056 340.341156,261.116516 
	C338.952179,255.359787 338.435272,249.768707 336.210663,244.969208 
	C333.994904,240.188797 330.065369,236.202728 326.721802,231.642700 
	C330.738251,225.378799 330.683990,218.889816 325.159424,212.562119 
	C324.300903,211.578751 324.325409,209.581802 324.394165,208.074188 
	C324.667297,202.085678 320.663025,197.536667 314.949829,197.563126 
	C309.247131,197.589539 305.280975,202.162430 305.623291,208.163971 
	C305.701965,209.543182 305.880005,211.435287 305.115509,212.261749 
	C299.126526,218.736053 299.300537,225.542496 303.790222,232.670135 
	C294.692963,239.071960 291.047241,247.996216 290.492859,259.306793 
z"/>
<path fill="#FDCD9D" opacity="1.000000" stroke="none" 
	d="
M91.468658,361.000000 
	C91.000725,331.304626 91.001442,301.609222 91.014969,271.442688 
	C91.027786,270.971527 90.999168,271.003906 91.454018,271.003540 
	C121.616837,271.013031 151.324814,271.022888 181.017609,271.017761 
	C181.002457,271.002747 180.971939,270.972717 180.971924,270.972717 
	C180.982407,300.669373 180.992874,330.366028 181.001678,360.531342 
	C151.312439,361.000000 121.624878,361.000000 91.468658,361.000000 
M119.066910,332.692657 
	C121.260506,335.296173 123.454102,337.899689 126.022194,340.947662 
	C121.660912,340.947662 116.978271,340.531189 112.415588,341.091522 
	C109.283005,341.476196 106.228546,343.038635 103.333199,344.467712 
	C102.514275,344.871887 101.775162,346.875214 102.090065,347.754608 
	C102.439186,348.729614 103.953094,349.600708 105.114594,349.885315 
	C106.324493,350.181763 107.716728,349.649689 109.033257,349.608582 
	C119.599174,349.278412 130.167099,348.712097 140.732269,348.754181 
	C149.170700,348.787781 157.603165,349.684570 166.045975,349.911194 
	C167.386322,349.947205 168.767288,348.469238 170.129471,347.691193 
	C169.412872,346.503815 168.972092,344.737061 167.927063,344.239594 
	C165.003586,342.847839 161.902817,341.494781 158.738266,341.022308 
	C154.150818,340.337463 149.446014,340.438751 144.791260,340.204742 
	C148.511642,338.069244 153.271835,337.709045 152.997482,331.340912 
	C152.751282,330.625763 152.505081,329.910645 152.074005,328.490326 
	C151.197678,326.776184 150.321365,325.062012 149.441284,323.349731 
	C159.433197,313.544220 156.693771,303.486023 140.761703,291.969666 
	C142.650604,288.447418 143.832214,284.491272 139.725357,282.011047 
	C137.878235,280.895569 134.327957,280.802917 132.470566,281.861084 
	C128.061234,284.373138 129.381165,288.506744 131.251999,292.165131 
	C115.570419,302.301025 112.610077,313.410034 122.489204,323.340485 
	C121.544594,325.356110 120.642303,327.281403 119.293419,329.592621 
	C119.220901,330.374908 119.148384,331.157196 119.066910,332.692657 
z"/>
<path fill="#D08A47" opacity="1.000000" stroke="none" 
	d="
M361.000000,90.531342 
	C331.303284,91.002243 301.606537,91.004494 271.438599,91.019661 
	C270.978973,61.334160 270.990570,31.635736 271.001099,1.468656 
	C300.926910,1.000000 330.853821,1.000000 361.000000,1.000000 
	C361.000000,30.687201 361.000000,60.374943 361.000000,90.531342 
M336.886658,31.297562 
	C333.278137,26.657244 328.947449,23.082754 322.726227,21.217522 
	C320.511200,19.919926 317.385681,19.147482 316.271149,17.215147 
	C313.966705,13.219876 312.322906,12.367743 309.550110,16.141401 
	C306.745850,19.957863 304.900818,20.063429 302.203949,16.218563 
	C301.452881,15.147806 299.397614,14.991827 297.940674,14.416189 
	C297.440613,15.887527 296.201538,17.591356 296.577698,18.787024 
	C297.751038,22.516605 295.936676,24.916380 294.169403,27.868237 
	C289.913788,34.976425 285.981812,42.306950 282.395020,49.776241 
	C280.254333,54.234108 281.758667,59.556068 284.842682,61.563042 
	C289.600525,64.659279 295.481323,64.636604 298.366974,62.036572 
	C303.753510,57.183136 309.389587,52.606625 315.137817,48.141174 
	C315.137817,48.141174 315.355499,48.365803 315.503967,49.134247 
	C314.820526,55.337845 310.624451,59.327690 306.891602,63.837765 
	C303.859222,67.501541 301.850464,72.109955 299.887115,76.521675 
	C298.840973,78.872406 300.086884,80.648590 303.055939,80.619835 
	C315.658295,80.497719 328.261108,80.419891 341.686768,80.702011 
	C348.826050,80.996132 348.831696,80.996132 348.828156,73.739746 
	C348.827332,72.074272 348.829956,70.405533 348.733795,68.743912 
	C348.107056,57.916092 347.261658,47.092098 342.217346,37.227905 
	C341.149475,35.139679 338.855072,33.678696 336.886658,31.297562 
z"/>
<path fill="#FFCE9E" opacity="1.000000" stroke="none" 
	d="
M91.012375,181.012939 
	C91.015244,151.322220 91.003166,121.616203 90.979477,91.439011 
	C120.673851,90.980919 150.379837,90.993988 180.557037,91.017189 
	C181.028244,91.027328 180.997650,90.997437 180.995453,91.453613 
	C180.985962,121.615845 180.978638,151.321899 180.987518,181.013580 
	C181.003723,180.999191 181.031754,180.966354 180.560715,180.979614 
	C150.382263,180.984375 120.674843,180.975891 90.967422,180.967422 
	C90.967422,180.967422 90.997437,180.997650 91.012375,181.012939 
z"/>
<path fill="#D08A47" opacity="1.000000" stroke="none" 
	d="
M180.971329,181.027969 
	C180.978638,151.321899 180.985962,121.615845 180.980347,91.438599 
	C210.675003,90.976021 240.382584,90.984642 270.561401,90.980339 
	C271.018555,120.673836 271.004486,150.380264 270.981110,180.557983 
	C270.971771,181.029297 271.001770,180.999161 270.545288,180.992432 
	C240.382996,180.999786 210.677170,181.013870 180.971329,181.027969 
M246.886658,121.297539 
	C243.278122,116.657234 238.947449,113.082748 232.726196,111.217514 
	C230.511185,109.919899 227.385696,109.147446 226.271149,107.215103 
	C223.966782,103.219955 222.322708,102.367752 219.550049,106.141388 
	C216.745804,109.958015 214.900833,110.063416 212.203964,106.218575 
	C211.452896,105.147804 209.397644,104.991844 207.940689,104.416206 
	C207.440628,105.887543 206.201584,107.591354 206.577744,108.787041 
	C207.751022,112.516609 205.936707,114.916397 204.169434,117.868256 
	C199.913788,124.976433 195.981812,132.306946 192.395035,139.776245 
	C190.254395,144.234039 191.758759,149.556091 194.842712,151.563034 
	C199.600555,154.659317 205.481339,154.636597 208.366989,152.036545 
	C213.753540,147.183105 219.389603,142.606613 225.137772,138.141174 
	C225.137772,138.141174 225.355392,138.365875 225.503906,139.134293 
	C224.820389,145.341187 221.064743,149.695419 216.746262,153.728989 
	C212.888062,157.332642 209.983780,161.409225 209.699188,166.984970 
	C209.566681,169.580978 210.487183,170.663116 213.038315,170.637955 
	C225.646576,170.513519 238.255203,170.426285 251.686722,170.701996 
	C258.826050,170.996170 258.831696,170.996170 258.828125,163.739761 
	C258.827301,162.074295 258.829956,160.405533 258.733795,158.743927 
	C258.107208,147.916092 257.261597,137.092133 252.217377,127.227921 
	C251.149536,125.139679 248.855072,123.678688 246.886658,121.297539 
z"/>
<path fill="#FDCD9D" opacity="1.000000" stroke="none" 
	d="
M180.987518,181.013580 
	C210.677170,181.013870 240.382996,180.999786 270.559937,180.977142 
	C271.025208,210.675308 271.019440,240.382034 271.022736,270.559814 
	C241.325974,271.019348 211.620148,271.007812 181.443130,270.984497 
	C180.971939,270.972717 181.002457,271.002747 181.002960,270.546509 
	C181.012909,240.382324 181.022339,210.674332 181.031754,180.966354 
	C181.031754,180.966354 181.003723,180.999191 180.987518,181.013580 
M246.088272,242.090881 
	C245.497513,241.016174 244.906754,239.941467 244.476166,237.963181 
	C244.511383,230.331131 244.546616,222.699081 244.973206,214.629669 
	C245.017426,214.439117 245.061646,214.248550 245.671844,213.770050 
	C247.071152,212.531693 248.470474,211.293320 249.930618,209.601654 
	C249.971115,209.063080 250.011612,208.524521 250.007858,207.079666 
	C250.007858,204.099319 250.007858,201.118988 250.007858,198.193039 
	C243.563751,196.909729 243.435638,197.255844 238.886093,200.765518 
	C237.653397,201.716461 233.965408,201.388397 232.854324,200.242035 
	C229.290985,196.565521 222.710861,196.566330 219.144913,200.243561 
	C218.033691,201.389435 213.533188,201.485672 213.221497,200.822662 
	C210.214005,194.425003 205.298019,198.769440 200.427444,197.457626 
	C201.065430,201.684753 201.562057,204.975220 202.162125,208.858292 
	C202.151413,209.257401 202.140701,209.656494 202.389282,210.633667 
	C203.920029,211.757599 205.450775,212.881546 207.210724,214.922256 
	C207.366379,222.905426 207.522034,230.888580 207.153656,239.423508 
	C206.721176,240.565155 206.288696,241.706787 205.312042,242.927063 
	C205.094955,243.209442 204.877884,243.491837 203.968079,244.290573 
	C204.011307,246.569580 204.054535,248.848572 203.260468,251.012512 
	C199.459000,251.182129 196.824921,251.969879 197.281998,256.984955 
	C197.789413,262.552246 201.656067,260.526703 204.270355,260.556885 
	C219.203461,260.729218 234.144684,260.419098 249.071777,260.764282 
	C254.089676,260.880341 254.959564,258.864044 254.634857,254.629349 
	C254.245880,249.556198 250.147812,252.259491 248.376450,250.369797 
	C248.030609,248.171188 247.684769,245.972595 247.131348,243.265289 
	C246.809082,243.117722 246.486832,242.970154 246.088272,242.090881 
z"/>
<path fill="#D08A47" opacity="1.000000" stroke="none" 
	d="
M180.560715,180.979614 
	C181.022339,210.674332 181.012909,240.382324 181.018127,270.561523 
	C151.324814,271.022888 121.616837,271.013031 91.437592,271.017426 
	C90.975273,241.324417 90.984245,211.617111 90.980316,181.438629 
	C120.674843,180.975891 150.382263,180.984375 180.560715,180.979614 
M156.086319,242.434769 
	C155.532791,241.255875 154.979263,240.076996 154.534256,237.983795 
	C154.698624,229.991745 154.863007,221.999695 155.629929,213.765427 
	C157.092285,212.495636 158.554642,211.225845 160.576263,209.366486 
	C160.588898,207.046494 160.865997,204.686981 160.527161,202.419510 
	C160.274261,200.727325 159.203857,197.757202 158.535110,197.767624 
	C155.507401,197.814789 151.842255,197.859909 149.637451,199.530334 
	C146.836929,201.652084 144.707291,202.286850 142.497543,199.204834 
	C140.716370,196.720566 131.368622,196.596817 129.571091,199.033707 
	C127.028900,202.480179 125.418320,201.970276 122.254265,199.212570 
	C120.428146,197.620987 116.919998,197.766418 114.138771,197.580215 
	C113.295906,197.523804 111.612137,198.945541 111.583107,199.736832 
	C111.458473,203.133789 111.806969,206.548141 112.310898,210.521378 
	C113.868423,211.682434 115.425957,212.843491 117.189743,214.925018 
	C117.316887,222.916855 117.444031,230.908691 117.124619,239.553345 
	C116.806320,240.758392 116.488014,241.963425 115.573311,242.975037 
	C115.274269,243.244507 114.975220,243.513977 114.019562,244.330933 
	C114.074493,246.596100 114.129417,248.861267 113.333595,251.013458 
	C109.451965,251.074234 106.775658,251.852798 107.223694,256.936371 
	C107.707924,262.430725 111.521805,260.592560 114.214668,260.619263 
	C129.189484,260.767700 144.166534,260.700928 159.142792,260.684692 
	C164.310226,260.679108 166.390823,258.295898 164.320389,253.687897 
	C163.637054,252.167068 160.066620,251.943466 158.270920,250.357422 
	C157.954636,248.166382 157.638351,245.975327 156.983475,243.259033 
	C156.600693,243.230484 156.217911,243.201935 156.086319,242.434769 
z"/>
<path fill="#040301" opacity="1.000000" stroke="none" 
	d="
M68.953941,343.164612 
	C69.174255,346.024719 69.346184,348.472351 69.544281,351.292419 
	C53.051620,351.292419 37.036362,351.292419 20.636583,351.292419 
	C20.340736,339.538086 23.914196,329.917511 33.733978,322.652313 
	C29.292284,315.504486 29.051987,308.535767 35.346588,302.042145 
	C36.018684,301.348816 35.749649,299.591217 35.666965,298.343933 
	C35.263268,292.253784 39.065952,287.702271 44.764862,287.563019 
	C50.662197,287.418884 54.708187,292.070435 54.337421,298.382599 
	C54.257790,299.738342 54.243816,301.564453 55.024437,302.429779 
	C60.807793,308.840607 60.697720,315.495239 56.149921,322.616852 
	C63.343124,327.519043 67.228714,334.451538 68.953941,343.164612 
z"/>
<path fill="#040301" opacity="1.000000" stroke="none" 
	d="
M290.508850,258.899963 
	C291.047241,247.996216 294.692963,239.071960 303.790222,232.670135 
	C299.300537,225.542496 299.126526,218.736053 305.115509,212.261749 
	C305.880005,211.435287 305.701965,209.543182 305.623291,208.163971 
	C305.280975,202.162430 309.247131,197.589539 314.949829,197.563126 
	C320.663025,197.536667 324.667297,202.085678 324.394165,208.074188 
	C324.325409,209.581802 324.300903,211.578751 325.159424,212.562119 
	C330.683990,218.889816 330.738251,225.378799 326.721802,231.642700 
	C330.065369,236.202728 333.994904,240.188797 336.210663,244.969208 
	C338.435272,249.768707 338.952179,255.359787 340.341156,261.116516 
	C337.937958,261.370056 336.675262,261.616486 335.412048,261.619110 
	C321.935272,261.647217 308.457458,261.709900 294.982910,261.534424 
	C293.476807,261.514801 291.989105,260.083435 290.508850,258.899963 
z"/>
<path fill="#050404" opacity="1.000000" stroke="none" 
	d="
M119.740021,329.206696 
	C120.642303,327.281403 121.544594,325.356110 122.489204,323.340485 
	C112.610077,313.410034 115.570419,302.301025 131.251999,292.165131 
	C129.381165,288.506744 128.061234,284.373138 132.470566,281.861084 
	C134.327957,280.802917 137.878235,280.895569 139.725357,282.011047 
	C143.832214,284.491272 142.650604,288.447418 140.761703,291.969666 
	C156.693771,303.486023 159.433197,313.544220 149.443176,323.348816 
	C150.321365,325.062012 151.197678,326.776184 151.690186,328.946960 
	C140.784241,329.337921 130.262131,329.272308 119.740021,329.206696 
M133.606613,321.326019 
	C130.569702,321.502167 127.532799,321.678314 124.495895,321.854492 
	C128.198044,325.766632 144.785919,325.511383 148.661865,321.326141 
	C143.157028,321.326141 138.861191,321.326141 133.606613,321.326019 
M130.690186,305.588593 
	C130.469345,306.387024 129.823563,307.666840 130.095566,307.906952 
	C132.092194,309.669434 134.272461,311.223846 136.196426,312.692352 
	C138.031967,310.870758 140.201508,308.717682 141.847321,307.084381 
	C139.662689,304.858337 137.601212,302.757782 136.032364,301.159180 
	C134.479279,302.596069 132.945770,304.014832 130.690186,305.588593 
z"/>
<path fill="#070604" opacity="1.000000" stroke="none" 
	d="
M152.923737,331.939819 
	C153.271835,337.709045 148.511642,338.069244 144.791260,340.204742 
	C149.446014,340.438751 154.150818,340.337463 158.738266,341.022308 
	C161.902817,341.494781 165.003586,342.847839 167.927063,344.239594 
	C168.972092,344.737061 169.412872,346.503815 170.129471,347.691193 
	C168.767288,348.469238 167.386322,349.947205 166.045975,349.911194 
	C157.603165,349.684570 149.170700,348.787781 140.732269,348.754181 
	C130.167099,348.712097 119.599174,349.278412 109.033257,349.608582 
	C107.716728,349.649689 106.324493,350.181763 105.114594,349.885315 
	C103.953094,349.600708 102.439186,348.729614 102.090065,347.754608 
	C101.775162,346.875214 102.514275,344.871887 103.333199,344.467712 
	C106.228546,343.038635 109.283005,341.476196 112.415588,341.091522 
	C116.978271,340.531189 121.660912,340.947662 126.022194,340.947662 
	C123.454102,337.899689 121.260506,335.296173 119.470200,332.413849 
	C124.971626,332.349518 130.071518,332.768280 135.167465,332.725037 
	C141.088028,332.674744 147.005127,332.219391 152.923737,331.939819 
z"/>
<path fill="#C0C0BF" opacity="1.000000" stroke="none" 
	d="
M152.960602,331.640381 
	C147.005127,332.219391 141.088028,332.674744 135.167465,332.725037 
	C130.071518,332.768280 124.971626,332.349518 119.474670,332.037262 
	C119.148384,331.157196 119.220901,330.374908 119.516724,329.399658 
	C130.262131,329.272308 140.784241,329.337921 151.782623,329.299530 
	C152.505081,329.910645 152.751282,330.625763 152.960602,331.640381 
z"/>
<path fill="#040303" opacity="1.000000" stroke="none" 
	d="
M340.863739,80.325890 
	C328.261108,80.419891 315.658295,80.497719 303.055939,80.619835 
	C300.086884,80.648590 298.840973,78.872406 299.887115,76.521675 
	C301.850464,72.109955 303.859222,67.501541 306.891602,63.837765 
	C310.624451,59.327690 314.820526,55.337845 315.596130,48.580189 
	C315.608582,47.750088 315.528870,47.474045 315.449158,47.198006 
	C315.273376,47.436966 315.097595,47.675922 314.921814,47.914879 
	C309.389587,52.606625 303.753510,57.183136 298.366974,62.036572 
	C295.481323,64.636604 289.600525,64.659279 284.842682,61.563042 
	C281.758667,59.556068 280.254333,54.234108 282.395020,49.776241 
	C285.981812,42.306950 289.913788,34.976425 294.169403,27.868237 
	C295.936676,24.916380 297.751038,22.516605 296.577698,18.787024 
	C296.201538,17.591356 297.440613,15.887527 297.940674,14.416187 
	C299.397614,14.991827 301.452881,15.147806 302.203949,16.218563 
	C304.900818,20.063429 306.745850,19.957863 309.550110,16.141401 
	C312.322906,12.367743 313.966705,13.219876 316.271149,17.215147 
	C317.385681,19.147482 320.511200,19.919926 322.507874,21.660137 
	C321.249268,22.612312 320.208984,23.121872 317.872253,24.266478 
	C331.651733,28.123590 337.620453,37.480442 339.525574,48.930275 
	C341.198395,58.984097 340.724457,69.395103 341.075623,79.798264 
	C340.952515,79.948189 340.863739,80.325890 340.863739,80.325890 
M297.187744,35.062332 
	C301.029297,37.608723 301.636230,33.881821 302.699677,31.897478 
	C303.151093,31.055090 302.124542,29.420658 301.769714,28.146187 
	C300.254852,29.392431 298.641113,30.542395 297.280853,31.939146 
	C296.828003,32.404156 297.024750,33.501820 297.187744,35.062332 
z"/>
<path fill="#F1F1F1" opacity="1.000000" stroke="none" 
	d="
M341.198730,79.648346 
	C340.724457,69.395103 341.198395,58.984097 339.525574,48.930275 
	C337.620453,37.480442 331.651733,28.123590 317.872253,24.266478 
	C320.208984,23.121872 321.249268,22.612312 322.646118,21.996653 
	C328.947449,23.082754 333.278137,26.657244 336.976440,31.971937 
	C346.591980,47.189030 346.252441,63.508400 345.903961,80.250603 
	C344.089111,80.018303 342.643921,79.833328 341.198730,79.648346 
z"/>
<path fill="#322417" opacity="1.000000" stroke="none" 
	d="
M341.075623,79.798264 
	C342.643921,79.833328 344.089111,80.018303 345.903961,80.250603 
	C346.252441,63.508400 346.591980,47.189030 337.095978,32.287514 
	C338.855072,33.678696 341.149475,35.139679 342.217346,37.227905 
	C347.261658,47.092098 348.107056,57.916092 348.733795,68.743912 
	C348.829956,70.405533 348.827332,72.074272 348.828156,73.739746 
	C348.831696,80.996132 348.826050,80.996132 341.275269,80.513947 
	C340.863739,80.325890 340.952515,79.948189 341.075623,79.798264 
z"/>
<path fill="#040303" opacity="1.000000" stroke="none" 
	d="
M250.863693,170.325928 
	C238.255203,170.426285 225.646576,170.513519 213.038315,170.637955 
	C210.487183,170.663116 209.566681,169.580978 209.699188,166.984970 
	C209.983780,161.409225 212.888062,157.332642 216.746262,153.728989 
	C221.064743,149.695419 224.820389,145.341187 225.596100,138.580261 
	C225.608597,137.750137 225.528915,137.474075 225.449203,137.197998 
	C225.273407,137.436966 225.097626,137.675919 224.921844,137.914886 
	C219.389603,142.606613 213.753540,147.183105 208.366989,152.036545 
	C205.481339,154.636597 199.600555,154.659317 194.842712,151.563034 
	C191.758759,149.556091 190.254395,144.234039 192.395035,139.776245 
	C195.981812,132.306946 199.913788,124.976433 204.169434,117.868256 
	C205.936707,114.916397 207.751022,112.516609 206.577744,108.787041 
	C206.201584,107.591354 207.440628,105.887543 207.940689,104.416206 
	C209.397644,104.991844 211.452896,105.147804 212.203964,106.218575 
	C214.900833,110.063416 216.745804,109.958015 219.550049,106.141388 
	C222.322708,102.367752 223.966782,103.219955 226.271149,107.215103 
	C227.385696,109.147446 230.511185,109.919899 232.507843,111.660126 
	C231.249237,112.612312 230.208969,113.121872 227.872131,114.266556 
	C241.651855,118.123497 247.620346,127.480560 249.525543,138.930313 
	C251.198441,148.984116 250.724503,159.395157 251.075638,169.798309 
	C250.952499,169.948227 250.863693,170.325928 250.863693,170.325928 
M209.222260,125.951508 
	C210.510956,124.176147 211.928406,122.468994 212.945312,120.549644 
	C213.092651,120.271538 211.201279,118.181107 210.456543,118.292168 
	C207.581284,118.720932 206.538254,123.130524 209.222260,125.951508 
z"/>
<path fill="#F1F1F1" opacity="1.000000" stroke="none" 
	d="
M251.198776,169.648407 
	C250.724503,159.395157 251.198441,148.984116 249.525543,138.930313 
	C247.620346,127.480560 241.651855,118.123497 227.872131,114.266556 
	C230.208969,113.121872 231.249237,112.612312 232.646088,111.996643 
	C238.947449,113.082748 243.278122,116.657234 246.976410,121.971909 
	C256.592102,137.188965 256.252472,153.508347 255.903839,170.250549 
	C254.090332,170.018463 252.644562,169.833435 251.198776,169.648407 
z"/>
<path fill="#322417" opacity="1.000000" stroke="none" 
	d="
M251.075638,169.798309 
	C252.644562,169.833435 254.090332,170.018463 255.903839,170.250549 
	C256.252472,153.508347 256.592102,137.188965 247.095978,122.287491 
	C248.855072,123.678688 251.149536,125.139679 252.217377,127.227921 
	C257.261597,137.092133 258.107208,147.916092 258.733795,158.743927 
	C258.829956,160.405533 258.827301,162.074295 258.828125,163.739761 
	C258.831696,170.996170 258.826050,170.996170 251.275208,170.513962 
	C250.863693,170.325928 250.952499,169.948227 251.075638,169.798309 
z"/>
<path fill="#000000" opacity="1.000000" stroke="none" 
	d="
M207.677689,238.871750 
	C207.522034,230.888580 207.366379,222.905426 207.320587,214.464020 
	C207.430435,214.005798 207.879333,214.001038 208.128647,214.363190 
	C220.192825,214.787033 232.007706,214.848724 243.997421,215.022125 
	C244.172272,215.133835 244.581833,215.067032 244.581833,215.067032 
	C244.546616,222.699081 244.511383,230.331131 244.257965,238.395447 
	C244.039749,238.827728 243.872955,239.056854 243.412979,239.052795 
	C231.344620,239.051361 219.736252,239.053986 208.043350,238.942139 
	C207.958832,238.827652 207.677689,238.871750 207.677689,238.871750 
z"/>
<path fill="#14100C" opacity="1.000000" stroke="none" 
	d="
M247.901413,251.127380 
	C250.147812,252.259491 254.245880,249.556198 254.634857,254.629349 
	C254.959564,258.864044 254.089676,260.880341 249.071777,260.764282 
	C234.144684,260.419098 219.203461,260.729218 204.270355,260.556885 
	C201.656067,260.526703 197.789413,262.552246 197.281998,256.984955 
	C196.824921,251.969879 199.459000,251.182129 203.645844,251.051193 
	C204.031219,251.089874 204.020157,251.012817 204.081512,251.435699 
	C204.603882,252.218018 205.063339,252.889206 205.526123,252.891510 
	C218.962753,252.958862 232.399963,252.989563 245.836014,252.887146 
	C246.555374,252.881668 247.265488,251.665436 247.974838,251.051422 
	C247.969757,251.090027 247.901413,251.127380 247.901413,251.127380 
z"/>
<path fill="#030202" opacity="1.000000" stroke="none" 
	d="
M202.058670,208.265686 
	C201.562057,204.975220 201.065430,201.684753 200.427444,197.457626 
	C205.298019,198.769440 210.214005,194.425003 213.221497,200.822662 
	C213.533188,201.485672 218.033691,201.389435 219.144913,200.243561 
	C222.710861,196.566330 229.290985,196.565521 232.854324,200.242035 
	C233.965408,201.388397 237.653397,201.716461 238.886093,200.765518 
	C243.435638,197.255844 243.563751,196.909729 250.007858,198.193039 
	C250.007858,201.118988 250.007858,204.099319 249.558350,207.573761 
	C233.425446,208.133789 217.742065,208.199738 202.058670,208.265686 
z"/>
<path fill="#000000" opacity="1.000000" stroke="none" 
	d="
M247.338928,243.773987 
	C247.684769,245.972595 248.030609,248.171188 248.138931,250.748596 
	C247.901413,251.127380 247.969757,251.090027 247.508301,251.074219 
	C232.704620,251.043213 218.362396,251.028015 204.020157,251.012817 
	C204.020157,251.012817 204.031219,251.089874 204.064484,251.108734 
	C204.054535,248.848572 204.011307,246.569580 204.639526,244.106171 
	C205.531647,243.948166 205.752289,243.974548 206.205948,244.368988 
	C218.956055,244.823288 231.473114,244.925232 243.990341,244.952759 
	C244.668549,244.954254 245.348129,244.332474 246.357925,243.960831 
	C246.905502,243.871902 247.122208,243.822952 247.338928,243.773987 
z"/>
<path fill="#020201" opacity="1.000000" stroke="none" 
	d="
M207.879333,214.001038 
	C207.879333,214.001038 207.430435,214.005798 207.205978,214.005646 
	C205.450775,212.881546 203.920029,211.757599 202.714935,210.321609 
	C218.650330,210.024689 234.260056,210.039825 249.869781,210.054962 
	C248.470474,211.293320 247.071152,212.531693 245.122589,213.892929 
	C244.395401,214.008987 244.217453,214.002151 243.800751,213.630829 
	C232.360596,213.180649 221.159241,213.077087 209.957687,213.052399 
	C209.265610,213.050858 208.572159,213.670441 207.879333,214.001038 
z"/>
<path fill="#FCFCFC" opacity="1.000000" stroke="none" 
	d="
M249.900208,209.828308 
	C234.260056,210.039825 218.650330,210.024689 202.585297,210.032578 
	C202.140701,209.656494 202.151413,209.257401 202.110397,208.561981 
	C217.742065,208.199738 233.425446,208.133789 249.580475,208.026886 
	C250.011612,208.524521 249.971115,209.063080 249.900208,209.828308 
z"/>
<path fill="#31271E" opacity="1.000000" stroke="none" 
	d="
M243.872955,239.056854 
	C243.872955,239.056854 244.039749,238.827728 244.177856,238.847260 
	C244.906754,239.941467 245.497513,241.016174 246.041092,242.548065 
	C245.993912,243.005234 245.822968,243.184555 245.366669,243.158112 
	C232.000580,243.146866 219.090790,243.162048 206.099182,243.095642 
	C206.017380,243.014038 205.856216,242.848434 205.856216,242.848434 
	C206.288696,241.706787 206.721176,240.565155 207.415680,239.147629 
	C207.677689,238.871750 207.958832,238.827652 208.089676,239.357498 
	C208.690475,240.225418 209.158676,240.855820 209.630646,240.858658 
	C220.328339,240.923035 231.026825,240.954910 241.723663,240.846848 
	C242.446045,240.839539 243.156784,239.680313 243.872955,239.056854 
z"/>
<path fill="#31271E" opacity="1.000000" stroke="none" 
	d="
M247.235138,243.519638 
	C247.122208,243.822952 246.905502,243.871902 246.249634,243.771118 
	C245.810471,243.621384 245.822968,243.184555 245.822968,243.184555 
	C245.822968,243.184555 245.993912,243.005234 246.079254,242.913910 
	C246.486832,242.970154 246.809082,243.117722 247.235138,243.519638 
z"/>
<path fill="#31271E" opacity="1.000000" stroke="none" 
	d="
M205.972946,244.000916 
	C205.752289,243.974548 205.531647,243.948166 204.985901,243.847992 
	C204.877884,243.491837 205.094955,243.209442 205.584137,242.887756 
	C205.856216,242.848434 206.017380,243.014038 206.103622,243.315826 
	C206.189865,243.617599 205.972946,244.000916 205.972946,244.000916 
z"/>
<path fill="#31271E" opacity="1.000000" stroke="none" 
	d="
M244.039505,213.995316 
	C244.217453,214.002151 244.395401,214.008987 244.839600,214.036896 
	C245.061646,214.248550 245.017426,214.439117 244.777527,214.848358 
	C244.581833,215.067032 244.172272,215.133835 243.999863,214.781067 
	C243.827454,214.428284 244.039505,213.995316 244.039505,213.995316 
z"/>
<path fill="#000000" opacity="1.000000" stroke="none" 
	d="
M117.571175,238.900528 
	C117.444031,230.908691 117.316887,222.916855 117.314606,214.464355 
	C117.439461,214.003693 117.895432,214.000961 118.143959,214.362579 
	C129.607635,214.814407 140.822754,214.922333 152.038055,214.951508 
	C152.724487,214.953293 153.412521,214.331924 154.331696,214.002563 
	C154.563599,214.004654 155.027374,214.007645 155.027374,214.007645 
	C154.863007,221.999695 154.698624,229.991745 154.317780,238.442917 
	C154.101318,238.902039 153.820328,239.074463 153.363831,239.059525 
	C141.331772,239.054382 129.756226,239.064178 118.040474,238.987808 
	C117.900284,238.901642 117.571175,238.900528 117.571175,238.900528 
z"/>
<path fill="#070502" opacity="1.000000" stroke="none" 
	d="
M111.983070,209.956146 
	C111.806969,206.548141 111.458473,203.133789 111.583107,199.736832 
	C111.612137,198.945541 113.295906,197.523804 114.138771,197.580215 
	C116.919998,197.766418 120.428146,197.620987 122.254265,199.212570 
	C125.418320,201.970276 127.028900,202.480179 129.571091,199.033707 
	C131.368622,196.596817 140.716370,196.720566 142.497543,199.204834 
	C144.707291,202.286850 146.836929,201.652084 149.637451,199.530334 
	C151.842255,197.859909 155.507401,197.814789 158.535110,197.767624 
	C159.203857,197.757202 160.274261,200.727325 160.527161,202.419510 
	C160.865997,204.686981 160.588898,207.046494 160.312988,209.680573 
	C160.049698,209.994659 160.044403,210.045685 159.992218,209.612839 
	C159.496231,208.804337 159.053970,208.102386 158.608368,208.100266 
	C143.740753,208.029587 128.872635,207.998611 114.005508,208.098495 
	C113.317871,208.103119 112.638702,209.367844 111.952591,210.020248 
	C111.949585,209.994812 111.983070,209.956146 111.983070,209.956146 
z"/>
<path fill="#100B05" opacity="1.000000" stroke="none" 
	d="
M157.816269,251.126724 
	C160.066620,251.943466 163.637054,252.167068 164.320389,253.687897 
	C166.390823,258.295898 164.310226,260.679108 159.142792,260.684692 
	C144.166534,260.700928 129.189484,260.767700 114.214668,260.619263 
	C111.521805,260.592560 107.707924,262.430725 107.223694,256.936371 
	C106.775658,251.852798 109.451965,251.074234 113.733803,251.062317 
	C114.134010,251.111176 114.089958,251.082443 114.127396,251.503799 
	C114.635933,252.268143 115.105629,252.908585 115.578323,252.910797 
	C128.978439,252.973755 142.379074,253.001602 155.778610,252.900635 
	C156.493866,252.895248 157.200287,251.715820 157.888733,251.097198 
	C157.866638,251.111481 157.816269,251.126724 157.816269,251.126724 
z"/>
<path fill="#000000" opacity="1.000000" stroke="none" 
	d="
M114.159180,251.118805 
	C114.129417,248.861267 114.074493,246.596100 114.665634,244.129578 
	C115.527214,243.950745 115.742729,243.973297 116.194077,244.363266 
	C128.953674,244.818924 141.477417,244.922943 154.001328,244.952118 
	C154.680725,244.953705 155.361588,244.328903 156.364990,243.961929 
	C156.899490,243.880234 157.110779,243.832260 157.322083,243.784286 
	C157.638351,245.975327 157.954636,248.166382 158.043594,250.742065 
	C157.816269,251.126724 157.866638,251.111481 157.426483,251.083893 
	C142.687531,251.065018 128.388748,251.073730 114.089958,251.082443 
	C114.089958,251.082443 114.134010,251.111176 114.159180,251.118805 
z"/>
<path fill="#020101" opacity="1.000000" stroke="none" 
	d="
M155.328644,213.886536 
	C155.027374,214.007645 154.563599,214.004654 154.078033,213.645111 
	C142.384308,213.192902 131.176178,213.082382 119.967850,213.050812 
	C119.277939,213.048874 118.586281,213.669830 117.895432,214.000961 
	C117.895432,214.000961 117.439461,214.003693 117.211472,214.004120 
	C115.425957,212.843491 113.868423,211.682434 112.146988,210.238770 
	C111.983070,209.956146 111.949585,209.994812 112.423248,209.989227 
	C128.612747,210.004333 144.328568,210.025009 160.044403,210.045685 
	C160.044403,210.045685 160.049698,209.994659 160.033356,209.975342 
	C158.554642,211.225845 157.092285,212.495636 155.328644,213.886536 
z"/>
<path fill="#281A0D" opacity="1.000000" stroke="none" 
	d="
M117.347900,239.226929 
	C117.571175,238.900528 117.900284,238.901642 118.055504,239.407074 
	C118.679008,240.250885 119.145538,240.881912 119.615837,240.884735 
	C130.323883,240.949005 141.032684,240.979828 151.739883,240.872437 
	C152.439301,240.865417 153.127106,239.700668 153.820312,239.074463 
	C153.820328,239.074463 154.101318,238.902039 154.263519,238.900070 
	C154.979263,240.076996 155.532791,241.255875 155.968750,242.795242 
	C155.851181,243.155716 155.834732,243.172852 155.377838,243.139496 
	C142.003922,243.126236 129.086884,243.146347 116.161446,243.157974 
	C116.153046,243.149490 116.169708,243.168472 116.169708,243.168472 
	C116.488014,241.963425 116.806320,240.758392 117.347900,239.226929 
z"/>
<path fill="#281A0D" opacity="1.000000" stroke="none" 
	d="
M157.152771,243.521667 
	C157.110779,243.832260 156.899490,243.880234 156.260468,243.769562 
	C155.832733,243.610916 155.834732,243.172852 155.834732,243.172852 
	C155.834732,243.172852 155.851181,243.155716 155.843155,243.164551 
	C156.217911,243.201935 156.600693,243.230484 157.152771,243.521667 
z"/>
<path fill="#281A0D" opacity="1.000000" stroke="none" 
	d="
M115.958244,243.995834 
	C115.742729,243.973297 115.527214,243.950745 114.993942,243.855835 
	C114.975220,243.513977 115.274269,243.244507 115.871506,243.071747 
	C116.169708,243.168472 116.153046,243.149490 116.160362,243.378540 
	C116.167679,243.607590 115.958244,243.995834 115.958244,243.995834 
z"/>
<path fill="#C2C2C2" opacity="1.000000" stroke="none" 
	d="
M134.085968,321.326080 
	C138.861191,321.326141 143.157028,321.326141 148.661865,321.326141 
	C144.785919,325.511383 128.198044,325.766632 124.495895,321.854492 
	C127.532799,321.678314 130.569702,321.502167 134.085968,321.326080 
z"/>
<path fill="#D1D1D1" opacity="1.000000" stroke="none" 
	d="
M131.051208,305.511108 
	C132.945770,304.014832 134.479279,302.596069 136.032364,301.159180 
	C137.601212,302.757782 139.662689,304.858337 141.847321,307.084381 
	C140.201508,308.717682 138.031967,310.870758 136.196426,312.692352 
	C134.272461,311.223846 132.092194,309.669434 130.095566,307.906952 
	C129.823563,307.666840 130.469345,306.387024 131.051208,305.511108 
z"/>
<path fill="#ECECEC" opacity="1.000000" stroke="none" 
	d="
M297.056152,34.686302 
	C297.024750,33.501820 296.828003,32.404156 297.280853,31.939146 
	C298.641113,30.542395 300.254852,29.392431 301.769714,28.146191 
	C302.124542,29.420658 303.151093,31.055090 302.699677,31.897478 
	C301.636230,33.881821 301.029297,37.608723 297.056152,34.686302 
z"/>
<path fill="#D08A47" opacity="1.000000" stroke="none" 
	d="
M315.029816,48.028027 
	C315.097595,47.675922 315.273376,47.436966 315.449158,47.198006 
	C315.528870,47.474045 315.608582,47.750088 315.521912,48.195969 
	C315.355499,48.365803 315.137817,48.141174 315.029816,48.028027 
z"/>
<path fill="#ECECEC" opacity="1.000000" stroke="none" 
	d="
M208.832733,125.951523 
	C206.538254,123.130524 207.581284,118.720932 210.456543,118.292168 
	C211.201279,118.181107 213.092651,120.271538 212.945312,120.549644 
	C211.928406,122.468994 210.510956,124.176147 208.832733,125.951523 
z"/>
<path fill="#D08A47" opacity="1.000000" stroke="none" 
	d="
M225.029800,138.028015 
	C225.097626,137.675919 225.273407,137.436966 225.449203,137.197998 
	C225.528915,137.474075 225.608597,137.750137 225.521851,138.196045 
	C225.355392,138.365875 225.137772,138.141174 225.029800,138.028015 
z"/>
<path fill="#FCFCFC" opacity="1.000000" stroke="none" 
	d="
M243.412964,239.052795 
	C243.156784,239.680313 242.446045,240.839539 241.723663,240.846848 
	C231.026825,240.954910 220.328339,240.923035 209.630646,240.858658 
	C209.158676,240.855820 208.690475,240.225418 208.174194,239.471985 
	C219.736252,239.053986 231.344620,239.051361 243.412964,239.052795 
z"/>
<path fill="#FCFCFC" opacity="1.000000" stroke="none" 
	d="
M243.800751,213.630829 
	C244.039505,213.995316 243.827454,214.428284 243.825012,214.669342 
	C232.007706,214.848724 220.192825,214.787033 208.128647,214.363190 
	C208.572159,213.670441 209.265610,213.050858 209.957687,213.052399 
	C221.159241,213.077087 232.360596,213.180649 243.800751,213.630829 
z"/>
<path fill="#FCFCFC" opacity="1.000000" stroke="none" 
	d="
M204.081512,251.435699 
	C218.362396,251.028015 232.704620,251.043213 247.513397,251.035614 
	C247.265488,251.665436 246.555374,252.881668 245.836014,252.887146 
	C232.399963,252.989563 218.962753,252.958862 205.526123,252.891510 
	C205.063339,252.889206 204.603882,252.218018 204.081512,251.435699 
z"/>
<path fill="#FCFCFC" opacity="1.000000" stroke="none" 
	d="
M206.205948,244.368988 
	C205.972946,244.000916 206.189865,243.617599 206.185425,243.397415 
	C219.090790,243.162048 232.000580,243.146866 245.366669,243.158112 
	C245.822968,243.184555 245.810471,243.621384 245.918762,243.811096 
	C245.348129,244.332474 244.668549,244.954254 243.990341,244.952759 
	C231.473114,244.925232 218.956055,244.823288 206.205948,244.368988 
z"/>
<path fill="#FCFCFC" opacity="1.000000" stroke="none" 
	d="
M118.143959,214.362579 
	C118.586281,213.669830 119.277939,213.048874 119.967850,213.050812 
	C131.176178,213.082382 142.384308,213.192902 153.846130,213.643036 
	C153.412521,214.331924 152.724487,214.953293 152.038055,214.951508 
	C140.822754,214.922333 129.607635,214.814407 118.143959,214.362579 
z"/>
<path fill="#FCFCFC" opacity="1.000000" stroke="none" 
	d="
M153.363831,239.059509 
	C153.127106,239.700668 152.439301,240.865417 151.739883,240.872437 
	C141.032684,240.979828 130.323883,240.949005 119.615837,240.884735 
	C119.145538,240.881912 118.679008,240.250885 118.195694,239.493225 
	C129.756226,239.064178 141.331772,239.054382 153.363831,239.059509 
z"/>
<path fill="#FDFDFD" opacity="1.000000" stroke="none" 
	d="
M159.992218,209.612854 
	C144.328568,210.025009 128.612747,210.004333 112.426254,210.014679 
	C112.638702,209.367844 113.317871,208.103119 114.005508,208.098495 
	C128.872635,207.998611 143.740753,208.029587 158.608368,208.100266 
	C159.053970,208.102386 159.496231,208.804337 159.992218,209.612854 
z"/>
<path fill="#FCFCFC" opacity="1.000000" stroke="none" 
	d="
M114.127396,251.503799 
	C128.388748,251.073730 142.687531,251.065018 157.448578,251.069611 
	C157.200287,251.715820 156.493866,252.895248 155.778610,252.900635 
	C142.379074,253.001602 128.978439,252.973755 115.578323,252.910797 
	C115.105629,252.908585 114.635933,252.268143 114.127396,251.503799 
z"/>
<path fill="#FCFCFC" opacity="1.000000" stroke="none" 
	d="
M116.194077,244.363266 
	C115.958244,243.995834 116.167679,243.607590 116.168762,243.387024 
	C129.086884,243.146347 142.003922,243.126236 155.377838,243.139496 
	C155.834732,243.172852 155.832733,243.610916 155.937256,243.803284 
	C155.361588,244.328903 154.680725,244.953705 154.001328,244.952118 
	C141.477417,244.922943 128.953674,244.818924 116.194077,244.363266 
z"/>
</svg>