<svg version="1.1" id="Layer_1" xmlns="http://www.w3.org/2000/svg" xmlns:xlink="http://www.w3.org/1999/xlink" x="0px" y="0px"
	 width="100%" viewBox="0 0 908 908" enable-background="new 0 0 908 908" xml:space="preserve">
<path fill="#FFFFFE" opacity="1.000000" stroke="none" 
	d="
M1.000000,305.000000 
	C1.000000,203.333328 1.000000,102.166664 1.000000,1.000000 
	C303.666656,1.000000 606.333313,1.000000 909.000000,1.000000 
	C909.000000,303.666656 909.000000,606.333313 909.000000,909.000000 
	C606.333313,909.000000 303.666656,909.000000 1.000000,909.000000 
	C1.000000,707.833313 1.000000,506.666656 1.000000,305.000000 
M18.471447,675.620850 
	C18.414326,677.115112 18.307413,678.609375 18.307236,680.103638 
	C18.299015,749.364624 18.354673,818.625793 18.186739,887.886353 
	C18.174541,892.916687 19.851755,893.805481 24.443073,893.796204 
	C93.537308,893.657104 162.631897,893.704590 231.726395,893.672852 
	C233.504227,893.672058 235.281845,893.270081 237.989288,893.070312 
	C261.623871,893.070129 285.258484,893.059631 308.893066,893.072021 
	C357.825928,893.097656 406.758820,893.135498 456.475037,893.533630 
	C457.137512,893.587097 457.799957,893.687195 458.462433,893.687256 
	C529.048706,893.695374 599.635010,893.699524 670.221313,893.670410 
	C671.499695,893.669861 672.777954,893.269043 674.985168,893.068726 
	C747.188538,893.068726 819.391846,893.068726 892.055054,893.068726 
	C892.055054,819.878601 892.055054,747.467407 892.527649,674.376587 
	C892.583435,673.714783 892.687927,673.052917 892.688049,672.391113 
	C892.696106,601.804260 892.698975,531.217346 892.676941,460.630463 
	C892.676514,459.324615 892.375427,458.018860 892.161499,455.822723 
	C892.130737,453.659363 892.073303,451.495972 892.072998,449.332611 
	C892.063965,378.907501 892.060425,308.482422 892.528870,237.377686 
	C892.585449,235.883331 892.691345,234.388992 892.691528,232.894638 
	C892.699707,163.634445 892.643921,94.374107 892.812012,25.114313 
	C892.824219,20.083736 891.147339,19.195566 886.556091,19.204817 
	C817.462646,19.344007 748.368835,19.296469 679.275146,19.328156 
	C677.497192,19.328970 675.719299,19.729603 673.012878,19.930075 
	C648.712219,19.930094 624.411560,19.940699 600.110901,19.927902 
	C551.843201,19.902487 503.575500,19.864180 454.522522,19.465910 
	C453.860046,19.412498 453.197601,19.312384 452.535126,19.312307 
	C381.948944,19.304222 311.362762,19.300255 240.776611,19.329407 
	C239.498215,19.329935 238.220001,19.731380 236.011810,19.929899 
	C163.809113,19.929899 91.606415,19.929899 18.944483,19.929899 
	C18.944483,93.120834 18.944483,165.531494 18.472315,238.622314 
	C18.416555,239.284149 18.312037,239.945984 18.311960,240.607819 
	C18.303911,311.194916 18.301098,381.782043 18.323116,452.369141 
	C18.323524,453.674957 18.624592,454.980713 18.838577,457.176880 
	C18.869389,459.340240 18.926857,461.503601 18.927145,463.666962 
	C18.936512,534.091980 18.940378,604.516968 18.471447,675.620850 
z"/>
<path fill="#F5C79C" opacity="1.000000" stroke="none" 
	d="
M455.691681,893.168335 
	C406.758820,893.135498 357.825928,893.097656 308.893066,893.072021 
	C285.258484,893.059631 261.623871,893.070129 237.504150,892.590088 
	C237.023376,819.729431 237.027740,747.348938 237.015869,674.984253 
	C236.999649,675.000061 236.968109,675.032532 237.439148,675.020752 
	C310.148621,675.008911 382.387054,675.008911 455.202087,675.008911 
	C455.202087,601.705750 455.202087,529.113037 455.229065,456.448608 
	C455.256073,456.376862 455.520691,456.201904 456.019226,456.197174 
	C528.036560,456.180145 599.555359,456.167053 671.074158,456.163391 
	C672.068237,456.163330 673.062317,456.281433 674.038574,456.425354 
	C674.020813,456.506287 673.954102,456.658051 673.969238,457.147919 
	C673.999146,530.101135 674.013977,602.564514 673.557556,675.017090 
	C600.824158,675.006409 528.562012,675.006409 455.845032,675.006409 
	C455.845032,677.734863 455.845032,679.704895 455.845032,681.674866 
	C455.845032,739.341370 455.854065,797.007935 455.838074,854.674438 
	C455.834503,867.505737 455.742798,880.337036 455.691681,893.168335 
z"/>
<path fill="#BE814D" opacity="1.000000" stroke="none" 
	d="
M673.941406,19.943779 
	C675.719299,19.729603 677.497192,19.328970 679.275146,19.328156 
	C748.368835,19.296469 817.462646,19.344007 886.556091,19.204817 
	C891.147339,19.195566 892.824219,20.083736 892.812012,25.114313 
	C892.643921,94.374107 892.699707,163.634445 892.691528,232.894638 
	C892.691345,234.388992 892.585449,235.883331 891.819702,237.697388 
	C818.731079,238.020416 746.351562,238.023758 673.981079,237.556808 
	C673.973877,164.705612 673.957642,92.324699 673.941406,19.943779 
z"/>
<path fill="#F5C79C" opacity="1.000000" stroke="none" 
	d="
M673.477173,19.936928 
	C673.957642,92.324699 673.973877,164.705612 673.996460,237.542145 
	C674.002808,237.997772 674.031860,237.967529 673.560791,237.979279 
	C600.612671,237.974289 528.135620,237.957550 455.585327,237.968277 
	C455.512115,237.995758 455.365692,238.050659 455.303101,237.583679 
	C455.212036,170.847031 455.179321,104.577370 455.162079,38.307705 
	C455.160461,32.148880 455.256866,25.990034 455.307800,19.831200 
	C503.575500,19.864180 551.843201,19.902487 600.110901,19.927902 
	C624.411560,19.940699 648.712219,19.930094 673.477173,19.936928 
z"/>
<path fill="#BE804C" opacity="1.000000" stroke="none" 
	d="
M674.028809,675.027832 
	C674.013977,602.564514 673.999146,530.101135 674.437866,457.220337 
	C729.181641,456.817596 783.471802,456.844452 837.761963,456.840118 
	C855.912842,456.838684 874.063721,456.757660 892.214600,456.713043 
	C892.375427,458.018860 892.676514,459.324615 892.676941,460.630463 
	C892.698975,531.217346 892.696106,601.804260 892.688049,672.391113 
	C892.687927,673.052917 892.583435,673.714783 891.818726,674.696167 
	C818.729248,674.999817 746.348633,674.983948 673.983154,674.983032 
	C673.998230,674.997986 674.028809,675.027832 674.028809,675.027832 
z"/>
<path fill="#BE804C" opacity="1.000000" stroke="none" 
	d="
M18.785378,456.286499 
	C18.624592,454.980713 18.323524,453.674957 18.323116,452.369141 
	C18.301098,381.782043 18.303911,311.194916 18.311960,240.607819 
	C18.312037,239.945984 18.416555,239.284149 19.181068,238.302490 
	C92.269157,237.998032 164.648499,238.013382 237.012939,238.013412 
	C236.998032,237.998108 236.967972,237.968002 236.979477,238.439178 
	C237.011124,311.393250 237.031281,383.876129 236.584198,456.297791 
	C181.824814,456.208588 127.532684,456.167419 73.240547,456.160156 
	C55.088829,456.157715 36.937099,456.241913 18.785378,456.286499 
z"/>
<path fill="#BE804C" opacity="1.000000" stroke="none" 
	d="
M456.083374,893.350952 
	C455.742798,880.337036 455.834503,867.505737 455.838074,854.674438 
	C455.854065,797.007935 455.845032,739.341370 455.845032,681.674866 
	C455.845032,679.704895 455.845032,677.734863 455.845032,675.006409 
	C528.562012,675.006409 600.824158,675.006409 673.557556,675.017090 
	C674.028809,675.027832 673.998230,674.997986 673.994507,675.454224 
	C674.012573,748.291931 674.034424,820.673462 674.056274,893.054993 
	C672.777954,893.269043 671.499695,893.669861 670.221313,893.670410 
	C599.635010,893.699524 529.048706,893.695374 458.462433,893.687256 
	C457.799957,893.687195 457.137512,893.587097 456.083374,893.350952 
z"/>
<path fill="#F5C79C" opacity="1.000000" stroke="none" 
	d="
M237.027832,238.028717 
	C164.648499,238.013382 92.269157,237.998032 19.417152,237.962433 
	C18.944483,165.531494 18.944483,93.120834 18.944483,19.929899 
	C91.606415,19.929899 163.809113,19.929899 236.497131,20.410404 
	C236.997589,93.270180 237.012711,165.649445 237.027832,238.028717 
z"/>
<path fill="#F4C79C" opacity="1.000000" stroke="none" 
	d="
M18.811977,456.731689 
	C36.937099,456.241913 55.088829,456.157715 73.240547,456.160156 
	C127.532684,456.167419 181.824814,456.208588 236.556915,456.371582 
	C236.996872,456.506653 236.941101,456.663147 236.961517,457.152527 
	C236.977325,530.105469 236.972717,602.568970 236.968109,675.032532 
	C236.968109,675.032532 236.999649,675.000061 236.544708,674.995239 
	C163.708206,674.974304 91.326630,674.958130 18.945063,674.941956 
	C18.940378,604.516968 18.936512,534.091980 18.927145,463.666962 
	C18.926857,461.503601 18.869389,459.340240 18.811977,456.731689 
M185.208649,635.488831 
	C182.483795,625.754028 176.095215,618.829651 167.353821,614.525208 
	C156.119446,608.993103 145.762314,590.724670 145.053101,579.861511 
	C148.884842,579.861511 152.711456,579.723572 156.523361,579.901184 
	C160.157501,580.070679 162.165024,578.809631 162.418121,574.946289 
	C162.624146,571.801208 162.975494,568.623840 163.703766,565.565918 
	C164.497833,562.231750 163.306717,560.150024 160.530594,558.589050 
	C156.980240,556.592712 153.451813,554.557373 149.932388,552.549438 
	C159.310425,535.055176 158.047348,520.891418 146.496094,511.219025 
	C136.045456,502.468170 119.849899,502.515747 108.693596,511.330170 
	C97.372856,520.274414 96.199287,534.711304 105.648193,553.039246 
	C95.010025,556.308411 88.672104,562.397949 93.011543,574.475159 
	C93.066154,574.627136 93.051079,574.804749 93.064575,574.970703 
	C93.338081,578.336731 94.953392,580.047058 98.539230,579.899414 
	C102.613876,579.731689 106.700745,579.860718 111.105560,579.860718 
	C110.751274,581.519409 110.621460,582.492737 110.334274,583.417053 
	C105.956314,597.508484 98.701492,609.256226 85.124252,616.515259 
	C75.927299,621.432373 70.842262,629.637878 69.245293,639.977173 
	C67.329033,652.383606 67.958954,653.165466 80.206810,653.165466 
	C81.206039,653.165466 82.205269,653.165466 83.204498,653.165466 
	C115.679405,653.165466 148.154785,653.080505 180.628693,653.259583 
	C185.348007,653.285583 187.036743,651.539429 186.608490,647.154419 
	C186.253906,643.523682 185.837830,639.899048 185.208649,635.488831 
z"/>
<path fill="#F5C79C" opacity="1.000000" stroke="none" 
	d="
M892.188049,456.267883 
	C874.063721,456.757660 855.912842,456.838684 837.761963,456.840118 
	C783.471802,456.844452 729.181641,456.817596 674.422791,456.730469 
	C673.954102,456.658051 674.020813,456.506287 674.018188,455.917816 
	C674.020996,382.875397 674.026428,310.421478 674.031860,237.967529 
	C674.031860,237.967529 674.002808,237.997772 673.987427,238.012421 
	C746.351562,238.023758 818.731079,238.020416 891.583313,238.037201 
	C892.060425,308.482422 892.063965,378.907501 892.072998,449.332611 
	C892.073303,451.495972 892.130737,453.659363 892.188049,456.267883 
M759.702515,379.072266 
	C755.852966,386.496887 750.365417,392.147339 742.956299,396.289886 
	C730.069275,403.495178 723.715271,414.665070 724.339905,429.608643 
	C724.478638,432.927765 725.536499,434.918701 729.328430,434.912720 
	C765.321655,434.856079 801.315063,434.869537 837.308411,434.893036 
	C840.597717,434.895172 841.926392,433.588959 842.103149,430.121582 
	C842.853333,415.401764 837.140259,404.158356 824.321594,396.925934 
	C810.379211,389.059479 803.836548,376.414734 799.836243,361.429840 
	C801.526062,361.325195 802.669922,361.205109 803.815125,361.190887 
	C818.625977,361.006836 818.734619,361.012939 819.050415,345.793640 
	C819.088257,343.968323 817.604065,341.531219 816.072632,340.372559 
	C812.737000,337.848785 808.915771,335.966705 805.272461,333.810211 
	C814.785339,319.858612 813.988220,303.712738 803.659729,294.097168 
	C792.981628,284.156128 776.459717,283.399078 764.689636,292.311462 
	C753.098755,301.088196 751.671265,316.370026 761.031250,334.076202 
	C757.494995,336.128479 753.738037,337.928802 750.462585,340.374115 
	C748.885620,341.551392 747.347351,343.931610 747.319031,345.790375 
	C747.261658,349.555023 748.419373,353.320496 748.746826,357.114044 
	C749.029724,360.390930 750.734863,361.302277 753.713623,361.213318 
	C757.942627,361.086945 762.178162,361.181213 767.639038,361.181213 
	C764.811035,367.548340 762.403809,372.968109 759.702515,379.072266 
z"/>
<path fill="#BE814D" opacity="1.000000" stroke="none" 
	d="
M18.708256,675.281372 
	C91.326630,674.958130 163.708206,674.974304 236.560944,674.979492 
	C237.027740,747.348938 237.023376,819.729431 237.039276,892.582520 
	C235.281845,893.270081 233.504227,893.672058 231.726395,893.672852 
	C162.631897,893.704590 93.537308,893.657104 24.443073,893.796204 
	C19.851755,893.805481 18.174541,892.916687 18.186739,887.886353 
	C18.354673,818.625793 18.299015,749.364624 18.307236,680.103638 
	C18.307413,678.609375 18.414326,677.115112 18.708256,675.281372 
M76.565552,871.892883 
	C110.541092,871.892883 144.516754,871.943665 178.492096,871.862000 
	C188.698151,871.837463 190.625488,874.806580 189.863449,860.099182 
	C189.359558,850.374084 186.745422,841.734497 176.668228,837.344421 
	C175.392395,836.788574 174.338257,834.674316 174.028229,833.113831 
	C171.019974,817.973083 168.140564,802.805969 165.336777,787.625671 
	C164.054565,780.683350 163.022919,773.694763 161.895081,766.833496 
	C170.125626,764.088928 174.438492,759.731323 176.637070,751.994995 
	C179.841553,740.719055 178.739960,729.263306 177.635483,717.858032 
	C177.526703,716.734741 175.749298,715.130310 174.510712,714.869873 
	C169.012177,713.713562 163.427719,712.965820 157.519943,712.013184 
	C155.802307,717.378906 154.152405,722.533081 152.502106,727.688477 
	C149.333496,727.688477 146.419403,727.688477 143.292480,727.688477 
	C142.402451,722.211426 141.556625,717.006531 140.629150,711.299011 
	C133.081451,711.299011 125.613686,711.051025 118.189552,711.509460 
	C116.714714,711.600525 114.664520,714.197083 114.176422,715.991089 
	C113.150406,719.762146 112.984993,723.767395 112.482674,727.553284 
	C103.253204,728.723328 103.247986,728.724976 100.731339,720.637390 
	C100.090614,718.578308 99.682869,716.419739 98.798546,714.474854 
	C98.356079,713.501770 96.985664,712.159363 96.198463,712.260254 
	C90.178680,713.031433 84.199196,714.117188 77.039062,715.297729 
	C77.039062,725.004150 76.537735,734.317383 77.187088,743.549622 
	C77.777565,751.944824 79.822014,760.706116 88.207794,764.614258 
	C93.514473,767.087280 93.249748,769.792664 92.414040,774.242981 
	C88.767952,793.658813 85.466629,813.139648 81.762939,832.544006 
	C81.375366,834.574646 79.548904,836.992432 77.718193,837.961975 
	C72.228394,840.869324 68.375908,844.847717 67.098663,850.973816 
	C66.459068,854.041565 66.161774,857.186157 65.809753,860.307251 
	C64.559517,871.392334 64.996864,871.892456 76.565552,871.892883 
z"/>
<path fill="#F4C79C" opacity="1.000000" stroke="none" 
	d="
M674.520752,893.061890 
	C674.034424,820.673462 674.012573,748.291931 673.979431,675.439209 
	C746.348633,674.983948 818.729248,674.999817 891.582397,675.035950 
	C892.055054,747.467407 892.055054,819.878601 892.055054,893.068726 
	C819.391846,893.068726 747.188538,893.068726 674.520752,893.061890 
M722.085022,852.964600 
	C721.722717,856.932373 721.086548,860.898315 721.060120,864.868347 
	C721.016602,871.406128 721.628174,871.855896 728.258423,871.857971 
	C754.914001,871.866394 781.569519,871.861633 808.225098,871.861511 
	C818.720703,871.861511 829.220459,872.009705 839.708130,871.720398 
	C841.533142,871.669983 844.455078,870.140503 844.926025,868.670959 
	C849.351746,854.861389 840.895264,839.658264 827.076111,835.913452 
	C825.815491,835.571899 824.569092,835.177795 823.136292,834.755005 
	C823.101746,825.034058 824.793152,815.787476 828.302490,806.882324 
	C834.588562,790.931274 844.642334,777.293701 855.032349,763.902466 
	C858.770508,759.084351 859.469116,756.251099 851.293213,754.874817 
	C847.241943,754.192871 842.596130,756.035950 838.424255,757.375122 
	C834.613281,758.598389 832.756348,758.349731 831.716980,753.905457 
	C830.981384,750.760254 829.064148,745.953918 826.875732,745.465027 
	C821.267944,744.212280 819.320618,739.909363 816.422729,736.320190 
	C810.746094,729.289673 803.444153,724.724976 794.867798,721.935486 
	C801.561890,712.557373 801.621216,705.145996 795.295471,699.333984 
	C788.947021,693.501160 778.255005,693.013306 771.582825,698.992920 
	C769.066650,701.247925 766.641602,705.083435 766.579407,708.245667 
	C766.489685,712.813171 768.589172,717.423767 769.853394,722.405273 
	C760.339844,725.618347 751.912598,731.949829 746.188904,741.700928 
	C745.614380,742.679688 744.220215,743.587524 743.089539,743.759460 
	C737.892578,744.549622 736.030701,748.206360 734.977600,752.644897 
	C733.495911,758.890076 733.243591,758.742676 726.900330,756.934448 
	C722.586243,755.704712 717.832092,754.706604 713.483276,755.256104 
	C708.484863,755.887634 707.935547,758.882141 710.913818,763.079224 
	C717.161438,771.883850 723.653381,780.535889 729.481628,789.612305 
	C737.487366,802.079773 742.825989,815.563354 743.213379,830.690247 
	C743.294189,833.842163 742.800598,835.540588 739.288513,836.105896 
	C730.093628,837.585876 724.633057,843.296509 722.085022,852.964600 
z"/>
<path fill="#BE804D" opacity="1.000000" stroke="none" 
	d="
M237.012939,238.013412 
	C237.012711,165.649445 236.997589,93.270180 236.962082,20.418333 
	C238.220001,19.731380 239.498215,19.329935 240.776611,19.329407 
	C311.362762,19.300255 381.948944,19.304222 452.535126,19.312307 
	C453.197601,19.312384 453.860046,19.412498 454.915161,19.648556 
	C455.256866,25.990034 455.160461,32.148880 455.162079,38.307705 
	C455.179321,104.577370 455.212036,170.847031 454.792511,237.566223 
	C381.885651,237.999817 309.426819,237.983917 236.967972,237.968002 
	C236.967972,237.968002 236.998032,237.998108 237.012939,238.013412 
M297.324493,143.016663 
	C300.145416,140.705795 302.622528,137.470627 305.855682,136.267990 
	C313.648346,133.369385 321.805054,131.456406 329.794250,129.076447 
	C334.054932,127.807205 338.272614,126.393707 343.853241,124.617752 
	C342.091034,127.798187 341.466431,130.041412 340.006104,131.357071 
	C335.133209,135.747299 330.200348,140.144684 324.851654,143.917282 
	C314.762909,151.033142 304.870575,158.265976 299.599884,169.932037 
	C296.676758,176.402069 294.799103,183.076874 289.147247,188.370316 
	C283.567932,193.595856 283.827728,201.546371 283.977295,208.927429 
	C284.118744,215.908218 284.178070,216.087418 290.864227,216.088501 
	C327.517761,216.094421 364.171265,216.094315 400.824799,216.080536 
	C402.313721,216.079971 403.960785,216.285233 405.244293,215.727493 
	C406.391479,215.229019 407.914703,213.826080 407.939880,212.789871 
	C408.185211,202.686218 408.640320,192.454025 399.662781,185.023605 
	C398.814972,184.321915 398.133514,182.704529 398.282135,181.638824 
	C398.891479,177.269638 399.881226,172.954758 400.678680,168.610291 
	C403.772156,151.756836 406.537201,134.941620 404.188324,117.642204 
	C401.307068,96.421463 390.735107,80.270073 372.671143,69.329666 
	C360.387177,61.889919 347.430359,55.559246 334.750946,48.776447 
	C332.709961,47.684639 330.614410,46.618454 328.427979,45.887661 
	C316.552521,41.918392 314.393616,43.704311 316.505157,56.019924 
	C317.042084,59.151577 316.429047,61.299679 314.168121,63.560898 
	C305.576569,72.153496 297.071320,80.839066 288.748810,89.691978 
	C280.779266,98.169449 273.014313,106.842529 265.291260,115.546585 
	C262.665588,118.505791 261.904297,122.100037 263.921051,125.739029 
	C268.544342,134.081161 274.594055,141.092819 283.804199,144.459579 
	C288.076538,146.021362 292.751892,147.805634 297.324493,143.016663 
z"/>
<path fill="#BE804C" opacity="1.000000" stroke="none" 
	d="
M237.439148,675.020752 
	C236.972717,602.568970 236.977325,530.105469 237.432281,457.223175 
	C309.000153,456.818787 380.117676,456.834869 451.235229,456.833801 
	C452.557526,456.833771 453.879791,456.629395 455.202087,456.520386 
	C455.202087,529.113037 455.202087,601.705750 455.202087,675.008911 
	C382.387054,675.008911 310.148621,675.008911 237.439148,675.020752 
z"/>
<path fill="#BE804C" opacity="1.000000" stroke="none" 
	d="
M673.560791,237.979279 
	C674.026428,310.421478 674.020996,382.875397 674.036011,455.836853 
	C673.062317,456.281433 672.068237,456.163330 671.074158,456.163391 
	C599.555359,456.167053 528.036560,456.180145 456.136230,455.714539 
	C455.785645,454.238495 455.843567,453.240356 455.843628,452.242188 
	C455.847900,382.136749 455.848663,312.031281 455.839783,241.925842 
	C455.839630,240.597488 455.721588,239.269150 455.658539,237.940796 
	C528.135620,237.957550 600.612671,237.974289 673.560791,237.979279 
z"/>
<path fill="#F5C79C" opacity="1.000000" stroke="none" 
	d="
M455.585327,237.968277 
	C455.721588,239.269150 455.839630,240.597488 455.839783,241.925842 
	C455.848663,312.031281 455.847900,382.136749 455.843628,452.242188 
	C455.843567,453.240356 455.785645,454.238495 455.637695,455.719299 
	C455.520691,456.201904 455.256073,456.376862 455.229065,456.448608 
	C453.879791,456.629395 452.557526,456.833771 451.235229,456.833801 
	C380.117676,456.834869 309.000153,456.818787 237.411850,456.733795 
	C236.941101,456.663147 236.996872,456.506653 237.024139,456.432861 
	C237.031281,383.876129 237.011124,311.393250 236.979477,238.439178 
	C309.426819,237.983917 381.885651,237.999817 454.855103,238.033203 
	C455.365692,238.050659 455.512115,237.995758 455.585327,237.968277 
M284.024292,423.733154 
	C284.019562,424.399506 284.010376,425.065826 284.010803,425.732178 
	C284.016571,434.833405 284.016907,434.833862 293.157227,434.833984 
	C314.813599,434.834259 336.469940,434.834045 358.126312,434.834045 
	C372.619415,434.834045 387.116791,434.634216 401.603363,434.942108 
	C406.691132,435.050232 408.877502,432.983551 408.475403,428.346222 
	C408.005829,422.930725 407.628815,417.336609 405.916504,412.256531 
	C404.675629,408.575317 401.989532,403.967438 398.776031,402.665680 
	C392.504883,400.125244 392.106628,395.293488 391.173828,390.232391 
	C389.910645,383.378845 388.742371,376.507904 387.508972,369.648804 
	C385.135223,356.448120 382.744354,343.250519 380.295807,329.692963 
	C390.175781,327.324280 395.113403,320.469757 395.812714,311.468811 
	C396.667206,300.470215 396.016144,289.354614 396.016144,278.015106 
	C389.087982,276.987091 382.572601,276.020325 375.927582,275.034302 
	C374.266266,280.556946 372.702484,285.755310 371.187134,290.792694 
	C362.055328,291.326935 362.041992,291.329193 360.619293,282.947937 
	C360.286224,280.985809 360.343140,278.911957 359.712555,277.062775 
	C359.326782,275.931488 357.995209,274.332672 357.050537,274.306396 
	C349.123779,274.085815 341.188263,274.180878 333.300323,274.180878 
	C332.416779,280.063202 331.631592,285.290710 330.814087,290.733276 
	C327.536194,290.733276 324.593933,290.733276 321.357391,290.733276 
	C319.775543,285.606384 318.182770,280.444153 316.544647,275.134888 
	C310.822906,275.910309 305.375610,276.431122 300.042328,277.513672 
	C298.583252,277.809875 296.402771,279.755951 296.361023,281.005341 
	C296.034088,290.781219 295.437561,300.638062 296.341705,310.337769 
	C297.117615,318.661774 300.808136,325.961212 309.813995,329.051636 
	C310.801880,329.390656 311.821106,331.894745 311.595245,333.178070 
	C307.848694,354.464600 303.924957,375.720154 299.949982,396.965637 
	C299.741577,398.079590 298.960785,399.604004 298.046875,399.989136 
	C287.861206,404.281647 284.887329,412.866089 284.024292,423.733154 
z"/>
<path fill="#40403F" opacity="1.000000" stroke="none" 
	d="
M185.328827,635.880249 
	C185.837830,639.899048 186.253906,643.523682 186.608490,647.154419 
	C187.036743,651.539429 185.348007,653.285583 180.628693,653.259583 
	C148.154785,653.080505 115.679405,653.165466 83.204498,653.165466 
	C82.205269,653.165466 81.206039,653.165466 80.206810,653.165466 
	C67.958954,653.165466 67.329033,652.383606 69.245293,639.977173 
	C70.842262,629.637878 75.927299,621.432373 85.124252,616.515259 
	C98.701492,609.256226 105.956314,597.508484 110.334274,583.417053 
	C110.621460,582.492737 110.751274,581.519409 111.105560,579.860718 
	C106.700745,579.860718 102.613876,579.731689 98.539230,579.899414 
	C94.953392,580.047058 93.338081,578.336731 93.064575,574.970703 
	C93.051079,574.804749 93.066154,574.627136 93.011543,574.475159 
	C88.672104,562.397949 95.010025,556.308411 105.648193,553.039246 
	C96.199287,534.711304 97.372856,520.274414 108.693596,511.330170 
	C119.849899,502.515747 136.045456,502.468170 146.496094,511.219025 
	C158.047348,520.891418 159.310425,535.055176 149.932388,552.549438 
	C153.451813,554.557373 156.980240,556.592712 160.530594,558.589050 
	C163.306717,560.150024 164.497833,562.231750 163.703766,565.565918 
	C162.975494,568.623840 162.624146,571.801208 162.418121,574.946289 
	C162.165024,578.809631 160.157501,580.070679 156.523361,579.901184 
	C152.711456,579.723572 148.884842,579.861511 145.053101,579.861511 
	C145.762314,590.724670 156.119446,608.993103 167.353821,614.525208 
	C176.095215,618.829651 182.483795,625.754028 185.328827,635.880249 
M116.313248,581.927917 
	C116.247574,582.276855 116.181908,582.625854 115.796715,583.603821 
	C115.540024,584.739441 115.283340,585.875061 114.520340,587.518066 
	C109.633789,601.950317 101.452454,613.486755 87.685219,621.093323 
	C78.731445,626.040466 74.192307,634.490723 74.005135,645.844543 
	C75.671249,646.560059 77.335014,647.893250 79.003815,647.899658 
	C111.420265,648.022827 143.837296,647.991028 176.254211,647.990967 
	C177.834854,647.990967 179.415497,647.990967 180.898209,647.990967 
	C182.484924,635.355652 175.987656,623.874939 162.988434,618.188843 
	C160.182220,615.916077 157.119202,613.893311 154.617813,611.323792 
	C147.035156,603.534485 142.860153,593.846252 139.658386,583.625122 
	C139.213470,582.204773 137.692291,580.136780 136.575485,580.075378 
	C130.451019,579.738647 124.296623,579.897339 118.154991,580.014954 
	C117.655853,580.024475 117.175262,581.002441 116.674927,581.677612 
	C116.674927,581.677612 116.818886,581.710388 116.313248,581.927917 
M118.210114,511.881866 
	C104.499969,516.639099 100.237762,535.637756 107.993996,545.853394 
	C108.832977,547.066040 109.485840,548.481323 110.545082,549.454163 
	C114.035652,552.660156 112.643303,554.749390 109.217674,556.628052 
	C105.887383,558.454407 102.535049,560.263062 99.358482,562.334167 
	C98.349998,562.991699 97.242439,564.487244 97.277153,565.563965 
	C97.370659,568.463989 98.055466,571.344971 98.469475,574.001953 
	C115.577393,574.001953 132.288986,574.001953 149.873627,574.274353 
	C152.149246,574.274353 154.424881,574.274353 156.556778,574.274353 
	C159.263992,563.741211 159.245941,563.699829 150.254715,558.953491 
	C149.814682,558.721191 149.373245,558.491272 148.937851,558.250488 
	C141.650848,554.221130 141.583557,553.921387 146.498672,547.441040 
	C153.574768,538.111450 152.514999,524.323730 143.807816,516.172974 
	C136.355286,509.937378 128.164886,507.901855 118.210114,511.881866 
z"/>
<path fill="#454443" opacity="1.000000" stroke="none" 
	d="
M759.849548,378.730042 
	C762.403809,372.968109 764.811035,367.548340 767.639038,361.181213 
	C762.178162,361.181213 757.942627,361.086945 753.713623,361.213318 
	C750.734863,361.302277 749.029724,360.390930 748.746826,357.114044 
	C748.419373,353.320496 747.261658,349.555023 747.319031,345.790375 
	C747.347351,343.931610 748.885620,341.551392 750.462585,340.374115 
	C753.738037,337.928802 757.494995,336.128479 761.031250,334.076202 
	C751.671265,316.370026 753.098755,301.088196 764.689636,292.311462 
	C776.459717,283.399078 792.981628,284.156128 803.659729,294.097168 
	C813.988220,303.712738 814.785339,319.858612 805.272461,333.810211 
	C808.915771,335.966705 812.737000,337.848785 816.072632,340.372559 
	C817.604065,341.531219 819.088257,343.968323 819.050415,345.793640 
	C818.734619,361.012939 818.625977,361.006836 803.815125,361.190887 
	C802.669922,361.205109 801.526062,361.325195 799.836243,361.429840 
	C803.836548,376.414734 810.379211,389.059479 824.321594,396.925934 
	C837.140259,404.158356 842.853333,415.401764 842.103149,430.121582 
	C841.926392,433.588959 840.597717,434.895172 837.308411,434.893036 
	C801.315063,434.869537 765.321655,434.856079 729.328430,434.912720 
	C725.536499,434.918701 724.478638,432.927765 724.339905,429.608643 
	C723.715271,414.665070 730.069275,403.495178 742.956299,396.289886 
	C750.365417,392.147339 755.852966,386.496887 759.849548,378.730042 
M797.659424,296.288940 
	C790.670959,291.199493 783.148682,289.903656 774.282104,293.063110 
	C762.455811,298.590149 757.455750,309.022369 760.940063,321.799103 
	C761.829468,323.739166 762.529724,325.795807 763.640930,327.599213 
	C768.586670,335.625916 768.629150,335.599640 760.485535,340.523529 
	C751.931030,345.695862 751.931091,345.695923 754.250061,355.798553 
	C770.773560,355.798553 787.359192,355.798553 804.849487,355.924194 
	C807.426147,355.924194 810.002747,355.924194 812.442688,355.924194 
	C814.048767,345.464691 814.047424,345.466980 805.692078,340.525360 
	C804.842346,340.022888 804.043518,339.432556 803.183472,338.949982 
	C797.216797,335.602112 797.154846,335.331177 801.274780,329.948944 
	C809.576111,319.104218 808.217896,304.790039 797.659424,296.288940 
M817.754089,399.127258 
	C814.751038,396.562744 811.393982,394.309296 808.813599,391.373291 
	C802.039795,383.665741 798.041992,374.418396 794.929565,364.728943 
	C794.506042,363.410492 793.171509,361.406677 792.229919,361.390381 
	C785.819153,361.279510 779.400696,361.616119 772.305420,362.140045 
	C771.382507,365.018829 770.459595,367.897644 769.104370,371.330536 
	C764.466125,383.704620 757.686829,394.184540 745.652344,400.901398 
	C736.069214,406.250092 729.739929,414.237366 729.615479,426.888794 
	C731.065491,427.731781 732.512390,429.304413 733.965942,429.310577 
	C766.753967,429.450073 799.543091,429.341980 832.330872,429.506622 
	C836.783081,429.528961 837.257019,427.564850 836.800720,424.046356 
	C835.274475,412.275452 828.862183,404.312195 817.754089,399.127258 
z"/>
<path fill="#393939" opacity="1.000000" stroke="none" 
	d="
M76.077988,871.892822 
	C64.996864,871.892456 64.559517,871.392334 65.809753,860.307251 
	C66.161774,857.186157 66.459068,854.041565 67.098663,850.973816 
	C68.375908,844.847717 72.228394,840.869324 77.718193,837.961975 
	C79.548904,836.992432 81.375366,834.574646 81.762939,832.544006 
	C85.466629,813.139648 88.767952,793.658813 92.414040,774.242981 
	C93.249748,769.792664 93.514473,767.087280 88.207794,764.614258 
	C79.822014,760.706116 77.777565,751.944824 77.187088,743.549622 
	C76.537735,734.317383 77.039062,725.004150 77.039062,715.297729 
	C84.199196,714.117188 90.178680,713.031433 96.198463,712.260254 
	C96.985664,712.159363 98.356079,713.501770 98.798546,714.474854 
	C99.682869,716.419739 100.090614,718.578308 100.731339,720.637390 
	C103.247986,728.724976 103.253204,728.723328 112.482674,727.553284 
	C112.984993,723.767395 113.150406,719.762146 114.176422,715.991089 
	C114.664520,714.197083 116.714714,711.600525 118.189552,711.509460 
	C125.613686,711.051025 133.081451,711.299011 140.629150,711.299011 
	C141.556625,717.006531 142.402451,722.211426 143.292480,727.688477 
	C146.419403,727.688477 149.333496,727.688477 152.502106,727.688477 
	C154.152405,722.533081 155.802307,717.378906 157.519943,712.013184 
	C163.427719,712.965820 169.012177,713.713562 174.510712,714.869873 
	C175.749298,715.130310 177.526703,716.734741 177.635483,717.858032 
	C178.739960,729.263306 179.841553,740.719055 176.637070,751.994995 
	C174.438492,759.731323 170.125626,764.088928 161.895081,766.833496 
	C163.022919,773.694763 164.054565,780.683350 165.336777,787.625671 
	C168.140564,802.805969 171.019974,817.973083 174.028229,833.113831 
	C174.338257,834.674316 175.392395,836.788574 176.668228,837.344421 
	C186.745422,841.734497 189.359558,850.374084 189.863449,860.099182 
	C190.625488,874.806580 188.698151,871.837463 178.492096,871.862000 
	C144.516754,871.943665 110.541092,871.892883 76.077988,871.892822 
M74.448242,847.475159 
	C70.643242,853.187866 70.705360,859.545044 70.957069,866.006836 
	C109.105347,866.006836 146.847824,866.006836 185.021606,866.006836 
	C184.214325,859.075623 185.183029,852.297058 179.943146,846.265625 
	C176.219727,844.377319 172.679138,841.597778 168.734360,840.788391 
	C160.810532,839.162537 152.690216,838.295227 144.607971,837.679810 
	C124.708305,836.164551 104.848427,836.650696 85.330276,841.179138 
	C81.637367,842.035950 78.434868,845.006592 74.448242,847.475159 
M166.367905,718.536743 
	C164.621902,718.327881 162.875900,718.118958 161.111526,717.907898 
	C159.719391,722.551758 158.619766,726.724304 157.157196,730.765503 
	C156.762024,731.857361 155.301956,733.257751 154.270950,733.308716 
	C149.044205,733.567078 143.797806,733.427673 138.717972,733.427673 
	C137.732117,727.038940 136.929871,721.840088 136.143570,716.744507 
	C130.187347,716.744507 124.765060,716.744507 119.188034,716.744507 
	C118.391060,722.257385 117.638275,727.464600 116.773933,733.443542 
	C111.634224,733.443542 106.662819,733.646484 101.728836,733.306519 
	C100.430496,733.217163 98.615028,731.688110 98.129715,730.406433 
	C96.621758,726.423889 95.638718,722.242676 94.374397,717.869995 
	C92.741310,718.141357 91.308113,718.379517 89.030098,718.676941 
	C84.113098,718.370728 81.776978,720.413086 82.108063,725.593323 
	C82.392448,730.042725 82.146118,734.526062 82.041878,739.840942 
	C82.435509,742.960632 82.514175,746.160278 83.281296,749.185242 
	C85.669159,758.601013 91.467049,761.814514 99.703163,761.374512 
	C116.401131,760.482544 133.159531,760.721802 150.789154,760.819824 
	C151.945877,760.907349 153.102936,760.990784 154.259293,761.083008 
	C165.624832,761.989624 170.471100,758.852966 172.214584,747.622375 
	C173.370422,740.177063 172.676834,732.459290 173.093643,724.879028 
	C173.345428,720.300171 171.474625,718.447449 166.367905,718.536743 
M110.166237,765.313232 
	C106.559509,765.739136 102.952782,766.165100 98.976151,766.634705 
	C97.021156,777.802979 95.078773,788.899109 92.960732,800.642761 
	C92.951698,801.086609 92.942665,801.530396 92.543343,802.628052 
	C91.969467,806.421509 91.395599,810.214966 90.392746,814.637268 
	C89.139114,821.377136 87.885475,828.117004 86.652344,834.746643 
	C95.996941,833.839539 104.583717,832.301941 113.166481,832.324097 
	C129.433548,832.366028 145.698288,833.302368 162.683044,834.181519 
	C164.585037,834.464417 166.487030,834.747314 168.843277,835.097839 
	C164.832596,812.958984 160.994415,791.453918 156.915726,769.994629 
	C156.651657,768.605225 154.594574,766.599670 153.272125,766.519409 
	C142.510559,765.866638 131.725266,765.604553 120.047241,765.129211 
	C117.030487,765.218018 114.013725,765.306824 110.166237,765.313232 
z"/>
<path fill="#40403F" opacity="1.000000" stroke="none" 
	d="
M722.183777,852.564941 
	C724.633057,843.296509 730.093628,837.585876 739.288513,836.105896 
	C742.800598,835.540588 743.294189,833.842163 743.213379,830.690247 
	C742.825989,815.563354 737.487366,802.079773 729.481628,789.612305 
	C723.653381,780.535889 717.161438,771.883850 710.913818,763.079224 
	C707.935547,758.882141 708.484863,755.887634 713.483276,755.256104 
	C717.832092,754.706604 722.586243,755.704712 726.900330,756.934448 
	C733.243591,758.742676 733.495911,758.890076 734.977600,752.644897 
	C736.030701,748.206360 737.892578,744.549622 743.089539,743.759460 
	C744.220215,743.587524 745.614380,742.679688 746.188904,741.700928 
	C751.912598,731.949829 760.339844,725.618347 769.853394,722.405273 
	C768.589172,717.423767 766.489685,712.813171 766.579407,708.245667 
	C766.641602,705.083435 769.066650,701.247925 771.582825,698.992920 
	C778.255005,693.013306 788.947021,693.501160 795.295471,699.333984 
	C801.621216,705.145996 801.561890,712.557373 794.867798,721.935486 
	C803.444153,724.724976 810.746094,729.289673 816.422729,736.320190 
	C819.320618,739.909363 821.267944,744.212280 826.875732,745.465027 
	C829.064148,745.953918 830.981384,750.760254 831.716980,753.905457 
	C832.756348,758.349731 834.613281,758.598389 838.424255,757.375122 
	C842.596130,756.035950 847.241943,754.192871 851.293213,754.874817 
	C859.469116,756.251099 858.770508,759.084351 855.032349,763.902466 
	C844.642334,777.293701 834.588562,790.931274 828.302490,806.882324 
	C824.793152,815.787476 823.101746,825.034058 823.136292,834.755005 
	C824.569092,835.177795 825.815491,835.571899 827.076111,835.913452 
	C840.895264,839.658264 849.351746,854.861389 844.926025,868.670959 
	C844.455078,870.140503 841.533142,871.669983 839.708130,871.720398 
	C829.220459,872.009705 818.720703,871.861511 808.225098,871.861511 
	C781.569519,871.861633 754.914001,871.866394 728.258423,871.857971 
	C721.628174,871.855896 721.016602,871.406128 721.060120,864.868347 
	C721.086548,860.898315 721.722717,856.932373 722.183777,852.564941 
M789.755432,702.109558 
	C787.101929,701.408508 784.438904,700.099365 781.797058,700.140808 
	C777.171997,700.213257 773.009460,702.620728 771.989441,707.126404 
	C771.334290,710.020691 772.337585,714.087219 774.099487,716.556824 
	C777.226135,720.939453 782.824524,721.279114 789.603210,718.638428 
	C796.447449,713.525757 796.682373,706.677246 789.755432,702.109558 
M802.766479,751.104736 
	C807.079590,749.215637 811.392700,747.326477 816.089722,745.269165 
	C811.812195,738.161438 807.079712,732.895935 799.288818,729.842407 
	C785.656799,721.367249 758.699219,726.080078 751.002869,744.995728 
	C753.094421,746.256348 755.194275,747.546143 757.317139,748.796997 
	C763.882874,752.665466 766.424744,752.247070 771.453552,746.502075 
	C780.485352,736.184021 786.551147,736.355957 795.690308,746.837219 
	C797.278503,748.658630 799.864502,749.609985 802.766479,751.104736 
M835.888916,846.332886 
	C831.124451,844.238403 826.544373,841.123352 821.564026,840.223389 
	C798.027161,835.970215 774.307983,835.964539 750.647156,839.216003 
	C743.915283,840.141052 736.639893,840.289429 730.799988,846.194092 
	C726.379089,852.165405 726.254700,859.022461 726.255371,866.157715 
	C764.385376,866.157715 802.053101,866.157715 840.172913,866.157715 
	C840.019043,859.284058 840.604309,852.657104 835.888916,846.332886 
M737.757690,793.916321 
	C745.101440,806.131104 748.165894,819.585327 748.806030,833.153564 
	C764.145691,832.691833 779.046387,832.243286 794.852905,831.963989 
	C802.400757,832.554993 809.948547,833.146057 817.970398,833.774170 
	C817.524292,804.195862 834.605469,782.597900 850.602844,760.517700 
	C850.345825,760.151245 850.088806,759.784790 849.831787,759.418335 
	C847.266113,760.142700 844.700378,760.867065 841.413513,761.875244 
	C833.494507,764.986206 828.967224,763.406311 827.062195,756.867004 
	C824.227966,747.138550 823.002747,746.654968 814.302246,751.818237 
	C813.445068,752.327026 812.547546,752.770874 811.708862,753.307556 
	C803.712830,758.425293 797.670410,757.558777 791.645874,750.422058 
	C790.681274,749.279480 789.758850,748.089539 788.697693,747.042358 
	C784.741089,743.137329 781.928650,743.098572 778.057068,746.914490 
	C776.399414,748.548340 774.894897,750.336304 773.272278,752.007019 
	C768.306580,757.119812 762.847900,757.916931 756.578979,754.444702 
	C754.840332,753.481628 753.152832,752.426575 751.435730,751.424133 
	C743.478516,746.778870 741.425049,747.669800 739.366211,756.654358 
	C738.124207,762.074341 734.473267,764.409607 729.071411,763.078674 
	C726.681274,762.489746 724.362122,761.612793 721.350708,760.448120 
	C719.649475,760.150330 717.948303,759.852478 715.642273,759.448792 
	C723.235840,771.184021 730.371399,782.211365 737.757690,793.916321 
z"/>
<path fill="#3B3B3B" opacity="1.000000" stroke="none" 
	d="
M297.051910,143.271378 
	C292.751892,147.805634 288.076538,146.021362 283.804199,144.459579 
	C274.594055,141.092819 268.544342,134.081161 263.921051,125.739029 
	C261.904297,122.100037 262.665588,118.505791 265.291260,115.546585 
	C273.014313,106.842529 280.779266,98.169449 288.748810,89.691978 
	C297.071320,80.839066 305.576569,72.153496 314.168121,63.560898 
	C316.429047,61.299679 317.042084,59.151577 316.505157,56.019924 
	C314.393616,43.704311 316.552521,41.918392 328.427979,45.887661 
	C330.614410,46.618454 332.709961,47.684639 334.750946,48.776447 
	C347.430359,55.559246 360.387177,61.889919 372.671143,69.329666 
	C390.735107,80.270073 401.307068,96.421463 404.188324,117.642204 
	C406.537201,134.941620 403.772156,151.756836 400.678680,168.610291 
	C399.881226,172.954758 398.891479,177.269638 398.282135,181.638824 
	C398.133514,182.704529 398.814972,184.321915 399.662781,185.023605 
	C408.640320,192.454025 408.185211,202.686218 407.939880,212.789871 
	C407.914703,213.826080 406.391479,215.229019 405.244293,215.727493 
	C403.960785,216.285233 402.313721,216.079971 400.824799,216.080536 
	C364.171265,216.094315 327.517761,216.094421 290.864227,216.088501 
	C284.178070,216.087418 284.118744,215.908218 283.977295,208.927429 
	C283.827728,201.546371 283.567932,193.595856 289.147247,188.370316 
	C294.799103,183.076874 296.676758,176.402069 299.599884,169.932037 
	C304.870575,158.265976 314.762909,151.033142 324.851654,143.917282 
	C330.200348,140.144684 335.133209,135.747299 340.006104,131.357071 
	C341.466431,130.041412 342.091034,127.798187 343.853241,124.617752 
	C338.272614,126.393707 334.054932,127.807205 329.794250,129.076447 
	C321.805054,131.456406 313.648346,133.369385 305.855682,136.267990 
	C302.622528,137.470627 300.145416,140.705795 297.051910,143.271378 
M292.580353,192.401321 
	C288.969818,198.079865 288.442200,204.250153 289.542816,210.739319 
	C327.335480,210.739319 365.008636,210.739319 402.886566,210.739319 
	C403.189056,203.546219 403.259735,196.709091 398.198303,190.214828 
	C396.395111,189.139389 394.707581,187.462982 392.769196,187.089813 
	C383.006104,185.210312 373.234650,182.927750 363.359894,182.168945 
	C343.755280,180.662430 324.130157,181.301254 304.768555,185.180206 
	C300.282745,186.078903 295.071808,186.434906 292.580353,192.401321 
M284.548706,139.370804 
	C287.980316,140.373154 291.265991,142.273727 294.557800,138.546951 
	C300.368011,131.968948 307.978760,128.723740 316.484802,126.700012 
	C325.779144,124.488739 334.874054,121.390099 343.966766,118.406693 
	C347.187317,117.350014 349.075195,117.885567 349.714447,121.954353 
	C349.487671,123.307167 349.260895,124.659973 348.540253,126.512375 
	C345.386963,131.196533 342.948395,136.659012 338.904083,140.372894 
	C333.542969,145.295990 326.671844,148.529541 320.913910,153.077042 
	C313.391785,159.017853 305.634430,164.974625 302.595612,175.388672 
	C302.503815,175.942474 302.412018,176.496292 302.051849,177.480331 
	C302.086761,177.645691 302.121674,177.811066 301.901611,178.591339 
	C302.553040,179.077042 303.241058,180.028336 303.850525,179.980392 
	C319.188934,178.773819 334.499390,177.007980 349.858185,176.341965 
	C358.854492,175.951874 367.925568,177.285599 377.698822,178.205612 
	C382.880341,179.191650 388.061859,180.177689 394.049438,181.317108 
	C396.077118,164.855728 398.955597,149.130905 399.752533,133.301315 
	C401.088715,106.761826 391.093231,85.398277 367.211914,71.981163 
	C356.491699,65.958275 345.418640,60.563419 334.499359,54.895767 
	C334.380524,54.834099 334.176605,54.936501 333.417145,54.590801 
	C330.422089,53.073879 327.508942,51.354568 324.407715,50.100079 
	C321.613007,48.969566 320.870514,50.381474 321.586792,53.874439 
	C323.023193,60.157902 320.932739,64.789413 316.081879,69.175232 
	C308.941772,75.630814 302.466766,82.836571 295.866486,89.871048 
	C287.344299,98.953842 279.011963,108.214493 270.526642,117.332237 
	C267.454987,120.632790 267.363251,123.626518 271.007080,127.211395 
	C275.342285,131.098801 279.677490,134.986206 284.548706,139.370804 
z"/>
<path fill="#393939" opacity="1.000000" stroke="none" 
	d="
M284.063416,423.282898 
	C284.887329,412.866089 287.861206,404.281647 298.046875,399.989136 
	C298.960785,399.604004 299.741577,398.079590 299.949982,396.965637 
	C303.924957,375.720154 307.848694,354.464600 311.595245,333.178070 
	C311.821106,331.894745 310.801880,329.390656 309.813995,329.051636 
	C300.808136,325.961212 297.117615,318.661774 296.341705,310.337769 
	C295.437561,300.638062 296.034088,290.781219 296.361023,281.005341 
	C296.402771,279.755951 298.583252,277.809875 300.042328,277.513672 
	C305.375610,276.431122 310.822906,275.910309 316.544647,275.134888 
	C318.182770,280.444153 319.775543,285.606384 321.357391,290.733276 
	C324.593933,290.733276 327.536194,290.733276 330.814087,290.733276 
	C331.631592,285.290710 332.416779,280.063202 333.300323,274.180878 
	C341.188263,274.180878 349.123779,274.085815 357.050537,274.306396 
	C357.995209,274.332672 359.326782,275.931488 359.712555,277.062775 
	C360.343140,278.911957 360.286224,280.985809 360.619293,282.947937 
	C362.041992,291.329193 362.055328,291.326935 371.187134,290.792694 
	C372.702484,285.755310 374.266266,280.556946 375.927582,275.034302 
	C382.572601,276.020325 389.087982,276.987091 396.016144,278.015106 
	C396.016144,289.354614 396.667206,300.470215 395.812714,311.468811 
	C395.113403,320.469757 390.175781,327.324280 380.295807,329.692963 
	C382.744354,343.250519 385.135223,356.448120 387.508972,369.648804 
	C388.742371,376.507904 389.910645,383.378845 391.173828,390.232391 
	C392.106628,395.293488 392.504883,400.125244 398.776031,402.665680 
	C401.989532,403.967438 404.675629,408.575317 405.916504,412.256531 
	C407.628815,417.336609 408.005829,422.930725 408.475403,428.346222 
	C408.877502,432.983551 406.691132,435.050232 401.603363,434.942108 
	C387.116791,434.634216 372.619415,434.834045 358.126312,434.834045 
	C336.469940,434.834045 314.813599,434.834259 293.157227,434.833984 
	C284.016907,434.833862 284.016571,434.833405 284.010803,425.732178 
	C284.010376,425.065826 284.019562,424.399506 284.063416,423.282898 
M389.272217,317.868591 
	C390.209015,316.640686 391.479950,315.545593 392.029205,314.163635 
	C396.085968,303.956573 395.573425,293.412537 393.921021,282.853302 
	C393.386017,279.434387 390.243256,279.005432 386.482574,281.871796 
	C386.315186,281.936707 386.147766,282.001587 385.263336,281.781281 
	C383.500000,281.456451 381.736694,281.131622 379.563049,280.731232 
	C378.312042,285.156464 377.345215,289.338623 375.876404,293.336426 
	C375.397552,294.639771 373.628448,296.327789 372.417389,296.353943 
	C367.326050,296.463806 362.222534,296.011261 357.078522,295.762421 
	C356.272491,290.270416 355.507080,285.055176 354.682373,279.435852 
	C350.018341,279.435852 345.557556,279.576508 341.111176,279.384583 
	C338.318604,279.264038 337.319183,280.400909 337.067688,283.047272 
	C336.663269,287.302826 335.965759,291.530548 335.349976,296.080963 
	C329.180389,296.080963 323.426056,296.080963 317.477051,296.080963 
	C315.925079,291.065704 314.340057,285.943573 312.686890,280.601288 
	C310.779327,281.137726 309.378296,281.531708 307.121155,281.848236 
	C302.704895,281.404022 300.441986,282.977844 300.860535,287.831512 
	C301.151215,291.202850 300.828400,294.627075 300.523376,298.921204 
	C301.192047,303.980530 301.352539,309.173950 302.644348,314.068817 
	C304.766388,322.109375 309.377991,324.612701 317.796112,324.264557 
	C331.522614,323.696899 345.265411,323.522125 358.783020,323.944702 
	C357.252258,324.296448 355.726349,324.924866 354.189880,324.951813 
	C347.701904,325.065826 341.185760,324.666351 334.731873,325.149170 
	C331.732788,325.373535 327.565399,324.025482 325.687347,328.728363 
	C325.416504,328.722626 325.179291,328.809052 324.123077,328.896454 
	C319.050385,328.311279 316.949524,330.501160 316.277008,335.660614 
	C314.995758,345.490509 312.953003,355.221161 310.977203,365.625458 
	C310.963776,366.075195 310.950317,366.524902 310.542725,367.624268 
	C310.346222,369.417084 310.149689,371.209900 309.579285,373.591095 
	C309.425323,374.728943 309.271393,375.866791 308.836121,377.644501 
	C308.835541,378.099457 308.834961,378.554382 308.454437,379.668854 
	C307.368805,385.637695 306.283142,391.606506 305.226288,397.417175 
	C318.018463,396.540771 330.361328,395.100647 342.713501,395.015686 
	C355.125214,394.930267 367.546204,396.194305 380.746796,397.063568 
	C382.769043,397.380463 384.791290,397.697388 386.963959,398.037842 
	C386.963959,396.671234 387.064575,396.000183 386.949219,395.368561 
	C384.178406,380.195831 381.468018,365.011230 378.557373,349.865173 
	C377.224670,342.930359 375.489777,336.072876 374.095215,328.411499 
	C375.320435,327.935852 376.628387,327.602448 377.750549,326.949615 
	C379.243713,326.080872 380.592224,324.963409 382.219330,323.764038 
	C382.219330,323.764038 382.487732,323.866241 383.345581,323.922791 
	C384.184448,323.109894 385.023285,322.296997 386.116180,320.977783 
	C386.905396,319.937744 387.694611,318.897736 389.272217,317.868591 
M292.232147,411.367889 
	C289.554901,417.042236 288.807098,422.986053 289.297089,429.179382 
	C327.421753,429.179382 365.096222,429.179382 403.037415,429.179382 
	C403.261230,422.247589 403.482391,415.685150 398.912354,409.339081 
	C395.601807,407.574982 392.475769,404.912811 388.951538,404.188721 
	C360.412689,398.325470 331.763275,398.401276 303.250854,404.253387 
	C299.474365,405.028473 296.280396,408.641754 292.232147,411.367889 
z"/>
<path fill="#F0F0F0" opacity="1.000000" stroke="none" 
	d="
M163.286407,618.818359 
	C175.987656,623.874939 182.484924,635.355652 180.898209,647.990967 
	C179.415497,647.990967 177.834854,647.990967 176.254211,647.990967 
	C143.837296,647.991028 111.420265,648.022827 79.003815,647.899658 
	C77.335014,647.893250 75.671249,646.560059 74.408165,645.362061 
	C75.191811,644.579163 75.741295,644.359375 75.928444,643.966797 
	C81.094093,633.129883 89.170189,625.076660 99.435028,619.026062 
	C105.853813,615.242493 110.212410,609.473328 112.473877,602.594482 
	C114.098083,597.654114 114.229362,592.222900 115.026657,587.010681 
	C115.283340,585.875061 115.540024,584.739441 116.164139,583.139648 
	C116.627342,582.353760 116.723122,582.032104 116.818893,581.710388 
	C116.818886,581.710388 116.674927,581.677612 116.991074,581.821533 
	C124.567421,590.484985 131.286697,599.557861 139.257996,607.349976 
	C145.702499,613.649719 153.405106,618.942566 163.286407,618.818359 
z"/>
<path fill="#EDEDED" opacity="1.000000" stroke="none" 
	d="
M149.000595,574.001953 
	C132.288986,574.001953 115.577393,574.001953 98.469475,574.001953 
	C98.055466,571.344971 97.370659,568.463989 97.277153,565.563965 
	C97.242439,564.487244 98.349998,562.991699 99.358482,562.334167 
	C102.535049,560.263062 105.887383,558.454407 109.217674,556.628052 
	C112.643303,554.749390 114.035652,552.660156 110.545082,549.454163 
	C109.485840,548.481323 108.832977,547.066040 107.973007,545.084534 
	C107.743645,541.077759 106.575783,537.519104 107.528259,534.669189 
	C109.463303,528.879333 112.476555,523.439270 115.187050,517.924622 
	C116.237762,515.786865 117.672020,513.837646 118.931549,511.802551 
	C128.164886,507.901855 136.355286,509.937378 143.912750,516.865112 
	C144.328491,518.659790 144.504700,519.822998 144.970657,520.855530 
	C150.211639,532.468811 148.922134,539.190430 139.483688,547.906311 
	C137.155914,550.055847 134.468964,551.816406 131.265045,554.280396 
	C134.510208,555.657288 136.831589,556.496826 139.018112,557.602966 
	C142.558395,559.393982 146.813477,560.681152 149.199860,563.505188 
	C150.646393,565.216980 149.137512,569.421387 148.970184,572.506714 
	C148.943268,573.003113 148.988632,573.503418 149.000595,574.001953 
z"/>
<path fill="#CBCBCB" opacity="1.000000" stroke="none" 
	d="
M163.137421,618.503601 
	C153.405106,618.942566 145.702499,613.649719 139.257996,607.349976 
	C131.286697,599.557861 124.567421,590.484985 116.996643,581.747925 
	C117.175262,581.002441 117.655853,580.024475 118.154991,580.014954 
	C124.296623,579.897339 130.451019,579.738647 136.575485,580.075378 
	C137.692291,580.136780 139.213470,582.204773 139.658386,583.625122 
	C142.860153,593.846252 147.035156,603.534485 154.617813,611.323792 
	C157.119202,613.893311 160.182220,615.916077 163.137421,618.503601 
z"/>
<path fill="#CBCBCB" opacity="1.000000" stroke="none" 
	d="
M149.437103,574.138184 
	C148.988632,573.503418 148.943268,573.003113 148.970184,572.506714 
	C149.137512,569.421387 150.646393,565.216980 149.199860,563.505188 
	C146.813477,560.681152 142.558395,559.393982 139.018112,557.602966 
	C136.831589,556.496826 134.510208,555.657288 131.265045,554.280396 
	C134.468964,551.816406 137.155914,550.055847 139.483688,547.906311 
	C148.922134,539.190430 150.211639,532.468811 144.970657,520.855530 
	C144.504700,519.822998 144.328491,518.659790 144.079346,517.162109 
	C152.514999,524.323730 153.574768,538.111450 146.498672,547.441040 
	C141.583557,553.921387 141.650848,554.221130 148.937851,558.250488 
	C149.373245,558.491272 149.814682,558.721191 150.254715,558.953491 
	C159.245941,563.699829 159.263992,563.741211 156.556778,574.274353 
	C154.424881,574.274353 152.149246,574.274353 149.437103,574.138184 
z"/>
<path fill="#FAFAFA" opacity="1.000000" stroke="none" 
	d="
M114.773499,587.264404 
	C114.229362,592.222900 114.098083,597.654114 112.473877,602.594482 
	C110.212410,609.473328 105.853813,615.242493 99.435028,619.026062 
	C89.170189,625.076660 81.094093,633.129883 75.928444,643.966797 
	C75.741295,644.359375 75.191811,644.579163 74.476151,644.934509 
	C74.192307,634.490723 78.731445,626.040466 87.685219,621.093323 
	C101.452454,613.486755 109.633789,601.950317 114.773499,587.264404 
z"/>
<path fill="#F4F4F4" opacity="1.000000" stroke="none" 
	d="
M118.570831,511.842224 
	C117.672020,513.837646 116.237762,515.786865 115.187050,517.924622 
	C112.476555,523.439270 109.463303,528.879333 107.528259,534.669189 
	C106.575783,537.519104 107.743645,541.077759 107.948410,544.741089 
	C100.237762,535.637756 104.499969,516.639099 118.570831,511.842224 
z"/>
<path fill="#FAFAFA" opacity="1.000000" stroke="none" 
	d="
M116.566071,581.819153 
	C116.723122,582.032104 116.627342,582.353760 116.323898,582.825134 
	C116.181908,582.625854 116.247574,582.276855 116.566071,581.819153 
z"/>
<path fill="#F0F0F0" opacity="1.000000" stroke="none" 
	d="
M769.536743,370.776459 
	C770.459595,367.897644 771.382507,365.018829 772.675903,362.342621 
	C781.151733,377.381927 792.215881,389.411346 807.229370,397.359711 
	C810.373352,399.024200 814.431458,398.961823 818.068359,399.695190 
	C828.862183,404.312195 835.274475,412.275452 836.800720,424.046356 
	C837.257019,427.564850 836.783081,429.528961 832.330872,429.506622 
	C799.543091,429.341980 766.753967,429.450073 733.965942,429.310577 
	C732.512390,429.304413 731.065491,427.731781 730.130859,426.396790 
	C736.729065,415.523590 744.292053,406.663086 754.903442,400.491455 
	C764.674683,394.808441 768.768982,385.296265 770.559875,374.632446 
	C770.760498,373.438080 769.903320,372.066101 769.536743,370.776459 
z"/>
<path fill="#EFEFEF" opacity="1.000000" stroke="none" 
	d="
M803.944824,355.798553 
	C787.359192,355.798553 770.773560,355.798553 754.250061,355.798553 
	C751.931091,345.695923 751.931030,345.695862 760.485535,340.523529 
	C768.629150,335.599640 768.586670,335.625916 763.640930,327.599213 
	C762.529724,325.795807 761.829468,323.739166 761.204590,321.196442 
	C764.084900,313.874542 766.471558,307.052124 769.426270,300.485352 
	C770.659973,297.743500 773.101746,295.545197 774.994324,293.099762 
	C783.148682,289.903656 790.670959,291.199493 797.835083,296.925873 
	C798.310730,298.483704 798.388489,299.575012 798.944275,300.299774 
	C806.816040,310.565430 803.141357,323.362488 793.033447,330.556152 
	C790.882324,332.087036 788.859009,333.797485 786.412598,335.709930 
	C790.492737,337.734314 793.726624,339.334869 796.956970,340.942535 
	C804.608948,344.750702 804.605408,344.751892 804.018188,353.314819 
	C803.961548,354.140503 803.967773,354.970551 803.944824,355.798553 
z"/>
<path fill="#C9C9C9" opacity="1.000000" stroke="none" 
	d="
M817.911255,399.411224 
	C814.431458,398.961823 810.373352,399.024200 807.229370,397.359711 
	C792.215881,389.411346 781.151733,377.381927 773.015503,362.176758 
	C779.400696,361.616119 785.819153,361.279510 792.229919,361.390381 
	C793.171509,361.406677 794.506042,363.410492 794.929565,364.728943 
	C798.041992,374.418396 802.039795,383.665741 808.813599,391.373291 
	C811.393982,394.309296 814.751038,396.562744 817.911255,399.411224 
z"/>
<path fill="#CBCBCB" opacity="1.000000" stroke="none" 
	d="
M804.397217,355.861389 
	C803.967773,354.970551 803.961548,354.140503 804.018188,353.314819 
	C804.605408,344.751892 804.608948,344.750702 796.956970,340.942535 
	C793.726624,339.334869 790.492737,337.734314 786.412598,335.709930 
	C788.859009,333.797485 790.882324,332.087036 793.033447,330.556152 
	C803.141357,323.362488 806.816040,310.565430 798.944275,300.299774 
	C798.388489,299.575012 798.310730,298.483704 798.069824,297.178864 
	C808.217896,304.790039 809.576111,319.104218 801.274780,329.948944 
	C797.154846,335.331177 797.216797,335.602112 803.183472,338.949982 
	C804.043518,339.432556 804.842346,340.022888 805.692078,340.525360 
	C814.047424,345.466980 814.048767,345.464691 812.442688,355.924194 
	C810.002747,355.924194 807.426147,355.924194 804.397217,355.861389 
z"/>
<path fill="#FAFAFA" opacity="1.000000" stroke="none" 
	d="
M769.320557,371.053497 
	C769.903320,372.066101 770.760498,373.438080 770.559875,374.632446 
	C768.768982,385.296265 764.674683,394.808441 754.903442,400.491455 
	C744.292053,406.663086 736.729065,415.523590 730.296021,425.955322 
	C729.739929,414.237366 736.069214,406.250092 745.652344,400.901398 
	C757.686829,394.184540 764.466125,383.704620 769.320557,371.053497 
z"/>
<path fill="#F7F7F7" opacity="1.000000" stroke="none" 
	d="
M774.638184,293.081421 
	C773.101746,295.545197 770.659973,297.743500 769.426270,300.485352 
	C766.471558,307.052124 764.084900,313.874542 761.164673,320.830322 
	C757.455750,309.022369 762.455811,298.590149 774.638184,293.081421 
z"/>
<path fill="#EFEFEF" opacity="1.000000" stroke="none" 
	d="
M92.933632,801.974243 
	C92.942665,801.530396 92.951698,801.086609 93.392685,800.247131 
	C94.552032,798.464417 94.929123,796.460815 96.074783,795.809814 
	C99.092224,794.095337 98.150040,791.902039 98.282349,789.226685 
	C98.495583,784.914734 99.220039,780.655701 103.498810,777.275024 
	C106.613327,774.814209 107.852898,769.959595 110.944855,766.847229 
	C111.195442,766.595032 110.990334,765.890137 110.996971,765.395630 
	C114.013725,765.306824 117.030487,765.218018 120.592667,765.517944 
	C123.871689,766.976135 126.671364,767.903503 129.327988,769.138550 
	C144.556091,776.218201 151.514603,789.713867 155.845398,804.743164 
	C158.584686,814.249512 159.970901,824.145813 161.964005,833.867188 
	C145.698288,833.302368 129.433548,832.366028 113.166481,832.324097 
	C104.583717,832.301941 95.996941,833.839539 86.652344,834.746643 
	C87.885475,828.117004 89.139114,821.377136 90.993439,814.284790 
	C95.925095,811.056030 96.375343,807.036560 92.933632,801.974243 
z"/>
<path fill="#EEEEEE" opacity="1.000000" stroke="none" 
	d="
M149.893005,760.494690 
	C133.159531,760.721802 116.401131,760.482544 99.703163,761.374512 
	C91.467049,761.814514 85.669159,758.601013 83.281296,749.185242 
	C82.514175,746.160278 82.435509,742.960632 82.455650,739.329773 
	C85.204597,732.084961 87.539764,725.351318 89.874924,718.617676 
	C91.308113,718.379517 92.741310,718.141357 94.374397,717.869995 
	C95.638718,722.242676 96.621758,726.423889 98.129715,730.406433 
	C98.615028,731.688110 100.430496,733.217163 101.728836,733.306519 
	C106.662819,733.646484 111.634224,733.443542 116.773933,733.443542 
	C117.638275,727.464600 118.391060,722.257385 119.188034,716.744507 
	C124.765060,716.744507 130.187347,716.744507 136.143570,716.744507 
	C136.929871,721.840088 137.732117,727.038940 138.717972,733.427673 
	C143.797806,733.427673 149.044205,733.567078 154.270950,733.308716 
	C155.301956,733.257751 156.762024,731.857361 157.157196,730.765503 
	C158.619766,726.724304 159.719391,722.551758 161.111526,717.907898 
	C162.875900,718.118958 164.621902,718.327881 166.700592,719.208618 
	C167.025299,722.198181 167.116928,724.521362 166.992722,726.832825 
	C166.329987,739.166016 163.262589,750.317261 151.969589,757.487915 
	C151.022736,758.089172 150.573456,759.473938 149.893005,760.494690 
z"/>
<path fill="#F0F0F0" opacity="1.000000" stroke="none" 
	d="
M180.165176,846.942017 
	C185.183029,852.297058 184.214325,859.075623 185.021606,866.006836 
	C146.847824,866.006836 109.105347,866.006836 70.957069,866.006836 
	C70.705360,859.545044 70.643242,853.187866 75.113022,847.234497 
	C85.417572,845.001038 94.986847,841.882080 104.713249,841.273254 
	C120.167717,840.305786 135.728287,840.908569 151.241165,841.088928 
	C154.988708,841.132385 158.765228,841.934082 162.457718,842.719421 
	C168.391159,843.981384 174.265732,845.520203 180.165176,846.942017 
z"/>
<path fill="#CBCBCB" opacity="1.000000" stroke="none" 
	d="
M162.323517,834.024353 
	C159.970901,824.145813 158.584686,814.249512 155.845398,804.743164 
	C151.514603,789.713867 144.556091,776.218201 129.327988,769.138550 
	C126.671364,767.903503 123.871689,766.976135 121.042648,765.565063 
	C131.725266,765.604553 142.510559,765.866638 153.272125,766.519409 
	C154.594574,766.599670 156.651657,768.605225 156.915726,769.994629 
	C160.994415,791.453918 164.832596,812.958984 168.843277,835.097839 
	C166.487030,834.747314 164.585037,834.464417 162.323517,834.024353 
z"/>
<path fill="#CBCBCB" opacity="1.000000" stroke="none" 
	d="
M150.341064,760.657227 
	C150.573456,759.473938 151.022736,758.089172 151.969589,757.487915 
	C163.262589,750.317261 166.329987,739.166016 166.992722,726.832825 
	C167.116928,724.521362 167.025299,722.198181 167.031631,719.411011 
	C171.474625,718.447449 173.345428,720.300171 173.093643,724.879028 
	C172.676834,732.459290 173.370422,740.177063 172.214584,747.622375 
	C170.471100,758.852966 165.624832,761.989624 154.259293,761.083008 
	C153.102936,760.990784 151.945877,760.907349 150.341064,760.657227 
z"/>
<path fill="#F7F7F7" opacity="1.000000" stroke="none" 
	d="
M180.054169,846.603821 
	C174.265732,845.520203 168.391159,843.981384 162.457718,842.719421 
	C158.765228,841.934082 154.988708,841.132385 151.241165,841.088928 
	C135.728287,840.908569 120.167717,840.305786 104.713249,841.273254 
	C94.986847,841.882080 85.417572,845.001038 75.391953,846.997925 
	C78.434868,845.006592 81.637367,842.035950 85.330276,841.179138 
	C104.848427,836.650696 124.708305,836.164551 144.607971,837.679810 
	C152.690216,838.295227 160.810532,839.162537 168.734360,840.788391 
	C172.679138,841.597778 176.219727,844.377319 180.054169,846.603821 
z"/>
<path fill="#F4F4F4" opacity="1.000000" stroke="none" 
	d="
M110.581604,765.354431 
	C110.990334,765.890137 111.195442,766.595032 110.944855,766.847229 
	C107.852898,769.959595 106.613327,774.814209 103.498810,777.275024 
	C99.220039,780.655701 98.495583,784.914734 98.282349,789.226685 
	C98.150040,791.902039 99.092224,794.095337 96.074783,795.809814 
	C94.929123,796.460815 94.552032,798.464417 93.480515,799.923401 
	C95.078773,788.899109 97.021156,777.802979 98.976151,766.634705 
	C102.952782,766.165100 106.559509,765.739136 110.581604,765.354431 
z"/>
<path fill="#F4F4F4" opacity="1.000000" stroke="none" 
	d="
M89.452515,718.647339 
	C87.539764,725.351318 85.204597,732.084961 82.501953,738.906494 
	C82.146118,734.526062 82.392448,730.042725 82.108063,725.593323 
	C81.776978,720.413086 84.113098,718.370728 89.452515,718.647339 
z"/>
<path fill="#F4F4F4" opacity="1.000000" stroke="none" 
	d="
M92.738487,802.301147 
	C96.375343,807.036560 95.925095,811.056030 91.207924,813.970337 
	C91.395599,810.214966 91.969467,806.421509 92.738487,802.301147 
z"/>
<path fill="#EFEFEF" opacity="1.000000" stroke="none" 
	d="
M793.947144,831.794739 
	C779.046387,832.243286 764.145691,832.691833 748.806030,833.153564 
	C748.165894,819.585327 745.101440,806.131104 737.947876,793.401123 
	C738.192139,792.138855 738.529480,791.262146 738.256104,790.664917 
	C735.705933,785.092651 733.273499,779.447754 730.357971,774.067261 
	C727.883301,769.500305 724.815857,765.254517 722.010681,760.866577 
	C724.362122,761.612793 726.681274,762.489746 729.071411,763.078674 
	C734.473267,764.409607 738.124207,762.074341 739.366211,756.654358 
	C741.425049,747.669800 743.478516,746.778870 751.435730,751.424133 
	C753.152832,752.426575 754.840332,753.481628 756.578979,754.444702 
	C762.847900,757.916931 768.306580,757.119812 773.272278,752.007019 
	C774.894897,750.336304 776.399414,748.548340 778.057068,746.914490 
	C781.928650,743.098572 784.741089,743.137329 788.697693,747.042358 
	C789.758850,748.089539 790.681274,749.279480 791.645874,750.422058 
	C797.670410,757.558777 803.712830,758.425293 811.708862,753.307556 
	C812.547546,752.770874 813.445068,752.327026 814.302246,751.818237 
	C823.002747,746.654968 824.227966,747.138550 827.062195,756.867004 
	C828.967224,763.406311 833.494507,764.986206 841.761047,762.133179 
	C841.707825,763.449219 841.507874,764.648987 840.876404,765.544434 
	C830.212341,780.666504 819.493347,795.749878 808.789429,810.843872 
	C803.838684,817.825073 798.894348,824.810913 793.947144,831.794739 
z"/>
<path fill="#ECECEC" opacity="1.000000" stroke="none" 
	d="
M836.092163,847.011475 
	C840.604309,852.657104 840.019043,859.284058 840.172913,866.157715 
	C802.053101,866.157715 764.385376,866.157715 726.255371,866.157715 
	C726.254700,859.022461 726.379089,852.165405 731.540649,846.064819 
	C734.838928,845.303528 737.374878,844.560547 739.957458,844.057007 
	C762.012878,839.755737 784.263428,839.498657 806.577576,841.077209 
	C810.834839,841.378418 815.092407,842.067627 819.274780,842.938293 
	C824.918640,844.113220 830.489807,845.637268 836.092163,847.011475 
z"/>
<path fill="#CBCBCB" opacity="1.000000" stroke="none" 
	d="
M794.400024,831.879395 
	C798.894348,824.810913 803.838684,817.825073 808.789429,810.843872 
	C819.493347,795.749878 830.212341,780.666504 840.876404,765.544434 
	C841.507874,764.648987 841.707825,763.449219 842.121643,761.991272 
	C844.700378,760.867065 847.266113,760.142700 849.831787,759.418335 
	C850.088806,759.784790 850.345825,760.151245 850.602844,760.517700 
	C834.605469,782.597900 817.524292,804.195862 817.970398,833.774170 
	C809.948547,833.146057 802.400757,832.554993 794.400024,831.879395 
z"/>
<path fill="#ECECEC" opacity="1.000000" stroke="none" 
	d="
M801.989563,750.963196 
	C799.864502,749.609985 797.278503,748.658630 795.690308,746.837219 
	C786.551147,736.355957 780.485352,736.184021 771.453552,746.502075 
	C766.424744,752.247070 763.882874,752.665466 757.317139,748.796997 
	C755.194275,747.546143 753.094421,746.256348 751.002869,744.995728 
	C758.699219,726.080078 785.656799,721.367249 799.625610,730.380859 
	C803.059570,737.355652 804.262329,743.983704 801.989563,750.963196 
z"/>
<path fill="#ECECEC" opacity="1.000000" stroke="none" 
	d="
M788.917969,718.683655 
	C782.824524,721.279114 777.226135,720.939453 774.099487,716.556824 
	C772.337585,714.087219 771.334290,710.020691 771.989441,707.126404 
	C773.009460,702.620728 777.171997,700.213257 781.797058,700.140808 
	C784.438904,700.099365 787.101929,701.408508 789.896118,702.900940 
	C789.663818,708.689453 789.290894,713.686523 788.917969,718.683655 
z"/>
<path fill="#F7F7F7" opacity="1.000000" stroke="none" 
	d="
M835.990540,846.672180 
	C830.489807,845.637268 824.918640,844.113220 819.274780,842.938293 
	C815.092407,842.067627 810.834839,841.378418 806.577576,841.077209 
	C784.263428,839.498657 762.012878,839.755737 739.957458,844.057007 
	C737.374878,844.560547 734.838928,845.303528 731.842041,845.906860 
	C736.639893,840.289429 743.915283,840.141052 750.647156,839.216003 
	C774.307983,835.964539 798.027161,835.970215 821.564026,840.223389 
	C826.544373,841.123352 831.124451,844.238403 835.990540,846.672180 
z"/>
<path fill="#CBCBCB" opacity="1.000000" stroke="none" 
	d="
M802.378052,751.033936 
	C804.262329,743.983704 803.059570,737.355652 799.957275,730.544373 
	C807.079712,732.895935 811.812195,738.161438 816.089722,745.269165 
	C811.392700,747.326477 807.079590,749.215637 802.378052,751.033936 
z"/>
<path fill="#F7F7F7" opacity="1.000000" stroke="none" 
	d="
M721.680664,760.657349 
	C724.815857,765.254517 727.883301,769.500305 730.357971,774.067261 
	C733.273499,779.447754 735.705933,785.092651 738.256104,790.664917 
	C738.529480,791.262146 738.192139,792.138855 737.822510,793.062317 
	C730.371399,782.211365 723.235840,771.184021 715.642273,759.448792 
	C717.948303,759.852478 719.649475,760.150330 721.680664,760.657349 
z"/>
<path fill="#C9C9C9" opacity="1.000000" stroke="none" 
	d="
M789.260620,718.661011 
	C789.290894,713.686523 789.663818,708.689453 790.092712,703.215149 
	C796.682373,706.677246 796.447449,713.525757 789.260620,718.661011 
z"/>
<path fill="#EFEFEF" opacity="1.000000" stroke="none" 
	d="
M349.034119,126.012787 
	C349.260895,124.659973 349.487671,123.307167 350.169800,121.508789 
	C356.969940,115.620110 357.745605,105.498428 353.064636,98.850250 
	C349.996277,102.456001 347.358337,107.192169 343.347382,109.877640 
	C337.641846,113.697678 331.061432,116.351135 324.613373,118.889862 
	C314.422485,122.902237 303.856628,126.000946 293.814667,130.332962 
	C290.024536,131.967972 287.250122,135.957428 284.012695,138.873627 
	C279.677490,134.986206 275.342285,131.098801 270.976807,126.447807 
	C271.482300,124.714203 272.018066,123.744179 272.913818,122.833603 
	C277.884064,123.586761 280.412994,121.678192 281.048096,116.134026 
	C278.751953,116.593979 276.949799,116.954971 275.129028,116.950974 
	C277.852600,113.114067 280.250763,109.288063 283.396637,106.231667 
	C296.838348,93.172409 310.528107,80.368927 324.065338,67.407303 
	C327.925415,63.711349 326.616913,55.985703 321.785522,52.979362 
	C320.870514,50.381474 321.613007,48.969566 324.407715,50.100079 
	C327.508942,51.354568 330.422089,53.073879 333.739014,55.126556 
	C337.299438,61.285400 342.051514,64.561661 348.030121,67.420212 
	C356.597626,71.516617 365.198334,76.517548 372.092560,82.946938 
	C388.980652,98.696365 393.042145,119.062546 388.325806,140.930252 
	C385.621613,153.468460 380.820251,165.554352 376.963013,177.843872 
	C367.925568,177.285599 358.854492,175.951874 349.858185,176.341965 
	C334.499390,177.007980 319.188934,178.773819 303.850525,179.980392 
	C303.241058,180.028336 302.553040,179.077042 302.172302,178.211395 
	C302.682983,177.547791 302.642059,177.287338 302.320190,177.050110 
	C302.412018,176.496292 302.503815,175.942474 303.105957,175.045898 
	C304.107056,174.258026 304.687164,173.879425 305.075165,173.357910 
	C310.992554,165.404266 318.367279,159.276077 326.960785,154.249374 
	C336.872711,148.451462 346.751373,142.217499 349.226776,129.568329 
	C349.447784,128.438965 349.111542,127.200554 349.034119,126.012787 
M330.466187,84.117043 
	C324.644775,80.761055 318.795776,83.500504 318.197784,89.956131 
	C318.106323,90.943672 318.750183,92.887123 319.054962,92.887329 
	C322.402008,92.889648 326.040405,93.335342 329.013245,92.167610 
	C331.895538,91.035446 333.231934,87.950256 330.466187,84.117043 
z"/>
<path fill="#F0F0F0" opacity="1.000000" stroke="none" 
	d="
M398.576721,190.866928 
	C403.259735,196.709091 403.189056,203.546219 402.886566,210.739319 
	C365.008636,210.739319 327.335480,210.739319 289.542816,210.739319 
	C288.442200,204.250153 288.969818,198.079865 293.215240,192.149048 
	C295.543121,191.228516 297.201050,190.447113 298.934631,189.909973 
	C312.518097,185.701202 326.513000,184.660538 340.604248,185.061630 
	C353.490814,185.428436 366.389069,186.004898 379.229736,187.102432 
	C385.738434,187.658752 392.131409,189.568863 398.576721,190.866928 
z"/>
<path fill="#CBCBCB" opacity="1.000000" stroke="none" 
	d="
M377.330933,178.024750 
	C380.820251,165.554352 385.621613,153.468460 388.325806,140.930252 
	C393.042145,119.062546 388.980652,98.696365 372.092560,82.946938 
	C365.198334,76.517548 356.597626,71.516617 348.030121,67.420212 
	C342.051514,64.561661 337.299438,61.285400 334.036621,55.312317 
	C334.176605,54.936501 334.380524,54.834099 334.499359,54.895767 
	C345.418640,60.563419 356.491699,65.958275 367.211914,71.981163 
	C391.093231,85.398277 401.088715,106.761826 399.752533,133.301315 
	C398.955597,149.130905 396.077118,164.855728 394.049438,181.317108 
	C388.061859,180.177689 382.880341,179.191650 377.330933,178.024750 
z"/>
<path fill="#CBCBCB" opacity="1.000000" stroke="none" 
	d="
M284.280701,139.122223 
	C287.250122,135.957428 290.024536,131.967972 293.814667,130.332962 
	C303.856628,126.000946 314.422485,122.902237 324.613373,118.889862 
	C331.061432,116.351135 337.641846,113.697678 343.347382,109.877640 
	C347.358337,107.192169 349.996277,102.456001 353.064636,98.850250 
	C357.745605,105.498428 356.969940,115.620110 350.319580,121.118210 
	C349.075195,117.885567 347.187317,117.350014 343.966766,118.406693 
	C334.874054,121.390099 325.779144,124.488739 316.484802,126.700012 
	C307.978760,128.723740 300.368011,131.968948 294.557800,138.546951 
	C291.265991,142.273727 287.980316,140.373154 284.280701,139.122223 
z"/>
<path fill="#F9F9F9" opacity="1.000000" stroke="none" 
	d="
M321.686157,53.426903 
	C326.616913,55.985703 327.925415,63.711349 324.065338,67.407303 
	C310.528107,80.368927 296.838348,93.172409 283.396637,106.231667 
	C280.250763,109.288063 277.852600,113.114067 274.959595,117.215080 
	C274.057159,119.487503 273.305511,121.130836 272.553864,122.774170 
	C272.018066,123.744179 271.482300,124.714203 270.912903,126.132195 
	C267.363251,123.626518 267.454987,120.632790 270.526642,117.332237 
	C279.011963,108.214493 287.344299,98.953842 295.866486,89.871048 
	C302.466766,82.836571 308.941772,75.630814 316.081879,69.175232 
	C320.932739,64.789413 323.023193,60.157902 321.686157,53.426903 
z"/>
<path fill="#F9F9F9" opacity="1.000000" stroke="none" 
	d="
M398.387512,190.540878 
	C392.131409,189.568863 385.738434,187.658752 379.229736,187.102432 
	C366.389069,186.004898 353.490814,185.428436 340.604248,185.061630 
	C326.513000,184.660538 312.518097,185.701202 298.934631,189.909973 
	C297.201050,190.447113 295.543121,191.228516 293.490143,191.943756 
	C295.071808,186.434906 300.282745,186.078903 304.768555,185.180206 
	C324.130157,181.301254 343.755280,180.662430 363.359894,182.168945 
	C373.234650,182.927750 383.006104,185.210312 392.769196,187.089813 
	C394.707581,187.462982 396.395111,189.139389 398.387512,190.540878 
z"/>
<path fill="#F4F4F4" opacity="1.000000" stroke="none" 
	d="
M348.787201,126.262581 
	C349.111542,127.200554 349.447784,128.438965 349.226776,129.568329 
	C346.751373,142.217499 336.872711,148.451462 326.960785,154.249374 
	C318.367279,159.276077 310.992554,165.404266 305.075165,173.357910 
	C304.687164,173.879425 304.107056,174.258026 303.310547,174.852112 
	C305.634430,164.974625 313.391785,159.017853 320.913910,153.077042 
	C326.671844,148.529541 333.542969,145.295990 338.904083,140.372894 
	C342.948395,136.659012 345.386963,131.196533 348.787201,126.262581 
z"/>
<path fill="#F4F4F4" opacity="1.000000" stroke="none" 
	d="
M302.186035,177.265228 
	C302.642059,177.287338 302.682983,177.547791 302.299805,177.903931 
	C302.121674,177.811066 302.086761,177.645691 302.186035,177.265228 
z"/>
<path fill="#EFEFEF" opacity="1.000000" stroke="none" 
	d="
M379.963135,396.867004 
	C367.546204,396.194305 355.125214,394.930267 342.713501,395.015686 
	C330.361328,395.100647 318.018463,396.540771 305.226288,397.417175 
	C306.283142,391.606506 307.368805,385.637695 308.950470,379.308136 
	C309.829163,378.574585 310.211823,378.201782 310.594482,377.828949 
	C310.102142,377.554169 309.609772,377.279388 309.117432,377.004639 
	C309.271393,375.866791 309.425323,374.728943 310.135742,373.228149 
	C310.773743,370.901672 310.855316,368.938171 310.936890,366.974640 
	C310.950317,366.524902 310.963776,366.075195 311.447754,365.221313 
	C312.289276,364.136017 312.739655,363.485870 313.019348,362.769104 
	C317.139832,352.210236 321.253357,341.648499 325.297058,331.060150 
	C325.513641,330.492950 325.097351,329.684052 324.975677,328.987671 
	C325.179291,328.809052 325.416504,328.722626 326.323242,328.637573 
	C331.292877,328.417999 335.626617,328.289185 340.035645,328.502869 
	C341.557281,329.541656 342.975555,330.305511 344.454956,330.922729 
	C351.218353,333.744415 357.526672,337.018982 362.166351,343.122223 
	C374.271423,359.045715 377.901215,377.673279 379.963135,396.867004 
z"/>
<path fill="#EEEEEE" opacity="1.000000" stroke="none" 
	d="
M359.001312,323.181610 
	C345.265411,323.522125 331.522614,323.696899 317.796112,324.264557 
	C309.377991,324.612701 304.766388,322.109375 302.644348,314.068817 
	C301.352539,309.173950 301.192047,303.980530 301.034302,298.417816 
	C303.689240,292.584839 305.833252,287.255280 307.977264,281.925690 
	C309.378296,281.531708 310.779327,281.137726 312.686890,280.601288 
	C314.340057,285.943573 315.925079,291.065704 317.477051,296.080963 
	C323.426056,296.080963 329.180389,296.080963 335.349976,296.080963 
	C335.965759,291.530548 336.663269,287.302826 337.067688,283.047272 
	C337.319183,280.400909 338.318604,279.264038 341.111176,279.384583 
	C345.557556,279.576508 350.018341,279.435852 354.682373,279.435852 
	C355.507080,285.055176 356.272491,290.270416 357.078522,295.762421 
	C362.222534,296.011261 367.326050,296.463806 372.417389,296.353943 
	C373.628448,296.327789 375.397552,294.639771 375.876404,293.336426 
	C377.345215,289.338623 378.312042,285.156464 379.563049,280.731232 
	C381.736694,281.131622 383.500000,281.456451 385.624573,282.363281 
	C385.656311,286.887207 385.642853,290.886871 384.935822,294.759888 
	C383.086060,304.893280 379.869598,314.330505 370.405457,320.213287 
	C369.330322,320.881592 368.766205,322.372009 367.575348,323.414856 
	C364.457520,323.292908 361.729401,323.237244 359.001312,323.181610 
z"/>
<path fill="#ECECEC" opacity="1.000000" stroke="none" 
	d="
M399.111359,410.013794 
	C403.482391,415.685150 403.261230,422.247589 403.037415,429.179382 
	C365.096222,429.179382 327.421753,429.179382 289.297089,429.179382 
	C288.807098,422.986053 289.554901,417.042236 292.898010,411.143921 
	C296.431061,409.657562 299.200867,407.652588 302.182312,407.261597 
	C314.964661,405.585327 327.781586,403.854370 340.640228,403.181122 
	C350.552612,402.662140 360.552399,403.566132 370.499908,404.091492 
	C374.271820,404.290741 378.043915,405.026855 381.748993,405.827789 
	C387.566254,407.085236 393.326782,408.605072 399.111359,410.013794 
z"/>
<path fill="#C9C9C9" opacity="1.000000" stroke="none" 
	d="
M380.354980,396.965271 
	C377.901215,377.673279 374.271423,359.045715 362.166351,343.122223 
	C357.526672,337.018982 351.218353,333.744415 344.454956,330.922729 
	C342.975555,330.305511 341.557281,329.541656 340.492310,328.375854 
	C351.894928,328.330963 362.916107,328.755615 373.937317,329.180298 
	C375.489777,336.072876 377.224670,342.930359 378.557373,349.865173 
	C381.468018,365.011230 384.178406,380.195831 386.949219,395.368561 
	C387.064575,396.000183 386.963959,396.671234 386.963959,398.037842 
	C384.791290,397.697388 382.769043,397.380463 380.354980,396.965271 
z"/>
<path fill="#C8C8C8" opacity="1.000000" stroke="none" 
	d="
M367.965088,323.481201 
	C368.766205,322.372009 369.330322,320.881592 370.405457,320.213287 
	C379.869598,314.330505 383.086060,304.893280 384.935822,294.759888 
	C385.642853,290.886871 385.656311,286.887207 385.983093,282.505859 
	C386.147766,282.001587 386.315186,281.936707 387.136871,281.915955 
	C388.915802,282.851746 390.897797,283.629639 391.033478,284.652435 
	C392.522125,295.874176 393.174713,307.089905 388.483826,317.857697 
	C387.694611,318.897736 386.905396,319.937744 385.676270,321.381958 
	C384.320129,322.479492 383.403931,323.172882 382.487732,323.866241 
	C382.487732,323.866241 382.219330,323.764038 381.713501,323.870605 
	C376.793488,323.811859 372.379303,323.646545 367.965088,323.481201 
z"/>
<path fill="#F7F7F7" opacity="1.000000" stroke="none" 
	d="
M399.011841,409.676453 
	C393.326782,408.605072 387.566254,407.085236 381.748993,405.827789 
	C378.043915,405.026855 374.271820,404.290741 370.499908,404.091492 
	C360.552399,403.566132 350.552612,402.662140 340.640228,403.181122 
	C327.781586,403.854370 314.964661,405.585327 302.182312,407.261597 
	C299.200867,407.652588 296.431061,409.657562 293.190247,410.930298 
	C296.280396,408.641754 299.474365,405.028473 303.250854,404.253387 
	C331.763275,398.401276 360.412689,398.325470 388.951538,404.188721 
	C392.475769,404.912811 395.601807,407.574982 399.011841,409.676453 
z"/>
<path fill="#363636" opacity="1.000000" stroke="none" 
	d="
M367.575378,323.414886 
	C372.379303,323.646545 376.793488,323.811859 381.605286,323.964996 
	C380.592224,324.963409 379.243713,326.080872 377.750549,326.949615 
	C376.628387,327.602448 375.320435,327.935852 374.016266,328.795898 
	C362.916107,328.755615 351.894928,328.330963 340.417053,328.033325 
	C335.626617,328.289185 331.292877,328.417999 326.492859,328.544800 
	C327.565399,324.025482 331.732788,325.373535 334.731873,325.149170 
	C341.185760,324.666351 347.701904,325.065826 354.189880,324.951813 
	C355.726349,324.924866 357.252258,324.296448 358.892151,323.563171 
	C361.729401,323.237244 364.457520,323.292908 367.575378,323.414886 
z"/>
<path fill="#F4F4F4" opacity="1.000000" stroke="none" 
	d="
M324.549377,328.942078 
	C325.097351,329.684052 325.513641,330.492950 325.297058,331.060150 
	C321.253357,341.648499 317.139832,352.210236 313.019348,362.769104 
	C312.739655,363.485870 312.289276,364.136017 311.572388,364.905090 
	C312.953003,355.221161 314.995758,345.490509 316.277008,335.660614 
	C316.949524,330.501160 319.050385,328.311279 324.549377,328.942078 
z"/>
<path fill="#363636" opacity="1.000000" stroke="none" 
	d="
M388.878021,317.863159 
	C393.174713,307.089905 392.522125,295.874176 391.033478,284.652435 
	C390.897797,283.629639 388.915802,282.851746 387.399536,281.856506 
	C390.243256,279.005432 393.386017,279.434387 393.921021,282.853302 
	C395.573425,293.412537 396.085968,303.956573 392.029205,314.163635 
	C391.479950,315.545593 390.209015,316.640686 388.878021,317.863159 
z"/>
<path fill="#FAFAFA" opacity="1.000000" stroke="none" 
	d="
M307.549194,281.886963 
	C305.833252,287.255280 303.689240,292.584839 301.162476,297.971069 
	C300.828400,294.627075 301.151215,291.202850 300.860535,287.831512 
	C300.441986,282.977844 302.704895,281.404022 307.549194,281.886963 
z"/>
<path fill="#F4F4F4" opacity="1.000000" stroke="none" 
	d="
M310.739807,367.299438 
	C310.855316,368.938171 310.773743,370.901672 310.322693,372.933960 
	C310.149689,371.209900 310.346222,369.417084 310.739807,367.299438 
z"/>
<path fill="#363636" opacity="1.000000" stroke="none" 
	d="
M382.916656,323.894531 
	C383.403931,323.172882 384.320129,322.479492 385.549225,321.635071 
	C385.023285,322.296997 384.184448,323.109894 382.916656,323.894531 
z"/>
<path fill="#F4F4F4" opacity="1.000000" stroke="none" 
	d="
M308.976776,377.324585 
	C309.609772,377.279388 310.102142,377.554169 310.594482,377.828949 
	C310.211823,378.201782 309.829163,378.574585 309.140442,378.978394 
	C308.834961,378.554382 308.835541,378.099457 308.976776,377.324585 
z"/>
<path fill="#A1A1A1" opacity="1.000000" stroke="none" 
	d="
M330.729370,84.396317 
	C333.231934,87.950256 331.895538,91.035446 329.013245,92.167610 
	C326.040405,93.335342 322.402008,92.889648 319.054962,92.887329 
	C318.750183,92.887123 318.106323,90.943672 318.197784,89.956131 
	C318.795776,83.500504 324.644775,80.761055 330.729370,84.396317 
z"/>
<path fill="#A1A1A1" opacity="1.000000" stroke="none" 
	d="
M272.913818,122.833603 
	C273.305511,121.130836 274.057159,119.487503 274.978210,117.580063 
	C276.949799,116.954971 278.751953,116.593979 281.048096,116.134026 
	C280.412994,121.678192 277.884064,123.586761 272.913818,122.833603 
z"/>
</svg>