<svg version="1.1" id="Layer_1" xmlns="http://www.w3.org/2000/svg" xmlns:xlink="http://www.w3.org/1999/xlink" x="0px" y="0px"
	 width="100%" viewBox="0 0 890 892" enable-background="new 0 0 890 892" xml:space="preserve">
<path fill="#FFFEFD" opacity="1.000000" stroke="none" 
	d="
M1.000000,239.000000 
	C1.000000,159.333328 1.000000,80.166664 1.000000,1.000000 
	C297.666656,1.000000 594.333313,1.000000 891.000000,1.000000 
	C891.000000,298.333344 891.000000,595.666687 891.000000,893.000000 
	C594.333313,893.000000 297.666656,893.000000 1.000000,893.000000 
	C1.000000,675.166687 1.000000,457.333344 1.000000,239.000000 
M884.523865,664.376892 
	C884.580078,663.715027 884.685364,663.053101 884.685425,662.391235 
	C884.693542,591.794067 884.696533,521.196960 884.672424,450.599792 
	C884.671997,449.297943 884.343201,447.996216 884.142334,445.795898 
	C884.117432,443.632446 884.070984,441.469025 884.070679,439.305573 
	C884.062012,368.889648 884.057800,298.473755 884.524841,227.377899 
	C884.581970,225.883667 884.688843,224.389450 884.689026,222.895218 
	C884.697205,153.635941 884.641479,84.376526 884.809387,15.117653 
	C884.821533,10.088729 883.146790,9.198089 878.554321,9.207350 
	C809.461792,9.346685 740.368896,9.299089 671.276123,9.330816 
	C669.498108,9.331633 667.720215,9.732662 665.012329,9.932067 
	C640.045837,9.932204 615.079285,9.943303 590.112793,9.930128 
	C542.510742,9.905008 494.908661,9.866041 446.521057,9.468496 
	C445.858582,9.415133 445.196136,9.315107 444.533661,9.315031 
	C373.948608,9.306945 303.363586,9.302973 232.778564,9.332074 
	C231.499954,9.332601 230.221527,9.733415 228.012939,9.932190 
	C155.810745,9.932190 83.608559,9.932190 10.946187,9.932190 
	C10.946187,83.123154 10.946187,155.533325 10.475074,228.623993 
	C10.419279,229.285919 10.314691,229.947830 10.314615,230.609756 
	C10.306564,301.206696 10.303533,371.803619 10.327641,442.400543 
	C10.328086,443.702362 10.657056,445.004059 10.857822,447.204346 
	C10.882708,449.367798 10.929101,451.531219 10.929360,453.694672 
	C10.937802,524.110352 10.941813,594.526062 10.474242,665.621582 
	C10.417064,667.115784 10.310046,668.610046 10.309869,670.104248 
	C10.301641,739.364014 10.357269,808.623962 10.189412,877.883362 
	C10.177223,882.912476 11.852650,883.803162 16.444904,883.793884 
	C85.537918,883.654663 154.631287,883.702271 223.724564,883.670471 
	C225.502579,883.669678 227.280380,883.268188 229.988190,883.068176 
	C254.621719,883.067993 279.255249,883.057007 303.888763,883.069946 
	C351.823517,883.095215 399.758270,883.133789 448.476501,883.531067 
	C449.138977,883.584473 449.801422,883.684509 450.463898,883.684570 
	C521.049438,883.692688 591.635010,883.696716 662.220581,883.667786 
	C663.499268,883.667236 664.777893,883.267334 666.985352,883.067383 
	C739.187927,883.067383 811.390442,883.067383 884.052551,883.067383 
	C884.052551,809.877502 884.052551,737.467224 884.523865,664.376892 
z"/>
<path fill="#F5C79C" opacity="1.000000" stroke="none" 
	d="
M447.693024,883.166870 
	C399.758270,883.133789 351.823517,883.095215 303.888763,883.069946 
	C279.255249,883.057007 254.621719,883.067993 229.503433,882.588379 
	C229.001343,809.728333 228.984009,737.348206 229.438034,664.979614 
	C302.167694,664.991211 374.425995,664.991211 447.154816,664.991211 
	C447.154816,662.617676 447.154816,660.981201 447.154816,659.344727 
	C447.154816,590.350159 447.114807,521.355469 447.249115,452.361145 
	C447.257629,447.993896 446.156921,446.736542 441.695953,446.745728 
	C372.535004,446.888184 303.373688,446.843201 234.212433,446.858185 
	C232.616272,446.858551 231.020157,447.051392 229.032074,447.179779 
	C229.032074,520.110168 229.032074,592.571777 228.561554,665.020691 
	C155.709518,664.985901 83.328003,664.963806 10.946479,664.941772 
	C10.941813,594.526062 10.937802,524.110352 10.929360,453.694672 
	C10.929101,451.531219 10.882708,449.367798 11.325288,446.706116 
	C84.040504,446.207855 156.288254,446.207855 229.028519,446.207855 
	C229.028519,372.896637 229.028519,300.434509 229.013290,227.987274 
	C228.998062,228.002151 228.967972,228.032028 229.439026,228.020874 
	C302.110199,228.009720 374.310303,228.009720 447.155487,228.009720 
	C447.155487,225.466080 447.155487,223.524826 447.155487,221.583588 
	C447.155487,165.481415 447.145447,109.379234 447.162445,53.277061 
	C447.166840,38.795635 447.256226,24.314234 447.306580,9.832823 
	C494.908661,9.866041 542.510742,9.905008 590.112793,9.930128 
	C615.079285,9.943303 640.045837,9.932204 665.497192,10.412038 
	C665.999146,83.272034 666.016235,155.652054 665.561951,228.020523 
	C592.832336,228.008972 520.574036,228.008972 447.845306,228.008972 
	C447.845306,230.387375 447.845337,232.021423 447.845337,233.655487 
	C447.845367,302.649994 447.885345,371.644592 447.751007,440.638824 
	C447.742493,445.006256 448.843628,446.263336 453.304321,446.254150 
	C522.465210,446.111694 591.626404,446.156647 660.787598,446.141663 
	C662.383728,446.141296 663.979858,445.948486 665.968018,445.820099 
	C665.968018,372.889771 665.968018,300.428223 666.438538,227.979095 
	C739.290344,228.013626 811.671631,228.035736 884.052917,228.057846 
	C884.057800,298.473755 884.062012,368.889648 884.070679,439.305573 
	C884.070984,441.469025 884.117432,443.632446 883.674927,446.294037 
	C810.959167,446.792175 738.710876,446.792175 665.968018,446.792175 
	C665.968018,520.105896 665.968018,592.568909 665.982910,665.016968 
	C665.997864,665.001892 666.027588,664.971436 665.557251,664.981079 
	C592.825012,664.990723 520.563049,664.990723 447.844574,664.990723 
	C447.844574,667.734497 447.844574,669.704346 447.844574,671.674133 
	C447.844574,728.340393 447.854218,785.006714 447.837646,841.672974 
	C447.833618,855.504272 447.743530,869.335571 447.693024,883.166870 
z"/>
<path fill="#BE814D" opacity="1.000000" stroke="none" 
	d="
M884.288879,227.717865 
	C811.671631,228.035736 739.290344,228.013626 666.455078,227.995239 
	C666.001099,227.998978 666.033325,228.032074 666.033325,228.032074 
	C666.016235,155.652054 665.999146,83.272034 665.962158,10.419527 
	C667.720215,9.732662 669.498108,9.331633 671.276123,9.330816 
	C740.368896,9.299089 809.461792,9.346685 878.554321,9.207350 
	C883.146790,9.198089 884.821533,10.088729 884.809387,15.117653 
	C884.641479,84.376526 884.697205,153.635941 884.689026,222.895218 
	C884.688843,224.389450 884.581970,225.883667 884.288879,227.717865 
z"/>
<path fill="#BE804C" opacity="1.000000" stroke="none" 
	d="
M448.084778,883.348999 
	C447.743530,869.335571 447.833618,855.504272 447.837646,841.672974 
	C447.854218,785.006714 447.844574,728.340393 447.844574,671.674133 
	C447.844574,669.704346 447.844574,667.734497 447.844574,664.990723 
	C520.563049,664.990723 592.825012,664.990723 665.547363,665.452271 
	C666.024048,738.293823 666.040283,810.673828 666.056519,883.053833 
	C664.777893,883.267334 663.499268,883.667236 662.220581,883.667786 
	C591.635010,883.696716 521.049438,883.692688 450.463898,883.684570 
	C449.801422,883.684509 449.138977,883.584473 448.084778,883.348999 
z"/>
<path fill="#BE804C" opacity="1.000000" stroke="none" 
	d="
M229.028519,227.972412 
	C229.028519,300.434509 229.028519,372.896637 229.028519,446.207855 
	C156.288254,446.207855 84.040504,446.207855 11.312746,446.256836 
	C10.657056,445.004059 10.328086,443.702362 10.327641,442.400543 
	C10.303533,371.803619 10.306564,301.206696 10.314615,230.609756 
	C10.314691,229.947830 10.419279,229.285919 11.183179,228.303528 
	C84.270363,227.979492 156.649445,227.975952 229.028519,227.972412 
z"/>
<path fill="#F5C79C" opacity="1.000000" stroke="none" 
	d="
M229.013290,227.987274 
	C156.649445,227.975952 84.270363,227.979492 11.418736,227.963272 
	C10.946187,155.533325 10.946187,83.123154 10.946187,9.932190 
	C83.608559,9.932190 155.810745,9.932190 228.497925,10.412273 
	C228.977921,83.272247 228.972946,155.652145 228.967972,228.032028 
	C228.967972,228.032028 228.998062,228.002151 229.013290,227.987274 
z"/>
<path fill="#F5C79C" opacity="1.000000" stroke="none" 
	d="
M666.520935,883.060547 
	C666.040283,810.673828 666.024048,738.293823 666.017700,665.442627 
	C666.027588,664.971436 665.997864,665.001892 666.454102,665.005676 
	C739.291016,665.025269 811.671814,665.041077 884.052551,665.056885 
	C884.052551,737.467224 884.052551,809.877502 884.052551,883.067383 
	C811.390442,883.067383 739.187927,883.067383 666.520935,883.060547 
z"/>
<path fill="#BE814D" opacity="1.000000" stroke="none" 
	d="
M10.710361,665.281616 
	C83.328003,664.963806 155.709518,664.985901 228.544922,665.004639 
	C228.998779,665.001343 228.966675,664.968018 228.966675,664.968018 
	C228.984009,737.348206 229.001343,809.728333 229.038483,882.581055 
	C227.280380,883.268188 225.502579,883.669678 223.724564,883.670471 
	C154.631287,883.702271 85.537918,883.654663 16.444904,883.793884 
	C11.852650,883.803162 10.177223,882.912476 10.189412,877.883362 
	C10.357269,808.623962 10.301641,739.364014 10.309869,670.104248 
	C10.310046,668.610046 10.417064,667.115784 10.710361,665.281616 
M114.870979,701.234070 
	C106.938065,702.023560 106.945374,702.024719 105.688431,709.831116 
	C105.271530,712.420349 104.806419,715.001892 104.378815,717.496643 
	C95.293251,718.857666 95.289314,718.858887 92.761612,710.718811 
	C92.121796,708.658386 91.750710,706.470032 90.800941,704.567810 
	C90.278603,703.521545 88.726418,702.187500 87.779427,702.289673 
	C82.841148,702.822144 77.903046,703.581360 73.070114,704.711731 
	C71.821663,705.003784 70.125656,706.863342 70.043152,708.096985 
	C69.488976,716.383850 68.748749,724.725159 69.173347,732.992126 
	C69.615028,741.591614 71.653336,750.497131 80.167152,754.593384 
	C85.361908,757.092773 85.286354,759.689514 84.433907,764.202271 
	C80.765450,783.622864 77.471542,803.114258 73.765190,822.527161 
	C73.376923,824.560974 71.559799,826.987610 69.730247,827.955872 
	C64.237152,830.862915 60.299416,834.825684 59.118923,840.971680 
	C58.246269,845.515015 57.403862,850.160095 57.423256,854.756165 
	C57.452110,861.592041 58.092808,861.889587 65.099869,861.890564 
	C100.089760,861.895447 135.079773,861.945435 170.069473,861.862305 
	C181.340698,861.835571 182.699768,864.867554 181.808701,849.014893 
	C181.281662,839.638672 178.253616,831.414734 168.575409,827.307251 
	C167.393082,826.805420 166.339798,824.917175 166.070709,823.510071 
	C162.609207,805.408691 159.289398,787.280212 155.963242,769.153076 
	C155.199860,764.992737 154.548340,760.811890 153.865738,756.761536 
	C161.617538,754.431396 166.150131,749.879883 168.343872,742.793945 
	C171.986038,731.029480 170.595367,719.095886 169.706314,707.187256 
	C169.642670,706.334717 168.162399,705.068909 167.177811,704.889526 
	C161.349838,703.827026 155.473663,703.028931 149.465118,702.119385 
	C147.699432,707.642517 146.051971,712.795837 144.473022,717.734863 
	C141.184952,717.734863 138.403015,717.734863 135.326385,717.734863 
	C134.403687,712.204407 133.515884,706.883118 132.573013,701.231750 
	C126.749702,701.231750 121.276070,701.231750 114.870979,701.234070 
z"/>
<path fill="#BE804C" opacity="1.000000" stroke="none" 
	d="
M229.439026,228.020874 
	C228.972946,155.652145 228.977921,83.272247 228.962952,10.419907 
	C230.221527,9.733415 231.499954,9.332601 232.778564,9.332074 
	C303.363586,9.302973 373.948608,9.306945 444.533661,9.315031 
	C445.196136,9.315107 445.858582,9.415133 446.913818,9.650660 
	C447.256226,24.314234 447.166840,38.795635 447.162445,53.277061 
	C447.145447,109.379234 447.155487,165.481415 447.155487,221.583588 
	C447.155487,223.524826 447.155487,225.466080 447.155487,228.009720 
	C374.310303,228.009720 302.110199,228.009720 229.439026,228.020874 
M284.390625,174.808136 
	C276.556488,181.228226 275.907013,190.126602 276.000885,199.256927 
	C276.066223,205.613800 276.572327,206.099731 282.843292,206.100952 
	C319.321564,206.108078 355.799805,206.104828 392.278076,206.103165 
	C393.777039,206.103104 395.375519,206.404190 396.745209,205.978241 
	C397.964844,205.598953 399.578918,204.606903 399.911407,203.540085 
	C404.444275,188.997589 396.054016,173.827377 381.476898,170.196213 
	C379.263153,169.644775 377.550415,169.237579 378.092133,166.510147 
	C379.797150,157.925797 380.539307,148.988251 383.477020,140.845016 
	C389.266205,124.797577 399.949219,111.477386 409.932556,97.846390 
	C411.043091,96.330070 412.816193,93.369064 412.453156,93.028717 
	C410.624908,91.314621 408.218323,89.245110 405.961243,89.180885 
	C402.264496,89.075684 398.431580,90.113670 394.826508,91.223259 
	C388.274628,93.239853 388.368530,93.397301 386.506470,87.029243 
	C385.377655,83.168678 384.169189,79.471344 379.525635,78.113968 
	C377.551483,77.536896 375.711609,75.981384 374.195679,74.481453 
	C372.082794,72.390839 370.675659,69.479439 368.356506,67.726044 
	C362.671600,63.427917 356.637360,59.591900 350.716492,55.551414 
	C356.598389,46.596138 356.576904,39.689529 350.254578,33.900681 
	C344.298157,28.446861 332.525818,27.755198 326.770020,33.139969 
	C324.253418,35.494320 321.465759,39.163322 321.465240,42.235771 
	C321.464386,47.140110 323.687836,52.044823 324.978455,56.978653 
	C316.526703,59.715446 308.452545,64.870277 302.839569,73.499573 
	C301.789795,75.113441 300.498779,77.521133 299.034576,77.751144 
	C292.475433,78.781525 290.289154,83.257179 289.387695,88.835999 
	C288.692993,93.135155 286.800171,93.295395 283.110382,91.907463 
	C279.165131,90.423439 274.881348,89.428612 270.689240,89.184944 
	C268.591888,89.063034 265.611450,90.593529 264.481415,92.324112 
	C263.776184,93.404129 265.379059,96.542404 266.628754,98.260529 
	C276.608185,111.980782 287.047058,125.402618 293.214081,141.460709 
	C296.686737,150.502945 298.724457,159.772537 297.957123,168.814026 
	C293.146240,170.865143 289.056824,172.608673 284.390625,174.808136 
z"/>
<path fill="#BE804C" opacity="1.000000" stroke="none" 
	d="
M884.288208,664.716919 
	C811.671814,665.041077 739.291016,665.025269 666.439148,665.020752 
	C665.968018,592.568909 665.968018,520.105896 665.968018,446.792175 
	C738.710876,446.792175 810.959167,446.792175 883.687500,446.743286 
	C884.343201,447.996216 884.671997,449.297943 884.672424,450.599792 
	C884.696533,521.196960 884.693542,591.794067 884.685425,662.391235 
	C884.685364,663.053101 884.580078,663.715027 884.288208,664.716919 
M787.186951,493.309479 
	C791.539368,487.570282 793.813354,481.556030 790.216064,474.475250 
	C785.513184,465.218018 766.316223,463.344116 760.086975,474.059296 
	C755.773499,481.479187 758.272095,487.664307 763.608215,493.634216 
	C752.352966,496.786743 743.990356,503.366577 737.897461,513.009033 
	C737.108582,514.257507 735.437805,515.439087 734.003235,515.698364 
	C729.479980,516.515808 727.821106,519.444641 726.918640,523.505676 
	C725.271240,530.919006 724.676392,530.841797 717.237976,528.234558 
	C713.553589,526.943115 709.192322,526.314819 705.389160,526.933838 
	C699.981628,527.813965 699.662292,529.975403 702.773560,534.439148 
	C709.969910,544.763611 717.490417,554.902527 724.026611,565.635986 
	C731.557800,578.003235 735.938232,591.497131 734.819946,606.478699 
	C727.502686,608.398682 719.632751,609.908386 716.709595,617.509094 
	C714.453308,623.375610 713.679749,629.955811 713.129761,636.295349 
	C712.564331,642.812439 713.248596,643.093323 719.712708,643.094666 
	C755.201538,643.102051 790.690369,643.118774 826.179199,643.087341 
	C838.851990,643.076111 836.910339,644.293518 836.982666,632.128784 
	C837.069458,617.538025 832.226196,610.956055 818.473694,607.218018 
	C815.848511,606.504517 814.540833,605.464966 815.119019,602.849304 
	C817.074158,594.004761 818.174011,584.815552 821.375183,576.435913 
	C827.287415,560.959412 837.523682,547.906616 847.449158,534.780762 
	C850.582092,530.637634 849.179871,526.477966 844.097595,526.263611 
	C839.933838,526.088013 835.591553,527.181030 831.523743,528.376526 
	C825.264709,530.215881 825.664246,530.336914 823.374146,524.090210 
	C822.289307,521.131165 820.133972,517.226562 817.634827,516.462952 
	C814.515808,515.509949 812.883484,513.974243 811.314209,511.643921 
	C805.574768,503.121185 798.400635,496.514526 787.522827,494.069672 
	C787.357849,494.043121 787.192932,494.016571 787.186951,493.309479 
z"/>
<path fill="#BE804C" opacity="1.000000" stroke="none" 
	d="
M229.015427,665.017334 
	C229.032074,592.571777 229.032074,520.110168 229.032074,447.179779 
	C231.020157,447.051392 232.616272,446.858551 234.212433,446.858185 
	C303.373688,446.843201 372.535004,446.888184 441.695953,446.745728 
	C446.156921,446.736542 447.257629,447.993896 447.249115,452.361145 
	C447.114807,521.355469 447.154816,590.350159 447.154816,659.344727 
	C447.154816,660.981201 447.154816,662.617676 447.154816,664.991211 
	C374.425995,664.991211 302.167694,664.991211 229.438034,664.979614 
	C228.966675,664.968018 228.998779,665.001343 229.015427,665.017334 
z"/>
<path fill="#BE804C" opacity="1.000000" stroke="none" 
	d="
M665.984558,227.982834 
	C665.968018,300.428223 665.968018,372.889771 665.968018,445.820099 
	C663.979858,445.948486 662.383728,446.141296 660.787598,446.141663 
	C591.626404,446.156647 522.465210,446.111694 453.304321,446.254150 
	C448.843628,446.263336 447.742493,445.006256 447.751007,440.638824 
	C447.885345,371.644592 447.845367,302.649994 447.845337,233.655487 
	C447.845337,232.021423 447.845306,230.387375 447.845306,228.008972 
	C520.574036,228.008972 592.832336,228.008972 665.561951,228.020523 
	C666.033325,228.032074 666.001099,227.998978 665.984558,227.982834 
M619.009949,416.418457 
	C619.200439,402.175232 614.664612,391.175110 598.424316,388.297089 
	C600.965942,383.508545 603.208618,379.647278 605.114319,375.626312 
	C611.445190,362.268219 618.354370,349.125885 623.721069,335.385010 
	C629.483337,320.631134 626.254639,314.402924 611.911804,307.673218 
	C611.312317,307.391937 610.688660,307.142303 610.052368,306.962311 
	C600.193298,304.172852 590.330261,301.397308 579.978760,298.480682 
	C581.032104,292.222290 577.255432,288.643585 570.953491,286.993469 
	C571.093445,285.273132 571.210144,283.838196 571.377563,281.780518 
	C577.686279,281.780518 583.757874,281.780518 589.830444,281.780518 
	C589.830444,273.230530 589.830444,265.334290 589.830444,256.799255 
	C582.726562,256.799255 575.997253,256.799255 568.796631,256.799255 
	C568.796631,250.900558 568.796631,245.646378 568.796631,240.387894 
	C560.396240,240.387894 552.511292,240.387894 544.060181,240.387894 
	C544.060181,246.018188 544.060181,251.264084 544.060181,257.128540 
	C536.773193,257.128540 530.043457,257.128540 523.368225,257.128540 
	C523.368225,265.684631 523.368225,273.587036 523.368225,281.968475 
	C529.671570,281.968475 535.607910,281.968475 541.698486,281.968475 
	C542.197388,284.861877 543.192871,287.070587 539.395813,288.158661 
	C535.738281,289.206726 533.584595,292.051971 533.874268,296.090729 
	C534.078918,298.943665 532.815247,299.644684 530.153564,300.019958 
	C518.082397,301.721893 506.333984,304.630859 495.662567,310.832062 
	C487.755981,315.426605 484.909149,320.332977 487.993591,328.633698 
	C493.414948,343.223450 499.910919,357.422607 506.212433,371.672333 
	C508.656708,377.199615 511.794769,382.420074 514.724670,387.985199 
	C512.761780,388.788239 511.588806,389.428986 510.334106,389.755280 
	C502.290863,391.847076 497.344879,396.989349 495.721375,405.052246 
	C494.907166,409.096008 494.321014,413.298737 494.470673,417.398956 
	C494.745148,424.919830 495.004303,424.915283 502.726135,424.915680 
	C538.892639,424.917542 575.059204,424.918304 611.225708,424.915009 
	C618.475708,424.914368 618.810852,424.579010 619.009949,416.418457 
z"/>
<path fill="#393939" opacity="1.000000" stroke="none" 
	d="
M115.336700,701.232910 
	C121.276070,701.231750 126.749702,701.231750 132.573013,701.231750 
	C133.515884,706.883118 134.403687,712.204407 135.326385,717.734863 
	C138.403015,717.734863 141.184952,717.734863 144.473022,717.734863 
	C146.051971,712.795837 147.699432,707.642517 149.465118,702.119385 
	C155.473663,703.028931 161.349838,703.827026 167.177811,704.889526 
	C168.162399,705.068909 169.642670,706.334717 169.706314,707.187256 
	C170.595367,719.095886 171.986038,731.029480 168.343872,742.793945 
	C166.150131,749.879883 161.617538,754.431396 153.865738,756.761536 
	C154.548340,760.811890 155.199860,764.992737 155.963242,769.153076 
	C159.289398,787.280212 162.609207,805.408691 166.070709,823.510071 
	C166.339798,824.917175 167.393082,826.805420 168.575409,827.307251 
	C178.253616,831.414734 181.281662,839.638672 181.808701,849.014893 
	C182.699768,864.867554 181.340698,861.835571 170.069473,861.862305 
	C135.079773,861.945435 100.089760,861.895447 65.099869,861.890564 
	C58.092808,861.889587 57.452110,861.592041 57.423256,854.756165 
	C57.403862,850.160095 58.246269,845.515015 59.118923,840.971680 
	C60.299416,834.825684 64.237152,830.862915 69.730247,827.955872 
	C71.559799,826.987610 73.376923,824.560974 73.765190,822.527161 
	C77.471542,803.114258 80.765450,783.622864 84.433907,764.202271 
	C85.286354,759.689514 85.361908,757.092773 80.167152,754.593384 
	C71.653336,750.497131 69.615028,741.591614 69.173347,732.992126 
	C68.748749,724.725159 69.488976,716.383850 70.043152,708.096985 
	C70.125656,706.863342 71.821663,705.003784 73.070114,704.711731 
	C77.903046,703.581360 82.841148,702.822144 87.779427,702.289673 
	C88.726418,702.187500 90.278603,703.521545 90.800941,704.567810 
	C91.750710,706.470032 92.121796,708.658386 92.761612,710.718811 
	C95.289314,718.858887 95.293251,718.857666 104.378815,717.496643 
	C104.806419,715.001892 105.271530,712.420349 105.688431,709.831116 
	C106.945374,702.024719 106.938065,702.023560 115.336700,701.232910 
M66.456032,837.467468 
	C62.631844,843.176636 62.681633,849.534180 62.963833,856.003174 
	C101.093521,856.003174 138.830246,856.003174 177.162155,856.003174 
	C176.092941,849.096985 177.248108,842.281494 171.941269,836.267090 
	C168.217850,834.379333 164.677216,831.600708 160.732513,830.791443 
	C152.809082,829.165894 144.689240,828.299255 136.607468,827.683105 
	C116.708771,826.165955 96.850250,826.655823 77.332886,831.181152 
	C73.639832,832.037354 70.436935,835.007629 66.456032,837.467468 
M158.367584,708.537231 
	C156.623428,708.328003 154.879272,708.118835 153.111115,707.906738 
	C151.722641,712.541077 150.624252,716.707397 149.166275,720.743958 
	C148.770493,721.839661 147.324585,723.256165 146.300110,723.307007 
	C141.075378,723.566711 135.830826,723.426880 130.570007,723.426880 
	C129.898468,718.198669 129.589310,714.059631 128.724869,710.040100 
	C128.438278,708.707397 126.797066,706.767944 125.648788,706.675598 
	C120.913849,706.294250 116.130356,706.515869 111.221596,706.515869 
	C110.392639,712.249634 109.640869,717.449585 108.777557,723.421021 
	C103.669121,723.421021 98.705353,723.626404 93.779633,723.284119 
	C92.462280,723.192688 90.616959,721.674011 90.126564,720.386719 
	C88.612679,716.413269 87.636101,712.235046 86.373184,707.867798 
	C84.739189,708.142090 83.308899,708.382202 81.033775,708.681763 
	C76.118484,708.375244 73.784134,710.417969 74.113663,715.595276 
	C74.396805,720.043701 74.149788,724.525818 74.042084,729.839539 
	C74.435570,732.959351 74.514084,736.159058 75.281082,739.184204 
	C77.668671,748.601318 83.468086,751.814880 91.702499,751.374573 
	C108.400871,750.481689 125.159721,750.719849 142.789398,750.818115 
	C143.945648,750.905701 145.102249,750.989136 146.258118,751.081360 
	C157.616791,751.987427 162.470291,748.848328 164.211121,737.631348 
	C165.367065,730.183167 164.670837,722.462402 165.090958,714.879578 
	C165.344940,710.295349 163.468002,708.454224 158.367584,708.537231 
M84.960342,790.643616 
	C84.950485,791.087280 84.940636,791.530884 84.538864,792.627380 
	C83.965179,796.419678 83.391502,800.211975 82.392311,804.636475 
	C81.143188,811.368103 79.894066,818.099731 78.659065,824.755249 
	C88.136192,823.846802 96.887390,822.304871 105.635536,822.322021 
	C121.745903,822.353577 137.854477,823.301453 154.682800,824.182068 
	C156.584854,824.464905 158.486908,824.747681 160.843796,825.098145 
	C156.833054,802.958984 152.994858,781.453674 148.916077,759.994141 
	C148.652008,758.604675 146.594788,756.599243 145.272293,756.519043 
	C134.510635,755.866394 123.725273,755.604370 112.054192,755.129517 
	C109.368401,755.217590 106.682602,755.305664 103.162354,755.222473 
	C99.224037,755.672974 95.285728,756.123474 90.975708,756.616577 
	C89.019058,767.797913 87.076805,778.897034 84.960342,790.643616 
z"/>
<path fill="#3F3F3F" opacity="1.000000" stroke="none" 
	d="
M284.679016,174.580170 
	C289.056824,172.608673 293.146240,170.865143 297.957123,168.814026 
	C298.724457,159.772537 296.686737,150.502945 293.214081,141.460709 
	C287.047058,125.402618 276.608185,111.980782 266.628754,98.260529 
	C265.379059,96.542404 263.776184,93.404129 264.481415,92.324112 
	C265.611450,90.593529 268.591888,89.063034 270.689240,89.184944 
	C274.881348,89.428612 279.165131,90.423439 283.110382,91.907463 
	C286.800171,93.295395 288.692993,93.135155 289.387695,88.835999 
	C290.289154,83.257179 292.475433,78.781525 299.034576,77.751144 
	C300.498779,77.521133 301.789795,75.113441 302.839569,73.499573 
	C308.452545,64.870277 316.526703,59.715446 324.978455,56.978653 
	C323.687836,52.044823 321.464386,47.140110 321.465240,42.235771 
	C321.465759,39.163322 324.253418,35.494320 326.770020,33.139969 
	C332.525818,27.755198 344.298157,28.446861 350.254578,33.900681 
	C356.576904,39.689529 356.598389,46.596138 350.716492,55.551414 
	C356.637360,59.591900 362.671600,63.427917 368.356506,67.726044 
	C370.675659,69.479439 372.082794,72.390839 374.195679,74.481453 
	C375.711609,75.981384 377.551483,77.536896 379.525635,78.113968 
	C384.169189,79.471344 385.377655,83.168678 386.506470,87.029243 
	C388.368530,93.397301 388.274628,93.239853 394.826508,91.223259 
	C398.431580,90.113670 402.264496,89.075684 405.961243,89.180885 
	C408.218323,89.245110 410.624908,91.314621 412.453156,93.028717 
	C412.816193,93.369064 411.043091,96.330070 409.932556,97.846390 
	C399.949219,111.477386 389.266205,124.797577 383.477020,140.845016 
	C380.539307,148.988251 379.797150,157.925797 378.092133,166.510147 
	C377.550415,169.237579 379.263153,169.644775 381.476898,170.196213 
	C396.054016,173.827377 404.444275,188.997589 399.911407,203.540085 
	C399.578918,204.606903 397.964844,205.598953 396.745209,205.978241 
	C395.375519,206.404190 393.777039,206.103104 392.278076,206.103165 
	C355.799805,206.104828 319.321564,206.108078 282.843292,206.100952 
	C276.572327,206.099731 276.066223,205.613800 276.000885,199.256927 
	C275.907013,190.126602 276.556488,181.228226 284.679016,174.580170 
M344.696442,52.924820 
	C351.608643,47.345695 351.753693,42.257244 344.584869,36.219822 
	C343.192627,35.701691 341.839691,34.987103 340.401337,34.699577 
	C334.302795,33.480446 327.657410,37.088787 326.431946,42.167328 
	C325.139771,47.522251 328.883209,53.411774 335.128235,54.501080 
	C337.913025,54.986828 341.031799,53.557880 344.696442,52.924820 
M357.689087,85.810783 
	C362.006378,83.867920 366.323639,81.925064 370.997986,79.821518 
	C367.012726,72.761070 362.290192,67.493828 354.628052,64.239342 
	C336.486725,55.217175 314.269714,62.020782 305.942719,79.148445 
	C318.616577,87.145981 319.633209,89.329544 329.252472,77.968590 
	C334.958069,71.229927 342.496429,72.212837 348.504028,78.854256 
	C350.908661,81.512581 354.102020,83.457466 357.689087,85.810783 
M390.187958,180.221725 
	C386.494843,178.513718 382.960632,175.968491 379.083008,175.232361 
	C352.075256,170.105209 324.956665,170.200058 297.944092,175.116089 
	C293.692993,175.889755 289.856659,178.942551 285.255096,181.371140 
	C281.278961,187.223724 281.270538,193.852753 281.267731,200.760651 
	C319.239441,200.760651 356.972931,200.760651 395.067169,200.760651 
	C395.164154,193.602997 395.458466,186.691010 390.187958,180.221725 
M277.439758,95.228943 
	C275.330200,94.740692 273.220642,94.252449 270.500092,93.622787 
	C278.633667,106.340485 286.226257,118.212296 293.921448,130.801727 
	C300.690430,142.315033 303.137512,155.043808 303.834473,168.285172 
	C309.366119,167.820724 314.302277,167.237686 319.254333,167.025665 
	C329.500854,166.586945 339.755798,166.345657 350.776154,166.346619 
	C357.967896,166.978989 365.159668,167.611374 372.865356,168.288940 
	C372.838867,138.567505 389.780518,116.840355 405.707214,94.662010 
	C405.388885,94.307922 405.070587,93.953835 404.752258,93.599747 
	C402.168854,94.445328 399.585449,95.290909 396.193787,96.402489 
	C386.669922,99.560532 383.521179,97.860229 381.201263,88.306458 
	C379.968628,83.230408 377.291748,81.857620 372.653229,84.156853 
	C370.284576,85.330971 368.102356,86.880196 365.831299,88.252373 
	C358.479065,92.694633 353.147339,91.926163 347.310699,85.586166 
	C346.411530,84.609459 345.452332,83.679535 344.631866,82.640320 
	C339.870911,76.609947 335.121002,78.241974 331.159424,83.151039 
	C323.623077,92.489792 319.007202,93.210960 308.675110,87.104431 
	C307.678680,86.515511 306.615173,86.041306 305.603455,85.476822 
	C298.361633,81.436348 296.491760,82.211647 294.655304,90.032585 
	C292.980713,97.164116 289.219696,99.310616 282.248962,97.097031 
	C280.830078,96.646469 279.427277,96.145287 277.439758,95.228943 
z"/>
<path fill="#3D3D3D" opacity="1.000000" stroke="none" 
	d="
M787.989441,494.254150 
	C798.400635,496.514526 805.574768,503.121185 811.314209,511.643921 
	C812.883484,513.974243 814.515808,515.509949 817.634827,516.462952 
	C820.133972,517.226562 822.289307,521.131165 823.374146,524.090210 
	C825.664246,530.336914 825.264709,530.215881 831.523743,528.376526 
	C835.591553,527.181030 839.933838,526.088013 844.097595,526.263611 
	C849.179871,526.477966 850.582092,530.637634 847.449158,534.780762 
	C837.523682,547.906616 827.287415,560.959412 821.375183,576.435913 
	C818.174011,584.815552 817.074158,594.004761 815.119019,602.849304 
	C814.540833,605.464966 815.848511,606.504517 818.473694,607.218018 
	C832.226196,610.956055 837.069458,617.538025 836.982666,632.128784 
	C836.910339,644.293518 838.851990,643.076111 826.179199,643.087341 
	C790.690369,643.118774 755.201538,643.102051 719.712708,643.094666 
	C713.248596,643.093323 712.564331,642.812439 713.129761,636.295349 
	C713.679749,629.955811 714.453308,623.375610 716.709595,617.509094 
	C719.632751,609.908386 727.502686,608.398682 734.819946,606.478699 
	C735.938232,591.497131 731.557800,578.003235 724.026611,565.635986 
	C717.490417,554.902527 709.969910,544.763611 702.773560,534.439148 
	C699.662292,529.975403 699.981628,527.813965 705.389160,526.933838 
	C709.192322,526.314819 713.553589,526.943115 717.237976,528.234558 
	C724.676392,530.841797 725.271240,530.919006 726.918640,523.505676 
	C727.821106,519.444641 729.479980,516.515808 734.003235,515.698364 
	C735.437805,515.439087 737.108582,514.257507 737.897461,513.009033 
	C743.990356,503.366577 752.352966,496.786743 763.608215,493.634216 
	C758.272095,487.664307 755.773499,481.479187 760.086975,474.059296 
	C766.316223,463.344116 785.513184,465.218018 790.216064,474.475250 
	C793.813354,481.556030 791.539368,487.570282 786.764587,493.621399 
	C783.125366,492.840393 784.162170,491.229980 785.873779,489.645905 
	C789.861572,485.955109 790.024292,481.237213 788.211182,476.852936 
	C786.353699,472.361176 782.701416,469.219543 777.158752,468.617859 
	C777.098206,469.898804 777.052612,470.864319 776.572144,471.904144 
	C775.305481,471.985077 774.465332,472.071594 773.643433,471.985199 
	C768.714233,471.467316 765.157043,473.715485 763.542725,478.101593 
	C761.944763,482.443176 763.285339,486.464081 767.002258,489.484314 
	C771.015198,492.745026 775.506165,492.110352 780.040283,491.455994 
	C781.352783,493.923920 782.670593,496.033478 783.542603,498.111816 
	C779.840149,497.763885 776.560181,497.025848 773.330688,497.203552 
	C759.545593,497.962128 749.004089,504.237671 742.071533,516.310608 
	C744.741943,517.888855 747.351379,519.478943 750.005859,520.989990 
	C755.736938,524.252197 759.179626,523.573669 762.878906,517.988586 
	C769.826172,507.499695 781.842468,509.415710 787.105042,518.034729 
	C788.419006,520.186707 791.601501,521.197754 794.302490,522.781677 
	C799.032471,520.582275 803.385071,518.334412 808.077393,516.034302 
	C808.089966,514.301086 808.356262,511.933533 807.337402,511.052765 
	C801.556824,506.055511 795.449341,501.437958 789.511536,496.619171 
	C788.819946,496.057861 788.488098,495.053223 787.989441,494.254150 
M721.465210,619.067444 
	C721.360107,619.369019 721.255005,619.670532 720.827698,620.670410 
	C718.125427,626.104919 717.411865,631.774292 718.558228,637.672607 
	C756.475708,637.672607 794.133606,637.672607 831.974976,637.672607 
	C831.940125,630.475403 832.880371,623.414917 826.838318,617.303589 
	C824.904663,616.187988 823.085022,614.432129 821.018250,614.064392 
	C810.415649,612.177795 799.797302,610.107300 789.090820,609.159912 
	C780.001587,608.355774 770.746826,608.468567 761.634644,609.130127 
	C751.337219,609.877930 741.047546,611.325317 730.903992,613.254578 
	C727.672363,613.869202 724.918579,616.995789 721.990234,619.005920 
	C721.990234,619.005920 721.979675,618.952026 721.465210,619.067444 
M787.666687,603.462341 
	C793.988220,604.255371 800.297791,605.211182 806.643311,605.676819 
	C807.669495,605.752136 809.791504,603.679993 809.829102,602.548157 
	C810.526733,581.545715 819.957092,564.043213 831.573059,547.389832 
	C835.218811,542.163086 838.966919,537.007629 842.668091,531.819519 
	C842.441162,531.460754 842.214294,531.101990 841.987366,530.743286 
	C839.706787,531.353699 837.426208,531.964111 834.390625,532.869629 
	C833.786743,533.144348 833.200195,533.469055 832.576294,533.686218 
	C823.882019,536.711975 820.987122,535.178101 818.660278,526.342896 
	C818.534485,525.865234 818.310852,525.413208 818.188232,524.934998 
	C817.006836,520.329407 815.024536,519.114136 810.381836,521.004639 
	C806.867737,522.435608 803.709961,524.716492 800.295959,526.423828 
	C794.303101,529.420837 790.338928,528.680176 785.691406,523.997253 
	C783.937012,522.229553 782.079285,520.564880 780.306152,518.815247 
	C775.900330,514.467896 771.573730,515.090637 767.878723,520.318665 
	C762.798706,527.506287 754.917664,531.084412 746.104187,524.664429 
	C744.672363,523.621460 742.993286,522.904846 741.393860,522.106873 
	C734.509583,518.672058 733.199951,519.239380 731.132080,526.593018 
	C730.914001,527.368469 731.340027,528.521423 730.910645,529.006042 
	C729.304871,530.818298 727.641174,533.558594 725.678894,533.859070 
	C722.244690,534.384949 718.573730,533.365601 714.585449,532.372437 
	C712.238953,531.802917 709.892456,531.233337 707.336670,530.612976 
	C715.756104,544.050476 723.883972,557.022644 732.114807,570.723267 
	C737.644165,580.696533 740.360291,591.344360 740.130920,602.786194 
	C740.111877,603.734314 741.894836,605.593750 742.754822,605.544250 
	C748.927795,605.188354 755.066345,604.227478 761.239502,603.882812 
	C769.814514,603.403992 778.410278,603.295837 787.666687,603.462341 
z"/>
<path fill="#363636" opacity="1.000000" stroke="none" 
	d="
M777.007019,471.829834 
	C777.052612,470.864319 777.098206,469.898804 777.158752,468.617859 
	C782.701416,469.219543 786.353699,472.361176 788.211182,476.852936 
	C790.024292,481.237213 789.861572,485.955109 785.873779,489.645905 
	C784.162170,491.229980 783.125366,492.840393 786.685059,493.961670 
	C787.192932,494.016571 787.357849,494.043121 787.756104,494.161926 
	C788.488098,495.053223 788.819946,496.057861 789.511536,496.619171 
	C795.449341,501.437958 801.556824,506.055511 807.337402,511.052765 
	C808.356262,511.933533 808.089966,514.301086 807.808411,515.837769 
	C803.607910,508.807495 798.343262,503.784882 790.691162,500.894043 
	C788.275269,499.827606 786.131836,498.985321 783.988403,498.143066 
	C782.670593,496.033478 781.352783,493.923920 779.957275,491.405121 
	C779.879517,490.995911 779.894714,490.801666 780.236694,490.769470 
	C784.407349,488.673431 787.765686,485.665802 786.705322,481.206207 
	C786.000366,478.241516 782.944824,475.835724 780.590454,473.113220 
	C779.161987,472.641083 778.084473,472.235474 777.007019,471.829834 
z"/>
<path fill="#3F3F3F" opacity="1.000000" stroke="none" 
	d="
M619.009888,416.877014 
	C618.810852,424.579010 618.475708,424.914368 611.225708,424.915009 
	C575.059204,424.918304 538.892639,424.917542 502.726135,424.915680 
	C495.004303,424.915283 494.745148,424.919830 494.470673,417.398956 
	C494.321014,413.298737 494.907166,409.096008 495.721375,405.052246 
	C497.344879,396.989349 502.290863,391.847076 510.334106,389.755280 
	C511.588806,389.428986 512.761780,388.788239 514.724670,387.985199 
	C511.794769,382.420074 508.656708,377.199615 506.212433,371.672333 
	C499.910919,357.422607 493.414948,343.223450 487.993591,328.633698 
	C484.909149,320.332977 487.755981,315.426605 495.662567,310.832062 
	C506.333984,304.630859 518.082397,301.721893 530.153564,300.019958 
	C532.815247,299.644684 534.078918,298.943665 533.874268,296.090729 
	C533.584595,292.051971 535.738281,289.206726 539.395813,288.158661 
	C543.192871,287.070587 542.197388,284.861877 541.698486,281.968475 
	C535.607910,281.968475 529.671570,281.968475 523.368225,281.968475 
	C523.368225,273.587036 523.368225,265.684631 523.368225,257.128540 
	C530.043457,257.128540 536.773193,257.128540 544.060181,257.128540 
	C544.060181,251.264084 544.060181,246.018188 544.060181,240.387894 
	C552.511292,240.387894 560.396240,240.387894 568.796631,240.387894 
	C568.796631,245.646378 568.796631,250.900558 568.796631,256.799255 
	C575.997253,256.799255 582.726562,256.799255 589.830444,256.799255 
	C589.830444,265.334290 589.830444,273.230530 589.830444,281.780518 
	C583.757874,281.780518 577.686279,281.780518 571.377563,281.780518 
	C571.210144,283.838196 571.093445,285.273132 570.953491,286.993469 
	C577.255432,288.643585 581.032104,292.222290 579.978760,298.480682 
	C590.330261,301.397308 600.193298,304.172852 610.052368,306.962311 
	C610.688660,307.142303 611.312317,307.391937 611.911804,307.673218 
	C626.254639,314.402924 629.483337,320.631134 623.721069,335.385010 
	C618.354370,349.125885 611.445190,362.268219 605.114319,375.626312 
	C603.208618,379.647278 600.965942,383.508545 598.424316,388.297089 
	C614.664612,391.175110 619.200439,402.175232 619.009888,416.877014 
M567.057007,292.888947 
	C560.602905,292.867828 554.148804,292.838348 547.694702,292.830231 
	C545.557556,292.827545 543.287415,292.458191 541.335693,293.073639 
	C540.259216,293.413055 539.553772,295.391663 539.080872,296.768646 
	C538.992554,297.025696 540.808350,298.468445 541.738220,298.460999 
	C550.816589,298.388214 559.893433,298.123474 569.613098,298.211853 
	C571.285156,297.606384 572.957153,297.000916 574.629211,296.395477 
	C573.054199,295.212769 571.526489,293.955994 569.871521,292.898438 
	C569.447205,292.627289 568.621033,292.985046 567.057007,292.888947 
M562.890564,287.333466 
	C563.872559,286.453156 565.457153,285.713470 565.702698,284.661316 
	C566.126648,282.844452 565.718628,280.833496 565.846741,278.110626 
	C567.192139,277.566040 568.521423,276.604706 569.885925,276.551758 
	C574.796509,276.361084 579.719116,276.476868 584.719543,276.476868 
	C584.719543,271.275726 584.719543,267.030060 584.719543,262.194672 
	C577.728821,262.194672 570.991882,262.194672 564.039246,262.194672 
	C563.891479,259.995148 563.707214,258.368988 563.684631,256.740601 
	C563.513916,244.427124 563.523560,244.423615 550.827637,245.249496 
	C550.550232,245.267517 550.294434,245.616608 549.676880,246.068756 
	C549.676880,251.093094 549.676880,256.372345 549.676880,262.158020 
	C542.435425,262.158020 535.535339,262.158020 528.392639,262.158020 
	C528.392639,267.235962 528.392639,271.795166 528.392639,276.741760 
	C534.766602,276.741760 540.854370,276.741760 547.112427,276.741760 
	C547.326233,280.672302 547.519714,284.229645 547.748352,288.433167 
	C552.927246,287.957336 557.488586,287.538239 562.890564,287.333466 
M608.921204,399.265472 
	C607.097656,397.962036 605.418152,395.841797 603.426697,395.490692 
	C592.374512,393.542206 581.297058,391.377716 570.132996,390.503510 
	C551.586426,389.051239 533.021545,389.924774 514.813049,394.029755 
	C510.963440,394.897614 507.606689,397.951660 503.472321,400.488953 
	C499.673584,406.213470 499.723175,412.567505 499.968842,419.021790 
	C538.131531,419.021790 575.822205,419.021790 614.126648,419.021790 
	C612.974915,412.166992 614.411255,405.274902 608.921204,399.265472 
M533.162109,304.853729 
	C525.639221,306.557587 517.927429,307.699860 510.654266,310.146301 
	C505.020416,312.041321 499.730347,315.256165 494.726074,318.550537 
	C493.145844,319.590790 492.079407,322.910614 492.367157,324.964447 
	C492.898804,328.758331 494.604553,332.387695 495.806854,336.836853 
	C503.614014,352.735260 511.488861,368.601074 519.166748,384.561676 
	C520.569092,387.476868 522.661804,387.088593 524.953491,386.794464 
	C546.179199,384.070374 567.396484,384.067749 588.633728,386.741516 
	C590.126953,386.929504 591.768799,385.936768 593.907288,385.059509 
	C598.230835,377.038879 602.998047,369.220490 606.768555,360.947815 
	C611.774353,349.964691 616.106018,338.667694 620.512817,327.421539 
	C622.248352,322.992493 620.743835,319.405151 616.703186,316.706726 
	C607.076294,310.277893 596.324524,307.320618 584.233948,305.730438 
	C569.572205,302.917267 554.834595,302.142395 539.281006,304.002258 
	C538.127747,304.209229 536.974487,304.416229 535.193848,304.629059 
	C534.795776,304.755676 534.397705,304.882324 533.162109,304.853729 
z"/>
<path fill="#EFEFEF" opacity="1.000000" stroke="none" 
	d="
M153.963806,823.867493 
	C137.854477,823.301453 121.745903,822.353577 105.635536,822.322021 
	C96.887390,822.304871 88.136192,823.846802 78.659065,824.755249 
	C79.894066,818.099731 81.143188,811.368103 83.004150,804.314087 
	C88.917046,801.859436 89.494080,796.585327 84.930786,791.974548 
	C84.940636,791.530884 84.950485,791.087280 85.396530,790.243896 
	C86.324631,788.863403 86.572113,787.344360 87.349182,786.991394 
	C91.541290,785.087402 90.677864,782.134583 90.352165,778.434692 
	C90.095329,775.516968 91.439011,771.122559 93.620850,769.591553 
	C98.882172,765.899658 100.233299,759.856567 103.996811,755.393677 
	C106.682602,755.305664 109.368401,755.217590 112.596397,755.517761 
	C115.872292,756.975708 118.672043,757.903259 121.328766,759.138489 
	C136.556610,766.218262 143.515030,779.713806 147.845612,794.742981 
	C150.584839,804.249512 151.970856,814.145935 153.963806,823.867493 
z"/>
<path fill="#EEEEEE" opacity="1.000000" stroke="none" 
	d="
M141.893646,750.491699 
	C125.159721,750.719849 108.400871,750.481689 91.702499,751.374573 
	C83.468086,751.814880 77.668671,748.601318 75.281082,739.184204 
	C74.514084,736.159058 74.435570,732.959351 74.456787,729.328369 
	C77.207191,722.085632 79.542900,715.353943 81.878601,708.622314 
	C83.308899,708.382202 84.739189,708.142090 86.373184,707.867798 
	C87.636101,712.235046 88.612679,716.413269 90.126564,720.386719 
	C90.616959,721.674011 92.462280,723.192688 93.779633,723.284119 
	C98.705353,723.626404 103.669121,723.421021 108.777557,723.421021 
	C109.640869,717.449585 110.392639,712.249634 111.221596,706.515869 
	C116.130356,706.515869 120.913849,706.294250 125.648788,706.675598 
	C126.797066,706.767944 128.438278,708.707397 128.724869,710.040100 
	C129.589310,714.059631 129.898468,718.198669 130.570007,723.426880 
	C135.830826,723.426880 141.075378,723.566711 146.300110,723.307007 
	C147.324585,723.256165 148.770493,721.839661 149.166275,720.743958 
	C150.624252,716.707397 151.722641,712.541077 153.111115,707.906738 
	C154.879272,708.118835 156.623428,708.328003 158.699860,709.209229 
	C159.024170,712.198792 159.115860,714.521729 158.991623,716.832947 
	C158.328705,729.164673 155.262970,740.315430 143.971054,747.485596 
	C143.024124,748.086914 142.574387,749.471252 141.893646,750.491699 
z"/>
<path fill="#F0F0F0" opacity="1.000000" stroke="none" 
	d="
M172.163727,836.943054 
	C177.248108,842.281494 176.092941,849.096985 177.162155,856.003174 
	C138.830246,856.003174 101.093521,856.003174 62.963833,856.003174 
	C62.681633,849.534180 62.631844,843.176636 67.117676,837.230835 
	C77.418869,835.001221 86.987930,831.882080 96.714149,831.273254 
	C112.168007,830.305725 127.727974,830.908752 143.240250,831.088867 
	C146.987793,831.132324 150.764450,831.932861 154.456818,832.718445 
	C160.390182,833.980713 166.264481,835.520508 172.163727,836.943054 
z"/>
<path fill="#CBCBCB" opacity="1.000000" stroke="none" 
	d="
M154.323303,824.024780 
	C151.970856,814.145935 150.584839,804.249512 147.845612,794.742981 
	C143.515030,779.713806 136.556610,766.218262 121.328766,759.138489 
	C118.672043,757.903259 115.872292,756.975708 113.042862,755.564697 
	C123.725273,755.604370 134.510635,755.866394 145.272293,756.519043 
	C146.594788,756.599243 148.652008,758.604675 148.916077,759.994141 
	C152.994858,781.453674 156.833054,802.958984 160.843796,825.098145 
	C158.486908,824.747681 156.584854,824.464905 154.323303,824.024780 
z"/>
<path fill="#CBCBCB" opacity="1.000000" stroke="none" 
	d="
M142.341522,750.654907 
	C142.574387,749.471252 143.024124,748.086914 143.971054,747.485596 
	C155.262970,740.315430 158.328705,729.164673 158.991623,716.832947 
	C159.115860,714.521729 159.024170,712.198792 159.030701,709.411926 
	C163.468002,708.454224 165.344940,710.295349 165.090958,714.879578 
	C164.670837,722.462402 165.367065,730.183167 164.211121,737.631348 
	C162.470291,748.848328 157.616791,751.987427 146.258118,751.081360 
	C145.102249,750.989136 143.945648,750.905701 142.341522,750.654907 
z"/>
<path fill="#F8F8F8" opacity="1.000000" stroke="none" 
	d="
M172.052490,836.605103 
	C166.264481,835.520508 160.390182,833.980713 154.456818,832.718445 
	C150.764450,831.932861 146.987793,831.132324 143.240250,831.088867 
	C127.727974,830.908752 112.168007,830.305725 96.714149,831.273254 
	C86.987930,831.882080 77.418869,835.001221 67.393600,836.998291 
	C70.436935,835.007629 73.639832,832.037354 77.332886,831.181152 
	C96.850250,826.655823 116.708771,826.165955 136.607468,827.683105 
	C144.689240,828.299255 152.809082,829.165894 160.732513,830.791443 
	C164.677216,831.600708 168.217850,834.379333 172.052490,836.605103 
z"/>
<path fill="#F3F3F3" opacity="1.000000" stroke="none" 
	d="
M103.579582,755.308105 
	C100.233299,759.856567 98.882172,765.899658 93.620850,769.591553 
	C91.439011,771.122559 90.095329,775.516968 90.352165,778.434692 
	C90.677864,782.134583 91.541290,785.087402 87.349182,786.991394 
	C86.572113,787.344360 86.324631,788.863403 85.483635,789.920166 
	C87.076805,778.897034 89.019058,767.797913 90.975708,756.616577 
	C95.285728,756.123474 99.224037,755.672974 103.579582,755.308105 
z"/>
<path fill="#F5F5F5" opacity="1.000000" stroke="none" 
	d="
M81.456192,708.652039 
	C79.542900,715.353943 77.207191,722.085632 74.504349,728.905151 
	C74.149788,724.525818 74.396805,720.043701 74.113663,715.595276 
	C73.784134,710.417969 76.118484,708.375244 81.456192,708.652039 
z"/>
<path fill="#F3F3F3" opacity="1.000000" stroke="none" 
	d="
M84.734818,792.300964 
	C89.494080,796.585327 88.917046,801.859436 83.216911,803.997925 
	C83.391502,800.211975 83.965179,796.419678 84.734818,792.300964 
z"/>
<path fill="#EFEFEF" opacity="1.000000" stroke="none" 
	d="
M350.007294,166.023193 
	C339.755798,166.345657 329.500854,166.586945 319.254333,167.025665 
	C314.302277,167.237686 309.366119,167.820724 303.834473,168.285172 
	C303.137512,155.043808 300.690430,142.315033 294.148682,130.251007 
	C292.214417,124.252945 290.361603,118.655861 287.810516,113.397560 
	C284.867584,107.331520 281.308533,101.564369 278.017059,95.667435 
	C279.427277,96.145287 280.830078,96.646469 282.248962,97.097031 
	C289.219696,99.310616 292.980713,97.164116 294.655304,90.032585 
	C296.491760,82.211647 298.361633,81.436348 305.603455,85.476822 
	C306.615173,86.041306 307.678680,86.515511 308.675110,87.104431 
	C319.007202,93.210960 323.623077,92.489792 331.159424,83.151039 
	C335.121002,78.241974 339.870911,76.609947 344.631866,82.640320 
	C345.452332,83.679535 346.411530,84.609459 347.310699,85.586166 
	C353.147339,91.926163 358.479065,92.694633 365.831299,88.252373 
	C368.102356,86.880196 370.284576,85.330971 372.653229,84.156853 
	C377.291748,81.857620 379.968628,83.230408 381.201263,88.306458 
	C383.521179,97.860229 386.669922,99.560532 396.598938,96.680878 
	C396.406189,98.097839 395.931396,99.324158 395.191681,100.361580 
	C386.746399,112.205956 378.144135,123.940285 369.830139,135.875610 
	C364.915863,142.930435 360.457092,150.301804 355.759460,157.508652 
	C353.889374,160.377670 351.927429,163.186798 350.007294,166.023193 
z"/>
<path fill="#F0F0F0" opacity="1.000000" stroke="none" 
	d="
M390.574677,180.865997 
	C395.458466,186.691010 395.164154,193.602997 395.067169,200.760651 
	C356.972931,200.760651 319.239441,200.760651 281.267731,200.760651 
	C281.270538,193.852753 281.278961,187.223724 285.945496,181.170959 
	C303.237640,175.669678 320.339447,174.453094 337.602966,175.050705 
	C348.825348,175.439209 360.061707,176.000397 371.232178,177.093323 
	C377.740417,177.730087 384.131104,179.568344 390.574677,180.865997 
z"/>
<path fill="#CBCBCB" opacity="1.000000" stroke="none" 
	d="
M350.391724,166.184906 
	C351.927429,163.186798 353.889374,160.377670 355.759460,157.508652 
	C360.457092,150.301804 364.915863,142.930435 369.830139,135.875610 
	C378.144135,123.940285 386.746399,112.205956 395.191681,100.361580 
	C395.931396,99.324158 396.406189,98.097839 397.003052,96.547874 
	C399.585449,95.290909 402.168854,94.445328 404.752258,93.599747 
	C405.070587,93.953835 405.388885,94.307922 405.707214,94.662010 
	C389.780518,116.840355 372.838867,138.567505 372.865356,168.288940 
	C365.159668,167.611374 357.967896,166.978989 350.391724,166.184906 
z"/>
<path fill="#EBEBEB" opacity="1.000000" stroke="none" 
	d="
M356.936340,85.727104 
	C354.102020,83.457466 350.908661,81.512581 348.504028,78.854256 
	C342.496429,72.212837 334.958069,71.229927 329.252472,77.968590 
	C319.633209,89.329544 318.616577,87.145981 305.942719,79.148445 
	C314.269714,62.020782 336.486725,55.217175 354.858032,64.880363 
	C358.306854,72.018539 358.987152,78.747910 356.936340,85.727104 
z"/>
<path fill="#EBEBEB" opacity="1.000000" stroke="none" 
	d="
M343.998993,52.997932 
	C341.031799,53.557880 337.913025,54.986828 335.128235,54.501080 
	C328.883209,53.411774 325.139771,47.522251 326.431946,42.167328 
	C327.657410,37.088787 334.302795,33.480446 340.401337,34.699577 
	C341.839691,34.987103 343.192627,35.701691 344.805847,36.960724 
	C344.684174,42.800388 344.341583,47.899158 343.998993,52.997932 
z"/>
<path fill="#F8F8F8" opacity="1.000000" stroke="none" 
	d="
M390.381317,180.543854 
	C384.131104,179.568344 377.740417,177.730087 371.232178,177.093323 
	C360.061707,176.000397 348.825348,175.439209 337.602966,175.050705 
	C320.339447,174.453094 303.237640,175.669678 286.232239,180.956161 
	C289.856659,178.942551 293.692993,175.889755 297.944092,175.116089 
	C324.956665,170.200058 352.075256,170.105209 379.083008,175.232361 
	C382.960632,175.968491 386.494843,178.513718 390.381317,180.543854 
z"/>
<path fill="#CBCBCB" opacity="1.000000" stroke="none" 
	d="
M357.312714,85.768944 
	C358.987152,78.747910 358.306854,72.018539 355.117615,65.128387 
	C362.290192,67.493828 367.012726,72.761070 370.997986,79.821518 
	C366.323639,81.925064 362.006378,83.867920 357.312714,85.768944 
z"/>
<path fill="#F5F5F5" opacity="1.000000" stroke="none" 
	d="
M277.728394,95.448189 
	C281.308533,101.564369 284.867584,107.331520 287.810516,113.397560 
	C290.361603,118.655861 292.214417,124.252945 294.097351,129.892197 
	C286.226257,118.212296 278.633667,106.340485 270.500092,93.622787 
	C273.220642,94.252449 275.330200,94.740692 277.728394,95.448189 
z"/>
<path fill="#C7C7C7" opacity="1.000000" stroke="none" 
	d="
M344.347717,52.961372 
	C344.341583,47.899158 344.684174,42.800388 345.092255,37.223007 
	C351.753693,42.257244 351.608643,47.345695 344.347717,52.961372 
z"/>
<path fill="#F0F0F0" opacity="1.000000" stroke="none" 
	d="
M715.002014,532.993652 
	C718.573730,533.365601 722.244690,534.384949 725.678894,533.859070 
	C727.641174,533.558594 729.304871,530.818298 730.910645,529.006042 
	C731.340027,528.521423 730.914001,527.368469 731.132080,526.593018 
	C733.199951,519.239380 734.509583,518.672058 741.393860,522.106873 
	C742.993286,522.904846 744.672363,523.621460 746.104187,524.664429 
	C754.917664,531.084412 762.798706,527.506287 767.878723,520.318665 
	C771.573730,515.090637 775.900330,514.467896 780.306152,518.815247 
	C782.079285,520.564880 783.937012,522.229553 785.691406,523.997253 
	C790.338928,528.680176 794.303101,529.420837 800.295959,526.423828 
	C803.709961,524.716492 806.867737,522.435608 810.381836,521.004639 
	C815.024536,519.114136 817.006836,520.329407 818.188232,524.934998 
	C818.310852,525.413208 818.534485,525.865234 818.660278,526.342896 
	C820.987122,535.178101 823.882019,536.711975 832.576294,533.686218 
	C833.200195,533.469055 833.786743,533.144348 834.728394,533.107361 
	C829.982361,540.041382 824.610229,546.540833 819.876404,553.475952 
	C810.728149,566.878357 801.943787,580.529053 792.999329,594.070740 
	C791.018372,597.069885 788.998901,600.043640 786.997131,603.029053 
	C778.410278,603.295837 769.814514,603.403992 761.239502,603.882812 
	C755.066345,604.227478 748.927795,605.188354 742.754822,605.544250 
	C741.894836,605.593750 740.111877,603.734314 740.130920,602.786194 
	C740.360291,591.344360 737.644165,580.696533 732.313965,570.143799 
	C729.650391,557.687561 723.690186,547.322815 716.891296,537.347900 
	C716.016052,536.063782 715.620056,534.453064 715.002014,532.993652 
z"/>
<path fill="#F0F0F0" opacity="1.000000" stroke="none" 
	d="
M827.152710,617.948181 
	C832.880371,623.414917 831.940125,630.475403 831.974976,637.672607 
	C794.133606,637.672607 756.475708,637.672607 718.558228,637.672607 
	C717.411865,631.774292 718.125427,626.104919 721.183716,620.203735 
	C721.765991,619.520081 721.912659,619.258362 721.979675,618.952026 
	C721.979675,618.952026 721.990234,619.005920 722.341492,618.954224 
	C724.553711,618.201477 726.382812,617.396057 728.280823,616.816284 
	C741.412842,612.805359 754.930176,611.683044 768.549866,612.062683 
	C781.795532,612.431763 795.053406,613.000366 808.253052,614.109680 
	C814.615540,614.644409 820.856628,616.623291 827.152710,617.948181 
z"/>
<path fill="#EFEFEF" opacity="1.000000" stroke="none" 
	d="
M783.542603,498.111816 
	C786.131836,498.985321 788.275269,499.827606 790.737854,501.249603 
	C795.760681,508.283081 795.716309,515.388306 793.925232,522.733215 
	C791.601501,521.197754 788.419006,520.186707 787.105042,518.034729 
	C781.842468,509.415710 769.826172,507.499695 762.878906,517.988586 
	C759.179626,523.573669 755.736938,524.252197 750.005859,520.989990 
	C747.351379,519.478943 744.741943,517.888855 742.071533,516.310608 
	C749.004089,504.237671 759.545593,497.962128 773.330688,497.203552 
	C776.560181,497.025848 779.840149,497.763885 783.542603,498.111816 
z"/>
<path fill="#CBCBCB" opacity="1.000000" stroke="none" 
	d="
M787.331909,603.245728 
	C788.998901,600.043640 791.018372,597.069885 792.999329,594.070740 
	C801.943787,580.529053 810.728149,566.878357 819.876404,553.475952 
	C824.610229,546.540833 829.982361,540.041382 835.105896,532.959839 
	C837.426208,531.964111 839.706787,531.353699 841.987366,530.743286 
	C842.214294,531.101990 842.441162,531.460754 842.668091,531.819519 
	C838.966919,537.007629 835.218811,542.163086 831.573059,547.389832 
	C819.957092,564.043213 810.526733,581.545715 809.829102,602.548157 
	C809.791504,603.679993 807.669495,605.752136 806.643311,605.676819 
	C800.297791,605.211182 793.988220,604.255371 787.331909,603.245728 
z"/>
<path fill="#EEEEEE" opacity="1.000000" stroke="none" 
	d="
M776.572144,471.904175 
	C778.084473,472.235474 779.161987,472.641083 780.629150,473.518097 
	C783.388062,479.777008 781.478882,485.278473 779.894714,490.801666 
	C779.894714,490.801666 779.879517,490.995911 779.962585,491.046814 
	C775.506165,492.110352 771.015198,492.745026 767.002258,489.484314 
	C763.285339,486.464081 761.944763,482.443176 763.542725,478.101593 
	C765.157043,473.715485 768.714233,471.467316 773.643433,471.985199 
	C774.465332,472.071594 775.305481,471.985077 776.572144,471.904175 
z"/>
<path fill="#FAFAFA" opacity="1.000000" stroke="none" 
	d="
M826.995483,617.625854 
	C820.856628,616.623291 814.615540,614.644409 808.253052,614.109680 
	C795.053406,613.000366 781.795532,612.431763 768.549866,612.062683 
	C754.930176,611.683044 741.412842,612.805359 728.280823,616.816284 
	C726.382812,617.396057 724.553711,618.201477 722.319458,618.937683 
	C724.918579,616.995789 727.672363,613.869202 730.903992,613.254578 
	C741.047546,611.325317 751.337219,609.877930 761.634644,609.130127 
	C770.746826,608.468567 780.001587,608.355774 789.090820,609.159912 
	C799.797302,610.107300 810.415649,612.177795 821.018250,614.064392 
	C823.085022,614.432129 824.904663,616.187988 826.995483,617.625854 
z"/>
<path fill="#C7C7C7" opacity="1.000000" stroke="none" 
	d="
M794.302490,522.781677 
	C795.716309,515.388306 795.760681,508.283081 791.010315,501.473755 
	C798.343262,503.784882 803.607910,508.807495 807.468750,515.890015 
	C803.385071,518.334412 799.032471,520.582275 794.302490,522.781677 
z"/>
<path fill="#F8F8F8" opacity="1.000000" stroke="none" 
	d="
M714.793701,532.683044 
	C715.620056,534.453064 716.016052,536.063782 716.891296,537.347900 
	C723.690186,547.322815 729.650391,557.687561 732.262451,569.779602 
	C723.883972,557.022644 715.756104,544.050476 707.336670,530.612976 
	C709.892456,531.233337 712.238953,531.802917 714.793701,532.683044 
z"/>
<path fill="#FAFAFA" opacity="1.000000" stroke="none" 
	d="
M721.722412,619.009766 
	C721.912659,619.258362 721.765991,619.520081 721.344727,619.854614 
	C721.255005,619.670532 721.360107,619.369019 721.722412,619.009766 
z"/>
<path fill="#C1C1C1" opacity="1.000000" stroke="none" 
	d="
M780.236694,490.769470 
	C781.478882,485.278473 783.388062,479.777008 780.980103,473.584625 
	C782.944824,475.835724 786.000366,478.241516 786.705322,481.206207 
	C787.765686,485.665802 784.407349,488.673431 780.236694,490.769470 
z"/>
<path fill="#EFEFEF" opacity="1.000000" stroke="none" 
	d="
M593.341553,385.493042 
	C591.768799,385.936768 590.126953,386.929504 588.633728,386.741516 
	C567.396484,384.067749 546.179199,384.070374 524.953491,386.794464 
	C522.661804,387.088593 520.569092,387.476868 519.166748,384.561676 
	C511.488861,368.601074 503.614014,352.735260 496.136566,336.193359 
	C496.643829,334.591736 497.036774,333.617310 496.965637,332.678040 
	C496.237030,323.053986 501.077087,316.748779 509.475037,313.408386 
	C516.305969,310.691345 523.598267,309.144165 530.652222,306.968811 
	C531.855103,306.597870 532.888123,305.676208 533.999634,305.008972 
	C534.397705,304.882324 534.795776,304.755676 535.703247,304.939423 
	C537.473694,304.861420 538.734802,304.473022 539.995911,304.084656 
	C554.834595,302.142395 569.572205,302.917267 584.642151,306.232269 
	C586.367249,307.669434 587.580322,308.822937 589.016907,309.506866 
	C606.331238,317.749573 609.599670,330.410492 605.949036,347.001709 
	C603.896851,356.328552 599.900818,365.224487 596.836914,374.333527 
	C595.594482,378.027344 594.502197,381.771698 593.341553,385.493042 
z"/>
<path fill="#F0F0F0" opacity="1.000000" stroke="none" 
	d="
M609.150635,399.948090 
	C614.411255,405.274902 612.974915,412.166992 614.126648,419.021790 
	C575.822205,419.021790 538.131531,419.021790 499.968842,419.021790 
	C499.723175,412.567505 499.673584,406.213470 504.132263,400.240570 
	C507.925995,398.987000 510.994171,397.533142 514.206360,397.063171 
	C522.828735,395.801575 531.527222,395.070221 540.169312,393.929962 
	C557.372375,391.660095 574.438354,393.373962 591.443726,395.765350 
	C597.423828,396.606293 603.252686,398.522736 609.150635,399.948090 
z"/>
<path fill="#E9E9E9" opacity="1.000000" stroke="none" 
	d="
M562.049988,287.119110 
	C557.488586,287.538239 552.927246,287.957336 547.748352,288.433167 
	C547.519714,284.229645 547.326233,280.672302 547.112427,276.741760 
	C540.854370,276.741760 534.766602,276.741760 528.392639,276.741760 
	C528.392639,271.795166 528.392639,267.235962 528.392639,262.158020 
	C535.535339,262.158020 542.435425,262.158020 549.676880,262.158020 
	C549.676880,256.372345 549.676880,251.093094 549.676880,246.068756 
	C550.294434,245.616608 550.550232,245.267517 550.827637,245.249496 
	C563.523560,244.423615 563.513916,244.427124 563.684631,256.740601 
	C563.707214,258.368988 563.891479,259.995148 564.039246,262.194672 
	C570.991882,262.194672 577.728821,262.194672 584.719543,262.194672 
	C584.719543,267.030060 584.719543,271.275726 584.719543,276.476868 
	C579.719116,276.476868 574.796509,276.361084 569.885925,276.551758 
	C568.521423,276.604706 567.192139,277.566040 565.361206,278.535797 
	C559.323364,280.083435 563.237915,284.484955 562.049988,287.119110 
z"/>
<path fill="#CBCBCB" opacity="1.000000" stroke="none" 
	d="
M593.624390,385.276276 
	C594.502197,381.771698 595.594482,378.027344 596.836914,374.333527 
	C599.900818,365.224487 603.896851,356.328552 605.949036,347.001709 
	C609.599670,330.410492 606.331238,317.749573 589.016907,309.506866 
	C587.580322,308.822937 586.367249,307.669434 585.019897,306.384674 
	C596.324524,307.320618 607.076294,310.277893 616.703186,316.706726 
	C620.743835,319.405151 622.248352,322.992493 620.512817,327.421539 
	C616.106018,338.667694 611.774353,349.964691 606.768555,360.947815 
	C602.998047,369.220490 598.230835,377.038879 593.624390,385.276276 
z"/>
<path fill="#F8F8F8" opacity="1.000000" stroke="none" 
	d="
M609.035889,399.606781 
	C603.252686,398.522736 597.423828,396.606293 591.443726,395.765350 
	C574.438354,393.373962 557.372375,391.660095 540.169312,393.929962 
	C531.527222,395.070221 522.828735,395.801575 514.206360,397.063171 
	C510.994171,397.533142 507.925995,398.987000 504.407501,399.995300 
	C507.606689,397.951660 510.963440,394.897614 514.813049,394.029755 
	C533.021545,389.924774 551.586426,389.051239 570.132996,390.503510 
	C581.297058,391.377716 592.374512,393.542206 603.426697,395.490692 
	C605.418152,395.841797 607.097656,397.962036 609.035889,399.606781 
z"/>
<path fill="#F5F5F5" opacity="1.000000" stroke="none" 
	d="
M533.580872,304.931335 
	C532.888123,305.676208 531.855103,306.597870 530.652222,306.968811 
	C523.598267,309.144165 516.305969,310.691345 509.475037,313.408386 
	C501.077087,316.748779 496.237030,323.053986 496.965637,332.678040 
	C497.036774,333.617310 496.643829,334.591736 496.143738,335.817719 
	C494.604553,332.387695 492.898804,328.758331 492.367157,324.964447 
	C492.079407,322.910614 493.145844,319.590790 494.726074,318.550537 
	C499.730347,315.256165 505.020416,312.041321 510.654266,310.146301 
	C517.927429,307.699860 525.639221,306.557587 533.580872,304.931335 
z"/>
<path fill="#EEEEEE" opacity="1.000000" stroke="none" 
	d="
M568.970703,297.913391 
	C559.893433,298.123474 550.816589,298.388214 541.738220,298.460999 
	C540.808350,298.468445 538.992554,297.025696 539.080872,296.768646 
	C539.553772,295.391663 540.259216,293.413055 541.335693,293.073639 
	C543.287415,292.458191 545.557556,292.827545 547.694702,292.830231 
	C554.148804,292.838348 560.602905,292.867828 567.576965,293.323700 
	C568.388184,295.143433 568.679443,296.528412 568.970703,297.913391 
z"/>
<path fill="#C1C1C1" opacity="1.000000" stroke="none" 
	d="
M569.291870,298.062622 
	C568.679443,296.528412 568.388184,295.143433 568.038208,293.406158 
	C568.621033,292.985046 569.447205,292.627289 569.871521,292.898438 
	C571.526489,293.955994 573.054199,295.212769 574.629211,296.395447 
	C572.957153,297.000916 571.285156,297.606384 569.291870,298.062622 
z"/>
<path fill="#C1C1C1" opacity="1.000000" stroke="none" 
	d="
M562.470276,287.226288 
	C563.237915,284.484955 559.323364,280.083435 565.267700,278.932465 
	C565.718628,280.833496 566.126648,282.844452 565.702698,284.661316 
	C565.457153,285.713470 563.872559,286.453156 562.470276,287.226288 
z"/>
<path fill="#F5F5F5" opacity="1.000000" stroke="none" 
	d="
M539.638428,304.043457 
	C538.734802,304.473022 537.473694,304.861420 536.016907,304.936493 
	C536.974487,304.416229 538.127747,304.209229 539.638428,304.043457 
z"/>
</svg>