<svg version="1.1" id="Layer_1" xmlns="http://www.w3.org/2000/svg" xmlns:xlink="http://www.w3.org/1999/xlink" x="0px" y="0px"
	 width="100%" viewBox="0 0 898 892" enable-background="new 0 0 898 892" xml:space="preserve">
<path fill="#FFFEFE" opacity="1.000000" stroke="none" 
	d="
M1.000000,239.000000 
	C1.000000,159.333328 1.000000,80.166664 1.000000,1.000000 
	C300.333344,1.000000 599.666687,1.000000 899.000000,1.000000 
	C899.000000,298.333344 899.000000,595.666687 899.000000,893.000000 
	C599.666687,893.000000 300.333344,893.000000 1.000000,893.000000 
	C1.000000,675.166687 1.000000,457.333344 1.000000,239.000000 
M673.987366,885.068726 
	C746.189758,885.068726 818.392151,885.068726 891.054382,885.068726 
	C891.054382,811.877747 891.054382,739.467407 891.525940,666.376709 
	C891.581726,665.714783 891.686218,665.052856 891.686340,664.390930 
	C891.694397,593.793518 891.697449,523.196167 891.673340,452.598755 
	C891.672913,451.296997 891.343628,449.995331 891.142944,447.795197 
	C891.118103,445.631775 891.071838,443.468323 891.071533,441.304901 
	C891.062805,370.889404 891.058472,300.473877 891.526001,229.378616 
	C891.583069,227.884369 891.689880,226.390106 891.690063,224.895859 
	C891.698242,155.636490 891.642700,86.377007 891.810425,17.118044 
	C891.822571,12.091187 890.150879,11.197001 885.556763,11.206272 
	C816.464111,11.345712 747.371216,11.298079 678.278320,11.329768 
	C676.500366,11.330585 674.722595,11.731193 672.015808,11.932951 
	C607.426819,11.933000 542.837830,11.938122 478.248810,11.926612 
	C470.259979,11.925188 462.271118,11.835220 453.499512,11.447763 
	C452.836365,11.400904 452.173187,11.313067 451.510040,11.313002 
	C380.932800,11.305929 310.355530,11.302067 239.778305,11.331265 
	C238.499786,11.331795 237.221436,11.731850 235.014450,11.931783 
	C162.811646,11.931783 90.608833,11.931783 17.945553,11.931783 
	C17.945553,85.121803 17.945553,157.532379 17.474016,230.623306 
	C17.418232,231.285126 17.313662,231.946945 17.313587,232.608765 
	C17.305529,303.195282 17.302717,373.781769 17.324726,444.368286 
	C17.325134,445.674133 17.626108,446.979889 17.840082,449.176208 
	C17.870871,451.339600 17.928314,453.502960 17.928589,455.666351 
	C17.937527,526.092041 17.940968,596.517761 17.472784,667.623230 
	C17.416147,669.117554 17.310143,670.611816 17.309967,672.106140 
	C17.301813,741.365662 17.357483,810.625366 17.189503,879.884460 
	C17.177301,884.915100 18.854757,885.802917 23.445795,885.793640 
	C92.538559,885.654419 161.631683,885.702026 230.724716,885.670288 
	C232.502701,885.669495 234.280472,885.268127 236.988235,885.068848 
	C261.954651,885.068726 286.921082,885.057739 311.887482,885.070862 
	C359.489380,885.095947 407.091248,885.134705 455.478577,885.532349 
	C456.141022,885.585754 456.803497,885.685852 457.465942,885.685913 
	C528.051270,885.693970 598.636536,885.697754 669.221863,885.668762 
	C670.500427,885.668213 671.778809,885.267334 673.987366,885.068726 
z"/>
<path fill="#F5C79C" opacity="1.000000" stroke="none" 
	d="
M891.053528,230.058365 
	C891.058472,300.473877 891.062805,370.889404 891.071533,441.304901 
	C891.071838,443.468323 891.118103,445.631775 890.675293,448.293640 
	C817.959778,448.792084 745.711914,448.792084 672.971436,448.792084 
	C672.971436,522.103149 672.971436,594.565369 672.986694,667.012695 
	C673.001892,666.997864 673.031982,666.968018 672.560913,666.979248 
	C599.889648,666.990479 527.689392,666.990479 454.844849,666.990479 
	C454.844849,669.523193 454.844788,671.469971 454.844788,673.416809 
	C454.844788,729.851990 454.854706,786.287231 454.837860,842.722412 
	C454.833649,856.870911 454.743713,871.019348 454.693146,885.167847 
	C407.091248,885.134705 359.489380,885.095947 311.887482,885.070862 
	C286.921082,885.057739 261.954651,885.068726 236.503204,884.588684 
	C236.021423,811.729980 236.024658,739.351501 236.012421,666.987549 
	C235.996964,667.002197 235.968109,667.032532 236.439148,667.020752 
	C309.148529,667.008972 381.386871,667.008972 454.202545,667.008972 
	C454.202545,593.705566 454.202545,521.113037 454.229584,448.448822 
	C454.256622,448.377136 454.521118,448.202301 455.019623,448.197510 
	C527.882935,448.192749 600.247803,448.192749 673.032776,448.192749 
	C673.032776,374.837524 673.032776,302.402924 673.017151,229.982574 
	C673.001526,229.996857 672.972717,230.028122 673.442993,230.019012 
	C746.293335,230.026047 818.673462,230.042206 891.053528,230.058365 
z"/>
<path fill="#BE814D" opacity="1.000000" stroke="none" 
	d="
M891.289795,229.718491 
	C818.673462,230.042206 746.293335,230.026047 673.453369,229.547852 
	C672.977173,156.705658 672.960938,84.325508 672.944702,11.945353 
	C674.722595,11.731193 676.500366,11.330585 678.278320,11.329768 
	C747.371216,11.298079 816.464111,11.345712 885.556763,11.206272 
	C890.150879,11.197001 891.822571,12.091187 891.810425,17.118044 
	C891.642700,86.377007 891.698242,155.636490 891.690063,224.895859 
	C891.689880,226.390106 891.583069,227.884369 891.289795,229.718491 
z"/>
<path fill="#BE814D" opacity="1.000000" stroke="none" 
	d="
M236.027893,666.972961 
	C236.024658,739.351501 236.021423,811.729980 236.038269,884.581055 
	C234.280472,885.268127 232.502701,885.669495 230.724716,885.670288 
	C161.631683,885.702026 92.538559,885.654419 23.445795,885.793640 
	C18.854757,885.802917 17.177301,884.915100 17.189503,879.884460 
	C17.357483,810.625366 17.301813,741.365662 17.309967,672.106140 
	C17.310143,670.611816 17.416147,669.117554 18.181629,667.303345 
	C91.269615,666.979919 163.648758,666.976440 236.027893,666.972961 
z"/>
<path fill="#BE804C" opacity="1.000000" stroke="none" 
	d="
M235.943008,11.945485 
	C237.221436,11.731850 238.499786,11.331795 239.778305,11.331265 
	C310.355530,11.302067 380.932800,11.305929 451.510040,11.313002 
	C452.173187,11.313067 452.836365,11.400904 453.850525,12.102062 
	C454.185822,84.192764 454.169312,155.629166 454.162750,227.065567 
	C454.162659,228.061386 454.287750,229.057190 453.845154,230.034378 
	C380.879944,229.999832 308.423981,229.983917 235.984085,229.984070 
	C236.000137,230.000137 236.032257,230.032257 236.020203,229.561188 
	C235.986435,156.708557 235.964722,84.327026 235.943008,11.945485 
z"/>
<path fill="#BE804C" opacity="1.000000" stroke="none" 
	d="
M672.971436,667.027588 
	C672.971436,594.565369 672.971436,522.103149 672.971436,448.792084 
	C745.711914,448.792084 817.959778,448.792084 890.687744,448.742859 
	C891.343628,449.995331 891.672913,451.296997 891.673340,452.598755 
	C891.697449,523.196167 891.694397,593.793518 891.686340,664.390930 
	C891.686218,665.052856 891.581726,665.714783 890.817627,666.696899 
	C817.729980,667.020630 745.350708,667.024109 672.971436,667.027588 
z"/>
<path fill="#BE804C" opacity="1.000000" stroke="none" 
	d="
M17.786842,448.285706 
	C17.626108,446.979889 17.325134,445.674133 17.324726,444.368286 
	C17.302717,373.781769 17.305529,303.195282 17.313587,232.608765 
	C17.313662,231.946945 17.418232,231.285126 18.182377,230.303101 
	C91.271240,229.999359 163.651749,230.015808 236.032257,230.032257 
	C236.032257,230.032257 236.000137,230.000137 235.995453,230.455231 
	C236.010925,303.393219 236.031082,375.876099 235.583984,448.297913 
	C181.824295,448.208893 128.531830,448.166870 75.239380,448.160461 
	C56.088539,448.158173 36.937687,448.241486 17.786842,448.285706 
z"/>
<path fill="#F5C79C" opacity="1.000000" stroke="none" 
	d="
M236.020203,229.561188 
	C163.651749,230.015808 91.271240,229.999359 18.418144,229.962921 
	C17.945553,157.532379 17.945553,85.121803 17.945553,11.931783 
	C90.608833,11.931783 162.811646,11.931783 235.478729,11.938633 
	C235.964722,84.327026 235.986435,156.708557 236.020203,229.561188 
z"/>
<path fill="#F5C79C" opacity="1.000000" stroke="none" 
	d="
M672.986694,667.012695 
	C745.350708,667.024109 817.729980,667.020630 890.581787,667.037109 
	C891.054382,739.467407 891.054382,811.877747 891.054382,885.068726 
	C818.392151,885.068726 746.189758,885.068726 673.502197,884.588501 
	C673.022034,811.728149 673.026978,739.348083 673.031982,666.968018 
	C673.031982,666.968018 673.001892,666.997864 672.986694,667.012695 
z"/>
<path fill="#F4C79C" opacity="1.000000" stroke="none" 
	d="
M17.813461,448.730957 
	C36.937687,448.241486 56.088539,448.158173 75.239380,448.160461 
	C128.531830,448.166870 181.824295,448.208893 235.556671,448.371765 
	C235.996582,448.506683 235.940842,448.663361 235.961334,449.152710 
	C235.977264,522.105591 235.972687,594.569031 235.968109,667.032532 
	C235.968109,667.032532 235.996964,667.002197 236.012421,666.987549 
	C163.648758,666.976440 91.269615,666.979919 18.417850,666.963440 
	C17.940968,596.517761 17.937527,526.092041 17.928589,455.666351 
	C17.928314,453.502960 17.870871,451.339600 17.813461,448.730957 
M140.499985,645.173157 
	C153.664978,645.173035 166.831741,645.051758 179.993912,645.244690 
	C184.088516,645.304688 185.593063,643.875488 185.689667,639.795044 
	C186.042740,624.880615 179.736496,613.793823 166.767288,606.675781 
	C153.046692,599.145447 147.691666,586.209900 143.105118,571.869019 
	C147.856522,571.869019 152.022781,572.111755 156.136246,571.751465 
	C157.820007,571.603943 160.557297,570.407043 160.808990,569.250793 
	C161.899460,564.240906 163.299347,558.882080 162.433594,554.034668 
	C161.986954,551.533875 157.044724,549.822021 154.112167,547.784790 
	C152.483490,546.653381 150.810211,545.586243 149.157227,544.489868 
	C158.175476,525.090210 157.047638,512.729553 145.381134,503.104675 
	C134.966370,494.512482 118.847931,494.083160 108.141235,503.354248 
	C103.902130,507.024994 100.700180,512.797424 98.945717,518.232605 
	C95.926308,527.586609 99.235382,536.427307 104.969391,545.011658 
	C93.470795,548.305969 88.021912,554.730469 91.901245,566.744995 
	C92.974678,570.069519 93.935463,572.105042 97.764458,571.913818 
	C101.728241,571.715942 105.709579,571.869751 110.073692,571.869751 
	C109.670128,573.609009 109.460068,574.893188 109.073586,576.121887 
	C104.744141,589.886353 97.456619,601.173950 84.310562,608.410828 
	C72.613831,614.849854 67.606674,625.475281 67.957565,638.757080 
	C68.122841,645.013062 68.110085,645.161011 74.508324,645.166260 
	C96.172195,645.184143 117.836082,645.173157 140.499985,645.173157 
z"/>
<path fill="#F4C69C" opacity="1.000000" stroke="none" 
	d="
M454.354401,230.053009 
	C454.287750,229.057190 454.162659,228.061386 454.162750,227.065567 
	C454.169312,155.629166 454.185822,84.192764 454.241882,12.271322 
	C462.271118,11.835220 470.259979,11.925188 478.248810,11.926612 
	C542.837830,11.938122 607.426819,11.933000 672.480225,11.939152 
	C672.960938,84.325508 672.977173,156.705658 672.983032,229.556976 
	C672.972717,230.028122 673.001526,229.996857 672.545898,229.995026 
	C599.615417,229.976288 527.140564,229.959366 454.587982,229.970428 
	C454.510284,229.998428 454.354401,230.053009 454.354401,230.053009 
M508.678101,208.151733 
	C532.339661,208.151733 556.001221,208.151855 579.662781,208.151657 
	C593.326538,208.151550 606.991882,208.245987 620.652222,208.030319 
	C622.364014,208.003311 625.429749,206.472061 625.532776,205.410934 
	C626.477051,195.690399 626.377869,185.913528 619.090210,178.255035 
	C616.703430,175.746780 616.267761,173.672226 616.711792,170.435516 
	C618.924866,154.303146 622.450684,138.134949 622.514221,121.967567 
	C622.655579,85.993301 604.892700,66.230652 574.554016,52.621944 
	C568.731995,50.010445 563.281311,46.583046 557.570679,43.708118 
	C552.859558,41.336369 548.191284,38.659969 543.195312,37.121120 
	C534.052612,34.305027 533.092651,35.113632 533.954041,44.731091 
	C534.470703,50.500774 532.853882,54.541756 528.628479,58.663059 
	C517.193237,69.816757 506.216553,81.450516 495.290222,93.111473 
	C490.539703,98.181366 486.101776,103.601242 482.065887,109.250801 
	C480.766327,111.069931 480.125946,114.655411 481.036987,116.534485 
	C485.021820,124.753708 490.877014,131.577469 499.173981,135.804840 
	C506.606537,139.591782 510.766205,138.490692 517.062134,133.076614 
	C520.636475,130.002914 524.791931,126.992279 529.203613,125.627975 
	C539.530151,122.434494 550.168823,120.250572 561.196899,117.530670 
	C560.279358,119.305565 559.836548,121.280518 558.606628,122.352150 
	C552.512451,127.662270 546.513123,133.165024 539.916565,137.796906 
	C527.463135,146.541229 517.209473,156.705582 513.640015,172.156326 
	C513.366760,173.339325 512.636169,174.723755 511.682159,175.395004 
	C502.034424,182.183136 501.620361,192.258759 501.637238,202.601318 
	C501.644257,206.912201 503.462708,208.747360 508.678101,208.151733 
z"/>
<path fill="#BE804C" opacity="1.000000" stroke="none" 
	d="
M672.560913,666.979248 
	C673.026978,739.348083 673.022034,811.728149 673.037231,884.580750 
	C671.778809,885.267334 670.500427,885.668213 669.221863,885.668762 
	C598.636536,885.697754 528.051270,885.693970 457.465942,885.685913 
	C456.803497,885.685852 456.141022,885.585754 455.085876,885.350098 
	C454.743713,871.019348 454.833649,856.870911 454.837860,842.722412 
	C454.854706,786.287231 454.844788,729.851990 454.844788,673.416809 
	C454.844788,671.469971 454.844849,669.523193 454.844849,666.990479 
	C527.689392,666.990479 599.889648,666.990479 672.560913,666.979248 
M493.131073,750.641052 
	C489.227997,755.576965 484.960968,760.282715 481.615173,765.571228 
	C480.411255,767.474243 480.448975,771.330872 481.591919,773.349121 
	C486.667572,782.311829 493.200287,789.786682 503.667053,793.062500 
	C508.248047,794.496216 511.343719,793.629822 514.932739,790.654724 
	C519.348083,786.994446 524.078796,783.033691 529.364197,781.249146 
	C539.583618,777.798767 550.287048,775.781982 562.475464,772.751892 
	C558.699646,777.223267 556.156189,781.150757 552.743652,784.058105 
	C547.825195,788.248352 542.267517,791.686340 536.996887,795.465271 
	C529.364929,800.937195 522.574829,807.104126 518.185730,815.695618 
	C514.628479,822.658691 513.836609,831.277771 506.152435,835.925476 
	C504.866486,836.703186 504.185242,839.017273 503.855774,840.742004 
	C502.749451,846.533386 501.842468,852.367310 501.027802,858.208496 
	C500.451965,862.337280 502.703644,863.939148 506.596436,863.912292 
	C512.926636,863.868652 519.257446,863.905090 525.588013,863.905212 
	C556.907654,863.905762 588.227600,863.959656 619.546204,863.781555 
	C621.599609,863.769836 625.084351,862.351562 625.443054,860.955444 
	C627.059265,854.665771 625.865784,838.291504 618.505188,833.098145 
	C617.239807,832.205322 616.219666,829.742920 616.423889,828.180298 
	C618.251953,814.190857 620.829529,800.287598 622.292175,786.265564 
	C623.738342,772.401367 622.250244,758.645325 616.337952,745.811768 
	C607.535522,726.704712 591.723511,715.399353 572.831726,707.672607 
	C569.173889,706.176453 565.550537,704.543884 562.069641,702.678772 
	C556.406799,699.644592 551.088257,695.855835 545.202576,693.394043 
	C541.963684,692.039246 537.863586,692.743591 534.151733,692.519592 
	C533.953552,696.057129 533.915405,699.613342 533.504211,703.125916 
	C533.201721,705.709351 533.247131,709.019226 531.705994,710.663696 
	C519.205322,724.002136 506.366516,737.023682 493.131073,750.641052 
z"/>
<path fill="#BE804C" opacity="1.000000" stroke="none" 
	d="
M236.439148,667.020752 
	C235.972687,594.569031 235.977264,522.105591 236.432129,449.223328 
	C308.000153,448.818939 379.117889,448.835022 450.235626,448.833923 
	C451.557922,448.833893 452.880249,448.629547 454.202545,448.520508 
	C454.202545,521.113037 454.202545,593.705566 454.202545,667.008972 
	C381.386871,667.008972 309.148529,667.008972 236.439148,667.020752 
z"/>
<path fill="#BE804C" opacity="1.000000" stroke="none" 
	d="
M454.665710,229.942429 
	C527.140564,229.959366 599.615417,229.976288 672.561523,229.980759 
	C673.032776,302.402924 673.032776,374.837524 673.032776,448.192749 
	C600.247803,448.192749 527.882935,448.192749 455.136475,447.714844 
	C454.785736,446.238770 454.843719,445.240631 454.843781,444.242462 
	C454.848083,374.137726 454.848785,304.032990 454.840302,233.928268 
	C454.840149,232.599655 454.726440,231.271042 454.665710,229.942429 
z"/>
<path fill="#F4C79C" opacity="1.000000" stroke="none" 
	d="
M454.588013,229.970428 
	C454.726440,231.271042 454.840149,232.599655 454.840302,233.928268 
	C454.848785,304.032990 454.848083,374.137726 454.843781,444.242462 
	C454.843719,445.240631 454.785736,446.238770 454.637939,447.719604 
	C454.521118,448.202301 454.256622,448.377136 454.229584,448.448822 
	C452.880249,448.629547 451.557922,448.833893 450.235626,448.833923 
	C379.117889,448.835022 308.000153,448.818939 236.411621,448.733978 
	C235.940842,448.663361 235.996582,448.506683 236.023895,448.432831 
	C236.031082,375.876099 236.010925,303.393219 235.979401,230.439178 
	C308.423981,229.983917 380.879944,229.999832 453.845154,230.034378 
	C454.354401,230.053009 454.510284,229.998428 454.588013,229.970428 
M362.286865,289.893555 
	C358.645966,288.980530 359.571381,286.577240 360.134918,283.695709 
	C366.507324,283.695709 372.596466,283.695709 378.754272,283.695709 
	C378.754272,275.271179 378.754272,267.349884 378.754272,258.795471 
	C371.465759,258.795471 364.420563,258.795471 356.986206,258.795471 
	C356.986206,252.902924 356.986206,247.640472 356.986206,242.280945 
	C348.824799,242.280945 341.090942,242.280945 332.817871,242.280945 
	C332.817871,247.961517 332.817871,253.359222 332.817871,259.088074 
	C325.497223,259.088074 318.715790,259.088074 311.843506,259.088074 
	C311.843506,267.482330 311.843506,275.515808 311.843506,283.971039 
	C318.415253,283.971039 324.526703,283.971039 330.979980,283.971039 
	C330.886566,285.986084 330.813934,287.551971 330.737518,289.200653 
	C325.725616,290.243317 322.278351,292.816467 322.163208,297.839905 
	C322.092194,300.937622 321.030304,301.624939 318.206146,302.064545 
	C306.527802,303.882416 295.026642,306.508179 284.729370,312.658936 
	C275.738312,318.029480 273.278107,323.371063 277.037872,333.020813 
	C282.445374,346.899658 288.751923,360.435272 294.904572,374.013275 
	C297.398529,379.517059 300.497131,384.746887 303.541992,390.521271 
	C293.693817,391.860138 287.189880,396.770844 284.742401,405.560120 
	C283.298218,410.746338 283.511505,416.402740 283.062805,421.854553 
	C282.759094,425.545441 284.819672,426.876831 288.242737,426.875275 
	C326.242157,426.858124 364.241638,426.849152 402.240997,426.891663 
	C405.539429,426.895325 407.489105,425.515442 407.262970,422.224701 
	C406.867554,416.471191 406.692017,410.610321 405.392792,405.034821 
	C403.825745,398.309967 399.304688,393.750366 392.387604,391.888885 
	C390.728699,391.442413 389.155579,390.677216 387.405792,390.005981 
	C393.325439,378.447083 399.347931,367.550934 404.536743,356.271332 
	C408.410767,347.849823 411.435577,339.009644 414.402161,330.208862 
	C416.265869,324.679962 414.931702,319.309235 409.993561,315.975891 
	C404.972198,312.586365 399.631348,309.292267 393.954437,307.341370 
	C385.687042,304.500305 376.993622,302.898926 368.172882,300.691711 
	C368.913361,296.136597 367.666870,292.280518 362.286865,289.893555 
z"/>
<path fill="#424241" opacity="1.000000" stroke="none" 
	d="
M139.999969,645.173218 
	C117.836082,645.173157 96.172195,645.184143 74.508324,645.166260 
	C68.110085,645.161011 68.122841,645.013062 67.957565,638.757080 
	C67.606674,625.475281 72.613831,614.849854 84.310562,608.410828 
	C97.456619,601.173950 104.744141,589.886353 109.073586,576.121887 
	C109.460068,574.893188 109.670128,573.609009 110.073692,571.869751 
	C105.709579,571.869751 101.728241,571.715942 97.764458,571.913818 
	C93.935463,572.105042 92.974678,570.069519 91.901245,566.744995 
	C88.021912,554.730469 93.470795,548.305969 104.969391,545.011658 
	C99.235382,536.427307 95.926308,527.586609 98.945717,518.232605 
	C100.700180,512.797424 103.902130,507.024994 108.141235,503.354248 
	C118.847931,494.083160 134.966370,494.512482 145.381134,503.104675 
	C157.047638,512.729553 158.175476,525.090210 149.157135,544.489990 
	C150.810211,545.586243 152.483490,546.653381 154.112167,547.784790 
	C157.044724,549.822021 161.986954,551.533875 162.433594,554.034668 
	C163.299347,558.882080 161.899460,564.240906 160.808990,569.250793 
	C160.557297,570.407043 157.820007,571.603943 156.136246,571.751465 
	C152.022781,572.111755 147.856522,571.869019 143.105118,571.869019 
	C147.691666,586.209900 153.046692,599.145447 166.767288,606.675781 
	C179.736496,613.793823 186.042740,624.880615 185.689667,639.795044 
	C185.593063,643.875488 184.088516,645.304688 179.993912,645.244690 
	C166.831741,645.051758 153.664978,645.173035 139.999969,645.173218 
M141.787643,507.184387 
	C134.414917,501.968536 126.583473,499.999817 117.213303,503.889587 
	C105.237556,509.546844 100.722496,520.137695 104.892082,533.820312 
	C105.690201,535.396423 106.438980,537.000000 107.297501,538.542480 
	C108.734253,541.123840 110.241066,543.666260 111.127548,546.640564 
	C106.218246,549.738281 101.308945,552.836060 96.137939,556.838806 
	C96.580391,559.919739 97.022850,563.000671 97.473106,566.135986 
	C114.205429,566.135986 130.628967,566.135986 147.951385,566.305298 
	C150.546768,566.305298 153.142151,566.305298 155.581741,566.305298 
	C158.080261,555.692261 158.080246,555.692261 149.212448,550.946472 
	C148.774918,550.712341 148.334122,550.484009 147.900528,550.242798 
	C140.644638,546.205811 140.562622,545.840576 145.466873,539.441589 
	C152.879288,529.769958 151.357773,515.326538 141.787643,507.184387 
M115.122314,574.226868 
	C114.591194,576.077271 114.060074,577.927612 113.092751,580.348389 
	C108.513313,593.971130 100.955788,605.026611 87.927162,612.196655 
	C78.468964,617.401733 73.230721,625.838440 73.010666,637.843689 
	C74.677956,638.557495 76.342911,639.887512 78.012901,639.893860 
	C110.424217,640.016724 142.836121,639.984985 175.247894,639.984924 
	C176.826797,639.984924 178.405701,639.984985 179.887268,639.984985 
	C181.465256,627.412964 175.021439,615.902832 161.979736,610.193665 
	C159.170105,607.915955 156.107483,605.885132 153.598358,603.314148 
	C146.114502,595.645691 141.988586,586.089111 138.777267,576.037109 
	C138.294327,574.525452 136.996155,572.160522 135.984192,572.112671 
	C129.520294,571.807129 123.030441,572.015869 116.551460,572.160583 
	C116.203934,572.168335 115.877640,573.126099 115.122314,574.226868 
z"/>
<path fill="#3D3D3D" opacity="1.000000" stroke="none" 
	d="
M508.200745,208.151749 
	C503.462708,208.747360 501.644257,206.912201 501.637238,202.601318 
	C501.620361,192.258759 502.034424,182.183136 511.682159,175.395004 
	C512.636169,174.723755 513.366760,173.339325 513.640015,172.156326 
	C517.209473,156.705582 527.463135,146.541229 539.916565,137.796906 
	C546.513123,133.165024 552.512451,127.662270 558.606628,122.352150 
	C559.836548,121.280518 560.279358,119.305565 561.196899,117.530670 
	C550.168823,120.250572 539.530151,122.434494 529.203613,125.627975 
	C524.791931,126.992279 520.636475,130.002914 517.062134,133.076614 
	C510.766205,138.490692 506.606537,139.591782 499.173981,135.804840 
	C490.877014,131.577469 485.021820,124.753708 481.036987,116.534485 
	C480.125946,114.655411 480.766327,111.069931 482.065887,109.250801 
	C486.101776,103.601242 490.539703,98.181366 495.290222,93.111473 
	C506.216553,81.450516 517.193237,69.816757 528.628479,58.663059 
	C532.853882,54.541756 534.470703,50.500774 533.954041,44.731091 
	C533.092651,35.113632 534.052612,34.305027 543.195312,37.121120 
	C548.191284,38.659969 552.859558,41.336369 557.570679,43.708118 
	C563.281311,46.583046 568.731995,50.010445 574.554016,52.621944 
	C604.892700,66.230652 622.655579,85.993301 622.514221,121.967567 
	C622.450684,138.134949 618.924866,154.303146 616.711792,170.435516 
	C616.267761,173.672226 616.703430,175.746780 619.090210,178.255035 
	C626.377869,185.913528 626.477051,195.690399 625.532776,205.410934 
	C625.429749,206.472061 622.364014,208.003311 620.652222,208.030319 
	C606.991882,208.245987 593.326538,208.151550 579.662781,208.151657 
	C556.001221,208.151855 532.339661,208.151733 508.200745,208.151749 
M510.797760,183.198624 
	C507.142181,189.249954 506.498291,195.822281 507.051117,202.745422 
	C545.125977,202.745422 582.821777,202.745422 620.812195,202.745422 
	C620.507202,196.086365 621.148376,189.553391 616.706665,183.320129 
	C612.870667,181.254120 609.247681,178.096466 605.164062,177.299759 
	C579.191406,172.232574 553.034790,172.367310 526.939880,176.329239 
	C521.425903,177.166412 515.212769,177.470123 510.797760,183.198624 
M565.519836,120.486382 
	C563.174072,123.838455 561.386047,127.847824 558.368652,130.408463 
	C551.684875,136.080505 544.257507,140.865509 537.369690,146.311172 
	C530.565674,151.690613 523.326538,156.837662 520.451233,166.606491 
	C520.139771,168.295929 519.828308,169.985352 519.472107,171.917786 
	C520.749573,171.917786 521.405884,172.015762 522.024109,171.903519 
	C539.085205,168.805969 556.273621,167.588684 573.594177,168.476974 
	C580.719604,168.842377 587.836365,169.378479 595.732849,170.156067 
	C600.723206,171.072479 605.713623,171.988907 611.707275,173.089554 
	C613.619202,156.471741 616.336243,140.231094 617.167419,123.894508 
	C618.398560,99.695442 609.580017,79.527260 588.476929,66.421837 
	C577.187805,59.411098 564.950562,53.926998 552.796204,47.157806 
	C548.531494,45.429028 544.266724,43.700245 539.175720,42.215088 
	C539.195190,45.029072 539.503967,47.880726 539.143982,50.645302 
	C538.848938,52.910744 538.366211,55.640541 536.921204,57.188526 
	C527.177307,67.626602 517.079651,77.733299 507.248688,88.091698 
	C500.741302,94.948235 494.420166,101.985840 488.156494,109.066956 
	C486.033844,111.466614 484.144928,114.232903 487.775177,117.881271 
	C492.045746,122.040344 496.316345,126.199409 501.136139,130.866943 
	C505.641022,133.067917 509.396942,133.458282 513.461914,129.093948 
	C518.616150,123.560089 525.563660,120.712700 533.010986,118.867889 
	C542.625732,116.486198 552.151123,113.666847 561.557983,110.560310 
	C565.523438,109.250771 567.250854,109.793968 567.082092,114.806633 
	C566.727844,116.540329 566.373596,118.274033 565.519836,120.486382 
z"/>
<path fill="#3D3D3D" opacity="1.000000" stroke="none" 
	d="
M493.380920,750.391418 
	C506.366516,737.023682 519.205322,724.002136 531.705994,710.663696 
	C533.247131,709.019226 533.201721,705.709351 533.504211,703.125916 
	C533.915405,699.613342 533.953552,696.057129 534.151733,692.519592 
	C537.863586,692.743591 541.963684,692.039246 545.202576,693.394043 
	C551.088257,695.855835 556.406799,699.644592 562.069641,702.678772 
	C565.550537,704.543884 569.173889,706.176453 572.831726,707.672607 
	C591.723511,715.399353 607.535522,726.704712 616.337952,745.811768 
	C622.250244,758.645325 623.738342,772.401367 622.292175,786.265564 
	C620.829529,800.287598 618.251953,814.190857 616.423889,828.180298 
	C616.219666,829.742920 617.239807,832.205322 618.505188,833.098145 
	C625.865784,838.291504 627.059265,854.665771 625.443054,860.955444 
	C625.084351,862.351562 621.599609,863.769836 619.546204,863.781555 
	C588.227600,863.959656 556.907654,863.905762 525.588013,863.905212 
	C519.257446,863.905090 512.926636,863.868652 506.596436,863.912292 
	C502.703644,863.939148 500.451965,862.337280 501.027802,858.208496 
	C501.842468,852.367310 502.749451,846.533386 503.855774,840.742004 
	C504.185242,839.017273 504.866486,836.703186 506.152435,835.925476 
	C513.836609,831.277771 514.628479,822.658691 518.185730,815.695618 
	C522.574829,807.104126 529.364929,800.937195 536.996887,795.465271 
	C542.267517,791.686340 547.825195,788.248352 552.743652,784.058105 
	C556.156189,781.150757 558.699646,777.223267 562.475464,772.751892 
	C550.287048,775.781982 539.583618,777.798767 529.364197,781.249146 
	C524.078796,783.033691 519.348083,786.994446 514.932739,790.654724 
	C511.343719,793.629822 508.248047,794.496216 503.667053,793.062500 
	C493.200287,789.786682 486.667572,782.311829 481.591919,773.349121 
	C480.448975,771.330872 480.411255,767.474243 481.615173,765.571228 
	C484.960968,760.282715 489.227997,755.576965 493.380920,750.391418 
M520.460632,821.067932 
	C520.360229,821.367920 520.259827,821.667847 520.000366,822.745483 
	C519.741760,824.418823 519.483215,826.092163 519.359314,826.893921 
	C535.575317,825.856018 551.554199,824.425964 567.560730,823.970825 
	C576.330627,823.721375 585.147278,825.117981 594.797180,825.837708 
	C600.011719,826.825928 605.226196,827.814148 611.489807,829.001221 
	C613.471924,812.719055 616.235168,796.856567 617.154358,780.887939 
	C618.577637,756.159363 610.039612,735.313049 588.403381,721.808044 
	C576.463257,714.355103 563.507812,708.528931 550.407776,701.608704 
	C546.601013,700.133118 542.794250,698.657471 538.372742,697.205261 
	C538.566101,697.851135 538.759399,698.496948 538.990234,699.590454 
	C538.990234,699.590454 539.146851,700.011475 539.023376,700.915405 
	C538.559265,704.573914 539.403015,709.348816 537.400818,711.694397 
	C529.459473,720.998047 520.577942,729.494263 512.140442,738.380554 
	C502.747162,748.273376 493.457825,758.265015 483.996063,768.349121 
	C486.135803,771.215271 487.562286,773.125977 489.118622,775.719116 
	C493.067688,779.200500 497.016785,782.681885 501.360901,786.813232 
	C506.289886,788.834412 510.165802,788.280090 514.200928,784.002625 
	C519.673218,778.201721 527.209656,775.796936 534.964661,773.938843 
	C543.794067,771.823425 552.500854,769.123596 561.134827,766.292908 
	C566.218628,764.626282 566.639587,764.614990 566.769775,770.677795 
	C566.473145,772.100281 566.176514,773.522766 565.242493,775.294556 
	C563.501099,778.350037 562.406189,782.158142 559.893921,784.316284 
	C553.074585,790.174194 545.723633,795.427246 538.453552,800.742554 
	C531.044250,806.159790 523.862305,811.698792 520.962830,820.959045 
	C520.962830,820.959045 520.945740,820.877258 520.460632,821.067932 
M615.850830,838.309631 
	C613.533142,836.876038 611.380127,834.712097 608.866943,834.145569 
	C601.254517,832.429382 593.534790,830.463440 585.798279,830.177002 
	C570.304016,829.603333 554.754395,829.674011 539.261047,830.302551 
	C531.973328,830.598145 524.691223,832.513550 517.556763,834.295898 
	C515.087463,834.912842 513.071655,837.345337 510.209167,839.242859 
	C506.646759,845.145264 506.321716,851.639160 506.048889,857.968262 
	C544.678894,857.968262 582.623474,857.968262 621.297974,857.968262 
	C619.518616,851.198242 621.415405,844.221680 615.850830,838.309631 
z"/>
<path fill="#414140" opacity="1.000000" stroke="none" 
	d="
M362.666992,290.010437 
	C367.666870,292.280518 368.913361,296.136597 368.172882,300.691711 
	C376.993622,302.898926 385.687042,304.500305 393.954437,307.341370 
	C399.631348,309.292267 404.972198,312.586365 409.993561,315.975891 
	C414.931702,319.309235 416.265869,324.679962 414.402161,330.208862 
	C411.435577,339.009644 408.410767,347.849823 404.536743,356.271332 
	C399.347931,367.550934 393.325439,378.447083 387.405792,390.005981 
	C389.155579,390.677216 390.728699,391.442413 392.387604,391.888885 
	C399.304688,393.750366 403.825745,398.309967 405.392792,405.034821 
	C406.692017,410.610321 406.867554,416.471191 407.262970,422.224701 
	C407.489105,425.515442 405.539429,426.895325 402.240997,426.891663 
	C364.241638,426.849152 326.242157,426.858124 288.242737,426.875275 
	C284.819672,426.876831 282.759094,425.545441 283.062805,421.854553 
	C283.511505,416.402740 283.298218,410.746338 284.742401,405.560120 
	C287.189880,396.770844 293.693817,391.860138 303.541992,390.521271 
	C300.497131,384.746887 297.398529,379.517059 294.904572,374.013275 
	C288.751923,360.435272 282.445374,346.899658 277.037872,333.020813 
	C273.278107,323.371063 275.738312,318.029480 284.729370,312.658936 
	C295.026642,306.508179 306.527802,303.882416 318.206146,302.064545 
	C321.030304,301.624939 322.092194,300.937622 322.163208,297.839905 
	C322.278351,292.816467 325.725616,290.243317 330.737518,289.200653 
	C330.813934,287.551971 330.886566,285.986084 330.979980,283.971039 
	C324.526703,283.971039 318.415253,283.971039 311.843506,283.971039 
	C311.843506,275.515808 311.843506,267.482330 311.843506,259.088074 
	C318.715790,259.088074 325.497223,259.088074 332.817871,259.088074 
	C332.817871,253.359222 332.817871,247.961517 332.817871,242.280945 
	C341.090942,242.280945 348.824799,242.280945 356.986206,242.280945 
	C356.986206,247.640472 356.986206,252.902924 356.986206,258.795471 
	C364.420563,258.795471 371.465759,258.795471 378.754272,258.795471 
	C378.754272,267.349884 378.754272,275.271179 378.754272,283.695709 
	C372.596466,283.695709 366.507324,283.695709 360.134918,283.695709 
	C359.571381,286.577240 358.645966,288.980530 362.666992,290.010437 
M356.045746,294.919098 
	C353.891541,294.887878 351.737335,294.854828 349.583099,294.825806 
	C343.618958,294.745453 337.640533,294.416809 331.700195,294.755554 
	C330.129150,294.845123 328.675446,296.993286 327.167877,298.196198 
	C328.673828,298.933044 330.174530,300.290985 331.686584,300.303772 
	C340.119843,300.374969 348.555878,300.120453 357.838715,300.217499 
	C359.859222,300.131378 363.030975,301.683167 362.759094,297.956787 
	C362.676331,296.822205 359.621460,295.885681 357.896423,294.914185 
	C357.686279,294.795807 357.280212,295.025360 356.045746,294.919098 
M320.935272,278.405487 
	C325.836975,278.405487 330.738708,278.405487 336.033295,278.405487 
	C336.033295,282.390961 336.033295,285.791077 336.033295,289.106384 
	C341.307587,289.106384 346.178131,289.106384 351.917572,289.311981 
	C356.257477,287.437103 353.385498,283.787018 354.153107,280.226868 
	C355.490265,279.636841 356.794464,278.645996 358.170837,278.532806 
	C362.118530,278.208008 366.095459,278.238800 370.909149,278.330811 
	C371.885254,277.383240 373.531891,276.542847 373.703918,275.466736 
	C374.117523,272.879303 373.729401,270.175446 373.869965,267.529449 
	C374.033295,264.454346 372.557678,263.727814 368.977783,264.214600 
	C363.535614,264.214600 358.093445,264.214600 351.926208,264.214600 
	C351.926208,258.316071 351.926208,252.950272 351.926208,247.513428 
	C346.970093,247.513428 342.751617,247.513428 337.959717,247.513428 
	C337.959717,253.237869 337.959717,258.618164 337.959717,264.385681 
	C331.576538,264.385681 325.771637,264.385681 319.121918,264.212067 
	C314.276093,266.731964 317.869385,271.110687 316.981293,274.520630 
	C316.700348,275.599243 317.949951,277.109528 318.618927,278.358124 
	C318.697205,278.504303 319.540924,278.240417 320.935272,278.405487 
M397.884430,401.332703 
	C392.957214,399.217773 388.212677,396.086761 383.071411,395.162262 
	C359.698395,390.959412 336.143738,390.966827 312.652527,394.216339 
	C305.922729,395.147247 298.640045,395.279907 292.806641,401.192688 
	C288.263519,407.134064 288.284973,414.019226 288.222656,421.157471 
	C326.378448,421.157471 364.042786,421.157471 401.991577,421.157471 
	C402.265839,414.239288 402.434937,407.692047 397.884430,401.332703 
M381.678955,387.958405 
	C386.139618,379.876099 391.033203,371.997284 394.951447,363.660034 
	C399.866425,353.201996 404.372101,342.509735 408.311310,331.649017 
	C411.165833,323.778992 409.989471,321.037079 402.639893,316.985199 
	C393.466217,311.927612 383.586884,308.649017 372.278107,307.641205 
	C356.915894,304.751862 341.490082,304.147339 325.429565,306.191620 
	C324.898651,306.346313 324.367706,306.501007 323.112518,306.666718 
	C322.406525,306.806793 321.700531,306.946838 320.169434,307.013062 
	C317.889526,307.388397 315.584259,307.651062 313.334137,308.158508 
	C303.483643,310.379974 293.651794,312.650208 285.076050,318.426300 
	C281.293243,320.974152 280.001007,324.443481 281.086273,328.732544 
	C281.803314,331.566162 282.900970,334.303497 283.879730,337.836395 
	C291.892120,354.148315 299.827118,370.499634 308.067932,386.695343 
	C308.708221,387.953674 311.587189,388.887421 313.265533,388.679443 
	C334.634369,386.031799 355.973907,386.181213 377.334106,388.689178 
	C378.494080,388.825378 379.748627,388.155884 381.678955,387.958405 
z"/>
<path fill="#F0F0F0" opacity="1.000000" stroke="none" 
	d="
M162.278259,610.822083 
	C175.021439,615.902832 181.465256,627.412964 179.887268,639.984985 
	C178.405701,639.984985 176.826797,639.984924 175.247894,639.984924 
	C142.836121,639.984985 110.424217,640.016724 78.012901,639.893860 
	C76.342911,639.887512 74.677956,638.557495 73.412170,637.361084 
	C74.353783,636.286804 75.067993,635.780823 75.407768,635.090454 
	C80.150314,625.454956 87.089912,617.762268 96.362640,612.434631 
	C108.137611,605.669373 112.671387,594.720032 114.699387,582.186707 
	C114.816032,581.465820 113.941933,580.584656 113.528938,579.778015 
	C114.060074,577.927612 114.591194,576.077271 115.667877,574.112915 
	C123.498665,582.501221 130.252457,591.548401 138.236191,599.334412 
	C144.695541,605.633850 152.394226,610.931335 162.278259,610.822083 
z"/>
<path fill="#EFEFEF" opacity="1.000000" stroke="none" 
	d="
M147.052521,566.135986 
	C130.628967,566.135986 114.205429,566.135986 97.473106,566.135986 
	C97.022850,563.000671 96.580391,559.919739 96.773987,556.417725 
	C107.360962,556.019653 110.499458,553.876282 111.718384,546.225037 
	C110.241066,543.666260 108.734253,541.123840 107.297501,538.542480 
	C106.438980,537.000000 105.690201,535.396423 105.149040,533.214844 
	C106.342094,522.435974 109.758492,513.382751 117.223175,506.102631 
	C117.725952,505.612274 117.709801,504.589844 117.934998,503.814880 
	C126.583473,499.999817 134.414917,501.968536 141.899750,507.871094 
	C142.509277,509.750916 142.884033,511.014618 143.523544,512.125977 
	C148.640915,521.018860 148.338211,527.907776 141.584503,535.919006 
	C138.367783,539.734619 134.228424,542.772461 130.125412,546.510254 
	C136.526672,549.547546 142.753586,552.502136 148.926117,555.430908 
	C148.243683,559.330139 147.648117,562.733032 147.052521,566.135986 
z"/>
<path fill="#CBCBCB" opacity="1.000000" stroke="none" 
	d="
M162.128998,610.507874 
	C152.394226,610.931335 144.695541,605.633850 138.236191,599.334412 
	C130.252457,591.548401 123.498665,582.501221 115.877449,573.820312 
	C115.877640,573.126099 116.203934,572.168335 116.551460,572.160583 
	C123.030441,572.015869 129.520294,571.807129 135.984192,572.112671 
	C136.996155,572.160522 138.294327,574.525452 138.777267,576.037109 
	C141.988586,586.089111 146.114502,595.645691 153.598358,603.314148 
	C156.107483,605.885132 159.170105,607.915955 162.128998,610.507874 
z"/>
<path fill="#CBCBCB" opacity="1.000000" stroke="none" 
	d="
M147.501953,566.220642 
	C147.648117,562.733032 148.243683,559.330139 148.926117,555.430908 
	C142.753586,552.502136 136.526672,549.547546 130.125412,546.510254 
	C134.228424,542.772461 138.367783,539.734619 141.584503,535.919006 
	C148.338211,527.907776 148.640915,521.018860 143.523544,512.125977 
	C142.884033,511.014618 142.509277,509.750916 142.072021,508.171967 
	C151.357773,515.326538 152.879288,529.769958 145.466873,539.441589 
	C140.562622,545.840576 140.644638,546.205811 147.900528,550.242798 
	C148.334122,550.484009 148.774918,550.712341 149.212448,550.946472 
	C158.080246,555.692261 158.080261,555.692261 155.581741,566.305298 
	C153.142151,566.305298 150.546768,566.305298 147.501953,566.220642 
z"/>
<path fill="#FAFAFA" opacity="1.000000" stroke="none" 
	d="
M113.310837,580.063232 
	C113.941933,580.584656 114.816032,581.465820 114.699387,582.186707 
	C112.671387,594.720032 108.137611,605.669373 96.362640,612.434631 
	C87.089912,617.762268 80.150314,625.454956 75.407768,635.090454 
	C75.067993,635.780823 74.353783,636.286804 73.478981,636.934082 
	C73.230721,625.838440 78.468964,617.401733 87.927162,612.196655 
	C100.955788,605.026611 108.513313,593.971130 113.310837,580.063232 
z"/>
<path fill="#F4F4F4" opacity="1.000000" stroke="none" 
	d="
M117.574150,503.852234 
	C117.709801,504.589844 117.725952,505.612274 117.223175,506.102631 
	C109.758492,513.382751 106.342094,522.435974 105.078568,532.865540 
	C100.722496,520.137695 105.237556,509.546844 117.574150,503.852234 
z"/>
<path fill="#F8F8F8" opacity="1.000000" stroke="none" 
	d="
M111.422966,546.432800 
	C110.499458,553.876282 107.360962,556.019653 96.904839,555.965210 
	C101.308945,552.836060 106.218246,549.738281 111.422966,546.432800 
z"/>
<path fill="#EFEFEF" opacity="1.000000" stroke="none" 
	d="
M500.586914,130.358475 
	C496.316345,126.199409 492.045746,122.040344 487.944916,117.410004 
	C488.745758,116.291832 489.376892,115.644936 490.420959,115.022797 
	C495.602600,115.564377 498.294220,113.616379 498.760895,108.181877 
	C496.984894,108.181877 495.530975,108.181877 494.057526,107.806244 
	C494.440155,106.383827 494.555389,105.038971 495.287109,104.334595 
	C508.071625,92.027695 521.054993,79.925346 533.739624,67.517334 
	C545.782410,55.737118 546.497681,58.947678 540.269470,43.437199 
	C540.088135,42.985645 540.087158,42.461670 540.002014,41.971462 
	C544.266724,43.700245 548.531494,45.429028 552.926025,47.828354 
	C554.469666,52.570148 556.728210,55.776810 560.973083,57.476810 
	C565.284546,59.203495 569.587952,61.057716 573.633118,63.323463 
	C590.622375,72.839417 603.026855,85.965683 606.199829,106.037216 
	C608.444214,120.234665 606.929504,134.155869 602.597900,147.774536 
	C600.239746,155.188721 597.515930,162.486603 594.957031,169.836945 
	C587.836365,169.378479 580.719604,168.842377 573.594177,168.476974 
	C556.273621,167.588684 539.085205,168.805969 522.024109,171.903519 
	C521.405884,172.015762 520.749573,171.917786 519.472107,171.917786 
	C519.828308,169.985352 520.139771,168.295929 521.035034,166.156494 
	C528.644470,156.206558 538.163879,149.717804 547.992676,143.513611 
	C552.297241,140.796417 556.654297,137.837784 560.083435,134.148422 
	C563.603027,130.361725 567.461670,126.135452 566.019409,120.007721 
	C566.373596,118.274033 566.727844,116.540329 567.504944,114.367271 
	C574.454773,107.401772 575.087952,97.461136 569.398682,88.797188 
	C568.573486,95.964279 564.531799,101.045670 558.403748,103.671394 
	C547.299744,108.429153 535.886353,112.475525 524.548279,116.673355 
	C515.787109,119.917130 507.182983,123.358719 500.586914,130.358475 
M538.940857,85.825340 
	C541.758179,85.199776 545.021118,85.224564 547.230103,83.711090 
	C548.613525,82.763283 549.428040,78.995239 548.642395,77.415176 
	C547.808472,75.738029 544.758789,74.229454 542.715027,74.277412 
	C538.183838,74.383713 536.412292,78.157364 535.722534,82.032074 
	C535.533386,83.094505 537.280334,84.501602 538.940857,85.825340 
z"/>
<path fill="#F0F0F0" opacity="1.000000" stroke="none" 
	d="
M616.868164,183.991028 
	C621.148376,189.553391 620.507202,196.086365 620.812195,202.745422 
	C582.821777,202.745422 545.125977,202.745422 507.051117,202.745422 
	C506.498291,195.822281 507.142181,189.249954 511.534485,183.063049 
	C514.639893,182.271240 516.971375,181.285400 519.383362,181.013916 
	C532.150085,179.576935 544.918091,177.523392 557.722168,177.219376 
	C571.068970,176.902496 584.497314,177.912064 597.810120,179.180298 
	C604.257080,179.794479 610.521240,182.327011 616.868164,183.991028 
z"/>
<path fill="#CBCBCB" opacity="1.000000" stroke="none" 
	d="
M595.344971,169.996506 
	C597.515930,162.486603 600.239746,155.188721 602.597900,147.774536 
	C606.929504,134.155869 608.444214,120.234665 606.199829,106.037216 
	C603.026855,85.965683 590.622375,72.839417 573.633118,63.323463 
	C569.587952,61.057716 565.284546,59.203495 560.973083,57.476810 
	C556.728210,55.776810 554.469666,52.570148 553.098572,48.126419 
	C564.950562,53.926998 577.187805,59.411098 588.476929,66.421837 
	C609.580017,79.527260 618.398560,99.695442 617.167419,123.894508 
	C616.336243,140.231094 613.619202,156.471741 611.707275,173.089554 
	C605.713623,171.988907 600.723206,171.072479 595.344971,169.996506 
z"/>
<path fill="#CBCBCB" opacity="1.000000" stroke="none" 
	d="
M500.861511,130.612701 
	C507.182983,123.358719 515.787109,119.917130 524.548279,116.673355 
	C535.886353,112.475525 547.299744,108.429153 558.403748,103.671394 
	C564.531799,101.045670 568.573486,95.964279 569.398682,88.797188 
	C575.087952,97.461136 574.454773,107.401772 567.593872,113.995636 
	C567.250854,109.793968 565.523438,109.250771 561.557983,110.560310 
	C552.151123,113.666847 542.625732,116.486198 533.010986,118.867889 
	C525.563660,120.712700 518.616150,123.560089 513.461914,129.093948 
	C509.396942,133.458282 505.641022,133.067917 500.861511,130.612701 
z"/>
<path fill="#F8F8F8" opacity="1.000000" stroke="none" 
	d="
M539.588867,42.093277 
	C540.087158,42.461670 540.088135,42.985645 540.269470,43.437199 
	C546.497681,58.947678 545.782410,55.737118 533.739624,67.517334 
	C521.054993,79.925346 508.071625,92.027695 495.287109,104.334595 
	C494.555389,105.038971 494.440155,106.383827 493.869995,108.080544 
	C492.470673,110.819664 491.239349,112.908859 490.008026,114.998039 
	C489.376892,115.644936 488.745758,116.291832 487.805298,117.088333 
	C484.144928,114.232903 486.033844,111.466614 488.156494,109.066956 
	C494.420166,101.985840 500.741302,94.948235 507.248688,88.091698 
	C517.079651,77.733299 527.177307,67.626602 536.921204,57.188526 
	C538.366211,55.640541 538.848938,52.910744 539.143982,50.645302 
	C539.503967,47.880726 539.195190,45.029072 539.588867,42.093277 
z"/>
<path fill="#F9F9F9" opacity="1.000000" stroke="none" 
	d="
M616.787415,183.655579 
	C610.521240,182.327011 604.257080,179.794479 597.810120,179.180298 
	C584.497314,177.912064 571.068970,176.902496 557.722168,177.219376 
	C544.918091,177.523392 532.150085,179.576935 519.383362,181.013916 
	C516.971375,181.285400 514.639893,182.271240 511.839905,182.898804 
	C515.212769,177.470123 521.425903,177.166412 526.939880,176.329239 
	C553.034790,172.367310 579.191406,172.232574 605.164062,177.299759 
	C609.247681,178.096466 612.870667,181.254120 616.787415,183.655579 
z"/>
<path fill="#F7F7F7" opacity="1.000000" stroke="none" 
	d="
M565.769592,120.247055 
	C567.461670,126.135452 563.603027,130.361725 560.083435,134.148422 
	C556.654297,137.837784 552.297241,140.796417 547.992676,143.513611 
	C538.163879,149.717804 528.644470,156.206558 521.316895,165.854828 
	C523.326538,156.837662 530.565674,151.690613 537.369690,146.311172 
	C544.257507,140.865509 551.684875,136.080505 558.368652,130.408463 
	C561.386047,127.847824 563.174072,123.838455 565.769592,120.247055 
z"/>
<path fill="#F0F0F0" opacity="1.000000" stroke="none" 
	d="
M565.879883,774.945251 
	C566.176514,773.522766 566.473145,772.100281 567.302734,770.286072 
	C574.183838,762.577698 574.947876,750.527893 569.229126,744.658752 
	C568.198486,754.256287 561.300232,758.718750 553.645203,761.850647 
	C543.676025,765.929321 533.335571,769.090881 523.231934,772.853943 
	C515.019653,775.912659 506.485931,778.550598 500.965881,786.163269 
	C497.016785,782.681885 493.067688,779.200500 489.057709,774.995239 
	C489.393982,773.162170 489.791168,772.052979 490.570557,770.942261 
	C495.525604,771.259338 497.802795,768.796021 499.334076,763.558472 
	C496.337524,764.228149 494.212799,764.703003 492.089508,764.821045 
	C495.224701,760.647644 498.031219,756.494263 501.550812,753.074707 
	C514.419434,740.572388 527.564087,728.354736 540.522949,715.944397 
	C545.587585,711.094116 544.928284,704.581116 539.146851,700.011475 
	C539.146851,700.011475 538.990234,699.590454 538.989014,699.040039 
	C538.987732,698.053650 538.987610,697.617737 538.987488,697.181824 
	C542.794250,698.657471 546.601013,700.133118 550.734192,702.139038 
	C554.285217,706.700745 556.419739,711.650879 561.996155,713.540833 
	C566.365784,715.021790 570.634094,717.023376 574.635742,719.333496 
	C602.260071,735.280579 610.060303,756.601013 606.413940,786.170349 
	C604.696838,800.095032 599.613953,813.047363 593.942871,825.772339 
	C585.147278,825.117981 576.330627,823.721375 567.560730,823.970825 
	C551.554199,824.425964 535.575317,825.856018 519.359314,826.893921 
	C519.483215,826.092163 519.741760,824.418823 520.274414,822.228027 
	C520.765076,821.472961 520.897522,821.195190 520.945740,820.877258 
	C520.945740,820.877258 520.962830,820.959045 521.270508,820.926147 
	C527.850037,812.636902 536.139038,806.789612 544.641846,801.083740 
	C550.362305,797.244751 556.055420,793.140625 560.896057,788.291870 
	C564.246521,784.936035 567.714661,780.677368 565.879883,774.945251 
M541.863892,729.987671 
	C537.165710,731.131775 535.640503,734.857971 535.780151,738.918823 
	C535.807068,739.701477 540.295471,740.793640 542.767883,740.920105 
	C546.431641,741.107483 549.582825,739.187256 549.563843,735.327332 
	C549.544556,731.427979 546.572815,729.699158 541.863892,729.987671 
z"/>
<path fill="#F0F0F0" opacity="1.000000" stroke="none" 
	d="
M616.157166,838.945557 
	C621.415405,844.221680 619.518616,851.198242 621.297974,857.968262 
	C582.623474,857.968262 544.678894,857.968262 506.048889,857.968262 
	C506.321716,851.639160 506.646759,845.145264 510.924622,839.107910 
	C514.780273,837.979126 517.856506,836.528870 521.072876,836.078186 
	C530.207336,834.798462 539.419250,834.079041 548.563721,832.861450 
	C565.139343,830.654480 581.570435,832.536194 597.956726,834.606628 
	C604.108093,835.383911 610.095154,837.460999 616.157166,838.945557 
z"/>
<path fill="#CBCBCB" opacity="1.000000" stroke="none" 
	d="
M594.369995,825.805054 
	C599.613953,813.047363 604.696838,800.095032 606.413940,786.170349 
	C610.060303,756.601013 602.260071,735.280579 574.635742,719.333496 
	C570.634094,717.023376 566.365784,715.021790 561.996155,713.540833 
	C556.419739,711.650879 554.285217,706.700745 551.035278,702.319336 
	C563.507812,708.528931 576.463257,714.355103 588.403381,721.808044 
	C610.039612,735.313049 618.577637,756.159363 617.154358,780.887939 
	C616.235168,796.856567 613.471924,812.719055 611.489807,829.001221 
	C605.226196,827.814148 600.011719,826.825928 594.369995,825.805054 
z"/>
<path fill="#CBCBCB" opacity="1.000000" stroke="none" 
	d="
M501.163391,786.488281 
	C506.485931,778.550598 515.019653,775.912659 523.231934,772.853943 
	C533.335571,769.090881 543.676025,765.929321 553.645203,761.850647 
	C561.300232,758.718750 568.198486,754.256287 569.229126,744.658752 
	C574.947876,750.527893 574.183838,762.577698 567.505005,769.969727 
	C566.639587,764.614990 566.218628,764.626282 561.134827,766.292908 
	C552.500854,769.123596 543.794067,771.823425 534.964661,773.938843 
	C527.209656,775.796936 519.673218,778.201721 514.200928,784.002625 
	C510.165802,788.280090 506.289886,788.834412 501.163391,786.488281 
z"/>
<path fill="#FBFBFB" opacity="1.000000" stroke="none" 
	d="
M539.085083,700.463440 
	C544.928284,704.581116 545.587585,711.094116 540.522949,715.944397 
	C527.564087,728.354736 514.419434,740.572388 501.550812,753.074707 
	C498.031219,756.494263 495.224701,760.647644 491.922302,765.117920 
	C491.231873,767.495605 490.710114,769.219727 490.188354,770.943787 
	C489.791168,772.052979 489.393982,773.162170 488.992798,774.654053 
	C487.562286,773.125977 486.135803,771.215271 483.996063,768.349121 
	C493.457825,758.265015 502.747162,748.273376 512.140442,738.380554 
	C520.577942,729.494263 529.459473,720.998047 537.400818,711.694397 
	C539.403015,709.348816 538.559265,704.573914 539.085083,700.463440 
z"/>
<path fill="#F8F8F8" opacity="1.000000" stroke="none" 
	d="
M616.004028,838.627563 
	C610.095154,837.460999 604.108093,835.383911 597.956726,834.606628 
	C581.570435,832.536194 565.139343,830.654480 548.563721,832.861450 
	C539.419250,834.079041 530.207336,834.798462 521.072876,836.078186 
	C517.856506,836.528870 514.780273,837.979126 511.244385,838.960754 
	C513.071655,837.345337 515.087463,834.912842 517.556763,834.295898 
	C524.691223,832.513550 531.973328,830.598145 539.261047,830.302551 
	C554.754395,829.674011 570.304016,829.603333 585.798279,830.177002 
	C593.534790,830.463440 601.254517,832.429382 608.866943,834.145569 
	C611.380127,834.712097 613.533142,836.876038 616.004028,838.627563 
z"/>
<path fill="#FBFBFB" opacity="1.000000" stroke="none" 
	d="
M565.561157,775.119873 
	C567.714661,780.677368 564.246521,784.936035 560.896057,788.291870 
	C556.055420,793.140625 550.362305,797.244751 544.641846,801.083740 
	C536.139038,806.789612 527.850037,812.636902 521.230347,820.914856 
	C523.862305,811.698792 531.044250,806.159790 538.453552,800.742554 
	C545.723633,795.427246 553.074585,790.174194 559.893921,784.316284 
	C562.406189,782.158142 563.501099,778.350037 565.561157,775.119873 
z"/>
<path fill="#FBFBFB" opacity="1.000000" stroke="none" 
	d="
M538.680115,697.193542 
	C538.987610,697.617737 538.987732,698.053650 538.970337,698.816162 
	C538.759399,698.496948 538.566101,697.851135 538.680115,697.193542 
z"/>
<path fill="#FBFBFB" opacity="1.000000" stroke="none" 
	d="
M520.703186,820.972595 
	C520.897522,821.195190 520.765076,821.472961 520.353882,821.839172 
	C520.259827,821.667847 520.360229,821.367920 520.703186,820.972595 
z"/>
<path fill="#EFEFEF" opacity="1.000000" stroke="none" 
	d="
M320.994537,307.086914 
	C321.700531,306.946838 322.406525,306.806793 323.609253,306.921906 
	C324.732697,306.902191 325.359375,306.627289 325.986053,306.352386 
	C341.490082,304.147339 356.915894,304.751862 372.674316,308.193573 
	C375.354980,309.998627 377.630249,311.268555 379.925537,312.501099 
	C391.356201,318.639252 398.396515,330.882202 395.663910,342.608490 
	C393.005219,354.017792 388.882751,365.090942 385.284882,376.273712 
	C384.023499,380.194366 382.411224,384.002106 380.959167,387.861420 
	C379.748627,388.155884 378.494080,388.825378 377.334106,388.689178 
	C355.973907,386.181213 334.634369,386.031799 313.265533,388.679443 
	C311.587189,388.887421 308.708221,387.953674 308.067932,386.695343 
	C299.827118,370.499634 291.892120,354.148315 284.171692,337.201111 
	C284.454895,325.953827 289.831604,318.628632 299.181244,314.610748 
	C305.180176,312.032745 311.788849,310.887604 318.088165,308.981171 
	C319.150757,308.659637 320.030396,307.733643 320.994537,307.086914 
z"/>
<path fill="#ECECEC" opacity="1.000000" stroke="none" 
	d="
M398.089233,402.011169 
	C402.434937,407.692047 402.265839,414.239288 401.991577,421.157471 
	C364.042786,421.157471 326.378448,421.157471 288.222656,421.157471 
	C288.284973,414.019226 288.263519,407.134064 293.545166,401.064209 
	C312.622314,395.910522 331.436584,395.296051 350.268707,395.070190 
	C355.537598,395.007019 360.823334,395.582581 366.086548,396.036560 
	C370.842651,396.446777 375.635010,396.799530 380.309174,397.705170 
	C386.289459,398.863983 392.167267,400.551514 398.089233,402.011169 
z"/>
<path fill="#EBEBEB" opacity="1.000000" stroke="none" 
	d="
M319.966736,264.385681 
	C325.771637,264.385681 331.576538,264.385681 337.959717,264.385681 
	C337.959717,258.618164 337.959717,253.237869 337.959717,247.513428 
	C342.751617,247.513428 346.970093,247.513428 351.926208,247.513428 
	C351.926208,252.950272 351.926208,258.316071 351.926208,264.214600 
	C358.093445,264.214600 363.535614,264.214600 369.459167,264.737488 
	C369.980652,269.550201 370.020782,273.840027 370.060913,278.129822 
	C366.095459,278.238800 362.118530,278.208008 358.170837,278.532806 
	C356.794464,278.645996 355.490265,279.636841 353.656067,280.642731 
	C348.751282,282.769806 351.938721,286.472717 351.048645,289.106384 
	C346.178131,289.106384 341.307587,289.106384 336.033295,289.106384 
	C336.033295,285.791077 336.033295,282.390961 336.033295,278.405487 
	C330.738708,278.405487 325.836975,278.405487 320.476257,277.811951 
	C320.000397,272.940826 319.983582,268.663239 319.966736,264.385681 
z"/>
<path fill="#CCCCCC" opacity="1.000000" stroke="none" 
	d="
M381.319061,387.909912 
	C382.411224,384.002106 384.023499,380.194366 385.284882,376.273712 
	C388.882751,365.090942 393.005219,354.017792 395.663910,342.608490 
	C398.396515,330.882202 391.356201,318.639252 379.925537,312.501099 
	C377.630249,311.268555 375.354980,309.998627 373.028870,308.394836 
	C383.586884,308.649017 393.466217,311.927612 402.639893,316.985199 
	C409.989471,321.037079 411.165833,323.778992 408.311310,331.649017 
	C404.372101,342.509735 399.866425,353.201996 394.951447,363.660034 
	C391.033203,371.997284 386.139618,379.876099 381.319061,387.909912 
z"/>
<path fill="#F7F7F7" opacity="1.000000" stroke="none" 
	d="
M397.986816,401.671936 
	C392.167267,400.551514 386.289459,398.863983 380.309174,397.705170 
	C375.635010,396.799530 370.842651,396.446777 366.086548,396.036560 
	C360.823334,395.582581 355.537598,395.007019 350.268707,395.070190 
	C331.436584,395.296051 312.622314,395.910522 293.844666,400.907166 
	C298.640045,395.279907 305.922729,395.147247 312.652527,394.216339 
	C336.143738,390.966827 359.698395,390.959412 383.071411,395.162262 
	C388.212677,396.086761 392.957214,399.217773 397.986816,401.671936 
z"/>
<path fill="#F7F7F7" opacity="1.000000" stroke="none" 
	d="
M320.581970,307.049988 
	C320.030396,307.733643 319.150757,308.659637 318.088165,308.981171 
	C311.788849,310.887604 305.180176,312.032745 299.181244,314.610748 
	C289.831604,318.628632 284.454895,325.953827 284.145935,336.824860 
	C282.900970,334.303497 281.803314,331.566162 281.086273,328.732544 
	C280.001007,324.443481 281.293243,320.974152 285.076050,318.426300 
	C293.651794,312.650208 303.483643,310.379974 313.334137,308.158508 
	C315.584259,307.651062 317.889526,307.388397 320.581970,307.049988 
z"/>
<path fill="#ECECEC" opacity="1.000000" stroke="none" 
	d="
M356.990936,299.977295 
	C348.555878,300.120453 340.119843,300.374969 331.686584,300.303772 
	C330.174530,300.290985 328.673828,298.933044 327.167847,298.196167 
	C328.675446,296.993286 330.129150,294.845123 331.700195,294.755554 
	C337.640533,294.416809 343.618958,294.745453 349.583099,294.825806 
	C351.737335,294.854828 353.891541,294.887878 356.521240,295.413086 
	C356.994812,297.263824 356.992859,298.620544 356.990936,299.977295 
z"/>
<path fill="#C0C0C0" opacity="1.000000" stroke="none" 
	d="
M370.485046,278.230316 
	C370.020782,273.840027 369.980652,269.550201 369.912659,264.821533 
	C372.557678,263.727814 374.033295,264.454346 373.869965,267.529449 
	C373.729401,270.175446 374.117523,272.879303 373.703918,275.466736 
	C373.531891,276.542847 371.885254,277.383240 370.485046,278.230316 
z"/>
<path fill="#FFFEFE" opacity="1.000000" stroke="none" 
	d="
M319.544312,264.298889 
	C319.983582,268.663239 320.000397,272.940826 320.023499,277.692505 
	C319.540924,278.240417 318.697205,278.504303 318.618927,278.358124 
	C317.949951,277.109528 316.700348,275.599243 316.981293,274.520630 
	C317.869385,271.110687 314.276093,266.731964 319.544312,264.298889 
z"/>
<path fill="#C0C0C0" opacity="1.000000" stroke="none" 
	d="
M357.414825,300.097412 
	C356.992859,298.620544 356.994812,297.263824 356.980835,295.500366 
	C357.280212,295.025360 357.686279,294.795807 357.896423,294.914185 
	C359.621460,295.885681 362.676331,296.822205 362.759094,297.956787 
	C363.030975,301.683167 359.859222,300.131378 357.414825,300.097412 
z"/>
<path fill="#C0C0C0" opacity="1.000000" stroke="none" 
	d="
M351.483093,289.209167 
	C351.938721,286.472717 348.751282,282.769806 353.562927,281.022766 
	C353.385498,283.787018 356.257477,287.437103 351.483093,289.209167 
z"/>
<path fill="#F7F7F7" opacity="1.000000" stroke="none" 
	d="
M325.707825,306.272003 
	C325.359375,306.627289 324.732697,306.902191 323.971405,306.916382 
	C324.367706,306.501007 324.898651,306.346313 325.707825,306.272003 
z"/>
<path fill="#A3A3A3" opacity="1.000000" stroke="none" 
	d="
M538.539795,85.787941 
	C537.280334,84.501602 535.533386,83.094505 535.722534,82.032074 
	C536.412292,78.157364 538.183838,74.383713 542.715027,74.277412 
	C544.758789,74.229454 547.808472,75.738029 548.642395,77.415176 
	C549.428040,78.995239 548.613525,82.763283 547.230103,83.711090 
	C545.021118,85.224564 541.758179,85.199776 538.539795,85.787941 
z"/>
<path fill="#B1B1B1" opacity="1.000000" stroke="none" 
	d="
M490.420959,115.022812 
	C491.239349,112.908859 492.470673,110.819664 493.889526,108.456177 
	C495.530975,108.181877 496.984894,108.181877 498.760895,108.181877 
	C498.294220,113.616379 495.602600,115.564377 490.420959,115.022812 
z"/>
<path fill="#A0A0A0" opacity="1.000000" stroke="none" 
	d="
M542.267944,729.951965 
	C546.572815,729.699158 549.544556,731.427979 549.563843,735.327332 
	C549.582825,739.187256 546.431641,741.107483 542.767883,740.920105 
	C540.295471,740.793640 535.807068,739.701477 535.780151,738.918823 
	C535.640503,734.857971 537.165710,731.131775 542.267944,729.951965 
z"/>
<path fill="#B1B1B1" opacity="1.000000" stroke="none" 
	d="
M490.570557,770.942261 
	C490.710114,769.219727 491.231873,767.495605 491.920837,765.474731 
	C494.212799,764.703003 496.337524,764.228149 499.334076,763.558472 
	C497.802795,768.796021 495.525604,771.259338 490.570557,770.942261 
z"/>
</svg>