<svg version="1.1" id="Layer_1" xmlns="http://www.w3.org/2000/svg" xmlns:xlink="http://www.w3.org/1999/xlink" x="0px" y="0px"
	 width="100%" viewBox="0 0 882 886" enable-background="new 0 0 882 886" xml:space="preserve">
<path fill="#FFFDFC" opacity="1.000000" stroke="none" 
	d="
M1.000000,328.000000 
	C1.000000,218.666672 1.000000,109.833336 1.000000,1.000000 
	C295.000000,1.000000 589.000000,1.000000 883.000000,1.000000 
	C883.000000,296.333344 883.000000,591.666687 883.000000,887.000000 
	C589.000000,887.000000 295.000000,887.000000 1.000000,887.000000 
	C1.000000,700.833313 1.000000,514.666687 1.000000,328.000000 
M222.983521,881.063660 
	C287.239899,881.063477 351.496307,881.057983 415.752686,881.069580 
	C424.074524,881.071045 432.396362,881.160522 441.501160,881.546814 
	C442.164276,881.593872 442.827393,881.682068 443.490509,881.682129 
	C514.066406,881.689209 584.642273,881.693176 655.218140,881.663940 
	C656.497009,881.663452 657.775757,881.264465 659.983459,881.064148 
	C732.185364,881.064148 804.387268,881.064148 877.051331,881.064148 
	C877.051331,807.874207 877.051331,735.464417 877.520935,662.373718 
	C877.576782,661.711914 877.681458,661.050110 877.681580,660.388306 
	C877.689697,589.802612 877.692444,519.216919 877.670593,448.631195 
	C877.670166,447.325226 877.369385,446.019318 877.155579,443.823151 
	C877.125122,441.659729 877.068359,439.496307 877.068054,437.332886 
	C877.059326,366.907074 877.056152,296.481232 877.522156,225.374588 
	C877.578918,223.880325 877.685120,222.386047 877.685303,220.891785 
	C877.693481,151.634644 877.637939,82.377380 877.805786,13.120649 
	C877.817993,8.091517 876.142639,7.201776 871.550415,7.211041 
	C802.460022,7.350442 733.369324,7.302836 664.278687,7.334492 
	C662.500366,7.335306 660.722229,7.735512 658.013794,7.935313 
	C632.381165,7.935471 606.748535,7.946896 581.115906,7.933336 
	C534.179016,7.908506 487.242096,7.868920 439.521515,7.472521 
	C438.859070,7.419173 438.196594,7.319173 437.534149,7.319097 
	C366.950104,7.310991 296.366089,7.307011 225.782059,7.335960 
	C224.503036,7.336485 223.224182,7.735589 221.016144,7.935812 
	C148.814407,7.935812 76.612679,7.935812 3.949808,7.935812 
	C3.949808,81.125694 3.949808,153.535233 3.479950,226.625397 
	C3.423697,227.287247 3.318249,227.949097 3.318173,228.610947 
	C3.310046,299.206635 3.307001,369.802338 3.331033,440.398041 
	C3.331477,441.700043 3.659505,443.001923 3.860806,445.202606 
	C3.890111,517.782898 3.919416,590.363220 3.478002,663.623901 
	C3.420760,665.118103 3.313622,666.612244 3.313444,668.106445 
	C3.305199,737.363953 3.360762,806.621582 3.193075,875.878723 
	C3.180904,880.905518 4.852808,881.799622 9.446916,881.790405 
	C78.537659,881.650940 147.628769,881.698608 216.719772,881.666992 
	C218.498062,881.666199 220.276138,881.266174 222.983521,881.063660 
z"/>
<path fill="#F5C79C" opacity="1.000000" stroke="none" 
	d="
M440.305206,7.835487 
	C487.242096,7.868920 534.179016,7.908506 581.115906,7.933336 
	C606.748535,7.946896 632.381165,7.935471 658.498047,8.414694 
	C658.978882,81.271744 658.975403,153.649414 658.987183,226.012207 
	C659.002380,225.997345 659.032227,225.967789 658.561035,225.979523 
	C585.841064,225.991257 513.592224,225.991257 440.844757,225.991257 
	C440.844757,228.858398 440.844757,230.988602 440.844757,233.118805 
	C440.844757,301.268402 440.847626,369.417969 440.831329,437.567566 
	C440.830811,439.723480 440.632477,441.879364 440.451477,444.103577 
	C440.376587,444.171875 440.163818,444.489868 439.697083,444.595795 
	C437.068176,444.749359 434.906067,444.838348 432.743927,444.838593 
	C364.821442,444.845917 296.898956,444.844604 228.976471,444.844604 
	C226.862473,444.844604 224.748474,444.844604 221.967346,444.844604 
	C221.967346,517.974548 221.967346,590.503174 221.982727,663.017334 
	C221.998093,663.002869 222.027100,662.971924 221.556824,662.980713 
	C148.707260,662.974182 76.327995,662.958862 3.948721,662.943542 
	C3.919416,590.363220 3.890111,517.782898 4.327685,444.705200 
	C77.042206,444.207794 149.289856,444.207794 222.032059,444.207794 
	C222.032059,370.893219 222.032059,298.430573 222.017090,225.983002 
	C222.002136,225.998062 221.972366,226.028549 222.442657,226.018951 
	C295.174408,226.009354 367.435852,226.009354 440.156128,226.009354 
	C440.156128,223.266037 440.156158,221.296448 440.156158,219.326874 
	C440.156158,163.994308 440.145691,108.661758 440.162964,53.329201 
	C440.167694,38.164616 440.255524,23.000057 440.305206,7.835487 
z"/>
<path fill="#BE814D" opacity="1.000000" stroke="none" 
	d="
M658.971924,226.027084 
	C658.975403,153.649414 658.978882,81.271744 658.963135,8.421764 
	C660.722229,7.735512 662.500366,7.335306 664.278687,7.334492 
	C733.369324,7.302836 802.460022,7.350442 871.550415,7.211041 
	C876.142639,7.201776 877.817993,8.091517 877.805786,13.120649 
	C877.637939,82.377380 877.693481,151.634644 877.685303,220.891785 
	C877.685120,222.386047 877.578918,223.880325 876.814697,225.695984 
	C803.728821,226.020630 731.350342,226.023849 658.971924,226.027084 
z"/>
<path fill="#BE804C" opacity="1.000000" stroke="none" 
	d="
M439.913361,7.654004 
	C440.255524,23.000057 440.167694,38.164616 440.162964,53.329201 
	C440.145691,108.661758 440.156158,163.994308 440.156158,219.326874 
	C440.156158,221.296448 440.156128,223.266037 440.156128,226.009354 
	C367.435852,226.009354 295.174408,226.009354 222.452545,225.547729 
	C221.976517,152.706970 221.960876,80.327843 221.945251,7.948716 
	C223.224182,7.735589 224.503036,7.336485 225.782059,7.335960 
	C296.366089,7.307011 366.950104,7.310991 437.534149,7.319097 
	C438.196594,7.319173 438.859070,7.419173 439.913361,7.654004 
z"/>
<path fill="#BE804C" opacity="1.000000" stroke="none" 
	d="
M659.054565,881.051392 
	C657.775757,881.264465 656.497009,881.663452 655.218140,881.663940 
	C584.642273,881.693176 514.066406,881.689209 443.490509,881.682129 
	C442.827393,881.682068 442.164276,881.593872 441.149231,880.893311 
	C440.812622,808.804688 440.828827,737.369690 440.834869,665.934631 
	C440.834961,664.938965 440.707367,663.943298 441.149353,662.965942 
	C514.116943,663.000122 586.574463,663.016113 659.015991,663.015991 
	C658.999878,662.999878 658.967773,662.967773 658.979797,663.438843 
	C659.012695,736.290466 659.033630,808.670959 659.054565,881.051392 
z"/>
<path fill="#BE804C" opacity="1.000000" stroke="none" 
	d="
M877.208740,444.713379 
	C877.369385,446.019318 877.670166,447.325226 877.670593,448.631195 
	C877.692444,519.216919 877.689697,589.802612 877.681580,660.388306 
	C877.681458,661.050110 877.576782,661.711914 876.813721,662.695068 
	C803.726990,663.000183 731.347351,662.983948 658.967773,662.967773 
	C658.967773,662.967773 658.999878,662.999878 659.004456,662.544800 
	C658.994080,589.604004 658.979126,517.118225 659.430176,444.695374 
	C711.519043,444.786804 763.141968,444.830780 814.764832,444.836365 
	C835.579468,444.838623 856.394104,444.756897 877.208740,444.713379 
z"/>
<path fill="#F5C79C" opacity="1.000000" stroke="none" 
	d="
M877.182129,444.268250 
	C856.394104,444.756897 835.579468,444.838623 814.764832,444.836365 
	C763.141968,444.830780 711.519043,444.786804 659.461426,444.628113 
	C659.026672,444.497925 659.057800,444.343781 659.037598,443.840088 
	C659.022339,370.880188 659.027283,298.423981 659.032227,225.967789 
	C659.032227,225.967789 659.002380,225.997345 658.987183,226.012207 
	C731.350342,226.023849 803.728821,226.020630 876.579651,226.036407 
	C877.056152,296.481232 877.059326,366.907074 877.068054,437.332886 
	C877.068359,439.496307 877.125122,441.659729 877.182129,444.268250 
z"/>
<path fill="#F5C79C" opacity="1.000000" stroke="none" 
	d="
M221.480698,7.942265 
	C221.960876,80.327843 221.976517,152.706970 221.982269,225.557312 
	C221.972366,226.028549 222.002136,225.998062 221.545959,225.994202 
	C148.709778,225.975159 76.329796,225.959976 3.949808,225.944778 
	C3.949808,153.535233 3.949808,81.125694 3.949808,7.935812 
	C76.612679,7.935812 148.814407,7.935812 221.480698,7.942265 
z"/>
<path fill="#F5C79C" opacity="1.000000" stroke="none" 
	d="
M658.979797,663.438843 
	C731.347351,662.983948 803.726990,663.000183 876.578979,663.035522 
	C877.051331,735.464417 877.051331,807.874207 877.051331,881.064148 
	C804.387268,881.064148 732.185364,881.064148 659.519043,881.057800 
	C659.033630,808.670959 659.012695,736.290466 658.979797,663.438843 
z"/>
<path fill="#BE814D" opacity="1.000000" stroke="none" 
	d="
M3.713361,663.283691 
	C76.327995,662.958862 148.707260,662.974182 221.547119,663.451904 
	C222.023254,736.293640 222.038788,808.672974 222.054321,881.052368 
	C220.276138,881.266174 218.498062,881.666199 216.719772,881.666992 
	C147.628769,881.698608 78.537659,881.650940 9.446916,881.790405 
	C4.852808,881.799622 3.180904,880.905518 3.193075,875.878723 
	C3.360762,806.621582 3.305199,737.363953 3.313444,668.106445 
	C3.313622,666.612244 3.420760,665.118103 3.713361,663.283691 
M131.500000,859.921814 
	C141.995651,859.921814 152.492020,859.998291 162.986786,859.901245 
	C174.416214,859.795532 175.608246,862.740723 174.880432,847.137573 
	C174.257141,833.775269 169.295944,827.724426 156.452240,823.808594 
	C155.068085,823.386719 153.724869,822.830688 152.566971,822.410950 
	C152.798553,809.588745 154.914581,797.419678 161.441940,786.693604 
	C168.930145,774.388550 177.200134,762.555481 185.253082,750.599915 
	C187.858765,746.731506 187.801849,744.627686 183.341476,743.776917 
	C179.182922,742.983704 174.398315,743.217224 170.368240,744.501587 
	C163.198578,746.786499 162.774002,747.012939 160.844757,739.775879 
	C159.691528,735.449768 157.833954,732.036682 152.646210,731.793518 
	C151.682358,731.748291 150.369705,730.959473 149.884933,730.125916 
	C144.028122,720.056335 135.354004,713.585266 124.244461,710.159729 
	C130.799408,701.165161 130.914490,693.222534 124.799171,687.502563 
	C118.430756,681.545837 107.804642,681.226929 100.955284,686.786865 
	C94.352455,692.146667 94.135124,700.177673 100.520027,710.113159 
	C89.399979,713.264954 81.378586,720.361267 75.182457,729.784180 
	C74.668030,730.566528 73.848244,731.620300 73.087547,731.694031 
	C66.808990,732.302917 64.787895,736.672546 64.120026,741.939941 
	C63.560406,746.353577 61.379967,746.546265 57.874821,745.304688 
	C54.609840,744.148254 51.202080,742.625732 47.869881,742.656128 
	C44.858963,742.683716 41.865246,744.593201 38.863945,745.672791 
	C39.733028,747.991455 40.194996,750.585632 41.544090,752.579529 
	C46.481190,759.876404 51.917904,766.837769 56.790329,774.175293 
	C65.645035,787.509827 71.750412,801.910461 72.937271,818.123108 
	C73.198906,821.697021 72.327759,823.371338 68.435432,824.165283 
	C59.384769,826.011414 53.193573,831.388672 51.435806,840.815918 
	C50.738743,844.554382 50.305958,848.421387 50.406319,852.212585 
	C50.607723,859.820923 50.897072,859.919678 58.529995,859.920654 
	C82.519997,859.923706 106.510002,859.921753 131.500000,859.921814 
z"/>
<path fill="#F4C79C" opacity="1.000000" stroke="none" 
	d="
M222.518921,881.057983 
	C222.038788,808.672974 222.023254,736.293640 222.017410,663.443115 
	C222.027100,662.971924 221.998093,663.002869 222.453918,663.005188 
	C295.386200,663.024353 367.862640,663.041260 440.414062,663.030273 
	C440.489044,663.002380 440.639374,662.947632 440.639374,662.947632 
	C440.707367,663.943298 440.834961,664.938965 440.834869,665.934631 
	C440.828827,737.369690 440.812622,808.804688 440.757751,880.724487 
	C432.396362,881.160522 424.074524,881.071045 415.752686,881.069580 
	C351.496307,881.057983 287.239899,881.063477 222.518921,881.057983 
M347.292786,693.641418 
	C344.552643,686.389709 339.077911,683.071228 331.554138,682.847351 
	C324.681152,682.642822 319.044861,685.307922 315.789398,691.378540 
	C312.230652,698.014771 314.022247,704.199097 319.457642,709.867859 
	C308.275879,713.557556 299.732727,720.017273 293.925964,729.908752 
	C293.419342,730.771790 292.210602,731.627014 291.238129,731.744995 
	C286.000092,732.380249 284.095306,735.975403 282.978638,740.447510 
	C281.321625,747.083435 281.360901,746.771973 274.570892,744.741455 
	C270.431488,743.503540 265.781311,742.454651 261.643372,743.109192 
	C256.280975,743.957397 255.796738,746.854980 259.031677,751.303284 
	C264.307648,758.558105 269.704163,765.736572 274.695465,773.184753 
	C284.660645,788.055115 291.716553,803.966553 291.097015,822.701294 
	C289.206543,823.293457 287.364410,823.988953 285.464813,824.445129 
	C276.669952,826.557312 271.958771,832.595276 270.085602,840.965332 
	C269.223236,844.818787 269.091156,848.884216 269.036835,852.859131 
	C268.948151,859.347839 269.599854,859.863647 276.241119,859.865601 
	C304.904846,859.874084 333.568542,859.869263 362.232269,859.869202 
	C370.731384,859.869202 379.232605,859.759155 387.728699,859.918884 
	C391.499023,859.989807 393.441956,858.484375 393.395599,854.747559 
	C393.350403,851.101379 393.314941,847.431946 392.889801,843.818054 
	C391.605713,832.902222 386.559662,827.131348 376.024445,824.160278 
	C374.450867,823.716431 372.880737,823.260498 371.044128,822.734314 
	C371.370209,810.975403 372.912994,799.486938 378.793274,789.442261 
	C386.399384,776.449524 394.996918,764.030396 403.345123,751.482361 
	C406.713165,746.419861 406.214294,744.271362 400.340759,742.807739 
	C398.470581,742.341675 396.351776,742.257568 394.465942,742.619751 
	C391.880005,743.116333 389.375214,744.118713 386.893585,745.057556 
	C381.746246,747.004822 381.361603,746.596497 379.716949,741.507507 
	C378.741943,738.490601 377.150513,733.968445 374.959106,733.377869 
	C369.062714,731.788818 367.278687,726.560242 363.424500,723.294250 
	C357.235413,718.049683 350.487976,713.464111 343.906921,708.548096 
	C347.140625,705.155029 349.026581,700.224060 347.292786,693.641418 
z"/>
<path fill="#BE804D" opacity="1.000000" stroke="none" 
	d="
M3.714879,226.285095 
	C76.329796,225.959976 148.709778,225.975159 221.560913,225.979141 
	C222.032059,298.430573 222.032059,370.893219 222.032059,444.207794 
	C149.289856,444.207794 77.042206,444.207794 4.314626,444.255829 
	C3.659505,443.001923 3.331477,441.700043 3.331033,440.398041 
	C3.307001,369.802338 3.310046,299.206635 3.318173,228.610947 
	C3.318249,227.949097 3.423697,227.287247 3.714879,226.285095 
M97.890617,335.539337 
	C101.760147,334.224884 105.629677,332.910431 109.499207,331.596008 
	C109.856522,331.933929 110.213829,332.271851 110.571136,332.609802 
	C107.739235,336.078613 105.329018,340.041962 101.976715,342.900452 
	C96.936287,347.198425 91.241020,350.729584 85.815529,354.574554 
	C76.710175,361.027374 69.013405,368.657410 64.961998,379.364258 
	C62.972404,384.622284 62.116905,390.587799 56.169762,393.401733 
	C55.653427,393.646027 55.222336,394.391937 55.049404,394.990814 
	C53.329563,400.946472 50.723656,406.840302 50.212345,412.907013 
	C49.373833,422.856232 49.952370,422.905640 59.771622,422.905792 
	C85.918999,422.906158 112.066383,422.905975 138.213760,422.905914 
	C148.539474,422.905884 158.869431,423.056885 169.187042,422.767517 
	C171.070160,422.714661 174.413940,421.003296 174.520981,419.824799 
	C175.415848,409.973145 175.421356,400.197235 167.801178,392.266876 
	C166.565170,390.980530 165.638321,388.582947 165.851135,386.857178 
	C166.865753,378.629547 168.403381,370.468323 169.605652,362.261566 
	C171.808640,347.224091 172.411301,332.025574 169.379944,317.170349 
	C165.078506,296.091064 151.242188,281.950226 132.832809,272.013794 
	C125.182365,267.884491 117.107735,264.548798 109.337265,260.631531 
	C103.764999,257.822357 98.598862,254.104980 92.856865,251.758621 
	C83.754166,248.038940 80.358978,251.145340 82.096077,260.822021 
	C82.154091,261.145233 82.267654,261.463226 82.390961,261.769257 
	C83.808311,265.287140 82.809395,267.904144 80.113243,270.625458 
	C66.663483,284.200714 53.324749,297.889526 40.153816,311.735168 
	C36.631756,315.437653 33.789124,319.796600 30.725407,323.921631 
	C28.438093,327.001343 28.679115,330.338837 30.954782,333.145203 
	C35.122242,338.284637 38.839245,344.312561 44.145805,347.891815 
	C53.980961,354.525604 59.121048,355.257935 66.512978,347.372620 
	C70.331902,343.298828 76.583260,341.179443 82.086273,339.109131 
	C86.838455,337.321350 92.086716,336.852142 97.890617,335.539337 
z"/>
<path fill="#BE804C" opacity="1.000000" stroke="none" 
	d="
M440.339081,663.058105 
	C367.862640,663.041260 295.386200,663.024353 222.438538,663.019653 
	C221.967346,590.503174 221.967346,517.974548 221.967346,444.844604 
	C224.748474,444.844604 226.862473,444.844604 228.976471,444.844604 
	C296.898956,444.844604 364.821442,444.845917 432.743927,444.838593 
	C434.906067,444.838348 437.068176,444.749359 439.691223,445.118774 
	C440.152466,515.884888 440.151154,586.234009 440.160950,656.583069 
	C440.161255,658.741394 440.277100,660.899780 440.339081,663.058105 
z"/>
<path fill="#F4C79C" opacity="1.000000" stroke="none" 
	d="
M440.414062,663.030273 
	C440.277100,660.899780 440.161255,658.741394 440.160950,656.583069 
	C440.151154,586.234009 440.152466,515.884888 440.157990,445.012848 
	C440.163818,444.489868 440.376587,444.171875 440.965515,444.147827 
	C511.897583,444.133514 582.240784,444.141541 652.583923,444.160950 
	C654.741882,444.161560 656.899841,444.280212 659.057800,444.343781 
	C659.057800,444.343781 659.026672,444.497925 658.995422,444.565186 
	C658.979126,517.118225 658.994080,589.604004 659.020508,662.560913 
	C586.574463,663.016113 514.116943,663.000122 441.149353,662.965942 
	C440.639374,662.947632 440.489044,663.002380 440.414062,663.030273 
M504.607758,606.086975 
	C494.437286,613.479004 490.540710,623.642456 490.884186,635.966370 
	C490.996368,639.991699 492.523804,641.200134 496.220520,641.194946 
	C532.025818,641.144836 567.831299,641.127502 603.636353,641.220825 
	C607.410278,641.230652 608.527161,639.597229 608.653320,636.146851 
	C609.205566,621.033081 602.796631,609.856384 589.669128,602.606812 
	C576.024963,595.071838 570.694641,582.152100 566.107422,567.860596 
	C570.943115,567.860596 575.110413,568.109253 579.222046,567.739258 
	C580.884521,567.589661 583.571167,566.334290 583.822632,565.160278 
	C584.895691,560.152222 586.380981,554.747192 585.386475,549.972229 
	C584.832825,547.313965 579.708557,545.599243 576.630920,543.478577 
	C575.135864,542.448425 573.610352,541.462585 572.104553,540.447876 
	C581.286987,522.025879 580.082642,508.739685 568.355957,499.094391 
	C558.052124,490.619385 542.370789,490.055939 531.543274,499.123505 
	C527.145386,502.806580 523.782227,508.709167 521.958984,514.262024 
	C518.897400,523.586243 522.238098,532.441711 528.049133,541.098633 
	C516.418823,544.275330 510.841339,550.811401 515.035217,562.722290 
	C515.088989,562.874878 515.071228,563.052246 515.089661,563.217773 
	C515.434509,566.317627 516.922485,568.005249 520.286804,567.893372 
	C524.417786,567.755920 528.556763,567.860535 532.599304,567.860535 
	C532.761169,568.607788 532.943848,568.953613 532.879639,569.245056 
	C532.665710,570.215637 532.375061,571.170227 532.093079,572.124756 
	C527.705261,586.978943 519.257568,598.582092 504.607758,606.086975 
z"/>
<path fill="#BE804C" opacity="1.000000" stroke="none" 
	d="
M659.037598,443.840088 
	C656.899841,444.280212 654.741882,444.161560 652.583923,444.160950 
	C582.240784,444.141541 511.897583,444.133514 441.040375,444.079529 
	C440.632477,441.879364 440.830811,439.723480 440.831329,437.567566 
	C440.847626,369.417969 440.844757,301.268402 440.844757,233.118805 
	C440.844757,230.988602 440.844757,228.858398 440.844757,225.991257 
	C513.592224,225.991257 585.841064,225.991257 658.561035,225.979523 
	C659.027283,298.423981 659.022339,370.880188 659.037598,443.840088 
M515.998352,262.574677 
	C515.998352,268.181000 515.998352,273.787323 515.998352,280.031128 
	C522.705078,280.031128 528.771423,280.031128 534.682617,280.031128 
	C535.497620,283.318146 535.426331,284.950195 532.163086,286.411804 
	C529.816895,287.462677 527.501221,290.852386 527.128113,293.476898 
	C526.635498,296.942261 525.492371,297.649841 522.333801,298.126923 
	C510.630646,299.894531 499.192535,302.716431 488.817078,308.756165 
	C480.737427,313.459473 477.891235,318.287048 481.080872,326.961212 
	C486.394409,341.411346 492.873047,355.442780 499.127686,369.532196 
	C501.586090,375.070099 504.761536,380.289703 507.763458,385.942474 
	C505.742828,386.764984 504.433105,387.454712 503.039185,387.839539 
	C495.242706,389.992157 490.356476,394.996826 488.806580,402.884735 
	C487.980804,407.087555 487.367859,411.455688 487.562531,415.707855 
	C487.892303,422.911255 488.193298,422.903015 495.559692,422.904266 
	C514.556213,422.907532 533.552795,422.905365 552.549316,422.905334 
	C570.212769,422.905304 587.876282,422.896149 605.539734,422.914764 
	C608.286316,422.917664 611.448975,423.069092 611.734985,419.491089 
	C612.761475,406.649750 611.408630,391.238983 594.774902,387.150055 
	C593.865906,386.926575 593.036987,386.377045 591.715637,385.770294 
	C593.926453,381.577393 596.141052,377.716431 598.043579,373.707367 
	C604.379761,360.355316 611.307251,347.225281 616.680481,333.490753 
	C622.478516,318.670624 619.314941,312.518768 604.998962,305.737061 
	C604.251465,305.382965 603.466675,305.082886 602.670654,304.859833 
	C592.954956,302.137878 583.233948,299.435028 573.320618,296.673248 
	C572.348877,289.927704 571.296753,287.386658 567.279907,286.293854 
	C563.106812,285.158569 563.701660,282.975616 564.812317,279.683441 
	C570.861267,279.683441 576.795105,279.683441 582.865234,279.683441 
	C582.865234,271.299103 582.865234,263.407288 582.865234,254.877930 
	C575.804321,254.877930 569.076172,254.877930 561.869690,254.877930 
	C561.869690,248.990509 561.869690,243.733490 561.869690,238.356201 
	C553.476257,238.356201 545.593079,238.356201 537.145325,238.356201 
	C537.145325,243.944305 537.145325,249.194412 537.145325,255.060333 
	C529.868774,255.060333 523.140381,255.060333 515.998352,255.060333 
	C515.998352,257.658875 515.998352,259.628998 515.998352,262.574677 
z"/>
<path fill="#404040" opacity="1.000000" stroke="none" 
	d="
M131.000000,859.921753 
	C106.510002,859.921753 82.519997,859.923706 58.529995,859.920654 
	C50.897072,859.919678 50.607723,859.820923 50.406319,852.212585 
	C50.305958,848.421387 50.738743,844.554382 51.435806,840.815918 
	C53.193573,831.388672 59.384769,826.011414 68.435432,824.165283 
	C72.327759,823.371338 73.198906,821.697021 72.937271,818.123108 
	C71.750412,801.910461 65.645035,787.509827 56.790329,774.175293 
	C51.917904,766.837769 46.481190,759.876404 41.544090,752.579529 
	C40.194996,750.585632 39.733028,747.991455 38.863945,745.672791 
	C41.865246,744.593201 44.858963,742.683716 47.869881,742.656128 
	C51.202080,742.625732 54.609840,744.148254 57.874821,745.304688 
	C61.379967,746.546265 63.560406,746.353577 64.120026,741.939941 
	C64.787895,736.672546 66.808990,732.302917 73.087547,731.694031 
	C73.848244,731.620300 74.668030,730.566528 75.182457,729.784180 
	C81.378586,720.361267 89.399979,713.264954 100.520027,710.113159 
	C94.135124,700.177673 94.352455,692.146667 100.955284,686.786865 
	C107.804642,681.226929 118.430756,681.545837 124.799171,687.502563 
	C130.914490,693.222534 130.799408,701.165161 124.244461,710.159729 
	C135.354004,713.585266 144.028122,720.056335 149.884933,730.125916 
	C150.369705,730.959473 151.682358,731.748291 152.646210,731.793518 
	C157.833954,732.036682 159.691528,735.449768 160.844757,739.775879 
	C162.774002,747.012939 163.198578,746.786499 170.368240,744.501587 
	C174.398315,743.217224 179.182922,742.983704 183.341476,743.776917 
	C187.801849,744.627686 187.858765,746.731506 185.253082,750.599915 
	C177.200134,762.555481 168.930145,774.388550 161.441940,786.693604 
	C154.914581,797.419678 152.798553,809.588745 152.566971,822.410950 
	C153.724869,822.830688 155.068085,823.386719 156.452240,823.808594 
	C169.295944,827.724426 174.257141,833.775269 174.880432,847.137573 
	C175.608246,862.740723 174.416214,859.795532 162.986786,859.901245 
	C152.492020,859.998291 141.995651,859.921814 131.000000,859.921753 
M118.373695,689.651489 
	C109.709023,685.400635 100.256378,690.364319 100.800667,698.879211 
	C101.280861,706.391357 109.935898,710.419250 118.669159,706.895325 
	C126.092239,701.223267 126.210121,694.359009 118.373695,689.651489 
M132.688065,739.067688 
	C136.845398,737.146545 141.002731,735.225403 145.409409,733.189026 
	C141.352707,726.470520 137.179993,721.091675 129.726562,718.175842 
	C115.341034,709.439514 89.367996,713.318970 80.484695,732.717773 
	C82.001663,733.743530 83.475891,734.810425 85.016693,735.770569 
	C93.318039,740.943481 94.899643,740.551880 101.783707,733.348022 
	C104.114510,730.908875 107.039268,728.449829 110.154015,727.476379 
	C115.710632,725.739929 119.881729,728.797485 123.519310,733.028870 
	C125.726677,735.596619 127.227150,739.723694 132.688065,739.067688 
M59.473595,835.490601 
	C55.676540,841.213623 55.726036,847.565735 55.971687,854.030273 
	C94.128853,854.030273 131.814072,854.030273 169.457336,854.030273 
	C170.243011,845.739258 168.668365,838.973022 164.919205,834.259399 
	C161.334366,832.421692 157.928925,829.704346 154.127426,828.929016 
	C146.172775,827.306885 138.033997,826.402588 129.926865,825.749634 
	C109.948761,824.140442 90.016724,824.680054 70.416267,829.186035 
	C66.702477,830.039795 63.474525,833.006714 59.473595,835.490601 
M74.864395,798.827881 
	C76.196388,806.422791 77.528374,814.017761 78.782059,821.166199 
	C93.786507,820.701843 108.864746,820.235168 124.857300,819.956360 
	C132.104675,820.548889 139.352066,821.141418 147.255844,821.787598 
	C147.148895,792.481140 163.891861,770.507690 180.203140,748.340942 
	C179.920532,747.997192 179.637924,747.653442 179.355316,747.309692 
	C176.946426,748.073730 174.537521,748.837708 171.377213,749.850037 
	C160.692276,752.982117 158.545761,751.808716 155.821259,741.346558 
	C154.738464,737.188599 151.924438,735.690674 147.968903,737.534607 
	C144.826233,738.999573 141.927765,740.978699 138.847839,742.589966 
	C132.243118,746.045227 127.023628,745.003540 122.037666,739.396240 
	C120.604668,737.784607 119.179764,736.151978 117.611801,734.677063 
	C113.997360,731.277222 111.264366,731.241394 107.671173,734.629211 
	C106.236740,735.981506 105.136688,737.681885 103.817596,739.164368 
	C98.664711,744.955505 93.417145,745.993958 86.512489,742.498962 
	C84.014076,741.234375 81.677177,739.652954 79.190742,738.362122 
	C73.148575,735.225586 70.764313,736.299988 69.245499,742.719727 
	C67.312820,750.888794 64.455803,752.586975 55.598103,750.081421 
	C52.321793,749.115479 49.045483,748.149536 45.769176,747.183594 
	C45.579609,747.641541 45.390045,748.099548 45.200478,748.557495 
	C56.629135,764.140137 67.566902,780.013916 74.864395,798.827881 
z"/>
<path fill="#424241" opacity="1.000000" stroke="none" 
	d="
M347.488464,693.997253 
	C349.026581,700.224060 347.140625,705.155029 343.906921,708.548096 
	C350.487976,713.464111 357.235413,718.049683 363.424500,723.294250 
	C367.278687,726.560242 369.062714,731.788818 374.959106,733.377869 
	C377.150513,733.968445 378.741943,738.490601 379.716949,741.507507 
	C381.361603,746.596497 381.746246,747.004822 386.893585,745.057556 
	C389.375214,744.118713 391.880005,743.116333 394.465942,742.619751 
	C396.351776,742.257568 398.470581,742.341675 400.340759,742.807739 
	C406.214294,744.271362 406.713165,746.419861 403.345123,751.482361 
	C394.996918,764.030396 386.399384,776.449524 378.793274,789.442261 
	C372.912994,799.486938 371.370209,810.975403 371.044128,822.734314 
	C372.880737,823.260498 374.450867,823.716431 376.024445,824.160278 
	C386.559662,827.131348 391.605713,832.902222 392.889801,843.818054 
	C393.314941,847.431946 393.350403,851.101379 393.395599,854.747559 
	C393.441956,858.484375 391.499023,859.989807 387.728699,859.918884 
	C379.232605,859.759155 370.731384,859.869202 362.232269,859.869202 
	C333.568542,859.869263 304.904846,859.874084 276.241119,859.865601 
	C269.599854,859.863647 268.948151,859.347839 269.036835,852.859131 
	C269.091156,848.884216 269.223236,844.818787 270.085602,840.965332 
	C271.958771,832.595276 276.669952,826.557312 285.464813,824.445129 
	C287.364410,823.988953 289.206543,823.293457 291.097015,822.701294 
	C291.716553,803.966553 284.660645,788.055115 274.695465,773.184753 
	C269.704163,765.736572 264.307648,758.558105 259.031677,751.303284 
	C255.796738,746.854980 256.280975,743.957397 261.643372,743.109192 
	C265.781311,742.454651 270.431488,743.503540 274.570892,744.741455 
	C281.360901,746.771973 281.321625,747.083435 282.978638,740.447510 
	C284.095306,735.975403 286.000092,732.380249 291.238129,731.744995 
	C292.210602,731.627014 293.419342,730.771790 293.925964,729.908752 
	C299.732727,720.017273 308.275879,713.557556 319.457642,709.867859 
	C314.022247,704.199097 312.230652,698.014771 315.789398,691.378540 
	C319.044861,685.307922 324.681152,682.642822 331.554138,682.847351 
	C339.077911,683.071228 344.552643,686.389709 347.488464,693.997253 
M337.751007,690.118042 
	C335.428925,689.413818 333.134766,688.243713 330.778900,688.102295 
	C325.859497,687.807129 322.089050,690.184326 319.979279,694.623352 
	C318.233734,698.296082 319.159332,701.767212 321.926056,704.668762 
	C325.745178,708.674072 330.755554,709.303955 337.601349,706.626953 
	C344.423981,701.530090 344.653290,694.789001 337.751007,690.118042 
M389.941437,749.877319 
	C389.941437,749.877319 389.879425,749.813171 389.140015,749.991455 
	C381.239105,752.935303 377.083282,751.505005 375.118683,745.165588 
	C371.961182,734.976990 370.916138,734.578186 361.698059,740.089539 
	C360.701996,740.684998 359.780365,741.405457 358.781403,741.995483 
	C351.804901,746.116272 345.691833,745.277527 340.511047,739.511963 
	C331.271515,729.229553 331.127808,729.230896 321.571594,739.689392 
	C316.540985,745.194946 310.590302,746.027161 304.143616,742.190918 
	C301.457825,740.592651 298.811951,738.864197 295.962769,737.618286 
	C291.391663,735.619385 289.262787,736.818848 287.974365,741.642761 
	C285.158905,752.183960 282.247528,753.558105 271.955963,749.243774 
	C271.367584,748.997131 270.680756,748.985229 269.463654,748.513855 
	C267.679474,748.191467 265.895325,747.869080 263.545319,747.444397 
	C271.696777,759.963562 279.295227,771.633484 286.996033,783.995239 
	C293.483673,795.668030 296.099854,808.400391 296.799744,821.173401 
	C312.155884,820.703308 327.050659,820.247314 342.851715,819.958374 
	C350.397430,820.548157 357.943146,821.137939 365.910187,821.760620 
	C365.595825,792.229004 382.531158,770.574280 397.881561,747.524780 
	C395.919373,748.019348 393.957184,748.513977 391.373871,748.947754 
	C390.876984,749.280090 390.380127,749.612488 389.941437,749.877319 
M347.297028,717.852417 
	C332.854279,709.057434 306.203522,714.757446 298.980957,732.919312 
	C301.046936,734.229370 303.096619,735.598694 305.212067,736.857422 
	C311.624115,740.672913 314.507019,740.188599 319.421844,734.552429 
	C328.464081,724.183105 334.477203,724.338562 343.687195,734.830017 
	C345.283661,736.648621 347.862976,737.604492 350.765289,739.097778 
	C355.069824,737.200500 359.374390,735.303223 364.049683,733.242554 
	C359.844727,726.117859 354.993958,720.984192 347.297028,717.852417 
M277.228058,836.439758 
	C274.557220,842.094177 273.760956,848.007202 274.442596,854.221069 
	C312.451080,854.221069 350.118866,854.221069 388.058289,854.221069 
	C388.209290,847.283691 388.459137,840.694946 383.887451,834.339783 
	C380.893585,832.657104 378.073669,830.094177 374.872284,829.461609 
	C366.248810,827.757690 357.495514,826.487549 348.734436,825.748230 
	C328.751404,824.062073 308.834015,824.874207 289.150909,828.965454 
	C284.633057,829.904480 280.019501,831.177185 277.228058,836.439758 
z"/>
<path fill="#3D3C3C" opacity="1.000000" stroke="none" 
	d="
M97.503143,335.669678 
	C92.086716,336.852142 86.838455,337.321350 82.086273,339.109131 
	C76.583260,341.179443 70.331902,343.298828 66.512978,347.372620 
	C59.121048,355.257935 53.980961,354.525604 44.145805,347.891815 
	C38.839245,344.312561 35.122242,338.284637 30.954782,333.145203 
	C28.679115,330.338837 28.438093,327.001343 30.725407,323.921631 
	C33.789124,319.796600 36.631756,315.437653 40.153816,311.735168 
	C53.324749,297.889526 66.663483,284.200714 80.113243,270.625458 
	C82.809395,267.904144 83.808311,265.287140 82.390961,261.769257 
	C82.267654,261.463226 82.154091,261.145233 82.096077,260.822021 
	C80.358978,251.145340 83.754166,248.038940 92.856865,251.758621 
	C98.598862,254.104980 103.764999,257.822357 109.337265,260.631531 
	C117.107735,264.548798 125.182365,267.884491 132.832809,272.013794 
	C151.242188,281.950226 165.078506,296.091064 169.379944,317.170349 
	C172.411301,332.025574 171.808640,347.224091 169.605652,362.261566 
	C168.403381,370.468323 166.865753,378.629547 165.851135,386.857178 
	C165.638321,388.582947 166.565170,390.980530 167.801178,392.266876 
	C175.421356,400.197235 175.415848,409.973145 174.520981,419.824799 
	C174.413940,421.003296 171.070160,422.714661 169.187042,422.767517 
	C158.869431,423.056885 148.539474,422.905884 138.213760,422.905914 
	C112.066383,422.905975 85.918999,422.906158 59.771622,422.905792 
	C49.952370,422.905640 49.373833,422.856232 50.212345,412.907013 
	C50.723656,406.840302 53.329563,400.946472 55.049404,394.990814 
	C55.222336,394.391937 55.653427,393.646027 56.169762,393.401733 
	C62.116905,390.587799 62.972404,384.622284 64.961998,379.364258 
	C69.013405,368.657410 76.710175,361.027374 85.815529,354.574554 
	C91.241020,350.729584 96.936287,347.198425 101.976715,342.900452 
	C105.329018,340.041962 107.739235,336.078613 110.571136,332.609802 
	C110.213829,332.271851 109.856522,331.933929 109.499207,331.596008 
	C105.629677,332.910431 101.760147,334.224884 97.503143,335.669678 
M69.460175,380.067657 
	C69.359810,380.367737 69.259445,380.667816 68.991096,381.738037 
	C68.624840,383.383850 68.258591,385.029663 68.030823,386.053192 
	C82.152534,384.950714 95.847351,383.299133 109.572159,382.993378 
	C120.676979,382.745911 131.817902,384.118622 143.797104,384.838257 
	C149.007797,385.825104 154.218491,386.811951 159.841125,387.876801 
	C161.182465,379.870270 162.525909,372.209625 163.739441,364.528442 
	C165.895996,350.878448 167.335602,337.238556 165.218491,323.381592 
	C161.931610,301.868347 149.389114,287.389801 131.074066,277.031311 
	C121.325401,271.517731 109.698921,269.553253 101.379097,261.322083 
	C101.120010,261.065765 100.433571,261.241394 99.297424,260.900208 
	C95.527466,259.327301 91.757507,257.754395 87.372620,256.204956 
	C87.565941,256.851044 87.759262,257.497131 87.989746,258.590698 
	C87.989746,258.590698 88.146576,259.011414 88.017227,259.914703 
	C87.567177,263.562653 88.424179,268.318024 86.436928,270.663605 
	C78.553963,279.967896 69.795586,288.532013 61.335110,297.345001 
	C54.016418,304.968628 46.537888,312.443024 39.360165,320.196472 
	C32.968052,327.101318 32.956184,328.802734 37.996864,334.737640 
	C41.986473,338.212646 45.976078,341.687653 50.360622,345.812805 
	C55.288582,347.832458 58.934498,346.896332 63.277405,343.122437 
	C67.987808,339.029205 74.172668,336.222748 80.155769,334.096985 
	C89.951241,330.616669 100.146599,328.279022 110.087448,325.183655 
	C115.147346,323.608154 115.648445,323.703674 115.769669,329.677399 
	C115.472939,331.099915 115.176208,332.522461 114.242355,334.293945 
	C113.468559,336.049377 112.914062,337.946869 111.884201,339.536377 
	C106.542038,347.781586 98.032967,352.361389 90.294151,357.790375 
	C81.860542,363.706787 73.344414,369.470612 69.962379,379.958405 
	C69.962379,379.958405 69.945503,379.876831 69.460175,380.067657 
M164.849808,397.310547 
	C162.530869,395.876801 160.379227,393.747406 157.861115,393.141785 
	C150.738937,391.428894 143.497025,389.433899 136.247208,389.190491 
	C120.077034,388.647583 103.860107,388.735962 87.689545,389.321381 
	C80.726700,389.573456 73.750038,391.380646 66.947189,393.132080 
	C64.340309,393.803253 62.200745,396.289459 59.199783,398.243195 
	C55.548611,404.110321 55.406536,410.626434 55.083000,417.023560 
	C93.637657,417.023560 131.584015,417.023560 169.873825,417.023560 
	C169.319260,410.079132 170.114792,403.338348 164.849808,397.310547 
z"/>
<path fill="#404040" opacity="1.000000" stroke="none" 
	d="
M504.904877,605.889404 
	C519.257568,598.582092 527.705261,586.978943 532.093079,572.124756 
	C532.375061,571.170227 532.665710,570.215637 532.879639,569.245056 
	C532.943848,568.953613 532.761169,568.607788 532.599304,567.860535 
	C528.556763,567.860535 524.417786,567.755920 520.286804,567.893372 
	C516.922485,568.005249 515.434509,566.317627 515.089661,563.217773 
	C515.071228,563.052246 515.088989,562.874878 515.035217,562.722290 
	C510.841339,550.811401 516.418823,544.275330 528.049133,541.098633 
	C522.238098,532.441711 518.897400,523.586243 521.958984,514.262024 
	C523.782227,508.709167 527.145386,502.806580 531.543274,499.123505 
	C542.370789,490.055939 558.052124,490.619385 568.355957,499.094391 
	C580.082642,508.739685 581.286987,522.025879 572.101624,540.452271 
	C573.610352,541.462585 575.135864,542.448425 576.630920,543.478577 
	C579.708557,545.599243 584.832825,547.313965 585.386475,549.972229 
	C586.380981,554.747192 584.895691,560.152222 583.822632,565.160278 
	C583.571167,566.334290 580.884521,567.589661 579.222046,567.739258 
	C575.110413,568.109253 570.943115,567.860596 566.107422,567.860596 
	C570.694641,582.152100 576.024963,595.071838 589.669128,602.606812 
	C602.796631,609.856384 609.205566,621.033081 608.653320,636.146851 
	C608.527161,639.597229 607.410278,641.230652 603.636353,641.220825 
	C567.831299,641.127502 532.025818,641.144836 496.220520,641.194946 
	C492.523804,641.200134 490.996368,639.991699 490.884186,635.966370 
	C490.540710,623.642456 494.437286,613.479004 504.904877,605.889404 
M519.080017,552.538879 
	C519.553894,555.766724 520.027832,558.994629 520.541016,562.490234 
	C529.579468,562.490234 538.363037,562.557556 547.145081,562.470215 
	C555.094055,562.391235 563.041321,562.143616 571.857971,562.265076 
	C574.134949,562.265076 576.411926,562.265076 578.570801,562.265076 
	C581.388611,549.207092 581.338562,552.688477 572.258667,546.960876 
	C570.723267,545.992371 569.212830,544.965759 567.601746,544.139893 
	C564.665894,542.635071 564.187256,540.757690 566.382141,538.224915 
	C567.251282,537.222046 568.028748,536.137695 568.820496,535.070068 
	C575.547546,525.999268 574.300537,512.017273 565.797729,504.210938 
	C556.309753,496.055206 543.185913,495.731201 533.960022,503.561127 
	C527.531311,509.017120 522.361328,521.697693 529.733398,533.406128 
	C531.526428,536.253845 533.045471,539.274048 534.111267,542.648865 
	C529.186401,545.709229 524.261597,548.769592 519.080017,552.538879 
M538.127441,570.235413 
	C537.591614,572.081604 537.055786,573.927734 536.094299,576.351318 
	C531.581543,589.792114 524.205872,600.846497 511.388428,607.949463 
	C501.757874,613.286377 496.174896,621.546204 496.016418,633.823608 
	C497.674316,634.545776 499.329803,635.891663 500.990387,635.897949 
	C533.588989,636.021912 566.188110,635.990112 598.787170,635.990112 
	C600.083496,635.990112 601.379822,635.990112 602.568298,635.990112 
	C605.214783,625.552368 598.479309,611.685730 584.987488,606.190125 
	C582.177185,603.912842 579.110901,601.884827 576.604614,599.311462 
	C569.124634,591.631409 565.030701,582.047852 561.776733,572.010559 
	C561.287903,570.502686 559.984253,568.150146 558.967896,568.102661 
	C552.503784,567.800049 546.013977,568.011230 539.534973,568.158264 
	C539.191895,568.166077 538.870422,569.128235 538.127441,570.235413 
z"/>
<path fill="#3D3C3C" opacity="1.000000" stroke="none" 
	d="
M515.998352,262.086914 
	C515.998352,259.628998 515.998352,257.658875 515.998352,255.060333 
	C523.140381,255.060333 529.868774,255.060333 537.145325,255.060333 
	C537.145325,249.194412 537.145325,243.944305 537.145325,238.356201 
	C545.593079,238.356201 553.476257,238.356201 561.869690,238.356201 
	C561.869690,243.733490 561.869690,248.990509 561.869690,254.877930 
	C569.076172,254.877930 575.804321,254.877930 582.865234,254.877930 
	C582.865234,263.407288 582.865234,271.299103 582.865234,279.683441 
	C576.795105,279.683441 570.861267,279.683441 564.812317,279.683441 
	C563.701660,282.975616 563.106812,285.158569 567.279907,286.293854 
	C571.296753,287.386658 572.348877,289.927704 573.320618,296.673248 
	C583.233948,299.435028 592.954956,302.137878 602.670654,304.859833 
	C603.466675,305.082886 604.251465,305.382965 604.998962,305.737061 
	C619.314941,312.518768 622.478516,318.670624 616.680481,333.490753 
	C611.307251,347.225281 604.379761,360.355316 598.043579,373.707367 
	C596.141052,377.716431 593.926453,381.577393 591.715637,385.770294 
	C593.036987,386.377045 593.865906,386.926575 594.774902,387.150055 
	C611.408630,391.238983 612.761475,406.649750 611.734985,419.491089 
	C611.448975,423.069092 608.286316,422.917664 605.539734,422.914764 
	C587.876282,422.896149 570.212769,422.905304 552.549316,422.905334 
	C533.552795,422.905365 514.556213,422.907532 495.559692,422.904266 
	C488.193298,422.903015 487.892303,422.911255 487.562531,415.707855 
	C487.367859,411.455688 487.980804,407.087555 488.806580,402.884735 
	C490.356476,394.996826 495.242706,389.992157 503.039185,387.839539 
	C504.433105,387.454712 505.742828,386.764984 507.763458,385.942474 
	C504.761536,380.289703 501.586090,375.070099 499.127686,369.532196 
	C492.873047,355.442780 486.394409,341.411346 481.080872,326.961212 
	C477.891235,318.287048 480.737427,313.459473 488.817078,308.756165 
	C499.192535,302.716431 510.630646,299.894531 522.333801,298.126923 
	C525.492371,297.649841 526.635498,296.942261 527.128113,293.476898 
	C527.501221,290.852386 529.816895,287.462677 532.163086,286.411804 
	C535.426331,284.950195 535.497620,283.318146 534.682617,280.031128 
	C528.771423,280.031128 522.705078,280.031128 515.998352,280.031128 
	C515.998352,273.787323 515.998352,268.181000 515.998352,262.086914 
M562.614014,296.217957 
	C564.287964,295.610565 565.961914,295.003143 567.635864,294.395721 
	C566.059692,293.210419 564.531006,291.950867 562.874573,290.891022 
	C562.451050,290.620056 561.623230,290.980774 560.059387,290.880920 
	C553.270203,290.852417 546.480957,290.815186 539.691772,290.801331 
	C537.884949,290.797668 535.879883,290.400299 534.337341,291.056732 
	C533.217041,291.533447 532.538025,293.390564 532.074341,294.770660 
	C531.984131,295.039154 533.797852,296.482758 534.725708,296.474976 
	C543.809021,296.399048 552.890747,296.130249 562.614014,296.217957 
M558.883301,276.027252 
	C560.298035,275.543732 561.699402,274.695587 563.129944,274.643250 
	C567.923950,274.467865 572.728271,274.576691 577.690491,274.576691 
	C577.690491,269.497498 577.690491,265.104340 577.690491,260.127655 
	C570.663269,260.127655 563.935547,260.127655 557.048767,260.127655 
	C556.899414,258.092194 556.724365,256.627899 556.694885,255.160706 
	C556.438232,242.400208 556.445740,242.396637 543.799866,243.241226 
	C543.526245,243.259491 543.275208,243.617218 542.666321,244.081360 
	C542.666321,249.092926 542.666321,254.366913 542.666321,260.138947 
	C535.435120,260.138947 528.540955,260.138947 521.398010,260.138947 
	C521.398010,265.183411 521.398010,269.717346 521.398010,274.728149 
	C527.762085,274.728149 533.832703,274.728149 540.092285,274.728149 
	C540.312683,278.726685 540.507690,282.265350 540.738159,286.446655 
	C545.938049,285.966309 550.493896,285.545471 555.890686,285.345886 
	C556.874146,284.465607 558.461792,283.726135 558.707031,282.673767 
	C559.131104,280.854614 558.722107,278.841248 558.883301,276.027252 
M601.927917,397.262238 
	C600.105225,395.957153 598.417847,393.800018 596.437805,393.485443 
	C583.721252,391.465210 570.948730,388.508698 558.179016,388.431396 
	C541.380432,388.329712 524.533569,390.282043 507.786865,392.087616 
	C504.028107,392.492889 500.598114,395.947845 496.466949,398.479980 
	C492.655609,404.205963 492.713043,410.567780 492.959412,417.030090 
	C531.123535,417.030090 568.828125,417.030090 606.909180,417.030090 
	C606.217163,410.112335 607.299927,403.299377 601.927917,397.262238 
M586.915405,383.072632 
	C591.695129,374.191284 596.932434,365.520020 601.132446,356.372498 
	C605.818420,346.166626 609.695251,335.578033 613.646912,325.051849 
	C615.130066,321.101196 613.889771,317.627197 610.225891,315.072235 
	C600.507690,308.295410 589.483521,305.526398 577.167175,303.969818 
	C564.775208,303.097107 552.383240,302.224396 539.365540,301.230560 
	C538.567200,301.464508 537.768799,301.698425 536.175476,301.815765 
	C535.115845,301.903229 534.056152,301.990662 532.141968,301.997345 
	C524.355286,303.392395 516.333496,304.040344 508.849213,306.396027 
	C501.597626,308.678436 494.730499,312.419525 488.072845,316.188263 
	C486.367249,317.153748 485.117371,320.755615 485.372314,322.946899 
	C485.813873,326.743011 487.593994,330.383392 488.799164,334.860077 
	C496.608337,350.763641 504.326172,366.713898 512.387756,382.488525 
	C513.086975,383.856750 516.154297,384.901154 517.953003,384.685974 
	C539.197998,382.144318 560.404907,382.082336 581.639404,384.753387 
	C583.133545,384.941376 584.776062,383.950562 586.915405,383.072632 
z"/>
<path fill="#EFEFEF" opacity="1.000000" stroke="none" 
	d="
M123.942993,819.768555 
	C108.864746,820.235168 93.786507,820.701843 78.782059,821.166199 
	C77.528374,814.017761 76.196388,806.422791 75.236496,798.367798 
	C75.859581,796.817749 76.566681,795.590088 76.286232,794.660339 
	C74.677040,789.325745 73.388092,783.788391 70.945900,778.834839 
	C66.773621,770.371948 61.803638,762.303772 57.239071,754.031067 
	C56.657024,752.976135 56.496754,751.688599 56.141106,750.508789 
	C64.455803,752.586975 67.312820,750.888794 69.245499,742.719727 
	C70.764313,736.299988 73.148575,735.225586 79.190742,738.362122 
	C81.677177,739.652954 84.014076,741.234375 86.512489,742.498962 
	C93.417145,745.993958 98.664711,744.955505 103.817596,739.164368 
	C105.136688,737.681885 106.236740,735.981506 107.671173,734.629211 
	C111.264366,731.241394 113.997360,731.277222 117.611801,734.677063 
	C119.179764,736.151978 120.604668,737.784607 122.037666,739.396240 
	C127.023628,745.003540 132.243118,746.045227 138.847839,742.589966 
	C141.927765,740.978699 144.826233,738.999573 147.968903,737.534607 
	C151.924438,735.690674 154.738464,737.188599 155.821259,741.346558 
	C158.545761,751.808716 160.692276,752.982117 171.738403,750.123291 
	C169.043365,754.623901 165.868149,758.770874 162.952606,763.093018 
	C153.060257,777.757690 143.314392,792.521423 133.390488,807.164612 
	C130.448151,811.506104 127.103363,815.574829 123.942993,819.768555 
z"/>
<path fill="#F0F0F0" opacity="1.000000" stroke="none" 
	d="
M165.151138,834.947632 
	C168.668365,838.973022 170.243011,845.739258 169.457336,854.030273 
	C131.814072,854.030273 94.128853,854.030273 55.971687,854.030273 
	C55.726036,847.565735 55.676540,841.213623 60.132774,835.241394 
	C70.429131,832.999878 79.995834,829.881958 89.719620,829.273254 
	C105.169617,828.306091 120.725677,828.908813 136.234070,829.088684 
	C139.980972,829.132080 143.757385,829.929443 147.448715,830.715759 
	C153.380814,831.979431 159.253403,833.522583 165.151138,834.947632 
z"/>
<path fill="#EFEFEF" opacity="1.000000" stroke="none" 
	d="
M131.952484,738.829407 
	C127.227150,739.723694 125.726677,735.596619 123.519310,733.028870 
	C119.881729,728.797485 115.710632,725.739929 110.154015,727.476379 
	C107.039268,728.449829 104.114510,730.908875 101.783707,733.348022 
	C94.899643,740.551880 93.318039,740.943481 85.016693,735.770569 
	C83.475891,734.810425 82.001663,733.743530 80.484695,732.717773 
	C89.367996,713.318970 115.341034,709.439514 129.869049,718.870911 
	C132.581085,725.793396 133.906464,732.146179 131.952484,738.829407 
z"/>
<path fill="#CCCCCC" opacity="1.000000" stroke="none" 
	d="
M124.400146,819.862427 
	C127.103363,815.574829 130.448151,811.506104 133.390488,807.164612 
	C143.314392,792.521423 153.060257,777.757690 162.952606,763.093018 
	C165.868149,758.770874 169.043365,754.623901 172.114105,749.999146 
	C174.537521,748.837708 176.946426,748.073730 179.355316,747.309692 
	C179.637924,747.653442 179.920532,747.997192 180.203140,748.340942 
	C163.891861,770.507690 147.148895,792.481140 147.255844,821.787598 
	C139.352066,821.141418 132.104675,820.548889 124.400146,819.862427 
z"/>
<path fill="#F3F3F3" opacity="1.000000" stroke="none" 
	d="
M55.869602,750.295105 
	C56.496754,751.688599 56.657024,752.976135 57.239071,754.031067 
	C61.803638,762.303772 66.773621,770.371948 70.945900,778.834839 
	C73.388092,783.788391 74.677040,789.325745 76.286232,794.660339 
	C76.566681,795.590088 75.859581,796.817749 75.243736,797.973022 
	C67.566902,780.013916 56.629135,764.140137 45.200478,748.557495 
	C45.390045,748.099548 45.579609,747.641541 45.769176,747.183594 
	C49.045483,748.149536 52.321793,749.115479 55.869602,750.295105 
z"/>
<path fill="#EDEDED" opacity="1.000000" stroke="none" 
	d="
M117.961426,706.865479 
	C109.935898,710.419250 101.280861,706.391357 100.800667,698.879211 
	C100.256378,690.364319 109.709023,685.400635 118.679192,690.305908 
	C118.643608,696.262024 118.302521,701.563782 117.961426,706.865479 
z"/>
<path fill="#F7F7F7" opacity="1.000000" stroke="none" 
	d="
M165.035172,834.603516 
	C159.253403,833.522583 153.380814,831.979431 147.448715,830.715759 
	C143.757385,829.929443 139.980972,829.132080 136.234070,829.088684 
	C120.725677,828.908813 105.169617,828.306091 89.719620,829.273254 
	C79.995834,829.881958 70.429131,832.999878 60.407181,834.995361 
	C63.474525,833.006714 66.702477,830.039795 70.416267,829.186035 
	C90.016724,824.680054 109.948761,824.140442 129.926865,825.749634 
	C138.033997,826.402588 146.172775,827.306885 154.127426,828.929016 
	C157.928925,829.704346 161.334366,832.421692 165.035172,834.603516 
z"/>
<path fill="#CBCBCB" opacity="1.000000" stroke="none" 
	d="
M132.320282,738.948547 
	C133.906464,732.146179 132.581085,725.793396 130.072632,719.164917 
	C137.179993,721.091675 141.352707,726.470520 145.409409,733.189026 
	C141.002731,735.225403 136.845398,737.146545 132.320282,738.948547 
z"/>
<path fill="#CBCBCB" opacity="1.000000" stroke="none" 
	d="
M118.315292,706.880371 
	C118.302521,701.563782 118.643608,696.262024 118.970718,690.554504 
	C126.210121,694.359009 126.092239,701.223267 118.315292,706.880371 
z"/>
<path fill="#EFEFEF" opacity="1.000000" stroke="none" 
	d="
M341.945404,819.791321 
	C327.050659,820.247314 312.155884,820.703308 296.799744,821.173401 
	C296.099854,808.400391 293.483673,795.668030 286.976013,783.232788 
	C283.913544,775.406799 281.110657,768.226379 277.741608,761.322266 
	C275.611176,756.956421 272.636017,753.002686 270.039764,748.864136 
	C270.680756,748.985229 271.367584,748.997131 271.955963,749.243774 
	C282.247528,753.558105 285.158905,752.183960 287.974365,741.642761 
	C289.262787,736.818848 291.391663,735.619385 295.962769,737.618286 
	C298.811951,738.864197 301.457825,740.592651 304.143616,742.190918 
	C310.590302,746.027161 316.540985,745.194946 321.571594,739.689392 
	C331.127808,729.230896 331.271515,729.229553 340.511047,739.511963 
	C345.691833,745.277527 351.804901,746.116272 358.781403,741.995483 
	C359.780365,741.405457 360.701996,740.684998 361.698059,740.089539 
	C370.916138,734.578186 371.961182,734.976990 375.118683,745.165588 
	C377.083282,751.505005 381.239105,752.935303 389.571320,750.279480 
	C389.703522,751.484314 389.606171,752.543152 389.075348,753.296814 
	C378.540283,768.254761 367.960327,783.181091 357.377808,798.105530 
	C352.246002,805.342896 347.090302,812.563293 341.945404,819.791321 
z"/>
<path fill="#ECECEC" opacity="1.000000" stroke="none" 
	d="
M384.086792,835.010925 
	C388.459137,840.694946 388.209290,847.283691 388.058289,854.221069 
	C350.118866,854.221069 312.451080,854.221069 274.442596,854.221069 
	C273.760956,848.007202 274.557220,842.094177 277.887573,836.199036 
	C281.908295,834.639282 285.163025,832.803711 288.648071,832.085510 
	C310.411835,827.600098 332.420349,827.510864 354.472778,829.072998 
	C358.744263,829.375549 363.017151,830.054932 367.213379,830.926331 
	C372.876373,832.102356 378.465790,833.632629 384.086792,835.010925 
z"/>
<path fill="#ECECEC" opacity="1.000000" stroke="none" 
	d="
M349.988342,738.958862 
	C347.862976,737.604492 345.283661,736.648621 343.687195,734.830017 
	C334.477203,724.338562 328.464081,724.183105 319.421844,734.552429 
	C314.507019,740.188599 311.624115,740.672913 305.212067,736.857422 
	C303.096619,735.598694 301.046936,734.229370 298.980957,732.919312 
	C306.203522,714.757446 332.854279,709.057434 347.630127,718.387451 
	C351.081268,725.354309 352.252106,731.983032 349.988342,738.958862 
z"/>
<path fill="#CBCBCB" opacity="1.000000" stroke="none" 
	d="
M342.398560,819.874878 
	C347.090302,812.563293 352.246002,805.342896 357.377808,798.105530 
	C367.960327,783.181091 378.540283,768.254761 389.075348,753.296814 
	C389.606171,752.543152 389.703522,751.484314 389.941040,750.190308 
	C389.879425,749.813171 389.941437,749.877319 390.226074,749.904175 
	C391.005432,749.623535 391.500214,749.316040 391.994995,749.008545 
	C393.957184,748.513977 395.919373,748.019348 397.881561,747.524780 
	C382.531158,770.574280 365.595825,792.229004 365.910187,821.760620 
	C357.943146,821.137939 350.397430,820.548157 342.398560,819.874878 
z"/>
<path fill="#F7F7F7" opacity="1.000000" stroke="none" 
	d="
M383.987122,834.675354 
	C378.465790,833.632629 372.876373,832.102356 367.213379,830.926331 
	C363.017151,830.054932 358.744263,829.375549 354.472778,829.072998 
	C332.420349,827.510864 310.411835,827.600098 288.648071,832.085510 
	C285.163025,832.803711 281.908295,834.639282 278.169739,835.993530 
	C280.019501,831.177185 284.633057,829.904480 289.150909,828.965454 
	C308.834015,824.874207 328.751404,824.062073 348.734436,825.748230 
	C357.495514,826.487549 366.248810,827.757690 374.872284,829.461609 
	C378.073669,830.094177 380.893585,832.657104 383.987122,834.675354 
z"/>
<path fill="#ECECEC" opacity="1.000000" stroke="none" 
	d="
M336.918030,706.675354 
	C330.755554,709.303955 325.745178,708.674072 321.926056,704.668762 
	C319.159332,701.767212 318.233734,698.296082 319.979279,694.623352 
	C322.089050,690.184326 325.859497,687.807129 330.778900,688.102295 
	C333.134766,688.243713 335.428925,689.413818 337.891907,690.909607 
	C337.661224,696.692566 337.289642,701.683960 336.918030,706.675354 
z"/>
<path fill="#CBCBCB" opacity="1.000000" stroke="none" 
	d="
M350.376801,739.028320 
	C352.252106,731.983032 351.081268,725.354309 347.956879,718.547852 
	C354.993958,720.984192 359.844727,726.117859 364.049683,733.242554 
	C359.374390,735.303223 355.069824,737.200500 350.376801,739.028320 
z"/>
<path fill="#F5F5F5" opacity="1.000000" stroke="none" 
	d="
M269.751709,748.688965 
	C272.636017,753.002686 275.611176,756.956421 277.741608,761.322266 
	C281.110657,768.226379 283.913544,775.406799 286.924866,782.886841 
	C279.295227,771.633484 271.696777,759.963562 263.545319,747.444397 
	C265.895325,747.869080 267.679474,748.191467 269.751709,748.688965 
z"/>
<path fill="#CBCBCB" opacity="1.000000" stroke="none" 
	d="
M337.259705,706.651123 
	C337.289642,701.683960 337.661224,696.692566 338.087158,691.224548 
	C344.653290,694.789001 344.423981,701.530090 337.259705,706.651123 
z"/>
<path fill="#EFEFEF" opacity="1.000000" stroke="none" 
	d="
M391.684448,748.978149 
	C391.500214,749.316040 391.005432,749.623535 390.196960,749.937988 
	C390.380127,749.612488 390.876984,749.280090 391.684448,748.978149 
z"/>
<path fill="#F0F0F0" opacity="1.000000" stroke="none" 
	d="
M114.879486,333.944977 
	C115.176208,332.522461 115.472939,331.099915 116.302795,329.285645 
	C123.176453,321.589447 123.938911,309.604858 118.277992,303.695587 
	C117.334969,311.336517 112.752167,316.234406 106.102921,318.897614 
	C93.801781,323.824524 81.251045,328.125519 68.915817,332.971161 
	C61.841187,335.750305 54.595509,338.484436 49.965683,345.162689 
	C45.976078,341.687653 41.986473,338.212646 37.988319,334.001709 
	C38.383575,332.158051 38.787380,331.050293 39.575462,329.941254 
	C44.502987,330.290100 46.878292,327.977478 47.949104,323.366699 
	C46.110920,323.153839 44.535995,322.971436 42.973663,322.434753 
	C45.056252,319.156952 46.735283,315.830872 49.261673,313.377258 
	C62.580299,300.442474 76.149292,287.765930 89.551949,274.916901 
	C94.583206,270.093445 93.910416,263.560394 88.146576,259.011414 
	C88.146576,259.011414 87.989746,258.590698 87.988770,258.040222 
	C87.987717,257.053680 87.987633,256.617554 87.987556,256.181458 
	C91.757507,257.754395 95.527466,259.327301 99.684280,261.388245 
	C103.430489,265.575470 105.287689,270.596985 110.746643,272.428833 
	C115.283882,273.951416 119.703972,276.053009 123.858643,278.448456 
	C150.833954,294.001526 159.244858,315.705811 155.293564,345.556702 
	C153.470779,359.327393 148.600922,372.185577 142.942810,384.772705 
	C131.817902,384.118622 120.676979,382.745911 109.572159,382.993378 
	C95.847351,383.299133 82.152534,384.950714 68.030823,386.053192 
	C68.258591,385.029663 68.624840,383.383850 69.269348,381.223969 
	C69.763763,380.472137 69.896393,380.194427 69.945503,379.876831 
	C69.945503,379.876831 69.962379,379.958405 70.271034,379.925049 
	C76.668434,371.422485 85.210968,365.864990 93.647018,360.094696 
	C99.336632,356.203033 105.054085,352.140961 109.895256,347.292542 
	C113.246597,343.936188 116.714066,339.677429 114.879486,333.944977 
M95.566399,289.505432 
	C94.597832,289.313354 93.632721,288.977234 92.660095,288.953949 
	C88.222885,288.847504 83.731735,293.256287 84.540459,297.581451 
	C85.382278,302.083649 89.514961,300.040161 91.921150,299.789917 
	C94.154961,299.557617 96.886917,297.794769 98.044922,295.884644 
	C98.751213,294.719574 96.896637,292.002045 95.566399,289.505432 
z"/>
<path fill="#F0F0F0" opacity="1.000000" stroke="none" 
	d="
M165.156586,397.946198 
	C170.114792,403.338348 169.319260,410.079132 169.873825,417.023560 
	C131.584015,417.023560 93.637657,417.023560 55.083000,417.023560 
	C55.406536,410.626434 55.548611,404.110321 59.919617,398.108276 
	C63.779922,396.979340 66.856209,395.543579 70.073196,395.076141 
	C78.874069,393.797363 87.749168,393.039276 96.567627,391.869598 
	C113.468857,389.627930 130.237854,391.474701 146.955322,393.604370 
	C153.106949,394.388031 159.094315,396.461182 165.156586,397.946198 
z"/>
<path fill="#CBCBCB" opacity="1.000000" stroke="none" 
	d="
M143.369965,384.805481 
	C148.600922,372.185577 153.470779,359.327393 155.293564,345.556702 
	C159.244858,315.705811 150.833954,294.001526 123.858643,278.448456 
	C119.703972,276.053009 115.283882,273.951416 110.746643,272.428833 
	C105.287689,270.596985 103.430489,265.575470 100.008759,261.545959 
	C100.433571,261.241394 101.120010,261.065765 101.379097,261.322083 
	C109.698921,269.553253 121.325401,271.517731 131.074066,277.031311 
	C149.389114,287.389801 161.931610,301.868347 165.218491,323.381592 
	C167.335602,337.238556 165.895996,350.878448 163.739441,364.528442 
	C162.525909,372.209625 161.182465,379.870270 159.841125,387.876801 
	C154.218491,386.811951 149.007797,385.825104 143.369965,384.805481 
z"/>
<path fill="#CBCBCB" opacity="1.000000" stroke="none" 
	d="
M50.163151,345.487732 
	C54.595509,338.484436 61.841187,335.750305 68.915817,332.971161 
	C81.251045,328.125519 93.801781,323.824524 106.102921,318.897614 
	C112.752167,316.234406 117.334969,311.336517 118.277992,303.695587 
	C123.938911,309.604858 123.176453,321.589447 116.505280,328.969360 
	C115.648445,323.703674 115.147346,323.608154 110.087448,325.183655 
	C100.146599,328.279022 89.951241,330.616669 80.155769,334.096985 
	C74.172668,336.222748 67.987808,339.029205 63.277405,343.122437 
	C58.934498,346.896332 55.288582,347.832458 50.163151,345.487732 
z"/>
<path fill="#FBFBFB" opacity="1.000000" stroke="none" 
	d="
M39.191185,329.942566 
	C38.787380,331.050293 38.383575,332.158051 37.985249,333.648163 
	C32.956184,328.802734 32.968052,327.101318 39.360165,320.196472 
	C46.537888,312.443024 54.016418,304.968628 61.335110,297.345001 
	C69.795586,288.532013 78.553963,279.967896 86.436928,270.663605 
	C88.424179,268.318024 87.567177,263.562653 88.081902,259.463074 
	C93.910416,263.560394 94.583206,270.093445 89.551949,274.916901 
	C76.149292,287.765930 62.580299,300.442474 49.261673,313.377258 
	C46.735283,315.830872 45.056252,319.156952 42.696384,322.668579 
	C39.937717,324.813477 38.305717,326.772675 39.191185,329.942566 
z"/>
<path fill="#F9F9F9" opacity="1.000000" stroke="none" 
	d="
M165.003204,397.628357 
	C159.094315,396.461182 153.106949,394.388031 146.955322,393.604370 
	C130.237854,391.474701 113.468857,389.627930 96.567627,391.869598 
	C87.749168,393.039276 78.874069,393.797363 70.073196,395.076141 
	C66.856209,395.543579 63.779922,396.979340 60.243839,397.960999 
	C62.200745,396.289459 64.340309,393.803253 66.947189,393.132080 
	C73.750038,391.380646 80.726700,389.573456 87.689545,389.321381 
	C103.860107,388.735962 120.077034,388.647583 136.247208,389.190491 
	C143.497025,389.433899 150.738937,391.428894 157.861115,393.141785 
	C160.379227,393.747406 162.530869,395.876801 165.003204,397.628357 
z"/>
<path fill="#FBFBFB" opacity="1.000000" stroke="none" 
	d="
M114.560928,334.119446 
	C116.714066,339.677429 113.246597,343.936188 109.895256,347.292542 
	C105.054085,352.140961 99.336632,356.203033 93.647018,360.094696 
	C85.210968,365.864990 76.668434,371.422485 70.230881,379.913940 
	C73.344414,369.470612 81.860542,363.706787 90.294151,357.790375 
	C98.032967,352.361389 106.542038,347.781586 111.884201,339.536377 
	C112.914062,337.946869 113.468559,336.049377 114.560928,334.119446 
z"/>
<path fill="#FBFBFB" opacity="1.000000" stroke="none" 
	d="
M87.680084,256.193207 
	C87.987633,256.617554 87.987717,257.053680 87.970184,257.816498 
	C87.759262,257.497131 87.565941,256.851044 87.680084,256.193207 
z"/>
<path fill="#FBFBFB" opacity="1.000000" stroke="none" 
	d="
M69.702835,379.972229 
	C69.896393,380.194427 69.763763,380.472137 69.353333,380.838898 
	C69.259445,380.667816 69.359810,380.367737 69.702835,379.972229 
z"/>
<path fill="#F0F0F0" opacity="1.000000" stroke="none" 
	d="
M585.285156,606.819702 
	C598.479309,611.685730 605.214783,625.552368 602.568298,635.990112 
	C601.379822,635.990112 600.083496,635.990112 598.787170,635.990112 
	C566.188110,635.990112 533.588989,636.021912 500.990387,635.897949 
	C499.329803,635.891663 497.674316,634.545776 496.451965,633.334106 
	C502.780457,623.211060 509.172699,614.020020 519.376770,608.364624 
	C531.249268,601.784424 535.669128,590.690247 537.699341,578.175293 
	C537.815796,577.457458 536.936096,576.578125 536.520020,575.773926 
	C537.055786,573.927734 537.591614,572.081604 538.669373,570.118652 
	C546.499817,578.506042 553.256042,587.556335 561.244263,595.342529 
	C567.703369,601.638306 575.399780,606.939697 585.285156,606.819702 
z"/>
<path fill="#F5F5F5" opacity="1.000000" stroke="none" 
	d="
M570.989380,561.970337 
	C563.041321,562.143616 555.094055,562.391235 547.145081,562.470215 
	C538.363037,562.557556 529.579468,562.490234 520.541016,562.490234 
	C520.027832,558.994629 519.553894,555.766724 519.705200,552.228638 
	C530.271362,552.173462 533.516968,549.980286 534.690491,542.214905 
	C533.045471,539.274048 531.526428,536.253845 529.733398,533.406128 
	C522.361328,521.697693 527.531311,509.017120 533.960022,503.561127 
	C543.185913,495.731201 556.309753,496.055206 565.891479,504.900757 
	C566.157532,506.391510 566.145386,507.296417 566.529480,507.977966 
	C573.847778,520.962219 568.696411,531.540771 557.520264,538.957336 
	C556.255493,539.796631 555.120483,540.831421 553.247864,542.310669 
	C556.477295,543.678345 558.796204,544.517151 560.982727,545.618835 
	C564.522095,547.402344 568.774170,548.679382 571.165161,551.495117 
	C572.610291,553.196838 571.104675,557.398804 570.940735,560.478149 
	C570.914429,560.973328 570.971130,561.472839 570.989380,561.970337 
z"/>
<path fill="#CBCBCB" opacity="1.000000" stroke="none" 
	d="
M585.136353,606.504883 
	C575.399780,606.939697 567.703369,601.638306 561.244263,595.342529 
	C553.256042,587.556335 546.499817,578.506042 538.875122,569.823975 
	C538.870422,569.128235 539.191895,568.166077 539.534973,568.158264 
	C546.013977,568.011230 552.503784,567.800049 558.967896,568.102661 
	C559.984253,568.150146 561.287903,570.502686 561.776733,572.010559 
	C565.030701,582.047852 569.124634,591.631409 576.604614,599.311462 
	C579.110901,601.884827 582.177185,603.912842 585.136353,606.504883 
z"/>
<path fill="#CBCBCB" opacity="1.000000" stroke="none" 
	d="
M571.423706,562.117676 
	C570.971130,561.472839 570.914429,560.973328 570.940735,560.478149 
	C571.104675,557.398804 572.610291,553.196838 571.165161,551.495117 
	C568.774170,548.679382 564.522095,547.402344 560.982727,545.618835 
	C558.796204,544.517151 556.477295,543.678345 553.247864,542.310669 
	C555.120483,540.831421 556.255493,539.796631 557.520264,538.957336 
	C568.696411,531.540771 573.847778,520.962219 566.529480,507.977966 
	C566.145386,507.296417 566.157532,506.391510 566.056335,505.197693 
	C574.300537,512.017273 575.547546,525.999268 568.820496,535.070068 
	C568.028748,536.137695 567.251282,537.222046 566.382141,538.224915 
	C564.187256,540.757690 564.665894,542.635071 567.601746,544.139893 
	C569.212830,544.965759 570.723267,545.992371 572.258667,546.960876 
	C581.338562,552.688477 581.388611,549.207092 578.570801,562.265076 
	C576.411926,562.265076 574.134949,562.265076 571.423706,562.117676 
z"/>
<path fill="#FBFBFB" opacity="1.000000" stroke="none" 
	d="
M536.307129,576.062622 
	C536.936096,576.578125 537.815796,577.457458 537.699341,578.175293 
	C535.669128,590.690247 531.249268,601.784424 519.376770,608.364624 
	C509.172699,614.020020 502.780457,623.211060 496.561920,632.914368 
	C496.174896,621.546204 501.757874,613.286377 511.388428,607.949463 
	C524.205872,600.846497 531.581543,589.792114 536.307129,576.062622 
z"/>
<path fill="#F9F9F9" opacity="1.000000" stroke="none" 
	d="
M534.400879,542.431885 
	C533.516968,549.980286 530.271362,552.173462 519.833557,551.874146 
	C524.261597,548.769592 529.186401,545.709229 534.400879,542.431885 
z"/>
<path fill="#F0F0F0" opacity="1.000000" stroke="none" 
	d="
M532.996521,302.078094 
	C534.056152,301.990662 535.115845,301.903229 536.747681,302.129089 
	C538.210388,302.078827 539.100830,301.715271 539.991272,301.351746 
	C552.383240,302.224396 564.775208,303.097107 577.617920,304.448547 
	C579.132629,305.668640 580.113464,306.590820 581.273071,307.124359 
	C599.411987,315.470428 602.752930,328.505280 598.792542,346.072479 
	C596.803528,354.895325 592.963684,363.297180 590.026123,371.911682 
	C588.717590,375.748749 587.570068,379.640778 586.349487,383.507874 
	C584.776062,383.950562 583.133545,384.941376 581.639404,384.753387 
	C560.404907,382.082336 539.197998,382.144318 517.953003,384.685974 
	C516.154297,384.901154 513.086975,383.856750 512.387756,382.488525 
	C504.326172,366.713898 496.608337,350.763641 489.129211,334.206909 
	C489.638245,332.760284 490.029755,331.948822 489.964111,331.176178 
	C489.109772,321.119476 494.117920,314.575226 502.961975,311.167419 
	C509.832001,308.520203 517.152100,307.050659 524.249084,304.978363 
	C527.195923,304.117889 530.082520,303.051086 532.996521,302.078094 
z"/>
<path fill="#F0F0F0" opacity="1.000000" stroke="none" 
	d="
M602.156433,397.946136 
	C607.299927,403.299377 606.217163,410.112335 606.909180,417.030090 
	C568.828125,417.030090 531.123535,417.030090 492.959412,417.030090 
	C492.713043,410.567780 492.655609,404.205963 497.126953,398.236206 
	C500.921173,396.987244 503.989746,395.533539 507.202301,395.063477 
	C515.825623,393.801666 524.524902,393.069244 533.167969,391.929565 
	C550.372559,389.660950 567.440125,391.373505 584.447083,393.765930 
	C590.427856,394.607239 596.257690,396.521667 602.156433,397.946136 
z"/>
<path fill="#E9E9E9" opacity="1.000000" stroke="none" 
	d="
M555.049744,285.124603 
	C550.493896,285.545471 545.938049,285.966309 540.738159,286.446655 
	C540.507690,282.265350 540.312683,278.726685 540.092285,274.728149 
	C533.832703,274.728149 527.762085,274.728149 521.398010,274.728149 
	C521.398010,269.717346 521.398010,265.183411 521.398010,260.138947 
	C528.540955,260.138947 535.435120,260.138947 542.666321,260.138947 
	C542.666321,254.366913 542.666321,249.092926 542.666321,244.081360 
	C543.275208,243.617218 543.526245,243.259491 543.799866,243.241226 
	C556.445740,242.396637 556.438232,242.400208 556.694885,255.160706 
	C556.724365,256.627899 556.899414,258.092194 557.048767,260.127655 
	C563.935547,260.127655 570.663269,260.127655 577.690491,260.127655 
	C577.690491,265.104340 577.690491,269.497498 577.690491,274.576691 
	C572.728271,274.576691 567.923950,274.467865 563.129944,274.643250 
	C561.699402,274.695587 560.298035,275.543732 558.380249,276.493713 
	C552.315247,278.081818 556.230713,282.485718 555.049744,285.124603 
z"/>
<path fill="#CCCCCC" opacity="1.000000" stroke="none" 
	d="
M586.632446,383.290283 
	C587.570068,379.640778 588.717590,375.748749 590.026123,371.911682 
	C592.963684,363.297180 596.803528,354.895325 598.792542,346.072479 
	C602.752930,328.505280 599.411987,315.470428 581.273071,307.124359 
	C580.113464,306.590820 579.132629,305.668640 578.003540,304.595093 
	C589.483521,305.526398 600.507690,308.295410 610.225891,315.072235 
	C613.889771,317.627197 615.130066,321.101196 613.646912,325.051849 
	C609.695251,335.578033 605.818420,346.166626 601.132446,356.372498 
	C596.932434,365.520020 591.695129,374.191284 586.632446,383.290283 
z"/>
<path fill="#F9F9F9" opacity="1.000000" stroke="none" 
	d="
M602.042175,397.604187 
	C596.257690,396.521667 590.427856,394.607239 584.447083,393.765930 
	C567.440125,391.373505 550.372559,389.660950 533.167969,391.929565 
	C524.524902,393.069244 515.825623,393.801666 507.202301,395.063477 
	C503.989746,395.533539 500.921173,396.987244 497.401855,397.995605 
	C500.598114,395.947845 504.028107,392.492889 507.786865,392.087616 
	C524.533569,390.282043 541.380432,388.329712 558.179016,388.431396 
	C570.948730,388.508698 583.721252,391.465210 596.437805,393.485443 
	C598.417847,393.800018 600.105225,395.957153 602.042175,397.604187 
z"/>
<path fill="#F5F5F5" opacity="1.000000" stroke="none" 
	d="
M532.569214,302.037720 
	C530.082520,303.051086 527.195923,304.117889 524.249084,304.978363 
	C517.152100,307.050659 509.832001,308.520203 502.961975,311.167419 
	C494.117920,314.575226 489.109772,321.119476 489.964111,331.176178 
	C490.029755,331.948822 489.638245,332.760284 489.135986,333.821411 
	C487.593994,330.383392 485.813873,326.743011 485.372314,322.946899 
	C485.117371,320.755615 486.367249,317.153748 488.072845,316.188263 
	C494.730499,312.419525 501.597626,308.678436 508.849213,306.396027 
	C516.333496,304.040344 524.355286,303.392395 532.569214,302.037720 
z"/>
<path fill="#EFEFEF" opacity="1.000000" stroke="none" 
	d="
M561.972900,295.916290 
	C552.890747,296.130249 543.809021,296.399048 534.725708,296.474976 
	C533.797852,296.482758 531.984131,295.039154 532.074341,294.770660 
	C532.538025,293.390564 533.217041,291.533447 534.337341,291.056732 
	C535.879883,290.400299 537.884949,290.797668 539.691772,290.801331 
	C546.480957,290.815186 553.270203,290.852417 560.576294,291.319153 
	C561.386414,293.143707 561.679626,294.529999 561.972900,295.916290 
z"/>
<path fill="#C3C3C3" opacity="1.000000" stroke="none" 
	d="
M562.293457,296.067139 
	C561.679626,294.529999 561.386414,293.143707 561.037231,291.404358 
	C561.623230,290.980774 562.451050,290.620056 562.874573,290.891022 
	C564.531006,291.950867 566.059692,293.210419 567.635864,294.395752 
	C565.961914,295.003143 564.287964,295.610565 562.293457,296.067139 
z"/>
<path fill="#C3C3C3" opacity="1.000000" stroke="none" 
	d="
M555.470215,285.235229 
	C556.230713,282.485718 552.315247,278.081818 558.269897,276.934784 
	C558.722107,278.841248 559.131104,280.854614 558.707031,282.673767 
	C558.461792,283.726135 556.874146,284.465607 555.470215,285.235229 
z"/>
<path fill="#F5F5F5" opacity="1.000000" stroke="none" 
	d="
M539.678406,301.291138 
	C539.100830,301.715271 538.210388,302.078827 537.145203,302.187378 
	C537.768799,301.698425 538.567200,301.464508 539.678406,301.291138 
z"/>
<path fill="#A0A0A0" opacity="1.000000" stroke="none" 
	d="
M95.879349,289.743622 
	C96.896637,292.002045 98.751213,294.719574 98.044922,295.884644 
	C96.886917,297.794769 94.154961,299.557617 91.921150,299.789917 
	C89.514961,300.040161 85.382278,302.083649 84.540459,297.581451 
	C83.731735,293.256287 88.222885,288.847504 92.660095,288.953949 
	C93.632721,288.977234 94.597832,289.313354 95.879349,289.743622 
z"/>
<path fill="#B1B1B1" opacity="1.000000" stroke="none" 
	d="
M39.575459,329.941254 
	C38.305717,326.772675 39.937717,324.813477 42.683792,323.022888 
	C44.535995,322.971436 46.110920,323.153839 47.949104,323.366699 
	C46.878292,327.977478 44.502987,330.290100 39.575459,329.941254 
z"/>
</svg>