<svg version="1.1" id="Layer_1" xmlns="http://www.w3.org/2000/svg" xmlns:xlink="http://www.w3.org/1999/xlink" x="0px" y="0px"
	 width="100%" viewBox="0 0 892 892" enable-background="new 0 0 892 892" xml:space="preserve">
<path fill="#FFFEFE" opacity="1.000000" stroke="none" 
	d="
M1.000000,331.000000 
	C1.000000,220.666672 1.000000,110.833336 1.000000,1.000000 
	C298.333344,1.000000 595.666687,1.000000 893.000000,1.000000 
	C893.000000,298.333344 893.000000,595.666687 893.000000,893.000000 
	C595.666687,893.000000 298.333344,893.000000 1.000000,893.000000 
	C1.000000,705.833313 1.000000,518.666687 1.000000,331.000000 
M882.524170,664.377136 
	C882.580383,663.715271 882.685669,663.053406 882.685730,662.391541 
	C882.693848,591.794189 882.696960,521.196838 882.672913,450.599487 
	C882.672485,449.297668 882.343445,447.995941 882.142578,445.795654 
	C882.117615,443.632202 882.071228,441.468781 882.070923,439.305328 
	C882.062256,368.889526 882.058044,298.473755 882.525208,227.378052 
	C882.582275,225.883804 882.689087,224.389572 882.689270,222.895325 
	C882.697510,153.635910 882.641846,84.376350 882.809692,15.117337 
	C882.821838,10.088483 881.147156,9.197787 876.554626,9.207048 
	C807.461914,9.346391 738.368958,9.298793 669.276001,9.330523 
	C667.497986,9.331339 665.720093,9.732402 663.012207,9.931790 
	C638.711548,9.931931 614.410889,9.942756 590.110229,9.929955 
	C541.842529,9.904531 493.574829,9.866093 444.523651,9.468639 
	C443.861176,9.415226 443.198730,9.315104 442.536255,9.315027 
	C371.950562,9.306925 301.364868,9.302953 230.779175,9.331979 
	C229.500458,9.332504 228.221909,9.732471 226.014450,9.932319 
	C153.811920,9.932319 81.609406,9.932319 8.947263,9.932319 
	C8.947263,83.122108 8.947263,155.532364 8.475579,228.622589 
	C8.419340,229.284454 8.313920,229.946335 8.313844,230.608200 
	C8.305726,301.205750 8.302683,371.803284 8.326808,442.400818 
	C8.327253,443.702606 8.656452,445.004272 8.857491,447.204498 
	C8.882399,449.367950 8.928833,451.531372 8.929095,453.694824 
	C8.937637,524.110535 8.941738,594.526184 8.474393,665.621765 
	C8.417243,667.116028 8.310279,668.610229 8.310102,670.104492 
	C8.301873,739.364197 8.357512,808.624023 8.189622,877.883301 
	C8.177431,882.912659 9.853090,883.802917 14.445102,883.793640 
	C83.538040,883.654419 152.631348,883.702087 221.724548,883.670288 
	C223.502548,883.669495 225.280365,883.268005 227.988159,883.068298 
	C252.621689,883.068176 277.255219,883.057190 301.888733,883.070129 
	C349.823486,883.095337 397.758240,883.134033 446.476501,883.531372 
	C447.138977,883.584778 447.801422,883.684875 448.463898,883.684998 
	C519.049561,883.693054 589.635254,883.697021 660.220947,883.668030 
	C661.499634,883.667480 662.778137,883.267517 664.985535,883.067627 
	C737.188049,883.067627 809.390625,883.067627 882.052734,883.067627 
	C882.052734,809.877808 882.052734,737.467468 882.524170,664.377136 
z"/>
<path fill="#F5C79C" opacity="1.000000" stroke="none" 
	d="
M445.692993,883.167114 
	C397.758240,883.134033 349.823486,883.095337 301.888733,883.070129 
	C277.255219,883.057190 252.621689,883.068176 227.503296,882.588379 
	C227.001160,809.728271 226.983887,737.348145 227.437988,664.979370 
	C300.167511,664.990723 372.425690,664.990723 445.154205,664.990723 
	C445.154205,662.617493 445.154205,660.981079 445.154205,659.344604 
	C445.154205,590.350159 445.114197,521.355652 445.248566,452.361481 
	C445.257050,447.994202 444.156647,446.737061 439.695648,446.746246 
	C370.534882,446.888763 301.373718,446.843811 232.212631,446.858795 
	C230.616501,446.859131 229.020386,447.051880 227.031952,447.180176 
	C227.031952,520.110413 227.031952,592.571899 226.561447,665.020752 
	C153.709457,664.986023 81.327980,664.963928 8.946499,664.941895 
	C8.941738,594.526184 8.937637,524.110535 8.929095,453.694824 
	C8.928833,451.531372 8.882399,449.367950 9.324921,446.706268 
	C82.040764,446.208038 154.289169,446.208038 227.031998,446.208038 
	C227.031998,372.894257 227.031998,300.431152 227.017059,227.983047 
	C227.002106,227.998077 226.972382,228.028534 227.442673,228.018921 
	C300.174927,228.009308 372.436920,228.009308 445.155365,228.009308 
	C445.155365,225.265610 445.155334,223.295792 445.155334,221.325974 
	C445.155334,164.659622 445.145691,107.993279 445.162292,51.326931 
	C445.166321,37.495617 445.256531,23.664330 445.307129,9.833032 
	C493.574829,9.866093 541.842529,9.904531 590.110229,9.929955 
	C614.410889,9.942756 638.711548,9.931931 663.497070,10.411798 
	C663.999084,83.271889 664.016174,155.651978 663.561890,228.020447 
	C590.832275,228.008835 518.574036,228.008835 445.845245,228.008835 
	C445.845245,230.387115 445.845215,232.021164 445.845215,233.655212 
	C445.845245,302.649811 445.885254,371.644470 445.750885,440.638794 
	C445.742401,445.005981 446.842926,446.263458 451.303986,446.254272 
	C520.464966,446.111755 589.626282,446.156708 658.787537,446.141724 
	C660.383667,446.141388 661.979797,445.948517 663.967896,445.820160 
	C663.967896,372.889893 663.967896,300.428284 664.438477,227.979095 
	C737.290405,228.013657 809.671753,228.035812 882.053162,228.057953 
	C882.058044,298.473755 882.062256,368.889526 882.070923,439.305328 
	C882.071228,441.468781 882.117615,443.632202 881.675171,446.293884 
	C808.959351,446.792114 736.710938,446.792114 663.968018,446.792114 
	C663.968018,520.105774 663.968018,592.568848 663.982910,665.016968 
	C663.997864,665.001892 664.027588,664.971436 663.557251,664.981079 
	C590.824951,664.990723 518.562927,664.990723 445.844635,664.990723 
	C445.844635,667.730103 445.844666,669.702087 445.844666,671.674133 
	C445.844666,728.340515 445.854309,785.006836 445.837769,841.673218 
	C445.833710,855.504517 445.743561,869.335815 445.692993,883.167114 
z"/>
<path fill="#BE814D" opacity="1.000000" stroke="none" 
	d="
M882.289185,227.718002 
	C809.671753,228.035812 737.290405,228.013657 664.454956,227.995270 
	C664.000977,227.999008 664.033264,228.032059 664.033264,228.032059 
	C664.016174,155.651978 663.999084,83.271889 663.962036,10.419304 
	C665.720093,9.732402 667.497986,9.331339 669.276001,9.330523 
	C738.368958,9.298793 807.461914,9.346391 876.554626,9.207048 
	C881.147156,9.197787 882.821838,10.088483 882.809692,15.117337 
	C882.641846,84.376350 882.697510,153.635910 882.689270,222.895325 
	C882.689087,224.389572 882.582275,225.883804 882.289185,227.718002 
z"/>
<path fill="#BE804C" opacity="1.000000" stroke="none" 
	d="
M444.915405,9.650835 
	C445.256531,23.664330 445.166321,37.495617 445.162292,51.326931 
	C445.145691,107.993279 445.155334,164.659622 445.155334,221.325974 
	C445.155334,223.295792 445.155365,225.265610 445.155365,228.009308 
	C372.436920,228.009308 300.174927,228.009308 227.452576,227.547699 
	C226.975876,154.706085 226.959579,82.326073 226.943283,9.946058 
	C228.221909,9.732471 229.500458,9.332504 230.779175,9.331979 
	C301.364868,9.302953 371.950562,9.306925 442.536255,9.315027 
	C443.198730,9.315104 443.861176,9.415226 444.915405,9.650835 
z"/>
<path fill="#BE804C" opacity="1.000000" stroke="none" 
	d="
M446.084778,883.349243 
	C445.743561,869.335815 445.833710,855.504517 445.837769,841.673218 
	C445.854309,785.006836 445.844666,728.340515 445.844666,671.674133 
	C445.844666,669.702087 445.844635,667.730103 445.844635,664.990723 
	C518.562927,664.990723 590.824951,664.990723 663.547363,665.452271 
	C664.024048,738.293884 664.040405,810.673889 664.056763,883.053894 
	C662.778137,883.267517 661.499634,883.667480 660.220947,883.668030 
	C589.635254,883.697021 519.049561,883.693054 448.463898,883.684998 
	C447.801422,883.684875 447.138977,883.584778 446.084778,883.349243 
z"/>
<path fill="#F5C79C" opacity="1.000000" stroke="none" 
	d="
M226.478867,9.939188 
	C226.959579,82.326073 226.975876,154.706085 226.982285,227.557312 
	C226.972382,228.028534 227.002106,227.998077 226.545898,227.994156 
	C153.708878,227.974350 81.328072,227.958481 8.947263,227.942612 
	C8.947263,155.532364 8.947263,83.122108 8.947263,9.932319 
	C81.609406,9.932319 153.811920,9.932319 226.478867,9.939188 
z"/>
<path fill="#F5C79C" opacity="1.000000" stroke="none" 
	d="
M664.521118,883.060791 
	C664.040405,810.673889 664.024048,738.293884 664.017700,665.442627 
	C664.027588,664.971436 663.997864,665.001892 664.454102,665.005737 
	C737.291077,665.025452 809.671936,665.041321 882.052734,665.057129 
	C882.052734,737.467468 882.052734,809.877808 882.052734,883.067627 
	C809.390625,883.067627 737.188049,883.067627 664.521118,883.060791 
z"/>
<path fill="#BE814D" opacity="1.000000" stroke="none" 
	d="
M226.966614,664.968018 
	C226.983887,737.348145 227.001160,809.728271 227.038345,882.580933 
	C225.280365,883.268005 223.502548,883.669495 221.724548,883.670288 
	C152.631348,883.702087 83.538040,883.654419 14.445102,883.793640 
	C9.853090,883.802917 8.177431,882.912659 8.189622,877.883301 
	C8.357512,808.624023 8.301873,739.364197 8.310102,670.104492 
	C8.310279,668.610229 8.417243,667.116028 8.710445,665.281799 
	C81.327980,664.963928 153.709457,664.986023 226.544739,665.004761 
	C226.998550,665.001465 226.966614,664.968018 226.966614,664.968018 
M72.773872,826.212769 
	C63.286564,833.522095 58.592560,843.071167 58.966885,855.136658 
	C59.173393,861.793091 59.092258,861.896179 65.657471,861.898010 
	C98.823494,861.907104 131.989532,861.885620 165.155548,861.909851 
	C179.266174,861.920166 176.664352,861.449463 176.212662,850.752075 
	C175.790634,840.757080 171.307510,833.065918 163.395569,827.130005 
	C157.596619,822.779358 151.262177,818.880066 146.363647,813.656799 
	C139.976105,806.845581 136.254379,798.274231 134.599564,788.096130 
	C138.651306,788.096130 142.133072,788.402222 145.526031,787.985474 
	C147.687317,787.720032 151.394638,786.581055 151.523300,785.492615 
	C152.178375,779.952148 155.921600,774.341614 152.420807,768.793030 
	C151.389236,767.158020 148.871490,766.453491 147.022446,765.343140 
	C144.640457,763.912964 142.246017,762.503540 139.851440,761.081848 
	C151.352859,742.968811 145.653076,728.301880 137.439316,720.681641 
	C127.675659,711.623596 112.097130,710.298889 101.163437,718.542847 
	C96.905426,721.753418 93.214851,726.656860 91.102417,731.577637 
	C86.668388,741.906433 88.982559,751.951111 96.314941,761.491882 
	C84.301735,764.752808 78.965157,771.422241 83.058136,783.271484 
	C83.110466,783.423035 83.084770,783.602295 83.091400,783.768799 
	C83.213936,786.842590 84.752831,788.215210 87.881134,788.123230 
	C92.133430,787.998169 96.392166,788.092041 101.375168,788.092041 
	C100.530708,790.797363 100.002457,792.668518 99.365456,794.501831 
	C94.612206,808.181824 86.877945,819.401306 72.773872,826.212769 
z"/>
<path fill="#BE804D" opacity="1.000000" stroke="none" 
	d="
M8.711421,228.282593 
	C81.328072,227.958481 153.708878,227.974350 226.560852,227.979126 
	C227.031998,300.431152 227.031998,372.894257 227.031998,446.208038 
	C154.289169,446.208038 82.040764,446.208038 9.312304,446.257019 
	C8.656452,445.004272 8.327253,443.702606 8.326808,442.400818 
	C8.302683,371.803284 8.305726,301.205750 8.313844,230.608200 
	C8.313920,229.946335 8.419340,229.284454 8.711421,228.282593 
M64.007820,342.536163 
	C72.382080,356.390656 77.991982,371.071594 77.812729,387.617401 
	C75.146225,388.452606 72.749588,389.122009 70.410355,389.952972 
	C65.602676,391.660828 61.174133,394.026703 58.923538,398.901215 
	C55.802151,405.661804 54.781673,412.786316 55.554081,420.239166 
	C55.925888,423.826630 57.532120,424.997345 61.036697,424.989868 
	C98.863045,424.909149 136.689621,424.939606 174.516144,424.938171 
	C175.015793,424.938141 175.696579,425.125366 175.984283,424.873199 
	C177.350677,423.675629 179.657486,422.424225 179.745972,421.069000 
	C180.674606,406.848846 178.806046,392.400177 161.433395,388.800659 
	C158.777527,388.250397 157.750504,386.969788 157.841858,383.982788 
	C158.271011,369.950836 162.708649,357.147919 170.015427,345.441528 
	C176.332169,335.321259 183.477966,325.716248 190.317841,315.925781 
	C193.112549,311.925507 192.754318,310.441528 188.360062,308.254456 
	C183.419525,305.795502 179.009369,307.846985 174.520721,309.653320 
	C168.433334,312.102936 167.537567,311.670563 165.984863,305.344757 
	C164.882706,300.854462 163.102737,297.237518 157.776077,296.659149 
	C156.663696,296.538361 155.296661,295.452667 154.697388,294.430389 
	C148.946747,284.620270 140.328537,278.510071 129.652695,274.993225 
	C136.527176,265.081451 136.339951,258.300385 129.197189,251.840714 
	C123.030807,246.264084 112.499290,246.296036 105.762306,251.911804 
	C99.089645,257.473969 98.948746,264.371521 105.500130,275.195312 
	C94.243523,278.152069 86.402664,285.465759 80.109604,294.798706 
	C79.466034,295.753143 78.155579,296.590515 77.019943,296.822144 
	C72.459412,297.752380 69.831406,300.791565 69.402412,304.984802 
	C68.704468,311.807037 66.988762,312.184631 60.422859,309.256531 
	C56.004436,307.286072 51.724037,306.316895 46.994133,308.407867 
	C43.254448,310.061157 42.192543,311.753510 44.900532,315.436035 
	C51.303886,324.143829 57.400398,333.077301 64.007820,342.536163 
z"/>
<path fill="#BE804D" opacity="1.000000" stroke="none" 
	d="
M882.288452,664.717163 
	C809.671936,665.041321 737.291077,665.025452 664.439148,665.020752 
	C663.968018,592.568848 663.968018,520.105774 663.968018,446.792114 
	C736.710938,446.792114 808.959351,446.792114 881.687744,446.743164 
	C882.343445,447.995941 882.672485,449.297668 882.672913,450.599487 
	C882.696960,521.196838 882.693848,591.794189 882.685730,662.391541 
	C882.685669,663.053406 882.580383,663.715271 882.288452,664.717163 
M719.148560,583.342773 
	C723.103699,590.976013 727.058838,598.609192 731.177185,606.557373 
	C728.832764,607.430054 726.863708,608.265259 724.831970,608.900085 
	C718.979004,610.728760 714.923889,614.671570 713.345398,620.378052 
	C711.953369,625.410645 711.359131,630.748474 711.090576,635.986267 
	C710.736328,642.895508 711.182922,643.092773 717.909546,643.093750 
	C754.722595,643.099304 791.535706,643.097351 828.348755,643.092346 
	C829.679504,643.092163 831.130981,643.350464 832.304749,642.904907 
	C833.343506,642.510498 834.818054,641.302307 834.818726,640.452332 
	C834.823303,634.821289 835.147278,629.064087 834.109253,623.586243 
	C832.212769,613.577576 825.104004,608.525574 815.088501,606.808777 
	C818.171875,601.063904 821.340576,595.798035 823.905334,590.252808 
	C829.822876,577.458313 836.485901,564.870728 840.877869,551.550110 
	C844.726196,539.878479 845.443542,535.860474 831.729736,527.967468 
	C822.225098,522.497131 811.667480,520.336487 800.927185,519.046082 
	C797.955627,518.689087 796.397095,518.073181 795.855469,514.479797 
	C795.454651,511.821045 793.178284,508.381561 790.823792,507.323761 
	C787.053711,505.630066 786.778809,503.683228 787.822571,499.910156 
	C794.170898,499.910156 800.401855,499.910156 806.717896,499.910156 
	C806.717896,491.725464 806.717896,484.142731 806.717896,475.996674 
	C800.828735,475.996674 795.207520,475.856537 789.597595,476.048035 
	C786.106567,476.167206 784.787537,474.826202 784.958435,471.369904 
	C785.153259,467.429199 785.003540,463.471405 785.003540,459.392731 
	C776.734253,459.392731 769.034546,459.392731 760.997253,459.392731 
	C760.997253,463.596619 760.814453,467.419403 761.048706,471.216431 
	C761.282776,475.009735 759.677429,476.193298 756.056091,476.053497 
	C750.516052,475.839630 744.961609,475.997375 739.437256,475.997375 
	C739.437256,484.381439 739.437256,492.090088 739.437256,500.300598 
	C746.130005,500.300598 752.387451,500.300598 759.719543,500.300598 
	C758.781616,502.745178 758.518921,505.474304 757.472961,505.817719 
	C751.575256,507.753876 749.710266,512.053650 749.823303,517.725342 
	C747.213135,518.215088 744.940735,518.625916 742.674744,519.069275 
	C732.052979,521.147522 721.623718,523.778564 712.189941,529.389587 
	C704.577332,533.917480 701.631592,539.439575 704.554749,547.704285 
	C708.747498,559.558594 714.032043,571.026794 719.148560,583.342773 
z"/>
<path fill="#BE804C" opacity="1.000000" stroke="none" 
	d="
M663.984436,227.982849 
	C663.967896,300.428284 663.967896,372.889893 663.967896,445.820160 
	C661.979797,445.948517 660.383667,446.141388 658.787537,446.141724 
	C589.626282,446.156708 520.464966,446.111755 451.303986,446.254272 
	C446.842926,446.263458 445.742401,445.005981 445.750885,440.638794 
	C445.885254,371.644470 445.845245,302.649811 445.845215,233.655212 
	C445.845215,232.021164 445.845245,230.387115 445.845245,228.008835 
	C518.574036,228.008835 590.832275,228.008835 663.561890,228.020447 
	C664.033264,228.032059 664.000977,227.999008 663.984436,227.982849 
z"/>
<path fill="#BE804C" opacity="1.000000" stroke="none" 
	d="
M227.015259,665.017456 
	C227.031952,592.571899 227.031952,520.110413 227.031952,447.180176 
	C229.020386,447.051880 230.616501,446.859131 232.212631,446.858795 
	C301.373718,446.843811 370.534882,446.888763 439.695648,446.746246 
	C444.156647,446.737061 445.257050,447.994202 445.248566,452.361481 
	C445.114197,521.355652 445.154205,590.350159 445.154205,659.344604 
	C445.154205,660.981079 445.154205,662.617493 445.154205,664.990723 
	C372.425690,664.990723 300.167511,664.990723 227.437988,664.979370 
	C226.966614,664.968018 226.998550,665.001465 227.015259,665.017456 
M309.085907,593.494629 
	C303.881287,597.791992 298.968170,602.518066 293.410950,606.296875 
	C282.100067,613.988037 276.776367,624.406494 277.167664,637.973450 
	C277.265411,641.364075 278.294342,643.161804 282.121735,643.152710 
	C318.102051,643.067200 354.082733,643.070435 390.063080,643.151001 
	C393.759827,643.159302 394.917938,641.700928 395.078461,638.118591 
	C395.790222,622.232971 388.491852,611.145691 374.962250,603.666016 
	C361.899780,596.444580 357.362000,583.691772 352.430573,569.915039 
	C357.442352,569.915039 361.545563,569.857971 365.646271,569.934326 
	C368.536560,569.988220 370.525360,569.068481 370.863708,565.898132 
	C371.251465,562.265015 371.602722,558.626648 372.073395,555.003967 
	C372.486603,551.823547 371.538940,549.688293 368.429626,548.227478 
	C365.063324,546.645935 361.970825,544.481628 358.825256,542.610962 
	C367.453278,523.537476 366.016388,509.190155 354.944641,501.020569 
	C343.201202,492.355408 327.100037,492.680786 316.750854,501.859192 
	C308.064148,509.563263 302.555206,524.575012 313.945312,542.525391 
	C310.253601,544.702942 306.387329,546.632629 302.968750,549.166321 
	C301.527771,550.234314 300.325836,552.549866 300.258514,554.344849 
	C300.135712,557.618896 301.035248,560.919128 301.332947,564.224182 
	C301.712006,568.432983 303.586548,570.436523 308.092865,569.987549 
	C311.636597,569.634583 315.243622,569.916748 319.391724,569.916748 
	C317.706116,578.968323 313.830261,586.032959 309.085907,593.494629 
z"/>
<path fill="#3B3B3B" opacity="1.000000" stroke="none" 
	d="
M73.083038,826.031555 
	C86.877945,819.401306 94.612206,808.181824 99.365456,794.501831 
	C100.002457,792.668518 100.530708,790.797363 101.375168,788.092041 
	C96.392166,788.092041 92.133430,787.998169 87.881134,788.123230 
	C84.752831,788.215210 83.213936,786.842590 83.091400,783.768799 
	C83.084770,783.602295 83.110466,783.423035 83.058136,783.271484 
	C78.965157,771.422241 84.301735,764.752808 96.314941,761.491882 
	C88.982559,751.951111 86.668388,741.906433 91.102417,731.577637 
	C93.214851,726.656860 96.905426,721.753418 101.163437,718.542847 
	C112.097130,710.298889 127.675659,711.623596 137.439316,720.681641 
	C145.653076,728.301880 151.352859,742.968811 139.851440,761.081848 
	C142.246017,762.503540 144.640457,763.912964 147.022446,765.343140 
	C148.871490,766.453491 151.389236,767.158020 152.420807,768.793030 
	C155.921600,774.341614 152.178375,779.952148 151.523300,785.492615 
	C151.394638,786.581055 147.687317,787.720032 145.526031,787.985474 
	C142.133072,788.402222 138.651306,788.096130 134.599564,788.096130 
	C136.254379,798.274231 139.976105,806.845581 146.363647,813.656799 
	C151.262177,818.880066 157.596619,822.779358 163.395569,827.130005 
	C171.307510,833.065918 175.790634,840.757080 176.212662,850.752075 
	C176.664352,861.449463 179.266174,861.920166 165.155548,861.909851 
	C131.989532,861.885620 98.823494,861.907104 65.657471,861.898010 
	C59.092258,861.896179 59.173393,861.793091 58.966885,855.136658 
	C58.592560,843.071167 63.286564,833.522095 73.083038,826.031555 
M131.413757,723.622131 
	C125.148743,717.848755 115.229843,716.655334 107.209862,720.872437 
	C96.165047,726.504089 91.547539,737.952271 95.816696,749.826050 
	C97.552834,752.794312 99.114319,755.884766 101.078606,758.693481 
	C102.745232,761.076538 102.977341,762.813904 100.183189,764.344543 
	C98.731430,765.139893 97.400726,766.156372 95.948120,766.949890 
	C87.063492,771.803284 87.053986,771.791931 88.237457,781.798401 
	C88.270958,782.081665 88.539803,782.337036 88.755966,782.701599 
	C89.157112,782.787476 89.628868,782.977478 90.100258,782.976562 
	C106.053452,782.945862 122.006615,782.897095 138.860489,782.969177 
	C141.494629,782.969177 144.128784,782.969177 146.790985,782.969177 
	C147.128372,781.498596 147.359436,780.373535 147.646027,779.262817 
	C148.824936,774.693909 148.497940,770.965820 143.180847,769.055420 
	C140.585953,768.123047 138.315430,766.300842 135.875488,764.921387 
	C132.494080,763.009583 131.978470,761.042236 134.919601,757.975037 
	C140.754181,751.890442 142.352417,744.187439 140.592102,736.306885 
	C139.501175,731.423096 137.774765,726.038757 131.413757,723.622131 
M65.920341,856.410828 
	C100.826996,856.410828 135.733643,856.410828 170.567322,856.410828 
	C172.605499,844.023010 166.052124,832.694763 154.007782,827.165039 
	C143.982803,821.517639 137.941574,812.571411 133.368591,802.370667 
	C131.234253,797.609680 130.100189,790.782593 126.399559,788.761780 
	C122.037308,786.379639 115.386497,788.184753 109.727974,788.184998 
	C109.064377,788.184998 108.130470,787.991943 107.793205,788.342224 
	C107.079849,789.083069 106.678040,790.123962 105.935059,791.638000 
	C105.925323,792.224731 105.915588,792.811523 105.355812,793.758301 
	C105.240265,794.171387 105.124718,794.584412 104.568520,795.477356 
	C104.542618,795.908997 104.516708,796.340576 104.065453,797.319702 
	C99.376770,809.360901 93.431465,820.361877 81.552612,827.067383 
	C77.716797,829.232666 73.911263,831.930237 71.034470,835.210938 
	C65.885330,841.083130 62.561459,847.893738 65.920341,856.410828 
z"/>
<path fill="#464442" opacity="1.000000" stroke="none" 
	d="
M63.814404,342.227844 
	C57.400398,333.077301 51.303886,324.143829 44.900532,315.436035 
	C42.192543,311.753510 43.254448,310.061157 46.994133,308.407867 
	C51.724037,306.316895 56.004436,307.286072 60.422859,309.256531 
	C66.988762,312.184631 68.704468,311.807037 69.402412,304.984802 
	C69.831406,300.791565 72.459412,297.752380 77.019943,296.822144 
	C78.155579,296.590515 79.466034,295.753143 80.109604,294.798706 
	C86.402664,285.465759 94.243523,278.152069 105.500130,275.195312 
	C98.948746,264.371521 99.089645,257.473969 105.762306,251.911804 
	C112.499290,246.296036 123.030807,246.264084 129.197189,251.840714 
	C136.339951,258.300385 136.527176,265.081451 129.652695,274.993225 
	C140.328537,278.510071 148.946747,284.620270 154.697388,294.430389 
	C155.296661,295.452667 156.663696,296.538361 157.776077,296.659149 
	C163.102737,297.237518 164.882706,300.854462 165.984863,305.344757 
	C167.537567,311.670563 168.433334,312.102936 174.520721,309.653320 
	C179.009369,307.846985 183.419525,305.795502 188.360062,308.254456 
	C192.754318,310.441528 193.112549,311.925507 190.317841,315.925781 
	C183.477966,325.716248 176.332169,335.321259 170.015427,345.441528 
	C162.708649,357.147919 158.271011,369.950836 157.841858,383.982788 
	C157.750504,386.969788 158.777527,388.250397 161.433395,388.800659 
	C178.806046,392.400177 180.674606,406.848846 179.745972,421.069000 
	C179.657486,422.424225 177.350677,423.675629 175.984283,424.873199 
	C175.696579,425.125366 175.015793,424.938141 174.516144,424.938171 
	C136.689621,424.939606 98.863045,424.909149 61.036697,424.989868 
	C57.532120,424.997345 55.925888,423.826630 55.554081,420.239166 
	C54.781673,412.786316 55.802151,405.661804 58.923538,398.901215 
	C61.174133,394.026703 65.602676,391.660828 70.410355,389.952972 
	C72.749588,389.122009 75.146225,388.452606 77.812729,387.617401 
	C77.991982,371.071594 72.382080,356.390656 63.814404,342.227844 
M123.365791,254.667023 
	C117.580963,251.827301 111.767899,252.616959 108.033852,256.999664 
	C105.311371,260.195099 104.847137,263.891388 106.931076,267.599854 
	C109.511375,272.191559 115.184196,274.329895 120.749413,272.967896 
	C121.529320,272.777069 122.223236,272.234863 123.661453,271.880341 
	C131.085693,266.384827 131.207214,259.399475 123.365791,254.667023 
M177.975845,314.913544 
	C177.975845,314.913544 177.915375,314.842896 177.123474,314.479492 
	C175.713852,314.969482 174.328445,315.550446 172.890366,315.933624 
	C166.892426,317.531921 163.353516,315.531952 161.490906,309.524475 
	C161.196671,308.575500 161.068039,307.576385 160.832230,306.607880 
	C159.732544,302.091461 157.052185,300.774506 152.709915,302.682617 
	C151.191315,303.349976 149.691345,304.095825 148.278290,304.961548 
	C136.973450,311.887604 133.851761,311.478485 124.738312,301.784088 
	C118.797569,295.464630 115.713310,295.564453 110.318291,302.250732 
	C103.751465,310.389282 98.799706,311.432251 89.579353,306.558380 
	C88.122643,305.788361 86.784126,304.797974 85.349770,303.981903 
	C78.197098,299.912384 75.825165,300.956085 74.000641,308.939789 
	C72.485748,315.568604 68.324348,317.885651 61.805817,315.667847 
	C59.291939,314.812561 56.860081,313.694458 54.313618,312.966156 
	C53.102802,312.619873 51.710930,312.906677 49.947102,312.906677 
	C65.684196,336.026978 83.555183,357.271240 83.095833,386.961121 
	C86.798759,386.587250 89.902740,386.109863 93.020630,385.987915 
	C105.320618,385.506897 117.624969,385.137512 130.831985,384.974884 
	C137.747955,385.555084 144.663925,386.135315 152.228226,386.769928 
	C152.143234,357.494659 168.839523,335.507965 184.446075,312.521301 
	C182.623230,312.964233 180.800369,313.407166 178.327332,313.983429 
	C178.185867,314.312714 178.044403,314.641968 177.975845,314.913544 
M137.690842,304.054413 
	C141.890137,302.082764 146.089432,300.111115 150.552185,298.015747 
	C146.113083,291.531097 142.135406,286.000519 134.724518,283.184418 
	C121.234085,274.855316 95.059906,277.525696 85.382057,297.828064 
	C86.397110,298.376038 87.453362,298.865906 88.427811,299.484589 
	C99.131958,306.280914 100.850716,306.135162 107.434669,297.542999 
	C107.835915,297.019348 108.361412,296.589539 108.838165,296.125397 
	C114.631721,290.484802 121.641434,290.618805 127.217255,296.525513 
	C128.925461,298.335144 130.327423,300.487274 132.230377,302.040558 
	C133.467026,303.049988 135.356125,303.260071 137.690842,304.054413 
M64.490082,400.495148 
	C60.691212,406.212616 60.737663,412.557220 60.990444,419.012329 
	C99.139496,419.012329 136.807770,419.012329 174.850174,419.012329 
	C174.240005,412.107574 175.130112,405.346832 169.909103,399.272644 
	C166.322495,397.435516 162.910950,394.649414 159.114639,393.949097 
	C149.819275,392.234344 140.374466,391.043243 130.938690,390.436920 
	C112.462112,389.249603 94.001610,389.939941 75.884834,394.039978 
	C72.016655,394.915375 68.638260,397.955017 64.490082,400.495148 
z"/>
<path fill="#3D3C3C" opacity="1.000000" stroke="none" 
	d="
M718.999512,583.001282 
	C714.032043,571.026794 708.747498,559.558594 704.554749,547.704285 
	C701.631592,539.439575 704.577332,533.917480 712.189941,529.389587 
	C721.623718,523.778564 732.052979,521.147522 742.674744,519.069275 
	C744.940735,518.625916 747.213135,518.215088 749.823303,517.725342 
	C749.710266,512.053650 751.575256,507.753876 757.472961,505.817719 
	C758.518921,505.474304 758.781616,502.745178 759.719543,500.300598 
	C752.387451,500.300598 746.130005,500.300598 739.437256,500.300598 
	C739.437256,492.090088 739.437256,484.381439 739.437256,475.997375 
	C744.961609,475.997375 750.516052,475.839630 756.056091,476.053497 
	C759.677429,476.193298 761.282776,475.009735 761.048706,471.216431 
	C760.814453,467.419403 760.997253,463.596619 760.997253,459.392731 
	C769.034546,459.392731 776.734253,459.392731 785.003540,459.392731 
	C785.003540,463.471405 785.153259,467.429199 784.958435,471.369904 
	C784.787537,474.826202 786.106567,476.167206 789.597595,476.048035 
	C795.207520,475.856537 800.828735,475.996674 806.717896,475.996674 
	C806.717896,484.142731 806.717896,491.725464 806.717896,499.910156 
	C800.401855,499.910156 794.170898,499.910156 787.822571,499.910156 
	C786.778809,503.683228 787.053711,505.630066 790.823792,507.323761 
	C793.178284,508.381561 795.454651,511.821045 795.855469,514.479797 
	C796.397095,518.073181 797.955627,518.689087 800.927185,519.046082 
	C811.667480,520.336487 822.225098,522.497131 831.729736,527.967468 
	C845.443542,535.860474 844.726196,539.878479 840.877869,551.550110 
	C836.485901,564.870728 829.822876,577.458313 823.905334,590.252808 
	C821.340576,595.798035 818.171875,601.063904 815.088501,606.808777 
	C825.104004,608.525574 832.212769,613.577576 834.109253,623.586243 
	C835.147278,629.064087 834.823303,634.821289 834.818726,640.452332 
	C834.818054,641.302307 833.343506,642.510498 832.304749,642.904907 
	C831.130981,643.350464 829.679504,643.092163 828.348755,643.092346 
	C791.535706,643.097351 754.722595,643.099304 717.909546,643.093750 
	C711.182922,643.092773 710.736328,642.895508 711.090576,635.986267 
	C711.359131,630.748474 711.953369,625.410645 713.345398,620.378052 
	C714.923889,614.671570 718.979004,610.728760 724.831970,608.900085 
	C726.863708,608.265259 728.832764,607.430054 731.177185,606.557373 
	C727.058838,598.609192 723.103699,590.976013 718.999512,583.001282 
M719.464172,619.066589 
	C719.359070,619.368469 719.253967,619.670349 718.826172,620.670410 
	C716.122681,626.105774 715.412048,631.776428 716.554810,637.666199 
	C754.481567,637.666199 792.146118,637.666199 830.019836,637.666199 
	C829.879150,630.481628 830.838074,623.417175 824.839661,617.303040 
	C822.914429,616.187988 821.103455,614.433167 819.044678,614.065369 
	C808.481384,612.178162 797.902649,610.095093 787.234741,609.160522 
	C778.011597,608.352600 768.620789,608.444458 759.378479,609.134460 
	C748.823730,609.922485 738.290710,611.488281 727.882202,613.432861 
	C724.992371,613.972717 722.577759,617.055847 719.989990,619.005676 
	C719.989990,619.005676 719.979126,618.950928 719.464172,619.066589 
M748.912170,494.980164 
	C753.839844,494.980164 758.767578,494.980164 764.126038,494.980164 
	C764.126038,498.983795 764.126038,502.388763 764.126038,505.856903 
	C769.038696,505.856903 773.503845,505.856903 778.825562,505.974365 
	C779.867126,505.055023 781.546631,504.287811 781.810120,503.182953 
	C782.278259,501.219543 781.888306,499.051483 782.020508,496.112427 
	C783.110352,495.741760 784.188660,495.095673 785.292175,495.049316 
	C789.504883,494.872253 793.725830,494.888428 798.793152,494.969940 
	C799.809570,494.136322 801.560303,493.411255 801.702637,492.448425 
	C802.104431,489.730530 801.682495,486.902802 801.890198,484.141266 
	C802.136536,480.867065 800.363831,480.687286 797.023865,481.031677 
	C793.869080,481.020905 790.714233,481.002625 787.559448,481.000763 
	C779.860840,480.996246 779.860535,480.999329 779.858276,473.037292 
	C779.857422,470.117310 779.858154,467.197296 779.858154,464.279541 
	C774.944702,464.279541 770.707336,464.279541 766.114380,464.279541 
	C766.114380,468.189758 765.818237,471.841522 766.188354,475.424408 
	C766.665710,480.045624 764.373413,481.117065 760.426880,481.031494 
	C756.282593,480.941620 752.132690,481.108917 747.111145,481.017548 
	C746.074768,481.775665 744.213745,482.464508 744.143188,483.303741 
	C743.821289,487.135895 744.001953,491.010284 744.001953,494.836151 
	C745.710754,494.836151 746.847900,494.836151 748.912170,494.980164 
M757.393127,522.156372 
	C756.907959,522.394470 756.422729,522.632568 755.149048,522.956116 
	C754.096375,523.015259 753.043701,523.074402 751.268616,523.045654 
	C750.168884,523.342041 749.069092,523.638428 747.304321,523.962769 
	C746.866455,524.020569 746.428650,524.078308 745.142090,524.061829 
	C734.149048,525.768311 723.233215,527.974121 713.802979,534.186462 
	C711.226501,535.883789 708.159241,539.611450 708.362427,542.165039 
	C708.763855,547.208496 711.292358,552.082703 713.008362,557.794312 
	C720.597900,573.240601 728.155090,588.703186 735.857117,604.093201 
	C736.321777,605.021606 737.956116,605.924866 739.018982,605.894348 
	C743.086609,605.777283 747.181519,605.513855 751.196838,604.871277 
	C765.668640,602.555237 780.094299,602.583069 794.598022,604.711609 
	C798.963928,605.352295 803.500549,604.829590 808.687439,604.973083 
	C809.479126,604.230469 810.539185,603.630493 811.021362,602.723328 
	C816.686401,592.065369 822.685547,581.555115 827.729309,570.606445 
	C831.584717,562.237427 834.287231,553.327759 837.329712,544.598328 
	C838.564575,541.055298 837.237427,538.247681 834.187195,535.991394 
	C823.712646,528.243164 811.542847,525.602722 798.147766,523.841675 
	C797.164185,523.885010 796.105652,524.189758 795.208374,523.932251 
	C782.919495,520.404907 770.412415,522.314697 757.393127,522.156372 
M774.255615,516.299255 
	C779.021790,516.497375 783.788025,516.793457 788.554199,516.794373 
	C789.323608,516.794495 790.464661,515.597900 790.736511,514.734863 
	C790.927979,514.126892 790.130737,512.767944 789.434998,512.415771 
	C788.160095,511.770447 786.640198,511.343262 785.211548,511.311188 
	C776.740601,511.120911 768.265930,510.970673 759.793701,511.019135 
	C756.152100,511.040009 754.550110,513.039612 755.399780,517.273132 
	C761.553589,516.912537 767.453186,516.566833 774.255615,516.299255 
z"/>
<path fill="#403F3F" opacity="1.000000" stroke="none" 
	d="
M309.296906,593.202515 
	C313.830261,586.032959 317.706116,578.968323 319.391724,569.916748 
	C315.243622,569.916748 311.636597,569.634583 308.092865,569.987549 
	C303.586548,570.436523 301.712006,568.432983 301.332947,564.224182 
	C301.035248,560.919128 300.135712,557.618896 300.258514,554.344849 
	C300.325836,552.549866 301.527771,550.234314 302.968750,549.166321 
	C306.387329,546.632629 310.253601,544.702942 313.945312,542.525391 
	C302.555206,524.575012 308.064148,509.563263 316.750854,501.859192 
	C327.100037,492.680786 343.201202,492.355408 354.944641,501.020569 
	C366.016388,509.190155 367.453278,523.537476 358.825256,542.610962 
	C361.970825,544.481628 365.063324,546.645935 368.429626,548.227478 
	C371.538940,549.688293 372.486603,551.823547 372.073395,555.003967 
	C371.602722,558.626648 371.251465,562.265015 370.863708,565.898132 
	C370.525360,569.068481 368.536560,569.988220 365.646271,569.934326 
	C361.545563,569.857971 357.442352,569.915039 352.430573,569.915039 
	C357.362000,583.691772 361.899780,596.444580 374.962250,603.666016 
	C388.491852,611.145691 395.790222,622.232971 395.078461,638.118591 
	C394.917938,641.700928 393.759827,643.159302 390.063080,643.151001 
	C354.082733,643.070435 318.102051,643.067200 282.121735,643.152710 
	C278.294342,643.161804 277.265411,641.364075 277.167664,637.973450 
	C276.776367,624.406494 282.100067,613.988037 293.410950,606.296875 
	C298.968170,602.518066 303.881287,597.791992 309.296906,593.202515 
M328.271729,501.178223 
	C315.970917,506.107513 310.230499,517.204041 313.872284,529.831421 
	C315.532501,532.986145 317.227356,536.123352 318.837830,539.303223 
	C319.601807,540.811646 320.204742,542.401672 320.266388,544.241760 
	C319.020721,545.229858 317.834686,546.307007 316.517822,547.188782 
	C313.062134,549.502563 309.549469,551.731384 305.874023,554.863037 
	C306.260803,558.051086 306.647583,561.239197 306.993073,564.086792 
	C324.226807,564.086792 340.628510,564.086792 357.919495,564.301147 
	C365.561829,564.430542 365.338074,564.394409 366.522186,557.062988 
	C366.998444,554.114380 366.039124,552.833923 363.678680,551.670959 
	C361.168549,550.434265 358.814514,548.884033 356.368927,547.512451 
	C350.034790,543.959900 350.050598,543.985535 354.532379,538.300598 
	C362.740936,527.888489 360.804626,511.318939 350.321259,504.875244 
	C343.877167,499.778015 336.765778,498.548370 328.271729,501.178223 
M369.864288,607.077148 
	C359.639343,600.112549 354.206177,589.787231 349.799896,578.687927 
	C346.295380,569.860168 346.207092,569.788635 336.432434,569.948120 
	C332.661194,570.009644 328.899841,570.673767 324.914246,571.708313 
	C324.569946,572.787720 324.225677,573.867188 323.237244,575.309082 
	C319.488586,589.314758 312.742889,601.211243 299.712860,608.666992 
	C289.094788,614.742737 282.241455,623.127075 282.803986,636.974548 
	C284.311157,637.314026 285.817810,637.947205 287.325562,637.949829 
	C320.074463,638.006531 352.823486,637.995239 385.572479,637.984253 
	C386.859894,637.983826 388.147247,637.856201 389.865936,637.764954 
	C389.756622,635.357361 389.830505,633.233765 389.537964,631.161926 
	C387.872803,619.368835 380.413635,612.329224 369.864288,607.077148 
z"/>
<path fill="#F0F0F0" opacity="1.000000" stroke="none" 
	d="
M154.328720,827.786682 
	C166.052124,832.694763 172.605499,844.023010 170.567322,856.410828 
	C135.733643,856.410828 100.826996,856.410828 65.496033,855.901794 
	C68.994827,844.336975 76.227844,835.941223 86.172707,829.969910 
	C97.886940,822.935974 103.815872,812.459106 105.356812,799.194397 
	C105.445511,798.430786 104.796486,797.581604 104.490799,796.772217 
	C104.516708,796.340576 104.542618,795.908997 105.039490,795.040771 
	C105.642250,794.202209 105.774048,793.800232 105.905853,793.398254 
	C105.915588,792.811523 105.925323,792.224731 106.384521,791.351318 
	C108.064140,792.334045 109.518127,793.453003 110.488045,794.897095 
	C116.633560,804.046936 123.594543,812.480896 132.610001,818.911804 
	C139.093307,823.536438 145.958008,827.604858 154.328720,827.786682 
z"/>
<path fill="#F0F0F0" opacity="1.000000" stroke="none" 
	d="
M107.927666,720.796326 
	C115.229843,716.655334 125.148743,717.848755 131.736328,724.151123 
	C142.042633,738.923035 138.240448,748.029175 127.954979,757.447510 
	C125.955086,759.278870 123.492546,760.604980 120.576317,762.626587 
	C124.137215,764.437683 126.863152,765.985901 129.716263,767.246216 
	C140.111252,771.838135 140.127258,771.801880 137.959778,782.850952 
	C122.006615,782.897095 106.053452,782.945862 90.100258,782.976562 
	C89.628868,782.977478 89.157112,782.787476 88.755966,782.701599 
	C88.539803,782.337036 88.270958,782.081665 88.237457,781.798401 
	C87.053986,771.791931 87.063492,771.803284 95.948120,766.949890 
	C97.400726,766.156372 98.731430,765.139893 100.183189,764.344543 
	C102.977341,762.813904 102.745232,761.076538 101.078606,758.693481 
	C99.114319,755.884766 97.552834,752.794312 96.140808,749.190796 
	C97.067955,739.374268 100.299690,731.266235 106.243279,724.213074 
	C107.037628,723.270447 107.377380,721.944641 107.927666,720.796326 
z"/>
<path fill="#CACACA" opacity="1.000000" stroke="none" 
	d="
M154.168243,827.475830 
	C145.958008,827.604858 139.093307,823.536438 132.610001,818.911804 
	C123.594543,812.480896 116.633560,804.046936 110.488045,794.897095 
	C109.518127,793.453003 108.064140,792.334045 106.491226,791.053223 
	C106.678040,790.123962 107.079849,789.083069 107.793205,788.342224 
	C108.130470,787.991943 109.064377,788.184998 109.727974,788.184998 
	C115.386497,788.184753 122.037308,786.379639 126.399559,788.761780 
	C130.100189,790.782593 131.234253,797.609680 133.368591,802.370667 
	C137.941574,812.571411 143.982803,821.517639 154.168243,827.475830 
z"/>
<path fill="#CBCBCB" opacity="1.000000" stroke="none" 
	d="
M138.410126,782.910034 
	C140.127258,771.801880 140.111252,771.838135 129.716263,767.246216 
	C126.863152,765.985901 124.137215,764.437683 120.576317,762.626587 
	C123.492546,760.604980 125.955086,759.278870 127.954979,757.447510 
	C138.240448,748.029175 142.042633,738.923035 132.035553,724.321899 
	C137.774765,726.038757 139.501175,731.423096 140.592102,736.306885 
	C142.352417,744.187439 140.754181,751.890442 134.919601,757.975037 
	C131.978470,761.042236 132.494080,763.009583 135.875488,764.921387 
	C138.315430,766.300842 140.585953,768.123047 143.180847,769.055420 
	C148.497940,770.965820 148.824936,774.693909 147.646027,779.262817 
	C147.359436,780.373535 147.128372,781.498596 146.790985,782.969177 
	C144.128784,782.969177 141.494629,782.969177 138.410126,782.910034 
z"/>
<path fill="#FAFAFA" opacity="1.000000" stroke="none" 
	d="
M104.278122,797.045959 
	C104.796486,797.581604 105.445511,798.430786 105.356812,799.194397 
	C103.815872,812.459106 97.886940,822.935974 86.172707,829.969910 
	C76.227844,835.941223 68.994827,844.336975 65.043602,855.769836 
	C62.561459,847.893738 65.885330,841.083130 71.034470,835.210938 
	C73.911263,831.930237 77.716797,829.232666 81.552612,827.067383 
	C93.431465,820.361877 99.376770,809.360901 104.278122,797.045959 
z"/>
<path fill="#F4F4F4" opacity="1.000000" stroke="none" 
	d="
M107.568756,720.834351 
	C107.377380,721.944641 107.037628,723.270447 106.243279,724.213074 
	C100.299690,731.266235 97.067955,739.374268 96.149094,748.816895 
	C91.547539,737.952271 96.165047,726.504089 107.568756,720.834351 
z"/>
<path fill="#FAFAFA" opacity="1.000000" stroke="none" 
	d="
M105.630829,793.578247 
	C105.774048,793.800232 105.642250,794.202209 105.259811,794.800842 
	C105.124718,794.584412 105.240265,794.171387 105.630829,793.578247 
z"/>
<path fill="#F2F2F2" opacity="1.000000" stroke="none" 
	d="
M129.927704,384.726715 
	C117.624969,385.137512 105.320618,385.506897 93.020630,385.987915 
	C89.902740,386.109863 86.798759,386.587250 83.095833,386.961121 
	C83.555183,357.271240 65.684196,336.026978 49.947102,312.906677 
	C51.710930,312.906677 53.102802,312.619873 54.313618,312.966156 
	C56.860081,313.694458 59.291939,314.812561 61.805817,315.667847 
	C68.324348,317.885651 72.485748,315.568604 74.000641,308.939789 
	C75.825165,300.956085 78.197098,299.912384 85.349770,303.981903 
	C86.784126,304.797974 88.122643,305.788361 89.579353,306.558380 
	C98.799706,311.432251 103.751465,310.389282 110.318291,302.250732 
	C115.713310,295.564453 118.797569,295.464630 124.738312,301.784088 
	C133.851761,311.478485 136.973450,311.887604 148.278290,304.961548 
	C149.691345,304.095825 151.191315,303.349976 152.709915,302.682617 
	C157.052185,300.774506 159.732544,302.091461 160.832230,306.607880 
	C161.068039,307.576385 161.196671,308.575500 161.490906,309.524475 
	C163.353516,315.531952 166.892426,317.531921 172.890366,315.933624 
	C174.328445,315.550446 175.713852,314.969482 177.513367,315.016174 
	C171.967377,323.273895 165.685028,330.756805 160.176804,338.771759 
	C151.920975,350.784729 144.221664,363.179718 136.256287,375.393036 
	C134.203186,378.541077 132.040207,381.617432 129.927704,384.726715 
z"/>
<path fill="#F0F0F0" opacity="1.000000" stroke="none" 
	d="
M170.139969,399.951904 
	C175.130112,405.346832 174.240005,412.107574 174.850174,419.012329 
	C136.807770,419.012329 99.139496,419.012329 60.990444,419.012329 
	C60.737663,412.557220 60.691212,406.212616 65.146088,400.243408 
	C68.950661,398.984650 72.034241,397.500122 75.260124,397.061005 
	C84.590538,395.790771 94.003212,395.128815 103.337891,393.884979 
	C119.801445,391.691254 136.098709,393.586365 152.355865,395.743164 
	C158.364273,396.540314 164.216507,398.514557 170.139969,399.951904 
z"/>
<path fill="#ECECEC" opacity="1.000000" stroke="none" 
	d="
M136.952927,303.828247 
	C135.356125,303.260071 133.467026,303.049988 132.230377,302.040558 
	C130.327423,300.487274 128.925461,298.335144 127.217255,296.525513 
	C121.641434,290.618805 114.631721,290.484802 108.838165,296.125397 
	C108.361412,296.589539 107.835915,297.019348 107.434669,297.542999 
	C100.850716,306.135162 99.131958,306.280914 88.427811,299.484589 
	C87.453362,298.865906 86.397110,298.376038 85.382057,297.828064 
	C95.059906,277.525696 121.234085,274.855316 134.872482,283.876373 
	C137.592453,290.794861 138.920807,297.146179 136.952927,303.828247 
z"/>
<path fill="#CCCCCC" opacity="1.000000" stroke="none" 
	d="
M130.379852,384.850800 
	C132.040207,381.617432 134.203186,378.541077 136.256287,375.393036 
	C144.221664,363.179718 151.920975,350.784729 160.176804,338.771759 
	C165.685028,330.756805 171.967377,323.273895 177.909332,315.197876 
	C177.915375,314.842896 177.975845,314.913544 178.189026,314.835022 
	C178.593979,314.454346 178.785751,314.152222 178.977509,313.850098 
	C180.800369,313.407166 182.623230,312.964233 184.446075,312.521301 
	C168.839523,335.507965 152.143234,357.494659 152.228226,386.769928 
	C144.663925,386.135315 137.747955,385.555084 130.379852,384.850800 
z"/>
<path fill="#EDEDED" opacity="1.000000" stroke="none" 
	d="
M122.956955,271.855286 
	C122.223236,272.234863 121.529320,272.777069 120.749413,272.967896 
	C115.184196,274.329895 109.511375,272.191559 106.931076,267.599854 
	C104.847137,263.891388 105.311371,260.195099 108.033852,256.999664 
	C111.767899,252.616959 117.580963,251.827301 123.674805,255.317963 
	C123.641533,261.264343 123.299248,266.559814 122.956955,271.855286 
z"/>
<path fill="#F8F8F8" opacity="1.000000" stroke="none" 
	d="
M170.024536,399.612274 
	C164.216507,398.514557 158.364273,396.540314 152.355865,395.743164 
	C136.098709,393.586365 119.801445,391.691254 103.337891,393.884979 
	C94.003212,395.128815 84.590538,395.790771 75.260124,397.061005 
	C72.034241,397.500122 68.950661,398.984650 65.418152,399.994629 
	C68.638260,397.955017 72.016655,394.915375 75.884834,394.039978 
	C94.001610,389.939941 112.462112,389.249603 130.938690,390.436920 
	C140.374466,391.043243 149.819275,392.234344 159.114639,393.949097 
	C162.910950,394.649414 166.322495,397.435516 170.024536,399.612274 
z"/>
<path fill="#CACACA" opacity="1.000000" stroke="none" 
	d="
M137.321884,303.941345 
	C138.920807,297.146179 137.592453,290.794861 135.076324,284.166931 
	C142.135406,286.000519 146.113083,291.531097 150.552185,298.015747 
	C146.089432,300.111115 141.890137,302.082764 137.321884,303.941345 
z"/>
<path fill="#CBCBCB" opacity="1.000000" stroke="none" 
	d="
M123.309204,271.867798 
	C123.299248,266.559814 123.641533,261.264343 123.968079,255.563843 
	C131.207214,259.399475 131.085693,266.384827 123.309204,271.867798 
z"/>
<path fill="#F2F2F2" opacity="1.000000" stroke="none" 
	d="
M178.652420,313.916748 
	C178.785751,314.152222 178.593979,314.454346 178.152588,314.863861 
	C178.044403,314.641968 178.185867,314.312714 178.652420,313.916748 
z"/>
<path fill="#F0F0F0" opacity="1.000000" stroke="none" 
	d="
M745.990784,524.136108 
	C746.428650,524.078308 746.866455,524.020569 747.844849,524.223022 
	C749.587341,524.033325 750.789185,523.583435 751.991028,523.133545 
	C753.043701,523.074402 754.096375,523.015259 755.683289,523.150391 
	C756.805847,523.012817 757.394165,522.680908 757.982483,522.348938 
	C770.412415,522.314697 782.919495,520.404907 795.208374,523.932251 
	C796.105652,524.189758 797.164185,523.885010 798.615784,524.284058 
	C800.302063,525.489868 801.516724,526.259094 802.739258,527.015747 
	C806.956421,529.625854 811.626221,531.717529 815.307190,534.939453 
	C824.704407,543.164917 825.605957,554.147034 822.280701,565.104675 
	C818.197754,578.559448 812.792603,591.612915 807.958984,604.839844 
	C803.500549,604.829590 798.963928,605.352295 794.598022,604.711609 
	C780.094299,602.583069 765.668640,602.555237 751.196838,604.871277 
	C747.181519,605.513855 743.086609,605.777283 739.018982,605.894348 
	C737.956116,605.924866 736.321777,605.021606 735.857117,604.093201 
	C728.155090,588.703186 720.597900,573.240601 713.248230,557.172546 
	C711.841492,547.179321 713.646484,538.867737 722.430054,533.957336 
	C727.814758,530.947021 733.955505,529.297607 739.731689,526.974792 
	C741.855164,526.120789 743.906555,525.087585 745.990784,524.136108 
z"/>
<path fill="#F0F0F0" opacity="1.000000" stroke="none" 
	d="
M825.153931,617.947815 
	C830.838074,623.417175 829.879150,630.481628 830.019836,637.666199 
	C792.146118,637.666199 754.481567,637.666199 716.554810,637.666199 
	C715.412048,631.776428 716.122681,626.105774 719.182739,620.203735 
	C719.765564,619.519592 719.912231,619.257568 719.979126,618.950928 
	C719.979126,618.950928 719.989990,619.005676 720.340942,618.953857 
	C722.553040,618.201294 724.382324,617.396362 726.280334,616.816528 
	C739.412598,612.805420 752.930115,611.682983 766.549988,612.062744 
	C779.795959,612.431946 793.054016,613.000427 806.253967,614.109680 
	C812.616516,614.644409 818.857788,616.623047 825.153931,617.947815 
z"/>
<path fill="#EFEFEF" opacity="1.000000" stroke="none" 
	d="
M777.969055,505.856903 
	C773.503845,505.856903 769.038696,505.856903 764.126038,505.856903 
	C764.126038,502.388763 764.126038,498.983795 764.126038,494.980164 
	C758.767578,494.980164 753.839844,494.980164 748.454102,494.455322 
	C747.992432,489.674927 747.988831,485.419373 747.985229,481.163849 
	C752.132690,481.108917 756.282593,480.941620 760.426880,481.031494 
	C764.373413,481.117065 766.665710,480.045624 766.188354,475.424408 
	C765.818237,471.841522 766.114380,468.189758 766.114380,464.279541 
	C770.707336,464.279541 774.944702,464.279541 779.858154,464.279541 
	C779.858154,467.197296 779.857422,470.117310 779.858276,473.037292 
	C779.860535,480.999329 779.860840,480.996246 787.559448,481.000763 
	C790.714233,481.002625 793.869080,481.020905 797.503662,481.551208 
	C797.970215,486.324646 797.956909,490.578522 797.943665,494.832428 
	C793.725830,494.888428 789.504883,494.872253 785.292175,495.049316 
	C784.188660,495.095673 783.110352,495.741760 781.550415,496.570221 
	C775.533875,498.381897 779.091858,502.944153 777.969055,505.856903 
z"/>
<path fill="#CCCCCC" opacity="1.000000" stroke="none" 
	d="
M808.323242,604.906494 
	C812.792603,591.612915 818.197754,578.559448 822.280701,565.104675 
	C825.605957,554.147034 824.704407,543.164917 815.307190,534.939453 
	C811.626221,531.717529 806.956421,529.625854 802.739258,527.015747 
	C801.516724,526.259094 800.302063,525.489868 799.038330,524.375793 
	C811.542847,525.602722 823.712646,528.243164 834.187195,535.991394 
	C837.237427,538.247681 838.564575,541.055298 837.329712,544.598328 
	C834.287231,553.327759 831.584717,562.237427 827.729309,570.606445 
	C822.685547,581.555115 816.686401,592.065369 811.021362,602.723328 
	C810.539185,603.630493 809.479126,604.230469 808.323242,604.906494 
z"/>
<path fill="#FAFAFA" opacity="1.000000" stroke="none" 
	d="
M824.996826,617.625427 
	C818.857788,616.623047 812.616516,614.644409 806.253967,614.109680 
	C793.054016,613.000427 779.795959,612.431946 766.549988,612.062744 
	C752.930115,611.682983 739.412598,612.805420 726.280334,616.816528 
	C724.382324,617.396362 722.553040,618.201294 720.318542,618.937134 
	C722.577759,617.055847 724.992371,613.972717 727.882202,613.432861 
	C738.290710,611.488281 748.823730,609.922485 759.378479,609.134460 
	C768.620789,608.444458 778.011597,608.352600 787.234741,609.160522 
	C797.902649,610.095093 808.481384,612.178162 819.044678,614.065369 
	C821.103455,614.433167 822.914429,616.187988 824.996826,617.625427 
z"/>
<path fill="#E3E3E3" opacity="1.000000" stroke="none" 
	d="
M773.804199,516.260193 
	C767.453186,516.566833 761.553589,516.912537 755.399780,517.273132 
	C754.550110,513.039612 756.152100,511.040009 759.793701,511.019135 
	C768.265930,510.970673 776.740601,511.120911 785.211548,511.311188 
	C786.640198,511.343262 788.160095,511.770447 789.434998,512.415771 
	C790.130737,512.767944 790.927979,514.126892 790.736511,514.734863 
	C790.464661,515.597900 789.323608,516.794495 788.554199,516.794373 
	C783.788025,516.793457 779.021790,516.497375 773.804199,516.260193 
z"/>
<path fill="#FAFAFA" opacity="1.000000" stroke="none" 
	d="
M745.566406,524.098999 
	C743.906555,525.087585 741.855164,526.120789 739.731689,526.974792 
	C733.955505,529.297607 727.814758,530.947021 722.430054,533.957336 
	C713.646484,538.867737 711.841492,547.179321 713.214722,556.788818 
	C711.292358,552.082703 708.763855,547.208496 708.362427,542.165039 
	C708.159241,539.611450 711.226501,535.883789 713.802979,534.186462 
	C723.233215,527.974121 734.149048,525.768311 745.566406,524.098999 
z"/>
<path fill="#C3C3C3" opacity="1.000000" stroke="none" 
	d="
M798.368408,494.901184 
	C797.956909,490.578522 797.970215,486.324646 797.963623,481.618530 
	C800.363831,480.687286 802.136536,480.867065 801.890198,484.141266 
	C801.682495,486.902802 802.104431,489.730530 801.702637,492.448425 
	C801.560303,493.411255 799.809570,494.136322 798.368408,494.901184 
z"/>
<path fill="#FFFEFE" opacity="1.000000" stroke="none" 
	d="
M747.548218,481.090698 
	C747.988831,485.419373 747.992432,489.674927 747.990540,494.383301 
	C746.847900,494.836151 745.710754,494.836151 744.001953,494.836151 
	C744.001953,491.010284 743.821289,487.135895 744.143188,483.303741 
	C744.213745,482.464508 746.074768,481.775665 747.548218,481.090698 
z"/>
<path fill="#D2D2D2" opacity="1.000000" stroke="none" 
	d="
M778.397339,505.915649 
	C779.091858,502.944153 775.533875,498.381897 781.468872,496.998535 
	C781.888306,499.051483 782.278259,501.219543 781.810120,503.182953 
	C781.546631,504.287811 779.867126,505.055023 778.397339,505.915649 
z"/>
<path fill="#FAFAFA" opacity="1.000000" stroke="none" 
	d="
M751.629822,523.089600 
	C750.789185,523.583435 749.587341,524.033325 748.177368,524.209045 
	C749.069092,523.638428 750.168884,523.342041 751.629822,523.089600 
z"/>
<path fill="#FAFAFA" opacity="1.000000" stroke="none" 
	d="
M757.687805,522.252686 
	C757.394165,522.680908 756.805847,523.012817 756.077515,523.107666 
	C756.422729,522.632568 756.907959,522.394470 757.687805,522.252686 
z"/>
<path fill="#FAFAFA" opacity="1.000000" stroke="none" 
	d="
M719.721680,619.008789 
	C719.912231,619.257568 719.765564,619.519592 719.344055,619.854614 
	C719.253967,619.670349 719.359070,619.368469 719.721680,619.008789 
z"/>
<path fill="#EFEFEF" opacity="1.000000" stroke="none" 
	d="
M323.881348,574.946594 
	C324.225677,573.867188 324.569946,572.787720 325.319916,571.529785 
	C327.424652,573.795532 329.080017,576.271545 330.830139,578.678589 
	C339.604523,590.746582 349.773193,601.225586 363.946472,606.921509 
	C365.795715,607.664673 368.024261,607.464111 370.077148,607.700623 
	C380.413635,612.329224 387.872803,619.368835 389.537964,631.161926 
	C389.830505,633.233765 389.756622,635.357361 389.865936,637.764954 
	C388.147247,637.856201 386.859894,637.983826 385.572479,637.984253 
	C352.823486,637.995239 320.074463,638.006531 287.325562,637.949829 
	C285.817810,637.947205 284.311157,637.314026 283.105103,636.341187 
	C288.556671,624.813660 296.154663,615.990479 306.609619,610.035767 
	C315.358826,605.052673 320.003784,597.396851 322.330231,588.127075 
	C323.398163,583.871887 323.397461,579.348389 323.881348,574.946594 
z"/>
<path fill="#EDEDED" opacity="1.000000" stroke="none" 
	d="
M320.880646,543.954712 
	C320.204742,542.401672 319.601807,540.811646 318.837830,539.303223 
	C317.227356,536.123352 315.532501,532.986145 314.160645,529.225098 
	C316.662872,518.082275 321.091370,508.719666 328.985779,501.194214 
	C336.765778,498.548370 343.877167,499.778015 350.622742,505.431549 
	C351.599518,507.300140 352.224884,508.641083 352.958130,509.920166 
	C358.554016,519.681763 358.098419,527.093994 350.631287,535.382141 
	C347.749969,538.580139 343.887848,540.894531 339.862885,544.096558 
	C344.727203,546.320862 348.994446,548.504272 353.438232,550.234070 
	C357.316315,551.743713 359.704773,553.591980 357.994507,558.237793 
	C357.324097,560.059021 357.331512,562.129700 357.030212,564.086792 
	C340.628510,564.086792 324.226807,564.086792 306.993073,564.086792 
	C306.647583,561.239197 306.260803,558.051086 306.412872,554.431641 
	C307.446960,554.001465 307.963409,553.909912 308.434235,554.017700 
	C315.629944,555.665649 318.784851,550.791870 321.735779,545.699463 
	C321.916412,545.387695 321.186768,544.548523 320.880646,543.954712 
z"/>
<path fill="#CCCCCC" opacity="1.000000" stroke="none" 
	d="
M369.970703,607.388916 
	C368.024261,607.464111 365.795715,607.664673 363.946472,606.921509 
	C349.773193,601.225586 339.604523,590.746582 330.830139,578.678589 
	C329.080017,576.271545 327.424652,573.795532 325.429779,571.207397 
	C328.899841,570.673767 332.661194,570.009644 336.432434,569.948120 
	C346.207092,569.788635 346.295380,569.860168 349.799896,578.687927 
	C354.206177,589.787231 359.639343,600.112549 369.970703,607.388916 
z"/>
<path fill="#FAFAFA" opacity="1.000000" stroke="none" 
	d="
M323.559296,575.127808 
	C323.397461,579.348389 323.398163,583.871887 322.330231,588.127075 
	C320.003784,597.396851 315.358826,605.052673 306.609619,610.035767 
	C296.154663,615.990479 288.556671,624.813660 283.107483,635.899658 
	C282.241455,623.127075 289.094788,614.742737 299.712860,608.666992 
	C312.742889,601.211243 319.488586,589.314758 323.559296,575.127808 
z"/>
<path fill="#CACACA" opacity="1.000000" stroke="none" 
	d="
M357.474854,564.193970 
	C357.331512,562.129700 357.324097,560.059021 357.994507,558.237793 
	C359.704773,553.591980 357.316315,551.743713 353.438232,550.234070 
	C348.994446,548.504272 344.727203,546.320862 339.862885,544.096558 
	C343.887848,540.894531 347.749969,538.580139 350.631287,535.382141 
	C358.098419,527.093994 358.554016,519.681763 352.958130,509.920166 
	C352.224884,508.641083 351.599518,507.300140 350.922241,505.632721 
	C360.804626,511.318939 362.740936,527.888489 354.532379,538.300598 
	C350.050598,543.985535 350.034790,543.959900 356.368927,547.512451 
	C358.814514,548.884033 361.168549,550.434265 363.678680,551.670959 
	C366.039124,552.833923 366.998444,554.114380 366.522186,557.062988 
	C365.338074,564.394409 365.561829,564.430542 357.474854,564.193970 
z"/>
<path fill="#F8F8F8" opacity="1.000000" stroke="none" 
	d="
M328.628754,501.186218 
	C321.091370,508.719666 316.662872,518.082275 314.143250,528.849609 
	C310.230499,517.204041 315.970917,506.107513 328.628754,501.186218 
z"/>
<path fill="#FAFAFA" opacity="1.000000" stroke="none" 
	d="
M320.573517,544.098267 
	C321.186768,544.548523 321.916412,545.387695 321.735779,545.699463 
	C318.784851,550.791870 315.629944,555.665649 308.434235,554.017700 
	C307.963409,553.909912 307.446960,554.001465 306.505615,553.997192 
	C309.549469,551.731384 313.062134,549.502563 316.517822,547.188782 
	C317.834686,546.307007 319.020721,545.229858 320.573517,544.098267 
z"/>
</svg>