<svg version="1.1" id="Layer_1" xmlns="http://www.w3.org/2000/svg" xmlns:xlink="http://www.w3.org/1999/xlink" x="0px" y="0px"
	 width="100%" viewBox="0 0 892 894" enable-background="new 0 0 892 894" xml:space="preserve">
<path fill="#FFFEFE" opacity="1.000000" stroke="none" 
	d="
M1.000000,239.000000 
	C1.000000,159.333328 1.000000,80.166664 1.000000,1.000000 
	C298.333344,1.000000 595.666687,1.000000 893.000000,1.000000 
	C893.000000,299.000000 893.000000,597.000000 893.000000,895.000000 
	C595.666687,895.000000 298.333344,895.000000 1.000000,895.000000 
	C1.000000,676.500000 1.000000,458.000000 1.000000,239.000000 
M8.474436,228.624969 
	C8.418659,229.286880 8.314107,229.948807 8.314032,230.610718 
	C8.305989,301.207428 8.302958,371.804138 8.327084,442.400848 
	C8.327529,443.702637 8.656628,445.004272 8.857341,447.204498 
	C8.882220,449.367920 8.928599,451.531372 8.928861,453.694794 
	C8.937361,524.110352 8.941423,594.525879 8.473802,665.621216 
	C8.416584,667.115479 8.309490,668.609680 8.309312,670.103943 
	C8.301075,739.364014 8.356710,808.624207 8.188835,877.883850 
	C8.176645,882.913269 9.852504,883.803589 14.444466,883.794312 
	C83.537750,883.655151 152.631393,883.702759 221.724945,883.671021 
	C223.502914,883.670166 225.280685,883.268555 227.988403,883.068604 
	C252.621872,883.068420 277.255341,883.057373 301.888824,883.070312 
	C349.823517,883.095520 397.758179,883.134216 446.476349,883.531616 
	C447.138824,883.585022 447.801270,883.685120 448.463745,883.685242 
	C519.049194,883.693298 589.634705,883.697266 660.220154,883.668213 
	C661.498718,883.667725 662.777222,883.267578 664.984436,883.067078 
	C737.187317,883.067078 809.390259,883.067078 882.053772,883.067078 
	C882.053772,809.877136 882.053772,737.466431 882.525513,664.375793 
	C882.581299,663.713867 882.685791,663.051941 882.685852,662.390015 
	C882.693909,591.793030 882.696960,521.196106 882.672852,450.599152 
	C882.672424,449.297363 882.343323,447.995728 882.142761,445.795502 
	C882.117798,443.632050 882.071350,441.468628 882.071045,439.305176 
	C882.062378,368.889496 882.058167,298.473816 882.525391,227.378265 
	C882.582520,225.884003 882.689331,224.389755 882.689514,222.895493 
	C882.697754,153.635910 882.642212,84.376213 882.810059,15.117043 
	C882.822205,10.088067 881.147217,9.197529 876.554810,9.206790 
	C807.461975,9.346122 738.368774,9.298526 669.275696,9.330262 
	C667.497742,9.331079 665.719849,9.732267 663.012024,9.931593 
	C638.711365,9.931721 614.410767,9.942515 590.110107,9.929723 
	C541.842468,9.904312 493.574860,9.865907 444.523773,9.468395 
	C443.861328,9.414974 443.198853,9.314838 442.536407,9.314762 
	C371.951172,9.306658 301.365967,9.302683 230.780746,9.331728 
	C229.502197,9.332254 228.223801,9.732520 226.016403,9.933372 
	C153.813309,9.933372 81.610222,9.933372 8.946340,9.933372 
	C8.946340,83.123466 8.946340,155.534378 8.474436,228.624969 
z"/>
<path fill="#F5C79C" opacity="1.000000" stroke="none" 
	d="
M882.053223,228.058121 
	C882.058167,298.473816 882.062378,368.889496 882.071045,439.305176 
	C882.071350,441.468628 882.117798,443.632050 881.675171,446.293823 
	C808.959595,446.792114 736.711548,446.792114 664.027832,446.792114 
	C664.027832,520.103882 664.027832,592.566284 663.557495,665.018250 
	C590.825134,665.007812 518.562988,665.007812 445.844666,665.007812 
	C445.844666,667.729980 445.844666,669.702087 445.844666,671.674133 
	C445.844666,728.340515 445.854370,785.006958 445.837769,841.673340 
	C445.833710,855.504639 445.743469,869.335999 445.692871,883.167297 
	C397.758179,883.134216 349.823517,883.095520 301.888824,883.070312 
	C277.255341,883.057373 252.621872,883.068420 227.503571,882.588684 
	C227.001358,809.728516 226.983978,737.348328 227.437988,664.979370 
	C300.167511,664.990723 372.425690,664.990723 445.154144,664.990723 
	C445.154144,662.612671 445.154144,660.978638 445.154144,659.344604 
	C445.154144,590.350159 445.114136,521.355652 445.248505,452.361420 
	C445.257019,447.994080 444.156616,446.737122 439.695648,446.746307 
	C370.534851,446.888824 301.373657,446.843872 232.212540,446.858856 
	C230.616409,446.859192 229.020294,447.051880 227.031967,447.180145 
	C227.031967,520.110474 227.031967,592.571960 226.561462,665.020752 
	C153.709351,664.985840 81.327751,664.963623 8.946146,664.941467 
	C8.941423,594.525879 8.937361,524.110352 8.928861,453.694794 
	C8.928599,451.531372 8.882220,449.367920 9.324888,446.706177 
	C82.040443,446.207855 154.288452,446.207855 226.972046,446.207855 
	C226.972046,372.895996 226.972046,300.433594 227.442352,227.981659 
	C300.174744,227.992142 372.436859,227.992142 445.155334,227.992142 
	C445.155334,225.265671 445.155334,223.295853 445.155334,221.326035 
	C445.155334,164.659622 445.145660,107.993210 445.162292,51.326805 
	C445.166351,37.495480 445.256622,23.664181 445.307251,9.832870 
	C493.574860,9.865907 541.842468,9.904312 590.110107,9.929723 
	C614.410767,9.942515 638.711365,9.931721 663.496948,10.411669 
	C663.999084,83.271858 664.016235,155.651962 663.561951,228.020538 
	C590.832336,228.008987 518.574036,228.008987 445.845428,228.008987 
	C445.845428,230.387177 445.845428,232.021240 445.845428,233.655289 
	C445.845459,302.649841 445.885437,371.644470 445.751099,440.638733 
	C445.742584,445.005951 446.843048,446.263214 451.304077,446.254028 
	C520.465027,446.111511 589.626282,446.156525 658.787476,446.141541 
	C660.383606,446.141205 661.979736,445.948425 663.968018,445.820068 
	C663.968018,372.889862 663.968018,300.428284 664.438538,227.979126 
	C737.290466,228.013718 809.671814,228.035919 882.053223,228.058121 
z"/>
<path fill="#BE814D" opacity="1.000000" stroke="none" 
	d="
M664.033325,228.032074 
	C664.016235,155.651962 663.999084,83.271858 663.961914,10.419241 
	C665.719849,9.732267 667.497742,9.331079 669.275696,9.330262 
	C738.368774,9.298526 807.461975,9.346122 876.554810,9.206790 
	C881.147217,9.197529 882.822205,10.088067 882.810059,15.117043 
	C882.642212,84.376213 882.697754,153.635910 882.689514,222.895493 
	C882.689331,224.389755 882.582520,225.884003 882.289307,227.718201 
	C809.671814,228.035919 737.290466,228.013718 664.455078,227.995255 
	C664.001099,227.998978 664.033325,228.032074 664.033325,228.032074 
z"/>
<path fill="#BE804C" opacity="1.000000" stroke="none" 
	d="
M444.915527,9.650633 
	C445.256622,23.664181 445.166351,37.495480 445.162292,51.326805 
	C445.145660,107.993210 445.155334,164.659622 445.155334,221.326035 
	C445.155334,223.295853 445.155334,225.265671 445.155334,227.992142 
	C372.436859,227.992142 300.174744,227.992142 227.457275,227.996933 
	C227.001892,228.001724 227.031891,228.031891 227.020813,227.560837 
	C226.988281,154.708618 226.966812,82.327438 226.945343,9.946270 
	C228.223801,9.732520 229.502197,9.332254 230.780746,9.331728 
	C301.365967,9.302683 371.951172,9.306658 442.536407,9.314762 
	C443.198853,9.314838 443.861328,9.414974 444.915527,9.650633 
z"/>
<path fill="#BE804C" opacity="1.000000" stroke="none" 
	d="
M446.084595,883.349487 
	C445.743469,869.335999 445.833710,855.504639 445.837769,841.673340 
	C445.854370,785.006958 445.844666,728.340515 445.844666,671.674133 
	C445.844666,669.702087 445.844666,667.729980 445.844666,665.007812 
	C518.562988,665.007812 590.825134,665.007812 663.542603,665.002991 
	C663.997925,664.998169 663.967957,664.967957 663.979492,665.438965 
	C664.012573,738.291321 664.034119,810.672546 664.055664,883.053833 
	C662.777222,883.267578 661.498718,883.667725 660.220154,883.668213 
	C589.634705,883.697266 519.049194,883.693298 448.463745,883.685242 
	C447.801270,883.685120 447.138824,883.585022 446.084595,883.349487 
z"/>
<path fill="#BE804C" opacity="1.000000" stroke="none" 
	d="
M664.012878,665.013428 
	C664.027832,592.566284 664.027832,520.103882 664.027832,446.792114 
	C736.711548,446.792114 808.959595,446.792114 881.687622,446.743042 
	C882.343323,447.995728 882.672424,449.297363 882.672852,450.599152 
	C882.696960,521.196106 882.693909,591.793030 882.685852,662.390015 
	C882.685791,663.051941 882.581299,663.713867 881.817139,664.695801 
	C808.728455,664.999939 736.348206,664.983948 663.967957,664.967957 
	C663.967957,664.967957 663.997925,664.998169 664.012878,665.013428 
z"/>
<path fill="#BE804C" opacity="1.000000" stroke="none" 
	d="
M226.986969,227.986450 
	C226.972046,300.433594 226.972046,372.895996 226.972046,446.207855 
	C154.288452,446.207855 82.040443,446.207855 9.312408,446.256927 
	C8.656628,445.004272 8.327529,443.702637 8.327084,442.400848 
	C8.302958,371.804138 8.305989,301.207428 8.314032,230.610718 
	C8.314107,229.948807 8.418659,229.286880 9.182934,228.305054 
	C82.271584,228.000732 154.651733,228.016312 227.031891,228.031891 
	C227.031891,228.031891 227.001892,228.001724 226.986969,227.986450 
z"/>
<path fill="#F5C79C" opacity="1.000000" stroke="none" 
	d="
M663.979492,665.438965 
	C736.348206,664.983948 808.728455,664.999939 881.581238,665.035767 
	C882.053772,737.466431 882.053772,809.877136 882.053772,883.067078 
	C809.390259,883.067078 737.187317,883.067078 664.520020,883.060425 
	C664.034119,810.672546 664.012573,738.291321 663.979492,665.438965 
M748.903320,762.512146 
	C745.856995,764.214783 742.579895,765.621338 739.859314,767.741882 
	C738.447449,768.842407 737.275940,771.216064 737.301147,772.996094 
	C737.354492,776.776611 738.398010,780.531555 738.776245,784.322815 
	C739.075134,787.317993 740.634338,788.270813 743.423279,788.205872 
	C747.721497,788.105774 752.023682,788.179504 756.549561,788.179504 
	C756.386597,789.317444 756.396667,790.167969 756.136658,790.925903 
	C751.596497,804.166077 745.944458,816.361328 732.614929,823.549622 
	C719.767761,830.477661 713.810974,841.859558 714.342896,856.545715 
	C714.461853,859.831970 715.440186,861.915039 719.265564,861.909485 
	C755.255127,861.857178 791.244812,861.861816 827.234497,861.903259 
	C830.910156,861.907471 831.911072,860.241028 832.113464,856.696777 
	C833.056946,840.177795 824.680725,829.611023 811.135437,821.700867 
	C798.618408,814.391235 793.764954,801.895569 789.552795,788.183350 
	C793.632507,788.183350 796.917175,788.185242 800.201843,788.182922 
	C807.231873,788.177917 807.229370,788.176758 808.098816,781.320129 
	C808.454346,778.515686 809.278625,775.671997 809.031433,772.923401 
	C808.856934,770.983582 807.685486,768.590698 806.170471,767.426392 
	C802.947266,764.949585 799.210327,763.141418 795.656433,761.042908 
	C797.126953,758.194458 798.413635,755.884888 799.535706,753.498047 
	C805.800354,740.171936 800.400879,723.858093 787.303528,716.429321 
	C774.862244,709.372620 756.897278,713.661987 749.230408,725.696594 
	C742.609558,736.089294 743.146851,746.641296 748.891968,757.276367 
	C749.612854,758.610779 749.331787,760.486450 748.903320,762.512146 
z"/>
<path fill="#BE814D" opacity="1.000000" stroke="none" 
	d="
M226.966599,664.968079 
	C226.983978,737.348328 227.001358,809.728516 227.038635,882.581299 
	C225.280685,883.268555 223.502914,883.670166 221.724945,883.671021 
	C152.631393,883.702759 83.537750,883.655151 14.444466,883.794312 
	C9.852504,883.803589 8.176645,882.913269 8.188835,877.883850 
	C8.356710,808.624207 8.301075,739.364014 8.309312,670.103943 
	C8.309490,668.609680 8.416584,667.115479 8.709974,665.281372 
	C81.327751,664.963623 153.709351,664.985840 226.544693,665.004883 
	C226.998428,665.001648 226.966599,664.968079 226.966599,664.968079 
M74.039642,809.702759 
	C73.344284,813.795410 72.454453,817.867493 72.016785,821.987488 
	C71.683075,825.128906 70.505638,827.107361 67.450600,828.351013 
	C62.042919,830.552429 58.458229,834.675781 57.273670,840.419006 
	C56.339794,844.946838 55.466583,849.593201 55.474850,854.185303 
	C55.488541,861.788147 55.899281,861.891052 63.546989,861.891602 
	C98.370361,861.894287 133.193863,861.947266 168.017029,861.861572 
	C179.318329,861.833801 180.696243,864.880676 179.810471,849.067261 
	C179.285568,839.696350 176.294083,831.472229 166.628235,827.317444 
	C165.360764,826.772644 164.331863,824.631348 164.020706,823.064941 
	C161.011734,807.917114 158.126175,792.744080 155.321640,777.556702 
	C154.040558,770.619141 153.019089,763.633667 151.892258,756.745789 
	C159.794952,754.418030 164.323013,749.637512 166.509125,742.379700 
	C170.212021,730.086365 168.553024,717.747009 167.415543,705.137390 
	C160.658997,704.112366 154.154587,703.125610 147.471954,702.111816 
	C145.710770,707.609924 144.060135,712.762939 142.518295,717.576294 
	C139.096283,717.576294 136.197311,717.576294 133.267731,717.576294 
	C132.352051,711.972656 131.503799,706.781738 130.688019,701.789490 
	C123.130516,701.789490 116.003357,701.953186 108.889168,701.720520 
	C105.323647,701.603943 104.256386,703.242737 103.959045,706.383118 
	C103.602547,710.148254 102.942024,713.884644 102.428139,717.527344 
	C93.272888,718.786865 93.268150,718.788330 90.743446,710.670227 
	C90.102760,708.610107 89.742912,706.416504 88.788399,704.518372 
	C88.266678,703.480835 86.674393,702.170044 85.729660,702.289185 
	C79.867020,703.028381 74.051079,704.138062 67.039238,705.324585 
	C67.039238,714.990601 66.472237,724.321106 67.201706,733.549133 
	C67.904694,742.442200 70.174911,751.288086 79.526649,755.354187 
	C82.706909,756.736938 83.508270,758.270752 82.940353,761.317078 
	C79.987587,777.156006 77.085434,793.004333 74.039642,809.702759 
z"/>
<path fill="#F4C69C" opacity="1.000000" stroke="none" 
	d="
M227.020813,227.560837 
	C154.651733,228.016312 82.271584,228.000732 9.418885,227.965225 
	C8.946340,155.534378 8.946340,83.123466 8.946340,9.933372 
	C81.610222,9.933372 153.813309,9.933372 226.480865,9.939821 
	C226.966812,82.327438 226.988281,154.708618 227.020813,227.560837 
M183.712189,106.204315 
	C186.007645,102.982178 188.136902,99.623360 190.643692,96.575012 
	C193.334991,93.302254 191.922058,91.598251 188.823624,90.095993 
	C184.000717,87.757645 179.471985,89.020386 174.927505,90.994553 
	C168.176819,93.927094 167.428467,93.590645 165.921600,86.572052 
	C164.957687,82.082397 162.684586,79.114861 158.010788,78.068352 
	C156.722153,77.779808 155.168335,76.893730 154.518616,75.811920 
	C148.693710,66.113068 140.184830,59.963341 129.485443,56.614128 
	C135.887878,46.572857 135.948715,39.369957 129.799179,33.756165 
	C123.443649,27.954336 112.517387,27.451752 105.985886,33.326012 
	C103.584450,35.485794 101.181480,39.139046 101.168625,42.121368 
	C101.147484,47.025459 103.073509,51.937946 104.213013,56.999775 
	C95.581764,59.641712 87.839981,65.479752 81.864082,73.916809 
	C80.489685,75.857262 78.165260,77.403061 75.950035,78.406029 
	C72.420479,80.004059 70.526276,82.516777 69.587593,86.142609 
	C67.620575,93.740601 67.328964,93.839058 59.885029,90.692757 
	C55.291542,88.751244 50.735474,87.818077 46.007660,90.431450 
	C42.976788,92.106812 42.565117,93.648895 44.746735,96.668991 
	C51.946968,106.636520 59.174084,116.619354 65.705475,127.026466 
	C73.779320,139.891342 77.970024,154.064270 77.804482,168.756088 
	C72.908241,170.883469 68.117065,172.139954 64.295746,174.793243 
	C55.711369,180.753723 55.497337,190.298798 55.501041,199.485275 
	C55.503597,205.831680 56.233967,206.166458 62.536095,206.167328 
	C97.508446,206.172134 132.480804,206.169632 167.453156,206.169632 
	C181.128387,206.169632 181.492035,205.954330 179.777374,192.205109 
	C178.699142,183.559143 176.109238,175.575470 166.762756,172.049576 
	C163.677155,170.885559 159.145370,170.091385 158.108215,167.829132 
	C156.782166,164.936691 158.293320,160.726776 158.645020,157.090759 
	C158.772766,155.770126 159.048401,154.460129 159.314392,153.157074 
	C162.930588,135.441467 172.890625,120.999634 183.712189,106.204315 
z"/>
<path fill="#BE804C" opacity="1.000000" stroke="none" 
	d="
M227.015198,665.017578 
	C227.031967,592.571960 227.031967,520.110474 227.031967,447.180145 
	C229.020294,447.051880 230.616409,446.859192 232.212540,446.858856 
	C301.373657,446.843872 370.534851,446.888824 439.695648,446.746307 
	C444.156616,446.737122 445.257019,447.994080 445.248505,452.361420 
	C445.114136,521.355652 445.154144,590.350159 445.154144,659.344604 
	C445.154144,660.978638 445.154144,662.612671 445.154144,664.990723 
	C372.425690,664.990723 300.167511,664.990723 227.437988,664.979370 
	C226.966599,664.968079 226.998428,665.001648 227.015198,665.017578 
M363.244965,513.413818 
	C357.935028,497.682404 340.482056,490.333252 324.024597,497.170380 
	C316.963715,500.103821 311.993774,505.428864 309.344208,512.676758 
	C305.445496,523.341736 307.792175,533.154846 314.143616,542.431274 
	C310.225677,544.742493 306.443787,546.572083 303.179077,549.075928 
	C301.645111,550.252319 300.374969,552.690918 300.280670,554.620850 
	C300.121338,557.882324 301.101685,561.184204 301.400787,564.487366 
	C301.766815,568.529419 303.570160,570.392273 307.863373,569.986389 
	C311.454376,569.646912 315.102997,569.916687 318.657257,569.916687 
	C318.868744,570.995605 319.155579,571.536133 319.029999,571.952148 
	C315.171478,584.736450 309.918213,596.665100 297.617004,603.675110 
	C284.249023,611.292908 276.528412,622.085693 277.162628,638.008606 
	C277.298462,641.419434 278.354614,643.162170 282.154907,643.153137 
	C318.129517,643.067200 354.104492,643.070312 390.079132,643.150757 
	C393.787201,643.159058 394.919098,641.673767 395.078156,638.103882 
	C395.785858,622.220703 388.479156,611.146179 374.956787,603.659790 
	C361.910004,596.436707 357.351318,583.694824 352.434357,569.915039 
	C357.442322,569.915039 361.545135,569.858032 365.645416,569.934448 
	C368.534668,569.988281 370.524719,569.070496 370.863434,565.900269 
	C371.251526,562.267761 371.603149,558.630066 372.072968,555.007935 
	C372.485107,551.830566 371.546051,549.691101 368.434204,548.230103 
	C365.067139,546.649231 361.974091,544.484802 358.455170,542.392761 
	C364.565704,533.430786 366.884583,524.243225 363.244965,513.413818 
z"/>
<path fill="#BE804C" opacity="1.000000" stroke="none" 
	d="
M663.984558,227.982849 
	C663.968018,300.428284 663.968018,372.889862 663.968018,445.820068 
	C661.979736,445.948425 660.383606,446.141205 658.787476,446.141541 
	C589.626282,446.156525 520.465027,446.111511 451.304077,446.254028 
	C446.843048,446.263214 445.742584,445.005951 445.751099,440.638733 
	C445.885437,371.644470 445.845459,302.649841 445.845428,233.655289 
	C445.845428,232.021240 445.845428,230.387177 445.845428,228.008987 
	C518.574036,228.008987 590.832336,228.008987 663.561951,228.020538 
	C664.033325,228.032074 664.001099,227.998978 663.984558,227.982849 
M495.556091,299.972229 
	C488.763947,307.283875 481.643829,314.323151 475.277863,321.988739 
	C469.641907,328.775269 469.731537,331.000061 474.791962,337.866821 
	C477.921112,342.112946 481.511902,346.183136 485.536255,349.571167 
	C494.016754,356.710785 500.070740,355.954803 508.636383,349.035980 
	C512.903381,345.589386 518.158081,342.881531 523.404175,341.237823 
	C532.649353,338.341095 542.230469,336.516266 552.863708,333.955383 
	C549.945374,337.789703 547.888855,341.655518 544.790344,344.300934 
	C539.625427,348.710602 533.505188,351.998108 528.318115,356.385773 
	C522.394348,361.396576 516.110840,366.426086 511.686127,372.656494 
	C505.728973,381.044586 503.194214,391.354065 496.146484,399.625549 
	C492.536530,403.862396 493.731415,412.214661 492.811218,418.714996 
	C492.056641,424.045563 494.915680,425.026031 499.608673,424.981873 
	C519.932617,424.790710 540.259460,424.900085 560.585205,424.900055 
	C577.245667,424.900055 593.907593,425.001953 610.564819,424.769775 
	C612.626282,424.741058 616.119690,423.290222 616.461365,421.890869 
	C618.022644,415.496063 616.863464,399.265381 609.440369,394.053162 
	C608.186462,393.172729 607.238586,390.693756 607.425842,389.103729 
	C609.230713,373.781189 611.648865,358.525269 613.202881,343.180542 
	C614.473450,330.633789 612.664612,318.296204 607.317505,306.748901 
	C598.551819,287.818817 582.872253,276.624725 564.244995,268.784454 
	C560.001160,266.998230 555.897888,264.865570 551.785339,262.782898 
	C545.924744,259.814911 540.331421,256.176910 534.231018,253.859360 
	C526.003601,250.733765 522.138855,253.895828 524.278748,262.320404 
	C525.746216,268.097809 523.622375,271.199524 519.965637,274.782990 
	C511.780487,282.804321 503.903534,291.140137 495.556091,299.972229 
z"/>
<path fill="#454443" opacity="1.000000" stroke="none" 
	d="
M749.209167,762.311768 
	C749.331787,760.486450 749.612854,758.610779 748.891968,757.276367 
	C743.146851,746.641296 742.609558,736.089294 749.230408,725.696594 
	C756.897278,713.661987 774.862244,709.372620 787.303528,716.429321 
	C800.400879,723.858093 805.800354,740.171936 799.535706,753.498047 
	C798.413635,755.884888 797.126953,758.194458 795.656433,761.042908 
	C799.210327,763.141418 802.947266,764.949585 806.170471,767.426392 
	C807.685486,768.590698 808.856934,770.983582 809.031433,772.923401 
	C809.278625,775.671997 808.454346,778.515686 808.098816,781.320129 
	C807.229370,788.176758 807.231873,788.177917 800.201843,788.182922 
	C796.917175,788.185242 793.632507,788.183350 789.552795,788.183350 
	C793.764954,801.895569 798.618408,814.391235 811.135437,821.700867 
	C824.680725,829.611023 833.056946,840.177795 832.113464,856.696777 
	C831.911072,860.241028 830.910156,861.907471 827.234497,861.903259 
	C791.244812,861.861816 755.255127,861.857178 719.265564,861.909485 
	C715.440186,861.915039 714.461853,859.831970 714.342896,856.545715 
	C713.810974,841.859558 719.767761,830.477661 732.614929,823.549622 
	C745.944458,816.361328 751.596497,804.166077 756.136658,790.925903 
	C756.396667,790.167969 756.386597,789.317444 756.549561,788.179504 
	C752.023682,788.179504 747.721497,788.105774 743.423279,788.205872 
	C740.634338,788.270813 739.075134,787.317993 738.776245,784.322815 
	C738.398010,780.531555 737.354492,776.776611 737.301147,772.996094 
	C737.275940,771.216064 738.447449,768.842407 739.859314,767.741882 
	C742.579895,765.621338 745.856995,764.214783 749.209167,762.311768 
M794.849548,782.924561 
	C797.426453,782.924561 800.003418,782.924561 802.443481,782.924561 
	C804.014648,772.682800 803.982483,772.734436 795.663330,767.555786 
	C792.884338,765.825928 790.316284,763.757263 787.648560,761.841003 
	C799.617371,745.677002 799.544556,732.839539 787.654785,723.286682 
	C780.657959,718.269043 773.143127,716.936584 764.283386,720.064697 
	C752.516785,725.511963 747.456238,736.063232 750.938904,748.799866 
	C752.597229,751.818665 753.884766,755.134338 756.005249,757.783081 
	C758.817932,761.296509 758.823608,763.523315 754.421753,765.289795 
	C752.901306,765.899902 751.545715,766.925537 750.124451,767.777527 
	C742.027039,772.631470 742.024414,772.633850 744.003235,782.079163 
	C744.057251,782.337036 744.391663,782.536072 744.627930,782.798767 
	C761.045776,782.798767 777.495300,782.798767 794.849548,782.924561 
M759.103943,798.330627 
	C754.479736,810.720276 747.694275,821.195068 735.644836,827.908813 
	C726.063049,833.247681 719.736694,841.240173 719.614807,853.888855 
	C721.064331,854.732117 722.510681,856.305298 723.963745,856.311462 
	C756.745117,856.450928 789.527588,856.343201 822.308716,856.507568 
	C826.730774,856.529846 827.260559,854.619019 826.806519,851.071289 
	C825.296997,839.275757 818.802795,831.367737 807.691467,826.169373 
	C804.705139,823.586060 801.377502,821.302002 798.798828,818.361328 
	C792.035828,810.648987 788.036682,801.408508 784.926453,791.722351 
	C784.503784,790.405884 783.165771,788.407532 782.222778,788.391357 
	C775.814331,788.280884 769.398193,788.617554 762.304871,789.140442 
	C761.381958,792.019104 760.459045,794.897827 759.103943,798.330627 
z"/>
<path fill="#393939" opacity="1.000000" stroke="none" 
	d="
M74.102646,809.276123 
	C77.085434,793.004333 79.987587,777.156006 82.940353,761.317078 
	C83.508270,758.270752 82.706909,756.736938 79.526649,755.354187 
	C70.174911,751.288086 67.904694,742.442200 67.201706,733.549133 
	C66.472237,724.321106 67.039238,714.990601 67.039238,705.324585 
	C74.051079,704.138062 79.867020,703.028381 85.729660,702.289185 
	C86.674393,702.170044 88.266678,703.480835 88.788399,704.518372 
	C89.742912,706.416504 90.102760,708.610107 90.743446,710.670227 
	C93.268150,718.788330 93.272888,718.786865 102.428139,717.527344 
	C102.942024,713.884644 103.602547,710.148254 103.959045,706.383118 
	C104.256386,703.242737 105.323647,701.603943 108.889168,701.720520 
	C116.003357,701.953186 123.130516,701.789490 130.688019,701.789490 
	C131.503799,706.781738 132.352051,711.972656 133.267731,717.576294 
	C136.197311,717.576294 139.096283,717.576294 142.518295,717.576294 
	C144.060135,712.762939 145.710770,707.609924 147.471954,702.111816 
	C154.154587,703.125610 160.658997,704.112366 167.415543,705.137390 
	C168.553024,717.747009 170.212021,730.086365 166.509125,742.379700 
	C164.323013,749.637512 159.794952,754.418030 151.892258,756.745789 
	C153.019089,763.633667 154.040558,770.619141 155.321640,777.556702 
	C158.126175,792.744080 161.011734,807.917114 164.020706,823.064941 
	C164.331863,824.631348 165.360764,826.772644 166.628235,827.317444 
	C176.294083,831.472229 179.285568,839.696350 179.810471,849.067261 
	C180.696243,864.880676 179.318329,861.833801 168.017029,861.861572 
	C133.193863,861.947266 98.370361,861.894287 63.546989,861.891602 
	C55.899281,861.891052 55.488541,861.788147 55.474850,854.185303 
	C55.466583,849.593201 56.339794,844.946838 57.273670,840.419006 
	C58.458229,834.675781 62.042919,830.552429 67.450600,828.351013 
	C70.505638,827.107361 71.683075,825.128906 72.016785,821.987488 
	C72.454453,817.867493 73.344284,813.795410 74.102646,809.276123 
M169.942383,836.266357 
	C166.218979,834.378296 162.678391,831.599304 158.733673,830.789856 
	C150.810089,829.164124 142.690079,828.297119 134.608124,827.681152 
	C114.708717,826.164612 94.849541,826.656677 75.331375,831.180115 
	C71.638474,832.036011 68.435776,835.007019 64.455681,837.467651 
	C60.632607,843.177490 60.680912,849.534973 60.963623,856.007324 
	C99.101768,856.007324 136.845703,856.007324 175.021088,856.007324 
	C174.215195,849.075928 175.183014,842.297546 169.942383,836.266357 
M156.367599,708.537292 
	C154.622437,708.328125 152.877289,708.118896 151.111221,707.907227 
	C149.720688,712.547058 148.621628,716.716980 147.161041,720.756287 
	C146.765625,721.849792 145.311630,723.257141 144.283463,723.308044 
	C139.057678,723.566956 133.812164,723.427429 128.717010,723.427429 
	C127.733253,717.071350 126.930557,711.885071 126.139923,706.776794 
	C120.163757,706.776794 114.759026,706.776794 109.192360,706.776794 
	C108.751892,709.710266 108.348228,712.311890 107.973648,714.917725 
	C107.601730,717.505005 107.259079,720.096436 106.799507,723.444397 
	C101.616051,723.444397 96.647797,723.647644 91.717148,723.306946 
	C90.421799,723.217468 88.613319,721.681152 88.127579,720.397827 
	C86.621010,716.417542 85.637512,712.239197 84.373299,707.869080 
	C82.740479,708.141724 81.308586,708.380798 79.031853,708.679199 
	C74.115631,708.372925 71.780380,710.415466 72.110733,715.594360 
	C72.394531,720.043274 72.147858,724.526062 72.041985,729.840332 
	C72.408302,732.797729 72.531013,735.810364 73.187233,738.701965 
	C75.058655,746.948364 80.055550,752.043579 90.187469,751.385864 
	C106.705994,750.313538 123.320030,750.712646 140.789429,750.817627 
	C141.945740,750.905212 143.102371,750.988892 144.258331,751.080994 
	C155.619476,751.986633 160.468033,748.850159 162.210114,737.628723 
	C163.366226,730.181824 162.670395,722.462341 163.090515,714.880676 
	C163.344528,710.297058 161.468857,708.454163 156.367599,708.537292 
M101.159134,755.228149 
	C97.222473,755.678833 93.285820,756.129517 88.981491,756.622253 
	C87.023750,767.802307 85.080711,778.898376 82.960999,790.642212 
	C82.952499,791.086426 82.944000,791.530579 82.546715,792.629456 
	C81.972618,796.422058 81.398514,800.214722 80.393768,804.636169 
	C79.144196,811.367737 77.894623,818.099304 76.660477,824.747803 
	C85.968277,823.842590 94.553520,822.302612 103.134766,822.324463 
	C119.412392,822.365967 135.687729,823.302490 152.682938,824.181702 
	C154.584930,824.464539 156.486938,824.747375 158.843231,825.097717 
	C154.832565,802.958862 150.994431,781.453857 146.915771,759.994629 
	C146.651688,758.605164 144.594482,756.599792 143.271988,756.519531 
	C132.510483,755.866760 121.725266,755.604614 110.054001,755.129517 
	C107.367104,755.218933 104.680214,755.308350 101.159134,755.228149 
z"/>
<path fill="#414141" opacity="1.000000" stroke="none" 
	d="
M183.490204,106.489304 
	C172.890625,120.999634 162.930588,135.441467 159.314392,153.157074 
	C159.048401,154.460129 158.772766,155.770126 158.645020,157.090759 
	C158.293320,160.726776 156.782166,164.936691 158.108215,167.829132 
	C159.145370,170.091385 163.677155,170.885559 166.762756,172.049576 
	C176.109238,175.575470 178.699142,183.559143 179.777374,192.205109 
	C181.492035,205.954330 181.128387,206.169632 167.453156,206.169632 
	C132.480804,206.169632 97.508446,206.172134 62.536095,206.167328 
	C56.233967,206.166458 55.503597,205.831680 55.501041,199.485275 
	C55.497337,190.298798 55.711369,180.753723 64.295746,174.793243 
	C68.117065,172.139954 72.908241,170.883469 77.804482,168.756088 
	C77.970024,154.064270 73.779320,139.891342 65.705475,127.026466 
	C59.174084,116.619354 51.946968,106.636520 44.746735,96.668991 
	C42.565117,93.648895 42.976788,92.106812 46.007660,90.431450 
	C50.735474,87.818077 55.291542,88.751244 59.885029,90.692757 
	C67.328964,93.839058 67.620575,93.740601 69.587593,86.142609 
	C70.526276,82.516777 72.420479,80.004059 75.950035,78.406029 
	C78.165260,77.403061 80.489685,75.857262 81.864082,73.916809 
	C87.839981,65.479752 95.581764,59.641712 104.213013,56.999775 
	C103.073509,51.937946 101.147484,47.025459 101.168625,42.121368 
	C101.181480,39.139046 103.584450,35.485794 105.985886,33.326012 
	C112.517387,27.451752 123.443649,27.954336 129.799179,33.756165 
	C135.948715,39.369957 135.887878,46.572857 129.485443,56.614128 
	C140.184830,59.963341 148.693710,66.113068 154.518616,75.811920 
	C155.168335,76.893730 156.722153,77.779808 158.010788,78.068352 
	C162.684586,79.114861 164.957687,82.082397 165.921600,86.572052 
	C167.428467,93.590645 168.176819,93.927094 174.927505,90.994553 
	C179.471985,89.020386 184.000717,87.757645 188.823624,90.095993 
	C191.922058,91.598251 193.334991,93.302254 190.643692,96.575012 
	C188.136902,99.623360 186.007645,102.982178 183.490204,106.489304 
M123.735695,53.074848 
	C127.748734,51.313156 129.928909,48.032520 128.902802,43.940247 
	C128.257919,41.368404 125.706779,39.274548 123.398834,36.545952 
	C118.114304,33.097443 112.250374,33.930855 107.910881,38.747166 
	C104.965668,42.015984 105.083481,47.414433 108.179047,51.035713 
	C111.693855,55.147427 118.255257,56.031345 123.735695,53.074848 
M133.413254,64.595047 
	C126.388657,59.606640 118.417801,59.513901 110.515312,60.923920 
	C99.388428,62.909256 90.607773,68.594444 85.114952,79.388664 
	C88.700203,81.340080 91.986359,83.169304 95.310577,84.926521 
	C98.581268,86.655426 101.401604,85.887192 103.802307,83.208076 
	C105.684807,81.107254 107.401939,78.830208 109.461464,76.921654 
	C114.375542,72.367798 121.285973,72.460396 125.999214,77.048973 
	C127.779762,78.782425 129.163498,80.972084 131.093536,82.488785 
	C132.795807,83.826469 135.006851,84.516724 137.550674,85.762642 
	C141.774506,83.697670 145.998322,81.632698 150.697922,79.335121 
	C145.597107,73.026604 141.946640,66.549339 133.413254,64.595047 
M170.686340,181.323105 
	C166.524963,179.216324 162.574936,176.095917 158.165939,175.176544 
	C138.067032,170.985535 117.656158,170.694611 97.282845,172.423126 
	C88.455124,173.172073 79.662582,175.012314 71.042274,177.124893 
	C68.388893,177.775146 66.358597,180.967941 63.490452,183.531540 
	C62.323833,189.099121 61.157215,194.666687 59.886120,200.732880 
	C98.974632,200.732880 136.723007,200.732880 174.839569,200.732880 
	C174.526154,194.129150 174.980179,187.613342 170.686340,181.323105 
M129.808975,166.313187 
	C137.041321,166.964386 144.273666,167.615585 152.200470,168.329315 
	C152.382660,138.829254 168.978867,116.896660 185.265106,94.823296 
	C185.029083,94.431877 184.793045,94.040459 184.557022,93.649040 
	C182.033478,94.449577 179.509933,95.250114 176.222107,96.076729 
	C168.759903,99.816902 161.867416,98.333122 160.938141,88.340256 
	C160.908020,88.016396 160.766373,87.701523 160.666336,87.385750 
	C159.361404,83.266731 157.073761,82.103722 153.157837,83.953720 
	C149.863968,85.509857 146.783890,87.511772 143.540344,89.182755 
	C137.345184,92.374329 131.745956,91.798965 127.456322,86.327415 
	C118.366165,74.732697 115.137802,77.867638 107.931168,86.259689 
	C103.184387,91.787270 98.452599,92.429947 91.875473,89.157387 
	C88.620911,87.538002 85.533501,85.581947 82.274956,83.971458 
	C78.512985,82.112175 75.965096,83.275688 74.611237,87.324860 
	C70.629311,99.234108 69.803650,99.629555 58.121872,95.769173 
	C57.806873,95.665077 57.474712,95.612938 56.608028,95.089371 
	C54.585487,94.639030 52.562946,94.188698 50.083229,93.636574 
	C58.282032,106.568283 66.053085,118.825317 73.929962,131.803085 
	C80.170403,142.973648 82.676743,155.146957 83.262978,168.229095 
	C89.493080,167.744095 95.367088,167.123093 101.256989,166.866013 
	C110.503761,166.462357 119.761253,166.304169 129.808975,166.313187 
z"/>
<path fill="#403F3F" opacity="1.000000" stroke="none" 
	d="
M363.411865,513.780029 
	C366.884583,524.243225 364.565704,533.430786 358.455170,542.392761 
	C361.974091,544.484802 365.067139,546.649231 368.434204,548.230103 
	C371.546051,549.691101 372.485107,551.830566 372.072968,555.007935 
	C371.603149,558.630066 371.251526,562.267761 370.863434,565.900269 
	C370.524719,569.070496 368.534668,569.988281 365.645416,569.934448 
	C361.545135,569.858032 357.442322,569.915039 352.434357,569.915039 
	C357.351318,583.694824 361.910004,596.436707 374.956787,603.659790 
	C388.479156,611.146179 395.785858,622.220703 395.078156,638.103882 
	C394.919098,641.673767 393.787201,643.159058 390.079132,643.150757 
	C354.104492,643.070312 318.129517,643.067200 282.154907,643.153137 
	C278.354614,643.162170 277.298462,641.419434 277.162628,638.008606 
	C276.528412,622.085693 284.249023,611.292908 297.617004,603.675110 
	C309.918213,596.665100 315.171478,584.736450 319.029999,571.952148 
	C319.155579,571.536133 318.868744,570.995605 318.657257,569.916687 
	C315.102997,569.916687 311.454376,569.646912 307.863373,569.986389 
	C303.570160,570.392273 301.766815,568.529419 301.400787,564.487366 
	C301.101685,561.184204 300.121338,557.882324 300.280670,554.620850 
	C300.374969,552.690918 301.645111,550.252319 303.179077,549.075928 
	C306.443787,546.572083 310.225677,544.742493 314.143616,542.431274 
	C307.792175,533.154846 305.445496,523.341736 309.344208,512.676758 
	C311.993774,505.428864 316.963715,500.103821 324.024597,497.170380 
	C340.482056,490.333252 357.935028,497.682404 363.411865,513.780029 
M350.320953,504.875092 
	C343.877289,499.777588 336.765869,498.549500 328.272095,501.177063 
	C315.970581,506.105133 310.229614,517.202271 313.872162,529.831665 
	C315.532440,532.986389 317.227234,536.123596 318.837921,539.303406 
	C319.602081,540.812012 320.205658,542.401917 320.267578,544.242188 
	C319.022156,545.230347 317.836517,546.307861 316.519745,547.189453 
	C313.063934,549.503235 309.550903,551.731506 305.874176,554.862671 
	C306.260895,558.050842 306.647583,561.238953 306.993073,564.087219 
	C324.226807,564.087219 340.628723,564.087219 357.919861,564.301697 
	C365.562347,564.430786 365.338684,564.394653 366.522705,557.063232 
	C366.998840,554.114868 366.040253,552.833862 363.679474,551.670837 
	C361.169250,550.434143 358.815155,548.883972 356.369598,547.512268 
	C350.035736,543.959656 350.051544,543.985291 354.533142,538.300354 
	C362.741882,527.887512 360.804626,511.317627 350.320953,504.875092 
M282.803986,636.974487 
	C284.311188,637.313965 285.817841,637.947144 287.325592,637.949768 
	C320.074524,638.006470 352.823608,637.995239 385.572632,637.984253 
	C386.860046,637.983826 388.147400,637.856140 389.866119,637.764771 
	C389.756714,635.357239 389.830475,633.233643 389.537933,631.161804 
	C387.872803,619.368652 380.413269,612.329224 369.864136,607.076904 
	C359.639069,600.112366 354.206238,589.786865 349.799866,578.687683 
	C346.295258,569.860046 346.207031,569.788452 336.432281,569.947937 
	C332.661072,570.009521 328.899750,570.673767 324.914215,571.708374 
	C324.569885,572.787781 324.225555,573.867126 323.237091,575.309021 
	C319.488068,589.314514 312.742920,601.211243 299.712585,608.666931 
	C289.094452,614.742493 282.241211,623.127136 282.803986,636.974487 
z"/>
<path fill="#3B3B3B" opacity="1.000000" stroke="none" 
	d="
M495.728577,299.660034 
	C503.903534,291.140137 511.780487,282.804321 519.965637,274.782990 
	C523.622375,271.199524 525.746216,268.097809 524.278748,262.320404 
	C522.138855,253.895828 526.003601,250.733765 534.231018,253.859360 
	C540.331421,256.176910 545.924744,259.814911 551.785339,262.782898 
	C555.897888,264.865570 560.001160,266.998230 564.244995,268.784454 
	C582.872253,276.624725 598.551819,287.818817 607.317505,306.748901 
	C612.664612,318.296204 614.473450,330.633789 613.202881,343.180542 
	C611.648865,358.525269 609.230713,373.781189 607.425842,389.103729 
	C607.238586,390.693756 608.186462,393.172729 609.440369,394.053162 
	C616.863464,399.265381 618.022644,415.496063 616.461365,421.890869 
	C616.119690,423.290222 612.626282,424.741058 610.564819,424.769775 
	C593.907593,425.001953 577.245667,424.900055 560.585205,424.900055 
	C540.259460,424.900085 519.932617,424.790710 499.608673,424.981873 
	C494.915680,425.026031 492.056641,424.045563 492.811218,418.714996 
	C493.731415,412.214661 492.536530,403.862396 496.146484,399.625549 
	C503.194214,391.354065 505.728973,381.044586 511.686127,372.656494 
	C516.110840,366.426086 522.394348,361.396576 528.318115,356.385773 
	C533.505188,351.998108 539.625427,348.710602 544.790344,344.300934 
	C547.888855,341.655518 549.945374,337.789703 552.863708,333.955383 
	C542.230469,336.516266 532.649353,338.341095 523.404175,341.237823 
	C518.158081,342.881531 512.903381,345.589386 508.636383,349.035980 
	C500.070740,355.954803 494.016754,356.710785 485.536255,349.571167 
	C481.511902,346.183136 477.921112,342.112946 474.791962,337.866821 
	C469.731537,331.000061 469.641907,328.775269 475.277863,321.988739 
	C481.643829,314.323151 488.763947,307.283875 495.728577,299.660034 
M606.935425,399.265991 
	C605.115234,397.956757 603.430908,395.791504 601.452698,395.477417 
	C588.728699,393.457153 575.988098,391.129028 563.161377,390.270569 
	C546.277649,389.140594 529.338867,390.153259 512.788025,394.011963 
	C508.939301,394.909210 505.590149,397.949280 501.462067,400.471252 
	C497.641327,406.179932 497.689911,412.534302 497.964783,418.987061 
	C536.105408,418.987061 573.837646,418.987061 611.969910,418.987061 
	C611.293823,412.035522 612.241516,405.274353 606.935425,399.265991 
M511.490570,382.700470 
	C510.999054,384.709717 510.507507,386.718994 510.072601,388.697510 
	C510.072601,388.697510 510.130554,388.898834 511.135498,388.861420 
	C520.829895,387.628937 530.505615,385.573700 540.222961,385.353485 
	C555.460510,385.008148 570.726196,385.901703 586.584106,386.764862 
	C591.597900,387.641144 596.611755,388.517426 601.967346,389.453430 
	C602.428772,386.879456 602.940430,384.302002 603.347656,381.708191 
	C605.894836,365.485992 609.256653,349.341217 608.119629,332.760101 
	C606.846008,314.187805 600.555115,297.665222 584.777161,287.041656 
	C571.498413,278.100922 556.904480,271.113586 542.361572,262.810883 
	C538.236816,261.267242 534.112122,259.723602 529.371216,258.203156 
	C529.564819,258.850494 529.758362,259.497833 529.987427,260.591919 
	C529.987427,260.591919 530.145081,261.011475 530.020752,261.915222 
	C529.556824,265.572815 530.388306,270.312866 528.397888,272.694916 
	C520.982300,281.569580 512.665039,289.693939 504.638763,298.054382 
	C496.945129,306.068329 489.113586,313.951202 481.490784,322.031433 
	C475.238037,328.659332 475.239655,329.649414 480.239075,336.673553 
	C484.147705,340.170959 488.056335,343.668335 492.359436,347.816345 
	C495.962250,348.573761 499.501617,350.759003 502.966492,347.028412 
	C509.430176,340.069031 517.746277,336.796356 526.934937,334.772766 
	C535.471680,332.892700 543.823914,330.076080 552.134094,327.302612 
	C557.214539,325.607056 557.636353,325.615387 557.915466,331.700775 
	C557.899719,332.607056 557.883972,333.513367 557.276611,334.897552 
	C554.761597,342.871704 549.195862,348.283386 542.497681,352.864502 
	C536.359863,357.062317 530.195190,361.266357 524.418213,365.932953 
	C519.078247,370.246552 513.962402,374.967194 511.490570,382.700470 
z"/>
<path fill="#F0F0F0" opacity="1.000000" stroke="none" 
	d="
M808.065430,826.694702 
	C818.802795,831.367737 825.296997,839.275757 826.806519,851.071289 
	C827.260559,854.619019 826.730774,856.529846 822.308716,856.507568 
	C789.527588,856.343201 756.745117,856.450928 723.963745,856.311462 
	C722.510681,856.305298 721.064331,854.732117 720.130310,853.396729 
	C726.974915,841.557739 735.989685,833.100403 746.990356,826.113403 
	C755.856812,820.482056 759.259216,810.804260 760.806702,800.676453 
	C760.941406,799.795105 759.985474,798.747131 759.536133,797.776489 
	C760.459045,794.897827 761.381958,792.019104 762.675354,789.343506 
	C771.157471,804.377014 782.203735,816.423767 797.228333,824.361328 
	C800.373657,826.023132 804.429260,825.961914 808.065430,826.694702 
z"/>
<path fill="#F0F0F0" opacity="1.000000" stroke="none" 
	d="
M764.996094,720.101685 
	C773.143127,716.936584 780.657959,718.269043 787.832764,723.924561 
	C788.596069,725.890198 789.006775,727.333008 789.794373,728.527466 
	C796.154907,738.173218 793.179565,749.609009 784.138123,756.566162 
	C781.706421,758.437256 779.341675,760.395386 776.442566,762.716980 
	C779.835571,764.395142 782.618103,766.157349 785.648987,767.192505 
	C792.597717,769.565796 797.165344,773.068115 794.014648,781.315674 
	C793.846924,781.754822 793.961670,782.301941 793.944885,782.798767 
	C777.495300,782.798767 761.045776,782.798767 744.627930,782.798767 
	C744.391663,782.536072 744.057251,782.337036 744.003235,782.079163 
	C742.024414,772.633850 742.027039,772.631470 750.124451,767.777527 
	C751.545715,766.925537 752.901306,765.899902 754.421753,765.289795 
	C758.823608,763.523315 758.817932,761.296509 756.005249,757.783081 
	C753.884766,755.134338 752.597229,751.818665 751.200439,748.197632 
	C754.079895,740.876465 756.468506,734.054260 759.425293,727.487793 
	C760.659973,724.745544 763.102600,722.547241 764.996094,720.101685 
z"/>
<path fill="#CACACA" opacity="1.000000" stroke="none" 
	d="
M807.878418,826.432007 
	C804.429260,825.961914 800.373657,826.023132 797.228333,824.361328 
	C782.203735,816.423767 771.157471,804.377014 763.015137,789.178162 
	C769.398193,788.617554 775.814331,788.280884 782.222778,788.391357 
	C783.165771,788.407532 784.503784,790.405884 784.926453,791.722351 
	C788.036682,801.408508 792.035828,810.648987 798.798828,818.361328 
	C801.377502,821.302002 804.705139,823.586060 807.878418,826.432007 
z"/>
<path fill="#CBCBCB" opacity="1.000000" stroke="none" 
	d="
M794.397217,782.861694 
	C793.961670,782.301941 793.846924,781.754822 794.014648,781.315674 
	C797.165344,773.068115 792.597717,769.565796 785.648987,767.192505 
	C782.618103,766.157349 779.835571,764.395142 776.442566,762.716980 
	C779.341675,760.395386 781.706421,758.437256 784.138123,756.566162 
	C793.179565,749.609009 796.154907,738.173218 789.794373,728.527466 
	C789.006775,727.333008 788.596069,725.890198 788.069946,724.178467 
	C799.544556,732.839539 799.617371,745.677002 787.648560,761.841003 
	C790.316284,763.757263 792.884338,765.825928 795.663330,767.555786 
	C803.982483,772.734436 804.014648,772.682800 802.443481,782.924561 
	C800.003418,782.924561 797.426453,782.924561 794.397217,782.861694 
z"/>
<path fill="#FAFAFA" opacity="1.000000" stroke="none" 
	d="
M759.320068,798.053589 
	C759.985474,798.747131 760.941406,799.795105 760.806702,800.676453 
	C759.259216,810.804260 755.856812,820.482056 746.990356,826.113403 
	C735.989685,833.100403 726.974915,841.557739 720.295593,852.955322 
	C719.736694,841.240173 726.063049,833.247681 735.644836,827.908813 
	C747.694275,821.195068 754.479736,810.720276 759.320068,798.053589 
z"/>
<path fill="#F5F5F5" opacity="1.000000" stroke="none" 
	d="
M764.639709,720.083130 
	C763.102600,722.547241 760.659973,724.745544 759.425293,727.487793 
	C756.468506,734.054260 754.079895,740.876465 751.157166,747.831909 
	C747.456238,736.063232 752.516785,725.511963 764.639709,720.083130 
z"/>
<path fill="#EFEFEF" opacity="1.000000" stroke="none" 
	d="
M82.935501,791.974792 
	C82.944000,791.530579 82.952499,791.086426 83.395226,790.244873 
	C84.406059,788.735352 84.706490,787.034119 85.606697,786.612000 
	C89.685005,784.699707 88.487427,781.775330 88.337090,778.355042 
	C88.206810,775.390930 89.485199,771.149048 91.666122,769.543396 
	C96.767815,765.787354 98.259964,759.858337 101.993317,755.397766 
	C104.680214,755.308350 107.367104,755.218933 110.596268,755.517944 
	C113.872162,756.976074 116.671822,757.903687 119.328537,759.138855 
	C134.556274,766.218506 141.514694,779.714050 145.845322,794.743103 
	C148.584610,804.249512 149.970886,814.145752 151.964020,823.867188 
	C135.687729,823.302490 119.412392,822.365967 103.134766,822.324463 
	C94.553520,822.302612 85.968277,823.842590 76.660477,824.747803 
	C77.894623,818.099304 79.144196,811.367737 81.010620,804.313721 
	C86.745720,801.922424 87.244545,797.339905 82.935501,791.974792 
z"/>
<path fill="#EEEEEE" opacity="1.000000" stroke="none" 
	d="
M139.893768,750.490845 
	C123.320030,750.712646 106.705994,750.313538 90.187469,751.385864 
	C80.055550,752.043579 75.058655,746.948364 73.187233,738.701965 
	C72.531013,735.810364 72.408302,732.797729 72.456154,729.329102 
	C75.205780,722.085266 77.541237,715.352539 79.876694,708.619873 
	C81.308586,708.380798 82.740479,708.141724 84.373299,707.869080 
	C85.637512,712.239197 86.621010,716.417542 88.127579,720.397827 
	C88.613319,721.681152 90.421799,723.217468 91.717148,723.306946 
	C96.647797,723.647644 101.616051,723.444397 106.799507,723.444397 
	C107.259079,720.096436 107.601730,717.505005 107.973648,714.917725 
	C108.348228,712.311890 108.751892,709.710266 109.192360,706.776794 
	C114.759026,706.776794 120.163757,706.776794 126.139923,706.776794 
	C126.930557,711.885071 127.733253,717.071350 128.717010,723.427429 
	C133.812164,723.427429 139.057678,723.566956 144.283463,723.308044 
	C145.311630,723.257141 146.765625,721.849792 147.161041,720.756287 
	C148.621628,716.716980 149.720688,712.547058 151.111221,707.907227 
	C152.877289,708.118896 154.622437,708.328125 156.699661,709.209412 
	C157.023788,712.198975 157.115524,714.521851 156.991302,716.833008 
	C156.328537,729.164429 153.262939,740.315002 141.971420,747.485107 
	C141.024506,748.086487 140.574585,749.470459 139.893768,750.490845 
z"/>
<path fill="#F0F0F0" opacity="1.000000" stroke="none" 
	d="
M170.164627,836.942566 
	C175.183014,842.297546 174.215195,849.075928 175.021088,856.007324 
	C136.845703,856.007324 99.101768,856.007324 60.963623,856.007324 
	C60.680912,849.534973 60.632607,843.177490 65.117081,837.230835 
	C75.418198,835.001038 84.987419,831.882141 94.713783,831.273254 
	C110.167900,830.305786 125.728119,830.908569 141.240646,831.088867 
	C144.988235,831.132324 148.764847,831.933411 152.457336,832.718872 
	C158.390762,833.981079 164.265244,835.520386 170.164627,836.942566 
z"/>
<path fill="#CBCBCB" opacity="1.000000" stroke="none" 
	d="
M152.323486,824.024414 
	C149.970886,814.145752 148.584610,804.249512 145.845322,794.743103 
	C141.514694,779.714050 134.556274,766.218506 119.328537,759.138855 
	C116.671822,757.903687 113.872162,756.976074 111.042892,755.565063 
	C121.725266,755.604614 132.510483,755.866760 143.271988,756.519531 
	C144.594482,756.599792 146.651688,758.605164 146.915771,759.994629 
	C150.994431,781.453857 154.832565,802.958862 158.843231,825.097717 
	C156.486938,824.747375 154.584930,824.464539 152.323486,824.024414 
z"/>
<path fill="#CCCCCC" opacity="1.000000" stroke="none" 
	d="
M140.341599,750.654236 
	C140.574585,749.470459 141.024506,748.086487 141.971420,747.485107 
	C153.262939,740.315002 156.328537,729.164429 156.991302,716.833008 
	C157.115524,714.521851 157.023788,712.198975 157.030426,709.412231 
	C161.468857,708.454163 163.344528,710.297058 163.090515,714.880676 
	C162.670395,722.462341 163.366226,730.181824 162.210114,737.628723 
	C160.468033,748.850159 155.619476,751.986633 144.258331,751.080994 
	C143.102371,750.988892 141.945740,750.905212 140.341599,750.654236 
z"/>
<path fill="#F8F8F8" opacity="1.000000" stroke="none" 
	d="
M170.053497,836.604492 
	C164.265244,835.520386 158.390762,833.981079 152.457336,832.718872 
	C148.764847,831.933411 144.988235,831.132324 141.240646,831.088867 
	C125.728119,830.908569 110.167900,830.305786 94.713783,831.273254 
	C84.987419,831.882141 75.418198,835.001038 65.392685,836.998047 
	C68.435776,835.007019 71.638474,832.036011 75.331375,831.180115 
	C94.849541,826.656677 114.708717,826.164612 134.608124,827.681152 
	C142.690079,828.297119 150.810089,829.164124 158.733673,830.789856 
	C162.678391,831.599304 166.218979,834.378296 170.053497,836.604492 
z"/>
<path fill="#F5F5F5" opacity="1.000000" stroke="none" 
	d="
M101.576225,755.312988 
	C98.259964,759.858337 96.767815,765.787354 91.666122,769.543396 
	C89.485199,771.149048 88.206810,775.390930 88.337090,778.355042 
	C88.487427,781.775330 89.685005,784.699707 85.606697,786.612000 
	C84.706490,787.034119 84.406059,788.735352 83.483566,789.921021 
	C85.080711,778.898376 87.023750,767.802307 88.981491,756.622253 
	C93.285820,756.129517 97.222473,755.678833 101.576225,755.312988 
z"/>
<path fill="#F5F5F5" opacity="1.000000" stroke="none" 
	d="
M79.454269,708.649536 
	C77.541237,715.352539 75.205780,722.085266 72.503044,728.905884 
	C72.147858,724.526062 72.394531,720.043274 72.110733,715.594360 
	C71.780380,710.415466 74.115631,708.372925 79.454269,708.649536 
z"/>
<path fill="#F5F5F5" opacity="1.000000" stroke="none" 
	d="
M82.741104,792.302124 
	C87.244545,797.339905 86.745720,801.922424 81.225937,803.999268 
	C81.398514,800.214722 81.972618,796.422058 82.741104,792.302124 
z"/>
<path fill="#F0F0F0" opacity="1.000000" stroke="none" 
	d="
M57.150555,95.536568 
	C57.474712,95.612938 57.806873,95.665077 58.121872,95.769173 
	C69.803650,99.629555 70.629311,99.234108 74.611237,87.324860 
	C75.965096,83.275688 78.512985,82.112175 82.274956,83.971458 
	C85.533501,85.581947 88.620911,87.538002 91.875473,89.157387 
	C98.452599,92.429947 103.184387,91.787270 107.931168,86.259689 
	C115.137802,77.867638 118.366165,74.732697 127.456322,86.327415 
	C131.745956,91.798965 137.345184,92.374329 143.540344,89.182755 
	C146.783890,87.511772 149.863968,85.509857 153.157837,83.953720 
	C157.073761,82.103722 159.361404,83.266731 160.666336,87.385750 
	C160.766373,87.701523 160.908020,88.016396 160.938141,88.340256 
	C161.867416,98.333122 168.759903,99.816902 176.603668,96.416946 
	C174.968292,99.560585 172.892624,102.323860 170.944321,105.174187 
	C160.939240,119.811371 150.994293,134.489700 140.969421,149.113281 
	C137.063736,154.810623 133.003845,160.402237 129.014206,166.042023 
	C119.761253,166.304169 110.503761,166.462357 101.256989,166.866013 
	C95.367088,167.123093 89.493080,167.744095 83.262978,168.229095 
	C82.676743,155.146957 80.170403,142.973648 74.170265,131.236389 
	C74.531494,130.050491 74.960854,129.262863 74.728165,128.836792 
	C69.159470,118.639946 63.505878,108.489494 57.919498,98.302208 
	C57.471577,97.485397 57.398056,96.463280 57.150555,95.536568 
z"/>
<path fill="#F0F0F0" opacity="1.000000" stroke="none" 
	d="
M170.853165,181.989822 
	C174.980179,187.613342 174.526154,194.129150 174.839569,200.732880 
	C136.723007,200.732880 98.974632,200.732880 59.886120,200.732880 
	C61.157215,194.666687 62.323833,189.099121 64.121246,183.226410 
	C67.746277,181.580643 70.625877,179.815735 73.753983,178.970520 
	C90.103989,174.552811 106.872841,174.667358 123.602074,175.075790 
	C132.674988,175.297287 141.790985,175.851364 150.771057,177.095932 
	C157.560760,178.036942 164.165894,180.309738 170.853165,181.989822 
z"/>
<path fill="#EBEBEB" opacity="1.000000" stroke="none" 
	d="
M136.993225,85.492859 
	C135.006851,84.516724 132.795807,83.826469 131.093536,82.488785 
	C129.163498,80.972084 127.779762,78.782425 125.999214,77.048973 
	C121.285973,72.460396 114.375542,72.367798 109.461464,76.921654 
	C107.401939,78.830208 105.684807,81.107254 103.802307,83.208076 
	C101.401604,85.887192 98.581268,86.655426 95.310577,84.926521 
	C91.986359,83.169304 88.700203,81.340080 85.114952,79.388664 
	C90.607773,68.594444 99.388428,62.909256 110.515312,60.923920 
	C118.417801,59.513901 126.388657,59.606640 133.744354,65.141327 
	C138.557205,71.772369 138.673386,78.500290 136.993225,85.492859 
z"/>
<path fill="#CACACA" opacity="1.000000" stroke="none" 
	d="
M129.411591,166.177612 
	C133.003845,160.402237 137.063736,154.810623 140.969421,149.113281 
	C150.994293,134.489700 160.939240,119.811371 170.944321,105.174187 
	C172.892624,102.323860 174.968292,99.560585 176.985794,96.403915 
	C179.509933,95.250114 182.033478,94.449577 184.557022,93.649040 
	C184.793045,94.040459 185.029083,94.431877 185.265106,94.823296 
	C168.978867,116.896660 152.382660,138.829254 152.200470,168.329315 
	C144.273666,167.615585 137.041321,166.964386 129.411591,166.177612 
z"/>
<path fill="#EBEBEB" opacity="1.000000" stroke="none" 
	d="
M123.010559,53.033730 
	C118.255257,56.031345 111.693855,55.147427 108.179047,51.035713 
	C105.083481,47.414433 104.965668,42.015984 107.910881,38.747166 
	C112.250374,33.930855 118.114304,33.097443 123.707642,37.173965 
	C123.681160,42.879230 123.345856,47.956482 123.010559,53.033730 
z"/>
<path fill="#FAFAFA" opacity="1.000000" stroke="none" 
	d="
M170.769745,181.656464 
	C164.165894,180.309738 157.560760,178.036942 150.771057,177.095932 
	C141.790985,175.851364 132.674988,175.297287 123.602074,175.075790 
	C106.872841,174.667358 90.103989,174.552811 73.753983,178.970520 
	C70.625877,179.815735 67.746277,181.580643 64.397522,182.958893 
	C66.358597,180.967941 68.388893,177.775146 71.042274,177.124893 
	C79.662582,175.012314 88.455124,173.172073 97.282845,172.423126 
	C117.656158,170.694611 138.067032,170.985535 158.165939,175.176544 
	C162.574936,176.095917 166.524963,179.216324 170.769745,181.656464 
z"/>
<path fill="#F5F5F5" opacity="1.000000" stroke="none" 
	d="
M56.879292,95.312973 
	C57.398056,96.463280 57.471577,97.485397 57.919498,98.302208 
	C63.505878,108.489494 69.159470,118.639946 74.728165,128.836792 
	C74.960854,129.262863 74.531494,130.050491 74.117355,130.876007 
	C66.053085,118.825317 58.282032,106.568283 50.083229,93.636574 
	C52.562946,94.188698 54.585487,94.639030 56.879292,95.312973 
z"/>
<path fill="#C8C8C8" opacity="1.000000" stroke="none" 
	d="
M137.271942,85.627747 
	C138.673386,78.500290 138.557205,71.772369 134.044434,65.323090 
	C141.946640,66.549339 145.597107,73.026604 150.697922,79.335121 
	C145.998322,81.632698 141.774506,83.697670 137.271942,85.627747 
z"/>
<path fill="#CACACA" opacity="1.000000" stroke="none" 
	d="
M123.373123,53.054291 
	C123.345856,47.956482 123.681160,42.879230 124.013649,37.384117 
	C125.706779,39.274548 128.257919,41.368404 128.902802,43.940247 
	C129.928909,48.032520 127.748734,51.313156 123.373123,53.054291 
z"/>
<path fill="#EFEFEF" opacity="1.000000" stroke="none" 
	d="
M323.881226,574.946533 
	C324.225555,573.867126 324.569885,572.787781 325.319885,571.529785 
	C327.424622,573.795410 329.080017,576.271362 330.830139,578.678467 
	C339.604462,590.746643 349.773590,601.225281 363.946625,606.921570 
	C365.795776,607.664673 368.024292,607.463928 370.077087,607.700317 
	C380.413269,612.329224 387.872803,619.368652 389.537933,631.161804 
	C389.830475,633.233643 389.756714,635.357239 389.866119,637.764771 
	C388.147400,637.856140 386.860046,637.983826 385.572632,637.984253 
	C352.823608,637.995239 320.074524,638.006470 287.325592,637.949768 
	C285.817841,637.947144 284.311188,637.313965 283.105042,636.341187 
	C288.556854,624.814026 296.154449,615.990417 306.609711,610.035828 
	C315.359070,605.052856 320.003967,597.396790 322.330383,588.126892 
	C323.398254,583.871704 323.397400,579.348328 323.881226,574.946533 
z"/>
<path fill="#EDEDED" opacity="1.000000" stroke="none" 
	d="
M328.986267,501.193268 
	C336.765869,498.549500 343.877289,499.777588 350.622559,505.431213 
	C351.599548,507.299622 352.225037,508.640533 352.958313,509.919647 
	C358.554596,519.681213 358.099182,527.093018 350.631744,535.382141 
	C347.750549,538.580322 343.888214,540.894653 339.863403,544.096619 
	C344.727570,546.320740 348.994873,548.504333 353.438812,550.233887 
	C357.317719,551.743530 359.704437,553.592773 357.994781,558.238098 
	C357.324463,560.059387 357.331879,562.130127 357.030609,564.087219 
	C340.628723,564.087219 324.226807,564.087219 306.993073,564.087219 
	C306.647583,561.238953 306.260895,558.050842 306.413452,554.431274 
	C307.447876,554.001160 307.964264,553.909607 308.434998,554.017456 
	C315.630157,555.665710 318.784149,550.791809 321.734711,545.700256 
	C321.915619,545.388062 321.187225,544.548950 320.881958,543.955017 
	C320.205658,542.401917 319.602081,540.812012 318.837921,539.303406 
	C317.227234,536.123596 315.532440,532.986389 314.160248,529.225342 
	C316.663391,518.082520 321.091949,508.719330 328.986267,501.193268 
z"/>
<path fill="#CCCCCC" opacity="1.000000" stroke="none" 
	d="
M369.970612,607.388611 
	C368.024292,607.463928 365.795776,607.664673 363.946625,606.921570 
	C349.773590,601.225281 339.604462,590.746643 330.830139,578.678467 
	C329.080017,576.271362 327.424622,573.795410 325.429749,571.207336 
	C328.899750,570.673767 332.661072,570.009521 336.432281,569.947937 
	C346.207031,569.788452 346.295258,569.860046 349.799866,578.687683 
	C354.206238,589.786865 359.639069,600.112366 369.970612,607.388611 
z"/>
<path fill="#FAFAFA" opacity="1.000000" stroke="none" 
	d="
M323.559143,575.127808 
	C323.397400,579.348328 323.398254,583.871704 322.330383,588.126892 
	C320.003967,597.396790 315.359070,605.052856 306.609711,610.035828 
	C296.154449,615.990417 288.556854,624.814026 283.107269,635.899780 
	C282.241211,623.127136 289.094452,614.742493 299.712585,608.666931 
	C312.742920,601.211243 319.488068,589.314514 323.559143,575.127808 
z"/>
<path fill="#CACACA" opacity="1.000000" stroke="none" 
	d="
M357.475220,564.194458 
	C357.331879,562.130127 357.324463,560.059387 357.994781,558.238098 
	C359.704437,553.592773 357.317719,551.743530 353.438812,550.233887 
	C348.994873,548.504333 344.727570,546.320740 339.863403,544.096619 
	C343.888214,540.894653 347.750549,538.580322 350.631744,535.382141 
	C358.099182,527.093018 358.554596,519.681213 352.958313,509.919647 
	C352.225037,508.640533 351.599548,507.299622 350.922180,505.632202 
	C360.804626,511.317627 362.741882,527.887512 354.533142,538.300354 
	C350.051544,543.985291 350.035736,543.959656 356.369598,547.512268 
	C358.815155,548.883972 361.169250,550.434143 363.679474,551.670837 
	C366.040253,552.833862 366.998840,554.114868 366.522705,557.063232 
	C365.338684,564.394653 365.562347,564.430786 357.475220,564.194458 
z"/>
<path fill="#F8F8F8" opacity="1.000000" stroke="none" 
	d="
M328.629181,501.185181 
	C321.091949,508.719330 316.663391,518.082520 314.142395,528.849854 
	C310.229614,517.202271 315.970581,506.105133 328.629181,501.185181 
z"/>
<path fill="#FAFAFA" opacity="1.000000" stroke="none" 
	d="
M320.574768,544.098633 
	C321.187225,544.548950 321.915619,545.388062 321.734711,545.700256 
	C318.784149,550.791809 315.630157,555.665710 308.434998,554.017456 
	C307.964264,553.909607 307.447876,554.001160 306.506714,553.996948 
	C309.550903,551.731506 313.063934,549.503235 316.519745,547.189453 
	C317.836517,546.307861 319.022156,545.230347 320.574768,544.098633 
z"/>
<path fill="#F0F0F0" opacity="1.000000" stroke="none" 
	d="
M529.987366,258.179962 
	C534.112122,259.723602 538.236816,261.267242 542.632690,263.388733 
	C545.143799,268.172028 547.588318,271.861908 552.235291,274.230133 
	C560.885498,278.638489 569.656738,283.131287 577.424377,288.877502 
	C590.676880,298.681213 597.039673,312.574249 598.045349,329.007385 
	C599.091431,346.099457 595.280823,362.208405 588.693542,377.828461 
	C587.549377,380.541443 586.872559,383.451508 585.979919,386.270538 
	C570.726196,385.901703 555.460510,385.008148 540.222961,385.353485 
	C530.505615,385.573700 520.829895,387.628937 510.684143,388.783936 
	C510.232788,388.706421 510.015991,388.728241 510.015991,388.728241 
	C510.507507,386.718994 510.999054,384.709717 512.084229,382.304047 
	C519.636414,375.912567 526.501038,369.803070 533.600403,363.979614 
	C536.383667,361.696533 539.680908,360.035095 542.764954,358.124237 
	C551.608521,352.644867 557.265503,345.144958 557.868225,334.419647 
	C557.883972,333.513367 557.899719,332.607056 558.374756,331.297607 
	C565.446289,323.285126 566.175537,311.876953 560.286011,305.665039 
	C559.343262,313.305267 554.775574,318.215698 548.123535,320.889404 
	C535.977478,325.771423 523.600281,330.075195 511.394165,334.812622 
	C504.135315,337.629852 496.753113,340.397797 491.964966,347.165741 
	C488.056335,343.668335 484.147705,340.170959 480.117859,335.973083 
	C480.397766,334.161591 480.798859,333.050568 481.572876,331.936157 
	C486.280365,331.847748 488.891968,329.822327 490.055023,325.172577 
	C487.590851,325.172577 485.836487,325.172577 484.083801,324.815002 
	C486.853058,321.010742 489.296112,317.229370 492.444946,314.175812 
	C505.382294,301.629944 518.572571,289.345428 531.588074,276.879333 
	C536.588074,272.090393 535.894409,265.531891 530.145081,261.011475 
	C530.145081,261.011475 529.987427,260.591919 529.987549,260.041260 
	C529.987549,259.053711 529.987488,258.616821 529.987366,258.179962 
M529.061951,301.998993 
	C531.050781,301.996002 533.123779,302.351868 535.009644,301.909729 
	C538.205811,301.160400 541.327087,299.454315 540.405090,295.609467 
	C539.976868,293.823700 537.687622,291.830627 535.812195,291.190155 
	C532.545837,290.074707 529.451660,291.339355 528.015076,294.728760 
	C527.042297,297.023651 524.510681,299.660797 529.061951,301.998993 
z"/>
<path fill="#F0F0F0" opacity="1.000000" stroke="none" 
	d="
M607.159851,399.944305 
	C612.241516,405.274353 611.293823,412.035522 611.969910,418.987061 
	C573.837646,418.987061 536.105408,418.987061 497.964783,418.987061 
	C497.689911,412.534302 497.641327,406.179932 502.122131,400.232849 
	C505.916595,398.988831 508.985535,397.519196 512.197876,397.066162 
	C521.154907,395.802979 530.191589,395.113800 539.159851,393.920166 
	C556.041504,391.673309 572.769592,393.504791 589.449036,395.772308 
	C595.431152,396.585510 601.260681,398.521027 607.159851,399.944305 
z"/>
<path fill="#CBCBCB" opacity="1.000000" stroke="none" 
	d="
M586.281982,386.517700 
	C586.872559,383.451508 587.549377,380.541443 588.693542,377.828461 
	C595.280823,362.208405 599.091431,346.099457 598.045349,329.007385 
	C597.039673,312.574249 590.676880,298.681213 577.424377,288.877502 
	C569.656738,283.131287 560.885498,278.638489 552.235291,274.230133 
	C547.588318,271.861908 545.143799,268.172028 542.898315,263.614075 
	C556.904480,271.113586 571.498413,278.100922 584.777161,287.041656 
	C600.555115,297.665222 606.846008,314.187805 608.119629,332.760101 
	C609.256653,349.341217 605.894836,365.485992 603.347656,381.708191 
	C602.940430,384.302002 602.428772,386.879456 601.967346,389.453430 
	C596.611755,388.517426 591.597900,387.641144 586.281982,386.517700 
z"/>
<path fill="#CBCBCB" opacity="1.000000" stroke="none" 
	d="
M492.162201,347.491028 
	C496.753113,340.397797 504.135315,337.629852 511.394165,334.812622 
	C523.600281,330.075195 535.977478,325.771423 548.123535,320.889404 
	C554.775574,318.215698 559.343262,313.305267 560.286011,305.665039 
	C566.175537,311.876953 565.446289,323.285126 558.503052,330.969269 
	C557.636353,325.615387 557.214539,325.607056 552.134094,327.302612 
	C543.823914,330.076080 535.471680,332.892700 526.934937,334.772766 
	C517.746277,336.796356 509.430176,340.069031 502.966492,347.028412 
	C499.501617,350.759003 495.962250,348.573761 492.162201,347.491028 
z"/>
<path fill="#FCFCFC" opacity="1.000000" stroke="none" 
	d="
M481.199951,331.939545 
	C480.798859,333.050568 480.397766,334.161591 479.992126,335.656525 
	C475.239655,329.649414 475.238037,328.659332 481.490784,322.031433 
	C489.113586,313.951202 496.945129,306.068329 504.638763,298.054382 
	C512.665039,289.693939 520.982300,281.569580 528.397888,272.694916 
	C530.388306,270.312866 529.556824,265.572815 530.082886,261.463348 
	C535.894409,265.531891 536.588074,272.090393 531.588074,276.879333 
	C518.572571,289.345428 505.382294,301.629944 492.444946,314.175812 
	C489.296112,317.229370 486.853058,321.010742 483.914062,325.104553 
	C482.895111,327.814301 482.047546,329.876923 481.199951,331.939545 
z"/>
<path fill="#F8F8F8" opacity="1.000000" stroke="none" 
	d="
M607.047607,399.605164 
	C601.260681,398.521027 595.431152,396.585510 589.449036,395.772308 
	C572.769592,393.504791 556.041504,391.673309 539.159851,393.920166 
	C530.191589,395.113800 521.154907,395.802979 512.197876,397.066162 
	C508.985535,397.519196 505.916595,398.988831 502.396667,399.998901 
	C505.590149,397.949280 508.939301,394.909210 512.788025,394.011963 
	C529.338867,390.153259 546.277649,389.140594 563.161377,390.270569 
	C575.988098,391.129028 588.728699,393.457153 601.452698,395.477417 
	C603.430908,395.791504 605.115234,397.956757 607.047607,399.605164 
z"/>
<path fill="#F5F5F5" opacity="1.000000" stroke="none" 
	d="
M557.572388,334.658600 
	C557.265503,345.144958 551.608521,352.644867 542.764954,358.124237 
	C539.680908,360.035095 536.383667,361.696533 533.600403,363.979614 
	C526.501038,369.803070 519.636414,375.912567 512.342041,381.954773 
	C513.962402,374.967194 519.078247,370.246552 524.418213,365.932953 
	C530.195190,361.266357 536.359863,357.062317 542.497681,352.864502 
	C549.195862,348.283386 554.761597,342.871704 557.572388,334.658600 
z"/>
<path fill="#FCFCFC" opacity="1.000000" stroke="none" 
	d="
M529.679321,258.191559 
	C529.987488,258.616821 529.987549,259.053711 529.969849,259.817871 
	C529.758362,259.497833 529.564819,258.850494 529.679321,258.191559 
z"/>
<path fill="#403F3F" opacity="1.000000" stroke="none" 
	d="
M510.181671,388.802612 
	C510.130554,388.898834 510.072601,388.697510 510.044312,388.712891 
	C510.015991,388.728241 510.232788,388.706421 510.181671,388.802612 
z"/>
<path fill="#A0A0A0" opacity="1.000000" stroke="none" 
	d="
M528.653015,301.959137 
	C524.510681,299.660797 527.042297,297.023651 528.015076,294.728760 
	C529.451660,291.339355 532.545837,290.074707 535.812195,291.190155 
	C537.687622,291.830627 539.976868,293.823700 540.405090,295.609467 
	C541.327087,299.454315 538.205811,301.160400 535.009644,301.909729 
	C533.123779,302.351868 531.050781,301.996002 528.653015,301.959137 
z"/>
<path fill="#B0B0B0" opacity="1.000000" stroke="none" 
	d="
M481.572876,331.936157 
	C482.047546,329.876923 482.895111,327.814301 483.912354,325.462128 
	C485.836487,325.172577 487.590851,325.172577 490.055023,325.172577 
	C488.891968,329.822327 486.280365,331.847748 481.572876,331.936157 
z"/>
</svg>