<svg version="1.1" id="Layer_1" xmlns="http://www.w3.org/2000/svg" xmlns:xlink="http://www.w3.org/1999/xlink" x="0px" y="0px"
	 width="100%" viewBox="0 0 902 898" enable-background="new 0 0 902 898" xml:space="preserve">
<path fill="#FFFEFE" opacity="1.000000" stroke="none" 
	d="
M1.000000,300.000000 
	C1.000000,200.000000 1.000000,100.500000 1.000000,1.000000 
	C301.666656,1.000000 602.333313,1.000000 903.000000,1.000000 
	C903.000000,300.333344 903.000000,599.666687 903.000000,899.000000 
	C602.333313,899.000000 301.666656,899.000000 1.000000,899.000000 
	C1.000000,699.500000 1.000000,500.000000 1.000000,300.000000 
M14.470970,667.622986 
	C14.414267,669.117310 14.308139,670.611633 14.307963,672.105957 
	C14.299801,741.366089 14.355466,810.626343 14.187500,879.886047 
	C14.175299,884.916870 15.853305,885.804749 20.444117,885.795532 
	C89.537476,885.656372 158.631195,885.703796 227.724823,885.672058 
	C229.502609,885.671265 231.280197,885.269409 233.987808,885.069153 
	C298.241821,885.068909 362.495819,885.063477 426.749817,885.075073 
	C435.071350,885.076538 443.392853,885.165710 452.497772,885.552490 
	C453.160919,885.599548 453.824036,885.687744 454.487183,885.687805 
	C525.065552,885.694946 595.643982,885.698853 666.222351,885.669617 
	C667.500793,885.669067 668.779053,885.268799 670.985901,885.068909 
	C743.188843,885.068909 815.391785,885.068909 888.054993,885.068909 
	C888.054993,811.878906 888.054993,739.468201 888.526855,666.377197 
	C888.582642,665.715271 888.687134,665.053345 888.687195,664.391418 
	C888.695251,593.793701 888.698364,523.195923 888.674255,452.598206 
	C888.673828,451.296478 888.344299,449.994904 888.143616,447.794830 
	C888.118774,445.631409 888.072571,443.467957 888.072266,441.304535 
	C888.063538,370.889252 888.059143,300.473969 888.526917,229.379013 
	C888.583923,227.884735 888.690613,226.390457 888.690796,224.896179 
	C888.699036,155.636353 888.643494,86.376381 888.811279,17.116955 
	C888.823425,12.089537 887.150940,11.196202 882.557251,11.205469 
	C813.464172,11.344862 744.370728,11.297245 675.277405,11.328948 
	C673.499512,11.329763 671.721741,11.730494 669.015198,11.932034 
	C604.426758,11.932074 539.838257,11.937181 475.249817,11.925679 
	C467.261047,11.924257 459.272247,11.834420 450.500519,11.447037 
	C449.837372,11.400141 449.174225,11.312236 448.511078,11.312170 
	C377.933289,11.305094 307.355499,11.301230 236.777710,11.330438 
	C235.499252,11.330966 234.220963,11.731195 232.014114,11.931056 
	C159.811142,11.931056 87.608162,11.931056 14.944999,11.931056 
	C14.944999,85.121063 14.944999,157.531815 14.473132,230.622787 
	C14.417363,231.284607 14.312823,231.946442 14.312748,232.608261 
	C14.304689,303.193878 14.301887,373.779480 14.323846,444.365082 
	C14.324252,445.670929 14.624593,446.976685 14.839085,449.171600 
	C14.870176,451.168518 14.928219,453.165466 14.928462,455.162384 
	C14.937068,525.756165 14.940249,596.349976 14.470970,667.622986 
z"/>
<path fill="#F5C79C" opacity="1.000000" stroke="none" 
	d="
M888.054138,230.058701 
	C888.059143,300.473969 888.063538,370.889252 888.072266,441.304535 
	C888.072571,443.467957 888.118774,445.631409 887.675903,448.293457 
	C814.960022,448.792053 742.711792,448.792053 670.027649,448.792053 
	C670.027649,522.103577 670.027649,594.566040 669.557373,667.018188 
	C596.610413,666.989868 524.133728,666.971985 451.581360,666.987549 
	C451.505707,667.020935 451.344208,667.056519 451.271576,666.586304 
	C451.184174,595.860840 451.169739,525.605530 451.153839,455.350281 
	C451.152374,448.852570 451.147888,448.846527 444.698212,448.846375 
	C376.274017,448.844879 307.849823,448.847137 239.425629,448.837585 
	C237.265076,448.837280 235.104538,448.721069 232.962463,448.576019 
	C232.980942,448.493164 233.047516,448.337006 233.031845,447.847473 
	C233.001556,374.895752 232.986938,302.433594 233.442596,229.981842 
	C306.388153,230.010513 378.863464,230.028778 451.416077,230.013702 
	C451.493439,229.980392 451.657867,229.943878 451.728302,230.413620 
	C451.814331,301.352905 451.864441,371.822540 451.762146,442.291901 
	C451.755829,446.654358 452.616547,448.279999 457.453156,448.268311 
	C526.423218,448.101410 595.393860,448.156647 664.364319,448.142426 
	C666.118347,448.142059 667.872375,447.961639 670.032715,447.842865 
	C670.032715,374.853302 670.032715,302.410767 670.017212,229.982635 
	C670.001770,229.997025 669.972839,230.028168 670.443115,230.019043 
	C743.293640,230.026169 815.673889,230.042435 888.054138,230.058701 
z"/>
<path fill="#BE814D" opacity="1.000000" stroke="none" 
	d="
M888.290527,229.718857 
	C815.673889,230.042435 743.293640,230.026169 670.453247,229.547852 
	C669.976746,156.705444 669.960327,84.325081 669.943909,11.944717 
	C671.721741,11.730494 673.499512,11.329763 675.277405,11.328948 
	C744.370728,11.297245 813.464172,11.344862 882.557251,11.205469 
	C887.150940,11.196202 888.823425,12.089537 888.811279,17.116955 
	C888.643494,86.376381 888.699036,155.636353 888.690796,224.896179 
	C888.690613,226.390457 888.583923,227.884735 888.290527,229.718857 
z"/>
<path fill="#BE804C" opacity="1.000000" stroke="none" 
	d="
M451.338745,230.047028 
	C378.863464,230.028778 306.388153,230.010513 233.457535,229.997131 
	C233.002197,230.002029 233.032242,230.032242 233.020203,229.561172 
	C232.986298,156.708374 232.964447,84.326653 232.942596,11.944926 
	C234.220963,11.731195 235.499252,11.330966 236.777710,11.330438 
	C307.355499,11.301230 377.933289,11.305094 448.511078,11.312170 
	C449.174225,11.312236 449.837372,11.400141 450.851288,12.101373 
	C451.186584,84.357323 451.170471,155.958939 451.163269,227.560547 
	C451.163177,228.389374 451.277710,229.218201 451.338745,230.047028 
z"/>
<path fill="#BE804C" opacity="1.000000" stroke="none" 
	d="
M451.657043,666.954163 
	C524.133728,666.971985 596.610413,666.989868 669.542419,667.002869 
	C669.997742,666.997986 669.967773,666.967773 669.979736,667.438843 
	C670.013672,740.291626 670.035522,812.673340 670.057373,885.054993 
	C668.779053,885.268799 667.500793,885.669067 666.222351,885.669617 
	C595.643982,885.698853 525.065552,885.694946 454.487183,885.687805 
	C453.824036,885.687744 453.160919,885.599548 452.146973,884.898315 
	C451.811676,812.642883 451.827850,741.041565 451.835022,669.440308 
	C451.835114,668.611572 451.718933,667.782898 451.657043,666.954163 
z"/>
<path fill="#BE804C" opacity="1.000000" stroke="none" 
	d="
M670.012695,667.013306 
	C670.027649,594.566040 670.027649,522.103577 670.027649,448.792053 
	C742.711792,448.792053 814.960022,448.792053 887.688232,448.742645 
	C888.344299,449.994904 888.673828,451.296478 888.674255,452.598206 
	C888.698364,523.195923 888.695251,593.793701 888.687195,664.391418 
	C888.687134,665.053345 888.582642,665.715271 887.818298,666.697266 
	C814.729065,667.000793 742.348450,666.984314 669.967773,666.967773 
	C669.967773,666.967773 669.997742,666.997986 670.012695,667.013306 
z"/>
<path fill="#BE804C" opacity="1.000000" stroke="none" 
	d="
M232.987244,229.986725 
	C232.986938,302.433594 233.001556,374.895752 232.562775,447.776215 
	C179.817383,448.180084 127.525383,448.152252 75.233376,448.157990 
	C55.083908,448.160217 34.934448,448.238770 14.784986,448.282501 
	C14.624593,446.976685 14.324252,445.670929 14.323846,444.365082 
	C14.301887,373.779480 14.304689,303.193878 14.312748,232.608261 
	C14.312823,231.946442 14.417363,231.284607 15.181697,230.302795 
	C88.270920,229.999283 160.651581,230.015762 233.032242,230.032242 
	C233.032242,230.032242 233.002197,230.002029 232.987244,229.986725 
z"/>
<path fill="#F5C79C" opacity="1.000000" stroke="none" 
	d="
M233.020203,229.561172 
	C160.651581,230.015762 88.270920,229.999283 15.417630,229.962677 
	C14.944999,157.531815 14.944999,85.121063 14.944999,11.931056 
	C87.608162,11.931056 159.811142,11.931056 232.478363,11.937992 
	C232.964447,84.326653 232.986298,156.708374 233.020203,229.561172 
z"/>
<path fill="#F5C79C" opacity="1.000000" stroke="none" 
	d="
M669.979736,667.438843 
	C742.348450,666.984314 814.729065,667.000793 887.582397,667.037354 
	C888.054993,739.468201 888.054993,811.878906 888.054993,885.068909 
	C815.391785,885.068909 743.188843,885.068909 670.521606,885.061951 
	C670.035522,812.673340 670.013672,740.291626 669.979736,667.438843 
z"/>
<path fill="#F5C79C" opacity="1.000000" stroke="none" 
	d="
M451.581360,666.987549 
	C451.718933,667.782898 451.835114,668.611572 451.835022,669.440308 
	C451.827850,741.041565 451.811676,812.642883 451.755249,884.729248 
	C443.392853,885.165710 435.071350,885.076538 426.749817,885.075073 
	C362.495819,885.063477 298.241821,885.068909 233.502747,884.589233 
	C233.021133,811.730469 233.024567,739.351685 233.012619,666.987427 
	C232.997238,667.002014 232.968018,667.032532 233.439087,667.020325 
	C306.388153,667.024231 378.866180,667.040405 451.344208,667.056519 
	C451.344208,667.056519 451.505707,667.020935 451.581360,666.987549 
M353.500000,863.880554 
	C367.492218,863.880432 381.485016,863.807922 395.476227,863.926331 
	C399.426331,863.959717 400.973053,862.693726 401.134705,858.456909 
	C401.682007,844.109741 395.630127,833.669861 383.757782,825.956604 
	C378.958008,822.838318 374.154755,819.309875 370.445435,815.022949 
	C364.450043,808.093811 360.891449,799.704895 358.881714,790.439270 
	C360.399078,790.328003 361.381836,790.207947 362.366333,790.190979 
	C377.492523,789.930176 377.601257,789.936157 378.004669,774.743530 
	C378.052704,772.935059 376.560852,770.503479 375.034576,769.354797 
	C371.701355,766.845947 367.886688,764.976929 364.248535,762.834656 
	C373.875122,748.765198 373.069580,733.341187 362.544800,723.198181 
	C352.111145,713.142822 335.502350,712.342285 323.674774,721.324524 
	C312.052856,730.150635 310.649078,745.218384 320.024292,763.085632 
	C316.488953,765.135742 312.690002,766.890686 309.470886,769.391968 
	C307.830200,770.666748 306.406006,773.256836 306.343323,775.297241 
	C306.233063,778.884216 307.456085,782.490051 307.722534,786.117249 
	C307.969086,789.473450 309.763458,790.270447 312.684967,790.205078 
	C316.920929,790.110107 321.160614,790.180786 326.093018,790.180786 
	C320.991760,804.662354 315.849976,817.814148 301.785553,825.430908 
	C289.421265,832.126892 283.000305,842.922424 283.347870,857.319153 
	C283.488434,863.141785 284.161285,863.872864 290.035278,863.876099 
	C310.856842,863.887634 331.678436,863.880432 353.500000,863.880554 
z"/>
<path fill="#BE814D" opacity="1.000000" stroke="none" 
	d="
M233.028000,666.972900 
	C233.024567,739.351685 233.021133,811.730469 233.037781,884.581909 
	C231.280197,885.269409 229.502609,885.671265 227.724823,885.672058 
	C158.631195,885.703796 89.537476,885.656372 20.444117,885.795532 
	C15.853305,885.804749 14.175299,884.916870 14.187500,879.886047 
	C14.355466,810.626343 14.299801,741.366089 14.307963,672.105957 
	C14.308139,670.611633 14.414267,669.117310 15.180302,667.303345 
	C88.269089,666.980103 160.648544,666.976501 233.028000,666.972900 
M166.421005,705.987732 
	C162.180084,705.380737 157.939178,704.773743 153.461792,704.132935 
	C151.732224,709.547546 150.085220,714.703613 148.517212,719.612427 
	C145.149261,719.612427 142.238266,719.612427 139.275314,719.612427 
	C138.364136,714.038940 137.514236,708.840210 136.597305,703.231567 
	C129.354202,703.231567 122.379395,703.381958 115.415588,703.170227 
	C111.748695,703.058716 110.336296,704.696045 109.986153,708.067749 
	C109.579651,711.982239 108.952805,715.873840 108.439018,719.647400 
	C99.201233,720.561157 99.194008,720.563416 96.681190,712.504150 
	C96.038918,710.444092 95.660194,708.271362 94.762627,706.334717 
	C94.323761,705.387817 92.878380,704.153320 92.048370,704.262512 
	C86.042252,705.053345 80.076965,706.154297 73.014336,707.338989 
	C73.014336,716.825378 72.578590,725.814880 73.137932,734.742004 
	C73.687836,743.518433 75.608315,752.568970 84.395714,756.703125 
	C89.503365,759.106201 89.285568,761.688049 88.485947,765.968567 
	C84.825226,785.565002 81.477943,805.220459 77.724014,824.798340 
	C77.340637,826.797852 75.350548,829.079529 73.487434,830.091858 
	C68.374870,832.869812 64.449806,836.523621 63.330223,842.282410 
	C62.418072,846.974182 61.980476,851.807983 61.858845,856.592163 
	C61.675114,863.818848 61.918411,863.889038 69.007454,863.890198 
	C104.173561,863.896118 139.339783,863.942017 174.505707,863.862183 
	C184.706100,863.839050 186.629074,866.804260 185.862000,852.070374 
	C185.355194,842.335022 182.719345,833.696777 172.626862,829.317810 
	C171.358276,828.767334 170.331711,826.628967 170.020401,825.061951 
	C167.010315,809.910278 164.123047,794.733459 161.317978,779.542114 
	C160.036987,772.604736 159.017838,765.619019 157.894745,758.745911 
	C165.819122,756.409607 170.404724,751.631348 172.503067,744.351013 
	C175.369370,734.406250 174.867645,724.351624 174.227097,714.166199 
	C173.906128,709.062378 172.992569,705.883057 166.421005,705.987732 
z"/>
<path fill="#F4C69C" opacity="1.000000" stroke="none" 
	d="
M451.416077,230.013702 
	C451.277710,229.218201 451.163177,228.389374 451.163269,227.560547 
	C451.170471,155.958939 451.186584,84.357323 451.242767,12.270632 
	C459.272247,11.834420 467.261047,11.924257 475.249817,11.925679 
	C539.838257,11.937181 604.426758,11.932074 669.479553,11.938375 
	C669.960327,84.325081 669.976746,156.705444 669.983032,229.556992 
	C669.972839,230.028168 670.001770,229.997025 669.546021,229.994995 
	C596.612793,229.976593 524.135315,229.960236 451.657867,229.943878 
	C451.657867,229.943878 451.493439,229.980392 451.416077,230.013702 
M602.065308,80.331688 
	C600.438904,79.375305 598.169800,78.817337 597.289978,77.398117 
	C591.415527,67.922203 582.983215,61.949524 572.494629,58.598278 
	C578.883057,48.550232 578.945068,41.373505 572.797546,35.759972 
	C566.447937,29.961912 555.474731,29.489199 548.965515,35.324127 
	C546.655273,37.395123 544.998352,40.662216 544.061707,43.697575 
	C542.304932,49.390186 544.887695,54.238972 548.967407,58.463348 
	C537.977051,61.823341 529.954895,68.121971 524.011597,77.236656 
	C523.203247,78.476303 521.725586,79.677193 520.328369,80.061325 
	C515.983154,81.255943 513.695496,83.937843 512.615662,88.247467 
	C510.742065,95.724731 510.716064,95.335144 503.207031,92.992188 
	C499.290192,91.770065 494.683228,91.051018 490.781067,91.903656 
	C485.348450,93.090691 485.269318,94.992828 488.504700,99.602493 
	C495.289917,109.269981 502.266663,118.825539 508.571838,128.801804 
	C516.710449,141.679016 520.907410,155.869293 520.841858,170.773743 
	C516.113770,172.789703 511.309296,174.005890 507.479248,176.639297 
	C498.682281,182.687759 498.686554,192.389725 498.442535,201.768585 
	C498.321045,206.437393 500.207001,208.319214 505.334686,208.287811 
	C542.332581,208.061249 579.332581,208.167206 616.331848,208.162628 
	C617.497253,208.162476 618.828552,208.450775 619.785645,207.989151 
	C620.951965,207.426590 622.596924,206.271210 622.672119,205.269913 
	C623.768188,190.672836 621.989685,175.078812 602.676514,171.934311 
	C602.068054,171.835251 601.504028,171.463943 600.803345,171.171112 
	C600.519409,156.863419 604.158508,143.647614 611.468811,131.692459 
	C618.275696,120.560547 625.978638,109.976219 633.297791,99.158081 
	C636.220947,94.837547 636.151062,93.171425 631.163086,92.096436 
	C627.108582,91.222610 622.317871,91.727859 618.324768,93.047417 
	C610.958923,95.481567 611.200684,95.674065 608.725708,88.491615 
	C607.708984,85.541077 604.798218,83.243195 602.065308,80.331688 
z"/>
<path fill="#F4C69C" opacity="1.000000" stroke="none" 
	d="
M233.012619,666.987427 
	C160.648544,666.976501 88.269089,666.980103 15.416915,666.963745 
	C14.940249,596.349976 14.937068,525.756165 14.928462,455.162384 
	C14.928219,453.165466 14.870176,451.168518 14.812036,448.727051 
	C34.934448,448.238770 55.083908,448.160217 75.233376,448.157990 
	C127.525383,448.152252 179.817383,448.180084 232.578461,448.265747 
	C233.047516,448.337006 232.980942,448.493164 232.983154,449.083130 
	C232.979568,522.126221 232.973801,594.579407 232.968018,667.032532 
	C232.968018,667.032532 232.997238,667.002014 233.012619,666.987427 
M79.775841,504.276123 
	C71.743881,512.715759 63.588367,521.042419 55.725735,529.636963 
	C50.919945,534.890076 46.319515,540.377747 42.149364,546.138306 
	C40.828655,547.962708 40.082596,551.548889 40.981678,553.404114 
	C45.113537,561.929932 51.108509,569.045898 59.928272,573.134338 
	C67.251587,576.528992 70.759895,575.296387 76.962601,570.234985 
	C81.222939,566.758545 86.239716,563.658752 91.432411,561.994751 
	C100.960106,558.941711 110.867386,557.073242 121.051697,554.605469 
	C120.293297,556.167358 119.915558,558.162720 118.712814,559.217163 
	C112.634972,564.545349 106.660080,570.082764 100.057259,574.700623 
	C87.433861,583.529053 77.135223,593.866394 73.499611,609.460205 
	C73.250435,610.528992 72.757652,611.888428 71.931854,612.422424 
	C61.858986,618.935242 61.736923,629.132324 61.614578,639.428162 
	C61.560646,643.966370 63.472050,645.271118 67.970909,645.248901 
	C103.297050,645.074341 138.624435,645.152466 173.951431,645.151550 
	C176.617584,645.151428 179.323822,645.412231 181.933350,645.025269 
	C183.282104,644.825256 185.480194,643.552185 185.557205,642.620361 
	C186.403732,632.377197 186.240952,622.340027 178.317352,614.205872 
	C177.110214,612.966675 176.363602,610.497803 176.600311,608.760620 
	C178.081726,597.888367 180.146057,587.093811 181.554367,576.213684 
	C183.690430,559.710938 183.399628,543.312744 176.564575,527.758057 
	C168.232010,508.795441 152.606201,497.732605 134.356354,489.600616 
	C129.265167,487.332031 124.054314,485.093262 119.461929,482.003235 
	C113.448547,477.957062 107.387825,474.508453 100.088997,473.515167 
	C93.557793,472.626343 92.790382,472.951721 93.746574,479.386322 
	C94.807945,486.528564 93.638908,492.344910 87.399529,496.781982 
	C84.721397,498.686493 82.632401,501.419403 79.775841,504.276123 
z"/>
<path fill="#BE804C" opacity="1.000000" stroke="none" 
	d="
M233.439087,667.020325 
	C232.973801,594.579407 232.979568,522.126221 232.964661,449.165985 
	C235.104538,448.721069 237.265076,448.837280 239.425629,448.837585 
	C307.849823,448.847137 376.274017,448.844879 444.698212,448.846375 
	C451.147888,448.846527 451.152374,448.852570 451.153839,455.350281 
	C451.169739,525.605530 451.184174,595.860840 451.271576,666.586304 
	C378.866180,667.040405 306.388153,667.024231 233.439087,667.020325 
z"/>
<path fill="#BE804C" opacity="1.000000" stroke="none" 
	d="
M451.728302,230.413620 
	C524.135315,229.960236 596.612793,229.976593 669.561523,229.980591 
	C670.032715,302.410767 670.032715,374.853302 670.032715,447.842865 
	C667.872375,447.961639 666.118347,448.142059 664.364319,448.142426 
	C595.393860,448.156647 526.423218,448.101410 457.453156,448.268311 
	C452.616547,448.279999 451.755829,446.654358 451.762146,442.291901 
	C451.864441,371.822540 451.814331,301.352905 451.728302,230.413620 
z"/>
<path fill="#454443" opacity="1.000000" stroke="none" 
	d="
M353.000000,863.880493 
	C331.678436,863.880432 310.856842,863.887634 290.035278,863.876099 
	C284.161285,863.872864 283.488434,863.141785 283.347870,857.319153 
	C283.000305,842.922424 289.421265,832.126892 301.785553,825.430908 
	C315.849976,817.814148 320.991760,804.662354 326.093018,790.180786 
	C321.160614,790.180786 316.920929,790.110107 312.684967,790.205078 
	C309.763458,790.270447 307.969086,789.473450 307.722534,786.117249 
	C307.456085,782.490051 306.233063,778.884216 306.343323,775.297241 
	C306.406006,773.256836 307.830200,770.666748 309.470886,769.391968 
	C312.690002,766.890686 316.488953,765.135742 320.024292,763.085632 
	C310.649078,745.218384 312.052856,730.150635 323.674774,721.324524 
	C335.502350,712.342285 352.111145,713.142822 362.544800,723.198181 
	C373.069580,733.341187 373.875122,748.765198 364.248535,762.834656 
	C367.886688,764.976929 371.701355,766.845947 375.034576,769.354797 
	C376.560852,770.503479 378.052704,772.935059 378.004669,774.743530 
	C377.601257,789.936157 377.492523,789.930176 362.366333,790.190979 
	C361.381836,790.207947 360.399078,790.328003 358.881714,790.439270 
	C360.891449,799.704895 364.450043,808.093811 370.445435,815.022949 
	C374.154755,819.309875 378.958008,822.838318 383.757782,825.956604 
	C395.630127,833.669861 401.682007,844.109741 401.134705,858.456909 
	C400.973053,862.693726 399.426331,863.959717 395.476227,863.926331 
	C381.485016,863.807922 367.492218,863.880432 353.000000,863.880493 
M333.281921,722.062805 
	C321.454712,727.591064 316.450745,738.029907 319.896515,750.805237 
	C321.676849,753.934143 323.179688,757.269226 325.311310,760.137024 
	C327.701111,763.352173 327.458069,765.305420 323.791809,767.116760 
	C320.382965,768.800903 317.121490,770.812500 313.927795,772.884521 
	C313.002899,773.484558 311.943787,774.803955 311.967468,775.768433 
	C312.042145,778.812439 312.601135,781.844604 312.959961,784.776978 
	C330.073151,784.776978 346.506470,784.776978 363.842804,784.920593 
	C366.419067,784.920593 368.995331,784.920593 371.435364,784.920593 
	C373.027130,774.696228 373.025421,774.699036 364.631012,769.569519 
	C363.789490,769.055359 363.014587,768.428528 362.159058,767.941406 
	C356.199432,764.548218 356.151520,764.345825 360.287415,758.935974 
	C368.540710,748.140442 367.169098,733.748901 356.654510,725.286499 
	C349.651245,720.312195 342.135162,718.984070 333.281921,722.062805 
M331.376678,791.011780 
	C331.215363,791.828796 331.054047,792.645752 330.373047,793.795837 
	C330.301361,794.185608 330.229675,794.575317 329.934235,795.657288 
	C329.469269,797.030151 329.004272,798.403015 328.105865,800.329468 
	C323.458344,812.711182 316.654083,823.174927 304.630371,829.926147 
	C295.100189,835.277222 288.623627,843.180054 288.614990,855.888977 
	C288.794403,859.484070 291.564117,858.376465 293.461914,858.379578 
	C325.905579,858.433655 358.349365,858.423218 390.793121,858.403320 
	C392.373657,858.402344 393.954102,858.184814 395.439911,858.075134 
	C396.628906,844.813049 390.342773,834.979309 376.691467,828.169434 
	C373.920349,825.836243 370.855164,823.771545 368.433502,821.119263 
	C361.266052,813.269226 357.191467,803.711609 353.929932,793.731567 
	C353.498901,792.412598 352.171478,790.408203 351.230286,790.391907 
	C344.819366,790.281006 338.400726,790.617737 331.376678,791.011780 
z"/>
<path fill="#393939" opacity="1.000000" stroke="none" 
	d="
M166.853745,706.012756 
	C172.992569,705.883057 173.906128,709.062378 174.227097,714.166199 
	C174.867645,724.351624 175.369370,734.406250 172.503067,744.351013 
	C170.404724,751.631348 165.819122,756.409607 157.894745,758.745911 
	C159.017838,765.619019 160.036987,772.604736 161.317978,779.542114 
	C164.123047,794.733459 167.010315,809.910278 170.020401,825.061951 
	C170.331711,826.628967 171.358276,828.767334 172.626862,829.317810 
	C182.719345,833.696777 185.355194,842.335022 185.862000,852.070374 
	C186.629074,866.804260 184.706100,863.839050 174.505707,863.862183 
	C139.339783,863.942017 104.173561,863.896118 69.007454,863.890198 
	C61.918411,863.889038 61.675114,863.818848 61.858845,856.592163 
	C61.980476,851.807983 62.418072,846.974182 63.330223,842.282410 
	C64.449806,836.523621 68.374870,832.869812 73.487434,830.091858 
	C75.350548,829.079529 77.340637,826.797852 77.724014,824.798340 
	C81.477943,805.220459 84.825226,785.565002 88.485947,765.968567 
	C89.285568,761.688049 89.503365,759.106201 84.395714,756.703125 
	C75.608315,752.568970 73.687836,743.518433 73.137932,734.742004 
	C72.578590,725.814880 73.014336,716.825378 73.014336,707.338989 
	C80.076965,706.154297 86.042252,705.053345 92.048370,704.262512 
	C92.878380,704.153320 94.323761,705.387817 94.762627,706.334717 
	C95.660194,708.271362 96.038918,710.444092 96.681190,712.504150 
	C99.194008,720.563416 99.201233,720.561157 108.439018,719.647400 
	C108.952805,715.873840 109.579651,711.982239 109.986153,708.067749 
	C110.336296,704.696045 111.748695,703.058716 115.415588,703.170227 
	C122.379395,703.381958 129.354202,703.231567 136.597305,703.231567 
	C137.514236,708.840210 138.364136,714.038940 139.275314,719.612427 
	C142.238266,719.612427 145.149261,719.612427 148.517212,719.612427 
	C150.085220,714.703613 151.732224,709.547546 153.461792,704.132935 
	C157.939178,704.773743 162.180084,705.380737 166.853745,706.012756 
M175.943176,838.265686 
	C172.219788,836.377380 168.679245,833.597839 164.734467,832.788452 
	C156.810730,831.162476 148.690460,830.295288 140.608292,829.679810 
	C120.708466,828.164429 100.848618,828.653931 81.330109,833.179077 
	C77.637260,834.035217 74.434792,837.006592 70.448235,839.475159 
	C66.643158,845.187866 66.705429,851.545044 66.957047,858.006897 
	C105.105293,858.006897 142.847778,858.006897 181.192566,858.006897 
	C180.027390,851.120117 181.282990,844.273315 175.943176,838.265686 
M162.367905,710.536743 
	C160.623245,710.327698 158.878571,710.118713 157.108917,709.906738 
	C155.721329,714.545227 154.622971,718.714661 153.167389,722.755432 
	C152.771164,723.855347 151.334625,725.285889 150.314163,725.336792 
	C145.088287,725.597900 139.842361,725.457642 134.576675,725.457642 
	C133.901917,720.213440 133.589951,716.074829 132.727966,712.054138 
	C132.440811,710.714722 130.818893,708.755066 129.679138,708.662903 
	C124.942932,708.280029 120.157814,708.501953 115.221764,708.501953 
	C114.391449,714.250366 113.640938,719.446289 112.777977,725.420776 
	C107.677788,725.420776 102.712975,725.626038 97.786133,725.284180 
	C96.467064,725.192688 94.617920,723.677734 94.127670,722.391174 
	C92.612968,718.416504 91.636642,714.236694 90.373909,709.868958 
	C88.739113,710.141724 87.307663,710.380493 85.031364,710.678650 
	C80.114830,710.372192 77.779465,712.414856 78.110001,717.594055 
	C78.393944,722.043152 78.147392,726.526001 78.041962,731.840515 
	C78.435547,734.960266 78.514168,738.159851 79.281250,741.184875 
	C81.669029,750.601257 87.467583,753.814331 95.702797,753.374634 
	C112.400818,752.483154 129.159241,752.722778 146.789093,752.820557 
	C147.780685,752.890320 148.772629,752.955383 149.763824,753.030579 
	C162.116440,753.967163 166.496506,750.984070 168.328583,738.635437 
	C169.386627,731.503845 168.699661,724.127930 169.095413,716.878174 
	C169.345535,712.296204 167.472153,710.449463 162.367905,710.536743 
M86.393883,806.635803 
	C85.139938,813.375671 83.885986,820.115601 82.652260,826.746765 
	C91.994896,825.839783 100.581161,824.302002 109.163406,824.324097 
	C125.431473,824.366028 141.697250,825.302429 158.682983,826.181580 
	C160.584961,826.464478 162.486954,826.747375 164.843277,827.097900 
	C160.832596,804.958923 156.994446,783.453857 152.915787,761.994507 
	C152.651718,760.605164 150.594604,758.599609 149.272125,758.519348 
	C138.510574,757.866577 127.725319,757.604553 116.047234,757.129211 
	C113.030121,757.218445 110.013016,757.307678 106.165276,757.315369 
	C102.559059,757.741272 98.952843,758.167175 94.977890,758.636658 
	C93.022537,769.804565 91.079941,780.899658 88.960899,792.642456 
	C88.952271,793.086548 88.943642,793.530579 88.545731,794.629089 
	C87.971725,798.421814 87.397713,802.214478 86.393883,806.635803 
z"/>
<path fill="#414040" opacity="1.000000" stroke="none" 
	d="
M602.407227,80.490059 
	C604.798218,83.243195 607.708984,85.541077 608.725708,88.491615 
	C611.200684,95.674065 610.958923,95.481567 618.324768,93.047417 
	C622.317871,91.727859 627.108582,91.222610 631.163086,92.096436 
	C636.151062,93.171425 636.220947,94.837547 633.297791,99.158081 
	C625.978638,109.976219 618.275696,120.560547 611.468811,131.692459 
	C604.158508,143.647614 600.519409,156.863419 600.803345,171.171112 
	C601.504028,171.463943 602.068054,171.835251 602.676514,171.934311 
	C621.989685,175.078812 623.768188,190.672836 622.672119,205.269913 
	C622.596924,206.271210 620.951965,207.426590 619.785645,207.989151 
	C618.828552,208.450775 617.497253,208.162476 616.331848,208.162628 
	C579.332581,208.167206 542.332581,208.061249 505.334686,208.287811 
	C500.207001,208.319214 498.321045,206.437393 498.442535,201.768585 
	C498.686554,192.389725 498.682281,182.687759 507.479248,176.639297 
	C511.309296,174.005890 516.113770,172.789703 520.841858,170.773743 
	C520.907410,155.869293 516.710449,141.679016 508.571838,128.801804 
	C502.266663,118.825539 495.289917,109.269981 488.504700,99.602493 
	C485.269318,94.992828 485.348450,93.090691 490.781067,91.903656 
	C494.683228,91.051018 499.290192,91.770065 503.207031,92.992188 
	C510.716064,95.335144 510.742065,95.724731 512.615662,88.247467 
	C513.695496,83.937843 515.983154,81.255943 520.328369,80.061325 
	C521.725586,79.677193 523.203247,78.476303 524.011597,77.236656 
	C529.954895,68.121971 537.977051,61.823341 548.967407,58.463348 
	C544.887695,54.238972 542.304932,49.390186 544.061707,43.697575 
	C544.998352,40.662216 546.655273,37.395123 548.965515,35.324127 
	C555.474731,29.489199 566.447937,29.961912 572.797546,35.759972 
	C578.945068,41.373505 578.883057,48.550232 572.494629,58.598278 
	C582.983215,61.949524 591.415527,67.922203 597.289978,77.398117 
	C598.169800,78.817337 600.438904,79.375305 602.407227,80.490059 
M566.417908,38.568535 
	C561.081787,35.024796 555.251831,35.851585 550.982178,40.757618 
	C547.924377,44.271168 548.034180,49.287178 551.249084,52.947945 
	C555.008484,57.228745 561.145874,58.096481 566.736816,55.079521 
	C570.560486,53.334785 572.536316,50.395485 572.087769,46.171467 
	C571.741821,42.913754 571.090759,39.680042 566.417908,38.568535 
M580.589355,87.755493 
	C584.790649,85.703011 588.992004,83.650536 593.464417,81.465622 
	C589.174866,74.479256 584.299805,69.352722 576.767944,66.058372 
	C558.003906,57.539104 535.209229,64.685097 528.595764,81.160049 
	C540.905151,90.113167 541.168579,90.095833 551.655273,79.644287 
	C555.874207,75.439484 562.203979,74.145164 566.613098,77.165894 
	C569.302979,79.008789 571.247192,81.905830 573.800232,83.994522 
	C575.591858,85.460220 577.845520,86.361046 580.589355,87.755493 
M613.700256,183.333511 
	C609.689941,181.239746 605.888428,178.027954 601.635437,177.233856 
	C574.276306,172.125519 546.806274,172.170380 519.427551,177.245773 
	C514.502869,178.158691 509.199677,179.302261 506.479492,185.527191 
	C505.337158,191.110443 504.194824,196.693695 502.963074,202.713959 
	C541.981995,202.713959 579.709534,202.713959 617.817322,202.713959 
	C617.516846,196.042313 618.121643,189.543961 613.700256,183.333511 
M516.926636,133.804794 
	C523.309448,145.069763 525.670410,157.440979 526.330444,170.315506 
	C533.018677,169.787674 539.104126,169.143311 545.206360,168.864075 
	C554.464050,168.440445 563.733459,168.270493 573.762573,168.333206 
	C580.798340,168.975967 587.834167,169.618713 595.333801,170.303833 
	C595.325195,140.548767 612.294983,118.816994 628.302673,96.655037 
	C628.029907,96.326744 627.757141,95.998459 627.484375,95.670166 
	C625.363770,96.321358 623.243103,96.972549 620.348022,97.857681 
	C619.554321,98.083664 618.737244,98.249184 617.970459,98.544975 
	C610.033630,101.606628 606.098083,99.599289 604.126343,91.460762 
	C603.931763,90.657784 603.739685,89.854095 603.533325,89.054138 
	C602.471497,84.939156 599.736633,84.318253 596.313171,85.888268 
	C593.613098,87.126511 591.093384,88.756210 588.485718,90.197937 
	C580.154663,94.804039 574.992615,93.872231 568.881287,86.669312 
	C562.187439,78.779869 559.608826,78.705368 552.761841,86.203506 
	C545.045837,94.653305 540.561584,95.195053 530.822510,88.872597 
	C529.992920,88.334053 529.131958,87.836899 528.254700,87.379738 
	C520.673279,83.428741 518.896301,84.225510 516.985657,92.408730 
	C515.403137,99.186729 511.453949,101.350845 504.776611,99.120209 
	C503.531738,98.704353 502.261719,98.363655 500.449097,97.523399 
	C498.170258,96.911438 495.891388,96.299484 493.013458,95.526649 
	C501.299713,108.597771 509.061005,120.840775 516.926636,133.804794 
z"/>
<path fill="#3D3D3D" opacity="1.000000" stroke="none" 
	d="
M80.025787,504.026031 
	C82.632401,501.419403 84.721397,498.686493 87.399529,496.781982 
	C93.638908,492.344910 94.807945,486.528564 93.746574,479.386322 
	C92.790382,472.951721 93.557793,472.626343 100.088997,473.515167 
	C107.387825,474.508453 113.448547,477.957062 119.461929,482.003235 
	C124.054314,485.093262 129.265167,487.332031 134.356354,489.600616 
	C152.606201,497.732605 168.232010,508.795441 176.564575,527.758057 
	C183.399628,543.312744 183.690430,559.710938 181.554367,576.213684 
	C180.146057,587.093811 178.081726,597.888367 176.600311,608.760620 
	C176.363602,610.497803 177.110214,612.966675 178.317352,614.205872 
	C186.240952,622.340027 186.403732,632.377197 185.557205,642.620361 
	C185.480194,643.552185 183.282104,644.825256 181.933350,645.025269 
	C179.323822,645.412231 176.617584,645.151428 173.951431,645.151550 
	C138.624435,645.152466 103.297050,645.074341 67.970909,645.248901 
	C63.472050,645.271118 61.560646,643.966370 61.614578,639.428162 
	C61.736923,629.132324 61.858986,618.935242 71.931854,612.422424 
	C72.757652,611.888428 73.250435,610.528992 73.499611,609.460205 
	C77.135223,593.866394 87.433861,583.529053 100.057259,574.700623 
	C106.660080,570.082764 112.634972,564.545349 118.712814,559.217163 
	C119.915558,558.162720 120.293297,556.167358 121.051697,554.605469 
	C110.867386,557.073242 100.960106,558.941711 91.432411,561.994751 
	C86.239716,563.658752 81.222939,566.758545 76.962601,570.234985 
	C70.759895,575.296387 67.251587,576.528992 59.928272,573.134338 
	C51.108509,569.045898 45.113537,561.929932 40.981678,553.404114 
	C40.082596,551.548889 40.828655,547.962708 42.149364,546.138306 
	C46.319515,540.377747 50.919945,534.890076 55.725735,529.636963 
	C63.588367,521.042419 71.743881,512.715759 80.025787,504.026031 
M176.704102,620.321472 
	C173.486603,618.481689 170.474472,615.711914 167.019180,614.948792 
	C138.625961,608.678162 110.087395,609.240540 81.626221,614.461182 
	C78.011696,615.124146 74.805374,618.012451 70.800369,620.197144 
	C67.012230,626.213501 66.463287,632.796509 67.038483,639.768188 
	C105.100548,639.768188 142.801300,639.768188 180.879501,639.768188 
	C180.527435,633.112793 180.998947,626.600952 176.704102,620.321472 
M80.428001,603.619568 
	C80.125214,605.313782 79.822426,607.008057 79.482330,608.911011 
	C80.763031,608.911011 81.403999,608.959717 82.035728,608.903809 
	C96.067673,607.663879 110.078377,605.864136 124.136452,605.345825 
	C134.377533,604.968201 144.680847,606.278320 155.732437,607.154968 
	C160.725571,608.080383 165.718704,609.005859 170.932388,609.972229 
	C171.518799,606.536560 172.088043,603.284241 172.627502,600.027100 
	C175.285980,583.975220 178.364288,567.954651 176.992462,551.546448 
	C175.596191,534.846130 169.043945,520.888184 156.504776,509.306061 
	C143.857361,497.623932 126.723175,494.441772 112.792679,484.156616 
	C108.529144,482.428558 104.265617,480.700500 99.171631,479.223541 
	C99.166656,481.712891 98.792526,484.270935 99.240112,486.676056 
	C99.977570,490.638794 98.346527,493.213776 95.614830,495.790985 
	C91.380913,499.785370 87.415497,504.070099 83.422005,508.312439 
	C71.790253,520.669067 60.206173,533.070557 48.591980,545.443726 
	C45.083496,549.181519 44.458836,552.801819 48.983631,556.955017 
	C52.852032,560.422913 56.720432,563.890869 61.137741,567.867188 
	C65.638359,570.059326 69.385437,570.454285 73.458099,566.099182 
	C78.749519,560.440918 85.874146,557.656494 93.521027,555.834717 
	C102.984360,553.580200 112.317780,550.679504 121.541229,547.565979 
	C125.532036,546.218811 127.209114,546.811707 127.019936,551.788086 
	C126.637550,553.506775 126.255157,555.225403 125.247223,557.277832 
	C123.139450,560.572876 121.668762,564.631104 118.805557,567.021179 
	C109.891998,574.461670 100.296349,581.079895 91.277557,588.401733 
	C86.585289,592.211182 82.355194,596.692932 80.428001,603.619568 
z"/>
<path fill="#F0F0F0" opacity="1.000000" stroke="none" 
	d="
M328.539276,799.775879 
	C329.004272,798.403015 329.469269,797.030151 330.261292,795.116943 
	C330.689789,794.205383 330.791260,793.834045 330.892731,793.462769 
	C331.054047,792.645752 331.215363,791.828796 331.711273,791.279785 
	C340.020233,806.510620 351.208527,818.417297 366.225830,826.360352 
	C369.370758,828.023804 373.428284,827.961792 377.065277,828.694885 
	C390.342773,834.979309 396.628906,844.813049 395.439911,858.075134 
	C393.954102,858.184814 392.373657,858.402344 390.793121,858.403320 
	C358.349365,858.423218 325.905579,858.433655 293.461914,858.379578 
	C291.564117,858.376465 288.794403,859.484070 289.130432,855.396912 
	C295.676147,844.007629 304.052734,835.380798 314.666260,828.873840 
	C321.012299,824.983032 325.389038,819.338745 327.198883,812.218201 
	C328.208649,808.245239 331.656738,804.272278 328.539276,799.775879 
z"/>
<path fill="#EFEFEF" opacity="1.000000" stroke="none" 
	d="
M362.939819,784.776978 
	C346.506470,784.776978 330.073151,784.776978 312.959961,784.776978 
	C312.601135,781.844604 312.042145,778.812439 311.967468,775.768433 
	C311.943787,774.803955 313.002899,773.484558 313.927795,772.884521 
	C317.121490,770.812500 320.382965,768.800903 323.791809,767.116760 
	C327.458069,765.305420 327.701111,763.352173 325.311310,760.137024 
	C323.179688,757.269226 321.676849,753.934143 320.181549,750.200317 
	C323.083191,742.875732 325.470490,736.052979 328.425842,729.485840 
	C329.659821,726.743774 332.101532,724.545227 333.994141,722.099548 
	C342.135162,718.984070 349.651245,720.312195 356.832642,725.924438 
	C357.216827,727.352661 357.203278,728.311584 357.661346,728.908508 
	C367.001495,741.080322 360.807587,753.785034 350.261444,760.918701 
	C348.720795,761.960938 347.248169,763.103699 345.145691,764.636108 
	C348.452393,766.245667 350.703949,767.699280 353.168793,768.475952 
	C361.344360,771.052063 366.242584,775.405701 362.939819,784.776978 
z"/>
<path fill="#CACACA" opacity="1.000000" stroke="none" 
	d="
M376.878357,828.432129 
	C373.428284,827.961792 369.370758,828.023804 366.225830,826.360352 
	C351.208527,818.417297 340.020233,806.510620 332.015198,791.178833 
	C338.400726,790.617737 344.819366,790.281006 351.230286,790.391907 
	C352.171478,790.408203 353.498901,792.412598 353.929932,793.731567 
	C357.191467,803.711609 361.266052,813.269226 368.433502,821.119263 
	C370.855164,823.771545 373.920349,825.836243 376.878357,828.432129 
z"/>
<path fill="#CBCBCB" opacity="1.000000" stroke="none" 
	d="
M363.391296,784.848755 
	C366.242584,775.405701 361.344360,771.052063 353.168793,768.475952 
	C350.703949,767.699280 348.452393,766.245667 345.145691,764.636108 
	C347.248169,763.103699 348.720795,761.960938 350.261444,760.918701 
	C360.807587,753.785034 367.001495,741.080322 357.661346,728.908508 
	C357.203278,728.311584 357.216827,727.352661 357.069824,726.178345 
	C367.169098,733.748901 368.540710,748.140442 360.287415,758.935974 
	C356.151520,764.345825 356.199432,764.548218 362.159058,767.941406 
	C363.014587,768.428528 363.789490,769.055359 364.631012,769.569519 
	C373.025421,774.699036 373.027130,774.696228 371.435364,784.920593 
	C368.995331,784.920593 366.419067,784.920593 363.391296,784.848755 
z"/>
<path fill="#FBFBFB" opacity="1.000000" stroke="none" 
	d="
M328.322571,800.052673 
	C331.656738,804.272278 328.208649,808.245239 327.198883,812.218201 
	C325.389038,819.338745 321.012299,824.983032 314.666260,828.873840 
	C304.052734,835.380798 295.676147,844.007629 289.295654,854.955444 
	C288.623627,843.180054 295.100189,835.277222 304.630371,829.926147 
	C316.654083,823.174927 323.458344,812.711182 328.322571,800.052673 
z"/>
<path fill="#F7F7F7" opacity="1.000000" stroke="none" 
	d="
M333.638031,722.081177 
	C332.101532,724.545227 329.659821,726.743774 328.425842,729.485840 
	C325.470490,736.052979 323.083191,742.875732 320.161896,749.831787 
	C316.450745,738.029907 321.454712,727.591064 333.638031,722.081177 
z"/>
<path fill="#FBFBFB" opacity="1.000000" stroke="none" 
	d="
M330.632874,793.629272 
	C330.791260,793.834045 330.689789,794.205383 330.373169,794.770874 
	C330.229675,794.575317 330.301361,794.185608 330.632874,793.629272 
z"/>
<path fill="#EFEFEF" opacity="1.000000" stroke="none" 
	d="
M106.995903,757.396912 
	C110.013016,757.307678 113.030121,757.218445 116.592758,757.517883 
	C119.871895,758.976135 122.671555,759.903564 125.328194,761.138672 
	C140.556137,768.218384 147.514618,781.713989 151.845352,796.743164 
	C154.584656,806.249512 155.970886,816.145813 157.963974,825.867188 
	C141.697250,825.302429 125.431473,824.366028 109.163406,824.324097 
	C100.581161,824.302002 91.994896,825.839783 82.652260,826.746765 
	C83.885986,820.115601 85.139938,813.375671 87.010414,806.313599 
	C92.746338,803.923462 93.245255,799.340027 88.935013,793.974670 
	C88.943642,793.530579 88.952271,793.086548 89.395126,792.245300 
	C90.314651,790.864929 90.539604,789.438354 91.329819,788.974304 
	C94.954971,786.845154 94.669914,784.106262 94.415283,780.283630 
	C94.196884,777.004944 96.201767,772.831482 98.561073,770.300720 
	C102.196152,766.401550 104.509933,761.903320 106.995903,757.396912 
z"/>
<path fill="#EEEEEE" opacity="1.000000" stroke="none" 
	d="
M145.892761,752.496155 
	C129.159241,752.722778 112.400818,752.483154 95.702797,753.374634 
	C87.467583,753.814331 81.669029,750.601257 79.281250,741.184875 
	C78.514168,738.159851 78.435547,734.960266 78.456070,731.329407 
	C81.205521,724.085327 83.540863,717.352295 85.876205,710.619324 
	C87.307663,710.380493 88.739113,710.141724 90.373909,709.868958 
	C91.636642,714.236694 92.612968,718.416504 94.127670,722.391174 
	C94.617920,723.677734 96.467064,725.192688 97.786133,725.284180 
	C102.712975,725.626038 107.677788,725.420776 112.777977,725.420776 
	C113.640938,719.446289 114.391449,714.250366 115.221764,708.501953 
	C120.157814,708.501953 124.942932,708.280029 129.679138,708.662903 
	C130.818893,708.755066 132.440811,710.714722 132.727966,712.054138 
	C133.589951,716.074829 133.901917,720.213440 134.576675,725.457642 
	C139.842361,725.457642 145.088287,725.597900 150.314163,725.336792 
	C151.334625,725.285889 152.771164,723.855347 153.167389,722.755432 
	C154.622971,718.714661 155.721329,714.545227 157.108917,709.906738 
	C158.878571,710.118713 160.623245,710.327698 162.700912,711.208374 
	C163.025925,714.197876 163.117554,716.521057 162.993301,718.832642 
	C162.330276,731.166382 159.262726,742.318115 147.968979,749.488831 
	C147.022156,750.090027 146.573090,751.475220 145.892761,752.496155 
z"/>
<path fill="#F0F0F0" opacity="1.000000" stroke="none" 
	d="
M176.165207,838.942017 
	C181.282990,844.273315 180.027390,851.120117 181.192566,858.006897 
	C142.847778,858.006897 105.105293,858.006897 66.957047,858.006897 
	C66.705429,851.545044 66.643158,845.187866 71.112999,839.234497 
	C81.417557,837.000977 90.986870,833.882141 100.713303,833.273315 
	C116.167717,832.305908 131.728210,832.908630 147.241028,833.088928 
	C150.988586,833.132446 154.765152,833.934021 158.457672,834.719360 
	C164.391144,835.981384 170.265732,837.520142 176.165207,838.942017 
z"/>
<path fill="#CBCBCB" opacity="1.000000" stroke="none" 
	d="
M158.323486,826.024414 
	C155.970886,816.145813 154.584656,806.249512 151.845352,796.743164 
	C147.514618,781.713989 140.556137,768.218384 125.328194,761.138672 
	C122.671555,759.903564 119.871895,758.976135 117.042778,757.565063 
	C127.725319,757.604553 138.510574,757.866577 149.272125,758.519348 
	C150.594604,758.599609 152.651718,760.605164 152.915787,761.994507 
	C156.994446,783.453857 160.832596,804.958923 164.843277,827.097900 
	C162.486954,826.747375 160.584961,826.464478 158.323486,826.024414 
z"/>
<path fill="#CBCBCB" opacity="1.000000" stroke="none" 
	d="
M146.340927,752.658325 
	C146.573090,751.475220 147.022156,750.090027 147.968979,749.488831 
	C159.262726,742.318115 162.330276,731.166382 162.993301,718.832642 
	C163.117554,716.521057 163.025925,714.197876 163.032120,711.410522 
	C167.472153,710.449463 169.345535,712.296204 169.095413,716.878174 
	C168.699661,724.127930 169.386627,731.503845 168.328583,738.635437 
	C166.496506,750.984070 162.116440,753.967163 149.763824,753.030579 
	C148.772629,752.955383 147.780685,752.890320 146.340927,752.658325 
z"/>
<path fill="#F7F7F7" opacity="1.000000" stroke="none" 
	d="
M176.054199,838.603882 
	C170.265732,837.520142 164.391144,835.981384 158.457672,834.719360 
	C154.765152,833.934021 150.988586,833.132446 147.241028,833.088928 
	C131.728210,832.908630 116.167717,832.305908 100.713303,833.273315 
	C90.986870,833.882141 81.417557,837.000977 71.391907,838.997864 
	C74.434792,837.006592 77.637260,834.035217 81.330109,833.179077 
	C100.848618,828.653931 120.708466,828.164429 140.608292,829.679810 
	C148.690460,830.295288 156.810730,831.162476 164.734467,832.788452 
	C168.679245,833.597839 172.219788,836.377380 176.054199,838.603882 
z"/>
<path fill="#F4F4F4" opacity="1.000000" stroke="none" 
	d="
M106.580589,757.356140 
	C104.509933,761.903320 102.196152,766.401550 98.561073,770.300720 
	C96.201767,772.831482 94.196884,777.004944 94.415283,780.283630 
	C94.669914,784.106262 94.954971,786.845154 91.329819,788.974304 
	C90.539604,789.438354 90.314651,790.864929 89.483345,791.921448 
	C91.079941,780.899658 93.022537,769.804565 94.977890,758.636658 
	C98.952843,758.167175 102.559059,757.741272 106.580589,757.356140 
z"/>
<path fill="#F4F4F4" opacity="1.000000" stroke="none" 
	d="
M85.453781,710.648987 
	C83.540863,717.352295 81.205521,724.085327 78.502792,730.906128 
	C78.147392,726.526001 78.393944,722.043152 78.110001,717.594055 
	C77.779465,712.414856 80.114830,710.372192 85.453781,710.648987 
z"/>
<path fill="#F4F4F4" opacity="1.000000" stroke="none" 
	d="
M88.740372,794.301880 
	C93.245255,799.340027 92.746338,803.923462 87.225327,805.999329 
	C87.397713,802.214478 87.971725,798.421814 88.740372,794.301880 
z"/>
<path fill="#EFEFEF" opacity="1.000000" stroke="none" 
	d="
M501.003326,97.988274 
	C502.261719,98.363655 503.531738,98.704353 504.776611,99.120209 
	C511.453949,101.350845 515.403137,99.186729 516.985657,92.408730 
	C518.896301,84.225510 520.673279,83.428741 528.254700,87.379738 
	C529.131958,87.836899 529.992920,88.334053 530.822510,88.872597 
	C540.561584,95.195053 545.045837,94.653305 552.761841,86.203506 
	C559.608826,78.705368 562.187439,78.779869 568.881287,86.669312 
	C574.992615,93.872231 580.154663,94.804039 588.485718,90.197937 
	C591.093384,88.756210 593.613098,87.126511 596.313171,85.888268 
	C599.736633,84.318253 602.471497,84.939156 603.533325,89.054138 
	C603.739685,89.854095 603.931763,90.657784 604.126343,91.460762 
	C606.098083,99.599289 610.033630,101.606628 617.970459,98.544975 
	C618.737244,98.249184 619.554321,98.083664 620.685791,98.118233 
	C615.357605,105.882248 609.387024,113.177917 604.096436,120.937241 
	C595.894287,132.966675 588.177490,145.326416 580.207214,157.514954 
	C577.887573,161.062180 575.405518,164.503113 572.997864,167.992767 
	C563.733459,168.270493 554.464050,168.440445 545.206360,168.864075 
	C539.104126,169.143311 533.018677,169.787674 526.330444,170.315506 
	C525.670410,157.440979 523.309448,145.069763 517.166382,133.240997 
	C517.562927,132.219894 517.990540,131.623718 517.837463,131.325409 
	C512.877686,121.658134 507.848358,112.026535 502.869598,102.368919 
	C502.144257,100.961945 501.620392,99.451080 501.003326,97.988274 
z"/>
<path fill="#F0F0F0" opacity="1.000000" stroke="none" 
	d="
M613.857056,183.990479 
	C618.121643,189.543961 617.516846,196.042313 617.817322,202.713959 
	C579.709534,202.713959 541.981995,202.713959 502.963074,202.713959 
	C504.194824,196.693695 505.337158,191.110443 507.112549,185.227600 
	C510.739594,183.585754 513.618713,181.819107 516.746826,180.972351 
	C533.098022,176.546341 549.869629,176.670258 566.600647,177.076202 
	C575.674500,177.296356 584.791626,177.851776 593.772705,179.096451 
	C600.563171,180.037521 607.169006,182.310333 613.857056,183.990479 
z"/>
<path fill="#EBEBEB" opacity="1.000000" stroke="none" 
	d="
M579.892883,87.514099 
	C577.845520,86.361046 575.591858,85.460220 573.800232,83.994522 
	C571.247192,81.905830 569.302979,79.008789 566.613098,77.165894 
	C562.203979,74.145164 555.874207,75.439484 551.655273,79.644287 
	C541.168579,90.095833 540.905151,90.113167 528.595764,81.160049 
	C535.209229,64.685097 558.003906,57.539104 576.963989,66.648842 
	C581.066040,73.593880 582.024719,80.345711 579.892883,87.514099 
z"/>
<path fill="#CACACA" opacity="1.000000" stroke="none" 
	d="
M573.380249,168.162994 
	C575.405518,164.503113 577.887573,161.062180 580.207214,157.514954 
	C588.177490,145.326416 595.894287,132.966675 604.096436,120.937241 
	C609.387024,113.177917 615.357605,105.882248 621.072998,98.001266 
	C623.243103,96.972549 625.363770,96.321358 627.484375,95.670166 
	C627.757141,95.998459 628.029907,96.326744 628.302673,96.655037 
	C612.294983,118.816994 595.325195,140.548767 595.333801,170.303833 
	C587.834167,169.618713 580.798340,168.975967 573.380249,168.162994 
z"/>
<path fill="#ECECEC" opacity="1.000000" stroke="none" 
	d="
M566.011230,55.035084 
	C561.145874,58.096481 555.008484,57.228745 551.249084,52.947945 
	C548.034180,49.287178 547.924377,44.271168 550.982178,40.757618 
	C555.251831,35.851585 561.081787,35.024796 566.716797,39.184799 
	C566.680847,44.879066 566.346069,49.957077 566.011230,55.035084 
z"/>
<path fill="#F9F9F9" opacity="1.000000" stroke="none" 
	d="
M613.778687,183.661987 
	C607.169006,182.310333 600.563171,180.037521 593.772705,179.096451 
	C584.791626,177.851776 575.674500,177.296356 566.600647,177.076202 
	C549.869629,176.670258 533.098022,176.546341 516.746826,180.972351 
	C513.618713,181.819107 510.739594,183.585754 507.390625,184.969116 
	C509.199677,179.302261 514.502869,178.158691 519.427551,177.245773 
	C546.806274,172.170380 574.276306,172.125519 601.635437,177.233856 
	C605.888428,178.027954 609.689941,181.239746 613.778687,183.661987 
z"/>
<path fill="#F4F4F4" opacity="1.000000" stroke="none" 
	d="
M500.726196,97.755836 
	C501.620392,99.451080 502.144257,100.961945 502.869598,102.368919 
	C507.848358,112.026535 512.877686,121.658134 517.837463,131.325409 
	C517.990540,131.623718 517.562927,132.219894 517.114136,132.880493 
	C509.061005,120.840775 501.299713,108.597771 493.013458,95.526649 
	C495.891388,96.299484 498.170258,96.911438 500.726196,97.755836 
z"/>
<path fill="#C8C8C8" opacity="1.000000" stroke="none" 
	d="
M580.241089,87.634796 
	C582.024719,80.345711 581.066040,73.593880 577.252258,66.847992 
	C584.299805,69.352722 589.174866,74.479256 593.464417,81.465622 
	C588.992004,83.650536 584.790649,85.703011 580.241089,87.634796 
z"/>
<path fill="#CACACA" opacity="1.000000" stroke="none" 
	d="
M566.374023,55.057304 
	C566.346069,49.957077 566.680847,44.879066 567.013550,39.383011 
	C571.090759,39.680042 571.741821,42.913754 572.087769,46.171467 
	C572.536316,50.395485 570.560486,53.334785 566.374023,55.057304 
z"/>
<path fill="#EFEFEF" opacity="1.000000" stroke="none" 
	d="
M154.956421,606.836060 
	C144.680847,606.278320 134.377533,604.968201 124.136452,605.345825 
	C110.078377,605.864136 96.067673,607.663879 82.035728,608.903809 
	C81.403999,608.959717 80.763031,608.911011 79.482330,608.911011 
	C79.822426,607.008057 80.125214,605.313782 80.988937,603.169678 
	C83.401588,600.611938 84.966232,598.126587 87.155075,596.462036 
	C96.234955,589.556824 105.473846,582.858643 114.713623,576.166321 
	C120.272392,572.140076 124.338402,567.053223 126.251831,560.425903 
	C126.551414,559.388306 126.019958,558.110718 125.872765,556.944092 
	C126.255157,555.225403 126.637550,553.506775 127.460037,551.359863 
	C134.305344,544.632751 134.970261,534.220459 129.369080,525.778198 
	C128.655655,532.795471 124.737846,537.827393 118.821030,540.428894 
	C108.225143,545.087769 97.288399,548.988403 86.419525,553.004089 
	C77.049187,556.466125 67.671516,559.821228 60.588829,567.358765 
	C56.720432,563.890869 52.852032,560.422913 48.969830,556.234680 
	C49.308170,554.341797 49.660316,553.169250 50.425220,552.021423 
	C55.571064,552.619202 58.216209,550.609253 58.875580,545.108032 
	C56.667263,545.447876 54.835560,545.729736 53.035591,545.658386 
	C53.761959,543.996582 54.179394,542.400391 55.193378,541.423279 
	C67.632080,529.437073 79.687065,516.990173 92.801231,505.786011 
	C104.646011,495.666290 105.713081,494.400513 100.147171,479.956909 
	C100.030815,479.654968 100.047478,479.301758 100.002075,478.972473 
	C104.265617,480.700500 108.529144,482.428558 112.903778,484.836853 
	C114.388283,490.003571 117.017326,493.052032 121.630020,494.809631 
	C138.862457,501.375732 153.496445,511.328735 161.708603,528.527344 
	C169.544220,544.937256 168.416458,562.061035 164.032410,579.038269 
	C161.600113,588.457336 158.019485,597.579834 154.956421,606.836060 
M100.523819,511.775482 
	C98.830811,514.922485 97.137794,518.069458 95.444786,521.216431 
	C97.747269,521.765076 100.049164,522.762146 102.352356,522.765076 
	C106.606812,522.770630 110.264534,519.363647 109.435127,516.309570 
	C108.339241,512.274292 105.625801,510.256683 100.523819,511.775482 
z"/>
<path fill="#F0F0F0" opacity="1.000000" stroke="none" 
	d="
M176.867111,620.991211 
	C180.998947,626.600952 180.527435,633.112793 180.879501,639.768188 
	C142.801300,639.768188 105.100548,639.768188 67.038483,639.768188 
	C66.463287,632.796509 67.012230,626.213501 71.536392,620.062195 
	C77.871841,618.618652 83.418495,616.534424 89.080750,616.149292 
	C105.079529,615.060913 121.121162,614.447754 137.155579,614.119202 
	C143.039627,613.998596 149.017746,614.834045 154.832809,615.893127 
	C162.241318,617.242554 169.527939,619.261108 176.867111,620.991211 
z"/>
<path fill="#CBCBCB" opacity="1.000000" stroke="none" 
	d="
M155.344421,606.995483 
	C158.019485,597.579834 161.600113,588.457336 164.032410,579.038269 
	C168.416458,562.061035 169.544220,544.937256 161.708603,528.527344 
	C153.496445,511.328735 138.862457,501.375732 121.630020,494.809631 
	C117.017326,493.052032 114.388283,490.003571 113.077805,485.136627 
	C126.723175,494.441772 143.857361,497.623932 156.504776,509.306061 
	C169.043945,520.888184 175.596191,534.846130 176.992462,551.546448 
	C178.364288,567.954651 175.285980,583.975220 172.627502,600.027100 
	C172.088043,603.284241 171.518799,606.536560 170.932388,609.972229 
	C165.718704,609.005859 160.725571,608.080383 155.344421,606.995483 
z"/>
<path fill="#CBCBCB" opacity="1.000000" stroke="none" 
	d="
M60.863281,567.612976 
	C67.671516,559.821228 77.049187,556.466125 86.419525,553.004089 
	C97.288399,548.988403 108.225143,545.087769 118.821030,540.428894 
	C124.737846,537.827393 128.655655,532.795471 129.369080,525.778198 
	C134.970261,534.220459 134.305344,544.632751 127.561722,550.994385 
	C127.209114,546.811707 125.532036,546.218811 121.541229,547.565979 
	C112.317780,550.679504 102.984360,553.580200 93.521027,555.834717 
	C85.874146,557.656494 78.749519,560.440918 73.458099,566.099182 
	C69.385437,570.454285 65.638359,570.059326 60.863281,567.612976 
z"/>
<path fill="#F8F8F8" opacity="1.000000" stroke="none" 
	d="
M50.012463,551.996704 
	C49.660316,553.169250 49.308170,554.341797 48.928864,555.904846 
	C44.458836,552.801819 45.083496,549.181519 48.591980,545.443726 
	C60.206173,533.070557 71.790253,520.669067 83.422005,508.312439 
	C87.415497,504.070099 91.380913,499.785370 95.614830,495.790985 
	C98.346527,493.213776 99.977570,490.638794 99.240112,486.676056 
	C98.792526,484.270935 99.166656,481.712891 99.586853,479.098022 
	C100.047478,479.301758 100.030815,479.654968 100.147171,479.956909 
	C105.713081,494.400513 104.646011,495.666290 92.801231,505.786011 
	C79.687065,516.990173 67.632080,529.437073 55.193378,541.423279 
	C54.179394,542.400391 53.761959,543.996582 52.833794,545.931885 
	C51.737659,548.371338 50.875061,550.184021 50.012463,551.996704 
z"/>
<path fill="#F9F9F9" opacity="1.000000" stroke="none" 
	d="
M176.785614,620.656372 
	C169.527939,619.261108 162.241318,617.242554 154.832809,615.893127 
	C149.017746,614.834045 143.039627,613.998596 137.155579,614.119202 
	C121.121162,614.447754 105.079529,615.060913 89.080750,616.149292 
	C83.418495,616.534424 77.871841,618.618652 71.841171,619.898560 
	C74.805374,618.012451 78.011696,615.124146 81.626221,614.461182 
	C110.087395,609.240540 138.625961,608.678162 167.019180,614.948792 
	C170.474472,615.711914 173.486603,618.481689 176.785614,620.656372 
z"/>
<path fill="#F7F7F7" opacity="1.000000" stroke="none" 
	d="
M125.559998,557.110962 
	C126.019958,558.110718 126.551414,559.388306 126.251831,560.425903 
	C124.338402,567.053223 120.272392,572.140076 114.713623,576.166321 
	C105.473846,582.858643 96.234955,589.556824 87.155075,596.462036 
	C84.966232,598.126587 83.401588,600.611938 81.235359,602.850342 
	C82.355194,596.692932 86.585289,592.211182 91.277557,588.401733 
	C100.296349,581.079895 109.891998,574.461670 118.805557,567.021179 
	C121.668762,564.631104 123.139450,560.572876 125.559998,557.110962 
z"/>
<path fill="#A3A3A3" opacity="1.000000" stroke="none" 
	d="
M100.873535,511.627502 
	C105.625801,510.256683 108.339241,512.274292 109.435127,516.309570 
	C110.264534,519.363647 106.606812,522.770630 102.352356,522.765076 
	C100.049164,522.762146 97.747269,521.765076 95.444778,521.216431 
	C97.137794,518.069458 98.830811,514.922485 100.873535,511.627502 
z"/>
<path fill="#B0B0B0" opacity="1.000000" stroke="none" 
	d="
M50.425220,552.021423 
	C50.875061,550.184021 51.737659,548.371338 52.802055,546.285156 
	C54.835560,545.729736 56.667263,545.447876 58.875580,545.108032 
	C58.216209,550.609253 55.571064,552.619202 50.425220,552.021423 
z"/>
</svg>