<svg version="1.1" id="Layer_1" xmlns="http://www.w3.org/2000/svg" xmlns:xlink="http://www.w3.org/1999/xlink" x="0px" y="0px"
	 width="100%" viewBox="0 0 892 894" enable-background="new 0 0 892 894" xml:space="preserve">
<path fill="#FFFEFE" opacity="1.000000" stroke="none" 
	d="
M1.000000,304.000000 
	C1.000000,202.666672 1.000000,101.833336 1.000000,1.000000 
	C298.333344,1.000000 595.666687,1.000000 893.000000,1.000000 
	C893.000000,299.000000 893.000000,597.000000 893.000000,895.000000 
	C595.666687,895.000000 298.333344,895.000000 1.000000,895.000000 
	C1.000000,698.166687 1.000000,501.333344 1.000000,304.000000 
M8.840493,451.175995 
	C8.871281,453.339386 8.928719,455.502777 8.928991,457.666168 
	C8.937871,528.092041 8.941247,598.517883 8.473235,669.623535 
	C8.416600,671.117798 8.310596,672.612122 8.310420,674.106384 
	C8.302265,743.365356 8.357896,812.624451 8.190007,881.882996 
	C8.177816,886.912170 9.853060,887.802551 14.445212,887.793274 
	C83.537422,887.653992 152.630005,887.701538 221.722473,887.669922 
	C223.500549,887.669067 225.278412,887.268738 227.985031,887.067322 
	C292.240051,887.067322 356.495056,887.062073 420.750092,887.073730 
	C429.071747,887.075195 437.393402,887.164490 446.498322,887.551270 
	C447.161469,887.598267 447.824585,887.686340 448.487732,887.686401 
	C519.065369,887.693542 589.643005,887.697510 660.220642,887.668274 
	C661.499084,887.667725 662.777344,887.267517 664.984436,887.067078 
	C737.187317,887.067078 809.390259,887.067078 882.053772,887.067078 
	C882.053772,813.877136 882.053772,741.466431 882.525452,668.375793 
	C882.581238,667.713989 882.685852,667.052124 882.685913,666.390320 
	C882.693970,595.804016 882.696777,525.217773 882.674805,454.631470 
	C882.674438,453.325623 882.373474,452.019836 882.159485,449.823578 
	C882.128784,447.660187 882.071411,445.496796 882.071167,443.333405 
	C882.062195,372.907745 882.058777,302.482086 882.526733,231.376572 
	C882.583435,229.882278 882.689453,228.387970 882.689636,226.893677 
	C882.697815,157.634720 882.642212,88.375641 882.810059,19.117098 
	C882.822266,14.088348 881.147461,13.197524 876.554932,13.206784 
	C807.462708,13.346126 738.370178,13.298535 669.277710,13.330206 
	C667.499695,13.331020 665.721802,13.731378 663.015198,13.932766 
	C598.759949,13.932798 534.504700,13.938102 470.249451,13.926399 
	C461.927765,13.924884 453.606079,13.835497 444.501160,13.448677 
	C443.838013,13.401673 443.174896,13.313566 442.511749,13.313499 
	C371.934052,13.306399 301.356323,13.302529 230.778641,13.331714 
	C229.500076,13.332242 228.221695,13.732203 226.014633,13.932180 
	C153.811920,13.932180 81.609207,13.932180 8.945840,13.932180 
	C8.945840,87.122192 8.945840,159.532684 8.474491,232.623611 
	C8.418701,233.285431 8.314123,233.947250 8.314047,234.609070 
	C8.305989,305.195374 8.303176,375.781708 8.325177,446.368011 
	C8.325584,447.673859 8.626522,448.979614 8.840493,451.175995 
z"/>
<path fill="#BE814D" opacity="1.000000" stroke="none" 
	d="
M663.943848,13.945402 
	C665.721802,13.731378 667.499695,13.331020 669.277710,13.330206 
	C738.370178,13.298535 807.462708,13.346126 876.554932,13.206784 
	C881.147461,13.197524 882.822266,14.088348 882.810059,19.117098 
	C882.642212,88.375641 882.697815,157.634720 882.689636,226.893677 
	C882.689453,228.387970 882.583435,229.882278 881.817993,231.696701 
	C808.730286,232.020233 736.351196,232.023621 663.981750,231.556747 
	C663.975525,158.706131 663.959656,86.325768 663.943848,13.945402 
z"/>
<path fill="#BE814D" opacity="1.000000" stroke="none" 
	d="
M227.056366,887.054688 
	C225.278412,887.268738 223.500549,887.669067 221.722473,887.669922 
	C152.630005,887.701538 83.537422,887.653992 14.445212,887.793274 
	C9.853060,887.802551 8.177816,886.912170 8.190007,881.882996 
	C8.357896,812.624451 8.302265,743.365356 8.310420,674.106384 
	C8.310596,672.612122 8.416600,671.117798 9.181950,669.303528 
	C82.269508,668.979675 154.648346,668.975830 227.017365,669.443115 
	C227.023834,742.294434 227.040100,814.674561 227.056366,887.054688 
z"/>
<path fill="#BE804C" opacity="1.000000" stroke="none" 
	d="
M226.943222,13.945789 
	C228.221695,13.732203 229.500076,13.332242 230.778641,13.331714 
	C301.356323,13.302529 371.934052,13.306399 442.511749,13.313499 
	C443.174896,13.313566 443.838013,13.401673 444.852234,14.102732 
	C445.187561,86.188591 445.171021,157.620392 445.164642,229.052200 
	C445.164551,230.047821 445.291809,231.043427 444.853638,232.026276 
	C371.887787,231.998322 299.427856,231.983139 226.984039,231.984039 
	C227.000107,232.000107 227.032257,232.032257 227.020203,231.561188 
	C226.986526,158.708679 226.964874,86.327232 226.943222,13.945789 
z"/>
<path fill="#BE804C" opacity="1.000000" stroke="none" 
	d="
M664.055725,887.053833 
	C662.777344,887.267517 661.499084,887.667725 660.220642,887.668274 
	C589.643005,887.697510 519.065369,887.693542 448.487732,887.686401 
	C447.824585,887.686340 447.161469,887.598267 446.147278,886.897217 
	C445.812012,814.811523 445.828552,743.379883 445.834961,671.948242 
	C445.835052,670.952637 445.707825,669.957031 446.150024,668.974121 
	C519.117371,669.001831 591.574707,669.016907 664.015991,669.015991 
	C664.000000,669.000000 663.967957,668.967957 663.979492,669.438965 
	C664.012573,742.291321 664.034180,814.672546 664.055725,887.053833 
z"/>
<path fill="#BE804C" opacity="1.000000" stroke="none" 
	d="
M882.212769,450.713989 
	C882.373474,452.019836 882.674438,453.325623 882.674805,454.631470 
	C882.696777,525.217773 882.693970,595.804016 882.685913,666.390320 
	C882.685852,667.052124 882.581238,667.713989 881.817078,668.695801 
	C808.728455,668.999939 736.348206,668.983948 663.967957,668.967957 
	C663.967957,668.967957 664.000000,669.000000 664.004517,668.544800 
	C663.993347,595.606384 663.977722,523.123169 664.428406,450.701447 
	C718.184265,450.790863 771.473816,450.832733 824.763367,450.839111 
	C843.913147,450.841400 863.062988,450.758209 882.212769,450.713989 
z"/>
<path fill="#BE804C" opacity="1.000000" stroke="none" 
	d="
M8.787235,450.285431 
	C8.626522,448.979614 8.325584,447.673859 8.325177,446.368011 
	C8.303176,375.781708 8.305989,305.195374 8.314047,234.609070 
	C8.314123,233.947250 8.418701,233.285431 9.182737,232.303284 
	C82.271408,231.999390 154.651825,232.015823 227.032257,232.032257 
	C227.032257,232.032257 227.000107,232.000107 226.995590,232.455200 
	C227.006851,305.393463 227.022629,377.876678 226.572052,450.298248 
	C173.149124,450.208771 120.192543,450.166626 67.235962,450.160553 
	C47.753056,450.158325 28.270144,450.241302 8.787235,450.285431 
z"/>
<path fill="#F5C79C" opacity="1.000000" stroke="none" 
	d="
M227.020203,231.561188 
	C154.651825,232.015823 82.271408,231.999390 9.418411,231.963074 
	C8.945840,159.532684 8.945840,87.122192 8.945840,13.932180 
	C81.609207,13.932180 153.811920,13.932180 226.478928,13.938984 
	C226.964874,86.327232 226.986526,158.708679 227.020203,231.561188 
z"/>
<path fill="#F4C79C" opacity="1.000000" stroke="none" 
	d="
M8.813864,450.730713 
	C28.270144,450.241302 47.753056,450.158325 67.235962,450.160553 
	C120.192543,450.166626 173.149124,450.208771 226.540771,450.368774 
	C226.975861,450.500885 226.942993,450.660583 226.963669,451.167511 
	C226.978821,524.127075 226.973297,596.579712 226.982605,669.017273 
	C226.997452,669.002197 227.027191,668.971924 227.027191,668.971924 
	C154.648346,668.975830 82.269508,668.979675 9.418053,668.963623 
	C8.941247,598.517883 8.937871,528.092041 8.928991,457.666168 
	C8.928719,455.502777 8.871281,453.339386 8.813864,450.730713 
M91.210052,515.797729 
	C86.778038,526.805725 89.231918,536.896606 95.976097,546.957092 
	C84.867302,550.319946 78.682449,556.499573 83.018181,568.545227 
	C83.072876,568.697144 83.057365,568.874817 83.071297,569.040771 
	C83.356613,572.440430 85.060013,574.051636 88.610382,573.900940 
	C92.670708,573.728638 96.743973,573.861084 100.919571,573.861084 
	C97.939934,589.623962 90.675423,600.383606 75.800262,609.846252 
	C64.008896,617.347107 58.580288,627.663147 58.866943,641.537292 
	C58.961098,646.094543 60.692654,647.221619 64.792755,647.212219 
	C100.268517,647.130981 135.744736,647.109131 171.220215,647.238586 
	C175.534821,647.254333 176.585007,645.426819 176.670609,641.562134 
	C177.001297,626.629883 170.514694,615.668518 157.583038,608.557068 
	C143.918564,601.042725 138.674347,588.123352 134.180740,574.040222 
	C135.678009,573.955688 136.496155,573.881348 137.315353,573.867310 
	C151.780060,573.619385 151.695328,573.608887 153.751953,559.278687 
	C154.198746,556.165466 153.378052,554.174194 150.711578,552.701660 
	C147.109009,550.712097 143.555847,548.633057 139.869308,546.528381 
	C140.866287,544.705627 141.668579,543.072754 142.617523,541.530212 
	C150.104538,529.359558 146.310303,512.091675 134.671127,503.837799 
	C122.422989,495.152069 100.092827,496.635864 91.210052,515.797729 
z"/>
<path fill="#F4C79C" opacity="1.000000" stroke="none" 
	d="
M445.359619,232.039047 
	C445.291809,231.043427 445.164551,230.047821 445.164642,229.052200 
	C445.171021,157.620392 445.187561,86.188591 445.243835,14.271800 
	C453.606079,13.835497 461.927765,13.924884 470.249451,13.926399 
	C534.504700,13.938102 598.759949,13.932798 663.479492,13.939084 
	C663.959656,86.325768 663.975525,158.706131 663.996948,231.541840 
	C664.002502,231.997208 664.032349,231.967789 663.561157,231.980042 
	C590.613708,231.975845 518.137451,231.959381 445.583344,231.959351 
	C445.505524,231.975769 445.359619,232.039047 445.359619,232.039047 
M590.194458,124.941200 
	C592.291809,119.419456 589.739502,116.299767 584.875244,114.070213 
	C582.098022,112.797272 579.563965,110.993866 576.914978,109.426079 
	C588.810425,91.768898 582.536377,76.280533 574.143799,68.791039 
	C563.947754,59.692173 547.837769,58.793182 536.607666,68.084976 
	C532.189758,71.740379 528.823364,77.657997 526.979004,83.210114 
	C523.875366,92.553116 527.243164,101.414215 532.977539,109.957870 
	C522.087585,113.334724 515.713196,119.223030 519.988647,131.153290 
	C520.042908,131.304810 520.024597,131.483383 520.034485,131.649673 
	C520.245544,135.226624 521.867126,137.096527 525.725281,136.904831 
	C529.696106,136.707535 533.684387,136.861038 538.457581,136.861038 
	C534.008606,150.306076 529.601746,162.982529 516.865051,170.207336 
	C503.373169,177.860519 495.131561,188.379349 495.869415,204.735062 
	C496.061035,208.982651 497.562958,210.213318 501.494659,210.205566 
	C536.993774,210.135635 572.493286,210.122421 607.992249,210.223541 
	C612.044739,210.235077 613.583740,208.838043 613.682617,204.734406 
	C614.042664,189.796585 607.659912,178.784897 594.714050,171.640289 
	C581.048462,164.098419 575.705566,151.166565 571.101868,136.861755 
	C573.921143,136.861755 576.069763,136.912155 578.215271,136.853165 
	C588.391663,136.573380 588.928833,139.592026 590.194458,124.941200 
z"/>
<path fill="#F5C79C" opacity="1.000000" stroke="none" 
	d="
M445.640015,668.961426 
	C445.707825,669.957031 445.835052,670.952637 445.834961,671.948242 
	C445.828552,743.379883 445.812012,814.811523 445.755676,886.728149 
	C437.393402,887.164490 429.071747,887.075195 420.750092,887.073730 
	C356.495056,887.062073 292.240051,887.067322 227.520691,887.060974 
	C227.040100,814.674561 227.023834,742.294434 227.017365,669.443115 
	C227.027191,668.971924 226.997452,669.002197 227.453796,669.005066 
	C300.386292,669.024414 372.862427,669.040955 445.416412,669.041138 
	C445.494232,669.024841 445.640015,668.961426 445.640015,668.961426 
M354.803528,723.655945 
	C343.198578,715.018372 328.694122,714.431335 317.966309,723.442383 
	C313.782104,726.957153 310.572968,732.498840 308.734802,737.752380 
	C305.354431,747.413696 308.463593,756.575928 314.228149,765.017761 
	C310.213562,767.328125 306.406769,769.102661 303.136749,771.584473 
	C301.608124,772.744507 300.343079,775.263550 300.322723,777.181213 
	C300.284424,780.784058 301.453674,784.381897 301.713409,788.010986 
	C301.948944,791.301819 303.587250,792.279602 306.582581,792.206665 
	C310.841705,792.102905 315.105255,792.180359 320.076874,792.180359 
	C315.102936,806.444580 310.098785,819.574890 296.269684,827.125000 
	C283.126099,834.300842 276.645966,845.589844 277.340851,860.768127 
	C277.496979,864.178955 278.788727,865.924316 282.489899,865.917664 
	C318.321747,865.853577 354.153839,865.863831 389.985748,865.903931 
	C393.464417,865.907837 394.925781,864.702820 395.117035,860.943115 
	C395.845490,846.624634 389.944183,836.038025 378.172760,828.164856 
	C373.269897,824.885681 368.246277,821.380127 364.428528,816.979126 
	C358.440613,810.076294 354.830597,801.710938 352.916809,792.406799 
	C354.456421,792.308960 355.440887,792.205322 356.426697,792.189941 
	C371.551514,791.954407 371.661072,791.959534 372.013702,776.669250 
	C372.055176,774.870972 370.504242,772.468933 368.965210,771.318359 
	C365.683838,768.865112 361.925446,767.049927 358.355682,764.969299 
	C368.216339,749.375854 367.147491,735.607300 354.803528,723.655945 
z"/>
<path fill="#F5C79C" opacity="1.000000" stroke="none" 
	d="
M882.186157,450.268799 
	C863.062988,450.758209 843.913147,450.841400 824.763367,450.839111 
	C771.473816,450.832733 718.184265,450.790863 664.459717,450.630920 
	C664.024780,450.498840 664.057373,450.338959 664.036743,449.835754 
	C664.021606,376.877625 664.026978,304.422699 664.032349,231.967789 
	C664.032349,231.967789 664.002502,231.997208 663.987305,232.012115 
	C736.351196,232.023621 808.730286,232.020233 881.581909,232.036621 
	C882.058777,302.482086 882.062195,372.907745 882.071167,443.333405 
	C882.071411,445.496796 882.128784,447.660187 882.186157,450.268799 
M787.714905,283.661926 
	C784.899414,282.677643 782.148865,281.401154 779.257446,280.758148 
	C764.352478,277.443604 749.413269,286.258301 745.524963,300.767212 
	C742.914307,310.508331 745.238953,319.446198 751.308289,327.906281 
	C747.521484,330.107117 743.769836,331.911102 740.494324,334.353638 
	C738.912659,335.533081 737.349609,337.898834 737.318970,339.752899 
	C737.256653,343.516754 738.416504,347.282990 738.743103,351.076599 
	C739.022949,354.327271 740.668884,355.307129 743.676208,355.214264 
	C747.913452,355.083435 752.157654,355.181183 757.122925,355.181183 
	C752.105347,369.319763 747.260254,382.437469 733.627197,389.892242 
	C720.704834,396.958282 714.002380,407.820282 714.293579,422.827667 
	C714.380005,427.280304 715.970886,428.970978 720.547302,428.953735 
	C755.706970,428.821045 790.867493,428.881439 826.027710,428.877533 
	C827.026062,428.877441 828.284363,429.198517 828.965515,428.720398 
	C830.166626,427.877258 831.907104,426.494690 831.860779,425.404388 
	C831.636719,420.136475 831.551208,414.713196 830.193970,409.674347 
	C827.449585,399.486145 819.356201,393.864349 810.859619,388.569183 
	C798.687500,380.983368 793.497070,368.853973 789.780090,355.174408 
	C794.891663,355.174408 799.249939,355.498627 803.513428,355.004669 
	C805.079956,354.823181 807.311584,352.932739 807.693115,351.429291 
	C808.665649,347.596680 809.102234,343.539429 809.062073,339.579102 
	C809.044373,337.837128 807.763794,335.540588 806.328674,334.493530 
	C802.883484,331.979858 799.007751,330.056335 795.288635,327.884705 
	C806.381531,311.235443 803.467224,293.748993 787.714905,283.661926 
z"/>
<path fill="#F5C79C" opacity="1.000000" stroke="none" 
	d="
M663.979492,669.438965 
	C736.348206,668.983948 808.728455,668.999939 881.581238,669.035767 
	C882.053772,741.466431 882.053772,813.877136 882.053772,887.067078 
	C809.390259,887.067078 737.187317,887.067078 664.520081,887.060425 
	C664.034180,814.672546 664.012573,742.291321 663.979492,669.438965 
M807.335754,823.231689 
	C797.819092,815.163208 792.980042,804.504395 789.764954,792.178955 
	C794.668152,792.178955 798.966736,792.117798 803.262634,792.200745 
	C806.066040,792.254883 807.650208,791.155029 807.924805,788.248962 
	C808.284485,784.442505 809.147339,780.635132 809.027161,776.852478 
	C808.967224,774.966492 807.638672,772.565002 806.116455,771.396240 
	C802.893494,768.921570 799.166809,767.102905 795.677551,765.033508 
	C804.900940,747.752319 803.677368,733.504639 792.488342,724.169861 
	C781.326355,714.857727 765.696228,714.708252 754.390869,723.805542 
	C742.951416,733.010864 741.725159,747.006714 750.981262,765.078003 
	C748.045471,766.832153 745.228271,768.958862 742.075806,770.293762 
	C737.497986,772.232361 736.322388,775.118286 737.680481,779.780457 
	C738.775635,783.539795 739.044006,787.539917 740.138855,791.299377 
	C740.325256,791.939453 742.823364,792.104614 744.262817,792.143433 
	C748.315002,792.252625 752.372070,792.181641 757.103333,792.181641 
	C752.187317,806.447266 747.259949,819.505615 733.589233,826.920227 
	C720.610352,833.959534 714.051880,844.917908 714.295471,859.887024 
	C714.368774,864.393250 716.081116,865.998474 720.606689,865.954773 
	C739.099915,865.776367 757.595886,865.880493 776.090820,865.880432 
	C792.919556,865.880310 809.748352,865.885437 826.577087,865.874023 
	C829.125610,865.872314 831.781982,865.971375 832.014893,862.348755 
	C832.731262,851.207214 830.458618,841.016418 821.631042,833.442566 
	C817.385986,829.800293 812.479614,826.928833 807.335754,823.231689 
z"/>
<path fill="#F5C79C" opacity="1.000000" stroke="none" 
	d="
M444.853638,232.026276 
	C445.359619,232.039047 445.505524,231.975769 445.654572,232.429779 
	C445.817810,304.113129 445.833496,375.342438 445.832977,446.571777 
	C445.832977,447.726532 445.635284,448.881287 445.441711,450.112366 
	C445.353577,450.188690 445.036102,450.529846 444.576355,450.643799 
	C372.221069,450.779327 300.325562,450.801208 228.430023,450.815765 
	C227.934357,450.815857 227.438675,450.714539 226.942993,450.660583 
	C226.942993,450.660583 226.975861,450.500885 227.007126,450.430359 
	C227.022629,377.876678 227.006851,305.393463 226.979523,232.439117 
	C299.427856,231.983139 371.887787,231.998322 444.853638,232.026276 
M361.222626,294.395996 
	C353.769135,281.310272 336.232910,276.130127 323.075897,283.041199 
	C316.307312,286.596558 311.465332,291.677246 309.061340,299.074188 
	C305.666290,309.520538 308.061035,318.934540 314.252869,327.966919 
	C310.351288,330.224731 306.568665,332.015411 303.295502,334.482086 
	C301.744019,335.651337 300.337402,338.105194 300.321564,339.989319 
	C300.289917,343.757996 301.398041,347.521484 301.775055,351.313019 
	C302.072479,354.303741 303.619202,355.270874 306.413513,355.205780 
	C310.709412,355.105713 315.009338,355.179474 320.175110,355.179474 
	C315.020355,368.791992 310.746063,381.990784 297.224060,389.411194 
	C284.454803,396.418488 277.049591,406.949646 277.347900,422.060242 
	C277.468903,428.189606 278.099579,428.875458 284.279968,428.877289 
	C309.606293,428.884735 334.932648,428.880463 360.258972,428.880341 
	C370.089600,428.880310 379.920197,428.882141 389.750824,428.878113 
	C392.367401,428.877045 395.194763,428.758881 394.955353,425.179077 
	C394.603485,419.918304 394.468140,414.510101 393.092163,409.478729 
	C390.306732,399.293762 382.151276,393.727966 373.663971,388.457550 
	C361.566101,380.945038 356.673737,368.739532 352.556519,355.183319 
	C356.965302,355.183319 360.604950,354.968781 364.208496,355.237885 
	C368.676117,355.571533 371.169617,354.305267 371.096680,349.296509 
	C371.051086,346.166412 372.181091,342.997498 371.976471,339.899323 
	C371.849762,337.980927 370.664001,335.563110 369.156799,334.421295 
	C365.798096,331.876862 361.939362,329.992432 358.261749,327.825714 
	C366.094666,316.373383 367.000244,306.992493 361.222626,294.395996 
z"/>
<path fill="#F4C79C" opacity="1.000000" stroke="none" 
	d="
M445.036133,450.529846 
	C445.036102,450.529846 445.353577,450.188690 445.955750,450.156189 
	C516.899658,450.133209 587.241394,450.141083 657.583130,450.160065 
	C659.741211,450.160645 661.899292,450.276703 664.057373,450.338928 
	C664.057373,450.338959 664.024780,450.498840 663.993408,450.569366 
	C663.977722,523.123169 663.993347,595.606384 664.020508,668.560791 
	C591.574707,669.016907 519.117371,669.001831 446.150024,668.974121 
	C445.640015,668.961426 445.494232,669.024841 445.345093,668.570679 
	C445.181427,626.860840 445.177246,585.605225 445.148865,544.349609 
	C445.127350,513.076355 445.074860,481.803101 445.036133,450.529846 
M581.255127,516.361877 
	C575.815796,501.663239 558.535034,494.632721 543.273682,500.899506 
	C536.165405,503.818390 531.104858,508.847748 528.198669,515.913086 
	C523.695740,526.860352 526.283020,536.957642 533.035706,547.084595 
	C521.509521,550.277710 516.012207,556.681091 519.906860,568.725464 
	C520.977966,572.037781 521.913391,574.096558 525.750061,573.904907 
	C529.716980,573.706726 533.701416,573.860901 537.716797,573.860901 
	C536.617188,583.929932 527.551453,602.084534 515.715332,608.197754 
	C502.301208,615.125732 495.279205,626.131653 495.874329,641.700684 
	C496.035339,645.912476 497.488098,647.214172 501.453064,647.206177 
	C537.086792,647.134460 572.720886,647.119019 608.354492,647.228699 
	C612.330261,647.240906 613.546509,645.654541 613.665100,641.929260 
	C614.147217,626.787231 607.576538,615.740173 594.493835,608.484497 
	C580.921387,600.957153 575.650696,588.091003 571.152832,573.862366 
	C572.803101,573.862366 573.622803,573.871460 574.442322,573.860962 
	C588.442505,573.681152 588.288391,573.653687 590.650757,560.155090 
	C591.349915,556.159790 590.136047,553.846924 586.790344,552.083801 
	C583.463806,550.330750 580.219055,548.422485 576.716187,546.457581 
	C583.171448,537.224304 585.668335,527.653442 581.255127,516.361877 
z"/>
<path fill="#BE804C" opacity="1.000000" stroke="none" 
	d="
M444.576355,450.643799 
	C445.074860,481.803101 445.127350,513.076355 445.148865,544.349609 
	C445.177246,585.605225 445.181427,626.860840 445.267273,668.586914 
	C372.862427,669.040955 300.386292,669.024414 227.438950,669.020142 
	C226.973297,596.579712 226.978821,524.127075 226.963669,451.167511 
	C227.438675,450.714539 227.934357,450.815857 228.430023,450.815765 
	C300.325562,450.801208 372.221069,450.779327 444.576355,450.643799 
z"/>
<path fill="#40403F" opacity="1.000000" stroke="none" 
	d="
M91.313896,515.428833 
	C100.092827,496.635864 122.422989,495.152069 134.671127,503.837799 
	C146.310303,512.091675 150.104538,529.359558 142.617523,541.530212 
	C141.668579,543.072754 140.866287,544.705627 139.869308,546.528381 
	C143.555847,548.633057 147.109009,550.712097 150.711578,552.701660 
	C153.378052,554.174194 154.198746,556.165466 153.751953,559.278687 
	C151.695328,573.608887 151.780060,573.619385 137.315353,573.867310 
	C136.496155,573.881348 135.678009,573.955688 134.180740,574.040222 
	C138.674347,588.123352 143.918564,601.042725 157.583038,608.557068 
	C170.514694,615.668518 177.001297,626.629883 176.670609,641.562134 
	C176.585007,645.426819 175.534821,647.254333 171.220215,647.238586 
	C135.744736,647.109131 100.268517,647.130981 64.792755,647.212219 
	C60.692654,647.221619 58.961098,646.094543 58.866943,641.537292 
	C58.580288,627.663147 64.008896,617.347107 75.800262,609.846252 
	C90.675423,600.383606 97.939934,589.623962 100.919571,573.861084 
	C96.743973,573.861084 92.670708,573.728638 88.610382,573.900940 
	C85.060013,574.051636 83.356613,572.440430 83.071297,569.040771 
	C83.057365,568.874817 83.072876,568.697144 83.018181,568.545227 
	C78.682449,556.499573 84.867302,550.319946 95.976097,546.957092 
	C89.231918,536.896606 86.778038,526.805725 91.313896,515.428833 
M106.312538,575.928101 
	C106.246986,576.277039 106.181427,576.626038 105.796822,577.604187 
	C105.539986,578.739624 105.283150,579.875122 104.519913,581.517883 
	C99.633339,595.950317 91.451469,607.486511 77.684547,615.093384 
	C68.730843,620.040649 64.191231,628.490540 64.005264,639.844666 
	C65.671486,640.560059 67.335358,641.893188 69.004280,641.899475 
	C101.420479,642.022644 133.837265,641.990784 166.253937,641.990784 
	C167.834564,641.990784 169.415192,641.990784 170.897873,641.990784 
	C172.484665,629.357544 165.989227,617.875977 152.988312,612.188904 
	C150.182098,609.916138 147.119049,607.893433 144.617691,605.323914 
	C137.035019,597.534668 132.860306,587.846375 129.658295,577.625366 
	C129.213333,576.205017 127.692223,574.137024 126.575439,574.075562 
	C120.451042,573.738892 114.296684,573.897461 108.155098,574.015076 
	C107.655937,574.024597 107.175308,575.002502 106.674774,575.676758 
	C106.674774,575.676758 106.817741,575.709839 106.312538,575.928101 
M87.061043,558.551758 
	C87.533295,561.779297 88.005547,565.006836 88.509857,568.453491 
	C93.636314,568.453491 98.436134,568.495667 103.234993,568.445190 
	C115.157059,568.319641 127.078682,568.151855 139.873581,568.272949 
	C142.149124,568.272949 144.424667,568.272949 146.556625,568.272949 
	C149.261154,557.734009 149.247421,557.702759 140.251450,552.953491 
	C139.811447,552.721191 139.370132,552.491150 138.934769,552.250366 
	C131.649353,548.221252 131.581818,547.920410 136.497192,541.440308 
	C143.573334,532.111633 142.513855,518.326355 133.807770,510.172485 
	C128.368942,505.547607 122.284264,502.983429 114.221161,504.195038 
	C94.228073,506.925995 89.878578,529.326721 97.952011,539.740601 
	C99.541763,542.568787 101.131516,545.396912 102.121376,548.638611 
	C97.188515,551.710022 92.255646,554.781494 87.061043,558.551758 
z"/>
<path fill="#BE804C" opacity="1.000000" stroke="none" 
	d="
M664.036743,449.835754 
	C661.899292,450.276703 659.741211,450.160645 657.583130,450.160065 
	C587.241394,450.141083 516.899658,450.133209 446.043884,450.079834 
	C445.635284,448.881287 445.832977,447.726532 445.832977,446.571777 
	C445.833496,375.342438 445.817810,304.113129 445.732391,232.413361 
	C518.137451,231.959381 590.613708,231.975845 663.561157,231.980042 
	C664.026978,304.422699 664.021606,376.877625 664.036743,449.835754 
z"/>
<path fill="#40403F" opacity="1.000000" stroke="none" 
	d="
M590.153564,125.370636 
	C588.928833,139.592026 588.391663,136.573380 578.215271,136.853165 
	C576.069763,136.912155 573.921143,136.861755 571.101868,136.861755 
	C575.705566,151.166565 581.048462,164.098419 594.714050,171.640289 
	C607.659912,178.784897 614.042664,189.796585 613.682617,204.734406 
	C613.583740,208.838043 612.044739,210.235077 607.992249,210.223541 
	C572.493286,210.122421 536.993774,210.135635 501.494659,210.205566 
	C497.562958,210.213318 496.061035,208.982651 495.869415,204.735062 
	C495.131561,188.379349 503.373169,177.860519 516.865051,170.207336 
	C529.601746,162.982529 534.008606,150.306076 538.457581,136.861038 
	C533.684387,136.861038 529.696106,136.707535 525.725281,136.904831 
	C521.867126,137.096527 520.245544,135.226624 520.034485,131.649673 
	C520.024597,131.483383 520.042908,131.304810 519.988647,131.153290 
	C515.713196,119.223030 522.087585,113.334724 532.977539,109.957870 
	C527.243164,101.414215 523.875366,92.553116 526.979004,83.210114 
	C528.823364,77.657997 532.189758,71.740379 536.607666,68.084976 
	C547.837769,58.793182 563.947754,59.692173 574.143799,68.791039 
	C582.536377,76.280533 588.810425,91.768898 576.914978,109.426079 
	C579.563965,110.993866 582.098022,112.797272 584.875244,114.070213 
	C589.739502,116.299767 592.291809,119.419456 590.153564,125.370636 
M524.060852,121.551468 
	C524.546753,124.780281 525.032593,128.009094 525.550964,131.453827 
	C530.658569,131.453827 535.456482,131.496033 540.253479,131.445526 
	C552.169312,131.320068 564.084717,131.152313 576.873413,131.273361 
	C579.149780,131.273361 581.426147,131.273361 583.819519,131.273361 
	C584.113403,129.665451 584.153320,128.483093 584.550842,127.436592 
	C586.443542,122.454163 584.456360,119.373055 579.951538,117.239037 
	C577.419128,116.039368 575.086975,114.424026 572.593384,113.133614 
	C569.655212,111.613152 569.198792,109.739944 571.390381,107.215210 
	C572.260559,106.212799 573.020569,105.114799 573.832886,104.061996 
	C579.660889,96.508636 580.298523,80.941292 570.807495,73.171562 
	C565.401184,68.443222 559.269592,66.029083 551.221375,67.194786 
	C532.290100,69.487938 525.629028,91.755798 536.054260,104.796600 
	C537.278076,106.939644 538.501831,109.082687 539.124207,111.637497 
	C534.190369,114.709305 529.256470,117.781120 524.060852,121.551468 
M591.245422,176.074677 
	C576.548462,167.234940 570.304565,152.751724 565.471069,136.924774 
	C558.781433,136.924774 552.147949,136.875732 545.517700,136.999969 
	C544.847656,137.012512 544.197266,138.071213 543.130737,139.218689 
	C542.760010,140.815002 542.389343,142.411316 541.516235,144.520248 
	C536.700928,158.326736 529.310181,169.886017 515.905396,177.206070 
	C506.448730,182.370132 501.201996,190.833069 501.004150,202.845062 
	C502.673859,203.560379 504.341217,204.893341 506.013611,204.899673 
	C538.477844,205.022812 570.942688,204.993668 603.407410,204.982285 
	C604.864319,204.981766 606.321289,204.853714 607.693848,204.789047 
	C610.380249,193.226288 601.481445,179.297012 591.245422,176.074677 
z"/>
<path fill="#454443" opacity="1.000000" stroke="none" 
	d="
M355.092865,723.871094 
	C367.147491,735.607300 368.216339,749.375854 358.355682,764.969299 
	C361.925446,767.049927 365.683838,768.865112 368.965210,771.318359 
	C370.504242,772.468933 372.055176,774.870972 372.013702,776.669250 
	C371.661072,791.959534 371.551514,791.954407 356.426697,792.189941 
	C355.440887,792.205322 354.456421,792.308960 352.916809,792.406799 
	C354.830597,801.710938 358.440613,810.076294 364.428528,816.979126 
	C368.246277,821.380127 373.269897,824.885681 378.172760,828.164856 
	C389.944183,836.038025 395.845490,846.624634 395.117035,860.943115 
	C394.925781,864.702820 393.464417,865.907837 389.985748,865.903931 
	C354.153839,865.863831 318.321747,865.853577 282.489899,865.917664 
	C278.788727,865.924316 277.496979,864.178955 277.340851,860.768127 
	C276.645966,845.589844 283.126099,834.300842 296.269684,827.125000 
	C310.098785,819.574890 315.102936,806.444580 320.076874,792.180359 
	C315.105255,792.180359 310.841705,792.102905 306.582581,792.206665 
	C303.587250,792.279602 301.948944,791.301819 301.713409,788.010986 
	C301.453674,784.381897 300.284424,780.784058 300.322723,777.181213 
	C300.343079,775.263550 301.608124,772.744507 303.136749,771.584473 
	C306.406769,769.102661 310.213562,767.328125 314.228149,765.017761 
	C308.463593,756.575928 305.354431,747.413696 308.734802,737.752380 
	C310.572968,732.498840 313.782104,726.957153 317.966309,723.442383 
	C328.694122,714.431335 343.198578,715.018372 355.092865,723.871094 
M327.282501,724.060486 
	C315.493317,729.539917 310.427856,740.105713 313.896362,752.805481 
	C315.676849,755.934326 317.179962,759.269287 319.311554,762.137146 
	C321.701263,765.352173 321.458069,767.305542 317.792023,769.116882 
	C314.383240,770.801086 311.121765,772.812683 307.928131,774.884766 
	C307.003265,775.484741 305.944092,776.803955 305.967743,777.768372 
	C306.042328,780.812378 306.601227,783.844543 306.959961,786.776733 
	C324.073212,786.776733 340.506470,786.776733 357.842712,786.920410 
	C360.418945,786.920410 362.995178,786.920410 365.435181,786.920410 
	C367.027191,776.696289 367.025482,776.699097 358.630768,771.569458 
	C357.789246,771.055298 357.014404,770.428467 356.158813,769.941406 
	C350.199341,766.548218 350.151276,766.345581 354.287140,760.935791 
	C362.540497,750.140259 361.168793,735.747009 350.654541,727.286804 
	C343.651917,722.311646 336.135651,720.986328 327.282501,724.060486 
M324.373077,795.795715 
	C324.301361,796.185486 324.229675,796.575256 323.934174,797.657288 
	C323.469177,799.030151 323.004181,800.403076 322.105804,802.329590 
	C317.458221,814.711243 310.654053,825.174988 298.630219,831.926025 
	C289.100037,837.277039 282.623688,845.180115 282.614899,857.888977 
	C282.794220,861.484070 285.563904,860.376587 287.461792,860.379761 
	C319.905579,860.433838 352.349487,860.423401 384.793365,860.403503 
	C386.373901,860.402527 387.954315,860.184937 389.440125,860.075195 
	C390.628937,846.813416 384.342957,836.979858 370.691406,830.169373 
	C367.920288,827.836121 364.855011,825.771545 362.433472,823.119141 
	C355.266266,815.269043 351.191345,805.711609 347.929962,795.731506 
	C347.498962,794.412598 346.171478,792.408386 345.230255,792.392151 
	C338.819366,792.281189 332.400696,792.617737 325.376740,793.011719 
	C325.215454,793.828674 325.054169,794.645630 324.373077,795.795715 
z"/>
<path fill="#454443" opacity="1.000000" stroke="none" 
	d="
M787.990234,283.909424 
	C803.467224,293.748993 806.381531,311.235443 795.288635,327.884705 
	C799.007751,330.056335 802.883484,331.979858 806.328674,334.493530 
	C807.763794,335.540588 809.044373,337.837128 809.062073,339.579102 
	C809.102234,343.539429 808.665649,347.596680 807.693115,351.429291 
	C807.311584,352.932739 805.079956,354.823181 803.513428,355.004669 
	C799.249939,355.498627 794.891663,355.174408 789.780090,355.174408 
	C793.497070,368.853973 798.687500,380.983368 810.859619,388.569183 
	C819.356201,393.864349 827.449585,399.486145 830.193970,409.674347 
	C831.551208,414.713196 831.636719,420.136475 831.860779,425.404388 
	C831.907104,426.494690 830.166626,427.877258 828.965515,428.720398 
	C828.284363,429.198517 827.026062,428.877441 826.027710,428.877533 
	C790.867493,428.881439 755.706970,428.821045 720.547302,428.953735 
	C715.970886,428.970978 714.380005,427.280304 714.293579,422.827667 
	C714.002380,407.820282 720.704834,396.958282 733.627197,389.892242 
	C747.260254,382.437469 752.105347,369.319763 757.122925,355.181183 
	C752.157654,355.181183 747.913452,355.083435 743.676208,355.214264 
	C740.668884,355.307129 739.022949,354.327271 738.743103,351.076599 
	C738.416504,347.282990 737.256653,343.516754 737.318970,339.752899 
	C737.349609,337.898834 738.912659,335.533081 740.494324,334.353638 
	C743.769836,331.911102 747.521484,330.107117 751.308289,327.906281 
	C745.238953,319.446198 742.914307,310.508331 745.524963,300.767212 
	C749.413269,286.258301 764.352478,277.443604 779.257446,280.758148 
	C782.148865,281.401154 784.899414,282.677643 787.990234,283.909424 
M794.849548,349.924072 
	C797.426147,349.924072 800.002686,349.924072 802.442444,349.924072 
	C804.048889,339.464630 804.047546,339.466858 795.691772,334.525055 
	C794.842102,334.022552 794.043152,333.432404 793.183105,332.949829 
	C787.216980,329.602356 787.154846,329.330780 791.274780,323.948608 
	C799.575989,313.104187 798.217468,298.788574 787.659241,290.288849 
	C780.671387,285.198181 773.148621,283.907013 764.282349,287.060730 
	C752.454834,292.584320 747.452271,303.020813 750.939758,315.799408 
	C752.483398,318.694275 753.735046,321.799377 755.634583,324.438110 
	C759.079834,329.224182 759.126526,329.642212 753.916565,332.519928 
	C752.757568,333.160095 751.620361,333.841003 750.486755,334.525696 
	C741.929138,339.694733 741.930176,339.696472 744.250122,349.798462 
	C760.773621,349.798462 777.359253,349.798462 794.849548,349.924072 
M759.104248,365.330688 
	C754.466003,377.704803 747.686584,388.184601 735.652100,394.901489 
	C726.069031,400.250092 719.739746,408.237427 719.615295,420.888824 
	C721.065308,421.731873 722.512146,423.304626 723.965698,423.310822 
	C756.753662,423.450348 789.542603,423.342255 822.330322,423.506958 
	C826.781799,423.529327 827.257751,421.566437 826.801208,418.047516 
	C825.274231,406.277588 818.865845,398.311859 807.754700,393.129822 
	C804.751343,390.565460 801.393860,388.312317 798.813599,385.376160 
	C792.040161,377.668427 788.041199,368.421448 784.928528,358.731903 
	C784.504944,357.413300 783.171326,355.408722 782.230164,355.392426 
	C775.819275,355.281525 769.400696,355.618103 762.304993,356.140991 
	C761.382141,359.019501 760.459351,361.898010 759.104248,365.330688 
z"/>
<path fill="#454443" opacity="1.000000" stroke="none" 
	d="
M807.604248,823.469971 
	C812.479614,826.928833 817.385986,829.800293 821.631042,833.442566 
	C830.458618,841.016418 832.731262,851.207214 832.014893,862.348755 
	C831.781982,865.971375 829.125610,865.872314 826.577087,865.874023 
	C809.748352,865.885437 792.919556,865.880310 776.090820,865.880432 
	C757.595886,865.880493 739.099915,865.776367 720.606689,865.954773 
	C716.081116,865.998474 714.368774,864.393250 714.295471,859.887024 
	C714.051880,844.917908 720.610352,833.959534 733.589233,826.920227 
	C747.259949,819.505615 752.187317,806.447266 757.103333,792.181641 
	C752.372070,792.181641 748.315002,792.252625 744.262817,792.143433 
	C742.823364,792.104614 740.325256,791.939453 740.138855,791.299377 
	C739.044006,787.539917 738.775635,783.539795 737.680481,779.780457 
	C736.322388,775.118286 737.497986,772.232361 742.075806,770.293762 
	C745.228271,768.958862 748.045471,766.832153 750.981262,765.078003 
	C741.725159,747.006714 742.951416,733.010864 754.390869,723.805542 
	C765.696228,714.708252 781.326355,714.857727 792.488342,724.169861 
	C803.677368,733.504639 804.900940,747.752319 795.677551,765.033508 
	C799.166809,767.102905 802.893494,768.921570 806.116455,771.396240 
	C807.638672,772.565002 808.967224,774.966492 809.027161,776.852478 
	C809.147339,780.635132 808.284485,784.442505 807.924805,788.248962 
	C807.650208,791.155029 806.066040,792.254883 803.262634,792.200745 
	C798.966736,792.117798 794.668152,792.178955 789.764954,792.178955 
	C792.980042,804.504395 797.819092,815.163208 807.604248,823.469971 
M787.654724,727.286621 
	C780.656311,722.273071 773.143127,720.926575 764.282532,724.069702 
	C752.521179,729.524170 747.464172,740.070496 750.939514,752.799438 
	C752.597595,755.818359 753.884827,759.134033 756.005188,761.782898 
	C758.817505,765.296082 758.824036,767.523132 754.421936,769.289673 
	C752.901489,769.899841 751.545837,770.925537 750.124573,771.777466 
	C742.027588,776.631226 742.024963,776.633606 744.003296,786.078979 
	C744.057312,786.336853 744.391602,786.535950 744.627869,786.798706 
	C761.045654,786.798706 777.495239,786.798706 794.849548,786.924438 
	C797.426453,786.924438 800.003357,786.924438 802.443481,786.924438 
	C804.014343,776.682861 803.982117,776.734619 795.663025,771.555847 
	C792.884033,769.825989 790.316040,767.757202 787.648315,765.841003 
	C799.617188,749.676636 799.544373,736.839783 787.654724,727.286621 
M807.691528,830.169373 
	C804.705200,827.586060 801.377563,825.302063 798.798828,822.361328 
	C792.035767,814.648987 788.036743,805.408508 784.926514,795.722351 
	C784.503723,794.405884 783.165771,792.407471 782.222778,792.391357 
	C775.814331,792.280884 769.398193,792.617554 762.304932,793.140625 
	C761.382019,796.019287 760.459106,798.897888 759.103943,802.330627 
	C754.479736,814.720215 747.694275,825.195007 735.644897,831.908813 
	C726.063171,837.247742 719.736633,845.240051 719.614807,857.888794 
	C721.064270,858.731995 722.510620,860.305115 723.963623,860.311279 
	C756.745056,860.450867 789.527527,860.343201 822.308716,860.507629 
	C826.730835,860.529785 827.260437,858.618958 826.806396,855.071228 
	C825.296814,843.275757 818.802795,835.367676 807.691528,830.169373 
z"/>
<path fill="#454443" opacity="1.000000" stroke="none" 
	d="
M361.446411,294.697693 
	C367.000244,306.992493 366.094666,316.373383 358.261749,327.825714 
	C361.939362,329.992432 365.798096,331.876862 369.156799,334.421295 
	C370.664001,335.563110 371.849762,337.980927 371.976471,339.899323 
	C372.181091,342.997498 371.051086,346.166412 371.096680,349.296509 
	C371.169617,354.305267 368.676117,355.571533 364.208496,355.237885 
	C360.604950,354.968781 356.965302,355.183319 352.556519,355.183319 
	C356.673737,368.739532 361.566101,380.945038 373.663971,388.457550 
	C382.151276,393.727966 390.306732,399.293762 393.092163,409.478729 
	C394.468140,414.510101 394.603485,419.918304 394.955353,425.179077 
	C395.194763,428.758881 392.367401,428.877045 389.750824,428.878113 
	C379.920197,428.882141 370.089600,428.880310 360.258972,428.880341 
	C334.932648,428.880463 309.606293,428.884735 284.279968,428.877289 
	C278.099579,428.875458 277.468903,428.189606 277.347900,422.060242 
	C277.049591,406.949646 284.454803,396.418488 297.224060,389.411194 
	C310.746063,381.990784 315.020355,368.791992 320.175110,355.179474 
	C315.009338,355.179474 310.709412,355.105713 306.413513,355.205780 
	C303.619202,355.270874 302.072479,354.303741 301.775055,351.313019 
	C301.398041,347.521484 300.289917,343.757996 300.321564,339.989319 
	C300.337402,338.105194 301.744019,335.651337 303.295502,334.482086 
	C306.568665,332.015411 310.351288,330.224731 314.252869,327.966919 
	C308.061035,318.934540 305.666290,309.520538 309.061340,299.074188 
	C311.465332,291.677246 316.307312,286.596558 323.075897,283.041199 
	C336.232910,276.130127 353.769135,281.310272 361.446411,294.697693 
M350.659271,290.288513 
	C343.670105,285.202148 336.148590,283.900452 327.281036,287.063843 
	C315.617310,292.251862 310.429749,303.074066 313.939545,315.800446 
	C315.708618,318.934235 317.196503,322.276184 319.321411,325.146515 
	C321.711487,328.374969 321.450775,330.342346 317.774750,332.115021 
	C314.500397,333.694031 311.330322,335.531891 308.281647,337.513153 
	C307.216675,338.205231 305.984955,339.665863 305.985291,340.775177 
	C305.986206,343.811310 306.601776,346.847290 306.960846,349.776581 
	C324.074860,349.776581 340.507477,349.776581 357.831696,349.919891 
	C360.285400,349.919891 362.739136,349.919891 365.511475,349.919891 
	C365.985138,346.250732 366.406525,342.986633 366.879944,339.319641 
	C363.448425,337.261597 359.958252,335.115875 356.417847,333.056427 
	C349.995697,329.320801 349.983215,329.342285 354.622772,323.255188 
	C362.487976,312.936035 360.942993,298.584137 350.659271,290.288513 
M282.614288,420.889618 
	C282.794739,424.483795 285.563812,423.376923 287.461945,423.380096 
	C319.905579,423.434113 352.349335,423.423553 384.793060,423.403656 
	C386.373688,423.402710 387.954193,423.185333 389.440094,423.075684 
	C390.631012,409.801025 384.043610,399.494843 370.754639,393.129120 
	C367.856201,390.690979 364.626862,388.549652 362.122559,385.757965 
	C355.147430,377.982391 351.132568,368.567993 347.932068,358.740936 
	C347.501831,357.419861 346.177551,355.409119 345.238129,355.392761 
	C338.824615,355.281281 332.403320,355.617737 325.365723,356.022278 
	C325.209381,356.832855 325.053070,357.643402 324.372864,358.792908 
	C324.285034,359.186493 324.197235,359.580078 323.804718,360.630341 
	C323.379517,362.011627 322.954346,363.392883 322.097504,365.328674 
	C317.462341,377.717010 310.648163,388.173584 298.628357,394.921509 
	C289.090454,400.276123 282.560303,408.141144 282.614288,420.889618 
z"/>
<path fill="#40403F" opacity="1.000000" stroke="none" 
	d="
M581.419067,516.719971 
	C585.668335,527.653442 583.171448,537.224304 576.716187,546.457581 
	C580.219055,548.422485 583.463806,550.330750 586.790344,552.083801 
	C590.136047,553.846924 591.349915,556.159790 590.650757,560.155090 
	C588.288391,573.653687 588.442505,573.681152 574.442322,573.860962 
	C573.622803,573.871460 572.803101,573.862366 571.152832,573.862366 
	C575.650696,588.091003 580.921387,600.957153 594.493835,608.484497 
	C607.576538,615.740173 614.147217,626.787231 613.665100,641.929260 
	C613.546509,645.654541 612.330261,647.240906 608.354492,647.228699 
	C572.720886,647.119019 537.086792,647.134460 501.453064,647.206177 
	C497.488098,647.214172 496.035339,645.912476 495.874329,641.700684 
	C495.279205,626.131653 502.301208,615.125732 515.715332,608.197754 
	C527.551453,602.084534 536.617188,583.929932 537.716797,573.860901 
	C533.701416,573.860901 529.716980,573.706726 525.750061,573.904907 
	C521.913391,574.096558 520.977966,572.037781 519.906860,568.725464 
	C516.012207,556.681091 521.509521,550.277710 533.035706,547.084595 
	C526.283020,536.957642 523.695740,526.860352 528.198669,515.913086 
	C531.104858,508.847748 536.165405,503.818390 543.273682,500.899506 
	C558.535034,494.632721 575.815796,501.663239 581.419067,516.719971 
M570.801514,510.209442 
	C558.688477,499.779968 541.194519,502.585358 533.878723,516.130432 
	C529.215210,524.764832 530.438660,535.550903 537.473877,543.305298 
	C540.518799,546.661560 539.917358,548.618530 536.340271,550.586182 
	C533.003845,552.421570 529.582703,554.154907 526.476929,556.330078 
	C525.323059,557.138245 524.374146,559.068298 524.361877,560.495667 
	C524.339722,563.059265 525.096130,565.629578 525.577209,568.495117 
	C534.894653,568.495117 544.013123,568.562012 553.130005,568.474426 
	C560.751099,568.401184 568.370483,568.147156 576.859497,568.266479 
	C579.136475,568.266479 581.413452,568.266479 583.572083,568.266479 
	C586.387085,555.207520 586.342224,558.689697 577.259338,552.960632 
	C575.723877,551.992188 574.213501,550.965332 572.602295,550.139648 
	C569.665894,548.634827 569.187439,546.757751 571.382996,544.225037 
	C572.252319,543.222229 573.029541,542.137634 573.821350,541.070007 
	C580.547729,531.999634 579.301880,518.026733 570.801514,510.209442 
M589.988892,612.188354 
	C587.178467,609.910950 584.112183,607.882751 581.605713,605.309326 
	C574.125183,597.628845 570.031677,588.044556 566.777649,578.006653 
	C566.288940,576.499146 564.984131,574.147766 563.967407,574.100220 
	C557.502930,573.797913 551.012756,574.009277 544.533447,574.156433 
	C544.190308,574.164185 543.868774,575.126404 543.126282,576.234009 
	C542.590881,578.080139 542.055481,579.926331 541.094177,582.349915 
	C536.581787,595.791199 529.205933,606.845642 516.388367,613.948730 
	C506.757568,619.285828 501.174683,627.545715 501.015198,639.823303 
	C502.672668,640.546021 504.327728,641.892944 505.987885,641.899292 
	C538.587280,642.023254 571.187195,641.991394 603.787048,641.991394 
	C605.080933,641.991394 606.374756,641.991394 607.559265,641.991394 
	C610.186035,631.515625 603.578430,617.775940 589.988892,612.188354 
z"/>
<path fill="#F0F0F0" opacity="1.000000" stroke="none" 
	d="
M153.286224,612.818359 
	C165.989227,617.875977 172.484665,629.357544 170.897873,641.990784 
	C169.415192,641.990784 167.834564,641.990784 166.253937,641.990784 
	C133.837265,641.990784 101.420479,642.022644 69.004280,641.899475 
	C67.335358,641.893188 65.671486,640.560059 64.408051,639.362000 
	C65.191536,638.579041 65.741150,638.359253 65.928299,637.966736 
	C71.094353,627.130188 79.170227,619.076721 89.435036,613.026123 
	C95.853851,609.242676 100.212540,603.473633 102.473801,596.594604 
	C104.097847,591.654114 104.229111,586.222900 105.026321,581.010559 
	C105.283150,579.875122 105.539986,578.739624 106.163895,577.139648 
	C106.626556,576.353394 106.722145,576.031616 106.817734,575.709839 
	C106.817741,575.709839 106.674774,575.676758 106.991005,575.821045 
	C114.567451,584.484863 121.286781,593.557739 129.258026,601.349792 
	C135.702515,607.649475 143.405151,612.942017 153.286224,612.818359 
z"/>
<path fill="#EDEDED" opacity="1.000000" stroke="none" 
	d="
M102.721268,548.225098 
	C101.131516,545.396912 99.541763,542.568787 98.297867,539.311829 
	C99.069939,537.422974 99.594666,535.983521 99.904518,534.499146 
	C100.979958,529.347290 101.628922,524.073120 103.148926,519.060425 
	C103.989883,516.287048 106.097435,513.830750 107.922722,511.453156 
	C108.749184,510.376556 110.218575,509.305023 111.500092,509.162170 
	C114.746010,508.800293 115.155876,506.844879 114.991119,504.274933 
	C122.284264,502.983429 128.368942,505.547607 133.912766,510.864990 
	C134.328369,512.659973 134.504349,513.823242 134.970215,514.855774 
	C140.210709,526.470947 138.922073,533.189880 129.484665,541.905457 
	C127.157036,544.055054 124.470070,545.815552 121.265823,548.279785 
	C124.510559,549.656799 126.831543,550.496460 129.017685,551.602600 
	C132.557632,553.393799 136.812286,554.681091 139.198532,557.504944 
	C140.645157,559.216919 139.137146,563.420776 138.970291,566.505859 
	C138.943436,567.002197 138.988602,567.502563 139.000488,568.001038 
	C127.078682,568.151855 115.157059,568.319641 103.234993,568.445190 
	C98.436134,568.495667 93.636314,568.453491 88.509857,568.453491 
	C88.005547,565.006836 87.533295,561.779297 87.690735,558.242432 
	C98.305664,558.163086 101.463051,556.034668 102.721268,548.225098 
z"/>
<path fill="#CBCBCB" opacity="1.000000" stroke="none" 
	d="
M153.137268,612.503662 
	C143.405151,612.942017 135.702515,607.649475 129.258026,601.349792 
	C121.286781,593.557739 114.567451,584.484863 106.996651,575.747925 
	C107.175308,575.002502 107.655937,574.024597 108.155098,574.015076 
	C114.296684,573.897461 120.451042,573.738892 126.575439,574.075562 
	C127.692223,574.137024 129.213333,576.205017 129.658295,577.625366 
	C132.860306,587.846375 137.035019,597.534668 144.617691,605.323914 
	C147.119049,607.893433 150.182098,609.916138 153.137268,612.503662 
z"/>
<path fill="#CBCBCB" opacity="1.000000" stroke="none" 
	d="
M139.437042,568.136963 
	C138.988602,567.502563 138.943436,567.002197 138.970291,566.505859 
	C139.137146,563.420776 140.645157,559.216919 139.198532,557.504944 
	C136.812286,554.681091 132.557632,553.393799 129.017685,551.602600 
	C126.831543,550.496460 124.510559,549.656799 121.265823,548.279785 
	C124.470070,545.815552 127.157036,544.055054 129.484665,541.905457 
	C138.922073,533.189880 140.210709,526.470947 134.970215,514.855774 
	C134.504349,513.823242 134.328369,512.659973 134.078796,511.162292 
	C142.513855,518.326355 143.573334,532.111633 136.497192,541.440308 
	C131.581818,547.920410 131.649353,548.221252 138.934769,552.250366 
	C139.370132,552.491150 139.811447,552.721191 140.251450,552.953491 
	C149.247421,557.702759 149.261154,557.734009 146.556625,568.272949 
	C144.424667,568.272949 142.149124,568.272949 139.437042,568.136963 
z"/>
<path fill="#FAFAFA" opacity="1.000000" stroke="none" 
	d="
M104.773117,581.264221 
	C104.229111,586.222900 104.097847,591.654114 102.473801,596.594604 
	C100.212540,603.473633 95.853851,609.242676 89.435036,613.026123 
	C79.170227,619.076721 71.094353,627.130188 65.928299,637.966736 
	C65.741150,638.359253 65.191536,638.579041 64.475830,638.934448 
	C64.191231,628.490540 68.730843,620.040649 77.684547,615.093384 
	C91.451469,607.486511 99.633339,595.950317 104.773117,581.264221 
z"/>
<path fill="#F4F4F4" opacity="1.000000" stroke="none" 
	d="
M114.606140,504.234985 
	C115.155876,506.844879 114.746010,508.800293 111.500092,509.162170 
	C110.218575,509.305023 108.749184,510.376556 107.922722,511.453156 
	C106.097435,513.830750 103.989883,516.287048 103.148926,519.060425 
	C101.628922,524.073120 100.979958,529.347290 99.904518,534.499146 
	C99.594666,535.983521 99.069939,537.422974 98.261414,538.962402 
	C89.878578,529.326721 94.228073,506.925995 114.606140,504.234985 
z"/>
<path fill="#F8F8F8" opacity="1.000000" stroke="none" 
	d="
M102.421318,548.431885 
	C101.463051,556.034668 98.305664,558.163086 87.821609,557.892944 
	C92.255646,554.781494 97.188515,551.710022 102.421318,548.431885 
z"/>
<path fill="#FAFAFA" opacity="1.000000" stroke="none" 
	d="
M106.565140,575.818970 
	C106.722145,576.031616 106.626556,576.353394 106.323425,576.825073 
	C106.181427,576.626038 106.246986,576.277039 106.565140,575.818970 
z"/>
<path fill="#F0F0F0" opacity="1.000000" stroke="none" 
	d="
M542.018677,144.007645 
	C542.389343,142.411316 542.760010,140.815002 543.670776,139.109375 
	C549.335632,145.427628 554.156250,152.129929 559.655579,158.219238 
	C568.201050,167.681381 578.299011,174.852875 591.357910,176.778366 
	C601.481445,179.297012 610.380249,193.226288 607.693848,204.789047 
	C606.321289,204.853714 604.864319,204.981766 603.407410,204.982285 
	C570.942688,204.993668 538.477844,205.022812 506.013611,204.899673 
	C504.341217,204.893341 502.673859,203.560379 501.406494,202.362091 
	C502.268921,201.432678 502.902649,201.069763 503.163574,200.527466 
	C508.296814,189.857666 516.342468,181.995697 526.439270,176.025269 
	C532.854065,172.232117 537.216187,166.468384 539.476196,159.588287 
	C541.098511,154.649277 541.224915,149.218842 542.018677,144.007645 
z"/>
<path fill="#EDEDED" opacity="1.000000" stroke="none" 
	d="
M551.991089,67.274826 
	C559.269592,66.029083 565.401184,68.443222 570.912720,73.864349 
	C571.328430,75.659630 571.504333,76.822868 571.970154,77.855316 
	C577.210510,89.470612 575.922058,96.189507 566.485413,104.904495 
	C564.157654,107.054222 561.470398,108.814705 558.269348,111.276321 
	C561.511230,112.654121 563.832153,113.495857 566.018860,114.602768 
	C569.558411,116.394455 573.813049,117.681625 576.199036,120.505569 
	C577.645569,122.217651 576.137329,126.421349 575.970215,129.506409 
	C575.943359,130.002792 575.988464,130.503067 576.000244,131.001556 
	C564.084717,131.152313 552.169312,131.320068 540.253479,131.445526 
	C535.456482,131.496033 530.658569,131.453827 525.550964,131.453827 
	C525.032593,128.009094 524.546753,124.780281 524.690552,121.242218 
	C535.308411,121.163116 538.453125,119.043983 539.725586,111.225739 
	C538.501831,109.082687 537.278076,106.939644 536.139038,104.126366 
	C536.705688,101.769440 537.321533,100.107956 537.644592,98.391373 
	C538.655518,93.020096 538.804077,87.335190 540.748901,82.341248 
	C542.177795,78.672058 545.445740,75.235672 548.758118,72.944824 
	C551.166748,71.279037 552.348572,70.014572 551.991089,67.274826 
z"/>
<path fill="#CBCBCB" opacity="1.000000" stroke="none" 
	d="
M591.301636,176.426514 
	C578.299011,174.852875 568.201050,167.681381 559.655579,158.219238 
	C554.156250,152.129929 549.335632,145.427628 543.874268,138.822250 
	C544.197266,138.071213 544.847656,137.012512 545.517700,136.999969 
	C552.147949,136.875732 558.781433,136.924774 565.471069,136.924774 
	C570.304565,152.751724 576.548462,167.234940 591.301636,176.426514 
z"/>
<path fill="#CBCBCB" opacity="1.000000" stroke="none" 
	d="
M576.436829,131.137451 
	C575.988464,130.503067 575.943359,130.002792 575.970215,129.506409 
	C576.137329,126.421349 577.645569,122.217651 576.199036,120.505569 
	C573.813049,117.681625 569.558411,116.394455 566.018860,114.602768 
	C563.832153,113.495857 561.511230,112.654121 558.269348,111.276321 
	C561.470398,108.814705 564.157654,107.054222 566.485413,104.904495 
	C575.922058,96.189507 577.210510,89.470612 571.970154,77.855316 
	C571.504333,76.822868 571.328430,75.659630 571.078857,74.161880 
	C580.298523,80.941292 579.660889,96.508636 573.832886,104.061996 
	C573.020569,105.114799 572.260559,106.212799 571.390381,107.215210 
	C569.198792,109.739944 569.655212,111.613152 572.593384,113.133614 
	C575.086975,114.424026 577.419128,116.039368 579.951538,117.239037 
	C584.456360,119.373055 586.443542,122.454163 584.550842,127.436592 
	C584.153320,128.483093 584.113403,129.665451 583.819519,131.273361 
	C581.426147,131.273361 579.149780,131.273361 576.436829,131.137451 
z"/>
<path fill="#FAFAFA" opacity="1.000000" stroke="none" 
	d="
M541.767456,144.263947 
	C541.224915,149.218842 541.098511,154.649277 539.476196,159.588287 
	C537.216187,166.468384 532.854065,172.232117 526.439270,176.025269 
	C516.342468,181.995697 508.296814,189.857666 503.163574,200.527466 
	C502.902649,201.069763 502.268921,201.432678 501.473816,201.934464 
	C501.201996,190.833069 506.448730,182.370132 515.905396,177.206070 
	C529.310181,169.886017 536.700928,158.326736 541.767456,144.263947 
z"/>
<path fill="#F4F4F4" opacity="1.000000" stroke="none" 
	d="
M551.606201,67.234802 
	C552.348572,70.014572 551.166748,71.279037 548.758118,72.944824 
	C545.445740,75.235672 542.177795,78.672058 540.748901,82.341248 
	C538.804077,87.335190 538.655518,93.020096 537.644592,98.391373 
	C537.321533,100.107956 536.705688,101.769440 536.079590,103.800774 
	C525.629028,91.755798 532.290100,69.487938 551.606201,67.234802 
z"/>
<path fill="#F8F8F8" opacity="1.000000" stroke="none" 
	d="
M539.424927,111.431618 
	C538.453125,119.043983 535.308411,121.163116 524.821411,120.892960 
	C529.256470,117.781120 534.190369,114.709305 539.424927,111.431618 
z"/>
<path fill="#F0F0F0" opacity="1.000000" stroke="none" 
	d="
M322.539185,801.775940 
	C323.004181,800.403076 323.469177,799.030151 324.261139,797.116821 
	C324.689697,796.205139 324.791290,795.833862 324.892883,795.462585 
	C325.054169,794.645630 325.215454,793.828674 325.711395,793.279663 
	C334.020386,808.510254 345.208221,820.417114 360.225555,828.359924 
	C363.370697,830.023254 367.428253,829.961487 371.065338,830.694702 
	C384.342957,836.979858 390.628937,846.813416 389.440125,860.075195 
	C387.954315,860.184937 386.373901,860.402527 384.793365,860.403503 
	C352.349487,860.423401 319.905579,860.433838 287.461792,860.379761 
	C285.563904,860.376587 282.794220,861.484070 283.130310,857.396729 
	C289.676788,846.008057 298.052521,837.380554 308.666229,830.873840 
	C315.012390,826.983398 319.388062,821.338623 321.198792,814.218445 
	C322.209167,810.245422 325.653473,806.272156 322.539185,801.775940 
z"/>
<path fill="#F0F0F0" opacity="1.000000" stroke="none" 
	d="
M356.939728,786.776733 
	C340.506470,786.776733 324.073212,786.776733 306.959961,786.776733 
	C306.601227,783.844543 306.042328,780.812378 305.967743,777.768372 
	C305.944092,776.803955 307.003265,775.484741 307.928131,774.884766 
	C311.121765,772.812683 314.383240,770.801086 317.792023,769.116882 
	C321.458069,767.305542 321.701263,765.352173 319.311554,762.137146 
	C317.179962,759.269287 315.676849,755.934326 314.180359,752.200562 
	C317.081970,744.875793 319.470428,738.052795 322.426575,731.485291 
	C323.660950,728.742981 326.102356,726.543884 327.994965,724.097839 
	C336.135651,720.986328 343.651917,722.311646 350.832520,727.924805 
	C351.216675,729.353088 351.203308,730.311829 351.661407,730.908875 
	C361.000885,743.081177 354.807526,755.784180 344.261597,762.918518 
	C342.720978,763.960754 341.248505,765.103760 339.146301,766.636169 
	C342.452362,768.245544 344.703796,769.699280 347.168579,770.475952 
	C355.343964,773.052063 360.242310,777.405457 356.939728,786.776733 
z"/>
<path fill="#CACACA" opacity="1.000000" stroke="none" 
	d="
M370.878357,830.432007 
	C367.428253,829.961487 363.370697,830.023254 360.225555,828.359924 
	C345.208221,820.417114 334.020386,808.510254 326.015320,793.178772 
	C332.400696,792.617737 338.819366,792.281189 345.230255,792.392151 
	C346.171478,792.408386 347.498962,794.412598 347.929962,795.731506 
	C351.191345,805.711609 355.266266,815.269043 362.433472,823.119141 
	C364.855011,825.771545 367.920288,827.836121 370.878357,830.432007 
z"/>
<path fill="#CBCBCB" opacity="1.000000" stroke="none" 
	d="
M357.391235,786.848572 
	C360.242310,777.405457 355.343964,773.052063 347.168579,770.475952 
	C344.703796,769.699280 342.452362,768.245544 339.146301,766.636169 
	C341.248505,765.103760 342.720978,763.960754 344.261597,762.918518 
	C354.807526,755.784180 361.000885,743.081177 351.661407,730.908875 
	C351.203308,730.311829 351.216675,729.353088 351.069641,728.178772 
	C361.168793,735.747009 362.540497,750.140259 354.287140,760.935791 
	C350.151276,766.345581 350.199341,766.548218 356.158813,769.941406 
	C357.014404,770.428467 357.789246,771.055298 358.630768,771.569458 
	C367.025482,776.699097 367.027191,776.696289 365.435181,786.920410 
	C362.995178,786.920410 360.418945,786.920410 357.391235,786.848572 
z"/>
<path fill="#FBFBFB" opacity="1.000000" stroke="none" 
	d="
M322.322510,802.052734 
	C325.653473,806.272156 322.209167,810.245422 321.198792,814.218445 
	C319.388062,821.338623 315.012390,826.983398 308.666229,830.873840 
	C298.052521,837.380554 289.676788,846.008057 283.295532,856.955200 
	C282.623688,845.180115 289.100037,837.277039 298.630219,831.926025 
	C310.654053,825.174988 317.458221,814.711243 322.322510,802.052734 
z"/>
<path fill="#F7F7F7" opacity="1.000000" stroke="none" 
	d="
M327.638733,724.079163 
	C326.102356,726.543884 323.660950,728.742981 322.426575,731.485291 
	C319.470428,738.052795 317.081970,744.875793 314.159607,751.832153 
	C310.427856,740.105713 315.493317,729.539917 327.638733,724.079163 
z"/>
<path fill="#FBFBFB" opacity="1.000000" stroke="none" 
	d="
M324.632965,795.629150 
	C324.791290,795.833862 324.689697,796.205139 324.373047,796.770752 
	C324.229675,796.575256 324.301361,796.185486 324.632965,795.629150 
z"/>
<path fill="#F0F0F0" opacity="1.000000" stroke="none" 
	d="
M808.068665,393.698364 
	C818.865845,398.311859 825.274231,406.277588 826.801208,418.047516 
	C827.257751,421.566437 826.781799,423.529327 822.330322,423.506958 
	C789.542603,423.342255 756.753662,423.450348 723.965698,423.310822 
	C722.512146,423.304626 721.065308,421.731873 720.130676,420.396729 
	C726.729492,409.524109 734.291870,400.663086 744.903320,394.491516 
	C754.674438,388.808685 758.768677,379.296539 760.559509,368.632874 
	C760.760132,367.438385 759.903076,366.066254 759.536499,364.776520 
	C760.459351,361.898010 761.382141,359.019501 762.675476,356.343933 
	C771.150879,371.383301 782.215149,383.411896 797.227600,391.360687 
	C800.372253,393.025726 804.431091,392.964233 808.068665,393.698364 
z"/>
<path fill="#F0F0F0" opacity="1.000000" stroke="none" 
	d="
M764.994812,287.097931 
	C773.148621,283.907013 780.671387,285.198181 787.834961,290.925842 
	C788.310730,292.483673 788.388489,293.575012 788.944214,294.299744 
	C796.817932,304.566589 793.137451,317.366821 783.034058,324.555389 
	C780.882690,326.086029 778.859619,327.796875 776.412842,329.709808 
	C780.492798,331.734222 783.726624,333.334747 786.956787,334.942444 
	C794.609192,338.750946 794.605713,338.752136 794.018066,347.314819 
	C793.961365,348.140472 793.967773,348.970490 793.944885,349.798462 
	C777.359253,349.798462 760.773621,349.798462 744.250122,349.798462 
	C741.930176,339.696472 741.929138,339.694733 750.486755,334.525696 
	C751.620361,333.841003 752.757568,333.160095 753.916565,332.519928 
	C759.126526,329.642212 759.079834,329.224182 755.634583,324.438110 
	C753.735046,321.799377 752.483398,318.694275 751.203125,315.196777 
	C754.083557,307.874573 756.471313,301.051880 759.426880,294.484711 
	C760.661011,291.742584 763.102356,289.543762 764.994812,287.097931 
z"/>
<path fill="#CACACA" opacity="1.000000" stroke="none" 
	d="
M807.911682,393.414093 
	C804.431091,392.964233 800.372253,393.025726 797.227600,391.360687 
	C782.215149,383.411896 771.150879,371.383301 763.015259,356.178589 
	C769.400696,355.618103 775.819275,355.281525 782.230164,355.392426 
	C783.171326,355.408722 784.504944,357.413300 784.928528,358.731903 
	C788.041199,368.421448 792.040161,377.668427 798.813599,385.376160 
	C801.393860,388.312317 804.751343,390.565460 807.911682,393.414093 
z"/>
<path fill="#CBCBCB" opacity="1.000000" stroke="none" 
	d="
M794.397217,349.861267 
	C793.967773,348.970490 793.961365,348.140472 794.018066,347.314819 
	C794.605713,338.752136 794.609192,338.750946 786.956787,334.942444 
	C783.726624,333.334747 780.492798,331.734222 776.412842,329.709808 
	C778.859619,327.796875 780.882690,326.086029 783.034058,324.555389 
	C793.137451,317.366821 796.817932,304.566589 788.944214,294.299744 
	C788.388489,293.575012 788.310730,292.483673 788.069702,291.178864 
	C798.217468,298.788574 799.575989,313.104187 791.274780,323.948608 
	C787.154846,329.330780 787.216980,329.602356 793.183105,332.949829 
	C794.043152,333.432404 794.842102,334.022552 795.691772,334.525055 
	C804.047546,339.466858 804.048889,339.464630 802.442444,349.924072 
	C800.002686,349.924072 797.426147,349.924072 794.397217,349.861267 
z"/>
<path fill="#FAFAFA" opacity="1.000000" stroke="none" 
	d="
M759.320374,365.053589 
	C759.903076,366.066254 760.760132,367.438385 760.559509,368.632874 
	C758.768677,379.296539 754.674438,388.808685 744.903320,394.491516 
	C734.291870,400.663086 726.729492,409.524109 720.295898,419.955261 
	C719.739746,408.237427 726.069031,400.250092 735.652100,394.901489 
	C747.686584,388.184601 754.466003,377.704803 759.320374,365.053589 
z"/>
<path fill="#F7F7F7" opacity="1.000000" stroke="none" 
	d="
M764.638550,287.079346 
	C763.102356,289.543762 760.661011,291.742584 759.426880,294.484711 
	C756.471313,301.051880 754.083557,307.874573 751.162170,314.830750 
	C747.452271,303.020813 752.454834,292.584320 764.638550,287.079346 
z"/>
<path fill="#F0F0F0" opacity="1.000000" stroke="none" 
	d="
M759.536133,801.776489 
	C760.459106,798.897888 761.382019,796.019287 762.675354,793.343567 
	C771.157532,808.376953 782.203735,820.423828 797.228333,828.361328 
	C800.373657,830.023010 804.429260,829.961914 808.065369,830.694702 
	C818.802795,835.367676 825.296814,843.275757 826.806396,855.071228 
	C827.260437,858.618958 826.730835,860.529785 822.308716,860.507629 
	C789.527527,860.343201 756.745056,860.450867 723.963623,860.311279 
	C722.510620,860.305115 721.064270,858.731995 720.130310,857.396729 
	C726.975037,845.557861 735.989380,837.100220 746.990417,830.113464 
	C755.856934,824.482300 759.259216,814.804260 760.806702,804.676453 
	C760.941406,803.795105 759.985474,802.747070 759.536133,801.776489 
z"/>
<path fill="#F0F0F0" opacity="1.000000" stroke="none" 
	d="
M793.944885,786.798706 
	C777.495239,786.798706 761.045654,786.798706 744.627869,786.798706 
	C744.391602,786.535950 744.057312,786.336853 744.003296,786.078979 
	C742.024963,776.633606 742.027588,776.631226 750.124573,771.777466 
	C751.545837,770.925537 752.901489,769.899841 754.421936,769.289673 
	C758.824036,767.523132 758.817505,765.296082 756.005188,761.782898 
	C753.884827,759.134033 752.597595,755.818359 751.203003,752.196777 
	C754.082520,744.876099 756.468994,738.054749 759.424194,731.489380 
	C760.658264,728.747803 763.101318,726.550476 764.994629,724.105652 
	C773.143127,720.926575 780.656311,722.273071 787.832703,727.924561 
	C788.596008,729.890259 789.006653,731.333191 789.794250,732.527588 
	C796.155029,742.173462 793.178772,753.609680 784.137939,760.566101 
	C781.706177,762.437134 779.341614,764.395386 776.442688,766.716797 
	C779.835510,768.395020 782.617981,770.157410 785.648743,771.192505 
	C792.597839,773.565674 797.164795,777.068298 794.014587,785.315674 
	C793.846863,785.754822 793.961609,786.301880 793.944885,786.798706 
z"/>
<path fill="#CACACA" opacity="1.000000" stroke="none" 
	d="
M807.878418,830.432007 
	C804.429260,829.961914 800.373657,830.023010 797.228333,828.361328 
	C782.203735,820.423828 771.157532,808.376953 763.015137,793.178162 
	C769.398193,792.617554 775.814331,792.280884 782.222778,792.391357 
	C783.165771,792.407471 784.503723,794.405884 784.926514,795.722351 
	C788.036743,805.408508 792.035767,814.648987 798.798828,822.361328 
	C801.377563,825.302063 804.705200,827.586060 807.878418,830.432007 
z"/>
<path fill="#CBCBCB" opacity="1.000000" stroke="none" 
	d="
M794.397217,786.861572 
	C793.961609,786.301880 793.846863,785.754822 794.014587,785.315674 
	C797.164795,777.068298 792.597839,773.565674 785.648743,771.192505 
	C782.617981,770.157410 779.835510,768.395020 776.442688,766.716797 
	C779.341614,764.395386 781.706177,762.437134 784.137939,760.566101 
	C793.178772,753.609680 796.155029,742.173462 789.794250,732.527588 
	C789.006653,731.333191 788.596008,729.890259 788.069824,728.178528 
	C799.544373,736.839783 799.617188,749.676636 787.648315,765.841003 
	C790.316040,767.757202 792.884033,769.825989 795.663025,771.555847 
	C803.982117,776.734619 804.014343,776.682861 802.443481,786.924438 
	C800.003357,786.924438 797.426453,786.924438 794.397217,786.861572 
z"/>
<path fill="#FAFAFA" opacity="1.000000" stroke="none" 
	d="
M759.320068,802.053589 
	C759.985474,802.747070 760.941406,803.795105 760.806702,804.676453 
	C759.259216,814.804260 755.856934,824.482300 746.990417,830.113464 
	C735.989380,837.100220 726.975037,845.557861 720.295654,856.955261 
	C719.736633,845.240051 726.063171,837.247742 735.644897,831.908813 
	C747.694275,825.195007 754.479736,814.720215 759.320068,802.053589 
z"/>
<path fill="#F7F7F7" opacity="1.000000" stroke="none" 
	d="
M764.638550,724.087646 
	C763.101318,726.550476 760.658264,728.747803 759.424194,731.489380 
	C756.468994,738.054749 754.082520,744.876099 751.161987,751.830688 
	C747.464172,740.070496 752.521179,729.524170 764.638550,724.087646 
z"/>
<path fill="#F0F0F0" opacity="1.000000" stroke="none" 
	d="
M324.896759,358.453979 
	C325.053070,357.643402 325.209381,356.832855 325.705933,356.284851 
	C334.021027,371.510803 345.273102,383.356232 360.229767,391.359161 
	C363.362793,393.035553 367.431274,392.963715 371.068665,393.697479 
	C384.043610,399.494843 390.631012,409.801025 389.440094,423.075684 
	C387.954193,423.185333 386.373688,423.402710 384.793060,423.403656 
	C352.349335,423.423553 319.905579,423.434113 287.461945,423.380096 
	C285.563812,423.376923 282.794739,424.483795 283.129150,420.397278 
	C289.678894,409.009979 298.054016,400.380035 308.668365,393.871582 
	C315.014832,389.980103 319.388794,384.330688 321.201569,377.212097 
	C322.212433,373.242401 325.663269,369.266632 322.529175,364.774170 
	C322.954346,363.392883 323.379517,362.011627 324.183167,360.109497 
	C324.673340,359.210419 324.785034,358.832214 324.896759,358.453979 
z"/>
<path fill="#EFEFEF" opacity="1.000000" stroke="none" 
	d="
M327.993866,287.100403 
	C336.148590,283.900452 343.670105,285.202148 350.834900,290.925629 
	C351.216278,292.352631 351.205231,293.306305 351.659882,293.908142 
	C360.127197,305.116455 355.966522,316.640320 346.541595,324.027252 
	C344.291626,325.790741 342.026703,327.535126 339.255463,329.686737 
	C342.466217,331.251251 344.716705,332.708496 347.181732,333.482880 
	C355.363770,336.053406 360.232025,340.420105 356.940094,349.776581 
	C340.507477,349.776581 324.074860,349.776581 306.960846,349.776581 
	C306.601776,346.847290 305.986206,343.811310 305.985291,340.775177 
	C305.984955,339.665863 307.216675,338.205231 308.281647,337.513153 
	C311.330322,335.531891 314.500397,333.694031 317.774750,332.115021 
	C321.450775,330.342346 321.711487,328.374969 319.321411,325.146515 
	C317.196503,322.276184 315.708618,318.934235 314.203003,315.198181 
	C317.082916,307.876312 319.470093,301.053558 322.425385,294.486450 
	C323.659302,291.744415 326.101196,289.545990 327.993866,287.100403 
z"/>
<path fill="#CACACA" opacity="1.000000" stroke="none" 
	d="
M370.911652,393.413300 
	C367.431274,392.963715 363.362793,393.035553 360.229767,391.359161 
	C345.273102,383.356232 334.021027,371.510803 326.015320,356.178589 
	C332.403320,355.617737 338.824615,355.281281 345.238129,355.392761 
	C346.177551,355.409119 347.501831,357.419861 347.932068,358.740936 
	C351.132568,368.567993 355.147430,377.982391 362.122559,385.757965 
	C364.626862,388.549652 367.856201,390.690979 370.911652,393.413300 
z"/>
<path fill="#CBCBCB" opacity="1.000000" stroke="none" 
	d="
M357.385895,349.848236 
	C360.232025,340.420105 355.363770,336.053406 347.181732,333.482880 
	C344.716705,332.708496 342.466217,331.251251 339.255463,329.686737 
	C342.026703,327.535126 344.291626,325.790741 346.541595,324.027252 
	C355.966522,316.640320 360.127197,305.116455 351.659882,293.908142 
	C351.205231,293.306305 351.216278,292.352631 351.069519,291.178772 
	C360.942993,298.584137 362.487976,312.936035 354.622772,323.255188 
	C349.983215,329.342285 349.995697,329.320801 356.417847,333.056427 
	C359.958252,335.115875 363.448425,337.261597 366.879944,339.319641 
	C366.406525,342.986633 365.985138,346.250732 365.511475,349.919891 
	C362.739136,349.919891 360.285400,349.919891 357.385895,349.848236 
z"/>
<path fill="#FAFAFA" opacity="1.000000" stroke="none" 
	d="
M322.313354,365.051422 
	C325.663269,369.266632 322.212433,373.242401 321.201569,377.212097 
	C319.388794,384.330688 315.014832,389.980103 308.668365,393.871582 
	C298.054016,400.380035 289.678894,409.009979 283.293640,419.955566 
	C282.560303,408.141144 289.090454,400.276123 298.628357,394.921509 
	C310.648163,388.173584 317.462341,377.717010 322.313354,365.051422 
z"/>
<path fill="#F8F8F8" opacity="1.000000" stroke="none" 
	d="
M327.637451,287.082123 
	C326.101196,289.545990 323.659302,291.744415 322.425385,294.486450 
	C319.470093,301.053558 317.082916,307.876312 314.161682,314.832397 
	C310.429749,303.074066 315.617310,292.251862 327.637451,287.082123 
z"/>
<path fill="#FAFAFA" opacity="1.000000" stroke="none" 
	d="
M324.634827,358.623444 
	C324.785034,358.832214 324.673340,359.210419 324.335510,359.781158 
	C324.197235,359.580078 324.285034,359.186493 324.634827,358.623444 
z"/>
<path fill="#EFEFEF" opacity="1.000000" stroke="none" 
	d="
M541.520142,581.772461 
	C542.055481,579.926331 542.590881,578.080139 543.668335,576.116943 
	C551.499268,584.504333 558.255615,593.555237 566.244629,601.341431 
	C572.704102,607.636963 580.400085,612.940857 590.286987,612.817810 
	C603.578430,617.775940 610.186035,631.515625 607.559265,641.991394 
	C606.374756,641.991394 605.080933,641.991394 603.787048,641.991394 
	C571.187195,641.991394 538.587280,642.023254 505.987885,641.899292 
	C504.327728,641.892944 502.672668,640.546021 501.451172,639.334229 
	C507.779907,629.210571 514.173218,620.019470 524.377502,614.364136 
	C536.251587,607.783569 540.668213,596.687256 542.700745,584.173035 
	C542.817322,583.455688 541.936707,582.576416 541.520142,581.772461 
z"/>
<path fill="#F4F4F4" opacity="1.000000" stroke="none" 
	d="
M575.990601,567.973206 
	C568.370483,568.147156 560.751099,568.401184 553.130005,568.474426 
	C544.013123,568.562012 534.894653,568.495117 525.577209,568.495117 
	C525.096130,565.629578 524.339722,563.059265 524.361877,560.495667 
	C524.374146,559.068298 525.323059,557.138245 526.476929,556.330078 
	C529.582703,554.154907 533.003845,552.421570 536.340271,550.586182 
	C539.917358,548.618530 540.518799,546.661560 537.473877,543.305298 
	C530.438660,535.550903 529.215210,524.764832 533.878723,516.130432 
	C541.194519,502.585358 558.688477,499.779968 570.894653,510.898621 
	C571.159302,512.388977 571.145752,513.294434 571.529846,513.975769 
	C578.851807,526.963684 573.693726,537.547424 562.522034,544.958374 
	C561.257141,545.797424 560.122009,546.832214 558.250916,548.309875 
	C561.480103,549.677124 563.799683,550.515747 565.986450,551.617859 
	C569.526001,553.401794 573.778259,554.679749 576.169006,557.496155 
	C577.614136,559.198547 576.107971,563.400879 575.943481,566.480713 
	C575.916992,566.976013 575.972778,567.475586 575.990601,567.973206 
z"/>
<path fill="#CBCBCB" opacity="1.000000" stroke="none" 
	d="
M590.137939,612.503052 
	C580.400085,612.940857 572.704102,607.636963 566.244629,601.341431 
	C558.255615,593.555237 551.499268,584.504333 543.873779,575.822021 
	C543.868774,575.126404 544.190308,574.164185 544.533447,574.156433 
	C551.012756,574.009277 557.502930,573.797913 563.967407,574.100220 
	C564.984131,574.147766 566.288940,576.499146 566.777649,578.006653 
	C570.031677,588.044556 574.125183,597.628845 581.605713,605.309326 
	C584.112183,607.882751 587.178467,609.910950 590.137939,612.503052 
z"/>
<path fill="#CBCBCB" opacity="1.000000" stroke="none" 
	d="
M576.425049,568.119873 
	C575.972778,567.475586 575.916992,566.976013 575.943481,566.480713 
	C576.107971,563.400879 577.614136,559.198547 576.169006,557.496155 
	C573.778259,554.679749 569.526001,553.401794 565.986450,551.617859 
	C563.799683,550.515747 561.480103,549.677124 558.250916,548.309875 
	C560.122009,546.832214 561.257141,545.797424 562.522034,544.958374 
	C573.693726,537.547424 578.851807,526.963684 571.529846,513.975769 
	C571.145752,513.294434 571.159302,512.388977 571.058228,511.194641 
	C579.301880,518.026733 580.547729,531.999634 573.821350,541.070007 
	C573.029541,542.137634 572.252319,543.222229 571.382996,544.225037 
	C569.187439,546.757751 569.665894,548.634827 572.602295,550.139648 
	C574.213501,550.965332 575.723877,551.992188 577.259338,552.960632 
	C586.342224,558.689697 586.387085,555.207520 583.572083,568.266479 
	C581.413452,568.266479 579.136475,568.266479 576.425049,568.119873 
z"/>
<path fill="#FBFBFB" opacity="1.000000" stroke="none" 
	d="
M541.307129,582.061157 
	C541.936707,582.576416 542.817322,583.455688 542.700745,584.173035 
	C540.668213,596.687256 536.251587,607.783569 524.377502,614.364136 
	C514.173218,620.019470 507.779907,629.210571 501.561432,638.914368 
	C501.174683,627.545715 506.757568,619.285828 516.388367,613.948730 
	C529.205933,606.845642 536.581787,595.791199 541.307129,582.061157 
z"/>
</svg>