<svg version="1.1" id="Layer_1" xmlns="http://www.w3.org/2000/svg" xmlns:xlink="http://www.w3.org/1999/xlink" x="0px" y="0px"
	 width="100%" viewBox="0 0 894 894" enable-background="new 0 0 894 894" xml:space="preserve">
<path fill="#FFFEFE" opacity="1.000000" stroke="none" 
	d="
M895.000000,239.000000 
	C895.000000,458.000000 895.000000,676.500000 895.000000,895.000000 
	C597.000000,895.000000 299.000000,895.000000 1.000000,895.000000 
	C1.000000,597.000000 1.000000,299.000000 1.000000,1.000000 
	C299.000000,1.000000 597.000000,1.000000 895.000000,1.000000 
	C895.000000,80.166664 895.000000,159.333328 895.000000,239.000000 
M666.987488,885.068542 
	C739.189758,885.068542 811.392029,885.068542 884.054199,885.068542 
	C884.054199,811.877502 884.054199,739.467285 884.525696,666.376709 
	C884.581482,665.714783 884.686035,665.052856 884.686157,664.390930 
	C884.694214,593.793640 884.697144,523.196289 884.673035,452.598999 
	C884.672607,451.297211 884.343506,449.995575 884.142761,447.795349 
	C884.117920,445.631897 884.071716,443.468475 884.071411,441.305023 
	C884.062683,370.889435 884.058289,300.473846 884.525635,229.378418 
	C884.582764,227.884201 884.689636,226.389984 884.689819,224.895767 
	C884.698059,155.636505 884.642517,86.377121 884.810242,17.118265 
	C884.822388,12.091542 883.150757,11.197206 878.556580,11.206479 
	C809.464050,11.345933 740.371216,11.298297 671.278442,11.329983 
	C669.500488,11.330798 667.722717,11.731346 665.015930,11.933130 
	C600.426880,11.933183 535.837830,11.938310 471.248749,11.926805 
	C463.259888,11.925382 455.271057,11.835419 446.499451,11.447992 
	C445.836304,11.401128 445.173157,11.313285 444.510010,11.313219 
	C373.932800,11.306146 303.355560,11.302282 232.778366,11.331478 
	C231.499847,11.332007 230.221481,11.732066 228.014267,11.931875 
	C155.811646,11.931875 83.609016,11.931875 10.946965,11.931875 
	C10.946965,85.121651 10.946965,157.531998 10.475065,230.622253 
	C10.418828,231.284134 10.313413,231.945999 10.313336,232.607880 
	C10.305219,303.205658 10.302178,373.803436 10.326312,444.401215 
	C10.326757,445.702972 10.656097,447.004608 10.857089,449.204742 
	C10.881981,451.368195 10.928380,453.531616 10.928648,455.695068 
	C10.937349,526.110657 10.941612,596.526306 10.474409,667.621765 
	C10.417302,669.116028 10.310419,670.610229 10.310242,672.104492 
	C10.302021,741.364197 10.357662,810.624023 10.189764,879.883301 
	C10.177571,884.912659 11.852938,885.802734 16.445095,885.793518 
	C85.538040,885.654236 154.631348,885.701904 223.724548,885.670166 
	C225.502563,885.669312 227.280365,885.267944 229.988159,885.068604 
	C254.621658,885.068542 279.255157,885.057678 303.888672,885.070679 
	C351.823395,885.095947 399.758087,885.134521 448.478271,885.532227 
	C449.140717,885.585693 449.803192,885.685852 450.465637,885.685913 
	C521.051147,885.694031 591.636658,885.698120 662.222168,885.668945 
	C663.500671,885.668396 664.779053,885.267334 666.987488,885.068542 
z"/>
<path fill="#F5C79C" opacity="1.000000" stroke="none" 
	d="
M884.053345,230.058258 
	C884.058289,300.473846 884.062683,370.889435 884.071411,441.305023 
	C884.071716,443.468475 884.117920,445.631897 883.675171,448.293762 
	C810.959717,448.792175 738.711853,448.792175 665.971436,448.792175 
	C665.971436,522.103210 665.971436,594.565430 665.986694,667.012817 
	C666.001892,666.997925 666.031921,666.968079 665.560913,666.979126 
	C592.889648,666.990173 520.689453,666.990173 447.844574,666.990173 
	C447.844574,669.522949 447.844574,671.469727 447.844574,673.416504 
	C447.844574,729.851746 447.854401,786.286987 447.837585,842.722229 
	C447.833374,856.870667 447.743378,871.019165 447.692810,885.167603 
	C399.758087,885.134521 351.823395,885.095947 303.888672,885.070679 
	C279.255157,885.057678 254.621658,885.068542 229.503143,884.588501 
	C229.000977,811.728210 228.983810,739.348145 229.438019,666.979370 
	C302.167603,666.990723 374.425842,666.990723 447.154114,666.990723 
	C447.154114,664.617493 447.154114,662.980957 447.154114,661.344482 
	C447.154114,592.350037 447.114075,523.355530 447.248474,454.361328 
	C447.256989,449.993896 446.156677,448.737122 441.695709,448.746338 
	C372.534912,448.888855 303.373718,448.843933 234.212601,448.858948 
	C232.616455,448.859283 231.020325,449.051910 229.031982,449.180145 
	C229.031982,522.110291 229.031982,594.571838 228.561462,667.020874 
	C155.709488,666.986267 83.328011,666.964050 10.946536,666.941895 
	C10.941612,596.526306 10.937349,526.110657 10.928648,455.695068 
	C10.928380,453.531616 10.881981,451.368195 11.324591,448.706421 
	C84.040588,448.208099 156.289093,448.208099 229.031982,448.208099 
	C229.031982,374.894379 229.031982,302.431213 229.017044,229.983063 
	C229.002106,229.998093 228.972382,230.028549 229.442673,230.018921 
	C302.388000,230.022003 374.863068,230.034698 447.415771,230.014114 
	C447.493439,229.980835 447.658325,229.943970 447.728516,230.413742 
	C447.814240,301.353027 447.864349,371.822601 447.761993,442.291931 
	C447.755646,446.654755 448.617035,448.280090 453.453369,448.268402 
	C522.423340,448.101562 591.393860,448.156799 660.364258,448.142517 
	C662.118286,448.142151 663.872253,447.961609 666.032776,447.842712 
	C666.032776,374.853149 666.032776,302.410736 666.017151,229.982574 
	C666.001526,229.996857 665.972717,230.028122 666.442993,230.019012 
	C739.293274,230.026016 811.673340,230.042145 884.053345,230.058258 
z"/>
<path fill="#BE814D" opacity="1.000000" stroke="none" 
	d="
M884.289490,229.718338 
	C811.673340,230.042145 739.293274,230.026016 666.453369,229.547852 
	C665.977173,156.705704 665.960999,84.325584 665.944824,11.945472 
	C667.722717,11.731346 669.500488,11.330798 671.278442,11.329983 
	C740.371216,11.298297 809.464050,11.345933 878.556580,11.206479 
	C883.150757,11.197206 884.822388,12.091542 884.810242,17.118265 
	C884.642517,86.377121 884.698059,155.636505 884.689819,224.895767 
	C884.689636,226.389984 884.582764,227.884201 884.289490,229.718338 
z"/>
<path fill="#BE814D" opacity="1.000000" stroke="none" 
	d="
M228.966660,666.968018 
	C228.983810,739.348145 229.000977,811.728210 229.038208,884.580872 
	C227.280365,885.267944 225.502563,885.669312 223.724548,885.670166 
	C154.631348,885.701904 85.538040,885.654236 16.445095,885.793518 
	C11.852938,885.802734 10.177571,884.912659 10.189764,879.883301 
	C10.357662,810.624023 10.302021,741.364197 10.310242,672.104492 
	C10.310419,670.610229 10.417302,669.116028 10.710472,667.281860 
	C83.328011,666.964050 155.709488,666.986267 228.544830,667.004883 
	C228.998718,667.001282 228.966660,666.968018 228.966660,666.968018 
z"/>
<path fill="#BE804C" opacity="1.000000" stroke="none" 
	d="
M447.338104,230.047394 
	C374.863068,230.034698 302.388000,230.022003 229.452576,229.547699 
	C228.975815,156.705963 228.959427,84.325836 228.943054,11.945705 
	C230.221481,11.732066 231.499847,11.332007 232.778366,11.331478 
	C303.355560,11.302282 373.932800,11.306146 444.510010,11.313219 
	C445.173157,11.313285 445.836304,11.401128 446.850464,12.102264 
	C447.186066,84.357986 447.170044,155.959427 447.162842,227.560883 
	C447.162750,228.389725 447.277161,229.218552 447.338104,230.047394 
z"/>
<path fill="#BE804C" opacity="1.000000" stroke="none" 
	d="
M665.971436,667.027649 
	C665.971436,594.565430 665.971436,522.103210 665.971436,448.792175 
	C738.711853,448.792175 810.959717,448.792175 883.687683,448.743011 
	C884.343506,449.995575 884.672607,451.297211 884.673035,452.598999 
	C884.697144,523.196289 884.694214,593.793640 884.686157,664.390930 
	C884.686035,665.052856 884.581482,665.714783 883.817383,666.696899 
	C810.729858,667.020691 738.350647,667.024170 665.971436,667.027649 
z"/>
<path fill="#F5C79C" opacity="1.000000" stroke="none" 
	d="
M228.478668,11.938790 
	C228.959427,84.325836 228.975815,156.705963 228.982285,229.557312 
	C228.972382,230.028549 229.002106,229.998093 228.545898,229.994171 
	C155.708771,229.974274 83.327866,229.958313 10.946965,229.942352 
	C10.946965,157.531998 10.946965,85.121651 10.946965,11.931875 
	C83.609016,11.931875 155.811646,11.931875 228.478668,11.938790 
z"/>
<path fill="#F5C79C" opacity="1.000000" stroke="none" 
	d="
M665.986694,667.012817 
	C738.350647,667.024170 810.729858,667.020691 883.581665,667.037109 
	C884.054199,739.467285 884.054199,811.877502 884.054199,885.068542 
	C811.392029,885.068542 739.189758,885.068542 666.502502,884.588379 
	C666.022339,811.728149 666.027100,739.348083 666.031921,666.968079 
	C666.031921,666.968079 666.001892,666.997925 665.986694,667.012817 
z"/>
<path fill="#BE804C" opacity="1.000000" stroke="none" 
	d="
M665.560913,666.979126 
	C666.027100,739.348083 666.022339,811.728149 666.037476,884.580688 
	C664.779053,885.267334 663.500671,885.668396 662.222168,885.668945 
	C591.636658,885.698120 521.051147,885.694031 450.465637,885.685913 
	C449.803192,885.685852 449.140717,885.585693 448.085541,885.349915 
	C447.743378,871.019165 447.833374,856.870667 447.837585,842.722229 
	C447.854401,786.286987 447.844574,729.851746 447.844574,673.416504 
	C447.844574,671.469727 447.844574,669.522949 447.844574,666.990173 
	C520.689453,666.990173 592.889648,666.990173 665.560913,666.979126 
M531.265198,718.316345 
	C530.129150,714.324341 529.115967,710.289978 527.767578,706.371033 
	C527.444763,705.432800 525.911804,704.156494 525.095398,704.262939 
	C519.084839,705.046265 513.114868,706.141052 507.069397,707.148193 
	C507.069397,718.892883 506.512207,730.013977 507.272400,741.044250 
	C507.750427,747.980774 511.195648,754.414978 518.174805,757.183472 
	C522.244019,758.797546 522.291870,760.798584 521.630493,764.376648 
	C517.920532,784.447449 514.530701,804.577759 510.749878,824.634644 
	C510.369598,826.651855 508.479156,829.014648 506.637634,830.006531 
	C501.351196,832.853699 497.349274,836.622864 496.251068,842.589417 
	C495.386108,847.288879 494.953827,852.118896 494.875031,856.899963 
	C494.760406,863.855896 494.976288,863.886963 501.810333,863.888428 
	C536.953308,863.895996 572.096436,863.939453 607.239197,863.863953 
	C618.239441,863.840332 619.636536,866.723877 618.840271,851.351074 
	C618.355591,841.994446 615.560059,833.704651 605.899475,829.488220 
	C604.582275,828.913330 603.377563,826.912720 603.067810,825.380859 
	C600.372742,812.051758 597.831848,798.690430 595.372620,785.315186 
	C593.759827,776.543457 592.358032,767.732849 590.840820,758.816833 
	C598.614868,756.507141 603.412964,751.796936 605.544678,744.298767 
	C608.804932,732.830933 608.015076,721.252869 606.575317,709.688232 
	C606.425598,708.485535 604.310303,706.881104 602.882629,706.599121 
	C597.549133,705.545715 592.122314,704.965271 586.421509,704.163879 
	C584.727966,709.499939 583.090332,714.659851 581.511841,719.633423 
	C578.189636,719.633423 575.277161,719.633423 572.275879,719.633423 
	C571.372986,714.084473 570.526978,708.885071 569.637268,703.416992 
	C562.086853,703.416992 554.796143,703.390564 547.505737,703.429565 
	C544.415161,703.446106 543.241211,705.268860 542.969971,708.185913 
	C542.619080,711.960327 541.980347,715.707947 541.347961,720.325195 
	C537.968140,719.880737 534.821228,719.466919 531.265198,718.316345 
z"/>
<path fill="#BE804D" opacity="1.000000" stroke="none" 
	d="
M10.711016,230.282303 
	C83.327866,229.958313 155.708771,229.974274 228.560822,229.979126 
	C229.031982,302.431213 229.031982,374.894379 229.031982,448.208099 
	C156.289093,448.208099 84.040588,448.208099 11.312037,448.257202 
	C10.656097,447.004608 10.326757,445.702972 10.326312,444.401215 
	C10.302178,373.803436 10.305219,303.205658 10.313336,232.607880 
	C10.313413,231.945999 10.418828,231.284134 10.711016,230.282303 
M69.544601,426.941162 
	C102.692238,426.941193 135.839874,426.941559 168.987518,426.940613 
	C171.819183,426.940521 174.754089,427.381378 177.444687,426.763062 
	C179.121460,426.377716 181.623672,424.468597 181.718140,423.102448 
	C182.698746,408.922424 180.833252,394.393402 163.477753,390.841766 
	C160.380112,390.207886 159.763519,388.502411 159.866745,385.538635 
	C160.348785,371.697510 164.773026,359.054871 171.971588,347.497406 
	C178.276001,337.375549 185.420822,327.774536 192.263535,317.991821 
	C195.071594,313.977234 194.732071,312.495636 190.441956,310.291779 
	C185.701797,307.856750 181.396301,309.668213 177.069290,311.423920 
	C170.378387,314.138763 169.962967,313.767181 167.772766,306.995331 
	C166.919601,304.357422 165.149155,300.535278 163.122528,300.046387 
	C157.873566,298.780060 155.892349,294.743073 152.856049,291.338287 
	C149.800156,287.911469 146.355057,284.694519 142.603439,282.066589 
	C139.305969,279.756775 135.348663,278.388916 131.649399,276.588776 
	C138.312561,268.092407 138.495621,261.585602 132.376633,254.964981 
	C126.721054,248.845688 116.735596,247.684189 109.608322,252.821060 
	C107.044991,254.668549 104.530846,257.375427 103.391678,260.244873 
	C100.937202,266.427460 103.587753,272.007446 107.746788,277.094727 
	C96.790855,280.216736 89.052681,286.639740 83.145210,295.496552 
	C82.344727,296.696655 81.291656,298.433807 80.165901,298.594574 
	C73.832588,299.499298 71.676826,303.670746 70.955139,309.276428 
	C70.507393,312.754242 68.689407,313.798157 65.366951,312.391144 
	C62.619049,311.227539 59.734158,309.403229 56.969246,309.503632 
	C53.189892,309.640900 49.466743,311.325317 45.719505,312.346527 
	C46.857738,315.069733 47.986649,317.796967 49.147797,320.510345 
	C49.271526,320.799500 49.628197,320.980164 49.802029,321.257935 
	C57.812279,334.058289 66.361008,346.563019 73.627914,359.772858 
	C78.604759,368.819824 79.772408,379.229706 79.864693,389.567749 
	C77.425316,390.375793 75.410294,391.178986 73.325935,391.710083 
	C64.798019,393.882935 60.140923,399.644897 58.357410,407.937225 
	C57.697048,411.007568 57.436344,414.181061 57.204990,417.323120 
	C56.599430,425.547302 57.927010,426.937744 66.066681,426.941040 
	C66.899536,426.941376 67.732391,426.941040 69.544601,426.941162 
z"/>
<path fill="#F4C69C" opacity="1.000000" stroke="none" 
	d="
M447.415771,230.014114 
	C447.277161,229.218552 447.162750,228.389725 447.162842,227.560883 
	C447.170044,155.959427 447.186066,84.357986 447.241821,12.271510 
	C455.271057,11.835419 463.259888,11.925382 471.248749,11.926805 
	C535.837830,11.938310 600.426880,11.933183 665.480347,11.939301 
	C665.960999,84.325584 665.977173,156.705704 665.983032,229.556976 
	C665.972717,230.028122 666.001526,229.996857 665.545898,229.995026 
	C592.612976,229.976791 520.135681,229.960388 447.658325,229.943970 
	C447.658325,229.943970 447.493439,229.980835 447.415771,230.014114 
M509.708099,133.243698 
	C511.528259,131.802795 513.133423,129.713348 515.203735,129.027008 
	C527.915222,124.813072 540.731934,120.916473 554.817566,116.505913 
	C553.273804,119.383003 552.787659,121.345032 551.539795,122.434975 
	C545.578674,127.641594 539.726257,133.065033 533.249573,137.569351 
	C520.615234,146.356110 510.226257,156.605225 506.618347,172.229385 
	C506.373688,173.289001 505.860168,174.613647 505.036713,175.162582 
	C495.374542,181.603867 494.719208,191.479050 494.573273,201.668991 
	C494.504913,206.441864 496.131287,208.312988 501.282471,208.267151 
	C528.596863,208.024094 555.914612,208.153061 583.231201,208.152878 
	C593.391663,208.152817 603.555237,208.279144 613.709412,208.027176 
	C615.413330,207.984879 618.446228,206.429642 618.545105,205.359146 
	C619.458801,195.468842 619.346741,185.558197 611.727234,177.857269 
	C609.529480,175.636032 609.270691,173.688431 609.642395,170.889267 
	C611.806946,154.588898 615.440369,138.272308 615.509827,121.948166 
	C615.662964,85.949982 597.934937,66.079185 567.513062,52.758209 
	C561.600281,50.169140 555.775208,47.805588 550.478943,43.864548 
	C546.334412,40.780537 541.219360,38.671017 536.226562,37.128407 
	C527.065002,34.297787 526.088867,35.113731 526.952209,44.689735 
	C527.471558,50.450665 525.900513,54.501175 521.662170,58.631008 
	C510.226105,69.774323 499.257751,81.407646 488.335510,93.063644 
	C483.586761,98.131409 479.069611,103.500374 475.147766,109.213394 
	C473.764862,111.227837 473.194733,115.634293 474.446777,117.296112 
	C479.088898,123.457390 484.057526,129.657379 490.013123,134.469543 
	C496.869965,140.009933 503.552185,139.089859 509.708099,133.243698 
z"/>
<path fill="#BE804C" opacity="1.000000" stroke="none" 
	d="
M447.728516,230.413742 
	C520.135681,229.960388 592.612976,229.976791 665.561523,229.980759 
	C666.032776,302.410736 666.032776,374.853149 666.032776,447.842712 
	C663.872253,447.961609 662.118286,448.142151 660.364258,448.142517 
	C591.393860,448.156799 522.423340,448.101562 453.453369,448.268402 
	C448.617035,448.280090 447.755646,446.654755 447.761993,442.291931 
	C447.864349,371.822601 447.814240,301.353027 447.728516,230.413742 
z"/>
<path fill="#BE804C" opacity="1.000000" stroke="none" 
	d="
M229.015350,667.017334 
	C229.031982,594.571838 229.031982,522.110291 229.031982,449.180145 
	C231.020325,449.051910 232.616455,448.859283 234.212601,448.858948 
	C303.373718,448.843933 372.534912,448.888855 441.695709,448.746338 
	C446.156677,448.737122 447.256989,449.993896 447.248474,454.361328 
	C447.114075,523.355530 447.154114,592.350037 447.154114,661.344482 
	C447.154114,662.980957 447.154114,664.617493 447.154114,666.990723 
	C374.425842,666.990723 302.167603,666.990723 229.438019,666.979370 
	C228.966660,666.968018 228.998718,667.001282 229.015350,667.017334 
M366.500000,645.103516 
	C374.999023,645.103271 383.500031,644.995728 391.996155,645.152893 
	C395.646118,645.220459 396.913757,643.818237 397.079712,640.181396 
	C397.804810,624.292969 390.544586,613.167847 376.999298,605.691711 
	C363.916656,598.470947 359.364563,585.724426 354.454071,571.915161 
	C359.428436,571.915161 363.527466,571.858154 367.623993,571.934570 
	C370.506378,571.988342 372.518494,571.096191 372.860901,567.917236 
	C373.252380,564.282898 373.602905,560.643005 374.072144,557.018555 
	C374.483215,553.843445 373.557739,551.695496 370.439423,550.232605 
	C367.070129,548.651855 363.975708,546.485229 360.827637,544.613525 
	C369.451538,525.505005 368.013428,511.180206 356.933563,503.013794 
	C345.357544,494.481689 329.448456,494.664673 319.094025,503.539246 
	C310.431152,510.964020 304.258789,525.997070 315.925415,544.541931 
	C312.223969,546.721680 308.344940,548.650085 304.921143,551.191711 
	C303.486115,552.256958 302.269440,554.619751 302.263855,556.396729 
	C302.252563,560.010864 303.272247,563.615051 303.604553,567.247314 
	C303.928345,570.786560 305.624298,572.158630 309.154236,571.964478 
	C313.042480,571.750549 316.951599,571.915649 321.909607,571.915649 
	C317.315704,585.783691 312.600739,598.146179 300.186157,605.311768 
	C287.126984,612.849365 278.930664,623.040588 279.113190,638.858032 
	C279.167389,643.555359 280.602722,645.243225 285.510040,645.204224 
	C312.171936,644.992188 338.836426,645.103638 366.500000,645.103516 
z"/>
<path fill="#393939" opacity="1.000000" stroke="none" 
	d="
M531.469727,718.684692 
	C534.821228,719.466919 537.968140,719.880737 541.347961,720.325195 
	C541.980347,715.707947 542.619080,711.960327 542.969971,708.185913 
	C543.241211,705.268860 544.415161,703.446106 547.505737,703.429565 
	C554.796143,703.390564 562.086853,703.416992 569.637268,703.416992 
	C570.526978,708.885071 571.372986,714.084473 572.275879,719.633423 
	C575.277161,719.633423 578.189636,719.633423 581.511841,719.633423 
	C583.090332,714.659851 584.727966,709.499939 586.421509,704.163879 
	C592.122314,704.965271 597.549133,705.545715 602.882629,706.599121 
	C604.310303,706.881104 606.425598,708.485535 606.575317,709.688232 
	C608.015076,721.252869 608.804932,732.830933 605.544678,744.298767 
	C603.412964,751.796936 598.614868,756.507141 590.840820,758.816833 
	C592.358032,767.732849 593.759827,776.543457 595.372620,785.315186 
	C597.831848,798.690430 600.372742,812.051758 603.067810,825.380859 
	C603.377563,826.912720 604.582275,828.913330 605.899475,829.488220 
	C615.560059,833.704651 618.355591,841.994446 618.840271,851.351074 
	C619.636536,866.723877 618.239441,863.840332 607.239197,863.863953 
	C572.096436,863.939453 536.953308,863.895996 501.810333,863.888428 
	C494.976288,863.886963 494.760406,863.855896 494.875031,856.899963 
	C494.953827,852.118896 495.386108,847.288879 496.251068,842.589417 
	C497.349274,836.622864 501.351196,832.853699 506.637634,830.006531 
	C508.479156,829.014648 510.369598,826.651855 510.749878,824.634644 
	C514.530701,804.577759 517.920532,784.447449 521.630493,764.376648 
	C522.291870,760.798584 522.244019,758.797546 518.174805,757.183472 
	C511.195648,754.414978 507.750427,747.980774 507.272400,741.044250 
	C506.512207,730.013977 507.069397,718.892883 507.069397,707.148193 
	C513.114868,706.141052 519.084839,705.046265 525.095398,704.262939 
	C525.911804,704.156494 527.444763,705.432800 527.767578,706.371033 
	C529.115967,710.289978 530.129150,714.324341 531.469727,718.684692 
M503.453094,839.467712 
	C499.701538,845.197144 499.632172,851.538391 499.984711,857.997559 
	C538.118042,857.997559 575.862976,857.997559 614.051636,857.997559 
	C613.108154,851.090027 614.364136,844.244751 608.940857,838.265747 
	C606.962280,836.895447 605.138916,834.705444 602.978271,834.296265 
	C593.405884,832.483337 583.782349,830.677063 574.093018,829.800354 
	C554.045837,827.986633 534.019165,828.677795 514.332458,833.182068 
	C510.640533,834.026733 507.437317,837.007568 503.453094,839.467712 
M518.031860,710.687256 
	C513.026428,710.329651 510.931793,712.543945 511.246857,717.640564 
	C511.541412,722.404541 511.265289,727.203674 511.150482,732.816956 
	C511.547638,735.764160 511.621429,738.800049 512.401672,741.642090 
	C514.901733,750.749573 519.617249,753.868591 529.184814,753.166321 
	C535.301880,752.717285 541.416443,752.002441 547.539368,751.915283 
	C557.972412,751.766724 568.411133,752.018372 579.623047,752.710938 
	C580.771057,752.828247 581.917297,752.966492 583.067261,753.059692 
	C594.743530,754.005981 599.726929,750.888855 601.139526,739.378235 
	C602.248596,730.341248 601.362122,721.059387 601.362122,711.541626 
	C599.573486,711.340881 597.801208,711.141907 595.369568,710.537720 
	C593.623230,710.327209 591.876892,710.116699 590.135376,709.906738 
	C588.736694,714.544434 587.628784,718.715271 586.161377,722.755554 
	C585.764221,723.849121 584.314636,725.257263 583.288025,725.308105 
	C578.065308,725.567017 572.822876,725.427551 567.568359,725.427551 
	C566.896729,720.192871 566.588257,716.054382 565.724304,712.035278 
	C565.438110,710.704163 563.795105,708.768188 562.646240,708.675659 
	C557.916138,708.294617 553.137573,708.516174 548.268738,708.516174 
	C547.418274,714.277588 546.652466,719.465515 545.773315,725.421265 
	C540.664856,725.421265 535.702332,725.624268 530.777527,725.282959 
	C529.495422,725.194153 527.725464,723.642639 527.225403,722.356323 
	C525.683960,718.391296 524.648193,714.229736 523.334045,709.872925 
	C521.747620,710.141541 520.314697,710.384094 518.031860,710.687256 
M549.060059,757.129944 
	C545.667297,757.300781 542.274597,757.471619 537.984253,757.690979 
	C535.675903,757.837341 533.271362,757.642151 531.094482,758.255371 
	C529.742798,758.636169 527.946594,760.084595 527.699341,761.323242 
	C525.665161,771.511963 523.947327,781.763916 521.960327,792.643005 
	C521.948914,793.085815 521.937561,793.528687 521.588501,794.391357 
	C521.570801,794.925903 521.553162,795.460510 521.155334,796.595886 
	C521.136841,797.065125 521.118347,797.534363 520.788330,798.699219 
	C520.559937,800.465332 520.331543,802.231445 519.773071,804.708496 
	C518.412781,812.096313 517.052551,819.484131 515.713318,826.757751 
	C525.303406,825.839722 534.040710,824.301758 542.774902,824.319519 
	C558.840027,824.352234 574.903198,825.300354 591.666077,826.204346 
	C593.567810,826.478577 595.469543,826.752747 597.824585,827.092346 
	C593.789185,804.725342 589.903870,782.967590 585.826843,761.245850 
	C585.622009,760.154541 583.799438,758.628540 582.660400,758.565552 
	C571.764648,757.963074 560.853821,757.632446 549.060059,757.129944 
z"/>
<path fill="#464442" opacity="1.000000" stroke="none" 
	d="
M69.054924,426.941101 
	C67.732391,426.941040 66.899536,426.941376 66.066681,426.941040 
	C57.927010,426.937744 56.599430,425.547302 57.204990,417.323120 
	C57.436344,414.181061 57.697048,411.007568 58.357410,407.937225 
	C60.140923,399.644897 64.798019,393.882935 73.325935,391.710083 
	C75.410294,391.178986 77.425316,390.375793 79.864693,389.567749 
	C79.772408,379.229706 78.604759,368.819824 73.627914,359.772858 
	C66.361008,346.563019 57.812279,334.058289 49.802029,321.257935 
	C49.628197,320.980164 49.271526,320.799500 49.147797,320.510345 
	C47.986649,317.796967 46.857738,315.069733 45.719505,312.346497 
	C49.466743,311.325317 53.189892,309.640900 56.969246,309.503632 
	C59.734158,309.403229 62.619049,311.227539 65.366951,312.391144 
	C68.689407,313.798157 70.507393,312.754242 70.955139,309.276428 
	C71.676826,303.670746 73.832588,299.499298 80.165901,298.594574 
	C81.291656,298.433807 82.344727,296.696655 83.145210,295.496552 
	C89.052681,286.639740 96.790855,280.216736 107.746788,277.094727 
	C103.587753,272.007446 100.937202,266.427460 103.391678,260.244873 
	C104.530846,257.375427 107.044991,254.668549 109.608322,252.821060 
	C116.735596,247.684189 126.721054,248.845688 132.376633,254.964981 
	C138.495621,261.585602 138.312561,268.092407 131.649399,276.588776 
	C135.348663,278.388916 139.305969,279.756775 142.603439,282.066589 
	C146.355057,284.694519 149.800156,287.911469 152.856049,291.338287 
	C155.892349,294.743073 157.873566,298.780060 163.122528,300.046387 
	C165.149155,300.535278 166.919601,304.357422 167.772766,306.995331 
	C169.962967,313.767181 170.378387,314.138763 177.069290,311.423920 
	C181.396301,309.668213 185.701797,307.856750 190.441956,310.291779 
	C194.732071,312.495636 195.071594,313.977234 192.263535,317.991821 
	C185.420822,327.774536 178.276001,337.375549 171.971588,347.497406 
	C164.773026,359.054871 160.348785,371.697510 159.866745,385.538635 
	C159.763519,388.502411 160.380112,390.207886 163.477753,390.841766 
	C180.833252,394.393402 182.698746,408.922424 181.718140,423.102448 
	C181.623672,424.468597 179.121460,426.377716 177.444687,426.763062 
	C174.754089,427.381378 171.819183,426.940521 168.987518,426.940613 
	C135.839874,426.941559 102.692238,426.941193 69.054924,426.941101 
M125.365623,256.666809 
	C119.580612,253.827347 113.767715,254.617096 110.033806,258.999725 
	C107.311401,262.195129 106.847099,265.891357 108.931061,269.599792 
	C111.511383,274.191528 117.183670,276.329651 122.749229,274.967957 
	C123.529137,274.777130 124.223122,274.235107 125.661438,273.880737 
	C133.086334,268.385376 133.207840,261.398956 125.365623,256.666809 
M179.975891,316.913574 
	C179.975891,316.913574 179.915436,316.842957 179.123535,316.479553 
	C177.713882,316.969543 176.328461,317.550415 174.890350,317.933624 
	C168.892365,319.531860 165.353561,317.531982 163.490906,311.524445 
	C163.196686,310.575470 163.068024,309.576355 162.832214,308.607849 
	C161.732544,304.091431 159.052246,302.774475 154.709900,304.682617 
	C153.191299,305.349976 151.691345,306.095825 150.278290,306.961548 
	C138.973663,313.887512 135.851456,313.478302 126.738304,303.784027 
	C120.797745,297.464661 117.713326,297.564484 112.318283,304.250763 
	C105.751472,312.389252 100.799728,313.432159 91.579308,308.558289 
	C90.122589,307.788269 88.784096,306.797852 87.349724,305.981812 
	C80.197029,301.912354 77.825165,302.956055 76.000626,310.939850 
	C74.485748,317.568634 70.324265,319.885712 63.805698,317.667847 
	C61.291843,316.812531 58.859989,315.694427 56.313530,314.966156 
	C55.102772,314.619873 53.710957,314.906647 51.947060,314.906647 
	C67.684212,338.027039 85.555244,359.271271 85.095795,388.961090 
	C88.798759,388.587219 91.902756,388.109833 95.020645,387.987915 
	C107.320633,387.506927 119.624985,387.137512 132.832001,386.974915 
	C139.747971,387.555054 146.663940,388.135193 154.228210,388.769714 
	C154.143234,359.494629 170.839554,337.507965 186.446075,314.521301 
	C184.623215,314.964233 182.800354,315.407166 180.327362,315.983459 
	C180.185913,316.312714 180.044464,316.641998 179.975891,316.913574 
M136.724091,285.185120 
	C123.246399,276.858063 97.061546,279.518860 87.382942,299.827789 
	C88.397743,300.375916 89.453842,300.866241 90.428436,301.484955 
	C101.128571,308.278046 102.849464,308.138092 109.435326,299.542297 
	C109.836533,299.018616 110.362099,298.588837 110.838867,298.124664 
	C116.632141,292.484589 123.642357,292.619232 129.218094,298.526398 
	C130.926285,300.336121 132.328217,302.488373 134.231415,304.041382 
	C135.467575,305.050079 137.356934,305.258270 139.691315,306.050812 
	C143.889221,304.079407 148.087112,302.108002 152.547699,300.013245 
	C148.107101,293.532104 144.131531,288.000793 136.724091,285.185120 
M66.490074,402.495300 
	C62.691395,408.212769 62.737705,414.557312 62.990593,421.012238 
	C101.139610,421.012238 138.807739,421.012238 176.849960,421.012238 
	C176.239792,414.107574 177.129837,407.346863 171.909195,401.272522 
	C168.322586,399.435364 164.911026,396.649323 161.114716,395.948975 
	C151.819290,394.234253 142.374481,393.042908 132.938660,392.436646 
	C114.462021,391.249481 96.001404,391.939636 77.884560,396.039825 
	C74.016418,396.915253 70.638100,399.954987 66.490074,402.495300 
z"/>
<path fill="#3D3D3D" opacity="1.000000" stroke="none" 
	d="
M509.450806,133.501068 
	C503.552185,139.089859 496.869965,140.009933 490.013123,134.469543 
	C484.057526,129.657379 479.088898,123.457390 474.446777,117.296112 
	C473.194733,115.634293 473.764862,111.227837 475.147766,109.213394 
	C479.069611,103.500374 483.586761,98.131409 488.335510,93.063644 
	C499.257751,81.407646 510.226105,69.774323 521.662170,58.631008 
	C525.900513,54.501175 527.471558,50.450665 526.952209,44.689735 
	C526.088867,35.113731 527.065002,34.297787 536.226562,37.128407 
	C541.219360,38.671017 546.334412,40.780537 550.478943,43.864548 
	C555.775208,47.805588 561.600281,50.169140 567.513062,52.758209 
	C597.934937,66.079185 615.662964,85.949982 615.509827,121.948166 
	C615.440369,138.272308 611.806946,154.588898 609.642395,170.889267 
	C609.270691,173.688431 609.529480,175.636032 611.727234,177.857269 
	C619.346741,185.558197 619.458801,195.468842 618.545105,205.359146 
	C618.446228,206.429642 615.413330,207.984879 613.709412,208.027176 
	C603.555237,208.279144 593.391663,208.152817 583.231201,208.152878 
	C555.914612,208.153061 528.596863,208.024094 501.282471,208.267151 
	C496.131287,208.312988 494.504913,206.441864 494.573273,201.668991 
	C494.719208,191.479050 495.374542,181.603867 505.036713,175.162582 
	C505.860168,174.613647 506.373688,173.289001 506.618347,172.229385 
	C510.226257,156.605225 520.615234,146.356110 533.249573,137.569351 
	C539.726257,133.065033 545.578674,127.641594 551.539795,122.434975 
	C552.787659,121.345032 553.273804,119.383003 554.817566,116.505913 
	C540.731934,120.916473 527.915222,124.813072 515.203735,129.027008 
	C513.133423,129.713348 511.528259,131.802795 509.450806,133.501068 
M503.799927,183.197479 
	C500.143036,189.248230 499.501678,195.820984 500.050568,202.746155 
	C538.125427,202.746155 575.820435,202.746155 613.979919,202.746155 
	C613.322510,196.124771 614.230225,189.539581 609.708923,183.320602 
	C605.873108,181.254074 602.250427,178.095642 598.166870,177.298676 
	C572.194031,172.229813 546.037170,172.365585 519.942017,176.326797 
	C514.428345,177.163773 508.214905,177.467850 503.799927,183.197479 
M494.138000,130.867065 
	C498.643463,133.069687 502.399017,133.455093 506.463104,129.092331 
	C511.617767,123.558792 518.565247,120.712051 526.012329,118.867210 
	C535.626831,116.485466 545.152100,113.665924 554.558716,110.559494 
	C558.524963,109.249710 560.250977,109.796173 560.082886,114.807266 
	C559.728271,116.540695 559.373657,118.274124 558.519409,120.486046 
	C556.174133,123.838821 554.387268,127.849571 551.369690,130.410095 
	C544.685730,136.081802 537.257629,140.865631 530.369385,146.310608 
	C523.564575,151.689606 516.327454,156.838623 513.452148,166.607269 
	C513.141235,168.296417 512.830322,169.985550 512.475037,171.916214 
	C513.753052,171.916214 514.409485,172.014191 515.027771,171.901932 
	C532.087891,168.804382 549.275574,167.587860 566.595215,168.475266 
	C573.720337,168.840317 580.836548,169.377350 588.732971,170.154510 
	C593.722534,171.070663 598.712097,171.986801 604.706116,173.087402 
	C606.617493,156.476822 609.322327,140.240616 610.168213,123.908104 
	C611.422791,99.684639 602.579285,79.526360 581.467529,66.417336 
	C570.180847,59.409058 557.946899,53.926426 545.795410,47.159153 
	C541.530945,45.430229 537.266479,43.701305 532.176147,42.216671 
	C532.195984,45.030632 532.505249,47.882278 532.145325,50.646805 
	C531.850342,52.912109 531.366882,55.641521 529.921814,57.189533 
	C520.178040,67.627319 510.080688,77.733841 500.249939,88.091972 
	C493.742645,94.948334 487.421600,101.985733 481.157928,109.066620 
	C479.035187,111.466324 477.146667,114.232475 480.776306,117.880936 
	C485.047058,122.040375 489.317810,126.199814 494.138000,130.867065 
z"/>
<path fill="#403F3F" opacity="1.000000" stroke="none" 
	d="
M366.000000,645.103638 
	C338.836426,645.103638 312.171936,644.992188 285.510040,645.204224 
	C280.602722,645.243225 279.167389,643.555359 279.113190,638.858032 
	C278.930664,623.040588 287.126984,612.849365 300.186157,605.311768 
	C312.600739,598.146179 317.315704,585.783691 321.909607,571.915649 
	C316.951599,571.915649 313.042480,571.750549 309.154236,571.964478 
	C305.624298,572.158630 303.928345,570.786560 303.604553,567.247314 
	C303.272247,563.615051 302.252563,560.010864 302.263855,556.396729 
	C302.269440,554.619751 303.486115,552.256958 304.921143,551.191711 
	C308.344940,548.650085 312.223969,546.721680 315.925415,544.541931 
	C304.258789,525.997070 310.431152,510.964020 319.094025,503.539246 
	C329.448456,494.664673 345.357544,494.481689 356.933563,503.013794 
	C368.013428,511.180206 369.451538,525.505005 360.827637,544.613525 
	C363.975708,546.485229 367.070129,548.651855 370.439423,550.232605 
	C373.557739,551.695496 374.483215,553.843445 374.072144,557.018555 
	C373.602905,560.643005 373.252380,564.282898 372.860901,567.917236 
	C372.518494,571.096191 370.506378,571.988342 367.623993,571.934570 
	C363.527466,571.858154 359.428436,571.915161 354.454071,571.915161 
	C359.364563,585.724426 363.916656,598.470947 376.999298,605.691711 
	C390.544586,613.167847 397.804810,624.292969 397.079712,640.181396 
	C396.913757,643.818237 395.646118,645.220459 391.996155,645.152893 
	C383.500031,644.995728 374.999023,645.103271 366.000000,645.103638 
M322.265930,546.241577 
	C321.020172,547.229614 319.833923,548.306580 318.517029,549.188416 
	C315.061432,551.502502 311.548889,553.731445 307.873962,556.863342 
	C308.260803,560.051331 308.647614,563.239319 308.993073,566.086304 
	C326.226929,566.086304 342.628418,566.086304 359.919250,566.300537 
	C367.561096,566.429626 367.337097,566.393433 368.521637,559.062744 
	C368.998199,556.113525 368.037689,554.833923 365.677948,553.671021 
	C363.167999,552.434021 360.813782,550.884216 358.368286,549.512512 
	C352.033844,545.959595 352.049652,545.985168 356.531433,540.300842 
	C364.738983,529.891052 362.805969,513.321716 352.321655,506.875488 
	C345.877533,501.778198 338.766052,500.548462 330.271820,503.178009 
	C317.970764,508.107239 312.230347,519.203735 315.872284,531.831543 
	C317.532532,534.986267 319.227386,538.123413 320.837830,541.303345 
	C321.601715,542.811646 322.204407,544.401611 322.265930,546.241577 
M284.804291,638.974426 
	C286.314667,639.313904 287.824554,639.946899 289.335541,639.949524 
	C321.982452,640.006348 354.629486,639.996277 387.276489,639.981201 
	C388.717957,639.980530 390.159332,639.810486 391.537018,639.723328 
	C392.769562,626.299988 385.495789,615.247131 371.866669,609.082458 
	C361.642517,602.115662 356.205261,591.791565 351.798798,580.690247 
	C348.294373,571.861511 348.205383,571.789795 338.430115,571.949890 
	C334.659729,572.011658 330.899231,572.678223 326.916656,573.714233 
	C326.571625,574.791748 326.226593,575.869263 325.237366,577.309082 
	C321.488892,591.314819 314.743103,603.211060 301.713196,610.666931 
	C291.095337,616.742615 284.241333,625.126587 284.804291,638.974426 
z"/>
<path fill="#EFEFEF" opacity="1.000000" stroke="none" 
	d="
M521.099792,798.003601 
	C521.118347,797.534363 521.136841,797.065125 521.597534,796.225769 
	C522.001892,795.227600 521.963989,794.599548 521.926147,793.971497 
	C521.937561,793.528687 521.948914,793.085815 522.402710,792.248718 
	C523.554749,790.623230 524.470276,789.465515 524.940063,788.148804 
	C527.689148,780.443054 530.078613,772.596680 533.147766,765.024048 
	C534.274048,762.245361 536.925903,760.084900 538.881836,757.642456 
	C542.274597,757.471619 545.667297,757.300781 549.599243,757.518311 
	C570.934937,764.000000 580.683594,779.665771 585.565369,799.284058 
	C587.746765,808.050293 589.189331,817.000305 590.967163,825.866943 
	C574.903198,825.300354 558.840027,824.352234 542.774902,824.319519 
	C534.040710,824.301758 525.303406,825.839722 515.713318,826.757751 
	C517.052551,819.484131 518.412781,812.096313 520.299683,804.302856 
	C523.597534,802.057068 524.387817,800.125000 521.099792,798.003601 
z"/>
<path fill="#EFEFEF" opacity="1.000000" stroke="none" 
	d="
M578.847473,752.101807 
	C568.411133,752.018372 557.972412,751.766724 547.539368,751.915283 
	C541.416443,752.002441 535.301880,752.717285 529.184814,753.166321 
	C519.617249,753.868591 514.901733,750.749573 512.401672,741.642090 
	C511.621429,738.800049 511.547638,735.764160 511.557312,732.298462 
	C514.269958,724.728821 516.575806,717.677795 518.881714,710.626709 
	C520.314697,710.384094 521.747620,710.141541 523.334045,709.872925 
	C524.648193,714.229736 525.683960,718.391296 527.225403,722.356323 
	C527.725464,723.642639 529.495422,725.194153 530.777527,725.282959 
	C535.702332,725.624268 540.664856,725.421265 545.773315,725.421265 
	C546.652466,719.465515 547.418274,714.277588 548.268738,708.516174 
	C553.137573,708.516174 557.916138,708.294617 562.646240,708.675659 
	C563.795105,708.768188 565.438110,710.704163 565.724304,712.035278 
	C566.588257,716.054382 566.896729,720.192871 567.568359,725.427551 
	C572.822876,725.427551 578.065308,725.567017 583.288025,725.308105 
	C584.314636,725.257263 585.764221,723.849121 586.161377,722.755554 
	C587.628784,718.715271 588.736694,714.544434 590.135376,709.906738 
	C591.876892,710.116699 593.623230,710.327209 595.700562,711.209656 
	C596.029846,713.375610 596.044128,714.869934 596.023926,716.363647 
	C595.838989,730.038330 592.833984,742.363281 580.022583,750.067566 
	C579.435425,750.420654 579.230469,751.409180 578.847473,752.101807 
z"/>
<path fill="#F0F0F0" opacity="1.000000" stroke="none" 
	d="
M609.163696,838.942993 
	C614.364136,844.244751 613.108154,851.090027 614.051636,857.997559 
	C575.862976,857.997559 538.118042,857.997559 499.984711,857.997559 
	C499.632172,851.538391 499.701538,845.197144 504.116577,839.230835 
	C514.419250,837.001038 523.987976,833.882080 533.713867,833.273254 
	C549.167664,832.305847 564.727539,832.908691 580.239807,833.088867 
	C583.987305,833.132385 587.763794,833.932983 591.456177,834.718506 
	C597.389709,835.980835 603.264221,837.520508 609.163696,838.942993 
z"/>
<path fill="#CBCBCB" opacity="1.000000" stroke="none" 
	d="
M591.316650,826.035645 
	C589.189331,817.000305 587.746765,808.050293 585.565369,799.284058 
	C580.683594,779.665771 570.934937,764.000000 550.042847,757.565247 
	C560.853821,757.632446 571.764648,757.963074 582.660400,758.565552 
	C583.799438,758.628540 585.622009,760.154541 585.826843,761.245850 
	C589.903870,782.967590 593.789185,804.725342 597.824585,827.092346 
	C595.469543,826.752747 593.567810,826.478577 591.316650,826.035645 
z"/>
<path fill="#CCCCCC" opacity="1.000000" stroke="none" 
	d="
M579.235229,752.406372 
	C579.230469,751.409180 579.435425,750.420654 580.022583,750.067566 
	C592.833984,742.363281 595.838989,730.038330 596.023926,716.363647 
	C596.044128,714.869934 596.029846,713.375610 596.030273,711.412292 
	C597.801208,711.141907 599.573486,711.340881 601.362122,711.541626 
	C601.362122,721.059387 602.248596,730.341248 601.139526,739.378235 
	C599.726929,750.888855 594.743530,754.005981 583.067261,753.059692 
	C581.917297,752.966492 580.771057,752.828247 579.235229,752.406372 
z"/>
<path fill="#F8F8F8" opacity="1.000000" stroke="none" 
	d="
M609.052246,838.604370 
	C603.264221,837.520508 597.389709,835.980835 591.456177,834.718506 
	C587.763794,833.932983 583.987305,833.132385 580.239807,833.088867 
	C564.727539,832.908691 549.167664,832.305847 533.713867,833.273254 
	C523.987976,833.882080 514.419250,837.001038 504.394287,838.998291 
	C507.437317,837.007568 510.640533,834.026733 514.332458,833.182068 
	C534.019165,828.677795 554.045837,827.986633 574.093018,829.800354 
	C583.782349,830.677063 593.405884,832.483337 602.978271,834.296265 
	C605.138916,834.705444 606.962280,836.895447 609.052246,838.604370 
z"/>
<path fill="#F2F2F2" opacity="1.000000" stroke="none" 
	d="
M538.433044,757.666748 
	C536.925903,760.084900 534.274048,762.245361 533.147766,765.024048 
	C530.078613,772.596680 527.689148,780.443054 524.940063,788.148804 
	C524.470276,789.465515 523.554749,790.623230 522.489380,791.925537 
	C523.947327,781.763916 525.665161,771.511963 527.699341,761.323242 
	C527.946594,760.084595 529.742798,758.636169 531.094482,758.255371 
	C533.271362,757.642151 535.675903,757.837341 538.433044,757.666748 
z"/>
<path fill="#F7F7F7" opacity="1.000000" stroke="none" 
	d="
M518.456787,710.656982 
	C516.575806,717.677795 514.269958,724.728821 511.602234,731.883667 
	C511.265289,727.203674 511.541412,722.404541 511.246857,717.640564 
	C510.931793,712.543945 513.026428,710.329651 518.456787,710.656982 
z"/>
<path fill="#F2F2F2" opacity="1.000000" stroke="none" 
	d="
M520.944092,798.351440 
	C524.387817,800.125000 523.597534,802.057068 520.464722,803.947388 
	C520.331543,802.231445 520.559937,800.465332 520.944092,798.351440 
z"/>
<path fill="#F2F2F2" opacity="1.000000" stroke="none" 
	d="
M521.757324,794.181396 
	C521.963989,794.599548 522.001892,795.227600 521.787598,795.925354 
	C521.553162,795.460510 521.570801,794.925903 521.757324,794.181396 
z"/>
<path fill="#F2F2F2" opacity="1.000000" stroke="none" 
	d="
M131.927704,386.726715 
	C119.624985,387.137512 107.320633,387.506927 95.020645,387.987915 
	C91.902756,388.109833 88.798759,388.587219 85.095795,388.961090 
	C85.555244,359.271271 67.684212,338.027039 51.947060,314.906647 
	C53.710957,314.906647 55.102772,314.619873 56.313530,314.966156 
	C58.859989,315.694427 61.291843,316.812531 63.805698,317.667847 
	C70.324265,319.885712 74.485748,317.568634 76.000626,310.939850 
	C77.825165,302.956055 80.197029,301.912354 87.349724,305.981812 
	C88.784096,306.797852 90.122589,307.788269 91.579308,308.558289 
	C100.799728,313.432159 105.751472,312.389252 112.318283,304.250763 
	C117.713326,297.564484 120.797745,297.464661 126.738304,303.784027 
	C135.851456,313.478302 138.973663,313.887512 150.278290,306.961548 
	C151.691345,306.095825 153.191299,305.349976 154.709900,304.682617 
	C159.052246,302.774475 161.732544,304.091431 162.832214,308.607849 
	C163.068024,309.576355 163.196686,310.575470 163.490906,311.524445 
	C165.353561,317.531982 168.892365,319.531860 174.890350,317.933624 
	C176.328461,317.550415 177.713882,316.969543 179.513458,317.016235 
	C173.967453,325.273926 167.685013,332.756805 162.176788,340.771729 
	C153.920959,352.784668 146.221695,365.179688 138.256287,377.393036 
	C136.203186,380.541046 134.040207,383.617401 131.927704,386.726715 
z"/>
<path fill="#F0F0F0" opacity="1.000000" stroke="none" 
	d="
M172.139969,401.951813 
	C177.129837,407.346863 176.239792,414.107574 176.849960,421.012238 
	C138.807739,421.012238 101.139610,421.012238 62.990593,421.012238 
	C62.737705,414.557312 62.691395,408.212769 67.146042,402.243469 
	C70.950600,400.984650 74.033829,399.514191 77.260262,399.059204 
	C86.256294,397.790497 95.331490,397.091949 104.339371,395.896576 
	C121.129089,393.668549 137.765900,395.533875 154.355835,397.742249 
	C160.364197,398.542084 166.216476,400.514465 172.139969,401.951813 
z"/>
<path fill="#ECECEC" opacity="1.000000" stroke="none" 
	d="
M138.953644,305.825104 
	C137.356934,305.258270 135.467575,305.050079 134.231415,304.041382 
	C132.328217,302.488373 130.926285,300.336121 129.218094,298.526398 
	C123.642357,292.619232 116.632141,292.484589 110.838867,298.124664 
	C110.362099,298.588837 109.836533,299.018616 109.435326,299.542297 
	C102.849464,308.138092 101.128571,308.278046 90.428436,301.484955 
	C89.453842,300.866241 88.397743,300.375916 87.382942,299.827789 
	C97.061546,279.518860 123.246399,276.858063 136.871246,285.878113 
	C139.590591,292.795441 140.916351,299.144989 138.953644,305.825104 
z"/>
<path fill="#CCCCCC" opacity="1.000000" stroke="none" 
	d="
M132.379852,386.850830 
	C134.040207,383.617401 136.203186,380.541046 138.256287,377.393036 
	C146.221695,365.179688 153.920959,352.784668 162.176788,340.771729 
	C167.685013,332.756805 173.967453,325.273926 179.909424,317.197937 
	C179.915436,316.842957 179.975891,316.913574 180.189117,316.835052 
	C180.594040,316.454376 180.785767,316.152252 180.977493,315.850098 
	C182.800354,315.407166 184.623215,314.964233 186.446075,314.521301 
	C170.839554,337.507965 154.143234,359.494629 154.228210,388.769714 
	C146.663940,388.135193 139.747971,387.555054 132.379852,386.850830 
z"/>
<path fill="#EDEDED" opacity="1.000000" stroke="none" 
	d="
M124.956871,273.855621 
	C124.223122,274.235107 123.529137,274.777130 122.749229,274.967957 
	C117.183670,276.329651 111.511383,274.191528 108.931061,269.599792 
	C106.847099,265.891357 107.311401,262.195129 110.033806,258.999725 
	C113.767715,254.617096 119.580612,253.827347 125.674774,257.317688 
	C125.641563,263.264282 125.299217,268.559937 124.956871,273.855621 
z"/>
<path fill="#F8F8F8" opacity="1.000000" stroke="none" 
	d="
M172.024582,401.612183 
	C166.216476,400.514465 160.364197,398.542084 154.355835,397.742249 
	C137.765900,395.533875 121.129089,393.668549 104.339371,395.896576 
	C95.331490,397.091949 86.256294,397.790497 77.260262,399.059204 
	C74.033829,399.514191 70.950600,400.984650 67.418068,401.994629 
	C70.638100,399.954987 74.016418,396.915253 77.884560,396.039825 
	C96.001404,391.939636 114.462021,391.249481 132.938660,392.436646 
	C142.374481,393.042908 151.819290,394.234253 161.114716,395.948975 
	C164.911026,396.649323 168.322586,399.435364 172.024582,401.612183 
z"/>
<path fill="#CBCBCB" opacity="1.000000" stroke="none" 
	d="
M139.322479,305.937958 
	C140.916351,299.144989 139.590591,292.795441 137.073486,286.169739 
	C144.131531,288.000793 148.107101,293.532104 152.547699,300.013245 
	C148.087112,302.108002 143.889221,304.079407 139.322479,305.937958 
z"/>
<path fill="#CBCBCB" opacity="1.000000" stroke="none" 
	d="
M125.309158,273.868164 
	C125.299217,268.559937 125.641563,263.264282 125.968094,257.563538 
	C133.207840,261.398956 133.086334,268.385376 125.309158,273.868164 
z"/>
<path fill="#F2F2F2" opacity="1.000000" stroke="none" 
	d="
M180.652435,315.916779 
	C180.785767,316.152252 180.594040,316.454376 180.152679,316.863892 
	C180.044464,316.641998 180.185913,316.312714 180.652435,315.916779 
z"/>
<path fill="#EFEFEF" opacity="1.000000" stroke="none" 
	d="
M587.956848,169.836151 
	C580.836548,169.377350 573.720337,168.840317 566.595215,168.475266 
	C549.275574,167.587860 532.087891,168.804382 515.027771,171.901932 
	C514.409485,172.014191 513.753052,171.916214 512.475037,171.916214 
	C512.830322,169.985550 513.141235,168.296417 514.035278,166.156860 
	C521.645325,156.207779 531.163452,149.717331 540.992737,143.513504 
	C545.297485,140.796555 549.655090,137.838165 553.083740,134.148438 
	C556.602600,130.361588 560.463989,126.136139 559.018982,120.007553 
	C559.373657,118.274124 559.728271,116.540695 560.505371,114.367477 
	C567.454651,107.398117 568.087280,97.458633 562.398010,88.798546 
	C561.574829,95.966492 557.531250,101.046654 551.403076,103.672455 
	C540.299377,108.430138 528.886230,112.475906 517.548645,116.674011 
	C508.787994,119.917931 500.182983,123.357491 493.588562,130.359253 
	C489.317810,126.199814 485.047058,122.040375 480.945831,117.409683 
	C481.746246,116.291634 482.377136,115.644836 483.420959,115.022804 
	C488.602539,115.564384 491.294098,113.616364 491.760864,108.181908 
	C489.984863,108.181908 488.530975,108.181908 487.057556,107.806274 
	C487.440155,106.383865 487.555359,105.039024 488.287079,104.334648 
	C501.071411,92.027832 514.054443,79.925385 526.739136,67.517662 
	C538.783203,55.736519 539.496826,58.947433 533.269958,43.438034 
	C533.088623,42.986416 533.087280,42.462555 533.002075,41.972382 
	C537.266479,43.701305 541.530945,45.430229 545.925537,47.829659 
	C547.470459,52.570915 549.729553,55.777264 553.974121,57.477169 
	C558.285522,59.203842 562.588867,61.058033 566.633911,63.323818 
	C583.622742,72.839943 596.027100,85.966118 599.199890,106.037338 
	C601.444214,120.234535 599.929688,134.155624 595.598022,147.774078 
	C593.239807,155.188171 590.515869,162.485931 587.956848,169.836151 
M541.310852,76.141266 
	C535.036499,72.327599 528.500183,75.654716 528.381470,82.797417 
	C528.368164,83.595024 529.170044,85.104317 529.583252,85.100601 
	C532.937866,85.070450 536.550781,85.459557 539.570496,84.336960 
	C542.676880,83.182152 543.281860,79.952271 541.310852,76.141266 
z"/>
<path fill="#F0F0F0" opacity="1.000000" stroke="none" 
	d="
M609.870300,183.991989 
	C614.230225,189.539581 613.322510,196.124771 613.979919,202.746155 
	C575.820435,202.746155 538.125427,202.746155 500.050568,202.746155 
	C499.501678,195.820984 500.143036,189.248230 504.535919,183.061859 
	C507.640594,182.270447 509.972260,181.285355 512.384216,181.013947 
	C525.151123,179.577240 537.919434,177.523956 550.723694,177.219986 
	C564.070679,176.903122 577.499146,177.912354 590.812073,179.180603 
	C597.259094,179.794785 603.523315,182.327759 609.870300,183.991989 
z"/>
<path fill="#CBCBCB" opacity="1.000000" stroke="none" 
	d="
M588.344910,169.995331 
	C590.515869,162.485931 593.239807,155.188171 595.598022,147.774078 
	C599.929688,134.155624 601.444214,120.234535 599.199890,106.037338 
	C596.027100,85.966118 583.622742,72.839943 566.633911,63.323818 
	C562.588867,61.058033 558.285522,59.203842 553.974121,57.477169 
	C549.729553,55.777264 547.470459,52.570915 546.098083,48.127708 
	C557.946899,53.926426 570.180847,59.409058 581.467529,66.417336 
	C602.579285,79.526360 611.422791,99.684639 610.168213,123.908104 
	C609.322327,140.240616 606.617493,156.476822 604.706116,173.087402 
	C598.712097,171.986801 593.722534,171.070663 588.344910,169.995331 
z"/>
<path fill="#CBCBCB" opacity="1.000000" stroke="none" 
	d="
M493.863281,130.613159 
	C500.182983,123.357491 508.787994,119.917931 517.548645,116.674011 
	C528.886230,112.475906 540.299377,108.430138 551.403076,103.672455 
	C557.531250,101.046654 561.574829,95.966492 562.398010,88.798546 
	C568.087280,97.458633 567.454651,107.398117 560.593994,113.995827 
	C560.250977,109.796173 558.524963,109.249710 554.558716,110.559494 
	C545.152100,113.665924 535.626831,116.485466 526.012329,118.867210 
	C518.565247,120.712051 511.617767,123.558792 506.463104,129.092331 
	C502.399017,133.455093 498.643463,133.069687 493.863281,130.613159 
z"/>
<path fill="#F8F8F8" opacity="1.000000" stroke="none" 
	d="
M483.008026,114.998032 
	C482.377136,115.644836 481.746246,116.291634 480.806122,117.088089 
	C477.146667,114.232475 479.035187,111.466324 481.157928,109.066620 
	C487.421600,101.985733 493.742645,94.948334 500.249939,88.091972 
	C510.080688,77.733841 520.178040,67.627319 529.921814,57.189533 
	C531.366882,55.641521 531.850342,52.912109 532.145325,50.646805 
	C532.505249,47.882278 532.195984,45.030632 532.589111,42.094528 
	C533.087280,42.462555 533.088623,42.986416 533.269958,43.438034 
	C539.496826,58.947433 538.783203,55.736519 526.739136,67.517662 
	C514.054443,79.925385 501.071411,92.027832 488.287079,104.334648 
	C487.555359,105.039024 487.440155,106.383865 486.869965,108.080536 
	C485.470612,110.819633 484.239319,112.908836 483.008026,114.998032 
z"/>
<path fill="#F8F8F8" opacity="1.000000" stroke="none" 
	d="
M609.789612,183.656296 
	C603.523315,182.327759 597.259094,179.794785 590.812073,179.180603 
	C577.499146,177.912354 564.070679,176.903122 550.723694,177.219986 
	C537.919434,177.523956 525.151123,179.577240 512.384216,181.013947 
	C509.972260,181.285355 507.640594,182.270447 504.840759,182.896332 
	C508.214905,177.467850 514.428345,177.163773 519.942017,176.326797 
	C546.037170,172.365585 572.194031,172.229813 598.166870,177.298676 
	C602.250427,178.095642 605.873108,181.254074 609.789612,183.656296 
z"/>
<path fill="#F7F7F7" opacity="1.000000" stroke="none" 
	d="
M558.769165,120.246796 
	C560.463989,126.136139 556.602600,130.361588 553.083740,134.148438 
	C549.655090,137.838165 545.297485,140.796555 540.992737,143.513504 
	C531.163452,149.717331 521.645325,156.207779 514.316528,165.854797 
	C516.327454,156.838623 523.564575,151.689606 530.369385,146.310608 
	C537.257629,140.865631 544.685730,136.081802 551.369690,130.410095 
	C554.387268,127.849571 556.174133,123.838821 558.769165,120.246796 
z"/>
<path fill="#F0F0F0" opacity="1.000000" stroke="none" 
	d="
M325.881531,576.946777 
	C326.226593,575.869263 326.571625,574.791748 327.293640,573.576904 
	C331.627777,578.911194 335.199921,584.719666 339.627167,589.780029 
	C347.391724,598.654968 356.104431,606.505615 367.800629,609.973572 
	C369.087402,610.355103 370.646545,609.818054 372.079346,609.707031 
	C385.495789,615.247131 392.769562,626.299988 391.537018,639.723328 
	C390.159332,639.810486 388.717957,639.980530 387.276489,639.981201 
	C354.629486,639.996277 321.982452,640.006348 289.335541,639.949524 
	C287.824554,639.946899 286.314667,639.313904 285.105408,638.340942 
	C290.556763,626.813354 298.154663,617.990295 308.609680,612.035645 
	C317.358887,607.052673 322.003601,599.396667 324.330109,590.127014 
	C325.398041,585.871826 325.397522,581.348511 325.881531,576.946777 
z"/>
<path fill="#EDEDED" opacity="1.000000" stroke="none" 
	d="
M330.985901,503.194061 
	C338.766052,500.548462 345.877533,501.778198 352.622986,507.431946 
	C353.599609,509.300629 354.224945,510.641541 354.958160,511.920593 
	C360.553741,521.681824 360.098022,529.094299 352.630951,537.382263 
	C349.749695,540.580261 345.887329,542.894348 341.862030,546.096313 
	C346.726776,548.320862 350.994049,550.503967 355.437683,552.234131 
	C359.314941,553.743774 361.705139,555.591064 359.994324,560.237427 
	C359.323792,562.058472 359.331238,564.129272 359.029907,566.086304 
	C342.628418,566.086304 326.226929,566.086304 308.993073,566.086304 
	C308.647614,563.239319 308.260803,560.051331 308.412628,556.431885 
	C309.446564,556.001648 309.963074,555.910034 310.433929,556.017883 
	C317.630341,557.666077 320.785156,552.791443 323.736359,547.698853 
	C323.916840,547.387390 323.186584,546.548218 322.880096,545.954590 
	C322.204407,544.401611 321.601715,542.811646 320.837830,541.303345 
	C319.227386,538.123413 317.532532,534.986267 316.160645,531.225220 
	C318.662842,520.082275 323.091492,510.719666 330.985901,503.194061 
z"/>
<path fill="#CCCCCC" opacity="1.000000" stroke="none" 
	d="
M371.973022,609.394775 
	C370.646545,609.818054 369.087402,610.355103 367.800629,609.973572 
	C356.104431,606.505615 347.391724,598.654968 339.627167,589.780029 
	C335.199921,584.719666 331.627777,578.911194 327.402405,573.254395 
	C330.899231,572.678223 334.659729,572.011658 338.430115,571.949890 
	C348.205383,571.789795 348.294373,571.861511 351.798798,580.690247 
	C356.205261,591.791565 361.642517,602.115662 371.973022,609.394775 
z"/>
<path fill="#FAFAFA" opacity="1.000000" stroke="none" 
	d="
M325.559448,577.127930 
	C325.397522,581.348511 325.398041,585.871826 324.330109,590.127014 
	C322.003601,599.396667 317.358887,607.052673 308.609680,612.035645 
	C298.154663,617.990295 290.556763,626.813354 285.107849,637.899414 
	C284.241333,625.126587 291.095337,616.742615 301.713196,610.666931 
	C314.743103,603.211060 321.488892,591.314819 325.559448,577.127930 
z"/>
<path fill="#CBCBCB" opacity="1.000000" stroke="none" 
	d="
M359.474579,566.193420 
	C359.331238,564.129272 359.323792,562.058472 359.994324,560.237427 
	C361.705139,555.591064 359.314941,553.743774 355.437683,552.234131 
	C350.994049,550.503967 346.726776,548.320862 341.862030,546.096313 
	C345.887329,542.894348 349.749695,540.580261 352.630951,537.382263 
	C360.098022,529.094299 360.553741,521.681824 354.958160,511.920593 
	C354.224945,510.641541 353.599609,509.300629 352.922424,507.633270 
	C362.805969,513.321716 364.738983,529.891052 356.531433,540.300842 
	C352.049652,545.985168 352.033844,545.959595 358.368286,549.512512 
	C360.813782,550.884216 363.167999,552.434021 365.677948,553.671021 
	C368.037689,554.833923 368.998199,556.113525 368.521637,559.062744 
	C367.337097,566.393433 367.561096,566.429626 359.474579,566.193420 
z"/>
<path fill="#F8F8F8" opacity="1.000000" stroke="none" 
	d="
M330.628845,503.186035 
	C323.091492,510.719666 318.662842,520.082275 316.143158,530.849731 
	C312.230347,519.203735 317.970764,508.107239 330.628845,503.186035 
z"/>
<path fill="#FAFAFA" opacity="1.000000" stroke="none" 
	d="
M322.572998,546.098083 
	C323.186584,546.548218 323.916840,547.387390 323.736359,547.698853 
	C320.785156,552.791443 317.630341,557.666077 310.433929,556.017883 
	C309.963074,555.910034 309.446564,556.001648 308.505188,555.997437 
	C311.548889,553.731445 315.061432,551.502502 318.517029,549.188416 
	C319.833923,548.306580 321.020172,547.229614 322.572998,546.098083 
z"/>
<path fill="#A3A3A3" opacity="1.000000" stroke="none" 
	d="
M541.521484,76.449219 
	C543.281860,79.952271 542.676880,83.182152 539.570496,84.336960 
	C536.550781,85.459557 532.937866,85.070450 529.583252,85.100601 
	C529.170044,85.104317 528.368164,83.595024 528.381470,82.797417 
	C528.500183,75.654716 535.036499,72.327599 541.521484,76.449219 
z"/>
<path fill="#B1B1B1" opacity="1.000000" stroke="none" 
	d="
M483.420959,115.022812 
	C484.239319,112.908836 485.470612,110.819633 486.889496,108.456169 
	C488.530975,108.181908 489.984863,108.181908 491.760864,108.181908 
	C491.294098,113.616364 488.602539,115.564384 483.420959,115.022812 
z"/>
</svg>