<svg xmlns="http://www.w3.org/2000/svg" viewBox="-1 -1 42 42"><defs><path id="bd" d="M0.5,1.103 L9.5,1.103 L5,8.897 z" fill="blue"/><path id="bu" d="M0.5,8.897 L9.5,8.897 L5,1.103 z" fill="blue"/><path id="rd" d="M0.5,1.103 L9.5,1.103 L5,8.897 z" fill="red"/><path id="ru" d="M0.5,8.897 L9.5,8.897 L5,1.103 z" fill="red"/></defs><path d="M0,10h10v10h-10zm20,0h10v10h-10zm-20,20h10v10h-10zm20,0h10v10h-10z" fill="#99df99"/><path d="M0,0h40v40h-40zm10,0v40m10,-40v40m10,-40v40m-30,-30h40m-40,10h40m-40,10h40" stroke-width="0.25" stroke="#000" fill="none"/><use href="#bd"/><use href="#bu" x="10"/><use href="#bu" x="20"/><use href="#bd" x="30"/><use href="#rd" y="10"/><use href="#rd" x="10" y="10"/><use href="#bd" x="20" y="10"/><use href="#rd" x="30" y="10"/><use href="#ru" y="20"/><use href="#bu" x="10" y="20"/><use href="#bu" x="20" y="20"/><use href="#ru" x="30" y="20"/><use href="#rd" y="30"/><use href="#bu" x="10" y="30"/><use href="#rd" x="20" y="30"/><use href="#ru" x="30" y="30"/></svg>