<svg version="1.1" id="BackgroundSVG" xmlns="http://www.w3.org/2000/svg" viewBox="0 0 100 100">
    <path d="M0,0 h100 v100 h-100 z" fill="none" stroke="#000000" stroke-width="1.25"/>
    <path d="M25,0 v100 M50,0 v100 M75,0 v100 M0,25 h100 M0,50 h100 M0,75 h100" stroke="#000" stroke-width="0.625"/>
    <defs><circle id="c" r="11" stroke="#2A2A2A" stroke-width="0.5" fill="gray"/></defs>
    <use href="#c" x="12.5" y="12.5"/><use href="#c" x="37.5" y="12.5"/><use href="#c" x="87.5" y="12.5"/><use href="#c" x="12.5" y="37.5"/><use href="#c" x="87.5" y="37.5"/><use href="#c" x="12.5" y="62.5"/><use href="#c" x="37.5" y="62.5"/><use href="#c" x="87.5" y="62.5"/><use href="#c" x="12.5" y="87.5"/><use href="#c" x="37.5" y="87.5"/><use href="#c" x="62.5" y="87.5"/><use href="#c" x="87.5" y="87.5"/>
    <g stroke="#800000" fill="#800000">
    <circle cx="12.5" cy="37.5" r="2" fill="#008000" stroke="none" /><circle cx="87.5" cy="62.5" r="2" fill="#008000" stroke="none" /><circle cx="87.5" cy="12.5" r="2" stroke="none" /><circle cx="87.5" cy="37.5" r="2" stroke="none" /><circle cx="12.5" cy="87.5" r="2" stroke="none" /><circle cx="37.5" cy="87.5" r="2" stroke="none" /><circle cx="62.5" cy="87.5" r="2" stroke="none" /><circle cx="12.5" cy="12.5" r="2" stroke="none" opacity="0.75" /><circle cx="37.5" cy="12.5" r="2" stroke="none" opacity="0.75" /><circle cx="12.5" cy="62.5" r="2" stroke="none" opacity="0.75" /><circle cx="37.5" cy="62.5" r="2" stroke="none" opacity="0.75" /><circle cx="87.5" cy="87.5" r="2" stroke="none" opacity="0.75" />
    <line x1="26.25" y1="85" x2="73.75" y2="85" stroke-linecap="round" stroke="#008000" /><line x1="27" y1="51.25" x2="27" y2="98.75" stroke-linecap="round" stroke="#008000" /><line x1="4" y1="1.25" x2="4" y2="73.75" stroke-linecap="round" opacity="0.75" /><line x1="1.25" y1="2" x2="48.75" y2="2" stroke-linecap="round" opacity="0.5" /><line x1="1.25" y1="52" x2="48.75" y2="52" stroke-linecap="round" /><line x1="1.25" y1="77" x2="48.75" y2="77" stroke-linecap="round" /><line x1="51.25" y1="77" x2="98.75" y2="77" stroke-linecap="round" /><line x1="2" y1="1.25" x2="2" y2="48.75" stroke-linecap="round" /><line x1="10" y1="26.25" x2="10" y2="73.75" stroke-linecap="round" /><line x1="2" y1="51.25" x2="2" y2="98.75" stroke-linecap="round" /><line x1="77" y1="1.25" x2="77" y2="48.75" stroke-linecap="round" /><line x1="85" y1="26.25" x2="85" y2="73.75" stroke-linecap="round" /><line x1="77" y1="51.25" x2="77" y2="98.75" stroke-linecap="round" /><line x1="1.25" y1="79" x2="73.75" y2="79" stroke-linecap="round" /><line x1="26.25" y1="83" x2="98.75" y2="83" stroke-linecap="round" /><line x1="8" y1="26.25" x2="8" y2="98.75" stroke-linecap="round" /><line x1="79" y1="1.25" x2="79" y2="73.75" stroke-linecap="round" /><line x1="83" y1="26.25" x2="83" y2="98.75" stroke-linecap="round" /><line x1="1.25" y1="81" x2="98.75" y2="81" stroke-linecap="round" /><line x1="6" y1="1.25" x2="6" y2="98.75" stroke-linecap="round" /><line x1="81" y1="1.25" x2="81" y2="98.75" stroke-linecap="round" />
    </g>
</svg>
