<?xml version="1.0" encoding="UTF-8"?>
<svg xmlns="http://www.w3.org/2000/svg" version="1.1" viewBox="0 0 400 400">
  <defs>
    <style>
      .cls-1 {
        fill: none;
        stroke: #FF00FF;
        stroke-miterlimit: 10;
        stroke-width: 30px;
      }

      .cls-2 {
        fill: #010101;
      }
    </style>
  </defs>
  <!-- Generator: Adobe Illustrator 28.7.6, SVG Export Plug-In . SVG Version: 1.2.0 Build 188)  -->
  <g>
    <g id="Layer_1">
      <g>
        <polygon class="cls-2" points="169.69 202.3 113.12 202.3 56.56 202.3 28.28 251.28 0 300.27 28.28 349.25 56.56 398.23 113.12 398.23 169.69 398.23 197.97 349.25 226.25 300.27 197.97 251.28 169.69 202.3"/>
        <line class="cls-1" x1="113.12" y1="202.3" x2="113.12" y2="398.23"/>
        <polygon class="cls-2" points="226.25 99.97 197.97 50.98 169.69 2 113.12 2 56.56 2 28.28 50.98 0 99.97 28.28 148.95 56.56 197.94 113.12 197.94 169.69 197.94 197.97 148.95 226.25 99.97"/>
        <path class="cls-1" d="M197.97,148.95h0c-52.5-30.31-117.18-30.31-169.69,0"/>
        <polygon class="cls-2" points="400 199.68 371.72 150.69 343.44 101.71 286.88 101.71 230.31 101.71 202.03 150.69 173.75 199.68 202.03 248.66 230.31 297.64 286.88 297.64 343.44 297.64 371.72 248.66 400 199.68"/>
        <path class="cls-1" d="M202.03,150.69h0c37.71,21.77,37.71,76.2,0,97.97h0"/>
      </g>
    </g>
  </g>
</svg>