<?xml version="1.0" encoding="utf-8"?><svg version="1.1" xmlns="http://www.w3.org/2000/svg" viewBox="0 0 104 104"><defs><path id="a" d="M0,0h16v16h-16zm20,0h16v16h-16zm20,0h16v16h-16zm20,0h16v16h-16zm20,0h16v16h-16z" fill="#BBB" /><path id="x" d="M2,2L14,14M2,14L14,2" stroke-width="2" stroke="#00f"/><circle id="o" cx="8" cy="8" r="6" stroke="red" stroke-width="2" fill="none"/></defs><use href="#a" x="4" y="4" /><use href="#a" x="4" y="24" /><use href="#a" x="4" y="44" /><use href="#a" x="4" y="64" /><use href="#a" x="4" y="84" /><path transform="translate(24 24)" d="M18,0v56M38,0v56M0,18h56M0,38h56" stroke="#000" stroke-width="4"/><use href="#x" x="44" y="4"/><use href="#x" x="24" y="24"/><use href="#o" x="64" y="24"/><use href="#o" x="44" y="44"/><use href="#o" x="84" y="44"/><use href="#x" x="24" y="64"/><use href="#o" x="44" y="64"/><use href="#x" x="64" y="64"/><g transform="scale(1.04)"><path d="M66.97750073036559,67.02910229907712L36.67283208143868,51.876767974613664L37.53285822663091,50.15671568422921 L32.5580851512306,50.89442719099991L34.952779791054226,55.316872555382574L35.812805936246455,53.59682026499812 L66.11747458517337,68.74915458946157A 0.9615384615384616 0.9615384615384616 0 0 0 66.97750073036559 67.02910229907712Z" fill="#008800" stroke="#008800"/><path d="M68.74915458946157,66.11747458517337L53.59682026499812,35.812805936246455L55.316872555382574,34.952779791054226 L50.89442719099991,32.5580851512306L50.15671568422921,37.53285822663091L51.876767974613664,36.67283208143868 L67.02910229907712,66.97750073036559A 0.9615384615384616 0.9615384615384616 0 0 0 68.74915458946157 66.11747458517337Z" fill="#ffff00" stroke="#ffff00"/><path d="M70.1923076923077,66.23076923076923L70.1923076923077,56.11965769230769L72.11538461538461,56.11965769230769 L69.23076923076923,52L66.34615384615384,56.11965769230769L68.26923076923076,56.11965769230769 L68.26923076923076,66.23076923076923A 0.9615384615384616 0.9615384615384616 0 0 0 70.1923076923077 66.23076923076923Z" fill="#880000" stroke="#880000"/></g></svg>