<?xml version="1.0"  encoding="utf-8"?><svg version="1.0" xmlns="http://www.w3.org/2000/svg" viewBox="0 -20 50 50"><defs><path id="l" d="M-4,0.734A4.3 2 0 1 0 -4,-0.734L0,0z" fill="#88bd90" stroke="#0b5817" stroke-width="0.2"/><linearGradient id="water" x1="0" x2="0" y1="0" y2="1"><stop offset="0%" stop-color="#a5a5f6"/><stop offset="100%" stop-color="#00fff7"/></linearGradient><linearGradient id="sky" x1="0" x2="0" y1="0" y2="1"><stop offset="0%" stop-color="#f97ad3"/><stop offset="100%" stop-color="#ffa200"/></linearGradient><g id="b" transform="scale(0.006818) translate(-640, -563)"><path transform="translate(0,1126) scale(0.1,-0.1)" stroke="#000" stroke-width="150" fill="#3784ff" d="M9756 11249 c-281 -36 -392 -131 -511 -434 -99 -253 -115 -268 -340 -324 -493 -124 -942 -283 -1530 -541 -758 -333 -916 -398 -1505 -620 -580 -218 -834 -326 -1159 -490 -342 -173 -665 -364 -1026 -608 -229 -155 -338 -238 -552 -419 l-153 -129 -327 -12 c-364 -13 -461 -22 -673 -58 -421 -72 -618 -139 -827 -282 -118 -81 -211 -163 -274 -242 -95 -119 -125 -214 -116 -370 9 -146 61 -275 159 -392 69 -83 243 -150 471 -180 l90 -12 -39 -34 c-21 -18 -69 -58 -106 -88 l-66 -55 -139 21 c-163 24 -392 27 -468 6 -141 -38 -296 -134 -420 -260 -94 -95 -140 -163 -182 -266 -45 -112 -57 -191 -57 -375 1 -198 14 -284 99 -651 175 -758 337 -1149 633 -1534 87 -112 361 -386 487 -486 192 -152 502 -346 650 -407 104 -43 244 -85 420 -127 94 -22 238 -56 320 -76 83 -20 247 -67 365 -106 633 -207 819 -290 1065 -473 410 -305 776 -714 1014 -1133 l53 -92 145 202 c166 232 194 269 278 357 152 161 315 233 563 250 135 9 372 -1 530 -23 53 -7 98 -12 100 -11 1 1 -31 14 -70 30 -287 111 -449 249 -510 433 -24 74 -23 222 2 317 10 39 15 73 12 76 -8 7 -365 73 -637 118 -256 43 -593 89 -742 103 -71 6 -129 12 -131 13 -1 1 24 58 57 126 119 248 146 372 145 664 0 201 -17 354 -59 561 l-7 31 134 21 c325 52 735 77 1143 69 589 -12 644 -33 1010 -377 133 -125 175 -157 393 -304 384 -258 518 -290 1074 -261 167 9 400 25 518 37 238 23 440 26 685 9 88 -6 290 -21 448 -32 158 -11 295 -19 303 -17 8 2 -49 59 -138 138 -195 173 -241 220 -274 275 -23 40 -26 54 -22 113 4 84 50 184 167 367 45 69 81 130 81 134 0 4 -75 -3 -167 -16 -213 -28 -565 -45 -679 -32 -196 22 -310 100 -509 349 -130 162 -159 229 -136 313 38 135 172 199 423 201 59 1 104 4 100 7 -4 3 -65 29 -137 59 -151 62 -395 181 -504 247 -321 194 -424 378 -345 619 43 135 111 239 294 454 169 198 207 250 388 521 176 264 291 418 378 511 205 215 327 294 714 463 263 114 407 194 529 294 69 56 156 164 281 347 131 191 244 314 359 388 41 27 173 100 294 162 346 180 416 238 517 436 57 112 68 127 119 162 218 153 329 254 407 371 75 114 133 243 152 337 29 149 -11 285 -125 423 -125 152 -284 244 -585 340 -246 78 -365 107 -648 155 -135 23 -354 64 -488 91 -134 27 -252 49 -263 49 -11 0 -21 6 -23 13 -2 6 -11 47 -21 90 -34 155 -98 247 -220 317 -56 32 -330 146 -385 160 -43 12 -181 11 -274 -1z m-6838 -3611 c30 -30 12 -62 -115 -203 -187 -208 -272 -311 -377 -458 -124 -175 -188 -243 -364 -385 -81 -66 -221 -185 -312 -265 -99 -88 -173 -147 -186 -147 -30 0 -58 34 -51 62 7 25 279 269 494 442 156 126 214 188 333 356 104 146 169 225 367 448 120 135 149 162 172 162 15 0 32 -5 39 -12z m5250 -1040 c29 -29 11 -60 -114 -210 -260 -311 -419 -553 -452 -690 -7 -25 -19 -120 -27 -210 -23 -248 -44 -314 -190 -588 -98 -184 -139 -279 -156 -360 -18 -90 -39 -568 -29 -668 16 -147 71 -342 197 -686 51 -140 53 -150 38 -172 -18 -29 -55 -31 -78 -6 -26 29 -205 539 -222 635 -6 33 -25 63 -25 39 0 -13 -278 -159 -365 -191 -98 -35 -183 -54 -389 -86 -144 -22 -162 -23 -183 -10 -27 18 -30 56 -5 77 10 10 71 24 162 38 314 46 385 68 590 183 75 42 137 70 156 70 l30 1 -9 61 c-10 68 -1 482 13 619 19 178 56 281 202 552 120 222 131 259 152 494 9 91 23 192 31 225 44 170 201 413 483 748 103 123 128 147 151 147 15 0 32 -5 39 -12z m-6558 -751 c687 -459 1269 -978 1628 -1454 223 -295 399 -656 456 -933 21 -103 36 -232 36 -306 0 -71 -21 -101 -64 -90 -36 9 -43 28 -49 151 -12 220 -72 430 -191 671 -300 604 -933 1237 -1858 1860 -205 138 -208 141 -208 170 0 29 37 56 65 48 11 -4 94 -56 185 -117z m1473 -338 c157 -80 355 -209 522 -343 130 -104 377 -352 488 -491 178 -221 361 -516 498 -800 74 -155 209 -481 209 -506 0 -21 -32 -49 -56 -49 -31 0 -42 19 -109 190 -119 305 -323 686 -504 939 -285 399 -688 758 -1069 950 -72 36 -92 55 -92 86 0 19 31 55 48 55 1 0 31 -14 65 -31z m-2421 -544 c213 -213 274 -301 427 -625 125 -263 231 -434 539 -868 92 -130 221 -316 287 -412 202 -299 286 -396 440 -505 147 -105 508 -267 711 -320 55 -14 124 -40 154 -58 31 -19 112 -91 192 -172 75 -77 161 -155 190 -172 122 -74 303 -117 493 -117 121 0 137 3 240 36 61 19 131 44 157 54 60 23 98 10 98 -35 0 -16 -6 -34 -14 -40 -22 -18 -132 -59 -245 -91 -92 -26 -120 -30 -237 -30 -191 0 -346 33 -504 108 -66 31 -94 54 -229 189 -85 85 -173 165 -195 178 -23 13 -81 33 -129 45 -173 43 -562 215 -716 317 -98 66 -209 167 -291 268 -32 39 -126 172 -210 295 -85 124 -208 302 -275 395 -289 405 -397 579 -551 887 -168 337 -202 387 -395 583 -119 121 -159 168 -159 186 0 32 17 49 50 49 21 0 58 -31 172 -145z" /><circle cx="990" cy="90" r="50" fill="#fff" stroke="#000" stroke-width="10"/><circle cx="990" cy="90" r="20" fill="#000"/></g><g id="r" transform="scale(0.006818) translate(640, -563)"><g transform="scale(-1,1)"><path transform="translate(0,1126) scale(0.1,-0.1)" stroke="#000" stroke-width="150" fill="#fb7575" d="M9756 11249 c-281 -36 -392 -131 -511 -434 -99 -253 -115 -268 -340 -324 -493 -124 -942 -283 -1530 -541 -758 -333 -916 -398 -1505 -620 -580 -218 -834 -326 -1159 -490 -342 -173 -665 -364 -1026 -608 -229 -155 -338 -238 -552 -419 l-153 -129 -327 -12 c-364 -13 -461 -22 -673 -58 -421 -72 -618 -139 -827 -282 -118 -81 -211 -163 -274 -242 -95 -119 -125 -214 -116 -370 9 -146 61 -275 159 -392 69 -83 243 -150 471 -180 l90 -12 -39 -34 c-21 -18 -69 -58 -106 -88 l-66 -55 -139 21 c-163 24 -392 27 -468 6 -141 -38 -296 -134 -420 -260 -94 -95 -140 -163 -182 -266 -45 -112 -57 -191 -57 -375 1 -198 14 -284 99 -651 175 -758 337 -1149 633 -1534 87 -112 361 -386 487 -486 192 -152 502 -346 650 -407 104 -43 244 -85 420 -127 94 -22 238 -56 320 -76 83 -20 247 -67 365 -106 633 -207 819 -290 1065 -473 410 -305 776 -714 1014 -1133 l53 -92 145 202 c166 232 194 269 278 357 152 161 315 233 563 250 135 9 372 -1 530 -23 53 -7 98 -12 100 -11 1 1 -31 14 -70 30 -287 111 -449 249 -510 433 -24 74 -23 222 2 317 10 39 15 73 12 76 -8 7 -365 73 -637 118 -256 43 -593 89 -742 103 -71 6 -129 12 -131 13 -1 1 24 58 57 126 119 248 146 372 145 664 0 201 -17 354 -59 561 l-7 31 134 21 c325 52 735 77 1143 69 589 -12 644 -33 1010 -377 133 -125 175 -157 393 -304 384 -258 518 -290 1074 -261 167 9 400 25 518 37 238 23 440 26 685 9 88 -6 290 -21 448 -32 158 -11 295 -19 303 -17 8 2 -49 59 -138 138 -195 173 -241 220 -274 275 -23 40 -26 54 -22 113 4 84 50 184 167 367 45 69 81 130 81 134 0 4 -75 -3 -167 -16 -213 -28 -565 -45 -679 -32 -196 22 -310 100 -509 349 -130 162 -159 229 -136 313 38 135 172 199 423 201 59 1 104 4 100 7 -4 3 -65 29 -137 59 -151 62 -395 181 -504 247 -321 194 -424 378 -345 619 43 135 111 239 294 454 169 198 207 250 388 521 176 264 291 418 378 511 205 215 327 294 714 463 263 114 407 194 529 294 69 56 156 164 281 347 131 191 244 314 359 388 41 27 173 100 294 162 346 180 416 238 517 436 57 112 68 127 119 162 218 153 329 254 407 371 75 114 133 243 152 337 29 149 -11 285 -125 423 -125 152 -284 244 -585 340 -246 78 -365 107 -648 155 -135 23 -354 64 -488 91 -134 27 -252 49 -263 49 -11 0 -21 6 -23 13 -2 6 -11 47 -21 90 -34 155 -98 247 -220 317 -56 32 -330 146 -385 160 -43 12 -181 11 -274 -1z m-6838 -3611 c30 -30 12 -62 -115 -203 -187 -208 -272 -311 -377 -458 -124 -175 -188 -243 -364 -385 -81 -66 -221 -185 -312 -265 -99 -88 -173 -147 -186 -147 -30 0 -58 34 -51 62 7 25 279 269 494 442 156 126 214 188 333 356 104 146 169 225 367 448 120 135 149 162 172 162 15 0 32 -5 39 -12z m5250 -1040 c29 -29 11 -60 -114 -210 -260 -311 -419 -553 -452 -690 -7 -25 -19 -120 -27 -210 -23 -248 -44 -314 -190 -588 -98 -184 -139 -279 -156 -360 -18 -90 -39 -568 -29 -668 16 -147 71 -342 197 -686 51 -140 53 -150 38 -172 -18 -29 -55 -31 -78 -6 -26 29 -205 539 -222 635 -6 33 -25 63 -25 39 0 -13 -278 -159 -365 -191 -98 -35 -183 -54 -389 -86 -144 -22 -162 -23 -183 -10 -27 18 -30 56 -5 77 10 10 71 24 162 38 314 46 385 68 590 183 75 42 137 70 156 70 l30 1 -9 61 c-10 68 -1 482 13 619 19 178 56 281 202 552 120 222 131 259 152 494 9 91 23 192 31 225 44 170 201 413 483 748 103 123 128 147 151 147 15 0 32 -5 39 -12z m-6558 -751 c687 -459 1269 -978 1628 -1454 223 -295 399 -656 456 -933 21 -103 36 -232 36 -306 0 -71 -21 -101 -64 -90 -36 9 -43 28 -49 151 -12 220 -72 430 -191 671 -300 604 -933 1237 -1858 1860 -205 138 -208 141 -208 170 0 29 37 56 65 48 11 -4 94 -56 185 -117z m1473 -338 c157 -80 355 -209 522 -343 130 -104 377 -352 488 -491 178 -221 361 -516 498 -800 74 -155 209 -481 209 -506 0 -21 -32 -49 -56 -49 -31 0 -42 19 -109 190 -119 305 -323 686 -504 939 -285 399 -688 758 -1069 950 -72 36 -92 55 -92 86 0 19 31 55 48 55 1 0 31 -14 65 -31z m-2421 -544 c213 -213 274 -301 427 -625 125 -263 231 -434 539 -868 92 -130 221 -316 287 -412 202 -299 286 -396 440 -505 147 -105 508 -267 711 -320 55 -14 124 -40 154 -58 31 -19 112 -91 192 -172 75 -77 161 -155 190 -172 122 -74 303 -117 493 -117 121 0 137 3 240 36 61 19 131 44 157 54 60 23 98 10 98 -35 0 -16 -6 -34 -14 -40 -22 -18 -132 -59 -245 -91 -92 -26 -120 -30 -237 -30 -191 0 -346 33 -504 108 -66 31 -94 54 -229 189 -85 85 -173 165 -195 178 -23 13 -81 33 -129 45 -173 43 -562 215 -716 317 -98 66 -209 167 -291 268 -32 39 -126 172 -210 295 -85 124 -208 302 -275 395 -289 405 -397 579 -551 887 -168 337 -202 387 -395 583 -119 121 -159 168 -159 186 0 32 17 49 50 49 21 0 58 -31 172 -145z" /><circle cx="990" cy="90" r="50" fill="#fff" stroke="#000" stroke-width="10"/><circle cx="990" cy="90" r="20" fill="#000"/></g></g></defs><path d="M0,-20h50v40h-50z" fill="url(#sky)"/><ellipse cx="25" cy="30" rx="100" ry="19" fill="#2fab2f"/><ellipse cx="25" cy="30" rx="54" ry="16" fill="url(#water)"/><use href="#l" x="5" y="22"/><use href="#l" x="15" y="22"/><use href="#l" x="25" y="22"/><use href="#l" x="35" y="22"/><use href="#l" x="45" y="22"/><use href="#b" x="5" y="20"/><use href="#b" x="15" y="20"/><use href="#r" x="35" y="20"/><use href="#r" x="45" y="20"/></svg>