<?xml version="1.0" standalone="no"?><svg viewBox="0 0 100 100" xmlns="http://www.w3.org/2000/svg"><defs><path id="h" transform="scale(14.000744027848425)" d="M0,-1L0.866025,-0.5L0.866025,0.5L0,1L-0.866025,0.5L-0.866025,-0.5z" stroke-width="0.21427432670955182" stroke="#000" stroke-linejoin="round" fill="none"/><path transform="scale(14)" id="r" d="M0,-1L0.866025,-0.5L0.866025,0.5L0,1L-0.866025,0.5L-0.866025,-0.5z" stroke="none" fill="red"/><path transform="scale(14)" id="b" d="M0,-1L0.866025,-0.5L0.866025,0.5L0,1L-0.866025,0.5L-0.866025,-0.5z" stroke="none" fill="#00f"/><circle id="c" cx="0" cy="0" r="4.2" stroke="none"/></defs><use href="#c" x="50" y="15.7328" fill="#008000"/><use href="#h" x="50" y="15.7328"/><use href="#r" x="37.875" y="36.7339"/><use href="#h" x="37.875" y="36.7339" /><use href="#b" x="62.125" y="36.7339" /><use href="#h" x="62.125" y="36.7339" /><use href="#b" x="25.75" y="57.735" /><use href="#h" x="25.75" y="57.735" /><use href="#b" x="50" y="57.735" /><use href="#h" x="50" y="57.735" /><use href="#r" x="74.25" y="57.735" /><use href="#h" x="74.25" y="57.735" /><use href="#h" x="13.625" y="78.7361" /><use href="#c" x="13.625" y="78.7361" fill="#800000"/><use href="#r" x="37.875" y="78.7361" /><use href="#h" x="37.875" y="78.7361" /><use href="#c" x="62.125" y="78.7361" fill="#008000"/><use href="#h" x="62.125" y="78.7361" /><use href="#h" x="86.375" y="78.7361" /><use href="#c" x="86.375" y="78.7361" fill="#800000"/></svg>