<svg xmlns="http://www.w3.org/2000/svg" xmlns:xlink="http://www.w3.org/1999/xlink" width="1080" zoomAndPan="magnify" viewBox="0 0 810 809.999993" height="1080" preserveAspectRatio="xMidYMid meet" version="1.0"><defs><clipPath id="5dc5980a35"><path d="M 121 169 L 729.359375 169 L 729.359375 611 L 121 611 Z M 121 169 " clip-rule="nonzero"/></clipPath><clipPath id="eddb08d8c2"><path d="M 87 162.078125 L 679 162.078125 L 679 646 L 87 646 Z M 87 162.078125 " clip-rule="nonzero"/></clipPath></defs><g clip-path="url(#5dc5980a35)"><path fill="#5e17eb" d="M 122.15625 175.757812 C 124.527344 181.09375 126.269531 186.570312 129.390625 191.460938 C 132.511719 196.355469 135.296875 201.3125 138.570312 206.019531 C 145.4375 216.035156 154.828125 225.902344 163.59375 234.21875 C 181.398438 251.132812 200.257812 266.898438 219.070312 282.679688 C 257.308594 314.59375 296.710938 345.054688 336.480469 374.953125 C 414.457031 433.550781 494.796875 488.824219 577.507812 540.765625 C 600.328125 555.097656 623.3125 569.164062 646.457031 582.957031 C 658.800781 590.3125 670.933594 596.335938 683.429688 602.53125 C 696.949219 609.226562 710.5625 613.921875 725.015625 607.117188 C 725.679688 606.746094 726.285156 606.292969 726.824219 605.757812 C 727.367188 605.222656 727.824219 604.625 728.203125 603.964844 C 728.582031 603.304688 728.867188 602.609375 729.054688 601.871094 C 729.242188 601.132812 729.328125 600.386719 729.316406 599.625 C 727.96875 586.351562 720.015625 576.761719 709.277344 569.347656 C 699.152344 562.359375 689.699219 555.414062 679.113281 549.144531 C 657.914062 536.625 636.851562 523.882812 615.929688 510.914062 C 574.875 485.429688 534.363281 459.121094 494.390625 431.992188 C 414.578125 377.765625 338.113281 320.113281 263.042969 260.324219 C 241.234375 242.964844 219.941406 224.859375 197.792969 207.949219 C 186.871094 199.570312 175.550781 191.765625 163.835938 184.535156 C 152.410156 177.5 139.714844 173.339844 127.019531 169.441406 C 123.089844 168.234375 120.734375 172.5 122.15625 175.757812 Z M 122.15625 175.757812 " fill-opacity="1" fill-rule="nonzero"/></g><g clip-path="url(#eddb08d8c2)"><path fill="#5e17eb" d="M 671.710938 162.757812 C 659.78125 164.519531 650.007812 170.648438 639.757812 176.523438 C 628.867188 182.808594 617.566406 188.402344 607.484375 195.957031 C 587.335938 211.035156 567.40625 226.378906 547.695312 241.988281 C 508.964844 272.570312 470.820312 303.796875 432.472656 334.828125 C 356.730469 396.085938 279.824219 456.445312 205.992188 520.105469 C 164.695312 555.992188 125.839844 594.347656 89.425781 635.179688 C 85.050781 640.058594 90.585938 647.964844 96.597656 644.460938 C 118.242188 631.890625 140.207031 619.183594 160.746094 604.929688 C 180.632812 591.167969 201.113281 578.140625 220.261719 563.445312 C 259.664062 533.226562 298.269531 502.03125 336.769531 470.710938 C 412.46875 409.191406 488.53125 348.039062 563.480469 285.675781 C 584.527344 268.152344 605.480469 250.503906 626.007812 232.398438 C 636.566406 222.902344 646.402344 212.707031 655.515625 201.816406 C 664.371094 191.476562 673.699219 182.515625 678.457031 169.441406 C 679.988281 165.082031 675.398438 162.179688 671.726562 162.714844 Z M 671.710938 162.757812 " fill-opacity="1" fill-rule="nonzero"/></g></svg>