<?xml version="1.0" encoding="utf-8"?><svg version="1.1" id="BackgroundSVG" xmlns="http://www.w3.org/2000/svg" viewBox="0 0 100 100"><style> .st0 { font-size: 5px; alignment-baseline: middle; text-anchor: middle; font-family: Arial, Helvetica, sans-serif; } </style><path d="M0,0h100v100h-100z"  stroke-width="1" fill="#fff" stroke="#fadf70"/><path fill="none" stroke="#fadf70" stroke-width="0.5" d="m10,0v100m10,-100v100m10,-100v100m10,-100v100m10,-100v100m10,-100v100m10,-100v100m10,-100v100m10,-100v100M0,10h100m-100,10h100m-100,10h100m-100,10h100m-100,10h100m-100,10h100m-100,10h100m-100,10h100m-100,10h100"/><text x="5" y="5.6" class="st0">1</text><text x="15" y="5.6" class="st0">2</text><text x="25" y="5.6" class="st0">3</text><text x="35" y="5.6" class="st0">4</text><text x="45" y="5.6" class="st0">5</text><text x="55" y="5.6" class="st0">6</text><text x="65" y="5.6" class="st0">7</text><text x="75" y="5.6" class="st0">8</text><text x="85" y="5.6" class="st0">9</text><text x="95" y="5.6" class="st0">10</text><text x="5" y="15.6" class="st0">11</text><text x="15" y="15.6" class="st0">12</text><text x="25" y="15.6" class="st0">13</text><text x="35" y="15.6" class="st0">14</text><text x="45" y="15.6" class="st0">15</text><text x="55" y="15.6" class="st0">16</text><text x="65" y="15.6" class="st0">17</text><text x="75" y="15.6" class="st0">18</text><text x="85" y="15.6" class="st0">19</text><text x="95" y="15.6" class="st0">20</text><text x="5" y="25.6" class="st0">21</text><text x="15" y="25.6" class="st0">22</text><text x="25" y="25.6" class="st0">23</text><text x="35" y="25.6" class="st0">24</text><text x="45" y="25.6" class="st0">25</text><text x="55" y="25.6" class="st0">26</text><text x="65" y="25.6" class="st0">27</text><text x="75" y="25.6" class="st0">28</text><text x="85" y="25.6" class="st0">29</text><text x="95" y="25.6" class="st0">30</text><text x="5" y="35.6" class="st0">31</text><text x="15" y="35.6" class="st0">32</text><text x="25" y="35.6" class="st0">33</text><text x="35" y="35.6" class="st0">34</text><text x="45" y="35.6" class="st0">35</text><text x="55" y="35.6" class="st0">36</text><text x="65" y="35.6" class="st0">37</text><text x="75" y="35.6" class="st0">38</text><text x="85" y="35.6" class="st0">39</text><text x="95" y="35.6" class="st0">40</text><text x="5" y="45.6" class="st0">41</text><text x="15" y="45.6" class="st0">42</text><text x="25" y="45.6" class="st0">43</text><text x="35" y="45.6" class="st0">44</text><text x="45" y="45.6" class="st0">45</text><text x="55" y="45.6" class="st0">46</text><text x="65" y="45.6" class="st0">47</text><text x="75" y="45.6" class="st0">48</text><text x="85" y="45.6" class="st0">49</text><text x="95" y="45.6" class="st0">50</text><text x="5" y="55.6" class="st0">51</text><text x="15" y="55.6" class="st0">52</text><text x="25" y="55.6" class="st0">53</text><text x="35" y="55.6" class="st0">54</text><text x="45" y="55.6" class="st0">55</text><text x="55" y="55.6" class="st0">56</text><text x="65" y="55.6" class="st0">57</text><text x="75" y="55.6" class="st0">58</text><text x="85" y="55.6" class="st0">59</text><text x="95" y="55.6" class="st0">60</text><text x="5" y="65.6" class="st0">61</text><text x="15" y="65.6" class="st0">62</text><text x="25" y="65.6" class="st0">63</text><text x="35" y="65.6" class="st0">64</text><text x="45" y="65.6" class="st0">65</text><text x="55" y="65.6" class="st0">66</text><text x="65" y="65.6" class="st0">67</text><text x="75" y="65.6" class="st0">68</text><text x="85" y="65.6" class="st0">69</text><text x="95" y="65.6" class="st0">70</text><text x="5" y="75.6" class="st0">71</text><text x="15" y="75.6" class="st0">72</text><text x="25" y="75.6" class="st0">73</text><text x="35" y="75.6" class="st0">74</text><text x="45" y="75.6" class="st0">75</text><text x="55" y="75.6" class="st0">76</text><text x="65" y="75.6" class="st0">77</text><text x="75" y="75.6" class="st0">78</text><text x="85" y="75.6" class="st0">79</text><text x="95" y="75.6" class="st0">80</text><text x="5" y="85.6" class="st0">81</text><text x="15" y="85.6" class="st0">82</text><text x="25" y="85.6" class="st0">83</text><text x="35" y="85.6" class="st0">84</text><text x="45" y="85.6" class="st0">85</text><text x="55" y="85.6" class="st0">86</text><text x="65" y="85.6" class="st0">87</text><text x="75" y="85.6" class="st0">88</text><text x="85" y="85.6" class="st0">89</text><text x="95" y="85.6" class="st0">90</text><text x="5" y="95.6" class="st0">91</text><text x="15" y="95.6" class="st0">92</text><text x="25" y="95.6" class="st0">93</text><text x="35" y="95.6" class="st0">94</text><text x="45" y="95.6" class="st0">95</text><text x="55" y="95.6" class="st0">96</text><text x="65" y="95.6" class="st0">97</text><text x="75" y="95.6" class="st0">98</text><text x="85" y="95.6" class="st0">99</text><text x="95" y="95.6" class="st0">100</text></svg>