<?xml version="1.0" encoding="utf-8"?>
<!-- Author: Jiachun Li -->
<svg id="BackgroundSVG" xmlns="http://www.w3.org/2000/svg" viewBox="0 0 900 1000">
    <defs>
      <path id="s" fill="none" stroke="#000" stroke-width="4" d="M-35,-7h28v-28m14,0v28h28m0,14h-28v28m-14,0v-28h-28"/>
      <path id="r" fill="none" stroke="#000" stroke-width="4" d="M-7,-35v28h-28m0,14h28v28"/>
      <path id="l" fill="none" stroke="#000" stroke-width="4" d="M7,-35v28h28m0,14h-28v28"/>
    </defs>
    <path d="M0,0h900v1000h-900z" fill="#f1cb9d" />
    <path d="M45,45h810v910h-810z" fill="none" stroke="black" stroke-width="3"/>
    <path d="M50,50h800v900h-800zM50,150h800M50,250h800M50,350h800M50,450h800M50,550h800M50,650h800M50,750h800M50,850h800
    M150,50v400M250,50v400M350,50v400M450,50v400M550,50v400M650,50v400M750,50v400
    M150,550v400M250,550v400M350,550v400M450,550v400M550,550v400M650,550v400M750,550v400
    M350,50l200,200M550,50l-200,200M350,750l200,200M550,750l-200,200" fill="none" stroke="#000" stroke-width="4"/>
    <use href="#s" x="150" y="250"/>
    <use href="#s" x="750" y="250"/>
    <use href="#s" x="150" y="750"/>
    <use href="#s" x="750" y="750"/>
    <use href="#s" x="250" y="350"/>
    <use href="#s" x="450" y="350"/>
    <use href="#s" x="650" y="350"/>
    <use href="#s" x="250" y="650"/>
    <use href="#s" x="450" y="650"/>
    <use href="#s" x="650" y="650"/>
    <use href="#l" x="50" y="350"/>
    <use href="#l" x="50" y="650"/>
    <use href="#r" x="850" y="350"/>
    <use href="#r" x="850" y="650"/>
    <text x="250" y="500" font-size="80" font-family="LiSu" text-anchor="middle" dominant-baseline="central" fill="#000000">楚 河</text>
    <text x="650" y="500" font-size="80" font-family="LiSu" text-anchor="middle" dominant-baseline="central" fill="#000000">汉 界</text>
</svg>
