<!-- reference: https://pixabay.com/zh/vectors/chess-chinese-xiangqi-board-game-32863/ -->

<?xml version="1.0" encoding="UTF-8"?>
<svg viewBox="0 0 809.58923 907.23767" xmlns="http://www.w3.org/2000/svg">
 <g transform="translate(29.684 21.307)">
  <path d="m-29.684-19.748v905.68h809.59v-907.24l-809.59 1.5588z" fill="#f1cb9d" fill-rule="evenodd"/>
  <path d="m15.685 18.911h711.67" fill="none" stroke="#000" stroke-linecap="square" stroke-width="4"/>
  <path d="m15.685 111.43h711.67" fill="none" stroke="#000" stroke-linecap="square" stroke-width="4"/>
  <path d="m15.685 203.95h711.67" fill="none" stroke="#000" stroke-linecap="square" stroke-width="4"/>
  <path d="m15.685 296.47h711.67" fill="none" stroke="#000" stroke-linecap="square" stroke-width="4"/>
  <path d="m16.609 388.99h710.75" fill="none" stroke="#000" stroke-linecap="square" stroke-width="4"/>
  <path d="m16.917 481.51h710.44" fill="none" stroke="#000" stroke-linecap="square" stroke-width="4"/>
  <path d="m16.917 574.04h710.44" fill="none" stroke="#000" stroke-linecap="square" stroke-width="4"/>
  <path d="m17.224 666.56h710.13" fill="none" stroke="#000" stroke-linecap="square" stroke-width="4"/>
  <path d="m17.737 759.08h709.62" fill="none" stroke="#000" stroke-linecap="square" stroke-width="4"/>
  <path d="m728.54 18.852 1.6727 831.63" fill="none" stroke="#000" stroke-linecap="square" stroke-width="4"/>
  <path d="m15.743 18.852 1.6727 831.53" fill="none" stroke="#000" stroke-linecap="square" stroke-width="4"/>
  <path d="m17.737 850.49h709.62" fill="none" stroke="#000" stroke-linecap="square" stroke-width="4"/>
  <path d="m461.24 18.852 1.6727 831.63" fill="none" stroke="#000" stroke-linecap="square" stroke-width="4"/>
  <path d="m193.94 18.852 1.6727 831.53" fill="none" stroke="#000" stroke-linecap="square" stroke-width="4"/>
  <path d="m372.14 18.852 1.6727 831.63" fill="none" stroke="#000" stroke-linecap="square" stroke-width="4"/>
  <path d="m104.84 18.852 1.6727 831.53" fill="none" stroke="#000" stroke-linecap="square" stroke-width="4"/>
  <path d="m550.34 18.852 1.6727 831.63" fill="none" stroke="#000" stroke-linecap="square" stroke-width="4"/>
  <path d="m283.04 18.852 1.6727 831.53" fill="none" stroke="#000" stroke-linecap="square" stroke-width="4"/>
  <path d="m639.44 18.852 1.6727 831.63" fill="none" stroke="#000" stroke-linecap="square" stroke-width="4"/>
  <path d="m18.79 390.24v90.462h708.62v-90.974l-708.62 0.51254z" fill="#f1cb9d" fill-rule="evenodd"/>
  <path d="m142.12 411.18c0.58156 0.17453 0.93051 1.1051 1.0469 2.7916-0.11636 1.5704-0.84335 2.8498-2.181 3.8385-1.6285 0.63979-3.2279 1.1923-4.7982 1.6575 1.2795 0.11636 2.6462 0.40716 4.1002 0.87239 0.98867 0.58163 1.483 1.3668 1.4831 2.3554-0.52348 4.013-1.3377 6.0195-2.4427 6.0195-0.23267-0.11629-0.61071-0.58156-1.1341-1.3958-0.63979-1.105-1.5122-2.2391-2.6172-3.4023 0.05813 6.5139 0.34893 10.992 0.87239 13.435-3e-5 0.63977-0.08727 1.1341-0.26171 1.4831 6.4556-1.6866 12.068-2.7044 16.837-3.0534l-0.08724-0.08724c-5e-5 -0.58156 0.17443-1.0468 0.52343-1.3958 0.11627-0.63972 0.17443-1.3376 0.17448-2.0937l0.08724-7.677-7.3281 6.194c-1.7448 1.3958-2.9371 2.0938-3.5768 2.0937-0.52348 3e-5 -1.3377-0.29077-2.4427-0.8724-0.69795-0.46524-1.0469-0.98867-1.0469-1.5703-3e-5 -0.34892 0.34892-0.72696 1.0469-1.1341 2.2682-1.3376 4.6527-3.3441 7.1536-6.0195 2.0937-2.21 3.7512-4.3619 4.9726-6.4557-2.1519 0.46532-4.4492 1.0469-6.8919 1.7448-0.69796 4e-5 -1.2505-1.105-1.6576-3.3151-0.29083-1.5702-0.43623-2.5299-0.43619-2.8789-4e-5 -0.75603 0.58155-1.1341 1.7448-1.1341 2.3263-0.05811 5.2052-0.37799 8.6367-0.95963l0.08724-11.254c-5e-5 -0.63969-0.11637-1.3376-0.34896-2.0937-5e-5 -0.29073 0.17443-0.58153 0.52343-0.87239 0.46523-0.34889 1.3376-0.52337 2.6172-0.52343 0.81417 6e-5 1.861 0.20362 3.1406 0.61067 0.93049 0.46534 1.3958 0.87246 1.3958 1.2214-6e-5 0.2327-0.11638 0.63981-0.34896 1.2213-0.40717 1.0469-0.69797 2.7336-0.87239 5.0599-0.11638 1.9193-0.23269 3.7513-0.34895 5.4961 1.9774-0.46522 4.0711-0.98865 6.2812-1.5703 1.5121-0.46522 2.5008-0.75602 2.9661-0.87239 0.58152 0.23269 0.9014 1.1923 0.95963 2.8789-0.05823 1.454-0.72706 2.7335-2.0065 3.8385-3.0244 0.9306-5.816 1.6285-8.375 2.0937-0.05822 1.1632-0.11638 2.2392-0.17448 3.2278 3.6058 0.52347 7.8514 1.8611 12.737 4.013 1.105 0.81427 1.6575 1.8611 1.6575 3.1406-0.40718 4.013-1.1923 6.0195-2.3554 6.0195-0.58166-0.11629-1.6576-0.90144-3.2278-2.3555-1.9775-1.9192-4.9436-3.9839-8.8984-6.194-0.11638 2.559-0.17454 4.5655-0.17448 6.0195-6e-5 1.1632 0.02902 2.181 0.08724 3.0534 0.17442 1.3377 0.26166 2.4427 0.26172 3.3151-6e-5 3e-5 -6e-5 0.02911 0 0.08724 6.1067 0.34899 10.265 1.9484 12.475 4.7982 1.6866 3.3733 2.5299 5.6996 2.5299 6.9791-8e-5 0.8724-0.55259 1.3086-1.6576 1.3086-0.40718 2e-5 -1.1342-0.02906-2.181-0.08724-1.1633-0.05814-2.5009-0.1163-4.013-0.17447-1.1632 1e-5 -2.8499-0.08723-5.0599-0.26172 0.0581 0.05817 0.08718 0.11633 0.08723 0.17448-0.05821 1.454-0.66889 2.6172-1.832 3.4896-2.2683 0.98872-4.3329 1.6285-6.194 1.9193-1.3377 0.23264-2.7335 0.61068-4.1875 1.1341-0.23269 2.9661-0.34901 4.9436-0.34896 5.9322 0.69786 0.34896 1.3667 0.69792 2.0065 1.0469 2.3263 1.1632 5.0889 2.2973 8.2877 3.4023 3.4313 0.81422 9.4218 2.0646 17.971 3.7513 3.9548 2.1519 5.9322 3.5477 5.9322 4.1875-0.17456 1.105-3.3442 1.6575-9.5091 1.6575-2.3846-1e-5 -6.921-0.17449-13.609-0.52343-1.1051-1e-5 -1.9775-0.61069-2.6172-1.832-1.0469-1.6866-2.5009-2.7917-4.362-3.3151-2.6172-0.75607-4.9145-1.832-6.8919-3.2278-3.5478-2.1519-8.4332-4.0421-14.656-5.6705l-1.832-0.61067c-0.46531 0.63975-0.95966 1.2504-1.4831 1.832-1.2795 1.7448-2.4427 4.5946-3.4896 8.5494-2.9662 1.8611-5.816 2.7916-8.5494 2.7916-3.0243-0.2908-4.5364-0.90148-4.5364-1.832-1e-5 -0.40712 0.66882-0.95963 2.0065-1.6575 3.9548-2.3264 7.3571-5.5542 10.207-9.6835 2.6172-3.7222 4.5655-7.3862 5.845-10.992 1.3376-1.8029 2.2682-2.7044 2.7916-2.7044 3.0242 1.105 4.5364 2.1519 4.5364 3.1406-0.81427 1.5122-1.7448 3.0534-2.7916 4.6237 0.69788 0.40712 1.5121 0.93056 2.4427 1.5703 2.3845 1.0469 4.5655 1.9774 6.5429 2.7916 0.17444-3.8385 0.31984-9.3636 0.4362-16.575-0.98875 0.1745-2.0065 0.37806-3.0534 0.61067-7.9097 1.7448-12.853 3.3151-14.831 4.7109-0.93057 1.2214-1.454 1.832-1.5703 1.832-0.75609 2e-5 -1.4831-0.61066-2.181-1.832-0.4653-0.87237-0.69793-1.6575-0.69791-2.3554-2e-5 -1.1632 1.0759-2.0065 3.2278-2.5299 3.3151-1.105 6.4847-2.0646 9.5091-2.8789-0.52347-0.17446-1.1923-0.46525-2.0065-0.87239-1.5703-0.58157-2.3555-1.3667-2.3554-2.3555-3e-5 -0.17445 0.31984-0.84328 0.95963-2.0065-3e-5 -0.87236 0.02905-3.1987 0.08723-6.9791l-8.8111 8.4622c-1.7448 1.7448-2.9952 2.6172-3.7513 2.6172-0.46529 2e-5 -1.1632-0.29077-2.0937-0.87239-0.69792-0.40709-1.0469-0.81421-1.0469-1.2214-1e-5 -0.46525 0.40711-0.93052 1.2214-1.3958 2.3264-1.5703 4.769-3.9257 7.3281-7.0664 1.7448-2.21 3.2278-4.3619 4.4492-6.4557-2.1519 0.40716-4.5074 1.076-7.0664 2.0065-0.69793 4e-5 -1.3086-1.2213-1.832-3.664-0.40713-1.8029-0.61069-2.9079-0.61067-3.3151-2e-5 -0.98866 0.61065-1.483 1.832-1.4831 2.7335-0.05811 6.223-0.43615 10.469-1.1341-2e-5 -2.559-2e-5 -5.2924 0-8.2005l-0.78515-6.0195c0.17445-0.81416 0.66881-1.3667 1.4831-1.6575 0.8142 0.11639 2.2973 0.6689 4.4492 1.6575 1.9192 1.1051 2.8788 1.9484 2.8789 2.5299-4e-5 0.17454-0.26176 0.43625-0.78515 0.78515-0.52347 0.29086-1.0469 1.0178-1.5703 2.181-0.29083 1.5704-0.55254 4.1875-0.78515 7.8515 1.105-0.23259 2.2973-0.46522 3.5768-0.69791 1.3958-0.46522 2.2973-0.72694 2.7044-0.78515m8.026 36.553c2.3845-0.23263 5.3215-0.63974 8.8111-1.2214 0.87234-0.23262 1.4248-0.34894 1.6576-0.34896 0.29073 0.05818 0.52337 0.29082 0.69791 0.69791 3.0242-1.2795 4.5364-2.908 4.5364-4.8854-6e-5 -1.1632-3.0244-1.7448-9.0729-1.7448-1.7448 2e-5 -3.5478 0.08726-5.4088 0.26171-0.40716 0.87242-0.69796 1.9774-0.87239 3.3151-0.11636 1.3958-0.23268 2.7044-0.34895 3.9258"/>
  <path d="m246.88 404.2c0.46525 6e-5 1.0468 0.84337 1.7448 2.5299 0.46525 2.0356 1.0178 3.4896 1.6575 4.362 1.5121 2.5591 2.2682 4.5946 2.2682 6.1067-2e-5 0.75612-0.26174 1.3086-0.78515 1.6575-0.81426 0.52348-1.7157 0.7852-2.7044 0.78516-1.6285 4e-5 -3.3151-0.66879-5.0599-2.0065-1.2795-0.93051-1.9193-1.8029-1.9193-2.6172-2e-5 -3.4314 0.72697-6.3102 2.181-8.6367 1.2795-1.4539 2.1519-2.1809 2.6172-2.181m-6.6302 20.676c0.81421 4e-5 1.5412 0.43623 2.181 1.3086 0.75606 0.7561 1.7448 1.4249 2.9661 2.0065 0.75605 0.46531 1.1341 1.1923 1.1341 2.181-2e-5 0.63979-0.3199 1.2214-0.95963 1.7448-1.9774 1.803-3.6641 4.1584-5.0599 7.0664-1.2795 3.1406-1.9193 5.9323-1.9193 8.375-1e-5 2.1519 0.4071 4.0421 1.2214 5.6705 1.2795 1.5122 2.9661 2.2682 5.0599 2.2682 0.69789 1e-5 1.7448-1.2504 3.1406-3.7513 2.5008-5.1762 4.2456-9.9743 5.2344-14.394 0.40708 2e-5 0.61064 0.49438 0.61067 1.4831-3e-5 4.013-0.4653 7.9097-1.3958 11.69-0.7561 3.5477-1.7448 6.3684-2.9661 8.4622-0.98874 1.5703-1.832 3.286-2.5299 5.1471-0.46529 1.9193-1.0469 2.8789-1.7448 2.8789-1.6285-1e-5 -3.5768-1.4249-5.845-4.2747-2.6754-3.4896-4.013-8.5494-4.013-15.18-1e-5 -4.6527 1.1632-11.283 3.4896-19.891 0.23262-1.8611 0.6979-2.7916 1.3958-2.7916m54.786-7.0664c-0.75614 4e-5 -1.7739 0.02912-3.0534 0.08724 0.05809 2.0356 0.11625 5.4089 0.17448 10.12-7e-5 6.6884-7e-5 12.795 0 18.32l0.08724 17.535c0.17441 1.1632 0.55244 2.8207 1.1341 4.9726-7e-5 1.3377-0.49443 2.0065-1.4831 2.0065-0.05822-1e-5 -0.5235-0.11633-1.3958-0.34896-0.8143-0.63976-2.7917-1.3377-5.9323-2.0937-3.3733-0.81423-7.1246-2.5008-11.254-5.0599-2.7335-1.5703-4.6528-3.1115-5.7578-4.6237 0.05812-0.17448 0.29076-0.2908 0.69792-0.34896 6.0485 1.8611 11.254 2.7916 15.616 2.7916 1.2213-0.11632 1.832-3.286 1.832-9.5091-6e-5 -6.0486-0.26178-16.604-0.78515-31.668-6e-5 -0.69787-0.0873-1.2504-0.26172-1.6575-2.3846 0.17452-5.089 0.37808-8.1132 0.61067-7.27 0.81428-13.551 2.0647-18.844 3.7513-0.52347 4e-5 -1.2505-0.63971-2.181-1.9193-1.1051-1.861-1.6576-2.937-1.6575-3.2278-3e-5 -0.69787 0.61064-1.1631 1.832-1.3958 3.5477-0.17443 8.1714-0.9305 13.871-2.2682 4.3619-0.69786 9.2182-1.5121 14.569-2.4427 4.0711-0.23258 7.4734-0.78509 10.207-1.6575 1.8029-0.6397 3.2278-0.95957 4.2747-0.95963 1.2213 6e-5 2.588 2.6754 4.1002 8.026-0.1164 0.87243-0.78523 1.3086-2.0065 1.3086l-5.6705-0.34895m-38.647 11.516 2.0065 0.34896c5.8741-1.6284 10.236-2.559 13.086-2.7916 2.1518-0.46524 3.286-0.69788 3.4023-0.69791 1.0468 3e-5 2.2972 0.61071 3.7513 1.832 1.1631 1.1051 1.7447 2.1519 1.7448 3.1406-6e-5 0.29083-0.26178 0.72703-0.78516 1.3086-0.6398 0.87242-1.803 4.2166-3.4896 10.032-0.40717 1.5122-0.81428 2.3555-1.2213 2.5299-0.75613 2e-5 -1.5704-0.34893-2.4427-1.0469-5.1762 1.0469-8.1133 1.832-8.8111 2.3554-0.58164 0.34897-1.0469 0.52345-1.3958 0.52343-1.2795-0.1163-2.8498-2.5881-4.7109-7.4153-1.454-3.9548-2.181-6.6011-2.181-7.9388-4e-5 -1.454 0.34892-2.1809 1.0469-2.181m7.677 11.167c0.75603 3e-5 2.8498-0.31985 6.2812-0.95963 0.34891-0.11629 0.63971-0.58157 0.87239-1.3958 0.34891-1.6284 0.52339-3.286 0.52344-4.9726-5e-5 -1.5703-0.349-2.3554-1.0469-2.3554-1.1632 3e-5 -2.7335 0.31991-4.7109 0.95963-2.5009 0.87242-3.7513 1.7157-3.7513 2.5299 0.11628 4.1293 0.72695 6.194 1.832 6.194"/>
  <path transform="scale(-1)" d="m-642.22-463.53c0.46525 5e-5 0.98869 0.87244 1.5703 2.6172 0.46524 2.0938 1.0468 3.6059 1.7448 4.5364 1.454 2.6172 2.1809 4.6819 2.181 6.194-4e-5 0.75612-0.26175 1.3377-0.78516 1.7448-0.7561 0.40715-1.6576 0.61071-2.7044 0.61067-1.5122 4e-5 -3.1697-0.63971-4.9726-1.9193-1.2795-0.93051-1.9193-1.8029-1.9193-2.6172-2e-5 -3.5477 0.69789-6.5138 2.0937-8.8984 1.3376-1.5121 2.2682-2.2682 2.7916-2.2682m-7.3281 21.025c0.6979 4e-5 1.3958 0.40715 2.0937 1.2214 0.81421 0.63979 1.8029 1.2505 2.9661 1.832 0.81421 0.46531 1.2213 1.1632 1.2214 2.0937-3e-5 0.52346-0.34898 1.0469-1.0469 1.5703-1.9774 1.5122-3.6641 3.5478-5.0599 6.1067-1.3377 2.7917-2.0065 5.2344-2.0065 7.3281-1e-5 2.0356 0.46526 3.7804 1.3958 5.2343 1.1632 1.3958 2.7916 2.0937 4.8854 2.0937 0.69788 0 1.7448-1.6285 3.1406-4.8854 2.559-6.8046 4.3038-13.057 5.2344-18.756 0.5234 3e-5 0.78512 0.43623 0.78515 1.3086-3e-5 4.9436-0.52347 9.7126-1.5703 14.307-0.69794 4.4783-1.6866 7.9678-2.9661 10.469-0.93058 1.9193-1.7157 3.9839-2.3555 6.194-0.52346 2.4427-1.1632 3.664-1.9193 3.664-1.5703-1e-5 -3.5477-1.454-5.9322-4.362-2.7917-3.5477-4.1875-8.6367-4.1875-15.267-1e-5 -4.0711 1.4249-10.003 4.2747-17.797 0.17446-1.5703 0.52342-2.3554 1.0469-2.3555m50.948-16.052c-1.3377 6e-5 -3.4896 0.08729-6.4557 0.26172-0.75614 1.3959-1.6576 2.8208-2.7044 4.2747h0.34896c0.69785 4e-5 1.0468 1.0469 1.0469 3.1406-6e-5 0.52348-0.55258 0.98875-1.6575 1.3958-0.98877 0.17452-1.9775 0.31992-2.9661 0.43619 0.0581 0.0582 0.08718 0.11636 0.08724 0.17448-0.2327 0.87243-0.43625 1.8321-0.61068 2.8789 1.6284-0.17444 3.0533-0.29076 4.2747-0.34896 3.7221-0.46523 5.6705-0.69787 5.845-0.69791 1.2213 4e-5 2.7043 0.58163 4.4492 1.7448 1.4539 1.1632 2.1809 2.2101 2.181 3.1406-8e-5 0.23267-0.37811 0.55255-1.1341 0.95963-0.87246 0.63978-2.4137 3.1406-4.6237 7.5026-0.5235 1.1632-1.0469 1.832-1.5703 2.0065-0.81429 2e-5 -1.7448-0.23262-2.7916-0.69792-3.0825 0.29083-5.7578 0.58162-8.026 0.87239-0.11637 1.2795-0.23269 2.53-0.34896 3.7513 3.3732-0.40709 7.328-0.93052 11.865-1.5703 0.69784 2e-5 1.0468 1.1632 1.0469 3.4896-7e-5 0.58161-0.58167 1.076-1.7448 1.4831-4.5946 0.81424-8.5786 1.3958-11.952 1.7448-0.23269 1.5122-0.46533 2.8498-0.69791 4.013 2.3263-0.29079 4.769-0.61067 7.3281-0.95963 4.0129-0.17447 7.4152-0.58159 10.207-1.2214 1.8029-0.58158 3.1987-0.87238 4.1875-0.87239 0.87231 1e-5 1.9192 2.2101 3.1406 6.6302-0.11639 0.46528-0.72707 0.69792-1.832 0.69791l-4.5364-0.34896c-2.4428 1e-5 -7.3281 0.20357-14.656 0.61068 1.2794 1.105 3.4023 3.1697 6.3684 6.194 1.8029 1.8611 4.769 3.6059 8.8984 5.2343 4.2456 1.5703 6.7173 2.8207 7.4153 3.7513-8e-5 0.93054-2.0647 1.3958-6.194 1.3958-2.8499-1e-5 -5.1472-0.05817-6.8919-0.17448-1.5122-0.17449-2.3846-0.61068-2.6172-1.3086-0.29086-1.1632-1.2505-2.3264-2.8789-3.4896-1.803-1.3958-3.4024-2.8498-4.7981-4.362-1.3377-1.5121-2.7045-2.6172-4.1002-3.3151-0.69796-0.34896-1.1342-0.78515-1.3086-1.3086-0.75612 1.6285-1.5994 2.9661-2.5299 4.013-1.2796 1.6866-2.0938 3.4605-2.4427 5.3216-2.7335 2.0356-5.467 3.6059-8.2005 4.7109-2.0938 0.4071-3.8967 0.61066-5.4088 0.61067-1.8611-1e-5 -2.7917-0.23265-2.7916-0.69791-3e-5 -0.11633 0.66881-0.5816 2.0065-1.3958 4.769-2.559 8.5494-5.4961 11.341-8.8111 1.2795-1.454 2.3263-3.2569 3.1406-5.4088-4.4202 0.46528-8.4332 1.105-12.039 1.9193-0.40715 0-0.93059-0.49435-1.5703-1.4831-0.81426-1.5121-1.2214-2.3845-1.2213-2.6172-4e-5 -0.34895 0.378-0.58159 1.1341-0.69791 3.5477-0.11631 8.1132-0.66883 13.697-1.6575 0.52338-0.11631 1.0177-0.20355 1.4831-0.26172 0.23259-1.2213 0.43615-2.5299 0.61067-3.9258-4e-5 -0.1163 0.02904-0.20354 0.08724-0.26172-2.2683 0.29081-4.7691 0.69793-7.5026 1.2214-0.58163 1e-5 -1.1341-0.63974-1.6575-1.9193-0.34899-0.93053-0.52347-1.832-0.52343-2.7044-4e-5 -0.46526 0.37799-0.69789 1.1341-0.69791 1.3958-0.05814 4.4782-0.34894 9.2474-0.87239 0.11627-1.1632 0.2035-2.3845 0.26171-3.664-2.3264 0.29082-3.8095 0.58161-4.4492 0.87239-1.2214 0.34897-2.1229 0.52345-2.7044 0.52343-1.2214-0.05814-2.7044-2.0356-4.4492-5.9323-1.454-3.2569-2.181-5.4379-2.181-6.5429-3e-5 -1.1632 0.378-1.7447 1.1341-1.7448l2.0065 0.34896c3.9548-0.8142 7.5025-1.454 10.643-1.9193l-0.08724-3.0534-1.0469 0.17448c-4e-5 0.0582-4e-5 0.11636 0 0.17448-4e-5 0.40715-0.72703 0.66887-2.181 0.78515-0.9306 4e-5 -2.0938-2.1228-3.4896-6.3684-0.23268-0.69787-0.43624-1.3958-0.61068-2.0937-2.0356 0.58164-3.8967 1.1923-5.5833 1.832-0.58163 5e-5 -1.2795-0.66878-2.0937-2.0065-0.93058-1.8029-1.3958-2.9079-1.3958-3.3151-3e-5 -0.52338 0.43616-0.87234 1.3086-1.0469 1.9192-0.05811 4.1874-0.26166 6.8046-0.61067-0.29083-2.2682-0.43623-4.5073-0.43619-6.7174-4e-5 -0.87233 0.55247-1.3085 1.6575-1.3086 0.52339 6e-5 1.6866 0.26178 3.4896 0.78515 1.3376 0.5235 2.0646 1.0469 2.181 1.5703-0.29085 1.803-0.4944 3.3151-0.61067 4.5364 3.6058-0.52338 7.5607-1.0759 11.865-1.6575 0.46521-1.861 0.98865-3.8385 1.5703-5.9323 0.58153-1.6284 1.3085-2.4426 2.181-2.4427 0.52337 6e-5 1.6284 0.46534 3.3151 1.3958 1.4539 1.0469 2.1809 1.7448 2.181 2.0937-7e-5 0.17454-0.23271 0.49441-0.69791 0.95963-0.63982 0.40717-1.3087 1.4831-2.0065 3.2278 1.1631-0.17442 2.21-0.37797 3.1406-0.61067 1.6284-0.52338 2.8788-0.78509 3.7513-0.78515 0.93048 6e-5 1.9774 2.181 3.1406 6.5429-0.05823 0.52348-0.61075 0.7852-1.6575 0.78515l-4.5364-0.34896m-21.897 6.1067c1.8029-0.17443 4.8853-0.55247 9.2473-1.1341 0.17442-1.2213 0.46522-2.6462 0.87239-4.2747-1.454 0.11637-3.0243 0.26176-4.7109 0.43619-2.0356 0.23269-3.9549 0.49441-5.7578 0.78515 0.11627 1.2796 0.23259 2.6754 0.34895 4.1875m-3.9258 18.32c1.0468 3e-5 2.9952-0.14537 5.845-0.43619-5e-5 -1.6284-5e-5 -3.286 0-4.9726l-0.08724-2.0065c-4.8273 0.87243-7.2409 1.7157-7.2408 2.5299 0.11628 3.257 0.61063 4.8854 1.4831 4.8854m12.388-8.375c-0.17453 1.5703-0.31993 3.3151-0.43619 5.2344-0.05822 0.69794-0.11638 1.3668-0.17448 2.0065 1.5702-0.17445 3.315-0.378 5.2343-0.61067 0.63969-0.05813 1.1631-0.40709 1.5703-1.0469 0.63969-1.1632 0.95957-2.3554 0.95963-3.5768-6e-5 -1.5703-0.49441-2.3554-1.4831-2.3554-1.5122 3e-5 -3.4024 0.11635-5.6705 0.34895"/>
  <path transform="scale(-1)" d="m-525.16-463.88 2.3554 0.34896c12.737-2.3263 22.246-3.664 28.527-4.013 4.769-0.52337 7.2699-0.78509 7.5026-0.78515 1.7447 6e-5 3.7803 0.61073 6.1067 1.832 1.9192 1.2214 2.8788 2.3264 2.8789 3.3151-7e-5 0.58165-0.5235 1.3377-1.5703 2.2682-1.3959 1.5704-3.7514 7.0955-7.0664 16.575-0.81429 2.5009-1.6576 3.8967-2.5299 4.1875-0.98877 3e-5 -2.1229-0.34893-3.4023-1.0469-0.93061 0.11635-1.803 0.23267-2.6172 0.34895 0.98866 0.81427 2.21 1.5703 3.664 2.2682 2.1518 1.454 4.2747 3.257 6.3685 5.4088 1.5702 1.9193 3.6058 3.6931 6.1067 5.3216 4.5364 3.1988 8.8983 5.7578 13.086 7.677 1.9192 0.81425 3.4022 1.9774 4.4492 3.4896-8e-5 0.93055-2.0066 1.3958-6.0195 1.3958-4.4202 1e-5 -8.724-0.29079-12.911-0.87239-1.8612-0.17447-2.9662-0.9887-3.3151-2.4427-0.40718-4.3038-2.0938-7.9969-5.0599-11.079-4.3038-4.4782-7.4154-6.8046-9.3346-6.9791-2.5591-0.29077-3.8386-0.9596-3.8385-2.0065-5e-5 -0.34892 0.02903-0.72696 0.08724-1.1341-1.3959 0.17451-2.6463 0.34899-3.7513 0.52344 0.11627 0.11635 0.17443 0.20359 0.17447 0.26171-4e-5 0.40715-0.43623 0.95966-1.3086 1.6576-3.1988 2.7917-5.9904 5.3507-8.375 7.677 1.1632 0.05819 2.8788 0.34898 5.1471 0.8724 1.5703 0.40713 2.3554 0.95965 2.3555 1.6575-4e-5 0.40713-0.17452 0.87241-0.52344 1.3958-0.58163 1.2795-1.6576 5.845-3.2278 13.697l0.43619 2.4427c-1.2214 2.7335-3.1406 4.9726-5.7578 6.7174-1.6285 1.454-4.5074 2.6462-8.6367 3.5768-0.75609-1e-5 -1.1341-0.23265-1.1341-0.69791 1.7448-1.3958 3.7222-3.286 5.9323-5.6705 2.21-2.2682 3.6349-4.7691 4.2747-7.5026 0.40709-2.5008 0.61064-5.8741 0.61067-10.12-3e-5 -0.87238-0.23266-1.9774-0.69791-3.3151l-0.43619-1.3086c-2.6172 2.6753-4.7691 5.0599-6.4557 7.1536-1.0469 0.93056-1.6285 1.9193-1.7448 2.9661-0.23266 0.69792-1.3377 1.5122-3.3151 2.4427-2.908 1.454-6.3685 2.181-10.381 2.181-1.6285 0-2.4427-0.37803-2.4427-1.1341 5.9322-2.9661 11.196-6.8919 15.79-11.777 3.7222-3.6059 6.8628-7.1827 9.4218-10.73-0.40715 0.11635-0.75611 0.17451-1.0469 0.17448-1.8611-0.11629-4.1003-4.1293-6.7174-12.039-2.0938-6.3975-3.1406-10.73-3.1406-12.999-2e-5 -1.4539 0.49434-2.1809 1.4831-2.181m10.469 20.327c1.1632 4e-5 3.315-0.26168 6.4557-0.78515-0.11636-1.4539-0.2036-3.286-0.26172-5.4961-1.2795 0.23268-2.6754 0.55256-4.1875 0.95963-0.58162 4e-5 -1.1051-1.105-1.5703-3.3151-0.29083-1.5703-0.43623-2.559-0.43619-2.9661-4e-5 -0.69787 0.58156-1.0468 1.7448-1.0469 1.2795 5e-5 2.7044-0.08719 4.2747-0.26172-0.0582-1.6866-0.08728-3.4314-0.08724-5.2343-6.0486 1.0469-9.0729 2.0938-9.0729 3.1406 0.23261 10.003 1.2795 15.005 3.1406 15.005m13.173-19.367c-0.11636 0.87245-0.2036 1.9484-0.26171 3.2278-5e-5 0.87244-5e-5 1.6867 0 2.4427 1.1631-0.17443 2.4136-0.34891 3.7513-0.52343 1.105-0.23259 1.832-0.37799 2.181-0.4362 0.58155 0.17453 0.9305 0.95968 1.0469 2.3555-0.05821 1.454-0.66888 2.6172-1.832 3.4896-1.8612 0.58164-3.635 1.0469-5.3216 1.3958-0.11636 2.4427-0.17452 4.3329-0.17448 5.6705 1.9192-0.29076 4.013-0.63971 6.2812-1.0469 1.2795-0.2326 2.2391-1.3085 2.8789-3.2278 1.3376-3.5477 2.0064-7.2408 2.0065-11.079-5e-5 -1.9192-0.72705-2.8788-2.181-2.8789-2.2683 5e-5 -5.0599 0.20361-8.375 0.61067m5.2344 31.232c0.98866 2e-5 2.1518 0.23266 3.4896 0.69791 0.98866 0.52346 1.483 0.95965 1.4831 1.3086-5e-5 0.23266-0.11637 0.63978-0.34895 1.2214-0.40717 0.93057-0.72705 2.4718-0.95963 4.6237-0.58165 11.574-0.87245 19.309-0.87239 23.206-6e-5 1.105 0.02902 2.0646 0.08724 2.8789 0.17442 1.1632 0.26166 2.181 0.26171 3.0534-0.05821 0.6979-0.72704 1.0468-2.0065 1.0469-2.3264-2e-5 -3.6059-0.34897-3.8385-1.0469-5e-5 -0.58161 0.08719-1.076 0.26171-1.4831 0.05812-0.52345 0.0872-1.1923 0.08724-2.0065l-0.69791-29.661c-5e-5 -0.63974-0.26176-1.3667-0.78515-2.181-5e-5 -0.34894 0.26167-0.66881 0.78515-0.95963 0.58155-0.46525 1.5993-0.69789 3.0534-0.69791"/>
  <path d="m187.84 543.94v23.238h-23.58" fill="none" stroke="#000" stroke-width="4"/>
  <path d="m224.78 567.16h-23.238v-23.034" fill="none" stroke="#000" stroke-width="4"/>
  <path d="m201.2 603.56v-23.238h23.58" fill="none" stroke="#000" stroke-width="4"/>
  <path d="m164.26 580.33h23.238v23.034" fill="none" stroke="#000" stroke-width="4"/>
  <g transform="translate(-.59649)" fill="none" stroke="#000" stroke-width="4">
   <path d="m47.783 567.16h-23.238v-23.034"/>
   <path d="m24.203 603.56v-23.238h23.58"/>
  </g>
  <g transform="translate(-88.5 92.616)" fill="none" stroke="#000" stroke-width="4">
   <path d="m187.84 543.94v23.238h-23.58"/>
   <path d="m224.78 567.16h-23.238v-23.034"/>
   <path d="m201.2 603.56v-23.238h23.58"/>
   <path d="m164.26 580.33h23.238v23.034"/>
  </g>
  <g transform="translate(446.61 92.616)" fill="none" stroke="#000" stroke-width="4">
   <path d="m187.84 543.94v23.238h-23.58"/>
   <path d="m224.78 567.16h-23.238v-23.034"/>
   <path d="m201.2 603.56v-23.238h23.58"/>
   <path d="m164.26 580.33h23.238v23.034"/>
  </g>
  <g transform="translate(179.34 .62834)" fill="none" stroke="#000" stroke-width="4">
   <path d="m187.84 543.94v23.238h-23.58"/>
   <path d="m224.78 567.16h-23.238v-23.034"/>
   <path d="m201.2 603.56v-23.238h23.58"/>
   <path d="m164.26 580.33h23.238v23.034"/>
  </g>
  <g transform="translate(357.25 .62834)" fill="none" stroke="#000" stroke-width="4">
   <path d="m187.84 543.94v23.238h-23.58"/>
   <path d="m224.78 567.16h-23.238v-23.034"/>
   <path d="m201.2 603.56v-23.238h23.58"/>
   <path d="m164.26 580.33h23.238v23.034"/>
  </g>
  <g transform="matrix(-1 0 0 -1 747.63 1147.7)" fill="none" stroke="#000" stroke-width="4">
   <path d="m47.783 567.16h-23.238v-23.034"/>
   <path d="m24.203 603.56v-23.238h23.58"/>
  </g>
  <g transform="matrix(-1 0 0 -1 747.03 870.63)" fill="none" stroke="#000" stroke-width="4">
   <path d="m187.84 543.94v23.238h-23.58"/>
   <path d="m224.78 567.16h-23.238v-23.034"/>
   <path d="m201.2 603.56v-23.238h23.58"/>
   <path d="m164.26 580.33h23.238v23.034"/>
   <g transform="translate(-.59649)">
    <path d="m47.783 567.16h-23.238v-23.034"/>
    <path d="m24.203 603.56v-23.238h23.58"/>
   </g>
   <g transform="translate(-88.5 92.616)">
    <path d="m187.84 543.94v23.238h-23.58"/>
    <path d="m224.78 567.16h-23.238v-23.034"/>
    <path d="m201.2 603.56v-23.238h23.58"/>
    <path d="m164.26 580.33h23.238v23.034"/>
   </g>
   <g transform="translate(446.61 92.616)">
    <path d="m187.84 543.94v23.238h-23.58"/>
    <path d="m224.78 567.16h-23.238v-23.034"/>
    <path d="m201.2 603.56v-23.238h23.58"/>
    <path d="m164.26 580.33h23.238v23.034"/>
   </g>
   <g transform="translate(179.34 .62834)">
    <path d="m187.84 543.94v23.238h-23.58"/>
    <path d="m224.78 567.16h-23.238v-23.034"/>
    <path d="m201.2 603.56v-23.238h23.58"/>
    <path d="m164.26 580.33h23.238v23.034"/>
   </g>
   <g transform="translate(357.25 .62834)">
    <path d="m187.84 543.94v23.238h-23.58"/>
    <path d="m224.78 567.16h-23.238v-23.034"/>
    <path d="m201.2 603.56v-23.238h23.58"/>
    <path d="m164.26 580.33h23.238v23.034"/>
   </g>
   <g transform="matrix(-1 0 0 -1 747.63 1147.7)">
    <path d="m47.783 567.16h-23.238v-23.034"/>
    <path d="m24.203 603.56v-23.238h23.58"/>
   </g>
  </g>
  <path transform="translate(-29.684 -21.307)" d="m312.33 39.905 178.53 184.87" fill="none" stroke="#000" stroke-width="4"/>
  <path transform="translate(-29.684 -21.307)" d="m313.13 224.77 177.74-184.47" fill="none" stroke="#000" stroke-width="4"/>
  <path d="m284.21 668.01 179.79 182.77" fill="none" stroke="#000" stroke-width="4"/>
  <path d="m285.84 849.53 176.07-181.12" fill="none" stroke="#000" stroke-width="4"/>
 </g>
</svg>
