<!-- Author: Jiachun Li -->

<svg xmlns="http://www.w3.org/2000/svg" version="1.1" width="900" height="1000">
  <g>
    <rect x="0" y="0" width="900" height="1000" fill="#f1cb9d" />
    <rect x="45" y="45" width="810" height="910" fill="#f1cb9d" stroke="black" stroke-width="3"/>
    <rect x="50" y="50" width="800" height="900" fill="#f1cb9d" stroke="black" stroke-width="4" />
    <!-- horizontal line -->
    <line x1="50" y1="150" x2="850" y2="150" stroke="black" stroke-width="4" />
    <line x1="50" y1="250" x2="850" y2="250" stroke="black" stroke-width="4" />
    <line x1="50" y1="350" x2="850" y2="350" stroke="black" stroke-width="4" />
    <line x1="50" y1="450" x2="850" y2="450" stroke="black" stroke-width="4" />
    <line x1="50" y1="550" x2="850" y2="550" stroke="black" stroke-width="4" />
    <line x1="50" y1="650" x2="850" y2="650" stroke="black" stroke-width="4" />
    <line x1="50" y1="750" x2="850" y2="750" stroke="black" stroke-width="4" />
    <line x1="50" y1="850" x2="850" y2="850" stroke="black" stroke-width="4" />
    <!-- vertical line -->
    <line x1="150" y1="50" x2="150" y2="450" stroke="black" stroke-width="4" />
    <line x1="150" y1="550" x2="150" y2="950" stroke="black" stroke-width="4" />
    <line x1="250" y1="50" x2="250" y2="450" stroke="black" stroke-width="4" />
    <line x1="250" y1="550" x2="250" y2="950" stroke="black" stroke-width="4" />
    <line x1="350" y1="50" x2="350" y2="450" stroke="black" stroke-width="4" />
    <line x1="350" y1="550" x2="350" y2="950" stroke="black" stroke-width="4" />
    <line x1="450" y1="50" x2="450" y2="450" stroke="black" stroke-width="4" />
    <line x1="450" y1="550" x2="450" y2="950" stroke="black" stroke-width="4" />
    <line x1="550" y1="50" x2="550" y2="450" stroke="black" stroke-width="4" />
    <line x1="550" y1="550" x2="550" y2="950" stroke="black" stroke-width="4" />
    <line x1="650" y1="50" x2="650" y2="450" stroke="black" stroke-width="4" />
    <line x1="650" y1="550" x2="650" y2="950" stroke="black" stroke-width="4" />
    <line x1="750" y1="50" x2="750" y2="450" stroke="black" stroke-width="4" />
    <line x1="750" y1="550" x2="750" y2="950" stroke="black" stroke-width="4" />
    <!-- diagonal -->
    <line x1="350" y1="50" x2="550" y2="250" stroke="black" stroke-width="4" />
    <line x1="550" y1="50" x2="350" y2="250" stroke="black" stroke-width="4" />
    <line x1="350" y1="750" x2="550" y2="950" stroke="black" stroke-width="4" />
    <line x1="550" y1="750" x2="350" y2="950" stroke="black" stroke-width="4" />
    <!-- star -->
    <g transform="translate(150 250)">
      <path d="M -35 -7 L -7 -7 L -7 -35" stroke="black" stroke-width="4" fill="none" />
      <path d="M 7 -35 L 7 -7 L 35 -7" stroke="black" stroke-width="4" fill="none" />
      <path d="M 35 7 L 7 7 L 7 35" stroke="black" stroke-width="4" fill="none" />
      <path d="M -7 35 L -7 7 L -35 7" stroke="black" stroke-width="4" fill="none" />
    </g>
    <g transform="translate(750 250)">
      <path d="M -35 -7 L -7 -7 L -7 -35" stroke="black" stroke-width="4" fill="none" />
      <path d="M 7 -35 L 7 -7 L 35 -7" stroke="black" stroke-width="4" fill="none" />
      <path d="M 35 7 L 7 7 L 7 35" stroke="black" stroke-width="4" fill="none" />
      <path d="M -7 35 L -7 7 L -35 7" stroke="black" stroke-width="4" fill="none" />
    </g>
    <g transform="translate(250 350)">
      <path d="M -35 -7 L -7 -7 L -7 -35" stroke="black" stroke-width="4" fill="none" />
      <path d="M 7 -35 L 7 -7 L 35 -7" stroke="black" stroke-width="4" fill="none" />
      <path d="M 35 7 L 7 7 L 7 35" stroke="black" stroke-width="4" fill="none" />
      <path d="M -7 35 L -7 7 L -35 7" stroke="black" stroke-width="4" fill="none" />
    </g>
    <g transform="translate(450 350)">
      <path d="M -35 -7 L -7 -7 L -7 -35" stroke="black" stroke-width="4" fill="none" />
      <path d="M 7 -35 L 7 -7 L 35 -7" stroke="black" stroke-width="4" fill="none" />
      <path d="M 35 7 L 7 7 L 7 35" stroke="black" stroke-width="4" fill="none" />
      <path d="M -7 35 L -7 7 L -35 7" stroke="black" stroke-width="4" fill="none" />
    </g>
    <g transform="translate(650 350)">
      <path d="M -35 -7 L -7 -7 L -7 -35" stroke="black" stroke-width="4" fill="none" />
      <path d="M 7 -35 L 7 -7 L 35 -7" stroke="black" stroke-width="4" fill="none" />
      <path d="M 35 7 L 7 7 L 7 35" stroke="black" stroke-width="4" fill="none" />
      <path d="M -7 35 L -7 7 L -35 7" stroke="black" stroke-width="4" fill="none" />
    </g>
    <g transform="translate(150 750)">
      <path d="M -35 -7 L -7 -7 L -7 -35" stroke="black" stroke-width="4" fill="none" />
      <path d="M 7 -35 L 7 -7 L 35 -7" stroke="black" stroke-width="4" fill="none" />
      <path d="M 35 7 L 7 7 L 7 35" stroke="black" stroke-width="4" fill="none" />
      <path d="M -7 35 L -7 7 L -35 7" stroke="black" stroke-width="4" fill="none" />
    </g>
    <g transform="translate(750 750)">
      <path d="M -35 -7 L -7 -7 L -7 -35" stroke="black" stroke-width="4" fill="none" />
      <path d="M 7 -35 L 7 -7 L 35 -7" stroke="black" stroke-width="4" fill="none" />
      <path d="M 35 7 L 7 7 L 7 35" stroke="black" stroke-width="4" fill="none" />
      <path d="M -7 35 L -7 7 L -35 7" stroke="black" stroke-width="4" fill="none" />
    </g>
    <g transform="translate(250 650)">
      <path d="M -35 -7 L -7 -7 L -7 -35" stroke="black" stroke-width="4" fill="none" />
      <path d="M 7 -35 L 7 -7 L 35 -7" stroke="black" stroke-width="4" fill="none" />
      <path d="M 35 7 L 7 7 L 7 35" stroke="black" stroke-width="4" fill="none" />
      <path d="M -7 35 L -7 7 L -35 7" stroke="black" stroke-width="4" fill="none" />
    </g>
    <g transform="translate(450 650)">
      <path d="M -35 -7 L -7 -7 L -7 -35" stroke="black" stroke-width="4" fill="none" />
      <path d="M 7 -35 L 7 -7 L 35 -7" stroke="black" stroke-width="4" fill="none" />
      <path d="M 35 7 L 7 7 L 7 35" stroke="black" stroke-width="4" fill="none" />
      <path d="M -7 35 L -7 7 L -35 7" stroke="black" stroke-width="4" fill="none" />
    </g>
    <g transform="translate(650 650)">
      <path d="M -35 -7 L -7 -7 L -7 -35" stroke="black" stroke-width="4" fill="none" />
      <path d="M 7 -35 L 7 -7 L 35 -7" stroke="black" stroke-width="4" fill="none" />
      <path d="M 35 7 L 7 7 L 7 35" stroke="black" stroke-width="4" fill="none" />
      <path d="M -7 35 L -7 7 L -35 7" stroke="black" stroke-width="4" fill="none" />
    </g>
    <g transform="translate(50 350)">
      <path d="M 7 -35 L 7 -7 L 35 -7" stroke="black" stroke-width="4" fill="none" />
      <path d="M 35 7 L 7 7 L 7 35" stroke="black" stroke-width="4" fill="none" />
    </g>
    <g transform="translate(50 650)">
      <path d="M 7 -35 L 7 -7 L 35 -7" stroke="black" stroke-width="4" fill="none" />
      <path d="M 35 7 L 7 7 L 7 35" stroke="black" stroke-width="4" fill="none" />
    </g>
    <g transform="translate(850 350)">
      <path d="M -35 -7 L -7 -7 L -7 -35" stroke="black" stroke-width="4" fill="none" />
      <path d="M -7 35 L -7 7 L -35 7" stroke="black" stroke-width="4" fill="none" />
    </g>
    <g transform="translate(850 650)">
      <path d="M -35 -7 L -7 -7 L -7 -35" stroke="black" stroke-width="4" fill="none" />
      <path d="M -7 35 L -7 7 L -35 7" stroke="black" stroke-width="4" fill="none" />
    </g>
    <!-- text -->
    <text x="250" y="500" font-size="80" font-family="LiSu" text-anchor="middle" dominant-baseline="central" fill="#000000">楚 河</text>
    <text x="650" y="500" font-size="80" font-family="LiSu" text-anchor="middle" dominant-baseline="central" fill="#000000">汉 界</text>
 </g>
</svg>