<svg version="1.1" viewBox="0.0 0.0 192.0 192.0" fill="none" stroke="none" stroke-linecap="square" stroke-miterlimit="10" xmlns:xlink="http://www.w3.org/1999/xlink" xmlns="http://www.w3.org/2000/svg"><clipPath id="p.0"><path d="m0 0l192.0 0l0 192.0l-192.0 0l0 -192.0z" clip-rule="nonzero"/></clipPath><g clip-path="url(#p.0)"><path fill="#000000" fill-opacity="0.0" d="m0 0l192.0 0l0 192.0l-192.0 0z" fill-rule="evenodd"/><path fill="#ffffff" d="m40.0 192.0l0 -102.83465l112.0 0l0 102.83465z" fill-rule="evenodd"/><path fill="#ffffff" d="m86.11024 152.0l-86.11024 0l0 -112.0l86.11024 0z" fill-rule="evenodd"/><path fill="#ffffff" d="m152.0 86.18898l0 5.4488144c0 12.250076 -4.8663177 23.998428 -13.528442 32.660538c-8.662109 8.662117 -20.410454 13.528435 -32.660538 13.528435l-46.188972 0c-4.5013428E-4 0 -8.163452E-4 -3.6621094E-4 -8.163452E-4 -8.087158E-4l8.163452E-4 -97.82596c0 -4.5013428E-4 3.6621094E-4 -8.163452E-4 8.163452E-4 -8.163452E-4l46.188156 8.163452E-4c25.509476 0 46.18898 20.679508 46.18898 46.18898z" fill-rule="evenodd"/></g></svg>