<svg version="1.1" viewBox="0.0 0.0 768.0 768.0" fill="none" stroke="none" stroke-linecap="square" stroke-miterlimit="10" xmlns:xlink="http://www.w3.org/1999/xlink" xmlns="http://www.w3.org/2000/svg"><clipPath id="p.0"><path d="m0 0l768.0 0l0 768.0l-768.0 0l0 -768.0z" clip-rule="nonzero"/></clipPath><g clip-path="url(#p.0)"><path fill="#000000" fill-opacity="0.0" d="m0 0l768.0 0l0 768.0l-768.0 0z" fill-rule="evenodd"/><path fill="#adc178" d="m192.29134 0l0 192.28346l-192.28346 0l0 -192.28346z" fill-rule="evenodd"/><path fill="#dde5b6" d="m384.5748 0l0 192.28346l-192.28346 0l0 -192.28346z" fill-rule="evenodd"/><path fill="#dde5b6" d="m192.29134 192.28346l0 192.28346l-192.28346 0l0 -192.28346z" fill-rule="evenodd"/><path fill="#94c8ea" d="m384.5748 192.28346l0 192.28346l-192.28346 0l0 -192.28346z" fill-rule="evenodd"/><path fill="#adc178" d="m192.29134 384.56693l0 192.28348l-192.28346 0l0 -192.28348z" fill-rule="evenodd"/><path fill="#94c8ea" d="m384.5748 367.12598l0 209.7323l-192.28346 0l0 -209.7323z" fill-rule="evenodd"/><path fill="#dde5b6" d="m192.29134 576.8504l0 192.28345l-192.28346 0l0 -192.28345z" fill-rule="evenodd"/><path fill="#adc178" d="m384.5748 576.8504l0 192.28345l-192.28346 0l0 -192.28345z" fill-rule="evenodd"/><path fill="#adc178" d="m576.8583 0l0 192.28346l-192.28348 0l0 -192.28346z" fill-rule="evenodd"/><path fill="#dde5b6" d="m769.1417 0l0 192.28346l-192.28345 0l0 -192.28346z" fill-rule="evenodd"/><path fill="#dde5b6" d="m576.8583 192.28346l0 192.28346l-192.28348 0l0 -192.28346z" fill-rule="evenodd"/><path fill="#adc178" d="m769.1417 192.28346l0 192.28346l-192.28345 0l0 -192.28346z" fill-rule="evenodd"/><path fill="#adc178" d="m576.8583 384.56693l0 192.28348l-192.28348 0l0 -192.28348z" fill-rule="evenodd"/><path fill="#dde5b6" d="m769.1417 384.56693l0 192.28348l-192.28345 0l0 -192.28348z" fill-rule="evenodd"/><path fill="#dde5b6" d="m576.8583 576.8504l0 192.28345l-192.28348 0l0 -192.28345z" fill-rule="evenodd"/><path fill="#adc178" d="m769.1417 576.8504l0 192.28345l-192.28345 0l0 -192.28345z" fill-rule="evenodd"/><path fill="#595e3f" d="m202.43307 96.12861c0 -45.88747 38.50351 -83.08662 86.0 -83.08662c22.808624 0 44.683044 8.753743 60.811188 24.335506c16.128113 15.58176 25.188812 36.715164 25.188812 58.751106c0 45.887474 -38.50351 83.08662 -86.0 83.08662c-47.49649 0 -86.0 -37.199142 -86.0 -83.08662z" fill-rule="evenodd"/><path stroke="#595e3f" stroke-width="1.0" stroke-linejoin="round" stroke-linecap="butt" d="m202.43307 96.12861c0 -45.88747 38.50351 -83.08662 86.0 -83.08662c22.808624 0 44.683044 8.753743 60.811188 24.335506c16.128113 15.58176 25.188812 36.715164 25.188812 58.751106c0 45.887474 -38.50351 83.08662 -86.0 83.08662c-47.49649 0 -86.0 -37.199142 -86.0 -83.08662z" fill-rule="evenodd"/><path fill="#000000" d="m204.50656 106.04199c0 -40.4255 37.445923 -73.196846 83.63779 -73.196846c46.191895 0 83.63782 32.771347 83.63782 73.196846c0 40.425507 -37.445923 73.19685 -83.63782 73.19685c-46.191864 0 -83.63779 -32.771347 -83.63779 -73.19685z" fill-rule="evenodd"/><path stroke="#000000" stroke-width="1.0" stroke-linejoin="round" stroke-linecap="butt" d="m204.50656 106.04199c0 -40.4255 37.445923 -73.196846 83.63779 -73.196846c46.191895 0 83.63782 32.771347 83.63782 73.196846c0 40.425507 -37.445923 73.19685 -83.63782 73.19685c-46.191864 0 -83.63779 -32.771347 -83.63779 -73.19685z" fill-rule="evenodd"/><path fill="#274e13" d="m602.8406 652.3429c-1.3340454 -11.278259 3.0460205 -22.443054 11.281738 -28.756775c8.235657 -6.3136597 18.882568 -6.6690063 27.42279 -0.91516113c3.0252075 -6.557617 8.562256 -11.085205 14.936218 -12.213257c6.3739624 -1.1280518 12.836304 1.27594 17.43219 6.4848022c2.5770874 -5.9455566 7.637268 -9.940247 13.384888 -10.566467c5.7476196 -0.62628174 11.369263 2.2045288 14.870117 7.487915c4.655884 -6.302307 12.063538 -8.955872 19.017578 -6.812378c6.9541016 2.1434326 12.205566 8.698853 13.482056 16.829712c5.7042847 1.789856 10.455811 6.339966 13.026978 12.474731c2.571167 6.1347656 2.7097168 13.252319 0.3798828 19.513794c5.6170044 8.40979 6.930969 19.615784 3.451538 29.436035c-3.4794922 9.820251 -11.229553 16.779419 -20.358154 18.280457c-0.064331055 9.216675 -4.458374 17.673767 -11.488403 22.111572c-7.0300293 4.437805 -15.598389 4.16333 -22.402344 -0.71765137c-2.8981323 11.038574 -11.05542 19.160583 -20.94757 20.857178c-9.892212 1.6965332 -19.74591 -3.336609 -25.303955 -12.924866c-6.8130493 4.726074 -14.988098 6.0875244 -22.681091 3.7771606c-7.692993 -2.3103027 -14.255859 -8.097778 -18.20819 -16.056946c-6.962036 0.93725586 -13.693359 -3.2121582 -16.853271 -10.388916c-3.159912 -7.176697 -2.0756836 -15.852905 2.7145386 -21.722717c-6.210327 -4.204834 -9.379211 -12.548645 -7.854187 -20.68042c1.5250244 -8.131775 7.3983765 -14.208862 14.557312 -15.062317z" fill-rule="evenodd"/><path fill="#000000" fill-opacity="0.0" d="m595.9999 688.5203c2.930725 1.9842529 6.316345 2.8843994 9.702332 2.5794678m4.4348755 29.532898c1.4561157 -0.19598389 2.8833618 -0.611084 4.244995 -1.2345581m36.642212 13.513794c-1.0241089 -1.7667236 -1.8815308 -3.654663 -2.5577393 -5.631531m48.811035 -2.3010864c0.52838135 -2.0125122 0.87072754 -4.0838013 1.0213623 -6.1793213m32.868103 -15.213867c0.06854248 -9.812561 -4.776306 -18.796997 -12.453491 -23.0943m29.359924 -24.621155c-1.2432861 3.3413696 -3.1412964 6.30542 -5.545227 8.659851m-7.8604126 -40.64923c0.21185303 1.3493042 0.3098755 2.718933 0.29278564 4.0897827m-32.79187 -14.106689c-1.161438 1.5720825 -2.1182861 3.3289185 -2.8407593 5.2156982m-25.41449 -2.1378174c-0.6189575 1.4279175 -1.0811157 2.9389648 -1.3759155 4.498169m-30.992981 1.2304077c1.8071289 1.2175293 3.4789429 2.6829224 4.9786987 4.3640137m-43.68274 25.308044c0.18389893 1.5544434 0.47442627 3.0897217 0.8688965 4.5914307" fill-rule="evenodd"/><path fill="#274e13" d="m645.8558 606.60876c7.5947266 -8.443909 18.874268 -12.518982 29.052246 -10.496033c10.17804 2.0230103 17.469482 9.789246 18.780396 20.003235c6.923645 -2.0534058 13.979004 -0.87994385 19.031982 3.1655884c5.0530396 4.045471 7.510193 10.487793 6.628235 17.378235c6.16803 -1.9863281 12.508362 -0.8195801 16.771057 3.0863647c4.2626343 3.9058838 5.8444824 9.998047 4.184082 16.114746c7.807617 -0.6595459 14.688904 3.156128 17.66632 9.796082c2.977417 6.6398926 1.5161743 14.911438 -3.7514648 21.235413c2.418518 5.4674683 2.1342773 12.040222 -0.7792969 18.02002c-2.9135132 5.9798584 -8.170532 10.780151 -14.412781 13.160645c-2.6135254 9.769775 -10.167175 18.150879 -19.842163 22.015625c-9.674988 3.864746 -20.01764 2.6325684 -27.168335 -3.2368164c-6.9682007 6.032837 -16.222229 8.310913 -24.19519 5.956238c-7.9729004 -2.3547363 -13.4198 -8.974548 -14.241089 -17.307922c-10.206909 5.1054688 -21.692017 4.3345337 -29.493408 -1.9796143c-7.8013916 -6.314148 -10.520508 -17.039612 -6.982483 -27.542603c-8.046448 -2.0014648 -14.463135 -7.246399 -17.802612 -14.551697c-3.3395386 -7.305298 -3.3205566 -16.055542 0.052612305 -24.276978c-5.2976074 -4.6133423 -6.6206665 -12.409424 -3.312622 -19.519165c3.3080444 -7.10968 10.543091 -12.019531 18.114319 -12.292786c-0.9376831 -7.441162 3.241394 -15.327637 10.358093 -19.547058c7.116699 -4.2193604 15.55835 -3.8154907 20.922913 1.0010986z" fill-rule="evenodd"/><path fill="#000000" fill-opacity="0.0" d="m614.15735 625.33813c0.44250488 3.5115356 1.9998169 6.649536 4.4629517 8.992798m-19.266174 22.818481c1.1079712 0.96484375 2.3615112 1.7634888 3.7283936 2.3753052m14.020569 36.451477c0.6519165 -1.9353027 1.5048828 -3.8252563 2.5442505 -5.6377563m33.933105 35.161133c1.8609009 -0.93078613 3.6431885 -2.0401611 5.3171997 -3.3096313m33.117676 14.660889c7.418762 -6.4229126 10.973572 -15.991516 9.137573 -24.595947m37.87207 5.817688c-3.3311768 1.2703247 -6.81073 1.7997437 -10.165955 1.5466919m25.359375 -32.72705c-0.8741455 1.0494385 -1.838623 2.0267944 -2.880066 2.918457m-11.034668 -33.94928c-1.9476318 0.16448975 -3.8990479 0.60461426 -5.793579 1.3066406m-15.161194 -20.508484c-1.4813843 0.47705078 -2.921753 1.126709 -4.287903 1.934021m-21.372742 -22.478088c0.27734375 2.161255 0.27923584 4.3844604 0.005493164 6.6206665m-47.83795 -16.12738c-1.0467529 1.1638184 -2.008728 2.3950806 -2.8769531 3.682373" fill-rule="evenodd"/><path fill="#38761d" d="m638.05115 629.3701c4.2961426 -9.233765 12.187195 -16.230347 20.324707 -18.020813c8.137512 -1.7904663 15.094299 1.939148 17.918457 9.606262c4.923584 -3.939209 10.523682 -5.3619385 15.106262 -3.8377686c4.5826416 1.5241089 7.609558 5.816101 8.165222 11.577698c4.3582764 -3.6339111 9.410767 -4.8233643 13.364624 -3.1463623c3.9538574 1.677063 6.2495117 5.9832764 6.0723267 11.390625c5.8477173 -3.1281738 11.786255 -2.3963013 15.245911 1.8789062c3.4596558 4.2752075 3.8190918 11.325867 0.9227905 18.101196c2.8234253 3.531372 3.7790527 8.841431 2.619934 14.558228c-1.1591187 5.716797 -4.319214 11.279541 -8.663879 15.250977c-0.25360107 8.623901 -4.529602 17.794067 -11.232178 24.08844c-6.7026367 6.2943726 -14.824829 8.767212 -21.335632 6.4957886c-4.2476196 7.1115723 -10.911743 12.006531 -17.423645 12.798096c-6.511902 0.791626 -11.854797 -2.6437988 -13.969238 -8.981995c-6.8876343 7.456238 -15.800476 10.67627 -22.887817 8.268982c-7.0873413 -2.4073486 -11.078613 -10.010498 -10.249512 -19.524597c-6.505005 1.0964355 -12.343567 -0.9244995 -16.198608 -5.6068115c-3.8551025 -4.682373 -5.4019165 -11.631775 -4.291565 -19.280579c-4.8708496 -1.8930664 -7.272827 -7.6375732 -6.013916 -14.382568c1.2589722 -6.744934 5.9108276 -13.054504 11.646912 -15.797302c-2.0441895 -5.5914307 -0.25836182 -13.243347 4.4263306 -18.965576c4.6846924 -5.72229 11.206604 -8.21814 16.164795 -6.186096z" fill-rule="evenodd"/><path fill="#000000" fill-opacity="0.0" d="m617.17377 654.8066c0.96466064 2.6386108 2.7144775 4.609009 5.0145264 5.6465454m-10.648804 24.533325c1.0186768 0.39593506 2.1190186 0.61138916 3.272522 0.64086914m17.216614 24.2453c0.152771 -1.7530518 0.46722412 -3.5372314 0.9379883 -5.3221436m32.20056 16.578186c1.2557373 -1.359375 2.4195557 -2.8342896 3.472107 -4.4000244m27.919678 0.5839844c4.522278 -7.57135 5.530945 -16.349731 2.5928345 -22.564514m29.974365 -8.018921c-2.3184814 2.1193237 -4.8825684 3.7002563 -7.491333 4.6188965m13.536377 -34.428345c-0.48065186 1.1243286 -1.0431519 2.2216187 -1.6797485 3.2765503m-14.48877 -23.256104c-1.4587402 0.78027344 -2.8712158 1.7805786 -4.1934204 2.9696045m-15.243408 -11.214539c-1.0466919 0.8727417 -2.031311 1.8687744 -2.9310913 2.965088m-20.340698 -10.705078c0.5975342 1.6223755 0.9956665 3.3857422 1.1855469 5.251465m-39.428467 3.163391c-0.59210205 1.272644 -1.1074219 2.5705566 -1.5410767 3.8816528" fill-rule="evenodd"/><path fill="#559439" d="m647.5014 642.22345c2.786377 -6.718384 8.286682 -11.893738 14.166931 -13.329895c5.88031 -1.4361572 11.109253 1.1187134 13.468079 6.5805054c3.4483032 -2.9226074 7.487671 -4.0479736 10.896301 -3.0356445c3.4086914 1.0122681 5.786255 4.043335 6.413574 8.17627c3.046692 -2.692688 6.694702 -3.6403198 9.649597 -2.5065918c2.954834 1.133728 4.79834 4.1884155 4.876343 8.080017c4.1549683 -2.3562622 8.524475 -1.9384766 11.217773 1.0726318c2.6932983 3.0111084 3.2266235 8.074646 1.3692627 12.999573c2.199646 2.487854 3.1020508 6.2888184 2.47406 10.420898c-0.6279907 4.132141 -2.7246704 8.190002 -5.748474 11.125183c0.14556885 6.2060547 -2.62854 12.878357 -7.2869263 17.527039c-4.6584473 4.6486816 -10.501343 6.5752563 -15.348267 5.060791c-2.8323364 5.1914673 -7.5163574 8.833191 -12.246582 9.521362c-4.7301636 0.6881714 -8.767944 -1.6846313 -10.557007 -6.2037964c-4.7491455 5.487549 -11.141357 7.9658813 -16.414978 6.364258c-5.2736206 -1.6016235 -8.483276 -6.9960938 -8.24231 -13.852783c-4.71344 0.90722656 -9.059326 -0.43933105 -12.057312 -3.735962c-2.9979858 -3.296692 -4.395508 -8.265686 -3.8773193 -13.786194c-3.633484 -1.2723389 -5.6099854 -5.359314 -4.9484863 -10.232544c0.661499 -4.873291 3.8201294 -9.495422 7.908325 -11.57251c-1.7090454 -3.9834595 -0.69714355 -9.518555 2.5079956 -13.718933c3.2052002 -4.2003784 7.8773193 -6.114319 11.580017 -4.7436523z" fill-rule="evenodd"/><path fill="#000000" fill-opacity="0.0" d="m633.215 660.89606c0.80651855 1.8798218 2.161377 3.2647095 3.8826294 3.968811m-6.843384 17.836304c0.75994873 0.26611328 1.5726318 0.40093994 2.4169922 0.401062m13.516846 17.120178c0.044433594 -1.2633667 0.20581055 -2.552124 0.48150635 -3.8442383m24.176697 11.333069c0.8658447 -1.0004272 1.6600952 -2.0822754 2.3694458 -3.227417m20.433289 -0.090026855c3.015503 -5.5271606 3.4160156 -11.858032 1.029602 -16.273438m21.605225 -6.313843c-1.6135864 1.5663452 -3.4274902 2.75 -5.2993164 3.458252m8.574585 -25.004517c-0.30822754 0.8173218 -0.67736816 1.6166382 -1.1022949 2.3868408m-11.484619 -16.45868c-1.036499 0.58776855 -2.0307007 1.3328247 -2.9517212 2.2120361m-11.574158 -7.7858887c-0.73168945 0.6466675 -1.413269 1.3809204 -2.0289917 2.18573m-15.281128 -7.326416c0.4991455 1.1557007 0.8578491 2.4164429 1.0682373 3.7545776m-28.703064 2.994995c-0.3840332 0.92596436 -0.7109375 1.8687134 -0.97766113 2.819458" fill-rule="evenodd"/><path fill="#6cab50" d="m687.24976 652.9699c3.808899 0.8826294 7.022827 3.378357 8.277954 6.4281616c1.255127 3.0498047 0.33135986 6.1188354 -2.3793335 7.904724c1.8435059 1.5946655 2.779541 3.6767578 2.5250854 5.616516c-0.25445557 1.9397583 -1.6696167 3.5093994 -3.8173828 4.23407c1.6876221 1.3986206 2.496399 3.2854004 2.1394043 4.9907837c-0.35699463 1.7053833 -1.8292236 2.988037 -3.8943481 3.3928223c1.6009521 2.0300293 1.743103 4.4346313 0.3649292 6.173279c-1.3781738 1.7387085 -4.029175 2.4992065 -6.805908 1.9524536c-1.1408081 1.4226685 -3.0888672 2.2653809 -5.3409424 2.3103638c-2.2520142 0.04498291 -4.587097 -0.7121582 -6.4019165 -2.0757446c-3.291504 0.6569824 -7.074829 -0.2232666 -9.938171 -2.3122559c-2.8632812 -2.0889893 -4.376404 -5.072876 -3.9745483 -7.838135c-2.999939 -1.0497437 -5.3292847 -3.246399 -6.090332 -5.743225c-0.7609863 -2.4968872 0.16522217 -4.9039917 2.421692 -6.29364c-3.3174438 -2.0599365 -5.170044 -5.289795 -4.7574463 -8.294189c0.41259766 -3.0043945 3.0164185 -5.24469 6.6865845 -5.7529907c-0.8762207 -2.4673462 -0.52197266 -4.9456787 0.9827881 -6.8759766c1.5048218 -1.9302368 4.033386 -3.1497803 7.01532 -3.383606c0.3741455 -2.0856934 2.3848877 -3.53656 5.0343018 -3.6324463c2.649353 -0.09588623 5.373413 1.1835938 6.8201904 3.2034302c1.9779053 -1.2963867 5.00885 -1.2642212 7.512268 0.079711914c2.503479 1.3439331 3.9121094 3.6951294 3.491394 5.8275146z" fill-rule="evenodd"/><path fill="#000000" fill-opacity="0.0" d="m676.1178 646.9749c-0.93341064 0.6117554 -1.5576172 1.4743042 -1.7888184 2.4718018m-10.065796 -2.043274c-0.07824707 0.43621826 -0.082214355 0.8887329 -0.01184082 1.3458862m-7.985901 8.913086c0.67626953 -0.09362793 1.3757935 -0.12634277 2.086609 -0.097473145m-4.015808 14.145264c0.60479736 0.37554932 1.2469482 0.70477295 1.9157715 0.9821167m1.7527466 11.05426c3.1938477 1.1176758 6.597412 0.74468994 8.748718 -0.9586792m5.1636963 11.108887c-0.9684448 -0.72766113 -1.7498779 -1.5994263 -2.283081 -2.546875m14.026123 2.3127441c-0.46081543 -0.09075928 -0.91711426 -0.21612549 -1.3625488 -0.37438965m7.8032837 -7.7512207c-0.39935303 -0.5064087 -0.8789673 -0.97528076 -1.4238281 -1.3919678m3.179016 -6.991699c-0.40533447 -0.33587646 -0.85302734 -0.6364746 -1.3328247 -0.89489746m2.625122 -8.955811c-0.57354736 0.3779297 -1.2147827 0.6895752 -1.9095459 0.9281616m-3.9891357 -15.260925c-0.5249634 -0.12164307 -1.0540771 -0.2107544 -1.5824585 -0.26660156" fill-rule="evenodd"/></g></svg>