<svg version="1.1" viewBox="0.0 0.0 192.0 192.0" fill="none" stroke="none" stroke-linecap="square" stroke-miterlimit="10" xmlns:xlink="http://www.w3.org/1999/xlink" xmlns="http://www.w3.org/2000/svg"><clipPath id="p.0"><path d="m0 0l192.0 0l0 192.0l-192.0 0l0 -192.0z" clip-rule="nonzero"/></clipPath><g clip-path="url(#p.0)"><path fill="#000000" fill-opacity="0.0" d="m0 0l192.0 0l0 192.0l-192.0 0z" fill-rule="evenodd"/><path fill="#274e13" d="m23.470526 78.702484c-1.3341007 -11.278267 3.0460129 -22.443062 11.281698 -28.75676c8.235683 -6.313698 18.882576 -6.6690063 27.422806 -0.9151573c3.0252113 -6.5576515 8.562229 -11.085255 14.936214 -12.213303c6.373993 -1.128048 12.836296 1.2759552 17.432198 6.484848c2.5770874 -5.945587 7.637253 -9.940266 13.38488 -10.566509c5.7476196 -0.6262436 11.369278 2.2045708 14.870117 7.4879265c4.6558914 -6.302307 12.06353 -8.955841 19.017586 -6.812401c6.954071 2.1434402 12.205536 8.698872 13.482071 16.829723c5.704254 1.7898827 10.45578 6.34 13.026947 12.4747505c2.5711517 6.1347466 2.7097015 13.252323 0.37986755 19.513775c5.6170197 8.409805 6.9309845 19.615776 3.451538 29.436035c-3.4794464 9.820259 -11.229553 16.779427 -20.358139 18.280464c-0.064331055 9.21666 -4.458359 17.673767 -11.488403 22.111557c-7.0300446 4.437805 -15.598366 4.16333 -22.402336 -0.7176361c-2.8981323 11.038559 -11.055412 19.160614 -20.947578 20.857162c-9.892174 1.6965332 -19.74588 -3.3365784 -25.303955 -12.924866c-6.813034 4.7260895 -14.988102 6.0875244 -22.681084 3.7772064c-7.6929817 -2.3103333 -14.255852 -8.097824 -18.20816 -16.056946c-6.9620647 0.9372101 -13.6934185 -3.212204 -16.853315 -10.388916c-3.1598969 -7.176712 -2.0756702 -15.852951 2.7145824 -21.722748c-6.2103424 -4.204834 -9.379232 -12.54863 -7.8542204 -20.680412c1.525013 -8.13179 7.3983545 -14.208885 14.557309 -15.062309z" fill-rule="evenodd"/><path fill="#000000" fill-opacity="0.0" d="m16.629816 114.87989c2.9306793 1.9842758 6.3163013 2.8843918 9.70229 2.5794907m4.4349194 29.532898c1.4561005 -0.1960144 2.8833542 -0.61109924 4.244957 -1.2345581m36.642254 13.513763c-1.0241241 -1.7667236 -1.8815765 -3.6546326 -2.5577393 -5.631531m48.811035 -2.3010864c0.5283737 -2.0124817 0.8707123 -4.0837708 1.0213089 -6.179306m32.868156 -15.213837c0.06851196 -9.812569 -4.7763367 -18.79705 -12.453522 -23.094353m29.359955 -24.621117c-1.2433014 3.341362 -3.141327 6.305435 -5.545273 8.659821m-7.860367 -40.64922c0.21183777 1.3493156 0.3098755 2.718914 0.29275513 4.0898056m-32.791862 -14.106724c-1.1614151 1.572113 -2.1182709 3.32893 -2.840767 5.215748m-25.414505 -2.1378517c-0.61893463 1.4279404 -1.0811081 2.938942 -1.375885 4.4982033m-30.992996 1.2303734c1.8071098 1.2175102 3.4789276 2.6829147 4.978737 4.3640213m-43.68274 25.308052c0.18387222 1.5544357 0.47440147 3.089714 0.8688679 4.5914536" fill-rule="evenodd"/><path fill="#274e13" d="m66.48568 32.96835c7.594734 -8.443922 18.874268 -12.518999 29.052269 -10.496023c10.178009 2.022974 17.469482 9.789213 18.780388 20.003218c6.9236145 -2.0534286 13.978981 -0.87991714 19.032005 3.1655693c5.053009 4.0454826 7.5101776 10.487785 6.628235 17.378235c6.16803 -1.9863319 12.508331 -0.8195305 16.771011 3.0863647c4.26268 3.9058914 5.8444977 9.998093 4.1841125 16.114777c7.807617 -0.6595688 14.688904 3.1561432 17.666306 9.796059c2.977417 6.6399155 1.516159 14.911446 -3.7514648 21.23545c2.4185028 5.4674606 2.134262 12.040199 -0.77926636 18.02002c-2.9135284 5.9798126 -8.170532 10.780121 -14.412781 13.160645c-2.6135254 9.769745 -10.167221 18.150833 -19.842178 22.015594c-9.674973 3.8647614 -20.01764 2.632553 -27.168327 -3.236786c-6.968216 6.0328217 -16.222244 8.310898 -24.19519 5.956192c-7.9729385 -2.3547058 -13.419792 -8.974533 -14.241089 -17.307877c-10.206902 5.105423 -21.69205 4.3345337 -29.493439 -1.9796295c-7.8013916 -6.314163 -10.52047 -17.039642 -6.9824944 -27.54264c-8.0464 -2.0014114 -14.463093 -7.2463455 -17.802605 -14.551643c-3.33951 -7.305298 -3.3205357 -16.055595 0.05264473 -24.277008c-5.2976027 -4.613312 -6.620697 -12.409424 -3.3126354 -19.519142c3.3080597 -7.1097183 10.54307 -12.019558 18.114319 -12.292786c-0.937706 -7.4411545 3.241417 -15.327675 10.358116 -19.547054c7.116703 -4.2193775 15.558315 -3.815485 20.922867 1.0010643z" fill-rule="evenodd"/><path fill="#000000" fill-opacity="0.0" d="m34.787262 51.697727c0.4425087 3.5115051 1.9998512 6.6495476 4.4629364 8.992794m-19.266165 22.818466c1.1079826 0.96486664 2.3615513 1.7635117 3.7283783 2.3753433m14.020624 36.45144c0.65190506 -1.9352798 1.5048294 -3.8252563 2.5442467 -5.637726m33.933098 35.161102c1.8608704 -0.93078613 3.6431885 -2.0401764 5.3172073 -3.3096466m33.117653 14.660889c7.4187393 -6.422867 10.9735565 -15.991516 9.137558 -24.595947m37.872063 5.8177032c-3.331131 1.27034 -6.8107147 1.7997589 -10.165939 1.5467224m25.359406 -32.727104c-0.87416077 1.049469 -1.8386536 2.026802 -2.8800812 2.918457m-11.0346985 -33.94928c-1.9476013 0.1645279 -3.8990479 0.6046448 -5.793564 1.3066483m-15.161209 -20.508442c-1.481369 0.47705078 -2.9217224 1.1267052 -4.287903 1.9339943m-21.37275 -22.478077c0.27738953 2.1612778 0.27924347 4.384453 0.0055160522 6.6206856m-47.83796 -16.1274c-1.0467529 1.1637917 -2.0087357 2.3950882 -2.8769493 3.6823578" fill-rule="evenodd"/><path fill="#38761d" d="m58.68108 55.72968c4.2961197 -9.233749 12.187168 -16.230312 20.32468 -18.020786c8.137505 -1.7904778 15.094337 1.939148 17.918442 9.606255c4.923622 -3.9392128 10.523697 -5.361923 15.106323 -3.83778c4.5826187 1.5241394 7.609535 5.8161125 8.165169 11.577679c4.358284 -3.633892 9.410797 -4.8233566 13.36467 -3.1463013c3.9538574 1.6770515 6.249481 5.9832726 6.072281 11.3905945c5.847748 -3.1281586 11.78627 -2.3962936 15.245941 1.8789139c3.459671 4.2752 3.819107 11.325882 0.92276 18.101173c2.8234406 3.5313644 3.7790527 8.841431 2.6199646 14.558235c-1.1591034 5.7168045 -4.319214 11.279541 -8.663879 15.250984c-0.2536316 8.623886 -4.529602 17.79409 -11.232193 24.088448c-6.702606 6.2943573 -14.824829 8.767212 -21.335617 6.495743c-4.2476425 7.111603 -10.911743 12.006561 -17.423653 12.7981415c-6.511917 0.79159546 -11.85479 -2.6437988 -13.969246 -8.98201c-6.887657 7.456253 -15.800484 10.6763 -22.887814 8.268982c-7.08733 -2.4073334 -11.078625 -10.010483 -10.249496 -19.524597c-6.505001 1.0964203 -12.343567 -0.92448425 -16.198631 -5.606842c-3.8550682 -4.68235 -5.401907 -11.631737 -4.2915764 -19.280518c-4.870821 -1.8930969 -7.272814 -7.637619 -6.01388 -14.382584c1.258934 -6.7449646 5.910799 -13.054535 11.646891 -15.797287c-2.044201 -5.5914536 -0.2583351 -13.243393 4.4263344 -18.965626c4.6846733 -5.7222404 11.206589 -8.218094 16.164822 -6.186081z" fill-rule="evenodd"/><path fill="#000000" fill-opacity="0.0" d="m37.803703 81.16617c0.96466446 2.6386185 2.714489 4.6089783 5.0145264 5.6465225m-10.648838 24.533325c1.0187187 0.39593506 2.1190186 0.61141205 3.2725182 0.64086914m17.216625 24.245323c0.15277481 -1.753067 0.46722412 -3.5372467 0.9379883 -5.322159m32.200596 16.578186c1.255722 -1.3593903 2.4195557 -2.834259 3.4720917 -4.4000397m27.919647 0.58403015c4.52227 -7.571396 5.5309906 -16.349754 2.5928802 -22.564537m29.974365 -8.018921c-2.3184967 2.1193237 -4.882614 3.7002716 -7.4913483 4.618881m13.536392 -34.428345c-0.48065186 1.1243668 -1.0431824 2.2216187 -1.6797943 3.2765656m-14.488739 -23.256123c-1.458725 0.7803154 -2.8712006 1.7805824 -4.193451 2.9696465m-15.243362 -11.214573c-1.0467148 0.8727455 -2.031311 1.868763 -2.931099 2.965107m-20.340744 -10.705093c0.59757996 1.6223564 0.99568176 3.3857498 1.1855545 5.251446m-39.428432 3.1633987c-0.5921173 1.2726517 -1.1074219 2.5705795 -1.5410919 3.8816452" fill-rule="evenodd"/><path fill="#559439" d="m68.13135 68.583046c2.7863388 -6.7184143 8.286636 -11.893745 14.166916 -13.329906c5.880272 -1.436161 11.109253 1.1187172 13.468094 6.580509c3.4482727 -2.9226036 7.487648 -4.0479546 10.896309 -3.0356598c3.4086533 1.0122948 5.7862244 4.0433426 6.413536 8.176308c3.0466995 -2.6927261 6.6947403 -3.6403503 9.649597 -2.5066147c2.9548645 1.1337357 4.7983704 4.1883926 4.876343 8.080002c4.1549835 -2.3562546 8.52449 -1.938446 11.217789 1.0726318c2.693283 3.0110855 3.2266388 8.074631 1.3692627 12.999611c2.1996307 2.4878159 3.1020355 6.2887955 2.47406 10.420891c-0.6279602 4.132103 -2.724701 8.189957 -5.7484894 11.12516c0.14555359 6.206032 -2.6285095 12.87838 -7.2869263 17.527054c-4.6584167 4.648674 -10.501335 6.5752487 -15.348274 5.060768c-2.832344 5.191498 -7.516327 8.833176 -12.246536 9.521347c-4.7302094 0.6881714 -8.768005 -1.6846008 -10.557037 -6.203766c-4.7491226 5.487564 -11.141335 7.9658966 -16.41497 6.364258c-5.2736435 -1.6016388 -8.483307 -6.9961243 -8.242294 -13.852821c-4.713455 0.9072571 -9.059341 -0.43932343 -12.05732 -3.735962c-2.9979782 -3.2966385 -4.395508 -8.2656555 -3.8773384 -13.786133c-3.6335068 -1.2723465 -5.6099663 -5.359329 -4.9484673 -10.232597c0.6614952 -4.8732605 3.8201294 -9.495415 7.908283 -11.572487c-1.7090187 -3.9834442 -0.69711304 -9.518532 2.5080452 -13.718941c3.2051582 -4.2004013 7.8772736 -6.1142883 11.580017 -4.7436447z" fill-rule="evenodd"/><path fill="#000000" fill-opacity="0.0" d="m53.844975 87.25564c0.80648804 1.8798065 2.1613312 3.264717 3.8826103 3.9687958m-6.84338 17.836296c0.7599411 0.26611328 1.5725899 0.40096283 2.416996 0.40107727m13.516838 17.120201c0.044410706 -1.2634048 0.20581818 -2.5521545 0.48147583 -3.8442688m24.176743 11.333107c0.86582947 -1.0004578 1.6600571 -2.0822906 2.3694305 -3.2274628m20.433296 -0.0900116c3.0154648 -5.5271454 3.4160004 -11.858055 1.0295639 -16.273407m21.60524 -6.3138733c-1.6136017 1.5663452 -3.4274597 2.7500305 -5.2993317 3.458252m8.5746 -25.004501c-0.3082428 0.8172989 -0.67736816 1.6166077 -1.1022797 2.3868408m-11.484642 -16.458702c-1.0364685 0.58776855 -2.0306778 1.3328552 -2.951683 2.212059m-11.574173 -7.7859116c-0.73172 0.6467056 -1.4132919 1.3809204 -2.029007 2.1857376m-15.281105 -7.326435c0.49912262 1.1557121 0.85783386 2.4164848 1.0682449 3.7546272m-28.703064 2.9949875c-0.3840332 0.925972 -0.7109375 1.868721 -0.97766113 2.8194199" fill-rule="evenodd"/><path fill="#6cab50" d="m107.87968 79.32951c3.8089066 0.8826065 7.022812 3.3783264 8.277939 6.428131c1.255127 3.049797 0.33135223 6.1188126 -2.3793259 7.9047546c1.8434906 1.5946198 2.7795715 3.6767044 2.525093 5.616478c-0.25447845 1.9397659 -1.6696396 3.5093842 -3.8174057 4.23407c1.6876144 1.3986206 2.496437 3.2853928 2.13945 4.9907913c-0.35699463 1.7053986 -1.829277 2.9880676 -3.8944016 3.3928528c1.600975 2.0299988 1.7431259 4.4345856 0.36494446 6.173279c-1.3781891 1.7386932 -4.029175 2.499199 -6.80587 1.9524536c-1.1408234 1.4226608 -3.0889206 2.2653503 -5.3409576 2.3103333c-2.2520447 0.04499054 -4.5871124 -0.71214294 -6.4019012 -2.07576c-3.2915268 0.6569824 -7.0748825 -0.22325897 -9.938187 -2.3122482c-2.8633041 -2.0889893 -4.376381 -5.0728683 -3.9745712 -7.8381195c-2.999916 -1.0497665 -5.3292923 -3.2464142 -6.0902863 -5.7432556c-0.7610016 -2.4968338 0.16522217 -4.9039764 2.421646 -6.2935944c-3.3174362 -2.0599365 -5.170059 -5.28981 -4.7574463 -8.294197c0.4126053 -3.004387 3.0164642 -5.24469 6.686615 -5.7530136c-0.8762207 -2.4673615 -0.5219879 -4.945694 0.9827881 -6.875946c1.504776 -1.9302444 4.033348 -3.1498184 7.0153046 -3.383606c0.37416077 -2.0857315 2.3848877 -3.53656 5.034279 -3.6324463c2.6493835 -0.09588623 5.373436 1.1835861 6.820221 3.203415c1.9779282 -1.2963943 5.0088654 -1.2642288 7.512291 0.07972717c2.5034256 1.3439484 3.9120636 3.695137 3.491356 5.8275146z" fill-rule="evenodd"/><path fill="#000000" fill-opacity="0.0" d="m96.747696 73.33447c-0.93338776 0.61177063 -1.5575867 1.4743118 -1.7887802 2.471817m-10.065804 -2.0432968c-0.0782547 0.4362259 -0.08223724 0.8887634 -0.01184845 1.3459396m-7.985878 8.913086c0.6762619 -0.09366608 1.3757629 -0.12634277 2.0866013 -0.097480774m-4.0158386 14.145233c0.60482025 0.37555695 1.2469864 0.7047653 1.9157791 0.98213196m1.7527313 11.054268c3.1938705 1.1176453 6.597435 0.7446747 8.748764 -0.95871735m5.163681 11.108925c-0.9684448 -0.727684 -1.7499008 -1.5994339 -2.283081 -2.5468903m14.026108 2.3127441c-0.46079254 -0.09072876 -0.91708374 -0.21611023 -1.3625565 -0.3744049m7.803299 -7.751213c-0.3993683 -0.5063858 -0.878952 -0.9752426 -1.4238205 -1.3919678m3.179016 -6.9916763c-0.40531158 -0.33590698 -0.85302734 -0.6365051 -1.3328247 -0.8948746m2.625145 -8.955826c-0.5735779 0.3779068 -1.2148056 0.6895752 -1.909584 0.9281616m-3.989128 -15.260918c-0.5249634 -0.12164307 -1.0540924 -0.21080017 -1.5824356 -0.26663208" fill-rule="evenodd"/></g></svg>