<svg version="1.1" viewBox="0.0 0.0 192.0 192.0" fill="none" stroke="none" stroke-linecap="square" stroke-miterlimit="10" xmlns:xlink="http://www.w3.org/1999/xlink" xmlns="http://www.w3.org/2000/svg"><clipPath id="p.0"><path d="m0 0l192.0 0l0 192.0l-192.0 0l0 -192.0z" clip-rule="nonzero"/></clipPath><g clip-path="url(#p.0)"><path fill="#000000" fill-opacity="0.0" d="m0 0l192.0 0l0 192.0l-192.0 0z" fill-rule="evenodd"/><path fill="#f1c232" d="m40.28609 194.25461l0 -105.07086l112.0 0l0 105.07086z" fill-rule="evenodd"/><path fill="#073763" d="m86.396324 152.02792l-86.11024 0l0 -112.0l86.11024 0z" fill-rule="evenodd"/><path fill="#f1c232" d="m151.77428 85.98163l0 5.921257c0 12.187431 -4.8414307 23.875694 -13.459244 32.493507c-8.617813 8.617813 -20.306084 13.459244 -32.493507 13.459244l-45.95276 0c-4.5013428E-4 0 -8.163452E-4 -3.5095215E-4 -8.163452E-4 -8.087158E-4l8.163452E-4 -97.82596c0 -4.5013428E-4 3.6621094E-4 -8.125305E-4 8.163452E-4 -8.125305E-4l45.951942 8.125305E-4c25.379005 0 45.95275 20.57375 45.95275 45.95276z" fill-rule="evenodd"/><path fill="#f1c232" d="m34.742783 152.0l-36.472443 0l0 -112.0l36.472443 0z" fill-rule="evenodd"/><path fill="#f1c232" d="m137.3412 102.20377l-48.53543 49.685036l-48.53543 0l97.07086 -99.37007z" fill-rule="evenodd"/><path fill="#073763" d="m71.28597 124.51707l56.15748 0.6614151l25.086609 28.251968l-112.31496 -1.3228302z" fill-rule="evenodd"/><path fill="#073763" d="m146.17586 107.80745l-47.244102 41.496063l-47.24409 0l94.48819 -82.99213z" fill-rule="evenodd"/><path stroke="#073763" stroke-width="1.0" stroke-linejoin="round" stroke-linecap="butt" d="m146.17586 107.80745l-47.244102 41.496063l-47.24409 0l94.48819 -82.99213z" fill-rule="evenodd"/><path fill="#073763" d="m118.97113 127.65028l0.06299591 -35.149605l17.433067 -19.842522l-0.12597656 70.29921z" fill-rule="evenodd"/><path stroke="#073763" stroke-width="1.0" stroke-linejoin="round" stroke-linecap="butt" d="m118.97113 127.65028l0.06299591 -35.149605l17.433067 -19.842522l-0.12597656 70.29921z" fill-rule="evenodd"/><path fill="#f1c232" d="m137.35284 52.53462c8.917419 7.6220627 14.305298 21.438534 13.195755 33.838665c-1.1095428 12.400139 -8.446823 20.370056 -17.970154 19.51957c-9.523331 -0.8504944 -18.918022 -10.314682 -23.009056 -23.17926z" fill-rule="evenodd"/><path fill="#073763" d="m40.32546 158.29134l0 -6.393692l112.0 0l0 6.393692z" fill-rule="evenodd"/><path fill="#f1c232" d="m141.4058 56.46941c6.294403 7.9987907 10.661758 19.401783 10.94931 28.588116c0.28753662 9.186333 -3.565445 14.21711 -9.6596985 12.612503c-6.0942383 -1.6046066 -13.143494 -9.505905 -17.672958 -19.809135z" fill-rule="evenodd"/><path fill="#f1c232" d="m152.2862 88.456696l-111.82533 63.607727l63.730854 -111.70221z" fill-rule="evenodd"/><path fill="#073763" d="m152.31758 152.04724l0 -63.590546l-112.0 63.590546z" fill-rule="evenodd"/><path fill="#073763" d="m40.32546 40.16798l63.59055 0l-63.59055 111.968506z" fill-rule="evenodd"/></g></svg>