<svg version="1.1" viewBox="0.0 0.0 192.0 192.0" fill="none" stroke="none" stroke-linecap="square" stroke-miterlimit="10" xmlns:xlink="http://www.w3.org/1999/xlink" xmlns="http://www.w3.org/2000/svg"><clipPath id="p.0"><path d="m0 0l192.0 0l0 192.0l-192.0 0l0 -192.0z" clip-rule="nonzero"/></clipPath><g clip-path="url(#p.0)"><path fill="#000000" fill-opacity="0.0" d="m0 0l192.0 0l0 192.0l-192.0 0z" fill-rule="evenodd"/><path fill="#f1c232" d="m151.71391 -0.63254595l0 102.83465l-112.0 0l0 -102.83465z" fill-rule="evenodd"/><path fill="#f1c232" d="m105.603676 39.367455l86.11024 0l0 111.99999l-86.11024 0z" fill-rule="evenodd"/><path fill="#f1c232" d="m40.22572 105.43044l0 -5.952751c0 -12.18325 4.839779 -23.867508 13.454639 -32.48237c8.614861 -8.614864 20.299118 -13.454639 32.48237 -13.454639l45.937004 0c4.5776367E-4 0 8.239746E-4 3.6239624E-4 8.239746E-4 8.125305E-4l-8.239746E-4 97.82595c0 4.5776367E-4 -3.6621094E-4 8.239746E-4 -8.087158E-4 8.239746E-4l-45.936195 -8.239746E-4c-25.370308 0 -45.937008 -20.566696 -45.937008 -45.937004z" fill-rule="evenodd"/><path fill="#073763" d="m157.5433 39.367455l34.456696 0l0 111.99999l-34.456696 0z" fill-rule="evenodd"/><path fill="#073763" d="m54.65879 89.191605l48.53543 -49.685043l48.53544 0l-97.07087 99.37009z" fill-rule="evenodd"/><path fill="#073763" d="m120.8744 66.385826l-56.409447 -0.26771545l-25.007874 -28.157478l112.81889 0.5354309z" fill-rule="evenodd"/><path fill="#073763" d="m45.824146 83.58793l47.24409 -41.496067l47.244095 0l-94.48819 82.99213z" fill-rule="evenodd"/><path stroke="#073763" stroke-width="1.0" stroke-linejoin="round" stroke-linecap="butt" d="m45.824146 83.58793l47.24409 -41.496067l47.244095 0l-94.48819 82.99213z" fill-rule="evenodd"/><path fill="#073763" d="m56.72441 53.537178l0.078739166 34.33071l-16.960632 19.307083l-0.15747833 -68.661415z" fill-rule="evenodd"/><path fill="#073763" d="m73.02886 63.745094l-0.06298828 35.149605l-17.433071 19.842522l0.12598419 -70.29921z" fill-rule="evenodd"/><path stroke="#073763" stroke-width="1.0" stroke-linejoin="round" stroke-linecap="butt" d="m73.02886 63.745094l-0.06298828 35.149605l-17.433071 19.842522l0.12598419 -70.29921z" fill-rule="evenodd"/><path fill="#073763" d="m54.647156 138.86076c-8.917419 -7.6220703 -14.3053055 -21.438538 -13.195763 -33.83867c1.1095428 -12.400139 8.446835 -20.370056 17.970161 -19.51957c9.523323 0.8504944 18.918022 10.314682 23.009056 23.17926z" fill-rule="evenodd"/><path fill="#073763" d="m151.86613 33.10499l0 6.3936996l-112.18897 0l0 -6.3936996z" fill-rule="evenodd"/><path fill="#073763" d="m50.778137 134.89967c-6.252426 -7.9713135 -10.593796 -19.318695 -10.885647 -28.452667c-0.29185104 -9.13398 3.5273628 -14.128418 9.576378 -12.52317c6.049019 1.6052475 13.052246 9.47168 17.560047 19.724457z" fill-rule="evenodd"/></g></svg>