<svg version="1.1" viewBox="0.0 0.0 192.0 192.0" fill="none" stroke="none" stroke-linecap="square" stroke-miterlimit="10" xmlns:xlink="http://www.w3.org/1999/xlink" xmlns="http://www.w3.org/2000/svg"><clipPath id="p.0"><path d="m0 0l192.0 0l0 192.0l-192.0 0l0 -192.0z" clip-rule="nonzero"/></clipPath><g clip-path="url(#p.0)"><path fill="#000000" fill-opacity="0.0" d="m0 0l192.0 0l0 192.0l-192.0 0z" fill-rule="evenodd"/><path fill="#f4cccc" d="m161.60007 87.94977l7.194626 0.6519394l-0.63661194 1.7726898l7.292511 -0.7287216l-0.52601624 1.8695526l10.665131 0.54369354l-12.225952 4.2110443l0.73931885 -2.1977158l-7.6891937 2.5351715l0.6898804 -2.7173615l-8.097488 2.6951294z" fill-rule="evenodd"/><path stroke="#f4cccc" stroke-width="1.0" stroke-linejoin="round" stroke-linecap="butt" d="m161.60007 87.94977l7.194626 0.6519394l-0.63661194 1.7726898l7.292511 -0.7287216l-0.52601624 1.8695526l10.665131 0.54369354l-12.225952 4.2110443l0.73931885 -2.1977158l-7.6891937 2.5351715l0.6898804 -2.7173615l-8.097488 2.6951294z" fill-rule="evenodd"/><path fill="#f1c232" d="m104.961464 158.71307l62.992134 -39.039368l0 -53.16536l-62.992134 -39.039368z" fill-rule="evenodd"/><path stroke="#f1c232" stroke-width="1.0" stroke-linejoin="round" stroke-linecap="butt" d="m104.961464 158.71307l62.992134 -39.039368l0 -53.16536l-62.992134 -39.039368z" fill-rule="evenodd"/><path fill="#073763" d="m8.3779526E-4 38.106773l99.49606 0l0 109.984245l-99.49606 0z" fill-rule="evenodd"/><path stroke="#073763" stroke-width="1.0" stroke-linejoin="round" stroke-linecap="butt" d="m8.3779526E-4 38.106773l99.49606 0l0 109.984245l-99.49606 0z" fill-rule="evenodd"/><path fill="#f1c232" d="m59.045456 163.92567l-42.173225 -15.624756l0 -110.419785l42.173225 -15.624758z" fill-rule="evenodd"/><path stroke="#f1c232" stroke-width="1.0" stroke-linejoin="round" stroke-linecap="butt" d="m59.045456 163.92567l-42.173225 -15.624756l0 -110.419785l42.173225 -15.624758z" fill-rule="evenodd"/><path fill="#073763" d="m59.373543 163.92567l45.07086 -4.7369537l0 -132.19539l-45.07086 -4.736948z" fill-rule="evenodd"/><path stroke="#073763" stroke-width="1.0" stroke-linejoin="round" stroke-linecap="butt" d="m59.373543 163.92567l45.07086 -4.7369537l0 -132.19539l-45.07086 -4.736948z" fill-rule="evenodd"/><path fill="#f3f3f3" d="m102.5179 124.72881l30.866135 0l-30.866135 22.236214z" fill-rule="evenodd"/><path stroke="#f3f3f3" stroke-width="1.0" stroke-linejoin="round" stroke-linecap="butt" d="m102.5179 124.72881l30.866135 0l-30.866135 22.236214z" fill-rule="evenodd"/><path fill="#000000" d="m111.444405 141.12529l-9.173973 -16.628815l13.110985 13.825668z" fill-rule="evenodd"/><path fill="#f3f3f3" d="m102.5179 60.06477l30.866135 0l-30.866135 -22.236217z" fill-rule="evenodd"/><path stroke="#f3f3f3" stroke-width="1.0" stroke-linejoin="round" stroke-linecap="butt" d="m102.5179 60.06477l30.866135 0l-30.866135 -22.236217z" fill-rule="evenodd"/><path fill="#000000" d="m111.444405 43.602985l-9.173973 16.628822l13.110985 -13.825672z" fill-rule="evenodd"/></g></svg>