<svg version="1.1" id="MoveButtonSVG" xmlns="http://www.w3.org/2000/svg" viewBox="0 0 375 375" width="375" height="375">
<rect x="0" y="0" height="375" width="375" fill="white" opacity="0.001" stroke-width="0"/>
<path class="s1" d="m71.8 71.8c29.4-29.5 69.9-47.8 114.8-47.8 89.9 0 162.5 72.8 162.5 162.8 0 89.9-72.6 162.7-162.5 162.7-75.7 0-139.1-51.9-157.1-122.1h42.3c16.7 47.4 61.7 81.4 114.8 81.4 67.4 0 122-54.6 122-122.1 0-67.4-54.6-122-122-122-33.6 0-63.8 14-85.9 36.1l65.6 65.6h-142.3v-142.4z"/>
</svg>