<svg version="1.2" xmlns="http://www.w3.org/2000/svg" viewBox="0 0 1080 1080" width="1080" height="1080">
	<title>Spinout Tile Flat Left</title>
	<defs>
		<linearGradient id="g1" x2="1" gradientUnits="userSpaceOnUse" gradientTransform="matrix(147.68,0,0,988.728,630.314,1079.306)">
			<stop offset="0" stop-color="#000000" stop-opacity=".7"/>
			<stop offset="1" stop-color="#000000" stop-opacity="0"/>
		</linearGradient>
		<radialGradient id="g2" cx="0" cy="0" r="1" gradientUnits="userSpaceOnUse" gradientTransform="matrix(136.803,0,0,136.803,540,540)">
			<stop offset="0" stop-color="#cd2727"/>
			<stop offset="1" stop-color="#b32222"/>
		</radialGradient>
		<radialGradient id="g3" cx="0" cy="0" r="1" gradientUnits="userSpaceOnUse" gradientTransform="matrix(22.197,-22.197,22.197,22.197,469.231,468.967)">
			<stop offset="0" stop-color="#ffffff" stop-opacity=".5"/>
			<stop offset="1" stop-color="#ffffff" stop-opacity="0"/>
		</radialGradient>
	</defs>
	<style>
		.s0 { fill: #383838;stroke: #000000;stroke-miterlimit:10 } 
		.s1 { fill: url(#g1) } 
		.s2 { fill: #434343;stroke: #000000;stroke-miterlimit:10 } 
		.s3 { fill: url(#g2);stroke: #000000;stroke-miterlimit:10 } 
		.s4 { fill: url(#g3) } 
	</style>
	<g id="Layer 1">
		<path id="Shape 1" fill-rule="evenodd" class="s0" d="m199 121h682c28.6 23.3 54.7 49.4 78 78-75.7 92.9-121 211.6-121 341 0 129.4 45.3 248.1 121 341-99 121.5-249.8 199-419 199-169.2 0-320-77.5-419-199 75.7-92.9 121-211.6 121-341 0-129.4-45.3-248.1-121-341 23.3-28.6 49.4-54.7 78-78z"/>
		<path id="Shadow copy 2" fill-rule="evenodd" class="s1" d="m635 121h142v904.5c-44.3 21.6-91.9 37.3-142 46.2z"/>
		<path id="Shape 4" fill-rule="evenodd" class="s2" d="m540 1080c-53.9 0-105.9-7.9-155-22.5v-936.5h310v936.5c-49.1 14.6-101.1 22.5-155 22.5z"/>
		<path id="Shape 2" fill-rule="evenodd" class="s3" d="m540 676.8c-75.7 0-136.8-61.1-136.8-136.8 0-75.7 61.1-136.8 136.8-136.8 75.7 0 136.8 61.1 136.8 136.8 0 75.7-61.1 136.8-136.8 136.8z"/>
		<path id="Shape 3" fill-rule="evenodd" class="s4" d="m480 480.8c-15.9 15.9-22 34.5-37.9 18.6-5.7-5.7-1.3-27 14.6-43 15.9-15.9 36.8-20.8 43-14.6 15.9 16-3.8 23.1-19.7 39z"/>
	</g>
</svg>