<?xml version="1.0" encoding="utf-8"?>
<!-- Generator: Adobe Illustrator 27.9.6, SVG Export Plug-In . SVG Version: 9.03 Build 54986)  -->
<svg version="1.1" id="Layer_1" xmlns="http://www.w3.org/2000/svg" xmlns:xlink="http://www.w3.org/1999/xlink" x="0px" y="0px"
	 viewBox="0 0 648 1656" style="enable-background:new 0 0 648 1656;" xml:space="preserve">
<style type="text/css">
	.st0{fill:none;stroke:#000000;stroke-width:10;stroke-miterlimit:10;}
	.st1{stroke:#000000;stroke-width:10;stroke-miterlimit:10;}
	.st2{fill:#FFFFFF;stroke:#000000;stroke-width:10;stroke-miterlimit:10;}
	.st3{font-family:'MyriadPro-Regular';}
	.st4{font-size:118px;}
	.st5{letter-spacing:-17;}
</style>
<path class="st0" d="M108,396"/>
<path class="st0" d="M540,108"/>
<line class="st0" x1="108" y1="108" x2="108" y2="396"/>
<path class="st0" d="M540,396"/>
<path class="st0" d="M540,108"/>
<line class="st0" x1="540" y1="396" x2="108" y2="684"/>
<line class="st0" x1="108" y1="396" x2="108" y2="684"/>
<line class="st0" x1="540" y1="396" x2="540" y2="684"/>
<line class="st0" x1="540" y1="684" x2="108" y2="972"/>
<path class="st0" d="M108,972"/>
<path class="st0" d="M108,684"/>
<path class="st0" d="M540,972"/>
<path class="st0" d="M540,684"/>
<line class="st0" x1="108" y1="1260" x2="324" y2="1548"/>
<line class="st0" x1="540" y1="1260" x2="324" y2="1548"/>
<line class="st0" x1="108" y1="972" x2="108" y2="1260"/>
<path class="st0" d="M108,1260"/>
<path class="st0" d="M540,972"/>
<path class="st0" d="M540,1260"/>
<path class="st0" d="M540,972"/>
<path class="st1" d="M108,1260c432,0,432,0,432,0"/>
<path class="st1" d="M108,972c432,0,432,0,432,0"/>
<circle class="st2" cx="324" cy="1548" r="72"/>
<text transform="matrix(1 0 0 1 293.7339 1584)" class="st3 st4">0</text>
<circle class="st2" cx="108" cy="1260" r="72"/>
<text transform="matrix(1 0 0 1 77.7339 1296)" class="st3 st4">2</text>
<circle class="st2" cx="540" cy="1260" r="72"/>
<text transform="matrix(1 0 0 1 509.7339 1296)" class="st3 st4">1</text>
<circle class="st2" cx="108" cy="972" r="72"/>
<text transform="matrix(1 0 0 1 77.7339 1008)" class="st3 st4">4</text>
<circle class="st2" cx="540" cy="972" r="72"/>
<text transform="matrix(1 0 0 1 509.7339 1008)" class="st3 st4">3</text>
<path class="st1" d="M540,684"/>
<path class="st1" d="M108,684"/>
<circle class="st2" cx="108" cy="684" r="72"/>
<text transform="matrix(1 0 0 1 77.7339 720)" class="st3 st4">6</text>
<circle class="st2" cx="540" cy="684" r="72"/>
<text transform="matrix(1 0 0 1 509.7339 720)" class="st3 st4">5</text>
<path class="st1" d="M108,396c432,0,432,0,432,0"/>
<circle class="st2" cx="108" cy="396" r="72"/>
<text transform="matrix(1 0 0 1 77.7339 432)" class="st3 st4">8</text>
<circle class="st2" cx="540" cy="396" r="72"/>
<text transform="matrix(1 0 0 1 509.7339 432)" class="st3 st4">7</text>
<path class="st1" d="M108,108c432,0,432,0,432,0"/>
<circle class="st2" cx="108" cy="108" r="72"/>
<text transform="matrix(1 0 0 1 56.3179 144)" class="st3 st4 st5">10</text>
<circle class="st2" cx="540" cy="108" r="72"/>
<text transform="matrix(1 0 0 1 509.7339 144)" class="st3 st4">9</text>
</svg>
