<?xml version="1.0" encoding="utf-8"?>
<!-- Generator: Adobe Illustrator 27.9.6, SVG Export Plug-In . SVG Version: 9.03 Build 54986)  -->
<svg version="1.1" id="Layer_1" xmlns="http://www.w3.org/2000/svg" xmlns:xlink="http://www.w3.org/1999/xlink" x="0px" y="0px"
	 viewBox="0 0 1360.8 1663.2" style="enable-background:new 0 0 1360.8 1663.2;" xml:space="preserve">
<style type="text/css">
	.st0{fill:none;stroke:#000000;stroke-width:21;stroke-miterlimit:10;}
	.st1{stroke:#000000;stroke-width:21;stroke-miterlimit:10;}
	.st2{fill:#FFFFFF;stroke:#000000;stroke-width:21;stroke-miterlimit:10;}
	.st3{font-family:'MyriadPro-Regular';}
	.st4{font-size:247.8px;}
</style>
<line class="st0" x1="226.8" y1="831.6" x2="680.4" y2="1436.4"/>
<line class="st0" x1="1134" y1="831.6" x2="680.4" y2="1436.4"/>
<line class="st0" x1="226.8" y1="226.8" x2="226.8" y2="831.6"/>
<line class="st0" x1="1134" y1="226.8" x2="226.8" y2="831.6"/>
<line class="st0" x1="1134" y1="226.8" x2="1134" y2="831.6"/>
<path class="st1" d="M226.8,831.6c907.2,0,907.2,0,907.2,0"/>
<path class="st1" d="M226.8,226.8c907.2,0,907.2,0,907.2,0"/>
<circle class="st2" cx="680.4" cy="1436.4" r="151.2"/>
<text transform="matrix(1 0 0 1 616.8412 1512)" class="st3 st4">0</text>
<circle class="st2" cx="226.8" cy="831.6" r="151.2"/>
<text transform="matrix(1 0 0 1 163.2412 907.2)" class="st3 st4">2</text>
<circle class="st2" cx="1134" cy="831.6" r="151.2"/>
<text transform="matrix(1 0 0 1 1070.8412 907.2)" class="st3 st4">1</text>
<circle class="st2" cx="226.8" cy="226.8" r="151.2"/>
<text transform="matrix(1 0 0 1 163.2412 302.4)" class="st3 st4">4</text>
<circle class="st2" cx="1134" cy="226.8" r="151.2"/>
<text transform="matrix(1 0 0 1 1070.8412 302.4)" class="st3 st4">3</text>
</svg>