<?xml version="1.0" encoding="utf-8"?>
<svg version="1.1" id="BackgroundSVG" xmlns="http://www.w3.org/2000/svg" viewBox="0 0 50 50">
    <rect x="0" y="0" width="50" height="50" stroke="#000000" stroke-width="0.25" fill="#b7e2e7" />

    <line x1="5" y1="5" x2="45" y2="5" stroke="#000000" stroke-width="0.12" />
    <line x1="5" y1="15" x2="45" y2="15" stroke="#000000" stroke-width="0.12" />
    <line x1="5" y1="25" x2="45" y2="25" stroke="#000000" stroke-width="0.12" />
    <line x1="5" y1="35" x2="45" y2="35" stroke="#000000" stroke-width="0.12" />
    <line x1="5" y1="45" x2="45" y2="45" stroke="#000000" stroke-width="0.12" />

    <line x1="5" y1="5" x2="5" y2="45" stroke="#000000" stroke-width="0.12" />
    <line x1="15" y1="5" x2="15" y2="45" stroke="#000000" stroke-width="0.12" />
    <line x1="25" y1="5" x2="25" y2="45" stroke="#000000" stroke-width="0.12" />
    <line x1="35" y1="5" x2="35" y2="45" stroke="#000000" stroke-width="0.12" />
    <line x1="45" y1="5" x2="45" y2="45" stroke="#000000" stroke-width="0.12" />


    <line x1="5" y1="5" x2="45" y2="45" stroke="#000000" stroke-width="0.12" />
    <line x1="45" y1="5" x2="5" y2="45" stroke="#000000" stroke-width="0.12" />
    <line x1="25" y1="5" x2="5" y2="25" stroke="#000000" stroke-width="0.12" />
    <line x1="25" y1="5" x2="45" y2="25" stroke="#000000" stroke-width="0.12" />
    <line x1="25" y1="45" x2="45" y2="25" stroke="#000000" stroke-width="0.12" />
    <line x1="25" y1="45" x2="5" y2="25" stroke="#000000" stroke-width="0.12" />

    <rect x="0" y="0" width="50" height="50" stroke="#000000" stroke-width="0.25" fill="none" />
</svg>