<?xml version="1.0" encoding="UTF-8"?>
<svg version="1.1" xmlns="http://www.w3.org/2000/svg" width="1024" height="1024">
<path d="M0 0 C0.89755005 -0.00108765 1.7951001 -0.00217529 2.71984863 -0.0032959 C5.26644594 -0.00294479 7.81281609 0.00611033 10.359375 0.01953125 C11.51342834 0.02135155 11.51342834 0.02135155 12.6907959 0.02320862 C18.01628154 0.07064077 18.01628154 0.07064077 20.25 1.1875 C21.95384745 1.39716462 23.66379699 1.5580549 25.375 1.6953125 C51.81497599 4.03595217 77.96292307 9.02167318 103.25 17.1875 C104.11431641 17.46110352 104.97863281 17.73470703 105.86914062 18.01660156 C151.40069049 32.57553622 194.2985875 55.63112577 231.7109375 85.32421875 C234.17694658 87.33333029 234.17694658 87.33333029 237.25 88.1875 C238.35035781 89.56294726 239.44947353 90.93940313 240.54296875 92.3203125 C243.51168285 95.56755584 247.04622525 98.15003385 250.4765625 100.890625 C253.64471036 103.51438689 256.49028608 106.33628974 259.3515625 109.28515625 C261.26772043 111.20525689 263.25635289 112.98139837 265.3125 114.75 C271.11837547 119.76210344 276.32923597 125.17372258 281.32421875 130.98828125 C282.67478521 132.53061172 284.0553124 134.046975 285.45703125 135.54296875 C292.42320736 142.98180947 298.57586335 150.90801952 304.66699219 159.06933594 C306.13608835 161.03507905 307.61734885 162.99097652 309.1015625 164.9453125 C341.05531866 207.36185351 362.2999862 257.44616242 374.6875 308.875 C374.93367065 309.89013672 374.93367065 309.89013672 375.18481445 310.92578125 C375.98513584 314.40832131 376.42080343 317.61429216 376.25 321.1875 C376.91 321.5175 377.57 321.8475 378.25 322.1875 C378.53228999 324.18778924 378.79159005 326.19261079 378.97265625 328.20458984 C379.30200089 331.74678427 379.7431437 335.27168225 380.1875 338.80078125 C382.09310623 354.24301828 383.97675131 369.6123245 384.25 385.1875 C384.26514648 385.91678711 384.28029297 386.64607422 384.29589844 387.39746094 C384.39089323 392.66387947 384.35303982 397.92150765 384.25 403.1875 C384.23743164 403.98220703 384.22486328 404.77691406 384.21191406 405.59570312 C383.52663422 441.14634324 376.92936039 476.34067305 366.25 510.1875 C365.846604 511.49992676 365.846604 511.49992676 365.43505859 512.83886719 C358.46782872 535.44933919 348.88148893 557.01382356 337.7578125 577.86328125 C337.34031738 578.64695068 336.92282227 579.43062012 336.49267578 580.23803711 C335.68117171 581.75598019 334.86465253 583.27125575 334.04248047 584.78344727 C331.97448818 588.28537354 331.97448818 588.28537354 331.25 592.1875 C330.26484839 593.20213112 329.26225214 594.19990413 328.25 595.1875 C327.39293554 596.43517048 326.57476655 597.71010941 325.7890625 599.00390625 C325.32435547 599.75905518 324.85964844 600.5142041 324.38085938 601.29223633 C323.88392578 602.10329834 323.38699219 602.91436035 322.875 603.75 C313.45447799 618.86184658 303.06755781 632.87516181 291.25 646.1875 C290.12460057 647.49965753 288.99953689 648.81210319 287.875 650.125 C276.1154353 663.48684116 263.84618706 676.6757458 250.25 688.1875 C249.18913071 689.11086193 248.12933201 690.0354546 247.0703125 690.9609375 C239.69858386 697.38130982 232.18490759 703.46631663 224.25 709.1875 C223.32477539 709.85966553 223.32477539 709.85966553 222.38085938 710.54541016 C190.69662488 733.51570283 156.39139625 752.59232227 119.25 765.1875 C118.14495117 765.56358398 117.03990234 765.93966797 115.90136719 766.32714844 C31.54346982 794.63628249 -58.45058685 792.82400239 -142.75 765.1875 C-143.50539063 764.94032227 -144.26078125 764.69314453 -145.0390625 764.43847656 C-155.08480753 761.10968196 -164.861315 757.1781212 -174.61743164 753.08251953 C-175.51582764 752.70724121 -176.41422363 752.33196289 -177.33984375 751.9453125 C-178.14284912 751.6064502 -178.94585449 751.26758789 -179.77319336 750.91845703 C-181.71137433 750.07189456 -181.71137433 750.07189456 -183.75 750.1875 C-183.75 749.5275 -183.75 748.8675 -183.75 748.1875 C-184.51828125 747.97351563 -185.2865625 747.75953125 -186.078125 747.5390625 C-191.14135771 745.67536195 -195.75684457 743.11900238 -200.5 740.5625 C-202.3886201 739.54574624 -204.27915234 738.53253364 -206.171875 737.5234375 C-207.00299805 737.07532715 -207.83412109 736.6272168 -208.69042969 736.16552734 C-210.67110891 735.0445131 -210.67110891 735.0445131 -212.75 735.1875 C-213.33587891 734.58035156 -213.33587891 734.58035156 -213.93359375 733.9609375 C-216.5600177 731.39664401 -219.68415273 729.69260162 -222.8125 727.8125 C-232.14830433 722.08719809 -240.97151721 715.72678548 -249.75 709.1875 C-250.36004883 708.73342773 -250.97009766 708.27935547 -251.59863281 707.81152344 C-259.39081287 701.98175287 -266.89504596 695.83620634 -274.25732422 689.47607422 C-275.68892059 688.24022769 -277.12751642 687.01250333 -278.56640625 685.78515625 C-279.39011719 685.07230469 -280.21382812 684.35945312 -281.0625 683.625 C-281.78050781 683.00496094 -282.49851562 682.38492188 -283.23828125 681.74609375 C-284.75 680.1875 -284.75 680.1875 -284.75 678.1875 C-285.28109375 677.98125 -285.8121875 677.775 -286.359375 677.5625 C-289.75773436 675.60788808 -292.26055928 672.96626283 -295 670.1875 C-295.55429687 669.6409375 -296.10859375 669.094375 -296.6796875 668.53125 C-300.75 664.4408867 -300.75 664.4408867 -300.75 662.1875 C-301.74 661.8575 -302.73 661.5275 -303.75 661.1875 C-305.35546875 659.62890625 -305.35546875 659.62890625 -306.9375 657.75 C-307.73220703 656.82380859 -307.73220703 656.82380859 -308.54296875 655.87890625 C-309.75 654.1875 -309.75 654.1875 -309.75 652.1875 C-310.41 652.1875 -311.07 652.1875 -311.75 652.1875 C-313.37890625 650.38671875 -313.37890625 650.38671875 -315.3125 647.875 C-316.01761719 646.97136719 -316.72273438 646.06773437 -317.44921875 645.13671875 C-318.58810547 643.67685547 -318.58810547 643.67685547 -319.75 642.1875 C-321.3688881 640.18254955 -322.99375766 638.18241188 -324.625 636.1875 C-325.36492187 635.28 -326.10484375 634.3725 -326.8671875 633.4375 C-328.70676834 631.17173281 -328.70676834 631.17173281 -330.75 629.1875 C-331.82024884 627.56943924 -332.86169335 625.93223734 -333.88671875 624.28515625 C-336.38933676 620.30957248 -338.94243589 616.38210885 -341.58203125 612.49609375 C-349.59604761 600.69015713 -357.19068779 588.86503619 -363.75 576.1875 C-364.2744873 575.17598877 -364.2744873 575.17598877 -364.80957031 574.14404297 C-366.85692866 570.16925121 -368.84508728 566.16872834 -370.79541016 562.14550781 C-371.72799419 560.23263724 -372.6810621 558.33111299 -373.63671875 556.4296875 C-384.75263557 533.96520833 -400.75 501.59136371 -400.75 476.1875 C-401.41 475.8575 -402.07 475.5275 -402.75 475.1875 C-403.02531526 473.08315233 -403.28637567 470.97600302 -403.47705078 468.86230469 C-403.9589332 464.14002934 -404.86843472 459.48590111 -405.6875 454.8125 C-407.47962385 444.29617845 -408.87168527 433.81821944 -409.75 423.1875 C-409.83677002 422.17574707 -409.83677002 422.17574707 -409.92529297 421.14355469 C-415.1211742 358.145422 -403.12173543 293.49791044 -376.75 236.1875 C-376.29898926 235.1979834 -375.84797852 234.2084668 -375.38330078 233.18896484 C-368.69950883 218.60594028 -361.29455745 204.75904487 -352.75 191.1875 C-352.12738281 190.17042969 -351.50476563 189.15335938 -350.86328125 188.10546875 C-341.91246535 173.64979271 -331.64248826 160.21664449 -320.75 147.1875 C-319.80198678 146.04304873 -318.85406634 144.89852059 -317.90625 143.75390625 C-305.30483786 128.61872221 -291.82507778 113.89629573 -276.75 101.1875 C-275.6670126 100.25371194 -274.58508057 99.31869921 -273.50390625 98.3828125 C-196.95748936 32.20227415 -100.69992078 0.06738184 0 0 Z " fill="#F59633" transform="translate(524.75,87.8125)"/>
<path d="M0 0 C0.95165039 0.21430664 1.90330078 0.42861328 2.88378906 0.64941406 C51.68265169 12.04078974 94.38141011 41.28531611 121.5234375 83.58349609 C141.68078024 116.57248063 152.21958891 153.04414533 152.25 191.625 C152.25067474 192.39700745 152.25134949 193.16901489 152.25204468 193.9644165 C152.17617671 248.89424033 132.54830311 296.15738925 95 336 C93.96552734 337.09828125 93.96552734 337.09828125 92.91015625 338.21875 C79.42427788 352.11830562 63.1140337 363.09777839 46 372 C45.33129883 372.34804688 44.66259766 372.69609375 43.97363281 373.0546875 C27.36700898 381.5618843 9.36305051 387.63726276 -9 391 C-9.94367432 391.17732666 -10.88734863 391.35465332 -11.85961914 391.53735352 C-21.80870765 393.19295611 -31.63594604 393.33890779 -41.70141602 393.31567383 C-44.53376473 393.31253188 -47.36504645 393.33599434 -50.19726562 393.36132812 C-83.80558274 393.47821235 -115.46585171 384.92835309 -145 369 C-145.60392578 368.68063477 -146.20785156 368.36126953 -146.83007812 368.03222656 C-155.94246553 363.19096357 -164.03994865 357.51693066 -172 351 C-172.54011719 350.56284668 -173.08023438 350.12569336 -173.63671875 349.67529297 C-186.70836376 339.06040309 -197.98996131 327.55092613 -208 314 C-208.77085937 312.96230469 -209.54171875 311.92460938 -210.3359375 310.85546875 C-225.70536408 289.41916326 -236.59295728 264.82460571 -242 239 C-242.19319824 238.13165527 -242.38639648 237.26331055 -242.58544922 236.36865234 C-248.19117663 210.47247974 -248.64651221 180.96085015 -243 155 C-242.82307617 154.16952148 -242.64615234 153.33904297 -242.46386719 152.48339844 C-235.44790292 120.40868787 -221.55660491 89.95795446 -200 65 C-199.3296875 64.22011719 -198.659375 63.44023437 -197.96875 62.63671875 C-148.77287648 6.75662329 -72.81548136 -16.51355583 0 0 Z " fill="#FAF2E4" transform="translate(559,281)"/>
<path d="M0 0 C0.74191621 -0.00172116 1.48383242 -0.00344233 2.24823093 -0.00521564 C4.72263819 -0.00956268 7.19697851 -0.00659687 9.67138672 -0.00341797 C11.41868616 -0.00455973 13.16598541 -0.00603611 14.9132843 -0.00782776 C19.59282138 -0.01084105 24.2723225 -0.0066117 28.95185471 0.00021744 C31.84152954 0.00438078 34.73120364 0.00734552 37.62088013 0.01010132 C82.168969 0.05832241 82.168969 0.05832241 103.09295654 0.39385986 C105.12857362 0.42570368 107.16426912 0.45289737 109.20001221 0.47528076 C111.95790953 0.5078174 114.71471215 0.55934871 117.47216797 0.61767578 C118.25151199 0.62407578 119.03085602 0.63047577 119.83381653 0.6370697 C124.25677563 0.75985415 127.24845416 1.31635128 130.72607422 4.12939453 C132.00390655 7.96289153 131.90805306 11.5978893 131.92919922 15.59423828 C131.93489929 16.42395645 131.94059937 17.25367462 131.94647217 18.10853577 C131.95591345 19.8627902 131.96245269 21.61706229 131.96630859 23.37133789 C131.97602524 26.05337402 132.00706062 28.73464723 132.03857422 31.41650391 C132.0451035 33.12157748 132.05035427 34.82665654 132.05419922 36.53173828 C132.06654602 37.33288559 132.07889282 38.1340329 132.09161377 38.9594574 C132.07952875 41.98284172 131.9819337 44.55458964 130.74221802 47.33969116 C127.5877654 50.13985576 124.12605764 49.69126768 120.11132812 49.65942383 C118.79135582 49.6725209 118.79135582 49.6725209 117.44471741 49.68588257 C114.5304847 49.71031489 111.61695904 49.70684353 108.70263672 49.70361328 C106.67864774 49.71605481 104.65466958 49.73038803 102.63070679 49.74653625 C97.29624215 49.78463474 91.96196326 49.79976045 86.62738037 49.80932617 C78.09555881 49.82903492 69.5638795 49.88595825 61.03220749 49.93808937 C58.05145774 49.9534264 55.07077858 49.96062631 52.08999634 49.9662323 C50.25986701 49.97325053 48.429738 49.98035161 46.59960938 49.98754883 C45.77138168 49.98702011 44.94315399 49.98649139 44.08982849 49.98594666 C43.32160263 49.98995483 42.55337677 49.99396301 41.76187134 49.99809265 C40.76803153 49.99997857 40.76803153 49.99997857 39.75411415 50.00190258 C37.21000901 50.11629451 37.21000901 50.11629451 32.72607422 51.12939453 C32.39607422 62.01939453 32.06607422 72.90939453 31.72607422 84.12939453 C37.17107422 83.13939453 37.17107422 83.13939453 42.72607422 82.12939453 C46.47096668 81.92488622 50.11133975 81.79474123 53.85107422 81.81689453 C54.84880859 81.82180908 55.84654297 81.82672363 56.87451172 81.83178711 C80.69154959 82.20392833 103.78976774 89.3117158 120.97998047 106.29345703 C138.73123483 124.62547789 147.11202916 147.21708759 147.03076172 172.70458984 C146.55054454 196.07823763 139.55203734 218.60887322 123.72607422 236.12939453 C123.06220703 236.88607422 122.39833984 237.64275391 121.71435547 238.42236328 C108.11733656 253.02470706 90.00774644 259.84086393 70.72607422 263.12939453 C69.65099609 263.31373047 68.57591797 263.49806641 67.46826172 263.68798828 C37.01966788 267.27952388 6.86589004 259.55400325 -17.34423828 240.62548828 C-20.62047498 237.83413462 -23.76222188 234.95301627 -26.83642578 231.94189453 C-27.5879895 231.21147949 -27.5879895 231.21147949 -28.35473633 230.46630859 C-31.47794016 227.30077621 -33.48674425 224.19117074 -35.27392578 220.12939453 C-29.85298158 212.5802278 -24.1701712 205.52348255 -17.77783203 198.77783203 C-16.31490924 197.23046596 -14.87333822 195.66131191 -13.48876953 194.04345703 C-11.05251055 191.27586683 -9.71244795 190.19024211 -6.00830078 189.67626953 C-1.40034874 190.23539342 0.89222631 192.14599057 4.22607422 195.12939453 C19.44556914 207.83898623 36.56749823 214.75455718 56.61767578 213.35253906 C67.14485447 212.23838421 77.56406418 207.67591183 84.82373047 199.87548828 C93.97821605 187.76668888 95.43385814 173.86350931 93.72607422 159.12939453 C91.2317727 149.16241099 86.11849542 141.9411704 77.40185547 136.52001953 C58.75083981 126.82693694 36.67739604 130.53638776 17.30810547 135.88720703 C16.16237061 136.20294678 15.01663574 136.51868652 13.83618164 136.84399414 C11.56510247 137.47798717 9.29802498 138.12655103 7.03588867 138.79174805 C-8.26768285 143.14140482 -8.26768285 143.14140482 -14.14453125 140.18994141 C-17.49475017 137.62381628 -19.09709318 135.09714849 -20.27392578 131.12939453 C-20.54037392 128.13649381 -20.50964191 125.16635326 -20.46289062 122.16381836 C-20.45184327 120.84495872 -20.45184327 120.84495872 -20.44057274 119.49945545 C-20.31874077 109.51312502 -19.80398185 99.54862697 -19.25048828 89.57861328 C-19.14287917 87.58048585 -19.03557585 85.58234194 -18.92855835 83.58418274 C-18.70509504 79.43523345 -18.47775204 75.2865206 -18.24755859 71.13793945 C-17.95519906 65.86271216 -17.6731004 60.58699382 -17.39394569 55.31105328 C-17.17513836 51.19863892 -16.95067332 47.08654757 -16.7245903 42.97452736 C-16.61839705 41.03046994 -16.51393611 39.08631697 -16.41136551 37.14206505 C-15.9394269 28.24662285 -15.4350156 19.36000512 -14.38085938 10.51147461 C-14.24167084 9.3425618 -14.1024823 8.17364899 -13.95907593 6.96931458 C-13.23817404 3.98120498 -12.73760041 2.9008532 -10.27392578 1.12939453 C-6.7750439 -0.03689943 -3.63894719 -0.01057428 0 0 Z " fill="#131F1A" transform="translate(453.27392578125,342.87060546875)"/>
<path d="M0 0 C0.77214844 0.00902344 1.54429687 0.01804688 2.33984375 0.02734375 C2.90832031 0.03894531 3.47679687 0.05054688 4.0625 0.0625 C3.78227669 3.42517969 3.42163724 4.74003143 0.86743164 7.03344727 C-1.88786892 9.02659749 -4.63404859 10.66996773 -7.62890625 12.27734375 C-8.72871826 12.87450195 -9.82853027 13.47166016 -10.96166992 14.08691406 C-11.53887787 14.39858521 -12.11608582 14.71025635 -12.71078491 15.03137207 C-25.19218392 21.78843094 -37.18864981 29.09441271 -48.9375 37.0625 C-50.3450389 38.00653008 -51.7525906 38.95054106 -53.16015625 39.89453125 C-70.25737265 51.43761353 -86.30737752 64.02017697 -101.5625 77.90625 C-103.11372694 79.31460078 -104.67585873 80.71105835 -106.25 82.09375 C-116.76079175 91.35984273 -126.99247846 101.26096456 -135.9375 112.0625 C-137.06671875 113.3928125 -137.06671875 113.3928125 -138.21875 114.75 C-140.38373215 117.31590477 -142.52708319 119.89594276 -144.65234375 122.49462891 C-145.87484348 123.98606 -147.10899706 125.46791612 -148.34375 126.94921875 C-155.79256872 136.19978096 -161.57261184 146.32737689 -167.49658203 156.59814453 C-169.26056012 159.6150193 -171.11878173 162.55497431 -173 165.5 C-182.31069238 180.57820373 -189.8783898 196.43305824 -196.13964844 212.98974609 C-197.18772842 215.71257323 -198.33952725 218.38592575 -199.5 221.0625 C-203.06669978 229.57231055 -205.9823398 238.32623424 -208.9375 247.0625 C-209.1967627 247.81885742 -209.45602539 248.57521484 -209.72314453 249.35449219 C-217.08068273 270.95258152 -221.86336584 293.0450079 -225.3125 315.5625 C-225.43987549 316.39011841 -225.56725098 317.21773682 -225.69848633 318.07043457 C-228.27138368 334.96232072 -229.12404472 351.48463326 -229.12280273 368.56933594 C-229.12497248 371.89531589 -229.14313369 375.22095416 -229.16210938 378.546875 C-229.21640379 398.48661495 -227.83604345 418.10686519 -224.375 437.75 C-224.25243835 438.46455353 -224.12987671 439.17910706 -224.00360107 439.91531372 C-221.62758077 453.67622723 -218.38426156 467.18727128 -214.83374023 480.68823242 C-214.64173538 481.42184998 -214.44973053 482.15546753 -214.25190735 482.91131592 C-213.72999662 484.89548382 -213.1995293 486.87739543 -212.66845703 488.85913086 C-211.9375 492.0625 -211.9375 492.0625 -211.9375 496.0625 C-216.99280065 495.68872546 -219.71771897 493.01408434 -223.125 489.5625 C-223.69307373 488.98935059 -224.26114746 488.41620117 -224.84643555 487.82568359 C-230.72565721 481.62877767 -234.82324861 474.64530318 -238.82177734 467.14404297 C-239.86768595 465.19274827 -240.95059307 463.26872628 -242.05078125 461.34765625 C-259.18642224 431.01366321 -267.92819491 394.43569108 -271.9375 360.0625 C-272.02410385 359.32582596 -272.1107077 358.58915192 -272.19993591 357.83015442 C-272.87241317 351.67207708 -273.09800438 345.59429373 -273.10546875 339.40234375 C-273.10879715 338.41359756 -273.11212555 337.42485138 -273.11555481 336.40614319 C-273.12058638 334.32455912 -273.12296431 332.24296709 -273.12280273 330.16137695 C-273.12497736 327.03257392 -273.14314134 323.90413098 -273.16210938 320.77539062 C-273.19599257 309.04033482 -272.68397021 297.66748067 -270.9375 286.0625 C-270.76049561 284.83958252 -270.58349121 283.61666504 -270.40112305 282.35668945 C-268.19718171 267.73161681 -265.4556192 253.49286386 -260.73779297 239.46484375 C-259.89811809 236.94428219 -259.10475821 234.41205136 -258.31640625 231.875 C-254.41247999 219.4952794 -249.55384929 207.758529 -243.9375 196.0625 C-243.40890381 194.95769287 -243.40890381 194.95769287 -242.86962891 193.83056641 C-236.49038579 180.58275469 -229.15279034 168.13453068 -220.9375 155.9375 C-220.26460937 154.93074219 -219.59171875 153.92398438 -218.8984375 152.88671875 C-201.42519934 126.81178999 -201.42519934 126.81178999 -191 115.3125 C-190.52723633 114.78672363 -190.05447266 114.26094727 -189.56738281 113.71923828 C-188.40107582 112.45849176 -187.17393473 111.25454989 -185.9375 110.0625 C-185.2775 110.0625 -184.6175 110.0625 -183.9375 110.0625 C-183.71449219 109.51078125 -183.49148437 108.9590625 -183.26171875 108.390625 C-181.52195903 105.3319324 -179.27985518 103.2551188 -176.75 100.8125 C-172.83078459 96.98520104 -169.11403938 93.06627454 -165.5546875 88.90234375 C-162.83241127 85.80526138 -159.88065883 82.94731428 -156.9375 80.0625 C-154.54236289 77.68649338 -152.16574902 75.30619444 -149.859375 72.84375 C-138.00897873 60.39657118 -123.54887607 50.74812048 -109.15527344 41.49023438 C-107.71936508 40.5658407 -106.28743041 39.63523282 -104.86035156 38.69726562 C-76.00907308 19.77613038 -35.32201153 -0.54341556 0 0 Z " fill="#FCA246" transform="translate(424.9375,137.9375)"/>
<path d="M0 0 C2.69737371 3.73482513 3.16123374 7.91474188 3.0859375 12.5078125 C0.26380856 29.29708803 -16.86326861 47.49977557 -29.5625 57.9375 C-33.50921387 60.66859358 -36.57116778 61.41012774 -41.375 61.25 C-44.38204566 59.09109542 -45.20422982 57.76231053 -46.375 54.25 C-48.05112659 41.88856638 -40.44873993 29.92060129 -33.36108398 20.28100586 C-19.02350409 1.50940164 -19.02350409 1.50940164 -11.5 -1.5 C-3.33876812 -2.46014493 -3.33876812 -2.46014493 0 0 Z " fill="#FEE0B3" transform="translate(264.375,247.75)"/>
<path d="M0 0 C0.33 0 0.66 0 1 0 C1.33 2.97 1.66 5.94 2 9 C2.33 9 2.66 9 3 9 C3 10.65 3 12.3 3 14 C2.01 14 1.02 14 0 14 C0 32.15 0 50.3 0 69 C-0.33 69 -0.66 69 -1 69 C-2.80124057 45.90552267 -2.14362251 23.04964309 0 0 Z " fill="#FDBC6B" transform="translate(116,442)"/>
<path d="M0 0 C1.49789402 2.99578804 1.00082655 5.64407419 0.87890625 8.9765625 C0.85529526 9.66181 0.83168427 10.3470575 0.80735779 11.05307007 C0.73072143 13.24392416 0.64669754 15.43442472 0.5625 17.625 C0.50927924 19.10935764 0.45653884 20.59373259 0.40429688 22.078125 C0.2751067 25.71896737 0.13928926 29.35952844 0 33 C1.98 33 3.96 33 6 33 C6 33.33 6 33.66 6 34 C-0.15234375 34.09765625 -0.15234375 34.09765625 -2 34 C-3 33 -3 33 -3.11352539 30.13256836 C-3.10828857 28.88096924 -3.10305176 27.62937012 -3.09765625 26.33984375 C-3.0962413 25.67537735 -3.09482635 25.01091095 -3.09336853 24.3263092 C-3.08775518 22.19666101 -3.07520054 20.06711661 -3.0625 17.9375 C-3.05748671 16.49674631 -3.05292351 15.05599097 -3.04882812 13.61523438 C-3.03778145 10.07678898 -3.02050792 6.53840461 -3 3 C-2.34 3 -1.68 3 -1 3 C-0.67 2.01 -0.34 1.02 0 0 Z " fill="#2B302A" transform="translate(485,394)"/>
<path d="M0 0 C0.33 0 0.66 0 1 0 C1.5810336 4.44197095 2.15005822 8.88528444 2.70898438 13.33007812 C2.89986704 14.83536087 3.09377414 16.34026383 3.29101562 17.84472656 C4.5723042 27.63743208 5.2837658 37.10563845 5 47 C4.67 47 4.34 47 4 47 C3.67 45.02 3.34 43.04 3 41 C2.67 41 2.34 41 2 41 C1.25844576 27.33646863 0.60415751 13.67027782 0 0 Z " fill="#F2A657" transform="translate(903,420)"/>
<path d="M0 0 C3.70605319 3.49835844 6.52199492 7.00850064 9.3125 11.3125 C10.00988281 12.38113281 10.70726562 13.44976562 11.42578125 14.55078125 C11.94527344 15.35902344 12.46476563 16.16726563 13 17 C12.67 17.66 12.34 18.32 12 19 C11.01 19 10.02 19 9 19 C8.608125 17.948125 8.21625 16.89625 7.8125 15.8125 C6.21179921 12.05236323 3.96673135 9.82201275 1 7 C-0.43834098 5.05127996 -1.71056046 3.05355186 -3 1 C-2.01 0.67 -1.02 0.34 0 0 Z " fill="#EF9A41" transform="translate(835,256)"/>
<path d="M0 0 C3.91209308 1.59415503 6.37218086 4.13893332 9.3125 7.125 C9.795979 7.61492432 10.27945801 8.10484863 10.77758789 8.60961914 C14.17233248 12.07679702 17.41176529 15.65136346 20.5625 19.33984375 C22.28180643 21.3254558 24.10564999 23.18142399 26 25 C25.67 25.66 25.34 26.32 25 27 C21.612801 25.5611898 19.6405896 23.77880501 17.25 21 C16.63640625 20.29875 16.0228125 19.5975 15.390625 18.875 C14 17 14 17 14 15 C13.34 15 12.68 15 12 15 C10.9943678 13.33672562 9.9955392 11.66933504 9 10 C7.48172357 8.37421177 5.91742463 6.79031414 4.3125 5.25 C2.85896801 3.84978736 1.4166885 2.43747848 0 1 C0 0.67 0 0.34 0 0 Z " fill="#F3A152" transform="translate(786,200)"/>
<path d="M0 0 C2.29042945 3.88960316 3.12167502 8.08604239 4.125 12.4375 C4.30675781 13.18837891 4.48851562 13.93925781 4.67578125 14.71289062 C5.57281888 18.54722066 6.23664396 22.03226954 6 26 C6.66 26.33 7.32 26.66 8 27 C7.67 28.65 7.34 30.3 7 32 C6.71125 31.401875 6.4225 30.80375 6.125 30.1875 C4.95257974 27.80672208 4.95257974 27.80672208 3 25 C2.37541834 22.4501024 1.83823476 19.95372282 1.375 17.375 C1.24311279 16.66021484 1.11122559 15.94542969 0.9753418 15.20898438 C0.07432083 10.06961203 -0.27987519 5.22433689 0 0 Z " fill="#F29D4A" transform="translate(895,383)"/>
<path d="M0 0 C0.66 0.33 1.32 0.66 2 1 C2.0582253 4.08325358 2.09367134 7.16636505 2.125 10.25 C2.14175781 11.12269531 2.15851562 11.99539063 2.17578125 12.89453125 C2.18222656 13.73886719 2.18867187 14.58320312 2.1953125 15.453125 C2.20578613 16.22817383 2.21625977 17.00322266 2.22705078 17.80175781 C1.97326556 20.25883539 1.22444152 21.87311542 0 24 C-0.92982259 21.21053224 -1.12857619 19.50389993 -1.1328125 16.62109375 C-1.13410156 15.78255859 -1.13539063 14.94402344 -1.13671875 14.08007812 C-1.13285156 13.20802734 -1.12898437 12.33597656 -1.125 11.4375 C-1.12886719 10.56158203 -1.13273438 9.68566406 -1.13671875 8.78320312 C-1.13542969 7.94595703 -1.13414062 7.10871094 -1.1328125 6.24609375 C-1.13168457 5.47966553 -1.13055664 4.7132373 -1.12939453 3.92358398 C-1 2 -1 2 0 0 Z " fill="#212620" transform="translate(598,503)"/>
<path d="M0 0 C10.9007327 4.98112951 20.29025293 16.34322676 27 26 C26.34 26.33 25.68 26.66 25 27 C24.45472656 26.31035156 23.90945313 25.62070312 23.34765625 24.91015625 C17.10141369 17.12637706 10.55937689 9.95635849 2.9375 3.5 C1.968125 2.675 0.99875 1.85 0 1 C0 0.67 0 0.34 0 0 Z " fill="#FAF8F0" transform="translate(641,322)"/>
<path d="M0 0 C0 0.66 0 1.32 0 2 C-0.92337158 2.05534912 -1.84674316 2.11069824 -2.7980957 2.16772461 C-6.22555454 2.37510281 -9.65275052 2.58610242 -13.07983398 2.79956055 C-14.56281784 2.89118284 -16.04589154 2.98136294 -17.52905273 3.07006836 C-19.66154873 3.19786106 -21.79366729 3.33084579 -23.92578125 3.46484375 C-25.20880127 3.543396 -26.49182129 3.62194824 -27.8137207 3.70288086 C-31.01878903 3.88027433 -31.01878903 3.88027433 -34 5 C-36.04296875 4.87890625 -36.04296875 4.87890625 -38.1875 4.5625 C-39.445625 4.376875 -40.70375 4.19125 -42 4 C-42 3.67 -42 3.34 -42 3 C-28.0746837 1.28637087 -14.05064035 -0.16827114 0 0 Z " fill="#FDC375" transform="translate(508,88)"/>
<path d="M0 0 C2.68756955 -0.02720824 5.37485798 -0.0469388 8.0625 -0.0625 C8.81466797 -0.07087891 9.56683594 -0.07925781 10.34179688 -0.08789062 C22.2905746 -0.13961694 22.2905746 -0.13961694 27 3 C28.65549531 3.38499891 30.3222433 3.72793135 32 4 C32 4.33 32 4.66 32 5 C21.14901727 4.49408601 10.67518472 2.92443806 0 1 C0 0.67 0 0.34 0 0 Z " fill="#F1A858" transform="translate(440,867)"/>
<path d="M0 0 C0.99 0 1.98 0 3 0 C2.14590173 4.50419983 -0.47747469 7.03017333 -3.5625 10.25 C-4.08263672 10.80429687 -4.60277344 11.35859375 -5.13867188 11.9296875 C-6.41930985 13.29256828 -7.7088049 14.64711683 -9 16 C-9.99 15.67 -10.98 15.34 -12 15 C-11.34 13.68 -10.68 12.36 -10 11 C-9.34 11 -8.68 11 -8 11 C-7.938125 10.401875 -7.87625 9.80375 -7.8125 9.1875 C-6.67922246 6.13636816 -4.75400399 5.6120999 -2 4 C-0.67206394 1.93299345 -0.67206394 1.93299345 0 0 Z " fill="#EA8F33" transform="translate(808,737)"/>
<path d="M0 0 C7.92 0 15.84 0 24 0 C23.67 0.99 23.34 1.98 23 3 C15.74 3 8.48 3 1 3 C0.67 2.01 0.34 1.02 0 0 Z " fill="#1F251F" transform="translate(494,604)"/>
<path d="M0 0 C0.33 0 0.66 0 1 0 C1.02712066 1.43739513 1.04645067 2.87493863 1.0625 4.3125 C1.07410156 5.11300781 1.08570313 5.91351562 1.09765625 6.73828125 C1 9 1 9 0 12 C-0.66 12 -1.32 12 -2 12 C-2 12.66 -2 13.32 -2 14 C-2.66 14 -3.32 14 -4 14 C-4 16.31 -4 18.62 -4 21 C-4.66 21 -5.32 21 -6 21 C-5.67 17.7 -5.34 14.4 -5 11 C-4.34 11 -3.68 11 -3 11 C-3.061875 10.113125 -3.12375 9.22625 -3.1875 8.3125 C-2.98002096 4.64703692 -2.15087824 2.92519441 0 0 Z " fill="#EE9236" transform="translate(895,573)"/>
<path d="M0 0 C0.33 0 0.66 0 1 0 C1.13809004 12.70428397 0.74136918 25.31729149 0 38 C-0.33 38 -0.66 38 -1 38 C-1.19581346 33.52115561 -1.3802636 29.04191574 -1.5625 24.5625 C-1.61857422 23.28310547 -1.67464844 22.00371094 -1.73242188 20.68554688 C-1.78076172 19.47060547 -1.82910156 18.25566406 -1.87890625 17.00390625 C-1.9260376 15.87799072 -1.97316895 14.7520752 -2.02172852 13.59204102 C-2 11 -2 11 -1 10 C-0.76712992 8.31816052 -0.58735834 6.6287584 -0.4375 4.9375 C-0.35371094 4.01839844 -0.26992188 3.09929687 -0.18359375 2.15234375 C-0.12300781 1.44207031 -0.06242188 0.73179687 0 0 Z " fill="#F59F5C" transform="translate(908,473)"/>
<path d="M0 0 C7.49440349 0.4996269 13.95650263 2.43764478 21 5 C21 5.66 21 6.32 21 7 C21.66 7.33 22.32 7.66 23 8 C15.01323028 6.48526781 7.59877122 3.83197448 0 1 C0 0.67 0 0.34 0 0 Z " fill="#F5A044" transform="translate(368,847)"/>
<path d="M0 0 C0.33 0 0.66 0 1 0 C1.02716824 2.54173977 1.04691969 5.08318415 1.0625 7.625 C1.07087891 8.33785156 1.07925781 9.05070313 1.08789062 9.78515625 C1.10710296 13.97344438 0.8267327 17.8728462 0 22 C-0.66 22 -1.32 22 -2 22 C-2.33 22.99 -2.66 23.98 -3 25 C-2.4237919 16.58432901 -1.38227951 8.32051741 0 0 Z " fill="#EE8B2D" transform="translate(903,529)"/>
<path d="M0 0 C1.0169313 2.65498232 1.13022151 3.69155375 0.00390625 6.359375 C-0.47175781 7.14828125 -0.94742188 7.9371875 -1.4375 8.75 C-1.91058594 9.54921875 -2.38367188 10.3484375 -2.87109375 11.171875 C-3.24363281 11.77515625 -3.61617187 12.3784375 -4 13 C-4.99 13 -5.98 13 -7 13 C-7 9.16235973 -5.73464665 7.88513915 -3.5 4.8125 C-2.8503125 3.91144531 -2.200625 3.01039063 -1.53125 2.08203125 C-1.0259375 1.39496094 -0.520625 0.70789063 0 0 Z " fill="#F99E43" transform="translate(187,257)"/>
<path d="M0 0 C5.94 0 11.88 0 18 0 C18 0.99 18 1.98 18 3 C12.06 3 6.12 3 0 3 C0 2.01 0 1.02 0 0 Z " fill="#EAE5D9" transform="translate(494,554)"/>
<path d="M0 0 C0.33 0 0.66 0 1 0 C3.97045941 16.81623714 3.97045941 16.81623714 2 25 C1.34 25.33 0.68 25.66 0 26 C0 17.42 0 8.84 0 0 Z " fill="#EC7E1A" transform="translate(906,458)"/>
<path d="M0 0 C-0.625 1.875 -0.625 1.875 -2 4 C-3.99172182 4.69100553 -5.99161804 5.35902703 -8 6 C-8.33 6.99 -8.66 7.98 -9 9 C-10.65 9 -12.3 9 -14 9 C-14.33 8.34 -14.66 7.68 -15 7 C-12.87767021 5.82823482 -10.75242209 4.66245215 -8.625 3.5 C-7.72007812 2.99919922 -7.72007812 2.99919922 -6.796875 2.48828125 C-2.2265625 0 -2.2265625 0 0 0 Z " fill="#FBA64D" transform="translate(335,131)"/>
<path d="M0 0 C3.52639788 2.75231054 6.54097681 5.52327244 9.4375 8.9375 C12.66615721 12.73549631 16.14102651 15.84981756 20 19 C19.34 19.66 18.68 20.32 18 21 C15.55834935 18.58749669 13.12243315 16.16928161 10.6875 13.75 C9.99720703 13.06808594 9.30691406 12.38617187 8.59570312 11.68359375 C7.92861328 11.01972656 7.26152344 10.35585938 6.57421875 9.671875 C5.96151123 9.0644043 5.34880371 8.45693359 4.7175293 7.83105469 C0 2.80170576 0 2.80170576 0 0 Z " fill="#F9F7F1" transform="translate(359,603)"/>
<path d="M0 0 C0.33 0 0.66 0 1 0 C1.2278425 3.51985147 1.42872813 7.04075822 1.625 10.5625 C1.68945312 11.55314453 1.75390625 12.54378906 1.8203125 13.56445312 C2.12046555 19.21108237 1.95630634 23.6761587 0 29 C-0.33 29 -0.66 29 -1 29 C-1.19148936 9.65957447 -1.19148936 9.65957447 0 0 Z " fill="#ED8017" transform="translate(906,491)"/>
<path d="M0 0 C2.78992366 2.48740182 4.44594313 5.24218857 6.25 8.5 C6.79140625 9.4590625 7.3328125 10.418125 7.890625 11.40625 C9 14 9 14 8 17 C8 16.34 8 15.68 8 15 C7.01 14.67 6.02 14.34 5 14 C4.3125 11.9375 4.3125 11.9375 4 10 C3.34 10 2.68 10 2 10 C0.39644899 6.49223216 -0.22036864 3.85645121 0 0 Z " fill="#F09740" transform="translate(857,290)"/>
<path d="M0 0 C1 3 1 3 0 6 C-1.92578125 7.5 -1.92578125 7.5 -4.3125 9 C-7.30379996 10.89861023 -10.19034276 12.83971434 -13 15 C-11.38989473 10.92623969 -8.46177729 8.23492931 -5.375 5.25 C-4.859375 4.74339844 -4.34375 4.23679688 -3.8125 3.71484375 C-2.54616661 2.47196098 -1.2736856 1.23534724 0 0 Z " fill="#FBA950" transform="translate(234,202)"/>
<path d="M0 0 C1.74690919 0.2143934 3.4974023 0.40107653 5.25 0.5625 C6.14203125 0.64628906 7.0340625 0.73007813 7.953125 0.81640625 C8.62859375 0.87699219 9.3040625 0.93757813 10 1 C10 1.33 10 1.66 10 2 C6.37 2.33 2.74 2.66 -1 3 C-1 3.33 -1 3.66 -1 4 C-3.64 4 -6.28 4 -9 4 C-7.68 3.67 -6.36 3.34 -5 3 C-5 2.34 -5 1.68 -5 1 C-8.3 1 -11.6 1 -15 1 C-15 0.67 -15 0.34 -15 0 C-13.25093341 -0.19601608 -11.50068154 -0.38147403 -9.75 -0.5625 C-8.77546875 -0.66691406 -7.8009375 -0.77132812 -6.796875 -0.87890625 C-4.1731945 -0.99250136 -2.4886051 -0.71103003 0 0 Z " fill="#FCB767" transform="translate(545,89)"/>
<path d="M0 0 C0.33 0.66 0.66 1.32 1 2 C1.66 2.33 2.32 2.66 3 3 C-2.91684902 7.90153173 -2.91684902 7.90153173 -7.4375 8.3125 C-8.7059375 8.1578125 -8.7059375 8.1578125 -10 8 C-6.97727468 4.74475735 -3.74281699 2.38179263 0 0 Z " fill="#FAA346" transform="translate(292,155)"/>
<path d="M0 0 C6.16356805 1.6658292 11.48259656 4.87805286 17 8 C15.68 8.33 14.36 8.66 13 9 C13 8.34 13 7.68 13 7 C11.68 7.33 10.36 7.66 9 8 C9 7.34 9 6.68 9 6 C8.071875 5.731875 7.14375 5.46375 6.1875 5.1875 C3.24260908 4.09038378 1.89483803 3.42118193 0 1 C0 0.67 0 0.34 0 0 Z " fill="#F9A548" transform="translate(681,127)"/>
<path d="M0 0 C0.33 0 0.66 0 1 0 C1.77313045 5.9114744 2.14819277 11.1314592 1 17 C0.34 17 -0.32 17 -1 17 C-1 18.65 -1 20.3 -1 22 C-1.33 22 -1.66 22 -2 22 C-1.85811015 19.45805839 -1.71160845 16.91652007 -1.5625 14.375 C-1.52318359 13.66214844 -1.48386719 12.94929688 -1.44335938 12.21484375 C-1.19690319 8.08196318 -0.76529947 4.07730976 0 0 Z " fill="#FBB15C" transform="translate(119,418)"/>
<path d="M0 0 C0 3.76603821 -1.07407243 4.77142649 -3.375 7.6875 C-4.00148438 8.49574219 -4.62796875 9.30398437 -5.2734375 10.13671875 C-5.84320313 10.75160156 -6.41296875 11.36648437 -7 12 C-7.66 12 -8.32 12 -9 12 C-9 12.66 -9 13.32 -9 14 C-9.99 14.33 -10.98 14.66 -12 15 C-12 14.34 -12 13.68 -12 13 C-11.34 13 -10.68 13 -10 13 C-10 12.34 -10 11.68 -10 11 C-9.34 10.67 -8.68 10.34 -8 10 C-8 9.01 -8 8.02 -8 7 C-6.25 5.17578125 -6.25 5.17578125 -4 3.3125 C-3.2575 2.68988281 -2.515 2.06726563 -1.75 1.42578125 C-1.1725 0.95527344 -0.595 0.48476562 0 0 Z " fill="#FAA249" transform="translate(262,177)"/>
<path d="M0 0 C1.65 0 3.3 0 5 0 C4.05581482 2.36046295 3.45659048 3.72278435 1.25 5.0625 C-1.24340847 6.1014202 -3.5952793 6.6359725 -6.25 7.125 C-7.58804688 7.37636719 -7.58804688 7.37636719 -8.953125 7.6328125 C-9.62859375 7.75398437 -10.3040625 7.87515625 -11 8 C-11 7.34 -11 6.68 -11 6 C-7.37 5.01 -3.74 4.02 0 3 C0 2.01 0 1.02 0 0 Z " fill="#E98C2F" transform="translate(707,819)"/>
<path d="M0 0 C0.66 1.32 1.32 2.64 2 4 C2.33 4.33 2.66 4.66 3 5 C3.07271741 7.35313555 3.08370868 9.70833668 3.0625 12.0625 C3.05347656 13.35285156 3.04445313 14.64320313 3.03515625 15.97265625 C3.02355469 16.97167969 3.01195312 17.97070312 3 19 C2.01 18.67 1.02 18.34 0 18 C0 12.06 0 6.12 0 0 Z " fill="#DAD4C6" transform="translate(433,400)"/>
<path d="M0 0 C0.99 0.99 1.98 1.98 3 3 C2.34 5.31 1.68 7.62 1 10 C-0.32 10 -1.64 10 -3 10 C-3.33 10.66 -3.66 11.32 -4 12 C-3.33501617 7.61110675 -1.81242323 4.0188515 0 0 Z " fill="#FAA347" transform="translate(147,326)"/>
<path d="M0 0 C4.86896303 0.59619955 9.32790951 1.56976822 14 3 C14 3.33 14 3.66 14 4 C9.38 4 4.76 4 0 4 C0 2.66666667 0 1.33333333 0 0 Z " fill="#FBA64F" transform="translate(607,100)"/>
<path d="M0 0 C0.85078125 0.10699219 1.7015625 0.21398437 2.578125 0.32421875 C3.91230469 0.48664063 3.91230469 0.48664063 5.2734375 0.65234375 C8.13518206 1.05491332 10.9858459 1.48814102 13.828125 2.01171875 C13.828125 2.34171875 13.828125 2.67171875 13.828125 3.01171875 C7.28501171 3.88728906 2.06164519 4.36660415 -4.171875 2.01171875 C-2.171875 0.01171875 -2.171875 0.01171875 0 0 Z " fill="#FBA84C" transform="translate(575.171875,92.98828125)"/>
<path d="M0 0 C-2.93969054 1.95979369 -4.55022586 2.48320069 -7.9375 3.125 C-8.79214844 3.29257812 -9.64679687 3.46015625 -10.52734375 3.6328125 C-13 4 -13 4 -17 4 C-17 3.34 -17 2.68 -17 2 C-10.81546992 -0.81115003 -6.65941972 -1.27947184 0 0 Z " fill="#F19A43" transform="translate(610,862)"/>
<path d="M0 0 C0 3 0 3 -1.875 5.1875 C-4 7 -4 7 -6 7 C-6.33 7.66 -6.66 8.32 -7 9 C-7.66 9 -8.32 9 -9 9 C-9.99 9.495 -9.99 9.495 -11 10 C-9.4114658 5.71095765 -6.56872632 3.67654474 -3 1 C-2.34 1 -1.68 1 -1 1 C-0.67 0.67 -0.34 0.34 0 0 Z " fill="#F9A249" transform="translate(222,218)"/>
<path d="M0 0 C-0.33 0.66 -0.66 1.32 -1 2 C-3.97 1.505 -3.97 1.505 -7 1 C-7 1.66 -7 2.32 -7 3 C-9.88211302 3.96070434 -11.69850044 4.10581883 -14.6875 4.0625 C-15.89986328 4.04896484 -15.89986328 4.04896484 -17.13671875 4.03515625 C-18.05904297 4.01775391 -18.05904297 4.01775391 -19 4 C-15.74904974 1.83269982 -13.28784815 1.18694693 -9.5 0.3125 C-7.78296875 -0.09548828 -7.78296875 -0.09548828 -6.03125 -0.51171875 C-3 -1 -3 -1 0 0 Z " fill="#FCA556" transform="translate(425,100)"/>
<path d="M0 0 C-2.11997834 1.19733988 -4.24513676 2.38298713 -6.375 3.5625 C-6.97828125 3.90474609 -7.5815625 4.24699219 -8.203125 4.59960938 C-9.76978241 5.46127095 -11.38290862 6.23718183 -13 7 C-13.66 6.67 -14.32 6.34 -15 6 C-12.87748883 3.69895986 -10.84451444 2.18105541 -8.0625 0.75 C-7.39347656 0.39421875 -6.72445312 0.0384375 -6.03515625 -0.328125 C-3.61730731 -1.12634 -2.36988243 -0.82707306 0 0 Z " fill="#EE9941" transform="translate(704,826)"/>
<path d="M0 0 C3 3.75 3 3.75 3 6 C3.66 6 4.32 6 5 6 C5.72505558 7.42913847 6.42958435 8.86870658 7.125 10.3125 C7.51945313 11.11300781 7.91390625 11.91351562 8.3203125 12.73828125 C8.54460937 13.48464844 8.76890625 14.23101563 9 15 C8.01 16.485 8.01 16.485 7 18 C5.82625827 15.56568361 4.66084237 13.12795818 3.5 10.6875 C3.16613281 9.99720703 2.83226562 9.30691406 2.48828125 8.59570312 C0 3.33984375 0 3.33984375 0 0 Z " fill="#FAA652" transform="translate(147,633)"/>
<path d="M0 0 C1.90185343 2.79684328 1.99271185 4.10385609 1.75 7.5625 C1 11 1 11 -1 14 C-1.66 13.34 -2.32 12.68 -3 12 C-2.79296875 9.94140625 -2.79296875 9.94140625 -2.1875 7.5625 C-1.99542969 6.78003906 -1.80335938 5.99757813 -1.60546875 5.19140625 C-1.12308568 3.44549076 -0.57279266 1.71837798 0 0 Z " fill="#FAA64C" transform="translate(133,362)"/>
<path d="M0 0 C-2.13274079 2.34601486 -4.02537789 3.86264449 -7 5 C-9.75 5.125 -9.75 5.125 -12 5 C-11.67 4.01 -11.34 3.02 -11 2 C-9.00390625 1.015625 -9.00390625 1.015625 -6.5625 0.25 C-5.75941406 -0.01296875 -4.95632813 -0.2759375 -4.12890625 -0.546875 C-2 -1 -2 -1 0 0 Z " fill="#EA8D30" transform="translate(690,832)"/>
<path d="M0 0 C2.12508244 3.18762365 2.5020163 5.26512223 3 9 C3.66 9 4.32 9 5 9 C5.33 12.96 5.66 16.92 6 21 C3.28441527 18.28441527 2.7991846 15.23958865 1.875 11.625 C1.69324219 10.95210938 1.51148438 10.27921875 1.32421875 9.5859375 C0.44863469 6.24160138 0 3.4843149 0 0 Z " fill="#EC831E" transform="translate(890,371)"/>
<path d="M0 0 C1.95174769 3.28142441 2.29714758 5.82783572 2.3125 9.625 C2.32925781 10.58664062 2.34601563 11.54828125 2.36328125 12.5390625 C2.24339844 13.35117187 2.12351562 14.16328125 2 15 C1.01 15.66 0.02 16.32 -1 17 C-1.02699725 14.72923158 -1.04639453 12.45837179 -1.0625 10.1875 C-1.07990234 8.29064453 -1.07990234 8.29064453 -1.09765625 6.35546875 C-1 3 -1 3 0 0 Z " fill="#EDE7DA" transform="translate(436,366)"/>
<path d="M0 0 C0.66 0.99 1.32 1.98 2 3 C1.38125 4.0725 0.7625 5.145 0.125 6.25 C-1.3323679 8.79780984 -2.72924491 11.35259355 -4 14 C-5.1796875 12.328125 -5.1796875 12.328125 -6 10 C-4.8828125 7.421875 -4.8828125 7.421875 -3.125 4.75 C-2.26261719 3.41195313 -2.26261719 3.41195313 -1.3828125 2.046875 C-0.92648438 1.37140625 -0.47015625 0.6959375 0 0 Z " fill="#FAA54E" transform="translate(166,289)"/>
<path d="M0 0 C4.60853797 0.72008406 8.67237409 2.31295939 13 4 C10 6 10 6 7 5.75 C4 5 4 5 1 3 C1.33 2.34 1.66 1.68 2 1 C1.34 0.67 0.68 0.34 0 0 Z " fill="#FAA34A" transform="translate(643,111)"/>
<path d="M0 0 C2.64 0 5.28 0 8 0 C8 0.33 8 0.66 8 1 C10.97 1.33 13.94 1.66 17 2 C17 2.33 17 2.66 17 3 C11.39 3 5.78 3 0 3 C0 2.01 0 1.02 0 0 Z " fill="#FD9223" transform="translate(523,88)"/>
<path d="M0 0 C0.99 0.33 1.98 0.66 3 1 C1.63629701 3.99220268 0.05091917 6.29026529 -2.125 8.75 C-2.93324219 9.67039062 -2.93324219 9.67039062 -3.7578125 10.609375 C-4.16773438 11.06828125 -4.57765625 11.5271875 -5 12 C-5.33 11.01 -5.66 10.02 -6 9 C-4.72641268 7.28724465 -3.38576923 5.62332967 -2 4 C-1.29114106 2.68861096 -0.60543548 1.36222983 0 0 Z " fill="#ED9941" transform="translate(822,721)"/>
<path d="M0 0 C0.99 0.495 0.99 0.495 2 1 C3.29930238 5.28769786 3.07516774 9.56510345 3 14 C2.01 14.33 1.02 14.66 0 15 C0 10.05 0 5.1 0 0 Z " fill="#F9EDDA" transform="translate(313,480)"/>
<path d="M0 0 C1 3 1 3 -0.1875 6.125 C-2 9 -2 9 -6 10 C-5.01 7.03 -4.02 4.06 -3 1 C-2.01 1.33 -1.02 1.66 0 2 C0 1.34 0 0.68 0 0 Z " fill="#FBA445" transform="translate(145,337)"/>
<path d="M0 0 C-1 3 -1 3 -3.375 4.25 C-6 5 -6 5 -9 4 C-9.33 3.34 -9.66 2.68 -10 2 C-3.375 -1.125 -3.375 -1.125 0 0 Z " fill="#FBA64C" transform="translate(375,115)"/>
<path d="M0 0 C1.41655793 -0.0272415 2.83327045 -0.04650467 4.25 -0.0625 C5.43335938 -0.07990234 5.43335938 -0.07990234 6.640625 -0.09765625 C8.90691002 -0.00385306 10.8288895 0.36758937 13 1 C13 1.66 13 2.32 13 3 C8.71 3 4.42 3 0 3 C0 2.01 0 1.02 0 0 Z " fill="#FAEBD7" transform="translate(491,277)"/>
<path d="M0 0 C2.74277578 3.19990508 4.6302836 6.00499382 6 10 C2.27382578 8.75794193 0.60708543 6.8889325 -2 4 C-2 3.34 -2 2.68 -2 2 C-1.34 2 -0.68 2 0 2 C0 1.34 0 0.68 0 0 Z " fill="#EE9941" transform="translate(850,278)"/>
<path d="M0 0 C0.66 0.33 1.32 0.66 2 1 C-0.31 3.64 -2.62 6.28 -5 9 C-6.32 8.67 -7.64 8.34 -9 8 C-6.03 5.36 -3.06 2.72 0 0 Z " fill="#FAA855" transform="translate(273,168)"/>
<path d="M0 0 C4.30764815 1.56641751 8.06171464 3.68336156 12 6 C9.31596792 7.34201604 8.2569869 6.70405525 5.4375 5.8125 C4.22900391 5.45091797 4.22900391 5.45091797 2.99609375 5.08203125 C1 4 1 4 0.22265625 1.88671875 C0.14917969 1.26410156 0.07570313 0.64148438 0 0 Z " fill="#F7A74D" transform="translate(702,138)"/>
<path d="M0 0 C1.41750563 0.11509661 2.83401169 0.24253658 4.25 0.375 C5.03890625 0.44460937 5.8278125 0.51421875 6.640625 0.5859375 C9.085877 1.01507113 10.84836903 1.78600638 13 3 C10 5 10 5 6 5 C6 4.34 6 3.68 6 3 C5.01 3 4.02 3 3 3 C3 2.34 3 1.68 3 1 C2.01 0.67 1.02 0.34 0 0 Z " fill="#FBB055" transform="translate(594,97)"/>
<path d="M0 0 C-0.99 1.485 -0.99 1.485 -2 3 C-4.7885289 3.22107787 -7.34653181 3.28107535 -10.125 3.1875 C-10.87910156 3.17396484 -11.63320313 3.16042969 -12.41015625 3.14648438 C-14.27374127 3.11109985 -16.13695978 3.05729167 -18 3 C-18 2.67 -18 2.34 -18 2 C-16.12612523 1.6603981 -14.25083303 1.32861309 -12.375 1 C-11.33085937 0.814375 -10.28671875 0.62875 -9.2109375 0.4375 C-6.09425135 0.01284203 -3.14069188 -0.07545206 0 0 Z " fill="#FDB66A" transform="translate(464,92)"/>
<path d="M0 0 C0.33 0 0.66 0 1 0 C1 1.65 1 3.3 1 5 C1.99 4.67 2.98 4.34 4 4 C4 5.65 4 7.3 4 9 C3.67 9 3.34 9 3 9 C2.67 10.98 2.34 12.96 2 15 C1.67 15 1.34 15 1 15 C0.15318867 9.91913204 -0.09038099 5.15171623 0 0 Z " fill="#FCB163" transform="translate(117,522)"/>
<path d="M0 0 C0.33 0 0.66 0 1 0 C1.33 6.27 1.66 12.54 2 19 C1.01 18.67 0.02 18.34 -1 18 C-0.505 9.09 -0.505 9.09 0 0 Z " fill="#403F34" transform="translate(548,507)"/>
<path d="M0 0 C0.33 0 0.66 0 1 0 C1.12036664 5.77759884 0.8320582 11.27959989 0 17 C-0.33 17 -0.66 17 -1 17 C-1.33 13.04 -1.66 9.08 -2 5 C-1.67 5 -1.34 5 -1 5 C-0.67 3.35 -0.34 1.7 0 0 Z " fill="#F3AA5E" transform="translate(906,514)"/>
<path d="M0 0 C6.75 -0.125 6.75 -0.125 9 1 C9 1.99 9 2.98 9 4 C6.03 3.67 3.06 3.34 0 3 C0 2.01 0 1.02 0 0 Z " fill="#EAE5DA" transform="translate(526,424)"/>
<path d="M0 0 C0.66 0.33 1.32 0.66 2 1 C0.71034824 2.37562854 -0.62689293 3.70766393 -2 5 C-2.66 5 -3.32 5 -4 5 C-4.33 5.99 -4.66 6.98 -5 8 C-5.66 7.67 -6.32 7.34 -7 7 C-7 6.01 -7 5.02 -7 4 C-1.7265625 0.77734375 -1.7265625 0.77734375 0 0 Z " fill="#FBA847" transform="translate(311,143)"/>
<path d="M0 0 C1.32 0.33 2.64 0.66 4 1 C2.68 2.65 1.36 4.3 0 6 C-1.32 5.67 -2.64 5.34 -4 5 C-2.68 3.35 -1.36 1.7 0 0 Z " fill="#EA8D31" transform="translate(756,786)"/>
<path d="M0 0 C5.75 3.625 5.75 3.625 8 7 C7.67 7.99 7.34 8.98 7 10 C6.59007812 9.51789062 6.18015625 9.03578125 5.7578125 8.5390625 C4.94957031 7.59160156 4.94957031 7.59160156 4.125 6.625 C3.59132812 5.99851562 3.05765625 5.37203125 2.5078125 4.7265625 C1.38567993 3.44163349 0.20628025 2.20628025 -1 1 C-0.67 0.67 -0.34 0.34 0 0 Z " fill="#F9A74A" transform="translate(195,716)"/>
<path d="M0 0 C1.125 3.75 1.125 3.75 0 6 C-0.66 6 -1.32 6 -2 6 C-2 8.31 -2 10.62 -2 13 C-2.66 13 -3.32 13 -4 13 C-3.67 9.7 -3.34 6.4 -3 3 C-2.01 3 -1.02 3 0 3 C0 2.01 0 1.02 0 0 Z " fill="#E98522" transform="translate(893,581)"/>
<path d="M0 0 C0.33 1.32 0.66 2.64 1 4 C-1.31 5.98 -3.62 7.96 -6 10 C-6 6.41087588 -5.33563446 5.89142971 -3 3.3125 C-2.443125 2.68988281 -1.88625 2.06726563 -1.3125 1.42578125 C-0.879375 0.95527344 -0.44625 0.48476562 0 0 Z " fill="#F9A74E" transform="translate(208,230)"/>
<path d="M0 0 C0.99 0.33 1.98 0.66 3 1 C2.3125 2.9375 2.3125 2.9375 1 5 C-1.625 5.75 -1.625 5.75 -4 6 C-3.67 4.68 -3.34 3.36 -3 2 C-2.01 2 -1.02 2 0 2 C0 1.34 0 0.68 0 0 Z " fill="#EC8D32" transform="translate(748,792)"/>
<path d="M0 0 C1 3 1 3 0.328125 4.7890625 C-0.02765625 5.39492188 -0.3834375 6.00078125 -0.75 6.625 C-1.09546875 7.23601563 -1.4409375 7.84703125 -1.796875 8.4765625 C-3 10 -3 10 -6 11 C-5.1875 8.0625 -5.1875 8.0625 -4 5 C-3.01 4.67 -2.02 4.34 -1 4 C-0.26676204 1.98491642 -0.26676204 1.98491642 0 0 Z " fill="#F19E42" transform="translate(869,649)"/>
<path d="M0 0 C-0.33 0.99 -0.66 1.98 -1 3 C-3.64 3.33 -6.28 3.66 -9 4 C-9.66 3.01 -10.32 2.02 -11 1 C-7.26562152 0.12132271 -3.83225427 -0.08912219 0 0 Z " fill="#232922" transform="translate(494,471)"/>
<path d="M0 0 C0.33 0 0.66 0 1 0 C0.67 6.27 0.34 12.54 0 19 C-0.33 19 -0.66 19 -1 19 C-1.22397733 16.95999027 -1.42848537 14.91783811 -1.625 12.875 C-1.74101563 11.73804688 -1.85703125 10.60109375 -1.9765625 9.4296875 C-2.00112837 5.83488201 -1.32167811 3.319329 0 0 Z " fill="#FC8314" transform="translate(118,435)"/>
<path d="M0 0 C3.01111938 4.51667907 3.10067926 7.6639991 3 13 C2.67 12.34 2.34 11.68 2 11 C1.34 11 0.68 11 0 11 C0 7.37 0 3.74 0 0 Z " fill="#ED9945" transform="translate(887,357)"/>
<path d="M0 0 C0.8353125 0.556875 0.8353125 0.556875 1.6875 1.125 C0.42142393 1.65729326 -0.85060412 2.17544544 -2.125 2.6875 C-2.83269531 2.97753906 -3.54039062 3.26757812 -4.26953125 3.56640625 C-6.3125 4.125 -6.3125 4.125 -9.3125 3.125 C-8.6525 3.125 -7.9925 3.125 -7.3125 3.125 C-7.3125 2.465 -7.3125 1.805 -7.3125 1.125 C-2.88173077 -1.09038462 -2.88173077 -1.09038462 0 0 Z " fill="#EC9A47" transform="translate(653.3125,847.875)"/>
<path d="M0 0 C7.50769231 0.61538462 7.50769231 0.61538462 10 2.5625 C10.33 3.036875 10.66 3.51125 11 4 C7.79937313 5.60031344 5.27728194 4.03173691 2 3 C2 2.34 2 1.68 2 1 C1.34 0.67 0.68 0.34 0 0 Z " fill="#F5AA43" transform="translate(339,835)"/>
<path d="M0 0 C0.33 0.66 0.66 1.32 1 2 C0.00390625 3.9453125 0.00390625 3.9453125 -1.4375 6.125 C-1.91058594 6.84945312 -2.38367188 7.57390625 -2.87109375 8.3203125 C-3.24363281 8.87460937 -3.61617187 9.42890625 -4 10 C-4.96956854 6.94813661 -5.1635271 6.33484121 -3.6875 3.3125 C-2 1 -2 1 0 0 Z " fill="#EE9A44" transform="translate(852,681)"/>
<path d="M0 0 C1.18771723 3.42943519 0.80226223 5.37784675 -0.4375 8.75 C-0.86869141 9.94882812 -0.86869141 9.94882812 -1.30859375 11.171875 C-1.53675781 11.77515625 -1.76492188 12.3784375 -2 13 C-2.66 11.68 -3.32 10.36 -4 9 C-3.34 9 -2.68 9 -2 9 C-2 6.69 -2 4.38 -2 2 C-1.34 2 -0.68 2 0 2 C0 1.34 0 0.68 0 0 Z " fill="#EFA34A" transform="translate(893,585)"/>
<path d="M0 0 C0.80824219 0.10183594 1.61648438 0.20367187 2.44921875 0.30859375 C3.06410156 0.39238281 3.67898438 0.47617188 4.3125 0.5625 C0.86799263 2.85883824 -1.62562283 3.10266485 -5.6875 3.5625 C-5.6875 2.9025 -5.6875 2.2425 -5.6875 1.5625 C-6.3475 1.2325 -7.0075 0.9025 -7.6875 0.5625 C-4.59271121 -0.46909626 -3.16118607 -0.41232862 0 0 Z " fill="#FBAB47" transform="translate(406.6875,104.4375)"/>
<path d="M0 0 C3.5625 1.25 3.5625 1.25 7 3 C7.33 3.99 7.66 4.98 8 6 C4.08788267 4.84414715 1.1254959 3.64465038 -2 1 C-1.34 0.67 -0.68 0.34 0 0 Z " fill="#F8A048" transform="translate(331,829)"/>
<path d="M0 0 C0.68359375 1.703125 0.68359375 1.703125 1 4 C-0.21484375 6.359375 -0.21484375 6.359375 -1.9375 8.75 C-2.50339844 9.54921875 -3.06929687 10.3484375 -3.65234375 11.171875 C-4.09707031 11.77515625 -4.54179688 12.3784375 -5 13 C-5.33 12.34 -5.66 11.68 -6 11 C-4.78515625 8.3984375 -4.78515625 8.3984375 -3.0625 5.375 C-2.21365234 3.87066406 -2.21365234 3.87066406 -1.34765625 2.3359375 C-0.90292969 1.56507813 -0.45820312 0.79421875 0 0 Z " fill="#F89E3A" transform="translate(693,564)"/>
<path d="M0 0 C0.33 0 0.66 0 1 0 C1.33 3.3 1.66 6.6 2 10 C1.01 9.67 0.02 9.34 -1 9 C-1.33 9.99 -1.66 10.98 -2 12 C-1 3.42857143 -1 3.42857143 0 0 Z " fill="#FAAE59" transform="translate(125,390)"/>
<path d="M0 0 C-0.33 1.32 -0.66 2.64 -1 4 C-2.32 4.33 -3.64 4.66 -5 5 C-5 3.68 -5 2.36 -5 1 C-3 0 -3 0 0 0 Z " fill="#EA8F33" transform="translate(789,760)"/>
<path d="M0 0 C0.66 0.33 1.32 0.66 2 1 C0.7934375 1.4021875 0.7934375 1.4021875 -0.4375 1.8125 C-1.283125 2.204375 -2.12875 2.59625 -3 3 C-3.33 3.99 -3.66 4.98 -4 6 C-5.65 6 -7.3 6 -9 6 C-6.45368965 3.02930459 -3.57769851 1.5224249 0 0 Z " fill="#FAF8F2" transform="translate(558,594)"/>
<path d="M0 0 C0.93065133 2.60582371 1.14917407 3.64198224 0.0625 6.25 C-0.4634375 7.11625 -0.4634375 7.11625 -1 8 C-1.99 7.67 -2.98 7.34 -4 7 C-2.92598892 4.08482708 -2.22189824 2.22189824 0 0 Z " fill="#FBAA53" transform="translate(187,257)"/>
<path d="M0 0 C0.93065133 2.60582371 1.14917407 3.64198224 0.0625 6.25 C-0.4634375 7.11625 -0.4634375 7.11625 -1 8 C-1.99 7.67 -2.98 7.34 -4 7 C-2.92598892 4.08482708 -2.22189824 2.22189824 0 0 Z " fill="#FBA852" transform="translate(192,250)"/>
<path d="M0 0 C1.98 1.65 3.96 3.3 6 5 C5.67 5.66 5.34 6.32 5 7 C4.67 6.67 4.34 6.34 4 6 C3.34 6.66 2.68 7.32 2 8 C0.74335022 5.09399739 0 3.20395416 0 0 Z " fill="#F3A04A" transform="translate(812,227)"/>
<path d="M0 0 C4.95 0.33 9.9 0.66 15 1 C15 1.33 15 1.66 15 2 C9.43842552 2.91457003 5.324335 3.32086397 0 1 C0 0.67 0 0.34 0 0 Z " fill="#FEB960" transform="translate(557,91)"/>
<path d="M0 0 C0.99 0.33 1.98 0.66 3 1 C4.1875 3.5625 4.1875 3.5625 5 6 C1.34683329 4.75023244 0.21934164 4.32901247 -2 1 C-1.34 0.67 -0.68 0.34 0 0 Z " fill="#F69E42" transform="translate(280,797)"/>
<path d="M0 0 C0.66 0.33 1.32 0.66 2 1 C0.875 2.5 0.875 2.5 -1 4 C-4.1875 4.1875 -4.1875 4.1875 -7 4 C-4.61426621 2.10786631 -2.92824652 0.97608217 0 0 Z " fill="#F08F2C" transform="translate(669,840)"/>
<path d="M0 0 C0.33 0 0.66 0 1 0 C1 1.65 1 3.3 1 5 C0.34 5 -0.32 5 -1 5 C-1.33 6.32 -1.66 7.64 -2 9 C-2.99 8.67 -3.98 8.34 -5 8 C-4.67 7.34 -4.34 6.68 -4 6 C-3.34 6 -2.68 6 -2 6 C-1.34 4.02 -0.68 2.04 0 0 Z " fill="#EB8521" transform="translate(870,644)"/>
<path d="M0 0 C0.66 0.33 1.32 0.66 2 1 C1.67 3.31 1.34 5.62 1 8 C0.01 7.67 -0.98 7.34 -2 7 C-2 5.68 -2 4.36 -2 3 C-1.34 3 -0.68 3 0 3 C0 2.01 0 1.02 0 0 Z " fill="#FAA041" transform="translate(128,383)"/>
<path d="M0 0 C3.36720387 1.39332574 4.9859524 2.9789286 7 6 C4.625 5.8125 4.625 5.8125 2 5 C0.6875 2.4375 0.6875 2.4375 0 0 Z " fill="#F4A147" transform="translate(773,188)"/>
<path d="M0 0 C0.8971875 0.5259375 0.8971875 0.5259375 1.8125 1.0625 C-1.40201269 2.66975635 -4.62362536 2.11998185 -8.1875 2.0625 C-3.10054348 -1.32880435 -3.10054348 -1.32880435 0 0 Z " fill="#E98623" transform="translate(632.1875,853.9375)"/>
<path d="M0 0 C0.66 0 1.32 0 2 0 C1.67 1.32 1.34 2.64 1 4 C-0.65 4.33 -2.3 4.66 -4 5 C-3.67 4.01 -3.34 3.02 -3 2 C-2.01 2 -1.02 2 0 2 C0 1.34 0 0.68 0 0 Z " fill="#EB8D30" transform="translate(741,798)"/>
<path d="M0 0 C0 0.99 0 1.98 0 3 C-2.31 3 -4.62 3 -7 3 C-7 2.34 -7 1.68 -7 1 C-4.53721199 -0.231394 -2.7204945 -0.07159196 0 0 Z " fill="#F2EDE0" transform="translate(514,473)"/>
<path d="M0 0 C0.66 0.33 1.32 0.66 2 1 C2.1875 3.875 2.1875 3.875 2 7 C1.01 7.66 0.02 8.32 -1 9 C-1.09765625 2.84765625 -1.09765625 2.84765625 -1 1 C-0.67 0.67 -0.34 0.34 0 0 Z " fill="#EEE7D8" transform="translate(437,355)"/>
<path d="M0 0 C2.475 0.99 2.475 0.99 5 2 C5 2.99 5 3.98 5 5 C4.01 5.495 4.01 5.495 3 6 C1.5 4.6875 1.5 4.6875 0 3 C0 2.01 0 1.02 0 0 Z " fill="#F69E42" transform="translate(740,162)"/>
<path d="M0 0 C0.78890625 0.12761719 1.5778125 0.25523438 2.390625 0.38671875 C3.18984375 0.50660156 3.9890625 0.62648438 4.8125 0.75 C5.41578125 0.85699219 6.0190625 0.96398437 6.640625 1.07421875 C6.640625 1.40421875 6.640625 1.73421875 6.640625 2.07421875 C0.205625 2.56921875 0.205625 2.56921875 -6.359375 3.07421875 C-2.359375 0.07421875 -2.359375 0.07421875 0 0 Z " fill="#FD8E1C" transform="translate(467.359375,90.92578125)"/>
<path d="M0 0 C3 1 3 1 3 1 Z " fill="#FFAA00" transform="translate(579,870)"/>
<path d="M0 0 C2 1 2 1 2 1 Z " fill="#FF0000" transform="translate(612,863)"/>
<path d="M0 0 C2 1 2 1 2 1 Z " fill="#FF0000" transform="translate(337,836)"/>
<path d="M0 0 C2 1 2 1 2 1 Z " fill="#FFBF00" transform="translate(296,813)"/>
<path d="" fill="#FF0000" transform="translate(0,0)"/>
<path d="M0 0 C2 1 2 1 2 1 Z " fill="#FF7F00" transform="translate(753,169)"/>
<path d="M0 0 C2 1 2 1 2 1 Z " fill="#FF7F00" transform="translate(549,88)"/>
<path d="M0 0 C2 1 2 1 2 1 Z " fill="#FF0000" transform="translate(479,88)"/>
<path d="" fill="#FF0000" transform="translate(0,0)"/>
<path d="" fill="#FFFF00" transform="translate(0,0)"/>
<path d="" fill="#FF0000" transform="translate(0,0)"/>
<path d="" fill="#FFFF00" transform="translate(0,0)"/>
<path d="" fill="#FF0000" transform="translate(0,0)"/>
<path d="" fill="#FFFF00" transform="translate(0,0)"/>
<path d="" fill="#FF0000" transform="translate(0,0)"/>
<path d="" fill="#FF0000" transform="translate(0,0)"/>
<path d="" fill="#FFFF00" transform="translate(0,0)"/>
<path d="" fill="#FF0000" transform="translate(0,0)"/>
<path d="" fill="#FF0000" transform="translate(0,0)"/>
<path d="" fill="#FF0000" transform="translate(0,0)"/>
<path d="" fill="#FF0000" transform="translate(0,0)"/>
<path d="" fill="#FF0000" transform="translate(0,0)"/>
<path d="" fill="#FF0000" transform="translate(0,0)"/>
<path d="" fill="#FF0000" transform="translate(0,0)"/>
<path d="" fill="#FF0000" transform="translate(0,0)"/>
<path d="" fill="#FFFF00" transform="translate(0,0)"/>
<path d="" fill="#FFFF00" transform="translate(0,0)"/>
<path d="" fill="#FFFF00" transform="translate(0,0)"/>
<path d="" fill="#FF0000" transform="translate(0,0)"/>
<path d="" fill="#FF0000" transform="translate(0,0)"/>
<path d="" fill="#FF0000" transform="translate(0,0)"/>
<path d="" fill="#FF0000" transform="translate(0,0)"/>
<path d="" fill="#FFFF00" transform="translate(0,0)"/>
<path d="" fill="#FF0000" transform="translate(0,0)"/>
<path d="" fill="#FFFF00" transform="translate(0,0)"/>
<path d="" fill="#FF0000" transform="translate(0,0)"/>
<path d="" fill="#FF0000" transform="translate(0,0)"/>
<path d="" fill="#FF0000" transform="translate(0,0)"/>
<path d="" fill="#FF0000" transform="translate(0,0)"/>
<path d="" fill="#FF0000" transform="translate(0,0)"/>
<path d="" fill="#FF0000" transform="translate(0,0)"/>
<path d="" fill="#FF0000" transform="translate(0,0)"/>
<path d="" fill="#FFFF00" transform="translate(0,0)"/>
<path d="" fill="#FF0000" transform="translate(0,0)"/>
<path d="" fill="#FF0000" transform="translate(0,0)"/>
<path d="" fill="#FFFF00" transform="translate(0,0)"/>
<path d="" fill="#FF0000" transform="translate(0,0)"/>
<path d="" fill="#FF0000" transform="translate(0,0)"/>
<path d="" fill="#FF0000" transform="translate(0,0)"/>
<path d="" fill="#FF0000" transform="translate(0,0)"/>
<path d="" fill="#FF0000" transform="translate(0,0)"/>
<path d="" fill="#FFFF00" transform="translate(0,0)"/>
<path d="" fill="#FF0000" transform="translate(0,0)"/>
<path d="" fill="#FF0000" transform="translate(0,0)"/>
<path d="" fill="#FF0000" transform="translate(0,0)"/>
<path d="" fill="#FF0000" transform="translate(0,0)"/>
<path d="" fill="#FFFF00" transform="translate(0,0)"/>
<path d="" fill="#FFFF00" transform="translate(0,0)"/>
<path d="" fill="#FF0000" transform="translate(0,0)"/>
<path d="" fill="#FF0000" transform="translate(0,0)"/>
<path d="" fill="#FF0000" transform="translate(0,0)"/>
<path d="" fill="#FF0000" transform="translate(0,0)"/>
<path d="" fill="#FF0000" transform="translate(0,0)"/>
<path d="" fill="#FFFF00" transform="translate(0,0)"/>
<path d="" fill="#FFFF00" transform="translate(0,0)"/>
<path d="" fill="#FF0000" transform="translate(0,0)"/>
<path d="" fill="#FFFF00" transform="translate(0,0)"/>
<path d="" fill="#FFFF00" transform="translate(0,0)"/>
<path d="" fill="#FFFF00" transform="translate(0,0)"/>
<path d="" fill="#FFFF00" transform="translate(0,0)"/>
<path d="" fill="#FFFF00" transform="translate(0,0)"/>
</svg>
