<?xml version="1.0" encoding="UTF-8"?>
<svg version="1.1" xmlns="http://www.w3.org/2000/svg" width="1024" height="1024">
<path d="M0 0 C1.27204788 -0.00163147 1.27204788 -0.00163147 2.5697937 -0.0032959 C4.96980041 -0.0029452 7.36956542 0.00609246 9.76953125 0.01953125 C10.49196014 0.02074478 11.21438904 0.02195831 11.95870972 0.02320862 C16.95370455 0.07060227 16.95370455 0.07060227 19.1875 1.1875 C21.26721749 1.46880906 23.35344914 1.7024149 25.44140625 1.9140625 C26.76754146 2.05513472 28.09354527 2.19744618 29.41943359 2.34082031 C30.12380554 2.41675415 30.82817749 2.49268799 31.55389404 2.57092285 C67.65680397 6.54233325 101.96103842 15.7463339 135.69775391 29.21777344 C138.49709534 30.30808371 141.32912413 31.26423993 144.1875 32.1875 C145.91250637 33.05000318 147.63429941 33.91892757 149.35546875 34.7890625 C157.46218608 38.87411199 165.60651314 42.81620176 173.8828125 46.546875 C177.19086301 48.18916958 180.11937722 50.14208481 183.1875 52.1875 C183.8475 52.1875 184.5075 52.1875 185.1875 52.1875 C186.20448253 53.17022404 187.20224487 54.17296941 188.1875 55.1875 C189.33058028 55.97863406 190.50054666 56.73201649 191.69140625 57.44921875 C192.67850586 58.04379883 192.67850586 58.04379883 193.68554688 58.65039062 C194.70745117 59.25657227 194.70745117 59.25657227 195.75 59.875 C196.43513672 60.29072266 197.12027344 60.70644531 197.82617188 61.13476562 C201.26579926 63.39861059 201.26579926 63.39861059 205.1875 64.1875 C205.1875 64.8475 205.1875 65.5075 205.1875 66.1875 C205.76491943 66.46005615 206.34233887 66.7326123 206.93725586 67.01342773 C209.18074412 68.1839751 211.14198871 69.49117031 213.19140625 70.97265625 C213.93197266 71.50310547 214.67253906 72.03355469 215.43554688 72.58007812 C216.98293821 73.69655035 218.52981059 74.81374217 220.07617188 75.93164062 C220.81544922 76.46080078 221.55472656 76.98996094 222.31640625 77.53515625 C222.98744385 78.01992432 223.65848145 78.50469238 224.34985352 79.00415039 C226.28503122 80.35765014 226.28503122 80.35765014 229.1875 81.1875 C230.87893543 82.82902422 232.54306909 84.49889035 234.1875 86.1875 C235.79314232 87.54408229 237.41911801 88.87689006 239.0625 90.1875 C245.64030355 95.50856873 252.01804629 101.05111126 258.38085938 106.62646484 C259.64024396 107.7146412 260.91360258 108.78676396 262.19726562 109.84619141 C262.83857422 110.37776855 263.47988281 110.9093457 264.140625 111.45703125 C264.72489258 111.93374268 265.30916016 112.4104541 265.91113281 112.90161133 C267.1875 114.1875 267.1875 114.1875 267.1875 116.1875 C268.1775 116.5175 269.1675 116.8475 270.1875 117.1875 C270.1875 117.8475 270.1875 118.5075 270.1875 119.1875 C270.74050781 119.4040625 271.29351563 119.620625 271.86328125 119.84375 C274.93838356 121.62162428 277.05142725 124.05430892 279.375 126.6875 C280.10227295 127.49924683 280.10227295 127.49924683 280.84423828 128.32739258 C281.83262723 129.4307746 282.81897336 130.53599011 283.80322266 131.64306641 C285.0011912 132.9796359 286.2231156 134.29466071 287.44921875 135.60546875 C294.02790395 142.67056321 299.80084615 150.32033033 305.57958984 158.04003906 C307.08442687 160.04983963 308.59841778 162.05244216 310.11328125 164.0546875 C315.49382329 171.22623645 320.44342269 178.54519064 325.01635742 186.26196289 C326.0231002 187.93512629 327.09893969 189.56637594 328.1875 191.1875 C328.8475 191.1875 329.5075 191.1875 330.1875 191.1875 C330.29964844 191.75210938 330.41179688 192.31671875 330.52734375 192.8984375 C331.2726781 195.48285126 332.38997119 197.49541388 333.75 199.8125 C336.1875 203.96936969 336.1875 203.96936969 336.1875 206.1875 C336.8475 206.5175 337.5075 206.8475 338.1875 207.1875 C339.14550781 208.87060547 339.14550781 208.87060547 340.140625 211.0546875 C340.50994141 211.85318115 340.87925781 212.6516748 341.25976562 213.47436523 C341.84274414 214.75549194 341.84274414 214.75549194 342.4375 216.0625 C345.43636722 222.5453097 348.51867236 228.87172327 352.09375 235.05859375 C353.16050761 237.13496124 353.72112104 238.91047331 354.1875 241.1875 C354.99398688 244.84420531 354.99398688 244.84420531 356.1875 248.1875 C357.1775 248.5175 358.1675 248.8475 359.1875 249.1875 C358.5275 249.1875 357.8675 249.1875 357.1875 249.1875 C357.6 250.24582031 358.0125 251.30414063 358.4375 252.39453125 C370.68913704 284.39829418 378.33316354 317.19687339 382.1875 351.1875 C382.28772461 352.03586426 382.38794922 352.88422852 382.49121094 353.75830078 C388.77011563 410.51353034 380.99050294 470.44185579 361.81640625 524.11328125 C361.04242127 526.30474522 361.04242127 526.30474522 361.1875 529.1875 C360.5275 529.1875 359.8675 529.1875 359.1875 529.1875 C359.06294434 529.90969727 358.93838867 530.63189453 358.81005859 531.37597656 C358.1943703 534.15647317 357.32970504 536.55033662 356.2265625 539.171875 C355.83726562 540.10773437 355.44796875 541.04359375 355.046875 542.0078125 C354.63953125 542.97460938 354.2321875 543.94140625 353.8125 544.9375 C351.00407511 551.62336311 348.39168068 558.27632702 346.1875 565.1875 C345.5275 565.1875 344.8675 565.1875 344.1875 565.1875 C343.960625 565.991875 343.73375 566.79625 343.5 567.625 C342.08432969 571.46753371 340.22366106 574.73887267 338.11328125 578.234375 C337.80777344 578.87890625 337.50226562 579.5234375 337.1875 580.1875 C337.5175 580.8475 337.8475 581.5075 338.1875 582.1875 C337.1975 582.1875 336.2075 582.1875 335.1875 582.1875 C334.92453125 582.88875 334.6615625 583.59 334.390625 584.3125 C322.611143 612.46087257 300.19321753 638.52884982 279.5625 660.62890625 C277.56931231 662.77617259 275.64780933 664.95666163 273.75 667.1875 C266.55532252 675.47175604 258.57304992 683.12358567 250.1875 690.1875 C249.2696875 690.98285156 248.351875 691.77820313 247.40625 692.59765625 C223.00389307 713.66257514 196.24145157 731.84953056 167.47436523 746.40600586 C166.55083252 746.87401611 165.6272998 747.34202637 164.67578125 747.82421875 C163.85634033 748.23373779 163.03689941 748.64325684 162.19262695 749.06518555 C160.0469525 750.14693844 160.0469525 750.14693844 158.1875 752.1875 C156.19876137 752.88704494 154.19695548 753.5499005 152.1875 754.1875 C150.40338375 754.92698986 148.62863398 755.68942846 146.86328125 756.47265625 C135.12288814 761.60529739 123.40686577 766.33804957 111.25 770.375 C110.08960205 770.76115479 108.9292041 771.14730957 107.73364258 771.54516602 C99.60708144 774.1875 99.60708144 774.1875 96.1875 774.1875 C95.8575 774.8475 95.5275 775.5075 95.1875 776.1875 C93.17138672 776.71704102 93.17138672 776.71704102 90.4921875 777.12890625 C86.13633449 777.84879489 81.82417863 778.6606519 77.5078125 779.58984375 C47.19924782 786.06941797 17.5163805 789.61549261 -13.5 789.5625 C-14.65214996 789.56228851 -15.80429993 789.56207703 -16.99136353 789.56185913 C-36.85959831 789.52567052 -56.20103046 788.35374548 -75.8125 785.1875 C-76.96524414 785.00558105 -78.11798828 784.82366211 -79.30566406 784.63623047 C-121.72779476 777.7344619 -162.89276 763.35735903 -200.8125 743.1875 C-201.42754395 742.86136719 -202.04258789 742.53523437 -202.67626953 742.19921875 C-223.84259423 730.8696851 -243.57954488 717.40340956 -262.2109375 702.296875 C-263.76180601 700.99769384 -263.76180601 700.99769384 -265.8125 701.1875 C-265.8125 700.1975 -265.8125 699.2075 -265.8125 698.1875 C-266.3796875 697.93871094 -266.946875 697.68992187 -267.53125 697.43359375 C-270.17033826 695.99203698 -272.10077664 694.2884717 -274.3125 692.25 C-275.17875 691.45851563 -276.045 690.66703125 -276.9375 689.8515625 C-278.98388607 687.95531889 -281.02510322 686.05427252 -283.0625 684.1484375 C-283.60326172 683.64562256 -284.14402344 683.14280762 -284.70117188 682.62475586 C-285.76410651 681.63542139 -286.82281427 680.64152342 -287.87695312 679.64282227 C-290.4188899 676.98404838 -290.4188899 676.98404838 -293.8125 676.1875 C-294.82244127 674.52683856 -295.82040677 672.8588853 -296.8125 671.1875 C-298.28550673 669.55957812 -299.80847276 667.97563877 -301.375 666.4375 C-302.55255859 665.26960937 -302.55255859 665.26960937 -303.75390625 664.078125 C-305.67032262 662.14374326 -305.67032262 662.14374326 -307.8125 661.1875 C-308.22242188 660.47722656 -308.63234375 659.76695312 -309.0546875 659.03515625 C-311.27426849 655.43943504 -314.01146756 652.65258396 -316.9375 649.625 C-323.41064924 642.79694735 -329.04820494 635.63509163 -334.40234375 627.88671875 C-335.50299494 626.2947624 -336.65126234 624.73581688 -337.8125 623.1875 C-338.4725 623.1875 -339.1325 623.1875 -339.8125 623.1875 C-340.225 622.115 -340.6375 621.0425 -341.0625 619.9375 C-342.4556264 616.63132443 -344.22693394 614.68390861 -346.8125 612.1875 C-346.8125 611.1975 -346.8125 610.2075 -346.8125 609.1875 C-347.4725 608.8575 -348.1325 608.5275 -348.8125 608.1875 C-405.79762729 528.35308581 -422.996004 421.05092857 -407.42626953 325.73730469 C-396.59992263 263.12191726 -371.23465091 205.00454642 -331.8125 155.1875 C-331.08675781 154.26710937 -330.36101562 153.34671875 -329.61328125 152.3984375 C-324.93667613 146.57157223 -320.00479154 141.03835365 -314.88525391 135.6015625 C-312.82375313 133.40664232 -310.856386 131.24796736 -309.0859375 128.80859375 C-308.66570312 128.27363281 -308.24546875 127.73867187 -307.8125 127.1875 C-307.1525 127.1875 -306.4925 127.1875 -305.8125 127.1875 C-305.585625 126.630625 -305.35875 126.07375 -305.125 125.5 C-303.06444706 121.86950197 -300.40602047 118.96149565 -296.625 117.125 C-294.65324705 116.33401578 -294.65324705 116.33401578 -293.90234375 114.31640625 C-292.70716327 111.98173471 -291.56650498 110.8604085 -289.5625 109.1875 C-288.84320313 108.58035156 -288.12390625 107.97320312 -287.3828125 107.34765625 C-286.53460938 106.63480469 -285.68640625 105.92195313 -284.8125 105.1875 C-283.81992187 104.31996094 -282.82734375 103.45242187 -281.8046875 102.55859375 C-206.49569932 36.75690394 -110.3289612 0.99040791 0 0 Z " fill="#CD3127" transform="translate(525.8125,87.8125)"/>
<path d="M0 0 C2.52998932 2.26223935 5.00487333 4.57764275 7.45751953 6.92333984 C8.48753275 7.90789677 9.52249959 8.8872939 10.56201172 9.86181641 C46.03953472 43.20356879 67.48449087 91.96073996 69.08935547 140.56201172 C69.4056377 154.2839457 69.31133098 167.8379301 66.984375 181.3828125 C66.83371582 182.29675781 66.68305664 183.21070313 66.52783203 184.15234375 C60.70931992 218.62744719 47.35102416 250.36363728 24.984375 277.3828125 C24.5085498 277.96015137 24.03272461 278.53749023 23.54248047 279.13232422 C-9.56558368 319.07546251 -55.73491754 345.53865261 -107.61778259 351.16893005 C-111.41785421 351.50788837 -115.20607788 351.58376653 -119.01953125 351.62109375 C-119.8521196 351.6308876 -120.68470795 351.64068146 -121.54252625 351.65077209 C-139.69153168 351.82034163 -157.28511432 351.7555398 -175.015625 347.3828125 C-175.90507812 347.16850586 -176.79453125 346.95419922 -177.7109375 346.73339844 C-213.6966169 337.82772058 -244.31267164 319.85675964 -271.015625 294.3828125 C-271.86769531 293.58359375 -272.71976562 292.784375 -273.59765625 291.9609375 C-301.87629167 264.70656762 -318.28601459 228.39143205 -326.015625 190.3828125 C-326.19496582 189.52316895 -326.37430664 188.66352539 -326.55908203 187.77783203 C-336.35619365 138.88956402 -324.90641584 84.79327452 -297.67578125 43.2890625 C-289.70100863 31.45341639 -280.9384634 20.63122192 -271.015625 10.3828125 C-269.95408203 9.26132812 -269.95408203 9.26132812 -268.87109375 8.1171875 C-263.64810852 2.71336571 -257.93137023 -1.99269631 -252.015625 -6.6171875 C-251.22188477 -7.24947266 -251.22188477 -7.24947266 -250.41210938 -7.89453125 C-181.30402462 -62.62878404 -78.60764405 -60.53011559 0 0 Z " fill="#F9F3E6" transform="translate(642.015625,322.6171875)"/>
<path d="M0 0 C17.14622495 13.7090096 28.04276082 31.67803145 32.4921875 53.18359375 C32.5746875 54.29734375 32.6571875 55.41109375 32.7421875 56.55859375 C32.83693359 57.71488281 32.83693359 57.71488281 32.93359375 58.89453125 C33.60815606 73.734902 27.58747289 90.86973208 17.77734375 102.12890625 C16.3032575 103.74239159 14.80503638 105.30921004 13.24780273 106.8425293 C12.03491692 108.03782773 10.88286527 109.29420276 9.7421875 110.55859375 C9.40689833 113.54398219 9.40689833 113.54398219 11.17578125 115.14453125 C11.83707031 115.73492187 12.49835938 116.3253125 13.1796875 116.93359375 C26.89681525 130.21371566 36.99729948 150.34669021 37.7421875 169.55859375 C37.79375 170.59371094 37.8453125 171.62882813 37.8984375 172.6953125 C38.47797194 194.2588232 30.83810998 214.59178941 16.06298828 230.33105469 C0.03289437 246.71304191 -22.86454577 256.41919563 -45.77880859 256.80004883 C-69.25835858 256.88307411 -92.77814762 249.40276028 -110.09082031 232.98876953 C-125.21143313 217.81099976 -135.72094591 196.5722501 -135.69140625 174.94921875 C-135.2578125 172.55859375 -135.2578125 172.55859375 -134.04296875 170.79296875 C-128.71986105 167.11222032 -120.71371359 168.37255287 -114.55761719 168.37329102 C-112.527778 168.37111515 -110.4984925 168.35296084 -108.46875 168.33398438 C-91.03343337 168.30809034 -91.03343337 168.30809034 -85.9453125 172.43359375 C-84.34233617 175.40206844 -83.39095021 178.1005118 -82.3828125 181.30859375 C-79.41782331 190.699649 -74.25802803 198.73620625 -65.43359375 203.5546875 C-55.46547627 208.07385573 -45.21755045 207.55825055 -35.1171875 203.81640625 C-25.87078333 199.74899895 -19.18954978 193.93281315 -15.3828125 184.43359375 C-12.90701671 175.86467178 -12.89247409 166.39042102 -17.13671875 158.4453125 C-17.69166016 157.51138672 -17.69166016 157.51138672 -18.2578125 156.55859375 C-18.8146875 155.50671875 -19.3715625 154.45484375 -19.9453125 153.37109375 C-28.37577938 143.11782321 -40.65724879 141.17447886 -53.1484375 139.91796875 C-57.53015904 139.37025356 -59.76183947 138.951557 -63.3046875 136.14453125 C-68.48640469 129.28393768 -66.79748103 117.82070036 -65.76171875 109.640625 C-64.4916045 103.06042856 -62.99664187 95.59139517 -58.2578125 90.55859375 C-53.79681002 88.64394451 -49.14498228 87.9604815 -44.3828125 87.18359375 C-36.73596158 85.82246996 -31.08320889 84.38399014 -25.4453125 78.74609375 C-20.38058097 71.36605638 -19.23347771 65.48168794 -20.2578125 56.55859375 C-21.20268012 52.98232061 -22.53569054 49.82664698 -24.2578125 46.55859375 C-24.59683594 45.91019531 -24.93585938 45.26179688 -25.28515625 44.59375 C-29.05427075 38.46390899 -35.54535677 34.79607899 -42.2578125 32.55859375 C-55.00449468 31.49428548 -55.00449468 31.49428548 -66.2578125 36.55859375 C-72.55474362 42.11559772 -75.45705981 49.69456804 -78.31640625 57.41796875 C-78.64769531 58.31 -78.97898437 59.20203125 -79.3203125 60.12109375 C-79.60003906 60.92675781 -79.87976563 61.73242188 -80.16796875 62.5625 C-81.5733041 65.13642962 -82.48830749 65.61985765 -85.2578125 66.55859375 C-91.67998156 67.88353533 -98.15998705 67.74225621 -104.6953125 67.74609375 C-105.78908203 67.75833984 -106.88285156 67.77058594 -108.00976562 67.78320312 C-122.66906345 67.80967988 -122.66906345 67.80967988 -127.234375 63.83984375 C-130.96145853 55.53214611 -128.26349948 43.78415712 -125.2578125 35.55859375 C-121.42424605 26.4642158 -116.92726327 17.90071445 -110.2578125 10.55859375 C-109.61585938 9.82511719 -108.97390625 9.09164063 -108.3125 8.3359375 C-80.57211679 -21.50288798 -32.18264605 -24.70863752 0 0 Z " fill="#151514" transform="translate(562.2578125,351.44140625)"/>
<path d="M0 0 C-2.5186838 2.9580518 -5.18297483 4.10926094 -8.75 5.56640625 C-9.90685303 6.0469043 -11.06370605 6.52740234 -12.25561523 7.02246094 C-12.86686249 7.27346558 -13.47810974 7.52447021 -14.10787964 7.78308105 C-31.17717726 14.81441702 -47.54616139 22.84176557 -63 33 C-63.721875 33.47308594 -64.44375 33.94617188 -65.1875 34.43359375 C-75.10357642 40.97363757 -84.55493875 47.75213804 -93.44189453 55.63623047 C-95.04225799 57.03698733 -96.66965708 58.39854906 -98.30859375 59.75390625 C-105.16452025 65.45151212 -111.62976582 71.44913101 -117.9375 77.75 C-118.63520508 78.44689941 -119.33291016 79.14379883 -120.05175781 79.86181641 C-124.56026151 84.4189264 -128.81870589 89.14299865 -133 94 C-133.92579124 95.04801782 -134.85279798 96.09496367 -135.78125 97.140625 C-148.37346814 111.47168099 -159.83014811 126.85889547 -170 143 C-170.44875488 143.70962891 -170.89750977 144.41925781 -171.35986328 145.15039062 C-183.46283508 164.43885407 -194.63359695 184.79423751 -203 206 C-203.40814941 207.03318359 -203.81629883 208.06636719 -204.23681641 209.13085938 C-216.57673659 240.595686 -226.80873557 272.57603034 -231.875 306.0625 C-232.16141357 307.94739136 -232.16141357 307.94739136 -232.45361328 309.87036133 C-235.35285495 330.27150746 -236.34844799 350.53234595 -236.25 371.125 C-236.24689819 372.28531738 -236.24379639 373.44563477 -236.24060059 374.64111328 C-236.12372631 411.99464444 -235.28073788 453.43911174 -222.91455078 489.13305664 C-222 492 -222 492 -222 496 C-243.84813516 486.17332734 -255.08738666 454.05255331 -263.2121582 433.11621094 C-264.56922218 429.43970916 -265.81104236 425.73386624 -267 422 C-267.21382324 421.34821777 -267.42764648 420.69643555 -267.64794922 420.02490234 C-271.19030722 409.04606588 -273.39540825 397.72760058 -275.6875 386.4375 C-275.91348877 385.33595581 -275.91348877 385.33595581 -276.14404297 384.2121582 C-279.24266513 369.01261894 -281.20266703 353.89418606 -281.6875 338.375 C-281.72584961 337.17842773 -281.76419922 335.98185547 -281.80371094 334.74902344 C-283.29279132 279.21074802 -269.75740073 225.07279055 -244 176 C-242.97650102 173.89712865 -241.95552707 171.79302581 -240.9375 169.6875 C-235.04548577 157.98182278 -227.20018866 147.59580544 -219.48925781 137.04882812 C-218.24688397 135.33964759 -217.02339235 133.61676212 -215.8046875 131.890625 C-204.23034935 115.52189574 -190.10384515 100.91753843 -175.9284668 86.7980957 C-174.29943428 85.17447771 -172.67589272 83.54550397 -171.05273438 81.91601562 C-165.54243212 76.4019474 -159.97315355 71.01681024 -154 66 C-153.16855469 65.28714844 -152.33710938 64.57429688 -151.48046875 63.83984375 C-130.53553566 46.46304236 -107.9574837 30.86807617 -82.98828125 19.890625 C-81.23320031 19.10445908 -79.50466853 18.25959315 -77.78125 17.40625 C-53.5669667 5.42655194 -26.93866515 -0.35734964 0 0 Z " fill="#E63D36" transform="translate(433,140)"/>
<path d="M0 0 C2.43119623 1.87015094 3.64069173 3.28138345 5 6 C6.47061621 18.53640045 0.11409095 30.08242542 -7.37890625 39.78564453 C-25.37596102 61.95890882 -25.37596102 61.95890882 -33.046875 63.37890625 C-35.1875 63.5 -35.1875 63.5 -39 63 C-42.35667049 59.85988889 -42.95380961 56.58199895 -43.3125 52.0625 C-43.03577944 34.96116923 -30.72106025 19.8683318 -19.4375 8.125 C-13.44095349 2.32354661 -8.60434659 -1.1284389 0 0 Z " fill="#FE7978" transform="translate(261,246)"/>
<path d="M0 0 C0.33 0 0.66 0 1 0 C4.26810663 29.5880368 5.72210161 63.25340677 -3 92 C-3.33 92 -3.66 92 -4 92 C-4.14949484 83.41788875 -3.69026227 74.93215659 -3.0625 66.375 C-2.97548828 65.09753906 -2.88847656 63.82007813 -2.79882812 62.50390625 C-2.71181641 61.29347656 -2.62480469 60.08304687 -2.53515625 58.8359375 C-2.456604 57.73813965 -2.37805176 56.6403418 -2.29711914 55.50927734 C-2 53 -2 53 -1 52 C-0.92347996 49.01437918 -0.90941885 46.05161325 -0.9375 43.06640625 C-0.94128662 42.15930405 -0.94507324 41.25220184 -0.94897461 40.31761169 C-0.96532621 36.42628478 -0.99316644 32.53506174 -1.02050781 28.64379883 C-1.03876822 25.80550639 -1.05076306 22.96723204 -1.0625 20.12890625 C-1.07079834 19.26495743 -1.07909668 18.40100861 -1.08764648 17.51087952 C-1.11091322 11.61613073 -0.69210611 5.85320259 0 0 Z " fill="#BA2720" transform="translate(907,451)"/>
<path d="M0 0 C0.99 0.495 0.99 0.495 2 1 C1 4 1 4 -1.06274414 5.05566406 C-1.96114014 5.37245117 -2.85953613 5.68923828 -3.78515625 6.015625 C-4.78305176 6.3760791 -5.78094727 6.7365332 -6.80908203 7.10791016 C-7.88270996 7.4847998 -8.95633789 7.86168945 -10.0625 8.25 C-12.27070129 9.05147114 -14.47773424 9.85616849 -16.68359375 10.6640625 C-17.76624512 11.06012695 -18.84889648 11.45619141 -19.96435547 11.86425781 C-30.33950297 15.74596814 -40.28369863 20.52154604 -50.109375 25.6171875 C-52.49763282 26.7596784 -54.46621682 27.38110098 -57 28 C-59.131822 29.10158983 -59.131822 29.10158983 -61.1875 30.4375 C-61.88230469 30.86933594 -62.57710938 31.30117187 -63.29296875 31.74609375 C-65.1424826 32.90488273 -65.1424826 32.90488273 -66 35 C-68 34 -68 34 -70 31 C-62.64201414 26.36183183 -55.07764506 22.4627888 -47.1875 18.8125 C-46.59526642 18.53708374 -46.00303284 18.26166748 -45.39285278 17.97790527 C-30.63716579 11.139371 -15.43054881 5.14351627 0 0 Z " fill="#DA352C" transform="translate(386,109)"/>
<path d="M0 0 C18.32146791 4.01228624 36.97220158 3.89927855 55.63134766 3.7019043 C63.32379981 3.62791133 70.85382968 3.69817606 78.5 4.6875 C78.5 5.3475 78.5 6.0075 78.5 6.6875 C26.76709198 7.47129828 26.76709198 7.47129828 4.9375 4.875 C3.84832779 4.75070618 3.84832779 4.75070618 2.7371521 4.62390137 C-9.55056258 3.1803827 -9.55056258 3.1803827 -13.5 -0.3125 C-8.5216529 -1.24908298 -4.90254074 -1.20845338 0 0 Z " fill="#BD2C24" transform="translate(459.5,870.3125)"/>
<path d="M0 0 C1.32 0.99 2.64 1.98 4 3 C3.24428486 10.43119886 3.24428486 10.43119886 2.03662109 13.24316406 C0.88421258 16.30793019 0.4246959 19.10200312 0 22.34765625 C-0.16387207 23.58418945 -0.32774414 24.82072266 -0.49658203 26.09472656 C-0.66270996 27.4040918 -0.82883789 28.71345703 -1 30.0625 C-1.17659332 31.41247775 -1.35351585 32.76241246 -1.53076172 34.11230469 C-2.65847386 42.80034295 -3.6433859 51.4982312 -4.31640625 60.23461914 C-4.78896242 65.78896242 -4.78896242 65.78896242 -7 68 C-7.52999157 49.85186555 -6.51051622 32.81226312 -3 15 C-2.68860837 13.36982866 -2.37739599 11.73962306 -2.06640625 10.109375 C-1.41190857 6.73204542 -0.72195487 3.36365338 0 0 Z " fill="#DC433A" transform="translate(123,390)"/>
<path d="M0 0 C0.33 0 0.66 0 1 0 C0.4714941 6.07781789 -1.23120855 11.54600325 -4 17 C-4.99 17.495 -4.99 17.495 -6 18 C-6.268125 18.825 -6.53625 19.65 -6.8125 20.5 C-8.12591923 24.37113036 -9.96913062 27.56013748 -12.07421875 31.046875 C-12.53248047 32.01367188 -12.53248047 32.01367188 -13 33 C-12.67 33.66 -12.34 34.32 -12 35 C-12.99 35 -13.98 35 -15 35 C-15.25910156 35.69609375 -15.51820313 36.3921875 -15.78515625 37.109375 C-20.84241 49.14271191 -28.84912623 60.14223945 -36 71 C-37.22152588 67.51272522 -37.22152588 67.51272522 -36.24316406 65.24829102 C-35.83807617 64.67264404 -35.43298828 64.09699707 -35.015625 63.50390625 C-34.57476563 62.86259766 -34.13390625 62.22128906 -33.6796875 61.56054688 C-33.20789063 60.90119141 -32.73609375 60.24183594 -32.25 59.5625 C-31.33763078 58.25193574 -30.42615281 56.94075051 -29.515625 55.62890625 C-29.08056641 55.00628906 -28.64550781 54.38367188 -28.19726562 53.7421875 C-25.98189808 50.51852054 -24.19422196 47.60694363 -23 43.875 C-22 41 -22 41 -20.6328125 39.65625 C-18.53607654 37.52941735 -17.30314036 35.24445342 -15.875 32.625 C-15.35679687 31.68914063 -14.83859375 30.75328125 -14.3046875 29.7890625 C-13.06321529 27.13513688 -12.54565854 24.85496342 -12 22 C-11.38125 21.2575 -10.7625 20.515 -10.125 19.75 C-7.730406 16.65111365 -6.91443427 13.98671259 -5.7890625 10.2890625 C-4.53892176 6.66241659 -2.73730344 2.73730344 0 0 Z " fill="#B6231D" transform="translate(876,635)"/>
<path d="M0 0 C4.12615278 1.37538426 6.00151895 4.03971679 7.95703125 7.87890625 C8.30121094 8.57886719 8.64539063 9.27882813 9 10 C10.31355608 12.33255715 11.64259984 14.65562168 12.9765625 16.9765625 C14 19 14 19 14 21 C14.66 21.33 15.32 21.66 16 22 C16.95800781 23.68310547 16.95800781 23.68310547 17.953125 25.8671875 C18.32244141 26.66568115 18.69175781 27.4641748 19.07226562 28.28686523 C19.65524414 29.56799194 19.65524414 29.56799194 20.25 30.875 C23.24886722 37.3578097 26.33117236 43.68422327 29.90625 49.87109375 C32.03796498 54.02032468 32.38225916 58.41106807 33 63 C29.8990698 61.4495349 29.54422412 58.90902015 28.25 55.75 C27.72309872 54.47844237 27.19440589 53.20762585 26.6640625 51.9375 C26.39239258 51.28652344 26.12072266 50.63554687 25.84082031 49.96484375 C24.04633125 45.77145002 22.06038594 41.66542685 20.1015625 37.546875 C19 35 19 35 19 33 C18.01 33 17.02 33 16 33 C15.9175 32.154375 15.835 31.30875 15.75 30.4375 C14.59223454 25.13107499 12.63461731 21.08974488 8 18 C7.63557767 16.33985384 7.30027117 14.67293936 7 13 C6.34 12.67 5.68 12.34 5 12 C4.87625 11.443125 4.7525 10.88625 4.625 10.3125 C3.75413637 7.09030458 1.85374859 4.75072371 0 2 C0 1.34 0 0.68 0 0 Z " fill="#BD241C" transform="translate(848,273)"/>
<path d="M0 0 C0.33 0 0.66 0 1 0 C1.13277344 1.10859375 1.26554687 2.2171875 1.40234375 3.359375 C1.58059757 4.8229327 1.75899028 6.28647349 1.9375 7.75 C2.06801758 8.84441406 2.06801758 8.84441406 2.20117188 9.9609375 C2.69217258 14.07054041 2.69217258 14.07054041 3.56835938 18.109375 C4.13714642 20.60071371 3.53511168 21.91573198 2.5625 24.25 C2.27503906 24.95640625 1.98757812 25.6628125 1.69140625 26.390625 C1.46324219 26.92171875 1.23507813 27.4528125 1 28 C1.66 28.33 2.32 28.66 3 29 C3 37.25 3 45.5 3 54 C2.67 54 2.34 54 2 54 C1.67 57.63 1.34 61.26 1 65 C0.67 65 0.34 65 0 65 C-0.95772673 53.79801776 -1.11110272 42.61016478 -1.125 31.375 C-1.12749756 30.67988312 -1.12999512 29.98476624 -1.13256836 29.26858521 C-1.16139698 19.46786373 -0.77420334 9.77189224 0 0 Z " fill="#DC3F37" transform="translate(114,449)"/>
<path d="M0 0 C0 4.14613757 -1.6678128 5.09808719 -4.5 8.0625 C-5.42542515 9.04998134 -6.34856861 10.03960545 -7.26953125 11.03125 C-7.73182129 11.52882812 -8.19411133 12.02640625 -8.67041016 12.5390625 C-14.14059177 18.54963297 -18.87156349 25.12568326 -23.46875 31.8125 C-25.20800321 34.29714744 -27.10596399 36.63245499 -29 39 C-29.495 39.86625 -29.99 40.7325 -30.5 41.625 C-32.0686479 44.10869251 -33.56202873 45.40270848 -36 47 C-34.87548273 44.0280615 -33.77706209 41.66559313 -32 39 C-32 38.01 -32 37.02 -32 36 C-31.02539062 34.34936523 -31.02539062 34.34936523 -29.65625 32.55859375 C-28.90492798 31.56569336 -28.90492798 31.56569336 -28.13842773 30.55273438 C-27.32740601 29.50569336 -27.32740601 29.50569336 -26.5 28.4375 C-25.95480713 27.72529297 -25.40961426 27.01308594 -24.84790039 26.27929688 C-23.74989069 24.8487286 -22.64844313 23.42079198 -21.54345703 21.99560547 C-20.19141783 20.24749278 -18.85622091 18.48837885 -17.52734375 16.72265625 C-16.83769531 15.82417969 -16.14804688 14.92570313 -15.4375 14 C-14.53837891 12.824375 -14.53837891 12.824375 -13.62109375 11.625 C-13.08613281 11.08875 -12.55117187 10.5525 -12 10 C-11.01 10 -10.02 10 -9 10 C-6.63584191 7.77926514 -6.63584191 7.77926514 -4.3125 5 C-3.50425781 4.071875 -2.69601563 3.14375 -1.86328125 2.1875 C-1.24839844 1.465625 -0.63351563 0.74375 0 0 Z " fill="#DC322D" transform="translate(214,223)"/>
<path d="M0 0 C0 0.66 0 1.32 0 2 C-2.64 2.33 -5.28 2.66 -8 3 C-8 3.33 -8 3.66 -8 4 C-22 4 -36 4 -50 4 C-50.33 4.33 -50.66 4.66 -51 5 C-53.18639453 5.07258946 -55.37500389 5.08373783 -57.5625 5.0625 C-59.35880859 5.04896484 -59.35880859 5.04896484 -61.19140625 5.03515625 C-62.11824219 5.02355469 -63.04507812 5.01195313 -64 5 C-64 4.67 -64 4.34 -64 4 C-65.65 3.67 -67.3 3.34 -69 3 C-69 2.67 -69 2.34 -69 2 C-45.97027526 0.11470139 -23.09857003 -0.2446683 0 0 Z " fill="#DD4139" transform="translate(543,88)"/>
<path d="M0 0 C1.64404297 1.51635742 1.64404297 1.51635742 3 3 C-2.05113118 4.16918696 -7.10478297 5.32649219 -12.16113281 6.47290039 C-13.88062666 6.86450522 -15.59938845 7.25933907 -17.31738281 7.6574707 C-19.78785522 8.22939221 -22.26073305 8.78962521 -24.734375 9.34765625 C-25.50118591 9.52780777 -26.26799683 9.70795929 -27.05804443 9.89356995 C-30.70619437 10.70499237 -33.45273703 11.28841951 -37 10 C-37.33 9.34 -37.66 8.68 -38 8 C-5.86895849 -0.66647495 -5.86895849 -0.66647495 0 0 Z " fill="#DD4335" transform="translate(444,95)"/>
<path d="M0 0 C0.66 0.33 1.32 0.66 2 1 C0.93242 3.93584501 -0.28590276 6.48603469 -1.875 9.1875 C-4.43997207 13.59133073 -6.17589675 18.25233402 -8 23 C-9.03312884 25.67007025 -10.07720314 28.33565681 -11.125 31 C-11.37878418 31.65935547 -11.63256836 32.31871094 -11.89404297 32.99804688 C-13.0035187 35.81683385 -13.83387732 37.83387732 -16 40 C-15.979375 39.21625 -15.95875 38.4325 -15.9375 37.625 C-15.81315937 35.01885039 -15.81315937 35.01885039 -17 33 C-16.15136719 30.54150391 -16.15136719 30.54150391 -14.796875 27.4765625 C-14.06791016 25.82140625 -14.06791016 25.82140625 -13.32421875 24.1328125 C-12.80472656 22.97523438 -12.28523437 21.81765625 -11.75 20.625 C-10.99396484 18.90023438 -10.99396484 18.90023438 -10.22265625 17.140625 C-6.08749064 7.82836229 -6.08749064 7.82836229 -3 4 C-2.443125 3.2575 -1.88625 2.515 -1.3125 1.75 C-0.879375 1.1725 -0.44625 0.595 0 0 Z " fill="#DB342E" transform="translate(156,305)"/>
<path d="M0 0 C9.33312678 2.08853342 18.72480346 2.69081414 28.24609375 3.35546875 C30.00852688 3.48547234 31.77089745 3.61632689 33.53320312 3.74804688 C37.79101186 4.06446712 42.04949176 4.3694829 46.30859375 4.66796875 C46.30859375 4.99796875 46.30859375 5.32796875 46.30859375 5.66796875 C31.18282838 5.96200965 16.17054652 6.13652907 1.12109375 4.35546875 C0.08412354 4.23776123 -0.95284668 4.12005371 -2.02124023 3.9987793 C-6.86593724 3.3614372 -9.88140609 2.8931604 -13.69140625 -0.33203125 C-8.65107307 -1.28595314 -4.96923435 -1.20735511 0 0 Z " fill="#BC271F" transform="translate(459.69140625,870.33203125)"/>
<path d="M0 0 C0.66 0 1.32 0 2 0 C2.88521043 4.92767138 3.75502571 9.85766744 4.61083984 14.79052734 C4.94211138 16.671335 5.29142179 18.54895095 5.64453125 20.42578125 C7.21447018 29.31457218 7.19382188 38.00881844 7 47 C6.67 47 6.34 47 6 47 C5.85377197 45.92516357 5.70754395 44.85032715 5.55688477 43.74291992 C5.01372886 39.75619111 4.46678829 35.76998916 3.91870117 31.78393555 C3.68199 30.05849116 3.4463062 28.3329055 3.21166992 26.60717773 C2.87428298 24.1270627 2.53320775 21.64747874 2.19140625 19.16796875 C2.08719864 18.39599655 1.98299103 17.62402435 1.87562561 16.82865906 C1.45009501 13.76348922 0.98110781 10.94332343 0 8 C-0.12781786 5.32605036 -0.04391871 2.67904143 0 0 Z " fill="#B5221D" transform="translate(900,400)"/>
<path d="M0 0 C0.66 0.33 1.32 0.66 2 1 C1.41935166 4.5972238 0.08917156 6.29579566 -2.45703125 8.85546875 C-3.15763672 9.55994141 -3.85824219 10.26441406 -4.58007812 10.99023438 C-5.31677734 11.71533203 -6.05347656 12.44042969 -6.8125 13.1875 C-7.53759766 13.92419922 -8.26269531 14.66089844 -9.00976562 15.41992188 C-9.71423828 16.12052734 -10.41871094 16.82113281 -11.14453125 17.54296875 C-11.78753174 18.18258545 -12.43053223 18.82220215 -13.09301758 19.48120117 C-15.09894888 21.07880693 -16.49321314 21.59536529 -19 22 C-18.2575 21.1028125 -18.2575 21.1028125 -17.5 20.1875 C-15.71723582 18.02970006 -15.71723582 18.02970006 -16 15 C-14.625 13.3125 -14.625 13.3125 -13 12 C-12.34 12 -11.68 12 -11 12 C-10.75378906 11.41605469 -10.50757813 10.83210937 -10.25390625 10.23046875 C-8.80583817 7.65462178 -7.19766892 6.20349432 -4.9375 4.3125 C-4.22464844 3.71050781 -3.51179687 3.10851562 -2.77734375 2.48828125 C-2.19082031 1.99714844 -1.60429687 1.50601563 -1 1 C-0.67 0.67 -0.34 0.34 0 0 Z " fill="#DA3C34" transform="translate(242,192)"/>
<path d="M0 0 C0.99 0.66 1.98 1.32 3 2 C2.525625 2.4125 2.05125 2.825 1.5625 3.25 C-0.1333436 4.86253845 -0.1333436 4.86253845 -0.42578125 6.91796875 C-1.09569604 9.34697952 -1.95229907 10.32503131 -3.75 12.0625 C-4.23984375 12.54847656 -4.7296875 13.03445312 -5.234375 13.53515625 C-7 15 -7 15 -9.43359375 16.390625 C-12.28744275 18.18025329 -14.12850994 20.13334214 -16.3125 22.6875 C-17.35857422 23.89986328 -17.35857422 23.89986328 -18.42578125 25.13671875 C-19.20501953 26.05904297 -19.20501953 26.05904297 -20 27 C-20.33 26.01 -20.66 25.02 -21 24 C-20.16855469 23.10796875 -19.33710938 22.2159375 -18.48046875 21.296875 C-17.38271261 20.11467608 -16.2850619 18.93237926 -15.1875 17.75 C-14.64029297 17.16347656 -14.09308594 16.57695312 -13.52929688 15.97265625 C-11.30089679 13.56868525 -9.16882525 11.23208793 -7.23828125 8.578125 C-6.62533203 7.79695312 -6.62533203 7.79695312 -6 7 C-5.34 7 -4.68 7 -4 7 C-3.71125 6.401875 -3.4225 5.80375 -3.125 5.1875 C-2 3 -2 3 0 0 Z " fill="#DA3228" transform="translate(224,208)"/>
<path d="M0 0 C0.84473877 0.56581787 0.84473877 0.56581787 1.70654297 1.14306641 C-1.66834926 3.30786966 -5.04971095 5.46212131 -8.4375 7.60668945 C-9.58973294 8.33817048 -10.74013642 9.07254141 -11.88867188 9.80981445 C-13.5370216 10.86723293 -15.19248707 11.91353336 -16.84814453 12.95947266 C-18.34063721 13.90995483 -18.34063721 13.90995483 -19.86328125 14.87963867 C-21.06621826 15.5050354 -21.06621826 15.5050354 -22.29345703 16.14306641 C-22.95345703 15.81306641 -23.61345703 15.48306641 -24.29345703 15.14306641 C-22.09713796 9.65449322 -17.2947432 7.6746886 -12.41845703 4.76806641 C-11.50708984 4.19701172 -10.59572266 3.62595703 -9.65673828 3.03759766 C-8.77630859 2.50779297 -7.89587891 1.97798828 -6.98876953 1.43212891 C-6.18455566 0.94437988 -5.3803418 0.45663086 -4.55175781 -0.04589844 C-2.29345703 -0.85693359 -2.29345703 -0.85693359 0 0 Z " fill="#DA342E" transform="translate(314.29345703125,142.85693359375)"/>
<path d="M0 0 C2.72322079 4.08483118 3.51855281 8.27092588 4.6875 13 C5.04424805 14.37285156 5.04424805 14.37285156 5.40820312 15.7734375 C5.62798828 16.65257812 5.84777344 17.53171875 6.07421875 18.4375 C6.27619873 19.24058594 6.47817871 20.04367187 6.6862793 20.87109375 C7 23 7 23 6 26 C5.67 25.34 5.34 24.68 5 24 C4.34 24.33 3.68 24.66 3 25 C2.12785392 21.94233206 1.28054142 18.87830844 0.4375 15.8125 C0.19064453 14.94818359 -0.05621094 14.08386719 -0.31054688 13.19335938 C-2.5085341 5.11343451 -2.5085341 5.11343451 -1 1 C-0.67 0.67 -0.34 0.34 0 0 Z " fill="#D8362E" transform="translate(125,564)"/>
<path d="M0 0 C0.33 0 0.66 0 1 0 C0.4714941 6.07781789 -1.23120855 11.54600325 -4 17 C-4.66 17.33 -5.32 17.66 -6 18 C-6.67939174 19.99571323 -7.34561559 21.99594773 -8 24 C-8.66 24.66 -9.32 25.32 -10 26 C-10.99 25.34 -11.98 24.68 -13 24 C-12.03847008 21.85504864 -11.25533595 20.23584979 -9.515625 18.62890625 C-7.73417972 16.71431171 -7.2670982 15.253293 -6.5625 12.75 C-5.17152474 8.24588964 -3.40472042 3.40472042 0 0 Z " fill="#BA2F28" transform="translate(876,635)"/>
<path d="M0 0 C0 4.14613757 -1.6678128 5.09808719 -4.5 8.0625 C-8.64042891 12.46819932 -12.49878111 17.00580275 -16.23828125 21.76171875 C-18.43754423 24.55590431 -20.70969835 27.28026679 -23 30 C-23 25.79435672 -20.9004661 24.10056968 -18.3125 20.9375 C-16.71957593 18.97607493 -16.71957593 18.97607493 -17 16 C-14.6875 12.8125 -14.6875 12.8125 -12 10 C-11.01 10 -10.02 10 -9 10 C-6.63584191 7.77926514 -6.63584191 7.77926514 -4.3125 5 C-3.50425781 4.071875 -2.69601563 3.14375 -1.86328125 2.1875 C-1.24839844 1.465625 -0.63351563 0.74375 0 0 Z " fill="#DB3F36" transform="translate(214,223)"/>
<path d="M0 0 C0.33 0.66 0.66 1.32 1 2 C2.32 1.67 3.64 1.34 5 1 C5 1.66 5 2.32 5 3 C3.43059199 4.43812673 1.79125965 5.8003005 0.125 7.125 C-4.39827414 10.72278394 -4.39827414 10.72278394 -8.8515625 14.40625 C-9.72554687 15.1384375 -10.59953125 15.870625 -11.5 16.625 C-12.2940625 17.29789063 -13.088125 17.97078125 -13.90625 18.6640625 C-14.5971875 19.10492187 -15.288125 19.54578125 -16 20 C-16.99 19.67 -17.98 19.34 -19 19 C-17.1875 16.5 -17.1875 16.5 -15 14 C-14.01 14 -13.02 14 -12 14 C-12 13.34 -12 12.68 -12 12 C-10.33333333 11 -8.66666667 10 -7 9 C-3.94881949 6.23265024 -1.56484725 3.84098869 0 0 Z " fill="#B8241D" transform="translate(770,776)"/>
<path d="M0 0 C3 1 3 1 4.13500977 2.84179688 C4.48362061 3.62619141 4.83223145 4.41058594 5.19140625 5.21875 C5.77245117 6.49298828 5.77245117 6.49298828 6.36523438 7.79296875 C6.76033203 8.68628906 7.15542969 9.57960938 7.5625 10.5 C8.34984446 12.2629393 9.14254912 14.02349758 9.94140625 15.78125 C10.28888916 16.56564453 10.63637207 17.35003906 10.99438477 18.15820312 C11.86577641 20.1706888 11.86577641 20.1706888 14 21 C14.4140625 23.50390625 14.4140625 23.50390625 14.625 26.5625 C14.69976563 27.57441406 14.77453125 28.58632813 14.8515625 29.62890625 C14.92503906 30.80259766 14.92503906 30.80259766 15 32 C11.92497935 30.46248968 11.59448005 28.01497306 10.3125 24.875 C7.78250962 18.75885627 5.05967359 12.7620237 2.18481445 6.80029297 C0 2.21101031 0 2.21101031 0 0 Z " fill="#AF221A" transform="translate(866,304)"/>
<path d="M0 0 C2.2731826 3.66492705 2.42680079 7.06011122 2.6875 11.3125 C2.77386719 12.58738281 2.86023438 13.86226562 2.94921875 15.17578125 C2.99961906 18.97131254 2.64100687 22.27444879 2 26 C1.67 26 1.34 26 1 26 C0.49061655 23.50159546 -0.00763114 21.00176612 -0.5 18.5 C-0.64308594 17.80390625 -0.78617187 17.1078125 -0.93359375 16.390625 C-1.88278537 11.5090681 -2.30287925 6.97587345 -2 2 C-1.34 1.34 -0.68 0.68 0 0 Z " fill="#DA362F" transform="translate(119,530)"/>
<path d="M0 0 C3.33135891 0.59699131 5.21275667 1.72012281 7.75 3.9375 C8.36359375 4.46214844 8.9771875 4.98679688 9.609375 5.52734375 C11 7 11 7 11 9 C11.99 9.33 12.98 9.66 14 10 C14 10.66 14 11.32 14 12 C14.57234375 12.23460937 15.1446875 12.46921875 15.734375 12.7109375 C18.51684301 14.29406585 20.17070214 16.1991525 22.25 18.625 C22.95640625 19.44226563 23.6628125 20.25953125 24.390625 21.1015625 C24.92171875 21.72804687 25.4528125 22.35453125 26 23 C25.34 23.66 24.68 24.32 24 25 C23.3709375 24.28714844 22.741875 23.57429688 22.09375 22.83984375 C17.57223042 17.7803723 13.03364127 13.00638992 7.828125 8.63671875 C4.8965548 6.01208645 2.4855177 3.04475919 0 0 Z " fill="#C31F1A" transform="translate(782,195)"/>
<path d="M0 0 C3.95076246 1.49801083 7.64896034 3.3051452 11.39453125 5.2578125 C11.98674973 5.56572723 12.5789682 5.87364197 13.18913269 6.19088745 C15.06474541 7.16672209 16.93863977 8.14580508 18.8125 9.125 C20.09038232 9.79058058 21.368376 10.45594737 22.64648438 11.12109375 C25.76561506 12.74492487 28.88321405 14.37167202 32 16 C32 16.66 32 17.32 32 18 C27.11218652 16.51769264 22.71936953 14.4979389 18.1875 12.1875 C17.4855249 11.83147705 16.7835498 11.4754541 16.06030273 11.10864258 C14.0372455 10.07808139 12.01830573 9.03982778 10 8 C8.51113281 7.24203125 8.51113281 7.24203125 6.9921875 6.46875 C6.19039063 6.0459375 5.38859375 5.623125 4.5625 5.1875 C3.88316406 4.83042969 3.20382812 4.47335937 2.50390625 4.10546875 C1 3 1 3 0 0 Z " fill="#C6251F" transform="translate(313,822)"/>
<path d="M0 0 C3.28387049 3.28387049 4.09879617 5.85337642 5.1875 10.1875 C5.3618457 10.85789307 5.53619141 11.52828613 5.71582031 12.21899414 C6.89266865 16.97187235 7.39683282 21.13879791 7 26 C6.34 26 5.68 26 5 26 C2.89571616 20.87080814 2.78244334 16.4389165 3 11 C2.34 11 1.68 11 1 11 C0.67 7.37 0.34 3.74 0 0 Z " fill="#B4261B" transform="translate(893,373)"/>
<path d="M0 0 C0 0.33 0 0.66 0 1 C-0.65226562 1.06058594 -1.30453125 1.12117188 -1.9765625 1.18359375 C-5.76115012 1.54642295 -9.50211829 1.91382817 -13.25 2.5625 C-16.2690386 3.0428016 -18.95025488 3.27108845 -22 3 C-23.67578125 1.484375 -23.67578125 1.484375 -25 0 C-5.09708738 -3.39805825 -5.09708738 -3.39805825 0 0 Z " fill="#DC3F32" transform="translate(477,93)"/>
<path d="M0 0 C9.68860296 0.29051283 17.84414513 1.73005183 27 5 C27 5.33 27 5.66 27 6 C17.52276462 6.60172923 9.09718079 4.36400058 0 2 C0 1.34 0 0.68 0 0 Z " fill="#BE251E" transform="translate(416,864)"/>
<path d="M0 0 C0.99 0 1.98 0 3 0 C2.38827362 6.48429963 1.25335666 12.86526344 -1 19 C-1.66 19.33 -2.32 19.66 -3 20 C-3 20.99 -3 21.98 -3 23 C-3.66 23 -4.32 23 -5 23 C-4.30834212 17.58201328 -3.24200752 12.3177215 -2 7 C-1.34 7 -0.68 7 0 7 C0 4.69 0 2.38 0 0 Z " fill="#B41E19" transform="translate(888,597)"/>
<path d="M0 0 C8.41260511 -0.17862211 16.73825788 0.38430663 25.125 1 C26.47653941 1.09667757 27.82810183 1.19303394 29.1796875 1.2890625 C32.45336445 1.52289657 35.72677393 1.75995065 39 2 C39 2.33 39 2.66 39 3 C34.73162357 3.04982839 30.463406 3.08592015 26.19482422 3.10986328 C24.74590094 3.11985586 23.29699749 3.13345453 21.84814453 3.15087891 C7.02843217 3.32450751 7.02843217 3.32450751 0 1 C0 0.67 0 0.34 0 0 Z " fill="#B51410" transform="translate(467,873)"/>
<path d="M0 0 C0.69931641 0.05285156 1.39863281 0.10570313 2.11914062 0.16015625 C6.18429293 0.48719376 10.17226706 1.01881158 14.1875 1.75 C11.83311267 3.17944945 10.70717567 3.83661261 7.9375 3.375 C7.36 3.16875 6.7825 2.9625 6.1875 2.75 C6.1875 3.08 6.1875 3.41 6.1875 3.75 C0.40158489 3.85477512 -5.10559366 3.74250545 -10.8125 2.75 C-8.08231998 -1.33999942 -4.35985029 -0.41898833 0 0 Z " fill="#DB3E36" transform="translate(563.8125,91.25)"/>
<path d="M0 0 C0 0.66 0 1.32 0 2 C-2.43572059 2.83887056 -4.87333217 3.67126529 -7.3125 4.5 C-8.00279297 4.73847656 -8.69308594 4.97695313 -9.40429688 5.22265625 C-12.38931489 6.23208263 -14.82658914 7 -18 7 C-18.33 7.66 -18.66 8.32 -19 9 C-21.97 8.505 -21.97 8.505 -25 8 C-22.77287435 5.77287435 -21.51036793 5.37884981 -18.53515625 4.4921875 C-17.65279297 4.22792969 -16.77042969 3.96367188 -15.86132812 3.69140625 C-14.4759082 3.28728516 -14.4759082 3.28728516 -13.0625 2.875 C-12.14275391 2.59785156 -11.22300781 2.32070313 -10.27539062 2.03515625 C-3.40297876 0 -3.40297876 0 0 0 Z " fill="#B3211C" transform="translate(640,855)"/>
<path d="M0 0 C1.32 0.99 2.64 1.98 4 3 C3.24836125 10.39111435 3.24836125 10.39111435 2.03125 13.375 C0.86195541 16.35138624 0.36077054 19.15499149 -0.125 22.3125 C-0.29257813 23.38113281 -0.46015625 24.44976562 -0.6328125 25.55078125 C-0.75398438 26.35902344 -0.87515625 27.16726563 -1 28 C-1.33 28 -1.66 28 -2 28 C-2.08365966 23.81701685 -2.13980425 19.82329168 -1.4375 15.6875 C-0.8239634 13.11659473 -0.8239634 13.11659473 -1.53125 11.12890625 C-2.10438022 8.52593981 -1.70568985 6.82275941 -1.0625 4.25 C-0.86785156 3.45078125 -0.67320313 2.6515625 -0.47265625 1.828125 C-0.31667969 1.22484375 -0.16070312 0.6215625 0 0 Z " fill="#DB433A" transform="translate(123,390)"/>
<path d="M0 0 C1.29421875 -0.02578125 2.5884375 -0.0515625 3.921875 -0.078125 C7.55169155 0.27974424 7.98566054 0.65704892 10.25 3.25 C9.67032471 3.24476318 9.09064941 3.23952637 8.4934082 3.23413086 C5.8497833 3.21325666 3.20617579 3.20030673 0.5625 3.1875 C-0.34951172 3.17912109 -1.26152344 3.17074219 -2.20117188 3.16210938 C-3.53051758 3.15727539 -3.53051758 3.15727539 -4.88671875 3.15234375 C-5.69842529 3.14710693 -6.51013184 3.14187012 -7.34643555 3.13647461 C-9.89864673 3.2570209 -12.26026137 3.690051 -14.75 4.25 C-14.75 3.26 -14.75 2.27 -14.75 1.25 C-9.80228728 0.45528967 -5.02442532 0.06053524 0 0 Z " fill="#201F1C" transform="translate(511.75,334.75)"/>
<path d="M0 0 C0 0.66 0 1.32 0 2 C-5.84888043 3.01894076 -11.50919169 3.11798453 -17.4375 3.0625 C-18.35982422 3.05798828 -19.28214844 3.05347656 -20.23242188 3.04882812 C-22.48835048 3.03713938 -24.74413967 3.02075455 -27 3 C-27 2.67 -27 2.34 -27 2 C-17.95960217 0.72958023 -9.15564771 -0.34915606 0 0 Z " fill="#B71F19" transform="translate(567,872)"/>
<path d="M0 0 C1.11503906 0.00966797 2.23007812 0.01933594 3.37890625 0.02929688 C5.11720703 0.06700195 5.11720703 0.06700195 6.890625 0.10546875 C8.65212891 0.12577148 8.65212891 0.12577148 10.44921875 0.14648438 C13.34681798 0.18182095 16.24348927 0.23115896 19.140625 0.29296875 C19.140625 0.62296875 19.140625 0.95296875 19.140625 1.29296875 C17.160625 1.62296875 15.180625 1.95296875 13.140625 2.29296875 C13.140625 2.62296875 13.140625 2.95296875 13.140625 3.29296875 C5.550625 3.29296875 -2.039375 3.29296875 -9.859375 3.29296875 C-5.6262624 0.1181343 -4.95348812 -0.0758187 0 0 Z " fill="#F0EBE0" transform="translate(442.859375,516.70703125)"/>
<path d="M0 0 C5.0318447 2.38893573 9.67941714 5.21136656 14.375 8.1875 C15.11105469 8.65091797 15.84710938 9.11433594 16.60546875 9.59179688 C18.40520319 10.72539584 20.20282021 11.86235531 22 13 C19.56039486 13.89134825 18.4345685 14.18450716 16.0012207 13.15136719 C15.31632568 12.70438477 14.63143066 12.25740234 13.92578125 11.796875 C13.17619141 11.31089844 12.42660156 10.82492187 11.65429688 10.32421875 C10.88150391 9.80472656 10.10871094 9.28523437 9.3125 8.75 C8.52810547 8.24597656 7.74371094 7.74195313 6.93554688 7.22265625 C1.13389685 3.40169055 1.13389685 3.40169055 0 0 Z " fill="#C5241D" transform="translate(288,806)"/>
<path d="M0 0 C3.19653477 1.37686238 4.95404184 2.86243897 7.125 5.5625 C10.65338181 9.74626159 14.55490713 13.32051711 18.66796875 16.921875 C20.86188941 18.87692657 22.94397059 20.90143205 25 23 C20.13828277 21.50895289 17.20852087 18.75062241 13.625 15.3125 C13.05499268 14.77447754 12.48498535 14.23645508 11.89770508 13.68212891 C10.25780919 12.12888754 8.62808288 10.56560448 7 9 C6.20722656 8.24847656 5.41445313 7.49695313 4.59765625 6.72265625 C3.01851128 5.19518064 1.500307 3.60497958 0 2 C0 1.34 0 0.68 0 0 Z " fill="#FBF7F3" transform="translate(364,608)"/>
<path d="M0 0 C0.33 0 0.66 0 1 0 C1.20190089 6.35987804 0.6277833 11.85221129 -1 18 C-1.66 18 -2.32 18 -3 18 C-3.33 19.32 -3.66 20.64 -4 22 C-3.91240742 19.45679484 -3.80546587 16.91683067 -3.6875 14.375 C-3.66494141 13.66214844 -3.64238281 12.94929687 -3.61914062 12.21484375 C-3.37993032 7.47413052 -2.45735603 4.17684645 0 0 Z " fill="#B61F19" transform="translate(900,555)"/>
<path d="M0 0 C0.33 0 0.66 0 1 0 C0.67840242 3.0015774 0.34136076 6.0006279 0 9 C-0.06977051 9.64291992 -0.13954102 10.28583984 -0.21142578 10.94824219 C-0.44542257 13.09147397 -0.69077767 15.23319908 -0.9375 17.375 C-1.01210449 18.07689453 -1.08670898 18.77878906 -1.16357422 19.50195312 C-1.58156807 23.04079675 -1.98577598 24.97866398 -4 28 C-4.43551539 17.99927626 -3.15792301 9.47376902 0 0 Z " fill="#D9271E" transform="translate(122,400)"/>
<path d="M0 0 C7.44136929 1.51349884 14.89382597 3.29288608 22 6 C22.33 6.66 22.66 7.32 23 8 C19.4979746 9.1673418 18.70383962 8.79056598 15.33203125 7.56640625 C14.43935547 7.24736328 13.54667969 6.92832031 12.62695312 6.59960938 C11.69818359 6.25736328 10.76941406 5.91511719 9.8125 5.5625 C8.87212891 5.22412109 7.93175781 4.88574219 6.96289062 4.53710938 C4.63885258 3.69951191 2.31821765 2.85354717 0 2 C0 1.34 0 0.68 0 0 Z " fill="#C2241F" transform="translate(374,851)"/>
<path d="M0 0 C8.17397951 2.58125669 16.06640834 5.77011881 24 9 C23.67 9.66 23.34 10.32 23 11 C15.18843326 9.02982609 7.94799739 6.10927688 1 2 C0.67 1.34 0.34 0.68 0 0 Z " fill="#C2221B" transform="translate(348,840)"/>
<path d="M0 0 C0.33 0.99 0.66 1.98 1 3 C0.07543945 4.59399414 0.07543945 4.59399414 -1.38671875 6.28515625 C-1.91330078 6.89810547 -2.43988281 7.51105469 -2.98242188 8.14257812 C-3.54509766 8.77615234 -4.10777344 9.40972656 -4.6875 10.0625 C-5.23083984 10.69994141 -5.77417969 11.33738281 -6.33398438 11.99414062 C-9.05389937 15.11530063 -11.16523958 17.29813426 -15 19 C-14.8125 16.6875 -14.8125 16.6875 -14 14 C-13.2575 13.566875 -12.515 13.13375 -11.75 12.6875 C-8.45077936 10.66297824 -6.57757144 8.34468018 -4.1875 5.3125 C-3.39730469 4.31863281 -2.60710938 3.32476563 -1.79296875 2.30078125 C-1.20128906 1.54152344 -0.60960937 0.78226563 0 0 Z " fill="#B61E19" transform="translate(824,723)"/>
<path d="M0 0 C0.66 0.33 1.32 0.66 2 1 C-4.435 6.94 -4.435 6.94 -11 13 C-11.66 12.34 -12.32 11.68 -13 11 C-12.34 10.34 -11.68 9.68 -11 9 C-11 8.01 -11 7.02 -11 6 C-8.6875 3.75 -8.6875 3.75 -6 2 C-5.01 2.33 -4.02 2.66 -3 3 C-2.01 2.01 -1.02 1.02 0 0 Z " fill="#DB4239" transform="translate(267,174)"/>
<path d="M0 0 C-2.5966562 2.5966562 -4.93815375 3.10687691 -8.4375 4.1875 C-9.59121094 4.55230469 -10.74492187 4.91710937 -11.93359375 5.29296875 C-15 6 -15 6 -18 5 C-17.34 4.67 -16.68 4.34 -16 4 C-16.33 3.34 -16.66 2.68 -17 2 C-10.91708727 -0.1663492 -6.3552245 -1.5197276 0 0 Z " fill="#DD3E35" transform="translate(406,106)"/>
<path d="M0 0 C4.55852754 2.87474709 8.45453608 6.06185986 12.375 9.75 C12.92027344 10.25660156 13.46554688 10.76320313 14.02734375 11.28515625 C15.35505363 12.5196935 16.67803106 13.75931718 18 15 C17.01 15.33 16.02 15.66 15 16 C14.16855469 15.22914063 13.33710938 14.45828125 12.48046875 13.6640625 C11.38291233 12.6509335 10.28525056 11.63791863 9.1875 10.625 C8.64029297 10.11710938 8.09308594 9.60921875 7.52929688 9.0859375 C5.09977985 6.84783697 2.75431332 4.83620888 0 3 C0 2.01 0 1.02 0 0 Z " fill="#C8231E" transform="translate(242,769)"/>
<path d="M0 0 C0.765625 1.609375 0.765625 1.609375 1 4 C-0.33508356 6.28027545 -1.63140704 8.19355058 -3.25 10.25 C-3.65863281 10.80429687 -4.06726563 11.35859375 -4.48828125 11.9296875 C-5.703125 13.515625 -5.703125 13.515625 -8 16 C-8.99 16 -9.98 16 -11 16 C-9.67212214 12.01636642 -7.99014805 9.89369166 -5 7 C-4.67 6.01 -4.34 5.02 -4 4 C-2.70644173 2.62804426 -1.37701298 1.28817344 0 0 Z " fill="#B9251F" transform="translate(836,706)"/>
<path d="M0 0 C0.33 0.99 0.66 1.98 1 3 C-7.91 8.94 -7.91 8.94 -17 15 C-17 14.01 -17 13.02 -17 12 C-14.7633953 10.17703421 -12.56843529 8.5490296 -10.1875 6.9375 C-9.54490234 6.49083984 -8.90230469 6.04417969 -8.24023438 5.58398438 C-5.51257591 3.69299628 -2.76164373 1.84109582 0 0 Z " fill="#B71E19" transform="translate(748,797)"/>
<path d="M0 0 C6.27 0 12.54 0 19 0 C19 0.99 19 1.98 19 3 C12.73 3 6.46 3 0 3 C0 2.01 0 1.02 0 0 Z " fill="#292926" transform="translate(504,605)"/>
<path d="M0 0 C0 0.66 0 1.32 0 2 C-7.17859349 4.04061541 -13.52605426 5.37369729 -21 5 C-17.61290925 2.7419395 -15.03357841 2.20005092 -11.0625 1.375 C-9.22365234 0.98441406 -9.22365234 0.98441406 -7.34765625 0.5859375 C-4 0 -4 0 0 0 Z " fill="#B8211A" transform="translate(614,863)"/>
<path d="M0 0 C0.33 0 0.66 0 1 0 C1.12375 0.78375 1.2475 1.5675 1.375 2.375 C1.79117993 5.14057822 1.79117993 5.14057822 4 7 C4.1953125 9.6015625 4.1953125 9.6015625 4.125 12.625 C4.10695313 13.62789063 4.08890625 14.63078125 4.0703125 15.6640625 C4.03550781 16.82035156 4.03550781 16.82035156 4 18 C3.01 18 2.02 18 1 18 C0.67 12.06 0.34 6.12 0 0 Z " fill="#272622" transform="translate(591,401)"/>
<path d="M0 0 C0.66 0.66 1.32 1.32 2 2 C1.81864449 4.76713403 1.5356614 7.3919776 1.125 10.125 C1.02058594 10.87910156 0.91617188 11.63320313 0.80859375 12.41015625 C0.54895402 14.27484156 0.27574971 16.13762887 0 18 C-0.66 18 -1.32 18 -2 18 C-2.33 18.66 -2.66 19.32 -3 20 C-3 15.38 -3 10.76 -3 6 C-2.01 7.485 -2.01 7.485 -1 9 C-0.67 6.03 -0.34 3.06 0 0 Z " fill="#DA3932" transform="translate(120,416)"/>
<path d="M0 0 C0.99 0.33 1.98 0.66 3 1 C2.31164062 1.56267578 2.31164062 1.56267578 1.609375 2.13671875 C-1.30580497 4.56807683 -3.84580511 6.80174942 -6.1875 9.8125 C-8.12812832 12.15463763 -9.02914221 12.68169381 -12 13 C-8.95169124 7.79247254 -5.12332379 3.29281385 0 0 Z " fill="#DA2B25" transform="translate(254,182)"/>
<path d="M0 0 C4.63547189 3.09031459 5.52325794 7.77630046 7 13 C7.25 16.6875 7.25 16.6875 7 19 C4.3458221 15.84388587 3.07732936 12.84829424 1.8125 8.9375 C1.46832031 7.89464844 1.12414062 6.85179687 0.76953125 5.77734375 C0 3 0 3 0 0 Z " fill="#B51C17" transform="translate(881,337)"/>
<path d="M0 0 C0.66 0.33 1.32 0.66 2 1 C2 1.99 2 2.98 2 4 C1.01 4 0.02 4 -1 4 C-1.33 4.99 -1.66 5.98 -2 7 C-4.3125 8.0625 -4.3125 8.0625 -7 9 C-8.34050052 9.65213539 -9.67661368 10.31379969 -11 11 C-8.55226831 5.79857016 -4.59788619 3.17811135 0 0 Z " fill="#DC3D34" transform="translate(273,167)"/>
<path d="M0 0 C-1.38971759 4.16915278 -3.49568259 4.69511721 -7.3125 6.75 C-8.46363281 7.38421875 -9.61476563 8.0184375 -10.80078125 8.671875 C-14.15663429 10.06502522 -14.75442567 10.05119104 -18 9 C-15.37785672 7.49480613 -12.75255792 5.99568681 -10.125 4.5 C-9.37863281 4.07074219 -8.63226562 3.64148438 -7.86328125 3.19921875 C-7.14785156 2.79316406 -6.43242188 2.38710938 -5.6953125 1.96875 C-5.03547363 1.59169922 -4.37563477 1.21464844 -3.69580078 0.82617188 C-2 0 -2 0 0 0 Z " fill="#B51C17" transform="translate(710,823)"/>
<path d="M0 0 C0.33 0 0.66 0 1 0 C1.3690205 14.78132118 1.3690205 14.78132118 -1 21 C-1.33 21 -1.66 21 -2 21 C-2.2494783 13.70968976 -1.72330907 7.09326321 0 0 Z " fill="#B51612" transform="translate(905,522)"/>
<path d="M0 0 C3.55780196 0.60990891 6.6828589 1.5783681 10 3 C10 3.66 10 4.32 10 5 C10.598125 5.268125 11.19625 5.53625 11.8125 5.8125 C13.97224808 6.98493467 15.35790256 8.19369282 17 10 C12.4054952 9.45445583 9.47466356 7.58951354 5.6875 5 C4.61886719 4.278125 3.55023437 3.55625 2.44921875 2.8125 C1.64097656 2.214375 0.83273437 1.61625 0 1 C0 0.67 0 0.34 0 0 Z " fill="#CA221F" transform="translate(721,149)"/>
<path d="M0 0 C3.3 0 6.6 0 10 0 C10.33 0.99 10.66 1.98 11 3 C13.97 3.495 13.97 3.495 17 4 C17 4.33 17 4.66 17 5 C10.83381819 5.40214229 5.82254243 3.96818336 0 2 C0 1.34 0 0.68 0 0 Z " fill="#C1241C" transform="translate(398,859)"/>
<path d="M0 0 C0.33 0 0.66 0 1 0 C1.10466648 8.07094823 1.03387512 15.9874678 0 24 C-0.33 24 -0.66 24 -1 24 C-1.72321251 16.17817855 -2.31749492 8.77322 -1 1 C-0.67 0.67 -0.34 0.34 0 0 Z " fill="#DA1D18" transform="translate(116,437)"/>
<path d="M0 0 C0.66 0 1.32 0 2 0 C3.04127245 3.3131396 3.18574123 4.60198308 1.6875 7.8125 C1.130625 8.534375 0.57375 9.25625 0 10 C-0.66 10 -1.32 10 -2 10 C-2.66 11.32 -3.32 12.64 -4 14 C-3.00956295 9.16371695 -2.04301154 4.52381127 0 0 Z " fill="#CC211A" transform="translate(701,536)"/>
<path d="M0 0 C0.33 0 0.66 0 1 0 C1 6.93 1 13.86 1 21 C0.01 20.67 -0.98 20.34 -2 20 C-2.26618595 13.04958914 -1.6120509 6.76485645 0 0 Z " fill="#F6E8DC" transform="translate(315,472)"/>
<path d="M0 0 C4.85670173 0.41730344 7.45136075 2.8000858 10.8125 6.0625 C11.56563477 6.77116211 11.56563477 6.77116211 12.33398438 7.49414062 C13.56422789 8.65408452 14.78327065 9.82588815 16 11 C15.67 11.66 15.34 12.32 15 13 C12.49609493 11.02573301 9.99755419 9.04479301 7.5 7.0625 C6.78457031 6.49853516 6.06914063 5.93457031 5.33203125 5.35351562 C4.65527344 4.81533203 3.97851562 4.27714844 3.28125 3.72265625 C2.65283203 3.22515869 2.02441406 2.72766113 1.37695312 2.21508789 C0.92255859 1.81410889 0.46816406 1.41312988 0 1 C0 0.67 0 0.34 0 0 Z " fill="#C4211C" transform="translate(758,175)"/>
<path d="M0 0 C1.48828125 1.08203125 1.48828125 1.08203125 3 3 C3.29296875 6.13671875 3.29296875 6.13671875 3.1875 9.6875 C3.16042969 10.86699219 3.13335938 12.04648437 3.10546875 13.26171875 C3.07066406 14.16535156 3.03585937 15.06898438 3 16 C2.34 16.33 1.68 16.66 1 17 C-0.53266582 13.93466836 -0.10276471 10.73245728 -0.0625 7.375 C-0.05798828 6.66859375 -0.05347656 5.9621875 -0.04882812 5.234375 C-0.03703875 3.48954725 -0.01910324 1.744763 0 0 Z " fill="#BA1513" transform="translate(907,474)"/>
<path d="M0 0 C-2.09950586 0.86555948 -4.2047907 1.71711277 -6.3125 2.5625 C-8.07013672 3.27599609 -8.07013672 3.27599609 -9.86328125 4.00390625 C-13 5 -13 5 -16 4 C-16.33 3.34 -16.66 2.68 -17 2 C-13.14275976 0.18482812 -10.23240187 -0.09405337 -6 0 C-3.50907189 -1.24546405 -2.58919267 -0.7767578 0 0 Z " fill="#DA3E37" transform="translate(371,119)"/>
<path d="M0 0 C-2.72870404 2.72870404 -5.1208197 2.88749276 -8.875 3.6875 C-10.72738281 4.09548828 -10.72738281 4.09548828 -12.6171875 4.51171875 C-15.60470337 4.94294217 -17.22770664 5.03786862 -20 4 C-13.18206985 0.86375213 -7.5742481 -0.15148496 0 0 Z " fill="#DC2D27" transform="translate(438,97)"/>
<path d="M0 0 C-4.86681299 5.11015364 -7.9988995 6.41657496 -15 7 C-14.13375 6.38125 -14.13375 6.38125 -13.25 5.75 C-10.92936927 4.07513309 -10.92936927 4.07513309 -9.1875 1.8125 C-6.13323536 -0.71817642 -3.84557196 -0.29581323 0 0 Z " fill="#AF1F19" transform="translate(691,834)"/>
<path d="M0 0 C3 3.75 3 3.75 3 6 C3.66 6 4.32 6 5 6 C5.66 8.64 6.32 11.28 7 14 C6.01 14 5.02 14 4 14 C-0.59225513 4.58997722 -0.59225513 4.58997722 0 0 Z " fill="#D22823" transform="translate(144,629)"/>
<path d="M0 0 C0.33 0.99 0.66 1.98 1 3 C-0.98 4.98 -2.96 6.96 -5 9 C-5.99 8.67 -6.98 8.34 -8 8 C-6.49776416 3.79373966 -3.71449966 2.26099979 0 0 Z " fill="#B7271E" transform="translate(796,755)"/>
<path d="M0 0 C1.07765625 0.01804687 2.1553125 0.03609375 3.265625 0.0546875 C4.49539063 0.08949219 4.49539063 0.08949219 5.75 0.125 C5.75 0.785 5.75 1.445 5.75 2.125 C2.69730154 3.65134923 -0.00845689 2.96294444 -3.375 2.6875 C-4.65632813 2.58566406 -5.93765625 2.48382812 -7.2578125 2.37890625 C-8.73894531 2.25322266 -8.73894531 2.25322266 -10.25 2.125 C-6.7733662 -0.01836161 -4.03770805 -0.08777626 0 0 Z " fill="#F8E9E0" transform="translate(493.25,670.875)"/>
<path d="M0 0 C0.33 0 0.66 0 1 0 C1.85373239 7.02804699 2.12109311 13.92278069 2 21 C-0.4275487 18.16360099 -1.38471262 16.49501076 -1.25 12.75 C-1.22421875 11.97269531 -1.1984375 11.19539063 -1.171875 10.39453125 C-0.92115922 6.90160459 -0.50409664 3.46566438 0 0 Z " fill="#C03E36" transform="translate(907,439)"/>
<path d="M0 0 C0.99 0 1.98 0 3 0 C3 3.8148669 1.93722595 5.72675616 0 9 C-2.6875 11.375 -2.6875 11.375 -5 13 C-3.87548273 10.0280615 -2.77706209 7.66559313 -1 5 C-1 4.01 -1 3.02 -1 2 C-0.67 1.34 -0.34 0.68 0 0 Z " fill="#DA3E36" transform="translate(183,257)"/>
<path d="M0 0 C3.56958511 1.1898617 4.45961629 2.4505018 6.75 5.375 C7.38421875 6.16648437 8.0184375 6.95796875 8.671875 7.7734375 C9.11015625 8.50820313 9.5484375 9.24296875 10 10 C9.67 10.99 9.34 11.98 9 13 C7.4941255 11.21326795 5.9954515 9.42046492 4.5 7.625 C3.6646875 6.62726562 2.829375 5.62953125 1.96875 4.6015625 C0 2 0 2 0 0 Z " fill="#CF231D" transform="translate(201,726)"/>
<path d="M0 0 C2.60018816 3.90028225 2.15085514 7.47434569 2 12 C1.34 12 0.68 12 0 12 C-2.44375 5.675 -2.44375 5.675 -1 2 C-0.67 1.34 -0.34 0.68 0 0 Z " fill="#B6261F" transform="translate(898,387)"/>
<path d="M0 0 C0.56847656 0.19335938 1.13695312 0.38671875 1.72265625 0.5859375 C2.49480469 0.84632813 3.26695312 1.10671875 4.0625 1.375 C4.87847656 1.65085937 5.69445312 1.92671875 6.53515625 2.2109375 C8.68024711 2.89763854 10.81415225 3.46376292 13 4 C13.99 4.33 14.98 4.66 16 5 C16.33 5.99 16.66 6.98 17 8 C11.00067626 6.1668733 5.55079437 3.92678249 0 1 C0 0.67 0 0.34 0 0 Z " fill="#CA1914" transform="translate(584,287)"/>
<path d="M0 0 C0.66 0 1.32 0 2 0 C0.53967505 5.31027254 -1.98320986 9.46330032 -5 14 C-5.67578125 12.328125 -5.67578125 12.328125 -6 10 C-4.85546875 7.421875 -4.85546875 7.421875 -3.1875 4.75 C-2.37345703 3.41195313 -2.37345703 3.41195313 -1.54296875 2.046875 C-1.03378906 1.37140625 -0.52460938 0.6959375 0 0 Z " fill="#DE251F" transform="translate(169,278)"/>
<path d="M0 0 C0.33 0 0.66 0 1 0 C0.53411505 5.70709064 -0.93757784 9.15939723 -4 14 C-4.66 13.67 -5.32 13.34 -6 13 C-5.1905146 11.01959844 -4.37732831 9.04070923 -3.5625 7.0625 C-3.11003906 5.96035156 -2.65757812 4.85820313 -2.19140625 3.72265625 C-1 1 -1 1 0 0 Z " fill="#B61F1A" transform="translate(876,635)"/>
<path d="M0 0 C3.63 0 7.26 0 11 0 C11 0.99 11 1.98 11 3 C7.37 3 3.74 3 0 3 C0 2.01 0 1.02 0 0 Z " fill="#E9E4DB" transform="translate(507,556)"/>
<path d="M0 0 C3.35882075 1.41231461 5.13329047 3.03368978 7.3125 5.9375 C8.11107422 6.97197266 8.11107422 6.97197266 8.92578125 8.02734375 C9.28027344 8.67832031 9.63476562 9.32929688 10 10 C9.67 10.99 9.34 11.98 9 13 C7.49710267 11.02297434 5.99758658 9.0435417 4.5 7.0625 C4.07074219 6.49853516 3.64148438 5.93457031 3.19921875 5.35351562 C0 1.11328125 0 1.11328125 0 0 Z " fill="#BA1B17" transform="translate(826,242)"/>
<path d="M0 0 C-0.56589844 0.33773437 -1.13179688 0.67546875 -1.71484375 1.0234375 C-2.44832031 1.46945313 -3.18179687 1.91546875 -3.9375 2.375 C-5.03384766 3.03628906 -5.03384766 3.03628906 -6.15234375 3.7109375 C-8.13772272 4.8773984 -8.13772272 4.8773984 -9 7 C-11 6 -11 6 -13 3 C-2.58064516 -1.29032258 -2.58064516 -1.29032258 0 0 Z " fill="#DB3C33" transform="translate(329,137)"/>
<path d="M0 0 C0.66 0.33 1.32 0.66 2 1 C2 6.61 2 12.22 2 18 C1.67 18 1.34 18 1 18 C0.6392073 15.18820232 0.2860722 12.37581501 -0.0625 9.5625 C-0.2181543 8.35883789 -0.2181543 8.35883789 -0.37695312 7.13085938 C-0.62644343 5.09192132 -0.81780318 3.04604939 -1 1 C-0.67 0.67 -0.34 0.34 0 0 Z " fill="#B41511" transform="translate(905,429)"/>
<path d="M0 0 C2.1519437 3.22791555 2.20086443 4.28400809 2 8 C1.34 8 0.68 8 0 8 C-0.33 10.31 -0.66 12.62 -1 15 C-1.99 15 -2.98 15 -4 15 C-2.68 10.05 -1.36 5.1 0 0 Z " fill="#EEECE7" transform="translate(594,419)"/>
<path d="M0 0 C3.93544623 1.31181541 5.74938163 3.95958727 8.14453125 7.1484375 C9.22877115 9.49514852 8.85573613 10.61653863 8 13 C6.66388095 11.0226631 5.33100742 9.04327287 4 7.0625 C3.6184375 6.49853516 3.236875 5.93457031 2.84375 5.35351562 C0 1.11328125 0 1.11328125 0 0 Z " fill="#BA1D18" transform="translate(838,258)"/>
<path d="M0 0 C0.99 0 1.98 0 3 0 C5.078125 2.08203125 5.078125 2.08203125 7.25 4.8125 C8.34054687 6.15248047 8.34054687 6.15248047 9.453125 7.51953125 C9.96359375 8.33808594 10.4740625 9.15664062 11 10 C10.67 10.99 10.34 11.98 10 13 C8.33036458 11.02327092 6.66419927 9.0437967 5 7.0625 C4.52304687 6.49853516 4.04609375 5.93457031 3.5546875 5.35351562 C0 1.11328125 0 1.11328125 0 0 Z " fill="#BF1A16" transform="translate(811,224)"/>
<path d="M0 0 C4.32239956 3.34003602 7.17477391 6.32751069 10 11 C8.68 11 7.36 11 6 11 C4.4375 8.6875 4.4375 8.6875 3 6 C2.443125 5.46375 1.88625 4.9275 1.3125 4.375 C0 3 0 3 0 0 Z " fill="#CF221D" transform="translate(212,738)"/>
<path d="M0 0 C0.33 0.99 0.66 1.98 1 3 C-1.04074305 6.57130033 -2.55753136 8.7050209 -6 11 C-5.67 8.36 -5.34 5.72 -5 3 C-4.01 3 -3.02 3 -2 3 C-1.34 2.01 -0.68 1.02 0 0 Z " fill="#DA423A" transform="translate(175,273)"/>
<path d="M0 0 C0 0.66 0 1.32 0 2 C1.32 2.33 2.64 2.66 4 3 C2.54263913 3.19491452 1.08405407 3.38069358 -0.375 3.5625 C-1.18710937 3.66691406 -1.99921875 3.77132812 -2.8359375 3.87890625 C-5 4 -5 4 -7 3 C-7.99 2.67 -8.98 2.34 -10 2 C-6.49223216 0.39644899 -3.85645121 -0.22036864 0 0 Z " fill="#C33930" transform="translate(593,866)"/>
<path d="M0 0 C3.25516428 3.16474305 6.32008793 6.32752791 9 10 C9 10.66 9 11.32 9 12 C4.58848955 10.52949652 2.14860084 6.95377777 0 3 C0 2.01 0 1.02 0 0 Z " fill="#CF221D" transform="translate(191,712)"/>
<path d="M0 0 C-0.33 0.99 -0.66 1.98 -1 3 C-3.64 3.33 -6.28 3.66 -9 4 C-8.67 3.01 -8.34 2.02 -8 1 C-5.07175348 0.02391783 -3.04386724 -0.08226668 0 0 Z " fill="#B8211A" transform="translate(650,851)"/>
<path d="M0 0 C0.6875 1.625 0.6875 1.625 1 4 C0.03238392 6.01586684 -0.96567096 8.01753602 -2 10 C-1.67 10.66 -1.34 11.32 -1 12 C-2.32 12 -3.64 12 -5 12 C-3.68938409 7.76570244 -2.05643741 3.92592596 0 0 Z " fill="#B31712" transform="translate(865,658)"/>
<path d="M0 0 C0.33 0.99 0.66 1.98 1 3 C-0.21484375 4.82421875 -0.21484375 4.82421875 -1.9375 6.6875 C-2.50339844 7.31011719 -3.06929687 7.93273437 -3.65234375 8.57421875 C-4.09707031 9.04472656 -4.54179688 9.51523437 -5 10 C-5.99 9.67 -6.98 9.34 -8 9 C-5.36 6.03 -2.72 3.06 0 0 Z " fill="#B61915" transform="translate(806,744)"/>
<path d="M0 0 C1.37562854 1.28965176 2.70766393 2.62689293 4 4 C4 4.66 4 5.32 4 6 C4.66 6.33 5.32 6.66 6 7 C6 8.32 6 9.64 6 11 C5.34 11 4.68 11 4 11 C3.32591692 9.73308493 2.66099503 8.46129251 2 7.1875 C1.62875 6.47980469 1.2575 5.77210938 0.875 5.04296875 C0 3 0 3 0 0 Z " fill="#D12821" transform="translate(154,652)"/>
<path d="M0 0 C1 2 1 2 0.22265625 4.3828125 C-0.16019531 5.28773438 -0.54304687 6.19265625 -0.9375 7.125 C-1.31777344 8.03507812 -1.69804687 8.94515625 -2.08984375 9.8828125 C-2.39019531 10.58148438 -2.69054687 11.28015625 -3 12 C-4.6875 6.9375 -4.6875 6.9375 -5 5 C-3.33333333 3.33333333 -1.66666667 1.66666667 0 0 Z " fill="#DB4940" transform="translate(144,333)"/>
<path d="M0 0 C0.99 0.33 1.98 0.66 3 1 C1.55746343 4.36591866 -0.33264727 6.51047079 -3 9 C-3.66 8.67 -4.32 8.34 -5 8 C-4.505 7.566875 -4.01 7.13375 -3.5 6.6875 C-1.66781808 5.00259517 -1.66781808 5.00259517 -2 2 C-1.34 1.34 -0.68 0.68 0 0 Z " fill="#D8443D" transform="translate(228,205)"/>
<path d="M0 0 C0.99 0.66 1.98 1.32 3 2 C0.36 4.64 -2.28 7.28 -5 10 C-5.33 9.01 -5.66 8.02 -6 7 C-5.34 7 -4.68 7 -4 7 C-3.71125 6.401875 -3.4225 5.80375 -3.125 5.1875 C-2 3 -2 3 0 0 Z " fill="#D9211B" transform="translate(224,208)"/>
<path d="M0 0 C1.43836751 0.11458693 2.87570966 0.24209116 4.3125 0.375 C5.51326172 0.47941406 5.51326172 0.47941406 6.73828125 0.5859375 C9 1 9 1 12 3 C11.67 3.66 11.34 4.32 11 5 C7.37 3.68 3.74 2.36 0 1 C0 0.67 0 0.34 0 0 Z " fill="#D1241E" transform="translate(629,107)"/>
<path d="M0 0 C3.5786304 1.65167557 6.74820188 3.78286492 10 6 C8.375 6.8125 8.375 6.8125 6 7 C2.75 4.6875 2.75 4.6875 0 2 C0 1.34 0 0.68 0 0 Z " fill="#C6221E" transform="translate(274,796)"/>
<path d="M0 0 C0.33 0 0.66 0 1 0 C0.61703609 5.74445868 0.44155535 8.05589885 -4 12 C-3.52494322 10.18641846 -3.04483958 8.37415821 -2.5625 6.5625 C-2.29566406 5.55316406 -2.02882813 4.54382813 -1.75390625 3.50390625 C-1 1 -1 1 0 0 Z " fill="#B31915" transform="translate(881,622)"/>
<path d="M0 0 C0 3.58912412 -0.66436554 4.10857029 -3 6.6875 C-3.556875 7.31011719 -4.11375 7.93273437 -4.6875 8.57421875 C-5.120625 9.04472656 -5.55375 9.51523438 -6 10 C-6.33 9.01 -6.66 8.02 -7 7 C-2.88888889 1.44444444 -2.88888889 1.44444444 0 0 Z " fill="#D52924" transform="translate(197,241)"/>
<path d="M0 0 C0.99 0.33 1.98 0.66 3 1 C-0.96 4.465 -0.96 4.465 -5 8 C-5.33 7.01 -5.66 6.02 -6 5 C-5.34 5 -4.68 5 -4 5 C-3.71125 4.360625 -3.4225 3.72125 -3.125 3.0625 C-2 1 -2 1 0 0 Z " fill="#DC2E1E" transform="translate(235,199)"/>
<path d="M0 0 C0.66 0.33 1.32 0.66 2 1 C2 1.99 2 2.98 2 4 C-0.375 5.75 -0.375 5.75 -3 7 C-3.66 6.67 -4.32 6.34 -5 6 C-3.63016497 2.83884224 -3.0109362 2.0072908 0 0 Z " fill="#DE403A" transform="translate(295,152)"/>
<path d="M0 0 C0 3 0 3 -1 6 C-0.34 6 0.32 6 1 6 C1.66 7.65 2.32 9.3 3 11 C0.69 9.02 -1.62 7.04 -4 5 C-2.68 3.35 -1.36 1.7 0 0 Z " fill="#ECE9E5" transform="translate(574,459)"/>
<path d="M0 0 C1.90368048 2.79953012 1.99184124 4.15773599 1.8125 7.625 C1 11 1 11 -2 13 C-1.48041715 8.62065881 -0.94324258 4.31196609 0 0 Z " fill="#E14E3A" transform="translate(123,390)"/>
<path d="M0 0 C0.33 0 0.66 0 1 0 C1.125 7.625 1.125 7.625 0 11 C-0.66 11 -1.32 11 -2 11 C-1.125 3.375 -1.125 3.375 0 0 Z " fill="#B51F17" transform="translate(895,578)"/>
<path d="M0 0 C0.33 0 0.66 0 1 0 C1.0270043 1.45823212 1.04639787 2.91660675 1.0625 4.375 C1.07410156 5.18710937 1.08570312 5.99921875 1.09765625 6.8359375 C1 9 1 9 0 11 C-0.66 11 -1.32 11 -2 11 C-1.125 3.375 -1.125 3.375 0 0 Z " fill="#DF3E33" transform="translate(126,379)"/>
<path d="M0 0 C3.36591866 1.44253657 5.51047079 3.33264727 8 6 C4.65626525 5.44271087 1.96687001 4.64826111 -1 3 C-0.67 2.01 -0.34 1.02 0 0 Z " fill="#CC201A" transform="translate(261,786)"/>
<path d="M0 0 C2.96 4.44 2.96 4.44 4 7 C3.67 7.99 3.34 8.98 3 10 C0.98863724 7.44008376 -0.62845496 4.95409701 -2 2 C-1.34 1.34 -0.68 0.68 0 0 Z " fill="#D53A31" transform="translate(144,625)"/>
<path d="M0 0 C4.10958767 1.45044271 7.43258745 3.51110752 11 6 C10.34 6.66 9.68 7.32 9 8 C5.78796065 5.50174717 2.82506863 2.9297008 0 0 Z " fill="#FCF7F2" transform="translate(616,305)"/>
<path d="M0 0 C2 1 2 1 4 3 C5.64991582 3.70710678 7.31562256 4.37943989 9 5 C5.35839192 6.21386936 4.66834531 5.6674695 1.3125 4.0625 C0.10013672 3.49208984 0.10013672 3.49208984 -1.13671875 2.91015625 C-1.75160156 2.60980469 -2.36648438 2.30945313 -3 2 C-2.01 1.34 -1.02 0.68 0 0 Z " fill="#D63C32" transform="translate(641,110)"/>
<path d="M0 0 C0.763125 0.0825 1.52625 0.165 2.3125 0.25 C1.9825 1.24 1.6525 2.23 1.3125 3.25 C-0.9975 3.58 -3.3075 3.91 -5.6875 4.25 C-3.34903846 0.31153846 -3.34903846 0.31153846 0 0 Z " fill="#B91E17" transform="translate(672.6875,840.75)"/>
<path d="M0 0 C-6.59090909 5 -6.59090909 5 -11 5 C-11 4.34 -11 3.68 -11 3 C-9.68 3 -8.36 3 -7 3 C-7 2.34 -7 1.68 -7 1 C-3.375 -1.125 -3.375 -1.125 0 0 Z " fill="#BB2B21" transform="translate(698,830)"/>
<path d="M0 0 C3.2542015 2.83430453 4.5206753 4.68607774 5 9 C4.01 9.495 4.01 9.495 3 10 C0 3.375 0 3.375 0 0 Z " fill="#D91E18" transform="translate(183,701)"/>
<path d="M0 0 C1.0625 1.8125 1.0625 1.8125 2 4 C1.0022242 6.99332739 0.2477975 7.94766315 -2 10 C-2.25 3.375 -2.25 3.375 0 0 Z " fill="#DC3F37" transform="translate(118,522)"/>
<path d="M0 0 C1.485 0.99 1.485 0.99 3 2 C3.1875 5.625 3.1875 5.625 3 9 C1.5 7.875 1.5 7.875 0 6 C-0.1875 2.8125 -0.1875 2.8125 0 0 Z " fill="#B51A16" transform="translate(890,363)"/>
<path d="M0 0 C0.33 0.99 0.66 1.98 1 3 C-0.9375 6.1875 -0.9375 6.1875 -3 9 C-3.93065133 6.39417629 -4.14917407 5.35801776 -3.0625 2.75 C-2.711875 2.1725 -2.36125 1.595 -2 1 C-1.67 1.33 -1.34 1.66 -1 2 C-0.67 1.34 -0.34 0.68 0 0 Z " fill="#DD4741" transform="translate(162,294)"/>
<path d="M0 0 C0.66 0.33 1.32 0.66 2 1 C-1.625 6.875 -1.625 6.875 -5 8 C-3.8141763 4.62496331 -2.72426311 2.35277269 0 0 Z " fill="#D92822" transform="translate(181,261)"/>
<path d="M0 0 C0.66 0.33 1.32 0.66 2 1 C2 1.99 2 2.98 2 4 C-0.31 4.33 -2.62 4.66 -5 5 C-3.35 3.35 -1.7 1.7 0 0 Z " fill="#D43A34" transform="translate(284,159)"/>
<path d="M0 0 C0 3 0 3 -2 5.1875 C-2.66 5.785625 -3.32 6.38375 -4 7 C-4.99 6.67 -5.98 6.34 -7 6 C-4.69 4.02 -2.38 2.04 0 0 Z " fill="#B61611" transform="translate(782,769)"/>
<path d="M0 0 C2.31 0.33 4.62 0.66 7 1 C7 1.99 7 2.98 7 4 C4.69 3.67 2.38 3.34 0 3 C0 2.01 0 1.02 0 0 Z " fill="#1D1C1A" transform="translate(489,602)"/>
<path d="M0 0 C1.875 0.25 1.875 0.25 4 1 C5.25 3.0625 5.25 3.0625 6 5 C3 5 3 5 1.3125 3.625 C0 2 0 2 0 0 Z " fill="#1E1B19" transform="translate(449,579)"/>
<path d="M0 0 C6.42857143 4.14285714 6.42857143 4.14285714 9 7 C4.68381834 7 3.07210341 4.86729652 0 2 C0 1.34 0 0.68 0 0 Z " fill="#0E0E0C" transform="translate(559,350)"/>
<path d="M0 0 C1 3 1 3 -0.4375 6.1875 C-1.2109375 7.5796875 -1.2109375 7.5796875 -2 9 C-2.6875 7.3125 -2.6875 7.3125 -3 5 C-1.5625 2.25 -1.5625 2.25 0 0 Z " fill="#D72522" transform="translate(140,339)"/>
<path d="M0 0 C2.09749995 2.35968744 2.96905704 3.54616994 3.1875 6.75 C3.125625 7.4925 3.06375 8.235 3 9 C2.34 8.67 1.68 8.34 1 8 C0.26924352 5.6859378 -0.40138258 3.35171131 -1 1 C-0.67 0.67 -0.34 0.34 0 0 Z " fill="#B91C18" transform="translate(878,327)"/>
<path d="M0 0 C0.66 0.33 1.32 0.66 2 1 C0.68 2.65 -0.64 4.3 -2 6 C-3.32 5.67 -4.64 5.34 -6 5 C-4.02 3.35 -2.04 1.7 0 0 Z " fill="#DF3935" transform="translate(261,176)"/>
<path d="M0 0 C2.64 0.33 5.28 0.66 8 1 C8 1.66 8 2.32 8 3 C5.36 2.67 2.72 2.34 0 2 C0 1.34 0 0.68 0 0 Z " fill="#C52118" transform="translate(416,864)"/>
<path d="M0 0 C0 0.99 0 1.98 0 3 C-1.65 3.66 -3.3 4.32 -5 5 C-5.33 4.34 -5.66 3.68 -6 3 C-5.34 3 -4.68 3 -4 3 C-4 2.34 -4 1.68 -4 1 C-2.68 0.67 -1.36 0.34 0 0 Z " fill="#B7211C" transform="translate(717,818)"/>
<path d="M0 0 C0.66 0.33 1.32 0.66 2 1 C2.625 3.5625 2.625 3.5625 3 6 C2.34 6 1.68 6 1 6 C0.67 6.66 0.34 7.32 0 8 C-0.98120464 4.94736336 -0.98120464 3.05263664 0 0 Z " fill="#D5392F" transform="translate(141,618)"/>
<path d="M0 0 C1.5 1.0625 1.5 1.0625 3 3 C3.1875 6.6875 3.1875 6.6875 3 10 C-0.00617269 6.99382731 0.40414684 4.17618402 0 0 Z " fill="#B11613" transform="translate(895,380)"/>
<path d="M0 0 C0.66 0 1.32 0 2 0 C2.33 1.32 2.66 2.64 3 4 C3.66 4 4.32 4 5 4 C4.67 5.32 4.34 6.64 4 8 C1.84622436 5.37801226 0.59927826 3.35595828 0 0 Z " fill="#E8E5DF" transform="translate(585,378)"/>
<path d="M0 0 C0.66 0 1.32 0 2 0 C3.38232443 1.62626404 4.71937515 3.2925002 6 5 C5.67 5.66 5.34 6.32 5 7 C2.5 5.75 2.5 5.75 0 4 C0 2.68 0 1.36 0 0 Z " fill="#D4362C" transform="translate(664,342)"/>
<path d="M0 0 C0.99 0.33 1.98 0.66 3 1 C0.03 3.475 0.03 3.475 -3 6 C-3.66 5.67 -4.32 5.34 -5 5 C-3.35 3.35 -1.7 1.7 0 0 Z " fill="#DB241F" transform="translate(267,172)"/>
<path d="M0 0 C3.35595828 0.59927826 5.37801226 1.84622436 8 4 C7.67 4.66 7.34 5.32 7 6 C5.83054208 5.19152271 4.66449539 4.37810888 3.5 3.5625 C2.8503125 3.11003906 2.200625 2.65757812 1.53125 2.19140625 C1.0259375 1.79824219 0.520625 1.40507812 0 1 C0 0.67 0 0.34 0 0 Z " fill="#C6221E" transform="translate(745,165)"/>
<path d="M0 0 C3.37462715 0.54723683 5.08235 1.0549 8 3 C8 3.66 8 4.32 8 5 C4.62496331 3.8141763 2.35277269 2.72426311 0 0 Z " fill="#CD2521" transform="translate(711,143)"/>
<path d="M0 0 C2.64 0 5.28 0 8 0 C7.67 0.66 7.34 1.32 7 2 C7.66 2.66 8.32 3.32 9 4 C5.65626525 3.44271087 2.96687001 2.64826111 0 1 C0 0.67 0 0.34 0 0 Z " fill="#D33A2F" transform="translate(651,116)"/>
<path d="M0 0 C3 1 3 1 3 1 Z " fill="#550000" transform="translate(524,878)"/>
<path d="M0 0 C2 1 2 1 2 1 Z " fill="#7F0000" transform="translate(435,871)"/>
<path d="M0 0 C2 1 2 1 2 1 Z " fill="#7F0000" transform="translate(592,870)"/>
<path d="M0 0 C2 1 2 1 2 1 Z " fill="#FF0000" transform="translate(425,869)"/>
<path d="M0 0 C2 1 2 1 2 1 Z " fill="#FF0000" transform="translate(422,868)"/>
<path d="" fill="#7F0000" transform="translate(0,0)"/>
<path d="M0 0 C2 1 2 1 2 1 Z " fill="#FF0000" transform="translate(549,88)"/>
<path d="" fill="#000000" transform="translate(0,0)"/>
<path d="" fill="#000000" transform="translate(0,0)"/>
<path d="" fill="#FF0000" transform="translate(0,0)"/>
<path d="" fill="#FF0000" transform="translate(0,0)"/>
<path d="" fill="#FF0000" transform="translate(0,0)"/>
<path d="" fill="#FF0000" transform="translate(0,0)"/>
<path d="" fill="#FF0000" transform="translate(0,0)"/>
<path d="" fill="#000000" transform="translate(0,0)"/>
<path d="" fill="#000000" transform="translate(0,0)"/>
<path d="" fill="#FF0000" transform="translate(0,0)"/>
<path d="" fill="#800000" transform="translate(0,0)"/>
<path d="" fill="#FF0000" transform="translate(0,0)"/>
<path d="" fill="#000000" transform="translate(0,0)"/>
<path d="" fill="#FF0000" transform="translate(0,0)"/>
<path d="" fill="#000000" transform="translate(0,0)"/>
<path d="" fill="#000000" transform="translate(0,0)"/>
<path d="" fill="#000000" transform="translate(0,0)"/>
<path d="" fill="#FF0000" transform="translate(0,0)"/>
<path d="" fill="#FF0000" transform="translate(0,0)"/>
<path d="" fill="#FF0000" transform="translate(0,0)"/>
<path d="" fill="#FF0000" transform="translate(0,0)"/>
<path d="" fill="#000000" transform="translate(0,0)"/>
<path d="" fill="#FF0000" transform="translate(0,0)"/>
<path d="" fill="#000000" transform="translate(0,0)"/>
<path d="" fill="#FF0000" transform="translate(0,0)"/>
<path d="" fill="#000000" transform="translate(0,0)"/>
<path d="" fill="#FF0000" transform="translate(0,0)"/>
<path d="" fill="#FF0000" transform="translate(0,0)"/>
<path d="" fill="#FF0000" transform="translate(0,0)"/>
<path d="" fill="#000000" transform="translate(0,0)"/>
<path d="" fill="#000000" transform="translate(0,0)"/>
<path d="" fill="#FF0000" transform="translate(0,0)"/>
<path d="" fill="#FF0000" transform="translate(0,0)"/>
<path d="" fill="#000000" transform="translate(0,0)"/>
<path d="" fill="#FF0000" transform="translate(0,0)"/>
<path d="" fill="#FF0000" transform="translate(0,0)"/>
<path d="" fill="#FF0000" transform="translate(0,0)"/>
<path d="" fill="#000000" transform="translate(0,0)"/>
<path d="" fill="#FF0000" transform="translate(0,0)"/>
<path d="" fill="#000000" transform="translate(0,0)"/>
<path d="" fill="#000000" transform="translate(0,0)"/>
<path d="" fill="#000000" transform="translate(0,0)"/>
<path d="" fill="#FF0000" transform="translate(0,0)"/>
<path d="" fill="#000000" transform="translate(0,0)"/>
<path d="" fill="#000000" transform="translate(0,0)"/>
<path d="" fill="#FF0000" transform="translate(0,0)"/>
<path d="" fill="#000000" transform="translate(0,0)"/>
<path d="" fill="#000000" transform="translate(0,0)"/>
<path d="" fill="#FF0000" transform="translate(0,0)"/>
<path d="" fill="#FF0000" transform="translate(0,0)"/>
<path d="" fill="#000000" transform="translate(0,0)"/>
<path d="" fill="#000000" transform="translate(0,0)"/>
<path d="" fill="#FF0000" transform="translate(0,0)"/>
<path d="" fill="#FF0000" transform="translate(0,0)"/>
<path d="" fill="#FF0000" transform="translate(0,0)"/>
<path d="" fill="#000000" transform="translate(0,0)"/>
<path d="" fill="#000000" transform="translate(0,0)"/>
<path d="" fill="#FF0000" transform="translate(0,0)"/>
<path d="" fill="#000000" transform="translate(0,0)"/>
<path d="" fill="#000000" transform="translate(0,0)"/>
<path d="" fill="#000000" transform="translate(0,0)"/>
<path d="" fill="#FF0000" transform="translate(0,0)"/>
<path d="" fill="#000000" transform="translate(0,0)"/>
<path d="" fill="#FF0000" transform="translate(0,0)"/>
<path d="" fill="#000000" transform="translate(0,0)"/>
<path d="" fill="#000000" transform="translate(0,0)"/>
<path d="" fill="#FF0000" transform="translate(0,0)"/>
<path d="" fill="#FF0000" transform="translate(0,0)"/>
<path d="" fill="#FF0000" transform="translate(0,0)"/>
</svg>
