<?xml version="1.0" encoding="UTF-8"?>
<svg version="1.1" xmlns="http://www.w3.org/2000/svg" width="1024" height="1024">
<path d="M0 0 C1.39690778 0.46422721 2.79404293 0.92777081 4.19140625 1.390625 C25.51212481 8.56636923 47.0656239 17.73140493 66.32421875 29.3984375 C68.94496173 30.96705738 71.60774967 32.39478314 74.3125 33.8125 C81.52769844 37.72073249 88.25104436 42.34765474 95 47 C95.5868457 47.40234863 96.17369141 47.80469727 96.77832031 48.21923828 C105.95035183 54.53504429 114.59961407 61.40771 123.17822266 68.50292969 C124.8083789 69.84253275 126.45584165 71.16101083 128.10546875 72.4765625 C133.65568202 76.90733925 138.71698838 81.59243472 143.67578125 86.67578125 C145.67450864 88.67450864 147.70773214 90.50271962 149.875 92.3125 C173.01664193 112.2013007 192.12489925 139.52998284 208.125 165.25 C208.68171387 166.14340088 209.23842773 167.03680176 209.81201172 167.95727539 C210.33037598 168.80153076 210.84874023 169.64578613 211.3828125 170.515625 C212.06947998 171.63372559 212.06947998 171.63372559 212.77001953 172.77441406 C214 175 214 175 215.03857422 177.71777344 C215.77551255 180.15886185 215.77551255 180.15886185 218 181 C219.2036302 183.14801698 220.30470276 185.28579721 221.375 187.5 C221.71877686 188.20431152 222.06255371 188.90862305 222.41674805 189.63427734 C223.18916435 191.21957707 223.95911139 192.80608145 224.72705078 194.39355469 C226.06416006 197.13137185 227.43480826 199.85073036 228.80859375 202.5703125 C250.12664833 245.24149579 263.07857551 292.46153359 267 340 C267.11085938 341.26972656 267.22171875 342.53945313 267.3359375 343.84765625 C274.33571534 439.85812251 245.36325634 538.17088618 165.11303711 639.32446289 C161.57799141 643.40125983 157.90090069 647.2707771 154 651 C151.33035 653.6515813 148.68219151 656.32240138 146.0546875 659.015625 C139.37215842 665.83549504 132.51731652 672.094252 125 678 C123.82267401 678.95382562 122.64698417 679.90967315 121.47265625 680.8671875 C114.56518581 686.47967585 107.58279812 691.87791066 100.21557617 696.87866211 C98.77682274 697.87218166 97.38301 698.93024496 96 700 C96 700.66 96 701.32 96 702 C95.32839844 702.06574219 94.65679688 702.13148438 93.96484375 702.19921875 C89.91118025 703.29408175 86.99869033 705.45335473 83.5625 707.8125 C58.6704837 724.35187403 31.20478736 737.25619468 3 747 C2.0109668 747.34514648 1.02193359 747.69029297 0.00292969 748.04589844 C-96.15940997 781.26448155 -204.67001242 772.80695794 -295.95922852 728.78222656 C-327.29323413 713.3194252 -357.35268402 693.82222608 -383 670 C-384.32971825 668.8499734 -385.66295928 667.70400512 -387 666.5625 C-391.91029426 662.28964759 -396.43360829 657.63343498 -401 653 C-403.2911434 650.69839476 -405.58309956 648.40164799 -407.921875 646.1484375 C-412.51902496 641.68880912 -416.59412329 636.95679914 -420.59765625 631.9609375 C-422.64861526 629.43308883 -424.7523367 626.96561446 -426.88891602 624.51025391 C-446.86478476 601.42782405 -489 551.01716813 -489 519 C-489.66 518.67 -490.32 518.34 -491 518 C-491.7175293 516.11035156 -491.7175293 516.11035156 -492.38671875 513.640625 C-493.44407006 509.90442941 -494.57166406 506.21983274 -495.83203125 502.546875 C-515.94789939 443.76181539 -524.0159053 379.74689569 -514 318 C-513.79600586 316.72688965 -513.59201172 315.4537793 -513.38183594 314.14208984 C-506.69048105 273.18483968 -494.22162999 233.86075435 -475.03613281 197.00292969 C-473.93127732 194.86715343 -472.85215439 192.71939851 -471.7734375 190.5703125 C-462.98793673 173.25583521 -452.53094195 157.00260116 -440.91088867 141.45678711 C-440.13902222 140.41856812 -440.13902222 140.41856812 -439.3515625 139.359375 C-438.66827881 138.45396973 -438.66827881 138.45396973 -437.97119141 137.53027344 C-436.82138447 136.02063538 -436.82138447 136.02063538 -437 134 C-435.6110581 132.88884648 -434.22192533 131.777931 -432.83203125 130.66796875 C-429.88498631 127.98483829 -427.58357402 124.82119812 -425.140625 121.68359375 C-422.35771737 118.19480261 -419.38313778 114.90822994 -416.37109375 111.6171875 C-415.07961587 110.19166826 -413.79430609 108.76002378 -412.54248047 107.29956055 C-407.81944038 101.79494479 -402.80512387 96.61894239 -397.67675781 91.49145508 C-396.26080053 90.07331716 -394.85301711 88.64703335 -393.4453125 87.22070312 C-387.27431416 81.03681273 -380.82039968 75.45015054 -374 70 C-372.89832906 69.06503519 -371.80198196 68.12369882 -370.71484375 67.171875 C-346.08077201 45.69068726 -317.61726627 29.09648497 -288.0625 15.375 C-286.96671631 14.86582031 -285.87093262 14.35664063 -284.74194336 13.83203125 C-276.22868405 9.95052968 -276.22868405 9.95052968 -271.80859375 8.7890625 C-270.88175781 8.52867188 -269.95492187 8.26828125 -269 8 C-268.67 7.34 -268.34 6.68 -268 6 C-266.11474609 5.28027344 -266.11474609 5.28027344 -263.6484375 4.609375 C-259.9132629 3.55277474 -256.22010339 2.43580915 -252.5390625 1.203125 C-221.20217222 -9.19029464 -188.99584141 -16.65917353 -156 -19 C-154.84661133 -19.08459473 -154.84661133 -19.08459473 -153.66992188 -19.17089844 C-101.97435835 -22.81416376 -49.07985251 -16.89015209 0 0 Z " fill="#FBC931" transform="translate(637,114)"/>
<path d="M0 0 C0.91204193 0.00304138 1.82408386 0.00608276 2.76376343 0.00921631 C49.6369523 0.2393152 93.59549116 14.92058962 129.4375 45.4375 C130.46359375 46.26765625 131.4896875 47.0978125 132.546875 47.953125 C167.16815088 76.09236354 189.74764707 117.71909871 197.4375 161.4375 C197.61410156 162.39293701 197.79070312 163.34837402 197.97265625 164.33276367 C199.76728071 175.16220067 199.83540197 185.92184178 199.8125 196.875 C199.81168427 198.33957642 199.81168427 198.33957642 199.81085205 199.83374023 C199.77359268 214.3714526 199.19985484 228.31864786 195.4375 242.4375 C195.22319336 243.27458496 195.00888672 244.11166992 194.78808594 244.97412109 C182.23290367 293.04749366 152.61005218 336.55264397 110.4375 363.4375 C109.81568848 363.83678711 109.19387695 364.23607422 108.55322266 364.64746094 C64.51385323 392.59615167 9.14817901 400.37159998 -41.5625 389.4375 C-42.43487305 389.25026367 -43.30724609 389.06302734 -44.20605469 388.87011719 C-61.9826802 384.9068264 -78.54175592 378.00653061 -94.5625 369.4375 C-95.58601563 368.89609375 -96.60953125 368.3546875 -97.6640625 367.796875 C-109.54575759 361.19949174 -120.46406593 352.70159857 -130.39453125 343.453125 C-132.46472547 341.52840389 -134.59203109 339.70002513 -136.75 337.875 C-140.75795209 334.37104188 -144.15109703 330.51437172 -147.5625 326.4375 C-148.32433594 325.56351563 -149.08617187 324.68953125 -149.87109375 323.7890625 C-167.16163007 303.66622303 -180.03000414 279.87278721 -187.5625 254.4375 C-187.79904297 253.65745605 -188.03558594 252.87741211 -188.27929688 252.07373047 C-189.92343063 246.57316941 -191.33221119 241.04484447 -192.5625 235.4375 C-192.72766113 234.69145508 -192.89282227 233.94541016 -193.06298828 233.17675781 C-198.34753319 207.85247539 -197.84620346 178.47188934 -191.5625 153.4375 C-191.34819336 152.55400879 -191.13388672 151.67051758 -190.91308594 150.76025391 C-184.52720865 124.97041908 -173.15401003 99.30694107 -156.5625 78.4375 C-155.91700195 77.61975098 -155.27150391 76.80200195 -154.60644531 75.95947266 C-138.39067016 55.74494575 -119.19393211 38.17402345 -96.5625 25.4375 C-95.86962891 25.0446582 -95.17675781 24.65181641 -94.46289062 24.24707031 C-79.94638267 16.08545542 -65.12461405 10.07036383 -49.0625 5.6875 C-48.38896484 5.50082764 -47.71542969 5.31415527 -47.02148438 5.12182617 C-31.49719136 1.13145215 -15.97507618 -0.113811 0 0 Z " fill="#FEF6DD" transform="translate(509.5625,280.5625)"/>
<path d="M0 0 C1.61513259 -0.01949604 3.2307693 -0.01048596 4.84570312 0.02148438 C6.12713196 0.02142395 6.12713196 0.02142395 7.43444824 0.0213623 C9.24006509 0.02672218 11.04568098 0.04432505 12.85107422 0.07324219 C15.61693504 0.11508283 18.38036065 0.1143138 21.14648438 0.10742188 C22.90040757 0.11791482 24.65431819 0.13085349 26.40820312 0.14648438 C27.2363855 0.14668579 28.06456787 0.14688721 28.91784668 0.14709473 C34.65084781 0.26542756 34.65084781 0.26542756 36.84542334 1.87783861 C38.43477649 4.03255671 38.50274303 5.17278336 38.50447655 7.83348846 C38.51229979 8.69801022 38.52012303 9.56253198 38.52818334 10.45325136 C38.52149118 11.40353071 38.51479901 12.35381005 38.50790405 13.33288574 C38.51258402 14.34196975 38.517264 15.35105376 38.52208579 16.39071608 C38.53409687 19.78795297 38.52455457 23.18479102 38.51513672 26.58203125 C38.5191997 29.0110752 38.52454003 31.4401173 38.53106689 33.86915588 C38.54335331 39.79140555 38.54151778 45.71355081 38.53282897 51.63579762 C38.52606055 56.44787668 38.52513205 61.25992377 38.52840042 66.07200623 C38.52886012 66.75624781 38.52931982 67.4404894 38.52979345 68.14546558 C38.5307526 69.5353828 38.53172524 70.9253 38.53271122 72.3152172 C38.54127088 85.35598507 38.53142198 98.39668974 38.51531012 111.43744725 C38.5019064 122.63297176 38.50423434 133.82840296 38.51806641 145.02392578 C38.53411208 158.01724615 38.54044685 171.01051108 38.53122962 184.00383997 C38.53027394 185.38871415 38.52933083 186.77358833 38.52840042 188.15846252 C38.52793759 188.83989066 38.52747477 189.5213188 38.52699792 190.22339627 C38.52440498 195.03106004 38.52878554 199.83868871 38.53583908 204.64634705 C38.5451195 211.11415994 38.53853539 217.58183778 38.52115631 224.04963493 C38.51717725 226.42850894 38.51834959 228.80739775 38.52494431 231.18626595 C38.53309379 234.42357503 38.52291801 237.66031084 38.50790405 240.89758301 C38.51459622 241.84786235 38.52128838 242.7981417 38.52818334 243.77721739 C38.5203601 244.64173914 38.51253686 245.5062609 38.50447655 246.39698029 C38.50374596 247.51832328 38.50374596 247.51832328 38.50300062 248.66231966 C38.02122692 251.16429868 37.10451223 252.05742436 35.12695312 253.61523438 C33.15393066 253.9961853 33.15393066 253.9961853 30.88671875 254.00341797 C30.03573608 254.01287445 29.18475342 254.02233093 28.3079834 254.03207397 C27.39230591 254.02600128 26.47662842 254.01992859 25.53320312 254.01367188 C24.59013306 254.01654205 23.64706299 254.01941223 22.67541504 254.02236938 C20.68155314 254.02441084 18.68767125 254.01887531 16.69384766 254.00634766 C13.63854268 253.99029527 10.58456061 254.0061937 7.52929688 254.02539062 C5.59309603 254.02340821 3.65689602 254.01956456 1.72070312 254.01367188 C0.80502563 254.01974457 -0.11065186 254.02581726 -1.05407715 254.03207397 C-1.90505981 254.02261749 -2.75604248 254.01316101 -3.6328125 254.00341797 C-4.7550824 253.9998378 -4.7550824 253.9998378 -5.90002441 253.9961853 C-8.41603064 253.51039514 -9.27997617 252.58064358 -10.87304688 250.61523438 C-12.32075933 247.71980946 -12.00441681 245.20842427 -12.01107788 241.97229004 C-12.01389916 241.28187197 -12.01672044 240.59145391 -12.01962721 239.88011408 C-12.0279924 237.5554815 -12.02931308 235.23089642 -12.03076172 232.90625 C-12.03542841 231.2441952 -12.04057173 229.58214168 -12.04615784 227.92008972 C-12.05744933 224.33565897 -12.06587831 220.75123659 -12.07227707 217.16679382 C-12.08293767 211.50362021 -12.10317602 205.84050675 -12.12539673 200.17736816 C-12.18739041 184.07188664 -12.24138563 167.96640872 -12.27441406 151.86083984 C-12.29272713 142.97004838 -12.32161902 134.07935761 -12.36241877 125.18864012 C-12.3835408 120.48029263 -12.39895338 115.7720723 -12.40122604 111.06367493 C-12.40336482 106.63790373 -12.41915457 102.21239752 -12.44561577 97.78670692 C-12.4528392 96.15887727 -12.4548951 94.53101561 -12.45151329 92.90317345 C-12.44764483 90.68785722 -12.46198593 88.47339844 -12.48104858 86.25817871 C-12.48435873 85.01635582 -12.48766888 83.77453293 -12.49107933 82.49507904 C-12.61712862 81.5447303 -12.74317791 80.59438156 -12.87304688 79.61523438 C-16.30799585 77.32526839 -17.66656474 77.35422982 -21.71289062 77.30664062 C-23.43088867 77.26893555 -23.43088867 77.26893555 -25.18359375 77.23046875 C-27.59760336 77.19537006 -30.01167185 77.16410735 -32.42578125 77.13671875 C-33.57240234 77.11029297 -34.71902344 77.08386719 -35.90039062 77.05664062 C-36.94960693 77.04318604 -37.99882324 77.02973145 -39.07983398 77.01586914 C-42.36685485 76.54440675 -43.71449343 76.15979022 -45.87304688 73.61523438 C-46.24225363 70.93316307 -46.36402412 68.66692635 -46.29882812 65.99023438 C-46.29554001 65.24692871 -46.29225189 64.50362305 -46.28886414 63.73779297 C-46.27844849 62.16755408 -46.25850698 60.59735359 -46.22973633 59.02734375 C-46.18570991 56.62413377 -46.16830719 54.22192251 -46.15625 51.81835938 C-46.14282332 50.29230331 -46.12789962 48.76625953 -46.11132812 47.24023438 C-46.10394119 46.5214209 -46.09655426 45.80260742 -46.08894348 45.06201172 C-46.03014246 41.98894919 -45.85211969 39.55245283 -44.87304688 36.61523438 C-41.66372175 34.44069165 -38.41456008 34.18048117 -34.62304688 33.74023438 C-26.65681946 32.57161647 -20.52164857 30.50918131 -15.38085938 24.07617188 C-12.20411059 18.89132282 -10.01075419 13.17592701 -7.76098633 7.54052734 C-7.46796631 6.90518066 -7.17494629 6.26983398 -6.87304688 5.61523438 C-6.52459717 4.72529785 -6.17614746 3.83536133 -5.81713867 2.91845703 C-3.87304688 0.61523438 -3.87304688 0.61523438 0 0 Z " fill="#1F201F" transform="translate(500.873046875,350.384765625)"/>
<path d="M0 0 C3.0625 1.9375 3.0625 1.9375 5 5 C7.40413506 15.71128033 0.5323468 26.79381433 -4.78125 35.625 C-7.93743782 40.60726792 -11.86144025 44.82149276 -16 49 C-16.845625 49.9075 -17.69125 50.815 -18.5625 51.75 C-24.84032087 57.54491157 -30.97297111 62.3066167 -39.625 63.5 C-44.03773024 62.84626219 -45.22358395 61.43459815 -48 58 C-50.60068426 47.16161532 -46.68911356 37.93172825 -41.14648438 28.78027344 C-38.42822826 24.55933571 -35.30976881 20.76173303 -32 17 C-31.38253906 16.18144531 -30.76507813 15.36289062 -30.12890625 14.51953125 C-22.94338564 6.0155665 -11.65951633 -2.24472931 0 0 Z " fill="#FEEE9C" transform="translate(263,250)"/>
<path d="M0 0 C0.33 0.66 0.66 1.32 1 2 C1.66 2 2.32 2 3 2 C3 57.44 3 112.88 3 170 C2.01 170 1.02 170 0 170 C0 113.9 0 57.8 0 0 Z " fill="#3A362E" transform="translate(489,429)"/>
<path d="M0 0 C0.33 0 0.66 0 1 0 C3.11720773 24.00762341 2.17984158 48.03623622 0 72 C-0.33 72 -0.66 72 -1 72 C-1.02318891 63.35064292 -1.04094848 54.70129657 -1.05181217 46.05191517 C-1.05702667 42.03549411 -1.06409828 38.01909435 -1.07543945 34.00268555 C-1.08631928 30.12531513 -1.09228764 26.24796518 -1.09487724 22.37058067 C-1.09672231 20.89264288 -1.10032524 19.41470618 -1.10573006 17.93677711 C-1.11300812 15.86383281 -1.11398809 13.79097264 -1.11352539 11.71801758 C-1.115746 10.53887283 -1.11796661 9.35972809 -1.12025452 8.14485168 C-1.01163474 5.30426739 -0.65397276 2.7598529 0 0 Z " fill="#FCD34B" transform="translate(903,455)"/>
<path d="M0 0 C16.04609483 -0.42916747 32.00644622 0.8600936 48 2 C48 2.33 48 2.66 48 3 C45.89651926 3.19504458 43.79217415 3.38078496 41.6875 3.5625 C40.51574219 3.66691406 39.34398437 3.77132812 38.13671875 3.87890625 C35 4 35 4 32 3 C30.16423216 2.86222864 28.32443905 2.77521948 26.484375 2.71875 C25.39769531 2.68136719 24.31101562 2.64398438 23.19140625 2.60546875 C22.05574219 2.57066406 20.92007813 2.53585938 19.75 2.5 C6.22707837 2.07984018 6.22707837 2.07984018 0 1 C0 0.67 0 0.34 0 0 Z " fill="#FED659" transform="translate(505,94)"/>
<path d="M0 0 C6.19525694 0.71141123 12.48932845 0.65670404 18.71923828 0.80224609 C19.80140625 0.83640625 20.88357422 0.87056641 21.99853516 0.90576172 C22.97927002 0.93081787 23.96000488 0.95587402 24.97045898 0.98168945 C27.47900391 1.28466797 27.47900391 1.28466797 30.47900391 3.28466797 C13.31900391 2.95466797 -3.84099609 2.62466797 -21.52099609 2.28466797 C-21.52099609 1.95466797 -21.52099609 1.62466797 -21.52099609 1.28466797 C-20.16554688 1.19378906 -20.16554688 1.19378906 -18.78271484 1.10107422 C-17.01347656 0.97539063 -17.01347656 0.97539063 -15.20849609 0.84716797 C-13.45085937 0.72535156 -13.45085937 0.72535156 -11.65771484 0.60107422 C-2.35733858 -0.33707083 -2.35733858 -0.33707083 0 0 Z " fill="#FEC818" transform="translate(509.52099609375,94.71533203125)"/>
<path d="M0 0 C0 0.66 0 1.32 0 2 C-12.04753921 2.11902069 -23.98181423 1.86173931 -36 1 C-36 0.67 -36 0.34 -36 0 C-23.87271858 -0.80765706 -12.1168145 -1.09999014 0 0 Z " fill="#FCD357" transform="translate(520,880)"/>
<path d="M0 0 C4.31401234 1.45657612 7.59783322 3.76096738 11.125 6.5625 C11.96454224 7.21871338 11.96454224 7.21871338 12.82104492 7.88818359 C18.28173587 12.17503794 23.65723262 16.56732326 29 21 C28.34 21.66 27.68 22.32 27 23 C26.30777344 22.33355469 25.61554687 21.66710937 24.90234375 20.98046875 C18.51778955 14.93438883 11.90521891 9.5251363 4.72631836 4.44213867 C3.13692779 3.31416396 1.56633735 2.15977438 0 1 C0 0.67 0 0.34 0 0 Z " fill="#FDF8EC" transform="translate(620,313)"/>
<path d="M0 0 C0.495 0.99 0.495 0.99 1 2 C-4.94 2.495 -4.94 2.495 -11 3 C-11 3.33 -11 3.66 -11 4 C-19.58 4 -28.16 4 -37 4 C-37 3.67 -37 3.34 -37 3 C-24.67403248 1.4831844 -12.40753593 0.52271216 0 0 Z " fill="#FEE167" transform="translate(500,94)"/>
<path d="M0 0 C2.97 0.495 2.97 0.495 6 1 C6 1.66 6 2.32 6 3 C6.78375 3.061875 7.5675 3.12375 8.375 3.1875 C13.2886704 4.28883992 17.77310877 6.24575449 22 9 C22.33 9.99 22.66 10.98 23 12 C17.6462535 10.44347945 12.99849053 8.0182491 8.125 5.375 C7.34125 4.95476563 6.5575 4.53453125 5.75 4.1015625 C3.83107943 3.0718978 1.91522397 2.03652433 0 1 C0 0.67 0 0.34 0 0 Z " fill="#FCCD40" transform="translate(325,833)"/>
<path d="M0 0 C3.1552856 2.99183613 5.69566827 6.17299681 8.25 9.6875 C12.22910501 15.06556067 16.454418 20.09523032 21 25 C20.67 25.66 20.34 26.32 20 27 C15.02986188 22.27214915 10.70936984 17.31864414 6.625 11.8125 C6.09261719 11.11447266 5.56023437 10.41644531 5.01171875 9.69726562 C4.50511719 9.01986328 3.99851562 8.34246094 3.4765625 7.64453125 C2.797146 6.73731323 2.797146 6.73731323 2.10400391 5.81176758 C0.92787872 3.88164264 0.43008816 2.20792783 0 0 Z " fill="#FCF9EC" transform="translate(346,584)"/>
<path d="M0 0 C1.09716797 1.68847656 1.09716797 1.68847656 2 4 C1.49267578 6.38183594 1.49267578 6.38183594 0.4453125 8.984375 C0.07792969 9.91894531 -0.28945313 10.85351562 -0.66796875 11.81640625 C-1.06628906 12.78449219 -1.46460938 13.75257813 -1.875 14.75 C-2.26558594 15.73355469 -2.65617187 16.71710938 -3.05859375 17.73046875 C-4.02548116 20.15947858 -5.00627541 22.58187351 -6 25 C-7.1659015 21.50229549 -6.75567572 20.53777352 -5.625 17.125 C-4.78273483 14.55097465 -4.01518199 12.077793 -3.49609375 9.41796875 C-2.79786816 6.01480623 -1.42608676 3.16219238 0 0 Z " fill="#FBC01E" transform="translate(327,399)"/>
<path d="M0 0 C3 1 3 1 4.31640625 3.40625 C6.80152726 9.57620561 8.79975422 15.45320481 10 22 C6.88776996 18.34193269 5.18449804 14.24429815 3.3125 9.875 C2.99216797 9.14667969 2.67183594 8.41835938 2.34179688 7.66796875 C0 2.26535848 0 2.26535848 0 0 Z " fill="#FBCF46" transform="translate(151,640)"/>
<path d="M0 0 C8.05075569 -0.65720455 15.35672529 1.77071154 23 4 C21.140625 5.05078125 21.140625 5.05078125 19 6 C17.31165408 5.39031953 15.64797236 4.71162443 14 4 C12.00318338 3.74643598 10.00588463 3.49409137 8.00390625 3.28515625 C5.20177437 2.88641234 2.64234217 1.99087831 0 1 C0 0.67 0 0.34 0 0 Z " fill="#FECE34" transform="translate(598,105)"/>
<path d="M0 0 C2.83069691 0.59733001 5.39378353 1.28749457 8.125 2.1875 C8.86621094 2.40986328 9.60742188 2.63222656 10.37109375 2.86132812 C12.28331603 3.4713515 14.14759776 4.22712971 16 5 C16.33 5.99 16.66 6.98 17 8 C10.04223041 6.63125844 3.61396893 4.5466871 -3 2 C-2.01 1.34 -1.02 0.68 0 0 Z " fill="#FDCD3E" transform="translate(377,855)"/>
<path d="M0 0 C9.405 1.485 9.405 1.485 19 3 C17 5 17 5 14.0625 5.25 C8.96631262 5.12043591 3.98167906 4.00894766 -1 3 C-0.67 2.01 -0.34 1.02 0 0 Z " fill="#FECE36" transform="translate(569,98)"/>
<path d="M0 0 C0.33 0.66 0.66 1.32 1 2 C-0.40895236 4.61788643 -1.86243091 7.11045672 -3.4375 9.625 C-3.87126953 10.33140625 -4.30503906 11.0378125 -4.75195312 11.765625 C-5.82748132 13.51483568 -6.91283725 15.25799654 -8 17 C-8.66 16.01 -9.32 15.02 -10 14 C-8.7143824 11.85032779 -7.42192095 9.70533651 -6.125 7.5625 C-5.76019531 6.95083984 -5.39539063 6.33917969 -5.01953125 5.70898438 C-2.2265625 1.11328125 -2.2265625 1.11328125 0 0 Z " fill="#FDCC3C" transform="translate(853,680)"/>
<path d="M0 0 C0.70703125 1.6796875 0.70703125 1.6796875 1 4 C-0.36328125 6.5078125 -0.36328125 6.5078125 -2.3125 9.125 C-2.94800781 9.99382812 -3.58351562 10.86265625 -4.23828125 11.7578125 C-6 14 -6 14 -8 16 C-8.66 16 -9.32 16 -10 16 C-8.55797524 11.84848662 -6.4989562 8.70021555 -3.875 5.1875 C-3.15054688 4.21167969 -2.42609375 3.23585938 -1.6796875 2.23046875 C-0.84824219 1.12638672 -0.84824219 1.12638672 0 0 Z " fill="#FCCE3C" transform="translate(193,260)"/>
<path d="M0 0 C6.16356805 1.6658292 11.48259656 4.87805286 17 8 C16.34 8.66 15.68 9.32 15 10 C15 9.34 15 8.68 15 8 C14.195625 7.9175 13.39125 7.835 12.5625 7.75 C8.04065795 6.79803325 4.15297299 4.98419821 0 3 C0 2.01 0 1.02 0 0 Z " fill="#FDD341" transform="translate(678,131)"/>
<path d="M0 0 C0.33 0.66 0.66 1.32 1 2 C0.37915039 3.69580078 0.37915039 3.69580078 -0.65234375 5.6953125 C-1.01650391 6.41074219 -1.38066406 7.12617187 -1.75585938 7.86328125 C-2.14580078 8.60964844 -2.53574219 9.35601563 -2.9375 10.125 C-3.32357422 10.87910156 -3.70964844 11.63320313 -4.10742188 12.41015625 C-5.06452132 14.27709097 -6.03136106 16.13902628 -7 18 C-7.33 18 -7.66 18 -8 18 C-7.5188509 12.22621075 -5.81532819 8.04140164 -3 3 C-2.34 3 -1.68 3 -1 3 C-0.67 2.01 -0.34 1.02 0 0 Z " fill="#FCCD39" transform="translate(867,653)"/>
<path d="M0 0 C0.33 0 0.66 0 1 0 C0.56699236 6.81987029 -0.90787824 11.91643021 -4 18 C-4.33 18 -4.66 18 -5 18 C-5.28773432 13.20922365 -4.44169975 9.99382444 -2.5 5.625 C-2.0359375 4.56539063 -1.571875 3.50578125 -1.09375 2.4140625 C-0.55234375 1.21910156 -0.55234375 1.21910156 0 0 Z " fill="#FDD13E" transform="translate(150,336)"/>
<path d="M0 0 C7.59 0 15.18 0 23 0 C23 0.33 23 0.66 23 1 C20.18814406 1.33972801 17.37571764 1.67190212 14.5625 2 C13.77939453 2.09539062 12.99628906 2.19078125 12.18945312 2.2890625 C6.75624381 2.91511131 1.46925737 3.08759571 -4 3 C-2.68 2.67 -1.36 2.34 0 2 C0 1.34 0 0.68 0 0 Z " fill="#FECA15" transform="translate(461,97)"/>
<path d="M0 0 C0.33 0.66 0.66 1.32 1 2 C-0.11799986 3.33920838 -1.24461897 4.67122556 -2.375 6 C-3.00148437 6.7425 -3.62796875 7.485 -4.2734375 8.25 C-4.84320313 8.8275 -5.41296875 9.405 -6 10 C-6.66 10 -7.32 10 -8 10 C-8.33 10.66 -8.66 11.32 -9 12 C-8.52379711 7.62346871 -7.33100111 5.93461995 -3.9375 3.1875 C-3.20402344 2.58292969 -2.47054687 1.97835938 -1.71484375 1.35546875 C-1.14894531 0.90816406 -0.58304688 0.46085937 0 0 Z " fill="#FDD039" transform="translate(255,291)"/>
<path d="M0 0 C2.06947096 3.10420644 3.32446144 6.0318675 4.6875 9.5 C5.14511719 10.6446875 5.60273437 11.789375 6.07421875 12.96875 C7 16 7 16 6 19 C4.5393715 16.35261084 4 15.10551666 4 12 C3.34 12 2.68 12 2 12 C0.40861915 7.82262526 -0.21278058 4.46839215 0 0 Z " fill="#FCD04A" transform="translate(877,344)"/>
<path d="M0 0 C0 0.66 0 1.32 0 2 C-1.4117783 2.53394179 -2.82970244 3.05165104 -4.25 3.5625 C-5.03890625 3.85253906 -5.8278125 4.14257812 -6.640625 4.44140625 C-9.19103452 5.04522837 -10.55322229 4.8473932 -13 4 C-8.68630028 1.12420019 -5.19265239 0 0 0 Z " fill="#FDCF3F" transform="translate(634,861)"/>
<path d="M0 0 C1.63129887 4.06285757 0.29968777 7.20102184 -0.9375 11.25 C-1.31777344 12.51328125 -1.69804688 13.7765625 -2.08984375 15.078125 C-2.39019531 16.04234375 -2.69054687 17.0065625 -3 18 C-4.07868195 14.6951021 -3.90419019 12.38236521 -3.1875 9 C-3.01605469 8.154375 -2.84460938 7.30875 -2.66796875 6.4375 C-2.02335268 4.0852168 -1.17002281 2.1326998 0 0 Z " fill="#FBD657" transform="translate(891,584)"/>
<path d="M0 0 C0.33 0 0.66 0 1 0 C0.48517081 5.852795 -0.45357192 11.3297637 -2 17 C-2.66 16.67 -3.32 16.34 -4 16 C-3.67 13.36 -3.34 10.72 -3 8 C-2.34 8 -1.68 8 -1 8 C-0.67 5.36 -0.34 2.72 0 0 Z " fill="#FDD758" transform="translate(896,562)"/>
<path d="M0 0 C0.33 0 0.66 0 1 0 C1.26404456 6.86515862 0.25841946 13.25846717 -1 20 C-1.33 20 -1.66 20 -2 20 C-2.05407567 17.41638482 -2.093707 14.83390745 -2.125 12.25 C-2.14175781 11.52039063 -2.15851562 10.79078125 -2.17578125 10.0390625 C-2.21072239 6.1955376 -2.17499684 3.25393228 0 0 Z " fill="#FBD95C" transform="translate(900,536)"/>
<path d="M0 0 C2.34917898 2.15341406 3.82443004 4.21667937 5.25 7.0625 C5.60578125 7.75472656 5.9615625 8.44695312 6.328125 9.16015625 C6.54984375 9.76730469 6.7715625 10.37445313 7 11 C6.67 11.66 6.34 12.32 6 13 C3.57206296 10.83049884 2.3943719 8.99994161 1.3125 5.9375 C1.06113281 5.24527344 0.80976562 4.55304688 0.55078125 3.83984375 C0 2 0 2 0 0 Z " fill="#FCCD46" transform="translate(856,300)"/>
<path d="M0 0 C2.93972937 5.69947531 3.12420629 9.62949766 2 16 C1.67 16 1.34 16 1 16 C-0.12862175 10.63904667 -0.09688221 5.44693314 0 0 Z " fill="#FDD44F" transform="translate(122,527)"/>
<path d="M0 0 C0.66 0.33 1.32 0.66 2 1 C-1.3 3.97 -4.6 6.94 -8 10 C-8.99 9.67 -9.98 9.34 -11 9 C-7.37 6.03 -3.74 3.06 0 0 Z " fill="#FDD647" transform="translate(285,206)"/>
<path d="M0 0 C0.66 0.33 1.32 0.66 2 1 C1.01 2.485 1.01 2.485 0 4 C-0.66 4 -1.32 4 -2 4 C-2.66 5.32 -3.32 6.64 -4 8 C-4.66 7.67 -5.32 7.34 -6 7 C-6 6.01 -6 5.02 -6 4 C-3 1.8125 -3 1.8125 0 0 Z " fill="#FDD247" transform="translate(300,156)"/>
<path d="M0 0 C1.62418745 -0.08090971 3.24951745 -0.13914995 4.875 -0.1875 C5.77992188 -0.22230469 6.68484375 -0.25710938 7.6171875 -0.29296875 C8.79667969 -0.14794922 8.79667969 -0.14794922 10 0 C10.66 0.99 11.32 1.98 12 3 C10.18674449 2.88648483 8.37436643 2.75887039 6.5625 2.625 C5.04849609 2.52058594 5.04849609 2.52058594 3.50390625 2.4140625 C2.67761719 2.27742187 1.85132813 2.14078125 1 2 C0.67 1.34 0.34 0.68 0 0 Z " fill="#FDD53F" transform="translate(442,874)"/>
<path d="M0 0 C0 0.66 0 1.32 0 2 C-1.28650706 2.69710731 -2.57940665 3.38242876 -3.875 4.0625 C-4.95394531 4.63677734 -4.95394531 4.63677734 -6.0546875 5.22265625 C-6.69664062 5.47917969 -7.33859375 5.73570312 -8 6 C-8.66 5.67 -9.32 5.34 -10 5 C-6.99385784 1.69324363 -4.54252119 0 0 0 Z " fill="#FBCE3D" transform="translate(685,840)"/>
<path d="M0 0 C1.25955231 3.77865693 0.48087189 5.03411786 -0.9375 8.6875 C-1.31777344 9.68136719 -1.69804688 10.67523437 -2.08984375 11.69921875 C-2.39019531 12.45847656 -2.69054687 13.21773437 -3 14 C-4.0625 12.1875 -4.0625 12.1875 -5 10 C-4.67 9.01 -4.34 8.02 -4 7 C-3.34 7 -2.68 7 -2 7 C-1.34 4.69 -0.68 2.38 0 0 Z " fill="#FAD963" transform="translate(884,609)"/>
<path d="M0 0 C0.89332031 0.12761719 1.78664063 0.25523437 2.70703125 0.38671875 C3.60808594 0.50660156 4.50914062 0.62648438 5.4375 0.75 C6.12457031 0.85699219 6.81164062 0.96398437 7.51953125 1.07421875 C7.51953125 1.40421875 7.51953125 1.73421875 7.51953125 2.07421875 C3.11038342 3.17650571 -0.96429276 3.15076411 -5.48046875 3.07421875 C-3.68981165 0.76004728 -2.99175075 0.08951695 0 0 Z " fill="#FCCF4D" transform="translate(569.48046875,874.92578125)"/>
<path d="M0 0 C0.33 0 0.66 0 1 0 C1 2.64 1 5.28 1 8 C0.34 8 -0.32 8 -1 8 C-1 9.65 -1 11.3 -1 13 C-1.33 13 -1.66 13 -2 13 C-2.05416188 11.39620659 -2.09286638 9.79188594 -2.125 8.1875 C-2.14820313 7.29417969 -2.17140625 6.40085937 -2.1953125 5.48046875 C-2 3 -2 3 0 0 Z " fill="#FCD03D" transform="translate(901,528)"/>
<path d="M0 0 C0.33 0 0.66 0 1 0 C1.25002209 1.74714233 1.47423194 3.49799141 1.6875 5.25 C1.87892578 6.71179688 1.87892578 6.71179688 2.07421875 8.203125 C2 11 2 11 -1 15 C-0.67 10.05 -0.34 5.1 0 0 Z " fill="#FDD75E" transform="translate(123,433)"/>
<path d="M0 0 C2.22825644 2.22825644 2.69239369 3.65761628 3.625 6.625 C4.01558594 7.85089844 4.01558594 7.85089844 4.4140625 9.1015625 C4.60742188 9.72804688 4.80078125 10.35453125 5 11 C4.01 10.67 3.02 10.34 2 10 C0.47839986 6.3962102 0 3.94779314 0 0 Z " fill="#FCD04A" transform="translate(868,323)"/>
<path d="M0 0 C0.99 0.33 1.98 0.66 3 1 C2.67 1.66 2.34 2.32 2 3 C2.99 3.33 3.98 3.66 5 4 C5.33 5.98 5.66 7.96 6 10 C3.38275905 7.63202009 1.67138271 5.10399646 0 2 C0 1.34 0 0.68 0 0 Z " fill="#FCD446" transform="translate(168,675)"/>
<path d="M0 0 C2.5 2.3125 2.5 2.3125 5 5 C5 5.99 5 6.98 5 8 C2.5 6.25 2.5 6.25 0 4 C0 2.68 0 1.36 0 0 Z " fill="#FACE45" transform="translate(820,245)"/>
<path d="M0 0 C0.66 0.33 1.32 0.66 2 1 C2 1.66 2 2.32 2 3 C0.25 4.6875 0.25 4.6875 -2 6 C-4.25 5.6875 -4.25 5.6875 -6 5 C-4.02 3.35 -2.04 1.7 0 0 Z " fill="#FBD341" transform="translate(280,170)"/>
<path d="M0 0 C1.485 0.99 1.485 0.99 3 2 C2.67 2.66 2.34 3.32 2 4 C2.66 4 3.32 4 4 4 C4.33 4.99 4.66 5.98 5 7 C4.01 8.485 4.01 8.485 3 10 C2.566875 8.2984375 2.566875 8.2984375 2.125 6.5625 C1.75375 5.386875 1.3825 4.21125 1 3 C0.34 2.67 -0.32 2.34 -1 2 C-0.67 1.34 -0.34 0.68 0 0 Z " fill="#F9C543" transform="translate(147,630)"/>
<path d="M0 0 C0.33 0 0.66 0 1 0 C0.67 4.62 0.34 9.24 0 14 C-0.33 14 -0.66 14 -1 14 C-1.22331199 12.41870971 -1.42804644 10.83478911 -1.625 9.25 C-1.74101563 8.36828125 -1.85703125 7.4865625 -1.9765625 6.578125 C-2.00207817 3.77140122 -1.44843844 2.36615134 0 0 Z " fill="#FDC719" transform="translate(125,428)"/>
<path d="M0 0 C0.66 0.33 1.32 0.66 2 1 C0.35 2.65 -1.3 4.3 -3 6 C-3.99 5.34 -4.98 4.68 -6 4 C-4.02 2.68 -2.04 1.36 0 0 Z " fill="#FDD147" transform="translate(308,151)"/>
<path d="M0 0 C0 0.66 0 1.32 0 2 C-0.99 2 -1.98 2 -3 2 C-3.33 2.99 -3.66 3.98 -4 5 C-6.0625 5.6875 -6.0625 5.6875 -8 6 C-8.33 5.34 -8.66 4.68 -9 4 C-2.25 0 -2.25 0 0 0 Z " fill="#FCD448" transform="translate(324,143)"/>
<path d="M0 0 C1.258125 0.12375 2.51625 0.2475 3.8125 0.375 C4.87404297 0.47941406 4.87404297 0.47941406 5.95703125 0.5859375 C8 1 8 1 11 3 C8.3125 3.75 8.3125 3.75 5 4 C2.125 2.0625 2.125 2.0625 0 0 Z " fill="#FED94F" transform="translate(610,107)"/>
<path d="M0 0 C3.3 0.33 6.6 0.66 10 1 C8 3 8 3 4.375 3.125 C3.26125 3.08375 2.1475 3.0425 1 3 C0.67 2.01 0.34 1.02 0 0 Z " fill="#FDCF4D" transform="translate(578,100)"/>
<path d="M0 0 C-2.6855594 2.6855594 -5.37621328 3.06049974 -9 4 C-8.67 3.01 -8.34 2.02 -8 1 C-5.29120665 -0.35439668 -2.99066732 -0.06501451 0 0 Z " fill="#FBD144" transform="translate(675,846)"/>
<path d="M0 0 C0.33 0.66 0.66 1.32 1 2 C0.22265625 3.7265625 0.22265625 3.7265625 -0.9375 5.625 C-1.618125 6.73875 -2.29875 7.8525 -3 9 C-3.33 9 -3.66 9 -4 9 C-4.25 6.75 -4.25 6.75 -4 4 C-2 1.6875 -2 1.6875 0 0 Z " fill="#F9D046" transform="translate(853,680)"/>
<path d="M0 0 C0.33 0.66 0.66 1.32 1 2 C0.22265625 3.9453125 0.22265625 3.9453125 -0.9375 6.125 C-1.31777344 6.84945312 -1.69804688 7.57390625 -2.08984375 8.3203125 C-2.39019531 8.87460937 -2.69054687 9.42890625 -3 10 C-3.33 10 -3.66 10 -4 10 C-3.67 7.69 -3.34 5.38 -3 3 C-2.34 3 -1.68 3 -1 3 C-0.67 2.01 -0.34 1.02 0 0 Z " fill="#FBD651" transform="translate(867,653)"/>
<path d="M0 0 C2.26185454 2.26185454 3.03921617 3.96983561 4 7 C3.67 7.99 3.34 8.98 3 10 C3 9.34 3 8.68 3 8 C2.34 8 1.68 8 1 8 C-0.35439668 5.29120665 -0.06501451 2.99066732 0 0 Z " fill="#FCD346" transform="translate(873,334)"/>
<path d="M0 0 C0.99 0.66 1.98 1.32 3 2 C1.03533587 3.06775224 -0.96855359 4.06553465 -3 5 C-3.66 4.67 -4.32 4.34 -5 4 C-5 3.34 -5 2.68 -5 2 C-2.6875 0.875 -2.6875 0.875 0 0 Z " fill="#FDD23D" transform="translate(232,310)"/>
<path d="M0 0 C0.66 0.33 1.32 0.66 2 1 C0.515 3.475 0.515 3.475 -1 6 C-2.32 5.67 -3.64 5.34 -5 5 C-3.35 3.35 -1.7 1.7 0 0 Z " fill="#FCD141" transform="translate(238,256)"/>
<path d="M0 0 C2.875 0.25 2.875 0.25 6 1 C7.375 3.0625 7.375 3.0625 8 5 C4.62496331 3.8141763 2.35277269 2.72426311 0 0 Z " fill="#FBCD43" transform="translate(308,823)"/>
<path d="M0 0 C0.99 0.33 1.98 0.66 3 1 C3.33 3.64 3.66 6.28 4 9 C1.49701566 6.06171403 0.53069061 3.82097239 0 0 Z " fill="#FDD650" transform="translate(151,640)"/>
<path d="M0 0 C0.33 0.66 0.66 1.32 1 2 C0.06553465 4.03144641 -0.93224776 6.03533587 -2 8 C-2.33 8 -2.66 8 -3 8 C-2.74438677 5.6568787 -2.40729228 3.32156597 -2 1 C-1.34 0.67 -0.68 0.34 0 0 Z " fill="#FED22A" transform="translate(161,315)"/>
<path d="M0 0 C2.72426311 2.35277269 3.8141763 4.62496331 5 8 C3.0625 7.375 3.0625 7.375 1 6 C0.25 2.875 0.25 2.875 0 0 Z " fill="#FCCF45" transform="translate(842,276)"/>
<path d="M0 0 C0.75 1.75 0.75 1.75 1 4 C-0.9375 6.25 -0.9375 6.25 -3 8 C-3 4.42424104 -1.91159393 2.94704065 0 0 Z " fill="#FCC943" transform="translate(182,276)"/>
<path d="M0 0 C2 1 2 1 2 1 Z " fill="#FFFF00" transform="translate(362,853)"/>
<path d="M0 0 C2 1 2 1 2 1 Z " fill="#FFFF00" transform="translate(719,823)"/>
<path d="M0 0 C2 1 2 1 2 1 Z " fill="#FF7F00" transform="translate(292,815)"/>
<path d="M0 0 C2 1 2 1 2 1 Z " fill="#FFFF00" transform="translate(224,757)"/>
<path d="" fill="#FF0000" transform="translate(0,0)"/>
<path d="M0 0 C2 1 2 1 2 1 Z " fill="#FF7F00" transform="translate(280,168)"/>
<path d="M0 0 C2 1 2 1 2 1 Z " fill="#FF7F00" transform="translate(458,96)"/>
<path d="" fill="#FFFF00" transform="translate(0,0)"/>
<path d="" fill="#FFFF00" transform="translate(0,0)"/>
<path d="" fill="#FFFF00" transform="translate(0,0)"/>
<path d="" fill="#FFFF00" transform="translate(0,0)"/>
<path d="" fill="#FFFF00" transform="translate(0,0)"/>
<path d="" fill="#FF0000" transform="translate(0,0)"/>
<path d="" fill="#FFFF00" transform="translate(0,0)"/>
<path d="" fill="#FFFF00" transform="translate(0,0)"/>
<path d="" fill="#FFFF00" transform="translate(0,0)"/>
<path d="" fill="#FFFF00" transform="translate(0,0)"/>
<path d="" fill="#FFFF00" transform="translate(0,0)"/>
<path d="" fill="#FF8000" transform="translate(0,0)"/>
<path d="" fill="#FF0000" transform="translate(0,0)"/>
<path d="" fill="#FFFF00" transform="translate(0,0)"/>
<path d="" fill="#FFFF00" transform="translate(0,0)"/>
<path d="" fill="#FFFF00" transform="translate(0,0)"/>
<path d="" fill="#FFFF00" transform="translate(0,0)"/>
<path d="" fill="#FF0000" transform="translate(0,0)"/>
<path d="" fill="#FFFF80" transform="translate(0,0)"/>
<path d="" fill="#FFFF00" transform="translate(0,0)"/>
<path d="" fill="#FFFF00" transform="translate(0,0)"/>
<path d="" fill="#FF0000" transform="translate(0,0)"/>
<path d="" fill="#FFFF00" transform="translate(0,0)"/>
<path d="" fill="#FFFF00" transform="translate(0,0)"/>
<path d="" fill="#FF0000" transform="translate(0,0)"/>
<path d="" fill="#FFFF00" transform="translate(0,0)"/>
<path d="" fill="#FFFF00" transform="translate(0,0)"/>
<path d="" fill="#FFFF00" transform="translate(0,0)"/>
<path d="" fill="#FF0000" transform="translate(0,0)"/>
<path d="" fill="#FF0000" transform="translate(0,0)"/>
<path d="" fill="#FFFF00" transform="translate(0,0)"/>
<path d="" fill="#FF0000" transform="translate(0,0)"/>
<path d="" fill="#FF0000" transform="translate(0,0)"/>
<path d="" fill="#FFFF00" transform="translate(0,0)"/>
<path d="" fill="#FFFF00" transform="translate(0,0)"/>
<path d="" fill="#FF0000" transform="translate(0,0)"/>
<path d="" fill="#FF0000" transform="translate(0,0)"/>
<path d="" fill="#FFFF00" transform="translate(0,0)"/>
<path d="" fill="#FFFF00" transform="translate(0,0)"/>
<path d="" fill="#FFFF00" transform="translate(0,0)"/>
<path d="" fill="#FFFF00" transform="translate(0,0)"/>
<path d="" fill="#FFFF00" transform="translate(0,0)"/>
<path d="" fill="#FF0000" transform="translate(0,0)"/>
<path d="" fill="#FF0000" transform="translate(0,0)"/>
<path d="" fill="#FF0000" transform="translate(0,0)"/>
<path d="" fill="#FFFF00" transform="translate(0,0)"/>
<path d="" fill="#FFFF00" transform="translate(0,0)"/>
<path d="" fill="#FFFF00" transform="translate(0,0)"/>
<path d="" fill="#FFFF00" transform="translate(0,0)"/>
<path d="" fill="#FF0000" transform="translate(0,0)"/>
<path d="" fill="#FF0000" transform="translate(0,0)"/>
<path d="" fill="#FFFF00" transform="translate(0,0)"/>
<path d="" fill="#FFFF00" transform="translate(0,0)"/>
<path d="" fill="#FF0000" transform="translate(0,0)"/>
<path d="" fill="#FF0000" transform="translate(0,0)"/>
<path d="" fill="#FF0000" transform="translate(0,0)"/>
</svg>
