<?xml version="1.0" encoding="UTF-8"?>
<svg version="1.1" xmlns="http://www.w3.org/2000/svg" width="1024" height="1024">
<path d="M0 0 C0.93424805 0.42748535 1.86849609 0.8549707 2.83105469 1.29541016 C40.916042 18.72358594 76.26285692 41.46558139 106.8984375 70.109375 C109.0547345 72.1405645 109.0547345 72.1405645 112 74 C112 74.66 112 75.32 112 76 C112.99 76.33 113.98 76.66 115 77 C115 77.66 115 78.32 115 79 C115.59167969 79.25394531 116.18335938 79.50789063 116.79296875 79.76953125 C119.2430973 81.13553212 120.5359582 82.52936211 122.3125 84.6875 C124.56944258 87.36133006 126.85187189 89.88889203 129.375 92.3125 C133.485194 96.3681339 137.04309659 100.82545772 140.64892578 105.328125 C142.14518458 107.17965739 143.66290886 109.01223186 145.18359375 110.84375 C151.62265865 118.62534072 157.54440415 126.48710984 163 135 C163.8523989 136.27809437 164.70805765 137.55401873 165.56640625 138.828125 C166.01153564 139.4893335 166.45666504 140.15054199 166.9152832 140.83178711 C167.77613794 142.10929113 168.63788794 143.38619255 169.50073242 144.66235352 C171.5096142 147.66078803 173.40959497 150.673451 175.171875 153.82421875 C176.80332932 156.97669903 176.80332932 156.97669903 179 159 C180.08316522 161.01995676 181.11688101 163.06656168 182.125 165.125 C182.75490725 166.40639805 183.38512724 167.6876424 184.015625 168.96875 C184.50579102 169.96841797 184.50579102 169.96841797 185.00585938 170.98828125 C185.96381002 172.92676683 186.93890486 174.85534923 187.921875 176.78125 C224.57825897 248.71928821 238.59695733 327.98939472 228.33984375 408.01074219 C227.87464075 412.10265705 227.60489627 416.2024258 227.36132812 420.31298828 C226.97800817 423.16354195 226.11985782 425.36156518 225 428 C224.61523084 429.47650058 224.26766404 430.96317432 223.95703125 432.45703125 C223.77430664 433.30950439 223.59158203 434.16197754 223.40332031 435.0402832 C223.20834961 435.95511475 223.01337891 436.86994629 222.8125 437.8125 C213.57517506 479.49506063 197.8705253 521.03754016 175.08691406 557.27050781 C174.02353278 558.96255475 172.97640881 560.66478417 171.9296875 562.3671875 C159.63839003 582.00605024 145.21661951 600.48670038 129.40625 617.41015625 C127.42128739 619.54656893 125.51068511 621.71442515 123.625 623.9375 C116.680079 631.93671022 109.00308426 639.50591003 100.921875 646.3515625 C99.55283043 647.52582431 98.2116349 648.73288755 96.890625 649.9609375 C89.05406997 657.24525207 80.57368637 663.62030931 72 670 C71.2668457 670.54736816 70.53369141 671.09473633 69.77832031 671.65869141 C49.36166372 686.84250745 27.79964754 699.97293799 4.90869141 711.07226562 C3.12552462 711.93898778 1.3495723 712.8205091 -0.42578125 713.703125 C-50.49716018 737.97328376 -107.03080509 749.26764922 -162.5 749.1875 C-163.67453735 749.18659363 -163.67453735 749.18659363 -164.87280273 749.18566895 C-178.33297903 749.15767527 -191.62582402 748.61367107 -205 747 C-206.08087891 746.87109375 -207.16175781 746.7421875 -208.27539062 746.609375 C-276.44723017 738.21899475 -341.26496287 713.37679362 -395.96777344 671.55322266 C-397.82706735 670.13217173 -399.69629381 668.72575565 -401.5703125 667.32421875 C-409.11442145 661.64802627 -416.30397736 655.5970069 -423.40917969 649.38671875 C-424.89311666 648.09317025 -426.38757755 646.81172221 -427.8828125 645.53125 C-429.11644531 644.46390625 -429.11644531 644.46390625 -430.375 643.375 C-431.08398438 642.76398437 -431.79296875 642.15296875 -432.5234375 641.5234375 C-434 640 -434 640 -434 638 C-434.58265625 637.7421875 -435.1653125 637.484375 -435.765625 637.21875 C-438.1802903 635.90165983 -439.81740177 634.44911616 -441.75 632.5 C-442.36359375 631.8915625 -442.9771875 631.283125 -443.609375 630.65625 C-445 629 -445 629 -445 627 C-445.66 627 -446.32 627 -447 627 C-448.375 625.63671875 -448.375 625.63671875 -450 623.6875 C-452.84002365 620.33697623 -455.75815152 617.09076071 -458.75 613.875 C-464.53430964 607.52893647 -469.78311112 600.81485485 -475 594 C-475.7734375 592.9996875 -476.546875 591.999375 -477.34375 590.96875 C-482.07051825 584.77734933 -486.47250364 578.41990543 -490.72680664 571.89868164 C-492.35996761 569.40317996 -493.88455731 567.11544269 -496 565 C-496.74173433 563.76952599 -497.44469071 562.51547042 -498.125 561.25 C-500.44662238 557.00177755 -502.80021333 552.7740851 -505.1875 548.5625 C-505.53248535 547.94729492 -505.8774707 547.33208984 -506.23291016 546.69824219 C-507.66139456 544.18248748 -508.94396576 542.05603424 -511 540 C-511.70456984 538.70019316 -512.36174765 537.3743247 -512.98828125 536.03515625 C-513.36283447 535.23972412 -513.7373877 534.44429199 -514.12329102 533.62475586 C-514.71194946 532.35643921 -514.71194946 532.35643921 -515.3125 531.0625 C-515.71331787 530.20599854 -516.11413574 529.34949707 -516.52709961 528.46704102 C-517.68898116 525.97998011 -518.84465827 523.49010367 -520 521 C-520.56740713 519.78892134 -521.13507219 518.57796345 -521.703125 517.3671875 C-525 510.26185345 -525 510.26185345 -525 508 C-525.66 507.67 -526.32 507.34 -527 507 C-527.9300624 504.77853339 -528.73430614 502.59193639 -529.5 500.3125 C-529.75136719 499.57918457 -530.00273438 498.84586914 -530.26171875 498.09033203 C-530.84352955 496.38553078 -531.42132854 494.67935749 -531.99609375 492.97216797 C-533.11993467 489.64492104 -534.26363258 486.32475005 -535.40625 483.00390625 C-552.09718501 434.13962388 -559.26837063 384.65090148 -556.3125 333 C-556.27120972 332.2778833 -556.22991943 331.5557666 -556.18737793 330.81176758 C-551.26177142 248.2864918 -518.01469952 166.55173156 -463.57788086 104.31152344 C-461.27168908 101.64704299 -459.54880351 99.14536748 -458 96 C-456.51953125 94.578125 -456.51953125 94.578125 -454.8125 93.25 C-451.43228816 90.47040431 -448.67115582 87.42428443 -445.8359375 84.1015625 C-442.75027074 80.56945885 -439.55110551 77.06946131 -436 74 C-435.34 74 -434.68 74 -434 74 C-434 73.34 -434 72.68 -434 72 C-432.6015625 70.58984375 -432.6015625 70.58984375 -430.625 68.9375 C-427.47821792 66.26933688 -424.40792312 63.54691752 -421.375 60.75 C-415.17021067 55.16663115 -408.63491598 50.05464308 -402 45 C-401.27603027 44.44618652 -400.55206055 43.89237305 -399.80615234 43.32177734 C-389.34532581 35.35427401 -378.69964617 27.99762721 -367.34082031 21.36962891 C-364.92256344 19.95469137 -362.52014985 18.51495181 -360.1171875 17.07421875 C-272.67234734 -34.7599441 -160.82571022 -50.8361648 0 0 Z " fill="#D55498" transform="translate(674,128)"/>
<path d="M0 0 C1.19471924 0.24943359 1.19471924 0.24943359 2.41357422 0.50390625 C21.64733567 4.5793354 39.71761483 11.69516753 57 21 C58.16660156 21.61359375 59.33320312 22.2271875 60.53515625 22.859375 C70.03633628 28.0437844 78.54942832 34.2645594 87 41 C87.91313965 41.72727295 87.91313965 41.72727295 88.84472656 42.46923828 C109.10960388 58.79956405 125.16201264 78.83544356 137 102 C137.38140137 102.74362793 137.76280273 103.48725586 138.15576172 104.25341797 C145.67020176 119.08088008 150.9882055 134.00423771 154.75 150.1875 C155.04825684 151.46814331 155.04825684 151.46814331 155.35253906 152.7746582 C158.20583707 165.70871191 159.33381731 178.3773105 159.26074219 191.57861328 C159.25003984 193.86648235 159.26070276 196.15356097 159.2734375 198.44140625 C159.3066245 230.62180354 151.4493186 261.75557993 136 290 C135.45988281 291.00675781 134.91976563 292.01351563 134.36328125 293.05078125 C126.20540625 307.64804426 116.23802514 320.53790659 104.53222656 332.43261719 C103.23578647 333.75880352 101.96976515 335.11462269 100.7109375 336.4765625 C71.67774714 367.30330902 28.3213736 385.37695839 -13 391 C-14.24386475 391.17200928 -15.48772949 391.34401855 -16.76928711 391.52124023 C-38.14596129 394.16136141 -61.06654635 392.6586339 -82 388 C-82.85287598 387.81276367 -83.70575195 387.62552734 -84.58447266 387.43261719 C-121.28063235 379.1248649 -153.51889233 361.25494675 -180.61181641 335.32080078 C-181.77164751 334.2172682 -182.9518289 333.13517557 -184.13671875 332.05859375 C-218.02449749 300.30212185 -235.40711909 250.21776697 -237.12109375 204.79052734 C-238.77118164 147.80474197 -218.1337236 97.04103469 -179.62109375 55.4296875 C-174.13721442 49.79865577 -168.20308136 44.81846498 -162 40 C-161.44570313 39.56929199 -160.89140625 39.13858398 -160.3203125 38.69482422 C-115.55838448 4.19083803 -55.88520727 -12.38912734 0 0 Z " fill="#FBF0E5" transform="translate(550,280)"/>
<path d="M0 0 C1.29556824 -0.00990463 2.59113647 -0.01980927 3.92596436 -0.03001404 C5.36486911 -0.02577577 6.80377295 -0.02121788 8.24267578 -0.01637268 C9.75547796 -0.02207382 11.26827584 -0.02903708 12.78106689 -0.03717041 C16.8925916 -0.05514429 21.0039034 -0.05392569 25.11545563 -0.04822803 C28.54509209 -0.04514262 31.97468726 -0.0512213 35.40431786 -0.05726677 C43.49305007 -0.07132394 51.58167669 -0.0697405 59.67041016 -0.05836487 C68.02238555 -0.04687878 76.37404003 -0.06096473 84.72597313 -0.08776134 C91.89122471 -0.10989201 99.05637536 -0.1165618 106.22165871 -0.11068493 C110.50362455 -0.10730825 114.78538459 -0.10977747 119.06732178 -0.12693596 C123.09262089 -0.14236155 127.11744311 -0.13849896 131.14272308 -0.11963081 C132.62179216 -0.11593285 134.10089623 -0.11908844 135.57993317 -0.1295166 C137.59524526 -0.1426434 139.61067977 -0.1288227 141.62597656 -0.11352539 C143.31945724 -0.11321146 143.31945724 -0.11321146 145.04714966 -0.1128912 C147.81298828 0.38768005 147.81298828 0.38768005 149.66906738 2.26052761 C151.09812047 4.91789122 151.30051233 6.88170745 151.46142578 9.89549255 C151.52426758 11.04952576 151.58710937 12.20355896 151.65185547 13.39256287 C151.7050293 14.71095154 151.75820313 16.02934021 151.81298828 17.38768005 C151.86525574 18.48880127 151.86525574 18.48880127 151.9185791 19.61216736 C152.15435551 24.61934809 152.3014756 29.62222624 152.3828125 34.63426208 C152.41953104 36.38342957 152.47416223 38.13231465 152.546875 39.88035583 C153.09785556 53.42635254 150.7924967 61.46429197 142.81298828 72.38768005 C141.93601599 73.78747409 141.07335254 75.19658146 140.23876953 76.62205505 C139.71379883 77.4903595 139.71379883 77.4903595 139.17822266 78.37620544 C107.77859402 130.91524083 91.01180552 187.81899448 83.51171875 248.25218201 C83.41290909 249.02802643 83.31409943 249.80387085 83.21229553 250.60322571 C83.02676021 252.06226873 82.84707121 253.52207168 82.67430115 254.98268127 C82.22808212 258.4576116 81.77057985 261.43567 79.81298828 264.38768005 C77.38030821 265.60402009 75.77874504 265.53397541 73.05957031 265.56468201 C72.07159454 265.57751724 71.08361877 265.59035248 70.06570435 265.60357666 C68.99488617 265.61096359 67.92406799 265.61835052 66.82080078 265.6259613 C65.72331512 265.63403305 64.62582947 265.6421048 63.49508667 265.65042114 C61.16991764 265.66426795 58.84472823 265.67498742 56.51953125 265.68284607 C52.95940819 265.70007639 49.40020934 265.74396033 45.84033203 265.78807068 C43.58382846 265.79819577 41.32731698 265.80671245 39.07080078 265.8134613 C38.00403107 265.83096939 36.93726135 265.84847748 35.83816528 265.86651611 C28.4873287 265.84488703 28.4873287 265.84488703 25.12890625 263.56785583 C23.19741793 260.36782045 23.4796352 257.53817581 23.81298828 253.95018005 C23.87421875 253.16924988 23.93544922 252.3883197 23.99853516 251.58372498 C24.23488126 248.84718224 24.5191398 246.11863439 24.81298828 243.38768005 C24.96767578 241.87657654 24.96767578 241.87657654 25.12548828 240.33494568 C31.43129776 181.39712417 50.7510111 106.80352969 87.55908203 59.1259613 C88.94238062 57.20830438 89.30361002 55.67265596 89.81298828 53.38768005 C88.60442673 53.38181381 87.39586517 53.37594757 86.15068054 53.36990356 C74.77590284 53.31275664 63.4013178 53.2400373 52.02673626 53.15196514 C46.17856402 53.10718676 40.33046266 53.06794714 34.48217773 53.04124451 C28.84106361 53.01528602 23.20022115 52.97493669 17.55927467 52.92449379 C15.40427841 52.90777452 13.2492351 52.89629187 11.09418297 52.89006615 C8.0817842 52.88048003 5.07008842 52.85248675 2.05786133 52.8200531 C1.16162552 52.82148819 0.26538971 52.82292328 -0.65800476 52.82440186 C-1.4783017 52.81186371 -2.29859863 52.79932556 -3.14375305 52.78640747 C-3.85629903 52.78179851 -4.56884501 52.77718954 -5.30298328 52.77244091 C-7.76841747 52.26894396 -8.66905635 51.36335703 -10.18701172 49.38768005 C-10.4909668 46.61888123 -10.4909668 46.61888123 -10.39404297 43.2431488 C-10.36648926 41.99066345 -10.33893555 40.7381781 -10.31054688 39.44773865 C-10.28961975 38.78401245 -10.26869263 38.12028625 -10.24713135 37.43644714 C-10.18702849 35.3882516 -10.15417244 33.34137779 -10.12988281 31.29246521 C-10.08675241 27.80228754 -10.01322012 24.31374841 -9.92456055 20.82444763 C-9.89073362 19.38870079 -9.86289531 17.95280228 -9.84057617 16.51683044 C-9.80716648 14.40680701 -9.75501322 12.29798309 -9.69873047 10.1884613 C-9.67254639 8.9526532 -9.6463623 7.71684509 -9.61938477 6.44358826 C-9.18701172 3.38768005 -9.18701172 3.38768005 -8.04667664 1.72091579 C-5.35061444 -0.21195203 -3.29840393 0.00709909 0 0 Z " fill="#191C19" transform="translate(439.18701171875,346.61231994628906)"/>
<path d="M0 0 C-3.37109837 3.60571694 -6.55406936 6.12941461 -10.875 8.5 C-11.47248047 8.83418945 -12.06996094 9.16837891 -12.68554688 9.51269531 C-15.58440301 11.13230498 -18.49647101 12.72675459 -21.41503906 14.31054688 C-33.82830408 21.05904703 -45.80433121 28.30169208 -57.5625 36.125 C-58.1807666 36.53407593 -58.7990332 36.94315186 -59.43603516 37.36462402 C-68.65242982 43.4792294 -77.38268786 50.0707693 -86 57 C-86.98629395 57.7839917 -87.97258789 58.5679834 -88.98876953 59.37573242 C-95.08676999 64.23053757 -100.79115147 69.43597285 -106.40625 74.83544922 C-110.78815729 79 -110.78815729 79 -113 79 C-113.33 79.99 -113.66 80.98 -114 82 C-115.4609375 83.40234375 -115.4609375 83.40234375 -117.375 84.9375 C-125.77893188 92.07858702 -132.87651291 100.66744161 -139.765625 109.2421875 C-142.06561354 112.08098455 -144.43734393 114.84894179 -146.8125 117.625 C-152.48122882 124.41868586 -157.54277037 131.59875473 -162.54931641 138.88916016 C-163.91331107 140.87386191 -165.29002899 142.84918892 -166.66796875 144.82421875 C-172.05443538 152.63366701 -176.67132228 160.6811095 -180.9921875 169.125 C-183.28873058 173.60928492 -185.80299765 177.95048144 -188.34375 182.30078125 C-190.93326168 186.80618164 -192.99041982 191.31011074 -194.84375 196.16015625 C-195.95411217 198.88729577 -197.18806935 201.5314344 -198.46875 204.18212891 C-202.27960451 212.08924136 -205.3465466 220.09330965 -208.12841797 228.41308594 C-209.10993492 231.32629423 -210.11953485 234.22914136 -211.12890625 237.1328125 C-220.09978827 263.18479059 -226.50995199 289.20795008 -230.125 316.5 C-230.29604248 317.78229492 -230.46708496 319.06458984 -230.64331055 320.38574219 C-235.10485515 355.32152788 -234.58181057 391.24195387 -229 426 C-228.88873779 426.69482483 -228.77747559 427.38964966 -228.6628418 428.10552979 C-226.00684788 444.53796273 -222.79591062 460.82528276 -218.82861328 476.99609375 C-218.46872314 478.47529297 -218.46872314 478.47529297 -218.1015625 479.984375 C-217.78179443 481.26393066 -217.78179443 481.26393066 -217.45556641 482.56933594 C-216.98115312 485.10055708 -216.91910236 487.43078259 -217 490 C-222.4246426 489.3195895 -224.28368705 487.16146629 -227.69921875 483.08984375 C-254.96544886 446.4725466 -268.65741278 397.89023298 -273 353 C-273.16628906 351.45119141 -273.16628906 351.45119141 -273.3359375 349.87109375 C-277.87273274 299.90503801 -270.01589722 237.26589722 -246.171875 192.30078125 C-245.01438487 190.0282423 -244.08903886 187.75933304 -243.1875 185.375 C-241.06954097 179.86479124 -238.37630452 174.66898874 -235.64135742 169.44482422 C-233.54826853 165.43491822 -233.54826853 165.43491822 -233 161 C-232 160 -231 159 -230 158 C-229.690625 157.195625 -229.38125 156.39125 -229.0625 155.5625 C-228 153 -228 153 -226.08984375 151.1015625 C-224.06658312 149.06695649 -222.8782951 147.30845106 -221.5 144.8125 C-218.07641135 138.90945668 -214.12539672 133.41996317 -210.13867188 127.88989258 C-209.63400391 127.18630615 -209.12933594 126.48271973 -208.609375 125.7578125 C-208.15530273 125.1302002 -207.70123047 124.50258789 -207.23339844 123.85595703 C-205.94373417 122.01031111 -205.94373417 122.01031111 -204.99316406 119.88623047 C-204 118 -204 118 -201.5 116.0625 C-198.79490756 113.83079874 -198.00952842 112.30391118 -197 109 C-196.01 109 -195.02 109 -194 109 C-193.505 107.515 -193.505 107.515 -193 106 C-191.34211215 104.65576661 -189.67423683 103.32381517 -188 102 C-187.34 101.154375 -186.68 100.30875 -186 99.4375 C-184 97 -184 97 -181.765625 95.6953125 C-178.38006205 93.61998154 -175.64495412 91.13732854 -172.75 88.4375 C-172.20859375 87.94314453 -171.6671875 87.44878906 -171.109375 86.93945312 C-168.16286199 84.28066342 -168.16286199 84.28066342 -166 81 C-164.33518559 79.99691937 -162.66808803 78.99762723 -161 78 C-158.88092818 76.34077752 -156.80687727 74.66920918 -154.75 72.9375 C-154.20859375 72.49083984 -153.6671875 72.04417969 -153.109375 71.58398438 C-150.12538615 69.15197913 -150.12538615 69.15197913 -148 66 C-146.31170973 65.00688808 -144.62013589 64.01856904 -142.90625 63.0703125 C-139.33115842 61.06298649 -135.97329792 59.00553967 -133.11328125 56.05078125 C-130.97372281 53.97449995 -128.96297576 52.65008565 -126.375 51.1875 C-121.7799486 48.52291398 -117.49919117 45.57025016 -113.2265625 42.41796875 C-111.09165493 41.05836972 -109.47279395 40.43471492 -107 40 C-107 39.34 -107 38.68 -107 38 C-106.1028125 37.63519531 -105.205625 37.27039063 -104.28125 36.89453125 C-98.55281529 34.44010403 -93.05164688 31.51234372 -87.5 28.6875 C-79.29557845 24.54709996 -71.1464463 20.56879507 -62.5390625 17.34375 C-59.4411326 16.16749406 -56.41040236 14.90168738 -53.36328125 13.6015625 C-47.19349657 11.01917357 -40.9397001 8.88219805 -34.5625 6.875 C-33.469375 6.52953125 -32.37625 6.1840625 -31.25 5.828125 C-10.82417159 -0.55038161 -10.82417159 -0.55038161 0 0 Z " fill="#EC5EAE" transform="translate(429,144)"/>
<path d="M0 0 C2.93423195 1.79646854 4.47205355 2.9441071 6 6 C7.17693007 19.63516545 -3.87321872 33.12879889 -12 43 C-26.4978355 60.17810761 -26.4978355 60.17810761 -37.625 62.5625 C-40.55088311 61.86952769 -42.24274504 60.70259952 -44.04296875 58.28515625 C-47.04462353 51.11793972 -45.78502926 42.01507786 -43.125 34.9375 C-39.67861662 27.68247136 -34.90122399 21.32286086 -30 15 C-29.38898438 14.19046875 -28.77796875 13.3809375 -28.1484375 12.546875 C-21.0149543 3.68918496 -11.43645776 -1.36799734 0 0 Z " fill="#FD9BCC" transform="translate(264,249)"/>
<path d="M0 0 C0.33 0.99 0.66 1.98 1 3 C-13.26739615 17.44774245 -13.26739615 17.44774245 -19.11328125 22.38671875 C-21.28023468 24.23962096 -23.34935574 26.18376036 -25.4375 28.125 C-32.58215424 34.56064275 -40.29188184 40.26437968 -48 46 C-48.7331543 46.54736816 -49.46630859 47.09473633 -50.22167969 47.65869141 C-70.63429792 62.83950413 -92.19261997 75.96862641 -115.078125 87.06787109 C-116.89919558 87.95110883 -118.71537728 88.84440585 -120.53125 89.73828125 C-128.26842227 93.46136746 -136.14819639 96.7606209 -144.125 99.9375 C-145.12152588 100.33960693 -146.11805176 100.74171387 -147.14477539 101.15600586 C-148.56197876 101.71106812 -148.56197876 101.71106812 -150.0078125 102.27734375 C-150.84973145 102.60984131 -151.69165039 102.94233887 -152.55908203 103.28491211 C-155.15673241 104.04591611 -157.30795772 104.13246939 -160 104 C-157.4345406 101.4345406 -155.52313332 101.45953913 -152 101 C-152 100.34 -152 99.68 -152 99 C-147.375 96.875 -147.375 96.875 -144 98 C-143.505 96.515 -143.505 96.515 -143 95 C-140.36 94.67 -137.72 94.34 -135 94 C-135 93.34 -135 92.68 -135 92 C-133.68 92 -132.36 92 -131 92 C-131 91.34 -131 90.68 -131 90 C-127.04 89.01 -123.08 88.02 -119 87 C-119 86.34 -119 85.68 -119 85 C-108.62642369 79.44419134 -108.62642369 79.44419134 -103 79 C-102.505 77.515 -102.505 77.515 -102 76 C-99.35125467 74.55522982 -96.73636928 73.25713069 -94 72 C-92.18249651 71.15653215 -90.3699617 70.30227693 -88.5625 69.4375 C-87.71816406 69.04433594 -86.87382813 68.65117188 -86.00390625 68.24609375 C-83.67679903 67.09479448 -83.67679903 67.09479448 -83 64 C-81.02 64.495 -81.02 64.495 -79 65 C-79 64.34 -79 63.68 -79 63 C-78.05640625 62.56300781 -78.05640625 62.56300781 -77.09375 62.1171875 C-70.25151958 58.84033618 -64.12921419 55.21862031 -58.8125 49.75 C-57 48 -57 48 -54.7421875 47.16796875 C-51.42798915 45.75636575 -49.08010911 43.86191876 -46.3125 41.5625 C-45.35988281 40.78003906 -44.40726563 39.99757813 -43.42578125 39.19140625 C-40.85630999 37.05050524 -40.85630999 37.05050524 -39 34 C-38.01 33.67 -37.02 33.34 -36 33 C-35.505 32.01 -35.505 32.01 -35 31 C-34.195625 30.525625 -33.39125 30.05125 -32.5625 29.5625 C-29.7644028 28.10335955 -29.7644028 28.10335955 -28 25 C-27.26136719 24.55785156 -26.52273438 24.11570312 -25.76171875 23.66015625 C-22.39368941 21.63552758 -19.65653481 19.11854434 -16.8125 16.4375 C-16.25022705 15.91317383 -15.6879541 15.38884766 -15.10864258 14.84863281 C-9.95455553 10.0160838 -4.94543557 5.04590718 0 0 Z " fill="#B93B7B" transform="translate(794,752)"/>
<path d="M0 0 C-3.11830505 3.52504049 -6.70916789 5.87485527 -10.62109375 8.4140625 C-13.57577576 10.38385051 -16.37654688 12.5200743 -19.17578125 14.703125 C-21 16 -21 16 -23.04296875 16.984375 C-25.16817727 18.08727763 -26.32965861 19.29334684 -28 21 C-29.94619138 22.49510621 -31.90646951 23.97193145 -33.875 25.4375 C-39.54135341 29.70201066 -44.75931054 34.31635202 -49.86083984 39.23999023 C-53.79930959 43 -53.79930959 43 -56 43 C-56 43.66 -56 44.32 -56 45 C-59.38265081 48.71748173 -62.60973097 51.62760651 -67.5 52.9375 C-68.325 52.958125 -69.15 52.97875 -70 53 C-68.38405168 50.95880212 -66.7143618 48.95927063 -65 47 C-64.34 47 -63.68 47 -63 47 C-63 46.34 -63 45.68 -63 45 C-61.6015625 43.58984375 -61.6015625 43.58984375 -59.625 41.9375 C-56.47821792 39.26933688 -53.40792312 36.54691752 -50.375 33.75 C-41.10169696 25.40543444 -31.07068659 17.99280566 -21.0625 10.5625 C-20.26980713 9.97122314 -19.47711426 9.37994629 -18.66040039 8.77075195 C-5.80409827 -0.70352706 -5.80409827 -0.70352706 0 0 Z " fill="#E55CA5" transform="translate(303,155)"/>
<path d="M0 0 C0.33 0 0.66 0 1 0 C0.61354862 9.69026829 -2.39056823 18.21928241 -5.5 27.3125 C-5.77110596 28.11434723 -6.04221191 28.91619446 -6.3215332 29.74234009 C-10.62149317 42.44384553 -15.28227401 54.8602394 -21 67 C-21.49064941 68.04849121 -21.98129883 69.09698242 -22.48681641 70.17724609 C-32.29874369 91.07151548 -32.29874369 91.07151548 -37 99 C-38.37095624 95.30962722 -37.60010967 93.29116165 -36.0625 89.75 C-35.68222656 88.85796875 -35.30195312 87.9659375 -34.91015625 87.046875 C-34.60980469 86.37140625 -34.30945313 85.6959375 -34 85 C-33.34 85 -32.68 85 -32 85 C-32 83.68 -32 82.36 -32 81 C-31.34 81 -30.68 81 -30 81 C-29.89042969 80.36191406 -29.78085937 79.72382812 -29.66796875 79.06640625 C-29.50941406 78.24011719 -29.35085938 77.41382813 -29.1875 76.5625 C-29.03667969 75.73878906 -28.88585937 74.91507813 -28.73046875 74.06640625 C-28.48941406 73.38449219 -28.24835937 72.70257812 -28 72 C-26.515 71.505 -26.515 71.505 -25 71 C-24.67 68.69 -24.34 66.38 -24 64 C-23.34 64 -22.68 64 -22 64 C-22 62.35 -22 60.7 -22 59 C-21.34 59 -20.68 59 -20 59 C-19.34 56.03 -18.68 53.06 -18 50 C-17.34 50 -16.68 50 -16 50 C-16.04511719 49.27554688 -16.09023438 48.55109375 -16.13671875 47.8046875 C-15.98352623 44.66205229 -15.22666416 42.91851812 -13.8125 40.125 C-10.54075353 33.27478082 -8.30957361 26.22045646 -6 19 C-5.64550781 17.98292969 -5.29101562 16.96585938 -4.92578125 15.91796875 C-3.99730133 12.99149406 -3.3913563 10.14937262 -2.875 7.125 C-2.70742188 6.15820312 -2.53984375 5.19140625 -2.3671875 4.1953125 C-2.18542969 3.10863281 -2.18542969 3.10863281 -2 2 C-1.34 2 -0.68 2 0 2 C0 1.34 0 0.68 0 0 Z " fill="#BB437F" transform="translate(892,576)"/>
<path d="M0 0 C0.99 0 1.98 0 3 0 C4.53051758 1.76904297 4.53051758 1.76904297 6.14453125 4.2421875 C6.73943359 5.14453125 7.33433594 6.046875 7.94726562 6.9765625 C8.56279297 7.93304688 9.17832031 8.88953125 9.8125 9.875 C10.41642578 10.7928125 11.02035156 11.710625 11.64257812 12.65625 C15.15522094 18.0254134 18.51455685 23.46474732 21.74487305 29.00830078 C22.97388353 31.12137525 22.97388353 31.12137525 25 33 C26.08316522 35.01995676 27.11688101 37.06656168 28.125 39.125 C28.75490725 40.40639805 29.38512724 41.6876424 30.015625 42.96875 C30.34240234 43.63519531 30.66917969 44.30164063 31.00585938 44.98828125 C31.96381002 46.92676683 32.93890486 48.85534923 33.921875 50.78125 C37.71588663 58.23193348 41.31357588 65.75225713 44.75 73.375 C45.11464355 74.18275879 45.47928711 74.99051758 45.85498047 75.82275391 C47.71309161 79.98203152 49.51267224 84.1637851 51.25 88.375 C51.58 89.17421875 51.91 89.9734375 52.25 90.796875 C53.20426763 93.60003618 53.30882164 96.06619446 53 99 C49.55834073 94.77614544 48 91.49939416 48 86 C47.34 86 46.68 86 46 86 C45.814375 85.21302734 45.814375 85.21302734 45.625 84.41015625 C43.77025244 77.44326073 40.85274638 71.16550303 37.69335938 64.71508789 C35 59.18730632 35 59.18730632 35 57 C34.01 56.67 33.02 56.34 32 56 C31.36405599 53.98617729 30.73133182 51.97131141 30.109375 49.953125 C23.75498522 33.0379184 11.59769926 17.13144377 1.07421875 2.58203125 C0 1 0 1 0 0 Z " fill="#B9407E" transform="translate(828,254)"/>
<path d="M0 0 C0.99 0 1.98 0 3 0 C1.48638508 5.53525455 -1.18442754 9.90619189 -4.25 14.6875 C-4.77795166 15.51548096 -5.30590332 16.34346191 -5.84985352 17.1965332 C-17.88936102 35.8340922 -31.64084238 53.4943056 -46.85546875 69.64453125 C-49.11005882 72.00260261 -49.11005882 72.00260261 -51 75 C-51.99 74.67 -52.98 74.34 -54 74 C-52.75283203 72.67935547 -52.75283203 72.67935547 -51.48046875 71.33203125 C-50.38257928 70.15907242 -49.28493599 68.98588312 -48.1875 67.8125 C-47.64029297 67.23435547 -47.09308594 66.65621094 -46.52929688 66.06054688 C-43.59694388 62.91493184 -40.87291467 59.91989205 -39 56 C-39.33 55.34 -39.66 54.68 -40 54 C-38.68 54 -37.36 54 -36 54 C-35.9071875 53.13375 -35.9071875 53.13375 -35.8125 52.25 C-35 50 -35 50 -32.8046875 48.29296875 C-29.43951321 45.54177473 -26.96295539 42.4846526 -24.3125 39.0625 C-23.82716797 38.45470703 -23.34183594 37.84691406 -22.84179688 37.22070312 C-20.25038492 33.90727018 -18.48367783 30.96865549 -17 27 C-16.34 26.67 -15.68 26.34 -15 26 C-15 25.01 -15 24.02 -15 23 C-14.34 23 -13.68 23 -13 23 C-12.67 21.68 -12.34 20.36 -12 19 C-11.34 19 -10.68 19 -10 19 C-9.67 17.35 -9.34 15.7 -9 14 C-8.01 13.67 -7.02 13.34 -6 13 C-4.93283296 11.20067421 -4.93283296 11.20067421 -4 9 C-3.484375 8.175 -2.96875 7.35 -2.4375 6.5 C-1.14826053 4.2578444 -0.46652072 2.51921187 0 0 Z " fill="#B93E7C" transform="translate(850,676)"/>
<path d="M0 0 C1.07378906 0.55429687 2.14757812 1.10859375 3.25390625 1.6796875 C4.68993891 2.41178258 6.12614618 3.14353523 7.5625 3.875 C8.26697266 4.23980469 8.97144531 4.60460937 9.69726562 4.98046875 C14.07465515 7.19942197 18.23641861 8.81066956 23 10 C23 10.66 23 11.32 23 12 C23.556875 12.18175781 24.11375 12.36351562 24.6875 12.55078125 C28.54186176 13.82037676 32.3541515 15.12405442 36.125 16.625 C39.74958474 18.01515198 43.14451482 18.59838696 47 19 C47 19.66 47 20.32 47 21 C47.99 20.67 48.98 20.34 50 20 C50.495 20.99 50.495 20.99 51 22 C56.07822886 24.18889175 60.50758443 25.26063637 66 26 C66.6084375 26.31582031 67.216875 26.63164063 67.84375 26.95703125 C70.45948301 28.22224994 72.8882169 28.64803615 75.75 29.125 C76.73484375 29.29257812 77.7196875 29.46015625 78.734375 29.6328125 C79.48203125 29.75398437 80.2296875 29.87515625 81 30 C81.495 31.485 81.495 31.485 82 33 C60.93528109 31.85101533 39.66978788 21.17041137 20.6875 12.8125 C18.97941162 12.06407837 18.97941162 12.06407837 17.23681641 11.30053711 C11.17915743 8.59469879 5.43140213 5.83042854 0 2 C0 1.34 0 0.68 0 0 Z " fill="#C14282" transform="translate(330,830)"/>
<path d="M0 0 C4.65513315 0.5106179 7.18558376 2.36336576 10.8125 5.25 C11.36728027 5.68892578 11.92206055 6.12785156 12.49365234 6.58007812 C14.33679728 8.04400655 16.1682591 9.52183534 18 11 C19.33961044 12.06800105 20.67945944 13.13570292 22.01953125 14.203125 C29.18393689 19.94061985 36.16031953 25.80238167 42.86328125 32.07421875 C45.04748251 34.13638159 45.04748251 34.13638159 48 36 C48 36.66 48 37.32 48 38 C48.99 38.33 49.98 38.66 51 39 C51 39.66 51 40.32 51 41 C51.59167969 41.25394531 52.18335938 41.50789063 52.79296875 41.76953125 C55.2430973 43.13553212 56.5359582 44.52936211 58.3125 46.6875 C60.63344264 49.43494064 62.99095133 52.047844 65.5625 54.5625 C67.93144195 56.90995495 70.25809926 59.28028487 72.5 61.75 C73.0053125 62.30171875 73.510625 62.8534375 74.03125 63.421875 C74.3509375 63.94265625 74.670625 64.4634375 75 65 C74.505 66.485 74.505 66.485 74 68 C60.56975571 53.67708506 60.56975571 53.67708506 55.125 47.5625 C48.83909303 40.54459277 42.18724279 34.08728215 35 28 C34.10410156 27.23816406 33.20820312 26.47632813 32.28515625 25.69140625 C22.45176457 17.4086151 12.39017347 9.47984694 1.73046875 2.27734375 C1.15941406 1.85582031 0.58835937 1.43429688 0 1 C0 0.67 0 0.34 0 0 Z " fill="#C54183" transform="translate(738,166)"/>
<path d="M0 0 C0.99 0 1.98 0 3 0 C2.7422949 1.7311719 2.46820511 3.45990841 2.1875 5.1875 C2.03667969 6.15042969 1.88585937 7.11335938 1.73046875 8.10546875 C0.94515339 11.21733334 -0.33082437 13.27705187 -2 16 C-2.70430018 18.04327389 -3.34743877 20.10835722 -3.9375 22.1875 C-5.13933591 26.26548521 -6.41896787 30.20436038 -8.0625 34.125 C-9.92249094 38.57439009 -11.15806942 43.06635806 -12.2890625 47.75 C-13 50 -13 50 -15 52 C-16.06357138 42.63607001 -12.87985931 34.62944088 -9.75 26 C-9.25252522 24.58902783 -8.75642237 23.17757116 -8.26171875 21.765625 C-5.68030076 14.44154209 -2.97135832 7.17611067 0 0 Z " fill="#E3599F" transform="translate(148,332)"/>
<path d="M0 0 C0.495 0.99 0.495 0.99 1 2 C2.98 2 4.96 2 7 2 C7 2.66 7 3.32 7 4 C-3.5987347 4.79298586 -14.135876 5.15978971 -24.76391602 5.13037109 C-27.06468259 5.1249949 -29.36525476 5.13036778 -31.66601562 5.13671875 C-38.97195286 5.14119859 -46.26318437 5.02778529 -53.55859375 4.6171875 C-54.77732178 4.54870605 -55.9960498 4.48022461 -57.25170898 4.40966797 C-58.61211304 4.20688232 -58.61211304 4.20688232 -60 4 C-60.33 3.34 -60.66 2.68 -61 2 C-58.41703983 1.80477627 -55.83395921 1.61855597 -53.25 1.4375 C-52.52039063 1.38142578 -51.79078125 1.32535156 -51.0390625 1.26757812 C-45.43539804 0.88551009 -45.43539804 0.88551009 -43.16723633 1.48193359 C-38.41512362 2.61790106 -33.34725511 2.18588566 -28.48510742 2.18530273 C-26.46836518 2.18746688 -24.45219084 2.20557744 -22.43554688 2.22460938 C-14.72810602 2.23607309 -7.51765854 1.73832927 0 0 Z " fill="#C45991" transform="translate(538,872)"/>
<path d="M0 0 C0.33 0 0.66 0 1 0 C1.13277344 0.98742187 1.26554688 1.97484375 1.40234375 2.9921875 C1.57894531 4.27351563 1.75554688 5.55484375 1.9375 6.875 C2.11152344 8.15117187 2.28554688 9.42734375 2.46484375 10.7421875 C2.81433227 13.87559454 2.81433227 13.87559454 4 16 C4.16850423 18.23630784 4.27432559 20.47743323 4.3515625 22.71875 C4.38690346 23.74218002 4.38690346 23.74218002 4.42295837 24.7862854 C4.49683888 27.02403937 4.56180275 29.26192021 4.625 31.5 C4.64779022 32.25810974 4.67058044 33.01621948 4.69406128 33.79730225 C5.10542603 47.90288599 4.82135646 61.90842869 4 76 C3.34 76 2.68 76 2 76 C1.98969254 75.2985939 1.97938507 74.59718781 1.96876526 73.87452698 C1.86977601 67.18391518 1.76714157 60.49336964 1.66066074 53.80287266 C1.60607243 50.36527103 1.55277383 46.92766061 1.50268555 43.48999023 C1.19003059 21.72762748 1.19003059 21.72762748 0 0 Z " fill="#BA5084" transform="translate(901,437)"/>
<path d="M0 0 C0.33 0 0.66 0 1 0 C1.04898438 0.60328125 1.09796875 1.2065625 1.1484375 1.828125 C1.22320313 2.62734375 1.29796875 3.4265625 1.375 4.25 C1.44460938 5.03890625 1.51421875 5.8278125 1.5859375 6.640625 C1.84108182 8.97140312 1.84108182 8.97140312 3.00488281 10.59155273 C4.53446896 14.2935565 4.32532617 17.92611154 4.3359375 21.89453125 C4.3425943 22.76011154 4.3492511 23.62569183 4.35610962 24.51750183 C4.36622337 26.34733968 4.37092703 28.17721431 4.37060547 30.00708008 C4.3749686 32.7924559 4.41127267 35.57623356 4.44921875 38.36132812 C4.45508938 40.14322378 4.45905712 41.92512692 4.4609375 43.70703125 C4.47530853 44.53330521 4.48967957 45.35957916 4.50448608 46.21089172 C4.45970398 51.94135141 3.21129982 55.24430122 0 60 C-1.23866315 56.28401054 -0.42417397 55.51912158 1 52 C1.24916865 49.39537444 1.24916865 49.39537444 1.13525391 46.65893555 C1.11508209 45.6182341 1.09491028 44.57753265 1.0741272 43.5052948 C1.02583267 41.83784966 1.02583267 41.83784966 0.9765625 40.13671875 C0.95153656 38.98959915 0.92651062 37.84247955 0.90072632 36.66059875 C0.81866181 33.00259257 0.72201828 29.34513714 0.625 25.6875 C0.5667467 23.2051005 0.50944372 20.72267851 0.453125 18.24023438 C0.31310299 12.15985233 0.16111472 6.07985773 0 0 Z " fill="#272724" transform="translate(587,351)"/>
<path d="M0 0 C0 0.66 0 1.32 0 2 C-15.21638195 6.62262222 -30.44147602 10.7023792 -46 14 C-46.9178125 14.20753906 -47.835625 14.41507813 -48.78125 14.62890625 C-51.32694398 15.05468253 -53.73317796 15.09689096 -56.3125 15.0625 C-57.19550781 15.05347656 -58.07851563 15.04445313 -58.98828125 15.03515625 C-59.65214844 15.02355469 -60.31601562 15.01195312 -61 15 C-61 14.67 -61 14.34 -61 14 C-60.33057373 13.86424561 -59.66114746 13.72849121 -58.97143555 13.58862305 C-55.87601463 12.95866184 -52.78176604 12.3231085 -49.6875 11.6875 C-48.63498047 11.47416016 -47.58246094 11.26082031 -46.49804688 11.04101562 C-40.40269412 9.78443521 -34.41801286 8.33012884 -28.42651367 6.64916992 C-25.41199489 5.84268985 -22.39606676 5.28410433 -19.3125 4.8125 C-18.29800781 4.65394531 -17.28351562 4.49539063 -16.23828125 4.33203125 C-15.49964844 4.22246094 -14.76101563 4.11289062 -14 4 C-14 3.34 -14 2.68 -14 2 C-4.58997722 -0.29612756 -4.58997722 -0.29612756 0 0 Z " fill="#B9407C" transform="translate(633,856)"/>
<path d="M0 0 C5.20833333 0.52083333 10.41666667 1.04166667 15.625 1.5625 C16.46289062 1.64628906 17.30078125 1.73007812 18.1640625 1.81640625 C18.76992188 1.87699219 19.37578125 1.93757812 20 2 C20 2.66 20 3.32 20 4 C23.12424508 4.46357368 26.24939652 4.92067672 29.375 5.375 C30.78930298 5.58080688 30.78930298 5.58080688 32.23217773 5.79077148 C39.24308101 6.79283285 46.25815136 7.62972277 53.31201172 8.26513672 C56.93429143 8.62340269 59.88324414 9.04899179 63 11 C41.76347189 12.24311384 20.55393649 6.74118996 0 2 C0 1.34 0 0.68 0 0 Z " fill="#BB3F7B" transform="translate(413,863)"/>
<path d="M0 0 C0 0.66 0 1.32 0 2 C-0.56847656 1.98839844 -1.13695312 1.97679688 -1.72265625 1.96484375 C-6.61108137 1.90771691 -11.15525314 2.28520128 -16 3 C-24.67701896 3.80262425 -33.28823458 4.14360053 -42 4 C-42 3.01 -42 2.02 -42 1 C-27.81235218 -0.78340803 -14.27194669 -1.60166135 0 0 Z M-48 4 C-46.02 4 -44.04 4 -42 4 C-42 4.33 -42 4.66 -42 5 C-43.98 5 -45.96 5 -48 5 C-48 4.67 -48 4.34 -48 4 Z " fill="#E157A0" transform="translate(504,94)"/>
<path d="M0 0 C4.20090263 1.59275929 6.72326008 4.72501888 9.625 8 C10.69373704 9.18111497 11.76407159 10.36078625 12.8359375 11.5390625 C13.36799805 12.12461914 13.90005859 12.71017578 14.44824219 13.31347656 C19.92609659 19.26706659 25.70922499 24.88314561 31.85546875 30.140625 C35.4673462 33.2722346 38.96654316 36.52921971 42.484375 39.765625 C44.90167247 41.99013481 44.90167247 41.99013481 47.328125 43.671875 C47.87984375 44.11015625 48.4315625 44.5484375 49 45 C49 45.66 49 46.32 49 47 C45.04708391 45.33460678 42.02128922 42.65000411 38.8125 39.875 C38.24313721 39.38652588 37.67377441 38.89805176 37.0871582 38.39477539 C35.93550353 37.40447225 34.78566127 36.41205725 33.63769531 35.41748047 C32.14695697 34.12719621 30.64812571 32.84627715 29.1484375 31.56640625 C28.33632812 30.86386719 27.52421875 30.16132812 26.6875 29.4375 C25.96949219 28.81746094 25.25148437 28.19742188 24.51171875 27.55859375 C23 26 23 26 23 24 C22.41734375 23.7421875 21.8346875 23.484375 21.234375 23.21875 C18.8197097 21.90165983 17.18259823 20.44911616 15.25 18.5 C14.32960937 17.58734375 14.32960937 17.58734375 13.390625 16.65625 C12 15 12 15 12 13 C11.34 13 10.68 13 10 13 C8.37890625 11.35546875 8.37890625 11.35546875 6.5625 9.1875 C4.02660668 6.17536735 4.02660668 6.17536735 1.27734375 3.36328125 C0 2 0 2 0 0 Z " fill="#CB4B87" transform="translate(217,742)"/>
<path d="M0 0 C-2.53582571 2.53582571 -4.56411936 2.93800053 -8 4 C-15.25224263 6.33832299 -22.38186209 8.96832609 -29.50976562 11.65820312 C-30.31994141 11.96048828 -31.13011719 12.26277344 -31.96484375 12.57421875 C-32.6930835 12.84838623 -33.42132324 13.12255371 -34.17163086 13.4050293 C-36 14 -36 14 -38 14 C-38.33 14.66 -38.66 15.32 -39 16 C-39.66 15.34 -40.32 14.68 -41 14 C-37.37 12.35 -33.74 10.7 -30 9 C-30 8.34 -30 7.68 -30 7 C-26.88462898 5.80645465 -23.75651699 4.65044383 -20.625 3.5 C-19.31982422 2.99919922 -19.31982422 2.99919922 -17.98828125 2.48828125 C-11.82221976 0.2502293 -6.5440495 -0.44390322 0 0 Z " fill="#E65EA5" transform="translate(398,112)"/>
<path d="M0 0 C0.33 0 0.66 0 1 0 C1.02493183 4.53490815 1.04296857 9.06977539 1.05493164 13.60473633 C1.05992496 15.14380591 1.06672194 16.68287084 1.07543945 18.22192383 C1.11950003 26.20725594 1.14483112 34.07632637 0 42 C-0.33 42 -0.66 42 -1 42 C-1.918738 33.06327905 -2.12342391 24.2292465 -2.0625 15.25 C-2.05798828 13.96867187 -2.05347656 12.68734375 -2.04882812 11.3671875 C-2.0371772 8.24474069 -2.02082025 5.12239682 -2 2 C-1.34 2 -0.68 2 0 2 C0 1.34 0 0.68 0 0 Z " fill="#DFDAD4" transform="translate(429,349)"/>
<path d="M0 0 C3.59168821 3.24227058 5.92982942 6.94194414 8.375 11.0625 C12.42245196 17.71562113 16.80965429 24.05020243 21.4375 30.3125 C22.04062012 31.13049072 22.64374023 31.94848145 23.26513672 32.79125977 C25.700041 36.05760316 28.05213029 39.17607793 31 42 C30.67 42.99 30.34 43.98 30 45 C21.9263792 35.89129961 14.91553437 26.08109211 8.27441406 15.90039062 C6.64078251 13.40438122 5.11593095 11.11593095 3 9 C0 3.57692308 0 3.57692308 0 0 Z " fill="#CD4A8A" transform="translate(175,684)"/>
<path d="M0 0 C13.53 0 27.06 0 41 0 C40.67 0.66 40.34 1.32 40 2 C26.89870557 2.80614913 14.08575002 3.1280819 1 2 C0.67 1.34 0.34 0.68 0 0 Z " fill="#C6498C" transform="translate(414,788)"/>
<path d="M0 0 C16.83 0 33.66 0 51 0 C51 0.33 51 0.66 51 1 C50.21761963 1.02505615 49.43523926 1.0501123 48.62915039 1.07592773 C45.10675051 1.19149788 41.5846444 1.31439949 38.0625 1.4375 C36.83080078 1.47681641 35.59910156 1.51613281 34.33007812 1.55664062 C32.5753418 1.61948242 32.5753418 1.61948242 30.78515625 1.68359375 C29.15912476 1.73858032 29.15912476 1.73858032 27.50024414 1.79467773 C25.060737 1.72364265 25.060737 1.72364265 24 3 C22.29227642 3.08713831 20.58101351 3.10700007 18.87109375 3.09765625 C17.31938477 3.09282227 17.31938477 3.09282227 15.73632812 3.08789062 C14.64771484 3.07951172 13.55910156 3.07113281 12.4375 3.0625 C10.7987793 3.05573242 10.7987793 3.05573242 9.12695312 3.04882812 C6.41791505 3.03699826 3.70898401 3.02051543 1 3 C0.67 2.01 0.34 1.02 0 0 Z " fill="#31332D" transform="translate(466,609)"/>
<path d="M0 0 C15.03672639 -0.10881621 29.99782788 -0.09819822 45 1 C45 1.33 45 1.66 45 2 C42.36 2.33 39.72 2.66 37 3 C37 3.33 37 3.66 37 4 C30.73 4 24.46 4 18 4 C17.67 3.34 17.34 2.68 17 2 C11.39 1.67 5.78 1.34 0 1 C0 0.67 0 0.34 0 0 Z " fill="#E56AAE" transform="translate(496,92)"/>
<path d="M0 0 C6.26140629 0.61221426 12.57498854 0.66037831 18.86157227 0.83618164 C20.31405616 0.8794692 21.76653028 0.92308638 23.21899414 0.96704102 C26.74558218 1.07305418 30.27228162 1.17460912 33.79907227 1.27368164 C33.79907227 1.60368164 33.79907227 1.93368164 33.79907227 2.27368164 C17.29907227 2.27368164 0.79907227 2.27368164 -16.20092773 2.27368164 C-16.53092773 1.61368164 -16.86092773 0.95368164 -17.20092773 0.27368164 C-15.55654049 0.07389627 -13.91026539 -0.11035447 -12.26342773 -0.28881836 C-10.88864258 -0.44543945 -10.88864258 -0.44543945 -9.48608398 -0.60522461 C-6.24316669 -0.72476139 -3.21345318 -0.39902541 0 0 Z " fill="#B12E6D" transform="translate(494.200927734375,873.726318359375)"/>
<path d="M0 0 C0.99 0 1.98 0 3 0 C2.35714676 6.23505228 1.49994065 12.3861106 0.4375 18.5625 C0.29892578 19.38041016 0.16035156 20.19832031 0.01757812 21.04101562 C-0.3193499 23.02772915 -0.65934584 25.01392199 -1 27 C-1.99 26.67 -2.98 26.34 -4 26 C-2.98074847 17.26046032 -1.94183957 8.59367299 0 0 Z " fill="#F0EAE3" transform="translate(529,548)"/>
<path d="M0 0 C0.33 0.99 0.66 1.98 1 3 C-0.29296875 5.015625 -0.29296875 5.015625 -2.1875 7.25 C-4.45642128 10.01862418 -6.49664835 12.65578905 -8.1875 15.8125 C-9.86439967 18.76153045 -11.48630445 20.75562898 -14 23 C-14.80595975 20.69951811 -15.20496438 19.49772239 -14.2590332 17.20068359 C-13.66094849 16.30857178 -13.66094849 16.30857178 -13.05078125 15.3984375 C-12.39625977 14.41617187 -12.39625977 14.41617187 -11.72851562 13.4140625 C-11.26123047 12.74117188 -10.79394531 12.06828125 -10.3125 11.375 C-9.86455078 10.694375 -9.41660156 10.01375 -8.95507812 9.3125 C-6.52650383 5.73503685 -4.92739266 3.89528629 -1 2 C-0.67 1.34 -0.34 0.68 0 0 Z " fill="#E0539C" transform="translate(190,261)"/>
<path d="M0 0 C0.33 0 0.66 0 1 0 C2.19388403 27.16403693 2.19388403 27.16403693 2 38 C1.67 38 1.34 38 1 38 C0.67 34.7 0.34 31.4 0 28 C-0.66 28 -1.32 28 -2 28 C-2.23889655 18.40432207 -1.78831859 9.46850826 0 0 Z " fill="#E566AA" transform="translate(120,488)"/>
<path d="M0 0 C3.41154972 2.27436648 3.62851102 3.03586223 4.82421875 6.796875 C5.13037109 7.7559375 5.43652344 8.715 5.75195312 9.703125 C6.06068359 10.70859375 6.36941406 11.7140625 6.6875 12.75 C7.00783203 13.74 7.32816406 14.73 7.65820312 15.75 C9.17853796 20.59951155 10.4638648 24.85372635 10 30 C7.29270874 27.29270874 6.63654782 24.20323384 5.5625 20.625 C5.34440674 19.9134375 5.12631348 19.201875 4.90161133 18.46875 C3.05492682 12.36464068 1.44692782 6.21120233 0 0 Z " fill="#B83E77" transform="translate(881,354)"/>
<path d="M0 0 C0.55957259 3.69317912 -0.06139848 5.10360993 -2 8.375 C-5.13855374 12.49039467 -9.00668935 15.73995234 -13 19 C-13 16 -13 16 -11 14 C-11 13.01 -11 12.02 -11 11 C-9.828125 9.31640625 -9.828125 9.31640625 -8.25 7.5625 C-7.70472656 6.9540625 -7.15945312 6.345625 -6.59765625 5.71875 C-1.28181818 0 -1.28181818 0 0 0 Z " fill="#E464AA" transform="translate(229,212)"/>
<path d="M0 0 C0.66 0.66 1.32 1.32 2 2 C1.16855469 2.86882812 0.33710938 3.73765625 -0.51953125 4.6328125 C-1.61755419 5.79652912 -2.71519001 6.96061109 -3.8125 8.125 C-4.35970703 8.69476563 -4.90691406 9.26453125 -5.47070312 9.8515625 C-8.75965586 13.35977875 -10.95836671 16.59733679 -13 21 C-17.18367347 25.59183673 -17.18367347 25.59183673 -20 27 C-18.48660464 23.56046508 -16.39216315 20.74644447 -14.12109375 17.78125 C-12.91029025 15.85746465 -12.54282618 14.18924939 -12 12 C-11.34 11.34 -10.68 10.68 -10 10 C-9.34 10 -8.68 10 -8 10 C-6.56418526 8.38542921 -5.19855217 6.70780925 -3.875 5 C-3.15054688 4.071875 -2.42609375 3.14375 -1.6796875 2.1875 C-1.12539062 1.465625 -0.57109375 0.74375 0 0 Z " fill="#E861AE" transform="translate(212,233)"/>
<path d="M0 0 C3.75123735 0.57497693 6.41997844 1.60948377 9.65234375 3.58203125 C10.51150391 4.10216797 11.37066406 4.62230469 12.25585938 5.15820312 C13.14080078 5.70412109 14.02574219 6.25003906 14.9375 6.8125 C16.25911133 7.61397461 16.25911133 7.61397461 17.60742188 8.43164062 C22.1400522 11.19196156 26.61234076 14.01465689 31 17 C30.34 17.66 29.68 18.32 29 19 C27.91203125 18.28714844 26.8240625 17.57429688 25.703125 16.83984375 C17.91905618 11.7605369 10.13602383 6.79175565 2.02734375 2.2421875 C1.35832031 1.83226562 0.68929687 1.42234375 0 1 C0 0.67 0 0.34 0 0 Z " fill="#CE4388" transform="translate(703,144)"/>
<path d="M0 0 C0.72822464 0.00424484 1.45644928 0.00848969 2.20674133 0.01286316 C4.53013252 0.02964142 6.85265275 0.0672902 9.17578125 0.10546875 C10.75194059 0.12051678 12.32811354 0.13420498 13.90429688 0.14648438 C17.76596002 0.1795419 21.62697303 0.23131681 25.48828125 0.29296875 C25.48828125 0.62296875 25.48828125 0.95296875 25.48828125 1.29296875 C13.41909761 2.8907803 1.66019626 3.55194567 -10.51171875 3.29296875 C-7.81128331 -0.58974688 -4.3024965 -0.09431465 0 0 Z " fill="#F7E5E0" transform="translate(503.51171875,668.70703125)"/>
<path d="M0 0 C0.66 0 1.32 0 2 0 C3.98718981 8.7649265 5.50803456 16.94945834 5 26 C1.81553065 20.08598549 0.65666098 13.6951108 1 7 C0.34 7 -0.32 7 -1 7 C-0.67 4.69 -0.34 2.38 0 0 Z " fill="#B53E7A" transform="translate(896,407)"/>
<path d="M0 0 C10.89 0 21.78 0 33 0 C28.79407014 2.10296493 25.57162058 2.43163383 21 2.625 C20.25049072 2.66294678 19.50098145 2.70089355 18.72875977 2.73999023 C12.48553303 3.0338597 6.2494568 3.10837208 0 3 C0 2.01 0 1.02 0 0 Z M-6 3 C-4.02 3 -2.04 3 0 3 C0 3.33 0 3.66 0 4 C-1.98 4 -3.96 4 -6 4 C-6 3.67 -6 3.34 -6 3 Z " fill="#E765AD" transform="translate(462,95)"/>
<path d="M0 0 C-1 2 -1 2 -2.69897461 2.59423828 C-3.42608643 2.75134277 -4.15319824 2.90844727 -4.90234375 3.0703125 C-6.108302 3.33183105 -6.108302 3.33183105 -7.33862305 3.59863281 C-8.19625244 3.77233398 -9.05388184 3.94603516 -9.9375 4.125 C-11.23071167 4.39328613 -11.23071167 4.39328613 -12.55004883 4.66699219 C-18.47035639 5.83866742 -23.9547334 6.39641092 -30 6 C-30 5.67 -30 5.34 -30 5 C-26.1271002 4.15670007 -22.25138047 3.32714001 -18.375 2.5 C-17.28058594 2.26152344 -16.18617188 2.02304687 -15.05859375 1.77734375 C-13.99511719 1.55175781 -12.93164062 1.32617188 -11.8359375 1.09375 C-10.86188965 0.88427734 -9.8878418 0.67480469 -8.88427734 0.45898438 C-5.87581547 -0.01976189 -3.04112122 -0.07888771 0 0 Z " fill="#B43876" transform="translate(602,865)"/>
<path d="M0 0 C0.3449145 1.33038449 0.67516582 2.66457061 1 4 C1.22558594 4.72574219 1.45117188 5.45148438 1.68359375 6.19921875 C2.1474632 10.30532236 1.08977347 13.84636002 0.0625 17.8125 C-0.13279297 18.60076172 -0.32808594 19.38902344 -0.52929688 20.20117188 C-1.01018678 22.13646052 -1.50383368 24.06857145 -2 26 C-2.33 26 -2.66 26 -3 26 C-3.36706108 16.80987806 -2.70968037 8.80646119 0 0 Z " fill="#E565A8" transform="translate(130,385)"/>
<path d="M0 0 C0.66 0 1.32 0 2 0 C1.01 5.94 0.02 11.88 -1 18 C-2.32 18.33 -3.64 18.66 -5 19 C-4.34 13.72 -3.68 8.44 -3 3 C-2.34 3.66 -1.68 4.32 -1 5 C-0.67 3.35 -0.34 1.7 0 0 Z " fill="#E46AAA" transform="translate(126,413)"/>
<path d="M0 0 C0.61133789 0.34401855 1.22267578 0.68803711 1.85253906 1.04248047 C1.33868652 1.26911377 0.82483398 1.49574707 0.29541016 1.72924805 C-2.06121488 2.76965318 -4.41684199 3.81229953 -6.77246094 4.85498047 C-7.58070313 5.21140625 -8.38894531 5.56783203 -9.22167969 5.93505859 C-12.74461901 7.49603577 -16.19728473 9.06874199 -19.60839844 10.86669922 C-20.86523438 11.44871094 -20.86523438 11.44871094 -22.14746094 12.04248047 C-22.80746094 11.71248047 -23.46746094 11.38248047 -24.14746094 11.04248047 C-22.35864358 10.03739246 -20.56631398 9.03855311 -18.77246094 8.04248047 C-17.77472656 7.48560547 -16.77699219 6.92873047 -15.74902344 6.35498047 C-13.14746094 5.04248047 -13.14746094 5.04248047 -11.14746094 5.04248047 C-11.14746094 4.38248047 -11.14746094 3.72248047 -11.14746094 3.04248047 C-9.74054487 2.31497259 -8.32140071 1.61107694 -6.89746094 0.91748047 C-6.10855469 0.52302734 -5.31964844 0.12857422 -4.50683594 -0.27783203 C-2.14746094 -0.95751953 -2.14746094 -0.95751953 0 0 Z " fill="#D03181" transform="translate(440.1474609375,288.95751953125)"/>
<path d="M0 0 C0.66 0.33 1.32 0.66 2 1 C1 4 1 4 -0.58227539 4.9831543 C-1.24735107 5.26070557 -1.91242676 5.53825684 -2.59765625 5.82421875 C-3.31630859 6.13037109 -4.03496094 6.43652344 -4.77539062 6.75195312 C-5.53013672 7.06068359 -6.28488281 7.36941406 -7.0625 7.6875 C-7.82111328 8.00783203 -8.57972656 8.32816406 -9.36132812 8.65820312 C-11.23682542 9.44850702 -13.1179123 10.22552197 -15 11 C-15 10.34 -15 9.68 -15 9 C-15.99 9.33 -16.98 9.66 -18 10 C-18 9.34 -18 8.68 -18 8 C-14.04 7.01 -10.08 6.02 -6 5 C-6 4.34 -6 3.68 -6 3 C-4.03533587 1.93224776 -2.03144641 0.93446535 0 0 Z " fill="#BC3C80" transform="translate(681,834)"/>
<path d="M0 0 C3.13107836 3.38583802 3.33550778 5.71109462 3.1875 10.25 C3.14689453 11.86648438 3.14689453 11.86648438 3.10546875 13.515625 C3.07066406 14.33546875 3.03585938 15.1553125 3 16 C2.34 16.33 1.68 16.66 1 17 C0.5316735 19.58605332 0.5316735 19.58605332 0.375 22.5625 C0.30023438 23.57441406 0.22546875 24.58632813 0.1484375 25.62890625 C0.09945312 26.41136719 0.05046875 27.19382812 0 28 C-0.33 28 -0.66 28 -1 28 C-1.09908936 18.60853097 -1.12998844 9.34258296 0 0 Z " fill="#E177AC" transform="translate(119,444)"/>
<path d="M0 0 C0.33 0.99 0.66 1.98 1 3 C0.15695312 3.90363281 -0.68609375 4.80726563 -1.5546875 5.73828125 C-2.66156839 6.92958526 -3.76833316 8.12099715 -4.875 9.3125 C-5.43058594 9.90740234 -5.98617187 10.50230469 -6.55859375 11.11523438 C-7.09355469 11.69208984 -7.62851562 12.26894531 -8.1796875 12.86328125 C-8.67194824 13.39219971 -9.16420898 13.92111816 -9.67138672 14.46606445 C-11.20581796 16.17281235 -11.20581796 16.17281235 -13 19 C-13.99 18.67 -14.98 18.34 -16 18 C-15.18015625 17.11957031 -14.3603125 16.23914063 -13.515625 15.33203125 C-12.42699378 14.15893726 -11.33845712 12.98575552 -10.25 11.8125 C-9.71117187 11.23435547 -9.17234375 10.65621094 -8.6171875 10.06054688 C-5.60201909 6.80637122 -2.72218201 3.50844332 0 0 Z " fill="#B73F79" transform="translate(812,732)"/>
<path d="M0 0 C0.33 0 0.66 0 1 0 C1.08138426 2.87557703 1.14067851 5.74882262 1.1875 8.625 C1.22520508 9.83736328 1.22520508 9.83736328 1.26367188 11.07421875 C1.32589961 16.17689316 0.75491551 19.53139688 -2 24 C-2.33 24 -2.66 24 -3 24 C-3.15490223 18.26861756 -2.65244885 13.10650794 -1.5 7.5 C-1.35691406 6.77296875 -1.21382812 6.0459375 -1.06640625 5.296875 C-0.71766302 3.52990929 -0.35980277 1.76474691 0 0 Z " fill="#B53B79" transform="translate(900,533)"/>
<path d="M0 0 C1.33333333 0.33333333 2.66666667 0.66666667 4 1 C4.680625 1.12375 5.36125 1.2475 6.0625 1.375 C8 2 8 2 9.265625 3.33984375 C11.51154989 5.48965924 13.94386055 6.734985 16.6875 8.1875 C17.68136719 8.71730469 18.67523438 9.24710938 19.69921875 9.79296875 C20.45847656 10.19128906 21.21773438 10.58960938 22 11 C21.34 11.66 20.68 12.32 20 13 C17.41186545 11.59157329 14.82969303 10.17374062 12.25 8.75 C11.52039063 8.35425781 10.79078125 7.95851563 10.0390625 7.55078125 C6.16337787 5.40153795 2.95140685 3.38635101 0 0 Z " fill="#C74A85" transform="translate(307,818)"/>
<path d="M0 0 C0.33 0.99 0.66 1.98 1 3 C-1.28356246 5.34138543 -3.57813374 7.67166982 -5.875 10 C-6.85146484 11.00160156 -6.85146484 11.00160156 -7.84765625 12.0234375 C-8.47285156 12.65507813 -9.09804688 13.28671875 -9.7421875 13.9375 C-10.3182373 14.52402344 -10.89428711 15.11054687 -11.48779297 15.71484375 C-13 17 -13 17 -15 17 C-13.67879172 14.06769807 -12.25361803 12.01335101 -9.9609375 9.765625 C-9.38085938 9.19199219 -8.80078125 8.61835937 -8.203125 8.02734375 C-7.59984375 7.44082031 -6.9965625 6.85429688 -6.375 6.25 C-5.76398437 5.64800781 -5.15296875 5.04601562 -4.5234375 4.42578125 C-3.02011376 2.94594695 -1.51065144 1.47235324 0 0 Z " fill="#B33E79" transform="translate(794,752)"/>
<path d="M0 0 C3.2513004 4.3350672 3.36557196 5.16624783 3.29296875 10.296875 C3.28330078 11.50214844 3.27363281 12.70742188 3.26367188 13.94921875 C3.23853516 15.20347656 3.21339844 16.45773437 3.1875 17.75 C3.17396484 19.01972656 3.16042969 20.28945313 3.14648438 21.59765625 C3.1111324 24.73219844 3.06178248 27.86588545 3 31 C2.67 31 2.34 31 2 31 C1.67 26.38 1.34 21.76 1 17 C0.67 17 0.34 17 0 17 C0 11.39 0 5.78 0 0 Z " fill="#F4DFDD" transform="translate(313,461)"/>
<path d="M0 0 C1.21236328 0.01353516 1.21236328 0.01353516 2.44921875 0.02734375 C3.37154297 0.04474609 3.37154297 0.04474609 4.3125 0.0625 C4.3125 0.3925 4.3125 0.7225 4.3125 1.0625 C3.66023438 1.17207031 3.00796875 1.28164062 2.3359375 1.39453125 C-7.58145125 3.19370355 -13.69285455 6.87355884 -20.6875 14.0625 C-21.3475 13.7325 -22.0075 13.4025 -22.6875 13.0625 C-17.40992176 5.67389046 -9.32844422 -0.13519484 0 0 Z " fill="#FDADD3" transform="translate(258.6875,248.9375)"/>
<path d="M0 0 C-0.33 0.66 -0.66 1.32 -1 2 C-8.55445213 3.51089043 -16.32880167 3.08989686 -24 3 C-17.43494465 -1.37670357 -7.68154222 -0.14996503 0 0 Z " fill="#B93D7A" transform="translate(571,871)"/>
<path d="M0 0 C0.98484375 0.00902344 1.9696875 0.01804687 2.984375 0.02734375 C4.10585938 0.04474609 4.10585938 0.04474609 5.25 0.0625 C1.19738338 4.11511662 -5.16823303 5.37351624 -10.75 6.0625 C-13.02734375 5.61328125 -13.02734375 5.61328125 -14.75 5.0625 C-12.77 4.4025 -10.79 3.7425 -8.75 3.0625 C-9.08 2.4025 -9.41 1.7425 -9.75 1.0625 C-6.43929162 0.06140485 -3.44915231 -0.04106134 0 0 Z " fill="#E464AA" transform="translate(413.75,105.9375)"/>
<path d="M0 0 C0.66 0.33 1.32 0.66 2 1 C2 1.99 2 2.98 2 4 C-5.0547046 8.07877462 -5.0547046 8.07877462 -9 7.75 C-9.66 7.5025 -10.32 7.255 -11 7 C-7.53252172 4.22601737 -3.93597489 2.04087587 0 0 Z " fill="#DF5CA4" transform="translate(328,137)"/>
<path d="M0 0 C0.66 0 1.32 0 2 0 C4.04061541 7.17859349 5.37369729 13.52605426 5 21 C2.84692286 17.77038428 2.22765131 15.38872346 1.375 11.625 C0.98441406 9.94277344 0.98441406 9.94277344 0.5859375 8.2265625 C0.06986608 5.3847292 -0.11846848 2.87555316 0 0 Z " fill="#BC3D7A" transform="translate(891,385)"/>
<path d="M0 0 C2.74967731 1.29055736 5.07873302 2.71084296 7.453125 4.6015625 C8.38125 5.33632813 8.38125 5.33632813 9.328125 6.0859375 C9.96234375 6.59382812 10.5965625 7.10171875 11.25 7.625 C11.8996875 8.140625 12.549375 8.65625 13.21875 9.1875 C14.81503967 10.45514179 16.40786526 11.72714361 18 13 C17.01 13.495 17.01 13.495 16 14 C13.3256311 12.05201388 10.66191516 10.08996102 8 8.125 C7.236875 7.56941406 6.47375 7.01382813 5.6875 6.44140625 C4.6046875 5.63896484 4.6046875 5.63896484 3.5 4.8203125 C2.8296875 4.32805176 2.159375 3.83579102 1.46875 3.32861328 C0.9840625 2.8901709 0.499375 2.45172852 0 2 C0 1.34 0 0.68 0 0 Z " fill="#C64183" transform="translate(267,789)"/>
<path d="M0 0 C0.33 0 0.66 0 1 0 C1.13277344 0.97582031 1.26554688 1.95164062 1.40234375 2.95703125 C1.57894531 4.22933594 1.75554688 5.50164062 1.9375 6.8125 C2.11152344 8.07707031 2.28554688 9.34164063 2.46484375 10.64453125 C2.90392455 13.98321703 2.90392455 13.98321703 4 17 C4.02172852 18.90112305 4.02172852 18.90112305 3.87890625 21.01171875 C3.83056641 21.76904297 3.78222656 22.52636719 3.73242188 23.30664062 C3.67634766 24.09232422 3.62027344 24.87800781 3.5625 25.6875 C3.51029297 26.48478516 3.45808594 27.28207031 3.40429688 28.10351562 C3.27480978 30.06936522 3.13809959 32.03473665 3 34 C2.67 34 2.34 34 2 34 C1.6615135 29.83373537 1.33014248 25.66693347 1 21.5 C0.90460937 20.32695312 0.80921875 19.15390625 0.7109375 17.9453125 C0.2388095 11.94254224 -0.11923326 6.02127983 0 0 Z " fill="#B02365" transform="translate(901,437)"/>
<path d="M0 0 C0.99 0 1.98 0 3 0 C1.44191344 11.70615034 1.44191344 11.70615034 -3 16 C-3.33266291 9.79029227 -2.45029331 5.71735105 0 0 Z " fill="#E364A7" transform="translate(148,332)"/>
<path d="M0 0 C4.13697706 1.53115703 6.27771285 4.50472062 8.8125 7.9375 C9.44188477 8.74477539 9.44188477 8.74477539 10.08398438 9.56835938 C11.26953125 11.15234375 11.26953125 11.15234375 13 14 C12.67 14.99 12.34 15.98 12 17 C10.18232326 14.7331445 8.37076857 12.46184027 6.5625 10.1875 C5.7880957 9.22360352 5.7880957 9.22360352 4.99804688 8.24023438 C4.50498047 7.61826172 4.01191406 6.99628906 3.50390625 6.35546875 C3.04830322 5.78465576 2.5927002 5.21384277 2.12329102 4.62573242 C1 3 1 3 0 0 Z " fill="#BE407D" transform="translate(814,235)"/>
<path d="M0 0 C2.1165563 3.17483445 2.22929149 3.66699005 1.9765625 7.23046875 C1.925 8.03291016 1.8734375 8.83535156 1.8203125 9.66210938 C1.72363281 10.91217773 1.72363281 10.91217773 1.625 12.1875 C1.56828125 13.03248047 1.5115625 13.87746094 1.453125 14.74804688 C1.31179176 16.83271217 1.1571675 18.91646866 1 21 C-0.98 21.99 -0.98 21.99 -3 23 C-3 20.36 -3 17.72 -3 15 C-2.01 15.495 -2.01 15.495 -1 16 C-0.67 10.72 -0.34 5.44 0 0 Z " fill="#EA69A7" transform="translate(120,463)"/>
<path d="M0 0 C0.33 0 0.66 0 1 0 C0.45018084 6.04801071 -0.90429574 11.30601106 -3 17 C-3.66 17 -4.32 17 -5 17 C-4.53444296 10.59859065 -2.85288164 5.73230171 0 0 Z " fill="#BA407B" transform="translate(886,597)"/>
<path d="M0 0 C0.66 0.33 1.32 0.66 2 1 C1.27991594 5.60853797 -0.31295939 9.67237409 -2 14 C-4 11 -4 11 -3.8125 8.125 C-2.98580683 4.94541088 -1.83180644 2.70788778 0 0 Z " fill="#C14E87" transform="translate(880,613)"/>
<path d="M0 0 C0.66 0.33 1.32 0.66 2 1 C-2.79077028 5.9255107 -7.77674023 10.53648711 -13 15 C-13.33 14.01 -13.66 13.02 -14 12 C-9.38465781 7.93521893 -4.74414188 3.91391705 0 0 Z " fill="#DA4D8E" transform="translate(254,188)"/>
<path d="M0 0 C0 0.66 0 1.32 0 2 C0.66 2.33 1.32 2.66 2 3 C-0.36408207 3.75988352 -1.69013267 4.0820237 -4.125 3.4375 C-4.74375 3.293125 -5.3625 3.14875 -6 3 C-6.66 3.66 -7.32 4.32 -8 5 C-10.625 5.625 -10.625 5.625 -13 6 C-12.67 5.34 -12.34 4.68 -12 4 C-12.66 3.34 -13.32 2.68 -14 2 C-4.58997722 -0.29612756 -4.58997722 -0.29612756 0 0 Z " fill="#DE67A4" transform="translate(442,99)"/>
<path d="M0 0 C0.33 0 0.66 0 1 0 C1.40652968 5.42039575 0.03993514 9.07015675 -2 14 C-3.51047521 11.61704813 -4.09191411 10.501733 -3.57421875 7.67578125 C-3.28160156 6.89589844 -2.98898437 6.11601562 -2.6875 5.3125 C-2.40261719 4.52488281 -2.11773438 3.73726563 -1.82421875 2.92578125 C-1 1 -1 1 0 0 Z " fill="#F1EAE3" transform="translate(544,499)"/>
<path d="M0 0 C0.33 0 0.66 0 1 0 C1.34548714 6.33393082 0.29342747 11.10261508 -2 17 C-2.33 17 -2.66 17 -3 17 C-2.7628405 15.10272403 -2.52522859 13.20550335 -2.28515625 11.30859375 C-2.09647268 9.78103223 -1.91664264 8.25234862 -1.74609375 6.72265625 C-1.10625 1.10625 -1.10625 1.10625 0 0 Z " fill="#B73D79" transform="translate(896,558)"/>
<path d="M0 0 C0.33 0 0.66 0 1 0 C1 7.59 1 15.18 1 23 C0.34 23.33 -0.32 23.66 -1 24 C-2.14757048 20.55728857 -1.73533797 19.48444462 -1 16 C-0.73777035 13.23344168 -0.58875084 10.462085 -0.4375 7.6875 C-0.39431641 6.94693359 -0.35113281 6.20636719 -0.30664062 5.44335938 C-0.20129568 3.62908536 -0.10021684 1.8145645 0 0 Z " fill="#DD3585" transform="translate(119,456)"/>
<path d="M0 0 C-3.02108989 1.70635633 -5.55501385 2.39289778 -9 2.75 C-9.845625 2.84796875 -10.69125 2.9459375 -11.5625 3.046875 C-14.2524977 2.99514428 -15.71730555 2.37384388 -18 1 C-12.03325384 -0.32594359 -6.07416385 -0.0884587 0 0 Z " fill="#DF4F92" transform="translate(466,96)"/>
<path d="M0 0 C0.66 0 1.32 0 2 0 C2.2236337 1.41433206 2.42826476 2.83167618 2.625 4.25 C2.74101563 5.03890625 2.85703125 5.8278125 2.9765625 6.640625 C3.00319395 9.32152459 2.36592084 10.72694089 1 13 C1 11.02 1 9.04 1 7 C0.34 7 -0.32 7 -1 7 C-0.67 4.69 -0.34 2.38 0 0 Z " fill="#BB4883" transform="translate(896,407)"/>
<path d="M0 0 C0.66 0.33 1.32 0.66 2 1 C-0.36292656 3.52588702 -1.66462511 4.88820837 -5 6 C-6.66710346 7.49985609 -6.66710346 7.49985609 -8 9 C-8.66 8.67 -9.32 8.34 -10 8 C-10 7.01 -10 6.02 -10 5 C-9.278125 4.731875 -8.55625 4.46375 -7.8125 4.1875 C-4.94366924 3.06484842 -4.94366924 3.06484842 -2.3125 1.3125 C-1.1678125 0.6628125 -1.1678125 0.6628125 0 0 Z " fill="#E662AB" transform="translate(283,167)"/>
<path d="M0 0 C2.66666667 2 5.33333333 4 8 6 C8.74765625 6.51949219 9.4953125 7.03898438 10.265625 7.57421875 C10.83796875 8.04472656 11.4103125 8.51523437 12 9 C12 9.66 12 10.32 12 11 C8.81293058 9.56438314 6.37830895 7.79733671 3.75 5.5 C3.04359375 4.8915625 2.3371875 4.283125 1.609375 3.65625 C0 2 0 2 0 0 Z " fill="#CB4383" transform="translate(254,778)"/>
<path d="M0 0 C0.99 0 1.98 0 3 0 C4.640625 1.86328125 4.640625 1.86328125 6.25 4.3125 C7.06210937 5.51326172 7.06210937 5.51326172 7.890625 6.73828125 C9 9 9 9 8 12 C6.66382103 10.18959679 5.33112616 8.3766216 4 6.5625 C3.2575 5.55316406 2.515 4.54382813 1.75 3.50390625 C0 1 0 1 0 0 Z " fill="#BD3877" transform="translate(828,254)"/>
<path d="M0 0 C3.9252025 3.70090521 6.94580156 7.54959656 10 12 C9.01 12.495 9.01 12.495 8 13 C6.6578508 11.40320196 5.32652885 9.79729803 4 8.1875 C2.88625 6.84751953 2.88625 6.84751953 1.75 5.48046875 C0 3 0 3 0 0 Z " fill="#CD438B" transform="translate(207,729)"/>
<path d="M0 0 C1.32 0.33 2.64 0.66 4 1 C1.69 3.31 -0.62 5.62 -3 8 C-3.66 7.34 -4.32 6.68 -5 6 C-3.35 4.02 -1.7 2.04 0 0 Z " fill="#D44790" transform="translate(642,623)"/>
<path d="M0 0 C0 0.33 0 0.66 0 1 C-6.1105424 1.11269443 -11.95170514 0.89604368 -18 0 C-18 -0.33 -18 -0.66 -18 -1 C-11.50448709 -2.20287276 -6.39014027 -1.58444052 0 0 Z " fill="#DC4492" transform="translate(562,96)"/>
<path d="M0 0 C-1.09288182 3.27864546 -1.66172933 3.78134149 -4.375 5.6875 C-4.98085938 6.12449219 -5.58671875 6.56148437 -6.2109375 7.01171875 C-8 8 -8 8 -11 8 C-11 7.34 -11 6.68 -11 6 C-9.1015625 4.4921875 -9.1015625 4.4921875 -6.625 2.875 C-5.81289063 2.33617187 -5.00078125 1.79734375 -4.1640625 1.2421875 C-2 0 -2 0 0 0 Z " fill="#B2316B" transform="translate(732,806)"/>
<path d="M0 0 C0.66 0.33 1.32 0.66 2 1 C1.45773019 4.79588866 -0.20127563 6.47211993 -3 9 C-3 8.34 -3 7.68 -3 7 C-3.99 6.67 -4.98 6.34 -6 6 C-4.68 5.67 -3.36 5.34 -2 5 C-1.855625 4.360625 -1.71125 3.72125 -1.5625 3.0625 C-1 1 -1 1 0 0 Z " fill="#C14788" transform="translate(816,725)"/>
<path d="M0 0 C0.99 0 1.98 0 3 0 C3.1953125 6.0546875 3.1953125 6.0546875 3 8 C2.34 8.66 1.68 9.32 1 10 C0.34 10.99 -0.32 11.98 -1 13 C-0.67 8.71 -0.34 4.42 0 0 Z " fill="#F0E8DE" transform="translate(461,594)"/>
<path d="M0 0 C0.99 0.33 1.98 0.66 3 1 C1.04754815 2.19714555 -0.91214997 3.38248074 -2.875 4.5625 C-3.96554687 5.22378906 -5.05609375 5.88507813 -6.1796875 6.56640625 C-7.57574219 7.27603516 -7.57574219 7.27603516 -9 8 C-9.66 7.67 -10.32 7.34 -11 7 C-9.54261898 6.01941648 -8.08406325 5.04057868 -6.625 4.0625 C-5.81289063 3.51722656 -5.00078125 2.97195312 -4.1640625 2.41015625 C-2 1 -2 1 0 0 Z " fill="#DD4A8F" transform="translate(316,144)"/>
<path d="M0 0 C1.81618856 1.11903546 3.62785526 2.24541284 5.4375 3.375 C6.44683594 4.00148438 7.45617187 4.62796875 8.49609375 5.2734375 C11 7 11 7 12 9 C8.61638481 8.38271885 6.47997439 7.13020282 3.75 5.0625 C3.04359375 4.53785156 2.3371875 4.01320313 1.609375 3.47265625 C1.07828125 2.98667969 0.5471875 2.50070312 0 2 C0 1.34 0 0.68 0 0 Z " fill="#C63F7B" transform="translate(286,803)"/>
<path d="M0 0 C2.58926331 2.58926331 2.37398043 4.02705279 2.625 7.625 C2.69976562 8.62789062 2.77453125 9.63078125 2.8515625 10.6640625 C2.90054688 11.43492187 2.94953125 12.20578125 3 13 C2.34 13 1.68 13 1 13 C0.1276588 10.00519083 -0.10829766 7.36424089 -0.0625 4.25 C-0.05347656 3.45078125 -0.04445313 2.6515625 -0.03515625 1.828125 C-0.02355469 1.22484375 -0.01195313 0.6215625 0 0 Z " fill="#D54B8E" transform="translate(125,556)"/>
<path d="M0 0 C0.66 0 1.32 0 2 0 C3.33500455 5.34001821 2.512545 8.83955235 1 14 C0.67 14 0.34 14 0 14 C0 9.38 0 4.76 0 0 Z " fill="#AF2D6E" transform="translate(903,480)"/>
<path d="M0 0 C0.66 0.33 1.32 0.66 2 1 C0.25318707 1.98484108 -1.4975851 2.96266187 -3.25 3.9375 C-4.71179688 4.75541016 -4.71179688 4.75541016 -6.203125 5.58984375 C-8.53610409 6.76610835 -10.45350762 7.52101691 -13 8 C-13 7.34 -13 6.68 -13 6 C-10.87959258 4.96966118 -8.75352092 3.95097146 -6.625 2.9375 C-5.44164062 2.36902344 -4.25828125 1.80054688 -3.0390625 1.21484375 C-2.03617187 0.81394531 -1.03328125 0.41304687 0 0 Z " fill="#E760AC" transform="translate(347,130)"/>
<path d="M0 0 C2.64 0.33 5.28 0.66 8 1 C8.33 1.99 8.66 2.98 9 4 C6.03 3.67 3.06 3.34 0 3 C0 2.01 0 1.02 0 0 Z " fill="#C14785" transform="translate(403,859)"/>
<path d="M0 0 C3.25519625 3.02268223 5.78310719 6.14096436 8 10 C7.67 10.99 7.34 11.98 7 13 C5.82479354 11.40207898 4.66008753 9.79643092 3.5 8.1875 C2.8503125 7.29417969 2.200625 6.40085937 1.53125 5.48046875 C0 3 0 3 0 0 Z " fill="#CF4180" transform="translate(188,704)"/>
<path d="M0 0 C-0.99 1.485 -0.99 1.485 -2 3 C-5.2578125 3.29296875 -5.2578125 3.29296875 -9.125 3.1875 C-11.04699219 3.14689453 -11.04699219 3.14689453 -13.0078125 3.10546875 C-13.99523437 3.07066406 -14.98265625 3.03585937 -16 3 C-10.60634314 0.2066535 -6.07347984 -0.11908784 0 0 Z " fill="#DB609D" transform="translate(487,276)"/>
<path d="M0 0 C0.66 0.33 1.32 0.66 2 1 C-0.64 4.3 -3.28 7.6 -6 11 C-6.33 10.01 -6.66 9.02 -7 8 C-5.56640625 5.95703125 -5.56640625 5.95703125 -3.5625 3.8125 C-2.90378906 3.09707031 -2.24507812 2.38164062 -1.56640625 1.64453125 C-1.04949219 1.10183594 -0.53257812 0.55914062 0 0 Z " fill="#DB438F" transform="translate(209,234)"/>
<path d="M0 0 C0.99 0.33 1.98 0.66 3 1 C1.515 4.96 1.515 4.96 0 9 C-0.66 8.67 -1.32 8.34 -2 8 C-1.125 2.25 -1.125 2.25 0 0 Z " fill="#EFE9E4" transform="translate(500,450)"/>
<path d="M0 0 C7.4972067 0.61452514 7.4972067 0.61452514 9.875 2.4375 C10.431875 3.2109375 10.431875 3.2109375 11 4 C11.66 4.66 12.32 5.32 13 6 C8.14036821 5.39254603 4.2594482 3.27241033 0 1 C0 0.67 0 0.34 0 0 Z " fill="#CF2F7F" transform="translate(583,289)"/>
<path d="M0 0 C0.66 0.33 1.32 0.66 2 1 C-1.17320782 4.53586014 -3.16743695 6.58578031 -8 7 C-5.4837822 4.39391727 -2.94865641 2.10618315 0 0 Z " fill="#CD3280" transform="translate(628,634)"/>
<path d="M0 0 C0.33 0 0.66 0 1 0 C3.125 6.75 3.125 6.75 2 9 C0.68 9 -0.64 9 -2 9 C-2 7.02 -2 5.04 -2 3 C-1.34 3 -0.68 3 0 3 C0 2.01 0 1.02 0 0 Z " fill="#DE62A5" transform="translate(123,534)"/>
<path d="M0 0 C0.33 0 0.66 0 1 0 C1.17942163 3.94727588 1.09350689 6.5980513 -1 10 C-1.66 10 -2.32 10 -3 10 C-2.49287967 6.28111761 -1.88391785 3.26545761 0 0 Z " fill="#D3428A" transform="translate(330,389)"/>
<path d="M0 0 C0.33 0.99 0.66 1.98 1 3 C-0.21484375 5.04296875 -0.21484375 5.04296875 -1.9375 7.1875 C-2.50339844 7.90292969 -3.06929687 8.61835938 -3.65234375 9.35546875 C-4.09707031 9.89816406 -4.54179687 10.44085938 -5 11 C-5.66 9.68 -6.32 8.36 -7 7 C-6.01 6.67 -5.02 6.34 -4 6 C-2.60287726 4.04402816 -1.26220093 2.04563599 0 0 Z " fill="#E868AF" transform="translate(182,273)"/>
<path d="M0 0 C0.33 0.99 0.66 1.98 1 3 C-0.40445835 5.2636564 -2.1967913 7.0208685 -4 9 C-4.99 8.67 -5.98 8.34 -7 8 C-4.69 5.36 -2.38 2.72 0 0 Z " fill="#B63471" transform="translate(812,732)"/>
<path d="M0 0 C3.9492568 0.55105909 7.34920174 1.38935371 11 3 C11 3.66 11 4.32 11 5 C6.87248551 4.39301257 3.6678852 2.96189209 0 1 C0 0.67 0 0.34 0 0 Z " fill="#D2478C" transform="translate(670,128)"/>
<path d="M0 0 C0 0.66 0 1.32 0 2 C0.66 2.33 1.32 2.66 2 3 C-4.625 4.25 -4.625 4.25 -8 2 C-2.25 0 -2.25 0 0 0 Z " fill="#BE4582" transform="translate(607,862)"/>
<path d="M0 0 C0.99 0 1.98 0 3 0 C2.67 3.96 2.34 7.92 2 12 C1.67 12 1.34 12 1 12 C0.67 8.04 0.34 4.08 0 0 Z " fill="#272926" transform="translate(468,561)"/>
<path d="M0 0 C3.67230705 3.07999946 4.56802365 5.2482602 5 10 C1.94597912 8.47298956 1.34130519 6.04842088 0 3 C0 2.01 0 1.02 0 0 Z " fill="#C24784" transform="translate(175,684)"/>
<path d="M0 0 C0.66 0.33 1.32 0.66 2 1 C1.34 3.64 0.68 6.28 0 9 C-0.99 8.67 -1.98 8.34 -3 8 C-3 6.68 -3 5.36 -3 4 C-2.34 4 -1.68 4 -1 4 C-0.67 2.68 -0.34 1.36 0 0 Z " fill="#C44E8C" transform="translate(854,668)"/>
<path d="M0 0 C0.66 0.33 1.32 0.66 2 1 C1.25 5.75 1.25 5.75 -1 8 C-1.33 6.02 -1.66 4.04 -2 2 C-1.34 2 -0.68 2 0 2 C0 1.34 0 0.68 0 0 Z " fill="#BF4289" transform="translate(872,633)"/>
<path d="M0 0 C0.66 0.99 1.32 1.98 2 3 C0.02 4.32 -1.96 5.64 -4 7 C-4 4 -4 4 -2 1.8125 C-1.34 1.214375 -0.68 0.61625 0 0 Z " fill="#CF3583" transform="translate(667,598)"/>
<path d="M0 0 C0 4.38968456 -2.12805101 5.76905739 -5 9 C-5.33 8.01 -5.66 7.02 -6 6 C-2.83636364 1.41818182 -2.83636364 1.41818182 0 0 Z " fill="#E0478A" transform="translate(226,215)"/>
<path d="M0 0 C0.99 0.33 1.98 0.66 3 1 C0.36 2.98 -2.28 4.96 -5 7 C-5 6.01 -5 5.02 -5 4 C-2.6875 1.75 -2.6875 1.75 0 0 Z " fill="#DE4E97" transform="translate(272,173)"/>
<path d="M0 0 C0 0.66 0 1.32 0 2 C-4.455 2.495 -4.455 2.495 -9 3 C-5.92807025 0.26939578 -4.09590633 -0.34132553 0 0 Z " fill="#B63B77" transform="translate(633,856)"/>
<path d="M0 0 C2 1 2 1 3.125 3.375 C4 6 4 6 4 9 C3.34 9 2.68 9 2 9 C0.50178941 5.62902617 0 3.79557881 0 0 Z " fill="#CF468B" transform="translate(144,622)"/>
<path d="M0 0 C0.33 0 0.66 0 1 0 C1.33 3.3 1.66 6.6 2 10 C1.01 10.33 0.02 10.66 -1 11 C-0.67 7.37 -0.34 3.74 0 0 Z " fill="#282926" transform="translate(525,555)"/>
<path d="M0 0 C0.66 0.33 1.32 0.66 2 1 C1.67 1.99 1.34 2.98 1 4 C-0.875 4.8125 -0.875 4.8125 -3 5 C-3.99 4.34 -4.98 3.68 -6 3 C-4.03533587 1.93224776 -2.03144641 0.93446535 0 0 Z " fill="#C3458C" transform="translate(681,834)"/>
<path d="M0 0 C0.66 0.33 1.32 0.66 2 1 C1.67 2.65 1.34 4.3 1 6 C0.01 6 -0.98 6 -2 6 C-2.33 5.34 -2.66 4.68 -3 4 C-2.34 4 -1.68 4 -1 4 C-0.67 2.68 -0.34 1.36 0 0 Z " fill="#C3408A" transform="translate(838,695)"/>
<path d="M0 0 C2 2 2 2 2.125 5.125 C2.08375 6.07375 2.0425 7.0225 2 8 C1.01 7.67 0.02 7.34 -1 7 C-0.67 4.69 -0.34 2.38 0 0 Z " fill="#222220" transform="translate(466,580)"/>
<path d="M0 0 C0.66 0.33 1.32 0.66 2 1 C0.87926138 1.83905565 -0.24674547 2.67107831 -1.375 3.5 C-2.00148438 3.9640625 -2.62796875 4.428125 -3.2734375 4.90625 C-5 6 -5 6 -7 6 C-7 5.01 -7 4.02 -7 3 C-4.69631264 1.93347808 -2.35981813 0.93578995 0 0 Z " fill="#CE2F7E" transform="translate(407,305)"/>
<path d="M0 0 C3.16115776 1.36983503 3.9927092 1.9890638 6 5 C5.67 5.99 5.34 6.98 5 8 C0 2.25 0 2.25 0 0 Z " fill="#C23975" transform="translate(814,235)"/>
<path d="M0 0 C2 1 2 1 2 1 Z " fill="#000000" transform="translate(323,830)"/>
<path d="" fill="#FF00FF" transform="translate(0,0)"/>
<path d="" fill="#000000" transform="translate(0,0)"/>
<path d="" fill="#000000" transform="translate(0,0)"/>
<path d="" fill="#FF00FF" transform="translate(0,0)"/>
<path d="" fill="#FF00FF" transform="translate(0,0)"/>
<path d="" fill="#FF00FF" transform="translate(0,0)"/>
<path d="" fill="#000000" transform="translate(0,0)"/>
<path d="" fill="#000000" transform="translate(0,0)"/>
<path d="" fill="#FF00FF" transform="translate(0,0)"/>
<path d="" fill="#FF00FF" transform="translate(0,0)"/>
<path d="" fill="#000000" transform="translate(0,0)"/>
<path d="" fill="#000000" transform="translate(0,0)"/>
<path d="" fill="#000000" transform="translate(0,0)"/>
<path d="" fill="#FF00FF" transform="translate(0,0)"/>
<path d="" fill="#FF00FF" transform="translate(0,0)"/>
<path d="" fill="#FF0000" transform="translate(0,0)"/>
<path d="" fill="#FF00FF" transform="translate(0,0)"/>
<path d="" fill="#FF0000" transform="translate(0,0)"/>
<path d="" fill="#FF00FF" transform="translate(0,0)"/>
<path d="" fill="#FF0000" transform="translate(0,0)"/>
<path d="" fill="#FF00FF" transform="translate(0,0)"/>
<path d="" fill="#FF0000" transform="translate(0,0)"/>
<path d="" fill="#FF00FF" transform="translate(0,0)"/>
<path d="" fill="#000000" transform="translate(0,0)"/>
<path d="" fill="#000000" transform="translate(0,0)"/>
<path d="" fill="#000000" transform="translate(0,0)"/>
<path d="" fill="#FF0000" transform="translate(0,0)"/>
<path d="" fill="#FF00FF" transform="translate(0,0)"/>
<path d="" fill="#FF0000" transform="translate(0,0)"/>
<path d="" fill="#000000" transform="translate(0,0)"/>
<path d="" fill="#FF0000" transform="translate(0,0)"/>
<path d="" fill="#000000" transform="translate(0,0)"/>
<path d="" fill="#000000" transform="translate(0,0)"/>
<path d="" fill="#FF00FF" transform="translate(0,0)"/>
<path d="" fill="#000000" transform="translate(0,0)"/>
<path d="" fill="#000000" transform="translate(0,0)"/>
<path d="" fill="#000000" transform="translate(0,0)"/>
<path d="" fill="#000000" transform="translate(0,0)"/>
<path d="" fill="#000000" transform="translate(0,0)"/>
<path d="" fill="#000000" transform="translate(0,0)"/>
<path d="" fill="#000000" transform="translate(0,0)"/>
<path d="" fill="#000000" transform="translate(0,0)"/>
<path d="" fill="#000000" transform="translate(0,0)"/>
<path d="" fill="#FF00FF" transform="translate(0,0)"/>
<path d="" fill="#000000" transform="translate(0,0)"/>
<path d="" fill="#000000" transform="translate(0,0)"/>
<path d="" fill="#000000" transform="translate(0,0)"/>
<path d="" fill="#FF00FF" transform="translate(0,0)"/>
<path d="" fill="#FF0000" transform="translate(0,0)"/>
<path d="" fill="#000000" transform="translate(0,0)"/>
<path d="" fill="#000000" transform="translate(0,0)"/>
<path d="" fill="#FF00FF" transform="translate(0,0)"/>
<path d="" fill="#000000" transform="translate(0,0)"/>
<path d="" fill="#FF0000" transform="translate(0,0)"/>
<path d="" fill="#000000" transform="translate(0,0)"/>
<path d="" fill="#000000" transform="translate(0,0)"/>
<path d="" fill="#FF00FF" transform="translate(0,0)"/>
</svg>
