<?xml version="1.0" encoding="UTF-8"?>
<svg version="1.1" xmlns="http://www.w3.org/2000/svg" width="1024" height="1024">
<path d="M0 0 C1.25619141 0.13051758 2.51238281 0.26103516 3.80664062 0.39550781 C5.47847412 0.57448608 5.47847412 0.57448608 7.18408203 0.75708008 C10.24937731 1.00994434 13.25601701 1.06263431 16.33007812 1.01660156 C16.33007812 1.67660156 16.33007812 2.33660156 16.33007812 3.01660156 C17.10826904 3.05470947 17.88645996 3.09281738 18.68823242 3.13208008 C27.07588668 3.6461198 34.97857209 4.99739811 43.14257812 6.95410156 C43.77681702 7.10454926 44.41105591 7.25499695 45.06451416 7.41000366 C84.2740754 16.76210321 121.38940012 31.75107545 156.33789062 51.88330078 C158.4658537 53.09384056 160.61616847 54.25846421 162.76757812 55.42675781 C170.68992686 59.82277808 178.00527201 65.14103241 185.33007812 70.45410156 C186.11970947 71.02612305 186.90934082 71.59814453 187.72290039 72.1875 C193.00861108 76.02867203 198.24505531 79.91170719 203.33007812 84.01660156 C204.55984375 85.00466797 204.55984375 85.00466797 205.81445312 86.01269531 C208.66981197 88.32751657 211.50079076 90.67000102 214.33007812 93.01660156 C215.33296875 93.83128906 216.33585938 94.64597656 217.36914062 95.48535156 C225.19513679 101.93602824 232.45696548 108.93001084 239.64257812 116.07910156 C240.56143799 116.98877686 241.48029785 117.89845215 242.42700195 118.83569336 C248.48818945 124.92424513 253.96580986 131.31276724 259.33007812 138.01660156 C260.2891787 139.15279465 261.25413368 140.28411104 262.22851562 141.40722656 C283.40146862 165.8529704 300.41455418 193.88200721 314.33007812 223.01660156 C314.68569824 223.7582959 315.04131836 224.49999023 315.40771484 225.26416016 C323.01741762 241.27309337 329.63210153 257.90813681 334.33007812 275.01660156 C335.33803474 278.4579473 336.36561204 281.89338776 337.39257812 285.32910156 C337.79573242 286.68745117 337.79573242 286.68745117 338.20703125 288.07324219 C338.46548828 288.93755859 338.72394531 289.801875 338.99023438 290.69238281 C339.22363525 291.47524658 339.45703613 292.25811035 339.69750977 293.06469727 C340.29203628 295.06525586 340.29203628 295.06525586 341.33007812 297.01660156 C341.54291623 298.79390943 341.75411243 300.57142196 341.95947266 302.34960938 C342.70189797 307.69233278 343.82540946 312.97386477 344.85610962 318.26724243 C347.21982756 330.47081502 349.42071236 342.60572263 350.33007812 355.01660156 C350.41249756 356.02883789 350.41249756 356.02883789 350.49658203 357.06152344 C355.95416956 426.15876733 343.01886166 494.20804139 313.95703125 556.98242188 C313.28317383 558.44180176 313.28317383 558.44180176 312.59570312 559.93066406 C312.18610352 560.80932129 311.77650391 561.68797852 311.35449219 562.59326172 C310.44811057 564.73738563 309.81398075 566.74542372 309.33007812 569.01660156 C308.67007813 569.01660156 308.01007812 569.01660156 307.33007812 569.01660156 C307.09160156 569.67144531 306.853125 570.32628906 306.60742188 571.00097656 C297.28180979 593.01740633 282.08554118 613.42640299 267.04882812 631.85253906 C265.42489598 633.89721727 263.93055698 635.98843184 262.45507812 638.14160156 C261.75382813 639.09035156 261.05257812 640.03910156 260.33007812 641.01660156 C259.67007813 641.01660156 259.01007812 641.01660156 258.33007812 641.01660156 C257.93369141 641.90605469 257.93369141 641.90605469 257.52929688 642.81347656 C256.28637387 645.09689211 255.02606167 646.4908688 253.14257812 648.26660156 C248.54159047 652.73339374 244.26179185 657.46175438 240.39257812 662.57910156 C237.91588814 665.50609882 235.14353974 667.88660078 232.22851562 670.36816406 C230.19422898 672.08835574 230.19422898 672.08835574 227.95507812 674.45410156 C226.33007812 676.01660156 226.33007812 676.01660156 224.33007812 676.01660156 C224.00007812 677.00660156 223.67007813 677.99660156 223.33007812 679.01660156 C221.55273437 680.84082031 221.55273437 680.84082031 219.39257812 682.70410156 C218.68230469 683.32671875 217.97203125 683.94933594 217.24023438 684.59082031 C215.33007812 686.01660156 215.33007812 686.01660156 213.33007812 686.01660156 C213.33007812 686.67660156 213.33007812 687.33660156 213.33007812 688.01660156 C211.95898438 689.28613281 211.95898438 689.28613281 209.89257812 690.82910156 C209.06242188 691.45429687 208.23226562 692.07949219 207.37695312 692.72363281 C206.37148438 693.4803125 205.36601563 694.23699219 204.33007812 695.01660156 C203.12536121 695.95596978 201.92234669 696.89752384 200.72070312 697.84082031 C192.51204608 704.25263758 184.12310679 710.33427889 175.51757812 716.20410156 C174.56858643 716.85185547 173.61959473 717.49960937 172.6418457 718.16699219 C165.84425534 722.76372086 165.84425534 722.76372086 163.16723633 724.08032227 C160.74434867 725.31510953 159.54385487 726.58904808 158.33007812 729.01660156 C157.28207031 729.20222656 157.28207031 729.20222656 156.21289062 729.39160156 C152.43798152 730.21001004 149.48396829 732.06281221 146.20507812 734.01660156 C137.84959594 738.85686394 129.23604336 742.98962341 120.46923828 747.02490234 C118.60601174 747.88868073 116.75408221 748.77674554 114.90429688 749.66894531 C108.43871686 752.76617996 101.86105448 755.4035091 95.14257812 757.89160156 C94.30339844 758.20242676 93.46421875 758.51325195 92.59960938 758.83349609 C86.59020077 761.01660156 86.59020077 761.01660156 84.33007812 761.01660156 C84.00007812 761.67660156 83.67007813 762.33660156 83.33007812 763.01660156 C81.64257813 763.47363281 81.64257813 763.47363281 79.33007812 763.82910156 C75.4482737 764.53043597 71.73699558 765.46018056 67.97167969 766.63696289 C48.25821194 772.79205167 27.8090399 776.54471379 7.33007812 779.01660156 C6.19892578 779.16307129 6.19892578 779.16307129 5.04492188 779.3125 C-17.51566225 782.22575804 -40.15923851 782.15574612 -62.85742188 781.64160156 C-63.83372559 781.62036224 -64.8100293 781.59912292 -65.81591797 781.57723999 C-68.59429191 781.51416697 -71.37231206 781.44303788 -74.15039062 781.36816406 C-74.99695724 781.34825912 -75.84352386 781.32835419 -76.71574402 781.30784607 C-82.55361733 781.13290611 -82.55361733 781.13290611 -83.66992188 780.01660156 C-85.43523561 779.72887576 -87.20985471 779.49803171 -88.98632812 779.29003906 C-102.68110317 777.59643803 -116.13356595 775.49777219 -129.60742188 772.51660156 C-130.26171173 772.37325378 -130.91600159 772.22990601 -131.59011841 772.08221436 C-139.75032338 770.28378741 -147.75401261 768.19882107 -155.74633789 765.76855469 C-158.8124516 764.85053808 -158.8124516 764.85053808 -162.66992188 765.01660156 C-162.66992188 764.35660156 -162.66992188 763.69660156 -162.66992188 763.01660156 C-163.73597656 762.77554688 -164.80203125 762.53449219 -165.90039062 762.28613281 C-171.73229253 760.82016931 -177.34211337 758.77491977 -182.98242188 756.70410156 C-184.14636475 756.27693848 -185.31030762 755.84977539 -186.50952148 755.40966797 C-198.86729881 750.75263433 -210.62114922 745.01856919 -222.39282227 739.05126953 C-224.556539 737.87870892 -224.556539 737.87870892 -226.66992188 738.01660156 C-226.66992188 737.35660156 -226.66992188 736.69660156 -226.66992188 736.01660156 C-227.53633301 735.75919189 -228.40274414 735.50178223 -229.29541016 735.23657227 C-232.75590672 733.98551588 -235.54370042 732.44202133 -238.66210938 730.49707031 C-239.77972656 729.80419922 -240.89734375 729.11132812 -242.04882812 728.39746094 C-243.21428074 727.66648148 -244.37964479 726.9353608 -245.54492188 726.20410156 C-246.70212194 725.48413442 -247.8596715 724.7647287 -249.01757812 724.04589844 C-251.23765444 722.66505695 -253.45490408 721.27965772 -255.66894531 719.88916016 C-257.5267068 718.72994843 -259.39304806 717.58421823 -261.27246094 716.46044922 C-263.10254415 715.36247988 -264.89249559 714.19791314 -266.66992188 713.01660156 C-266.66992188 712.35660156 -266.66992188 711.69660156 -266.66992188 711.01660156 C-267.37117187 710.76910156 -268.07242188 710.52160156 -268.79492188 710.26660156 C-274.0356455 707.98802607 -278.17036222 704.65018267 -282.43945312 700.89941406 C-284.7595387 698.94095304 -287.14589801 697.08131163 -289.54907227 695.22631836 C-297.94261158 688.74107123 -305.87429371 681.88992032 -313.32226562 674.32128906 C-315.6425271 671.89977194 -315.6425271 671.89977194 -318.66992188 670.01660156 C-320.0340939 668.41369943 -321.3956816 666.80852601 -322.74414062 665.19238281 C-325.0451086 662.59270905 -327.50000631 660.19346657 -329.98242188 657.76660156 C-334.51567182 653.31324621 -338.5786423 648.62541777 -342.54101562 643.64941406 C-344.59361754 641.11096692 -346.727431 638.6844887 -348.91992188 636.26660156 C-351.29766648 633.63881636 -353.43505665 631.01403947 -355.41992188 628.07910156 C-357.35165933 624.96197441 -357.35165933 624.96197441 -359.91992188 623.89160156 C-360.49742187 623.60285156 -361.07492187 623.31410156 -361.66992188 623.01660156 C-362.02007236 621.35338675 -362.35189245 619.68625607 -362.66992188 618.01660156 C-363.96225795 616.64349449 -365.29429333 615.30625332 -366.66992188 614.01660156 C-367.16492188 612.53160156 -367.16492188 612.53160156 -367.66992188 611.01660156 C-368.32992187 610.35660156 -368.98992187 609.69660156 -369.66992188 609.01660156 C-373.38090294 603.67278883 -376.66734405 598.04271833 -379.95117188 592.43066406 C-380.5314917 591.43969727 -381.11181152 590.44873047 -381.7097168 589.42773438 C-382.8867732 587.41177604 -384.05885892 585.39290683 -385.22583008 583.37109375 C-385.77070068 582.4368457 -386.31557129 581.50259766 -386.87695312 580.54003906 C-387.36655518 579.6936084 -387.85615723 578.84717773 -388.3605957 577.97509766 C-389.52585754 575.88237726 -389.52585754 575.88237726 -391.66992188 575.01660156 C-391.80011719 574.324375 -391.9303125 573.63214844 -392.06445312 572.91894531 C-392.85480235 569.13036804 -394.57541325 565.97626099 -396.35742188 562.57910156 C-406.66992188 542.45384681 -406.66992188 542.45384681 -406.66992188 538.01660156 C-407.65992188 537.68660156 -408.64992188 537.35660156 -409.66992188 537.01660156 C-409.00992188 537.01660156 -408.34992188 537.01660156 -407.66992188 537.01660156 C-408.10304688 535.95699219 -408.53617188 534.89738281 -408.98242188 533.80566406 C-409.54510322 532.41771674 -410.10759332 531.02969186 -410.66992188 529.64160156 C-410.95609375 528.94292969 -411.24226563 528.24425781 -411.53710938 527.52441406 C-413.66992188 522.24316406 -413.66992188 522.24316406 -413.66992188 520.01660156 C-414.32992187 519.68660156 -414.98992187 519.35660156 -415.66992188 519.01660156 C-416.31054688 516.96191406 -416.31054688 516.96191406 -416.91992188 514.14160156 C-417.9826764 509.58617637 -419.23926292 505.1798431 -420.71875 500.7487793 C-423.64271595 491.96285986 -425.92098585 483.12054798 -427.91992188 474.07910156 C-428.28887573 472.41028931 -428.28887573 472.41028931 -428.6652832 470.70776367 C-433.05011458 450.380841 -433.05011458 450.380841 -432.66992188 442.01660156 C-433.32992187 441.68660156 -433.98992187 441.35660156 -434.66992188 441.01660156 C-434.64929688 439.82421875 -434.62867188 438.63183594 -434.60742188 437.40332031 C-434.60742188 430.85633614 -435.18174748 424.35409022 -435.66992188 417.82910156 C-436.55816932 405.20280591 -437.09240636 392.67541589 -436.66992188 380.01660156 C-436.62883301 378.78522461 -436.58774414 377.55384766 -436.54541016 376.28515625 C-435.46780269 346.58425265 -431.41812185 317.76388897 -423.66992188 289.01660156 C-423.40453613 288.02257324 -423.13915039 287.02854492 -422.86572266 286.00439453 C-413.10500989 249.88450647 -398.12296449 214.43416187 -377.66992188 183.01660156 C-377.01378906 182.0046875 -376.35765625 180.99277344 -375.68164062 179.95019531 C-371.21180174 173.15430434 -366.53688898 166.53311122 -361.66992188 160.01660156 C-360.93999023 159.03868652 -360.93999023 159.03868652 -360.1953125 158.04101562 C-353.69223059 149.35571804 -347.08477614 140.95179648 -339.66992188 133.01660156 C-338.35002061 131.56496351 -337.03705852 130.10697373 -335.73242188 128.64160156 C-334.91451172 127.7328125 -334.91451172 127.7328125 -334.08007812 126.80566406 C-332.59087101 125.04575824 -332.59087101 125.04575824 -331.62304688 122.87597656 C-330.66992188 121.01660156 -330.66992188 121.01660156 -328.35742188 119.64160156 C-325.85718217 118.12982872 -324.74782619 117.05936086 -322.98242188 114.82910156 C-322.21929687 113.90097656 -321.45617187 112.97285156 -320.66992188 112.01660156 C-320.00992188 112.01660156 -319.34992188 112.01660156 -318.66992188 112.01660156 C-318.17492187 110.53160156 -318.17492187 110.53160156 -317.66992188 109.01660156 C-317.00992188 109.01660156 -316.34992188 109.01660156 -315.66992188 109.01660156 C-315.66992188 108.35660156 -315.66992188 107.69660156 -315.66992188 107.01660156 C-314.41210938 105.71191406 -314.41210938 105.71191406 -312.54492188 104.14160156 C-311.805 103.51511719 -311.06507813 102.88863281 -310.30273438 102.24316406 C-308.99949219 101.14101562 -308.99949219 101.14101562 -307.66992188 100.01660156 C-306.69796875 99.15808594 -305.72601563 98.29957031 -304.72460938 97.41503906 C-294.8152571 88.68662523 -284.32101588 80.81195206 -273.66992188 73.01660156 C-272.94401855 72.4800293 -272.21811523 71.94345703 -271.47021484 71.390625 C-194.72657277 14.7897183 -96.32047917 -9.96987207 0 0 Z " fill="#151615" transform="translate(554.669921875,94.9833984375)"/>
<path d="M0 0 C8.71421296 7.95585582 16.73123203 16.20547624 23.9375 25.5625 C24.33437012 26.0776416 24.73124023 26.5927832 25.14013672 27.12353516 C43.69258887 51.46029012 55.73891874 80.43827082 60.9375 110.5625 C61.14246094 111.72136719 61.34742188 112.88023437 61.55859375 114.07421875 C65.03265224 137.76969355 63.70719152 162.18135632 58.9375 185.5625 C58.74494629 186.5122168 58.55239258 187.46193359 58.35400391 188.44042969 C54.56398896 206.60843784 48.74048019 223.23203082 39.9375 239.5625 C39.44612549 240.48506592 39.44612549 240.48506592 38.94482422 241.42626953 C34.32228626 250.04717615 29.0136282 257.89625852 22.9375 265.5625 C22.28652344 266.4184375 21.63554688 267.274375 20.96484375 268.15625 C10.5738447 281.450322 -1.81703976 293.44878262 -15.44775391 303.38330078 C-16.98387135 304.50507992 -18.49848534 305.65613122 -20.01171875 306.80859375 C-52.20525311 330.41718562 -93.46520106 342.97957285 -133.16479492 342.87817383 C-135.7294418 342.87502524 -138.29291735 342.8985294 -140.85742188 342.92382812 C-156.80831296 342.98657953 -172.10899725 340.85414166 -187.4375 336.375 C-188.48566895 336.07311768 -189.53383789 335.77123535 -190.61376953 335.46020508 C-224.30912299 325.52478755 -252.71618599 308.8037976 -278.0625 284.5625 C-278.74054688 283.92570312 -279.41859375 283.28890625 -280.1171875 282.6328125 C-311.17917575 252.71596668 -329.27654039 210.94908956 -334.0625 168.5625 C-334.20171875 167.33793091 -334.20171875 167.33793091 -334.34375 166.08862305 C-338.803255 122.59650416 -330.9541632 72.84122965 -305.0625 36.5625 C-304.63598145 35.96373047 -304.20946289 35.36496094 -303.77001953 34.74804688 C-297.09592464 25.4460128 -290.03276743 16.79213884 -282.0625 8.5625 C-281.56137695 8.0355957 -281.06025391 7.50869141 -280.54394531 6.96582031 C-272.63563369 -1.33667507 -264.29379358 -8.64121182 -255.0625 -15.4375 C-254.02609375 -16.20707031 -252.9896875 -16.97664063 -251.921875 -17.76953125 C-237.41373144 -28.17675483 -221.7051594 -36.05818522 -205.0625 -42.4375 C-204.42280273 -42.68338867 -203.78310547 -42.92927734 -203.12402344 -43.18261719 C-132.36206776 -69.80855971 -55.17286741 -48.90907375 0 0 Z " fill="#FBFAF5" transform="translate(648.0625,334.4375)"/>
<path d="M0 0 C15.72677251 12.53382122 27.97051654 30.32345222 30.84765625 50.61328125 C32.83729548 73.33869184 26.10279127 92.0434658 12.2734375 109.91796875 C10.09765625 112.46875 10.09765625 112.46875 7.328125 115.17578125 C4.86523285 117.17454303 4.86523285 117.17454303 5.09765625 119.46875 C6.57287978 120.59371925 8.10555958 121.64379285 9.66015625 122.65625 C25.56195927 133.54114615 35.7992617 151.11165674 39.4375 169.91796875 C42.96594037 191.70122041 38.53091065 213.09122243 26.15234375 231.3359375 C24.23417182 233.82878442 22.22665766 236.15410283 20.09765625 238.46875 C19.37191406 239.28601563 18.64617187 240.10328125 17.8984375 240.9453125 C1.28516194 258.6844464 -21.45889395 267.75507602 -45.51953125 268.8515625 C-72.80736271 269.55355564 -97.11894747 262.84153292 -117.90234375 244.46875 C-118.53914063 243.92734375 -119.1759375 243.3859375 -119.83203125 242.828125 C-134.63485405 229.32140189 -142.23082955 208.32180972 -143.18359375 188.72265625 C-143.7837859 168.09260347 -138.15845919 149.71947815 -123.90234375 134.46875 C-119.64844826 130.0535819 -115.29104024 125.74938009 -110.90234375 121.46875 C-109.9010338 120.47006166 -108.90068247 119.47040852 -107.90234375 118.46875 C-108.60359375 117.82550781 -109.30484375 117.18226563 -110.02734375 116.51953125 C-124.82185074 102.42856739 -133.44990562 85.01458508 -134.23706055 64.45581055 C-134.59544767 45.10942195 -127.62196186 27.04331242 -114.90234375 12.46875 C-114.40734375 11.82035156 -113.91234375 11.17195313 -113.40234375 10.50390625 C-86.49111104 -23.47152505 -33.03429253 -24.08332384 0 0 Z " fill="#181919" transform="translate(562.90234375,353.53125)"/>
<path d="M0 0 C10.47195767 6.58666128 16.12480924 15.24351934 19.5859375 26.98828125 C21.78096185 37.65278633 18.93422769 48.74296206 13.25 57.875 C6.58249606 66.93086356 -1.96744887 72.39960593 -13.078125 74.61328125 C-25.21739114 76.21994883 -35.80790926 73.54603215 -45.67578125 66.109375 C-53.81129043 58.72588767 -58.36022445 50.33717276 -59.30859375 39.4609375 C-59.76320684 25.93275404 -56.42986023 15.96294437 -47.2578125 6.1328125 C-34.99546996 -5.72248132 -15.01973219 -8.31975362 0 0 Z " fill="#FAF9F5" transform="translate(532,498)"/>
<path d="M0 0 C8.27752036 6.77251666 12.81617801 13.92564397 14.0234375 24.6875 C14.37761499 33.62367058 11.92019764 42.583615 6.375 49.75 C-1.97595518 57.70329065 -9.7617596 60.76749826 -21.31616211 60.66943359 C-30.11583946 60.35019428 -36.00378251 57.22175496 -42.390625 51.3203125 C-50.36935213 42.43643566 -51.95417758 33.71146708 -51.41601562 22.20166016 C-50.62857258 12.94457234 -44.82524122 6.35558113 -38.25 0.25 C-27.28588922 -8.27252309 -11.13074967 -7.92933405 0 0 Z " fill="#FAF9F5" transform="translate(531.25,390.75)"/>
<path d="M0 0 C3.34625024 2.52676039 4.67977847 4.03933542 6 8 C7.2504034 20.00387261 -0.34763823 32.40458911 -7.375 41.625 C-8.57271326 43.09206799 -9.78119843 44.55040409 -11 46 C-11.60585937 46.75152344 -12.21171875 47.50304687 -12.8359375 48.27734375 C-19.48465969 56.21510391 -28.95470411 65.01118654 -39.5625 66.5 C-43.91977158 65.86621504 -45.27386694 64.36757614 -48 61 C-50.76513992 55.46972015 -49.59105453 47.40012331 -48.1640625 41.60546875 C-41.67187277 23.58855296 -29.42843002 10.27002671 -13 1 C-8.65750666 -0.44749778 -4.53331044 -0.65794458 0 0 Z " fill="#515151" transform="translate(262,249)"/>
<path d="M0 0 C0.33 0 0.66 0 1 0 C3.14678972 17.44527182 4.08550398 34.71322669 4.17523193 52.28463745 C4.18339453 53.80022014 4.19449133 55.31578994 4.20855713 56.83132935 C4.22636358 58.97230492 4.23045286 61.11286543 4.23046875 63.25390625 C4.23457764 64.50502197 4.23868652 65.7561377 4.24291992 67.04516602 C4 70 4 70 2 72 C1.25328543 58.31089482 0.89064599 44.67433008 1.03710938 30.96362305 C1.04548828 29.88121338 1.05386719 28.79880371 1.0625 27.68359375 C1.07410156 26.73025146 1.08570313 25.77690918 1.09765625 24.79467773 C0.95334605 20.66488067 0.30598987 16.91796961 -1 13 C-0.91382274 10.767731 -0.76077759 8.53761514 -0.5625 6.3125 C-0.46066406 5.13300781 -0.35882812 3.95351563 -0.25390625 2.73828125 C-0.17011719 1.83464844 -0.08632813 0.93101562 0 0 Z " fill="#3F3E3E" transform="translate(902,432)"/>
<path d="M0 0 C6.22486729 6.02406511 11.91015092 12.56724031 17.5625 19.125 C23.70048856 26.13382447 30.29406922 32.2117759 37.58203125 38.01953125 C39.51494539 39.60270971 41.28268899 41.19140335 43 43 C38.60322523 42.51742716 35.80873454 39.61270003 32.625 36.8125 C32.01358154 36.27931152 31.40216309 35.74612305 30.7722168 35.19677734 C19.40807113 25.16540077 8.65467283 14.5051191 0 2 C0 1.34 0 0.68 0 0 Z " fill="#090909" transform="translate(349,595)"/>
<path d="M0 0 C0 0.33 0 0.66 0 1 C-0.92683594 1.06058594 -1.85367188 1.12117188 -2.80859375 1.18359375 C-4.60490234 1.30927734 -4.60490234 1.30927734 -6.4375 1.4375 C-7.63246094 1.51871094 -8.82742188 1.59992188 -10.05859375 1.68359375 C-12.88570244 1.67656114 -12.88570244 1.67656114 -14 3 C-16.77776206 3.27026874 -19.52755914 3.47537725 -22.3125 3.625 C-23.52752197 3.69255493 -23.52752197 3.69255493 -24.76708984 3.76147461 C-31.247369 4.07039575 -37.55833046 3.8209971 -44 3 C-44 2.67 -44 2.34 -44 2 C-29.28040589 0.29866404 -14.81376266 -0.26442251 0 0 Z " fill="#434342" transform="translate(510,93)"/>
<path d="M0 0 C0.52464844 0.37640625 1.04929687 0.7528125 1.58984375 1.140625 C-0.20036235 1.81120387 -1.99237114 2.4769719 -3.78515625 3.140625 C-4.78289063 3.511875 -5.780625 3.883125 -6.80859375 4.265625 C-9.41015625 5.140625 -9.41015625 5.140625 -11.41015625 5.140625 C-11.74015625 5.800625 -12.07015625 6.460625 -12.41015625 7.140625 C-14.484375 7.73828125 -14.484375 7.73828125 -17.09765625 8.203125 C-17.99613281 8.36683594 -18.89460937 8.53054688 -19.8203125 8.69921875 C-20.67496094 8.84488281 -21.52960937 8.99054687 -22.41015625 9.140625 C-23.60640625 9.346875 -24.80265625 9.553125 -26.03515625 9.765625 C-27.21078125 9.95125 -27.21078125 9.95125 -28.41015625 10.140625 C-27.75015625 9.810625 -27.09015625 9.480625 -26.41015625 9.140625 C-26.74015625 8.150625 -27.07015625 7.160625 -27.41015625 6.140625 C-26.77851562 6.05425781 -26.146875 5.96789062 -25.49609375 5.87890625 C-18.40550537 4.76525476 -12.12261489 2.6717255 -5.4765625 -0.03125 C-2.41015625 -0.859375 -2.41015625 -0.859375 0 0 Z " fill="#272625" transform="translate(650.41015625,850.859375)"/>
<path d="M0 0 C0.33 0 0.66 0 1 0 C1 17.49 1 34.98 1 53 C0.67 53 0.34 53 0 53 C-0.36891188 50.85665244 -0.71933528 48.71012024 -1.0625 46.5625 C-1.25972656 45.36753906 -1.45695312 44.17257812 -1.66015625 42.94140625 C-1.97575076 39.28123543 -1.76802782 36.31643753 -1.29125977 32.71508789 C-0.6408948 26.6524653 -0.61387794 20.53009802 -0.4375 14.4375 C-0.39420824 13.03319297 -0.35059096 11.62889594 -0.30664062 10.22460938 C-0.20123489 6.81649049 -0.09911018 3.4083068 0 0 Z " fill="#0A0B0B" transform="translate(120,458)"/>
<path d="M0 0 C1.32 0.33 2.64 0.66 4 1 C4 2.32 4 3.64 4 5 C4.66 5 5.32 5 6 5 C6.18175781 5.71027344 6.36351562 6.42054688 6.55078125 7.15234375 C6.80214844 8.07144531 7.05351562 8.99054687 7.3125 9.9375 C7.67794922 11.31228516 7.67794922 11.31228516 8.05078125 12.71484375 C8.36402344 13.46894531 8.67726562 14.22304688 9 15 C9.99 15.33 10.98 15.66 12 16 C11.67 16.66 11.34 17.32 11 18 C11.33 18.33 11.66 18.66 12 19 C12.33 19.66 12.66 20.32 13 21 C12.34 21.66 11.68 22.32 11 23 C7.12031691 19.62092118 7.12031691 19.62092118 6.5625 16.7421875 C5.877094 13.40083325 4.52190181 10.82773277 2.9375 7.8125 C0 2.20705882 0 2.20705882 0 0 Z " fill="#282828" transform="translate(156,651)"/>
<path d="M0 0 C19.69230769 7.38461538 19.69230769 7.38461538 23 14 C18.59780431 13.33300065 14.99144754 11.91896516 11 10 C10.67 9.34 10.34 8.68 10 8 C8.00969087 6.95891522 5.97178024 6.08581433 3.91015625 5.1953125 C1.62148636 3.7631387 0.9878555 2.47222475 0 0 Z " fill="#292928" transform="translate(709,147)"/>
<path d="M0 0 C0.68100266 0.04580704 1.36200531 0.09161407 2.06364441 0.1388092 C4.22390027 0.28554292 6.38337874 0.44145722 8.54296875 0.59765625 C10.01363001 0.69917608 11.48433295 0.80009395 12.95507812 0.90039062 C16.54738382 1.14668043 20.13905106 1.40120397 23.73046875 1.66015625 C23.73046875 1.99015625 23.73046875 2.32015625 23.73046875 2.66015625 C15.81046875 2.99015625 7.89046875 3.32015625 -0.26953125 3.66015625 C-0.26953125 3.33015625 -0.26953125 3.00015625 -0.26953125 2.66015625 C-4.22953125 2.33015625 -8.18953125 2.00015625 -12.26953125 1.66015625 C-12.26953125 1.33015625 -12.26953125 1.00015625 -12.26953125 0.66015625 C-8.04873846 -0.41531727 -4.33229418 -0.30308231 0 0 Z " fill="#484947" transform="translate(523.26953125,92.33984375)"/>
<path d="M0 0 C3.259804 0.57980529 4.86893175 1.5053937 7.1640625 3.87109375 C7.72867188 4.44537109 8.29328125 5.01964844 8.875 5.61132812 C9.4525 6.21396484 10.03 6.81660156 10.625 7.4375 C11.21023437 8.03626953 11.79546875 8.63503906 12.3984375 9.25195312 C13.48344106 10.36308636 14.56533328 11.47727246 15.64306641 12.59545898 C16.75041394 13.74165732 17.87305963 14.87305963 19 16 C18.01 16.33 17.02 16.66 16 17 C11.53022525 14.10068665 8.34733559 10.07463625 5 6 C4.04198867 4.85389744 3.08368096 3.7080425 2.125 2.5625 C1.42375 1.716875 0.7225 0.87125 0 0 Z " fill="#20201F" transform="translate(225,752)"/>
<path d="M0 0 C0.66 0 1.32 0 2 0 C0.43889635 8.74218041 -2.78481857 16.75983375 -6 25 C-7.20959584 21.37121247 -6.65839734 19.8456203 -5.6875 16.1875 C-5.40390625 15.11886719 -5.1203125 14.05023437 -4.828125 12.94921875 C-3.55685327 8.42181236 -2.23415382 4.14914281 0 0 Z " fill="#2B2B2B" transform="translate(886,601)"/>
<path d="M0 0 C9.24 0 18.48 0 28 0 C26.68 0.33 25.36 0.66 24 1 C24 1.66 24 2.32 24 3 C19.38 3 14.76 3 10 3 C10 2.67 10 2.34 10 2 C6.7 1.67 3.4 1.34 0 1 C0 0.67 0 0.34 0 0 Z " fill="#242422" transform="translate(504,677)"/>
<path d="M0 0 C1.89037472 2.83556208 2.65374862 4.83191263 3.5625 8.0625 C4.55972045 11.61733007 4.55972045 11.61733007 6 15 C5.91348369 16.54613014 5.75997364 18.08909387 5.5625 19.625 C5.46066406 20.44226563 5.35882812 21.25953125 5.25390625 22.1015625 C5.17011719 22.72804688 5.08632813 23.35453125 5 24 C0.99241881 16.68180827 -0.47654599 8.26013044 0 0 Z " fill="#242423" transform="translate(890,377)"/>
<path d="M0 0 C2.31 0.33 4.62 0.66 7 1 C7 1.33 7 1.66 7 2 C4.29273634 2.5064814 1.58442876 3.005351 -1.125 3.5 C-2.26582031 3.71462891 -2.26582031 3.71462891 -3.4296875 3.93359375 C-7.65171031 4.69792547 -11.69298598 5.36655438 -16 5 C-16.66 4.34 -17.32 3.68 -18 3 C-15.93939936 2.63494484 -13.87640368 2.28339285 -11.8125 1.9375 C-10.66394531 1.74027344 -9.51539063 1.54304687 -8.33203125 1.33984375 C-5.21351634 1.02177716 -3.00194217 1.19156736 0 2 C0 1.34 0 0.68 0 0 Z " fill="#333332" transform="translate(587,867)"/>
<path d="M0 0 C0.99 0.33 1.98 0.66 3 1 C3.66 4.63 4.32 8.26 5 12 C5.66 12 6.32 12 7 12 C7.33 13.65 7.66 15.3 8 17 C7.01 17.66 6.02 18.32 5 19 C4.16142312 16.39741676 3.32896656 13.79314353 2.5 11.1875 C2.14228516 10.08051758 2.14228516 10.08051758 1.77734375 8.95117188 C0.80059864 5.86744804 0 3.25504191 0 0 Z " fill="#2E2E2D" transform="translate(132,586)"/>
<path d="M0 0 C0.33 0.99 0.66 1.98 1 3 C-2.21893765 8.56243201 -7.81960005 12.41053506 -13 16 C-13 13 -13 13 -11.80664062 11.46606445 C-11.26201172 10.937146 -10.71738281 10.40822754 -10.15625 9.86328125 C-9.56972656 9.28642578 -8.98320313 8.70957031 -8.37890625 8.11523438 C-7.75886719 7.52033203 -7.13882813 6.92542969 -6.5 6.3125 C-5.87996094 5.70599609 -5.25992188 5.09949219 -4.62109375 4.47460938 C-3.08735293 2.97626257 -1.54451802 1.48723507 0 0 Z " fill="#252525" transform="translate(798,750)"/>
<path d="M0 0 C0.83144531 0.05220703 1.66289063 0.10441406 2.51953125 0.15820312 C4.55508108 0.28688731 6.59010441 0.42385407 8.625 0.5625 C8.625 0.8925 8.625 1.2225 8.625 1.5625 C2.19 2.0575 2.19 2.0575 -4.375 2.5625 C-4.375 3.2225 -4.375 3.8825 -4.375 4.5625 C-8.005 4.5625 -11.635 4.5625 -15.375 4.5625 C-15.375 4.2325 -15.375 3.9025 -15.375 3.5625 C-11.91 3.0675 -11.91 3.0675 -8.375 2.5625 C-10.685 2.2325 -12.995 1.9025 -15.375 1.5625 C-15.375 1.2325 -15.375 0.9025 -15.375 0.5625 C-10.12418443 -0.58452282 -5.30983462 -0.36838566 0 0 Z " fill="#3C3535" transform="translate(519.375,872.4375)"/>
<path d="M0 0 C0.99 0.33 1.98 0.66 3 1 C3 5.95 3 10.9 3 16 C2.01 16 1.02 16 0 16 C0 10.72 0 5.44 0 0 Z " fill="#212120" transform="translate(591,406)"/>
<path d="M0 0 C10.55808656 3.07517084 10.55808656 3.07517084 15 5 C13.5 6.125 13.5 6.125 11 7 C8.2226918 6.57598348 5.70360217 5.81108065 3 5 C3 4.34 3 3.68 3 3 C2.34 3 1.68 3 1 3 C0.67 2.01 0.34 1.02 0 0 Z " fill="#272625" transform="translate(646,117)"/>
<path d="M0 0 C1.22419163 3.93795909 0.48320272 6.16112237 -1 10 C-1.66 10 -2.32 10 -3 10 C-3.103125 10.639375 -3.20625 11.27875 -3.3125 11.9375 C-3.539375 12.618125 -3.76625 13.29875 -4 14 C-4.99 14.33 -5.98 14.66 -7 15 C-5.45454854 9.52067211 -2.84456788 4.88570819 0 0 Z " fill="#292928" transform="translate(166,297)"/>
<path d="M0 0 C7.59 0 15.18 0 23 0 C23 0.33 23 0.66 23 1 C20.10551028 1.39074108 17.21060558 1.76301611 14.3125 2.125 C13.49587891 2.23714844 12.67925781 2.34929688 11.83789062 2.46484375 C7.31998265 3.01357751 4.1390901 3.27607806 0 1 C0 0.67 0 0.34 0 0 Z " fill="#050505" transform="translate(513,874)"/>
<path d="M0 0 C0.33 0 0.66 0 1 0 C1 1.65 1 3.3 1 5 C1.66 5 2.32 5 3 5 C3.85298376 8.67387495 4.10789471 12.0447393 4.0625 15.8125 C4.05347656 16.78832031 4.04445312 17.76414062 4.03515625 18.76953125 C4.02355469 19.50558594 4.01195312 20.24164062 4 21 C3.67 21 3.34 21 3 21 C2.49078672 18.81462633 1.99305563 16.62657569 1.5 14.4375 C1.2215625 13.21933594 0.943125 12.00117187 0.65625 10.74609375 C0.01362446 7.07777293 -0.11474823 3.71497397 0 0 Z " fill="#3C3C3B" transform="translate(124,549)"/>
<path d="M0 0 C0.33 0 0.66 0 1 0 C1.33848652 1.89492006 1.67056911 3.79098466 2 5.6875 C2.185625 6.74324219 2.37125 7.79898437 2.5625 8.88671875 C2.95068074 11.64904062 3.08259976 14.21742043 3 17 C2.01 17 1.02 17 0 17 C-1.33257403 5.47835991 -1.33257403 5.47835991 0 0 Z " fill="#232322" transform="translate(899,415)"/>
<path d="M0 0 C0 3.88291746 -1.37860494 5.46752535 -3.5 8.6875 C-4.1496875 9.68136719 -4.799375 10.67523437 -5.46875 11.69921875 C-6.22671875 12.83810547 -6.22671875 12.83810547 -7 14 C-7.66 13.01 -8.32 12.02 -9 11 C-7.86092693 7.58278079 -6.59062977 6.44259378 -4 4 C-3.2575 3.2575 -2.515 2.515 -1.75 1.75 C-1.1725 1.1725 -0.595 0.595 0 0 Z " fill="#2A2A2A" transform="translate(846,690)"/>
<path d="M0 0 C2.01131557 1.64353215 2.93485931 2.45413512 3.2487793 5.0847168 C3.19117432 5.86500244 3.13356934 6.64528809 3.07421875 7.44921875 C3.01943359 8.29677734 2.96464844 9.14433594 2.90820312 10.01757812 C2.83537109 10.89865234 2.76253906 11.77972656 2.6875 12.6875 C2.62626953 13.58017578 2.56503906 14.47285156 2.50195312 15.39257812 C2.34874168 17.59646586 2.18091866 19.79824206 2 22 C1.67 22 1.34 22 1 22 C0.08839714 14.64206267 -0.11459026 7.41017023 0 0 Z " fill="#4C4C4B" transform="translate(119,505)"/>
<path d="M0 0 C3.37799615 0.83260469 6.76317136 1.16990278 10.21875 1.546875 C10.21875 1.876875 10.21875 2.206875 10.21875 2.546875 C8.74043779 2.74099681 7.26105684 2.92699631 5.78125 3.109375 C4.95753906 3.21378906 4.13382812 3.31820312 3.28515625 3.42578125 C2.26228516 3.48572266 2.26228516 3.48572266 1.21875 3.546875 C0.88875 3.216875 0.55875 2.886875 0.21875 2.546875 C-2.46987664 2.14693814 -5.14477217 1.79552957 -7.84375 1.484375 C-8.60236328 1.39349609 -9.36097656 1.30261719 -10.14257812 1.20898438 C-12.0216801 0.9844376 -13.90141095 0.76516522 -15.78125 0.546875 C-15.78125 0.216875 -15.78125 -0.113125 -15.78125 -0.453125 C-9.99799995 -1.3711012 -5.65547477 -1.47360962 0 0 Z " fill="#4D4C4B" transform="translate(470.78125,872.453125)"/>
<path d="M0 0 C0.33 0 0.66 0 1 0 C0.03644647 11.52164009 0.03644647 11.52164009 -1 17 C-1.33 17 -1.66 17 -2 17 C-2.74749583 11.82502886 -3.37797735 7.13609741 -2 2 C-1.34 1.34 -0.68 0.68 0 0 Z " fill="#353534" transform="translate(900,543)"/>
<path d="M0 0 C-1.6188996 1.03048037 -3.24532489 2.04914678 -4.875 3.0625 C-5.77992188 3.63097656 -6.68484375 4.19945312 -7.6171875 4.78515625 C-8.40351562 5.18605469 -9.18984375 5.58695313 -10 6 C-10.66 5.67 -11.32 5.34 -12 5 C-8.59813084 0.26168224 -8.59813084 0.26168224 -6 -0.875 C-3.78986755 -1.01313328 -2.12483988 -0.57547747 0 0 Z " fill="#2F2B2B" transform="translate(706,826)"/>
<path d="M0 0 C0.33 0 0.66 0 1 0 C0.03644647 10.55808656 0.03644647 10.55808656 -1 15 C-3.18719033 11.71921451 -3.21791927 11.19409949 -2.75 7.5 C-2.66234375 6.7265625 -2.5746875 5.953125 -2.484375 5.15625 C-2 3 -2 3 0 0 Z " fill="#2C2C2C" transform="translate(897,560)"/>
<path d="M0 0 C0 3.75586417 -1.14246188 5.76650772 -3 9 C-3.99 9.66 -4.98 10.32 -6 11 C-6.66 10.34 -7.32 9.68 -8 9 C-5.36 6.03 -2.72 3.06 0 0 Z " fill="#2B2A2A" transform="translate(219,223)"/>
<path d="M0 0 C0.66 0.33 1.32 0.66 2 1 C1.401875 1.7425 0.80375 2.485 0.1875 3.25 C-1.96727811 5.868184 -1.96727811 5.868184 -3.5 8.3125 C-4.2425 9.1478125 -4.2425 9.1478125 -5 10 C-6.32 10 -7.64 10 -9 10 C-9 9.34 -9 8.68 -9 8 C-7.28515625 6.30859375 -7.28515625 6.30859375 -5.0625 4.4375 C-3.96615234 3.50744141 -3.96615234 3.50744141 -2.84765625 2.55859375 C-2.23792969 2.04425781 -1.62820312 1.52992188 -1 1 C-0.67 0.67 -0.34 0.34 0 0 Z " fill="#2B2B2B" transform="translate(248,194)"/>
<path d="M0 0 C0.33 0.99 0.66 1.98 1 3 C0.07421875 4.82421875 0.07421875 4.82421875 -1.3125 6.6875 C-1.76238281 7.31011719 -2.21226562 7.93273437 -2.67578125 8.57421875 C-3.11277344 9.04472656 -3.54976562 9.51523437 -4 10 C-4.66 10 -5.32 10 -6 10 C-6.33 10.66 -6.66 11.32 -7 12 C-7.33 11.01 -7.66 10.02 -8 9 C-5.36 6.03 -2.72 3.06 0 0 Z " fill="#2A2A29" transform="translate(819,726)"/>
<path d="M0 0 C4.8274799 1.41292095 8.7162359 3.42974154 13 6 C13 6.33 13 6.66 13 7 C8.27132978 6.53640488 4.81857204 5.9200845 1 3 C0.67 2.01 0.34 1.02 0 0 Z " fill="#2C2B2A" transform="translate(691,137)"/>
<path d="M0 0 C3.2626876 3.08632611 6.02235218 5.93483504 8 10 C7.67 10.66 7.34 11.32 7 12 C5.821389 10.76125579 4.65747085 9.5085199 3.5 8.25 C2.8503125 7.55390625 2.200625 6.8578125 1.53125 6.140625 C0 4 0 4 0 0 Z " fill="#313131" transform="translate(206,728)"/>
<path d="M0 0 C0.99 0 1.98 0 3 0 C1.43358249 4.30764815 -0.68336156 8.06171464 -3 12 C-3.66 11.01 -4.32 10.02 -5 9 C-4.01 8.67 -3.02 8.34 -2 8 C-1.7834375 6.576875 -1.7834375 6.576875 -1.5625 5.125 C-1 2 -1 2 0 0 Z " fill="#2F2E2F" transform="translate(859,664)"/>
<path d="M0 0 C4.04420651 1.77945087 7.46078487 4.39529673 11 7 C9.19921875 7.640625 9.19921875 7.640625 7 8 C1.33333333 4 1.33333333 4 0 0 Z " fill="#2E2C2D" transform="translate(742,168)"/>
<path d="M0 0 C0.66 0.33 1.32 0.66 2 1 C-1.07182681 4.395177 -4.13959595 6.87597306 -8.8125 7.1875 C-9.534375 7.125625 -10.25625 7.06375 -11 7 C-7.53252172 4.22601737 -3.93597489 2.04087587 0 0 Z " fill="#2F2E2D" transform="translate(329,138)"/>
<path d="M0 0 C1.48454806 0.59082014 2.96254351 1.19812655 4.4375 1.8125 C5.26121094 2.14894531 6.08492188 2.48539063 6.93359375 2.83203125 C9 4 9 4 10 7 C5.76570244 5.68938409 1.92592596 4.05643741 -2 2 C-1.34 1.34 -0.68 0.68 0 0 Z " fill="#2C2C2B" transform="translate(334,832)"/>
<path d="M0 0 C3.63 0.66 7.26 1.32 11 2 C6 4.5 6 4.5 3 5 C2.34 4.67 1.68 4.34 1 4 C0.67 2.68 0.34 1.36 0 0 Z " fill="#31302F" transform="translate(607,105)"/>
<path d="M0 0 C0.7734375 0.2165625 0.7734375 0.2165625 1.5625 0.4375 C4.68509571 1.15809901 7.82550692 1.57266439 11 2 C11 2.33 11 2.66 11 3 C3.08 3.495 3.08 3.495 -5 4 C-5 3.67 -5 3.34 -5 3 C-3.35 2.67 -1.7 2.34 0 2 C0 1.34 0 0.68 0 0 Z " fill="#464644" transform="translate(559,870)"/>
<path d="M0 0 C4.38462134 0.50109958 6.8000997 1.98295115 10 5 C10 5.66 10 6.32 10 7 C8.68 6.67 7.36 6.34 6 6 C6 5.34 6 4.68 6 4 C5.195625 3.71125 4.39125 3.4225 3.5625 3.125 C1 2 1 2 0 0 Z " fill="#272727" transform="translate(282,802)"/>
<path d="M0 0 C4.24822374 0.47202486 6.19989709 2.96655518 9 6 C8.67 6.99 8.34 7.98 8 9 C6.66368764 7.6905332 5.33102075 6.37734515 4 5.0625 C3.2575 4.33160156 2.515 3.60070312 1.75 2.84765625 C0 1 0 1 0 0 Z " fill="#262726" transform="translate(225,752)"/>
<path d="M0 0 C0.33 0 0.66 0 1 0 C1.33 2.64 1.66 5.28 2 8 C1.67 8 1.34 8 1 8 C0.34 10.97 -0.32 13.94 -1 17 C-1.33 17 -1.66 17 -2 17 C-1.85786703 15.10388566 -1.71113093 13.20811606 -1.5625 11.3125 C-1.48128906 10.25675781 -1.40007812 9.20101563 -1.31640625 8.11328125 C-1.03548319 5.34913703 -0.59843148 2.71054259 0 0 Z " fill="#585856" transform="translate(124,415)"/>
<path d="M0 0 C0.66 0.33 1.32 0.66 2 1 C0.02 3.31 -1.96 5.62 -4 8 C-5.32 7.67 -6.64 7.34 -8 7 C-5.36 4.69 -2.72 2.38 0 0 Z " fill="#30302F" transform="translate(266,179)"/>
<path d="M0 0 C-1.32 0.33 -2.64 0.66 -4 1 C-4 1.66 -4 2.32 -4 3 C-6.25 4.125 -6.25 4.125 -9 5 C-11.171875 4.0546875 -11.171875 4.0546875 -13 3 C-11.21189234 2.30329584 -9.41937948 1.61788811 -7.625 0.9375 C-6.62726563 0.55464844 -5.62953125 0.17179687 -4.6015625 -0.22265625 C-2 -1 -2 -1 0 0 Z " fill="#3D3C3C" transform="translate(384,116)"/>
<path d="M0 0 C5.94 0.99 5.94 0.99 12 2 C11.01 2.99 10.02 3.98 9 5 C8.01 5 7.02 5 6 5 C6 4.34 6 3.68 6 3 C4.35 3 2.7 3 1 3 C0.67 2.01 0.34 1.02 0 0 Z " fill="#353534" transform="translate(590,101)"/>
<path d="M0 0 C0.33 0 0.66 0 1 0 C1.33 1.65 1.66 3.3 2 5 C2.33 5 2.66 5 3 5 C3 7.97 3 10.94 3 14 C2.67 12.68 2.34 11.36 2 10 C1.01 9.67 0.02 9.34 -1 9 C-0.67 6.03 -0.34 3.06 0 0 Z " fill="#2A2A29" transform="translate(121,527)"/>
<path d="M0 0 C-0.33 4.62 -0.66 9.24 -1 14 C-1.33 14 -1.66 14 -2 14 C-2.33 9.71 -2.66 5.42 -3 1 C-1 0 -1 0 0 0 Z " fill="#3D3B3B" transform="translate(903,529)"/>
<path d="M0 0 C0.99 0 1.98 0 3 0 C2.67 3.3 2.34 6.6 2 10 C1.01 9.34 0.02 8.68 -1 8 C-0.67 5.36 -0.34 2.72 0 0 Z " fill="#20201F" transform="translate(708,509)"/>
<path d="M0 0 C0.66 0.33 1.32 0.66 2 1 C-0.475 4.465 -0.475 4.465 -3 8 C-3.66 7.67 -4.32 7.34 -5 7 C-5 6.01 -5 5.02 -5 4 C-2.5 1.8125 -2.5 1.8125 0 0 Z " fill="#2A2A29" transform="translate(274,173)"/>
<path d="M0 0 C1.32 0.33 2.64 0.66 4 1 C4 2.32 4 3.64 4 5 C4.66 5 5.32 5 6 5 C5 7 5 7 3 8 C0 2.25 0 2.25 0 0 Z " fill="#2B2B2B" transform="translate(156,651)"/>
<path d="M0 0 C0.66 0.33 1.32 0.66 2 1 C2 1.99 2 2.98 2 4 C-0.70879335 5.35439668 -3.00933268 5.06501451 -6 5 C-4.06745228 2.9754262 -2.36841312 1.57894208 0 0 Z " fill="#2E2F2F" transform="translate(316,145)"/>
<path d="M0 0 C0.66 0.33 1.32 0.66 2 1 C1.67 1.66 1.34 2.32 1 3 C0.34 3 -0.32 3 -1 3 C-1 3.66 -1 4.32 -1 5 C-3.31 5 -5.62 5 -8 5 C-5.45378681 2.99940392 -3.01962385 1.20784954 0 0 Z " fill="#2F2F2E" transform="translate(341,132)"/>
<path d="M0 0 C3.0916909 2.52956528 3.90931332 5.22454612 5 9 C4.01 9.495 4.01 9.495 3 10 C0.96564469 6.27034861 0 4.33094958 0 0 Z " fill="#212121" transform="translate(160,657)"/>
<path d="M0 0 C0.33 0 0.66 0 1 0 C1.33 2.97 1.66 5.94 2 9 C0.68 9.33 -0.64 9.66 -2 10 C-1.34 6.7 -0.68 3.4 0 0 Z " fill="#323331" transform="translate(131,384)"/>
<path d="M0 0 C2 1 2 1 2.8515625 3.06640625 C3.10679687 3.89011719 3.36203125 4.71382813 3.625 5.5625 C3.88539063 6.38878906 4.14578125 7.21507812 4.4140625 8.06640625 C4.60742188 8.70449219 4.80078125 9.34257812 5 10 C2 9 2 9 0.8125 7.25 C-0.10819096 4.70039426 -0.14948718 2.69076919 0 0 Z " fill="#272526" transform="translate(865,312)"/>
<path d="M0 0 C-0.66 0 -1.32 0 -2 0 C-2 0.66 -2 1.32 -2 2 C-4.35438733 3.42944945 -5.48032433 4.08661261 -8.25 3.625 C-8.8275 3.41875 -9.405 3.2125 -10 3 C-6.84439813 -0.15560187 -4.30999015 -1.43666338 0 0 Z " fill="#2F302F" transform="translate(366,123)"/>
<path d="M0 0 C2.97 0 5.94 0 9 0 C9 0.66 9 1.32 9 2 C10.32 2.33 11.64 2.66 13 3 C10.36 3 7.72 3 5 3 C5 2.34 5 1.68 5 1 C3.35 1 1.7 1 0 1 C0 0.67 0 0.34 0 0 Z " fill="#2D2E2D" transform="translate(549,95)"/>
<path d="M0 0 C0.8353125 0.556875 0.8353125 0.556875 1.6875 1.125 C0.42142393 1.65729326 -0.85060412 2.17544544 -2.125 2.6875 C-2.83269531 2.97753906 -3.54039062 3.26757812 -4.26953125 3.56640625 C-6.3125 4.125 -6.3125 4.125 -9.3125 3.125 C-8.6525 3.125 -7.9925 3.125 -7.3125 3.125 C-7.3125 2.465 -7.3125 1.805 -7.3125 1.125 C-2.88173077 -1.09038462 -2.88173077 -1.09038462 0 0 Z " fill="#373635" transform="translate(650.3125,850.875)"/>
<path d="M0 0 C1.65 0 3.3 0 5 0 C2.45394698 2.00047023 0.0335364 3.82572785 -3 5 C-3.99 4.67 -4.98 4.34 -6 4 C-5.67 3.34 -5.34 2.68 -5 2 C-3.35 2 -1.7 2 0 2 C0 1.34 0 0.68 0 0 Z " fill="#3C3B3B" transform="translate(675,839)"/>
<path d="M0 0 C0.33 0.99 0.66 1.98 1 3 C-1.97 5.475 -1.97 5.475 -5 8 C-5.66 7.34 -6.32 6.68 -7 6 C-4.69 4.02 -2.38 2.04 0 0 Z " fill="#1E1D1D" transform="translate(810,737)"/>
<path d="M0 0 C0.86625 0.556875 0.86625 0.556875 1.75 1.125 C-2.875 4.125 -2.875 4.125 -6.25 4.125 C-6.25 3.135 -6.25 2.145 -6.25 1.125 C-2.80384615 -1.09038462 -2.80384615 -1.09038462 0 0 Z " fill="#1D1D1C" transform="translate(605.25,655.875)"/>
<path d="M0 0 C0.66 0 1.32 0 2 0 C1.25 6.625 1.25 6.625 -1 10 C-2.46726798 6.18510326 -1.43336419 3.70988378 0 0 Z " fill="#2B2A2B" transform="translate(889,590)"/>
<path d="M0 0 C0.8125 1.625 0.8125 1.625 1 4 C-0.46818136 6.24609835 -2.15852858 8.02378677 -4 10 C-4 5.75354935 -2.18249194 3.61475228 0 0 Z " fill="#2A2A2A" transform="translate(179,275)"/>
<path d="M0 0 C0.66 0.33 1.32 0.66 2 1 C0.15794162 3.54379491 -1.72478134 5.83312509 -4 8 C-4.66 7.34 -5.32 6.68 -6 6 C-4.02 4.02 -2.04 2.04 0 0 Z " fill="#2D2D2C" transform="translate(256,187)"/>
<path d="M0 0 C0.33 0.66 0.66 1.32 1 2 C0.06421005 4.35981813 -0.93347808 6.69631264 -2 9 C-3.125 7.25 -3.125 7.25 -4 5 C-3.07451225 2.30066074 -2.57626463 1.28813232 0 0 Z " fill="#2A2A2A" transform="translate(873,638)"/>
<path d="M0 0 C0.33 0 0.66 0 1 0 C1 2.64 1 5.28 1 8 C-0.32 8.33 -1.64 8.66 -3 9 C-2.01 6.03 -1.02 3.06 0 0 Z " fill="#2B2B2A" transform="translate(154,320)"/>
<path d="M0 0 C0 0.99 0 1.98 0 3 C-0.66 3.66 -1.32 4.32 -2 5 C-2 5.99 -2 6.98 -2 8 C-2.99 8.495 -2.99 8.495 -4 9 C-4.66 8.34 -5.32 7.68 -6 7 C-4.02 4.69 -2.04 2.38 0 0 Z " fill="#333433" transform="translate(234,207)"/>
<path d="M0 0 C2.31 0.66 4.62 1.32 7 2 C6.67 2.66 6.34 3.32 6 4 C6.66 4.66 7.32 5.32 8 6 C6.35 5.67 4.7 5.34 3 5 C3 4.34 3 3.68 3 3 C2.34 3 1.68 3 1 3 C0.67 2.01 0.34 1.02 0 0 Z " fill="#2F2F2E" transform="translate(646,117)"/>
<path d="M0 0 C0 0.66 0 1.32 0 2 C0.66 2.33 1.32 2.66 2 3 C-1.3 2.67 -4.6 2.34 -8 2 C-4.77208445 -0.1519437 -3.71599191 -0.20086443 0 0 Z " fill="#3E3D3C" transform="translate(445,868)"/>
<path d="M0 0 C0.33 0 0.66 0 1 0 C1.33 3.63 1.66 7.26 2 11 C1.01 10.67 0.02 10.34 -1 10 C-0.67 6.7 -0.34 3.4 0 0 Z " fill="#3E3E3D" transform="translate(899,415)"/>
<path d="M0 0 C0.98120464 3.05263664 0.98120464 4.94736336 0 8 C-0.99 7.67 -1.98 7.34 -3 7 C-1.125 1.125 -1.125 1.125 0 0 Z " fill="#282828" transform="translate(170,290)"/>
<path d="M0 0 C0.33 0.99 0.66 1.98 1 3 C1.66 3 2.32 3 3 3 C2.34 4.32 1.68 5.64 1 7 C-2 3.25 -2 3.25 -2 1 C-1.34 0.67 -0.68 0.34 0 0 Z " fill="#2C2B2B" transform="translate(193,709)"/>
<path d="M0 0 C0 3.57575896 -1.08840607 5.05295935 -3 8 C-3.75 6.25 -3.75 6.25 -4 4 C-2.0625 1.75 -2.0625 1.75 0 0 Z " fill="#2F2F2D" transform="translate(852,680)"/>
<path d="M0 0 C0.66 0.33 1.32 0.66 2 1 C0.02 3.31 -1.96 5.62 -4 8 C-4.66 7.67 -5.32 7.34 -6 7 C-4.02 4.69 -2.04 2.38 0 0 Z " fill="#090909" transform="translate(673,597)"/>
<path d="M0 0 C0.66 0.33 1.32 0.66 2 1 C1.67 3.31 1.34 5.62 1 8 C0.01 7.67 -0.98 7.34 -2 7 C-1.34 4.69 -0.68 2.38 0 0 Z " fill="#1D1C1C" transform="translate(705,528)"/>
<path d="M0 0 C0.99 0 1.98 0 3 0 C3.33 1.98 3.66 3.96 4 6 C3.34 6 2.68 6 2 6 C1.67 6.66 1.34 7.32 1 8 C1.33 6.35 1.66 4.7 2 3 C1.34 3 0.68 3 0 3 C0 2.01 0 1.02 0 0 Z " fill="#1B1B1B" transform="translate(316,526)"/>
<path d="M0 0 C0.66 0.66 1.32 1.32 2 2 C1.625 5.125 1.625 5.125 1 8 C0.01 8 -0.98 8 -2 8 C-1.47731534 5.23723823 -0.89130413 2.6739124 0 0 Z " fill="#1B1C1B" transform="translate(321,411)"/>
<path d="M0 0 C2.18975773 3.28463659 2.99806563 6.20696275 4 10 C0.23087432 7.56830601 0.23087432 7.56830601 -0.8125 5 C-1 3 -1 3 0 0 Z " fill="#343433" transform="translate(878,341)"/>
<path d="M0 0 C2.97 0.99 5.94 1.98 9 3 C9 3.66 9 4.32 9 5 C6.03 4.01 3.06 3.02 0 2 C0 1.34 0 0.68 0 0 Z " fill="#F3F2F1" transform="translate(585,295)"/>
<path d="M0 0 C0 3 0 3 -2.5 5.6875 C-3.325 6.450625 -4.15 7.21375 -5 8 C-5 5 -5 5 -2.5 2.3125 C-1.675 1.549375 -0.85 0.78625 0 0 Z " fill="#201F20" transform="translate(186,267)"/>
<path d="M0 0 C0 1.32 0 2.64 0 4 C-1.98 4.66 -3.96 5.32 -6 6 C-3.84615385 0 -3.84615385 0 0 0 Z " fill="#222221" transform="translate(228,215)"/>
<path d="M0 0 C0.99 0.33 1.98 0.66 3 1 C3 1.66 3 2.32 3 3 C1.35 3.66 -0.3 4.32 -2 5 C-2.33 4.01 -2.66 3.02 -3 2 C-2.01 1.34 -1.02 0.68 0 0 Z " fill="#2D2C2C" transform="translate(300,155)"/>
<path d="M0 0 C2.97 0.99 5.94 1.98 9 3 C7.02 3.99 7.02 3.99 5 5 C4.67 4.01 4.34 3.02 4 2 C3.01 2.33 2.02 2.66 1 3 C0.67 2.01 0.34 1.02 0 0 Z " fill="#333333" transform="translate(661,123)"/>
<path d="M0 0 C0.99 0.33 1.98 0.66 3 1 C2.01 1.66 1.02 2.32 0 3 C0 2.01 0 1.02 0 0 Z " fill="#0E0E0E" transform="translate(336,837)"/>
<path d="M0 0 C3 1 3 1 3 1 Z " fill="#AAAAAA" transform="translate(464,875)"/>
<path d="M0 0 C3 1 3 1 3 1 Z " fill="#005500" transform="translate(583,871)"/>
<path d="M0 0 C3 1 3 1 3 1 Z " fill="#000000" transform="translate(433,870)"/>
<path d="M0 0 C0.66 0 1.32 0 2 0 C1.67 0.66 1.34 1.32 1 2 C0.67 1.34 0.34 0.68 0 0 Z " fill="#000000" transform="translate(813,738)"/>
<path d="" fill="#555555" transform="translate(0,0)"/>
<path d="" fill="#2A2A2A" transform="translate(0,0)"/>
<path d="M0 0 C3 1 3 1 3 1 Z " fill="#000000" transform="translate(574,96)"/>
<path d="M0 0 C2 1 2 1 2 1 Z " fill="#000000" transform="translate(550,876)"/>
<path d="M0 0 C2 1 2 1 2 1 Z " fill="#000000" transform="translate(592,870)"/>
<path d="M0 0 C2 1 2 1 2 1 Z " fill="#000000" transform="translate(418,867)"/>
<path d="M0 0 C2 1 2 1 2 1 Z " fill="#000000" transform="translate(620,863)"/>
<path d="" fill="#000000" transform="translate(0,0)"/>
<path d="" fill="#000000" transform="translate(0,0)"/>
<path d="" fill="#6A6A6A" transform="translate(0,0)"/>
<path d="" fill="#000000" transform="translate(0,0)"/>
<path d="" fill="#000000" transform="translate(0,0)"/>
<path d="" fill="#000000" transform="translate(0,0)"/>
<path d="" fill="#000000" transform="translate(0,0)"/>
<path d="" fill="#000000" transform="translate(0,0)"/>
<path d="" fill="#000000" transform="translate(0,0)"/>
<path d="" fill="#000000" transform="translate(0,0)"/>
<path d="" fill="#000000" transform="translate(0,0)"/>
<path d="M0 0 C2 1 2 1 2 1 Z " fill="#000000" transform="translate(734,160)"/>
<path d="M0 0 C2 1 2 1 2 1 Z " fill="#000000" transform="translate(411,104)"/>
<path d="" fill="#000000" transform="translate(0,0)"/>
<path d="" fill="#000000" transform="translate(0,0)"/>
<path d="" fill="#000000" transform="translate(0,0)"/>
<path d="" fill="#808000" transform="translate(0,0)"/>
<path d="" fill="#000000" transform="translate(0,0)"/>
<path d="" fill="#000000" transform="translate(0,0)"/>
<path d="" fill="#000000" transform="translate(0,0)"/>
<path d="" fill="#808080" transform="translate(0,0)"/>
<path d="" fill="#000000" transform="translate(0,0)"/>
<path d="" fill="#000000" transform="translate(0,0)"/>
<path d="" fill="#808080" transform="translate(0,0)"/>
<path d="" fill="#000000" transform="translate(0,0)"/>
<path d="" fill="#000000" transform="translate(0,0)"/>
<path d="" fill="#808080" transform="translate(0,0)"/>
<path d="" fill="#000000" transform="translate(0,0)"/>
<path d="" fill="#000000" transform="translate(0,0)"/>
<path d="" fill="#000000" transform="translate(0,0)"/>
<path d="" fill="#000000" transform="translate(0,0)"/>
<path d="" fill="#000000" transform="translate(0,0)"/>
<path d="" fill="#000000" transform="translate(0,0)"/>
<path d="" fill="#000000" transform="translate(0,0)"/>
<path d="" fill="#808080" transform="translate(0,0)"/>
<path d="" fill="#000000" transform="translate(0,0)"/>
<path d="" fill="#000000" transform="translate(0,0)"/>
<path d="" fill="#000000" transform="translate(0,0)"/>
<path d="" fill="#000000" transform="translate(0,0)"/>
<path d="" fill="#000000" transform="translate(0,0)"/>
<path d="" fill="#000000" transform="translate(0,0)"/>
<path d="" fill="#000000" transform="translate(0,0)"/>
<path d="" fill="#000000" transform="translate(0,0)"/>
<path d="" fill="#000000" transform="translate(0,0)"/>
<path d="" fill="#000000" transform="translate(0,0)"/>
<path d="" fill="#000000" transform="translate(0,0)"/>
<path d="" fill="#000000" transform="translate(0,0)"/>
<path d="" fill="#000000" transform="translate(0,0)"/>
<path d="" fill="#000000" transform="translate(0,0)"/>
<path d="" fill="#000000" transform="translate(0,0)"/>
<path d="" fill="#000000" transform="translate(0,0)"/>
<path d="" fill="#000000" transform="translate(0,0)"/>
<path d="" fill="#000000" transform="translate(0,0)"/>
<path d="" fill="#000000" transform="translate(0,0)"/>
<path d="" fill="#000000" transform="translate(0,0)"/>
<path d="" fill="#000000" transform="translate(0,0)"/>
<path d="" fill="#000000" transform="translate(0,0)"/>
<path d="" fill="#000000" transform="translate(0,0)"/>
<path d="" fill="#555555" transform="translate(0,0)"/>
<path d="" fill="#000000" transform="translate(0,0)"/>
<path d="" fill="#000000" transform="translate(0,0)"/>
<path d="" fill="#000000" transform="translate(0,0)"/>
<path d="" fill="#000000" transform="translate(0,0)"/>
<path d="" fill="#000000" transform="translate(0,0)"/>
<path d="" fill="#808080" transform="translate(0,0)"/>
<path d="" fill="#000000" transform="translate(0,0)"/>
<path d="" fill="#000000" transform="translate(0,0)"/>
<path d="" fill="#000000" transform="translate(0,0)"/>
<path d="" fill="#000000" transform="translate(0,0)"/>
<path d="" fill="#000000" transform="translate(0,0)"/>
<path d="" fill="#000000" transform="translate(0,0)"/>
<path d="" fill="#000000" transform="translate(0,0)"/>
<path d="" fill="#000000" transform="translate(0,0)"/>
<path d="" fill="#000000" transform="translate(0,0)"/>
<path d="" fill="#000000" transform="translate(0,0)"/>
<path d="" fill="#555555" transform="translate(0,0)"/>
<path d="" fill="#000000" transform="translate(0,0)"/>
<path d="" fill="#000000" transform="translate(0,0)"/>
<path d="" fill="#000000" transform="translate(0,0)"/>
<path d="" fill="#000000" transform="translate(0,0)"/>
<path d="" fill="#000000" transform="translate(0,0)"/>
<path d="" fill="#000000" transform="translate(0,0)"/>
<path d="" fill="#000000" transform="translate(0,0)"/>
<path d="" fill="#000000" transform="translate(0,0)"/>
<path d="" fill="#000000" transform="translate(0,0)"/>
<path d="" fill="#000000" transform="translate(0,0)"/>
<path d="" fill="#000000" transform="translate(0,0)"/>
<path d="" fill="#000000" transform="translate(0,0)"/>
<path d="" fill="#000000" transform="translate(0,0)"/>
<path d="" fill="#000000" transform="translate(0,0)"/>
<path d="" fill="#000000" transform="translate(0,0)"/>
<path d="" fill="#000000" transform="translate(0,0)"/>
<path d="" fill="#000000" transform="translate(0,0)"/>
<path d="" fill="#000000" transform="translate(0,0)"/>
<path d="" fill="#000000" transform="translate(0,0)"/>
<path d="" fill="#000000" transform="translate(0,0)"/>
<path d="" fill="#000000" transform="translate(0,0)"/>
<path d="" fill="#000000" transform="translate(0,0)"/>
<path d="" fill="#000000" transform="translate(0,0)"/>
<path d="" fill="#000000" transform="translate(0,0)"/>
<path d="" fill="#000000" transform="translate(0,0)"/>
<path d="" fill="#000000" transform="translate(0,0)"/>
<path d="" fill="#000000" transform="translate(0,0)"/>
<path d="" fill="#000000" transform="translate(0,0)"/>
<path d="" fill="#000000" transform="translate(0,0)"/>
<path d="" fill="#000000" transform="translate(0,0)"/>
<path d="" fill="#000000" transform="translate(0,0)"/>
<path d="" fill="#000000" transform="translate(0,0)"/>
<path d="" fill="#000000" transform="translate(0,0)"/>
<path d="" fill="#000000" transform="translate(0,0)"/>
<path d="" fill="#000000" transform="translate(0,0)"/>
<path d="" fill="#000000" transform="translate(0,0)"/>
<path d="" fill="#000000" transform="translate(0,0)"/>
<path d="" fill="#000000" transform="translate(0,0)"/>
<path d="" fill="#000000" transform="translate(0,0)"/>
<path d="" fill="#000000" transform="translate(0,0)"/>
<path d="" fill="#000000" transform="translate(0,0)"/>
<path d="" fill="#000000" transform="translate(0,0)"/>
<path d="" fill="#000000" transform="translate(0,0)"/>
<path d="" fill="#000000" transform="translate(0,0)"/>
<path d="" fill="#000000" transform="translate(0,0)"/>
<path d="" fill="#000000" transform="translate(0,0)"/>
<path d="" fill="#000000" transform="translate(0,0)"/>
<path d="" fill="#000000" transform="translate(0,0)"/>
<path d="" fill="#000000" transform="translate(0,0)"/>
<path d="" fill="#000000" transform="translate(0,0)"/>
<path d="" fill="#000000" transform="translate(0,0)"/>
<path d="" fill="#000000" transform="translate(0,0)"/>
<path d="" fill="#000000" transform="translate(0,0)"/>
<path d="" fill="#000000" transform="translate(0,0)"/>
<path d="" fill="#000000" transform="translate(0,0)"/>
<path d="" fill="#000000" transform="translate(0,0)"/>
<path d="" fill="#000000" transform="translate(0,0)"/>
<path d="" fill="#000000" transform="translate(0,0)"/>
<path d="" fill="#000000" transform="translate(0,0)"/>
<path d="" fill="#000000" transform="translate(0,0)"/>
<path d="" fill="#000000" transform="translate(0,0)"/>
<path d="" fill="#000000" transform="translate(0,0)"/>
<path d="" fill="#000000" transform="translate(0,0)"/>
<path d="" fill="#000000" transform="translate(0,0)"/>
<path d="" fill="#000000" transform="translate(0,0)"/>
<path d="" fill="#000000" transform="translate(0,0)"/>
<path d="" fill="#000000" transform="translate(0,0)"/>
<path d="" fill="#000000" transform="translate(0,0)"/>
<path d="" fill="#000000" transform="translate(0,0)"/>
<path d="" fill="#000000" transform="translate(0,0)"/>
<path d="" fill="#000000" transform="translate(0,0)"/>
<path d="" fill="#000000" transform="translate(0,0)"/>
<path d="" fill="#000000" transform="translate(0,0)"/>
<path d="" fill="#000000" transform="translate(0,0)"/>
<path d="" fill="#000000" transform="translate(0,0)"/>
<path d="" fill="#000000" transform="translate(0,0)"/>
<path d="" fill="#000000" transform="translate(0,0)"/>
<path d="" fill="#000000" transform="translate(0,0)"/>
<path d="" fill="#000000" transform="translate(0,0)"/>
<path d="" fill="#000000" transform="translate(0,0)"/>
<path d="" fill="#808080" transform="translate(0,0)"/>
<path d="" fill="#000000" transform="translate(0,0)"/>
<path d="" fill="#000000" transform="translate(0,0)"/>
<path d="" fill="#000000" transform="translate(0,0)"/>
<path d="" fill="#000000" transform="translate(0,0)"/>
<path d="" fill="#000000" transform="translate(0,0)"/>
<path d="" fill="#000000" transform="translate(0,0)"/>
<path d="" fill="#000000" transform="translate(0,0)"/>
<path d="" fill="#000000" transform="translate(0,0)"/>
<path d="" fill="#000000" transform="translate(0,0)"/>
<path d="" fill="#000000" transform="translate(0,0)"/>
<path d="" fill="#000000" transform="translate(0,0)"/>
<path d="" fill="#000000" transform="translate(0,0)"/>
<path d="" fill="#000000" transform="translate(0,0)"/>
<path d="" fill="#000000" transform="translate(0,0)"/>
<path d="" fill="#000000" transform="translate(0,0)"/>
<path d="" fill="#000000" transform="translate(0,0)"/>
<path d="" fill="#000000" transform="translate(0,0)"/>
<path d="" fill="#000000" transform="translate(0,0)"/>
<path d="" fill="#000000" transform="translate(0,0)"/>
<path d="" fill="#000000" transform="translate(0,0)"/>
<path d="" fill="#000000" transform="translate(0,0)"/>
</svg>
