<?xml version="1.0" encoding="UTF-8"?>
<svg version="1.1" xmlns="http://www.w3.org/2000/svg" width="1024" height="1024">
<path d="M0 0 C0.98274902 0.45101074 1.96549805 0.90202148 2.97802734 1.36669922 C31.31041794 14.42923621 57.94132222 30.07904585 82.22265625 49.75 C83.91050603 51.19175691 83.91050603 51.19175691 86 51 C86.9590625 52.2065625 86.9590625 52.2065625 87.9375 53.4375 C90.33529513 56.43649157 93.00222771 58.72940031 96 61.125 C110.75607822 72.96142638 125.13727489 86.41181753 136.84375 101.28515625 C138.79372678 103.74029005 140.81624319 106.11258302 142.875 108.4765625 C152.47458418 119.54881016 161.10362049 131.51935716 168.73046875 144.03125 C169.9793957 146.12010156 169.9793957 146.12010156 172 148 C174.80944257 152.5815525 177.38505001 157.30520178 180 162 C180.46825195 162.83805176 180.93650391 163.67610352 181.41894531 164.53955078 C209.5145064 214.95924646 227.50582522 270.28597888 232 328 C232.05784668 328.70656738 232.11569336 329.41313477 232.17529297 330.14111328 C235.45540595 371.63405577 231.75782666 413.58772567 222 454 C221.80825195 454.80663086 221.61650391 455.61326172 221.41894531 456.44433594 C213.86961924 487.85005217 201.2507714 517.11901483 187 546 C186.62149902 546.77601563 186.24299805 547.55203125 185.85302734 548.3515625 C184.20180305 551.71135064 182.52811749 554.93544013 180.375 558 C178.46074755 560.79261267 176.61127031 563.60673569 174.84765625 566.49609375 C165.93517157 581.09645483 156.07184751 594.95034436 145 608 C144.14114193 609.0318991 143.28310767 610.06448427 142.42578125 611.09765625 C129.14924657 627.03380688 114.93742505 642.68326053 99 656 C97.66388672 657.16982422 97.66388672 657.16982422 96.30078125 658.36328125 C77.20931079 674.99789097 55.96533464 689.43504235 34 702 C33.17918945 702.47518066 32.35837891 702.95036133 31.51269531 703.43994141 C-2.24346757 722.85248992 -38.82125714 735.66021568 -76.67871094 744.40258789 C-79.00360334 744.9142296 -79.00360334 744.9142296 -81 746 C-82.42003221 746.18519784 -83.84611165 746.32508493 -85.2734375 746.44140625 C-89.34236014 746.81481543 -93.37069479 747.31301004 -97.4140625 747.90234375 C-163.63337328 757.47822068 -228.45298482 752.692481 -292.06933594 731.84448242 C-295.0353125 730.98982456 -297.94820535 730.44663872 -301 730 C-301 729.34 -301 728.68 -301 728 C-301.61020996 727.83201904 -302.22041992 727.66403809 -302.84912109 727.4909668 C-309.0289695 725.72318216 -314.79408788 723.50440671 -320.625 720.8125 C-321.90890625 720.22855469 -321.90890625 720.22855469 -323.21875 719.6328125 C-329.54725325 716.73146605 -335.79470261 713.68062084 -341.97509766 710.47583008 C-344.94220776 708.95048474 -347.69936395 707.59411449 -351 707 C-351 706.34 -351 705.68 -351 705 C-351.97839844 704.65388672 -351.97839844 704.65388672 -352.9765625 704.30078125 C-356.9772165 702.57956964 -360.63387859 700.40797328 -364.375 698.1875 C-365.46941406 697.54844727 -365.46941406 697.54844727 -366.5859375 696.89648438 C-370.12104926 694.81013717 -373.5361625 692.66080553 -376.8515625 690.23828125 C-379.81876863 687.89821577 -379.81876863 687.89821577 -383 687 C-383 686.34 -383 685.68 -383 685 C-383.66644531 684.78601563 -384.33289063 684.57203125 -385.01953125 684.3515625 C-389.00856911 682.54264101 -392.22674977 680.03573264 -395.6875 677.375 C-396.75750244 676.56095703 -396.75750244 676.56095703 -397.84912109 675.73046875 C-399.90533617 674.16116615 -401.95430608 672.58298369 -404 671 C-404.91652344 670.29101562 -405.83304688 669.58203125 -406.77734375 668.8515625 C-424.69980773 654.7163746 -442.11860082 639.33810075 -457 622 C-457.88354655 620.99168947 -458.76770766 619.98391726 -459.65234375 618.9765625 C-469.90835834 607.23698428 -479.38013783 594.9437031 -488.25 582.125 C-488.71607666 581.45291504 -489.18215332 580.78083008 -489.66235352 580.08837891 C-491.48703579 577.41227027 -492.97037601 575.08887197 -494 572 C-494.66 571.67 -495.32 571.34 -496 571 C-497.22545831 569.05668743 -498.37900428 567.06788784 -499.5 565.0625 C-499.8503833 564.43625732 -500.2007666 563.81001465 -500.56176758 563.16479492 C-501.32005347 561.80825587 -502.07623984 560.45054156 -502.83056641 559.09179688 C-503.96837258 557.05657281 -505.12747233 555.03509356 -506.29296875 553.015625 C-511.47957935 543.95725883 -516.20230981 534.70759234 -520.75 525.3125 C-521.28069092 524.22106689 -521.81138184 523.12963379 -522.3581543 522.00512695 C-528.74446242 508.66317708 -533.89880704 494.99923657 -538.4375 480.9375 C-538.67300568 480.20933075 -538.90851135 479.4811615 -539.15115356 478.73092651 C-546.79407071 454.95371368 -552.06020175 430.81772319 -555 406 C-555.17571533 404.56068115 -555.17571533 404.56068115 -555.35498047 403.09228516 C-563.92592159 329.46879237 -550.37145835 253.46819775 -518 187 C-517.50532227 185.97632324 -517.01064453 184.95264648 -516.50097656 183.89794922 C-505.72326575 161.81336144 -492.28076284 139.4372341 -476.2265625 120.72265625 C-473.8517208 118.1481228 -473.8517208 118.1481228 -473 115 C-471.89884751 113.86443649 -470.78978022 112.73578622 -469.6484375 111.640625 C-464.71324915 106.72882616 -460.18906147 101.38025347 -455.625 96.125 C-445.36776359 84.37537122 -434.90365894 72.93695061 -422.68359375 63.19140625 C-420.20869136 61.17041609 -417.88935142 59.06281285 -415.5625 56.875 C-404.09728333 46.43706675 -391.09329405 37.27822127 -378 29 C-377.01644531 28.37222656 -376.03289062 27.74445313 -375.01953125 27.09765625 C-360.83834905 18.20138667 -346.09574224 10.22916436 -331 3 C-329.91485107 2.47567383 -328.82970215 1.95134766 -327.71166992 1.41113281 C-318.86339545 -2.82277766 -309.90997291 -6.53813227 -300.6875 -9.875 C-299.98712616 -10.12912659 -299.28675232 -10.38325317 -298.56515503 -10.64508057 C-271.35993851 -20.44857681 -243.54901414 -26.65298605 -215 -31 C-213.36393799 -31.26683594 -213.36393799 -31.26683594 -211.69482422 -31.5390625 C-141.59231588 -42.76437281 -64.05007557 -29.69945885 0 0 Z " fill="#388E53" transform="translate(673,125)"/>
<path d="M0 0 C0.67224609 0.21849609 1.34449219 0.43699219 2.03710938 0.66210938 C50.11938628 16.33587065 90.12336997 53.54456842 113.16357422 97.97924805 C137.12915703 145.27613143 140.96948699 200.9538916 124.859375 251.45947266 C115.44876204 279.27959721 99.85680239 305.80826901 78.69921875 326.30078125 C76.86333496 328.06735887 76.86333496 328.06735887 75 330.5625 C65.08621733 342.64492263 50.21765849 351.9157112 37 360 C36.01515625 360.61617187 35.0303125 361.23234375 34.015625 361.8671875 C-9.1241464 388.10083227 -64.37261359 394.22165252 -113.10107422 382.75146484 C-128.34081831 378.8009905 -143.4099689 373.71764046 -157.17724609 366.01367188 C-159.08810938 364.95100052 -161.01958485 363.93517786 -162.95703125 362.921875 C-186.97859293 350.15161666 -208.41220015 331.30016448 -224.75097656 309.65039062 C-225.84914547 308.19933085 -226.96609763 306.76252664 -228.0859375 305.328125 C-257.9271451 266.10825216 -270.94511401 213.12127269 -264.8125 164.4375 C-261.35985061 139.67683322 -254.10306338 115.92758165 -242 94 C-241.43176514 92.95851807 -241.43176514 92.95851807 -240.85205078 91.89599609 C-235.12500337 81.49064777 -228.67820659 72.0579303 -221 63 C-220.29617188 62.16597656 -219.59234375 61.33195312 -218.8671875 60.47265625 C-216.63507001 57.92227106 -214.3345063 55.45719057 -212 53 C-211.46342773 52.42556152 -210.92685547 51.85112305 -210.37402344 51.25927734 C-181.97294448 21.02011654 -145.48252505 1.61471676 -105 -7 C-103.80600586 -7.26466064 -103.80600586 -7.26466064 -102.58789062 -7.53466797 C-69.10341197 -14.63850291 -32.10692612 -10.94747172 0 0 Z " fill="#F8F2DF" transform="translate(577,287)"/>
<path d="M0 0 C1.39275517 1.16662518 2.76855982 2.35384319 4.125 3.5625 C4.78757812 4.13226563 5.45015625 4.70203125 6.1328125 5.2890625 C15.22308105 13.66636881 26.60453482 29.64697103 27.27734375 42.46484375 C27.22707031 43.15707031 27.17679688 43.84929687 27.125 44.5625 C19.02880661 49.0392187 10.90539658 52.52500437 2.125 55.4375 C1.22950439 55.735354 0.33400879 56.03320801 -0.58862305 56.34008789 C-4.99962537 57.7651172 -9.2595236 58.97038296 -13.875 59.5625 C-14.67164063 58.13357422 -14.67164063 58.13357422 -15.484375 56.67578125 C-16.19768231 55.40872221 -16.91123716 54.14180249 -17.625 52.875 C-17.97304688 52.24916016 -18.32109375 51.62332031 -18.6796875 50.97851562 C-23.12620525 43.11476664 -28.03083554 37.48132481 -36.875 34.5625 C-48.62485333 33.40765727 -57.67323585 34.87396055 -67 42.375 C-81.22162773 56.01524043 -84.25970744 75.81660481 -85.875 94.5625 C-85.34132813 94.18738281 -84.80765625 93.81226563 -84.2578125 93.42578125 C-71.12607317 84.40623019 -58.67816642 79.9653858 -42.625 80.125 C-40.99147583 80.13744751 -40.99147583 80.13744751 -39.32495117 80.15014648 C-17.53214075 80.60352471 0.05826989 89.04077838 15.25 104.625 C32.66268998 124.49788166 35.59149916 150.10055816 34.125 175.5625 C31.80296869 196.23801778 22.65842452 214.78232804 8.125 229.5625 C7.43792969 230.26246094 6.75085938 230.96242188 6.04296875 231.68359375 C-3.56329716 240.82647763 -15.04819636 246.50849913 -27.875 249.5625 C-29.23238281 249.89894531 -29.23238281 249.89894531 -30.6171875 250.2421875 C-51.8576858 254.63469848 -74.95010134 251.60541604 -93.5625 240.3125 C-99.1511532 236.57046147 -104.0208085 232.19946434 -108.875 227.5625 C-109.48988281 227.02238281 -110.10476563 226.48226562 -110.73828125 225.92578125 C-127.04474331 211.04379173 -133.89974799 187.52658058 -137.5625 166.5625 C-137.68206055 165.88783691 -137.80162109 165.21317383 -137.92480469 164.51806641 C-140.04115148 151.44885817 -140.08135768 138.14363878 -140.0625 124.9375 C-140.06189575 124.14946991 -140.0612915 123.36143982 -140.06066895 122.54953003 C-140.03491373 110.13190203 -139.71641791 97.86447262 -137.875 85.5625 C-137.68164062 84.2638501 -137.68164062 84.2638501 -137.484375 82.93896484 C-133.85098202 59.6120773 -125.98920789 36.34369492 -109.875 18.5625 C-109.14023437 17.675625 -108.40546875 16.78875 -107.6484375 15.875 C-80.88767142 -15.50570289 -34.13281877 -25.55585406 0 0 Z " fill="#112118" transform="translate(563.875,353.4375)"/>
<path d="M0 0 C1.02351563 0.01804688 2.04703125 0.03609375 3.1015625 0.0546875 C3.85179687 0.07789063 4.60203125 0.10109375 5.375 0.125 C4.44433116 3.47789433 3.79196325 4.85211431 0.83496094 6.78735352 C-0.22948242 7.27131592 -1.29392578 7.75527832 -2.390625 8.25390625 C-3.58010742 8.80771973 -4.76958984 9.3615332 -5.99511719 9.93212891 C-6.94420959 10.36105438 -6.94420959 10.36105438 -7.91247559 10.79864502 C-11.24053534 12.30597021 -14.54017062 13.87353381 -17.84375 15.43359375 C-18.84060822 15.90194641 -18.84060822 15.90194641 -19.85760498 16.37976074 C-35.78655407 23.88777282 -50.52492855 32.59608092 -64.625 43.125 C-66.00714136 44.13763542 -67.38995697 45.14935119 -68.7734375 46.16015625 C-77.36281166 52.47563337 -85.58179404 59.13042284 -93.625 66.125 C-94.33785156 66.73730469 -95.05070313 67.34960938 -95.78515625 67.98046875 C-108.08276311 78.61145949 -120.31859638 89.66974001 -130.85546875 102.078125 C-133.02834935 104.59156746 -135.29886523 107.00555248 -137.5625 109.4375 C-141.60359812 113.8692783 -145.19775884 118.44659273 -148.6484375 123.34765625 C-150.62873994 126.13025513 -152.71193116 128.80745267 -154.8125 131.5 C-169.6582907 151.26887937 -182.10362333 173.77403315 -192.625 196.125 C-193.05748047 197.02766602 -193.48996094 197.93033203 -193.93554688 198.86035156 C-210.05573455 232.72601332 -220.51975772 268.30829714 -226.19140625 305.35595703 C-226.71179486 308.67929463 -227.28678416 311.99126111 -227.87890625 315.30249023 C-228.99198652 322.06683444 -229.8578673 328.76366585 -230.19140625 335.61328125 C-230.25174042 336.82058395 -230.25174042 336.82058395 -230.31329346 338.05227661 C-230.82046157 349.19563124 -230.86905038 360.3468793 -230.875 371.5 C-230.87567474 372.64663116 -230.87634949 373.79326233 -230.87704468 374.97463989 C-230.8606511 392.56679156 -230.29940019 409.71139329 -227.625 427.125 C-227.36759033 428.87731934 -227.36759033 428.87731934 -227.10498047 430.66503906 C-224.86491145 445.65088061 -221.83291771 460.32158835 -217.86035156 474.94165039 C-216.27937075 480.86506434 -215.24391123 485.99021808 -215.625 492.125 C-216.945 492.455 -218.265 492.785 -219.625 493.125 C-225.89346118 486.57225486 -231.01742361 479.92563723 -235.625 472.125 C-236.22699219 471.15820312 -236.82898438 470.19140625 -237.44921875 469.1953125 C-258.00477203 435.0889381 -267.91631171 395.31253117 -272.625 356.125 C-272.77710938 354.866875 -272.92921875 353.60875 -273.0859375 352.3125 C-277.48806315 304.72195245 -268.77114982 256.60437212 -251.625 212.3125 C-251.33803253 211.5684491 -251.05106506 210.82439819 -250.75540161 210.05780029 C-245.36310572 196.17363467 -239.01784047 182.80806691 -231.5 169.9375 C-231.04826416 169.16051758 -230.59652832 168.38353516 -230.13110352 167.58300781 C-224.86737076 158.65889891 -219.06774279 150.09548438 -213.24707031 141.52880859 C-211.77725158 139.3506275 -210.33120977 137.15969124 -208.8984375 134.95703125 C-204.70184258 128.51462467 -200.33979814 122.26416222 -195.625 116.1875 C-195.15553955 115.57720947 -194.6860791 114.96691895 -194.20239258 114.33813477 C-193.05937442 112.89322694 -191.84793531 111.50292538 -190.625 110.125 C-189.965 110.125 -189.305 110.125 -188.625 110.125 C-188.22250282 109.23550911 -188.22250282 109.23550911 -187.81187439 108.32804871 C-186.61613972 106.10855376 -185.40775271 104.65427725 -183.63500977 102.8762207 C-183.03000137 102.26490799 -182.42499298 101.65359528 -181.801651 101.02375793 C-181.14652023 100.37267563 -180.49138947 99.72159332 -179.81640625 99.05078125 C-179.13505112 98.36751266 -178.45369598 97.68424408 -177.75169373 96.98027039 C-176.30575346 95.53296944 -174.85728566 94.0881899 -173.40649414 92.64575195 C-171.21989497 90.46973815 -169.04401227 88.28343067 -166.86914062 86.09570312 C-159.42597457 78.64528704 -151.94107623 71.6008619 -143.625 65.125 C-142.4805894 64.17930028 -141.3404441 63.22838415 -140.20703125 62.26953125 C-132.32177047 55.62989699 -124.85549435 49.6323579 -115.7265625 44.81640625 C-112.86534369 43.25606904 -110.09328442 41.60727645 -107.31713867 39.90332031 C-99.62853308 35.18569818 -91.77767278 31.01048824 -83.64892578 27.10449219 C-81.66129116 26.14256335 -79.68778596 25.15571388 -77.71484375 24.1640625 C-61.55097956 16.15744022 -44.4006739 10.48179943 -27.1875 5.1875 C-26.27145996 4.90511475 -25.35541992 4.62272949 -24.41162109 4.33178711 C-16.37425254 1.92264384 -8.44851844 -0.19647717 0 0 Z " fill="#44A261" transform="translate(426.625,139.875)"/>
<path d="M0 0 C10.33029872 6.68218623 17.0340691 15.26738784 19.85058594 27.3371582 C21.88696899 38.52301551 20.78921064 49.77546768 14.94921875 59.609375 C8.8149925 68.46043127 0.93609153 75.26156553 -9.765625 77.4453125 C-21.31426198 78.75623886 -31.30050474 76.91585226 -40.640625 69.7578125 C-49.84179783 60.91570983 -52.78986742 49.1804767 -53.140625 36.7578125 C-52.80064045 25.41592795 -48.57613845 15.15816451 -41.10546875 6.52734375 C-39.40849878 4.96677326 -37.69451649 3.70620673 -35.765625 2.4453125 C-35.0953125 1.96191406 -34.425 1.47851562 -33.734375 0.98046875 C-24.44405697 -4.7623477 -9.77397719 -4.81958185 0 0 Z " fill="#F8F1DF" transform="translate(530.765625,480.5546875)"/>
<path d="M0 0 C3.0955902 2.55386192 3.86858672 4.17866701 4.5 8.125 C1.89651277 28.30202605 -14.4439085 46.53794873 -30.01953125 58.55859375 C-34.46852408 61.65621598 -39.4714388 63.92489088 -45 63 C-48.04509362 60.83329877 -48.89599362 59.60721374 -49.53125 55.8984375 C-49.37605069 38.39971561 -40.31276657 25.18214894 -28.375 12.875 C-20.16140713 5.08321789 -11.79681072 -1.33189798 0 0 Z " fill="#99D0A2" transform="translate(264,249)"/>
<path d="M0 0 C3.1959228 1.35708517 4.7784812 2.67083304 6.69140625 5.5546875 C7.16126953 6.25207031 7.63113281 6.94945312 8.11523438 7.66796875 C8.83163086 8.76044922 8.83163086 8.76044922 9.5625 9.875 C10.5215139 11.3103113 11.48113157 12.7452194 12.44140625 14.1796875 C12.88943604 14.85467285 13.33746582 15.5296582 13.79907227 16.22509766 C14.70107773 17.55821002 15.65177176 18.85858396 16.625 20.140625 C25.09537544 31.5948827 31.30776943 45.46124536 38 58 C38.40299316 58.67466309 38.80598633 59.34932617 39.22119141 60.04443359 C40.17512268 62.43972812 39.85247843 63.6130604 39 66 C37.06074205 62.45929322 35.12390879 58.91726567 33.1875 55.375 C32.64029297 54.37597656 32.09308594 53.37695312 31.52929688 52.34765625 C26.98696352 44.03380974 26.98696352 44.03380974 25.23828125 40.3515625 C24.22254023 37.8683368 24.22254023 37.8683368 22 37 C21.26776389 35.31648278 20.54048055 33.63049069 19.84814453 31.93017578 C18.51578793 28.89804818 16.74091077 26.2097122 14.9375 23.4375 C14.55408447 22.84614258 14.17066895 22.25478516 13.77563477 21.64550781 C10.38069424 16.46120338 6.78714239 11.42272457 3.09936523 6.44311523 C0 2.21021153 0 2.21021153 0 0 Z " fill="#347845" transform="translate(827,251)"/>
<path d="M0 0 C0.66 0 1.32 0 2 0 C2.33 4.95 2.66 9.9 3 15 C3.33 15 3.66 15 4 15 C4.33 30.18 4.66 45.36 5 61 C4.67 61 4.34 61 4 61 C3.67 58.36 3.34 55.72 3 53 C2.34 53.99 1.68 54.98 1 56 C-0.04165691 43.84185567 -0.11908399 31.75795232 -0.0625 19.5625 C-0.05747031 17.65560015 -0.05291003 15.74869899 -0.04882812 13.84179688 C-0.03794957 9.22783178 -0.02076764 4.61393075 0 0 Z " fill="#4B935C" transform="translate(116,465)"/>
<path d="M0 0 C0.33 0 0.66 0 1 0 C1.06058594 1.07121094 1.12117187 2.14242188 1.18359375 3.24609375 C1.26798537 4.64324391 1.35263406 6.04037857 1.4375 7.4375 C1.47681641 8.14455078 1.51613281 8.85160156 1.55664062 9.58007812 C1.47624438 13.08690419 1.47624438 13.08690419 3 16 C3.10047627 17.94582727 3.13081734 19.89533134 3.1328125 21.84375 C3.13571289 23.67353394 3.13571289 23.67353394 3.13867188 25.5402832 C3.13416016 26.84698975 3.12964844 28.15369629 3.125 29.5 C3.12306641 30.81379639 3.12113281 32.12759277 3.11914062 33.48120117 C3.07687841 43.02130816 2.77064997 52.49072986 2 62 C1.34 62 0.68 62 0 62 C0 64.64 0 67.28 0 70 C-0.33 70 -0.66 70 -1 70 C-0.67 46.9 -0.34 23.8 0 0 Z " fill="#307842" transform="translate(903,455)"/>
<path d="M0 0 C5.80239614 -0.04934656 11.60467081 -0.08569402 17.40722656 -0.10986328 C19.38218309 -0.11993627 21.35712466 -0.13359521 23.33203125 -0.15087891 C26.16670418 -0.17507039 29.00118038 -0.18646991 31.8359375 -0.1953125 C32.72243988 -0.20563507 33.60894226 -0.21595764 34.52230835 -0.22659302 C36.68285952 -0.2269907 38.84293718 -0.12272534 41 0 C41.66 0.66 42.32 1.32 43 2 C40.87320577 4.12679423 36.31337475 3.17098822 33.47607422 3.18945312 C32.30834473 3.18880859 31.14061523 3.18816406 29.9375 3.1875 C28.1743042 3.1884668 28.1743042 3.1884668 26.37548828 3.18945312 C17.43521035 3.1354852 8.81475053 2.49131731 0 1 C0 0.67 0 0.34 0 0 Z " fill="#367C47" transform="translate(478,875)"/>
<path d="M0 0 C0.33 0 0.66 0 1 0 C0.60408749 6.80592464 -2.19151153 11.9324882 -5.375 17.875 C-5.87 18.83664062 -6.365 19.79828125 -6.875 20.7890625 C-10.61666964 27.87222321 -10.61666964 27.87222321 -14 29 C-13.67 28.0925 -13.34 27.185 -13 26.25 C-11.80394277 22.92954193 -11.80394277 22.92954193 -12 19 C-11.01 18.67 -10.02 18.34 -9 18 C-7.26624324 15.0659501 -6.10693769 12.53468843 -5.4375 9.1875 C-5.293125 8.465625 -5.14875 7.74375 -5 7 C-4.34 6.67 -3.68 6.34 -3 6 C-1.95191959 4.02477154 -0.9479589 2.02518491 0 0 Z " fill="#3C7E4F" transform="translate(869,646)"/>
<path d="M0 0 C0.66 0.33 1.32 0.66 2 1 C2.99 0.67 3.98 0.34 5 0 C3.650314 2.87847725 2.11165504 5.34669074 0.1875 7.875 C-0.3384375 8.56722656 -0.864375 9.25945312 -1.40625 9.97265625 C-2.83590235 11.79125814 -4.30658826 13.55706219 -5.8125 15.3125 C-8.15007563 17.86085624 -8.15007563 17.86085624 -9 21 C-9.66 20.67 -10.32 20.34 -11 20 C-11 15.03142397 -9.66270377 13.8330647 -6.625 10 C-2.86699679 5.27572797 -2.86699679 5.27572797 0 0 Z " fill="#3C9354" transform="translate(200,240)"/>
<path d="M0 0 C4.724312 1.4107823 8.89491716 3.43051445 13.1875 5.8125 C19.33949704 9.16605231 25.56532706 12.21743873 32 15 C32 15.33 32 15.66 32 16 C26.23294244 15.50439349 22.07608182 13.83807821 17 11.125 C15.6468522 10.41731925 14.2926921 9.71157056 12.9375 9.0078125 C12.28467041 8.6662915 11.63184082 8.32477051 10.95922852 7.97290039 C9.03109047 7.01543869 7.084262 6.18757873 5.08984375 5.37890625 C2 4 2 4 0.5625 1.8125 C0.376875 1.214375 0.19125 0.61625 0 0 Z " fill="#327946" transform="translate(321,828)"/>
<path d="M0 0 C0.66723633 1.74975586 0.66723633 1.74975586 1 4 C-0.0480957 5.96704102 -0.0480957 5.96704102 -1.67578125 8.00390625 C-2.25650391 8.74447266 -2.83722656 9.48503906 -3.43554688 10.24804688 C-4.05494141 11.01181641 -4.67433594 11.77558594 -5.3125 12.5625 C-6.51739216 14.0842673 -7.72183744 15.60638856 -8.92578125 17.12890625 C-9.46630127 17.79994385 -10.00682129 18.47098145 -10.5637207 19.16235352 C-11.7817638 20.72077786 -12.90282665 22.35423997 -14 24 C-14.99 23.67 -15.98 23.34 -17 23 C-14.46652752 18.21455199 -12.02754702 14.70958278 -8 11 C-5.86095443 9.20802605 -5.86095443 9.20802605 -5.5 6.9375 C-5.335 6.298125 -5.17 5.65875 -5 5 C-4.34 4.67 -3.68 4.34 -3 4 C-2.67 3.01 -2.34 2.02 -2 1 C-1.34 0.67 -0.68 0.34 0 0 Z " fill="#347643" transform="translate(835,706)"/>
<path d="M0 0 C1.61230751 0.03753891 1.61230751 0.03753891 3.25718689 0.07583618 C6.66008997 0.15741904 10.06235799 0.25424539 13.46484375 0.3515625 C15.78448002 0.40986516 18.10414167 0.46716699 20.42382812 0.5234375 C26.08367841 0.66290513 31.74308739 0.81485986 37.40234375 0.9765625 C37.40234375 1.3065625 37.40234375 1.6365625 37.40234375 1.9765625 C8.69234375 2.4715625 8.69234375 2.4715625 -20.59765625 2.9765625 C-20.59765625 2.6465625 -20.59765625 2.3165625 -20.59765625 1.9765625 C-13.55352864 0.10790755 -7.26228928 -0.22803541 0 0 Z " fill="#1A7437" transform="translate(496.59765625,91.0234375)"/>
<path d="M0 0 C-1.94614179 3.89228357 -7.39657152 4.98742083 -11.25 6.625 C-12.20519531 7.04523437 -13.16039062 7.46546875 -14.14453125 7.8984375 C-15.07136719 8.29546875 -15.99820313 8.6925 -16.953125 9.1015625 C-17.80036133 9.46588379 -18.64759766 9.83020508 -19.52050781 10.20556641 C-22.15372142 11.04925261 -24.25302388 11.14919875 -27 11 C-25.68 10.34 -24.36 9.68 -23 9 C-23 8.34 -23 7.68 -23 7 C-21.41701974 6.5196682 -19.83360022 6.04078388 -18.25 5.5625 C-16.92742188 5.16224609 -16.92742188 5.16224609 -15.578125 4.75390625 C-13.39434165 4.11531506 -11.21164502 3.53224167 -9 3 C-9 2.34 -9 1.68 -9 1 C-2.25 -1.125 -2.25 -1.125 0 0 Z " fill="#337843" transform="translate(684,838)"/>
<path d="M0 0 C0.83595703 0.00451172 1.67191406 0.00902344 2.53320312 0.01367188 C4.58466649 0.02539452 6.63609273 0.04332797 8.6875 0.0625 C8.6875 1.0525 8.6875 2.0425 8.6875 3.0625 C6.16659222 3.0897367 3.64598543 3.10945207 1.125 3.125 C0.06829102 3.13756836 0.06829102 3.13756836 -1.00976562 3.15039062 C-5.55274798 3.17132603 -9.83034892 2.81050682 -14.3125 2.0625 C-14.3125 1.7325 -14.3125 1.4025 -14.3125 1.0625 C-9.54157044 -0.17152862 -4.88780554 -0.05015112 0 0 Z " fill="#ECEAD9" transform="translate(512.3125,671.9375)"/>
<path d="M0 0 C0.33 0 0.66 0 1 0 C1.51941561 6.10313344 0.11313722 10.70539436 -3 16 C-3.66 16.33 -4.32 16.66 -5 17 C-5.33 14.36 -5.66 11.72 -6 9 C-5.34 8.67 -4.68 8.34 -4 8 C-3.27306096 6.02111039 -2.60183749 4.02045442 -2 2 C-1.34 2 -0.68 2 0 2 C0 1.34 0 0.68 0 0 Z " fill="#2D7841" transform="translate(886,601)"/>
<path d="M0 0 C0.33 0 0.66 0 1 0 C1.34153092 3.29086844 1.67166646 6.58279077 2 9.875 C2.14308594 11.25171875 2.14308594 11.25171875 2.2890625 12.65625 C2.89410312 18.79309053 3.12065893 24.83466375 3 31 C2.67 31 2.34 31 2 31 C2 28.69 2 26.38 2 24 C1.34 24 0.68 24 0 24 C0 16.08 0 8.16 0 0 Z " fill="#22773D" transform="translate(118,507)"/>
<path d="M0 0 C0.66 0.66 1.32 1.32 2 2 C0.02 2.33 -1.96 2.66 -4 3 C-4 2.34 -4 1.68 -4 1 C-4.99 1.495 -4.99 1.495 -6 2 C-6.33 2.99 -6.66 3.98 -7 5 C-9 4 -9 4 -10 3 C-10.33 3.66 -10.66 4.32 -11 5 C-13.96175123 4.38722388 -15.38058783 3.74627478 -18 2 C-15.75256955 1.46818825 -13.50192898 0.94992874 -11.25 0.4375 C-9.99703125 0.14746094 -8.7440625 -0.14257812 -7.453125 -0.44140625 C-2.79477612 -1.19496269 -2.79477612 -1.19496269 0 0 Z " fill="#57A36C" transform="translate(438,99)"/>
<path d="M0 0 C2.79477511 4.19216267 2.44946352 7.56282282 1.546875 12.45703125 C1.06389844 14.64767493 0.55216241 16.8258605 0 19 C-0.66 19 -1.32 19 -2 19 C-2.33 19.66 -2.66 20.32 -3 21 C-2.17321655 13.97234063 -1.09751783 6.99001647 0 0 Z " fill="#2A6F3E" transform="translate(893,569)"/>
<path d="M0 0 C8.35598853 2.9465059 15.36124657 9.25837541 22 15 C18.34443465 15 17.44316719 14.12320567 14.55078125 11.97265625 C13.70322266 11.34552734 12.85566406 10.71839844 11.98242188 10.07226562 C11.10134766 9.40904297 10.22027344 8.74582031 9.3125 8.0625 C8.41982422 7.40314453 7.52714844 6.74378906 6.60742188 6.06445312 C1.79614787 2.48080748 1.79614787 2.48080748 0 1 C0 0.67 0 0.34 0 0 Z " fill="#F6F6EF" transform="translate(621,310)"/>
<path d="M0 0 C0.33 0 0.66 0 1 0 C1.33 5.94 1.66 11.88 2 18 C2.33 18 2.66 18 3 18 C3 20.97 3 23.94 3 27 C2.01 27.33 1.02 27.66 0 28 C0 18.76 0 9.52 0 0 Z " fill="#203025" transform="translate(595,502)"/>
<path d="M0 0 C6.00699671 1.1124068 9.98547995 4.55147778 14 9 C15.3125 11.3125 15.3125 11.3125 16 13 C12.08378085 10.7805705 8.66313662 8.2318151 5.1875 5.375 C4.21167969 4.57835937 3.23585938 3.78171875 2.23046875 2.9609375 C1.49441406 2.31382812 0.75835938 1.66671875 0 1 C0 0.67 0 0.34 0 0 Z " fill="#317B43" transform="translate(749,172)"/>
<path d="M0 0 C2.15625 0.37109375 2.15625 0.37109375 4 1 C2.78070272 2.30098717 1.54907548 3.59042437 0.3125 4.875 C-0.37199219 5.59429688 -1.05648437 6.31359375 -1.76171875 7.0546875 C-4.09591291 9.08335887 -6.08467634 10.02992733 -9 11 C-6.38807557 6.8402685 -3.83102953 3.16059936 0 0 Z " fill="#2C8243" transform="translate(648,620)"/>
<path d="M0 0 C0.99 0.66 1.98 1.32 3 2 C3.1875 4.625 3.1875 4.625 3 7 C2.01 7 1.02 7 0 7 C-0.05607422 7.93972656 -0.05607422 7.93972656 -0.11328125 8.8984375 C-0.21189453 10.12433594 -0.21189453 10.12433594 -0.3125 11.375 C-0.37050781 12.18710937 -0.42851562 12.99921875 -0.48828125 13.8359375 C-1 16 -1 16 -4 18 C-3.41632611 11.69632197 -1.95928381 6.01339937 0 0 Z " fill="#509F62" transform="translate(131,374)"/>
<path d="M0 0 C-0.99 0.33 -1.98 0.66 -3 1 C-3 1.66 -3 2.32 -3 3 C-8.7635632 5.64812363 -13.90932576 4.8019749 -20 4 C-20 3.67 -20 3.34 -20 3 C-17.60530271 2.49395076 -15.20948283 1.99500483 -12.8125 1.5 C-12.13896484 1.35691406 -11.46542969 1.21382812 -10.77148438 1.06640625 C-7.12490207 0.31930158 -3.72351043 -0.17352282 0 0 Z " fill="#2C723B" transform="translate(601,866)"/>
<path d="M0 0 C4.87072783 4.56630734 8.89156398 9.74976539 13 15 C10 15 10 15 8.02734375 13.13671875 C7.33769531 12.32847656 6.64804688 11.52023437 5.9375 10.6875 C5.24527344 9.88699219 4.55304688 9.08648438 3.83984375 8.26171875 C0 3.54140127 0 3.54140127 0 0 Z " fill="#347E45" transform="translate(198,722)"/>
<path d="M0 0 C3.14206819 2.2851405 3.83208685 5.10429597 4.66015625 8.79296875 C5.18988702 12.23317434 5.12412905 15.52438657 5 19 C2.93421237 15.90131855 2.25308642 13.65023694 1.375 10.0625 C1.11460937 9.02222656 0.85421875 7.98195313 0.5859375 6.91015625 C0 4 0 4 0 0 Z " fill="#2C723D" transform="translate(890,381)"/>
<path d="M0 0 C0.66 0.33 1.32 0.66 2 1 C2 1.99 2 2.98 2 4 C-0.8125 6.25 -0.8125 6.25 -4 8 C-4.99 7.67 -5.98 7.34 -7 7 C-7.33 6.34 -7.66 5.68 -8 5 C-6.71475739 4.13619741 -5.42157581 3.28419631 -4.125 2.4375 C-3.04605469 1.72400391 -3.04605469 1.72400391 -1.9453125 0.99609375 C-1.30335938 0.66738281 -0.66140625 0.33867187 0 0 Z " fill="#42945A" transform="translate(311,144)"/>
<path d="M0 0 C6.65050424 -0.24991456 12.56986533 0.26044666 19 2 C19 2.33 19 2.66 19 3 C12.20626425 4.69843394 6.61499641 2.92258516 0 1 C0 0.67 0 0.34 0 0 Z " fill="#286F3B" transform="translate(446,871)"/>
<path d="M0 0 C0.68359375 1.703125 0.68359375 1.703125 1 4 C-0.21484375 6.359375 -0.21484375 6.359375 -1.9375 8.75 C-2.50339844 9.54921875 -3.06929687 10.3484375 -3.65234375 11.171875 C-4.09707031 11.77515625 -4.54179688 12.3784375 -5 13 C-5.99 12.67 -6.98 12.34 -8 12 C-6.25 7.125 -6.25 7.125 -4 6 C-4 5.01 -4 4.02 -4 3 C-3.01 3 -2.02 3 -1 3 C-0.67 2.01 -0.34 1.02 0 0 Z " fill="#317542" transform="translate(845,691)"/>
<path d="M0 0 C4.95 0 9.9 0 15 0 C14.67 0.99 14.34 1.98 14 3 C9.71 3 5.42 3 1 3 C0.67 2.01 0.34 1.02 0 0 Z " fill="#EEEBDE" transform="translate(512,387)"/>
<path d="M0 0 C6.22987798 0.50512524 11.45474233 3.32604123 17 6 C17 6.33 17 6.66 17 7 C10.50857435 6.57664615 5.66507011 4.08900201 0 1 C0 0.67 0 0.34 0 0 Z " fill="#3B7F4D" transform="translate(336,837)"/>
<path d="M0 0 C0.66 0 1.32 0 2 0 C0.68818459 3.93544623 -1.95958727 5.74938163 -5.1484375 8.14453125 C-7.49514852 9.22877115 -8.61653863 8.85573613 -11 8 C-10.38125 7.566875 -9.7625 7.13375 -9.125 6.6875 C-6.7802755 5.00259517 -6.7802755 5.00259517 -5 2 C-2.9375 1.375 -2.9375 1.375 -1 1 C-0.67 0.67 -0.34 0.34 0 0 Z " fill="#327442" transform="translate(743,800)"/>
<path d="M0 0 C0.33 0 0.66 0 1 0 C1.05416741 2.72943537 1.09375225 5.45778564 1.125 8.1875 C1.15013672 9.34088867 1.15013672 9.34088867 1.17578125 10.51757812 C1.21266851 14.8149434 0.9958504 18.07901831 -1 22 C-1.33 22 -1.66 22 -2 22 C-1.85758352 19.64558284 -1.71115192 17.29152516 -1.5625 14.9375 C-1.48128906 13.62652344 -1.40007813 12.31554687 -1.31640625 10.96484375 C-1.02101751 7.26336762 -0.56734612 3.66629552 0 0 Z " fill="#1C6A38" transform="translate(901,527)"/>
<path d="M0 0 C0.33 0 0.66 0 1 0 C2.12998844 9.34258296 2.09908936 18.60853097 2 28 C1.67 28 1.34 28 1 28 C1 23.05 1 18.1 1 13 C0.34 13 -0.32 13 -1 13 C-0.67 8.71 -0.34 4.42 0 0 Z " fill="#568C60" transform="translate(903,442)"/>
<path d="M0 0 C0.66 0 1.32 0 2 0 C0.49087042 4.98012761 -2.55661849 8.24259942 -6 12 C-6.99 11.67 -7.98 11.34 -9 11 C-7.50924025 6.27926078 -7.50924025 6.27926078 -5.0625 4.9375 C-4.381875 4.628125 -3.70125 4.31875 -3 4 C-1.98758315 2.67607028 -0.98560611 1.34400833 0 0 Z " fill="#317241" transform="translate(816,731)"/>
<path d="M0 0 C1.32 0 2.64 0 4 0 C2.44499019 3.81684226 -0.03595495 6.19195732 -3 9 C-3.99 8.67 -4.98 8.34 -6 8 C-6 7.34 -6 6.68 -6 6 C-5.195625 5.525625 -4.39125 5.05125 -3.5625 4.5625 C-0.7081924 3.20016328 -0.7081924 3.20016328 0 0 Z " fill="#327542" transform="translate(789,759)"/>
<path d="M0 0 C4.95 0 9.9 0 15 0 C15 0.66 15 1.32 15 2 C15.66 2.33 16.32 2.66 17 3 C14.91731407 3.08126087 12.83371342 3.13930839 10.75 3.1875 C9.00976562 3.23970703 9.00976562 3.23970703 7.234375 3.29296875 C4 3 4 3 0 0 Z " fill="#263226" transform="translate(507,475)"/>
<path d="M0 0 C-3.96 2.64 -7.92 5.28 -12 8 C-12.33 7.01 -12.66 6.02 -13 5 C-11.59447701 3.96387729 -10.17508306 2.94655075 -8.75 1.9375 C-7.96109375 1.36902344 -7.1721875 0.80054688 -6.359375 0.21484375 C-4 -1 -4 -1 0 0 Z " fill="#34834A" transform="translate(293,159)"/>
<path d="M0 0 C0.66 0.33 1.32 0.66 2 1 C-0.45627573 3.631724 -2.55352037 5.81527263 -6 7 C-8.25 6.625 -8.25 6.625 -10 6 C-9.01 5.67 -8.02 5.34 -7 5 C-6.67 4.01 -6.34 3.02 -6 2 C-4.7934375 1.7834375 -4.7934375 1.7834375 -3.5625 1.5625 C-1.07896294 1.25864751 -1.07896294 1.25864751 0 0 Z " fill="#2E7542" transform="translate(704,825)"/>
<path d="M0 0 C0 0.66 0 1.32 0 2 C-1.609375 3.32421875 -1.609375 3.32421875 -3.75 4.6875 C-4.44609375 5.14511719 -5.1421875 5.60273437 -5.859375 6.07421875 C-8.39090725 7.16906025 -9.46100862 6.9435441 -12 6 C-11.01 5.67 -10.02 5.34 -9 5 C-8.67 4.01 -8.34 3.02 -8 2 C-5.10441559 0.5522078 -3.25811062 0 0 0 Z " fill="#317543" transform="translate(722,816)"/>
<path d="M0 0 C3 1 3 1 4.6875 4.25 C5.83944321 7.54126631 6.31025348 9.5872117 6 13 C2.3672609 10.57817393 2.31868053 9.49554883 1.3125 5.375 C1.06113281 4.37210937 0.80976562 3.36921875 0.55078125 2.3359375 C0.36902344 1.56507813 0.18726563 0.79421875 0 0 Z " fill="#2F7543" transform="translate(870,325)"/>
<path d="M0 0 C0.66 1.32 1.32 2.64 2 4 C1.3503125 4.5878125 1.3503125 4.5878125 0.6875 5.1875 C-1.13858339 7.01043451 -1.13858339 7.01043451 -2.5 9.625 C-4 12 -4 12 -7 13 C-5.35821735 8.22390502 -2.73453298 4.20617096 0 0 Z " fill="#337443" transform="translate(854,676)"/>
<path d="M0 0 C0.99 0.33 1.98 0.66 3 1 C1.12050295 4.57104439 -0.17053157 6.54744301 -4 8 C-4.33 7.01 -4.66 6.02 -5 5 C-3.35 3.35 -1.7 1.7 0 0 Z " fill="#43945A" transform="translate(220,218)"/>
<path d="M0 0 C0.66 0.33 1.32 0.66 2 1 C0.94901234 3.86632997 0.33137046 4.83006643 -2.4375 6.25 C-5 7 -5 7 -8 7 C-8.33 6.34 -8.66 5.68 -9 5 C-7.54735962 4.1361871 -6.0876837 3.28419546 -4.625 2.4375 C-3.40683594 1.72400391 -3.40683594 1.72400391 -2.1640625 0.99609375 C-1.44992187 0.66738281 -0.73578125 0.33867187 0 0 Z " fill="#46965B" transform="translate(331,133)"/>
<path d="M0 0 C0.33 0.66 0.66 1.32 1 2 C1.66 2 2.32 2 3 2 C4.75747614 6.50353262 5.19294408 10.17639811 5 15 C3.25050228 12.37575342 2.34610019 10.44272784 1.375 7.5 C0.98441406 6.33984375 0.98441406 6.33984375 0.5859375 5.15625 C0 3 0 3 0 0 Z " fill="#2E733F" transform="translate(882,355)"/>
<path d="M0 0 C0.99 0.66 1.98 1.32 3 2 C1.35 3.98 -0.3 5.96 -2 8 C-2.99 7.67 -3.98 7.34 -5 7 C-3.70700306 4.11562221 -2.34058637 2.12780579 0 0 Z " fill="#47955E" transform="translate(213,226)"/>
<path d="M0 0 C4.75481646 0.57634139 7.97048212 2.55068521 12 5 C11.67 5.99 11.34 6.98 11 8 C9.16399255 6.85845641 7.33125195 5.71165684 5.5 4.5625 C4.4790625 3.92441406 3.458125 3.28632813 2.40625 2.62890625 C1.6121875 2.09136719 0.818125 1.55382812 0 1 C0 0.67 0 0.34 0 0 Z " fill="#337B46" transform="translate(715,149)"/>
<path d="M0 0 C6.6 0.33 13.2 0.66 20 1 C20 1.33 20 1.66 20 2 C17.22965863 2.24858198 14.46060931 2.47452879 11.6875 2.6875 C10.50897461 2.79674805 10.50897461 2.79674805 9.30664062 2.90820312 C8.54931641 2.96298828 7.79199219 3.01777344 7.01171875 3.07421875 C6.31522217 3.13182373 5.61872559 3.18942871 4.90112305 3.2487793 C3 3 3 3 0 0 Z " fill="#4A8859" transform="translate(519,875)"/>
<path d="M0 0 C3.3 0 6.6 0 10 0 C10 0.66 10 1.32 10 2 C1.96428571 4.27678571 1.96428571 4.27678571 -2 3 C-1.34 2.67 -0.68 2.34 0 2 C0 1.34 0 0.68 0 0 Z " fill="#408250" transform="translate(600,864)"/>
<path d="M0 0 C0.99 0 1.98 0 3 0 C4.640625 1.64453125 4.640625 1.64453125 6.25 3.8125 C6.79140625 4.52019531 7.3328125 5.22789062 7.890625 5.95703125 C8.25671875 6.63121094 8.6228125 7.30539063 9 8 C8.67 8.99 8.34 9.98 8 11 C6.66375099 9.35653302 5.33107149 7.71016314 4 6.0625 C3.2575 5.14597656 2.515 4.22945312 1.75 3.28515625 C0 1 0 1 0 0 Z " fill="#317943" transform="translate(816,237)"/>
<path d="M0 0 C2.66666667 2.66666667 5.33333333 5.33333333 8 8 C7.67 8.99 7.34 9.98 7 11 C4.36 8.03 1.72 5.06 -1 2 C-0.67 1.34 -0.34 0.68 0 0 Z " fill="#2D753D" transform="translate(800,216)"/>
<path d="M0 0 C4.23039958 1.74192924 8.1273638 3.53559514 12 6 C11.67 6.99 11.34 7.98 11 9 C9.16136495 7.88368586 7.32920277 6.75670373 5.5 5.625 C4.4790625 4.99851563 3.458125 4.37203125 2.40625 3.7265625 C1.6121875 3.15679687 0.818125 2.58703125 0 2 C0 1.34 0 0.68 0 0 Z " fill="#2C723E" transform="translate(734,161)"/>
<path d="M0 0 C5.15171623 -0.09038099 9.91913204 0.15318867 15 1 C15 1.33 15 1.66 15 2 C13.35 2 11.7 2 10 2 C10 2.66 10 3.32 10 4 C8.02 4 6.04 4 4 4 C4.33 3.34 4.66 2.68 5 2 C3.35 1.67 1.7 1.34 0 1 C0 0.67 0 0.34 0 0 Z " fill="#529A66" transform="translate(550,93)"/>
<path d="M0 0 C0.33 0.99 0.66 1.98 1 3 C0.00390625 4.82421875 0.00390625 4.82421875 -1.4375 6.6875 C-1.91058594 7.31011719 -2.38367188 7.93273437 -2.87109375 8.57421875 C-3.24363281 9.04472656 -3.61617187 9.51523437 -4 10 C-4.99 9.67 -5.98 9.34 -7 9 C-3.375 2.25 -3.375 2.25 0 0 Z " fill="#2B6E3B" transform="translate(825,720)"/>
<path d="M0 0 C0.33 0.99 0.66 1.98 1 3 C1.66 3.33 2.32 3.66 3 4 C2.34 4 1.68 4 1 4 C0.67 5.32 0.34 6.64 0 8 C-0.99 8 -1.98 8 -3 8 C-3 4.42424104 -1.91159393 2.94704065 0 0 Z " fill="#449257" transform="translate(173,280)"/>
<path d="M0 0 C0.99 0.33 1.98 0.66 3 1 C2.6875 2.875 2.6875 2.875 2 5 C-1 7 -1 7 -3.1875 6.625 C-3.785625 6.41875 -4.38375 6.2125 -5 6 C-4.360625 5.38125 -3.72125 4.7625 -3.0625 4.125 C-0.96116416 2.17402388 -0.96116416 2.17402388 0 0 Z " fill="#327744" transform="translate(728,808)"/>
<path d="M0 0 C0.33 0 0.66 0 1 0 C1.10655578 6.44070471 0.96205088 12.62641289 0 19 C-0.33 19 -0.66 19 -1 19 C-1.33 15.04 -1.66 11.08 -2 7 C-1.67 7 -1.34 7 -1 7 C-0.67 4.69 -0.34 2.38 0 0 Z " fill="#5B9467" transform="translate(903,517)"/>
<path d="M0 0 C1.21236328 0.01353516 1.21236328 0.01353516 2.44921875 0.02734375 C3.37154297 0.04474609 3.37154297 0.04474609 4.3125 0.0625 C3.3225 1.5475 3.3225 1.5475 2.3125 3.0625 C-0.0703125 3.35546875 -0.0703125 3.35546875 -2.8125 3.25 C-3.72257813 3.22292969 -4.63265625 3.19585937 -5.5703125 3.16796875 C-6.26898437 3.13316406 -6.96765625 3.09835937 -7.6875 3.0625 C-7.6875 2.4025 -7.6875 1.7425 -7.6875 1.0625 C-4.80538698 0.10179566 -2.98899956 -0.04331883 0 0 Z " fill="#EEEBDA" transform="translate(527.6875,276.9375)"/>
<path d="M0 0 C-0.99 0.33 -1.98 0.66 -3 1 C-3 1.66 -3 2.32 -3 3 C-5.31 3.33 -7.62 3.66 -10 4 C-10 3.01 -10 2.02 -10 1 C-6.61981469 -0.04005702 -3.5219721 -0.08004482 0 0 Z " fill="#0F1712" transform="translate(507,341)"/>
<path d="M0 0 C1.1875 1.6875 1.1875 1.6875 2 4 C0.625 6.75 0.625 6.75 -1 9 C-1.66 8.67 -2.32 8.34 -3 8 C-3 3.73173127 -2.62386487 3.06117568 0 0 Z " fill="#47945D" transform="translate(192,252)"/>
<path d="M0 0 C2.91488977 2.6234008 4.88503898 5.71816394 7 9 C6.67 9.66 6.34 10.32 6 11 C2.48389346 8.65592898 1.64205038 6.83145088 0 3 C0 2.01 0 1.02 0 0 Z " fill="#2E7942" transform="translate(174,687)"/>
<path d="M0 0 C0.33 0 0.66 0 1 0 C0.54177532 3.46941546 0.10868317 6.67395049 -1 10 C-1.99 10.33 -2.98 10.66 -4 11 C-3.5247412 9.35303396 -3.04468109 7.70745272 -2.5625 6.0625 C-2.29566406 5.14597656 -2.02882813 4.22945312 -1.75390625 3.28515625 C-1 1 -1 1 0 0 Z " fill="#2A723C" transform="translate(875,632)"/>
<path d="M0 0 C2 1.625 2 1.625 4 4 C4.25 7.25 4.25 7.25 4 10 C3.34 8.68 2.68 7.36 2 6 C1.34 6 0.68 6 0 6 C0 4.02 0 2.04 0 0 Z " fill="#2C7741" transform="translate(876,339)"/>
<path d="M0 0 C0.99 0.33 1.98 0.66 3 1 C4.25 4.4375 4.25 4.4375 5 8 C4.67 8.66 4.34 9.32 4 10 C3.34 10 2.68 10 2 10 C1.34 6.7 0.68 3.4 0 0 Z " fill="#3A804E" transform="translate(867,318)"/>
<path d="M0 0 C0.66 1.32 1.32 2.64 2 4 C0 6 -2 8 -4 10 C-4.625 7.625 -4.625 7.625 -5 5 C-4.34 4.34 -3.68 3.68 -3 3 C-2.67 3.33 -2.34 3.66 -2 4 C-1.34 2.68 -0.68 1.36 0 0 Z " fill="#44965C" transform="translate(158,311)"/>
<path d="M0 0 C4.2742558 1.5830577 6.26531794 4.50568404 9 8 C6.64277278 7.82539058 5.30294138 7.3003668 3.62109375 5.6328125 C0 1.32051282 0 1.32051282 0 0 Z " fill="#327D44" transform="translate(240,769)"/>
<path d="M0 0 C3.5786304 1.65167557 6.74820188 3.78286492 10 6 C8.68 6.33 7.36 6.66 6 7 C5.67 6.34 5.34 5.68 5 5 C3.35636866 4.27840576 1.68949614 3.60648579 0 3 C0 2.01 0 1.02 0 0 Z " fill="#257131" transform="translate(392,636)"/>
<path d="M0 0 C0.99 0.33 1.98 0.66 3 1 C-0.3 3.31 -3.6 5.62 -7 8 C-7.66 7.67 -8.32 7.34 -9 7 C-7.87720538 6.01830524 -6.75168527 5.03972702 -5.625 4.0625 C-4.68527344 3.24458984 -4.68527344 3.24458984 -3.7265625 2.41015625 C-2 1 -2 1 0 0 Z " fill="#0A0D0A" transform="translate(487,442)"/>
<path d="M0 0 C2.475 0.99 2.475 0.99 5 2 C1.55549263 4.29633824 -0.93812283 4.54016485 -5 5 C-4.34 4.01 -3.68 3.02 -3 2 C-2.01 2 -1.02 2 0 2 C0 1.34 0 0.68 0 0 Z " fill="#438453" transform="translate(623,858)"/>
<path d="M0 0 C0.59296875 0.34804688 1.1859375 0.69609375 1.796875 1.0546875 C0.363435 1.58659291 -1.07507867 2.10484008 -2.515625 2.6171875 C-3.71638672 3.05224609 -3.71638672 3.05224609 -4.94140625 3.49609375 C-7.203125 4.0546875 -7.203125 4.0546875 -10.203125 3.0546875 C-9.543125 3.0546875 -8.883125 3.0546875 -8.203125 3.0546875 C-8.203125 2.3946875 -8.203125 1.7346875 -8.203125 1.0546875 C-2.74543269 -1.17800481 -2.74543269 -1.17800481 0 0 Z " fill="#4B8557" transform="translate(639.203125,855.9453125)"/>
<path d="M0 0 C3.59391114 1.33488128 6.75490696 2.96022723 10 5 C8.3125 5.6875 8.3125 5.6875 6 6 C3.3125 4.75 3.3125 4.75 1 3 C0.67 2.01 0.34 1.02 0 0 Z " fill="#317541" transform="translate(309,821)"/>
<path d="M0 0 C1.5 1.0625 1.5 1.0625 3 3 C3.1875 6.6875 3.1875 6.6875 3 10 C2.01 10.495 2.01 10.495 1 11 C-0.28317892 7.15046324 -0.06643637 4.05261865 0 0 Z " fill="#499B5D" transform="translate(119,431)"/>
<path d="M0 0 C0.33 0 0.66 0 1 0 C0.88541307 1.43836751 0.75790884 2.87570966 0.625 4.3125 C0.55539063 5.11300781 0.48578125 5.91351563 0.4140625 6.73828125 C0 9 0 9 -2 12 C-2 9.03 -2 6.06 -2 3 C-1.34 3 -0.68 3 0 3 C0 2.01 0 1.02 0 0 Z " fill="#2E8347" transform="translate(128,389)"/>
<path d="M0 0 C0.33 0.99 0.66 1.98 1 3 C-1.52475462 4.26237731 -3.31200466 4.09856404 -6.125 4.0625 C-7.03507813 4.05347656 -7.94515625 4.04445313 -8.8828125 4.03515625 C-9.58148438 4.02355469 -10.28015625 4.01195312 -11 4 C-11 3.67 -11 3.34 -11 3 C-10.37351563 2.86722656 -9.74703125 2.73445313 -9.1015625 2.59765625 C-8.28429687 2.42105469 -7.46703125 2.24445313 -6.625 2.0625 C-5.81289062 1.88847656 -5.00078125 1.71445312 -4.1640625 1.53515625 C-1.970537 1.07669307 -1.970537 1.07669307 0 0 Z " fill="#28914B" transform="translate(230,309)"/>
<path d="M0 0 C1.46726798 3.81489674 0.43336419 6.29011622 -1 10 C-1.99 9.67 -2.98 9.34 -4 9 C-2.80100302 5.9168649 -1.52299523 2.93720508 0 0 Z " fill="#4C995F" transform="translate(166,291)"/>
<path d="M0 0 C2.4375 1.125 2.4375 1.125 5 3 C5.8125 6.1875 5.8125 6.1875 6 9 C3.72494996 6.83328568 1.76424908 4.60436769 0 2 C0 1.34 0 0.68 0 0 Z " fill="#2A6F3E" transform="translate(836,264)"/>
<path d="M0 0 C8.03571429 0.80357143 8.03571429 0.80357143 12 3 C10.56344146 3.08131463 9.1255517 3.13933559 7.6875 3.1875 C6.48673828 3.23970703 6.48673828 3.23970703 5.26171875 3.29296875 C2.52148416 2.93801608 1.70828921 2.10633718 0 0 Z " fill="#2B773D" transform="translate(408,863)"/>
<path d="M0 0 C0.66 0.33 1.32 0.66 2 1 C2 1.99 2 2.98 2 4 C0.02 4.33 -1.96 4.66 -4 5 C-4 4.01 -4 3.02 -4 2 C-2.125 0.9375 -2.125 0.9375 0 0 Z " fill="#2D7743" transform="translate(690,831)"/>
<path d="M0 0 C0.33 0.99 0.66 1.98 1 3 C0.34 3.66 -0.32 4.32 -1 5 C-2.32 5 -3.64 5 -5 5 C-4.1875 3.0625 -4.1875 3.0625 -3 1 C-2.01 0.67 -1.02 0.34 0 0 Z " fill="#317645" transform="translate(802,748)"/>
<path d="M0 0 C2.52259061 1.97420135 2.9929808 2.96745642 3.6875 6.1875 C3.790625 7.115625 3.89375 8.04375 4 9 C3.34 9 2.68 9 2 9 C0.50178941 5.62902617 0 3.79557881 0 0 Z " fill="#2D7842" transform="translate(148,637)"/>
<path d="M0 0 C0.309375 0.639375 0.61875 1.27875 0.9375 1.9375 C1.8345163 3.93610821 1.8345163 3.93610821 3 5 C3.04080783 6.99958364 3.04254356 9.00045254 3 11 C2.01 10.34 1.02 9.68 0 9 C-0.29296875 6.8359375 -0.29296875 6.8359375 -0.1875 4.375 C-0.16042969 3.55773437 -0.13335938 2.74046875 -0.10546875 1.8984375 C-0.05326172 0.95871094 -0.05326172 0.95871094 0 0 Z " fill="#338344" transform="translate(900,428)"/>
<path d="M0 0 C0.66 0.66 1.32 1.32 2 2 C1.34 2 0.68 2 0 2 C0 2.66 0 3.32 0 4 C-2.64 4.33 -5.28 4.66 -8 5 C-5.44008376 2.98863724 -2.95409701 1.37154504 0 0 Z " fill="#EFEDE3" transform="translate(590,398)"/>
<path d="M0 0 C0.78890625 0.12761719 1.5778125 0.25523437 2.390625 0.38671875 C3.18984375 0.50660156 3.9890625 0.62648438 4.8125 0.75 C5.41578125 0.85699219 6.0190625 0.96398437 6.640625 1.07421875 C6.640625 1.40421875 6.640625 1.73421875 6.640625 2.07421875 C0.205625 2.56921875 0.205625 2.56921875 -6.359375 3.07421875 C-2.359375 0.07421875 -2.359375 0.07421875 0 0 Z " fill="#5B9268" transform="translate(568.359375,870.92578125)"/>
<path d="M0 0 C3.3 0.99 6.6 1.98 10 3 C10 3.33 10 3.66 10 4 C7.25 4.25 7.25 4.25 4 4 C1.625 2 1.625 2 0 0 Z " fill="#2D7841" transform="translate(363,848)"/>
<path d="M0 0 C-0.6875 1.9375 -0.6875 1.9375 -2 4 C-4.625 4.75 -4.625 4.75 -7 5 C-6 2 -6 2 -4.0625 0.8125 C-2 0 -2 0 0 0 Z " fill="#297A3B" transform="translate(753,794)"/>
<path d="M0 0 C2.49361571 1.20381448 4.68143083 2.45428722 7 4 C7 4.66 7 5.32 7 6 C3.75728494 5.4409112 2.06942576 4.5867822 0 2 C0 1.34 0 0.68 0 0 Z " fill="#317442" transform="translate(258,785)"/>
<path d="M0 0 C0.33 0 0.66 0 1 0 C1.25532751 3.06393013 1.21861333 4.63233212 -0.375 7.3125 C-1.179375 8.1478125 -1.179375 8.1478125 -2 9 C-2.66 9 -3.32 9 -4 9 C-2.80100302 5.9168649 -1.52299523 2.93720508 0 0 Z " fill="#2B733D" transform="translate(859,666)"/>
<path d="M0 0 C3.36720387 1.39332574 4.9859524 2.9789286 7 6 C4 6 4 6 1.8125 4.125 C0 2 0 2 0 0 Z " fill="#E6E4D8" transform="translate(452,579)"/>
<path d="M0 0 C0.99 0.33 1.98 0.66 3 1 C3 3.31 3 5.62 3 8 C2.01 8.495 2.01 8.495 1 9 C-0.4783226 6.04335481 -0.06032783 3.25770263 0 0 Z " fill="#2B372A" transform="translate(425,447)"/>
<path d="M0 0 C0.66 0.33 1.32 0.66 2 1 C-0.35968744 3.09749995 -1.54616994 3.96905704 -4.75 4.1875 C-5.86375 4.0946875 -5.86375 4.0946875 -7 4 C-3.375 0 -3.375 0 0 0 Z " fill="#44945A" transform="translate(282,165)"/>
<path d="M0 0 C-3.06117568 2.62386487 -3.73173127 3 -8 3 C-8 2.34 -8 1.68 -8 1 C-3.375 -1.125 -3.375 -1.125 0 0 Z " fill="#317543" transform="translate(656,850)"/>
<path d="M0 0 C2.875 0.25 2.875 0.25 6 1 C7.375 3.0625 7.375 3.0625 8 5 C4.62496331 3.8141763 2.35277269 2.72426311 0 0 Z " fill="#4A8958" transform="translate(302,818)"/>
<path d="M0 0 C1.98 0.495 1.98 0.495 4 1 C3.34 2.32 2.68 3.64 2 5 C1.01 4.67 0.02 4.34 -1 4 C-0.67 2.68 -0.34 1.36 0 0 Z " fill="#337545" transform="translate(769,777)"/>
<path d="M0 0 C0.33 0 0.66 0 1 0 C0.67 2.31 0.34 4.62 0 7 C-0.99 7.33 -1.98 7.66 -3 8 C-1.125 1.125 -1.125 1.125 0 0 Z " fill="#2C763C" transform="translate(869,646)"/>
<path d="M0 0 C1.485 0.99 1.485 0.99 3 2 C3.1875 5.625 3.1875 5.625 3 9 C0.23776722 6.23776722 0.42143709 3.79293383 0 0 Z " fill="#246B38" transform="translate(887,371)"/>
<path d="M0 0 C0.59296875 0.20496094 1.1859375 0.40992188 1.796875 0.62109375 C0.51036794 1.31820106 -0.78253165 2.00352251 -2.078125 2.68359375 C-3.15707031 3.25787109 -3.15707031 3.25787109 -4.2578125 3.84375 C-4.89976562 4.10027344 -5.54171875 4.35679687 -6.203125 4.62109375 C-6.863125 4.29109375 -7.523125 3.96109375 -8.203125 3.62109375 C-2.74543269 -0.47217548 -2.74543269 -0.47217548 0 0 Z " fill="#F8F9F1" transform="translate(433.203125,293.37890625)"/>
<path d="M0 0 C2.64 0.33 5.28 0.66 8 1 C4.36576791 3.32590854 1.22911669 3.16265833 -3 3 C-2.01 2.67 -1.02 2.34 0 2 C0 1.34 0 0.68 0 0 Z " fill="#4F965F" transform="translate(595,100)"/>
<path d="M0 0 C2 1 2 1 2 1 Z " fill="#007F00" transform="translate(485,878)"/>
<path d="" fill="#000000" transform="translate(0,0)"/>
<path d="" fill="#000000" transform="translate(0,0)"/>
<path d="" fill="#00FF00" transform="translate(0,0)"/>
<path d="" fill="#00FF00" transform="translate(0,0)"/>
<path d="" fill="#00FF00" transform="translate(0,0)"/>
<path d="" fill="#000000" transform="translate(0,0)"/>
<path d="" fill="#000000" transform="translate(0,0)"/>
<path d="" fill="#000000" transform="translate(0,0)"/>
<path d="" fill="#000000" transform="translate(0,0)"/>
<path d="" fill="#000000" transform="translate(0,0)"/>
<path d="" fill="#000000" transform="translate(0,0)"/>
<path d="" fill="#00FFFF" transform="translate(0,0)"/>
<path d="" fill="#000000" transform="translate(0,0)"/>
<path d="" fill="#000000" transform="translate(0,0)"/>
<path d="" fill="#000000" transform="translate(0,0)"/>
<path d="" fill="#000000" transform="translate(0,0)"/>
<path d="" fill="#000000" transform="translate(0,0)"/>
<path d="" fill="#000000" transform="translate(0,0)"/>
<path d="" fill="#000000" transform="translate(0,0)"/>
<path d="" fill="#000000" transform="translate(0,0)"/>
<path d="" fill="#00FF00" transform="translate(0,0)"/>
<path d="" fill="#000000" transform="translate(0,0)"/>
<path d="" fill="#000000" transform="translate(0,0)"/>
<path d="" fill="#00FF00" transform="translate(0,0)"/>
<path d="" fill="#000000" transform="translate(0,0)"/>
<path d="" fill="#000000" transform="translate(0,0)"/>
<path d="" fill="#000000" transform="translate(0,0)"/>
<path d="" fill="#000000" transform="translate(0,0)"/>
<path d="" fill="#000000" transform="translate(0,0)"/>
<path d="" fill="#000000" transform="translate(0,0)"/>
<path d="" fill="#000000" transform="translate(0,0)"/>
<path d="" fill="#000000" transform="translate(0,0)"/>
<path d="" fill="#000000" transform="translate(0,0)"/>
<path d="" fill="#000000" transform="translate(0,0)"/>
<path d="" fill="#00FF00" transform="translate(0,0)"/>
<path d="" fill="#00FF00" transform="translate(0,0)"/>
<path d="" fill="#00FF00" transform="translate(0,0)"/>
<path d="" fill="#000000" transform="translate(0,0)"/>
<path d="" fill="#000000" transform="translate(0,0)"/>
<path d="" fill="#000000" transform="translate(0,0)"/>
<path d="" fill="#000000" transform="translate(0,0)"/>
<path d="" fill="#000000" transform="translate(0,0)"/>
</svg>
