<?xml version="1.0" encoding="UTF-8"?>
<svg version="1.1" xmlns="http://www.w3.org/2000/svg" width="1024" height="1024">
<path d="M0 0 C8.20980798 0.39943107 8.20980798 0.39943107 16.42578125 0.40625 C20.49785307 0.37843094 24.21031548 1.08044673 28.17773438 1.95166016 C30.91857378 2.52207577 33.64901769 2.94004476 36.421875 3.32421875 C62.20181082 6.92132114 87.24637436 12.88339787 111.8125 21.5 C113.16214844 21.97324707 113.16214844 21.97324707 114.5390625 22.45605469 C177.09546453 44.71524641 237.1834864 84.06499299 279.8125 135.5 C280.97652344 136.86511719 280.97652344 136.86511719 282.1640625 138.2578125 C287.14027854 144.11955391 291.81608304 150.11168964 296.21875 156.41796875 C297.64816258 158.60049686 297.64816258 158.60049686 299.8125 159.5 C300.7813186 161.16502591 301.74496565 162.83340375 302.67480469 164.52050781 C304.550973 167.78487964 306.76387899 170.8043782 308.9375 173.875 C341.88141901 221.27081054 363.24691725 278.40895916 370.45410156 335.65380859 C370.67766581 337.42922552 370.9121256 339.20334566 371.16308594 340.97509766 C379.0102436 396.42912134 368.97273244 453.6375922 352.70556641 506.55029297 C352.10999336 508.51740985 351.53410425 510.49059365 350.97802734 512.46923828 C350.72102051 513.37786621 350.46401367 514.28649414 350.19921875 515.22265625 C349.97838623 516.02582275 349.75755371 516.82898926 349.5300293 517.65649414 C348.8125 519.5 348.8125 519.5 346.8125 520.5 C346.10570649 522.40523227 346.10570649 522.40523227 345.55078125 524.74609375 C343.68038725 531.32572679 340.89726423 537.37873527 338 543.5625 C337.71727234 544.16749329 337.43454468 544.77248657 337.14324951 545.39581299 C327.19382368 566.6122445 315.46011247 586.44995121 301.8125 605.5 C301.36535645 606.12712891 300.91821289 606.75425781 300.45751953 607.40039062 C295.48010641 614.33848047 290.06181501 620.86321465 284.50390625 627.3359375 C282.02016405 630.23525433 279.6324294 633.20421099 277.25 636.1875 C273.45179463 640.86536154 269.33420516 645.08440604 265.0234375 649.2890625 C263.27860357 651.03389643 261.71088755 652.75514934 260.1875 654.6875 C257.62732081 657.71929114 254.85440434 660.15719221 251.83984375 662.72265625 C249.96214868 664.36880511 248.23122302 666.07735116 246.5 667.875 C241.94298928 672.49345356 236.87026361 676.44872502 231.8125 680.5 C230.69827963 681.41552492 229.58503169 682.33223434 228.47265625 683.25 C214.41322837 694.77593528 199.52288682 705.33975072 183.8125 714.5 C183.07515625 714.93489746 182.3378125 715.36979492 181.578125 715.81787109 C136.59631938 742.29303017 88.42455284 759.61821502 36.8125 767.5 C35.74161133 767.66661133 34.67072266 767.83322266 33.56738281 768.00488281 C16.36672268 770.55254269 -0.76813561 770.7841281 -18.125 770.8125 C-19.20202179 770.81617584 -20.27904358 770.81985168 -21.38870239 770.82363892 C-42.03875364 770.86042724 -62.19259378 769.39129925 -82.5 765.625 C-83.97145646 765.35952789 -85.44297418 765.09439516 -86.91455078 764.82958984 C-95.77068046 763.21908271 -104.55734951 761.42107055 -113.2734375 759.1640625 C-116.33937473 758.35187602 -116.33937473 758.35187602 -120.1875 758.5 C-120.1875 757.84 -120.1875 757.18 -120.1875 756.5 C-121.1995752 756.37995605 -122.21165039 756.25991211 -123.25439453 756.13623047 C-127.07724919 755.51783449 -130.45475448 754.56311401 -134.1171875 753.3203125 C-134.75181915 753.10688202 -135.38645081 752.89345154 -136.04031372 752.67355347 C-138.04968169 751.99637816 -140.05609709 751.3109042 -142.0625 750.625 C-143.39954948 750.17261484 -144.73678786 749.72078756 -146.07421875 749.26953125 C-148.63440065 748.40542931 -151.1921691 747.53512903 -153.74902344 746.66113281 C-156.67946701 745.67155672 -159.62012282 744.73282394 -162.5703125 743.8046875 C-166.1875 742.5 -166.1875 742.5 -167.1875 740.5 C-168.85108607 740.15161764 -170.51852276 739.82156469 -172.1875 739.5 C-176.71257645 737.6312586 -181.09739042 735.45191 -185.5 733.3125 C-186.1404425 733.00276245 -186.78088501 732.6930249 -187.44073486 732.37390137 C-210.75071752 721.06335507 -232.46176192 707.46135109 -253.19921875 691.97802734 C-255.35381718 690.37636491 -257.52012057 688.79134856 -259.6875 687.20703125 C-261.16692512 686.11753837 -262.64609782 685.02770263 -264.125 683.9375 C-264.83003662 683.42461426 -265.53507324 682.91172852 -266.26147461 682.38330078 C-267.94047246 681.13722039 -269.56963249 679.82448286 -271.1875 678.5 C-271.1875 677.84 -271.1875 677.18 -271.1875 676.5 C-271.72117187 676.28472656 -272.25484375 676.06945312 -272.8046875 675.84765625 C-276.06407608 674.00423156 -278.6156177 671.49986627 -281.3125 668.9375 C-284.95153407 665.31366093 -284.95153407 665.31366093 -289.1875 662.5 C-289.1875 661.84 -289.1875 661.18 -289.1875 660.5 C-289.73792969 660.27570312 -290.28835938 660.05140625 -290.85546875 659.8203125 C-298.80769372 655.31804777 -305.31452342 646.41360583 -311.1875 639.5 C-312.49267578 638.01113281 -312.49267578 638.01113281 -313.82421875 636.4921875 C-324.7112472 624.03638111 -334.85921706 610.96281356 -344.04980469 597.20166016 C-344.83738294 596.02367293 -345.63005015 594.84907812 -346.42675781 593.67724609 C-392.94743432 525.11953988 -416.11916958 437.68012874 -409 355.1875 C-408.93503326 354.41852386 -408.87006653 353.64954773 -408.8031311 352.85726929 C-407.48826937 337.56161417 -405.26773138 322.54849271 -402.1875 307.5 C-401.98318359 306.48067383 -401.77886719 305.46134766 -401.56835938 304.41113281 C-395.87132867 276.65845465 -386.38547774 249.05111909 -374.1875 223.5 C-373.72907715 222.52708008 -373.2706543 221.55416016 -372.79833984 220.55175781 C-365.86023616 205.91482435 -358.05891948 192.04797026 -349.1875 178.5 C-348.65511719 177.68160645 -348.12273437 176.86321289 -347.57421875 176.02001953 C-340.30687202 164.91344492 -332.42561369 154.52620729 -323.8203125 144.42529297 C-322.29020351 142.62110046 -320.78192833 140.80134887 -319.28125 138.97265625 C-314.14561697 132.74706706 -308.77843749 126.900149 -302.98193359 121.2800293 C-300.23115606 118.66269415 -300.23115606 118.66269415 -298.1875 115.5 C-297.5275 115.5 -296.8675 115.5 -296.1875 115.5 C-295.6925 114.015 -295.6925 114.015 -295.1875 112.5 C-293.796875 111.09765625 -293.796875 111.09765625 -291.9375 109.5625 C-288.7674548 106.88319134 -285.70613922 104.12889409 -282.68920898 101.28100586 C-275.52997778 94.54296911 -268.01094252 88.4447463 -260.1875 82.5 C-259.5490918 82.00999512 -258.91068359 81.51999023 -258.25292969 81.01513672 C-222.68172361 53.71814064 -182.9725067 32.13271787 -140.1875 18.5 C-139.28418945 18.2117334 -138.38087891 17.9234668 -137.45019531 17.62646484 C-111.47027593 9.45485839 -85.17643102 4.66743147 -58.1875 1.5 C-57.38723389 1.39905029 -56.58696777 1.29810059 -55.76245117 1.1940918 C-49.48091907 0.42825826 -43.19600298 0.17132728 -36.875 -0.0625 C-35.82376953 -0.10568359 -34.77253906 -0.14886719 -33.68945312 -0.19335938 C-22.43011253 -0.62933876 -11.25344299 -0.53484572 0 0 Z " fill="#275B91" transform="translate(530.1875,103.5)"/>
<path d="M0 0 C4.14684192 3.55317011 8.18747965 7.20253055 12.13623047 10.97460938 C13.11062468 11.90413658 14.09013428 12.82833129 15.07470703 13.74707031 C45.66330417 42.34010164 65.30072386 82.46609742 72.59960938 123.37060547 C72.79441895 124.45124268 72.79441895 124.45124268 72.99316406 125.55371094 C81.48313865 175.79200592 69.04969641 230.36325194 40.03710938 272.00732422 C36.4658881 276.99994824 32.62112707 281.73478845 28.59960938 286.37060547 C27.90480469 287.17626953 27.21 287.98193359 26.49414062 288.81201172 C12.03199452 305.22351814 -3.82213713 318.82146732 -22.40039062 330.37060547 C-23.0592627 330.78165527 -23.71813477 331.19270508 -24.39697266 331.61621094 C-54.89045459 350.32131447 -89.77685885 358.5907684 -125.27539062 358.62060547 C-126.00204926 358.62128021 -126.72870789 358.62195496 -127.47738647 358.62265015 C-139.66000256 358.60476722 -151.45338619 357.86921382 -163.40039062 355.37060547 C-164.22748535 355.19899902 -165.05458008 355.02739258 -165.90673828 354.85058594 C-202.74645587 346.93969667 -236.13105524 329.298826 -263.40039062 303.37060547 C-263.93132324 302.8669043 -264.46225586 302.36320312 -265.00927734 301.84423828 C-273.63619779 293.60425164 -281.39491587 285.02962849 -288.40039062 275.37060547 C-288.81208496 274.80857422 -289.2237793 274.24654297 -289.64794922 273.66748047 C-308.7061056 247.34080742 -319.39595458 217.32548126 -324.40039062 185.37060547 C-324.51165283 184.66178223 -324.62291504 183.95295898 -324.73754883 183.22265625 C-325.7416963 175.69199416 -325.59936312 168.07871482 -325.58789062 160.49560547 C-325.58728638 159.7610614 -325.58668213 159.02651733 -325.58605957 158.26971436 C-325.56061197 146.87322228 -325.26816854 135.63379444 -323.40039062 124.37060547 C-323.27680176 123.61779297 -323.15321289 122.86498047 -323.02587891 122.08935547 C-314.3475629 71.59733505 -284.8584829 24.62787034 -243.27294922 -5.30957031 C-223.42170106 -19.30120623 -201.89359578 -30.30222267 -178.40039062 -36.62939453 C-177.0824905 -37.00763315 -175.7647761 -37.38651962 -174.44726562 -37.76611328 C-115.35537842 -53.85489633 -46.95664991 -39.50922425 0 0 Z " fill="#FAF6EB" transform="translate(637.400390625,319.62939453125)"/>
<path d="M0 0 C14.98359278 12.33343351 25.48960531 29.52696747 28.296875 48.890625 C30.52554561 74.40120982 22.65298409 96.32220457 6.296875 115.890625 C-1.6344178 124.8353632 -9.99628355 133.31825271 -18.46484375 141.75 C-19.74971717 143.03300248 -21.03436565 144.31623026 -22.31880188 145.59967041 C-25.65865241 148.93574894 -29.00149721 152.26881056 -32.34503174 155.60119629 C-35.77289422 159.01872865 -39.19783755 162.4391839 -42.62304688 165.859375 C-49.31359475 172.53927965 -56.00731789 179.21599241 -62.703125 185.890625 C-61.6345929 185.89427063 -60.56606079 185.89791626 -59.46514893 185.90167236 C-49.40036953 185.93859684 -39.33589681 185.99634151 -29.27135086 186.07452774 C-24.0969032 186.11405463 -18.92262704 186.14621752 -13.74804688 186.16162109 C-8.75523313 186.17675336 -3.76289074 186.21113775 1.22971344 186.25893402 C3.13546911 186.27378327 5.04129207 186.28166804 6.94710541 186.28250885 C9.61466356 186.28486963 12.28090965 186.31187654 14.94824219 186.34472656 C16.1329158 186.33718102 16.1329158 186.33718102 17.34152222 186.32948303 C20.81088198 186.39568451 22.91847929 186.62377758 25.78730774 188.64689636 C27.46957991 191.14732304 27.79793513 192.35399342 27.79858398 195.33618164 C27.80796494 196.20710953 27.81734589 197.07803741 27.82701111 197.97535706 C27.81016014 199.37394203 27.81016014 199.37394203 27.79296875 200.80078125 C27.79442398 201.76463242 27.79587921 202.72848358 27.79737854 203.72154236 C27.79572028 205.75653104 27.78416725 207.79153235 27.76342773 209.82641602 C27.73444711 212.94536418 27.74282552 216.06261547 27.75585938 219.18164062 C27.74962271 221.15886244 27.74123234 223.13607889 27.73046875 225.11328125 C27.73340439 226.04769547 27.73634003 226.98210968 27.73936462 227.94483948 C27.72668045 228.8126152 27.71399628 229.68039093 27.70092773 230.57446289 C27.69552475 231.33739151 27.69012177 232.10032013 27.68455505 232.8863678 C27.18966901 235.44486649 26.33399557 236.30634333 24.296875 237.890625 C21.09325259 238.95849914 18.79508261 239.02168066 15.42703247 239.03106689 C14.20166779 239.03677704 12.9763031 239.04248718 11.71380615 239.04837036 C10.3536378 239.04961569 8.99346933 239.0507408 7.63330078 239.05175781 C6.20256421 239.05638651 4.77182887 239.06141124 3.34109497 239.06680298 C-0.54736837 239.07992309 -4.43581445 239.08637105 -8.32429647 239.09081364 C-10.75341239 239.09374469 -13.18252358 239.09784954 -15.61163712 239.10231781 C-23.21114768 239.11599106 -30.81064747 239.12565884 -38.41016948 239.1295197 C-47.18407584 239.13400167 -55.95782651 239.15155668 -64.73168552 239.1805203 C-71.51308763 239.20212999 -78.2944459 239.21222358 -85.07588208 239.21356082 C-89.12650418 239.21460926 -93.17697989 239.22052548 -97.22756577 239.23838043 C-101.03774042 239.25484911 -104.84765844 239.2570226 -108.65785599 239.24824142 C-110.05546506 239.24747043 -111.45308786 239.25182209 -112.85066223 239.26169968 C-114.76017133 239.27440296 -116.66978337 239.26675654 -118.57931519 239.25811768 C-119.64746397 239.25958424 -120.71561275 239.2610508 -121.81612968 239.2625618 C-125.13588676 238.83487152 -127.01162224 237.84691607 -129.703125 235.890625 C-131.52238659 233.1767455 -131.95835833 231.01706815 -131.99365234 227.78393555 C-132.00641205 226.98598068 -132.01917175 226.18802582 -132.03231812 225.3658905 C-132.03454376 224.51167007 -132.03676941 223.65744965 -132.0390625 222.77734375 C-132.0457193 221.88956741 -132.0523761 221.00179108 -132.05923462 220.08711243 C-132.06934944 218.2101956 -132.074052 216.33324289 -132.07373047 214.45629883 C-132.07809387 211.59851064 -132.11439797 208.7422797 -132.15234375 205.88476562 C-132.15821428 204.05729692 -132.16218209 202.22982092 -132.1640625 200.40234375 C-132.18561905 199.13012215 -132.18561905 199.13012215 -132.20761108 197.8321991 C-132.14262739 189.30524353 -128.55932541 184.39874344 -122.70304871 178.5763092 C-122.06756607 177.95944748 -121.43208344 177.34258575 -120.77734375 176.70703125 C-120.11152786 176.04783188 -119.44571198 175.38863251 -118.75971985 174.7094574 C-116.643735 172.6167219 -114.51783025 170.53444888 -112.390625 168.453125 C-110.27587719 166.37369152 -108.16338297 164.2920409 -106.05366516 162.20750427 C-104.74575731 160.91628051 -103.43476395 159.62817119 -102.12004089 158.34388733 C-98.31512595 154.60012264 -94.74995839 150.71939354 -91.26325989 146.67808533 C-89.43874501 144.58772251 -87.52669548 142.61529428 -85.546875 140.671875 C-84.83402344 139.96675781 -84.12117188 139.26164063 -83.38671875 138.53515625 C-81.93098958 137.10546875 -80.47526042 135.67578125 -79.01953125 134.24609375 C-75.74296812 131.00508103 -72.54714462 127.76600293 -69.5703125 124.24609375 C-66.23588152 120.36798484 -62.64105118 116.80067115 -58.9921875 113.22265625 C-58.0674765 112.31330826 -58.0674765 112.31330826 -57.12408447 111.3855896 C-54.55140966 108.8580357 -51.97719441 106.33234994 -49.38769531 103.82202148 C-36.6282651 91.43282816 -24.22388396 78.63719183 -23.078125 59.890625 C-23.37780387 52.2787817 -26.31580506 45.42431061 -31.6015625 39.91015625 C-33.56416567 38.33929798 -35.49557867 37.08900729 -37.703125 35.890625 C-38.30769531 35.55417969 -38.91226563 35.21773438 -39.53515625 34.87109375 C-46.55165487 31.6361186 -54.73084342 31.60422776 -61.99609375 33.95703125 C-69.65909087 37.4505964 -74.21169062 41.67255089 -77.8203125 49.23046875 C-78.85486451 52.34785777 -79.0499694 55.11309522 -79.203125 58.390625 C-79.43604425 63.37509705 -79.7803183 67.52715558 -83.01809692 71.50695801 C-85.10197739 73.21814411 -86.14941384 73.27950984 -88.81982422 73.31054688 C-90.05658401 73.33441467 -90.05658401 73.33441467 -91.31832886 73.35876465 C-92.20585846 73.35896606 -93.09338806 73.35916748 -94.0078125 73.359375 C-94.92394318 73.36698853 -95.84007385 73.37460205 -96.78396606 73.38244629 C-98.72232335 73.39325263 -100.6607389 73.39609822 -102.59912109 73.39160156 C-105.56056334 73.39063076 -108.51940178 73.43221302 -111.48046875 73.4765625 C-113.36457793 73.48177071 -115.24869612 73.48445767 -117.1328125 73.484375 C-118.01629364 73.50077026 -118.89977478 73.51716553 -119.81002808 73.53405762 C-124.23788299 73.48446384 -126.1327874 73.32263139 -129.76416016 70.57202148 C-134.10269036 64.57226358 -132.14364812 55.28120868 -131.2265625 48.22265625 C-128.84162055 35.50775491 -123.80615749 23.97773335 -115.703125 13.890625 C-115.03539062 13.05917969 -114.36765625 12.22773438 -113.6796875 11.37109375 C-84.68051061 -22.70555636 -35.03284089 -26.09829086 0 0 Z " fill="#0D0F0F" transform="translate(563.703125,356.109375)"/>
<path d="M0 0 C-1.35654096 3.23515762 -2.59655536 4.70564718 -5.6171875 6.46875 C-6.33358398 6.8915625 -7.04998047 7.314375 -7.78808594 7.75 C-8.8829834 8.36875 -8.8829834 8.36875 -10 9 C-10.98274902 9.556875 -10.98274902 9.556875 -11.98535156 10.125 C-14.02490891 11.26316852 -16.07411813 12.38237934 -18.125 13.5 C-34.57976168 22.57735272 -50.7602201 31.98046684 -66 43 C-67.01835937 43.73476562 -68.03671875 44.46953125 -69.0859375 45.2265625 C-83.5674585 55.9032871 -97.11013939 67.45773114 -110 80 C-110.79438477 80.7724707 -111.58876953 81.54494141 -112.40722656 82.34082031 C-121.46207306 91.18402256 -130.27615458 99.95755182 -138 110 C-138.9095786 111.1236768 -139.82258496 112.24458421 -140.73828125 113.36328125 C-151.78010699 126.88929096 -162.23822206 140.87593518 -171 156 C-171.34450195 156.59425781 -171.68900391 157.18851563 -172.04394531 157.80078125 C-174.35226362 161.80048615 -176.60630112 165.8276811 -178.82910156 169.87548828 C-179.60084502 171.27576176 -180.37871091 172.67268088 -181.16308594 174.06591797 C-193.17299346 195.43075346 -202.54205534 218.67515294 -210 242 C-210.34482422 243.05316406 -210.68964844 244.10632813 -211.04492188 245.19140625 C-223.05109165 282.10465613 -230.47304674 321.12659712 -231 360 C-231.0306958 361.85286621 -231.0306958 361.85286621 -231.06201172 363.74316406 C-231.63770898 401.36282056 -228.56886026 437.8174376 -219.87988281 474.53808594 C-219.63463867 475.5799707 -219.38939453 476.62185547 -219.13671875 477.6953125 C-218.80740356 479.0568042 -218.80740356 479.0568042 -218.47143555 480.44580078 C-217.99559987 483.02383952 -217.91431999 485.38484595 -218 488 C-218.99 488.33 -219.98 488.66 -221 489 C-230.69347638 479.59870287 -237.64010241 468.79842514 -243.94287109 456.95703125 C-244.92425985 455.14021549 -245.95439622 453.34996332 -246.98828125 451.5625 C-281.55340303 390.60597262 -283.63920604 309.87496957 -265.890625 243.57421875 C-258.52246395 217.33429422 -249.30404278 191.8387891 -236 168 C-235.28457031 166.64841797 -235.28457031 166.64841797 -234.5546875 165.26953125 C-227.52858983 152.00024393 -219.7146443 139.28195024 -210.27685547 127.59619141 C-208.9342478 125.91780346 -207.62301244 124.21825841 -206.31640625 122.51171875 C-197.19477678 110.63212247 -187.0329106 99.94449812 -176.5 89.3125 C-175.63391113 88.43327881 -174.76782227 87.55405762 -173.87548828 86.64819336 C-167.89881657 80.6642097 -161.64177981 75.23202703 -155 70 C-154.2678125 69.41919678 -153.535625 68.83839355 -152.78125 68.23999023 C-124.29377875 45.81765927 -92.70334688 27.39725295 -59 14 C-58.12553223 13.64953613 -57.25106445 13.29907227 -56.35009766 12.93798828 C-12.85764352 -4.28588117 -12.85764352 -4.28588117 0 0 Z " fill="#316AA3" transform="translate(432,153)"/>
<path d="M0 0 C3.0625 2.0625 3.0625 2.0625 5 5 C7.14421579 16.91230996 -2.69176309 31.36344571 -8.98046875 41.05078125 C-16.64090179 51.8610131 -26.7811625 66.00940755 -40 70 C-43.97026744 70.55583744 -45.42010669 70.37370902 -48.8125 68.1875 C-51.63236977 65.36763023 -51.96246611 63.67081839 -52.18359375 59.71875 C-51.21838642 40.16816742 -34.80808504 21.11703842 -21.5390625 8.23828125 C-15.35621658 2.78786477 -8.60087564 -2.2348732 0 0 Z " fill="#6E9FCB" transform="translate(270,255)"/>
<path d="M0 0 C6.12061867 10.3075651 4.28564521 26.78867186 4.20581055 38.38232422 C4.18747546 41.12867525 4.1853024 43.87468756 4.18554688 46.62109375 C4.13400423 72.88185031 4.13400423 72.88185031 1 85 C0.67 85 0.34 85 0 85 C-0.10289836 78.32303995 -0.01786681 71.72182952 0.5 65.0625 C1.73121679 48.16711142 1.64255934 30.894473 0.22265625 14.015625 C-0.12232417 9.34325867 -0.08760167 4.68182276 0 0 Z " fill="#2A527C" transform="translate(899,443)"/>
<path d="M0 0 C0.33 0 0.66 0 1 0 C1.02505615 1.27641357 1.0501123 2.55282715 1.07592773 3.86791992 C1.17021694 8.61102044 1.27038497 13.35398186 1.37231445 18.09692383 C1.41558198 20.14832298 1.45726275 22.19975625 1.49731445 24.2512207 C1.55521544 27.20274122 1.6188526 30.15409132 1.68359375 33.10546875 C1.70866249 34.47761787 1.70866249 34.47761787 1.73423767 35.87748718 C1.83046804 40.02924105 1.96670315 43.95138848 3 48 C1.0625 47.1875 1.0625 47.1875 -1 46 C-1.90194747 43.29415758 -2.13045703 41.70744228 -2.14526367 38.92749023 C-2.15164352 38.11332138 -2.15802338 37.29915253 -2.16459656 36.46031189 C-2.16570938 35.5852449 -2.1668222 34.71017792 -2.16796875 33.80859375 C-2.17129715 32.9075441 -2.17462555 32.00649445 -2.17805481 31.07814026 C-2.18311591 29.17425039 -2.18546339 27.27035166 -2.18530273 25.36645508 C-2.18749413 22.44532817 -2.20567179 19.52457595 -2.22460938 16.60351562 C-2.22754242 14.75520963 -2.22952781 12.90690183 -2.23046875 11.05859375 C-2.23765427 10.18150253 -2.24483978 9.30441132 -2.25224304 8.40074158 C-2.22882961 2.22882961 -2.22882961 2.22882961 0 0 Z " fill="#1E1F1F" transform="translate(434,545)"/>
<path d="M0 0 C-1.52007902 4.05844692 -3.94809091 5.62525945 -7.50390625 7.9765625 C-8.05493011 8.34395035 -8.60595398 8.7113382 -9.17367554 9.08985901 C-10.9634267 10.27847513 -12.76215777 11.45249881 -14.5625 12.625 C-15.79315464 13.43384166 -17.02370446 14.24284283 -18.25415039 15.05200195 C-25.08569643 19.52791248 -31.94823959 23.96121494 -38.9375 28.1875 C-39.60918213 28.60273926 -40.28086426 29.01797852 -40.97290039 29.44580078 C-45.42416949 32.06172903 -45.42416949 32.06172903 -48.44140625 31.73828125 C-48.95574219 31.49464844 -49.47007812 31.25101563 -50 31 C-49.195625 30.54625 -48.39125 30.0925 -47.5625 29.625 C-44.91143428 28.25274335 -44.91143428 28.25274335 -44 26 C-42.39636435 25.31760185 -40.79067219 24.63969306 -39.17578125 23.984375 C-34.38630652 21.81750313 -29.13716352 19.16898233 -25.42578125 15.40234375 C-24 14 -24 14 -20.4375 12.5625 C-16.63348314 10.83340143 -16.66965796 10.45062645 -15 7 C-13.00882592 6.30741771 -11.0078864 5.64252365 -9 5 C-7.62804426 3.70644173 -6.28817344 2.37701298 -5 1 C-2 0 -2 0 0 0 Z " fill="#234776" transform="translate(745,795)"/>
<path d="M0 0 C3.39639947 0.58270422 5.02449516 1.65650338 7.42578125 4.09765625 C8.05395752 4.73018311 8.68213379 5.36270996 9.3293457 6.0144043 C9.98378662 6.69027588 10.63822754 7.36614746 11.3125 8.0625 C11.98821045 8.75061768 12.6639209 9.43873535 13.36010742 10.14770508 C17.73896557 14.63161762 22.00402107 19.16959391 26 24 C26.83402344 24.99128906 27.66804687 25.98257813 28.52734375 27.00390625 C31.03418161 29.98973482 33.53306037 32.98101794 36 36 C36.61359375 36.71671875 37.2271875 37.4334375 37.859375 38.171875 C38.23578125 38.77515625 38.6121875 39.3784375 39 40 C38.67 40.99 38.34 41.98 38 43 C35.9974595 40.71051009 33.99743593 38.41893886 32 36.125 C31.39768555 35.43390137 30.79537109 34.74280273 30.17480469 34.03076172 C27.08664092 30.46998763 24.09574787 26.88452012 21.25 23.125 C16.57486413 17.13879342 11.05427186 11.9292723 5.63769531 6.62353516 C4.91163086 5.91116699 4.18556641 5.19879883 3.4375 4.46484375 C2.77621094 3.821521 2.11492188 3.17819824 1.43359375 2.51538086 C0 1 0 1 0 0 Z " fill="#254F7F" transform="translate(784,215)"/>
<path d="M0 0 C0.66 0.33 1.32 0.66 2 1 C1.67 1.66 1.34 2.32 1 3 C0.34 3 -0.32 3 -1 3 C-0.67 2.01 -0.34 1.02 0 0 Z M-3 4 C-3 7 -3 7 -4.7565918 9.09716797 C-5.56265869 9.88752441 -6.36872559 10.67788086 -7.19921875 11.4921875 C-8.51889648 12.79736328 -8.51889648 12.79736328 -9.86523438 14.12890625 C-10.79658203 15.03511719 -11.72792969 15.94132812 -12.6875 16.875 C-14.05551758 18.22271484 -14.05551758 18.22271484 -15.45117188 19.59765625 C-17.16288115 21.28322306 -18.87765154 22.9656909 -20.59643555 24.64404297 C-25.66019373 29.57017561 -25.66019373 29.57017561 -30.3125 34.875 C-34.40932939 39.87935489 -39.16681446 44.18696163 -45 47 C-40.43852453 41.52686034 -35.59258679 36.46045191 -30.5390625 31.44140625 C-29.74849457 30.65225327 -28.95792664 29.86310028 -28.1434021 29.05003357 C-25.63962374 26.55181339 -23.13237525 24.05710956 -20.625 21.5625 C-18.91773752 19.86025792 -17.21070391 18.15778627 -15.50390625 16.45507812 C-11.33858102 12.30072637 -7.17040781 8.14924919 -3 4 Z " fill="#F9F9F8" transform="translate(568,473)"/>
<path d="M0 0 C0.33 0 0.66 0 1 0 C0.10195555 15.00679545 -0.95549035 30.00284841 -2 45 C-2.99 45 -3.98 45 -5 45 C-4.73613026 40.89215882 -4.46949417 36.78450687 -4.20043945 32.67700195 C-4.10953409 31.28349509 -4.01934752 29.88994112 -3.92993164 28.49633789 C-2.52062155 6.55361604 -2.52062155 6.55361604 0 0 Z " fill="#254C78" transform="translate(125,434)"/>
<path d="M0 0 C3.70632634 1.23544211 4.03265441 2.25051003 5.9609375 5.55859375 C6.51523437 6.50283203 7.06953125 7.44707031 7.640625 8.41992188 C8.49914062 9.91362305 8.49914062 9.91362305 9.375 11.4375 C9.93960938 12.39849609 10.50421875 13.35949219 11.0859375 14.34960938 C12.7560794 17.2162997 14.38857425 20.09992948 16 23 C16.51594727 23.92828613 17.03189453 24.85657227 17.56347656 25.81298828 C18.02979492 26.69067871 18.49611328 27.56836914 18.9765625 28.47265625 C19.39244629 29.2500415 19.80833008 30.02742676 20.23681641 30.82836914 C21.11966928 33.34051768 20.89961927 34.53428592 20 37 C19.67837891 36.4016333 19.35675781 35.8032666 19.02539062 35.18676758 C10.57826546 19.49220209 10.57826546 19.49220209 1.328125 4.265625 C0 2 0 2 0 0 Z " fill="#214873" transform="translate(841,283)"/>
<path d="M0 0 C0 3.42216659 -0.72453977 4.66381375 -2.37890625 7.61328125 C-2.88518555 8.52577637 -3.39146484 9.43827148 -3.91308594 10.37841797 C-4.45739258 11.34666504 -5.00169922 12.31491211 -5.5625 13.3125 C-10.25891901 21.78020174 -14.7770244 30.28639541 -19 39 C-19.66 39 -20.32 39 -21 39 C-19.73037733 34.96498393 -18.24282893 31.22927978 -16.35546875 27.4453125 C-15.84306641 26.41792969 -15.33066406 25.39054687 -14.80273438 24.33203125 C-14.26970703 23.27371094 -13.73667969 22.21539062 -13.1875 21.125 C-12.40536133 19.54912109 -12.40536133 19.54912109 -11.60742188 17.94140625 C-3.48859603 1.74429802 -3.48859603 1.74429802 0 0 Z " fill="#284E7F" transform="translate(175,294)"/>
<path d="M0 0 C1.5 1.1875 1.5 1.1875 3 3 C3.1875 5.6875 3.1875 5.6875 3 8 C3.66 8 4.32 8 5 8 C5.50789062 9.11117187 6.01578125 10.22234375 6.5390625 11.3671875 C9.99980125 18.86714132 13.43087919 26.18969323 17.96875 33.1171875 C19 35 19 35 19 38 C18.34 38 17.68 38 17 38 C14.89738807 33.96306142 12.79787908 29.92453002 10.70117188 25.88452148 C9.9881462 24.51168825 9.27428925 23.13928644 8.55957031 21.76733398 C7.52968586 19.7900419 6.50284615 17.81119417 5.4765625 15.83203125 C5.15877838 15.22349808 4.84099426 14.6149649 4.51358032 13.98799133 C0 5.26302326 0 5.26302326 0 0 Z " fill="#294F7A" transform="translate(153,637)"/>
<path d="M0 0 C1.64311459 3.28622918 0.99748737 6.90726651 0.87890625 10.5078125 C0.85529526 11.34843231 0.83168427 12.18905212 0.80735779 13.05514526 C0.73066362 15.7452662 0.64666417 18.4351034 0.5625 21.125 C0.50928506 22.94660061 0.45654463 24.76821514 0.40429688 26.58984375 C0.27504071 31.06007618 0.13923154 35.5300676 0 40 C-0.33 40 -0.66 40 -1 40 C-1 36.04 -1 32.08 -1 28 C-1.99 28 -2.98 28 -4 28 C-4 23.71 -4 19.42 -4 15 C-3.01 15 -2.02 15 -1 15 C-1.01160156 14.00097656 -1.02320312 13.00195312 -1.03515625 11.97265625 C-1.04869141 10.03712891 -1.04869141 10.03712891 -1.0625 8.0625 C-1.07410156 6.77472656 -1.08570312 5.48695313 -1.09765625 4.16015625 C-1 1 -1 1 0 0 Z " fill="#306B9F" transform="translate(124,464)"/>
<path d="M0 0 C0.99 0.33 1.98 0.66 3 1 C2.52167725 1.44802979 2.04335449 1.89605957 1.55053711 2.35766602 C-0.65493433 4.42474659 -2.85872408 6.49361193 -5.0625 8.5625 C-5.81466797 9.26697266 -6.56683594 9.97144531 -7.34179688 10.69726562 C-16.23794357 18.97996459 -16.23794357 18.97996459 -24.4375 27.9375 C-25.283125 28.948125 -26.12875 29.95875 -27 31 C-27.33 30.01 -27.66 29.02 -28 28 C-27.07316406 27.08476562 -26.14632812 26.16953125 -25.19140625 25.2265625 C-23.98163961 24.0261739 -22.77201135 22.82564583 -21.5625 21.625 C-20.95083984 21.02171875 -20.33917969 20.4184375 -19.70898438 19.796875 C-19.12568359 19.21679688 -18.54238281 18.63671875 -17.94140625 18.0390625 C-17.40201416 17.50490723 -16.86262207 16.97075195 -16.30688477 16.42041016 C-14.89153023 15.01347612 -14.89153023 15.01347612 -14 13 C-13.34 13 -12.68 13 -12 13 C-11.67 12.01 -11.34 11.02 -11 10 C-9.2578125 8.28125 -9.2578125 8.28125 -7.125 6.5 C-4.64584653 4.41421775 -2.2560424 2.32698713 0 0 Z " fill="#183A76" transform="translate(246,206)"/>
<path d="M0 0 C4.19759919 1.31893273 8.09645985 2.90240838 12.0546875 4.8203125 C13.16328125 5.35527344 14.271875 5.89023437 15.4140625 6.44140625 C16.55617188 6.99699219 17.69828125 7.55257812 18.875 8.125 C20.0403125 8.68832031 21.205625 9.25164063 22.40625 9.83203125 C25.27241534 11.21812761 28.13691978 12.60754522 31 14 C31 14.33 31 14.66 31 15 C23.99584415 14.58332217 18.36725548 11.66051077 12.125 8.625 C11.06796875 8.13 10.0109375 7.635 8.921875 7.125 C7.91898437 6.64289062 6.91609375 6.16078125 5.8828125 5.6640625 C4.51213623 5.00591553 4.51213623 5.00591553 3.11376953 4.33447266 C1 3 1 3 0 0 Z " fill="#274C7C" transform="translate(330,827)"/>
<path d="M0 0 C3.88087684 3.76715151 7.39683399 7.73645096 10.875 11.875 C14.2067345 15.81437061 17.53756233 19.65878478 21.25 23.25 C22.1575 24.1575 23.065 25.065 24 26 C24 26.66 24 27.32 24 28 C15.39039957 24.09673213 9.73651584 15.18920099 4 8 C3.25105469 7.12601563 2.50210938 6.25203125 1.73046875 5.3515625 C0 3 0 3 0 0 Z " fill="#265180" transform="translate(204,722)"/>
<path d="M0 0 C0.33 0 0.66 0 1 0 C2.55425426 13.51078794 3.2384123 26.44440591 2 40 C1.67 40 1.34 40 1 40 C0.17852762 35.00010408 -0.1358223 30.16822982 -0.09765625 25.09765625 C-0.0962413 24.3750914 -0.09482635 23.65252655 -0.09336853 22.9080658 C-0.08782225 20.62616635 -0.0752802 18.34436921 -0.0625 16.0625 C-0.05747804 14.50455872 -0.05291636 12.94661588 -0.04882812 11.38867188 C-0.0378705 7.59240919 -0.02064372 3.79622187 0 0 Z " fill="#12397B" transform="translate(712,460)"/>
<path d="M0 0 C9.35133659 1.41029438 19.17876114 13.68012879 26 20 C25.67 20.99 25.34 21.98 25 23 C24.62230469 22.59910156 24.24460937 22.19820312 23.85546875 21.78515625 C18.6154825 16.37336717 12.85591867 11.72417451 7 7 C4.62655088 5.03647301 2.30289515 3.04701791 0 1 C0 0.67 0 0.34 0 0 Z " fill="#1F477A" transform="translate(757,191)"/>
<path d="M0 0 C0 3.40916496 -0.31905599 3.72810249 -2.484375 6.14453125 C-3.00773438 6.73943359 -3.53109375 7.33433594 -4.0703125 7.94726562 C-4.62460938 8.56279297 -5.17890625 9.17832031 -5.75 9.8125 C-8.78968926 13.21942445 -11.6755811 16.5104956 -14.203125 20.32421875 C-16 23 -16 23 -19 25 C-18.505 24.1028125 -18.505 24.1028125 -18 23.1875 C-16.79212012 20.94613529 -16.79212012 20.94613529 -17 18 C-15.828125 16.02734375 -15.828125 16.02734375 -14.25 13.9375 C-13.73953125 13.24527344 -13.2290625 12.55304688 -12.703125 11.83984375 C-10.89012198 9.88130149 -9.36275331 9.1768329 -7 8 C-5.03777365 6.06659497 -5.03777365 6.06659497 -3.25 3.875 C-2.63640625 3.15054688 -2.0228125 2.42609375 -1.390625 1.6796875 C-0.93171875 1.12539062 -0.4728125 0.57109375 0 0 Z " fill="#2E6097" transform="translate(214,242)"/>
<path d="M0 0 C0.66 0.33 1.32 0.66 2 1 C1.54149658 1.42821045 1.08299316 1.8564209 0.6105957 2.29760742 C-1.48960991 4.26000775 -3.58856315 6.22374272 -5.6875 8.1875 C-6.40873047 8.86103516 -7.12996094 9.53457031 -7.87304688 10.22851562 C-10.93864221 13.09813683 -13.98535692 15.95944936 -16.89453125 18.98828125 C-19 21 -19 21 -21 21 C-19.18070872 16.12936575 -14.99918438 13.25302144 -11.16796875 9.97851562 C-9.72620424 8.7095534 -8.35707659 7.35915163 -7 6 C-7 5.01 -7 4.02 -7 3 C-4.69631264 1.93347808 -2.35981813 0.93578995 0 0 Z " fill="#2A6399" transform="translate(255,201)"/>
<path d="M0 0 C0.99 0 1.98 0 3 0 C4.70653215 3.57457139 6.38682599 7.16087227 8.0625 10.75 C8.79049805 12.27367187 8.79049805 12.27367187 9.53320312 13.828125 C9.98759766 14.8078125 10.44199219 15.7875 10.91015625 16.796875 C11.33433838 17.69760742 11.75852051 18.59833984 12.19555664 19.52636719 C13.06735909 22.20712664 12.97875855 23.40058704 12 26 C10 25 10 25 8.8125 21.4375 C8.565 20.6434375 8.3175 19.849375 8.0625 19.03125 C5.78385613 12.53041307 2.81400377 6.28332348 0 0 Z " fill="#234977" transform="translate(862,322)"/>
<path d="M0 0 C0.33 0 0.66 0 1 0 C1.50617935 4.52016366 2.00384437 9.04122599 2.5 13.5625 C2.64308594 14.83931641 2.78617187 16.11613281 2.93359375 17.43164062 C3.06894531 18.67236328 3.20429687 19.91308594 3.34375 21.19140625 C3.46943359 22.32779541 3.59511719 23.46418457 3.72460938 24.63500977 C4.0086196 28.1053227 4.04642989 31.51969272 4 35 C3.67 35 3.34 35 3 35 C2.67 33.02 2.34 31.04 2 29 C1.34 29.99 0.68 30.98 0 32 C-0.33 27.71 -0.66 23.42 -1 19 C-0.67 19 -0.34 19 0 19 C0 12.73 0 6.46 0 0 Z " fill="#37699F" transform="translate(124,510)"/>
<path d="M0 0 C6.6264027 0.42721663 11.61112644 3.01298698 17.4375 6.0625 C18.82098633 6.77116211 18.82098633 6.77116211 20.23242188 7.49414062 C22.49311545 8.65377101 24.74857555 9.82250342 27 11 C27 11.66 27 12.32 27 13 C23.97737316 12.34233048 21.38086042 11.33904717 18.59375 10.00390625 C17.76746094 9.61009766 16.94117188 9.21628906 16.08984375 8.81054688 C15.23519531 8.39869141 14.38054688 7.98683594 13.5 7.5625 C12.64535156 7.15451172 11.79070313 6.74652344 10.91015625 6.32617188 C7.25824577 4.57997755 3.61673275 2.81809428 0 1 C0 0.67 0 0.34 0 0 Z " fill="#274E7E" transform="translate(670,138)"/>
<path d="M0 0 C-7.06069541 4.44798321 -14.55090212 7.75103092 -23 7 C-22.34 6.67 -21.68 6.34 -21 6 C-21 5.34 -21 4.68 -21 4 C-19.88625 3.731875 -18.7725 3.46375 -17.625 3.1875 C-13.41502302 2.15189069 -9.31370057 0.85116298 -5.19921875 -0.51171875 C-3 -1 -3 -1 0 0 Z " fill="#244F7D" transform="translate(645,850)"/>
<path d="M0 0 C0 0.66 0 1.32 0 2 C-2.23482454 3.91303342 -4.4765136 5.71866653 -6.8125 7.5 C-7.77639648 8.24830078 -7.77639648 8.24830078 -8.75976562 9.01171875 C-16.50600075 15 -16.50600075 15 -21 15 C-21 14.34 -21 13.68 -21 13 C-20.278125 12.773125 -19.55625 12.54625 -18.8125 12.3125 C-15.45979122 10.74790257 -13.56877231 8.63463827 -11 6 C-9.66666667 5.33333333 -8.33333333 4.66666667 -7 4 C-6.67 3.01 -6.34 2.02 -6 1 C-3.90006779 0.25486277 -2.22568901 0 0 0 Z " fill="#264A74" transform="translate(766,779)"/>
<path d="M0 0 C0.99 0 1.98 0 3 0 C5.77162148 7.03484077 5.00044371 13.99996019 4.625 21.4375 C4.56828125 22.74138672 4.5115625 24.04527344 4.453125 25.38867188 C4.31227312 28.59305224 4.16091859 31.7965751 4 35 C3.67 35 3.34 35 3 35 C2.98018066 34.18845459 2.96036133 33.37690918 2.93994141 32.54077148 C2.84428163 28.83937251 2.73476786 25.13850635 2.625 21.4375 C2.5940625 20.16068359 2.563125 18.88386719 2.53125 17.56835938 C2.3390309 11.40132989 2.15074689 5.81401091 0 0 Z " fill="#191A1A" transform="translate(586,392)"/>
<path d="M0 0 C5.92639944 1.51516361 10.40514191 4.70871796 15.375 8.125 C16.20644531 8.68832031 17.03789063 9.25164062 17.89453125 9.83203125 C19.93403557 11.21514337 21.96892541 12.60455176 24 14 C23.67 14.99 23.34 15.98 23 17 C22.37432129 16.58113525 21.74864258 16.16227051 21.10400391 15.73071289 C18.27846944 13.8401095 15.45175114 11.95128372 12.625 10.0625 C11.64015625 9.40314453 10.6553125 8.74378906 9.640625 8.06445312 C8.69960938 7.43603516 7.75859375 6.80761719 6.7890625 6.16015625 C5.91975098 5.57886963 5.05043945 4.99758301 4.15478516 4.39868164 C2.07035643 2.98856842 2.07035643 2.98856842 0 2 C0 1.34 0 0.68 0 0 Z " fill="#254978" transform="translate(717,162)"/>
<path d="M0 0 C0.66 0.33 1.32 0.66 2 1 C2 7.27 2 13.54 2 20 C1.34 20 0.68 20 0 20 C-1.57924842 16.84150315 -1.14316514 13.4634872 -1.125 10 C-1.12886719 9.26265625 -1.13273437 8.5253125 -1.13671875 7.765625 C-1.1266598 2.2533196 -1.1266598 2.2533196 0 0 Z " fill="#191A19" transform="translate(433,406)"/>
<path d="M0 0 C0.66 0.33 1.32 0.66 2 1 C1.40846527 3.44120676 0.80247635 5.87719367 0.1875 8.3125 C0.02185547 9.00279297 -0.14378906 9.69308594 -0.31445312 10.40429688 C-1.95841649 16.82505947 -1.95841649 16.82505947 -5 19 C-5.33 19 -5.66 19 -6 19 C-5.55230183 12.95607475 -4.49961114 4.49961114 0 0 Z " fill="#28588B" transform="translate(148,347)"/>
<path d="M0 0 C9.40662007 0.6027851 18.67344131 1.67132013 28 3 C28 3.33 28 3.66 28 4 C18.31033359 5.71913436 9.53328041 3.83811616 0 2 C0 1.34 0 0.68 0 0 Z " fill="#2C547D" transform="translate(447,867)"/>
<path d="M0 0 C0 0.66 0 1.32 0 2 C0.72703125 2.10957031 1.4540625 2.21914063 2.203125 2.33203125 C22.53881279 5.53881279 22.53881279 5.53881279 26 9 C21.34561319 8.37648292 16.78049318 7.58379345 12.19140625 6.58984375 C10.95068359 6.32236328 9.70996094 6.05488281 8.43164062 5.77929688 C7.15482422 5.50150391 5.87800781 5.22371094 4.5625 4.9375 C3.24549087 4.65277193 1.92843396 4.36826476 0.61132812 4.08398438 C-2.59292374 3.39149038 -5.79667407 2.69676235 -9 2 C-9 1.67 -9 1.34 -9 1 C-5.94152152 0.45627049 -3.11227195 0 0 0 Z " fill="#162D74" transform="translate(548,276)"/>
<path d="M0 0 C2.28242552 3.71736815 2.68497443 7.62885372 3.1875 11.875 C3.28224609 12.56980469 3.37699219 13.26460938 3.47460938 13.98046875 C3.99637704 18.21037146 3.91934813 21.8401127 3 26 C2.34 26 1.68 26 1 26 C0.34344611 17.31238511 -0.16311941 8.71782637 0 0 Z " fill="#1C3E6E" transform="translate(899,443)"/>
<path d="M0 0 C5.94162007 0.56624836 10.92821148 2.3206058 16.4375 4.5625 C17.26443359 4.89185547 18.09136719 5.22121094 18.94335938 5.56054688 C20.96498093 6.36685836 22.98288449 7.18248123 25 8 C25 8.66 25 9.32 25 10 C18.67857446 8.8600708 13.36903182 6.99567608 7.578125 4.21875 C5.08529986 3.04032357 2.56952503 1.99823275 0 1 C0 0.67 0 0.34 0 0 Z " fill="#2B517F" transform="translate(643,127)"/>
<path d="M0 0 C5.26870634 0.74171109 10.26976631 2.10909615 15.375 3.5625 C16.20644531 3.79646484 17.03789062 4.03042969 17.89453125 4.27148438 C19.93048609 4.84482798 21.96535527 5.4220244 24 6 C24 6.33 24 6.66 24 7 C21.36 7.33 18.72 7.66 16 8 C16 7.34 16 6.68 16 6 C15.030625 5.9175 14.06125 5.835 13.0625 5.75 C8.32880899 5.1000875 4.26015593 3.07694677 0 1 C0 0.67 0 0.34 0 0 Z " fill="#1F4778" transform="translate(394,854)"/>
<path d="M0 0 C6.82066033 4.80768608 12.9001573 10.32624925 19 16 C18.01 16.33 17.02 16.66 16 17 C13.89511995 15.06327014 11.79107304 13.12564859 9.6875 11.1875 C9.09259766 10.64029297 8.49769531 10.09308594 7.88476562 9.52929688 C7.30791016 8.99755859 6.73105469 8.46582031 6.13671875 7.91796875 C5.60780029 7.43094482 5.07888184 6.9439209 4.53393555 6.44213867 C4.02773682 5.96623291 3.52153809 5.49032715 3 5 C2.44030518 4.48606689 1.88061035 3.97213379 1.30395508 3.44262695 C0 2 0 2 0 0 Z " fill="#284C7A" transform="translate(240,762)"/>
<path d="M0 0 C3.81562363 0.95390591 4.86807456 1.78974383 7 5.1875 C7.31324219 5.80625 7.62648438 6.425 7.94921875 7.0625 C9.06440812 9.11875996 10.37270229 10.84709741 11.8125 12.6875 C14 16 14 16 13.63671875 18.20703125 C13.42660156 18.79871094 13.21648438 19.39039063 13 20 C11.20410736 17.41958111 9.41404504 14.83517009 7.625 12.25 C7.11710938 11.52039063 6.60921875 10.79078125 6.0859375 10.0390625 C5.59609375 9.33007812 5.10625 8.62109375 4.6015625 7.890625 C4.15119629 7.24125977 3.70083008 6.59189453 3.23681641 5.92285156 C2.00275226 4.00427887 0.98086094 2.05780622 0 0 Z " fill="#21466F" transform="translate(825,261)"/>
<path d="M0 0 C3.7930406 5.68956089 4.24388504 11.22049547 4.125 17.9375 C4.11146484 18.96327148 4.11146484 18.96327148 4.09765625 20.00976562 C4.07438958 21.67333287 4.03853167 23.33671631 4 25 C3.67 25 3.34 25 3 25 C2.49420286 21.95919579 1.99519241 18.91753354 1.5 15.875 C1.35691406 15.0190625 1.21382812 14.163125 1.06640625 13.28125 C0.34304266 8.80328495 -0.17918816 4.55436565 0 0 Z " fill="#19416C" transform="translate(895,417)"/>
<path d="M0 0 C0.33 0 0.66 0 1 0 C1.054138 2.24973447 1.09285491 4.49984383 1.125 6.75 C1.14820313 8.00296875 1.17140625 9.2559375 1.1953125 10.546875 C1.01537302 13.72820492 0.68998582 15.36521896 -1 18 C-1.66 18 -2.32 18 -3 18 C-2.8863485 15.37405216 -2.75960946 12.74988453 -2.625 10.125 C-2.5940625 9.37863281 -2.563125 8.63226563 -2.53125 7.86328125 C-2.2265625 2.2265625 -2.2265625 2.2265625 0 0 Z " fill="#2B2A28" transform="translate(483,407)"/>
<path d="M0 0 C4.79821659 1.62114502 8.6672859 4.29276759 12.8125 7.125 C13.50537109 7.59292969 14.19824219 8.06085937 14.91210938 8.54296875 C16.61091105 9.69112437 18.30584864 10.84499367 20 12 C17.68445463 12.81511279 16.49398461 13.20596534 14.18481445 12.24316406 C13.5837085 11.83807617 12.98260254 11.43298828 12.36328125 11.015625 C11.37424805 10.35433594 11.37424805 10.35433594 10.36523438 9.6796875 C9.68783203 9.20789063 9.01042969 8.73609375 8.3125 8.25 C7.62349609 7.79367187 6.93449219 7.33734375 6.22460938 6.8671875 C1.13459093 3.40377279 1.13459093 3.40377279 0 0 Z " fill="#254C7A" transform="translate(289,802)"/>
<path d="M0 0 C0.88000719 2.41607467 1.21029003 3.53226652 0.13549805 5.92285156 C-0.31784912 6.5722168 -0.77119629 7.22158203 -1.23828125 7.890625 C-1.72876953 8.59960938 -2.21925781 9.30859375 -2.72460938 10.0390625 C-3.24861328 10.76867187 -3.77261719 11.49828125 -4.3125 12.25 C-4.82490234 12.99507812 -5.33730469 13.74015625 -5.86523438 14.5078125 C-8.69304055 18.53384163 -8.69304055 18.53384163 -10 20 C-10.66 20 -11.32 20 -12 20 C-10.37885498 15.20178341 -7.70723241 11.3327141 -4.875 7.1875 C-4.40707031 6.49462891 -3.93914063 5.80175781 -3.45703125 5.08789062 C-2.30887563 3.38908895 -1.15500633 1.69415136 0 0 Z " fill="#244672" transform="translate(846,683)"/>
<path d="M0 0 C2.77709679 3.37655821 5.27474011 6.81412986 7.625 10.5 C8.21539062 11.4178125 8.80578125 12.335625 9.4140625 13.28125 C10.88698938 15.80626751 11.99715852 18.2595619 13 21 C12.34 21 11.68 21 11 21 C8.87822486 18.43175579 7.17064073 15.55284022 5.375 12.75 C4.859375 11.97269531 4.34375 11.19539062 3.8125 10.39453125 C3.32523438 9.64042969 2.83796875 8.88632812 2.3359375 8.109375 C1.88782715 7.41811523 1.4397168 6.72685547 0.97802734 6.01464844 C0 4 0 4 0 0 Z " fill="#254C7A" transform="translate(174,678)"/>
<path d="M0 0 C0.97001953 0.05220703 1.94003906 0.10441406 2.93945312 0.15820312 C5.31420788 0.28688442 7.68843229 0.42179796 10.0625 0.5625 C10.0625 0.8925 10.0625 1.2225 10.0625 1.5625 C3.90151617 2.39186321 -2.22780785 2.69415744 -8.4375 2.75 C-9.14390625 2.76289062 -9.8503125 2.77578125 -10.578125 2.7890625 C-12.36617555 2.79252771 -14.15367826 2.68545033 -15.9375 2.5625 C-16.5975 1.9025 -17.2575 1.2425 -17.9375 0.5625 C-11.86770983 -0.57400717 -6.14688855 -0.36553609 0 0 Z " fill="#365A88" transform="translate(527.9375,103.4375)"/>
<path d="M0 0 C0 3 0 3 -1.43701172 4.76171875 C-2.09459473 5.39722656 -2.75217773 6.03273438 -3.4296875 6.6875 C-4.14253906 7.38617188 -4.85539062 8.08484375 -5.58984375 8.8046875 C-6.72099609 9.89136719 -6.72099609 9.89136719 -7.875 11 C-9.3537086 12.43529229 -10.83036077 13.87270705 -12.3046875 15.3125 C-12.96452637 15.94800781 -13.62436523 16.58351563 -14.30419922 17.23828125 C-16.19067525 19.09384143 -16.19067525 19.09384143 -18 22 C-18.66 22 -19.32 22 -20 22 C-18.51346494 18.53370165 -16.54277649 16.30977964 -13.8671875 13.671875 C-12.65869141 12.47304688 -12.65869141 12.47304688 -11.42578125 11.25 C-10.58402344 10.425 -9.74226563 9.6 -8.875 8.75 C-8.02550781 7.90953125 -7.17601562 7.0690625 -6.30078125 6.203125 C-4.20495077 4.13084317 -2.10459287 2.06337607 0 0 Z " fill="#F7F8F7" transform="translate(485,488)"/>
<path d="M0 0 C0.33 0 0.66 0 1 0 C1.21192221 5.19209404 0.5912689 9.126739 -1 14 C-1.66 14 -2.32 14 -3 14 C-3.33 14.99 -3.66 15.98 -4 17 C-4.33 15.35 -4.66 13.7 -5 12 C-4.34 12 -3.68 12 -3 12 C-3.185625 11.401875 -3.37125 10.80375 -3.5625 10.1875 C-4 8 -4 8 -3 5 C-2.34 5 -1.68 5 -1 5 C-0.67 3.35 -0.34 1.7 0 0 Z " fill="#224A79" transform="translate(890,576)"/>
<path d="M0 0 C0.66 0 1.32 0 2 0 C2 6.27 2 12.54 2 19 C1.01 19 0.02 19 -1 19 C-0.67 12.73 -0.34 6.46 0 0 Z " fill="#2A4F82" transform="translate(121,460)"/>
<path d="M0 0 C3.50697095 3.24957859 6.09368873 6.81312173 8.75 10.75 C9.36681641 11.65298828 9.36681641 11.65298828 9.99609375 12.57421875 C11.00123432 14.04686657 12.00115478 15.52307502 13 17 C12.01 17 11.02 17 10 17 C8.12488264 14.76462387 6.46383342 12.57851771 4.8125 10.1875 C4.34908203 9.54490234 3.88566406 8.90230469 3.40820312 8.24023438 C0 3.39646999 0 3.39646999 0 0 Z " fill="#234A79" transform="translate(188,700)"/>
<path d="M0 0 C2.97 0.33 5.94 0.66 9 1 C9.33 1.99 9.66 2.98 10 4 C8.92649292 3.75552124 8.92649292 3.75552124 7.83129883 3.50610352 C5.04519803 3.00807929 2.52537792 2.8858165 -0.30078125 2.90234375 C-1.27724609 2.90556641 -2.25371094 2.90878906 -3.25976562 2.91210938 C-4.77086914 2.92467773 -4.77086914 2.92467773 -6.3125 2.9375 C-7.33923828 2.94201172 -8.36597656 2.94652344 -9.42382812 2.95117188 C-11.94927882 2.96291816 -14.47460905 2.97934435 -17 3 C-17 2.67 -17 2.34 -17 2 C-11.39 2 -5.78 2 0 2 C0 1.34 0 0.68 0 0 Z " fill="#181818" transform="translate(519,339)"/>
<path d="M0 0 C0.99 0.33 1.98 0.66 3 1 C-0.75 4 -0.75 4 -3 4 C-3 4.66 -3 5.32 -3 6 C-4.96875 7.5078125 -4.96875 7.5078125 -7.5 9.125 C-8.3353125 9.66382813 -9.170625 10.20265625 -10.03125 10.7578125 C-10.6809375 11.16773438 -11.330625 11.57765625 -12 12 C-12 11.01 -12 10.02 -12 9 C-10.09576717 7.26404821 -8.25584977 5.76249568 -6.1875 4.25 C-5.64029297 3.82589844 -5.09308594 3.40179688 -4.52929688 2.96484375 C-2.91796875 1.765625 -2.91796875 1.765625 0 0 Z " fill="#254D80" transform="translate(281,178)"/>
<path d="M0 0 C-4.62 3.3 -9.24 6.6 -14 10 C-14.66 9.67 -15.32 9.34 -16 9 C-13.30291809 6.13945858 -10.55626501 3.52456704 -7.4375 1.125 C-6.87933594 0.69445312 -6.32117188 0.26390625 -5.74609375 -0.1796875 C-4 -1 -4 -1 0 0 Z " fill="#24497F" transform="translate(303,166)"/>
<path d="M0 0 C0.99 0 1.98 0 3 0 C4.32594359 5.96674616 4.0884587 11.92583615 4 18 C3.67 18 3.34 18 3 18 C1.01401507 12.04204521 0.42954941 6.25107435 0 0 Z " fill="#254A7A" transform="translate(121,516)"/>
<path d="M0 0 C1.9507829 2.92617435 2.71513462 5.02044581 3.625 8.375 C3.88539063 9.31085937 4.14578125 10.24671875 4.4140625 11.2109375 C4.97925133 13.90123635 5.10954217 16.26144571 5 19 C3 18 3 18 2.1484375 15.99609375 C0.47030831 10.44470679 -0.32200738 5.79613286 0 0 Z " fill="#254B76" transform="translate(131,569)"/>
<path d="M0 0 C1.37344385 4.39844322 0.24307502 7.92504555 -0.9375 12.25 C-1.23043945 13.36761719 -1.23043945 13.36761719 -1.52929688 14.5078125 C-2.01104198 16.34079386 -2.50439225 18.17071818 -3 20 C-3.33 20 -3.66 20 -4 20 C-4.35271085 12.59307217 -3.33113024 6.66226048 0 0 Z " fill="#215281" transform="translate(134,390)"/>
<path d="M0 0 C2.67389923 1.9904957 5.33857523 3.99286265 8 6 C8.99 6.7425 9.98 7.485 11 8.25 C11.66 8.8275 12.32 9.405 13 10 C13 10.66 13 11.32 13 12 C9.47761953 10.43632643 6.72876006 8.30504111 3.75 5.875 C2.85796875 5.15054688 1.9659375 4.42609375 1.046875 3.6796875 C0.37140625 3.12539062 -0.3040625 2.57109375 -1 2 C-0.67 1.34 -0.34 0.68 0 0 Z " fill="#224776" transform="translate(743,178)"/>
<path d="M0 0 C-0.639375 0.309375 -1.27875 0.61875 -1.9375 0.9375 C-3.93610821 1.8345163 -3.93610821 1.8345163 -5 3 C-10.91283789 4.05586391 -16.07575193 3.89137992 -22 3 C-22 2.67 -22 2.34 -22 2 C-19.64655194 1.66076424 -17.2924516 1.32849466 -14.9375 1 C-14.28072266 0.90460937 -13.62394531 0.80921875 -12.94726562 0.7109375 C-8.59861237 0.11112326 -4.38670929 -0.09127093 0 0 Z " fill="#1B3C70" transform="translate(572,868)"/>
<path d="M0 0 C-1.32 0.33 -2.64 0.66 -4 1 C-4 1.66 -4 2.32 -4 3 C-7.67387495 3.85298376 -11.0447393 4.10789471 -14.8125 4.0625 C-16.27623047 4.04896484 -16.27623047 4.04896484 -17.76953125 4.03515625 C-18.87361328 4.01775391 -18.87361328 4.01775391 -20 4 C-16.89234404 2.25971266 -14.0636951 1.48685934 -10.5625 0.875 C-9.17224609 0.62363281 -9.17224609 0.62363281 -7.75390625 0.3671875 C-5.12946175 0.01726157 -2.64357647 -0.06716891 0 0 Z " fill="#20406E" transform="translate(594,864)"/>
<path d="M0 0 C0.66 0 1.32 0 2 0 C0.42219077 3.71045247 -1.90703248 6.29906384 -4.625 9.25 C-5.44226563 10.14203125 -6.25953125 11.0340625 -7.1015625 11.953125 C-7.72804687 12.62859375 -8.35453125 13.3040625 -9 14 C-9.33 13.34 -9.66 12.68 -10 12 C-8.52149287 10.18696196 -7.04217625 8.37458402 -5.5625 6.5625 C-4.32693359 5.04849609 -4.32693359 5.04849609 -3.06640625 3.50390625 C-1 1 -1 1 0 0 Z " fill="#224A7B" transform="translate(214,239)"/>
<path d="M0 0 C0 0.66 0 1.32 0 2 C-1.90881434 3.03544174 -3.82739204 4.05290085 -5.75 5.0625 C-6.81734375 5.63097656 -7.8846875 6.19945312 -8.984375 6.78515625 C-12.02593537 8.01044806 -13.04893565 8.25348607 -16 7 C-13.71070947 5.82845707 -11.41881638 4.66261926 -9.125 3.5 C-8.47402344 3.16613281 -7.82304688 2.83226562 -7.15234375 2.48828125 C-2.2265625 0 -2.2265625 0 0 0 Z " fill="#204472" transform="translate(693,828)"/>
<path d="M0 0 C0.99 0 1.98 0 3 0 C3 3.63 3 7.26 3 11 C2.01 11 1.02 11 0 11 C0 7.37 0 3.74 0 0 Z " fill="#2C6291" transform="translate(120,479)"/>
<path d="M0 0 C4.82419514 3.13572684 9.42284316 6.5148552 14 10 C13.01 10.33 12.02 10.66 11 11 C8.30078125 9.453125 8.30078125 9.453125 5.3125 7.25 C4.31863281 6.53328125 3.32476562 5.8165625 2.30078125 5.078125 C1.54152344 4.39234375 0.78226562 3.7065625 0 3 C0 2.01 0 1.02 0 0 Z " fill="#274C7E" transform="translate(263,782)"/>
<path d="M0 0 C1.2536419 3.51180455 0.77956527 5.33464859 -0.75 8.6875 C-1.09546875 9.47511719 -1.4409375 10.26273438 -1.796875 11.07421875 C-3 13 -3 13 -6 14 C-5.71125 13.154375 -5.4225 12.30875 -5.125 11.4375 C-4.34169928 9.04408113 -3.63893368 6.62343465 -3 4.1875 C-2.67 3.135625 -2.34 2.08375 -2 1 C-1.34 0.67 -0.68 0.34 0 0 Z " fill="#204372" transform="translate(867,643)"/>
<path d="M0 0 C0.68359375 1.734375 0.68359375 1.734375 1 4 C-0.21484375 6.140625 -0.21484375 6.140625 -1.9375 8.25 C-2.50339844 8.95640625 -3.06929687 9.6628125 -3.65234375 10.390625 C-4.31943359 11.18726563 -4.31943359 11.18726563 -5 12 C-5.99 11.67 -6.98 11.34 -8 11 C-5.9785845 6.42521756 -3.68006822 3.38168431 0 0 Z " fill="#214876" transform="translate(832,704)"/>
<path d="M0 0 C1.485 0.99 1.485 0.99 3 2 C3.625 5.25 3.625 5.25 4 9 C4.3274322 11.00097458 4.65876419 13.00133314 5 15 C4.34 15 3.68 15 3 15 C1.094753 9.89665983 -0.42589023 5.53657294 0 0 Z " fill="#254D7D" transform="translate(139,598)"/>
<path d="M0 0 C3.1611016 3.1611016 3.38812741 3.5561582 3.6875 7.6875 C3.75324219 8.49574219 3.81898438 9.30398438 3.88671875 10.13671875 C3.92410156 10.75160156 3.96148438 11.36648438 4 12 C3.01 12.495 3.01 12.495 2 13 C2 11.68 2 10.36 2 9 C1.34 9 0.68 9 0 9 C0 6.03 0 3.06 0 0 Z " fill="#1D4C79" transform="translate(891,400)"/>
<path d="M0 0 C3.42946293 1.61674681 6.56263052 3.57597677 9.75 5.625 C11.22726562 6.57246094 11.22726562 6.57246094 12.734375 7.5390625 C13.48203125 8.02117188 14.2296875 8.50328125 15 9 C14.34 9.66 13.68 10.32 13 11 C10.82754427 9.54970675 8.66219911 8.09044056 6.5 6.625 C5.87996094 6.2125 5.25992187 5.8 4.62109375 5.375 C3.04474379 4.30100332 1.51791243 3.15511468 0 2 C0 1.34 0 0.68 0 0 Z " fill="#ECEDEE" transform="translate(391,636)"/>
<path d="M0 0 C5.27315333 0.4452885 10.01770224 1.08373163 15 3 C15 3.66 15 4.32 15 5 C4.44191344 3.07289294 4.44191344 3.07289294 0 1 C0 0.67 0 0.34 0 0 Z " fill="#274E82" transform="translate(624,121)"/>
<path d="M0 0 C0.99 0.33 1.98 0.66 3 1 C1.88037801 2.64949657 0.75413155 4.29449838 -0.375 5.9375 C-1.00148437 6.85402344 -1.62796875 7.77054687 -2.2734375 8.71484375 C-4 11 -4 11 -6 12 C-5.36934243 8.78147169 -4.21979305 6.49198931 -2.4375 3.75 C-1.98246094 3.04359375 -1.52742187 2.3371875 -1.05859375 1.609375 C-0.53458984 0.81273437 -0.53458984 0.81273437 0 0 Z " fill="#254E7D" transform="translate(191,267)"/>
<path d="M0 0 C0.99 0 1.98 0 3 0 C2.44739574 3.31562557 1.83174295 6.15062207 0 9 C-0.99 9.33 -1.98 9.66 -3 10 C-2.01 6.7 -1.02 3.4 0 0 Z " fill="#204473" transform="translate(851,671)"/>
<path d="M0 0 C0.99 0 1.98 0 3 0 C2.67 7.26 2.34 14.52 2 22 C1.67 22 1.34 22 1 22 C0.67 14.74 0.34 7.48 0 0 Z " fill="#375F91" transform="translate(120,492)"/>
<path d="M0 0 C0.66 0 1.32 0 2 0 C0.63629701 2.99220268 -0.94908083 5.29026529 -3.125 7.75 C-3.93324219 8.67039062 -3.93324219 8.67039062 -4.7578125 9.609375 C-5.16773438 10.06828125 -5.57765625 10.5271875 -6 11 C-6.99 10.67 -7.98 10.34 -9 10 C-7.5484451 8.32742645 -6.08855591 6.66208242 -4.625 5 C-3.81289063 4.071875 -3.00078125 3.14375 -2.1640625 2.1875 C-1.44992187 1.465625 -0.73578125 0.74375 0 0 Z " fill="#1F406F" transform="translate(798,746)"/>
<path d="M0 0 C3.29240875 2.79854744 5.03562946 6.20673275 7 10 C7 10.99 7 11.98 7 13 C6.34 13 5.68 13 5 13 C4.15615325 11.58957044 3.32530504 10.17135868 2.5 8.75 C2.0359375 7.96109375 1.571875 7.1721875 1.09375 6.359375 C0 4 0 4 0 0 Z " fill="#204572" transform="translate(165,662)"/>
<path d="M0 0 C0.33 0 0.66 0 1 0 C0.49202991 4.3177458 -0.19682779 8.03302114 -2 12 C-2.99 11.67 -3.98 11.34 -5 11 C-4.34 8.69 -3.68 6.38 -3 4 C-2.34 4 -1.68 4 -1 4 C-0.67 2.68 -0.34 1.36 0 0 Z " fill="#234471" transform="translate(873,629)"/>
<path d="M0 0 C0.99 0 1.98 0 3 0 C4.640625 1.64453125 4.640625 1.64453125 6.25 3.8125 C6.79140625 4.52019531 7.3328125 5.22789062 7.890625 5.95703125 C8.25671875 6.63121094 8.6228125 7.30539063 9 8 C8.67 8.99 8.34 9.98 8 11 C6.66072279 9.54712339 5.32873153 8.08752741 4 6.625 C3.2575 5.81289062 2.515 5.00078125 1.75 4.1640625 C0 2 0 2 0 0 Z " fill="#1D4277" transform="translate(814,247)"/>
<path d="M0 0 C0.66 0 1.32 0 2 0 C1.43697042 3.94120709 0.3208055 6.7508723 -2 10 C-2.66 10 -3.32 10 -4 10 C-4.1875 7.6875 -4.1875 7.6875 -4 5 C-2.5625 3.3125 -2.5625 3.3125 -1 2 C-0.67 1.34 -0.34 0.68 0 0 Z " fill="#214672" transform="translate(859,659)"/>
<path d="M0 0 C0.66 0.33 1.32 0.66 2 1 C-0.31 4.63 -2.62 8.26 -5 12 C-6 8 -6 8 -4.78515625 5.859375 C-4.21667969 5.16328125 -3.64820313 4.4671875 -3.0625 3.75 C-2.49660156 3.04359375 -1.93070313 2.3371875 -1.34765625 1.609375 C-0.90292969 1.07828125 -0.45820313 0.5471875 0 0 Z " fill="#244A79" transform="translate(183,280)"/>
<path d="M0 0 C1.61648438 0.04060547 1.61648438 0.04060547 3.265625 0.08203125 C4.08546875 0.11683594 4.9053125 0.15164062 5.75 0.1875 C2.34648662 2.21969488 -0.5732927 2.55641039 -4.5 2.8125 C-6.11648438 2.92464844 -6.11648438 2.92464844 -7.765625 3.0390625 C-8.58546875 3.08804688 -9.4053125 3.13703125 -10.25 3.1875 C-6.86416198 0.05642164 -4.53890538 -0.14800778 0 0 Z " fill="#1D4E80" transform="translate(442.25,109.8125)"/>
<path d="M0 0 C0.91007813 0.10183594 1.82015625 0.20367187 2.7578125 0.30859375 C3.45648437 0.39238281 4.15515625 0.47617188 4.875 0.5625 C1.87254796 3.18620236 0.10353212 3.92552348 -3.875 3.75 C-5.07382812 3.70939453 -5.07382812 3.70939453 -6.296875 3.66796875 C-6.90015625 3.63316406 -7.5034375 3.59835938 -8.125 3.5625 C-7.795 2.5725 -7.465 1.5825 -7.125 0.5625 C-4.50184968 -0.74907516 -2.89466564 -0.33399988 0 0 Z " fill="#2F6694" transform="translate(545.125,104.4375)"/>
<path d="M0 0 C-4.82473266 2.92023292 -7.30244005 4.12386 -13 4 C-10.96180154 1.96180154 -9.70582202 1.32158941 -7.0625 0.3125 C-6.37285156 0.04050781 -5.68320312 -0.23148438 -4.97265625 -0.51171875 C-3 -1 -3 -1 0 0 Z " fill="#1F4370" transform="translate(645,850)"/>
<path d="M0 0 C0 3.44360632 -0.79591532 4.74795392 -2.5 7.6875 C-2.9640625 8.49574219 -3.428125 9.30398438 -3.90625 10.13671875 C-4.44765625 11.05904297 -4.44765625 11.05904297 -5 12 C-5.66 11.01 -6.32 10.02 -7 9 C-6.21448343 7.68381002 -5.4213763 6.37214772 -4.625 5.0625 C-4.18414062 4.33160156 -3.74328125 3.60070312 -3.2890625 2.84765625 C-2 1 -2 1 0 0 Z " fill="#224673" transform="translate(175,294)"/>
<path d="M0 0 C0.33 0.99 0.66 1.98 1 3 C-0.40445835 5.2636564 -2.1967913 7.0208685 -4 9 C-4.99 8.67 -5.98 8.34 -7 8 C-6.34 6.68 -5.68 5.36 -5 4 C-4.01 4 -3.02 4 -2 4 C-1.34 2.68 -0.68 1.36 0 0 Z " fill="#234771" transform="translate(807,736)"/>
<path d="M0 0 C3.05936637 3.75467691 5 7.08113061 5 12 C4.34 12 3.68 12 3 12 C-0.42857143 4.71428571 -0.42857143 4.71428571 0 0 Z " fill="#244877" transform="translate(148,624)"/>
<path d="M0 0 C-1.45537568 0.83848804 -2.91440373 1.67063934 -4.375 2.5 C-5.59316406 3.19609375 -5.59316406 3.19609375 -6.8359375 3.90625 C-9 5 -9 5 -11 5 C-11 4.34 -11 3.68 -11 3 C-4.03571429 -1.41964286 -4.03571429 -1.41964286 0 0 Z " fill="#264C7D" transform="translate(336,147)"/>
<path d="M0 0 C0.66 0 1.32 0 2 0 C0.6062718 4.43458973 -1.60582235 6.87378374 -5 10 C-5.66 9.67 -6.32 9.34 -7 9 C-5.88266271 7.49428343 -4.75589965 5.99555708 -3.625 4.5 C-2.99851562 3.6646875 -2.37203125 2.829375 -1.7265625 1.96875 C-1.15679688 1.3190625 -0.58703125 0.669375 0 0 Z " fill="#20456E" transform="translate(816,725)"/>
<path d="M0 0 C0 0.99 0 1.98 0 3 C-2.31 3.33 -4.62 3.66 -7 4 C-7.33 3.01 -7.66 2.02 -8 1 C-5.10765685 0.17361624 -3.11257569 0 0 0 Z " fill="#EEEDEB" transform="translate(479,279)"/>
<path d="M0 0 C0.99 0.33 1.98 0.66 3 1 C-0.96 4.465 -0.96 4.465 -5 8 C-5.66 7.67 -6.32 7.34 -7 7 C-2.25 1.125 -2.25 1.125 0 0 Z " fill="#1E4581" transform="translate(264,191)"/>
<path d="M0 0 C3.3 0.33 6.6 0.66 10 1 C5.5 4.375 5.5 4.375 1.25 4.1875 C0.05117188 4.14689453 0.05117188 4.14689453 -1.171875 4.10546875 C-1.77515625 4.07066406 -2.3784375 4.03585938 -3 4 C-2.01 3.67 -1.02 3.34 0 3 C0 2.01 0 1.02 0 0 Z " fill="#366B9B" transform="translate(551,105)"/>
<path d="M0 0 C0.89868727 2.51632435 1.1616905 3.60732308 0.125 6.125 C-0.24625 6.74375 -0.6175 7.3625 -1 8 C-1.33 8.66 -1.66 9.32 -2 10 C-2.66 10 -3.32 10 -4 10 C-3.71872579 8.51882199 -3.42466268 7.04006751 -3.125 5.5625 C-2.96257813 4.73878906 -2.80015625 3.91507812 -2.6328125 3.06640625 C-2.42398438 2.38449219 -2.21515625 1.70257813 -2 1 C-1.34 0.67 -0.68 0.34 0 0 Z " fill="#161716" transform="translate(542,421)"/>
<path d="M0 0 C0.33 0.66 0.66 1.32 1 2 C1.66 2 2.32 2 3 2 C2.46930939 5.82097239 1.50298434 8.06171403 -1 11 C-0.814375 10.071875 -0.62875 9.14375 -0.4375 8.1875 C0.24123881 4.98656229 0.24123881 4.98656229 -1 2 C-0.67 1.34 -0.34 0.68 0 0 Z " fill="#31629B" transform="translate(149,343)"/>
<path d="M0 0 C1.21236328 0.01353516 1.21236328 0.01353516 2.44921875 0.02734375 C3.37154297 0.04474609 3.37154297 0.04474609 4.3125 0.0625 C1.72090562 2.65409438 -0.10704865 2.62407739 -3.6875 3.0625 C-4.6775 3.0625 -5.6675 3.0625 -6.6875 3.0625 C-7.0175 2.4025 -7.3475 1.7425 -7.6875 1.0625 C-4.80538698 0.10179566 -2.98899956 -0.04331883 0 0 Z " fill="#36689A" transform="translate(382.6875,125.9375)"/>
<path d="M0 0 C-3.03525486 2.02350324 -4.19426202 2.32124018 -7.6875 2.625 C-8.49574219 2.69976562 -9.30398438 2.77453125 -10.13671875 2.8515625 C-10.75160156 2.90054688 -11.36648438 2.94953125 -12 3 C-12 2.34 -12 1.68 -12 1 C-8.0186217 -0.3271261 -4.14954773 -0.06915913 0 0 Z " fill="#255586" transform="translate(426,114)"/>
<path d="M0 0 C0 0.66 0 1.32 0 2 C-4.51617599 2.07654536 -8.59085217 2.10228696 -13 1 C-13 0.67 -13 0.34 -13 0 C-8.37078475 -1.0161692 -4.65537393 -0.83796731 0 0 Z " fill="#214370" transform="translate(576,108)"/>
<path d="M0 0 C5.12583611 -0.10251672 9.94997778 -0.03590199 15 1 C15 1.33 15 1.66 15 2 C4.44191344 3.51708428 4.44191344 3.51708428 0 1 C0 0.67 0 0.34 0 0 Z " fill="#11346E" transform="translate(460,869)"/>
<path d="M0 0 C1.48199902 0.44909061 2.96055236 0.90956564 4.4375 1.375 C5.26121094 1.63023437 6.08492188 1.88546875 6.93359375 2.1484375 C9 3 9 3 10 5 C7.03 4.67 4.06 4.34 1 4 C0.67 2.68 0.34 1.36 0 0 Z " fill="#224676" transform="translate(362,842)"/>
<path d="M0 0 C0.33 0.99 0.66 1.98 1 3 C-1.35968744 5.09749995 -2.54616994 5.96905704 -5.75 6.1875 C-6.86375 6.0946875 -6.86375 6.0946875 -8 6 C-4.25 3 -4.25 3 -2 3 C-2 2.34 -2 1.68 -2 1 C-1.34 0.67 -0.68 0.34 0 0 Z " fill="#204572" transform="translate(664,839)"/>
<path d="M0 0 C0.33 0.99 0.66 1.98 1 3 C-1.35438733 4.42944945 -2.48032433 5.08661261 -5.25 4.625 C-5.8275 4.41875 -6.405 4.2125 -7 4 C-7 3.34 -7 2.68 -7 2 C-4.69 1.34 -2.38 0.68 0 0 Z " fill="#234A74" transform="translate(674,836)"/>
<path d="M0 0 C0.33 0 0.66 0 1 0 C1.33 5.28 1.66 10.56 2 16 C1.01 16 0.02 16 -1 16 C-0.67 10.72 -0.34 5.44 0 0 Z " fill="#1C1E1D" transform="translate(481,409)"/>
<path d="M0 0 C0.66 0 1.32 0 2 0 C3.80230168 3.82989106 4.19622241 6.78121808 4 11 C1.6870518 8.6870518 1.50419025 7.52095125 0.875 4.375 C0.70742188 3.55773437 0.53984375 2.74046875 0.3671875 1.8984375 C0.24601563 1.27195312 0.12484375 0.64546875 0 0 Z " fill="#1E3F6D" transform="translate(879,360)"/>
<path d="M0 0 C0.66 0.33 1.32 0.66 2 1 C-1.96 4.465 -1.96 4.465 -6 8 C-6.66 7.67 -7.32 7.34 -8 7 C-5.36 4.69 -2.72 2.38 0 0 Z " fill="#7DAAD3" transform="translate(254,259)"/>
<path d="M0 0 C2.96404505 2.80804268 5.44499019 5.18315774 7 9 C4.37098712 7.47793991 2.15634036 6.15634036 0 4 C0 2.68 0 1.36 0 0 Z " fill="#2B537B" transform="translate(809,239)"/>
<path d="M0 0 C0.66 0.33 1.32 0.66 2 1 C-0.31 3.64 -2.62 6.28 -5 9 C-5.33 8.01 -5.66 7.02 -6 6 C-4.02 4.02 -2.04 2.04 0 0 Z " fill="#234B7B" transform="translate(224,228)"/>
<path d="M0 0 C1.43655854 -0.08131463 2.8744483 -0.13933559 4.3125 -0.1875 C5.51326172 -0.23970703 5.51326172 -0.23970703 6.73828125 -0.29296875 C9.47851584 0.06198392 10.29171079 0.89366282 12 3 C4.61538462 3.36923077 4.61538462 3.36923077 1.5 1.5 C1.005 1.005 0.51 0.51 0 0 Z " fill="#376699" transform="translate(463,106)"/>
<path d="M0 0 C0.66 0.66 1.32 1.32 2 2 C0.68 4.64 -0.64 7.28 -2 10 C-2.66 9.34 -3.32 8.68 -4 8 C-3.34 6.02 -2.68 4.04 -2 2 C-1.34 2 -0.68 2 0 2 C0 1.34 0 0.68 0 0 Z " fill="#F0EFEC" transform="translate(691,563)"/>
<path d="M0 0 C0.33 0.99 0.66 1.98 1 3 C0.01 4.485 0.01 4.485 -1 6 C-1.68177416 7.32567199 -2.35191436 8.65753688 -3 10 C-3.93065133 7.39417629 -4.14917407 6.35801776 -3.0625 3.75 C-2.711875 3.1725 -2.36125 2.595 -2 2 C-1.34 2 -0.68 2 0 2 C0 1.34 0 0.68 0 0 Z " fill="#151616" transform="translate(438,391)"/>
<path d="M0 0 C0.66 0 1.32 0 2 0 C1.71872579 1.48117801 1.42466268 2.95993249 1.125 4.4375 C0.96257812 5.26121094 0.80015625 6.08492188 0.6328125 6.93359375 C0.31957031 7.95646484 0.31957031 7.95646484 0 9 C-0.99 9.495 -0.99 9.495 -2 10 C-1.125 2.25 -1.125 2.25 0 0 Z " fill="#254D7B" transform="translate(144,356)"/>
<path d="M0 0 C0.66 0.33 1.32 0.66 2 1 C-3.29230769 5.92307692 -3.29230769 5.92307692 -6.875 6.3125 C-7.926875 6.1578125 -7.926875 6.1578125 -9 6 C-6.45368965 3.02930459 -3.57769851 1.5224249 0 0 Z " fill="#306499" transform="translate(427,292)"/>
<path d="M0 0 C3.46941546 0.45822468 6.67395049 0.89131683 10 2 C10 2.66 10 3.32 10 4 C8.51882199 3.71872579 7.04006751 3.42466268 5.5625 3.125 C4.73878906 2.96257812 3.91507813 2.80015625 3.06640625 2.6328125 C2.38449219 2.42398438 1.70257812 2.21515625 1 2 C0.67 1.34 0.34 0.68 0 0 Z " fill="#204677" transform="translate(658,133)"/>
<path d="M0 0 C0.66 0.33 1.32 0.66 2 1 C-1.32307692 5.8 -1.32307692 5.8 -4.75 6.8125 C-5.4925 6.874375 -6.235 6.93625 -7 7 C-4.66666667 4.66666667 -2.33333333 2.33333333 0 0 Z " fill="#153476" transform="translate(640,631)"/>
<path d="M0 0 C3.36591866 1.44253657 5.51047079 3.33264727 8 6 C7.67 6.99 7.34 7.98 7 9 C5.83037314 7.69013727 4.66437056 6.3770374 3.5 5.0625 C2.8503125 4.33160156 2.200625 3.60070312 1.53125 2.84765625 C0 1 0 1 0 0 Z " fill="#1C3F6E" transform="translate(801,232)"/>
<path d="M0 0 C0.99 0.33 1.98 0.66 3 1 C-0.465 3.97 -0.465 3.97 -4 7 C-4 4 -4 4 -2 1.8125 C-1.34 1.214375 -0.68 0.61625 0 0 Z " fill="#254E80" transform="translate(246,206)"/>
<path d="M0 0 C0.66 0.33 1.32 0.66 2 1 C1 4 1 4 -2.0625 5.6875 C-3.031875 6.120625 -4.00125 6.55375 -5 7 C-3.70700306 4.11562221 -2.34058637 2.12780579 0 0 Z " fill="#295685" transform="translate(256,197)"/>
<path d="M0 0 C-0.66 0 -1.32 0 -2 0 C-2 0.66 -2 1.32 -2 2 C-4.3125 2.625 -4.3125 2.625 -7 3 C-7.99 2.34 -8.98 1.68 -10 1 C-3.71428571 -1.42857143 -3.71428571 -1.42857143 0 0 Z " fill="#17356A" transform="translate(614,860)"/>
<path d="M0 0 C0.33 0 0.66 0 1 0 C1 2.31 1 4.62 1 7 C0.34 7 -0.32 7 -1 7 C-1.33 7.99 -1.66 8.98 -2 10 C-2.33 8.35 -2.66 6.7 -3 5 C-2.34 5 -1.68 5 -1 5 C-0.67 3.35 -0.34 1.7 0 0 Z " fill="#183C6A" transform="translate(888,583)"/>
<path d="M0 0 C2.97 1.98 2.97 1.98 6 4 C4.25 4.75 4.25 4.75 2 5 C-0.25 3.0625 -0.25 3.0625 -2 1 C-1.34 0.67 -0.68 0.34 0 0 Z " fill="#151514" transform="translate(560,354)"/>
<path d="M0 0 C2 1 2 1 3 3 C1.35 3.66 -0.3 4.32 -2 5 C-2.33 3.68 -2.66 2.36 -3 1 C-2.01 0.67 -1.02 0.34 0 0 Z " fill="#254D7D" transform="translate(733,801)"/>
<path d="M0 0 C0 0.66 0 1.32 0 2 C-1.8125 3.6875 -1.8125 3.6875 -4 5 C-4.99 4.67 -5.98 4.34 -7 4 C-6.67 3.01 -6.34 2.02 -6 1 C-3.90006779 0.25486277 -2.22568901 0 0 0 Z " fill="#193F6A" transform="translate(766,779)"/>
<path d="M0 0 C-1.15173355 2.46800047 -2.04783565 4.04783565 -4 6 C-4.99 5.67 -5.98 5.34 -7 5 C-2.25 0 -2.25 0 0 0 Z " fill="#1F426E" transform="translate(780,766)"/>
<path d="M0 0 C2.7972908 2.06756277 3.02692273 3.14440371 3.6875 6.6875 C3.790625 7.780625 3.89375 8.87375 4 10 C2 9 2 9 0.875 6.6875 C0 4 0 4 0 0 Z " fill="#2C4B89" transform="translate(153,637)"/>
<path d="M0 0 C0.66 0 1.32 0 2 0 C2.1875 2.375 2.1875 2.375 2 5 C1.01 5.66 0.02 6.32 -1 7 C-1.33 5.35 -1.66 3.7 -2 2 C-1.34 2 -0.68 2 0 2 C0 1.34 0 0.68 0 0 Z " fill="#194171" transform="translate(875,621)"/>
<path d="M0 0 C0.33 0 0.66 0 1 0 C2.28571429 7.42857143 2.28571429 7.42857143 1 11 C0.34 11 -0.32 11 -1 11 C-0.67 7.37 -0.34 3.74 0 0 Z " fill="#193862" transform="translate(895,550)"/>
<path d="M0 0 C0.66 0 1.32 0 2 0 C2.33 2.31 2.66 4.62 3 7 C2.01 7.33 1.02 7.66 0 8 C0 5.36 0 2.72 0 0 Z " fill="#3C6596" transform="translate(310,456)"/>
<path d="M0 0 C3.24271506 0.5590888 4.93057424 1.4132178 7 4 C7 4.66 7 5.32 7 6 C3.63279613 4.60667426 2.0140476 3.0210714 0 0 Z " fill="#224778" transform="translate(784,215)"/>
<path d="M0 0 C-5.625 3 -5.625 3 -9 3 C-9 2.34 -9 1.68 -9 1 C-5.57367167 -0.61798838 -3.61944899 -1.34053666 0 0 Z " fill="#244E80" transform="translate(372,131)"/>
<path d="M0 0 C1 4 1 4 1 4 Z " fill="#000000" transform="translate(903,456)"/>
<path d="" fill="#000000" transform="translate(0,0)"/>
<path d="" fill="#000000" transform="translate(0,0)"/>
<path d="" fill="#0000FF" transform="translate(0,0)"/>
<path d="" fill="#000000" transform="translate(0,0)"/>
<path d="" fill="#000000" transform="translate(0,0)"/>
<path d="" fill="#000000" transform="translate(0,0)"/>
<path d="" fill="#000000" transform="translate(0,0)"/>
<path d="" fill="#000000" transform="translate(0,0)"/>
<path d="" fill="#000000" transform="translate(0,0)"/>
<path d="" fill="#000000" transform="translate(0,0)"/>
<path d="" fill="#000000" transform="translate(0,0)"/>
<path d="" fill="#000000" transform="translate(0,0)"/>
<path d="" fill="#000000" transform="translate(0,0)"/>
<path d="" fill="#000000" transform="translate(0,0)"/>
<path d="" fill="#000000" transform="translate(0,0)"/>
<path d="" fill="#000000" transform="translate(0,0)"/>
<path d="" fill="#000000" transform="translate(0,0)"/>
<path d="" fill="#000000" transform="translate(0,0)"/>
<path d="" fill="#000000" transform="translate(0,0)"/>
<path d="" fill="#0000FF" transform="translate(0,0)"/>
<path d="" fill="#000000" transform="translate(0,0)"/>
<path d="" fill="#0000FF" transform="translate(0,0)"/>
<path d="" fill="#000000" transform="translate(0,0)"/>
<path d="" fill="#000000" transform="translate(0,0)"/>
<path d="" fill="#000000" transform="translate(0,0)"/>
<path d="" fill="#000000" transform="translate(0,0)"/>
<path d="" fill="#000000" transform="translate(0,0)"/>
<path d="" fill="#000000" transform="translate(0,0)"/>
<path d="" fill="#000000" transform="translate(0,0)"/>
<path d="" fill="#000000" transform="translate(0,0)"/>
<path d="" fill="#0000FF" transform="translate(0,0)"/>
<path d="" fill="#000000" transform="translate(0,0)"/>
</svg>
