<?xml version="1.0" encoding="UTF-8"?>
<svg version="1.1" xmlns="http://www.w3.org/2000/svg" width="1024" height="1024">
<path d="M0 0 C1.81842407 0.00223572 1.81842407 0.00223572 3.67358398 0.0045166 C21.2965682 0.0434772 38.51153769 0.50649782 55.9375 3.3125 C56.9073584 3.45703613 57.8772168 3.60157227 58.87646484 3.75048828 C118.44525869 12.66064578 176.22031694 35.37288063 225.9375 69.3125 C226.68080566 69.8163623 227.42411133 70.32022461 228.18994141 70.83935547 C243.45397513 81.22836447 257.54151545 92.95528286 271.47314453 105.04785156 C272.75362649 106.15370294 274.04579608 107.24599165 275.33984375 108.3359375 C279.32698383 111.71850164 282.77573271 115.28986995 286.15625 119.27734375 C288.55250928 122.01517508 291.13365148 124.53637039 293.75 127.0625 C323.15037359 157.30288426 347.1307907 194.75720289 363.9375 233.3125 C364.36627441 234.29347656 364.79504883 235.27445313 365.23681641 236.28515625 C402.58732194 322.67227796 409.04350197 420.28339238 369.9375 537.3125 C353.70246044 577.44625697 331.78618511 615.99443702 302.2109375 647.85546875 C300.19565584 650.03349653 298.24477564 652.24859286 296.3125 654.5 C292.71667639 658.63858943 288.84980418 662.47527202 284.9375 666.3125 C284.133125 667.116875 283.32875 667.92125 282.5 668.75 C281.654375 669.595625 280.80875 670.44125 279.9375 671.3125 C279.26976562 671.99183594 278.60203125 672.67117188 277.9140625 673.37109375 C273.09311108 678.24963333 268.15922944 682.86905259 262.9375 687.3125 C262.03902344 688.10011719 261.14054688 688.88773438 260.21484375 689.69921875 C228.42238612 717.3724393 190.4840499 740.98952786 151.2578125 756.39746094 C148.89223881 757.33034921 146.54026804 758.29313928 144.1875 759.2578125 C102.49559612 776.05594666 56.83733868 784.51564279 11.9375 785.3125 C11.22029785 785.32764648 10.5030957 785.34279297 9.76416016 785.35839844 C4.48555464 785.45525358 -0.78426353 785.41194963 -6.0625 785.3125 C-6.91666504 785.29993164 -7.77083008 785.28736328 -8.65087891 785.27441406 C-48.43817723 784.57249593 -88.07145917 777.35769774 -125.83984375 764.94140625 C-128.15862495 764.17636831 -128.15862495 764.17636831 -131.0625 764.3125 C-131.0625 763.6525 -131.0625 762.9925 -131.0625 762.3125 C-132.16259399 762.11672363 -132.16259399 762.11672363 -133.28491211 761.91699219 C-135.8495508 761.35884457 -138.07717681 760.6243983 -140.50390625 759.640625 C-141.32979248 759.30820801 -142.15567871 758.97579102 -143.0065918 758.63330078 C-143.8706665 758.27993652 -144.73474121 757.92657227 -145.625 757.5625 C-146.5116333 757.20269043 -147.3982666 756.84288086 -148.31176758 756.47216797 C-150.08070786 755.75324898 -151.84887415 755.03242224 -153.61621094 754.30957031 C-155.74263522 753.44287203 -157.87341424 752.58899291 -160.0078125 751.7421875 C-161.61269531 751.09636719 -161.61269531 751.09636719 -163.25 750.4375 C-164.17167969 750.06882812 -165.09335937 749.70015625 -166.04296875 749.3203125 C-168.0625 748.3125 -168.0625 748.3125 -169.0625 746.3125 C-170.72487322 745.95837551 -172.39242065 745.62829083 -174.0625 745.3125 C-176.30053711 744.31958008 -176.30053711 744.31958008 -178.58984375 743.08203125 C-179.88583496 742.38243286 -179.88583496 742.38243286 -181.20800781 741.66870117 C-182.12936523 741.15927979 -183.05072266 740.6498584 -184 740.125 C-184.96131836 739.59688721 -185.92263672 739.06877441 -186.91308594 738.5246582 C-200.43199291 730.99743449 -213.515285 722.69418165 -226.04003906 713.60864258 C-227.94278706 712.13264146 -227.94278706 712.13264146 -230.0625 712.3125 C-231.23670238 711.15964675 -232.4054895 710.00074538 -233.54589844 708.81445312 C-236.3912176 705.99661611 -239.56467282 703.56306231 -242.6875 701.0625 C-244.11719345 699.90755945 -245.54688093 698.75261151 -246.9765625 697.59765625 C-249.40529536 695.64264431 -251.8378412 693.69254243 -254.2734375 691.74609375 C-259.18488068 687.79079987 -263.77647318 683.73659281 -268.16796875 679.2109375 C-270.06255928 677.3124406 -272.02762408 675.5589372 -274.0625 673.8125 C-278.24752646 670.20042359 -282.4427593 666.50023192 -286.0625 662.3125 C-286.0625 661.6525 -286.0625 660.9925 -286.0625 660.3125 C-287.0525 659.9825 -288.0425 659.6525 -289.0625 659.3125 C-290.66796875 657.75390625 -290.66796875 657.75390625 -292.25 655.875 C-293.04470703 654.94880859 -293.04470703 654.94880859 -293.85546875 654.00390625 C-295.0625 652.3125 -295.0625 652.3125 -295.0625 650.3125 C-296.0525 649.9825 -297.0425 649.6525 -298.0625 649.3125 C-299.82421875 647.37890625 -299.82421875 647.37890625 -301.75 644.875 C-302.44738281 643.97910156 -303.14476562 643.08320312 -303.86328125 642.16015625 C-304.95189453 640.75056641 -304.95189453 640.75056641 -306.0625 639.3125 C-307.5168945 637.4760404 -308.9750545 635.64255475 -310.4375 633.8125 C-311.08460938 632.9978125 -311.73171875 632.183125 -312.3984375 631.34375 C-314.05178101 629.25729979 -314.05178101 629.25729979 -316.0625 627.3125 C-317.14894063 625.66133957 -318.20759035 623.99180526 -319.25 622.3125 C-321.49666911 618.7399278 -323.78810995 615.23983713 -326.25 611.8125 C-383.84068204 529.90575222 -407.42540181 426.61587852 -390.37158203 328.04760742 C-375.45912608 245.93538432 -336.20030868 172.74154027 -277.51504517 113.58981323 C-276.10523377 112.1680947 -274.69940321 110.74243212 -273.29370117 109.31665039 C-267.93924652 103.95549489 -262.42201883 98.99960996 -256.50488281 94.2668457 C-254.54415371 92.69790963 -252.6295203 91.10444744 -250.7421875 89.44921875 C-242.29160956 82.06967506 -233.34800107 75.59892046 -224.0625 69.3125 C-223.3008252 68.79429687 -222.53915039 68.27609375 -221.75439453 67.7421875 C-174.36142618 35.67962528 -121.44376316 14.78742734 -65.125 5 C-64.42498871 4.87671326 -63.72497742 4.75342651 -63.00375366 4.62640381 C-42.02902356 0.97167155 -21.27390724 -0.06473086 0 0 Z " fill="#65399B" transform="translate(510.0625,89.6875)"/>
<path d="M0 0 C0.88945313 0.21430664 1.77890625 0.42861328 2.6953125 0.64941406 C53.38954704 13.19514141 98.64061832 45.62582569 125.75 90.5 C151.38114319 134.05173224 161.02396581 185.20110903 151 235 C150.7831958 236.11544189 150.7831958 236.11544189 150.56201172 237.25341797 C149.57035927 242.22705465 148.36686541 247.11684724 147 252 C146.81131348 252.68384766 146.62262695 253.36769531 146.42822266 254.07226562 C138.19651655 283.06189399 122.32594095 308.91095979 101.85522461 330.80419922 C99.77311673 333.03315889 97.77947652 335.27697424 95.87890625 337.6640625 C92.97900749 341.26934204 89.55120625 344.050511 86 347 C85.46938965 347.4429541 84.9387793 347.8859082 84.39208984 348.34228516 C75.65756501 355.59959411 66.75249946 362.18085698 57 368 C56.34225586 368.39928711 55.68451172 368.79857422 55.00683594 369.20996094 C42.58296929 376.69231786 29.62862672 382.09936851 16 387 C14.81921875 387.43183594 13.6384375 387.86367188 12.421875 388.30859375 C2.27376857 391.72228924 -8.45001288 393.31212058 -19 395 C-20.65539795 395.26695679 -20.65539795 395.26695679 -22.34423828 395.53930664 C-29.03014788 396.38185448 -35.76999181 396.2439991 -42.5 396.25 C-43.2797821 396.25100708 -44.05956421 396.25201416 -44.86297607 396.25305176 C-58.10100704 396.24151239 -70.96168269 395.43590437 -84 393 C-84.74233887 392.86609863 -85.48467773 392.73219727 -86.24951172 392.59423828 C-104.75751828 389.1310708 -122.51939016 381.98861848 -139 373 C-139.5971582 372.68063477 -140.19431641 372.36126953 -140.80957031 372.03222656 C-155.18695491 364.31466589 -167.72936114 354.68733062 -180 344 C-180.7734375 343.3503125 -181.546875 342.700625 -182.34375 342.03125 C-186.32291715 338.66426241 -189.80989037 335.1157042 -193.171875 331.1328125 C-194.41747848 329.67960844 -195.70099058 328.25825415 -197.015625 326.8671875 C-208.413155 314.77268624 -217.3841701 300.71743176 -225 286 C-225.31275879 285.4004248 -225.62551758 284.80084961 -225.94775391 284.18310547 C-244.28382231 248.51823002 -250.20913218 205.46054111 -244 166 C-243.90348145 165.32630371 -243.80696289 164.65260742 -243.70751953 163.95849609 C-238.79781008 129.75176831 -223.85343905 96.69913232 -202 70 C-201.54786133 69.43958008 -201.09572266 68.87916016 -200.62988281 68.30175781 C-170.11827761 30.65591507 -123.2555839 2.27003819 -74.5871582 -3.27490234 C-50.10685198 -5.56101846 -23.94233149 -5.90469662 0 0 Z " fill="#F7F1E6" transform="translate(557,280)"/>
<path d="M0 0 C0.8781134 -0.00960754 1.75622681 -0.01921509 2.66094971 -0.02911377 C4.08126495 -0.03548859 4.08126495 -0.03548859 5.53027344 -0.04199219 C6.5082489 -0.04769226 7.48622437 -0.05339233 8.49383545 -0.05926514 C10.56505248 -0.06871408 12.63628453 -0.0752487 14.70751953 -0.07910156 C17.86355133 -0.0887871 21.01892629 -0.11980347 24.17480469 -0.15136719 C26.18912375 -0.15789951 28.20344745 -0.16314908 30.21777344 -0.16699219 C31.15655334 -0.17933899 32.09533325 -0.19168579 33.06256104 -0.20440674 C39.30607202 -0.18337055 44.50580169 0.274591 49.30911255 4.69885254 C51.35143812 8.47836574 51.02439494 12.05792339 50.96435547 16.28710938 C50.96318726 17.21164917 50.96201904 18.13618896 50.96081543 19.08874512 C50.95360657 22.15997397 50.92531999 25.23065262 50.89746094 28.30175781 C50.88930992 30.4614004 50.88265209 32.62104908 50.87741089 34.78070068 C50.8602526 40.49616801 50.82605707 46.21140038 50.78735352 51.92675781 C50.72137707 62.05165973 50.68392278 72.17671414 50.64746094 82.30175781 C50.64297251 83.3890921 50.63848408 84.47642639 50.63385963 85.59671021 C50.56895136 102.46904016 50.86075419 119.28580949 51.53862 136.14379883 C51.76197709 142.8146229 51.73009904 149.48788803 51.63964844 156.16113281 C52.29449219 156.14953125 52.94933594 156.13792969 53.62402344 156.12597656 C58.76508416 156.07514687 63.88239213 156.15525463 69.01464844 156.47363281 C69.97113281 156.53164063 70.92761719 156.58964844 71.91308594 156.64941406 C75.35158415 157.29474825 78.14283744 158.66432181 80.63964844 161.16113281 C80.93215218 166.5032139 80.95374665 171.84794226 80.98974609 177.19726562 C81.00628315 178.99948053 81.03354365 180.80163044 81.07177734 182.60351562 C81.12663097 185.20119266 81.14843444 187.79732907 81.16308594 190.39550781 C81.18575531 191.19776794 81.20842468 192.00002808 81.23178101 192.82659912 C81.21578921 197.07521789 81.00815678 198.68695014 78.31030273 202.15844727 C72.9672776 206.16510557 66.11952552 205.2951203 59.70214844 205.22363281 C58.92291016 205.21912109 58.14367187 205.21460938 57.34082031 205.20996094 C55.44039575 205.19830189 53.54001138 205.18037158 51.63964844 205.16113281 C51.65125 206.16144531 51.66285156 207.16175781 51.67480469 208.19238281 C51.75442653 218.41963048 51.62220358 228.64657329 51.37619019 238.87084961 C51.34359391 240.31003487 51.31599569 241.74934233 51.29348755 243.1887207 C51.26007091 245.24001088 51.20791192 247.29005344 51.15136719 249.34082031 C51.12518311 250.53433105 51.09899902 251.7278418 51.07202148 252.95751953 C50.45363218 257.53939669 49.03326663 260.011744 45.47753906 262.94433594 C41.72791943 264.55205309 38.24576085 264.62883031 34.23339844 264.62988281 C33.43107788 264.63749634 32.62875732 264.64510986 31.80212402 264.6529541 C30.11111555 264.66372695 28.42004068 264.66661967 26.72900391 264.66210938 C24.14730781 264.6611357 21.56857306 264.70281157 18.98730469 264.74707031 C17.34017544 264.75227692 15.69303591 264.75496551 14.04589844 264.75488281 C13.2780603 264.77127808 12.51022217 264.78767334 11.71911621 264.80456543 C7.70361966 264.75297303 5.86035061 264.3361524 2.67675781 261.81152344 C-0.10801095 258.18838709 -0.48895725 255.57751782 -0.56567383 251.13891602 C-0.59559166 249.60766838 -0.59559166 249.60766838 -0.62611389 248.04548645 C-0.64282639 246.94540756 -0.65953888 245.84532867 -0.67675781 244.71191406 C-0.69753891 243.58416061 -0.71832001 242.45640717 -0.73973083 241.29447937 C-0.80518003 237.68759321 -0.86409 234.08063353 -0.92285156 230.47363281 C-0.96604117 228.0302658 -1.0096556 225.58690625 -1.05371094 223.14355469 C-1.16085672 217.14949207 -1.26263185 211.15535611 -1.36035156 205.16113281 C-2.57477936 205.17223587 -3.78920715 205.18333893 -5.04043579 205.19477844 C-16.48764469 205.29615557 -27.93476247 205.37109902 -39.3823185 205.42019367 C-45.26760194 205.44628241 -51.15252286 205.48166821 -57.03759766 205.53833008 C-62.71751847 205.5926742 -68.39709069 205.62255879 -74.07725143 205.63551903 C-76.24381371 205.64475448 -78.41035699 205.6627893 -80.57677078 205.6897831 C-83.61263439 205.72610444 -86.64705939 205.73107675 -89.68310547 205.72875977 C-90.57790619 205.74673615 -91.47270691 205.76471252 -92.3946228 205.78323364 C-96.68220464 205.74784857 -99.49741412 205.50173502 -102.91169739 202.76956177 C-105.58090991 199.92618303 -106.15638102 198.97445015 -106.36035156 195.16113281 C-106.42923584 193.91581787 -106.49812012 192.67050293 -106.5690918 191.38745117 C-106.67677496 187.47069057 -106.72780625 183.55301674 -106.76538086 179.63500977 C-106.78687025 177.9564139 -106.82086499 176.27792732 -106.86791992 174.59985352 C-107.1730517 163.58796246 -106.51693435 155.67304033 -100.36035156 146.16113281 C-99.8132251 145.24388428 -99.26609863 144.32663574 -98.70239258 143.3815918 C-96.9871968 140.52757972 -95.21420472 137.71789524 -93.42285156 134.91113281 C-92.09455868 132.80837427 -90.76643869 130.7055065 -89.43847656 128.60253906 C-88.42624023 127.00563232 -88.42624023 127.00563232 -87.39355469 125.37646484 C-84.12983283 120.2151756 -80.90352263 115.0306459 -77.67285156 109.84863281 C-70.79467112 98.83732352 -63.86585503 87.85855751 -56.921875 76.88867188 C-50.91297683 67.39388146 -44.93291075 57.88198452 -38.98535156 48.34863281 C-33.96748246 40.31269052 -28.93314237 32.28753804 -23.86035156 24.28613281 C-23.30943848 23.4136792 -22.75852539 22.54122559 -22.19091797 21.64233398 C-8.48271154 0.07506041 -8.48271154 0.07506041 0 0 Z " fill="#141819" transform="translate(515.3603515625,340.8388671875)"/>
<path d="M0 0 C0.33 0 0.66 0 1 0 C1 25.74 1 51.48 1 78 C-16.16 78 -33.32 78 -51 78 C-49.55245717 74.38114293 -48.46023626 71.94986409 -46.34887695 68.85009766 C-45.5500988 67.66956314 -45.5500988 67.66956314 -44.73518372 66.46517944 C-44.1587059 65.62331085 -43.58222809 64.78144226 -42.98828125 63.9140625 C-42.08688667 62.58491318 -42.08688667 62.58491318 -41.1672821 61.22891235 C-39.88329116 59.33635292 -38.59724293 57.44518789 -37.30932617 55.55529785 C-33.9844595 50.6761302 -30.67409096 45.78714997 -27.36328125 40.8984375 C-26.71690704 39.94469238 -26.07053284 38.99094727 -25.40457153 38.00830078 C-19.9410416 29.93690807 -14.57707919 21.80771642 -9.30200195 13.61181641 C-6.31840075 8.98129738 -3.30243455 4.41110901 0 0 Z " fill="#F5F1E6" transform="translate(514,419)"/>
<path d="M0 0 C3.65724904 2.68695848 4.69587275 4.18338279 5.4375 8.61328125 C6.22908587 27.28976037 -4.23412646 40.85520754 -16 54 C-16.64324219 54.72832031 -17.28648437 55.45664062 -17.94921875 56.20703125 C-23.10725009 61.72576408 -29.06209591 66.15412159 -36.8125 66.625 C-40.26397594 66.4262239 -40.83083251 66.15647993 -43.5 63.6875 C-47.59477577 56.35102675 -46.21129172 49.04165631 -44.08984375 41.26953125 C-38.92257863 25.7677359 -28.13432555 10.75541677 -14.203125 1.8515625 C-9.74853619 -0.3757319 -4.8501842 -1.06069449 0 0 Z " fill="#B180E1" transform="translate(261,246)"/>
<path d="M0 0 C0.99 0.33 1.98 0.66 3 1 C4.3958282 1.09943643 5.79580148 1.14605045 7.19511414 1.15821838 C8.04906769 1.1680072 8.90302124 1.17779602 9.78285217 1.18788147 C11.18331032 1.19651466 11.18331032 1.19651466 12.61206055 1.20532227 C13.59760925 1.21522186 14.58315796 1.22512146 15.59857178 1.23532104 C18.86126287 1.2669481 22.12396852 1.29169832 25.38671875 1.31640625 C27.6468799 1.33697473 29.9070372 1.35797117 32.16719055 1.37937927 C38.12001424 1.43461086 44.0728727 1.48401539 50.02575684 1.53222656 C56.09858297 1.58243361 62.17135851 1.63812384 68.24414062 1.69335938 C80.16271721 1.80095427 92.0813377 1.90239633 104 2 C105.3308911 4.66178221 105.11268993 6.68739396 105.09765625 9.6640625 C105.09282227 11.34628906 105.09282227 11.34628906 105.08789062 13.0625 C105.07532227 14.8259375 105.07532227 14.8259375 105.0625 16.625 C105.05798828 17.80835938 105.05347656 18.99171875 105.04882812 20.2109375 C105.03701467 23.14067507 105.02054258 26.07031272 105 29 C104.67 29 104.34 29 104 29 C103.67 21.08 103.34 13.16 103 5 C100.05747314 5.02618408 97.11494629 5.05236816 94.08325195 5.0793457 C84.36433324 5.16217107 74.64539898 5.21741435 64.92622089 5.25906086 C59.03306228 5.28516136 53.14026506 5.32056862 47.24731445 5.37719727 C41.56091444 5.43149947 35.87486216 5.46141712 30.18822289 5.47438622 C28.01804313 5.48362921 25.84788255 5.50167862 23.67785072 5.52865028 C20.6393881 5.56491594 17.60236472 5.56994627 14.5637207 5.56762695 C13.66532471 5.58560333 12.76692871 5.60357971 11.84130859 5.62210083 C7.63387727 5.58731983 4.98243883 5.5150351 1.90226746 2.46452332 C1.2745192 1.65123062 0.64677094 0.83793793 0 0 Z " fill="#292928" transform="translate(411,541)"/>
<path d="M0 0 C-1.31295172 3.93885515 -2.69854104 4.1925353 -6.3359375 6.07421875 C-7.45339355 6.6554248 -8.57084961 7.23663086 -9.72216797 7.83544922 C-10.93931437 8.45371432 -12.15693608 9.0710445 -13.375 9.6875 C-14.29469574 10.15811859 -14.29469574 10.15811859 -15.23297119 10.63824463 C-24.8744943 15.56967449 -34.60487761 20.15052242 -44.69433594 24.09667969 C-47.09812194 25.03844252 -49.49004369 26.00718437 -51.8828125 26.9765625 C-61.96205938 30.99856501 -72.1853462 34.45159229 -82.5625 37.625 C-83.73490234 37.99238281 -84.90730469 38.35976563 -86.11523438 38.73828125 C-87.76168945 39.22748047 -87.76168945 39.22748047 -89.44140625 39.7265625 C-90.41795166 40.02127441 -91.39449707 40.31598633 -92.40063477 40.61962891 C-95.36802029 41.05385326 -96.52760943 40.6151442 -99 39 C-96.525 38.505 -96.525 38.505 -94 38 C-94 37.34 -94 36.68 -94 36 C-90.77261731 34.49388808 -87.66773684 33.7006328 -84.1875 33.0625 C-79.5240937 32.18854829 -75.3896014 30.78835613 -71 29 C-71 29.66 -71 30.32 -71 31 C-69.68 30.67 -68.36 30.34 -67 30 C-67 29.34 -67 28.68 -67 28 C-56.71422054 24.03949426 -56.71422054 24.03949426 -51.375 23 C-45.85655311 21.88636748 -40.03654499 20.03654499 -36 16 C-34.34080104 15.63128912 -32.67225729 15.30404678 -31 15 C-28.99255385 14.35610218 -26.99054876 13.69437747 -25 13 C-25 12.01 -25 11.02 -25 10 C-23.80375 9.731875 -22.6075 9.46375 -21.375 9.1875 C-17.61522466 8.2608887 -14.43545985 6.79952659 -11 5 C-10.34 5 -9.68 5 -9 5 C-8.67 4.01 -8.34 3.02 -8 2 C-7.01 2.495 -7.01 2.495 -6 3 C-6 2.34 -6 1.68 -6 1 C-3.92446352 0.4465236 -2.15634036 0 0 0 Z " fill="#4D286E" transform="translate(706,822)"/>
<path d="M0 0 C1.29744141 0.01353516 1.29744141 0.01353516 2.62109375 0.02734375 C3.26175781 0.03894531 3.90242187 0.05054688 4.5625 0.0625 C-3.68975665 5.56400443 -16.98262559 4.60581296 -26.625 5.1875 C-27.30547394 5.22952545 -27.98594788 5.2715509 -28.68704224 5.31484985 C-39.28609254 5.9644996 -49.82177864 6.40076217 -60.4375 6.0625 C-61.3980127 6.0325293 -62.35852539 6.00255859 -63.34814453 5.97167969 C-73.74650248 5.62737385 -84.09328517 5.21673536 -94.4375 4.0625 C-94.4375 3.4025 -94.4375 2.7425 -94.4375 2.0625 C-91.9586787 1.86860904 -89.47969069 1.68209877 -87 1.5 C-86.29294922 1.44392578 -85.58589844 1.38785156 -84.85742188 1.33007812 C-83.05322163 1.20059007 -81.24518048 1.12728392 -79.4375 1.0625 C-79.1075 1.3925 -78.7775 1.7225 -78.4375 2.0625 C-76.4183188 2.13220274 -74.39662852 2.12992909 -72.37646484 2.10009766 C-71.07776459 2.08322906 -69.77906433 2.06636047 -68.44100952 2.04898071 C-67.01014817 2.0250805 -65.57929089 2.00093492 -64.1484375 1.9765625 C-62.68690447 1.95479398 -61.22536666 1.93334441 -59.76382446 1.91220093 C-56.6919353 1.86660904 -53.62013095 1.81739375 -50.54833984 1.765625 C-46.62450616 1.6997454 -42.70060514 1.64231267 -38.77660179 1.58759499 C-35.75325078 1.54455809 -32.7299796 1.49717652 -29.70671463 1.44849777 C-28.26115498 1.42569799 -26.81557454 1.4041778 -25.36997604 1.38399124 C-23.33821769 1.35492172 -21.30655447 1.31942215 -19.27490234 1.28369141 C-18.12097992 1.26513092 -16.9670575 1.24657043 -15.77816772 1.22744751 C-10.4639343 0.96505399 -5.33523618 -0.07308543 0 0 Z " fill="#4F286E" transform="translate(564.4375,868.9375)"/>
<path d="M0 0 C0.33 0.99 0.66 1.98 1 3 C1.66 3 2.32 3 3 3 C7.27851302 22.59127075 11.18374382 41.99838386 13 62 C13.11166504 63.0828125 13.11166504 63.0828125 13.22558594 64.1875 C14.80831896 79.69676905 13.62740032 95.4544143 13 111 C12.67 111 12.34 111 12 111 C11.17846037 96.65239711 10.86476358 82.37042994 11 68 C10.34 68 9.68 68 9 68 C9.03480469 67.05382812 9.06960938 66.10765625 9.10546875 65.1328125 C9.53997482 48.11782121 9.53997482 48.11782121 5 32 C4.67744916 29.73334731 4.39196309 27.46136987 4.125 25.1875 C3.35332175 18.90676965 2.14606777 12.84714789 0.5859375 6.70703125 C0 4 0 4 0 0 Z " fill="#4C296F" transform="translate(894,387)"/>
<path d="M0 0 C0.66 0 1.32 0 2 0 C2 18.15 2 36.3 2 55 C2.33 55 2.66 55 3 55 C3 65.23 3 75.46 3 86 C2.34 86 1.68 86 1 86 C-2.46418519 57.41206394 -2.8074905 28.65660588 0 0 Z " fill="#5A337F" transform="translate(116,444)"/>
<path d="M0 0 C0.495 0.99 0.495 0.99 1 2 C0.03276062 3.89073181 0.03276062 3.89073181 -1.5168457 6.21850586 C-2.09106766 7.08958481 -2.66528961 7.96066376 -3.25691223 8.85813904 C-3.89013901 9.80085159 -4.52336578 10.74356415 -5.17578125 11.71484375 C-5.81613815 12.68152481 -6.45649506 13.64820587 -7.11625671 14.6441803 C-9.17417445 17.74700957 -11.24317873 20.84226711 -13.3125 23.9375 C-14.69799941 26.02229899 -16.08277467 28.10757943 -17.46679688 30.19335938 C-20.96925324 35.46801107 -24.48236131 40.73546582 -28 46 C-28.66 46.99 -29.32 47.98 -30 49 C-13.17 49 3.66 49 21 49 C21 49.66 21 50.32 21 51 C3.84 51 -13.32 51 -31 51 C-32 48 -32 48 -31.21826172 46.26390076 C-30.79303223 45.62565872 -30.36780273 44.98741669 -29.9296875 44.32983398 C-29.45168701 43.60154892 -28.97368652 42.87326385 -28.48120117 42.12290955 C-27.95115479 41.33856033 -27.4211084 40.55421112 -26.875 39.74609375 C-26.33528564 38.93060562 -25.79557129 38.11511749 -25.23950195 37.2749176 C-23.50259522 34.65591958 -21.75140478 32.04681909 -20 29.4375 C-18.84934251 27.70568765 -17.69959206 25.97327228 -16.55078125 24.24023438 C-11.13613762 16.08871429 -5.68785904 7.96429535 0 0 Z " fill="#050505" transform="translate(493,448)"/>
<path d="M0 0 C3.05546958 1.32312926 4.72097619 2.56064849 6.62890625 5.28125 C7.10070312 5.94858154 7.5725 6.61591309 8.05859375 7.3034668 C8.55488281 8.02832275 9.05117188 8.75317871 9.5625 9.5 C10.0884375 10.25901611 10.614375 11.01803223 11.15625 11.80004883 C21.51369427 26.90620743 30.46007211 42.80900492 39 59 C39.37761475 59.69754395 39.75522949 60.39508789 40.14428711 61.11376953 C41.22554442 63.49716296 41.14368401 65.41368787 41 68 C38.96798657 65.41268292 37.34936315 62.90819536 35.94140625 59.9375 C35.56161621 59.15044678 35.18182617 58.36339355 34.79052734 57.55249023 C34.18265381 56.28900757 34.18265381 56.28900757 33.5625 55 C26.78940362 41.20693736 19.16646708 27.81591231 9.890625 15.5390625 C7.66333777 12.54787097 5.56934101 9.47626217 3.5 6.375 C2.8296875 5.37210938 2.159375 4.36921875 1.46875 3.3359375 C0 1 0 1 0 0 Z " fill="#482568" transform="translate(828,249)"/>
<path d="M0 0 C0.495 0.99 0.495 0.99 1 2 C0.12529803 4.42531002 -0.81545572 6.71811243 -1.875 9.0625 C-2.18872559 9.76624756 -2.50245117 10.46999512 -2.82568359 11.19506836 C-5.26211186 16.56933304 -7.88426492 21.83750337 -10.625 27.0625 C-10.9844873 27.75158447 -11.34397461 28.44066895 -11.71435547 29.15063477 C-13.48062672 32.45326509 -15.32609465 35.50691493 -17.5859375 38.49609375 C-19.40489314 40.94315045 -20.50242586 43.13413915 -21.45703125 46.02734375 C-22.97632154 50.44062155 -25.45250124 53.26683553 -28.6875 56.5625 C-29.21915771 57.12187256 -29.75081543 57.68124512 -30.29858398 58.25756836 C-33.80661275 61.90555777 -37.44461274 65.34541721 -41.37890625 68.53515625 C-43.20959929 70.18939694 -44.57779833 71.98989734 -46 74 C-46.66 73.67 -47.32 73.34 -48 73 C-47.47792969 72.42894531 -46.95585938 71.85789062 -46.41796875 71.26953125 C-44.384231 69.02921418 -42.36284855 66.77855786 -40.3515625 64.51806641 C-39.0297792 63.03344781 -37.70245017 61.55377258 -36.375 60.07421875 C-20.78606936 42.400672 -9.17295719 21.64007028 0 0 Z " fill="#3D2274" transform="translate(699,546)"/>
<path d="M0 0 C0.99 0.33 1.98 0.66 3 1 C2.21496094 1.70125 1.42992187 2.4025 0.62109375 3.125 C-4.5202742 7.75305115 -9.51630556 12.33642384 -13.96484375 17.6484375 C-16.26195095 20.30267652 -18.65804184 22.84598676 -21.06860352 25.39697266 C-27.03236549 31.70897781 -32.72510779 38.09212334 -38 45 C-39.33275166 46.70878716 -40.66606381 48.41713736 -42 50.125 C-43.00072069 51.41610839 -44.00100775 52.70755377 -45 54 C-45.495 52.515 -45.495 52.515 -46 51 C-44.6640625 48.90625 -44.6640625 48.90625 -42.625 46.5 C-41.87992188 45.60925781 -41.13484375 44.71851563 -40.3671875 43.80078125 C-39.58601562 42.87652344 -38.80484375 41.95226562 -38 41 C-36.58269563 39.22967702 -35.16603402 37.45883926 -33.75 35.6875 C-23.32569257 23.01168399 -11.66005801 11.52500745 0 0 Z " fill="#552F7D" transform="translate(240,196)"/>
<path d="M0 0 C0.89102417 -0.00315216 1.78204834 -0.00630432 2.70007324 -0.009552 C3.65949829 -0.00752777 4.61892334 -0.00550354 5.60742188 -0.00341797 C7.08861511 -0.00485306 7.08861511 -0.00485306 8.59973145 -0.00631714 C10.68774479 -0.00699772 12.77576025 -0.00515194 14.86376953 -0.00097656 C18.06352481 0.00437339 21.26313972 -0.0009257 24.46289062 -0.00732422 C26.49023469 -0.00666342 28.51757866 -0.00538221 30.54492188 -0.00341797 C31.50434692 -0.0054422 32.46377197 -0.00746643 33.45227051 -0.009552 C34.34329468 -0.00639984 35.23431885 -0.00324768 36.15234375 0 C36.93605347 0.00079559 37.71976318 0.00159119 38.52722168 0.00241089 C40.57617188 0.12939453 40.57617188 0.12939453 43.57617188 1.12939453 C43.57617188 1.78939453 43.57617188 2.44939453 43.57617188 3.12939453 C42.99845535 3.12495331 42.42073883 3.12051208 41.82551575 3.11593628 C35.80712357 3.07165431 29.78877777 3.04150786 23.77026367 3.01953125 C21.52480184 3.00948009 19.27935307 2.99583709 17.03393555 2.97851562 C13.80449191 2.95422872 10.5752215 2.94290246 7.34570312 2.93408203 C6.34344193 2.92375946 5.34118073 2.91343689 4.30854797 2.90280151 C2.89765144 2.90257492 2.89765144 2.90257492 1.45825195 2.90234375 C0.63440506 2.89790253 -0.18944183 2.8934613 -1.03825378 2.8888855 C-4.75618091 3.26371979 -7.58325376 4.15545981 -10.04882812 7.01220703 C-10.50257813 7.75212891 -10.95632813 8.49205078 -11.42382812 9.25439453 C-11.92140625 10.04974609 -12.41898437 10.84509766 -12.93164062 11.66455078 C-13.4240625 12.47794922 -13.91648437 13.29134766 -14.42382812 14.12939453 C-15.38127656 15.65078511 -16.33953843 17.17166426 -17.29882812 18.69189453 C-18.0085702 19.83685581 -18.71746936 20.98234291 -19.42382812 22.12939453 C-19.75382812 21.13939453 -20.08382813 20.14939453 -20.42382812 19.12939453 C-19.1126907 16.6935794 -17.77219879 14.47800617 -16.23632812 12.19189453 C-15.83607422 11.57121094 -15.43582031 10.95052734 -15.0234375 10.31103516 C-10.96306115 4.13162933 -7.85189863 0.00797096 0 0 Z " fill="#20201F" transform="translate(515.423828125,340.87060546875)"/>
<path d="M0 0 C6.65632801 0.76803785 11.09354747 7.13405463 15.1484375 11.89453125 C17.02093689 14.02380798 18.97783592 16.01297004 21 18 C24.87922143 21.84220596 28.4971566 25.81239022 32 30 C32.49177734 30.58330078 32.98355469 31.16660156 33.49023438 31.76757812 C35.17263791 33.7725253 36.83787079 35.79072457 38.5 37.8125 C39.05333008 38.4712915 39.60666016 39.13008301 40.17675781 39.80883789 C40.94004395 40.7484436 40.94004395 40.7484436 41.71875 41.70703125 C42.18216797 42.2688208 42.64558594 42.83061035 43.12304688 43.40942383 C43.41244141 43.93431396 43.70183594 44.4592041 44 45 C43.67 45.99 43.34 46.98 43 48 C42.50113281 47.37996094 42.00226562 46.75992188 41.48828125 46.12109375 C39.01070012 43.06526209 36.50997126 40.02921558 34 37 C33.54995605 36.4539209 33.09991211 35.9078418 32.63623047 35.34521484 C24.56917014 25.61203879 15.81816933 16.64463624 6.80761719 7.79345703 C5.9262207 6.92575684 5.04482422 6.05805664 4.13671875 5.1640625 C3.33967529 4.38498535 2.54263184 3.6059082 1.72143555 2.80322266 C0 1 0 1 0 0 Z " fill="#4B2870" transform="translate(781,197)"/>
<path d="M0 0 C0.33 0.33 0.66 0.66 1 1 C2.56547048 1.09326716 4.13512772 1.11745582 5.70336914 1.11352539 C7.20481224 1.11341209 7.20481224 1.11341209 8.73658752 1.11329651 C9.8251152 1.10813522 10.91364288 1.10297394 12.03515625 1.09765625 C13.14354355 1.0962413 14.25193085 1.09482635 15.39390564 1.09336853 C18.95013069 1.08775033 22.50629383 1.07519475 26.0625 1.0625 C28.46679597 1.05748734 30.87109292 1.05292403 33.27539062 1.04882812 C39.18361504 1.03777499 45.0918031 1.02101917 51 1 C51 1.33 51 1.66 51 2 C50.09233887 2.02505615 49.18467773 2.0501123 48.24951172 2.07592773 C44.86121766 2.17143059 41.47307331 2.27064084 38.08496094 2.37231445 C36.62243852 2.41545337 35.15987253 2.45714195 33.69726562 2.49731445 C31.5871064 2.5555307 29.47716225 2.61907288 27.3671875 2.68359375 C26.09987793 2.72025146 24.83256836 2.75690918 23.52685547 2.79467773 C20.27588021 2.98393913 17.20387559 3.44378318 14 4 C12.53816901 4.08345222 11.07358419 4.1304563 9.609375 4.1328125 C8.82151611 4.13474609 8.03365723 4.13667969 7.22192383 4.13867188 C6.40618896 4.13416016 5.5904541 4.12964844 4.75 4.125 C3.49062622 4.12209961 3.49062622 4.12209961 2.20581055 4.11914062 C-3.58730739 4.07876656 -9.25092207 3.75397743 -15 3 C-15 2.34 -15 1.68 -15 1 C-13.43784452 0.83013455 -11.8752548 0.66426036 -10.3125 0.5 C-9.44238281 0.4071875 -8.57226562 0.314375 -7.67578125 0.21875 C-5.09383209 0.00767094 -2.58858291 -0.10880208 0 0 Z " fill="#623A8C" transform="translate(485,870)"/>
<path d="M0 0 C5.08651198 2.7338359 10.04172946 5.62453696 14.9375 8.6875 C27.56702886 16.50718493 40.64085582 23.51372742 54 30 C54 30.66 54 31.32 54 32 C52.02 31.67 50.04 31.34 48 31 C48 30.34 48 29.68 48 29 C46.90473999 28.82259277 46.90473999 28.82259277 45.78735352 28.64160156 C42.98431464 27.9963895 40.92516713 27.0964615 38.40234375 25.734375 C37.52731201 25.26249756 36.65228027 24.79062012 35.75073242 24.30444336 C34.35818237 23.5349939 34.35818237 23.5349939 32.9375 22.75 C31.4975769 21.95831421 31.4975769 21.95831421 30.02856445 21.15063477 C23.1097096 17.29323014 16.35058113 13.22086582 9.6875 8.9375 C8.39863892 8.11620605 8.39863892 8.11620605 7.08374023 7.27832031 C6.29684814 6.76237305 5.50995605 6.24642578 4.69921875 5.71484375 C4.00658936 5.26230225 3.31395996 4.80976074 2.6003418 4.34350586 C1 3 1 3 0 0 Z " fill="#583378" transform="translate(293,807)"/>
<path d="M0 0 C0.66 0.33 1.32 0.66 2 1 C1.61779297 1.64324219 1.23558594 2.28648437 0.84179688 2.94921875 C-6.56018771 15.43728421 -13.71786208 27.91221266 -20 41 C-21.1577274 43.33791071 -22.32893301 45.66870923 -23.5 48 C-24.22703125 49.4540625 -24.22703125 49.4540625 -24.96875 50.9375 C-25.47921875 51.9584375 -25.47921875 51.9584375 -26 53 C-26.90361872 50.51860608 -27.09121439 49.28614042 -26.27832031 46.73608398 C-25.88225586 45.91438721 -25.48619141 45.09269043 -25.078125 44.24609375 C-24.63484863 43.31796875 -24.19157227 42.38984375 -23.73486328 41.43359375 C-23.2448584 40.44488281 -22.75485352 39.45617187 -22.25 38.4375 C-21.7535498 37.41914063 -21.25709961 36.40078125 -20.74560547 35.3515625 C-14.67824974 23.07543866 -8.11329619 11.05036757 0 0 Z " fill="#582E7E" transform="translate(177,272)"/>
<path d="M0 0 C3.2630121 1.0876707 3.87839928 1.75066713 6 4.3125 C16.48105644 16.64315464 27.59179249 28.58279426 40 39 C39.01 39.33 38.02 39.66 37 40 C36.5153125 39.50371094 36.030625 39.00742187 35.53125 38.49609375 C32.11886318 35.03777095 28.68622389 31.66693442 25 28.5 C20.81497354 24.88792359 16.6197407 21.18773192 13 17 C13 16.34 13 15.68 13 15 C12.01 14.67 11.02 14.34 10 14 C8.39453125 12.44140625 8.39453125 12.44140625 6.8125 10.5625 C6.01779297 9.63630859 6.01779297 9.63630859 5.20703125 8.69140625 C4 7 4 7 4 5 C3.01 4.67 2.02 4.34 1 4 C0.3125 1.9375 0.3125 1.9375 0 0 Z " fill="#5B337E" transform="translate(211,735)"/>
<path d="M0 0 C0.68359375 1.640625 0.68359375 1.640625 1 4 C-2.96603305 13.49573505 -9.68655762 22.25879064 -15.3125 30.8125 C-16.01818115 31.89305664 -16.7238623 32.97361328 -17.45092773 34.08691406 C-18.12325439 35.09592773 -18.79558105 36.10494141 -19.48828125 37.14453125 C-20.09196533 38.05565674 -20.69564941 38.96678223 -21.31762695 39.90551758 C-23 42 -23 42 -26 43 C-24.20225392 37.83148002 -21.16888788 34.02986796 -17.875 29.71875 C-16.11718633 27.16992017 -15.11674371 24.86344541 -14 22 C-13.13375 21.01 -12.2675 20.02 -11.375 19 C-8.76973929 16.25608221 -8.76973929 16.25608221 -8.6875 13.125 C-8.790625 12.42375 -8.89375 11.7225 -9 11 C-8.360625 10.7525 -7.72125 10.505 -7.0625 10.25 C-4.82450832 9.21173571 -4.82450832 9.21173571 -4.4375 7.0625 C-4.293125 6.381875 -4.14875 5.70125 -4 5 C-2.5 3.375 -2.5 3.375 -1 2 C-0.67 1.34 -0.34 0.68 0 0 Z " fill="#502E73" transform="translate(857,669)"/>
<path d="M0 0 C0.33 0.99 0.66 1.98 1 3 C0.21496094 3.845625 -0.57007813 4.69125 -1.37890625 5.5625 C-2.44031829 6.70813499 -3.50150072 7.85398274 -4.5625 9 C-5.11389648 9.59506348 -5.66529297 10.19012695 -6.23339844 10.80322266 C-9.13512443 13.94462678 -11.98397035 17.11250349 -14.75 20.375 C-23.91991353 30.93497377 -23.91991353 30.93497377 -30 32 C-29.06409496 30.8944811 -28.12620142 29.79064547 -27.1875 28.6875 C-26.40439453 27.76517578 -26.40439453 27.76517578 -25.60546875 26.82421875 C-22.6626898 23.48047722 -22.6626898 23.48047722 -21 22 C-20.34 22 -19.68 22 -19 22 C-19.33 21.01 -19.66 20.02 -20 19 C-19.236875 18.5875 -18.47375 18.175 -17.6875 17.75 C-15.04212838 16.02743244 -13.63523449 14.66801416 -12 12 C-12 11.34 -12 10.68 -12 10 C-6.52380952 5 -6.52380952 5 -4 5 C-3.67 4.01 -3.34 3.02 -3 2 C-2.01 1.34 -1.02 0.68 0 0 Z " fill="#432363" transform="translate(812,734)"/>
<path d="M0 0 C0.33 0 0.66 0 1 0 C1 12.87 1 25.74 1 39 C0.34 39 -0.32 39 -1 39 C-0.95875 39.9075 -0.9175 40.815 -0.875 41.75 C-0.99816307 44.95223983 -1.09907459 46.46543278 -3 49 C-5.625 50.25 -5.625 50.25 -8 51 C-8.66 50.34 -9.32 49.68 -10 49 C-9.21625 48.5875 -8.4325 48.175 -7.625 47.75 C-4.74818577 45.83212385 -4.16114003 45.16961624 -3 42 C-2.76536081 39.50412889 -2.62842258 37.10788277 -2.5859375 34.609375 C-2.56657135 33.90476135 -2.5472052 33.20014771 -2.5272522 32.47418213 C-2.46767265 30.23290961 -2.42115877 27.99158511 -2.375 25.75 C-2.33680021 24.22654062 -2.29774731 22.70310238 -2.2578125 21.1796875 C-2.16198982 17.45331894 -2.07787893 13.72679165 -2 10 C-1.67 10 -1.34 10 -1 10 C-0.67 6.7 -0.34 3.4 0 0 Z " fill="#ECE8E0" transform="translate(568,555)"/>
<path d="M0 0 C3.64270047 0.60481347 6.65820477 1.61015927 9.9921875 3.1875 C11.41132446 3.85857788 11.41132446 3.85857788 12.85913086 4.54321289 C13.85436768 5.02395264 14.84960449 5.50469238 15.875 6 C17.40362671 6.73561157 17.40362671 6.73561157 18.96313477 7.48608398 C25.08110488 10.47051849 31.08674489 13.58139515 36.9375 17.0625 C37.56317871 17.43181641 38.18885742 17.80113281 38.83349609 18.18164062 C40.26200852 19.05958485 41.63849882 20.02135381 43 21 C43 21.66 43 22.32 43 23 C39.18043103 21.54845845 35.60773564 19.81918529 31.9921875 17.91796875 C30.83976563 17.31533203 29.68734375 16.71269531 28.5 16.09179688 C26.69647953 15.14499732 24.89347739 14.19722162 23.09082031 13.2487793 C15.49237607 9.25571931 7.86264234 5.44703523 0 2 C0 1.34 0 0.68 0 0 Z " fill="#58317D" transform="translate(672,125)"/>
<path d="M0 0 C-3.75517006 3.55163781 -8.03414309 4.19999501 -12.9375 5.1875 C-14.19880737 5.44901855 -14.19880737 5.44901855 -15.4855957 5.71582031 C-22.40861248 7.06465706 -28.94406504 7.45603888 -36 7 C-33.45158215 3.81228833 -31.14460395 3.36720867 -27.1875 2.75 C-26.17042969 2.57984375 -25.15335938 2.4096875 -24.10546875 2.234375 C-20.87239663 1.99036956 -18.16334968 2.33801352 -15 3 C-15 2.34 -15 1.68 -15 1 C-10.03926578 -0.32286246 -5.08888488 -0.08893197 0 0 Z " fill="#553077" transform="translate(606,862)"/>
<path d="M0 0 C0.80566406 0.00322266 1.61132812 0.00644531 2.44140625 0.00976562 C3.70404297 0.02233398 3.70404297 0.02233398 4.9921875 0.03515625 C5.84167969 0.03966797 6.69117188 0.04417969 7.56640625 0.04882812 C9.66669659 0.06062751 11.7669508 0.07856319 13.8671875 0.09765625 C13.8671875 0.42765625 13.8671875 0.75765625 13.8671875 1.09765625 C8.2571875 1.09765625 2.6471875 1.09765625 -3.1328125 1.09765625 C-3.1328125 7.36765625 -3.1328125 13.63765625 -3.1328125 20.09765625 C-3.4628125 20.09765625 -3.7928125 20.09765625 -4.1328125 20.09765625 C-4.7928125 30.65765625 -5.4528125 41.21765625 -6.1328125 52.09765625 C-6.4628125 52.09765625 -6.7928125 52.09765625 -7.1328125 52.09765625 C-7.27637015 35.0695102 -6.91749015 18.10804855 -6.1328125 1.09765625 C-3.8362755 -0.05061225 -2.54968083 -0.0179555 0 0 Z " fill="#303231" transform="translate(570.1328125,544.90234375)"/>
<path d="M0 0 C0.99 0 1.98 0 3 0 C3 12.54 3 25.08 3 38 C2.01 37.67 1.02 37.34 0 37 C0 24.79 0 12.58 0 0 Z " fill="#212222" transform="translate(409,499)"/>
<path d="M0 0 C0.66 0.33 1.32 0.66 2 1 C-0.20141638 4.11867321 -2.42783671 6.39941773 -5.53125 8.5625 C-10.85887869 12.49035364 -15.37591024 17.1585705 -20 21.875 C-20.87011719 22.75414062 -21.74023438 23.63328125 -22.63671875 24.5390625 C-24.76248191 26.6881857 -26.88339889 28.84185931 -29 31 C-29.66 30.67 -30.32 30.34 -31 30 C-27.51086854 25.47705182 -23.77031218 21.53916543 -19.45703125 17.7890625 C-18.08611328 16.59410156 -18.08611328 16.59410156 -16.6875 15.375 C-15.36298828 14.24191406 -15.36298828 14.24191406 -14.01171875 13.0859375 C-11.65290727 11.12309453 -11.65290727 11.12309453 -12 8 C-10.5 6.3125 -10.5 6.3125 -9 5 C-8.34 5.33 -7.68 5.66 -7 6 C-6.67 5.67 -6.34 5.34 -6 5 C-4.00334402 3.32932867 -2.00348966 1.66247014 0 0 Z " fill="#6C3DAA" transform="translate(254,186)"/>
<path d="M0 0 C0.33 0 0.66 0 1 0 C1 13.86 1 27.72 1 42 C7.6 42 14.2 42 21 42 C21.33 42.66 21.66 43.32 22 44 C19.47524538 45.26237731 17.68799534 45.09856404 14.875 45.0625 C13.96492187 45.05347656 13.05484375 45.04445313 12.1171875 45.03515625 C11.41851563 45.02355469 10.71984375 45.01195312 10 45 C10 44.67 10 44.34 10 44 C6.7 43.67 3.4 43.34 0 43 C0 28.81 0 14.62 0 0 Z " fill="#ECE7DC" transform="translate(568,453)"/>
<path d="M0 0 C2.0625 0.4375 2.0625 0.4375 4 1 C2.94683594 1.73863281 1.89367187 2.47726563 0.80859375 3.23828125 C-8.87891793 10.04675978 -18.47944611 16.96005622 -28 24 C-28 23.01 -28 22.02 -28 21 C-25.79669153 18.96826063 -23.61549863 17.13784315 -21.25 15.3125 C-20.57565918 14.78229248 -19.90131836 14.25208496 -19.20654297 13.70581055 C-14.03085661 9.68237553 -8.70760528 5.9756978 -3.1953125 2.42578125 C-1.1108253 1.18011576 -1.1108253 1.18011576 0 0 Z " fill="#5C3083" transform="translate(290,156)"/>
<path d="M0 0 C0.33 0 0.66 0 1 0 C2.14516104 9.01814321 2.09471858 17.9280648 2 27 C5.63 27 9.26 27 13 27 C13 27.33 13 27.66 13 28 C11.04310341 28.22142255 9.08438048 28.4267568 7.125 28.625 C5.48917969 28.79902344 5.48917969 28.79902344 3.8203125 28.9765625 C2.88960937 28.98429687 1.95890625 28.99203125 1 29 C-1 27 -1 27 -1.24291992 25.0480957 C-1.23881104 24.26523193 -1.23470215 23.48236816 -1.23046875 22.67578125 C-1.22853516 21.81146484 -1.22660156 20.94714844 -1.22460938 20.05664062 C-1.21236328 19.15107422 -1.20011719 18.24550781 -1.1875 17.3125 C-1.18685547 16.42626953 -1.18621094 15.54003906 -1.18554688 14.62695312 C-1.1524047 9.65194396 -0.83860963 4.90418914 0 0 Z " fill="#313231" transform="translate(565,470)"/>
<path d="M0 0 C0.66 0 1.32 0 2 0 C3.59751424 16.3192224 2.6597583 32.6526555 2 49 C1.67 49 1.34 49 1 49 C0.00959054 32.65824395 -0.11611648 16.36885022 0 0 Z " fill="#341658" transform="translate(905,449)"/>
<path d="M0 0 C0.99 0.66 1.98 1.32 3 2 C2.38068604 2.33209473 1.76137207 2.66418945 1.12329102 3.00634766 C-1.73281451 4.54128143 -4.58515364 6.08309264 -7.4375 7.625 C-8.41138672 8.14707031 -9.38527344 8.66914063 -10.38867188 9.20703125 C-15.87332337 12.17864845 -21.04398883 15.27503556 -26.04711914 19.00927734 C-28 20 -28 20 -30.25170898 19.65869141 C-30.82864502 19.44132324 -31.40558105 19.22395508 -32 19 C-21.48064483 12.408878 -10.7649738 6.17973412 0 0 Z " fill="#552E87" transform="translate(327,134)"/>
<path d="M0 0 C3.71382771 1.60290205 6.44336127 3.93724173 9.5 6.5625 C14.73306656 11.019237 20.13872378 15.14874879 25.69921875 19.1875 C28 21 28 21 29 23 C28.34 23.66 27.68 24.32 27 25 C26.00806641 23.96359375 26.00806641 23.96359375 24.99609375 22.90625 C21.57966156 19.49102036 17.83012054 16.51549573 14.0625 13.5 C12.01173638 11.84943208 9.96174842 10.19795798 7.91455078 8.54296875 C6.66843112 7.53869991 5.41703659 6.54092985 4.15966797 5.55078125 C2.73661127 4.41133344 1.36254824 3.21115399 0 2 C0 1.34 0 0.68 0 0 Z " fill="#542D77" transform="translate(253,777)"/>
<path d="M0 0 C2.47012289 2.47012289 3.11279305 4.60901618 4.3125 7.890625 C4.74820313 9.07527344 5.18390625 10.25992188 5.6328125 11.48046875 C6.08858957 12.73696179 6.54431832 13.99347236 7 15.25 C7.45117188 16.47847656 7.90234375 17.70695313 8.3671875 18.97265625 C10.3158006 24.29386895 12.22793145 29.61703834 14 35 C11 34 11 34 9.86499023 31.85449219 C9.51637939 30.92797852 9.16776855 30.00146484 8.80859375 29.046875 C8.22754883 27.52900391 8.22754883 27.52900391 7.63476562 25.98046875 C7.23966797 24.91441406 6.84457031 23.84835937 6.4375 22.75 C6.03853516 21.69941406 5.63957031 20.64882813 5.22851562 19.56640625 C4.48231144 17.60061292 3.74084256 15.63301103 3.00561523 13.66308594 C2.33328142 11.88260106 1.6239391 10.11567122 0.87915039 8.36425781 C-0.19454963 5.47680682 -0.1421049 3.05525529 0 0 Z " fill="#512D78" transform="translate(136,602)"/>
<path d="M0 0 C0.66 0.33 1.32 0.66 2 1 C-1.41959463 4.79879988 -5.60897649 6.20239087 -10.25 8.125 C-11.08402344 8.48464844 -11.91804687 8.84429688 -12.77734375 9.21484375 C-17.56438567 11.22134327 -21.82507472 12.53845261 -27 13 C-23.83830193 10.38052551 -20.68711202 8.93143579 -16.875 7.4375 C-12.55330172 5.81009251 -12.55330172 5.81009251 -9 3 C-7.33678518 2.64984951 -5.66965451 2.31802943 -4 2 C-2.9171875 1.443125 -2.9171875 1.443125 -1.8125 0.875 C-1.214375 0.58625 -0.61625 0.2975 0 0 Z " fill="#482669" transform="translate(679,835)"/>
<path d="M0 0 C11.55463979 -0.20923895 22.59838312 -0.1142071 34 2 C34 2.66 34 3.32 34 4 C26.33496683 4.23181842 18.96553358 3.52375362 11.375 2.5 C10.27542969 2.35691406 9.17585937 2.21382813 8.04296875 2.06640625 C5.36117955 1.71660766 2.68029447 1.36104277 0 1 C0 0.67 0 0.34 0 0 Z " fill="#4E2773" transform="translate(540,92)"/>
<path d="M0 0 C5.23388927 -0.28038693 8.73026077 0.06797046 13.63671875 2.1328125 C18.59690949 3.95291555 23.84264484 4.89148311 29 6 C29 6.33 29 6.66 29 7 C22.74512506 7.4549 17.19627411 6.57705443 11.125 5.1875 C10.37549072 5.02217773 9.62598145 4.85685547 8.85375977 4.68652344 C2.25747263 3.10180294 2.25747263 3.10180294 0 0 Z " fill="#4E2971" transform="translate(406,859)"/>
<path d="M0 0 C-1.63040818 4.89122454 -6.07678306 6.59375553 -10.3125 9.25 C-11.61477539 10.10078125 -11.61477539 10.10078125 -12.94335938 10.96875 C-13.78318359 11.49984375 -14.62300781 12.0309375 -15.48828125 12.578125 C-16.25696533 13.06700195 -17.02564941 13.55587891 -17.81762695 14.05957031 C-20.37220367 15.16039026 -21.44333821 14.96932978 -24 14 C-20.76899245 10.25203125 -17.51073002 8.89925474 -13 7 C-10.13321195 5.00917635 -10.13321195 5.00917635 -8 3 C-8 2.67 -8 2.34 -8 2 C-2.25 0 -2.25 0 0 0 Z " fill="#472466" transform="translate(732,806)"/>
<path d="M0 0 C3.04118205 0.60907536 5.13692935 1.56502088 7.6796875 3.328125 C8.36160156 3.79863281 9.04351563 4.26914063 9.74609375 4.75390625 C10.44863281 5.24761719 11.15117188 5.74132812 11.875 6.25 C12.91720703 6.96736328 12.91720703 6.96736328 13.98046875 7.69921875 C18.17060595 10.61100901 22.12943163 13.67543657 26 17 C25.34 17.66 24.68 18.32 24 19 C23.10539063 18.28714844 22.21078125 17.57429688 21.2890625 16.83984375 C14.88830053 11.76288783 8.4814517 6.80264761 1.6953125 2.2421875 C1.13585937 1.83226562 0.57640625 1.42234375 0 1 C0 0.67 0 0.34 0 0 Z " fill="#542C78" transform="translate(733,159)"/>
<path d="M0 0 C-0.33 0.66 -0.66 1.32 -1 2 C1.97 2.495 1.97 2.495 5 3 C5 3.33 5 3.66 5 4 C-17.86991063 4.42005958 -17.86991063 4.42005958 -23 1 C-15.307359 0.15199233 -7.73708326 -0.12152487 0 0 Z " fill="#7043A7" transform="translate(550,91)"/>
<path d="M0 0 C0.33 0 0.66 0 1 0 C1.37841187 7.44210016 1.44825509 17.95606095 -3.60546875 23.8828125 C-4.06566406 24.25148438 -4.52585937 24.62015625 -5 25 C-4.6249492 20.64743671 -4.17044619 16.58152231 -2.9375 12.375 C-1.82993463 8.97156284 -1.82993463 8.97156284 -2 5.1875 C-2 2 -2 2 0 0 Z " fill="#482768" transform="translate(899,553)"/>
<path d="M0 0 C0.66 0 1.32 0 2 0 C-0.713425 8.44176667 -3.85734053 16.71110853 -7 25 C-7.33 25 -7.66 25 -8 25 C-8.51253046 19.23170266 -6.70461709 14.91493643 -4.5625 9.6875 C-4.23701172 8.86443359 -3.91152344 8.04136719 -3.57617188 7.19335938 C-1.16636976 1.16636976 -1.16636976 1.16636976 0 0 Z " fill="#5C2E81" transform="translate(144,336)"/>
<path d="M0 0 C4.47442557 0.86707112 7.16687278 3.42733647 10.5 6.375 C11.63458358 7.36293673 12.76998049 8.34994029 13.90625 9.3359375 C14.43734375 9.79838867 14.9684375 10.26083984 15.515625 10.73730469 C17.28469083 12.2421745 19.1159517 13.64237696 21 15 C20.67 15.99 20.34 16.98 20 18 C19.39414062 17.443125 18.78828125 16.88625 18.1640625 16.3125 C12.8765789 11.49682263 7.48820055 6.91392781 1.8359375 2.53125 C1.23007812 2.0259375 0.62421875 1.520625 0 1 C0 0.67 0 0.34 0 0 Z " fill="#4F2E78" transform="translate(759,178)"/>
<path d="M0 0 C3.09793886 2.88733337 5.29715963 5.82784566 7.5 9.4375 C9.28911511 12.36107673 11.05125441 15.06289494 13.21875 17.72265625 C15 20 15 20 15 22 C11.93531815 20.67878521 10.30819388 19.46967917 8.45703125 16.69921875 C8.02326172 16.05146484 7.58949219 15.40371094 7.14257812 14.73632812 C6.70365234 14.06021484 6.26472656 13.38410156 5.8125 12.6875 C5.36197266 12.02298828 4.91144531 11.35847656 4.44726562 10.67382812 C2.12673123 7.15649638 0.42347571 4.29288126 0 0 Z " fill="#512873" transform="translate(177,688)"/>
<path d="M0 0 C1 3 1 3 0.05957031 4.97705078 C-0.42930664 5.70907715 -0.91818359 6.44110352 -1.421875 7.1953125 C-2.21851563 8.39220703 -2.21851563 8.39220703 -3.03125 9.61328125 C-3.5984375 10.44214844 -4.165625 11.27101563 -4.75 12.125 C-5.30171875 12.96160156 -5.8534375 13.79820312 -6.421875 14.66015625 C-10.60837326 20.86945775 -10.60837326 20.86945775 -14 22 C-12.59290322 17.98904888 -10.67407059 14.95324484 -8.125 11.5625 C-5.30470417 7.76792016 -2.57239462 3.96577503 0 0 Z " fill="#452664" transform="translate(845,690)"/>
<path d="M0 0 C0.703125 1.55078125 0.703125 1.55078125 1 4 C0.01648222 6.53111195 -1.00182304 8.79638452 -2.25 11.1875 C-2.56324219 11.82880859 -2.87648438 12.47011719 -3.19921875 13.13085938 C-5.61159721 17.8705324 -5.61159721 17.8705324 -9 19 C-8.745504 17.51793505 -8.47088238 16.03931385 -8.1875 14.5625 C-8.03667969 13.73878906 -7.88585937 12.91507813 -7.73046875 12.06640625 C-7.48941406 11.38449219 -7.24835937 10.70257812 -7 10 C-6.01 9.67 -5.02 9.34 -4 9 C-3.26919734 7.02253397 -2.60578253 5.01927511 -2 3 C-1.34 2.01 -0.68 1.02 0 0 Z " fill="#4C296E" transform="translate(868,648)"/>
<path d="M0 0 C0.66 0 1.32 0 2 0 C3.70733046 3.07274846 5.38725648 6.15965788 7.0625 9.25 C7.54783203 10.12269531 8.03316406 10.99539063 8.53320312 11.89453125 C8.98759766 12.73886719 9.44199219 13.58320312 9.91015625 14.453125 C10.33433838 15.22817383 10.75852051 16.00322266 11.19555664 16.80175781 C12.12393019 19.33865477 11.91790413 20.50250476 11 23 C9.15637057 19.73486809 7.32690521 16.46201438 5.5 13.1875 C4.97535156 12.25873047 4.45070312 11.32996094 3.91015625 10.37304688 C3.16572266 9.0340332 3.16572266 9.0340332 2.40625 7.66796875 C1.71499023 6.43469849 1.71499023 6.43469849 1.00976562 5.17651367 C0 3 0 3 0 0 Z " fill="#512D75" transform="translate(157,654)"/>
<path d="M0 0 C0.66 0.33 1.32 0.66 2 1 C0.19625664 7.55906676 -2.94749255 14.41332892 -9 18 C-8.44261069 14.09827485 -7.33932051 11.63840903 -5.0625 8.4375 C-3.1280696 5.69507656 -1.42733641 3.04084714 0 0 Z " fill="#6E37AE" transform="translate(262,275)"/>
<path d="M0 0 C0.33 0 0.66 0 1 0 C2.39480358 7.25297859 2.67285044 16.00395627 -1.578125 22.359375 C-2.04734375 22.90078125 -2.5165625 23.4421875 -3 24 C-2.55348122 15.84515697 -1.88849677 7.95735532 0 0 Z " fill="#421E67" transform="translate(903,527)"/>
<path d="M0 0 C5.5338604 0.49132405 9.26010874 2.58002372 13.875 5.4375 C14.56335938 5.84548828 15.25171875 6.25347656 15.9609375 6.67382812 C17.68053839 7.71957747 19.34607742 8.85319618 21 10 C21 10.66 21 11.32 21 12 C16.26525903 10.3003494 12.03832889 7.86340973 7.6875 5.375 C6.94693359 4.95476562 6.20636719 4.53453125 5.44335938 4.1015625 C3.62730989 3.07051505 1.81343467 2.03563954 0 1 C0 0.67 0 0.34 0 0 Z " fill="#4E2979" transform="translate(694,136)"/>
<path d="M0 0 C7.33991454 0.48130587 16.13494565 1.53306284 21.8203125 6.6328125 C22.40425781 7.30957031 22.40425781 7.30957031 23 8 C15.01323028 6.48526781 7.59877122 3.83197448 0 1 C0 0.67 0 0.34 0 0 Z " fill="#52267B" transform="translate(625,108)"/>
<path d="M0 0 C0 0.66 0 1.32 0 2 C3.63 2 7.26 2 11 2 C11 2.33 11 2.66 11 3 C2.42 3 -6.16 3 -15 3 C-15 2.34 -15 1.68 -15 1 C-13.43784452 0.83013455 -11.8752548 0.66426036 -10.3125 0.5 C-9.44238281 0.4071875 -8.57226562 0.314375 -7.67578125 0.21875 C-5.10276661 0.00840136 -2.58015636 -0.03719144 0 0 Z " fill="#48266C" transform="translate(485,870)"/>
<path d="M0 0 C0.82693359 0.00451172 1.65386719 0.00902344 2.50585938 0.01367188 C4.52477146 0.02534189 6.54364574 0.04327282 8.5625 0.0625 C8.5625 0.3925 8.5625 0.7225 8.5625 1.0625 C-8.14592825 3.35862756 -8.14592825 3.35862756 -16.4375 3.0625 C-16.4375 2.4025 -16.4375 1.7425 -16.4375 1.0625 C-10.91041389 0.12029874 -5.59991648 -0.05866149 0 0 Z " fill="#502D7A" transform="translate(471.4375,91.9375)"/>
<path d="M0 0 C0.66 0.33 1.32 0.66 2 1 C-0.14336429 4.21504643 -1.27591745 4.63056592 -4.73046875 5.96875 C-8.77924324 7.80846853 -12.47542832 10.30027052 -16.23046875 12.671875 C-19.31071542 14.14900316 -19.90915641 13.98636035 -23 13 C-22.40985107 12.67725098 -21.81970215 12.35450195 -21.21166992 12.02197266 C-18.53617092 10.55772731 -15.86182519 9.09138804 -13.1875 7.625 C-12.25873047 7.11710938 -11.32996094 6.60921875 -10.37304688 6.0859375 C-9.48037109 5.59609375 -8.58769531 5.10625 -7.66796875 4.6015625 C-6.84578857 4.15119629 -6.0236084 3.70083008 -5.17651367 3.23681641 C-3.40717238 2.23137804 -1.69327344 1.12884896 0 0 Z " fill="#311A6C" transform="translate(619,644)"/>
<path d="M0 0 C0.33 0 0.66 0 1 0 C1.66268329 7.12384541 -0.74611936 13.30879185 -3 20 C-3.66 20 -4.32 20 -5 20 C-4.45484328 12.91296261 -2.39081395 6.67203894 0 0 Z " fill="#452566" transform="translate(893,579)"/>
<path d="M0 0 C0 0.66 0 1.32 0 2 C-3.6220369 3.93736858 -6.86467552 5.66470342 -11 6 C-11.99 5.34 -12.98 4.68 -14 4 C-12.35 3.67 -10.7 3.34 -9 3 C-9 2.34 -9 1.68 -9 1 C-5.64919071 -1.10976881 -3.77897651 -1.0497157 0 0 Z " fill="#48216A" transform="translate(621,857)"/>
<path d="M0 0 C0 4.09459203 -1.96927276 6.76750835 -4 10.1875 C-4.3815625 10.84169922 -4.763125 11.49589844 -5.15625 12.16992188 C-6.09838932 13.78333545 -7.04844266 15.39212298 -8 17 C-8.66 17 -9.32 17 -10 17 C-10.33 17.99 -10.66 18.98 -11 20 C-11.66 19.67 -12.32 19.34 -13 19 C-11.02269593 16.01959316 -9.04284594 13.04088635 -7.0625 10.0625 C-6.49853516 9.21236328 -5.93457031 8.36222656 -5.35351562 7.48632812 C-4.81533203 6.67744141 -4.27714844 5.86855469 -3.72265625 5.03515625 C-3.22515869 4.2862915 -2.72766113 3.53742676 -2.21508789 2.76586914 C-1 1 -1 1 0 0 Z " fill="#F6F5F2" transform="translate(503,436)"/>
<path d="M0 0 C0 0.66 0 1.32 0 2 C-7.01686747 5.37349398 -7.01686747 5.37349398 -11 4 C-13.18703385 4.37907282 -13.18703385 4.37907282 -15 5 C-15 4.34 -15 3.68 -15 3 C-13.25531628 2.29911844 -11.50398839 1.61475991 -9.75 0.9375 C-8.77546875 0.55464844 -7.8009375 0.17179688 -6.796875 -0.22265625 C-3.95992605 -1.01113787 -2.70590448 -1.02437812 0 0 Z " fill="#5B2F80" transform="translate(654,847)"/>
<path d="M0 0 C0.33 0.99 0.66 1.98 1 3 C-0.109375 4.82421875 -0.109375 4.82421875 -1.75 6.6875 C-2.28109375 7.31011719 -2.8121875 7.93273437 -3.359375 8.57421875 C-5 10 -5 10 -8 10 C-10.15028304 10.94978897 -10.15028304 10.94978897 -12 12 C-12 11.34 -12 10.68 -12 10 C-6.52380952 5 -6.52380952 5 -4 5 C-3.67 4.01 -3.34 3.02 -3 2 C-2.01 1.34 -1.02 0.68 0 0 Z " fill="#5D3888" transform="translate(812,734)"/>
<path d="M0 0 C0.33 0 0.66 0 1 0 C1.33 1.98 1.66 3.96 2 6 C2.33 6 2.66 6 3 6 C3.13794954 13.06608191 2.74805717 19.97360585 2 27 C1.67 27 1.34 27 1 27 C0.67 18.09 0.34 9.18 0 0 Z " fill="#743FA9" transform="translate(117,435)"/>
<path d="M0 0 C0.33 0.99 0.66 1.98 1 3 C1.66 3 2.32 3 3 3 C4.6277833 9.14778871 5.20190089 14.64012196 5 21 C3.09260973 17.61645552 2.23265257 14.27713656 1.375 10.5 C1.11460937 9.3759375 0.85421875 8.251875 0.5859375 7.09375 C0 4 0 4 0 0 Z " fill="#431E63" transform="translate(894,387)"/>
<path d="M0 0 C4.39951816 3.48927303 5.729291 7.7100855 7 13 C7.1875 16.0625 7.1875 16.0625 7 18 C2.27075659 13.27075659 0.55323038 6.50045699 0 0 Z " fill="#482468" transform="translate(879,341)"/>
<path d="M0 0 C0.66 0 1.32 0 2 0 C0.51364884 4.21654356 -1.61249159 7.62478605 -4.125 11.3125 C-4.84945312 12.38113281 -5.57390625 13.44976562 -6.3203125 14.55078125 C-7.15175781 15.76314453 -7.15175781 15.76314453 -8 17 C-8.76953125 15.421875 -8.76953125 15.421875 -9 13 C-7.64963539 10.57461628 -6.31248712 8.47366658 -4.6875 6.25 C-4.27048828 5.64800781 -3.85347656 5.04601562 -3.42382812 4.42578125 C-2.34313968 2.90557837 -1.17711438 1.4468262 0 0 Z " fill="#582F7D" transform="translate(190,252)"/>
<path d="M0 0 C12.66970387 2.89066059 12.66970387 2.89066059 18 6 C18 6.33 18 6.66 18 7 C13.38990507 7.25953127 10.35107637 6.59572151 6.1875 4.625 C5.23230469 4.18414063 4.27710938 3.74328125 3.29296875 3.2890625 C1 2 1 2 0 0 Z " fill="#4F2A72" transform="translate(364,845)"/>
<path d="M0 0 C3.58784902 4.30541882 6.77931309 9.35175705 7.25 15 C7.1675 15.66 7.085 16.32 7 17 C4.55831021 13.96943208 2.86972611 10.90981404 1.25 7.375 C0.80140625 6.41335938 0.3528125 5.45171875 -0.109375 4.4609375 C-0.40328125 3.64882813 -0.6971875 2.83671875 -1 2 C-0.67 1.34 -0.34 0.68 0 0 Z " fill="#4B2671" transform="translate(862,300)"/>
<path d="M0 0 C-3.01505452 2.01003635 -5.57496212 2.99171541 -9 4.125 C-10.051875 4.47820312 -11.10375 4.83140625 -12.1875 5.1953125 C-15 6 -15 6 -18 6 C-18 5.34 -18 4.68 -18 4 C-6.66287016 -0.59225513 -6.66287016 -0.59225513 0 0 Z " fill="#532B7E" transform="translate(393,109)"/>
<path d="M0 0 C0.33 0.66 0.66 1.32 1 2 C-0.43344 2.53190541 -1.87195367 3.05015258 -3.3125 3.5625 C-4.51326172 3.99755859 -4.51326172 3.99755859 -5.73828125 4.44140625 C-8 5 -8 5 -11 4 C-10.34 4 -9.68 4 -9 4 C-9.33 3.01 -9.66 2.02 -10 1 C-3.375 -1.125 -3.375 -1.125 0 0 Z " fill="#56317A" transform="translate(630,855)"/>
<path d="M0 0 C0.66 0 1.32 0 2 0 C0.50589642 3.80700968 -1.6186877 5.49761624 -4.9375 7.8125 C-5.81277344 8.43769531 -6.68804688 9.06289063 -7.58984375 9.70703125 C-8.78287109 10.34705078 -8.78287109 10.34705078 -10 11 C-10.99 10.67 -11.98 10.34 -13 10 C-9.59727838 6.29703823 -6.54089799 4.11908573 -2 2 C-1.34 1.34 -0.68 0.68 0 0 Z " fill="#432261" transform="translate(756,787)"/>
<path d="M0 0 C0.33 0 0.66 0 1 0 C0.47606294 5.86809507 -0.76108858 10.54873741 -3 16 C-3.66 16 -4.32 16 -5 16 C-5 13.69 -5 11.38 -5 9 C-4.34 8.67 -3.68 8.34 -3 8 C-2.09656316 6.11736119 -2.09656316 6.11736119 -1.375 3.9375 C-1.11460937 3.20402344 -0.85421875 2.47054687 -0.5859375 1.71484375 C-0.39257812 1.14894531 -0.19921875 0.58304688 0 0 Z " fill="#432263" transform="translate(887,600)"/>
<path d="M0 0 C0.99 0.33 1.98 0.66 3 1 C0.71046156 2.98167622 -1.58149798 4.96042047 -3.875 6.9375 C-4.85146484 7.78344727 -4.85146484 7.78344727 -5.84765625 8.64648438 C-6.47285156 9.18466797 -7.09804688 9.72285156 -7.7421875 10.27734375 C-8.3182373 10.77484131 -8.89428711 11.27233887 -9.48779297 11.78491211 C-11 13 -11 13 -13 14 C-11.43416404 9.96278439 -8.55826135 7.52929418 -5.375 4.75 C-4.859375 4.29109375 -4.34375 3.8321875 -3.8125 3.359375 C-2.5465398 2.23407704 -1.27392058 1.11627823 0 0 Z " fill="#F9F7F4" transform="translate(387,318)"/>
<path d="M0 0 C1.98 0 3.96 0 6 0 C-1.86448598 8.08294393 -1.86448598 8.08294393 -7 9 C-2.25 4.125 -2.25 4.125 0 3 C0 2.01 0 1.02 0 0 Z " fill="#6E40A9" transform="translate(293,154)"/>
<path d="M0 0 C0.81210937 0.33837891 0.81210937 0.33837891 1.640625 0.68359375 C-0.10060049 1.71932271 -1.85274095 2.73671895 -3.609375 3.74609375 C-5.07117188 4.59880859 -5.07117188 4.59880859 -6.5625 5.46875 C-9.359375 6.68359375 -9.359375 6.68359375 -11.71875 6.3671875 C-12.26015625 6.14160156 -12.8015625 5.91601562 -13.359375 5.68359375 C-11.61814951 4.64786479 -9.86600905 3.63046855 -8.109375 2.62109375 C-6.64757812 1.76837891 -6.64757812 1.76837891 -5.15625 0.8984375 C-2.359375 -0.31640625 -2.359375 -0.31640625 0 0 Z " fill="#623A86" transform="translate(341.359375,128.31640625)"/>
<path d="M0 0 C0.33 0.99 0.66 1.98 1 3 C3.97 3.33 6.94 3.66 10 4 C10 4.33 10 4.66 10 5 C8.10448978 5.05441656 6.2085208 5.09298035 4.3125 5.125 C3.25675781 5.14820313 2.20101563 5.17140625 1.11328125 5.1953125 C-2.02251859 4.99858729 -4.17645373 4.33057654 -7 3 C-7 2.67 -7 2.34 -7 2 C-4.69 2 -2.38 2 0 2 C0 1.34 0 0.68 0 0 Z " fill="#481D69" transform="translate(443,864)"/>
<path d="M0 0 C1.62106548 2.94924939 2.48443268 5.63806994 3.125 8.9375 C3.37636719 10.18853516 3.37636719 10.18853516 3.6328125 11.46484375 C4.00211177 14.01458019 4.06442528 16.42759067 4 19 C-0.86263531 13.29168898 -0.12471744 7.13660879 0 0 Z " fill="#4C2571" transform="translate(121,544)"/>
<path d="M0 0 C0.33 0 0.66 0 1 0 C0.85761163 2.04190981 0.71092972 4.08352045 0.5625 6.125 C0.48128906 7.26195312 0.40007812 8.39890625 0.31640625 9.5703125 C0.02269035 12.7540478 -0.43124313 15.85510907 -1 19 C-1.33 19 -1.66 19 -2 19 C-2.05428973 16.77110504 -2.09292338 14.54182529 -2.125 12.3125 C-2.15980469 10.45044922 -2.15980469 10.45044922 -2.1953125 8.55078125 C-2.01032021 5.18762143 -1.45767895 3.0014413 0 0 Z " fill="#4E2577" transform="translate(120,423)"/>
<path d="M0 0 C4.9723422 1.49170266 9.41845739 3.60457417 14 6 C14 6.66 14 7.32 14 8 C11.03 7.505 11.03 7.505 8 7 C8 6.34 8 5.68 8 5 C7.236875 4.896875 6.47375 4.79375 5.6875 4.6875 C2.82503132 3.95524057 1.80432431 3.27914649 0 1 C0 0.67 0 0.34 0 0 Z " fill="#492865" transform="translate(333,831)"/>
<path d="M0 0 C5.09210286 3.56320845 9.22660027 7.04741286 13 12 C9.40642281 11.43009348 7.82750729 10.13617523 5.375 7.5 C2.96389084 4.88193354 2.96389084 4.88193354 0 3 C0 2.01 0 1.02 0 0 Z " fill="#4F2B70" transform="translate(238,763)"/>
<path d="M0 0 C0.66 0 1.32 0 2 0 C1.54775239 5.91492272 0.8417395 11.35199888 -1 17 C-1.33 17 -1.66 17 -2 17 C-2.21824777 10.9981863 -1.5056904 5.80766296 0 0 Z " fill="#522B7B" transform="translate(126,388)"/>
<path d="M0 0 C0.99 0.33 1.98 0.66 3 1 C1.54712339 2.33927721 0.08752741 3.67126847 -1.375 5 C-2.18710938 5.7425 -2.99921875 6.485 -3.8359375 7.25 C-6 9 -6 9 -8 9 C-8 9.66 -8 10.32 -8 11 C-8.66 10.67 -9.32 10.34 -10 10 C-3.25842697 1.79775281 -3.25842697 1.79775281 0 0 Z " fill="#532C82" transform="translate(256,182)"/>
<path d="M0 0 C0.66 0.33 1.32 0.66 2 1 C-9.33712984 8.66742597 -9.33712984 8.66742597 -16 10 C-13.30840491 6.87427667 -10.0365868 5.1963218 -6.4375 3.25 C-4.70306641 2.29867187 -4.70306641 2.29867187 -2.93359375 1.328125 C-1.96550781 0.88984375 -0.99742187 0.4515625 0 0 Z " fill="#703DB0" transform="translate(330,135)"/>
<path d="M0 0 C3.63559661 3.43361902 6.36113346 6.7973607 9 11 C8.01 11 7.02 11 6 11 C3.9375 8.625 3.9375 8.625 2 6 C1.34 5.34 0.68 4.68 0 4 C0 2.68 0 1.36 0 0 Z " fill="#502D78" transform="translate(194,713)"/>
<path d="M0 0 C2.91375388 1.45687694 3.35777779 3.50753903 4.6875 6.4375 C5.14511719 7.42621094 5.60273438 8.41492188 6.07421875 9.43359375 C6.37972656 10.28050781 6.68523437 11.12742187 7 12 C6.67 12.66 6.34 13.32 6 14 C2.67016949 11.30442292 1.45548306 7.95059687 0 4 C0 2.68 0 1.36 0 0 Z " fill="#522B77" transform="translate(150,638)"/>
<path d="M0 0 C2.57146057 2.57146057 2.80117997 4.6050417 3.625 8.125 C3.88539063 9.22070312 4.14578125 10.31640625 4.4140625 11.4453125 C4.70410156 12.70988281 4.70410156 12.70988281 5 14 C4.01 14.495 4.01 14.495 3 15 C1.094753 9.89665983 -0.42589023 5.53657294 0 0 Z " fill="#5A357F" transform="translate(128,577)"/>
<path d="M0 0 C1 2 1 2 0.546875 3.98828125 C-2.34411085 12.42032333 -2.34411085 12.42032333 -5 16 C-5.66 16 -6.32 16 -7 16 C-5.35433477 10.31497465 -2.70967216 5.23318364 0 0 Z " fill="#7140B1" transform="translate(158,309)"/>
<path d="M0 0 C-3.1254959 2.64465038 -6.08788267 3.84414715 -10 5 C-9.67 3.35 -9.34 1.7 -9 0 C-5.52176885 -1.15941038 -3.54104422 -0.70820884 0 0 Z " fill="#532F75" transform="translate(690,832)"/>
<path d="M0 0 C0.97226335 2.59072612 1.11611108 3.69699083 0.109375 6.32421875 C-0.33921875 7.10410156 -0.7878125 7.88398438 -1.25 8.6875 C-1.68828125 9.47511719 -2.1265625 10.26273437 -2.578125 11.07421875 C-4 13 -4 13 -7 14 C-5.23570801 9.02790438 -2.6060834 4.56561939 0 0 Z " fill="#5E3887" transform="translate(169,284)"/>
<path d="M0 0 C0 3.69418201 -1.28179295 5.77836178 -3 9 C-4.32 9 -5.64 9 -7 9 C-5.44499019 5.18315774 -2.96404505 2.80804268 0 0 Z " fill="#7441B2" transform="translate(222,271)"/>
<path d="M0 0 C-2.48434437 2.34290892 -3.77731593 2.97982934 -7.234375 3.29296875 C-8.39453125 3.25816406 -9.5546875 3.22335937 -10.75 3.1875 C-11.92046875 3.16042969 -13.0909375 3.13335938 -14.296875 3.10546875 C-15.18890625 3.07066406 -16.0809375 3.03585937 -17 3 C-17 2.67 -17 2.34 -17 2 C-15.10507994 1.66151348 -13.20901534 1.32943089 -11.3125 1 C-9.72888672 0.7215625 -9.72888672 0.7215625 -8.11328125 0.4375 C-5.35095938 0.04931926 -2.78257957 -0.08259976 0 0 Z " fill="#3F1E5C" transform="translate(587,866)"/>
<path d="M0 0 C0.33 0.66 0.66 1.32 1 2 C2.88764903 2.68472665 2.88764903 2.68472665 5.0625 3.125 C5.79597656 3.29257812 6.52945312 3.46015625 7.28515625 3.6328125 C7.85105469 3.75398437 8.41695313 3.87515625 9 4 C9 4.33 9 4.66 9 5 C4.17639811 5.19294408 0.50353262 4.75747614 -4 3 C-4 2.34 -4 1.68 -4 1 C-2.68 0.67 -1.36 0.34 0 0 Z " fill="#4F2B71" transform="translate(396,854)"/>
<path d="M0 0 C3 0 3 0 4.859375 1.64453125 C5.48328125 2.35996094 6.1071875 3.07539063 6.75 3.8125 C7.38421875 4.52019531 8.0184375 5.22789062 8.671875 5.95703125 C9.11015625 6.63121094 9.5484375 7.30539063 10 8 C9.67 8.99 9.34 9.98 9 11 C7.49703315 9.35687553 5.99769719 7.71042916 4.5 6.0625 C3.6646875 5.14597656 2.829375 4.22945312 1.96875 3.28515625 C0 1 0 1 0 0 Z " fill="#432167" transform="translate(803,219)"/>
<path d="M0 0 C3.625 0.375 3.625 0.375 7 1 C4.65085508 3.34914492 3.04320554 3.73140357 -0.125 4.625 C-1.03507812 4.88539062 -1.94515625 5.14578125 -2.8828125 5.4140625 C-3.58148438 5.60742188 -4.28015625 5.80078125 -5 6 C-3.4198632 3.84526801 -1.89353366 1.89353366 0 0 Z " fill="#713BA8" transform="translate(359,119)"/>
<path d="M0 0 C-2.1446143 2.1446143 -3.01739998 2.44564603 -5.875 3.125 C-6.89207031 3.37636719 -6.89207031 3.37636719 -7.9296875 3.6328125 C-10 4 -10 4 -14 4 C-14 3.34 -14 2.68 -14 2 C-9.126739 0.4087311 -5.19209404 -0.21192221 0 0 Z " fill="#5B2C81" transform="translate(417,102)"/>
<path d="M0 0 C0.66 0.33 1.32 0.66 2 1 C-0.97 3.64 -3.94 6.28 -7 9 C-7.99 8.67 -8.98 8.34 -10 8 C-6.7 5.36 -3.4 2.72 0 0 Z " fill="#42215E" transform="translate(769,777)"/>
<path d="M0 0 C0.33 0.66 0.66 1.32 1 2 C-0.43359375 4.6015625 -0.43359375 4.6015625 -2.4375 7.625 C-3.09621094 8.62789063 -3.75492187 9.63078125 -4.43359375 10.6640625 C-4.95050781 11.43492187 -5.46742188 12.20578125 -6 13 C-6.66 12.67 -7.32 12.34 -8 12 C-6.85573734 10.186508 -5.70954608 8.37423275 -4.5625 6.5625 C-3.60537109 5.04849609 -3.60537109 5.04849609 -2.62890625 3.50390625 C-1 1 -1 1 0 0 Z " fill="#0B0C0C" transform="translate(489,370)"/>
<path d="M0 0 C7.57142857 4 7.57142857 4 10 8 C9.34 8.66 8.68 9.32 8 10 C6.33333333 8.33333333 4.66666667 6.66666667 3 5 C2.401875 4.443125 1.80375 3.88625 1.1875 3.3125 C0 2 0 2 0 0 Z " fill="#432362" transform="translate(272,792)"/>
<path d="M0 0 C5.01202555 2.98334854 8.38748484 6.43951988 12 11 C8.64365629 9.43370627 6.61658077 7.61658077 4 5 C1.86690808 3.76487921 1.86690808 3.76487921 0 3 C0 2.01 0 1.02 0 0 Z " fill="#371E72" transform="translate(369,617)"/>
<path d="M0 0 C2.2477975 2.05233685 3.0022242 3.00667261 4 6 C4.03954234 8.33299825 4.04401732 10.66708189 4 13 C1.27835324 10.27835324 0.89427524 7.70485455 0 4 C0 2.68 0 1.36 0 0 Z " fill="#3F1D5F" transform="translate(890,373)"/>
<path d="M0 0 C0.66 0 1.32 0 2 0 C2.67119549 1.4562545 3.33681807 2.91507867 4 4.375 C4.556875 5.59316406 4.556875 5.59316406 5.125 6.8359375 C6 9 6 9 6 11 C5.34 11 4.68 11 4 11 C0 4.5 0 4.5 0 0 Z " fill="#4A276E" transform="translate(870,319)"/>
<path d="M0 0 C4.37859255 0.50522222 6.81651224 3.17827222 10 6 C9.67 6.99 9.34 7.98 9 9 C7.49704815 7.69088122 5.99770689 6.37761608 4.5 5.0625 C3.6646875 4.33160156 2.829375 3.60070312 1.96875 2.84765625 C1.3190625 2.23792969 0.669375 1.62820312 0 1 C0 0.67 0 0.34 0 0 Z " fill="#4C296E" transform="translate(770,187)"/>
<path d="M0 0 C0.66 0 1.32 0 2 0 C1.54917531 1.46067199 1.08906463 2.91848032 0.625 4.375 C0.36976563 5.18710937 0.11453125 5.99921875 -0.1484375 6.8359375 C-1 9 -1 9 -3 11 C-4 8 -4 8 -3.22265625 5.95703125 C-2.83980469 5.24933594 -2.45695313 4.54164063 -2.0625 3.8125 C-1.68222656 3.09707031 -1.30195313 2.38164062 -0.91015625 1.64453125 C-0.60980469 1.10183594 -0.30945313 0.55914062 0 0 Z " fill="#502B77" transform="translate(144,336)"/>
<path d="M0 0 C0.66 0.33 1.32 0.66 2 1 C-1.17320782 4.53586014 -3.16743695 6.58578031 -8 7 C-5.42215154 4.35247996 -3.08351902 2.05567935 0 0 Z " fill="#3F2278" transform="translate(629,637)"/>
<path d="M0 0 C0 3.77910478 -0.99703962 4.46106101 -3.5 7.1875 C-4.1496875 7.90292969 -4.799375 8.61835937 -5.46875 9.35546875 C-5.9740625 9.89816406 -6.479375 10.44085937 -7 11 C-7.66 10.67 -8.32 10.34 -9 10 C-7.8758824 8.70756532 -6.75067408 7.41607925 -5.625 6.125 C-4.99851562 5.40570312 -4.37203125 4.68640625 -3.7265625 3.9453125 C-2.52573166 2.5923402 -1.2791655 1.2791655 0 0 Z " fill="#7244A2" transform="translate(662,609)"/>
<path d="M0 0 C1.71056541 2.58430745 2.05220752 3.68321539 1.5390625 6.796875 C1.23742187 7.77140625 0.93578125 8.7459375 0.625 9.75 C0.32851563 10.73484375 0.03203125 11.7196875 -0.2734375 12.734375 C-0.51320313 13.48203125 -0.75296875 14.2296875 -1 15 C-1.33 15 -1.66 15 -2 15 C-2 10.38 -2 5.76 -2 1 C-1.34 0.67 -0.68 0.34 0 0 Z " fill="#76499F" transform="translate(710,508)"/>
<path d="M0 0 C4.16550041 2.08275021 5.14638809 2.90254209 7 7 C6.67 8.32 6.34 9.64 6 11 C4.02 7.37 2.04 3.74 0 0 Z " fill="#402061" transform="translate(844,272)"/>
<path d="M0 0 C1.4589426 0.47730838 2.91713496 0.95691042 4.375 1.4375 C5.18710937 1.70433594 5.99921875 1.97117187 6.8359375 2.24609375 C9 3 9 3 11 4 C11 4.66 11 5.32 11 6 C9.53775201 5.57576756 8.08026588 5.13509755 6.625 4.6875 C5.81289063 4.44386719 5.00078125 4.20023438 4.1640625 3.94921875 C2 3 2 3 0 0 Z " fill="#4F2871" transform="translate(350,839)"/>
<path d="M0 0 C1.51953125 1.20703125 1.51953125 1.20703125 3 3 C3.07421875 5.26171875 3.07421875 5.26171875 2.6875 7.6875 C2.50767578 8.89986328 2.50767578 8.89986328 2.32421875 10.13671875 C2.21722656 10.75160156 2.11023438 11.36648438 2 12 C1.896875 11.360625 1.79375 10.72125 1.6875 10.0625 C1.460625 9.381875 1.23375 8.70125 1 8 C0.01 7.67 -0.98 7.34 -2 7 C-1.34 4.69 -0.68 2.38 0 0 Z " fill="#5D3985" transform="translate(899,545)"/>
<path d="M0 0 C0.33 0 0.66 0 1 0 C1.71033431 5.52967941 2.30267176 10.49983036 1 16 C0.67 16 0.34 16 0 16 C-0.19672365 14.27185839 -0.38196799 12.54240803 -0.5625 10.8125 C-0.71912109 9.36810547 -0.71912109 9.36810547 -0.87890625 7.89453125 C-0.99758751 5.05766623 -0.67765639 2.74576329 0 0 Z " fill="#5B2E7F" transform="translate(899,403)"/>
<path d="M0 0 C0.66 0.33 1.32 0.66 2 1 C1.04956626 2.33897583 0.08940853 3.67105427 -0.875 5 C-1.40867188 5.7425 -1.94234375 6.485 -2.4921875 7.25 C-3.23855469 8.11625 -3.23855469 8.11625 -4 9 C-4.66 9 -5.32 9 -6 9 C-5.52797514 4.75177626 -3.03344482 2.80010291 0 0 Z " fill="#6E37AE" transform="translate(248,296)"/>
<path d="M0 0 C0.99 0.33 1.98 0.66 3 1 C0.69 3.97 -1.62 6.94 -4 10 C-4.33 9.01 -4.66 8.02 -5 7 C-4.00390625 5.17578125 -4.00390625 5.17578125 -2.5625 3.3125 C-2.08941406 2.68988281 -1.61632812 2.06726563 -1.12890625 1.42578125 C-0.75636719 0.95527344 -0.38382813 0.48476562 0 0 Z " fill="#4C296E" transform="translate(199,240)"/>
<path d="M0 0 C1.43836751 0.11458693 2.87570966 0.24209116 4.3125 0.375 C5.51326172 0.47941406 5.51326172 0.47941406 6.73828125 0.5859375 C9 1 9 1 12 3 C8.69564916 4.12377697 6.9493138 3.89554742 3.75 2.5625 C3.04359375 2.27503906 2.3371875 1.98757812 1.609375 1.69140625 C1.07828125 1.46324219 0.5471875 1.23507813 0 1 C0 0.67 0 0.34 0 0 Z " fill="#5A2F7E" transform="translate(625,108)"/>
<path d="M0 0 C3.48331435 3.01887244 4.79157144 5.56909529 6 10 C5.34 10 4.68 10 4 10 C0 3.375 0 3.375 0 0 Z " fill="#562D77" transform="translate(170,677)"/>
<path d="M0 0 C0.33 0 0.66 0 1 0 C1.33 3.63 1.66 7.26 2 11 C1.34 11 0.68 11 0 11 C-0.33 11.99 -0.66 12.98 -1 14 C-1.08333357 9.1666528 -0.95261487 4.76307437 0 0 Z " fill="#2E176F" transform="translate(710,497)"/>
<path d="M0 0 C-2.42130331 2.42130331 -3.80111377 2.52840504 -7.125 3.125 C-8.03507812 3.29257812 -8.94515625 3.46015625 -9.8828125 3.6328125 C-10.58148438 3.75398438 -11.28015625 3.87515625 -12 4 C-8.56269725 0.27625536 -5.01653969 -1.6721799 0 0 Z " fill="#F9F7F3" transform="translate(451,286)"/>
<path d="M0 0 C-0.66 0 -1.32 0 -2 0 C-2 0.66 -2 1.32 -2 2 C-6.455 2.495 -6.455 2.495 -11 3 C-7.74003139 -0.25996861 -4.40088745 -1.46696248 0 0 Z " fill="#3D1B59" transform="translate(646,851)"/>
<path d="M0 0 C0.33 0.99 0.66 1.98 1 3 C-3.39453125 7.00390625 -3.39453125 7.00390625 -5 8 C-5.99 7.67 -6.98 7.34 -8 7 C-5.36 4.69 -2.72 2.38 0 0 Z " fill="#3B1C56" transform="translate(780,767)"/>
<path d="M0 0 C0.6875 1.625 0.6875 1.625 1 4 C-1.33333333 9.66666667 -1.33333333 9.66666667 -4 11 C-3.52269162 9.5410574 -3.04308958 8.08286504 -2.5625 6.625 C-2.29566406 5.81289063 -2.02882813 5.00078125 -1.75390625 4.1640625 C-1 2 -1 2 0 0 Z " fill="#3E1D5E" transform="translate(877,627)"/>
<path d="M0 0 C0.93423645 3.01031744 1.04449911 3.86650268 0 7 C-2.5625 8.1875 -2.5625 8.1875 -5 9 C-5.66 8.34 -6.32 7.68 -7 7 C-6.21625 6.5875 -5.4325 6.175 -4.625 5.75 C-1.94108344 3.9607223 -1.11901051 2.95011861 0 0 Z " fill="#E2DFDB" transform="translate(565,597)"/>
<path d="M0 0 C0.66 0.33 1.32 0.66 2 1 C-3.625 5.875 -3.625 5.875 -7 7 C-7 6.01 -7 5.02 -7 4 C-1.7265625 0.77734375 -1.7265625 0.77734375 0 0 Z " fill="#6C34AD" transform="translate(236,307)"/>
<path d="M0 0 C2.61500768 2.36595933 4.38999603 4.86049226 6 8 C5.67 8.66 5.34 9.32 5 10 C2.9754262 8.06745228 1.57894208 6.36841312 0 4 C0 2.68 0 1.36 0 0 Z " fill="#502A6E" transform="translate(851,281)"/>
<path d="M0 0 C3.55780196 0.60990891 6.6828589 1.5783681 10 3 C9.01 3.66 8.02 4.32 7 5 C3.3125 3.625 3.3125 3.625 0 2 C0 1.34 0 0.68 0 0 Z " fill="#5B2985" transform="translate(672,125)"/>
<path d="M0 0 C0.66 0.33 1.32 0.66 2 1 C-0.06756277 3.7972908 -1.14440371 4.02692273 -4.6875 4.6875 C-5.780625 4.790625 -6.87375 4.89375 -8 5 C-5.45378681 2.99940392 -3.01962385 1.20784954 0 0 Z " fill="#422163" transform="translate(679,835)"/>
<path d="M0 0 C-1.4638611 4.39158329 -3.97831338 4.87947433 -8 7 C-8 6.01 -8 5.02 -8 4 C-2.74285714 0 -2.74285714 0 0 0 Z " fill="#432161" transform="translate(742,799)"/>
<path d="M0 0 C0.88492145 2.47778006 1.11637742 3.66056586 0.25 6.1875 C-1 8 -1 8 -4 9 C-4 5 -4 5 -2.5625 3.375 C-2.046875 2.92125 -1.53125 2.4675 -1 2 C-0.67 1.34 -0.34 0.68 0 0 Z " fill="#462666" transform="translate(857,669)"/>
<path d="M0 0 C0.33 0.66 0.66 1.32 1 2 C-1.16687491 4.27521866 -3.45620509 6.15794162 -6 8 C-5.4360709 4.72921124 -4.54319569 3.13628438 -2 1 C-1.34 0.67 -0.68 0.34 0 0 Z " fill="#5A367E" transform="translate(860,666)"/>
<path d="M0 0 C2.97 1.65 5.94 3.3 9 5 C7.68 5.33 6.36 5.66 5 6 C2.25 4.1875 2.25 4.1875 0 2 C0 1.34 0 0.68 0 0 Z " fill="#4E276E" transform="translate(293,807)"/>
<path d="M0 0 C0.33 0.99 0.66 1.98 1 3 C-0.32 4.32 -1.64 5.64 -3 7 C-3.66 6.67 -4.32 6.34 -5 6 C-3.63016497 2.83884224 -3.0109362 2.0072908 0 0 Z " fill="#3F1E60" transform="translate(812,734)"/>
<path d="M0 0 C0.33 0.99 0.66 1.98 1 3 C-0.65 4.65 -2.3 6.3 -4 8 C-4.66 7.67 -5.32 7.34 -6 7 C-4.02 4.69 -2.04 2.38 0 0 Z " fill="#412463" transform="translate(820,725)"/>
<path d="M0 0 C0.93065133 2.60582371 1.14917407 3.64198224 0.0625 6.25 C-0.4634375 7.11625 -0.4634375 7.11625 -1 8 C-1.99 7.67 -2.98 7.34 -4 7 C-2.68 4.69 -1.36 2.38 0 0 Z " fill="#462464" transform="translate(868,648)"/>
<path d="M0 0 C0.33 0 0.66 0 1 0 C1.37211538 6.57403846 1.37211538 6.57403846 -0.51171875 8.73046875 C-1.00285156 9.14941406 -1.49398437 9.56835938 -2 10 C-1.85950482 8.52031676 -1.71245174 7.04125484 -1.5625 5.5625 C-1.48128906 4.73878906 -1.40007813 3.91507813 -1.31640625 3.06640625 C-1 1 -1 1 0 0 Z " fill="#3F1F5E" transform="translate(896,568)"/>
<path d="M0 0 C0.6875 1.75 0.6875 1.75 1 4 C-0.7573799 7.07541482 -1.57945994 7.85981998 -5 9 C-4.67 8.01 -4.34 7.02 -4 6 C-3.34 6 -2.68 6 -2 6 C-1.855625 5.195625 -1.71125 4.39125 -1.5625 3.5625 C-1 1 -1 1 0 0 Z " fill="#1B1E1E" transform="translate(506,426)"/>
<path d="M0 0 C2.56687367 3.8503105 1.83288724 5.58569763 1 10 C0.01 9.67 -0.98 9.34 -2 9 C-1.34 6.03 -0.68 3.06 0 0 Z " fill="#EDE8E3" transform="translate(319,418)"/>
<path d="M0 0 C0.66 0.33 1.32 0.66 2 1 C-0.3125 3.5 -0.3125 3.5 -3 6 C-3.99 6 -4.98 6 -6 6 C-4 4 -2 2 0 0 Z " fill="#532C8A" transform="translate(402,304)"/>
<path d="M0 0 C0 0.66 0 1.32 0 2 C-2.31 2 -4.62 2 -7 2 C-7 1.34 -7 0.68 -7 0 C-4.3333581 -1.33332095 -2.83319697 -0.67102033 0 0 Z " fill="#763EB6" transform="translate(260,244)"/>
<path d="M0 0 C3.37462715 0.54723683 5.08235 1.0549 8 3 C8 3.66 8 4.32 8 5 C2.25 3.375 2.25 3.375 0 0 Z " fill="#512B77" transform="translate(722,152)"/>
<path d="M0 0 C0.33 0 0.66 0 1 0 C0.6875 3.375 0.6875 3.375 0 7 C-0.99 7.66 -1.98 8.32 -3 9 C-2.01 6.03 -1.02 3.06 0 0 Z " fill="#412163" transform="translate(881,617)"/>
<path d="M0 0 C0.33 0 0.66 0 1 0 C1.98248524 4.0527516 2.08159574 7.83861737 2 12 C-0.32992644 8.50511034 -1.13620929 6.99238196 -0.5625 2.8125 C-0.376875 1.884375 -0.19125 0.95625 0 0 Z " fill="#421867" transform="translate(119,531)"/>
<path d="M0 0 C0.33 0 0.66 0 1 0 C0.4140625 6.15234375 0.4140625 6.15234375 0 8 C-0.99 8.495 -0.99 8.495 -2 9 C-3 6 -3 6 -2 3 C-1.34 3 -0.68 3 0 3 C0 2.01 0 1.02 0 0 Z " fill="#4C2575" transform="translate(130,378)"/>
<path d="M0 0 C6.52307692 -0.36923077 6.52307692 -0.36923077 8.9375 1.5 C9.288125 1.995 9.63875 2.49 10 3 C2.25 2.25 2.25 2.25 0 0 Z " fill="#4C2275" transform="translate(600,101)"/>
<path d="" fill="#000000" transform="translate(0,0)"/>
<path d="" fill="#000000" transform="translate(0,0)"/>
<path d="" fill="#0000FF" transform="translate(0,0)"/>
<path d="" fill="#000000" transform="translate(0,0)"/>
<path d="" fill="#0000FF" transform="translate(0,0)"/>
<path d="" fill="#000000" transform="translate(0,0)"/>
<path d="" fill="#000000" transform="translate(0,0)"/>
<path d="" fill="#000000" transform="translate(0,0)"/>
<path d="" fill="#000000" transform="translate(0,0)"/>
<path d="" fill="#000000" transform="translate(0,0)"/>
<path d="" fill="#000000" transform="translate(0,0)"/>
<path d="" fill="#000000" transform="translate(0,0)"/>
<path d="" fill="#000000" transform="translate(0,0)"/>
<path d="" fill="#000000" transform="translate(0,0)"/>
</svg>
