<?xml version="1.0" encoding="utf-8"?>
<svg version="1.1" id="Layer_1" xmlns="http://www.w3.org/2000/svg" xmlns:xlink="http://www.w3.org/1999/xlink" x="0px" y="0px"
	 viewBox="0 0 104 124" style="enable-background:new 0 0 104 124;" xml:space="preserve">

    <rect x="4" y="4" width="16" height="16"  fill="#BBBBBB"/>
    <rect x="24" y="4" width="16" height="16"  fill="#BBBBBB"/>
    <rect x="44" y="4" width="16" height="16"  fill="#BBBBBB"/>
    <rect x="64" y="4" width="16" height="16"  fill="#BBBBBB"/>
    <rect x="84" y="4" width="16" height="16"  fill="#BBBBBB"/>

    <rect x="4" y="24" width="16" height="16"  fill="#BBBBBB"/>
    <rect x="24" y="24" width="16" height="16"  fill="#BBBBBB"/>
    <rect x="44" y="24" width="16" height="16"  fill="#BBBBBB"/>
    <rect x="64" y="24" width="16" height="16"  fill="#BBBBBB"/>
    <rect x="84" y="24" width="16" height="16"  fill="#BBBBBB"/>

    <rect x="4" y="44" width="16" height="16"  fill="#BBBBBB"/>
    <rect x="24" y="44" width="16" height="16"  fill="#BBBBBB"/>
    <rect x="44" y="44" width="16" height="16"  fill="#BBBBBB"/>
    <rect x="64" y="44" width="16" height="16"  fill="#BBBBBB"/>
    <rect x="84" y="44" width="16" height="16"  fill="#BBBBBB"/>

    <rect x="4" y="64" width="16" height="16"  fill="#BBBBBB"/>
    <rect x="24" y="64" width="16" height="16"  fill="#BBBBBB"/>
    <rect x="44" y="64" width="16" height="16"  fill="#BBBBBB"/>
    <rect x="64" y="64" width="16" height="16"  fill="#BBBBBB"/>
    <rect x="84" y="64" width="16" height="16"  fill="#BBBBBB"/>

    <rect x="4" y="84" width="16" height="16"  fill="#BBBBBB"/>
    <rect x="24" y="84" width="16" height="16"  fill="#BBBBBB"/>
    <rect x="44" y="84" width="16" height="16"  fill="#BBBBBB"/>
    <rect x="64" y="84" width="16" height="16"  fill="#BBBBBB"/>
    <rect x="84" y="84" width="16" height="16"  fill="#BBBBBB"/>

    <rect x="4" y="104" width="96" height="16"  fill="#888888"/>

</svg>