<svg version="1.1" viewBox="0.0 0.0 96.0 96.0" fill="none" stroke="none" stroke-linecap="square" stroke-miterlimit="10" xmlns:xlink="http://www.w3.org/1999/xlink" xmlns="http://www.w3.org/2000/svg"><clipPath id="p.0"><path d="m0 0l96.0 0l0 96.0l-96.0 0l0 -96.0z" clip-rule="nonzero"/></clipPath><g clip-path="url(#p.0)"><path fill="#000000" fill-opacity="0.0" d="m0 0l96.0 0l0 96.0l-96.0 0z" fill-rule="evenodd"/><path fill="#ffd966" d="m5.6666665E-4 2.9658794E-4l96.0 0l0 95.1811l-96.0 0z" fill-rule="evenodd"/><path stroke="#000000" stroke-width="1.0" stroke-linejoin="round" stroke-linecap="butt" d="m5.6666665E-4 2.9658794E-4l96.0 0l0 95.1811l-96.0 0z" fill-rule="evenodd"/><path fill="#000000" d="m49.764057 35.731472l4.796875 0l0 15.109375q0 2.953125 -0.515625 4.546875q-0.703125 2.09375 -2.546875 3.359375q-1.828125 1.25 -4.84375 1.25q-3.53125 0 -5.4375 -1.96875q-1.90625 -1.984375 -1.921875 -5.8125l4.546875 -0.515625q0.078125 2.046875 0.609375 2.890625q0.78125 1.296875 2.375 1.296875q1.609375 0 2.265625 -0.921875q0.671875 -0.921875 0.671875 -3.828125l0 -15.40625z" fill-rule="nonzero"/></g></svg>