<svg version="1.1" viewBox="0.0 0.0 576.0 1152.0" fill="none" stroke="none" stroke-linecap="square" stroke-miterlimit="10" xmlns:xlink="http://www.w3.org/1999/xlink" xmlns="http://www.w3.org/2000/svg"><clipPath id="p.0"><path d="m0 0l576.0 0l0 1152.0l-576.0 0l0 -1152.0z" clip-rule="nonzero"/></clipPath><g clip-path="url(#p.0)"><path fill="#000000" fill-opacity="0.0" d="m0 0l576.0 0l0 1152.0l-576.0 0z" fill-rule="evenodd"/><path fill="#ead1dc" d="m0 572.0551l96.031494 0l0 96.629944l-96.031494 0z" fill-rule="evenodd"/><path stroke="#000000" stroke-width="2.0" stroke-linejoin="round" stroke-linecap="butt" d="m0 572.0551l96.031494 0l0 96.629944l-96.031494 0z" fill-rule="evenodd"/><path fill="#000000" d="m41.345825 627.57007l4.890625 -7.46875l-4.4375 -6.84375l3.390625 0l2.859375 4.59375l2.8125 -4.59375l3.359375 0l-4.453125 6.953125l4.890625 7.359375l-3.484375 0l-3.171875 -4.953125l-3.1875 4.953125l-3.46875 0z" fill-rule="nonzero"/><path fill="#ead1dc" d="m95.97435 572.0551l96.031494 0l0 96.629944l-96.031494 0z" fill-rule="evenodd"/><path stroke="#000000" stroke-width="2.0" stroke-linejoin="round" stroke-linecap="butt" d="m95.97435 572.0551l96.031494 0l0 96.629944l-96.031494 0z" fill-rule="evenodd"/><path fill="#000000" d="m137.32018 627.57007l4.890625 -7.46875l-4.4375 -6.84375l3.390625 0l2.859375 4.59375l2.8125 -4.59375l3.359375 0l-4.453125 6.953125l4.890625 7.359375l-3.484375 0l-3.171875 -4.953125l-3.1875 4.953125l-3.46875 0z" fill-rule="nonzero"/><path fill="#ead1dc" d="m191.9487 572.0551l96.031494 0l0 96.629944l-96.031494 0z" fill-rule="evenodd"/><path stroke="#000000" stroke-width="2.0" stroke-linejoin="round" stroke-linecap="butt" d="m191.9487 572.0551l96.031494 0l0 96.629944l-96.031494 0z" fill-rule="evenodd"/><path fill="#000000" d="m233.29453 627.57007l4.890625 -7.46875l-4.4375 -6.84375l3.390625 0l2.859375 4.59375l2.8125 -4.59375l3.359375 0l-4.453125 6.953125l4.890625 7.359375l-3.484375 0l-3.171875 -4.953125l-3.1875 4.953125l-3.46875 0z" fill-rule="nonzero"/><path fill="#ffd966" d="m0 668.713l287.9685 0l0 96.62988l-287.9685 0z" fill-rule="evenodd"/><path stroke="#000000" stroke-width="2.0" stroke-linejoin="round" stroke-linecap="butt" d="m0 668.713l287.9685 0l0 96.62988l-287.9685 0z" fill-rule="evenodd"/><path fill="#000000" d="m124.67828 710.7617l2.5 0l0 7.859375q0 1.53125 -0.265625 2.359375q-0.375 1.09375 -1.328125 1.75q-0.953125 0.65625 -2.515625 0.65625q-1.84375 0 -2.84375 -1.03125q-0.984375 -1.03125 -0.984375 -3.015625l2.359375 -0.28125q0.046875 1.078125 0.3125 1.515625q0.40625 0.671875 1.234375 0.671875q0.84375 0 1.1875 -0.484375q0.34375 -0.484375 0.34375 -1.984375l0 -8.015625zm10.355835 9.546875l2.359375 0.390625q-0.453125 1.3125 -1.4375 2.0q-0.984375 0.671875 -2.46875 0.671875q-2.34375 0 -3.46875 -1.53125q-0.890625 -1.234375 -0.890625 -3.09375q0 -2.234375 1.171875 -3.5q1.171875 -1.265625 2.953125 -1.265625q2.0 0 3.15625 1.328125q1.171875 1.3125 1.109375 4.046875l-5.953125 0q0.03125 1.0625 0.578125 1.65625q0.546875 0.578125 1.375 0.578125q0.546875 0 0.921875 -0.296875q0.390625 -0.3125 0.59375 -0.984375zm0.125 -2.40625q-0.015625 -1.03125 -0.53125 -1.5625q-0.5 -0.546875 -1.234375 -0.546875q-0.78125 0 -1.28125 0.578125q-0.515625 0.5625 -0.5 1.53125l3.546875 0zm12.480835 5.265625l-2.375 0l0 -4.578125q0 -1.46875 -0.15625 -1.890625q-0.15625 -0.421875 -0.5 -0.65625q-0.34375 -0.25 -0.828125 -0.25q-0.609375 0 -1.109375 0.34375q-0.484375 0.34375 -0.671875 0.90625q-0.171875 0.546875 -0.171875 2.0625l0 4.0625l-2.375 0l0 -8.984375l2.203125 0l0 1.3125q1.171875 -1.515625 2.953125 -1.515625q0.796875 0 1.4375 0.28125q0.65625 0.28125 0.984375 0.734375q0.34375 0.4375 0.46875 1.0q0.140625 0.546875 0.140625 1.59375l0 5.578125zm2.1940918 0.59375l2.703125 0.328125q0.078125 0.46875 0.3125 0.65625q0.34375 0.25 1.078125 0.25q0.921875 0 1.390625 -0.28125q0.3125 -0.1875 0.46875 -0.59375q0.109375 -0.296875 0.109375 -1.09375l0 -1.3125q-1.0625 1.453125 -2.6875 1.453125q-1.8125 0 -2.859375 -1.53125q-0.84375 -1.203125 -0.84375 -3.015625q0 -2.25 1.09375 -3.4375q1.09375 -1.203125 2.703125 -1.203125q1.671875 0 2.75 1.46875l0 -1.265625l2.21875 0l0 8.0625q0 1.59375 -0.265625 2.375q-0.25 0.78125 -0.734375 1.234375q-0.46875 0.453125 -1.265625 0.703125q-0.78125 0.25 -1.984375 0.25q-2.296875 0 -3.25 -0.78125q-0.953125 -0.78125 -0.953125 -1.984375q0 -0.109375 0.015625 -0.28125zm2.109375 -5.265625q0 1.421875 0.546875 2.09375q0.5625 0.65625 1.375 0.65625q0.875 0 1.46875 -0.671875q0.609375 -0.6875 0.609375 -2.03125q0 -1.390625 -0.578125 -2.0625q-0.578125 -0.6875 -1.453125 -0.6875q-0.859375 0 -1.421875 0.671875q-0.546875 0.65625 -0.546875 2.03125zm10.459717 -1.578125l-2.15625 -0.390625q0.375 -1.296875 1.25 -1.921875q0.890625 -0.625 2.640625 -0.625q1.59375 0 2.375 0.375q0.78125 0.375 1.09375 0.953125q0.3125 0.578125 0.3125 2.125l-0.015625 2.78125q0 1.1875 0.109375 1.75q0.109375 0.5625 0.421875 1.203125l-2.34375 0q-0.09375 -0.234375 -0.234375 -0.703125q-0.0625 -0.203125 -0.078125 -0.28125q-0.609375 0.59375 -1.3125 0.890625q-0.6875 0.296875 -1.46875 0.296875q-1.390625 0 -2.1875 -0.75q-0.796875 -0.75 -0.796875 -1.90625q0 -0.765625 0.359375 -1.359375q0.359375 -0.59375 1.015625 -0.90625q0.65625 -0.328125 1.890625 -0.5625q1.671875 -0.3125 2.3125 -0.578125l0 -0.234375q0 -0.6875 -0.34375 -0.984375q-0.328125 -0.296875 -1.28125 -0.296875q-0.625 0 -0.984375 0.25q-0.359375 0.25 -0.578125 0.875zm3.1875 1.9375q-0.453125 0.15625 -1.453125 0.375q-0.984375 0.203125 -1.296875 0.40625q-0.453125 0.328125 -0.453125 0.828125q0 0.5 0.359375 0.875q0.375 0.359375 0.953125 0.359375q0.640625 0 1.234375 -0.421875q0.421875 -0.328125 0.5625 -0.796875q0.09375 -0.296875 0.09375 -1.15625l0 -0.46875z" fill-rule="nonzero"/><path fill="#ead1dc" d="m0 765.3709l96.031494 0l0 96.62988l-96.031494 0z" fill-rule="evenodd"/><path stroke="#000000" stroke-width="2.0" stroke-linejoin="round" stroke-linecap="butt" d="m0 765.3709l96.031494 0l0 96.62988l-96.031494 0z" fill-rule="evenodd"/><path fill="#000000" d="m41.345825 820.88586l4.890625 -7.46875l-4.4375 -6.84375l3.390625 0l2.859375 4.59375l2.8125 -4.59375l3.359375 0l-4.453125 6.953125l4.890625 7.359375l-3.484375 0l-3.171875 -4.953125l-3.1875 4.953125l-3.46875 0z" fill-rule="nonzero"/><path fill="#ead1dc" d="m95.97172 765.3709l96.0315 0l0 96.62988l-96.0315 0z" fill-rule="evenodd"/><path stroke="#000000" stroke-width="2.0" stroke-linejoin="round" stroke-linecap="butt" d="m95.97172 765.3709l96.0315 0l0 96.62988l-96.0315 0z" fill-rule="evenodd"/><path fill="#000000" d="m137.31754 820.88586l4.890625 -7.46875l-4.4375 -6.84375l3.390625 0l2.859375 4.59375l2.8125 -4.59375l3.359375 0l-4.453125 6.953125l4.890625 7.359375l-3.484375 0l-3.171875 -4.953125l-3.1875 4.953125l-3.46875 0z" fill-rule="nonzero"/><path fill="#ead1dc" d="m191.9487 765.3709l96.031494 0l0 96.62988l-96.031494 0z" fill-rule="evenodd"/><path stroke="#000000" stroke-width="2.0" stroke-linejoin="round" stroke-linecap="butt" d="m191.9487 765.3709l96.031494 0l0 96.62988l-96.031494 0z" fill-rule="evenodd"/><path fill="#000000" d="m233.29453 820.88586l4.890625 -7.46875l-4.4375 -6.84375l3.390625 0l2.859375 4.59375l2.8125 -4.59375l3.359375 0l-4.453125 6.953125l4.890625 7.359375l-3.484375 0l-3.171875 -4.953125l-3.1875 4.953125l-3.46875 0z" fill-rule="nonzero"/><path fill="#ffd966" d="m0 862.02606l287.9685 0l0 96.62988l-287.9685 0z" fill-rule="evenodd"/><path stroke="#000000" stroke-width="2.0" stroke-linejoin="round" stroke-linecap="butt" d="m0 862.02606l287.9685 0l0 96.62988l-287.9685 0z" fill-rule="evenodd"/><path fill="#000000" d="m124.67828 904.07477l2.5 0l0 7.859375q0 1.53125 -0.265625 2.359375q-0.375 1.09375 -1.328125 1.75q-0.953125 0.65625 -2.515625 0.65625q-1.84375 0 -2.84375 -1.03125q-0.984375 -1.03125 -0.984375 -3.015625l2.359375 -0.28125q0.046875 1.078125 0.3125 1.515625q0.40625 0.671875 1.234375 0.671875q0.84375 0 1.1875 -0.484375q0.34375 -0.484375 0.34375 -1.984375l0 -8.015625zm10.355835 9.546875l2.359375 0.390625q-0.453125 1.3125 -1.4375 2.0q-0.984375 0.671875 -2.46875 0.671875q-2.34375 0 -3.46875 -1.53125q-0.890625 -1.234375 -0.890625 -3.09375q0 -2.234375 1.171875 -3.5q1.171875 -1.265625 2.953125 -1.265625q2.0 0 3.15625 1.328125q1.171875 1.3125 1.109375 4.046875l-5.953125 0q0.03125 1.0625 0.578125 1.65625q0.546875 0.578125 1.375 0.578125q0.546875 0 0.921875 -0.296875q0.390625 -0.3125 0.59375 -0.984375zm0.125 -2.40625q-0.015625 -1.03125 -0.53125 -1.5625q-0.5 -0.546875 -1.234375 -0.546875q-0.78125 0 -1.28125 0.578125q-0.515625 0.5625 -0.5 1.53125l3.546875 0zm12.480835 5.265625l-2.375 0l0 -4.578125q0 -1.46875 -0.15625 -1.890625q-0.15625 -0.421875 -0.5 -0.65625q-0.34375 -0.25 -0.828125 -0.25q-0.609375 0 -1.109375 0.34375q-0.484375 0.34375 -0.671875 0.90625q-0.171875 0.546875 -0.171875 2.0625l0 4.0625l-2.375 0l0 -8.984375l2.203125 0l0 1.3125q1.171875 -1.515625 2.953125 -1.515625q0.796875 0 1.4375 0.28125q0.65625 0.28125 0.984375 0.734375q0.34375 0.4375 0.46875 1.0q0.140625 0.546875 0.140625 1.59375l0 5.578125zm2.1940918 0.59375l2.703125 0.328125q0.078125 0.46875 0.3125 0.65625q0.34375 0.25 1.078125 0.25q0.921875 0 1.390625 -0.28125q0.3125 -0.1875 0.46875 -0.59375q0.109375 -0.296875 0.109375 -1.09375l0 -1.3125q-1.0625 1.453125 -2.6875 1.453125q-1.8125 0 -2.859375 -1.53125q-0.84375 -1.203125 -0.84375 -3.015625q0 -2.25 1.09375 -3.4375q1.09375 -1.203125 2.703125 -1.203125q1.671875 0 2.75 1.46875l0 -1.265625l2.21875 0l0 8.0625q0 1.59375 -0.265625 2.375q-0.25 0.78125 -0.734375 1.234375q-0.46875 0.453125 -1.265625 0.703125q-0.78125 0.25 -1.984375 0.25q-2.296875 0 -3.25 -0.78125q-0.953125 -0.78125 -0.953125 -1.984375q0 -0.109375 0.015625 -0.28125zm2.109375 -5.265625q0 1.421875 0.546875 2.09375q0.5625 0.65625 1.375 0.65625q0.875 0 1.46875 -0.671875q0.609375 -0.6875 0.609375 -2.03125q0 -1.390625 -0.578125 -2.0625q-0.578125 -0.6875 -1.453125 -0.6875q-0.859375 0 -1.421875 0.671875q-0.546875 0.65625 -0.546875 2.03125zm10.459717 -1.578125l-2.15625 -0.390625q0.375 -1.296875 1.25 -1.921875q0.890625 -0.625 2.640625 -0.625q1.59375 0 2.375 0.375q0.78125 0.375 1.09375 0.953125q0.3125 0.578125 0.3125 2.125l-0.015625 2.78125q0 1.1875 0.109375 1.75q0.109375 0.5625 0.421875 1.203125l-2.34375 0q-0.09375 -0.234375 -0.234375 -0.703125q-0.0625 -0.203125 -0.078125 -0.28125q-0.609375 0.59375 -1.3125 0.890625q-0.6875 0.296875 -1.46875 0.296875q-1.390625 0 -2.1875 -0.75q-0.796875 -0.75 -0.796875 -1.90625q0 -0.765625 0.359375 -1.359375q0.359375 -0.59375 1.015625 -0.90625q0.65625 -0.328125 1.890625 -0.5625q1.671875 -0.3125 2.3125 -0.578125l0 -0.234375q0 -0.6875 -0.34375 -0.984375q-0.328125 -0.296875 -1.28125 -0.296875q-0.625 0 -0.984375 0.25q-0.359375 0.25 -0.578125 0.875zm3.1875 1.9375q-0.453125 0.15625 -1.453125 0.375q-0.984375 0.203125 -1.296875 0.40625q-0.453125 0.328125 -0.453125 0.828125q0 0.5 0.359375 0.875q0.375 0.359375 0.953125 0.359375q0.640625 0 1.234375 -0.421875q0.421875 -0.328125 0.5625 -0.796875q0.09375 -0.296875 0.09375 -1.15625l0 -0.46875z" fill-rule="nonzero"/><path fill="#ead1dc" d="m0 958.6839l96.031494 0l0 96.629944l-96.031494 0z" fill-rule="evenodd"/><path stroke="#000000" stroke-width="2.0" stroke-linejoin="round" stroke-linecap="butt" d="m0 958.6839l96.031494 0l0 96.629944l-96.031494 0z" fill-rule="evenodd"/><path fill="#000000" d="m41.345825 1014.19885l4.890625 -7.46875l-4.4375 -6.84375l3.390625 0l2.859375 4.59375l2.8125 -4.59375l3.359375 0l-4.453125 6.953125l4.890625 7.359375l-3.484375 0l-3.171875 -4.953125l-3.1875 4.953125l-3.46875 0z" fill-rule="nonzero"/><path fill="#ead1dc" d="m95.97172 958.6839l96.0315 0l0 96.629944l-96.0315 0z" fill-rule="evenodd"/><path stroke="#000000" stroke-width="2.0" stroke-linejoin="round" stroke-linecap="butt" d="m95.97172 958.6839l96.0315 0l0 96.629944l-96.0315 0z" fill-rule="evenodd"/><path fill="#000000" d="m137.31754 1014.19885l4.890625 -7.46875l-4.4375 -6.84375l3.390625 0l2.859375 4.59375l2.8125 -4.59375l3.359375 0l-4.453125 6.953125l4.890625 7.359375l-3.484375 0l-3.171875 -4.953125l-3.1875 4.953125l-3.46875 0z" fill-rule="nonzero"/><path fill="#ead1dc" d="m191.9487 958.6839l96.031494 0l0 96.629944l-96.031494 0z" fill-rule="evenodd"/><path stroke="#000000" stroke-width="2.0" stroke-linejoin="round" stroke-linecap="butt" d="m191.9487 958.6839l96.031494 0l0 96.629944l-96.031494 0z" fill-rule="evenodd"/><path fill="#000000" d="m233.29453 1014.19885l4.890625 -7.46875l-4.4375 -6.84375l3.390625 0l2.859375 4.59375l2.8125 -4.59375l3.359375 0l-4.453125 6.953125l4.890625 7.359375l-3.484375 0l-3.171875 -4.953125l-3.1875 4.953125l-3.46875 0z" fill-rule="nonzero"/><path fill="#ffd966" d="m0 1055.3418l287.9685 0l0 96.62988l-287.9685 0z" fill-rule="evenodd"/><path stroke="#000000" stroke-width="2.0" stroke-linejoin="round" stroke-linecap="butt" d="m0 1055.3418l287.9685 0l0 96.62988l-287.9685 0z" fill-rule="evenodd"/><path fill="#000000" d="m124.67828 1097.3905l2.5 0l0 7.859375q0 1.53125 -0.265625 2.359375q-0.375 1.09375 -1.328125 1.75q-0.953125 0.65625 -2.515625 0.65625q-1.84375 0 -2.84375 -1.03125q-0.984375 -1.03125 -0.984375 -3.015625l2.359375 -0.28125q0.046875 1.078125 0.3125 1.515625q0.40625 0.671875 1.234375 0.671875q0.84375 0 1.1875 -0.484375q0.34375 -0.484375 0.34375 -1.984375l0 -8.015625zm10.355835 9.546875l2.359375 0.390625q-0.453125 1.3125 -1.4375 2.0q-0.984375 0.671875 -2.46875 0.671875q-2.34375 0 -3.46875 -1.53125q-0.890625 -1.234375 -0.890625 -3.09375q0 -2.234375 1.171875 -3.5q1.171875 -1.265625 2.953125 -1.265625q2.0 0 3.15625 1.328125q1.171875 1.3125 1.109375 4.046875l-5.953125 0q0.03125 1.0625 0.578125 1.65625q0.546875 0.578125 1.375 0.578125q0.546875 0 0.921875 -0.296875q0.390625 -0.3125 0.59375 -0.984375zm0.125 -2.40625q-0.015625 -1.03125 -0.53125 -1.5625q-0.5 -0.546875 -1.234375 -0.546875q-0.78125 0 -1.28125 0.578125q-0.515625 0.5625 -0.5 1.53125l3.546875 0zm12.480835 5.265625l-2.375 0l0 -4.578125q0 -1.46875 -0.15625 -1.890625q-0.15625 -0.421875 -0.5 -0.65625q-0.34375 -0.25 -0.828125 -0.25q-0.609375 0 -1.109375 0.34375q-0.484375 0.34375 -0.671875 0.90625q-0.171875 0.546875 -0.171875 2.0625l0 4.0625l-2.375 0l0 -8.984375l2.203125 0l0 1.3125q1.171875 -1.515625 2.953125 -1.515625q0.796875 0 1.4375 0.28125q0.65625 0.28125 0.984375 0.734375q0.34375 0.4375 0.46875 1.0q0.140625 0.546875 0.140625 1.59375l0 5.578125zm2.1940918 0.59375l2.703125 0.328125q0.078125 0.46875 0.3125 0.65625q0.34375 0.25 1.078125 0.25q0.921875 0 1.390625 -0.28125q0.3125 -0.1875 0.46875 -0.59375q0.109375 -0.296875 0.109375 -1.09375l0 -1.3125q-1.0625 1.453125 -2.6875 1.453125q-1.8125 0 -2.859375 -1.53125q-0.84375 -1.203125 -0.84375 -3.015625q0 -2.25 1.09375 -3.4375q1.09375 -1.203125 2.703125 -1.203125q1.671875 0 2.75 1.46875l0 -1.265625l2.21875 0l0 8.0625q0 1.59375 -0.265625 2.375q-0.25 0.78125 -0.734375 1.234375q-0.46875 0.453125 -1.265625 0.703125q-0.78125 0.25 -1.984375 0.25q-2.296875 0 -3.25 -0.78125q-0.953125 -0.78125 -0.953125 -1.984375q0 -0.109375 0.015625 -0.28125zm2.109375 -5.265625q0 1.421875 0.546875 2.09375q0.5625 0.65625 1.375 0.65625q0.875 0 1.46875 -0.671875q0.609375 -0.6875 0.609375 -2.03125q0 -1.390625 -0.578125 -2.0625q-0.578125 -0.6875 -1.453125 -0.6875q-0.859375 0 -1.421875 0.671875q-0.546875 0.65625 -0.546875 2.03125zm10.459717 -1.578125l-2.15625 -0.390625q0.375 -1.296875 1.25 -1.921875q0.890625 -0.625 2.640625 -0.625q1.59375 0 2.375 0.375q0.78125 0.375 1.09375 0.953125q0.3125 0.578125 0.3125 2.125l-0.015625 2.78125q0 1.1875 0.109375 1.75q0.109375 0.5625 0.421875 1.203125l-2.34375 0q-0.09375 -0.234375 -0.234375 -0.703125q-0.0625 -0.203125 -0.078125 -0.28125q-0.609375 0.59375 -1.3125 0.890625q-0.6875 0.296875 -1.46875 0.296875q-1.390625 0 -2.1875 -0.75q-0.796875 -0.75 -0.796875 -1.90625q0 -0.765625 0.359375 -1.359375q0.359375 -0.59375 1.015625 -0.90625q0.65625 -0.328125 1.890625 -0.5625q1.671875 -0.3125 2.3125 -0.578125l0 -0.234375q0 -0.6875 -0.34375 -0.984375q-0.328125 -0.296875 -1.28125 -0.296875q-0.625 0 -0.984375 0.25q-0.359375 0.25 -0.578125 0.875zm3.1875 1.9375q-0.453125 0.15625 -1.453125 0.375q-0.984375 0.203125 -1.296875 0.40625q-0.453125 0.328125 -0.453125 0.828125q0 0.5 0.359375 0.875q0.375 0.359375 0.953125 0.359375q0.640625 0 1.234375 -0.421875q0.421875 -0.328125 0.5625 -0.796875q0.09375 -0.296875 0.09375 -1.15625l0 -0.46875z" fill-rule="nonzero"/><path fill="#ffd966" d="m287.9696 572.05566l287.9685 0l0 96.629944l-287.9685 0z" fill-rule="evenodd"/><path stroke="#000000" stroke-width="2.0" stroke-linejoin="round" stroke-linecap="butt" d="m287.9696 572.05566l287.9685 0l0 96.629944l-287.9685 0z" fill-rule="evenodd"/><path fill="#000000" d="m412.6479 614.1044l2.5 0l0 7.859375q0 1.53125 -0.265625 2.359375q-0.375 1.09375 -1.328125 1.75q-0.953125 0.65625 -2.515625 0.65625q-1.84375 0 -2.84375 -1.03125q-0.984375 -1.03125 -0.984375 -3.015625l2.359375 -0.28125q0.046875 1.078125 0.3125 1.515625q0.40625 0.671875 1.234375 0.671875q0.84375 0 1.1875 -0.484375q0.34375 -0.484375 0.34375 -1.984375l0 -8.015625zm10.355835 9.546875l2.359375 0.390625q-0.453125 1.3125 -1.4375 2.0q-0.984375 0.671875 -2.46875 0.671875q-2.34375 0 -3.46875 -1.53125q-0.890625 -1.234375 -0.890625 -3.09375q0 -2.234375 1.171875 -3.5q1.171875 -1.265625 2.953125 -1.265625q2.0 0 3.15625 1.328125q1.171875 1.3125 1.109375 4.046875l-5.953125 0q0.03125 1.0625 0.578125 1.65625q0.546875 0.578125 1.375 0.578125q0.546875 0 0.921875 -0.296875q0.390625 -0.3125 0.59375 -0.984375zm0.125 -2.40625q-0.015625 -1.03125 -0.53125 -1.5625q-0.5 -0.546875 -1.234375 -0.546875q-0.78125 0 -1.28125 0.578125q-0.515625 0.5625 -0.5 1.53125l3.546875 0zm12.480835 5.265625l-2.375 0l0 -4.578125q0 -1.46875 -0.15625 -1.890625q-0.15625 -0.421875 -0.5 -0.65625q-0.34375 -0.25 -0.828125 -0.25q-0.609375 0 -1.109375 0.34375q-0.484375 0.34375 -0.671875 0.90625q-0.171875 0.546875 -0.171875 2.0625l0 4.0625l-2.375 0l0 -8.984375l2.203125 0l0 1.3125q1.171875 -1.515625 2.953125 -1.515625q0.796875 0 1.4375 0.28125q0.65625 0.28125 0.984375 0.734375q0.34375 0.4375 0.46875 1.0q0.140625 0.546875 0.140625 1.59375l0 5.578125zm2.1940918 0.59375l2.703125 0.328125q0.078125 0.46875 0.3125 0.65625q0.34375 0.25 1.078125 0.25q0.921875 0 1.390625 -0.28125q0.3125 -0.1875 0.46875 -0.59375q0.109375 -0.296875 0.109375 -1.09375l0 -1.3125q-1.0625 1.453125 -2.6875 1.453125q-1.8125 0 -2.859375 -1.53125q-0.84375 -1.203125 -0.84375 -3.015625q0 -2.25 1.09375 -3.4375q1.09375 -1.203125 2.703125 -1.203125q1.671875 0 2.75 1.46875l0 -1.265625l2.21875 0l0 8.0625q0 1.59375 -0.265625 2.375q-0.25 0.78125 -0.734375 1.234375q-0.46875 0.453125 -1.265625 0.703125q-0.78125 0.25 -1.984375 0.25q-2.296875 0 -3.25 -0.78125q-0.953125 -0.78125 -0.953125 -1.984375q0 -0.109375 0.015625 -0.28125zm2.109375 -5.265625q0 1.421875 0.546875 2.09375q0.5625 0.65625 1.375 0.65625q0.875 0 1.46875 -0.671875q0.609375 -0.6875 0.609375 -2.03125q0 -1.390625 -0.578125 -2.0625q-0.578125 -0.6875 -1.453125 -0.6875q-0.859375 0 -1.421875 0.671875q-0.546875 0.65625 -0.546875 2.03125zm10.459717 -1.578125l-2.15625 -0.390625q0.375 -1.296875 1.25 -1.921875q0.890625 -0.625 2.640625 -0.625q1.59375 0 2.375 0.375q0.78125 0.375 1.09375 0.953125q0.3125 0.578125 0.3125 2.125l-0.015625 2.78125q0 1.1875 0.109375 1.75q0.109375 0.5625 0.421875 1.203125l-2.34375 0q-0.09375 -0.234375 -0.234375 -0.703125q-0.0625 -0.203125 -0.078125 -0.28125q-0.609375 0.59375 -1.3125 0.890625q-0.6875 0.296875 -1.46875 0.296875q-1.390625 0 -2.1875 -0.75q-0.796875 -0.75 -0.796875 -1.90625q0 -0.765625 0.359375 -1.359375q0.359375 -0.59375 1.015625 -0.90625q0.65625 -0.328125 1.890625 -0.5625q1.671875 -0.3125 2.3125 -0.578125l0 -0.234375q0 -0.6875 -0.34375 -0.984375q-0.328125 -0.296875 -1.28125 -0.296875q-0.625 0 -0.984375 0.25q-0.359375 0.25 -0.578125 0.875zm3.1875 1.9375q-0.453125 0.15625 -1.453125 0.375q-0.984375 0.203125 -1.296875 0.40625q-0.453125 0.328125 -0.453125 0.828125q0 0.5 0.359375 0.875q0.375 0.359375 0.953125 0.359375q0.640625 0 1.234375 -0.421875q0.421875 -0.328125 0.5625 -0.796875q0.09375 -0.296875 0.09375 -1.15625l0 -0.46875z" fill-rule="nonzero"/><path fill="#ead1dc" d="m287.9696 668.71356l96.031494 0l0 96.629944l-96.031494 0z" fill-rule="evenodd"/><path stroke="#000000" stroke-width="2.0" stroke-linejoin="round" stroke-linecap="butt" d="m287.9696 668.71356l96.031494 0l0 96.629944l-96.031494 0z" fill-rule="evenodd"/><path fill="#000000" d="m329.31543 724.2285l4.890625 -7.46875l-4.4375 -6.84375l3.390625 0l2.859375 4.59375l2.8125 -4.59375l3.359375 0l-4.453125 6.953125l4.890625 7.359375l-3.484375 0l-3.171875 -4.953125l-3.1875 4.953125l-3.46875 0z" fill-rule="nonzero"/><path fill="#ead1dc" d="m383.9413 668.71356l96.031494 0l0 96.629944l-96.031494 0z" fill-rule="evenodd"/><path stroke="#000000" stroke-width="2.0" stroke-linejoin="round" stroke-linecap="butt" d="m383.9413 668.71356l96.031494 0l0 96.629944l-96.031494 0z" fill-rule="evenodd"/><path fill="#000000" d="m425.28714 724.2285l4.890625 -7.46875l-4.4375 -6.84375l3.390625 0l2.859375 4.59375l2.8125 -4.59375l3.359375 0l-4.453125 6.953125l4.890625 7.359375l-3.484375 0l-3.171875 -4.953125l-3.1875 4.953125l-3.46875 0z" fill-rule="nonzero"/><path fill="#ead1dc" d="m479.9183 668.71356l96.03146 0l0 96.629944l-96.03146 0z" fill-rule="evenodd"/><path stroke="#000000" stroke-width="2.0" stroke-linejoin="round" stroke-linecap="butt" d="m479.9183 668.71356l96.03146 0l0 96.629944l-96.03146 0z" fill-rule="evenodd"/><path fill="#000000" d="m521.2641 724.2285l4.890625 -7.46875l-4.4375 -6.84375l3.390625 0l2.859375 4.59375l2.8125 -4.59375l3.359375 0l-4.453125 6.953125l4.890625 7.359375l-3.484375 0l-3.171875 -4.953125l-3.1875 4.953125l-3.46875 0z" fill-rule="nonzero"/><path fill="#ffd966" d="m287.9696 765.3687l287.9685 0l0 96.629944l-287.9685 0z" fill-rule="evenodd"/><path stroke="#000000" stroke-width="2.0" stroke-linejoin="round" stroke-linecap="butt" d="m287.9696 765.3687l287.9685 0l0 96.629944l-287.9685 0z" fill-rule="evenodd"/><path fill="#000000" d="m412.6479 807.4174l2.5 0l0 7.859375q0 1.53125 -0.265625 2.359375q-0.375 1.09375 -1.328125 1.75q-0.953125 0.65625 -2.515625 0.65625q-1.84375 0 -2.84375 -1.03125q-0.984375 -1.03125 -0.984375 -3.015625l2.359375 -0.28125q0.046875 1.078125 0.3125 1.515625q0.40625 0.671875 1.234375 0.671875q0.84375 0 1.1875 -0.484375q0.34375 -0.484375 0.34375 -1.984375l0 -8.015625zm10.355835 9.546875l2.359375 0.390625q-0.453125 1.3125 -1.4375 2.0q-0.984375 0.671875 -2.46875 0.671875q-2.34375 0 -3.46875 -1.53125q-0.890625 -1.234375 -0.890625 -3.09375q0 -2.234375 1.171875 -3.5q1.171875 -1.265625 2.953125 -1.265625q2.0 0 3.15625 1.328125q1.171875 1.3125 1.109375 4.046875l-5.953125 0q0.03125 1.0625 0.578125 1.65625q0.546875 0.578125 1.375 0.578125q0.546875 0 0.921875 -0.296875q0.390625 -0.3125 0.59375 -0.984375zm0.125 -2.40625q-0.015625 -1.03125 -0.53125 -1.5625q-0.5 -0.546875 -1.234375 -0.546875q-0.78125 0 -1.28125 0.578125q-0.515625 0.5625 -0.5 1.53125l3.546875 0zm12.480835 5.265625l-2.375 0l0 -4.578125q0 -1.46875 -0.15625 -1.890625q-0.15625 -0.421875 -0.5 -0.65625q-0.34375 -0.25 -0.828125 -0.25q-0.609375 0 -1.109375 0.34375q-0.484375 0.34375 -0.671875 0.90625q-0.171875 0.546875 -0.171875 2.0625l0 4.0625l-2.375 0l0 -8.984375l2.203125 0l0 1.3125q1.171875 -1.515625 2.953125 -1.515625q0.796875 0 1.4375 0.28125q0.65625 0.28125 0.984375 0.734375q0.34375 0.4375 0.46875 1.0q0.140625 0.546875 0.140625 1.59375l0 5.578125zm2.1940918 0.59375l2.703125 0.328125q0.078125 0.46875 0.3125 0.65625q0.34375 0.25 1.078125 0.25q0.921875 0 1.390625 -0.28125q0.3125 -0.1875 0.46875 -0.59375q0.109375 -0.296875 0.109375 -1.09375l0 -1.3125q-1.0625 1.453125 -2.6875 1.453125q-1.8125 0 -2.859375 -1.53125q-0.84375 -1.203125 -0.84375 -3.015625q0 -2.25 1.09375 -3.4375q1.09375 -1.203125 2.703125 -1.203125q1.671875 0 2.75 1.46875l0 -1.265625l2.21875 0l0 8.0625q0 1.59375 -0.265625 2.375q-0.25 0.78125 -0.734375 1.234375q-0.46875 0.453125 -1.265625 0.703125q-0.78125 0.25 -1.984375 0.25q-2.296875 0 -3.25 -0.78125q-0.953125 -0.78125 -0.953125 -1.984375q0 -0.109375 0.015625 -0.28125zm2.109375 -5.265625q0 1.421875 0.546875 2.09375q0.5625 0.65625 1.375 0.65625q0.875 0 1.46875 -0.671875q0.609375 -0.6875 0.609375 -2.03125q0 -1.390625 -0.578125 -2.0625q-0.578125 -0.6875 -1.453125 -0.6875q-0.859375 0 -1.421875 0.671875q-0.546875 0.65625 -0.546875 2.03125zm10.459717 -1.578125l-2.15625 -0.390625q0.375 -1.296875 1.25 -1.921875q0.890625 -0.625 2.640625 -0.625q1.59375 0 2.375 0.375q0.78125 0.375 1.09375 0.953125q0.3125 0.578125 0.3125 2.125l-0.015625 2.78125q0 1.1875 0.109375 1.75q0.109375 0.5625 0.421875 1.203125l-2.34375 0q-0.09375 -0.234375 -0.234375 -0.703125q-0.0625 -0.203125 -0.078125 -0.28125q-0.609375 0.59375 -1.3125 0.890625q-0.6875 0.296875 -1.46875 0.296875q-1.390625 0 -2.1875 -0.75q-0.796875 -0.75 -0.796875 -1.90625q0 -0.765625 0.359375 -1.359375q0.359375 -0.59375 1.015625 -0.90625q0.65625 -0.328125 1.890625 -0.5625q1.671875 -0.3125 2.3125 -0.578125l0 -0.234375q0 -0.6875 -0.34375 -0.984375q-0.328125 -0.296875 -1.28125 -0.296875q-0.625 0 -0.984375 0.25q-0.359375 0.25 -0.578125 0.875zm3.1875 1.9375q-0.453125 0.15625 -1.453125 0.375q-0.984375 0.203125 -1.296875 0.40625q-0.453125 0.328125 -0.453125 0.828125q0 0.5 0.359375 0.875q0.375 0.359375 0.953125 0.359375q0.640625 0 1.234375 -0.421875q0.421875 -0.328125 0.5625 -0.796875q0.09375 -0.296875 0.09375 -1.15625l0 -0.46875z" fill-rule="nonzero"/><path fill="#ead1dc" d="m287.9696 862.0266l96.031494 0l0 96.62988l-96.031494 0z" fill-rule="evenodd"/><path stroke="#000000" stroke-width="2.0" stroke-linejoin="round" stroke-linecap="butt" d="m287.9696 862.0266l96.031494 0l0 96.62988l-96.031494 0z" fill-rule="evenodd"/><path fill="#000000" d="m329.31543 917.54156l4.890625 -7.46875l-4.4375 -6.84375l3.390625 0l2.859375 4.59375l2.8125 -4.59375l3.359375 0l-4.453125 6.953125l4.890625 7.359375l-3.484375 0l-3.171875 -4.953125l-3.1875 4.953125l-3.46875 0z" fill-rule="nonzero"/><path fill="#ead1dc" d="m383.9413 862.0266l96.031494 0l0 96.62988l-96.031494 0z" fill-rule="evenodd"/><path stroke="#000000" stroke-width="2.0" stroke-linejoin="round" stroke-linecap="butt" d="m383.9413 862.0266l96.031494 0l0 96.62988l-96.031494 0z" fill-rule="evenodd"/><path fill="#000000" d="m425.28714 917.54156l4.890625 -7.46875l-4.4375 -6.84375l3.390625 0l2.859375 4.59375l2.8125 -4.59375l3.359375 0l-4.453125 6.953125l4.890625 7.359375l-3.484375 0l-3.171875 -4.953125l-3.1875 4.953125l-3.46875 0z" fill-rule="nonzero"/><path fill="#ead1dc" d="m479.9183 862.0266l96.03146 0l0 96.62988l-96.03146 0z" fill-rule="evenodd"/><path stroke="#000000" stroke-width="2.0" stroke-linejoin="round" stroke-linecap="butt" d="m479.9183 862.0266l96.03146 0l0 96.62988l-96.03146 0z" fill-rule="evenodd"/><path fill="#000000" d="m521.2641 917.54156l4.890625 -7.46875l-4.4375 -6.84375l3.390625 0l2.859375 4.59375l2.8125 -4.59375l3.359375 0l-4.453125 6.953125l4.890625 7.359375l-3.484375 0l-3.171875 -4.953125l-3.1875 4.953125l-3.46875 0z" fill-rule="nonzero"/><path fill="#ffd966" d="m287.9696 958.68445l287.9685 0l0 96.630005l-287.9685 0z" fill-rule="evenodd"/><path stroke="#000000" stroke-width="2.0" stroke-linejoin="round" stroke-linecap="butt" d="m287.9696 958.68445l287.9685 0l0 96.630005l-287.9685 0z" fill-rule="evenodd"/><path fill="#000000" d="m412.6479 1000.7332l2.5 0l0 7.859375q0 1.53125 -0.265625 2.359375q-0.375 1.09375 -1.328125 1.75q-0.953125 0.65625 -2.515625 0.65625q-1.84375 0 -2.84375 -1.03125q-0.984375 -1.03125 -0.984375 -3.015625l2.359375 -0.28125q0.046875 1.078125 0.3125 1.515625q0.40625 0.671875 1.234375 0.671875q0.84375 0 1.1875 -0.484375q0.34375 -0.484375 0.34375 -1.984375l0 -8.015625zm10.355835 9.546875l2.359375 0.390625q-0.453125 1.3125 -1.4375 2.0q-0.984375 0.671875 -2.46875 0.671875q-2.34375 0 -3.46875 -1.53125q-0.890625 -1.234375 -0.890625 -3.09375q0 -2.234375 1.171875 -3.5q1.171875 -1.265625 2.953125 -1.265625q2.0 0 3.15625 1.328125q1.171875 1.3125 1.109375 4.046875l-5.953125 0q0.03125 1.0625 0.578125 1.65625q0.546875 0.578125 1.375 0.578125q0.546875 0 0.921875 -0.296875q0.390625 -0.3125 0.59375 -0.984375zm0.125 -2.40625q-0.015625 -1.03125 -0.53125 -1.5625q-0.5 -0.546875 -1.234375 -0.546875q-0.78125 0 -1.28125 0.578125q-0.515625 0.5625 -0.5 1.53125l3.546875 0zm12.480835 5.265625l-2.375 0l0 -4.578125q0 -1.46875 -0.15625 -1.890625q-0.15625 -0.421875 -0.5 -0.65625q-0.34375 -0.25 -0.828125 -0.25q-0.609375 0 -1.109375 0.34375q-0.484375 0.34375 -0.671875 0.90625q-0.171875 0.546875 -0.171875 2.0625l0 4.0625l-2.375 0l0 -8.984375l2.203125 0l0 1.3125q1.171875 -1.515625 2.953125 -1.515625q0.796875 0 1.4375 0.28125q0.65625 0.28125 0.984375 0.734375q0.34375 0.4375 0.46875 1.0q0.140625 0.546875 0.140625 1.59375l0 5.578125zm2.1940918 0.59375l2.703125 0.328125q0.078125 0.46875 0.3125 0.65625q0.34375 0.25 1.078125 0.25q0.921875 0 1.390625 -0.28125q0.3125 -0.1875 0.46875 -0.59375q0.109375 -0.296875 0.109375 -1.09375l0 -1.3125q-1.0625 1.453125 -2.6875 1.453125q-1.8125 0 -2.859375 -1.53125q-0.84375 -1.203125 -0.84375 -3.015625q0 -2.25 1.09375 -3.4375q1.09375 -1.203125 2.703125 -1.203125q1.671875 0 2.75 1.46875l0 -1.265625l2.21875 0l0 8.0625q0 1.59375 -0.265625 2.375q-0.25 0.78125 -0.734375 1.234375q-0.46875 0.453125 -1.265625 0.703125q-0.78125 0.25 -1.984375 0.25q-2.296875 0 -3.25 -0.78125q-0.953125 -0.78125 -0.953125 -1.984375q0 -0.109375 0.015625 -0.28125zm2.109375 -5.265625q0 1.421875 0.546875 2.09375q0.5625 0.65625 1.375 0.65625q0.875 0 1.46875 -0.671875q0.609375 -0.6875 0.609375 -2.03125q0 -1.390625 -0.578125 -2.0625q-0.578125 -0.6875 -1.453125 -0.6875q-0.859375 0 -1.421875 0.671875q-0.546875 0.65625 -0.546875 2.03125zm10.459717 -1.578125l-2.15625 -0.390625q0.375 -1.296875 1.25 -1.921875q0.890625 -0.625 2.640625 -0.625q1.59375 0 2.375 0.375q0.78125 0.375 1.09375 0.953125q0.3125 0.578125 0.3125 2.125l-0.015625 2.78125q0 1.1875 0.109375 1.75q0.109375 0.5625 0.421875 1.203125l-2.34375 0q-0.09375 -0.234375 -0.234375 -0.703125q-0.0625 -0.203125 -0.078125 -0.28125q-0.609375 0.59375 -1.3125 0.890625q-0.6875 0.296875 -1.46875 0.296875q-1.390625 0 -2.1875 -0.75q-0.796875 -0.75 -0.796875 -1.90625q0 -0.765625 0.359375 -1.359375q0.359375 -0.59375 1.015625 -0.90625q0.65625 -0.328125 1.890625 -0.5625q1.671875 -0.3125 2.3125 -0.578125l0 -0.234375q0 -0.6875 -0.34375 -0.984375q-0.328125 -0.296875 -1.28125 -0.296875q-0.625 0 -0.984375 0.25q-0.359375 0.25 -0.578125 0.875zm3.1875 1.9375q-0.453125 0.15625 -1.453125 0.375q-0.984375 0.203125 -1.296875 0.40625q-0.453125 0.328125 -0.453125 0.828125q0 0.5 0.359375 0.875q0.375 0.359375 0.953125 0.359375q0.640625 0 1.234375 -0.421875q0.421875 -0.328125 0.5625 -0.796875q0.09375 -0.296875 0.09375 -1.15625l0 -0.46875z" fill-rule="nonzero"/><path fill="#ead1dc" d="m287.9696 1055.3412l96.031494 0l0 96.630005l-96.031494 0z" fill-rule="evenodd"/><path stroke="#000000" stroke-width="2.0" stroke-linejoin="round" stroke-linecap="butt" d="m287.9696 1055.3412l96.031494 0l0 96.630005l-96.031494 0z" fill-rule="evenodd"/><path fill="#000000" d="m329.31543 1110.8562l4.890625 -7.46875l-4.4375 -6.84375l3.390625 0l2.859375 4.59375l2.8125 -4.59375l3.359375 0l-4.453125 6.953125l4.890625 7.359375l-3.484375 0l-3.171875 -4.953125l-3.1875 4.953125l-3.46875 0z" fill-rule="nonzero"/><path fill="#ead1dc" d="m383.9927 1055.3412l96.031494 0l0 96.630005l-96.031494 0z" fill-rule="evenodd"/><path stroke="#000000" stroke-width="2.0" stroke-linejoin="round" stroke-linecap="butt" d="m383.9927 1055.3412l96.031494 0l0 96.630005l-96.031494 0z" fill-rule="evenodd"/><path fill="#000000" d="m425.33853 1110.8562l4.890625 -7.46875l-4.4375 -6.84375l3.390625 0l2.859375 4.59375l2.8125 -4.59375l3.359375 0l-4.453125 6.953125l4.890625 7.359375l-3.484375 0l-3.171875 -4.953125l-3.1875 4.953125l-3.46875 0z" fill-rule="nonzero"/><path fill="#ead1dc" d="m479.96857 1055.3412l96.031494 0l0 96.630005l-96.031494 0z" fill-rule="evenodd"/><path stroke="#000000" stroke-width="2.0" stroke-linejoin="round" stroke-linecap="butt" d="m479.96857 1055.3412l96.031494 0l0 96.630005l-96.031494 0z" fill-rule="evenodd"/><path fill="#000000" d="m521.3144 1110.8562l4.890625 -7.46875l-4.4375 -6.84375l3.390625 0l2.859375 4.59375l2.8125 -4.59375l3.359375 0l-4.453125 6.953125l4.890625 7.359375l-3.484375 0l-3.171875 -4.953125l-3.1875 4.953125l-3.46875 0z" fill-rule="nonzero"/><path fill="#ead1dc" d="m0 -3.9448824l96.031494 0l0 96.62992l-96.031494 0z" fill-rule="evenodd"/><path stroke="#000000" stroke-width="2.0" stroke-linejoin="round" stroke-linecap="butt" d="m0 -3.9448824l96.031494 0l0 96.62992l-96.031494 0z" fill-rule="evenodd"/><path fill="#000000" d="m41.345825 51.57008l4.890625 -7.46875l-4.4375 -6.84375l3.390625 0l2.859375 4.59375l2.8125 -4.59375l3.359375 0l-4.453125 6.953125l4.890625 7.359375l-3.484375 0l-3.171875 -4.953125l-3.1875 4.953125l-3.46875 0z" fill-rule="nonzero"/><path fill="#ead1dc" d="m95.97435 -3.9448824l96.031494 0l0 96.62992l-96.031494 0z" fill-rule="evenodd"/><path stroke="#000000" stroke-width="2.0" stroke-linejoin="round" stroke-linecap="butt" d="m95.97435 -3.9448824l96.031494 0l0 96.62992l-96.031494 0z" fill-rule="evenodd"/><path fill="#000000" d="m137.32018 51.57008l4.890625 -7.46875l-4.4375 -6.84375l3.390625 0l2.859375 4.59375l2.8125 -4.59375l3.359375 0l-4.453125 6.953125l4.890625 7.359375l-3.484375 0l-3.171875 -4.953125l-3.1875 4.953125l-3.46875 0z" fill-rule="nonzero"/><path fill="#ead1dc" d="m191.9487 -3.9448824l96.031494 0l0 96.62992l-96.031494 0z" fill-rule="evenodd"/><path stroke="#000000" stroke-width="2.0" stroke-linejoin="round" stroke-linecap="butt" d="m191.9487 -3.9448824l96.031494 0l0 96.62992l-96.031494 0z" fill-rule="evenodd"/><path fill="#000000" d="m233.29453 51.57008l4.890625 -7.46875l-4.4375 -6.84375l3.390625 0l2.859375 4.59375l2.8125 -4.59375l3.359375 0l-4.453125 6.953125l4.890625 7.359375l-3.484375 0l-3.171875 -4.953125l-3.1875 4.953125l-3.46875 0z" fill-rule="nonzero"/><path fill="#ffd966" d="m0 92.713005l287.9685 0l0 96.62992l-287.9685 0z" fill-rule="evenodd"/><path stroke="#000000" stroke-width="2.0" stroke-linejoin="round" stroke-linecap="butt" d="m0 92.713005l287.9685 0l0 96.62992l-287.9685 0z" fill-rule="evenodd"/><path fill="#000000" d="m124.67828 134.76172l2.5 0l0 7.859375q0 1.53125 -0.265625 2.359375q-0.375 1.09375 -1.328125 1.75q-0.953125 0.65625 -2.515625 0.65625q-1.84375 0 -2.84375 -1.03125q-0.984375 -1.03125 -0.984375 -3.015625l2.359375 -0.28125q0.046875 1.078125 0.3125 1.515625q0.40625 0.671875 1.234375 0.671875q0.84375 0 1.1875 -0.484375q0.34375 -0.484375 0.34375 -1.984375l0 -8.015625zm10.355835 9.546875l2.359375 0.390625q-0.453125 1.3125 -1.4375 2.0q-0.984375 0.671875 -2.46875 0.671875q-2.34375 0 -3.46875 -1.53125q-0.890625 -1.234375 -0.890625 -3.09375q0 -2.234375 1.171875 -3.5q1.171875 -1.265625 2.953125 -1.265625q2.0 0 3.15625 1.328125q1.171875 1.3125 1.109375 4.046875l-5.953125 0q0.03125 1.0625 0.578125 1.65625q0.546875 0.578125 1.375 0.578125q0.546875 0 0.921875 -0.296875q0.390625 -0.3125 0.59375 -0.984375zm0.125 -2.40625q-0.015625 -1.03125 -0.53125 -1.5625q-0.5 -0.546875 -1.234375 -0.546875q-0.78125 0 -1.28125 0.578125q-0.515625 0.5625 -0.5 1.53125l3.546875 0zm12.480835 5.265625l-2.375 0l0 -4.578125q0 -1.46875 -0.15625 -1.890625q-0.15625 -0.421875 -0.5 -0.65625q-0.34375 -0.25 -0.828125 -0.25q-0.609375 0 -1.109375 0.34375q-0.484375 0.34375 -0.671875 0.90625q-0.171875 0.546875 -0.171875 2.0625l0 4.0625l-2.375 0l0 -8.984375l2.203125 0l0 1.3125q1.171875 -1.515625 2.953125 -1.515625q0.796875 0 1.4375 0.28125q0.65625 0.28125 0.984375 0.734375q0.34375 0.4375 0.46875 1.0q0.140625 0.546875 0.140625 1.59375l0 5.578125zm2.1940918 0.59375l2.703125 0.328125q0.078125 0.46875 0.3125 0.65625q0.34375 0.25 1.078125 0.25q0.921875 0 1.390625 -0.28125q0.3125 -0.1875 0.46875 -0.59375q0.109375 -0.296875 0.109375 -1.09375l0 -1.3125q-1.0625 1.453125 -2.6875 1.453125q-1.8125 0 -2.859375 -1.53125q-0.84375 -1.203125 -0.84375 -3.015625q0 -2.25 1.09375 -3.4375q1.09375 -1.203125 2.703125 -1.203125q1.671875 0 2.75 1.46875l0 -1.265625l2.21875 0l0 8.0625q0 1.59375 -0.265625 2.375q-0.25 0.78125 -0.734375 1.234375q-0.46875 0.453125 -1.265625 0.703125q-0.78125 0.25 -1.984375 0.25q-2.296875 0 -3.25 -0.78125q-0.953125 -0.78125 -0.953125 -1.984375q0 -0.109375 0.015625 -0.28125zm2.109375 -5.265625q0 1.421875 0.546875 2.09375q0.5625 0.65625 1.375 0.65625q0.875 0 1.46875 -0.671875q0.609375 -0.6875 0.609375 -2.03125q0 -1.390625 -0.578125 -2.0625q-0.578125 -0.6875 -1.453125 -0.6875q-0.859375 0 -1.421875 0.671875q-0.546875 0.65625 -0.546875 2.03125zm10.459717 -1.578125l-2.15625 -0.390625q0.375 -1.296875 1.25 -1.921875q0.890625 -0.625 2.640625 -0.625q1.59375 0 2.375 0.375q0.78125 0.375 1.09375 0.953125q0.3125 0.578125 0.3125 2.125l-0.015625 2.78125q0 1.1875 0.109375 1.75q0.109375 0.5625 0.421875 1.203125l-2.34375 0q-0.09375 -0.234375 -0.234375 -0.703125q-0.0625 -0.203125 -0.078125 -0.28125q-0.609375 0.59375 -1.3125 0.890625q-0.6875 0.296875 -1.46875 0.296875q-1.390625 0 -2.1875 -0.75q-0.796875 -0.75 -0.796875 -1.90625q0 -0.765625 0.359375 -1.359375q0.359375 -0.59375 1.015625 -0.90625q0.65625 -0.328125 1.890625 -0.5625q1.671875 -0.3125 2.3125 -0.578125l0 -0.234375q0 -0.6875 -0.34375 -0.984375q-0.328125 -0.296875 -1.28125 -0.296875q-0.625 0 -0.984375 0.25q-0.359375 0.25 -0.578125 0.875zm3.1875 1.9375q-0.453125 0.15625 -1.453125 0.375q-0.984375 0.203125 -1.296875 0.40625q-0.453125 0.328125 -0.453125 0.828125q0 0.5 0.359375 0.875q0.375 0.359375 0.953125 0.359375q0.640625 0 1.234375 -0.421875q0.421875 -0.328125 0.5625 -0.796875q0.09375 -0.296875 0.09375 -1.15625l0 -0.46875z" fill-rule="nonzero"/><path fill="#ead1dc" d="m0 189.37088l96.031494 0l0 96.62991l-96.031494 0z" fill-rule="evenodd"/><path stroke="#000000" stroke-width="2.0" stroke-linejoin="round" stroke-linecap="butt" d="m0 189.37088l96.031494 0l0 96.62991l-96.031494 0z" fill-rule="evenodd"/><path fill="#000000" d="m41.345825 244.88585l4.890625 -7.46875l-4.4375 -6.84375l3.390625 0l2.859375 4.59375l2.8125 -4.59375l3.359375 0l-4.453125 6.953125l4.890625 7.359375l-3.484375 0l-3.171875 -4.953125l-3.1875 4.953125l-3.46875 0z" fill-rule="nonzero"/><path fill="#ead1dc" d="m95.97172 189.37088l96.0315 0l0 96.62991l-96.0315 0z" fill-rule="evenodd"/><path stroke="#000000" stroke-width="2.0" stroke-linejoin="round" stroke-linecap="butt" d="m95.97172 189.37088l96.0315 0l0 96.62991l-96.0315 0z" fill-rule="evenodd"/><path fill="#000000" d="m137.31754 244.88585l4.890625 -7.46875l-4.4375 -6.84375l3.390625 0l2.859375 4.59375l2.8125 -4.59375l3.359375 0l-4.453125 6.953125l4.890625 7.359375l-3.484375 0l-3.171875 -4.953125l-3.1875 4.953125l-3.46875 0z" fill-rule="nonzero"/><path fill="#ead1dc" d="m191.9487 189.37088l96.031494 0l0 96.62991l-96.031494 0z" fill-rule="evenodd"/><path stroke="#000000" stroke-width="2.0" stroke-linejoin="round" stroke-linecap="butt" d="m191.9487 189.37088l96.031494 0l0 96.62991l-96.031494 0z" fill-rule="evenodd"/><path fill="#000000" d="m233.29453 244.88585l4.890625 -7.46875l-4.4375 -6.84375l3.390625 0l2.859375 4.59375l2.8125 -4.59375l3.359375 0l-4.453125 6.953125l4.890625 7.359375l-3.484375 0l-3.171875 -4.953125l-3.1875 4.953125l-3.46875 0z" fill-rule="nonzero"/><path fill="#ffd966" d="m0 286.02603l287.9685 0l0 96.62991l-287.9685 0z" fill-rule="evenodd"/><path stroke="#000000" stroke-width="2.0" stroke-linejoin="round" stroke-linecap="butt" d="m0 286.02603l287.9685 0l0 96.62991l-287.9685 0z" fill-rule="evenodd"/><path fill="#000000" d="m124.67828 328.07474l2.5 0l0 7.859375q0 1.53125 -0.265625 2.359375q-0.375 1.09375 -1.328125 1.75q-0.953125 0.65625 -2.515625 0.65625q-1.84375 0 -2.84375 -1.03125q-0.984375 -1.03125 -0.984375 -3.015625l2.359375 -0.28125q0.046875 1.078125 0.3125 1.515625q0.40625 0.671875 1.234375 0.671875q0.84375 0 1.1875 -0.484375q0.34375 -0.484375 0.34375 -1.984375l0 -8.015625zm10.355835 9.546875l2.359375 0.390625q-0.453125 1.3125 -1.4375 2.0q-0.984375 0.671875 -2.46875 0.671875q-2.34375 0 -3.46875 -1.53125q-0.890625 -1.234375 -0.890625 -3.09375q0 -2.234375 1.171875 -3.5q1.171875 -1.265625 2.953125 -1.265625q2.0 0 3.15625 1.328125q1.171875 1.3125 1.109375 4.046875l-5.953125 0q0.03125 1.0625 0.578125 1.65625q0.546875 0.578125 1.375 0.578125q0.546875 0 0.921875 -0.296875q0.390625 -0.3125 0.59375 -0.984375zm0.125 -2.40625q-0.015625 -1.03125 -0.53125 -1.5625q-0.5 -0.546875 -1.234375 -0.546875q-0.78125 0 -1.28125 0.578125q-0.515625 0.5625 -0.5 1.53125l3.546875 0zm12.480835 5.265625l-2.375 0l0 -4.578125q0 -1.46875 -0.15625 -1.890625q-0.15625 -0.421875 -0.5 -0.65625q-0.34375 -0.25 -0.828125 -0.25q-0.609375 0 -1.109375 0.34375q-0.484375 0.34375 -0.671875 0.90625q-0.171875 0.546875 -0.171875 2.0625l0 4.0625l-2.375 0l0 -8.984375l2.203125 0l0 1.3125q1.171875 -1.515625 2.953125 -1.515625q0.796875 0 1.4375 0.28125q0.65625 0.28125 0.984375 0.734375q0.34375 0.4375 0.46875 1.0q0.140625 0.546875 0.140625 1.59375l0 5.578125zm2.1940918 0.59375l2.703125 0.328125q0.078125 0.46875 0.3125 0.65625q0.34375 0.25 1.078125 0.25q0.921875 0 1.390625 -0.28125q0.3125 -0.1875 0.46875 -0.59375q0.109375 -0.296875 0.109375 -1.09375l0 -1.3125q-1.0625 1.453125 -2.6875 1.453125q-1.8125 0 -2.859375 -1.53125q-0.84375 -1.203125 -0.84375 -3.015625q0 -2.25 1.09375 -3.4375q1.09375 -1.203125 2.703125 -1.203125q1.671875 0 2.75 1.46875l0 -1.265625l2.21875 0l0 8.0625q0 1.59375 -0.265625 2.375q-0.25 0.78125 -0.734375 1.234375q-0.46875 0.453125 -1.265625 0.703125q-0.78125 0.25 -1.984375 0.25q-2.296875 0 -3.25 -0.78125q-0.953125 -0.78125 -0.953125 -1.984375q0 -0.109375 0.015625 -0.28125zm2.109375 -5.265625q0 1.421875 0.546875 2.09375q0.5625 0.65625 1.375 0.65625q0.875 0 1.46875 -0.671875q0.609375 -0.6875 0.609375 -2.03125q0 -1.390625 -0.578125 -2.0625q-0.578125 -0.6875 -1.453125 -0.6875q-0.859375 0 -1.421875 0.671875q-0.546875 0.65625 -0.546875 2.03125zm10.459717 -1.578125l-2.15625 -0.390625q0.375 -1.296875 1.25 -1.921875q0.890625 -0.625 2.640625 -0.625q1.59375 0 2.375 0.375q0.78125 0.375 1.09375 0.953125q0.3125 0.578125 0.3125 2.125l-0.015625 2.78125q0 1.1875 0.109375 1.75q0.109375 0.5625 0.421875 1.203125l-2.34375 0q-0.09375 -0.234375 -0.234375 -0.703125q-0.0625 -0.203125 -0.078125 -0.28125q-0.609375 0.59375 -1.3125 0.890625q-0.6875 0.296875 -1.46875 0.296875q-1.390625 0 -2.1875 -0.75q-0.796875 -0.75 -0.796875 -1.90625q0 -0.765625 0.359375 -1.359375q0.359375 -0.59375 1.015625 -0.90625q0.65625 -0.328125 1.890625 -0.5625q1.671875 -0.3125 2.3125 -0.578125l0 -0.234375q0 -0.6875 -0.34375 -0.984375q-0.328125 -0.296875 -1.28125 -0.296875q-0.625 0 -0.984375 0.25q-0.359375 0.25 -0.578125 0.875zm3.1875 1.9375q-0.453125 0.15625 -1.453125 0.375q-0.984375 0.203125 -1.296875 0.40625q-0.453125 0.328125 -0.453125 0.828125q0 0.5 0.359375 0.875q0.375 0.359375 0.953125 0.359375q0.640625 0 1.234375 -0.421875q0.421875 -0.328125 0.5625 -0.796875q0.09375 -0.296875 0.09375 -1.15625l0 -0.46875z" fill-rule="nonzero"/><path fill="#ead1dc" d="m0 382.68393l96.031494 0l0 96.62991l-96.031494 0z" fill-rule="evenodd"/><path stroke="#000000" stroke-width="2.0" stroke-linejoin="round" stroke-linecap="butt" d="m0 382.68393l96.031494 0l0 96.62991l-96.031494 0z" fill-rule="evenodd"/><path fill="#000000" d="m41.345825 438.19888l4.890625 -7.46875l-4.4375 -6.84375l3.390625 0l2.859375 4.59375l2.8125 -4.59375l3.359375 0l-4.453125 6.953125l4.890625 7.359375l-3.484375 0l-3.171875 -4.953125l-3.1875 4.953125l-3.46875 0z" fill-rule="nonzero"/><path fill="#ead1dc" d="m95.97172 382.68393l96.0315 0l0 96.62991l-96.0315 0z" fill-rule="evenodd"/><path stroke="#000000" stroke-width="2.0" stroke-linejoin="round" stroke-linecap="butt" d="m95.97172 382.68393l96.0315 0l0 96.62991l-96.0315 0z" fill-rule="evenodd"/><path fill="#000000" d="m137.31754 438.19888l4.890625 -7.46875l-4.4375 -6.84375l3.390625 0l2.859375 4.59375l2.8125 -4.59375l3.359375 0l-4.453125 6.953125l4.890625 7.359375l-3.484375 0l-3.171875 -4.953125l-3.1875 4.953125l-3.46875 0z" fill-rule="nonzero"/><path fill="#ead1dc" d="m191.9487 382.68393l96.031494 0l0 96.62991l-96.031494 0z" fill-rule="evenodd"/><path stroke="#000000" stroke-width="2.0" stroke-linejoin="round" stroke-linecap="butt" d="m191.9487 382.68393l96.031494 0l0 96.62991l-96.031494 0z" fill-rule="evenodd"/><path fill="#000000" d="m233.29453 438.19888l4.890625 -7.46875l-4.4375 -6.84375l3.390625 0l2.859375 4.59375l2.8125 -4.59375l3.359375 0l-4.453125 6.953125l4.890625 7.359375l-3.484375 0l-3.171875 -4.953125l-3.1875 4.953125l-3.46875 0z" fill-rule="nonzero"/><path fill="#ffd966" d="m0 479.3418l287.9685 0l0 96.629944l-287.9685 0z" fill-rule="evenodd"/><path stroke="#000000" stroke-width="2.0" stroke-linejoin="round" stroke-linecap="butt" d="m0 479.3418l287.9685 0l0 96.629944l-287.9685 0z" fill-rule="evenodd"/><path fill="#000000" d="m124.67828 521.3905l2.5 0l0 7.859375q0 1.53125 -0.265625 2.359375q-0.375 1.09375 -1.328125 1.75q-0.953125 0.65625 -2.515625 0.65625q-1.84375 0 -2.84375 -1.03125q-0.984375 -1.03125 -0.984375 -3.015625l2.359375 -0.28125q0.046875 1.078125 0.3125 1.515625q0.40625 0.671875 1.234375 0.671875q0.84375 0 1.1875 -0.484375q0.34375 -0.484375 0.34375 -1.984375l0 -8.015625zm10.355835 9.546875l2.359375 0.390625q-0.453125 1.3125 -1.4375 2.0q-0.984375 0.671875 -2.46875 0.671875q-2.34375 0 -3.46875 -1.53125q-0.890625 -1.234375 -0.890625 -3.09375q0 -2.234375 1.171875 -3.5q1.171875 -1.265625 2.953125 -1.265625q2.0 0 3.15625 1.328125q1.171875 1.3125 1.109375 4.046875l-5.953125 0q0.03125 1.0625 0.578125 1.65625q0.546875 0.578125 1.375 0.578125q0.546875 0 0.921875 -0.296875q0.390625 -0.3125 0.59375 -0.984375zm0.125 -2.40625q-0.015625 -1.03125 -0.53125 -1.5625q-0.5 -0.546875 -1.234375 -0.546875q-0.78125 0 -1.28125 0.578125q-0.515625 0.5625 -0.5 1.53125l3.546875 0zm12.480835 5.265625l-2.375 0l0 -4.578125q0 -1.46875 -0.15625 -1.890625q-0.15625 -0.421875 -0.5 -0.65625q-0.34375 -0.25 -0.828125 -0.25q-0.609375 0 -1.109375 0.34375q-0.484375 0.34375 -0.671875 0.90625q-0.171875 0.546875 -0.171875 2.0625l0 4.0625l-2.375 0l0 -8.984375l2.203125 0l0 1.3125q1.171875 -1.515625 2.953125 -1.515625q0.796875 0 1.4375 0.28125q0.65625 0.28125 0.984375 0.734375q0.34375 0.4375 0.46875 1.0q0.140625 0.546875 0.140625 1.59375l0 5.578125zm2.1940918 0.59375l2.703125 0.328125q0.078125 0.46875 0.3125 0.65625q0.34375 0.25 1.078125 0.25q0.921875 0 1.390625 -0.28125q0.3125 -0.1875 0.46875 -0.59375q0.109375 -0.296875 0.109375 -1.09375l0 -1.3125q-1.0625 1.453125 -2.6875 1.453125q-1.8125 0 -2.859375 -1.53125q-0.84375 -1.203125 -0.84375 -3.015625q0 -2.25 1.09375 -3.4375q1.09375 -1.203125 2.703125 -1.203125q1.671875 0 2.75 1.46875l0 -1.265625l2.21875 0l0 8.0625q0 1.59375 -0.265625 2.375q-0.25 0.78125 -0.734375 1.234375q-0.46875 0.453125 -1.265625 0.703125q-0.78125 0.25 -1.984375 0.25q-2.296875 0 -3.25 -0.78125q-0.953125 -0.78125 -0.953125 -1.984375q0 -0.109375 0.015625 -0.28125zm2.109375 -5.265625q0 1.421875 0.546875 2.09375q0.5625 0.65625 1.375 0.65625q0.875 0 1.46875 -0.671875q0.609375 -0.6875 0.609375 -2.03125q0 -1.390625 -0.578125 -2.0625q-0.578125 -0.6875 -1.453125 -0.6875q-0.859375 0 -1.421875 0.671875q-0.546875 0.65625 -0.546875 2.03125zm10.459717 -1.578125l-2.15625 -0.390625q0.375 -1.296875 1.25 -1.921875q0.890625 -0.625 2.640625 -0.625q1.59375 0 2.375 0.375q0.78125 0.375 1.09375 0.953125q0.3125 0.578125 0.3125 2.125l-0.015625 2.78125q0 1.1875 0.109375 1.75q0.109375 0.5625 0.421875 1.203125l-2.34375 0q-0.09375 -0.234375 -0.234375 -0.703125q-0.0625 -0.203125 -0.078125 -0.28125q-0.609375 0.59375 -1.3125 0.890625q-0.6875 0.296875 -1.46875 0.296875q-1.390625 0 -2.1875 -0.75q-0.796875 -0.75 -0.796875 -1.90625q0 -0.765625 0.359375 -1.359375q0.359375 -0.59375 1.015625 -0.90625q0.65625 -0.328125 1.890625 -0.5625q1.671875 -0.3125 2.3125 -0.578125l0 -0.234375q0 -0.6875 -0.34375 -0.984375q-0.328125 -0.296875 -1.28125 -0.296875q-0.625 0 -0.984375 0.25q-0.359375 0.25 -0.578125 0.875zm3.1875 1.9375q-0.453125 0.15625 -1.453125 0.375q-0.984375 0.203125 -1.296875 0.40625q-0.453125 0.328125 -0.453125 0.828125q0 0.5 0.359375 0.875q0.375 0.359375 0.953125 0.359375q0.640625 0 1.234375 -0.421875q0.421875 -0.328125 0.5625 -0.796875q0.09375 -0.296875 0.09375 -1.15625l0 -0.46875z" fill-rule="nonzero"/><path fill="#ffd966" d="m287.9696 -3.9443252l287.9685 0l0 96.62992l-287.9685 0z" fill-rule="evenodd"/><path stroke="#000000" stroke-width="2.0" stroke-linejoin="round" stroke-linecap="butt" d="m287.9696 -3.9443252l287.9685 0l0 96.62992l-287.9685 0z" fill-rule="evenodd"/><path fill="#000000" d="m412.6479 38.104385l2.5 0l0 7.859375q0 1.53125 -0.265625 2.359375q-0.375 1.09375 -1.328125 1.75q-0.953125 0.65625 -2.515625 0.65625q-1.84375 0 -2.84375 -1.03125q-0.984375 -1.03125 -0.984375 -3.015625l2.359375 -0.28125q0.046875 1.078125 0.3125 1.515625q0.40625 0.671875 1.234375 0.671875q0.84375 0 1.1875 -0.484375q0.34375 -0.484375 0.34375 -1.984375l0 -8.015625zm10.355835 9.546875l2.359375 0.390625q-0.453125 1.3125 -1.4375 2.0q-0.984375 0.671875 -2.46875 0.671875q-2.34375 0 -3.46875 -1.53125q-0.890625 -1.234375 -0.890625 -3.09375q0 -2.234375 1.171875 -3.5q1.171875 -1.265625 2.953125 -1.265625q2.0 0 3.15625 1.328125q1.171875 1.3125 1.109375 4.046875l-5.953125 0q0.03125 1.0625 0.578125 1.65625q0.546875 0.578125 1.375 0.578125q0.546875 0 0.921875 -0.296875q0.390625 -0.3125 0.59375 -0.984375zm0.125 -2.40625q-0.015625 -1.03125 -0.53125 -1.5625q-0.5 -0.546875 -1.234375 -0.546875q-0.78125 0 -1.28125 0.578125q-0.515625 0.5625 -0.5 1.53125l3.546875 0zm12.480835 5.265625l-2.375 0l0 -4.578125q0 -1.46875 -0.15625 -1.890625q-0.15625 -0.421875 -0.5 -0.65625q-0.34375 -0.25 -0.828125 -0.25q-0.609375 0 -1.109375 0.34375q-0.484375 0.34375 -0.671875 0.90625q-0.171875 0.546875 -0.171875 2.0625l0 4.0625l-2.375 0l0 -8.984375l2.203125 0l0 1.3125q1.171875 -1.515625 2.953125 -1.515625q0.796875 0 1.4375 0.28125q0.65625 0.28125 0.984375 0.734375q0.34375 0.4375 0.46875 1.0q0.140625 0.546875 0.140625 1.59375l0 5.578125zm2.1940918 0.59375l2.703125 0.328125q0.078125 0.46875 0.3125 0.65625q0.34375 0.25 1.078125 0.25q0.921875 0 1.390625 -0.28125q0.3125 -0.1875 0.46875 -0.59375q0.109375 -0.296875 0.109375 -1.09375l0 -1.3125q-1.0625 1.453125 -2.6875 1.453125q-1.8125 0 -2.859375 -1.53125q-0.84375 -1.203125 -0.84375 -3.015625q0 -2.25 1.09375 -3.4375q1.09375 -1.203125 2.703125 -1.203125q1.671875 0 2.75 1.46875l0 -1.265625l2.21875 0l0 8.0625q0 1.59375 -0.265625 2.375q-0.25 0.78125 -0.734375 1.234375q-0.46875 0.453125 -1.265625 0.703125q-0.78125 0.25 -1.984375 0.25q-2.296875 0 -3.25 -0.78125q-0.953125 -0.78125 -0.953125 -1.984375q0 -0.109375 0.015625 -0.28125zm2.109375 -5.265625q0 1.421875 0.546875 2.09375q0.5625 0.65625 1.375 0.65625q0.875 0 1.46875 -0.671875q0.609375 -0.6875 0.609375 -2.03125q0 -1.390625 -0.578125 -2.0625q-0.578125 -0.6875 -1.453125 -0.6875q-0.859375 0 -1.421875 0.671875q-0.546875 0.65625 -0.546875 2.03125zm10.459717 -1.578125l-2.15625 -0.390625q0.375 -1.296875 1.25 -1.921875q0.890625 -0.625 2.640625 -0.625q1.59375 0 2.375 0.375q0.78125 0.375 1.09375 0.953125q0.3125 0.578125 0.3125 2.125l-0.015625 2.78125q0 1.1875 0.109375 1.75q0.109375 0.5625 0.421875 1.203125l-2.34375 0q-0.09375 -0.234375 -0.234375 -0.703125q-0.0625 -0.203125 -0.078125 -0.28125q-0.609375 0.59375 -1.3125 0.890625q-0.6875 0.296875 -1.46875 0.296875q-1.390625 0 -2.1875 -0.75q-0.796875 -0.75 -0.796875 -1.90625q0 -0.765625 0.359375 -1.359375q0.359375 -0.59375 1.015625 -0.90625q0.65625 -0.328125 1.890625 -0.5625q1.671875 -0.3125 2.3125 -0.578125l0 -0.234375q0 -0.6875 -0.34375 -0.984375q-0.328125 -0.296875 -1.28125 -0.296875q-0.625 0 -0.984375 0.25q-0.359375 0.25 -0.578125 0.875zm3.1875 1.9375q-0.453125 0.15625 -1.453125 0.375q-0.984375 0.203125 -1.296875 0.40625q-0.453125 0.328125 -0.453125 0.828125q0 0.5 0.359375 0.875q0.375 0.359375 0.953125 0.359375q0.640625 0 1.234375 -0.421875q0.421875 -0.328125 0.5625 -0.796875q0.09375 -0.296875 0.09375 -1.15625l0 -0.46875z" fill-rule="nonzero"/><path fill="#ead1dc" d="m287.9696 92.713554l96.031494 0l0 96.62992l-96.031494 0z" fill-rule="evenodd"/><path stroke="#000000" stroke-width="2.0" stroke-linejoin="round" stroke-linecap="butt" d="m287.9696 92.713554l96.031494 0l0 96.62992l-96.031494 0z" fill-rule="evenodd"/><path fill="#000000" d="m329.31543 148.22852l4.890625 -7.46875l-4.4375 -6.84375l3.390625 0l2.859375 4.59375l2.8125 -4.59375l3.359375 0l-4.453125 6.953125l4.890625 7.359375l-3.484375 0l-3.171875 -4.953125l-3.1875 4.953125l-3.46875 0z" fill-rule="nonzero"/><path fill="#ead1dc" d="m383.9413 92.713554l96.031494 0l0 96.62992l-96.031494 0z" fill-rule="evenodd"/><path stroke="#000000" stroke-width="2.0" stroke-linejoin="round" stroke-linecap="butt" d="m383.9413 92.713554l96.031494 0l0 96.62992l-96.031494 0z" fill-rule="evenodd"/><path fill="#000000" d="m425.28714 148.22852l4.890625 -7.46875l-4.4375 -6.84375l3.390625 0l2.859375 4.59375l2.8125 -4.59375l3.359375 0l-4.453125 6.953125l4.890625 7.359375l-3.484375 0l-3.171875 -4.953125l-3.1875 4.953125l-3.46875 0z" fill-rule="nonzero"/><path fill="#ead1dc" d="m479.9183 92.713554l96.03146 0l0 96.62992l-96.03146 0z" fill-rule="evenodd"/><path stroke="#000000" stroke-width="2.0" stroke-linejoin="round" stroke-linecap="butt" d="m479.9183 92.713554l96.03146 0l0 96.62992l-96.03146 0z" fill-rule="evenodd"/><path fill="#000000" d="m521.2641 148.22852l4.890625 -7.46875l-4.4375 -6.84375l3.390625 0l2.859375 4.59375l2.8125 -4.59375l3.359375 0l-4.453125 6.953125l4.890625 7.359375l-3.484375 0l-3.171875 -4.953125l-3.1875 4.953125l-3.46875 0z" fill-rule="nonzero"/><path fill="#ffd966" d="m287.9696 189.36871l287.9685 0l0 96.62991l-287.9685 0z" fill-rule="evenodd"/><path stroke="#000000" stroke-width="2.0" stroke-linejoin="round" stroke-linecap="butt" d="m287.9696 189.36871l287.9685 0l0 96.62991l-287.9685 0z" fill-rule="evenodd"/><path fill="#000000" d="m412.6479 231.41742l2.5 0l0 7.859375q0 1.53125 -0.265625 2.359375q-0.375 1.09375 -1.328125 1.75q-0.953125 0.65625 -2.515625 0.65625q-1.84375 0 -2.84375 -1.03125q-0.984375 -1.03125 -0.984375 -3.015625l2.359375 -0.28125q0.046875 1.078125 0.3125 1.515625q0.40625 0.671875 1.234375 0.671875q0.84375 0 1.1875 -0.484375q0.34375 -0.484375 0.34375 -1.984375l0 -8.015625zm10.355835 9.546875l2.359375 0.390625q-0.453125 1.3125 -1.4375 2.0q-0.984375 0.671875 -2.46875 0.671875q-2.34375 0 -3.46875 -1.53125q-0.890625 -1.234375 -0.890625 -3.09375q0 -2.234375 1.171875 -3.5q1.171875 -1.265625 2.953125 -1.265625q2.0 0 3.15625 1.328125q1.171875 1.3125 1.109375 4.046875l-5.953125 0q0.03125 1.0625 0.578125 1.65625q0.546875 0.578125 1.375 0.578125q0.546875 0 0.921875 -0.296875q0.390625 -0.3125 0.59375 -0.984375zm0.125 -2.40625q-0.015625 -1.03125 -0.53125 -1.5625q-0.5 -0.546875 -1.234375 -0.546875q-0.78125 0 -1.28125 0.578125q-0.515625 0.5625 -0.5 1.53125l3.546875 0zm12.480835 5.265625l-2.375 0l0 -4.578125q0 -1.46875 -0.15625 -1.890625q-0.15625 -0.421875 -0.5 -0.65625q-0.34375 -0.25 -0.828125 -0.25q-0.609375 0 -1.109375 0.34375q-0.484375 0.34375 -0.671875 0.90625q-0.171875 0.546875 -0.171875 2.0625l0 4.0625l-2.375 0l0 -8.984375l2.203125 0l0 1.3125q1.171875 -1.515625 2.953125 -1.515625q0.796875 0 1.4375 0.28125q0.65625 0.28125 0.984375 0.734375q0.34375 0.4375 0.46875 1.0q0.140625 0.546875 0.140625 1.59375l0 5.578125zm2.1940918 0.59375l2.703125 0.328125q0.078125 0.46875 0.3125 0.65625q0.34375 0.25 1.078125 0.25q0.921875 0 1.390625 -0.28125q0.3125 -0.1875 0.46875 -0.59375q0.109375 -0.296875 0.109375 -1.09375l0 -1.3125q-1.0625 1.453125 -2.6875 1.453125q-1.8125 0 -2.859375 -1.53125q-0.84375 -1.203125 -0.84375 -3.015625q0 -2.25 1.09375 -3.4375q1.09375 -1.203125 2.703125 -1.203125q1.671875 0 2.75 1.46875l0 -1.265625l2.21875 0l0 8.0625q0 1.59375 -0.265625 2.375q-0.25 0.78125 -0.734375 1.234375q-0.46875 0.453125 -1.265625 0.703125q-0.78125 0.25 -1.984375 0.25q-2.296875 0 -3.25 -0.78125q-0.953125 -0.78125 -0.953125 -1.984375q0 -0.109375 0.015625 -0.28125zm2.109375 -5.265625q0 1.421875 0.546875 2.09375q0.5625 0.65625 1.375 0.65625q0.875 0 1.46875 -0.671875q0.609375 -0.6875 0.609375 -2.03125q0 -1.390625 -0.578125 -2.0625q-0.578125 -0.6875 -1.453125 -0.6875q-0.859375 0 -1.421875 0.671875q-0.546875 0.65625 -0.546875 2.03125zm10.459717 -1.578125l-2.15625 -0.390625q0.375 -1.296875 1.25 -1.921875q0.890625 -0.625 2.640625 -0.625q1.59375 0 2.375 0.375q0.78125 0.375 1.09375 0.953125q0.3125 0.578125 0.3125 2.125l-0.015625 2.78125q0 1.1875 0.109375 1.75q0.109375 0.5625 0.421875 1.203125l-2.34375 0q-0.09375 -0.234375 -0.234375 -0.703125q-0.0625 -0.203125 -0.078125 -0.28125q-0.609375 0.59375 -1.3125 0.890625q-0.6875 0.296875 -1.46875 0.296875q-1.390625 0 -2.1875 -0.75q-0.796875 -0.75 -0.796875 -1.90625q0 -0.765625 0.359375 -1.359375q0.359375 -0.59375 1.015625 -0.90625q0.65625 -0.328125 1.890625 -0.5625q1.671875 -0.3125 2.3125 -0.578125l0 -0.234375q0 -0.6875 -0.34375 -0.984375q-0.328125 -0.296875 -1.28125 -0.296875q-0.625 0 -0.984375 0.25q-0.359375 0.25 -0.578125 0.875zm3.1875 1.9375q-0.453125 0.15625 -1.453125 0.375q-0.984375 0.203125 -1.296875 0.40625q-0.453125 0.328125 -0.453125 0.828125q0 0.5 0.359375 0.875q0.375 0.359375 0.953125 0.359375q0.640625 0 1.234375 -0.421875q0.421875 -0.328125 0.5625 -0.796875q0.09375 -0.296875 0.09375 -1.15625l0 -0.46875z" fill-rule="nonzero"/><path fill="#ead1dc" d="m287.9696 286.02658l96.031494 0l0 96.629944l-96.031494 0z" fill-rule="evenodd"/><path stroke="#000000" stroke-width="2.0" stroke-linejoin="round" stroke-linecap="butt" d="m287.9696 286.02658l96.031494 0l0 96.629944l-96.031494 0z" fill-rule="evenodd"/><path fill="#000000" d="m329.31543 341.54156l4.890625 -7.46875l-4.4375 -6.84375l3.390625 0l2.859375 4.59375l2.8125 -4.59375l3.359375 0l-4.453125 6.953125l4.890625 7.359375l-3.484375 0l-3.171875 -4.953125l-3.1875 4.953125l-3.46875 0z" fill-rule="nonzero"/><path fill="#ead1dc" d="m383.9413 286.02658l96.031494 0l0 96.629944l-96.031494 0z" fill-rule="evenodd"/><path stroke="#000000" stroke-width="2.0" stroke-linejoin="round" stroke-linecap="butt" d="m383.9413 286.02658l96.031494 0l0 96.629944l-96.031494 0z" fill-rule="evenodd"/><path fill="#000000" d="m425.28714 341.54156l4.890625 -7.46875l-4.4375 -6.84375l3.390625 0l2.859375 4.59375l2.8125 -4.59375l3.359375 0l-4.453125 6.953125l4.890625 7.359375l-3.484375 0l-3.171875 -4.953125l-3.1875 4.953125l-3.46875 0z" fill-rule="nonzero"/><path fill="#ead1dc" d="m479.9183 286.02658l96.03146 0l0 96.629944l-96.03146 0z" fill-rule="evenodd"/><path stroke="#000000" stroke-width="2.0" stroke-linejoin="round" stroke-linecap="butt" d="m479.9183 286.02658l96.03146 0l0 96.629944l-96.03146 0z" fill-rule="evenodd"/><path fill="#000000" d="m521.2641 341.54156l4.890625 -7.46875l-4.4375 -6.84375l3.390625 0l2.859375 4.59375l2.8125 -4.59375l3.359375 0l-4.453125 6.953125l4.890625 7.359375l-3.484375 0l-3.171875 -4.953125l-3.1875 4.953125l-3.46875 0z" fill-rule="nonzero"/><path fill="#ffd966" d="m287.9696 382.68448l287.9685 0l0 96.62991l-287.9685 0z" fill-rule="evenodd"/><path stroke="#000000" stroke-width="2.0" stroke-linejoin="round" stroke-linecap="butt" d="m287.9696 382.68448l287.9685 0l0 96.62991l-287.9685 0z" fill-rule="evenodd"/><path fill="#000000" d="m412.6479 424.7332l2.5 0l0 7.859375q0 1.53125 -0.265625 2.359375q-0.375 1.09375 -1.328125 1.75q-0.953125 0.65625 -2.515625 0.65625q-1.84375 0 -2.84375 -1.03125q-0.984375 -1.03125 -0.984375 -3.015625l2.359375 -0.28125q0.046875 1.078125 0.3125 1.515625q0.40625 0.671875 1.234375 0.671875q0.84375 0 1.1875 -0.484375q0.34375 -0.484375 0.34375 -1.984375l0 -8.015625zm10.355835 9.546875l2.359375 0.390625q-0.453125 1.3125 -1.4375 2.0q-0.984375 0.671875 -2.46875 0.671875q-2.34375 0 -3.46875 -1.53125q-0.890625 -1.234375 -0.890625 -3.09375q0 -2.234375 1.171875 -3.5q1.171875 -1.265625 2.953125 -1.265625q2.0 0 3.15625 1.328125q1.171875 1.3125 1.109375 4.046875l-5.953125 0q0.03125 1.0625 0.578125 1.65625q0.546875 0.578125 1.375 0.578125q0.546875 0 0.921875 -0.296875q0.390625 -0.3125 0.59375 -0.984375zm0.125 -2.40625q-0.015625 -1.03125 -0.53125 -1.5625q-0.5 -0.546875 -1.234375 -0.546875q-0.78125 0 -1.28125 0.578125q-0.515625 0.5625 -0.5 1.53125l3.546875 0zm12.480835 5.265625l-2.375 0l0 -4.578125q0 -1.46875 -0.15625 -1.890625q-0.15625 -0.421875 -0.5 -0.65625q-0.34375 -0.25 -0.828125 -0.25q-0.609375 0 -1.109375 0.34375q-0.484375 0.34375 -0.671875 0.90625q-0.171875 0.546875 -0.171875 2.0625l0 4.0625l-2.375 0l0 -8.984375l2.203125 0l0 1.3125q1.171875 -1.515625 2.953125 -1.515625q0.796875 0 1.4375 0.28125q0.65625 0.28125 0.984375 0.734375q0.34375 0.4375 0.46875 1.0q0.140625 0.546875 0.140625 1.59375l0 5.578125zm2.1940918 0.59375l2.703125 0.328125q0.078125 0.46875 0.3125 0.65625q0.34375 0.25 1.078125 0.25q0.921875 0 1.390625 -0.28125q0.3125 -0.1875 0.46875 -0.59375q0.109375 -0.296875 0.109375 -1.09375l0 -1.3125q-1.0625 1.453125 -2.6875 1.453125q-1.8125 0 -2.859375 -1.53125q-0.84375 -1.203125 -0.84375 -3.015625q0 -2.25 1.09375 -3.4375q1.09375 -1.203125 2.703125 -1.203125q1.671875 0 2.75 1.46875l0 -1.265625l2.21875 0l0 8.0625q0 1.59375 -0.265625 2.375q-0.25 0.78125 -0.734375 1.234375q-0.46875 0.453125 -1.265625 0.703125q-0.78125 0.25 -1.984375 0.25q-2.296875 0 -3.25 -0.78125q-0.953125 -0.78125 -0.953125 -1.984375q0 -0.109375 0.015625 -0.28125zm2.109375 -5.265625q0 1.421875 0.546875 2.09375q0.5625 0.65625 1.375 0.65625q0.875 0 1.46875 -0.671875q0.609375 -0.6875 0.609375 -2.03125q0 -1.390625 -0.578125 -2.0625q-0.578125 -0.6875 -1.453125 -0.6875q-0.859375 0 -1.421875 0.671875q-0.546875 0.65625 -0.546875 2.03125zm10.459717 -1.578125l-2.15625 -0.390625q0.375 -1.296875 1.25 -1.921875q0.890625 -0.625 2.640625 -0.625q1.59375 0 2.375 0.375q0.78125 0.375 1.09375 0.953125q0.3125 0.578125 0.3125 2.125l-0.015625 2.78125q0 1.1875 0.109375 1.75q0.109375 0.5625 0.421875 1.203125l-2.34375 0q-0.09375 -0.234375 -0.234375 -0.703125q-0.0625 -0.203125 -0.078125 -0.28125q-0.609375 0.59375 -1.3125 0.890625q-0.6875 0.296875 -1.46875 0.296875q-1.390625 0 -2.1875 -0.75q-0.796875 -0.75 -0.796875 -1.90625q0 -0.765625 0.359375 -1.359375q0.359375 -0.59375 1.015625 -0.90625q0.65625 -0.328125 1.890625 -0.5625q1.671875 -0.3125 2.3125 -0.578125l0 -0.234375q0 -0.6875 -0.34375 -0.984375q-0.328125 -0.296875 -1.28125 -0.296875q-0.625 0 -0.984375 0.25q-0.359375 0.25 -0.578125 0.875zm3.1875 1.9375q-0.453125 0.15625 -1.453125 0.375q-0.984375 0.203125 -1.296875 0.40625q-0.453125 0.328125 -0.453125 0.828125q0 0.5 0.359375 0.875q0.375 0.359375 0.953125 0.359375q0.640625 0 1.234375 -0.421875q0.421875 -0.328125 0.5625 -0.796875q0.09375 -0.296875 0.09375 -1.15625l0 -0.46875z" fill-rule="nonzero"/><path fill="#ead1dc" d="m287.9696 479.34125l96.031494 0l0 96.629944l-96.031494 0z" fill-rule="evenodd"/><path stroke="#000000" stroke-width="2.0" stroke-linejoin="round" stroke-linecap="butt" d="m287.9696 479.34125l96.031494 0l0 96.629944l-96.031494 0z" fill-rule="evenodd"/><path fill="#000000" d="m329.31543 534.8562l4.890625 -7.46875l-4.4375 -6.84375l3.390625 0l2.859375 4.59375l2.8125 -4.59375l3.359375 0l-4.453125 6.953125l4.890625 7.359375l-3.484375 0l-3.171875 -4.953125l-3.1875 4.953125l-3.46875 0z" fill-rule="nonzero"/><path fill="#ead1dc" d="m383.9927 479.34125l96.031494 0l0 96.629944l-96.031494 0z" fill-rule="evenodd"/><path stroke="#000000" stroke-width="2.0" stroke-linejoin="round" stroke-linecap="butt" d="m383.9927 479.34125l96.031494 0l0 96.629944l-96.031494 0z" fill-rule="evenodd"/><path fill="#000000" d="m425.33853 534.8562l4.890625 -7.46875l-4.4375 -6.84375l3.390625 0l2.859375 4.59375l2.8125 -4.59375l3.359375 0l-4.453125 6.953125l4.890625 7.359375l-3.484375 0l-3.171875 -4.953125l-3.1875 4.953125l-3.46875 0z" fill-rule="nonzero"/><path fill="#ead1dc" d="m479.96857 479.34125l96.031494 0l0 96.629944l-96.031494 0z" fill-rule="evenodd"/><path stroke="#000000" stroke-width="2.0" stroke-linejoin="round" stroke-linecap="butt" d="m479.96857 479.34125l96.031494 0l0 96.629944l-96.031494 0z" fill-rule="evenodd"/><path fill="#000000" d="m521.3144 534.8562l4.890625 -7.46875l-4.4375 -6.84375l3.390625 0l2.859375 4.59375l2.8125 -4.59375l3.359375 0l-4.453125 6.953125l4.890625 7.359375l-3.484375 0l-3.171875 -4.953125l-3.1875 4.953125l-3.46875 0z" fill-rule="nonzero"/></g></svg>