<svg version="1.1" viewBox="0.0 0.0 960.0 720.0" fill="none" stroke="none" stroke-linecap="square" stroke-miterlimit="10" xmlns:xlink="http://www.w3.org/1999/xlink" xmlns="http://www.w3.org/2000/svg"><clipPath id="p.0"><path d="m0 0l960.0 0l0 720.0l-960.0 0l0 -720.0z" clip-rule="nonzero"/></clipPath><g clip-path="url(#p.0)"><path fill="#000000" fill-opacity="0.0" d="m0 0l960.0 0l0 720.0l-960.0 0z" fill-rule="evenodd"/><path fill="#434343" d="m127.2126 162.85234c0 -35.29946 28.615875 -63.915337 63.91533 -63.915337l577.74414 0c16.951416 0 33.208496 6.733925 45.194946 18.720375c11.98645 11.98645 18.720398 28.24356 18.720398 45.19496l0 372.64178c0 35.29944 -28.615906 63.915283 -63.915344 63.915283l-577.74414 0c-35.299454 0 -63.91533 -28.615845 -63.91533 -63.915283z" fill-rule="evenodd"/><path stroke="#000000" stroke-width="1.2335958005249343" stroke-linejoin="round" stroke-linecap="butt" d="m127.2126 162.85234c0 -35.29946 28.615875 -63.915337 63.91533 -63.915337l577.74414 0c16.951416 0 33.208496 6.733925 45.194946 18.720375c11.98645 11.98645 18.720398 28.24356 18.720398 45.19496l0 372.64178c0 35.29944 -28.615906 63.915283 -63.915344 63.915283l-577.74414 0c-35.299454 0 -63.91533 -28.615845 -63.91533 -63.915283z" fill-rule="evenodd"/><path fill="#d9d9d9" d="m509.87784 147.43307l2.6385803 0c3.4926147 0 6.842163 1.3874359 9.311829 3.857071c2.4696045 2.4696503 3.8570557 5.819214 3.8570557 9.311813l0 288.90985c0 1.2207031E-4 -1.2207031E-4 2.4414062E-4 -2.4414062E-4 2.4414062E-4l-28.976135 -2.4414062E-4c-1.2207031E-4 0 -2.4414062E-4 -1.2207031E-4 -2.4414062E-4 -2.4414062E-4l2.4414062E-4 -288.9096c0 -7.2729797 5.895935 -13.168884 13.168915 -13.168884z" fill-rule="evenodd"/><path stroke="#000000" stroke-width="0.863517060367454" stroke-linejoin="round" stroke-linecap="butt" d="m509.87784 147.43307l2.6385803 0c3.4926147 0 6.842163 1.3874359 9.311829 3.857071c2.4696045 2.4696503 3.8570557 5.819214 3.8570557 9.311813l0 288.90985c0 1.2207031E-4 -1.2207031E-4 2.4414062E-4 -2.4414062E-4 2.4414062E-4l-28.976135 -2.4414062E-4c-1.2207031E-4 0 -2.4414062E-4 -1.2207031E-4 -2.4414062E-4 -2.4414062E-4l2.4414062E-4 -288.9096c0 -7.2729797 5.895935 -13.168884 13.168915 -13.168884z" fill-rule="evenodd"/><path fill="#d9d9d9" d="m572.27045 147.43307l2.6386108 0c3.4926147 0 6.842163 1.3874359 9.311768 3.857071c2.4696655 2.4696503 3.8571167 5.819214 3.8571167 9.311813l0 288.90985c0 1.2207031E-4 -1.2207031E-4 2.4414062E-4 -2.4414062E-4 2.4414062E-4l-28.976135 -2.4414062E-4c-1.2207031E-4 0 -2.4414062E-4 -1.2207031E-4 -2.4414062E-4 -2.4414062E-4l2.4414062E-4 -288.9096c0 -7.2729797 5.895935 -13.168884 13.168884 -13.168884z" fill-rule="evenodd"/><path stroke="#000000" stroke-width="0.863517060367454" stroke-linejoin="round" stroke-linecap="butt" d="m572.27045 147.43307l2.6386108 0c3.4926147 0 6.842163 1.3874359 9.311768 3.857071c2.4696655 2.4696503 3.8571167 5.819214 3.8571167 9.311813l0 288.90985c0 1.2207031E-4 -1.2207031E-4 2.4414062E-4 -2.4414062E-4 2.4414062E-4l-28.976135 -2.4414062E-4c-1.2207031E-4 0 -2.4414062E-4 -1.2207031E-4 -2.4414062E-4 -2.4414062E-4l2.4414062E-4 -288.9096c0 -7.2729797 5.895935 -13.168884 13.168884 -13.168884z" fill-rule="evenodd"/><path fill="#d9d9d9" d="m633.30524 147.43307l2.6386108 0c3.4926147 0 6.842163 1.3874359 9.311829 3.857071c2.4696045 2.4696503 3.8570557 5.819214 3.8570557 9.311813l0 288.90985c0 1.2207031E-4 -1.2207031E-4 2.4414062E-4 -2.4414062E-4 2.4414062E-4l-28.976135 -2.4414062E-4c-1.2207031E-4 0 -2.4414062E-4 -1.2207031E-4 -2.4414062E-4 -2.4414062E-4l2.4414062E-4 -288.9096c0 -7.2729797 5.895935 -13.168884 13.168884 -13.168884z" fill-rule="evenodd"/><path stroke="#000000" stroke-width="0.863517060367454" stroke-linejoin="round" stroke-linecap="butt" d="m633.30524 147.43307l2.6386108 0c3.4926147 0 6.842163 1.3874359 9.311829 3.857071c2.4696045 2.4696503 3.8570557 5.819214 3.8570557 9.311813l0 288.90985c0 1.2207031E-4 -1.2207031E-4 2.4414062E-4 -2.4414062E-4 2.4414062E-4l-28.976135 -2.4414062E-4c-1.2207031E-4 0 -2.4414062E-4 -1.2207031E-4 -2.4414062E-4 -2.4414062E-4l2.4414062E-4 -288.9096c0 -7.2729797 5.895935 -13.168884 13.168884 -13.168884z" fill-rule="evenodd"/><path fill="#d9d9d9" d="m692.75037 147.43307l2.6386108 0c3.4926147 0 6.842163 1.3874359 9.311829 3.857071c2.4696045 2.4696503 3.8570557 5.819214 3.8570557 9.311813l0 288.90985c0 1.2207031E-4 -1.2207031E-4 2.4414062E-4 -2.4414062E-4 2.4414062E-4l-28.976135 -2.4414062E-4c-1.2207031E-4 0 -2.4414062E-4 -1.2207031E-4 -2.4414062E-4 -2.4414062E-4l2.4414062E-4 -288.9096c0 -7.2729797 5.895935 -13.168884 13.168884 -13.168884z" fill-rule="evenodd"/><path stroke="#000000" stroke-width="0.863517060367454" stroke-linejoin="round" stroke-linecap="butt" d="m692.75037 147.43307l2.6386108 0c3.4926147 0 6.842163 1.3874359 9.311829 3.857071c2.4696045 2.4696503 3.8570557 5.819214 3.8570557 9.311813l0 288.90985c0 1.2207031E-4 -1.2207031E-4 2.4414062E-4 -2.4414062E-4 2.4414062E-4l-28.976135 -2.4414062E-4c-1.2207031E-4 0 -2.4414062E-4 -1.2207031E-4 -2.4414062E-4 -2.4414062E-4l2.4414062E-4 -288.9096c0 -7.2729797 5.895935 -13.168884 13.168884 -13.168884z" fill-rule="evenodd"/><path fill="#c7c7c7" d="m479.98523 210.42336l339.43304 339.4016l-678.8346 0.03149414z" fill-rule="evenodd"/><path stroke="#000000" stroke-width="1.0" stroke-linejoin="round" stroke-linecap="butt" d="m479.98523 210.42336l339.43304 339.4016l-678.8346 0.03149414z" fill-rule="evenodd"/><path fill="#d9d9d9" d="m264.50485 147.43307l2.6385803 0c3.4926147 0 6.842163 1.3874359 9.311829 3.857071c2.469635 2.4696503 3.8570862 5.819214 3.8570862 9.311813l0 288.90985c0 1.2207031E-4 -1.2207031E-4 2.4414062E-4 -2.4414062E-4 2.4414062E-4l-28.97615 -2.4414062E-4c-1.2207031E-4 0 -2.4414062E-4 -1.2207031E-4 -2.4414062E-4 -2.4414062E-4l2.4414062E-4 -288.9096c0 -7.2729797 5.89592 -13.168884 13.1689 -13.168884z" fill-rule="evenodd"/><path stroke="#000000" stroke-width="0.863517060367454" stroke-linejoin="round" stroke-linecap="butt" d="m264.50485 147.43307l2.6385803 0c3.4926147 0 6.842163 1.3874359 9.311829 3.857071c2.469635 2.4696503 3.8570862 5.819214 3.8570862 9.311813l0 288.90985c0 1.2207031E-4 -1.2207031E-4 2.4414062E-4 -2.4414062E-4 2.4414062E-4l-28.97615 -2.4414062E-4c-1.2207031E-4 0 -2.4414062E-4 -1.2207031E-4 -2.4414062E-4 -2.4414062E-4l2.4414062E-4 -288.9096c0 -7.2729797 5.89592 -13.168884 13.1689 -13.168884z" fill-rule="evenodd"/><path fill="#d9d9d9" d="m322.696 147.43307l2.6385803 0c3.4926147 0 6.842163 1.3874359 9.311829 3.857071c2.469635 2.4696503 3.8570557 5.819214 3.8570557 9.311813l0 288.90985c0 1.2207031E-4 -9.1552734E-5 2.4414062E-4 -2.4414062E-4 2.4414062E-4l-28.976135 -2.4414062E-4c-1.2207031E-4 0 -2.4414062E-4 -1.2207031E-4 -2.4414062E-4 -2.4414062E-4l2.4414062E-4 -288.9096c0 -7.2729797 5.895935 -13.168884 13.168915 -13.168884z" fill-rule="evenodd"/><path stroke="#000000" stroke-width="0.863517060367454" stroke-linejoin="round" stroke-linecap="butt" d="m322.696 147.43307l2.6385803 0c3.4926147 0 6.842163 1.3874359 9.311829 3.857071c2.469635 2.4696503 3.8570557 5.819214 3.8570557 9.311813l0 288.90985c0 1.2207031E-4 -9.1552734E-5 2.4414062E-4 -2.4414062E-4 2.4414062E-4l-28.976135 -2.4414062E-4c-1.2207031E-4 0 -2.4414062E-4 -1.2207031E-4 -2.4414062E-4 -2.4414062E-4l2.4414062E-4 -288.9096c0 -7.2729797 5.895935 -13.168884 13.168915 -13.168884z" fill-rule="evenodd"/><path fill="#d9d9d9" d="m385.0904 147.43307l2.6385803 0c3.4926147 0 6.842163 1.3874359 9.311829 3.857071c2.469635 2.4696503 3.8570557 5.819214 3.8570557 9.311813l0 288.90985c0 1.2207031E-4 -9.1552734E-5 2.4414062E-4 -2.4414062E-4 2.4414062E-4l-28.976135 -2.4414062E-4c-1.2207031E-4 0 -2.1362305E-4 -1.2207031E-4 -2.1362305E-4 -2.4414062E-4l2.1362305E-4 -288.9096c0 -7.2729797 5.895935 -13.168884 13.168915 -13.168884z" fill-rule="evenodd"/><path stroke="#000000" stroke-width="0.863517060367454" stroke-linejoin="round" stroke-linecap="butt" d="m385.0904 147.43307l2.6385803 0c3.4926147 0 6.842163 1.3874359 9.311829 3.857071c2.469635 2.4696503 3.8570557 5.819214 3.8570557 9.311813l0 288.90985c0 1.2207031E-4 -9.1552734E-5 2.4414062E-4 -2.4414062E-4 2.4414062E-4l-28.976135 -2.4414062E-4c-1.2207031E-4 0 -2.1362305E-4 -1.2207031E-4 -2.1362305E-4 -2.4414062E-4l2.1362305E-4 -288.9096c0 -7.2729797 5.895935 -13.168884 13.168915 -13.168884z" fill-rule="evenodd"/><path fill="#d9d9d9" d="m447.47006 147.43307l2.6385803 0c3.4926147 0 6.842163 1.3874359 9.311798 3.857071c2.4696655 2.4696503 3.8570862 5.819214 3.8570862 9.311813l0 288.90985c0 1.2207031E-4 -9.1552734E-5 2.4414062E-4 -2.4414062E-4 2.4414062E-4l-28.976135 -2.4414062E-4c-1.2207031E-4 0 -2.4414062E-4 -1.2207031E-4 -2.4414062E-4 -2.4414062E-4l2.4414062E-4 -288.9096c0 -7.2729797 5.895935 -13.168884 13.168915 -13.168884z" fill-rule="evenodd"/><path stroke="#000000" stroke-width="0.863517060367454" stroke-linejoin="round" stroke-linecap="butt" d="m447.47006 147.43307l2.6385803 0c3.4926147 0 6.842163 1.3874359 9.311798 3.857071c2.4696655 2.4696503 3.8570862 5.819214 3.8570862 9.311813l0 288.90985c0 1.2207031E-4 -9.1552734E-5 2.4414062E-4 -2.4414062E-4 2.4414062E-4l-28.976135 -2.4414062E-4c-1.2207031E-4 0 -2.4414062E-4 -1.2207031E-4 -2.4414062E-4 -2.4414062E-4l2.4414062E-4 -288.9096c0 -7.2729797 5.895935 -13.168884 13.168915 -13.168884z" fill-rule="evenodd"/><path fill="#999999" d="m498.38702 162.08698c0 -7.070984 5.7321777 -12.803146 12.803162 -12.803146c3.3955688 0 6.6520996 1.3489075 9.053162 3.7499542c2.401062 2.401062 3.75 5.657593 3.75 9.053192c0 7.070984 -5.7321777 12.803162 -12.803162 12.803162c-7.070984 0 -12.803162 -5.7321777 -12.803162 -12.803162z" fill-rule="evenodd"/><path stroke="#000000" stroke-width="0.863517060367454" stroke-linejoin="round" stroke-linecap="butt" d="m498.38702 162.08698c0 -7.070984 5.7321777 -12.803146 12.803162 -12.803146c3.3955688 0 6.6520996 1.3489075 9.053162 3.7499542c2.401062 2.401062 3.75 5.657593 3.75 9.053192c0 7.070984 -5.7321777 12.803162 -12.803162 12.803162c-7.070984 0 -12.803162 -5.7321777 -12.803162 -12.803162z" fill-rule="evenodd"/><path fill="#999999" d="m560.77966 162.08698c0 -7.070984 5.7321777 -12.803146 12.803162 -12.803146c3.3955688 0 6.6520996 1.3489075 9.053162 3.7499542c2.401062 2.401062 3.749939 5.657593 3.749939 9.053192c0 7.070984 -5.7321167 12.803162 -12.803101 12.803162c-7.070984 0 -12.803162 -5.7321777 -12.803162 -12.803162z" fill-rule="evenodd"/><path stroke="#000000" stroke-width="0.863517060367454" stroke-linejoin="round" stroke-linecap="butt" d="m560.77966 162.08698c0 -7.070984 5.7321777 -12.803146 12.803162 -12.803146c3.3955688 0 6.6520996 1.3489075 9.053162 3.7499542c2.401062 2.401062 3.749939 5.657593 3.749939 9.053192c0 7.070984 -5.7321167 12.803162 -12.803101 12.803162c-7.070984 0 -12.803162 -5.7321777 -12.803162 -12.803162z" fill-rule="evenodd"/><path fill="#999999" d="m621.8156 162.08698c0 -7.070984 5.7321167 -12.803146 12.803101 -12.803146c3.39563 0 6.6521606 1.3489075 9.053223 3.7499542c2.401062 2.401062 3.749939 5.657593 3.749939 9.053192c0 7.070984 -5.7321777 12.803162 -12.803162 12.803162c-7.070984 0 -12.803101 -5.7321777 -12.803101 -12.803162z" fill-rule="evenodd"/><path stroke="#000000" stroke-width="0.863517060367454" stroke-linejoin="round" stroke-linecap="butt" d="m621.8156 162.08698c0 -7.070984 5.7321167 -12.803146 12.803101 -12.803146c3.39563 0 6.6521606 1.3489075 9.053223 3.7499542c2.401062 2.401062 3.749939 5.657593 3.749939 9.053192c0 7.070984 -5.7321777 12.803162 -12.803162 12.803162c-7.070984 0 -12.803101 -5.7321777 -12.803101 -12.803162z" fill-rule="evenodd"/><path fill="#999999" d="m681.16705 162.08698c0 -7.070984 5.7321777 -12.803146 12.803162 -12.803146c3.3955688 0 6.6520996 1.3489075 9.053162 3.7499542c2.401062 2.401062 3.749939 5.657593 3.749939 9.053192c0 7.070984 -5.7321167 12.803162 -12.803101 12.803162c-7.070984 0 -12.803162 -5.7321777 -12.803162 -12.803162z" fill-rule="evenodd"/><path stroke="#000000" stroke-width="0.863517060367454" stroke-linejoin="round" stroke-linecap="butt" d="m681.16705 162.08698c0 -7.070984 5.7321777 -12.803146 12.803162 -12.803146c3.3955688 0 6.6520996 1.3489075 9.053162 3.7499542c2.401062 2.401062 3.749939 5.657593 3.749939 9.053192c0 7.070984 -5.7321167 12.803162 -12.803101 12.803162c-7.070984 0 -12.803162 -5.7321777 -12.803162 -12.803162z" fill-rule="evenodd"/><path fill="#d0e0e3" d="m417.60498 272.81628l62.393707 -62.393707l62.393707 62.393707l-62.393707 62.393677z" fill-rule="evenodd"/><path stroke="#000000" stroke-width="1.0" stroke-linejoin="round" stroke-linecap="butt" d="m417.60498 272.81628l62.393707 -62.393707l62.393707 62.393707l-62.393707 62.393677z" fill-rule="evenodd"/><path fill="#d0e0e3" d="m479.9987 335.23883l62.393707 -62.393677l62.393677 62.393677l-62.393677 62.393707z" fill-rule="evenodd"/><path stroke="#000000" stroke-width="1.0" stroke-linejoin="round" stroke-linecap="butt" d="m479.9987 335.23883l62.393707 -62.393677l62.393677 62.393677l-62.393677 62.393707z" fill-rule="evenodd"/><path fill="#d0e0e3" d="m542.3924 397.60236l62.393677 -62.393707l62.393738 62.393707l-62.393738 62.393707z" fill-rule="evenodd"/><path stroke="#000000" stroke-width="1.0" stroke-linejoin="round" stroke-linecap="butt" d="m542.3924 397.60236l62.393677 -62.393707l62.393738 62.393707l-62.393738 62.393707z" fill-rule="evenodd"/><path fill="#d0e0e3" d="m604.7861 460.02493l62.393738 -62.393707l62.393677 62.393707l-62.393677 62.393707z" fill-rule="evenodd"/><path stroke="#000000" stroke-width="1.0" stroke-linejoin="round" stroke-linecap="butt" d="m604.7861 460.02493l62.393738 -62.393707l62.393677 62.393707l-62.393677 62.393707z" fill-rule="evenodd"/><path fill="#999999" d="m253.01405 162.08698c0 -7.070984 5.7321625 -12.803146 12.803146 -12.803146c3.3955994 0 6.65213 1.3489075 9.053192 3.7499542c2.401062 2.401062 3.7499695 5.657593 3.7499695 9.053192c0 7.070984 -5.7321777 12.803162 -12.803162 12.803162c-7.070984 0 -12.803146 -5.7321777 -12.803146 -12.803162z" fill-rule="evenodd"/><path stroke="#000000" stroke-width="0.863517060367454" stroke-linejoin="round" stroke-linecap="butt" d="m253.01405 162.08698c0 -7.070984 5.7321625 -12.803146 12.803146 -12.803146c3.3955994 0 6.65213 1.3489075 9.053192 3.7499542c2.401062 2.401062 3.7499695 5.657593 3.7499695 9.053192c0 7.070984 -5.7321777 12.803162 -12.803162 12.803162c-7.070984 0 -12.803146 -5.7321777 -12.803146 -12.803162z" fill-rule="evenodd"/><path fill="#999999" d="m311.2052 162.08698c0 -7.070984 5.7321777 -12.803146 12.803162 -12.803146c3.3955994 0 6.65213 1.3489075 9.053192 3.7499542c2.401062 2.401062 3.749939 5.657593 3.749939 9.053192c0 7.070984 -5.732147 12.803162 -12.803131 12.803162c-7.070984 0 -12.803162 -5.7321777 -12.803162 -12.803162z" fill-rule="evenodd"/><path stroke="#000000" stroke-width="0.863517060367454" stroke-linejoin="round" stroke-linecap="butt" d="m311.2052 162.08698c0 -7.070984 5.7321777 -12.803146 12.803162 -12.803146c3.3955994 0 6.65213 1.3489075 9.053192 3.7499542c2.401062 2.401062 3.749939 5.657593 3.749939 9.053192c0 7.070984 -5.732147 12.803162 -12.803131 12.803162c-7.070984 0 -12.803162 -5.7321777 -12.803162 -12.803162z" fill-rule="evenodd"/><path fill="#999999" d="m373.6007 162.08698c0 -7.070984 5.7321777 -12.803146 12.803162 -12.803146c3.3955994 0 6.65213 1.3489075 9.053192 3.7499542c2.401062 2.401062 3.7499695 5.657593 3.7499695 9.053192c0 7.070984 -5.7321777 12.803162 -12.803162 12.803162c-7.070984 0 -12.803162 -5.7321777 -12.803162 -12.803162z" fill-rule="evenodd"/><path stroke="#000000" stroke-width="0.863517060367454" stroke-linejoin="round" stroke-linecap="butt" d="m373.6007 162.08698c0 -7.070984 5.7321777 -12.803146 12.803162 -12.803146c3.3955994 0 6.65213 1.3489075 9.053192 3.7499542c2.401062 2.401062 3.7499695 5.657593 3.7499695 9.053192c0 7.070984 -5.7321777 12.803162 -12.803162 12.803162c-7.070984 0 -12.803162 -5.7321777 -12.803162 -12.803162z" fill-rule="evenodd"/><path fill="#999999" d="m435.88672 162.08698c0 -7.070984 5.732147 -12.803146 12.803131 -12.803146c3.39563 0 6.6521606 1.3489075 9.053223 3.7499542c2.4010315 2.401062 3.749939 5.657593 3.749939 9.053192c0 7.070984 -5.7321777 12.803162 -12.803162 12.803162c-7.070984 0 -12.803131 -5.7321777 -12.803131 -12.803162z" fill-rule="evenodd"/><path stroke="#000000" stroke-width="0.863517060367454" stroke-linejoin="round" stroke-linecap="butt" d="m435.88672 162.08698c0 -7.070984 5.732147 -12.803146 12.803131 -12.803146c3.39563 0 6.6521606 1.3489075 9.053223 3.7499542c2.4010315 2.401062 3.749939 5.657593 3.749939 9.053192c0 7.070984 -5.7321777 12.803162 -12.803162 12.803162c-7.070984 0 -12.803131 -5.7321777 -12.803131 -12.803162z" fill-rule="evenodd"/><path fill="#d0e0e3" d="m292.81955 522.39044l-62.393692 -62.393738l62.393692 -62.393677l62.393707 62.393677z" fill-rule="evenodd"/><path stroke="#000000" stroke-width="1.0" stroke-linejoin="round" stroke-linecap="butt" d="m292.81955 522.39044l-62.393692 -62.393738l62.393692 -62.393677l62.393707 62.393677z" fill-rule="evenodd"/><path fill="#d0e0e3" d="m355.18307 459.9967l-62.393707 -62.393677l62.393707 -62.393707l62.393707 62.393707z" fill-rule="evenodd"/><path stroke="#000000" stroke-width="1.0" stroke-linejoin="round" stroke-linecap="butt" d="m355.18307 459.9967l-62.393707 -62.393677l62.393707 -62.393707l62.393707 62.393707z" fill-rule="evenodd"/><path fill="#d0e0e3" d="m417.60565 397.60303l-62.393707 -62.393707l62.393707 -62.393707l62.393677 62.393707z" fill-rule="evenodd"/><path stroke="#000000" stroke-width="1.0" stroke-linejoin="round" stroke-linecap="butt" d="m417.60565 397.60303l-62.393707 -62.393707l62.393707 -62.393707l62.393677 62.393707z" fill-rule="evenodd"/><path fill="#d0e0e3" d="m479.99933 459.9967l-62.393677 -62.393677l62.393677 -62.393707l62.393738 62.393707z" fill-rule="evenodd"/><path stroke="#000000" stroke-width="1.0" stroke-linejoin="round" stroke-linecap="butt" d="m479.99933 459.9967l-62.393677 -62.393677l62.393677 -62.393707l62.393738 62.393707z" fill-rule="evenodd"/><path fill="#d0e0e3" d="m479.9987 460.02493l62.393707 -62.393707l62.393677 62.393707l-62.393677 62.393707z" fill-rule="evenodd"/><path stroke="#000000" stroke-width="1.0" stroke-linejoin="round" stroke-linecap="butt" d="m479.9987 460.02493l62.393707 -62.393707l62.393677 62.393707l-62.393677 62.393707z" fill-rule="evenodd"/><path fill="#d0e0e3" d="m417.60565 522.4193l-62.393707 -62.393707l62.393707 -62.393707l62.393677 62.393707z" fill-rule="evenodd"/><path stroke="#000000" stroke-width="1.0" stroke-linejoin="round" stroke-linecap="butt" d="m417.60565 522.4193l-62.393707 -62.393707l62.393707 -62.393707l62.393677 62.393707z" fill-rule="evenodd"/><path fill="#434343" d="m174.02625 181.6221c0 -1.6003418 1.297348 -2.8976898 2.8976898 -2.8976898l604.5983 0c0.76849365 0 1.5055542 0.30529785 2.0489502 0.8487091c0.54345703 0.5434265 0.84869385 1.2804718 0.84869385 2.0489807l0 11.590439c0 1.600357 -1.2973022 2.8976898 -2.897644 2.8976898l-604.5983 0c-1.6003418 0 -2.8976898 -1.2973328 -2.8976898 -2.8976898z" fill-rule="evenodd"/><path stroke="#000000" stroke-width="1.2335958005249343" stroke-linejoin="round" stroke-linecap="butt" d="m174.02625 181.6221c0 -1.6003418 1.297348 -2.8976898 2.8976898 -2.8976898l604.5983 0c0.76849365 0 1.5055542 0.30529785 2.0489502 0.8487091c0.54345703 0.5434265 0.84869385 1.2804718 0.84869385 2.0489807l0 11.590439c0 1.600357 -1.2973022 2.8976898 -2.897644 2.8976898l-604.5983 0c-1.6003418 0 -2.8976898 -1.2973328 -2.8976898 -2.8976898z" fill-rule="evenodd"/><path fill="#d9d9d9" d="m361.4934 499.17126l16.409454 -16.409454l19.118103 19.118103l-16.409454 16.409454z" fill-rule="evenodd"/><path stroke="#000000" stroke-width="1.0" stroke-linejoin="round" stroke-linecap="butt" d="m361.4934 499.17126l16.409454 -16.409454l19.118103 19.118103l-16.409454 16.409454z" fill-rule="evenodd"/><path fill="#999999" d="m355.18335 488.73776l61.102356 61.102386l-122.20474 0z" fill-rule="evenodd"/><path stroke="#000000" stroke-width="1.0" stroke-linejoin="round" stroke-linecap="butt" d="m355.18335 488.73776l61.102356 61.102386l-122.20474 0z" fill-rule="evenodd"/><path fill="#d9d9d9" d="m346.189 497.89523l-14.362183 -14.362183l-19.118134 19.118103l14.362213 14.362213z" fill-rule="evenodd"/><path stroke="#000000" stroke-width="1.0" stroke-linejoin="round" stroke-linecap="butt" d="m346.189 497.89523l-14.362183 -14.362183l-19.118134 19.118103l14.362213 14.362213z" fill-rule="evenodd"/><path fill="#d9d9d9" d="m487.60104 499.16968l15.811035 -15.811035l19.118134 19.118103l-15.811066 15.811035z" fill-rule="evenodd"/><path stroke="#000000" stroke-width="1.0" stroke-linejoin="round" stroke-linecap="butt" d="m487.60104 499.16968l15.811035 -15.811035l19.118134 19.118103l-15.811066 15.811035z" fill-rule="evenodd"/><path fill="#999999" d="m479.9996 488.73645l61.102386 61.102356l-122.20474 0z" fill-rule="evenodd"/><path stroke="#000000" stroke-width="1.0" stroke-linejoin="round" stroke-linecap="butt" d="m479.9996 488.73645l61.102386 61.102356l-122.20474 0z" fill-rule="evenodd"/><path fill="#d9d9d9" d="m470.77695 497.89392l-14.362213 -14.362183l-19.118103 19.118103l14.362183 14.362183z" fill-rule="evenodd"/><path stroke="#000000" stroke-width="1.0" stroke-linejoin="round" stroke-linecap="butt" d="m470.77695 497.89392l-14.362213 -14.362183l-19.118103 19.118103l14.362183 14.362183z" fill-rule="evenodd"/><path fill="#d9d9d9" d="m236.67714 499.17126l16.409454 -16.409454l19.118118 19.118103l-16.409454 16.409454z" fill-rule="evenodd"/><path stroke="#000000" stroke-width="1.0" stroke-linejoin="round" stroke-linecap="butt" d="m236.67714 499.17126l16.409454 -16.409454l19.118118 19.118103l-16.409454 16.409454z" fill-rule="evenodd"/><path fill="#999999" d="m230.36707 488.73776l61.102356 61.102386l-122.20471 0z" fill-rule="evenodd"/><path stroke="#000000" stroke-width="1.0" stroke-linejoin="round" stroke-linecap="butt" d="m230.36707 488.73776l61.102356 61.102386l-122.20471 0z" fill-rule="evenodd"/><path fill="#d9d9d9" d="m612.41864 499.3429l15.811035 -15.811035l19.118103 19.118134l-15.811035 15.811005z" fill-rule="evenodd"/><path stroke="#000000" stroke-width="1.0" stroke-linejoin="round" stroke-linecap="butt" d="m612.41864 499.3429l15.811035 -15.811035l19.118103 19.118134l-15.811035 15.811005z" fill-rule="evenodd"/><path fill="#999999" d="m604.8172 488.90967l61.102356 61.102356l-122.20471 0z" fill-rule="evenodd"/><path stroke="#000000" stroke-width="1.0" stroke-linejoin="round" stroke-linecap="butt" d="m604.8172 488.90967l61.102356 61.102356l-122.20471 0z" fill-rule="evenodd"/><path fill="#d9d9d9" d="m595.59454 498.06717l-14.362244 -14.362213l-19.118103 19.118103l14.362183 14.362183z" fill-rule="evenodd"/><path stroke="#000000" stroke-width="1.0" stroke-linejoin="round" stroke-linecap="butt" d="m595.59454 498.06717l-14.362244 -14.362213l-19.118103 19.118103l14.362183 14.362183z" fill-rule="evenodd"/><path fill="#999999" d="m729.6335 488.56454l61.102356 61.102386l-122.20471 0z" fill-rule="evenodd"/><path stroke="#000000" stroke-width="1.0" stroke-linejoin="round" stroke-linecap="butt" d="m729.6335 488.56454l61.102356 61.102386l-122.20471 0z" fill-rule="evenodd"/><path fill="#d9d9d9" d="m720.41077 497.72202l-14.362183 -14.362213l-19.118103 19.118134l14.362183 14.362213z" fill-rule="evenodd"/><path stroke="#000000" stroke-width="1.0" stroke-linejoin="round" stroke-linecap="butt" d="m720.41077 497.72202l-14.362183 -14.362213l-19.118103 19.118134l14.362183 14.362213z" fill-rule="evenodd"/></g></svg>