<svg version="1.1" viewBox="410 295 132 125" fill="none" stroke="none" stroke-linecap="square" stroke-miterlimit="10" xmlns:xlink="http://www.w3.org/1999/xlink" xmlns="http://www.w3.org/2000/svg"><clipPath id="p.0"><path d="m0 0l960.0 0l0 720.0l-960.0 0l0 -720.0z" clip-rule="nonzero"/></clipPath><g clip-path="url(#p.0)"><path fill="#000000" fill-opacity="0.0" d="m0 0l960.0 0l0 720.0l-960.0 0z" fill-rule="evenodd"/><path fill="#f67a58" d="m417.6063 360.0l62.393707 -62.393707l62.393677 62.393707l-62.393677 62.393707z" fill-rule="evenodd"/><path stroke="#000000" stroke-width="1.0" stroke-linejoin="round" stroke-linecap="butt" d="m417.6063 360.0l62.393707 -62.393707l62.393677 62.393707l-62.393677 62.393707z" fill-rule="evenodd"/><path fill="#d76f52" d="m457.98294 359.6215l41.637787 -41.637787l22.393677 22.393707l-41.637756 41.637787z" fill-rule="evenodd"/><path stroke="#000000" stroke-width="1.0" stroke-linejoin="round" stroke-linecap="butt" d="m457.98294 359.6215l41.637787 -41.637787l22.393677 22.393707l-41.637756 41.637787z" fill-rule="evenodd"/><path fill="#d76f52" d="m460.14566 317.75067l62.26773 62.2677l-22.393707 22.393707l-62.26773 -62.26773z" fill-rule="evenodd"/><path stroke="#000000" stroke-width="1.0" stroke-linejoin="round" stroke-linecap="butt" d="m460.14566 317.75067l62.26773 62.2677l-22.393707 22.393707l-62.26773 -62.26773z" fill-rule="evenodd"/><path fill="#d76f52" d="m467.47113 350.61435l32.37796 -32.37796l21.921234 21.921265l-32.37793 32.37793z" fill-rule="evenodd"/></g></svg>