<svg version="1.1" viewBox="410 295 132 125" fill="none" stroke="none" stroke-linecap="square" stroke-miterlimit="10" xmlns:xlink="http://www.w3.org/1999/xlink" xmlns="http://www.w3.org/2000/svg"><clipPath id="p.0"><path d="m0 0l960.0 0l0 720.0l-960.0 0l0 -720.0z" clip-rule="nonzero"/></clipPath><g clip-path="url(#p.0)"><path fill="#000000" fill-opacity="0.0" d="m0 0l960.0 0l0 720.0l-960.0 0z" fill-rule="evenodd"/><path fill="#3daab6" d="m417.4882 360.0l62.393707 -62.393707l62.393677 62.393707l-62.393677 62.393707z" fill-rule="evenodd"/><path stroke="#000000" stroke-width="1.0" stroke-linejoin="round" stroke-linecap="butt" d="m417.4882 360.0l62.393707 -62.393707l62.393677 62.393707l-62.393677 62.393707z" fill-rule="evenodd"/><path fill="#407b7f" d="m459.63315 317.88434c11.892273 10.957306 18.571075 26.192902 18.450562 42.08914c-0.12054443 15.89624 -7.029663 31.035187 -19.086823 41.822205l-19.503906 -20.44629c6.5314636 -5.503296 10.291229 -13.339752 10.355499 -21.58377c0.0642395 -8.243988 -3.5729675 -16.131378 -10.017914 -21.723999z" fill-rule="evenodd"/><path stroke="#000000" stroke-width="1.0" stroke-linejoin="round" stroke-linecap="butt" d="m459.63315 317.88434c11.892273 10.957306 18.571075 26.192902 18.450562 42.08914c-0.12054443 15.89624 -7.029663 31.035187 -19.086823 41.822205l-19.503906 -20.44629c6.5314636 -5.503296 10.291229 -13.339752 10.355499 -21.58377c0.0642395 -8.243988 -3.5729675 -16.131378 -10.017914 -21.723999z" fill-rule="evenodd"/><path fill="#407b7f" d="m500.34323 401.64505c-11.817017 -10.899933 -18.481628 -26.029022 -18.428223 -41.833282c0.05340576 -15.80426 6.8201294 -30.890747 18.710571 -41.715576l20.037445 20.642792c-6.345154 5.4286804 -9.973419 13.107513 -10.001465 21.167084c-0.028015137 8.05954 3.546692 15.760468 9.853943 21.227966z" fill-rule="evenodd"/><path stroke="#000000" stroke-width="1.0" stroke-linejoin="round" stroke-linecap="butt" d="m500.34323 401.64505c-11.817017 -10.899933 -18.481628 -26.029022 -18.428223 -41.833282c0.05340576 -15.80426 6.8201294 -30.890747 18.710571 -41.715576l20.037445 20.642792c-6.345154 5.4286804 -9.973419 13.107513 -10.001465 21.167084c-0.028015137 8.05954 3.546692 15.760468 9.853943 21.227966z" fill-rule="evenodd"/></g></svg>