<svg version="1.1" viewBox="410 295 132 125" fill="none" stroke="none" stroke-linecap="square" stroke-miterlimit="10" xmlns:xlink="http://www.w3.org/1999/xlink" xmlns="http://www.w3.org/2000/svg"><clipPath id="p.0"><path d="m0 0l960.0 0l0 720.0l-960.0 0l0 -720.0z" clip-rule="nonzero"/></clipPath><g clip-path="url(#p.0)"><path fill="#000000" fill-opacity="0.0" d="m0 0l960.0 0l0 720.0l-960.0 0z" fill-rule="evenodd"/><path fill="#fcdf4b" d="m417.6063 360.0l62.393707 -62.393707l62.393677 62.393707l-62.393677 62.393707z" fill-rule="evenodd"/><path stroke="#000000" stroke-width="1.0" stroke-linejoin="round" stroke-linecap="butt" d="m417.6063 360.0l62.393707 -62.393707l62.393677 62.393707l-62.393677 62.393707z" fill-rule="evenodd"/><path fill="#e9b351" d="m459.99026 317.59317l36.346466 36.314972l-22.393707 22.393707l-36.346436 -36.314972z" fill-rule="evenodd"/><path stroke="#000000" stroke-width="1.0" stroke-linejoin="round" stroke-linecap="butt" d="m459.99026 317.59317l36.346466 36.314972l-22.393707 22.393707l-36.346436 -36.314972z" fill-rule="evenodd"/><path fill="#e9b351" d="m437.53412 380.07126l62.48819 -62.48819l22.393707 22.393707l-62.48819 62.48819z" fill-rule="evenodd"/><path stroke="#000000" stroke-width="1.0" stroke-linejoin="round" stroke-linecap="butt" d="m437.53412 380.07126l62.48819 -62.48819l22.393707 22.393707l-62.48819 62.48819z" fill-rule="evenodd"/><path fill="#e9b351" d="m461.31558 319.6273l25.102356 25.102386l-21.669312 21.669281l-25.102356 -25.102356z" fill-rule="evenodd"/></g></svg>