<svg version="1.1" viewBox="410 295 132 125" fill="none" stroke="none" stroke-linecap="square" stroke-miterlimit="10" xmlns:xlink="http://www.w3.org/1999/xlink" xmlns="http://www.w3.org/2000/svg">
  <defs>
    <clipPath id="p.0"><path d="m0 0l960.0 0l0 720.0l-960.0 0l0 -720.0z" clip-rule="nonzero"/></clipPath>
  </defs>
  <g id="marblePieceArt" clip-path="url(#p.0)">
    <path fill-rule="evenodd" d="m0 0l960.0 0l0 720.0l-960.0 0z" style="fill: #000000 !important; fill-opacity: 0 !important; stroke: none !important"/>
    <path fill-rule="evenodd" d="m417.6063 360.0l62.393707 -62.393707l62.393677 62.393707l-62.393677 62.393707z" style="fill: #fcdf4b !important; stroke: none !important"/>
    <path fill-rule="evenodd" d="m417.6063 360.0l62.393707 -62.393707l62.393677 62.393707l-62.393677 62.393707z" style="fill: none !important; stroke: #000000 !important; stroke-width: 1 !important; stroke-linejoin: round !important; stroke-linecap: butt !important"/>
    <path fill-rule="evenodd" d="m459.99026 317.59317l36.346466 36.314972l-22.393707 22.393707l-36.346436 -36.314972z" style="fill: #e9b351 !important; stroke: none !important"/>
    <path fill-rule="evenodd" d="m459.99026 317.59317l36.346466 36.314972l-22.393707 22.393707l-36.346436 -36.314972z" style="fill: none !important; stroke: #000000 !important; stroke-width: 1 !important; stroke-linejoin: round !important; stroke-linecap: butt !important"/>
    <path fill-rule="evenodd" d="m437.53412 380.07126l62.48819 -62.48819l22.393707 22.393707l-62.48819 62.48819z" style="fill: #e9b351 !important; stroke: none !important"/>
    <path fill-rule="evenodd" d="m437.53412 380.07126l62.48819 -62.48819l22.393707 22.393707l-62.48819 62.48819z" style="fill: none !important; stroke: #000000 !important; stroke-width: 1 !important; stroke-linejoin: round !important; stroke-linecap: butt !important"/>
    <path fill-rule="evenodd" d="m461.31558 319.6273l25.102356 25.102386l-21.669312 21.669281l-25.102356 -25.102356z" style="fill: #e9b351 !important; stroke: none !important"/>
  </g>
  <defs>
    <symbol id="MoveButtonSVG" viewBox="410 295 132 125">
      <use href="#marblePieceArt" xlink:href="#marblePieceArt"/>
      <circle cx="479.99" cy="360" r="10" fill="inherit" pointer-events="none" style="stroke: none !important"/>
    </symbol>
  </defs>
</svg>
