<svg xmlns="http://www.w3.org/2000/svg" xmlns:xlink="http://www.w3.org/1999/xlink" width="1080" zoomAndPan="magnify" viewBox="0 0 810 809.999993" height="1080" preserveAspectRatio="xMidYMid meet" version="1.0"><defs><clipPath id="921e2a34c3"><path d="M 233.097656 275 L 571.664062 275 L 571.664062 724.5 L 233.097656 724.5 Z M 233.097656 275 " clip-rule="nonzero"/></clipPath><clipPath id="747e1f1a9f"><path d="M 445 200 L 792.519531 200 L 792.519531 432 L 445 432 Z M 445 200 " clip-rule="nonzero"/></clipPath></defs><path fill="#050606" d="M 515.417969 289.273438 C 515.472656 234.679688 466.015625 172.539062 404.933594 172.480469 C 343.847656 172.410156 294.261719 234.449219 294.207031 289.039062 C 294.148438 343.640625 343.710938 298.820312 404.800781 298.882812 C 465.886719 298.945312 515.355469 343.875 515.417969 289.273438 " fill-opacity="1" fill-rule="nonzero"/><path fill="#050606" d="M 466.625 302.679688 C 478.566406 306.085938 488.867188 309.027344 496.195312 309.03125 C 501.464844 309.039062 508.023438 309.042969 508.042969 289.269531 C 508.097656 239.71875 462.109375 179.828125 404.921875 179.769531 C 347.738281 179.707031 301.628906 239.503906 301.582031 289.050781 C 301.554688 308.828125 308.121094 308.835938 313.386719 308.839844 C 320.710938 308.847656 331.019531 305.925781 342.964844 302.546875 C 360.238281 297.652344 381.738281 291.570312 404.804688 291.59375 C 427.871094 291.613281 449.359375 297.75 466.625 302.679688 Z M 286.828125 289.035156 C 286.890625 231.703125 338.496094 165.117188 404.941406 165.183594 C 471.378906 165.257812 522.847656 231.949219 522.792969 289.28125 C 522.769531 312.082031 513.8125 323.636719 496.183594 323.617188 C 486.777344 323.609375 475.542969 320.398438 462.535156 316.691406 C 445.3125 311.777344 425.78125 306.195312 404.792969 306.179688 C 383.804688 306.152344 364.261719 311.691406 347.027344 316.566406 C 334.011719 320.253906 322.773438 323.4375 313.367188 323.425781 C 295.730469 323.40625 286.804688 311.835938 286.828125 289.035156 " fill-opacity="1" fill-rule="nonzero"/><path fill="#ff3131" d="M 403.1875 275.667969 C 492.324219 275.757812 564.523438 341.921875 564.40625 451.738281 C 564.300781 553.042969 512.550781 636.597656 433.039062 648.875 C 426.351562 649.90625 377.425781 649.703125 369.898438 648.371094 C 291.695312 634.5 241.496094 551.574219 241.597656 451.40625 C 241.714844 341.585938 314.042969 275.570312 403.1875 275.667969 " fill-opacity="1" fill-rule="nonzero"/><g clip-path="url(#921e2a34c3)"><path fill="#050606" d="M 248.582031 458.171875 C 248.476562 557.078125 298.734375 635.082031 370.792969 647.867188 C 382.261719 649.902344 424.875 649.371094 431.519531 648.34375 C 505.082031 636.988281 556.539062 558.917969 556.644531 458.492188 C 556.742188 359.265625 493.476562 289.894531 402.789062 289.804688 C 312.097656 289.703125 248.6875 358.945312 248.582031 458.171875 Z M 371.558594 665.308594 C 369.5625 663.378906 366.988281 662.191406 364.269531 661.632812 C 326.011719 653.695312 293.410156 630.027344 269.777344 592.972656 C 246.546875 556.542969 233.78125 508.667969 233.832031 458.152344 C 233.890625 403.75 251 357.34375 283.316406 323.949219 C 313.875 292.367188 356.308594 275.003906 402.800781 275.050781 C 449.292969 275.101562 491.691406 292.558594 522.183594 324.203125 C 554.429688 357.664062 571.441406 404.105469 571.386719 458.507812 C 571.277344 562.753906 518.414062 644.769531 441.816406 661.429688 C 437.910156 662.277344 434.523438 664.664062 432.386719 668.042969 C 419.371094 688.613281 416.734375 728.027344 405.800781 724.246094 C 390.523438 718.960938 388.386719 681.613281 371.558594 665.308594 " fill-opacity="1" fill-rule="nonzero"/></g><path fill="#050606" d="M 276.101562 578.589844 C 418.714844 514 531.421875 573.648438 532.546875 574.257812 L 562.210938 511.605469 C 556.519531 508.519531 420.933594 436.726562 250.597656 513.878906 L 276.101562 578.589844 " fill-opacity="1" fill-rule="nonzero"/><path fill="#050606" d="M 236.683594 450.605469 C 379.300781 385.097656 563.292969 443.175781 564.414062 443.796875 L 546.464844 373.65625 C 540.773438 370.515625 431.691406 287.964844 261.351562 366.203125 L 236.683594 450.605469 " fill-opacity="1" fill-rule="nonzero"/><path fill="#050606" d="M 344.496094 200.761719 L 359.070312 199.097656 C 358.835938 198 353.226562 171.929688 341.925781 144.753906 C 325.835938 106.074219 307.289062 86.039062 285.21875 83.511719 C 264.039062 81.089844 243.511719 94.929688 222.457031 125.832031 L 235.652344 130.679688 C 252.96875 105.257812 269.292969 92.648438 282.953125 94.203125 C 311.957031 97.523438 336.09375 161.328125 344.496094 200.761719 " fill-opacity="1" fill-rule="nonzero"/><path fill="#050606" d="M 222.296875 111.628906 C 216.675781 127.359375 223.109375 142.234375 236.679688 144.851562 C 250.246094 147.46875 265.804688 136.839844 271.433594 121.109375 C 277.054688 105.375 270.621094 90.5 257.050781 87.886719 C 243.480469 85.265625 227.917969 95.894531 222.296875 111.628906 " fill-opacity="1" fill-rule="nonzero"/><path fill="#050606" d="M 462.023438 200.886719 L 447.457031 199.1875 C 447.699219 198.09375 453.355469 172.035156 464.71875 144.882812 C 480.890625 106.234375 499.480469 86.242188 521.550781 83.765625 C 542.734375 81.378906 563.238281 95.269531 584.226562 126.207031 L 571.023438 131.023438 C 553.757812 105.570312 537.457031 92.929688 523.800781 94.457031 C 494.785156 97.714844 470.511719 161.460938 462.023438 200.886719 " fill-opacity="1" fill-rule="nonzero"/><path fill="#050606" d="M 584.417969 112.003906 C 590.007812 127.746094 583.535156 142.609375 569.96875 145.199219 C 556.390625 147.789062 540.851562 137.128906 535.261719 121.386719 C 529.671875 105.640625 536.140625 90.777344 549.710938 88.195312 C 563.285156 85.597656 578.824219 96.265625 584.417969 112.003906 " fill-opacity="1" fill-rule="nonzero"/><path fill="#ffffff" d="M 452.496094 411.832031 C 452.496094 411.832031 585.898438 320.332031 665.722656 379.976562 C 745.535156 439.625 726.222656 517.542969 655.683594 537.382812 C 585.140625 557.226562 452.496094 411.832031 452.496094 411.832031 " fill-opacity="1" fill-rule="nonzero"/><path fill="#050606" d="M 462.929688 413.179688 C 487.078125 438.371094 581.1875 532.292969 641.394531 532.363281 C 645.917969 532.367188 650.160156 531.816406 654.03125 530.730469 C 684.878906 522.050781 705.910156 501.316406 710.296875 475.265625 C 715.382812 445.027344 697.777344 412.34375 661.996094 385.609375 C 645.214844 373.066406 624.382812 366.695312 600.070312 366.671875 C 543.492188 366.609375 483.03125 400.761719 462.929688 413.179688 Z M 447.851562 416.625 L 442.351562 410.597656 L 448.988281 406.042969 C 452.15625 403.875 527.417969 352.824219 600.082031 352.902344 C 627.105469 352.929688 650.4375 360.144531 669.445312 374.339844 C 709.515625 404.292969 729.050781 441.957031 723.042969 477.6875 C 717.746094 509.152344 693.183594 533.957031 657.332031 544.039062 C 652.386719 545.433594 647.019531 546.132812 641.382812 546.128906 C 641.378906 546.128906 641.382812 546.128906 641.382812 546.128906 C 566.78125 546.046875 452.667969 421.910156 447.851562 416.625 " fill-opacity="1" fill-rule="nonzero"/><path fill="#ffffff" d="M 454.304688 409.082031 C 454.304688 409.082031 531.558594 207.128906 657.550781 207.226562 C 783.546875 207.332031 817.453125 304.941406 756.703125 381.554688 C 695.953125 458.175781 454.304688 409.082031 454.304688 409.082031 " fill-opacity="1" fill-rule="nonzero"/><g clip-path="url(#747e1f1a9f)"><path fill="#050606" d="M 514.039062 311.984375 C 487.828125 349.667969 470.359375 387.800781 463.523438 403.832031 C 484.949219 407.679688 546.085938 417.621094 607.515625 417.6875 C 607.519531 417.6875 607.527344 417.6875 607.527344 417.6875 C 680.777344 417.761719 730.652344 403.730469 751.753906 377.121094 C 778.808594 343.007812 786.695312 303.691406 772.847656 271.96875 C 756.832031 235.257812 714.824219 214.171875 657.542969 214.109375 C 595.242188 214.066406 545.117188 267.308594 514.039062 311.984375 Z M 453.085938 415.84375 L 445.328125 414.273438 L 448.308594 406.488281 C 449.105469 404.394531 468.328125 354.621094 503.472656 304.03125 C 550.621094 236.15625 603.902344 200.300781 657.621094 200.34375 C 720.082031 200.414062 766.363281 224.410156 784.589844 266.175781 C 800.609375 302.878906 792.035156 347.675781 761.648438 385.996094 C 737.664062 416.242188 685.808594 431.535156 607.515625 431.457031 C 607.507812 431.457031 607.515625 431.457031 607.503906 431.457031 C 530.402344 431.375 453.847656 416.003906 453.085938 415.84375 " fill-opacity="1" fill-rule="nonzero"/></g><path fill="#ffffff" d="M 357.378906 411.832031 C 357.378906 411.832031 223.976562 320.332031 144.15625 379.976562 C 64.335938 439.625 83.652344 517.542969 154.195312 537.382812 C 224.738281 557.226562 357.378906 411.832031 357.378906 411.832031 " fill-opacity="1" fill-rule="nonzero"/><path fill="#050606" d="M 209.808594 366.671875 C 185.5 366.695312 164.660156 373.066406 147.878906 385.609375 C 112.097656 412.34375 94.492188 445.027344 99.578125 475.265625 C 103.964844 501.316406 124.996094 522.050781 155.851562 530.730469 C 159.714844 531.816406 163.964844 532.367188 168.480469 532.363281 C 228.695312 532.292969 322.796875 438.371094 346.945312 413.179688 C 326.84375 400.761719 266.390625 366.609375 209.808594 366.671875 Z M 168.496094 546.128906 C 168.492188 546.128906 168.496094 546.128906 168.492188 546.128906 C 162.855469 546.132812 157.488281 545.433594 152.542969 544.039062 C 116.691406 533.957031 92.128906 509.152344 86.839844 477.6875 C 80.824219 441.957031 100.367188 404.292969 140.429688 374.339844 C 159.4375 360.144531 182.769531 352.929688 209.792969 352.902344 C 282.457031 352.824219 357.71875 403.875 360.886719 406.042969 L 367.523438 410.597656 L 362.027344 416.625 C 357.207031 421.910156 243.09375 546.046875 168.496094 546.128906 " fill-opacity="1" fill-rule="nonzero"/><path fill="#ffffff" d="M 355.578125 409.082031 C 355.578125 409.082031 278.316406 207.128906 152.324219 207.226562 C 26.328125 207.332031 -7.578125 304.941406 53.171875 381.554688 C 113.929688 458.175781 355.578125 409.082031 355.578125 409.082031 " fill-opacity="1" fill-rule="nonzero"/><path fill="#050606" d="M 152.332031 214.109375 C 95.050781 214.171875 53.042969 235.257812 37.027344 271.96875 C 23.1875 303.691406 31.066406 343.007812 58.117188 377.121094 C 79.222656 403.730469 129.097656 417.761719 202.347656 417.6875 C 202.347656 417.6875 202.355469 417.6875 202.359375 417.6875 C 263.785156 417.621094 324.929688 407.679688 346.347656 403.832031 C 339.515625 387.800781 322.046875 349.667969 295.835938 311.984375 C 264.757812 267.308594 214.636719 214.066406 152.332031 214.109375 Z M 202.371094 431.457031 C 202.367188 431.457031 202.367188 431.457031 202.359375 431.457031 C 124.066406 431.535156 72.210938 416.242188 48.226562 385.996094 C 17.839844 347.675781 9.265625 302.878906 25.285156 266.175781 C 43.507812 224.410156 89.792969 200.414062 152.257812 200.34375 C 205.972656 200.300781 259.253906 236.15625 306.402344 304.03125 C 341.546875 354.621094 360.769531 404.394531 361.574219 406.488281 L 364.546875 414.273438 L 356.792969 415.84375 C 356.027344 416.003906 279.472656 431.375 202.371094 431.457031 " fill-opacity="1" fill-rule="nonzero"/></svg>