<?xml version="1.0" encoding="utf-8"?>
<!-- Generator: Adobe Illustrator 26.0.1, SVG Export Plug-In . SVG Version: 6.00 Build 0)  -->
<svg version="1.1" id="Layer_1" xmlns="http://www.w3.org/2000/svg" xmlns:xlink="http://www.w3.org/1999/xlink" x="0px" y="0px"
	 viewBox="0 0 120 70" style="enable-background:new 0 0 120 70;" xml:space="preserve">
<style type="text/css">
	.st0{display:none;}
	.st1{display:inline;}
	.st2{fill:#4C4C4C;}
	.st3{fill:#D7D904;}
	.st4{display:none;fill:#231F20;}
	.st5{fill:none;stroke:#A7A9AC;stroke-linecap:round;stroke-miterlimit:10;}
	.st6{fill:#A7A9AC;}
	.st7{display:none;enable-background:new    ;}
	.st8{font-family:'CourierNewPS-BoldMT';}
	.st9{font-size:7px;}
	.st10{fill:none;stroke:#0067AB;stroke-linecap:round;stroke-miterlimit:10;}
</style>
<g id="Layer_2_00000010271836356476073220000003938274399798141841_" class="st0">
	<g id="QU1B9v_00000038388887060491067990000015193004656587622558_" class="st1">
		
			<image style="overflow:visible;enable-background:new    ;" width="1200" height="700" id="QU1B9v" xlink:href="5CBEAC0F981B494F.jpg"  transform="matrix(0.1 0 0 0.1 0 0)">
		</image>
	</g>
</g>
<g id="BG">
	<rect class="st2" width="120" height="70"/>
</g>
<g id="Layer_1_00000060022435760993525630000001593821628244353160_" class="st0">
</g>
<g id="PNG">
	<path class="st3" d="M90,70H30V32.7c0-1.5,1.2-2.7,2.7-2.7h54.7c1.5,0,2.7,1.2,2.7,2.7L90,70L90,70z"/>
</g>
<path class="st4" d="M55,9L55,9c-2.2,0-4-1.8-4-4l0,0c0-2.2,1.8-4,4-4l0,0c2.2,0,4,1.8,4,4l0,0C59,7.2,57.2,9,55,9z"/>
<path class="st4" d="M55,19L55,19c-2.2,0-4-1.8-4-4l0,0c0-2.2,1.8-4,4-4l0,0c2.2,0,4,1.8,4,4l0,0C59,17.2,57.2,19,55,19z"/>
<path class="st4" d="M45,9L45,9c-2.2,0-4-1.8-4-4l0,0c0-2.2,1.8-4,4-4l0,0c2.2,0,4,1.8,4,4l0,0C49,7.2,47.2,9,45,9z"/>
<path class="st4" d="M45,19L45,19c-2.2,0-4-1.8-4-4l0,0c0-2.2,1.8-4,4-4l0,0c2.2,0,4,1.8,4,4l0,0C49,17.2,47.2,19,45,19z"/>
<path class="st4" d="M35,9L35,9c-2.2,0-4-1.8-4-4l0,0c0-2.2,1.8-4,4-4l0,0c2.2,0,4,1.8,4,4l0,0C39,7.2,37.2,9,35,9z"/>
<path class="st4" d="M35,19L35,19c-2.2,0-4-1.8-4-4l0,0c0-2.2,1.8-4,4-4l0,0c2.2,0,4,1.8,4,4l0,0C39,17.2,37.2,19,35,19z"/>
<path class="st4" d="M65,19L65,19c-2.2,0-4-1.8-4-4l0,0c0-2.2,1.8-4,4-4l0,0c2.2,0,4,1.8,4,4l0,0C69,17.2,67.2,19,65,19z"/>
<path class="st4" d="M75,19L75,19c-2.2,0-4-1.8-4-4l0,0c0-2.2,1.8-4,4-4l0,0c2.2,0,4,1.8,4,4l0,0C79,17.2,77.2,19,75,19z"/>
<path class="st4" d="M65,9L65,9c-2.2,0-4-1.8-4-4l0,0c0-2.2,1.8-4,4-4l0,0c2.2,0,4,1.8,4,4l0,0C69,7.2,67.2,9,65,9z"/>
<path class="st4" d="M75,9L75,9c-2.2,0-4-1.8-4-4l0,0c0-2.2,1.8-4,4-4l0,0c2.2,0,4,1.8,4,4l0,0C79,7.2,77.2,9,75,9z"/>
<path class="st4" d="M85,19L85,19c-2.2,0-4-1.8-4-4l0,0c0-2.2,1.8-4,4-4l0,0c2.2,0,4,1.8,4,4l0,0C89,17.2,87.2,19,85,19z"/>
<path class="st4" d="M85,9L85,9c-2.2,0-4-1.8-4-4l0,0c0-2.2,1.8-4,4-4l0,0c2.2,0,4,1.8,4,4l0,0C89,7.2,87.2,9,85,9z"/>
<g>
	<path class="st2" d="M55,39L55,39c-2.2,0-4-1.8-4-4l0,0c0-2.2,1.8-4,4-4l0,0c2.2,0,4,1.8,4,4l0,0C59,37.2,57.2,39,55,39z"/>
	<path class="st2" d="M55,49L55,49c-2.2,0-4-1.8-4-4l0,0c0-2.2,1.8-4,4-4l0,0c2.2,0,4,1.8,4,4l0,0C59,47.2,57.2,49,55,49z"/>
	<path class="st2" d="M45,39L45,39c-2.2,0-4-1.8-4-4l0,0c0-2.2,1.8-4,4-4l0,0c2.2,0,4,1.8,4,4l0,0C49,37.2,47.2,39,45,39z"/>
	<path class="st2" d="M45,49L45,49c-2.2,0-4-1.8-4-4l0,0c0-2.2,1.8-4,4-4l0,0c2.2,0,4,1.8,4,4l0,0C49,47.2,47.2,49,45,49z"/>
	<path class="st2" d="M35,39L35,39c-2.2,0-4-1.8-4-4l0,0c0-2.2,1.8-4,4-4l0,0c2.2,0,4,1.8,4,4l0,0C39,37.2,37.2,39,35,39z"/>
	<path class="st2" d="M35,49L35,49c-2.2,0-4-1.8-4-4l0,0c0-2.2,1.8-4,4-4l0,0c2.2,0,4,1.8,4,4l0,0C39,47.2,37.2,49,35,49z"/>
	<path class="st2" d="M65,49L65,49c-2.2,0-4-1.8-4-4l0,0c0-2.2,1.8-4,4-4l0,0c2.2,0,4,1.8,4,4l0,0C69,47.2,67.2,49,65,49z"/>
	<path class="st2" d="M75,49L75,49c-2.2,0-4-1.8-4-4l0,0c0-2.2,1.8-4,4-4l0,0c2.2,0,4,1.8,4,4l0,0C79,47.2,77.2,49,75,49z"/>
	<path class="st2" d="M65,39L65,39c-2.2,0-4-1.8-4-4l0,0c0-2.2,1.8-4,4-4l0,0c2.2,0,4,1.8,4,4l0,0C69,37.2,67.2,39,65,39z"/>
	<path class="st2" d="M75,39L75,39c-2.2,0-4-1.8-4-4l0,0c0-2.2,1.8-4,4-4l0,0c2.2,0,4,1.8,4,4l0,0C79,37.2,77.2,39,75,39z"/>
	<path class="st2" d="M85,49L85,49c-2.2,0-4-1.8-4-4l0,0c0-2.2,1.8-4,4-4l0,0c2.2,0,4,1.8,4,4l0,0C89,47.2,87.2,49,85,49z"/>
	<path class="st2" d="M85,39L85,39c-2.2,0-4-1.8-4-4l0,0c0-2.2,1.8-4,4-4l0,0c2.2,0,4,1.8,4,4l0,0C89,37.2,87.2,39,85,39z"/>
	<path class="st2" d="M55,59L55,59c-2.2,0-4-1.8-4-4l0,0c0-2.2,1.8-4,4-4l0,0c2.2,0,4,1.8,4,4l0,0C59,57.2,57.2,59,55,59z"/>
	<path class="st2" d="M55,69L55,69c-2.2,0-4-1.8-4-4l0,0c0-2.2,1.8-4,4-4l0,0c2.2,0,4,1.8,4,4l0,0C59,67.2,57.2,69,55,69z"/>
	<path class="st2" d="M45,59L45,59c-2.2,0-4-1.8-4-4l0,0c0-2.2,1.8-4,4-4l0,0c2.2,0,4,1.8,4,4l0,0C49,57.2,47.2,59,45,59z"/>
	<path class="st2" d="M45,69L45,69c-2.2,0-4-1.8-4-4l0,0c0-2.2,1.8-4,4-4l0,0c2.2,0,4,1.8,4,4l0,0C49,67.2,47.2,69,45,69z"/>
	<path class="st2" d="M35,59L35,59c-2.2,0-4-1.8-4-4l0,0c0-2.2,1.8-4,4-4l0,0c2.2,0,4,1.8,4,4l0,0C39,57.2,37.2,59,35,59z"/>
	<path class="st2" d="M35,69L35,69c-2.2,0-4-1.8-4-4l0,0c0-2.2,1.8-4,4-4l0,0c2.2,0,4,1.8,4,4l0,0C39,67.2,37.2,69,35,69z"/>
	<path class="st2" d="M65,69L65,69c-2.2,0-4-1.8-4-4l0,0c0-2.2,1.8-4,4-4l0,0c2.2,0,4,1.8,4,4l0,0C69,67.2,67.2,69,65,69z"/>
	<path class="st2" d="M75,69L75,69c-2.2,0-4-1.8-4-4l0,0c0-2.2,1.8-4,4-4l0,0c2.2,0,4,1.8,4,4l0,0C79,67.2,77.2,69,75,69z"/>
	<path class="st2" d="M65,59L65,59c-2.2,0-4-1.8-4-4l0,0c0-2.2,1.8-4,4-4l0,0c2.2,0,4,1.8,4,4l0,0C69,57.2,67.2,59,65,59z"/>
	<path class="st2" d="M75,59L75,59c-2.2,0-4-1.8-4-4l0,0c0-2.2,1.8-4,4-4l0,0c2.2,0,4,1.8,4,4l0,0C79,57.2,77.2,59,75,59z"/>
	<path class="st2" d="M85,69L85,69c-2.2,0-4-1.8-4-4l0,0c0-2.2,1.8-4,4-4l0,0c2.2,0,4,1.8,4,4l0,0C89,67.2,87.2,69,85,69z"/>
	<path class="st2" d="M85,59L85,59c-2.2,0-4-1.8-4-4l0,0c0-2.2,1.8-4,4-4l0,0c2.2,0,4,1.8,4,4l0,0C89,57.2,87.2,59,85,59z"/>
</g>
<g>
	<g>
		<line class="st5" x1="35" y1="21" x2="35" y2="26.1"/>
		<g>
			<polygon class="st6" points="33,25.5 35,29 37,25.5 			"/>
		</g>
	</g>
</g>
<g>
	<g>
		<line class="st5" x1="45" y1="21" x2="45" y2="26.1"/>
		<g>
			<polygon class="st6" points="43,25.5 45,29 47,25.5 			"/>
		</g>
	</g>
</g>
<g>
	<g>
		<line class="st5" x1="55" y1="21" x2="55" y2="26.1"/>
		<g>
			<polygon class="st6" points="53,25.5 55,29 57,25.5 			"/>
		</g>
	</g>
</g>
<g>
	<g>
		<line class="st5" x1="65" y1="21" x2="65" y2="26.1"/>
		<g>
			<polygon class="st6" points="63,25.5 65,29 67,25.5 			"/>
		</g>
	</g>
</g>
<g>
	<g>
		<line class="st5" x1="75" y1="21" x2="75" y2="26.1"/>
		<g>
			<polygon class="st6" points="73,25.5 75,29 77,25.5 			"/>
		</g>
	</g>
</g>
<g>
	<g>
		<line class="st5" x1="85" y1="21" x2="85" y2="26.1"/>
		<g>
			<polygon class="st6" points="83,25.5 85,29 87,25.5 			"/>
		</g>
	</g>
</g>
<g id="TOOT_OTTO">
	<text transform="matrix(1 0 0 1 22.8992 6.9999)" class="st7 st8 st9">T</text>
	<g>
		<line class="st10" x1="110.8" y1="5" x2="113.8" y2="5"/>
		<line class="st10" x1="112.2" y1="5" x2="112.2" y2="9"/>
	</g>
	<g>
		<line class="st10" x1="106.2" y1="5" x2="109.2" y2="5"/>
		<line class="st10" x1="107.8" y1="5" x2="107.8" y2="9"/>
	</g>
	<circle class="st10" cx="103.2" cy="7" r="2"/>
	<circle class="st10" cx="116.8" cy="7" r="2"/>
	<g>
		<line class="st10" x1="1.2" y1="5" x2="4.2" y2="5"/>
		<line class="st10" x1="2.8" y1="5" x2="2.8" y2="9"/>
	</g>
	<g>
		<line class="st10" x1="15.8" y1="5" x2="18.8" y2="5"/>
		<line class="st10" x1="17.2" y1="5" x2="17.2" y2="9"/>
	</g>
	<circle class="st10" cx="12.8" cy="7" r="2"/>
	<circle class="st10" cx="7.2" cy="7" r="2"/>
</g>
</svg>
