<?xml version="1.0" encoding="UTF-8"?>
<svg id="Layer_1" xmlns="http://www.w3.org/2000/svg" version="1.1" viewBox="0 0 160 160">
  <!-- Generator: Adobe Illustrator 30.2.1, SVG Export Plug-In . SVG Version: 2.1.1 Build 1)  -->
  <defs>
    <style>
      .st0 {
        fill: #c1b49a;
      }

      .st1 {
        fill: #f8b2a9;
      }

      .st2 {
        fill: #f6f4c0;
      }
    </style>
  </defs>
  <rect class="st2" width="160" height="160"/>
  <rect class="st0" x="9.3" y="14.88" width="31.63" height="7.44"/>
  <rect class="st0" x="44.65" y=".93" width="23.26" height="6.51"/>
  <rect class="st0" x="77.21" y="19.53" width="24.19" height="6.51"/>
  <rect class="st0" x="119.07" y=".93" width="33.49" height="7.44"/>
  <rect class="st0" x="30.7" y="45.58" width="26.05" height="7.44"/>
  <rect class="st0" x="83.72" y="43.72" width="26.05" height="9.3"/>
  <rect class="st0" x="119.07" y="36.28" width="35.35" height="9.3"/>
  <rect class="st0" x="21.4" y="66.98" width="40" height="8.37"/>
  <rect class="st0" x="109.77" y="68.84" width="21.4" height="6.51"/>
  <rect class="st0" y="84.65" width="25.12" height="9.3"/>
  <rect class="st0" x="25.12" y="99.53" width="28.84" height="7.44"/>
  <rect class="st0" x="84.65" y="87.44" width="39.07" height="8.37"/>
  <rect class="st0" x="142.33" y="84.65" width="17.67" height="6.51"/>
  <rect class="st0" y="120" width="36.28" height="8.37"/>
  <rect class="st0" x="56.74" y="112.56" width="36.28" height="8.37"/>
  <rect class="st0" x="102.33" y="123.72" width="21.4" height="7.44"/>
  <rect class="st0" x="136.74" y="121.86" width="23.26" height="8.37"/>
  <rect class="st0" x="23.26" y="146.98" width="28.84" height="5.58"/>
  <rect class="st0" x="77.21" y="147.91" width="25.12" height="7.44"/>
  <rect class="st0" x="120" y="147.91" width="9.3" height="3.72"/>
  <rect class="st0" x="134.88" y="137.67" width="13.95" height="5.58"/>
  <circle class="st1" cx="80.47" cy="75.81" r="33.02"/>
</svg>