<?xml version="1.0" encoding="UTF-8"?>
<svg id="Layer_1" xmlns="http://www.w3.org/2000/svg" version="1.1" viewBox="0 0 160 160">
  <!-- Generator: Adobe Illustrator 30.2.1, SVG Export Plug-In . SVG Version: 2.1.1 Build 1)  -->
  <defs>
    <style>
      .st0 {
        fill: #6d6e70;
        stroke: #333;
        stroke-miterlimit: 10;
      }
    </style>
  </defs>
  <rect class="st0" x="0" width="160" height="160"/>
  <rect class="st0" width="65.66" height="31.3"/>
  <rect class="st0" x="65.66" width="65.66" height="31.3"/>
  <rect class="st0" x="29.45" y="31.3" width="65.66" height="31.2"/>
  <rect class="st0" x="95.11" y="31.3" width="64.89" height="31.64"/>
  <rect class="st0" x="0" y="62.5" width="65.66" height="32"/>
  <rect class="st0" x="65.66" y="62.5" width="65.66" height="32" rx="1.13" ry="1.13"/>
  <rect class="st0" x="32.83" y="94.5" width="65.66" height="33.2"/>
  <polygon class="st0" points="98.49 94.5 98.49 127.5 160 127.5 159.88 94.5 98.49 94.5"/>
  <rect class="st0" x="0" y="127.69" width="65.66" height="32"/>
  <rect class="st0" x="65.66" y="127.69" width="65.66" height="32"/>
  <polygon class="st0" points="131.32 0 131.32 31.3 160 31.3 159.89 0 131.32 0"/>
  <polygon class="st0" points="131.32 62.5 131.32 94.5 160 94.5 159.89 62.5 131.32 62.5"/>
  <polygon class="st0" points="131.32 127.69 131.32 159.69 160 159.69 159.89 127.69 131.32 127.69"/>
</svg>