<?xml version="1.0" encoding="UTF-8"?>
<svg id="Layer_1" xmlns="http://www.w3.org/2000/svg" version="1.1" viewBox="0 0 160 160">
  <!-- Generator: Adobe Illustrator 30.2.1, SVG Export Plug-In . SVG Version: 2.1.1 Build 1)  -->
  <defs>
    <style>
      .st0 {
        fill: #603813;
      }

      .st1 {
        fill: #6d6e70;
      }

      .st2, .st3 {
        fill: #a87c4f;
      }

      .st4 {
        fill: #26a9e0;
      }

      .st4, .st5, .st6, .st3, .st7, .st8 {
        stroke: #231f20;
        stroke-miterlimit: 10;
      }

      .st4, .st5, .st6, .st3, .st8 {
        stroke-width: 2px;
      }

      .st5 {
        fill: #231f20;
      }

      .st9 {
        fill: #c1b49a;
      }

      .st6 {
        fill: #faf184;
      }

      .st10 {
        fill: #dfe454;
      }

      .st11 {
        fill: #bdd632;
      }

      .st7 {
        fill: none;
        stroke-width: 3px;
      }

      .st8 {
        fill: #bbbdbf;
      }

      .st12 {
        fill: #f6f4c0;
      }

      .st13 {
        fill: #929497;
      }

      .st14 {
        fill: #2267b1;
      }
    </style>
  </defs>
  <rect class="st12" x=".49" y="-.41" width="160" height="160"/>
  <rect class="st9" x="9.79" y="14.48" width="31.63" height="7.44"/>
  <rect class="st9" x="45.14" y=".52" width="23.26" height="6.51"/>
  <rect class="st9" x="77.7" y="19.13" width="24.19" height="6.51"/>
  <rect class="st9" x="119.56" y=".52" width="33.49" height="7.44"/>
  <rect class="st9" x="31.19" y="45.17" width="26.05" height="7.44"/>
  <rect class="st9" x="84.21" y="43.31" width="26.05" height="9.3"/>
  <rect class="st9" x="119.56" y="35.87" width="35.35" height="9.3"/>
  <rect class="st9" x="21.88" y="66.57" width="40" height="8.37"/>
  <rect class="st9" x="110.26" y="68.43" width="21.4" height="6.51"/>
  <rect class="st9" x=".49" y="84.24" width="25.12" height="9.3"/>
  <rect class="st9" x="25.6" y="99.13" width="28.84" height="7.44"/>
  <rect class="st9" x="85.14" y="87.03" width="39.07" height="8.37"/>
  <rect class="st9" x="142.81" y="84.24" width="17.67" height="6.51"/>
  <rect class="st9" x=".49" y="119.59" width="36.28" height="8.37"/>
  <rect class="st9" x="57.23" y="112.15" width="36.28" height="8.37"/>
  <rect class="st9" x="102.81" y="123.31" width="21.4" height="7.44"/>
  <rect class="st9" x="137.23" y="121.45" width="23.26" height="8.37"/>
  <rect class="st9" x="23.74" y="146.57" width="28.84" height="5.58"/>
  <rect class="st9" x="77.7" y="147.5" width="25.12" height="7.44"/>
  <rect class="st9" x="120.49" y="147.5" width="9.3" height="3.72"/>
  <rect class="st9" x="135.37" y="137.27" width="13.95" height="5.58"/>
  <path class="st8" d="M122.01,81.51c0-13.69-19.04-24.78-42.52-24.78s-42.52,11.09-42.52,24.78c0,1.11.14,2.2.38,3.27h-.38v21.51h85.05v-21.51h-.38c.24-1.07.38-2.16.38-3.27Z"/>
  <ellipse class="st5" cx="79.99" cy="28.67" rx="28" ry="26.18"/>
  <path class="st3" d="M65.99,116.95l-38.24,34.17c-.44,1.65-.34,3.21.56,4.73h37.68v-38.9Z"/>
  <path class="st3" d="M93.56,116.11l.14,40.58,36.4-.11c.96-1.02,1.61-2.11,1.77-3.34l-38.31-37.13Z"/>
  <path class="st4" d="M122.03,107.42H37.01v34.22h29.19c.45-9.55,6.24-17.11,13.33-17.11s12.88,7.56,13.33,17.11h29.19v-34.22Z"/>
  <path class="st5" d="M68.9,5.11c-10.34,3.73-17.73,13.25-17.9,24.47,11.17,0,20.97-5.76,25.48-16.16-2.98-2.21-5.58-4.89-7.57-8.31Z"/>
  <path class="st5" d="M81.58,3.42c-3.41,0-6.67.6-9.68,1.69,2,3.42,4.6,6.1,7.57,8.31,1.29-2.96,2.14-6.3,2.48-9.99-.13,0-.25,0-.38,0Z"/>
  <path class="st6" d="M107.95,30.63c-.77-1.52-.77-3.03-1.55-3.79-9.18-4.22-20.6-6.61-29.1-12.49-4.66,9.99-14.77,15.53-26.31,15.53,0,.13-.01.25-.01.38,0,14.1,12.75,25.52,28.49,25.52s28.26-11.23,28.48-25.16Z"/>
  <line class="st7" x1="65.33" y1="32.74" x2="73.64" y2="32.74"/>
  <line class="st7" x1="88.76" y1="32.74" x2="97.08" y2="32.74"/>
  <ellipse class="st13" cx="69.79" cy="35.85" rx="2.2" ry="2.17"/>
  <ellipse class="st13" cx="93.01" cy="35.92" rx="1.98" ry="2.1"/>
  <path class="st14" d="M38.08,113.77v2.81h83.01v-2.81H38.08Z"/>
  <rect class="st14" x="72.51" y="114.58" width="14.96" height="4" rx=".54" ry=".54" transform="translate(196.56 36.59) rotate(90)"/>
  <path class="st0" d="M37.99,110.96v2.78h8v-2.78h-8Z"/>
  <path class="st0" d="M61.99,110.96v2.78h35v-2.78h-35Z"/>
  <path class="st0" d="M117.99,110.96h-8v2.78h8v-2.78Z"/>
  <path class="st2" d="M37.99,108.3v2.67h8v-2.67h-8Z"/>
  <path class="st2" d="M61.99,108.3v2.67h35v-2.67h-35Z"/>
  <path class="st2" d="M117.99,108.3h-8v2.67h8v-2.67Z"/>
  <path class="st14" d="M37.97,105.2v3.3h83.03v-3.3H37.97Z"/>
  <path class="st14" d="M38.05,137.26v3.43h27.5v-3.43h-27.5Z"/>
  <path class="st14" d="M93.56,137.2v3.46h27.44v-3.46h-27.44Z"/>
  <rect class="st1" x="74.99" y="76.36" width="13" height="5.61"/>
  <rect class="st1" x="75.15" y="86.39" width="13" height="5.61"/>
  <rect class="st10" x="81.99" y="37.09" width="4" height="3.74"/>
  <rect class="st10" x="81.99" y="40.5" width="4" height="5"/>
  <rect class="st10" x="79.25" y="42.37" width="4" height="3.13"/>
  <path class="st11" d="M71.61,48.73c2.73,2.26,6.37,3.54,10.01,3.52s7.27-1.33,9.98-3.61"/>
  <ellipse class="st8" cx="37.68" cy="80.27" rx="20.9" ry="7.9" transform="translate(-50.95 77.3) rotate(-62.93)"/>
  <ellipse class="st8" cx="123.35" cy="80.28" rx="7.9" ry="21.27" transform="translate(-23.01 64.87) rotate(-27.05)"/>
  <ellipse class="st6" cx="131.49" cy="97.41" rx="8.5" ry="7.95"/>
  <ellipse class="st6" cx="29.49" cy="97.41" rx="8.5" ry="7.95"/>
</svg>