<?xml version="1.0" encoding="utf-8"?>
<svg version="1.1" id="Layer_1" xmlns="http://www.w3.org/2000/svg" xmlns:xlink="http://www.w3.org/1999/xlink" x="0px" y="0px"
	 viewBox="0 0 220 220" style="enable-background:new 0 0 220 220;" xml:space="preserve">


    <rect x="60" y="20" width="16" height="16" stroke="black" fill="#BBBBBB"/>
    <rect x="80" y="20" width="16" height="16" stroke="black" fill="#BBBBBB"/>
    <rect x="100" y="20" width="16" height="16" stroke="black" fill="#BBBBBB"/>
    <rect x="120" y="20" width="16" height="16" stroke="black" fill="#BBBBBB"/>
    <rect x="140" y="20" width="16" height="16" stroke="black" fill="#BBBBBB"/>

    <rect x="60" y="40" width="16" height="16" stroke="black" fill="#BBBBBB"/>
    <rect x="80" y="40" width="16" height="16" stroke="black" fill="#BBBBBB"/>
    <rect x="100" y="40" width="16" height="16" stroke="black" fill="#BBBBBB"/>
    <rect x="120" y="40" width="16" height="16" stroke="black" fill="#BBBBBB"/>
    <rect x="140" y="40" width="16" height="16" stroke="black" fill="#BBBBBB"/>

    <rect x="60" y="60" width="16" height="16" stroke="black" fill="#BBBBBB"/>
    <rect x="80" y="60" width="16" height="16" stroke="black" fill="#BBBBBB"/>
    <rect x="100" y="60" width="16" height="16" stroke="black" fill="#BBBBBB"/>
    <rect x="120" y="60" width="16" height="16" stroke="black" fill="#BBBBBB"/>
    <rect x="140" y="60" width="16" height="16" stroke="black" fill="#BBBBBB"/>

    <rect x="60" y="80" width="16" height="16" stroke="black" fill="#BBBBBB"/>
    <rect x="80" y="80" width="16" height="16" stroke="black" fill="#BBBBBB"/>
    <rect x="100" y="80" width="16" height="16" stroke="black" fill="#BBBBBB"/>
    <rect x="120" y="80" width="16" height="16" stroke="black" fill="#BBBBBB"/>
    <rect x="140" y="80" width="16" height="16" stroke="black" fill="#BBBBBB"/>

    <rect x="60" y="100" width="16" height="16" stroke="black" fill="#BBBBBB"/>
    <rect x="80" y="100" width="16" height="16" stroke="black" fill="#BBBBBB"/>
    <rect x="100" y="100" width="16" height="16" stroke="black" fill="#BBBBBB"/>
    <rect x="120" y="100" width="16" height="16" stroke="black" fill="#BBBBBB"/>
    <rect x="140" y="100" width="16" height="16" stroke="black" fill="#BBBBBB"/>

</svg>