<?xml version="1.0" encoding="utf-8"?>
<svg id="a" viewBox="0 0 340 100" xmlns="http://www.w3.org/2000/svg">
  <rect x="50" y="10" width="80" height="80" stroke-linejoin="round" stroke-width="1.5" stroke="black" fill="#d0f1f2"/>
  <rect x="130" y="10" width="80" height="80" stroke-linejoin="round" stroke-width="1.5" stroke="black" fill="#d0f1f2"/>
  <rect x="210" y="10" width="80" height="80" stroke-linejoin="round" stroke-width="1.5" stroke="black" fill="#d0f1f2"/>
  <polygon points="10,50 50,10 50,90" stroke-linejoin="round" stroke-width="1.5" stroke="black" fill="#d0f1f2"/>
  <polygon points="330,50 290,10 290,90" stroke-linejoin="round" stroke-width="1.5" stroke="black" fill="#d0f1f2"/>
  <line x1="10" y1="50" x2="330" y2="50" stroke-width="1.5" stroke="black"/>

  <line x1="50" y1="10" x2="130" y2="90" stroke-width="1.5" stroke="black"/>
  <line x1="50" y1="90" x2="130" y2="10" stroke-width="1.5" stroke="black"/>
  <line x1="90" y1="10" x2="90" y2="90" stroke-width="1.5"  stroke="black"/>
  
  <line x1="130" y1="10" x2="210" y2="90" stroke-width="1.5" stroke="black"/>
  <line x1="130" y1="90" x2="210" y2="10" stroke-width="1.5" stroke="black"/>
  <line x1="170" y1="10" x2="170" y2="90" stroke-width="1.5"  stroke="black"/>
  
  <line x1="210" y1="10" x2="290" y2="90" stroke-width="1.5" stroke="black"/>
  <line x1="210" y1="90" x2="290" y2="10" stroke-width="1.5" stroke="black"/>
  <line x1="250" y1="10" x2="250" y2="90" stroke-width="1.5"  stroke="black"/>
</svg>
