<svg version="1.1" viewBox="0.0 0.0 960.0 960.0" fill="none" stroke="none" stroke-linecap="square" stroke-miterlimit="10" xmlns:xlink="http://www.w3.org/1999/xlink" xmlns="http://www.w3.org/2000/svg"><clipPath id="p.0"><path d="m0 0l960.0 0l0 960.0l-960.0 0l0 -960.0z" clip-rule="nonzero"/></clipPath><g clip-path="url(#p.0)"><path fill="#000000" fill-opacity="0.0" d="m0 0l960.0 0l0 960.0l-960.0 0z" fill-rule="evenodd"/><path fill="#000000" fill-opacity="0.0" d="m118.43832 480.0l0 0c0 -197.2309 164.38553 -357.1181 367.16534 -357.1181l0 0c97.37833 0 190.76828 37.62484 259.6251 104.597466c68.85687 66.97264 107.54028 157.80702 107.54028 252.52065l0 0c0 197.2309 -164.38556 357.1181 -367.16537 357.1181l0 0c-202.77982 0 -367.16534 -159.8872 -367.16534 -357.1181z" fill-rule="evenodd"/><path stroke="#000000" stroke-width="1.0" stroke-linejoin="round" stroke-linecap="butt" d="m118.43832 480.0l0 0c0 -197.2309 164.38553 -357.1181 367.16534 -357.1181l0 0c97.37833 0 190.76828 37.62484 259.6251 104.597466c68.85687 66.97264 107.54028 157.80702 107.54028 252.52065l0 0c0 197.2309 -164.38556 357.1181 -367.16537 357.1181l0 0c-202.77982 0 -367.16534 -159.8872 -367.16534 -357.1181z" fill-rule="evenodd"/><path fill="#ea9999" d="m420.0013 831.3753l0 0c0 -33.137085 26.862915 -60.0 60.0 -60.0l0 0c15.912994 0 31.174225 6.321411 42.426422 17.573608c11.252197 11.252197 17.573608 26.513428 17.573608 42.42639l0 0c0 33.137085 -26.862915 60.0 -60.00003 60.0l0 0c-33.137085 0 -60.0 -26.862915 -60.0 -60.0z" fill-rule="evenodd"/><path stroke="#000000" stroke-width="1.0" stroke-linejoin="round" stroke-linecap="butt" d="m420.0013 831.3753l0 0c0 -33.137085 26.862915 -60.0 60.0 -60.0l0 0c15.912994 0 31.174225 6.321411 42.426422 17.573608c11.252197 11.252197 17.573608 26.513428 17.573608 42.42639l0 0c0 33.137085 -26.862915 60.0 -60.00003 60.0l0 0c-33.137085 0 -60.0 -26.862915 -60.0 -60.0z" fill-rule="evenodd"/><path fill="#000000" fill-opacity="0.0" d="m118.12336 480.0l734.96063 0" fill-rule="evenodd"/><path stroke="#000000" stroke-width="1.0" stroke-linejoin="round" stroke-linecap="butt" d="m118.12336 480.0l734.96063 0" fill-rule="evenodd"/><path fill="#ea9999" d="m49.339893 479.9987l0 0c0 -33.137085 26.862919 -60.0 60.000004 -60.0l0 0c15.912987 0 31.174217 6.321411 42.4264 17.573578c11.252182 11.252197 17.573593 26.513428 17.573593 42.426422l0 0c0 33.137054 -26.862915 59.99997 -59.999992 59.99997l0 0c-33.137085 0 -60.000004 -26.862915 -60.000004 -59.99997z" fill-rule="evenodd"/><path stroke="#000000" stroke-width="1.0" stroke-linejoin="round" stroke-linecap="butt" d="m49.339893 479.9987l0 0c0 -33.137085 26.862919 -60.0 60.000004 -60.0l0 0c15.912987 0 31.174217 6.321411 42.4264 17.573578c11.252182 11.252197 17.573593 26.513428 17.573593 42.426422l0 0c0 33.137054 -26.862915 59.99997 -59.999992 59.99997l0 0c-33.137085 0 -60.000004 -26.862915 -60.000004 -59.99997z" fill-rule="evenodd"/><path fill="#ea9999" d="m790.6627 481.2047l0 0c0 -33.137085 26.862915 -60.0 60.0 -60.0l0 0c15.913025 0 31.174255 6.321411 42.42639 17.573608c11.252197 11.252167 17.573608 26.513428 17.573608 42.42639l0 0c0 33.137085 -26.862915 60.0 -60.0 60.0l0 0c-33.137085 0 -60.0 -26.862915 -60.0 -60.0z" fill-rule="evenodd"/><path stroke="#000000" stroke-width="1.0" stroke-linejoin="round" stroke-linecap="butt" d="m790.6627 481.2047l0 0c0 -33.137085 26.862915 -60.0 60.0 -60.0l0 0c15.913025 0 31.174255 6.321411 42.42639 17.573608c11.252197 11.252167 17.573608 26.513428 17.573608 42.42639l0 0c0 33.137085 -26.862915 60.0 -60.0 60.0l0 0c-33.137085 0 -60.0 -26.862915 -60.0 -60.0z" fill-rule="evenodd"/><path fill="#ea9999" d="m420.0013 128.62862l0 0c0 -33.137093 26.862915 -60.000008 60.0 -60.000008l0 0c15.912994 0 31.174225 6.321411 42.426422 17.573593c11.252197 11.252182 17.573608 26.51342 17.573608 42.426414l0 0c0 33.137085 -26.862915 60.0 -60.00003 60.0l0 0c-33.137085 0 -60.0 -26.862915 -60.0 -60.0z" fill-rule="evenodd"/><path stroke="#000000" stroke-width="1.0" stroke-linejoin="round" stroke-linecap="butt" d="m420.0013 128.62862l0 0c0 -33.137093 26.862915 -60.000008 60.0 -60.000008l0 0c15.912994 0 31.174225 6.321411 42.426422 17.573593c11.252197 11.252182 17.573608 26.51342 17.573608 42.426414l0 0c0 33.137085 -26.862915 60.0 -60.00003 60.0l0 0c-33.137085 0 -60.0 -26.862915 -60.0 -60.0z" fill-rule="evenodd"/><path fill="#000000" fill-opacity="0.0" d="m295.4365 186.7229l336.78738 570.6772" fill-rule="evenodd"/><path stroke="#000000" stroke-width="1.0" stroke-linejoin="round" stroke-linecap="butt" d="m295.4365 186.7229l336.78738 570.6772" fill-rule="evenodd"/><path fill="#000000" fill-opacity="0.0" d="m669.96576 186.01662l-368.72443 587.9685" fill-rule="evenodd"/><path stroke="#000000" stroke-width="1.0" stroke-linejoin="round" stroke-linecap="butt" d="m669.96576 186.01662l-368.72443 587.9685" fill-rule="evenodd"/><path fill="#cccccc" d="m427.2 831.37006l0 0c0 -29.162354 23.640778 -52.8031 52.80313 -52.8031l0 0c14.004272 0 27.434967 5.5631714 37.337494 15.465637c9.902466 9.902527 15.465637 23.33319 15.465637 37.337463l0 0c0 29.162415 -23.640747 52.80316 -52.80313 52.80316l0 0c-29.162354 0 -52.80313 -23.640747 -52.80313 -52.80316z" fill-rule="evenodd"/><path stroke="#000000" stroke-width="1.0" stroke-linejoin="round" stroke-linecap="butt" d="m427.2 831.37006l0 0c0 -29.162354 23.640778 -52.8031 52.80313 -52.8031l0 0c14.004272 0 27.434967 5.5631714 37.337494 15.465637c9.902466 9.902527 15.465637 23.33319 15.465637 37.337463l0 0c0 29.162415 -23.640747 52.80316 -52.80313 52.80316l0 0c-29.162354 0 -52.80313 -23.640747 -52.80313 -52.80316z" fill-rule="evenodd"/><path fill="#cccccc" d="m56.53809 480.0l0 0c0 -29.162384 23.640774 -52.80316 52.80315 -52.80316l0 0c14.004265 0 27.43496 5.5631714 37.33747 15.465698c9.902512 9.902496 15.465683 23.33319 15.465683 37.337463l0 0c0 29.162384 -23.640778 52.80316 -52.803154 52.80316l0 0c-29.162376 0 -52.80315 -23.640778 -52.80315 -52.80316z" fill-rule="evenodd"/><path stroke="#000000" stroke-width="1.0" stroke-linejoin="round" stroke-linecap="butt" d="m56.53809 480.0l0 0c0 -29.162384 23.640774 -52.80316 52.80315 -52.80316l0 0c14.004265 0 27.43496 5.5631714 37.33747 15.465698c9.902512 9.902496 15.465683 23.33319 15.465683 37.337463l0 0c0 29.162384 -23.640778 52.80316 -52.803154 52.80316l0 0c-29.162376 0 -52.80315 -23.640778 -52.80315 -52.80316z" fill-rule="evenodd"/><path fill="#cccccc" d="m797.8607 480.0l0 0c0 -29.162384 23.640747 -52.80316 52.8031 -52.80316l0 0c14.004272 0 27.434998 5.5631714 37.337463 15.465698c9.902527 9.902496 15.465698 23.33319 15.465698 37.337463l0 0c0 29.162384 -23.640747 52.80316 -52.80316 52.80316l0 0c-29.162354 0 -52.8031 -23.640778 -52.8031 -52.80316z" fill-rule="evenodd"/><path stroke="#000000" stroke-width="1.0" stroke-linejoin="round" stroke-linecap="butt" d="m797.8607 480.0l0 0c0 -29.162384 23.640747 -52.80316 52.8031 -52.80316l0 0c14.004272 0 27.434998 5.5631714 37.337463 15.465698c9.902527 9.902496 15.465698 23.33319 15.465698 37.337463l0 0c0 29.162384 -23.640747 52.80316 -52.80316 52.80316l0 0c-29.162354 0 -52.8031 -23.640778 -52.8031 -52.80316z" fill-rule="evenodd"/><path fill="#cccccc" d="m247.4693 480.0002l0 0c0 -29.162384 23.640778 -52.80316 52.80316 -52.80316l0 0c14.004242 0 27.434937 5.5631714 37.337463 15.465698c9.902496 9.902496 15.465668 23.33319 15.465668 37.337463l0 0c0 29.162384 -23.640778 52.80313 -52.80313 52.80313l0 0c-29.162384 0 -52.80316 -23.640747 -52.80316 -52.80313z" fill-rule="evenodd"/><path stroke="#000000" stroke-width="1.0" stroke-linejoin="round" stroke-linecap="butt" d="m247.4693 480.0002l0 0c0 -29.162384 23.640778 -52.80316 52.80316 -52.80316l0 0c14.004242 0 27.434937 5.5631714 37.337463 15.465698c9.902496 9.902496 15.465668 23.33319 15.465668 37.337463l0 0c0 29.162384 -23.640778 52.80313 -52.80313 52.80313l0 0c-29.162384 0 -52.80316 -23.640747 -52.80316 -52.80313z" fill-rule="evenodd"/><path fill="#cccccc" d="m612.5309 480.00314l0 0c0 -29.162354 23.640747 -52.80313 52.80316 -52.80313l0 0c14.004211 0 27.434937 5.5631714 37.337463 15.465668c9.902466 9.902527 15.465637 23.33319 15.465637 37.337463l0 0c0 29.162384 -23.640747 52.80313 -52.8031 52.80313l0 0c-29.162415 0 -52.80316 -23.640747 -52.80316 -52.80313z" fill-rule="evenodd"/><path stroke="#000000" stroke-width="1.0" stroke-linejoin="round" stroke-linecap="butt" d="m612.5309 480.00314l0 0c0 -29.162354 23.640747 -52.80313 52.80316 -52.80313l0 0c14.004211 0 27.434937 5.5631714 37.337463 15.465668c9.902466 9.902527 15.465637 23.33319 15.465637 37.337463l0 0c0 29.162384 -23.640747 52.80313 -52.8031 52.80313l0 0c-29.162415 0 -52.80316 -23.640747 -52.80316 -52.80313z" fill-rule="evenodd"/><path fill="#cccccc" d="m747.16187 309.6763l0 0c0 -29.162384 23.640808 -52.80316 52.80316 -52.80316l0 0c14.004272 0 27.434937 5.5631714 37.337463 15.465698c9.902527 9.902496 15.465698 23.33319 15.465698 37.337463l0 0c0 29.162354 -23.640747 52.80313 -52.80316 52.80313l0 0c-29.162354 0 -52.80316 -23.640778 -52.80316 -52.80313z" fill-rule="evenodd"/><path stroke="#000000" stroke-width="1.0" stroke-linejoin="round" stroke-linecap="butt" d="m747.16187 309.6763l0 0c0 -29.162384 23.640808 -52.80316 52.80316 -52.80316l0 0c14.004272 0 27.434937 5.5631714 37.337463 15.465698c9.902527 9.902496 15.465698 23.33319 15.465698 37.337463l0 0c0 29.162354 -23.640747 52.80313 -52.80316 52.80313l0 0c-29.162354 0 -52.80316 -23.640778 -52.80316 -52.80313z" fill-rule="evenodd"/><path fill="#cccccc" d="m617.7684 175.68591l0 0c0 -29.162369 23.640808 -52.803146 52.80316 -52.803146l0 0c14.004272 0 27.434998 5.5631714 37.337463 15.465683c9.902527 9.902512 15.465698 23.33319 15.465698 37.337463l0 0c0 29.162369 -23.640747 52.803146 -52.80316 52.803146l0 0c-29.162354 0 -52.80316 -23.640778 -52.80316 -52.803146z" fill-rule="evenodd"/><path stroke="#000000" stroke-width="1.0" stroke-linejoin="round" stroke-linecap="butt" d="m617.7684 175.68591l0 0c0 -29.162369 23.640808 -52.803146 52.80316 -52.803146l0 0c14.004272 0 27.434998 5.5631714 37.337463 15.465683c9.902527 9.902512 15.465698 23.33319 15.465698 37.337463l0 0c0 29.162369 -23.640747 52.803146 -52.80316 52.803146l0 0c-29.162354 0 -52.80316 -23.640778 -52.80316 -52.803146z" fill-rule="evenodd"/><path fill="#cccccc" d="m104.45138 309.67694l0 0c0 -29.162354 23.64077 -52.80313 52.803154 -52.80313l0 0c14.004257 0 27.434952 5.5631714 37.337463 15.465668c9.902512 9.902527 15.465683 23.333221 15.465683 37.337463l0 0c0 29.162384 -23.640778 52.80316 -52.803146 52.80316l0 0c-29.162384 0 -52.803154 -23.640778 -52.803154 -52.80316z" fill-rule="evenodd"/><path stroke="#000000" stroke-width="1.0" stroke-linejoin="round" stroke-linecap="butt" d="m104.45138 309.67694l0 0c0 -29.162354 23.64077 -52.80313 52.803154 -52.80313l0 0c14.004257 0 27.434952 5.5631714 37.337463 15.465668c9.902512 9.902527 15.465683 23.333221 15.465683 37.337463l0 0c0 29.162384 -23.640778 52.80316 -52.803146 52.80316l0 0c-29.162384 0 -52.803154 -23.640778 -52.803154 -52.80316z" fill-rule="evenodd"/><path fill="#cccccc" d="m228.76228 175.6841l0 0c0 -29.162384 23.640778 -52.803154 52.803146 -52.803154l0 0c14.004272 0 27.434967 5.563179 37.337463 15.465691c9.902527 9.902512 15.465698 23.33319 15.465698 37.337463l0 0c0 29.162369 -23.640778 52.803146 -52.80316 52.803146l0 0c-29.162369 0 -52.803146 -23.640778 -52.803146 -52.803146z" fill-rule="evenodd"/><path stroke="#000000" stroke-width="1.0" stroke-linejoin="round" stroke-linecap="butt" d="m228.76228 175.6841l0 0c0 -29.162384 23.640778 -52.803154 52.803146 -52.803154l0 0c14.004272 0 27.434967 5.563179 37.337463 15.465691c9.902527 9.902512 15.465698 23.33319 15.465698 37.337463l0 0c0 29.162369 -23.640778 52.803146 -52.80316 52.803146l0 0c-29.162369 0 -52.803146 -23.640778 -52.803146 -52.803146z" fill-rule="evenodd"/><path fill="#cccccc" d="m228.76228 795.6221l0 0c0 -29.162415 23.640778 -52.80316 52.803146 -52.80316l0 0c14.004272 0 27.434967 5.5631714 37.337463 15.465698c9.902527 9.902466 15.465698 23.33319 15.465698 37.337463l0 0c0 29.162354 -23.640778 52.8031 -52.80316 52.8031l0 0c-29.162369 0 -52.803146 -23.640747 -52.803146 -52.8031z" fill-rule="evenodd"/><path stroke="#000000" stroke-width="1.0" stroke-linejoin="round" stroke-linecap="butt" d="m228.76228 795.6221l0 0c0 -29.162415 23.640778 -52.80316 52.803146 -52.80316l0 0c14.004272 0 27.434967 5.5631714 37.337463 15.465698c9.902527 9.902466 15.465698 23.33319 15.465698 37.337463l0 0c0 29.162354 -23.640778 52.8031 -52.80316 52.8031l0 0c-29.162369 0 -52.803146 -23.640747 -52.803146 -52.8031z" fill-rule="evenodd"/><path fill="#cccccc" d="m617.76874 797.1732l0 0c0 -29.162354 23.640747 -52.80316 52.8031 -52.80316l0 0c14.004272 0 27.434998 5.5631714 37.337463 15.465698c9.902527 9.902527 15.465698 23.33319 15.465698 37.337463l0 0c0 29.162415 -23.640747 52.80316 -52.80316 52.80316l0 0c-29.162354 0 -52.8031 -23.640747 -52.8031 -52.80316z" fill-rule="evenodd"/><path stroke="#000000" stroke-width="1.0" stroke-linejoin="round" stroke-linecap="butt" d="m617.76874 797.1732l0 0c0 -29.162354 23.640747 -52.80316 52.8031 -52.80316l0 0c14.004272 0 27.434998 5.5631714 37.337463 15.465698c9.902527 9.902527 15.465698 23.33319 15.465698 37.337463l0 0c0 29.162415 -23.640747 52.80316 -52.80316 52.80316l0 0c-29.162354 0 -52.8031 -23.640747 -52.8031 -52.80316z" fill-rule="evenodd"/><path fill="#cccccc" d="m323.9937 327.84415l0 0c0 -29.162384 23.640778 -52.80316 52.80313 -52.80316l0 0c14.004272 0 27.434967 5.5631714 37.337463 15.465698c9.902527 9.902496 15.465698 23.33319 15.465698 37.337463l0 0c0 29.162384 -23.640778 52.80316 -52.80316 52.80316l0 0c-29.162354 0 -52.80313 -23.640778 -52.80313 -52.80316z" fill-rule="evenodd"/><path stroke="#000000" stroke-width="1.0" stroke-linejoin="round" stroke-linecap="butt" d="m323.9937 327.84415l0 0c0 -29.162384 23.640778 -52.80316 52.80313 -52.80316l0 0c14.004272 0 27.434967 5.5631714 37.337463 15.465698c9.902527 9.902496 15.465698 23.33319 15.465698 37.337463l0 0c0 29.162384 -23.640778 52.80316 -52.80316 52.80316l0 0c-29.162354 0 -52.80313 -23.640778 -52.80313 -52.80316z" fill-rule="evenodd"/><path fill="#cccccc" d="m516.5317 328.61847l0 0c0 -29.162354 23.640808 -52.80313 52.80316 -52.80313l0 0c14.004272 0 27.434937 5.5631714 37.337463 15.465668c9.902527 9.902527 15.465698 23.33319 15.465698 37.337463l0 0c0 29.162384 -23.640747 52.80316 -52.80316 52.80316l0 0c-29.162354 0 -52.80316 -23.640778 -52.80316 -52.80316z" fill-rule="evenodd"/><path stroke="#000000" stroke-width="1.0" stroke-linejoin="round" stroke-linecap="butt" d="m516.5317 328.61847l0 0c0 -29.162354 23.640808 -52.80313 52.80316 -52.80313l0 0c14.004272 0 27.434937 5.5631714 37.337463 15.465668c9.902527 9.902527 15.465698 23.33319 15.465698 37.337463l0 0c0 29.162384 -23.640747 52.80316 -52.80316 52.80316l0 0c-29.162354 0 -52.80316 -23.640778 -52.80316 -52.80316z" fill-rule="evenodd"/><path fill="#cccccc" d="m323.9937 640.82153l0 0c0 -29.162415 23.640778 -52.80316 52.80313 -52.80316l0 0c14.004272 0 27.434967 5.5631714 37.337463 15.465698c9.902527 9.902527 15.465698 23.33319 15.465698 37.337463l0 0c0 29.162354 -23.640778 52.80316 -52.80316 52.80316l0 0c-29.162354 0 -52.80313 -23.640808 -52.80313 -52.80316z" fill-rule="evenodd"/><path stroke="#000000" stroke-width="1.0" stroke-linejoin="round" stroke-linecap="butt" d="m323.9937 640.82153l0 0c0 -29.162415 23.640778 -52.80316 52.80313 -52.80316l0 0c14.004272 0 27.434967 5.5631714 37.337463 15.465698c9.902527 9.902527 15.465698 23.33319 15.465698 37.337463l0 0c0 29.162354 -23.640778 52.80316 -52.80316 52.80316l0 0c-29.162354 0 -52.80313 -23.640808 -52.80313 -52.80316z" fill-rule="evenodd"/><path fill="#cccccc" d="m516.5325 640.8205l0 0c0 -29.162354 23.640808 -52.8031 52.80316 -52.8031l0 0c14.004272 0 27.434937 5.5631714 37.337463 15.465637c9.902527 9.902527 15.465698 23.333252 15.465698 37.337463l0 0c0 29.162415 -23.640747 52.80316 -52.80316 52.80316l0 0c-29.162354 0 -52.80316 -23.640747 -52.80316 -52.80316z" fill-rule="evenodd"/><path stroke="#000000" stroke-width="1.0" stroke-linejoin="round" stroke-linecap="butt" d="m516.5325 640.8205l0 0c0 -29.162354 23.640808 -52.8031 52.80316 -52.8031l0 0c14.004272 0 27.434937 5.5631714 37.337463 15.465637c9.902527 9.902527 15.465698 23.333252 15.465698 37.337463l0 0c0 29.162415 -23.640747 52.80316 -52.80316 52.80316l0 0c-29.162354 0 -52.80316 -23.640747 -52.80316 -52.80316z" fill-rule="evenodd"/><path fill="#cccccc" d="m427.2 128.62993l0 0c0 -29.162384 23.640778 -52.803154 52.80313 -52.803154l0 0c14.004272 0 27.434967 5.5631714 37.337494 15.465683c9.902466 9.902512 15.465637 23.333199 15.465637 37.33747l0 0c0 29.162369 -23.640747 52.803146 -52.80313 52.803146l0 0c-29.162354 0 -52.80313 -23.640778 -52.80313 -52.803146z" fill-rule="evenodd"/><path stroke="#000000" stroke-width="1.0" stroke-linejoin="round" stroke-linecap="butt" d="m427.2 128.62993l0 0c0 -29.162384 23.640778 -52.803154 52.80313 -52.803154l0 0c14.004272 0 27.434967 5.5631714 37.337494 15.465683c9.902466 9.902512 15.465637 23.333199 15.465637 37.33747l0 0c0 29.162369 -23.640747 52.803146 -52.80313 52.803146l0 0c-29.162354 0 -52.80313 -23.640778 -52.80313 -52.803146z" fill-rule="evenodd"/><path fill="#cccccc" d="m747.1627 659.93l0 0c0 -29.162415 23.640747 -52.80316 52.8031 -52.80316l0 0c14.004272 0 27.434998 5.5631714 37.337463 15.465698c9.902527 9.902466 15.465698 23.33319 15.465698 37.337463l0 0c0 29.162354 -23.640747 52.8031 -52.80316 52.8031l0 0c-29.162354 0 -52.8031 -23.640747 -52.8031 -52.8031z" fill-rule="evenodd"/><path stroke="#000000" stroke-width="1.0" stroke-linejoin="round" stroke-linecap="butt" d="m747.1627 659.93l0 0c0 -29.162415 23.640747 -52.80316 52.8031 -52.80316l0 0c14.004272 0 27.434998 5.5631714 37.337463 15.465698c9.902527 9.902466 15.465698 23.33319 15.465698 37.337463l0 0c0 29.162354 -23.640747 52.8031 -52.80316 52.8031l0 0c-29.162354 0 -52.8031 -23.640747 -52.8031 -52.8031z" fill-rule="evenodd"/><path fill="#cccccc" d="m104.45123 659.92914l0 0c0 -29.162354 23.640778 -52.80316 52.803146 -52.80316l0 0c14.004272 0 27.434952 5.5631714 37.337463 15.465698c9.902512 9.902527 15.465683 23.33319 15.465683 37.337463l0 0c0 29.162354 -23.640762 52.80316 -52.803146 52.80316l0 0c-29.162369 0 -52.803146 -23.640808 -52.803146 -52.80316z" fill-rule="evenodd"/><path stroke="#000000" stroke-width="1.0" stroke-linejoin="round" stroke-linecap="butt" d="m104.45123 659.92914l0 0c0 -29.162354 23.640778 -52.80316 52.803146 -52.80316l0 0c14.004272 0 27.434952 5.5631714 37.337463 15.465698c9.902512 9.902527 15.465683 23.33319 15.465683 37.337463l0 0c0 29.162354 -23.640762 52.80316 -52.803146 52.80316l0 0c-29.162369 0 -52.803146 -23.640808 -52.803146 -52.80316z" fill-rule="evenodd"/><path fill="#cccccc" d="m427.2 480.00314l0 0c0 -29.162354 23.640778 -52.80313 52.80313 -52.80313l0 0c14.004272 0 27.434967 5.5631714 37.337494 15.465668c9.902466 9.902527 15.465637 23.33319 15.465637 37.337463l0 0c0 29.162384 -23.640747 52.80313 -52.80313 52.80313l0 0c-29.162354 0 -52.80313 -23.640747 -52.80313 -52.80313z" fill-rule="evenodd"/><path stroke="#000000" stroke-width="1.0" stroke-linejoin="round" stroke-linecap="butt" d="m427.2 480.00314l0 0c0 -29.162354 23.640778 -52.80313 52.80313 -52.80313l0 0c14.004272 0 27.434967 5.5631714 37.337494 15.465668c9.902466 9.902527 15.465637 23.33319 15.465637 37.337463l0 0c0 29.162384 -23.640747 52.80313 -52.80313 52.80313l0 0c-29.162354 0 -52.80313 -23.640747 -52.80313 -52.80313z" fill-rule="evenodd"/></g></svg>