<?xml version="1.0" encoding="utf-8"?>
<svg version="1.1" id="Layer_1" xmlns="http://www.w3.org/2000/svg" xmlns:xlink="http://www.w3.org/1999/xlink" x="0px"
     y="0px"
     viewBox="0 0 80 80" style="enable-background:new 0 0 80 80;" xml:space="preserve">
    <rect x="0" y="0" width="80" height="80" fill="#FEC595"/>

    <rect x="10" y="0" width="10" height="10" fill="#C97D41"/>
    <rect x="30" y="0" width="10" height="10" fill="#C97D41"/>
    <rect x="50" y="0" width="10" height="10" fill="#C97D41"/>
    <rect x="70" y="0" width="10" height="10" fill="#C97D41"/>

    <rect x="0" y="10" width="10" height="10" fill="#C97D41"/>
    <rect x="20" y="10" width="10" height="10" fill="#C97D41"/>
    <rect x="40" y="10" width="10" height="10" fill="#C97D41"/>
    <rect x="60" y="10" width="10" height="10" fill="#C97D41"/>

    <rect x="10" y="20" width="10" height="10" fill="#C97D41"/>
    <rect x="30" y="20" width="10" height="10" fill="#C97D41"/>
    <rect x="50" y="20" width="10" height="10" fill="#C97D41"/>
    <rect x="70" y="20" width="10" height="10" fill="#C97D41"/>

    <rect x="0" y="30" width="10" height="10" fill="#C97D41"/>
    <rect x="20" y="30" width="10" height="10" fill="#C97D41"/>
    <rect x="40" y="30" width="10" height="10" fill="#C97D41"/>
    <rect x="60" y="30" width="10" height="10" fill="#C97D41"/>

    <rect x="10" y="40" width="10" height="10" fill="#C97D41"/>
    <rect x="30" y="40" width="10" height="10" fill="#C97D41"/>
    <rect x="50" y="40" width="10" height="10" fill="#C97D41"/>
    <rect x="70" y="40" width="10" height="10" fill="#C97D41"/>

    <rect x="0" y="50" width="10" height="10" fill="#C97D41"/>
    <rect x="20" y="50" width="10" height="10" fill="#C97D41"/>
    <rect x="40" y="50" width="10" height="10" fill="#C97D41"/>
    <rect x="60" y="50" width="10" height="10" fill="#C97D41"/>

    <rect x="10" y="60" width="10" height="10" fill="#C97D41"/>
    <rect x="30" y="60" width="10" height="10" fill="#C97D41"/>
    <rect x="50" y="60" width="10" height="10" fill="#C97D41"/>
    <rect x="70" y="60" width="10" height="10" fill="#C97D41"/>

    <rect x="0" y="70" width="10" height="10" fill="#C97D41"/>
    <rect x="20" y="70" width="10" height="10" fill="#C97D41"/>
    <rect x="40" y="70" width="10" height="10" fill="#C97D41"/>
    <rect x="60" y="70" width="10" height="10" fill="#C97D41"/>


</svg>