<?xml version="1.0" encoding="utf-8"?>
<svg id="mtore" viewBox="-50 -50 100 100" xmlns="http://www.w3.org/2000/svg">
    <circle cx="0" cy="0" r="50" fill="#CFCFCF"/>
    <circle cx="0" cy="0" r="2" fill="black"/>
    <line x1="0" y1="0" x2="17" y2="41.0416" stroke="black" stroke-width="1"/>
    <line x1="0" y1="0" x2="17" y2="-41.0416" stroke="black" stroke-width="1"/>
    <line x1="0" y1="0" x2="-17" y2="41.0416" stroke="black" stroke-width="1"/>
    <line x1="0" y1="0" x2="-17" y2="-41.0416" stroke="black" stroke-width="1"/>
    <line x1="0" y1="0" x2="41.0416" y2="17" stroke="black" stroke-width="1"/>
    <line x1="0" y1="0" x2="-41.0416" y2="-17" stroke="black" stroke-width="1"/>
    <line x1="0" y1="0" x2="41.0416" y2="-17" stroke="black" stroke-width="1"/>
    <line x1="0" y1="0" x2="-41.0416" y2="17" stroke="black" stroke-width="1"/>
    <line x1="17" y1="41.0416" x2="-17" y2="41.0416" stroke="black" stroke-width="1"/>
    <circle cx="-17" cy="41.0416" r="2" fill="black"/>
    <line x1="-17" y1="41.0416" x2="-41.0416" y2="17" stroke="black" stroke-width="1"/>
    <circle cx="-41.0416" cy="17" r="2" fill="black"/>
    <line x1="-41.0416" y1="17" x2="-41.0416" y2="-17"  stroke="black" stroke-width="1"/>
    <circle cx="-41.0416" cy="-17" r="2" fill="black"/>
    <line x1="-41.0416" y1="-17" x2="-17" y2="-41.0416"  stroke="black" stroke-width="1"/>
    <circle cx="-17" cy="-41.0416" r="2" fill="black"/>
    <line x1="-17" y1="-41.0416" x2="17" y2="-41.0416"  stroke="black" stroke-width="1"/>
    <circle cx="17" cy="-41.0416" r="2" fill="black"/>
    <line x1="17" y1="-41.0416" x2="41.0416" y2="-17" stroke="black" stroke-width="1"/>
    <circle cx="41.0416" cy="-17" r="2" fill="black"/>
    <line x1="41.0416" y1="-17" x2="41.0416" y2="17" stroke="black" stroke-width="1"/>
    <circle cx="41.0416" cy="17" r="2" fill="black"/>
    <line x1="41.0416" y1="17" x2="17" y2="41.0416" stroke="black" stroke-width="1"/>
    <circle cx="17" cy="41.0416" r="2" fill="black"/>
</svg>