<svg version="1.1" viewBox="0.0 0.0 960.0 960.0" fill="none" stroke="none" stroke-linecap="square" stroke-miterlimit="10" xmlns:xlink="http://www.w3.org/1999/xlink" xmlns="http://www.w3.org/2000/svg"><clipPath id="p.0"><path d="m0 0l960.0 0l0 960.0l-960.0 0l0 -960.0z" clip-rule="nonzero"/></clipPath><g clip-path="url(#p.0)"><path fill="#000000" fill-opacity="0.0" d="m0 0l960.0 0l0 960.0l-960.0 0z" fill-rule="evenodd"/><path fill="#000000" d="m99.00787 69.22835l0 0c0 -16.733795 14.1506195 -30.299213 31.606293 -30.299213l0 0c8.382523 0 16.421707 3.1922302 22.34903 8.874432c5.9273376 5.682205 9.257278 13.388931 9.257278 21.424782l0 0c0 16.733795 -14.1506195 30.29921 -31.606308 30.29921l0 0c-17.455673 0 -31.606293 -13.565414 -31.606293 -30.29921z" fill-rule="evenodd"/><path stroke="#000000" stroke-width="1.0" stroke-linejoin="round" stroke-linecap="butt" d="m99.00787 69.22835l0 0c0 -16.733795 14.1506195 -30.299213 31.606293 -30.299213l0 0c8.382523 0 16.421707 3.1922302 22.34903 8.874432c5.9273376 5.682205 9.257278 13.388931 9.257278 21.424782l0 0c0 16.733795 -14.1506195 30.29921 -31.606308 30.29921l0 0c-17.455673 0 -31.606293 -13.565414 -31.606293 -30.29921z" fill-rule="evenodd"/><path fill="#000000" d="m448.37927 69.22835l0 0c0 -16.733795 14.150604 -30.299213 31.606293 -30.299213l0 0c8.382507 0 16.421692 3.1922302 22.34903 8.874432c5.9273376 5.682205 9.257263 13.388931 9.257263 21.424782l0 0c0 16.733795 -14.150604 30.29921 -31.606293 30.29921l0 0c-17.455688 0 -31.606293 -13.565414 -31.606293 -30.29921z" fill-rule="evenodd"/><path stroke="#000000" stroke-width="1.0" stroke-linejoin="round" stroke-linecap="butt" d="m448.37927 69.22835l0 0c0 -16.733795 14.150604 -30.299213 31.606293 -30.299213l0 0c8.382507 0 16.421692 3.1922302 22.34903 8.874432c5.9273376 5.682205 9.257263 13.388931 9.257263 21.424782l0 0c0 16.733795 -14.150604 30.29921 -31.606293 30.29921l0 0c-17.455688 0 -31.606293 -13.565414 -31.606293 -30.29921z" fill-rule="evenodd"/><path fill="#000000" d="m797.7533 69.22835l0 0c0 -16.733795 14.150635 -30.299213 31.606262 -30.299213l0 0c8.382507 0 16.421692 3.1922302 22.34906 8.874432c5.927307 5.682205 9.257263 13.388931 9.257263 21.424782l0 0c0 16.733795 -14.150635 30.29921 -31.606323 30.29921l0 0c-17.455627 0 -31.606262 -13.565414 -31.606262 -30.29921z" fill-rule="evenodd"/><path stroke="#000000" stroke-width="1.0" stroke-linejoin="round" stroke-linecap="butt" d="m797.7533 69.22835l0 0c0 -16.733795 14.150635 -30.299213 31.606262 -30.299213l0 0c8.382507 0 16.421692 3.1922302 22.34906 8.874432c5.927307 5.682205 9.257263 13.388931 9.257263 21.424782l0 0c0 16.733795 -14.150635 30.29921 -31.606323 30.29921l0 0c-17.455627 0 -31.606262 -13.565414 -31.606262 -30.29921z" fill-rule="evenodd"/><path fill="#ffffff" d="m797.7533 877.3312l0 0c0 -16.733765 14.150635 -30.299194 31.606262 -30.299194l0 0c8.382507 0 16.421692 3.1922607 22.34906 8.874451c5.927307 5.68219 9.257263 13.388916 9.257263 21.424744l0 0c0 16.733826 -14.150635 30.299255 -31.606323 30.299255l0 0c-17.455627 0 -31.606262 -13.56543 -31.606262 -30.299255z" fill-rule="evenodd"/><path stroke="#000000" stroke-width="1.0" stroke-linejoin="round" stroke-linecap="butt" d="m797.7533 877.3312l0 0c0 -16.733765 14.150635 -30.299194 31.606262 -30.299194l0 0c8.382507 0 16.421692 3.1922607 22.34906 8.874451c5.927307 5.68219 9.257263 13.388916 9.257263 21.424744l0 0c0 16.733826 -14.150635 30.299255 -31.606323 30.299255l0 0c-17.455627 0 -31.606262 -13.56543 -31.606262 -30.299255z" fill-rule="evenodd"/><path fill="#ffffff" d="m444.52756 880.31525l0 0c0 -16.733826 14.150635 -30.299255 31.606293 -30.299255l0 0c8.382507 0 16.421692 3.1922607 22.34903 8.874451c5.9273376 5.68219 9.257263 13.388916 9.257263 21.424805l0 0c0 16.733765 -14.150604 30.299194 -31.606293 30.299194l0 0c-17.455658 0 -31.606293 -13.56543 -31.606293 -30.299194z" fill-rule="evenodd"/><path stroke="#000000" stroke-width="1.0" stroke-linejoin="round" stroke-linecap="butt" d="m444.52756 880.31525l0 0c0 -16.733826 14.150635 -30.299255 31.606293 -30.299255l0 0c8.382507 0 16.421692 3.1922607 22.34903 8.874451c5.9273376 5.68219 9.257263 13.388916 9.257263 21.424805l0 0c0 16.733765 -14.150604 30.299194 -31.606293 30.299194l0 0c-17.455658 0 -31.606293 -13.56543 -31.606293 -30.299194z" fill-rule="evenodd"/><path fill="#ffffff" d="m105.57743 877.3312l0 0c0 -16.733765 14.1506195 -30.299194 31.6063 -30.299194l0 0c8.382507 0 16.421692 3.1922607 22.34903 8.874451c5.9273224 5.68219 9.257263 13.388916 9.257263 21.424744l0 0c0 16.733826 -14.1506195 30.299255 -31.606293 30.299255l0 0c-17.45568 0 -31.6063 -13.56543 -31.6063 -30.299255z" fill-rule="evenodd"/><path stroke="#000000" stroke-width="1.0" stroke-linejoin="round" stroke-linecap="butt" d="m105.57743 877.3312l0 0c0 -16.733765 14.1506195 -30.299194 31.6063 -30.299194l0 0c8.382507 0 16.421692 3.1922607 22.34903 8.874451c5.9273224 5.68219 9.257263 13.388916 9.257263 21.424744l0 0c0 16.733826 -14.1506195 30.299255 -31.606293 30.299255l0 0c-17.45568 0 -31.6063 -13.56543 -31.6063 -30.299255z" fill-rule="evenodd"/><path fill="#000000" d="m211.85301 208.26772l0 0c0 -17.60353 14.150635 -31.874008 31.606308 -31.874008l0 0c8.382507 0 16.421692 3.358139 22.34903 9.335678c5.9273376 5.977539 9.257263 14.084824 9.257263 22.53833l0 0c0 17.60353 -14.150604 31.874023 -31.606293 31.874023l0 0c-17.455673 0 -31.606308 -14.270493 -31.606308 -31.874023z" fill-rule="evenodd"/><path stroke="#000000" stroke-width="1.0" stroke-linejoin="round" stroke-linecap="butt" d="m211.85301 208.26772l0 0c0 -17.60353 14.150635 -31.874008 31.606308 -31.874008l0 0c8.382507 0 16.421692 3.358139 22.34903 9.335678c5.9273376 5.977539 9.257263 14.084824 9.257263 22.53833l0 0c0 17.60353 -14.150604 31.874023 -31.606293 31.874023l0 0c-17.455673 0 -31.606308 -14.270493 -31.606308 -31.874023z" fill-rule="evenodd"/><path fill="#000000" d="m448.38058 208.26772l0 0c0 -17.60353 14.150604 -31.874008 31.606293 -31.874008l0 0c8.382507 0 16.421692 3.358139 22.34903 9.335678c5.9273376 5.977539 9.257263 14.084824 9.257263 22.53833l0 0c0 17.60353 -14.150604 31.874023 -31.606293 31.874023l0 0c-17.455688 0 -31.606293 -14.270493 -31.606293 -31.874023z" fill-rule="evenodd"/><path stroke="#000000" stroke-width="1.0" stroke-linejoin="round" stroke-linecap="butt" d="m448.38058 208.26772l0 0c0 -17.60353 14.150604 -31.874008 31.606293 -31.874008l0 0c8.382507 0 16.421692 3.358139 22.34903 9.335678c5.9273376 5.977539 9.257263 14.084824 9.257263 22.53833l0 0c0 17.60353 -14.150604 31.874023 -31.606293 31.874023l0 0c-17.455688 0 -31.606293 -14.270493 -31.606293 -31.874023z" fill-rule="evenodd"/><path fill="#000000" d="m448.3937 347.30637l0 0c0 -16.733795 14.150604 -30.299194 31.606293 -30.299194l0 0c8.382507 0 16.421692 3.1922302 22.34903 8.87442c5.9273376 5.6822205 9.257263 13.388947 9.257263 21.424774l0 0c0 16.733795 -14.150604 30.299225 -31.606293 30.299225l0 0c-17.455688 0 -31.606293 -13.56543 -31.606293 -30.299225z" fill-rule="evenodd"/><path stroke="#000000" stroke-width="1.0" stroke-linejoin="round" stroke-linecap="butt" d="m448.3937 347.30637l0 0c0 -16.733795 14.150604 -30.299194 31.606293 -30.299194l0 0c8.382507 0 16.421692 3.1922302 22.34903 8.87442c5.9273376 5.6822205 9.257263 13.388947 9.257263 21.424774l0 0c0 16.733795 -14.150604 30.299225 -31.606293 30.299225l0 0c-17.455688 0 -31.606293 -13.56543 -31.606293 -30.299225z" fill-rule="evenodd"/><path fill="#d9d9d9" d="m448.3937 463.42783l0 0c0 -16.733795 14.150604 -30.299225 31.606293 -30.299225l0 0c8.382507 0 16.421692 3.1922302 22.34903 8.874451c5.9273376 5.68219 9.257263 13.388916 9.257263 21.424774l0 0c0 16.733795 -14.150604 30.299194 -31.606293 30.299194l0 0c-17.455688 0 -31.606293 -13.565399 -31.606293 -30.299194z" fill-rule="evenodd"/><path stroke="#000000" stroke-width="1.0" stroke-linejoin="round" stroke-linecap="butt" d="m448.3937 463.42783l0 0c0 -16.733795 14.150604 -30.299225 31.606293 -30.299225l0 0c8.382507 0 16.421692 3.1922302 22.34903 8.874451c5.9273376 5.68219 9.257263 13.388916 9.257263 21.424774l0 0c0 16.733795 -14.150604 30.299194 -31.606293 30.299194l0 0c-17.455688 0 -31.606293 -13.565399 -31.606293 -30.299194z" fill-rule="evenodd"/><path fill="#ffffff" d="m448.3937 724.15295l0 0c0 -16.733826 14.150604 -30.299255 31.606293 -30.299255l0 0c8.382507 0 16.421692 3.1922607 22.34903 8.874451c5.9273376 5.68219 9.257263 13.388916 9.257263 21.424805l0 0c0 16.733765 -14.150604 30.299194 -31.606293 30.299194l0 0c-17.455688 0 -31.606293 -13.56543 -31.606293 -30.299194z" fill-rule="evenodd"/><path stroke="#000000" stroke-width="1.0" stroke-linejoin="round" stroke-linecap="butt" d="m448.3937 724.15295l0 0c0 -16.733826 14.150604 -30.299255 31.606293 -30.299255l0 0c8.382507 0 16.421692 3.1922607 22.34903 8.874451c5.9273376 5.68219 9.257263 13.388916 9.257263 21.424805l0 0c0 16.733765 -14.150604 30.299194 -31.606293 30.299194l0 0c-17.455688 0 -31.606293 -13.56543 -31.606293 -30.299194z" fill-rule="evenodd"/><path fill="#ffffff" d="m448.3937 593.7887l0 0c0 -16.733765 14.150604 -30.299194 31.606293 -30.299194l0 0c8.382507 0 16.421692 3.1921997 22.34903 8.874451c5.9273376 5.68219 9.257263 13.388916 9.257263 21.424744l0 0c0 16.733826 -14.150604 30.299255 -31.606293 30.299255l0 0c-17.455688 0 -31.606293 -13.56543 -31.606293 -30.299255z" fill-rule="evenodd"/><path stroke="#000000" stroke-width="1.0" stroke-linejoin="round" stroke-linecap="butt" d="m448.3937 593.7887l0 0c0 -16.733765 14.150604 -30.299194 31.606293 -30.299194l0 0c8.382507 0 16.421692 3.1921997 22.34903 8.874451c5.9273376 5.68219 9.257263 13.388916 9.257263 21.424744l0 0c0 16.733826 -14.150604 30.299255 -31.606293 30.299255l0 0c-17.455688 0 -31.606293 -13.56543 -31.606293 -30.299255z" fill-rule="evenodd"/><path fill="#000000" d="m683.75903 208.26772l0 0c0 -17.60353 14.150635 -31.874008 31.606262 -31.874008l0 0c8.382568 0 16.421753 3.358139 22.34906 9.335678c5.927307 5.977539 9.257263 14.084824 9.257263 22.53833l0 0c0 17.60353 -14.150635 31.874023 -31.606323 31.874023l0 0c-17.455627 0 -31.606262 -14.270493 -31.606262 -31.874023z" fill-rule="evenodd"/><path stroke="#000000" stroke-width="1.0" stroke-linejoin="round" stroke-linecap="butt" d="m683.75903 208.26772l0 0c0 -17.60353 14.150635 -31.874008 31.606262 -31.874008l0 0c8.382568 0 16.421753 3.358139 22.34906 9.335678c5.927307 5.977539 9.257263 14.084824 9.257263 22.53833l0 0c0 17.60353 -14.150635 31.874023 -31.606323 31.874023l0 0c-17.455627 0 -31.606262 -14.270493 -31.606262 -31.874023z" fill-rule="evenodd"/><path fill="#000000" d="m570.9764 347.3071l0 0c0 -16.733795 14.150635 -30.299225 31.606323 -30.299225l0 0c8.382507 0 16.421692 3.1922302 22.348999 8.87442c5.927307 5.6822205 9.257263 13.388947 9.257263 21.424805l0 0c0 16.733795 -14.150635 30.299194 -31.606262 30.299194l0 0c-17.455688 0 -31.606323 -13.565399 -31.606323 -30.299194z" fill-rule="evenodd"/><path stroke="#000000" stroke-width="1.0" stroke-linejoin="round" stroke-linecap="butt" d="m570.9764 347.3071l0 0c0 -16.733795 14.150635 -30.299225 31.606323 -30.299225l0 0c8.382507 0 16.421692 3.1922302 22.348999 8.87442c5.927307 5.6822205 9.257263 13.388947 9.257263 21.424805l0 0c0 16.733795 -14.150635 30.299194 -31.606262 30.299194l0 0c-17.455688 0 -31.606323 -13.565399 -31.606323 -30.299194z" fill-rule="evenodd"/><path fill="#000000" d="m325.81104 347.3071l0 0c0 -16.733795 14.150604 -30.299225 31.606293 -30.299225l0 0c8.382507 0 16.421692 3.1922302 22.34903 8.87442c5.9273376 5.6822205 9.257263 13.388947 9.257263 21.424805l0 0c0 16.733795 -14.150635 30.299194 -31.606293 30.299194l0 0c-17.455688 0 -31.606293 -13.565399 -31.606293 -30.299194z" fill-rule="evenodd"/><path stroke="#000000" stroke-width="1.0" stroke-linejoin="round" stroke-linecap="butt" d="m325.81104 347.3071l0 0c0 -16.733795 14.150604 -30.299225 31.606293 -30.299225l0 0c8.382507 0 16.421692 3.1922302 22.34903 8.87442c5.9273376 5.6822205 9.257263 13.388947 9.257263 21.424805l0 0c0 16.733795 -14.150635 30.299194 -31.606293 30.299194l0 0c-17.455688 0 -31.606293 -13.565399 -31.606293 -30.299194z" fill-rule="evenodd"/><path fill="#ffffff" d="m221.10948 724.1522l0 0c0 -16.733765 14.1506195 -30.299194 31.606308 -30.299194l0 0c8.382507 0 16.421692 3.1921997 22.34903 8.874451c5.9273376 5.68219 9.257263 13.388916 9.257263 21.424744l0 0c0 16.733826 -14.150635 30.299194 -31.606293 30.299194l0 0c-17.455688 0 -31.606308 -13.565369 -31.606308 -30.299194z" fill-rule="evenodd"/><path stroke="#000000" stroke-width="1.0" stroke-linejoin="round" stroke-linecap="butt" d="m221.10948 724.1522l0 0c0 -16.733765 14.1506195 -30.299194 31.606308 -30.299194l0 0c8.382507 0 16.421692 3.1921997 22.34903 8.874451c5.9273376 5.68219 9.257263 13.388916 9.257263 21.424744l0 0c0 16.733826 -14.150635 30.299194 -31.606293 30.299194l0 0c-17.455688 0 -31.606308 -13.565369 -31.606308 -30.299194z" fill-rule="evenodd"/><path fill="#ffffff" d="m570.9764 593.10236l0 0c0 -16.733765 14.150635 -30.299194 31.606323 -30.299194l0 0c8.382507 0 16.421692 3.1921997 22.348999 8.874451c5.927307 5.68219 9.257263 13.388916 9.257263 21.424744l0 0c0 16.733826 -14.150635 30.299194 -31.606262 30.299194l0 0c-17.455688 0 -31.606323 -13.565369 -31.606323 -30.299194z" fill-rule="evenodd"/><path stroke="#000000" stroke-width="1.0" stroke-linejoin="round" stroke-linecap="butt" d="m570.9764 593.10236l0 0c0 -16.733765 14.150635 -30.299194 31.606323 -30.299194l0 0c8.382507 0 16.421692 3.1921997 22.348999 8.874451c5.927307 5.68219 9.257263 13.388916 9.257263 21.424744l0 0c0 16.733826 -14.150635 30.299194 -31.606262 30.299194l0 0c-17.455688 0 -31.606323 -13.565369 -31.606323 -30.299194z" fill-rule="evenodd"/><path fill="#ffffff" d="m325.81104 593.7966l0 0c0 -16.733765 14.150604 -30.299194 31.606293 -30.299194l0 0c8.382507 0 16.421692 3.1921997 22.34903 8.874451c5.9273376 5.68219 9.257263 13.388916 9.257263 21.424744l0 0c0 16.733826 -14.150635 30.299255 -31.606293 30.299255l0 0c-17.455688 0 -31.606293 -13.56543 -31.606293 -30.299255z" fill-rule="evenodd"/><path stroke="#000000" stroke-width="1.0" stroke-linejoin="round" stroke-linecap="butt" d="m325.81104 593.7966l0 0c0 -16.733765 14.150604 -30.299194 31.606293 -30.299194l0 0c8.382507 0 16.421692 3.1921997 22.34903 8.874451c5.9273376 5.68219 9.257263 13.388916 9.257263 21.424744l0 0c0 16.733826 -14.150635 30.299255 -31.606293 30.299255l0 0c-17.455688 0 -31.606293 -13.56543 -31.606293 -30.299255z" fill-rule="evenodd"/><path fill="#ffffff" d="m683.7587 725.5007l0 0c0 -16.733765 14.150635 -30.299194 31.606323 -30.299194l0 0c8.382507 0 16.421692 3.1921997 22.348999 8.874451c5.927307 5.68219 9.257263 13.388916 9.257263 21.424744l0 0c0 16.733826 -14.150635 30.299255 -31.606262 30.299255l0 0c-17.455688 0 -31.606323 -13.56543 -31.606323 -30.299255z" fill-rule="evenodd"/><path stroke="#000000" stroke-width="1.0" stroke-linejoin="round" stroke-linecap="butt" d="m683.7587 725.5007l0 0c0 -16.733765 14.150635 -30.299194 31.606323 -30.299194l0 0c8.382507 0 16.421692 3.1921997 22.348999 8.874451c5.927307 5.68219 9.257263 13.388916 9.257263 21.424744l0 0c0 16.733826 -14.150635 30.299255 -31.606262 30.299255l0 0c-17.455688 0 -31.606323 -13.56543 -31.606323 -30.299255z" fill-rule="evenodd"/><path fill="#000000" fill-opacity="0.0" d="m162.22047 69.22835l286.17322 0" fill-rule="evenodd"/><path stroke="#999999" stroke-width="4.0" stroke-linejoin="round" stroke-linecap="butt" d="m162.22047 69.22835l286.17322 0" fill-rule="evenodd"/><path fill="#000000" fill-opacity="0.0" d="m511.59186 69.22835l286.17322 0" fill-rule="evenodd"/><path stroke="#999999" stroke-width="4.0" stroke-linejoin="round" stroke-linecap="butt" d="m511.59186 69.22835l286.17322 0" fill-rule="evenodd"/><path fill="#000000" fill-opacity="0.0" d="m152.9632 90.65312l68.157486 95.086624" fill-rule="evenodd"/><path stroke="#999999" stroke-width="4.0" stroke-linejoin="round" stroke-linecap="butt" d="m152.9632 90.65312l68.157486 95.086624" fill-rule="evenodd"/><path fill="#000000" fill-opacity="0.0" d="m265.80835 230.80605l69.25983 95.086624" fill-rule="evenodd"/><path stroke="#999999" stroke-width="4.0" stroke-linejoin="round" stroke-linecap="butt" d="m265.80835 230.80605l69.25983 95.086624" fill-rule="evenodd"/><path fill="#000000" fill-opacity="0.0" d="m479.98557 99.52756l0 76.8819" fill-rule="evenodd"/><path stroke="#999999" stroke-width="4.0" stroke-linejoin="round" stroke-linecap="butt" d="m479.98557 99.52756l0 76.8819" fill-rule="evenodd"/><path fill="#000000" fill-opacity="0.0" d="m479.98688 240.14174l0 76.85039" fill-rule="evenodd"/><path stroke="#999999" stroke-width="4.0" stroke-linejoin="round" stroke-linecap="butt" d="m479.98688 240.14174l0 76.85039" fill-rule="evenodd"/><path fill="#000000" fill-opacity="0.0" d="m807.01056 90.65312l-69.29132 95.086624" fill-rule="evenodd"/><path stroke="#999999" stroke-width="4.0" stroke-linejoin="round" stroke-linecap="butt" d="m807.01056 90.65312l-69.29132 95.086624" fill-rule="evenodd"/><path fill="#000000" fill-opacity="0.0" d="m693.0163 230.80605l-68.09448 95.086624" fill-rule="evenodd"/><path stroke="#999999" stroke-width="4.0" stroke-linejoin="round" stroke-linecap="butt" d="m693.0163 230.80605l-68.09448 95.086624" fill-rule="evenodd"/><path fill="#000000" fill-opacity="0.0" d="m275.0656 208.26772l173.32285 0" fill-rule="evenodd"/><path stroke="#999999" stroke-width="4.0" stroke-linejoin="round" stroke-linecap="butt" d="m275.0656 208.26772l173.32285 0" fill-rule="evenodd"/><path fill="#000000" fill-opacity="0.0" d="m511.59317 208.26772l172.1575 0" fill-rule="evenodd"/><path stroke="#999999" stroke-width="4.0" stroke-linejoin="round" stroke-linecap="butt" d="m511.59317 208.26772l172.1575 0" fill-rule="evenodd"/><path fill="#000000" fill-opacity="0.0" d="m389.02362 347.3071l59.370087 0" fill-rule="evenodd"/><path stroke="#999999" stroke-width="4.0" stroke-linejoin="round" stroke-linecap="butt" d="m389.02362 347.3071l59.370087 0" fill-rule="evenodd"/><path fill="#000000" fill-opacity="0.0" d="m511.6063 347.30637l59.370087 0" fill-rule="evenodd"/><path stroke="#999999" stroke-width="4.0" stroke-linejoin="round" stroke-linecap="butt" d="m511.6063 347.30637l59.370087 0" fill-rule="evenodd"/><path fill="#000000" fill-opacity="0.0" d="m480.0 377.6056l0 55.527557" fill-rule="evenodd"/><path stroke="#999999" stroke-width="4.0" stroke-linejoin="round" stroke-linecap="butt" d="m480.0 377.6056l0 55.527557" fill-rule="evenodd"/><path fill="#000000" fill-opacity="0.0" d="m379.76636 368.73187l68.62991 94.70865" fill-rule="evenodd"/><path stroke="#999999" stroke-width="4.0" stroke-linejoin="round" stroke-linecap="butt" d="m379.76636 368.73187l68.62991 94.70865" fill-rule="evenodd"/><path fill="#000000" fill-opacity="0.0" d="m580.23364 368.73187l-68.62991 94.70865" fill-rule="evenodd"/><path stroke="#999999" stroke-width="4.0" stroke-linejoin="round" stroke-linecap="butt" d="m580.23364 368.73187l-68.62991 94.70865" fill-rule="evenodd"/><path fill="#000000" fill-opacity="0.0" d="m480.0 493.72702l0 69.76376" fill-rule="evenodd"/><path stroke="#999999" stroke-width="4.0" stroke-linejoin="round" stroke-linecap="butt" d="m480.0 493.72702l0 69.76376" fill-rule="evenodd"/><path fill="#000000" fill-opacity="0.0" d="m502.34903 484.8526l77.88974 86.834656" fill-rule="evenodd"/><path stroke="#999999" stroke-width="4.0" stroke-linejoin="round" stroke-linecap="butt" d="m502.34903 484.8526l77.88974 86.834656" fill-rule="evenodd"/><path fill="#000000" fill-opacity="0.0" d="m457.65097 484.8526l-77.88977 87.52759" fill-rule="evenodd"/><path stroke="#999999" stroke-width="4.0" stroke-linejoin="round" stroke-linecap="butt" d="m457.65097 484.8526l-77.88977 87.52759" fill-rule="evenodd"/><path fill="#000000" fill-opacity="0.0" d="m511.6063 593.7887l59.370087 -0.6928711" fill-rule="evenodd"/><path stroke="#999999" stroke-width="4.0" stroke-linejoin="round" stroke-linecap="butt" d="m511.6063 593.7887l59.370087 -0.6928711" fill-rule="evenodd"/><path fill="#000000" fill-opacity="0.0" d="m448.3937 593.7887l-59.370087 0" fill-rule="evenodd"/><path stroke="#999999" stroke-width="4.0" stroke-linejoin="round" stroke-linecap="butt" d="m448.3937 593.7887l-59.370087 0" fill-rule="evenodd"/><path fill="#000000" fill-opacity="0.0" d="m480.0 624.08795l0 69.76373" fill-rule="evenodd"/><path stroke="#999999" stroke-width="4.0" stroke-linejoin="round" stroke-linecap="butt" d="m480.0 624.08795l0 69.76373" fill-rule="evenodd"/><path fill="#000000" fill-opacity="0.0" d="m624.9317 614.52716l68.09448 89.543274" fill-rule="evenodd"/><path stroke="#999999" stroke-width="4.0" stroke-linejoin="round" stroke-linecap="butt" d="m624.9317 614.52716l68.09448 89.543274" fill-rule="evenodd"/><path fill="#000000" fill-opacity="0.0" d="m335.0683 615.2214l-60.0 87.49603" fill-rule="evenodd"/><path stroke="#999999" stroke-width="4.0" stroke-linejoin="round" stroke-linecap="butt" d="m335.0683 615.2214l-60.0 87.49603" fill-rule="evenodd"/><path fill="#000000" fill-opacity="0.0" d="m230.36676 745.577l-70.834656 110.33069" fill-rule="evenodd"/><path stroke="#999999" stroke-width="4.0" stroke-linejoin="round" stroke-linecap="butt" d="m230.36676 745.577l-70.834656 110.33069" fill-rule="evenodd"/><path fill="#000000" fill-opacity="0.0" d="m168.79002 877.3312l275.74805 2.9921265" fill-rule="evenodd"/><path stroke="#999999" stroke-width="4.0" stroke-linejoin="round" stroke-linecap="butt" d="m168.79002 877.3312l275.74805 2.9921265" fill-rule="evenodd"/><path fill="#000000" fill-opacity="0.0" d="m507.74014 880.31525l290.01578 -2.9921265" fill-rule="evenodd"/><path stroke="#999999" stroke-width="4.0" stroke-linejoin="round" stroke-linecap="butt" d="m507.74014 880.31525l290.01578 -2.9921265" fill-rule="evenodd"/><path fill="#000000" fill-opacity="0.0" d="m737.71405 746.9255l69.29132 108.97638" fill-rule="evenodd"/><path stroke="#999999" stroke-width="4.0" stroke-linejoin="round" stroke-linecap="butt" d="m737.71405 746.9255l69.29132 108.97638" fill-rule="evenodd"/><path fill="#000000" fill-opacity="0.0" d="m511.6063 724.15295l172.1575 1.3543091" fill-rule="evenodd"/><path stroke="#999999" stroke-width="4.0" stroke-linejoin="round" stroke-linecap="butt" d="m511.6063 724.15295l172.1575 1.3543091" fill-rule="evenodd"/><path fill="#000000" fill-opacity="0.0" d="m448.3937 724.15295l-164.06299 0" fill-rule="evenodd"/><path stroke="#999999" stroke-width="4.0" stroke-linejoin="round" stroke-linecap="butt" d="m448.3937 724.15295l-164.06299 0" fill-rule="evenodd"/><path fill="#000000" fill-opacity="0.0" d="m480.0 754.45215l-3.8740234 95.55908" fill-rule="evenodd"/><path stroke="#999999" stroke-width="4.0" stroke-linejoin="round" stroke-linecap="butt" d="m480.0 754.45215l-3.8740234 95.55908" fill-rule="evenodd"/></g></svg>