<?xml version="1.0" encoding="utf-8"?>
<svg version="1.1" xmlns="http://www.w3.org/2000/svg" viewBox="-14 -14 128 128">
	<polyline opacity="0.5" points="30.3,101.2 40.7,106.2 82.2,106.2 113.3,76.1 113.3,36 82.2,5.9 73.3,0.9 "/>
	<path style="fill:#FFFFFF;stroke:#000000;stroke-width:1" d="M29.9,0.6h42.4l28.3,29.3v42.4l-28.3,28.3H29.9L0.6,72.4V29.9L29.9,0.6z"/>
	<g transform="scale(.4 .4) translate(83 80)">
		<path d="M-12.5,52.2c0.3-0.3,1.2-3.4,1.8-6.8s1.3-6.2,1.4-6.4
			c0.1-0.1,1.8,1.5,3.8,3.6l3.6,3.8l5.2-2.6c6.9-3.4,16.1-11.3,16.4-14c0.3-3.2-3.9-6.4-9.6-7.5c-2.9-0.6-5.4-1.2-5.7-1.4
			c-0.3-0.2,0.2-1.5,0.9-2.8c1.1-1.8,2.2-2.4,5-2.4c4.9-0.1,11.1-4.1,14.4-9.3c1.4-2.2,2.9-4,3.4-4c0.5,0,1.3,1.5,1.8,3.4
			c0.9,3.2,1.1,3.4,5.3,5.1c4,1.5,4.9,1.4,9.3-0.9c5.3-2.9,8.9-6,8.5-7.5c-0.1-0.5-2.7-2.2-5.7-3.8c-4.5-2.4-5.7-3.4-6.7-5.8
			c-2.1-5-0.6-5.2,4.9-0.8c2.9,2.3,7.3,4.8,10.2,5.8c6.1,2,6.7,2.6,7.8,6.8c1,4.1,0.6,4.5-4.9,4.8c-5.6,0.4-13.9,4.6-14.1,7.2
			c-0.3,2.9-3.6,2.3-9.7-1.7c-2.9-1.9-6.1-3.3-7-3.1c-0.9,0.3-3.8,2.2-6.5,4.4c-5.6,4.5-5.5,4.9,1.4,7.9c3.8,1.6,4.2,2,5.3,5.3
			c1.4,3.9,1.1,4.3-4.9,8.3c-2.2,1.5-7.1,5.1-10.7,7.9c-3.6,2.8-8.6,5.9-11.1,6.9C-4.4,54.9-14.8,54.6-12.5,52.2z M7.8,71.3
			c0.3-4.3,0.9-4.9,5.2-6c4-1,5.2-2,15.3-12.1l11-11l-2.8-2.4c-2.8-2.3-4.7-6.3-3.6-7.4c0.3-0.3,3.5,1.8,7,4.6l6.5,5.2l8.9-8.5
			c8-7.6,10.6-10.8,16.3-19.8c1.5-2.3,1.7-2.4,2.8-0.3c3.2,6,6.2,8.7,13.3,12.2c3.9,1.9,8.3,4.6,9.7,6.1c2.6,2.6,3,5,0.7,5
			c-1.2,0-12.7-7.2-20.5-12.8c-3-2.2-3.1-2.2-6.2,0.9c-2,2-2.8,3.5-2.3,4c0.5,0.5,3.9,2.5,7.6,4.6c6.4,3.6,10,7.2,8.6,8.7
			c-1,1-12.5-5.4-16-8.9l-3.1-3.1l-3.2,3.2c-3.7,3.7-3.8,3.6,5.3,8.8c7.3,4.1,9.8,6.6,8.2,8.2c-1.3,1.3-6.6-1.5-13.6-7.1l-5.2-4.2
			l-3.2,2.3c-1.8,1.3-3.3,2.8-3.5,3.3c-0.1,0.5,6.1,5.2,13.9,10.3C79,64.4,81.6,66.8,81.3,70.4c-0.3,3-1.9,2.1-12.8-6.9
			C63,59.1,55.6,53.2,51.9,50.4l-6.7-5l0.9,10.4L47,66.2l6.8-0.4c3.7-0.2,7.4-1,8.2-1.7s2.1-1.1,2.9-0.7c1.5,0.7,2.9,6.3,2,8.1
			c-0.3,0.5-4.8,0.1-10.1-1l-9.6-2l0.4,5.1c0.4,6.2,4.4,17.7,8.8,25.4c1.8,3.1,2.7,5.7,2.1,5.7c-2.1,0-14.7-10.3-15.9-13
			c-0.6-1.4-0.7-10-0.2-19.1s0.7-18.5,0.4-20.8l-0.6-4.2l-10.8,9.9C25.5,62.9,20.6,67.7,20.6,68s1.3,1.1,2.9,1.7
			c11,4,13.6,5.2,12.7,6c-0.5,0.5-3.8,0.4-7.4-0.2c-3.6-0.6-9.6-1-13.4-1c-3.8,0-7.1-0.1-7.4-0.4C7.8,73.8,7.7,72.6,7.8,71.3z"/>
	</g>
	<g transform="translate(35)">
		<path d="M42.5,73.4l3.2-3.2l1.8,12.4l-12.4-1.8l3.2-3.2l-7.1-7.1l4.2-4.2L42.5,73.4z"/>
	</g>
	<g transform="rotate(180, 50, 50) translate(38)">
		<path d="M38.2,71.8l3.2-3.2L43.1,81l-12.4-1.8l3.2-3.2L26.9,69l4.2-4.2L38.2,71.8z"/>
	</g>
	<g transform="rotate(90, 50, 50) translate(38)">
		<path d="M39.6,72l3.2-3.2l1.8,12.4l-12.4-1.8l3.2-3.2l-7.1-7.1l4.2-4.2L39.6,72z"/>
	</g>
	<g transform="rotate(270, 50, 50) translate(38)">
		<path d="M38.1,73.3l3.2-3.2l1.8,12.4l-12.4-1.8l3.2-3.2l-7.1-7.1l4.2-4.2L38.1,73.3z"/>
	</g>
</svg>
