<svg id="svg" version="1.1" xmlns="http://www.w3.org/2000/svg" xmlns:xlink="http://www.w3.org/1999/xlink" width="400" height="400" viewBox="0, 0, 400,400"><g id="svgg"><path id="path0" d="M-0.000 192.045 L -0.000 384.091 1.891 383.807 C 5.322 383.293,7.269 381.882,9.904 378.000 C 11.403 375.792,13.559 373.737,16.200 371.997 C 19.060 370.114,19.886 369.303,21.699 366.600 C 23.744 363.551,25.719 361.452,28.000 359.905 C 32.408 356.915,33.757 354.840,35.378 348.554 C 37.211 341.452,37.174 344.536,37.196 194.000 C 37.209 101.552,37.358 48.420,37.609 46.682 C 38.265 42.141,39.745 40.007,43.405 38.320 L 45.400 37.400 194.000 37.200 L 342.600 37.000 347.550 35.682 C 354.943 33.712,356.823 32.543,359.905 28.000 C 361.452 25.719,363.551 23.744,366.600 21.699 C 369.373 19.839,370.083 19.101,372.324 15.750 C 373.938 13.336,376.067 11.266,379.591 8.685 C 381.808 7.061,383.465 4.402,383.821 1.900 L 384.091 -0.000 192.045 -0.000 L 0.000 0.000 -0.000 192.045 M280.800 94.261 C 279.196 94.789,278.297 95.471,277.486 96.775 L 276.600 98.200 276.400 201.400 L 276.200 304.600 275.303 306.816 C 274.269 309.369,272.104 311.661,269.800 312.642 C 267.054 313.811,255.552 313.982,181.982 313.951 C 121.045 313.925,111.581 313.998,110.382 314.509 C 105.478 316.596,105.636 322.573,110.632 323.960 C 113.490 324.754,278.300 324.560,280.656 323.761 C 283.394 322.831,284.684 321.715,285.912 319.216 L 287.000 317.000 287.123 209.200 C 287.250 97.759,287.259 98.484,285.692 96.092 C 284.643 94.490,282.518 93.695,280.800 94.261 " stroke="none" fill="#c4c4c4" fill-rule="evenodd"></path><path id="path1" d="M120.600 105.152 C 117.192 106.717,115.735 111.489,117.298 115.972 C 117.948 117.837,119.600 118.652,119.600 117.108 C 119.600 116.236,123.334 111.532,125.468 109.715 C 130.153 105.726,130.126 105.788,127.572 104.898 C 125.530 104.186,122.460 104.298,120.600 105.152 M247.700 104.939 C 245.663 105.607,245.846 106.043,249.400 108.990 C 251.955 111.108,252.552 111.707,254.540 114.147 C 256.658 116.747,256.782 116.838,257.599 116.401 C 258.500 115.918,259.026 112.505,258.619 109.786 C 257.968 105.443,252.951 103.216,247.700 104.939 M170.543 132.769 C 169.852 133.191,168.286 134.765,167.063 136.268 C 165.840 137.771,163.886 139.672,162.720 140.493 C 161.554 141.315,159.828 142.536,158.884 143.207 C 157.941 143.878,155.989 146.041,154.546 148.014 C 152.693 150.549,150.967 152.339,148.662 154.117 C 143.460 158.129,143.400 158.302,143.400 169.200 C 143.400 180.097,143.472 180.306,148.600 184.205 C 150.391 185.567,152.660 187.775,153.754 189.219 C 156.891 193.364,157.333 193.817,160.738 196.377 C 163.992 198.825,164.519 199.385,167.717 203.804 C 168.859 205.381,170.609 207.030,172.813 208.604 C 178.796 212.875,179.992 215.348,180.298 224.079 C 180.777 237.778,177.250 242.051,164.532 243.173 C 156.427 243.889,155.800 244.868,155.800 256.800 C 155.800 266.615,156.067 267.533,159.400 269.200 L 161.400 270.200 181.800 270.200 C 204.346 270.200,204.167 270.219,206.101 267.569 C 207.479 265.681,207.581 263.561,207.593 236.600 C 207.607 207.709,207.704 206.078,209.653 202.065 C 210.888 199.524,211.111 199.306,216.780 195.108 C 217.759 194.383,219.337 192.802,220.286 191.595 C 223.646 187.321,225.146 185.744,227.717 183.787 C 232.217 180.360,232.800 178.687,232.800 169.200 C 232.800 159.782,232.202 158.029,227.858 154.720 C 224.652 152.277,223.246 150.796,220.916 147.410 C 219.348 145.130,218.218 144.077,214.693 141.612 C 211.765 139.564,209.683 137.739,208.192 135.910 C 203.198 129.785,197.886 130.496,202.353 136.692 C 205.198 140.637,205.400 141.494,205.400 149.600 C 205.400 164.200,201.858 167.818,187.600 167.784 C 173.724 167.751,170.056 163.539,170.475 148.119 C 170.669 141.002,171.010 139.806,173.964 135.894 C 175.812 133.447,175.922 133.001,174.826 132.414 C 173.641 131.780,171.933 131.922,170.543 132.769 M118.162 283.137 C 114.906 285.478,117.033 294.566,121.160 295.946 C 124.836 297.174,131.105 295.645,129.086 294.013 C 123.743 289.690,119.600 285.183,119.600 283.692 C 119.600 283.168,118.636 282.796,118.162 283.137 M256.106 284.836 C 253.116 288.472,251.711 289.816,246.514 294.013 C 245.212 295.064,247.867 296.402,251.246 296.398 C 256.869 296.391,259.389 293.176,258.617 286.996 C 258.283 284.322,257.255 283.438,256.106 284.836 " stroke="none" fill="#040404" fill-rule="evenodd"></path><path id="path2" d="M390.795 2.500 C 390.783 8.805,389.502 10.945,382.400 16.514 C 381.190 17.463,379.334 19.401,378.275 20.820 C 375.777 24.167,374.255 25.737,371.800 27.499 C 368.841 29.623,366.904 31.535,365.214 34.001 C 363.068 37.130,360.697 39.159,356.858 41.151 C 352.916 43.195,350.767 45.198,350.090 47.456 C 349.707 48.735,349.600 80.621,349.600 193.414 C 349.600 298.653,349.478 338.447,349.149 340.367 C 348.178 346.041,345.794 348.370,340.118 349.191 C 338.379 349.443,285.363 349.588,193.000 349.596 L 48.600 349.608 46.595 350.541 C 44.289 351.615,43.237 352.881,40.770 357.549 C 38.976 360.944,37.468 362.561,32.405 366.522 C 31.198 367.467,29.614 369.041,28.885 370.020 C 26.087 373.775,24.191 375.749,21.385 377.824 C 18.540 379.928,16.934 381.595,14.292 385.188 C 11.502 388.983,8.803 390.333,3.300 390.688 L -0.000 390.900 -0.000 395.450 L 0.000 400.000 200.000 400.000 L 400.000 400.000 400.000 200.000 L 400.000 0.000 395.400 0.000 L 390.800 0.000 390.795 2.500 M95.961 74.805 C 92.745 75.349,89.809 77.297,88.539 79.730 C 86.990 82.696,86.993 82.373,87.200 202.200 L 87.400 318.200 88.305 320.017 C 89.913 323.246,92.928 324.163,94.960 322.042 C 96.190 320.758,100.393 308.004,101.175 303.182 C 101.459 301.432,101.595 267.917,101.597 199.173 C 101.600 87.496,101.426 95.193,104.022 92.236 C 106.733 89.148,99.150 89.424,187.400 89.198 L 266.200 88.995 269.000 88.140 C 270.540 87.670,273.690 86.713,276.000 86.014 C 278.310 85.316,281.010 84.455,282.000 84.101 C 288.398 81.818,286.836 76.194,279.427 74.835 C 276.640 74.324,98.976 74.295,95.961 74.805 M119.666 95.810 C 113.163 97.231,108.895 102.021,108.002 108.898 C 107.496 112.790,107.496 288.010,108.002 291.902 C 108.778 297.880,111.756 301.670,116.966 303.309 L 119.800 304.200 187.800 304.200 C 252.432 304.200,255.919 304.164,258.200 303.471 C 263.178 301.960,265.249 299.542,266.217 294.111 C 267.044 289.477,267.044 111.323,266.217 106.689 C 265.297 101.525,262.656 98.175,258.032 96.303 L 255.800 95.400 189.000 95.328 C 133.374 95.268,121.776 95.348,119.666 95.810 M127.572 104.898 C 130.126 105.788,130.153 105.726,125.468 109.715 C 123.334 111.532,119.600 116.236,119.600 117.108 C 119.600 118.652,117.948 117.837,117.298 115.972 C 114.682 108.466,120.333 102.375,127.572 104.898 M254.467 104.812 C 256.491 105.374,258.278 107.515,258.619 109.786 C 259.026 112.505,258.500 115.918,257.599 116.401 C 256.782 116.838,256.658 116.747,254.540 114.147 C 252.552 111.707,251.955 111.108,249.400 108.990 C 246.804 106.838,246.415 106.421,246.406 105.783 C 246.390 104.696,251.733 104.053,254.467 104.812 M244.717 113.557 C 247.444 114.789,249.326 117.001,250.152 119.942 C 251.144 123.480,251.144 277.320,250.152 280.858 C 249.326 283.799,247.444 286.011,244.717 287.243 L 242.600 288.200 187.800 288.200 L 133.000 288.200 130.757 287.148 C 128.312 286.002,126.817 284.351,125.708 281.573 C 124.609 278.821,124.609 121.979,125.708 119.227 C 127.128 115.670,129.388 113.713,133.094 112.832 C 133.950 112.628,157.913 112.501,188.600 112.537 L 242.600 112.600 244.717 113.557 M170.130 126.567 C 167.439 127.422,165.717 128.706,163.733 131.335 C 161.017 134.935,159.754 136.214,156.310 138.853 C 154.417 140.303,152.284 142.451,150.802 144.397 C 149.473 146.144,147.543 148.254,146.514 149.087 C 138.626 155.471,138.600 155.536,138.600 169.200 C 138.600 182.928,138.452 182.547,146.322 189.110 C 147.450 190.051,149.539 192.272,150.964 194.045 C 152.390 195.819,154.691 198.172,156.078 199.274 C 159.729 202.177,161.404 203.858,163.655 206.884 C 164.802 208.426,166.891 210.501,168.562 211.759 C 174.634 216.328,175.362 217.785,175.384 225.400 C 175.411 235.043,173.093 237.578,163.503 238.389 C 152.057 239.356,150.548 241.762,150.878 258.519 C 151.205 275.143,150.558 274.800,181.600 274.800 C 205.974 274.800,206.304 274.768,209.192 272.159 C 212.256 269.392,212.143 270.605,212.395 237.600 C 212.577 213.774,212.725 207.935,213.178 206.800 C 214.203 204.229,215.687 202.411,218.404 200.397 C 221.303 198.248,223.127 196.375,226.065 192.530 C 227.090 191.188,229.391 188.977,231.177 187.617 C 237.065 183.135,237.405 182.116,237.384 169.000 C 237.364 155.997,237.077 155.178,230.876 150.458 C 228.809 148.885,226.876 146.905,225.046 144.490 C 223.040 141.841,221.369 140.177,218.797 138.263 C 216.660 136.673,214.540 134.663,213.379 133.126 C 210.514 129.333,209.590 128.426,207.400 127.263 L 205.400 126.200 188.600 126.118 C 175.564 126.055,171.426 126.156,170.130 126.567 M174.826 132.414 C 175.922 133.001,175.812 133.447,173.964 135.894 C 171.010 139.806,170.669 141.002,170.475 148.119 C 170.056 163.539,173.724 167.751,187.600 167.784 C 201.858 167.818,205.400 164.200,205.400 149.600 C 205.400 141.494,205.198 140.637,202.353 136.692 C 197.886 130.496,203.198 129.785,208.192 135.910 C 209.683 137.739,211.765 139.564,214.693 141.612 C 218.218 144.077,219.348 145.130,220.916 147.410 C 223.246 150.796,224.652 152.277,227.858 154.720 C 232.202 158.029,232.800 159.782,232.800 169.200 C 232.800 178.687,232.217 180.360,227.717 183.787 C 225.146 185.744,223.646 187.321,220.286 191.595 C 219.337 192.802,217.759 194.383,216.780 195.108 C 207.211 202.194,207.610 200.388,207.593 236.600 C 207.581 263.561,207.479 265.681,206.101 267.569 C 204.167 270.219,204.346 270.200,181.800 270.200 L 161.400 270.200 159.400 269.200 C 156.067 267.533,155.800 266.615,155.800 256.800 C 155.800 244.868,156.427 243.889,164.532 243.173 C 177.250 242.051,180.777 237.778,180.298 224.079 C 179.992 215.348,178.796 212.875,172.813 208.604 C 170.609 207.030,168.859 205.381,167.717 203.804 C 164.519 199.385,163.992 198.825,160.738 196.377 C 157.333 193.817,156.891 193.364,153.754 189.219 C 152.660 187.775,150.391 185.567,148.600 184.205 C 143.472 180.306,143.400 180.097,143.400 169.200 C 143.400 158.302,143.460 158.129,148.662 154.117 C 150.967 152.339,152.693 150.549,154.546 148.014 C 155.989 146.041,157.941 143.878,158.884 143.207 C 159.828 142.536,161.554 141.315,162.720 140.493 C 163.886 139.672,165.840 137.771,167.063 136.268 C 170.251 132.351,172.563 131.203,174.826 132.414 M193.565 138.227 C 203.097 141.057,203.507 159.254,194.110 162.358 C 184.486 165.537,176.221 161.544,175.175 153.209 C 173.658 141.127,181.585 134.669,193.565 138.227 M119.600 283.692 C 119.600 285.183,123.743 289.690,129.086 294.013 C 131.105 295.645,124.836 297.174,121.160 295.946 C 117.453 294.707,115.657 289.536,117.298 284.828 C 117.948 282.963,119.600 282.148,119.600 283.692 M258.617 286.996 C 259.389 293.176,256.869 296.391,251.246 296.398 C 247.867 296.402,245.212 295.064,246.514 294.013 C 251.711 289.816,253.116 288.472,256.106 284.836 C 257.255 283.438,258.283 284.322,258.617 286.996 " stroke="none" fill="#444444" fill-rule="evenodd"></path><path id="path3" d="M136.200 115.957 C 132.183 116.476,129.606 118.430,128.866 121.518 C 128.332 123.744,128.276 277.253,128.808 279.229 C 130.131 284.142,132.501 284.984,144.400 284.770 C 156.434 284.552,204.794 284.582,224.800 284.818 C 242.068 285.022,242.745 284.935,245.139 282.208 C 247.497 279.522,247.405 281.437,247.345 236.600 C 247.279 187.561,247.279 146.782,247.346 133.000 C 247.431 115.500,247.713 115.713,224.800 115.979 C 201.030 116.255,167.655 116.229,152.400 115.924 C 144.810 115.771,137.520 115.787,136.200 115.957 M207.011 122.833 C 209.981 123.750,212.875 126.262,216.290 130.890 C 217.219 132.149,219.289 134.149,220.890 135.334 C 223.934 137.587,225.872 139.572,228.674 143.307 C 229.617 144.564,231.974 146.762,234.074 148.344 C 240.973 153.540,241.400 154.756,241.400 169.200 C 241.400 183.644,240.941 184.906,233.757 190.219 C 230.999 192.259,229.095 194.245,226.302 198.000 C 225.566 198.990,223.539 200.941,221.798 202.336 C 215.437 207.432,215.907 204.596,215.615 239.600 C 215.261 282.018,218.053 278.934,180.200 278.724 C 155.368 278.587,155.889 278.641,152.161 275.798 C 148.149 272.738,147.510 269.843,147.672 255.482 C 147.868 238.230,149.497 236.020,162.778 234.993 C 170.183 234.420,172.957 231.124,172.265 223.719 C 171.886 219.652,170.582 217.776,165.538 214.038 C 164.266 213.095,162.100 210.809,160.590 208.816 C 158.676 206.289,156.931 204.545,154.509 202.736 C 152.094 200.933,150.376 199.217,148.566 196.800 C 146.744 194.368,144.860 192.489,141.944 190.200 C 135.200 184.904,134.400 182.677,134.400 169.200 C 134.400 156.920,135.430 153.351,140.036 149.672 C 144.871 145.810,146.099 144.623,148.433 141.557 C 149.942 139.575,151.965 137.538,153.736 136.218 C 156.810 133.927,158.803 131.951,160.615 129.400 C 163.418 125.454,166.317 123.278,169.898 122.434 C 173.428 121.602,204.094 121.932,207.011 122.833 M185.061 141.212 C 180.403 142.012,178.600 144.576,178.600 150.400 C 178.600 157.215,180.969 159.600,187.737 159.600 C 194.766 159.600,197.000 157.382,197.000 150.402 C 197.000 142.978,192.946 139.857,185.061 141.212 " stroke="none" fill="#04fcfc" fill-rule="evenodd"></path><path id="path4" d="M383.803 1.976 C 383.449 4.555,381.685 7.283,379.325 8.904 C 376.301 10.979,374.012 13.223,372.290 15.799 C 370.086 19.097,369.366 19.844,366.600 21.699 C 363.551 23.744,361.452 25.719,359.905 28.000 C 356.823 32.543,354.943 33.712,347.550 35.682 L 342.600 37.000 194.000 37.200 L 45.400 37.400 43.405 38.320 C 39.745 40.007,38.265 42.141,37.609 46.682 C 37.358 48.420,37.209 101.552,37.196 194.000 C 37.174 344.536,37.211 341.452,35.378 348.554 C 33.757 354.840,32.408 356.915,28.000 359.905 C 25.719 361.452,23.744 363.551,21.699 366.600 C 19.886 369.303,19.060 370.114,16.200 371.997 C 13.559 373.737,11.403 375.792,9.904 378.000 C 7.269 381.882,5.322 383.293,1.891 383.807 L 0.000 384.091 0.000 387.496 L 0.000 390.900 3.300 390.688 C 8.803 390.333,11.502 388.983,14.292 385.188 C 16.934 381.595,18.540 379.928,21.385 377.824 C 24.191 375.749,26.087 373.775,28.885 370.020 C 29.614 369.041,31.198 367.467,32.405 366.522 C 37.468 362.561,38.976 360.944,40.770 357.549 C 43.237 352.881,44.289 351.615,46.595 350.541 L 48.600 349.608 193.000 349.596 C 285.363 349.588,338.379 349.443,340.118 349.191 C 345.794 348.370,348.178 346.041,349.149 340.367 C 349.478 338.447,349.600 298.653,349.600 193.414 C 349.600 80.621,349.707 48.735,350.090 47.456 C 350.767 45.198,352.916 43.195,356.858 41.151 C 360.697 39.159,363.068 37.130,365.214 34.001 C 366.904 31.535,368.841 29.623,371.800 27.499 C 374.255 25.737,375.777 24.167,378.275 20.820 C 379.334 19.401,381.190 17.463,382.400 16.514 C 389.502 10.945,390.783 8.805,390.795 2.500 L 390.800 0.000 387.438 -0.000 L 384.075 -0.000 383.803 1.976 M279.427 74.835 C 286.836 76.194,288.398 81.818,282.000 84.101 C 281.010 84.455,278.310 85.316,276.000 86.014 C 273.690 86.713,270.540 87.670,269.000 88.140 L 266.200 88.995 187.400 89.198 C 99.150 89.424,106.733 89.148,104.022 92.236 C 101.426 95.193,101.600 87.496,101.597 199.173 C 101.595 267.917,101.459 301.432,101.175 303.182 C 100.393 308.004,96.190 320.758,94.960 322.042 C 92.928 324.163,89.913 323.246,88.305 320.017 L 87.400 318.200 87.200 202.200 C 86.993 82.373,86.990 82.696,88.539 79.730 C 89.809 77.297,92.745 75.349,95.961 74.805 C 98.976 74.295,276.640 74.324,279.427 74.835 M283.960 94.580 C 285.461 95.356,286.209 96.587,286.775 99.212 C 287.132 100.869,287.216 127.550,287.123 209.200 L 287.000 317.000 285.912 319.216 C 284.684 321.715,283.394 322.831,280.656 323.761 C 278.300 324.560,113.490 324.754,110.632 323.960 C 105.636 322.573,105.478 316.596,110.382 314.509 C 111.581 313.998,121.045 313.925,181.982 313.951 C 255.552 313.982,267.054 313.811,269.800 312.642 C 272.104 311.661,274.269 309.369,275.303 306.816 L 276.200 304.600 276.400 201.400 L 276.600 98.200 277.486 96.775 C 278.994 94.351,281.726 93.424,283.960 94.580 M258.032 96.303 C 262.656 98.175,265.297 101.525,266.217 106.689 C 267.044 111.323,267.044 289.477,266.217 294.111 C 265.249 299.542,263.178 301.960,258.200 303.471 C 255.919 304.164,252.432 304.200,187.800 304.200 L 119.800 304.200 116.966 303.309 C 111.756 301.670,108.778 297.880,108.002 291.902 C 107.496 288.010,107.496 112.790,108.002 108.898 C 108.895 102.021,113.163 97.231,119.666 95.810 C 121.776 95.348,133.374 95.268,189.000 95.328 L 255.800 95.400 258.032 96.303 M133.094 112.832 C 129.388 113.713,127.128 115.670,125.708 119.227 C 124.609 121.979,124.609 278.821,125.708 281.573 C 126.817 284.351,128.312 286.002,130.757 287.148 L 133.000 288.200 187.800 288.200 L 242.600 288.200 244.717 287.243 C 247.444 286.011,249.326 283.799,250.152 280.858 C 251.144 277.320,251.144 123.480,250.152 119.942 C 249.326 117.001,247.444 114.789,244.717 113.557 L 242.600 112.600 188.600 112.537 C 157.913 112.501,133.950 112.628,133.094 112.832 M187.800 116.179 C 199.680 116.167,216.330 116.077,224.800 115.979 C 247.713 115.713,247.431 115.500,247.346 133.000 C 247.279 146.782,247.279 187.561,247.345 236.600 C 247.405 281.437,247.497 279.522,245.139 282.208 C 242.745 284.935,242.068 285.022,224.800 284.818 C 204.794 284.582,156.434 284.552,144.400 284.770 C 132.501 284.984,130.131 284.142,128.808 279.229 C 128.276 277.253,128.332 123.744,128.866 121.518 C 130.154 116.143,132.734 115.530,152.400 115.924 C 159.990 116.076,175.920 116.190,187.800 116.179 M169.898 122.434 C 166.317 123.278,163.418 125.454,160.615 129.400 C 158.803 131.951,156.810 133.927,153.736 136.218 C 151.965 137.538,149.942 139.575,148.433 141.557 C 146.099 144.623,144.871 145.810,140.036 149.672 C 135.430 153.351,134.400 156.920,134.400 169.200 C 134.400 182.677,135.200 184.904,141.944 190.200 C 144.860 192.489,146.744 194.368,148.566 196.800 C 150.376 199.217,152.094 200.933,154.509 202.736 C 156.931 204.545,158.676 206.289,160.590 208.816 C 162.100 210.809,164.266 213.095,165.538 214.038 C 170.582 217.776,171.886 219.652,172.265 223.719 C 172.957 231.124,170.183 234.420,162.778 234.993 C 149.497 236.020,147.868 238.230,147.672 255.482 C 147.510 269.843,148.149 272.738,152.161 275.798 C 155.889 278.641,155.368 278.587,180.200 278.724 C 207.418 278.875,208.845 278.679,212.622 274.266 C 215.455 270.956,215.343 272.258,215.615 239.600 C 215.907 204.596,215.437 207.432,221.798 202.336 C 223.539 200.941,225.566 198.990,226.302 198.000 C 229.095 194.245,230.999 192.259,233.757 190.219 C 240.941 184.906,241.400 183.644,241.400 169.200 C 241.400 154.756,240.973 153.540,234.074 148.344 C 231.974 146.762,229.617 144.564,228.674 143.307 C 225.872 139.572,223.934 137.587,220.890 135.334 C 219.289 134.149,217.219 132.149,216.290 130.890 C 212.875 126.262,209.981 123.750,207.011 122.833 C 204.094 121.932,173.428 121.602,169.898 122.434 M207.400 127.263 C 209.590 128.426,210.514 129.333,213.379 133.126 C 214.540 134.663,216.660 136.673,218.797 138.263 C 221.369 140.177,223.040 141.841,225.046 144.490 C 226.876 146.905,228.809 148.885,230.876 150.458 C 237.077 155.178,237.364 155.997,237.384 169.000 C 237.405 182.116,237.065 183.135,231.177 187.617 C 229.391 188.977,227.090 191.188,226.065 192.530 C 223.127 196.375,221.303 198.248,218.404 200.397 C 215.687 202.411,214.203 204.229,213.178 206.800 C 212.725 207.935,212.577 213.774,212.395 237.600 C 212.143 270.605,212.256 269.392,209.192 272.159 C 206.304 274.768,205.974 274.800,181.600 274.800 C 150.558 274.800,151.205 275.143,150.878 258.519 C 150.548 241.762,152.057 239.356,163.503 238.389 C 173.093 237.578,175.411 235.043,175.384 225.400 C 175.362 217.785,174.634 216.328,168.562 211.759 C 166.891 210.501,164.802 208.426,163.655 206.884 C 161.404 203.858,159.729 202.177,156.078 199.274 C 154.691 198.172,152.390 195.819,150.964 194.045 C 149.539 192.272,147.450 190.051,146.322 189.110 C 138.452 182.547,138.600 182.928,138.600 169.200 C 138.600 155.536,138.626 155.471,146.514 149.087 C 147.543 148.254,149.473 146.144,150.802 144.397 C 152.284 142.451,154.417 140.303,156.310 138.853 C 159.754 136.214,161.017 134.935,163.733 131.335 C 167.687 126.095,168.050 126.019,188.600 126.118 L 205.400 126.200 207.400 127.263 M181.678 138.359 C 174.145 140.961,172.259 155.700,178.800 160.865 C 182.912 164.112,193.209 163.924,197.175 160.529 C 201.973 156.422,202.113 144.787,197.417 140.458 C 194.331 137.614,186.760 136.604,181.678 138.359 M193.126 142.086 C 198.709 144.707,198.691 156.045,193.100 158.752 C 190.500 160.010,184.825 159.968,182.363 158.672 C 177.426 156.073,176.947 145.631,181.624 142.537 C 184.401 140.699,189.727 140.490,193.126 142.086 " stroke="none" fill="#848484" fill-rule="evenodd"></path></g></svg>