<svg id="svg" version="1.1" xmlns="http://www.w3.org/2000/svg" xmlns:xlink="http://www.w3.org/1999/xlink" width="400" height="400" viewBox="0, 0, 400,400"><g id="svgg"><path id="path0" d="M0.000 200.000 L 0.000 400.000 200.000 400.000 L 400.000 400.000 400.000 200.000 L 400.000 0.000 200.000 0.000 L 0.000 0.000 0.000 200.000 M368.711 25.618 C 371.118 26.134,373.451 27.988,374.443 30.172 C 375.600 32.719,375.601 368.093,374.444 370.600 C 373.550 372.536,372.284 373.755,370.307 374.581 C 367.792 375.632,32.490 375.496,30.172 374.443 C 27.988 373.451,26.134 371.118,25.618 368.711 C 25.006 365.856,25.035 34.811,25.647 31.953 C 26.241 29.187,29.040 26.259,31.647 25.677 C 34.166 25.115,366.095 25.057,368.711 25.618 M82.600 75.572 C 79.640 76.084,77.658 77.567,76.147 80.400 C 75.423 81.758,75.400 85.383,75.400 200.400 L 75.400 319.000 76.522 320.909 C 77.139 321.959,78.386 323.309,79.293 323.909 L 80.942 325.000 200.371 325.000 L 319.800 325.000 321.244 324.102 C 322.039 323.608,323.209 322.453,323.844 321.536 L 325.000 319.868 325.000 200.369 L 325.000 80.869 323.782 79.134 C 323.112 78.181,321.762 76.950,320.782 76.400 L 319.000 75.400 201.600 75.348 C 137.030 75.319,83.480 75.420,82.600 75.572 M294.200 100.847 C 296.323 101.435,299.365 104.477,299.953 106.600 C 300.582 108.874,300.582 291.926,299.953 294.200 C 299.679 295.190,298.802 296.508,297.655 297.655 C 296.508 298.802,295.190 299.679,294.200 299.953 C 291.926 300.582,108.874 300.582,106.600 299.953 C 104.477 299.365,101.435 296.323,100.847 294.200 C 100.226 291.957,100.217 108.875,100.838 106.639 C 101.397 104.625,104.155 101.725,106.200 101.001 C 108.296 100.260,291.535 100.110,294.200 100.847 M156.623 150.899 C 154.351 151.499,151.472 154.496,150.870 156.888 C 150.199 159.554,150.199 241.246,150.870 243.912 C 151.515 246.474,154.326 249.285,156.888 249.930 C 159.554 250.601,241.246 250.601,243.912 249.930 C 246.474 249.285,249.285 246.474,249.930 243.912 C 250.601 241.246,250.601 159.554,249.930 156.888 C 249.285 154.326,246.474 151.515,243.912 150.870 C 241.437 150.247,158.988 150.274,156.623 150.899 M218.711 175.618 C 221.118 176.134,223.451 177.988,224.443 180.172 C 225.128 181.681,225.182 183.161,225.182 200.400 C 225.182 227.403,227.389 225.204,200.313 225.191 C 173.420 225.178,175.200 226.936,175.200 200.400 C 175.200 189.848,175.359 183.299,175.647 181.953 C 176.241 179.187,179.040 176.259,181.647 175.677 C 184.073 175.136,216.224 175.085,218.711 175.618 " stroke="none" fill="#04fcfc" fill-rule="evenodd"></path><path id="path1" d="M31.647 25.677 C 29.040 26.259,26.241 29.187,25.647 31.953 C 25.035 34.811,25.006 365.856,25.618 368.711 C 26.134 371.118,27.988 373.451,30.172 374.443 C 32.490 375.496,367.792 375.632,370.307 374.581 C 372.284 373.755,373.550 372.536,374.444 370.600 C 375.601 368.093,375.600 32.719,374.443 30.172 C 373.451 27.988,371.118 26.134,368.711 25.618 C 366.095 25.057,34.166 25.115,31.647 25.677 M344.713 51.020 C 346.679 51.840,348.723 53.823,349.640 55.800 C 350.803 58.305,350.803 342.495,349.640 345.000 C 348.723 346.977,346.679 348.960,344.713 349.780 C 342.186 350.834,58.076 350.696,55.800 349.640 C 53.823 348.723,51.840 346.679,51.020 344.713 C 50.072 342.440,50.072 58.360,51.020 56.087 C 51.840 54.121,53.823 52.077,55.800 51.160 C 58.076 50.104,342.186 49.966,344.713 51.020 M106.200 101.001 C 104.155 101.725,101.397 104.625,100.838 106.639 C 100.217 108.875,100.226 291.957,100.847 294.200 C 101.435 296.323,104.477 299.365,106.600 299.953 C 108.874 300.582,291.926 300.582,294.200 299.953 C 295.190 299.679,296.508 298.802,297.655 297.655 C 298.802 296.508,299.679 295.190,299.953 294.200 C 300.582 291.926,300.582 108.874,299.953 106.600 C 299.365 104.477,296.323 101.435,294.200 100.847 C 291.535 100.110,108.296 100.260,106.200 101.001 M268.975 125.635 C 271.201 126.196,273.505 128.107,274.443 130.172 C 275.596 132.710,275.597 268.102,274.444 270.600 C 273.550 272.536,272.284 273.755,270.307 274.581 C 267.804 275.627,132.485 275.493,130.172 274.443 C 128.107 273.505,126.196 271.201,125.635 268.975 C 125.012 266.498,125.023 134.258,125.647 131.780 C 126.282 129.256,128.770 126.557,131.131 125.831 C 133.542 125.089,266.058 124.901,268.975 125.635 M181.647 175.677 C 179.040 176.259,176.241 179.187,175.647 181.953 C 175.060 184.694,175.035 215.991,175.618 218.711 C 176.134 221.118,177.988 223.451,180.172 224.443 C 181.680 225.128,183.169 225.183,200.313 225.191 C 227.389 225.204,225.182 227.403,225.182 200.400 C 225.182 173.361,226.991 175.174,200.080 175.243 C 190.851 175.267,182.617 175.460,181.647 175.677 " stroke="none" fill="#0404fc" fill-rule="evenodd"></path><path id="path2" d="M55.800 51.160 C 53.823 52.077,51.840 54.121,51.020 56.087 C 50.072 58.360,50.072 342.440,51.020 344.713 C 51.840 346.679,53.823 348.723,55.800 349.640 C 58.076 350.696,342.186 350.834,344.713 349.780 C 346.679 348.960,348.723 346.977,349.640 345.000 C 350.803 342.495,350.803 58.305,349.640 55.800 C 348.723 53.823,346.679 51.840,344.713 51.020 C 342.186 49.966,58.076 50.104,55.800 51.160 M320.782 76.400 C 321.762 76.950,323.112 78.181,323.782 79.134 L 325.000 80.869 325.000 200.369 L 325.000 319.868 323.844 321.536 C 323.209 322.453,322.039 323.608,321.244 324.102 L 319.800 325.000 200.371 325.000 L 80.942 325.000 79.293 323.909 C 78.386 323.309,77.139 321.959,76.522 320.909 L 75.400 319.000 75.400 200.400 C 75.400 85.383,75.423 81.758,76.147 80.400 C 77.658 77.567,79.640 76.084,82.600 75.572 C 83.480 75.420,137.030 75.319,201.600 75.348 L 319.000 75.400 320.782 76.400 M131.131 125.831 C 128.770 126.557,126.282 129.256,125.647 131.780 C 125.023 134.258,125.012 266.498,125.635 268.975 C 126.196 271.201,128.107 273.505,130.172 274.443 C 132.485 275.493,267.804 275.627,270.307 274.581 C 272.284 273.755,273.550 272.536,274.444 270.600 C 275.597 268.102,275.596 132.710,274.443 130.172 C 273.505 128.107,271.201 126.196,268.975 125.635 C 266.058 124.901,133.542 125.089,131.131 125.831 M243.912 150.870 C 246.474 151.515,249.285 154.326,249.930 156.888 C 250.601 159.554,250.601 241.246,249.930 243.912 C 249.285 246.474,246.474 249.285,243.912 249.930 C 241.246 250.601,159.554 250.601,156.888 249.930 C 154.326 249.285,151.515 246.474,150.870 243.912 C 150.199 241.246,150.199 159.554,150.870 156.888 C 151.472 154.496,154.351 151.499,156.623 150.899 C 158.988 150.274,241.437 150.247,243.912 150.870 " stroke="none" fill="#040484" fill-rule="evenodd"></path></g></svg>