<svg id="svg" version="1.1" xmlns="http://www.w3.org/2000/svg" xmlns:xlink="http://www.w3.org/1999/xlink" width="400" height="400" viewBox="0, 0, 400,400"><g id="svgg"><path id="path0" d="M-0.000 192.045 L -0.000 384.091 1.891 383.807 C 5.322 383.293,7.269 381.882,9.904 378.000 C 11.403 375.792,13.559 373.737,16.200 371.997 C 19.060 370.114,19.886 369.303,21.699 366.600 C 23.744 363.551,25.719 361.452,28.000 359.905 C 32.408 356.915,33.757 354.840,35.378 348.554 C 37.211 341.452,37.174 344.536,37.196 194.000 C 37.209 101.552,37.358 48.420,37.609 46.682 C 38.265 42.141,39.745 40.007,43.405 38.320 L 45.400 37.400 194.000 37.200 L 342.600 37.000 347.550 35.682 C 354.943 33.712,356.823 32.543,359.905 28.000 C 361.452 25.719,363.551 23.744,366.600 21.699 C 369.373 19.839,370.083 19.101,372.324 15.750 C 373.938 13.336,376.067 11.266,379.591 8.685 C 381.808 7.061,383.465 4.402,383.821 1.900 L 384.091 -0.000 192.045 -0.000 L 0.000 0.000 -0.000 192.045 M280.800 94.261 C 279.196 94.789,278.297 95.471,277.486 96.775 L 276.600 98.200 276.400 201.400 L 276.200 304.600 275.303 306.816 C 274.269 309.369,272.104 311.661,269.800 312.642 C 267.054 313.811,255.552 313.982,181.982 313.951 C 121.045 313.925,111.581 313.998,110.382 314.509 C 105.478 316.596,105.636 322.573,110.632 323.960 C 113.490 324.754,278.300 324.560,280.656 323.761 C 283.394 322.831,284.684 321.715,285.912 319.216 L 287.000 317.000 287.123 209.200 C 287.250 97.759,287.259 98.484,285.692 96.092 C 284.643 94.490,282.518 93.695,280.800 94.261 " stroke="none" fill="#c4c4c4" fill-rule="evenodd"></path><path id="path1" d="M121.517 104.534 C 119.655 105.016,118.195 106.181,117.429 107.795 C 116.397 109.971,116.397 290.829,117.429 293.005 C 118.089 294.396,119.444 295.595,120.992 296.158 C 122.714 296.784,254.248 296.499,255.471 295.867 C 256.728 295.216,257.659 294.260,258.369 292.888 C 259.177 291.327,259.038 109.221,258.229 107.656 C 257.480 106.207,255.769 104.813,254.411 104.545 C 252.645 104.196,122.861 104.185,121.517 104.534 M244.061 110.746 C 248.696 112.247,251.871 115.899,252.800 120.797 C 253.355 123.727,253.349 277.105,252.793 280.036 C 251.781 285.375,248.515 288.783,243.000 290.256 C 240.052 291.044,135.554 291.045,132.600 290.258 C 127.013 288.769,123.791 285.025,122.846 278.923 C 122.222 274.898,122.215 125.965,122.839 121.877 C 123.949 114.594,128.408 110.575,136.000 110.015 C 137.650 109.894,162.040 109.815,190.200 109.839 L 241.400 109.885 244.061 110.746 M170.364 128.613 C 168.521 129.189,167.408 130.221,162.848 135.583 C 161.884 136.716,159.684 138.718,157.958 140.032 C 155.997 141.525,153.916 143.609,152.407 145.591 C 151.080 147.334,149.056 149.535,147.910 150.481 C 140.556 156.550,140.400 156.939,140.400 169.200 C 140.400 181.458,140.558 181.853,147.900 187.910 C 149.040 188.851,151.128 191.058,152.540 192.815 C 153.952 194.572,156.073 196.759,157.254 197.674 C 160.593 200.264,162.279 201.948,164.882 205.293 C 166.430 207.281,168.523 209.310,170.744 210.974 C 176.388 215.201,177.327 217.216,177.370 225.200 C 177.430 236.026,174.762 239.079,164.273 240.187 C 158.372 240.811,157.935 240.923,156.096 242.282 C 153.214 244.414,153.000 245.403,153.000 256.610 C 153.000 268.775,153.264 269.686,157.394 271.799 L 159.742 273.000 179.697 273.127 C 205.317 273.290,206.972 273.042,209.292 268.700 L 210.200 267.000 210.420 237.600 C 210.686 202.057,210.376 203.807,217.310 198.680 C 220.164 196.569,221.260 195.434,224.896 190.821 C 225.841 189.622,228.051 187.552,229.807 186.221 C 232.415 184.243,233.220 183.361,234.200 181.400 L 235.400 179.000 235.400 169.200 L 235.400 159.400 234.200 157.000 C 233.216 155.032,232.402 154.142,229.676 152.052 C 227.335 150.259,225.538 148.417,223.600 145.827 C 221.712 143.305,220.054 141.593,218.324 140.381 C 214.729 137.862,213.105 136.309,210.765 133.153 C 209.493 131.437,208.003 129.966,206.855 129.291 L 205.000 128.200 188.600 128.119 C 175.299 128.054,171.853 128.147,170.364 128.613 M195.023 136.443 C 202.228 139.139,205.271 150.772,200.983 159.233 C 197.837 165.443,184.428 167.323,177.497 162.527 C 172.493 159.064,171.593 145.165,176.012 139.585 C 179.214 135.542,188.509 134.006,195.023 136.443 " stroke="none" fill="#040404" fill-rule="evenodd"></path><path id="path2" d="M134.289 114.010 C 130.439 114.668,127.874 116.930,126.817 120.600 C 126.203 122.729,125.773 270.867,126.364 276.640 C 127.049 283.340,129.249 285.969,134.800 286.722 C 139.056 287.298,240.663 287.081,242.640 286.491 C 245.385 285.671,246.906 284.389,248.200 281.800 L 249.400 279.400 249.400 200.400 L 249.400 121.400 248.480 119.405 C 247.276 116.793,246.355 115.861,243.861 114.732 L 241.800 113.800 189.000 113.742 C 159.960 113.710,135.340 113.831,134.289 114.010 M206.973 125.380 C 209.146 126.201,211.958 128.792,214.690 132.491 C 215.619 133.750,217.689 135.750,219.290 136.937 C 222.926 139.633,223.966 140.672,226.654 144.298 C 227.982 146.089,229.911 148.021,231.702 149.354 C 238.349 154.301,238.562 154.863,238.730 167.891 C 238.909 181.778,238.304 183.998,233.325 187.691 C 230.349 189.899,227.470 192.769,225.103 195.891 C 224.064 197.262,221.726 199.554,219.907 200.986 C 218.088 202.418,216.226 204.177,215.769 204.895 C 213.782 208.014,213.836 207.175,213.602 238.400 C 213.343 272.995,213.498 271.995,207.954 274.823 C 204.059 276.810,161.066 277.184,156.313 275.272 C 150.617 272.981,149.800 270.589,149.800 256.200 C 149.800 240.207,151.139 238.135,162.091 237.175 C 171.358 236.364,173.883 234.229,174.303 226.848 C 174.693 219.983,173.495 217.439,167.698 212.827 C 165.881 211.382,163.339 208.850,162.049 207.200 C 159.420 203.839,158.479 202.906,154.923 200.132 C 153.561 199.069,151.369 196.826,150.052 195.147 C 148.735 193.468,146.700 191.308,145.531 190.347 C 137.284 183.574,136.998 182.856,137.033 169.000 C 137.066 155.762,137.495 154.520,143.735 149.600 C 145.471 148.231,148.072 145.584,149.746 143.481 C 151.574 141.185,153.835 138.918,155.691 137.521 C 158.604 135.328,159.716 134.172,163.306 129.600 C 165.187 127.204,168.060 125.390,170.888 124.813 C 174.501 124.075,204.779 124.551,206.973 125.380 M183.223 139.412 C 177.405 141.045,174.591 148.346,176.992 155.577 C 179.890 164.300,196.322 164.157,198.811 155.387 C 202.020 144.082,194.402 136.275,183.223 139.412 " stroke="none" fill="#04fc04" fill-rule="evenodd"></path><path id="path3" d="M383.803 1.976 C 383.449 4.555,381.685 7.283,379.325 8.904 C 376.301 10.979,374.012 13.223,372.290 15.799 C 370.086 19.097,369.366 19.844,366.600 21.699 C 363.551 23.744,361.452 25.719,359.905 28.000 C 356.823 32.543,354.943 33.712,347.550 35.682 L 342.600 37.000 194.000 37.200 L 45.400 37.400 43.405 38.320 C 39.745 40.007,38.265 42.141,37.609 46.682 C 37.358 48.420,37.209 101.552,37.196 194.000 C 37.174 344.536,37.211 341.452,35.378 348.554 C 33.757 354.840,32.408 356.915,28.000 359.905 C 25.719 361.452,23.744 363.551,21.699 366.600 C 19.886 369.303,19.060 370.114,16.200 371.997 C 13.559 373.737,11.403 375.792,9.904 378.000 C 7.269 381.882,5.322 383.293,1.891 383.807 L 0.000 384.091 0.000 387.445 L 0.000 390.800 3.100 390.800 C 8.743 390.799,11.544 389.264,15.238 384.148 C 17.162 381.483,18.530 380.120,21.436 377.973 C 24.352 375.820,25.743 374.432,27.814 371.611 C 29.838 368.853,31.297 367.383,34.003 365.376 C 37.946 362.451,38.707 361.571,41.161 357.092 C 43.304 353.183,44.471 351.795,46.550 350.682 L 48.200 349.800 195.000 349.597 C 323.239 349.419,342.002 349.319,343.400 348.802 C 345.450 348.044,348.043 345.452,348.803 343.400 C 349.321 342.001,349.421 323.368,349.598 195.000 L 349.800 48.200 350.688 46.539 C 351.792 44.475,353.748 42.839,357.386 40.938 C 361.472 38.803,362.554 37.865,365.269 34.104 C 367.159 31.486,368.544 30.109,371.436 27.973 C 374.352 25.820,375.743 24.432,377.814 21.611 C 379.824 18.872,381.301 17.380,383.940 15.423 C 389.274 11.466,390.799 8.726,390.800 3.100 L 390.800 0.000 387.438 -0.000 L 384.075 -0.000 383.803 1.976 M280.427 75.243 C 285.657 76.365,287.371 81.247,283.276 83.359 C 281.992 84.021,270.885 87.456,267.200 88.331 C 264.911 88.874,255.300 88.961,186.930 89.051 C 101.763 89.163,106.986 88.993,104.241 91.738 C 101.365 94.613,101.576 86.447,101.459 199.600 C 101.375 280.744,101.247 302.660,100.846 304.400 C 100.567 305.610,99.827 308.220,99.203 310.200 C 98.578 312.180,97.655 315.231,97.152 316.979 C 95.093 324.131,90.212 324.955,87.942 318.534 C 87.133 316.245,87.134 84.185,87.943 81.800 C 89.119 78.335,91.040 76.469,94.566 75.365 C 96.778 74.673,277.215 74.554,280.427 75.243 M283.960 94.580 C 285.461 95.356,286.209 96.587,286.775 99.212 C 287.132 100.869,287.216 127.550,287.123 209.200 L 287.000 317.000 285.912 319.216 C 284.684 321.715,283.394 322.831,280.656 323.761 C 278.300 324.560,113.490 324.754,110.632 323.960 C 105.636 322.573,105.478 316.596,110.382 314.509 C 111.581 313.998,121.045 313.925,181.982 313.951 C 255.552 313.982,267.054 313.811,269.800 312.642 C 272.104 311.661,274.269 309.369,275.303 306.816 L 276.200 304.600 276.400 201.400 L 276.600 98.200 277.486 96.775 C 278.994 94.351,281.726 93.424,283.960 94.580 M257.292 96.396 C 262.243 97.925,264.991 101.045,266.065 106.354 C 266.861 110.289,266.857 290.562,266.061 294.395 C 264.679 301.051,261.617 303.310,253.008 304.022 C 247.316 304.493,128.861 304.495,122.800 304.024 C 113.776 303.322,109.707 300.253,108.395 293.156 C 108.127 291.707,108.025 259.823,108.095 198.982 L 108.200 107.000 109.162 104.612 C 110.794 100.558,114.432 97.421,118.892 96.220 C 122.770 95.176,253.882 95.342,257.292 96.396 " stroke="none" fill="#848484" fill-rule="evenodd"></path><path id="path4" d="M390.800 3.100 C 390.799 8.726,389.274 11.466,383.940 15.423 C 381.301 17.380,379.824 18.872,377.814 21.611 C 375.743 24.432,374.352 25.820,371.436 27.973 C 368.544 30.109,367.159 31.486,365.269 34.104 C 362.554 37.865,361.472 38.803,357.386 40.938 C 353.748 42.839,351.792 44.475,350.688 46.539 L 349.800 48.200 349.598 195.000 C 349.421 323.368,349.321 342.001,348.803 343.400 C 348.043 345.452,345.450 348.044,343.400 348.802 C 342.002 349.319,323.239 349.419,195.000 349.597 L 48.200 349.800 46.550 350.682 C 44.471 351.795,43.304 353.183,41.161 357.092 C 38.707 361.571,37.946 362.451,34.003 365.376 C 31.297 367.383,29.838 368.853,27.814 371.611 C 25.743 374.432,24.352 375.820,21.436 377.973 C 18.530 380.120,17.162 381.483,15.238 384.148 C 11.544 389.264,8.743 390.799,3.100 390.800 L 0.000 390.800 0.000 395.400 L 0.000 400.000 200.000 400.000 L 400.000 400.000 400.000 200.000 L 400.000 0.000 395.400 0.000 L 390.800 0.000 390.800 3.100 M94.566 75.365 C 91.040 76.469,89.119 78.335,87.943 81.800 C 87.134 84.185,87.133 316.245,87.942 318.534 C 90.212 324.955,95.093 324.131,97.152 316.979 C 97.655 315.231,98.578 312.180,99.203 310.200 C 99.827 308.220,100.567 305.610,100.846 304.400 C 101.247 302.660,101.375 280.744,101.459 199.600 C 101.576 86.447,101.365 94.613,104.241 91.738 C 106.986 88.993,101.763 89.163,186.930 89.051 C 255.300 88.961,264.911 88.874,267.200 88.331 C 270.885 87.456,281.992 84.021,283.276 83.359 C 287.371 81.247,285.657 76.365,280.427 75.243 C 277.215 74.554,96.778 74.673,94.566 75.365 M118.892 96.220 C 114.432 97.421,110.794 100.558,109.162 104.612 L 108.200 107.000 108.095 198.982 C 108.025 259.823,108.127 291.707,108.395 293.156 C 109.707 300.253,113.776 303.322,122.800 304.024 C 128.861 304.495,247.316 304.493,253.008 304.022 C 261.617 303.310,264.679 301.051,266.061 294.395 C 266.857 290.562,266.861 110.289,266.065 106.354 C 264.991 101.045,262.243 97.925,257.292 96.396 C 253.882 95.342,122.770 95.176,118.892 96.220 M254.411 104.545 C 255.769 104.813,257.480 106.207,258.229 107.656 C 259.038 109.221,259.177 291.327,258.369 292.888 C 257.659 294.260,256.728 295.216,255.471 295.867 C 254.248 296.499,122.714 296.784,120.992 296.158 C 119.444 295.595,118.089 294.396,117.429 293.005 C 116.397 290.829,116.397 109.971,117.429 107.795 C 118.195 106.181,119.655 105.016,121.517 104.534 C 122.861 104.185,252.645 104.196,254.411 104.545 M136.000 110.015 C 128.408 110.575,123.949 114.594,122.839 121.877 C 122.215 125.965,122.222 274.898,122.846 278.923 C 123.791 285.025,127.013 288.769,132.600 290.258 C 135.554 291.045,240.052 291.044,243.000 290.256 C 248.515 288.783,251.781 285.375,252.793 280.036 C 253.349 277.105,253.355 123.727,252.800 120.797 C 251.871 115.899,248.696 112.247,244.061 110.746 L 241.400 109.885 190.200 109.839 C 162.040 109.815,137.650 109.894,136.000 110.015 M243.861 114.732 C 246.355 115.861,247.276 116.793,248.480 119.405 L 249.400 121.400 249.400 200.400 L 249.400 279.400 248.200 281.800 C 246.906 284.389,245.385 285.671,242.640 286.491 C 240.663 287.081,139.056 287.298,134.800 286.722 C 129.249 285.969,127.049 283.340,126.364 276.640 C 125.773 270.867,126.203 122.729,126.817 120.600 C 127.874 116.930,130.439 114.668,134.289 114.010 C 135.340 113.831,159.960 113.710,189.000 113.742 L 241.800 113.800 243.861 114.732 M170.888 124.813 C 168.060 125.390,165.187 127.204,163.306 129.600 C 159.716 134.172,158.604 135.328,155.691 137.521 C 153.835 138.918,151.574 141.185,149.746 143.481 C 148.072 145.584,145.471 148.231,143.735 149.600 C 137.495 154.520,137.066 155.762,137.033 169.000 C 136.998 182.856,137.284 183.574,145.531 190.347 C 146.700 191.308,148.735 193.468,150.052 195.147 C 151.369 196.826,153.561 199.069,154.923 200.132 C 158.479 202.906,159.420 203.839,162.049 207.200 C 163.339 208.850,165.881 211.382,167.698 212.827 C 173.495 217.439,174.693 219.983,174.303 226.848 C 173.883 234.229,171.358 236.364,162.091 237.175 C 151.139 238.135,149.800 240.207,149.800 256.200 C 149.800 270.589,150.617 272.981,156.313 275.272 C 161.066 277.184,204.059 276.810,207.954 274.823 C 213.498 271.995,213.343 272.995,213.602 238.400 C 213.836 207.175,213.782 208.014,215.769 204.895 C 216.226 204.177,218.088 202.418,219.907 200.986 C 221.726 199.554,224.064 197.262,225.103 195.891 C 227.470 192.769,230.349 189.899,233.325 187.691 C 238.304 183.998,238.909 181.778,238.730 167.891 C 238.562 154.863,238.349 154.301,231.702 149.354 C 229.911 148.021,227.982 146.089,226.654 144.298 C 223.966 140.672,222.926 139.633,219.290 136.937 C 217.689 135.750,215.619 133.750,214.690 132.491 C 211.958 128.792,209.146 126.201,206.973 125.380 C 204.779 124.551,174.501 124.075,170.888 124.813 M206.855 129.291 C 208.003 129.966,209.493 131.437,210.765 133.153 C 213.105 136.309,214.729 137.862,218.324 140.381 C 220.054 141.593,221.712 143.305,223.600 145.827 C 225.538 148.417,227.335 150.259,229.676 152.052 C 232.402 154.142,233.216 155.032,234.200 157.000 L 235.400 159.400 235.400 169.200 L 235.400 179.000 234.200 181.400 C 233.220 183.361,232.415 184.243,229.807 186.221 C 228.051 187.552,225.841 189.622,224.896 190.821 C 221.260 195.434,220.164 196.569,217.310 198.680 C 210.376 203.807,210.686 202.057,210.420 237.600 L 210.200 267.000 209.292 268.700 C 206.972 273.042,205.317 273.290,179.697 273.127 L 159.742 273.000 157.394 271.799 C 153.264 269.686,153.000 268.775,153.000 256.610 C 153.000 245.403,153.214 244.414,156.096 242.282 C 157.935 240.923,158.372 240.811,164.273 240.187 C 174.762 239.079,177.430 236.026,177.370 225.200 C 177.327 217.216,176.388 215.201,170.744 210.974 C 168.523 209.310,166.430 207.281,164.882 205.293 C 162.279 201.948,160.593 200.264,157.254 197.674 C 156.073 196.759,153.952 194.572,152.540 192.815 C 151.128 191.058,149.040 188.851,147.900 187.910 C 140.558 181.853,140.400 181.458,140.400 169.200 C 140.400 156.939,140.556 156.550,147.910 150.481 C 149.056 149.535,151.080 147.334,152.407 145.591 C 153.916 143.609,155.997 141.525,157.958 140.032 C 159.684 138.718,161.884 136.716,162.848 135.583 C 169.799 127.410,167.707 128.017,188.600 128.119 L 205.000 128.200 206.855 129.291 M183.460 135.593 C 176.105 136.929,173.448 140.850,173.418 150.408 C 173.384 161.422,176.758 164.883,187.600 164.956 C 197.202 165.020,201.224 162.140,202.440 154.329 C 204.544 140.810,196.803 133.168,183.460 135.593 M193.341 139.606 C 201.763 142.088,201.491 158.757,192.987 161.224 C 182.643 164.224,176.067 159.540,176.478 149.464 C 176.840 140.583,183.480 136.701,193.341 139.606 " stroke="none" fill="#444444" fill-rule="evenodd"></path></g></svg>