<svg xmlns="http://www.w3.org/2000/svg" viewBox="285 140 170 450">
  <defs>
    <filter id="groundBlur" x="-50%" y="-50%" width="200%" height="200%">
      <feGaussianBlur stdDeviation="6"></feGaussianBlur>
    </filter>
  </defs>

  <!-- ground shadow -->
  <ellipse cx="370" cy="392" rx="52" ry="12" fill="#000000" opacity="0.22" filter="url(#groundBlur)"></ellipse>

  <!-- O black outer outline -->
  <path fill="none" stroke="#000000" stroke-width="32" stroke-linejoin="round" stroke-linecap="butt" d="m322.32285 202.72704
       c0 -26.005219 21.08139 -47.08661 47.08661 -47.08661
       c12.488159 0 24.464813 4.9608917 33.295258 13.791336
       c8.830444 8.83046 13.791351 20.807129 13.791351 33.295273
       c0 26.005219 -21.08139 47.08661 -47.08661 47.08661
       c-26.005219 0 -47.08661 -21.08139 -47.08661 -47.08661z"></path>

  <!-- O yellow stroke -->
  <path fill="none" stroke="#f1c232" stroke-width="24" stroke-linejoin="round" stroke-linecap="butt" d="m322.32285 202.72704
       c0 -26.005219 21.08139 -47.08661 47.08661 -47.08661
       c12.488159 0 24.464813 4.9608917 33.295258 13.791336
       c8.830444 8.83046 13.791351 20.807129 13.791351 33.295273
       c0 26.005219 -21.08139 47.08661 -47.08661 47.08661
       c-26.005219 0 -47.08661 -21.08139 -47.08661 -47.08661z"></path>

  <!-- X black outer outline -->
  <path fill="none" stroke="#000000" stroke-width="12" stroke-linejoin="round" stroke-linecap="round" d="m309.04083 282.86786
       l21.07901 -21.07898
       l39.28961 39.28961
       l39.28961 -39.28961
       l21.07901 21.07898
       l-39.28961 39.289642
       l39.28961 39.28961
       l-21.07901 21.07898
       l-39.28961 -39.28961
       l-39.28961 39.28961
       l-21.07901 -21.07898
       l39.28961 -39.28961z"></path>

  <!-- X white fill -->
  <path fill="#ffffff" d="m309.04083 282.86786
       l21.07901 -21.07898
       l39.28961 39.28961
       l39.28961 -39.28961
       l21.07901 21.07898
       l-39.28961 39.289642
       l39.28961 39.28961
       l-21.07901 21.07898
       l-39.28961 -39.28961
       l-39.28961 39.28961
       l-21.07901 -21.07898
       l39.28961 -39.28961z"></path>
</svg>