<svg id="svg" version="1.1" xmlns="http://www.w3.org/2000/svg" xmlns:xlink="http://www.w3.org/1999/xlink" width="400" height="400" viewBox="0, 0, 400,400"><g id="svgg"><path id="path0" d="M-0.000 192.045 L -0.000 384.091 1.891 383.807 C 5.322 383.293,7.269 381.882,9.904 378.000 C 11.403 375.792,13.559 373.737,16.200 371.997 C 19.060 370.114,19.886 369.303,21.699 366.600 C 23.744 363.551,25.719 361.452,28.000 359.905 C 32.408 356.915,33.757 354.840,35.378 348.554 C 37.211 341.452,37.174 344.536,37.196 194.000 C 37.209 101.552,37.358 48.420,37.609 46.682 C 38.265 42.141,39.745 40.007,43.405 38.320 L 45.400 37.400 194.000 37.200 L 342.600 37.000 347.550 35.682 C 354.943 33.712,356.823 32.543,359.905 28.000 C 361.452 25.719,363.551 23.744,366.600 21.699 C 369.373 19.839,370.083 19.101,372.324 15.750 C 373.938 13.336,376.067 11.266,379.591 8.685 C 381.808 7.061,383.465 4.402,383.821 1.900 L 384.091 -0.000 192.045 -0.000 L 0.000 0.000 -0.000 192.045 M280.800 94.261 C 279.196 94.789,278.297 95.471,277.486 96.775 L 276.600 98.200 276.400 201.400 L 276.200 304.600 275.303 306.816 C 274.269 309.369,272.104 311.661,269.800 312.642 C 267.054 313.811,255.552 313.982,181.982 313.951 C 121.045 313.925,111.581 313.998,110.382 314.509 C 105.478 316.596,105.636 322.573,110.632 323.960 C 113.490 324.754,278.300 324.560,280.656 323.761 C 283.394 322.831,284.684 321.715,285.912 319.216 L 287.000 317.000 287.123 209.200 C 287.250 97.759,287.259 98.484,285.692 96.092 C 284.643 94.490,282.518 93.695,280.800 94.261 " stroke="none" fill="#c4c4c4" fill-rule="evenodd"></path><path id="path1" d="M123.126 104.058 C 119.699 104.548,117.589 106.271,116.793 109.228 C 116.214 111.375,116.223 289.459,116.802 291.606 C 117.364 293.695,118.847 295.372,120.834 296.167 C 122.961 297.018,251.612 297.188,254.432 296.343 C 256.663 295.675,258.603 293.410,259.157 290.827 C 259.785 287.896,259.785 112.904,259.157 109.973 C 258.583 107.299,256.637 105.079,254.301 104.436 C 252.447 103.926,126.584 103.563,123.126 104.058 M243.247 113.513 C 246.392 114.589,248.605 116.801,249.690 119.953 C 250.361 121.901,250.652 274.307,249.992 278.597 C 249.276 283.261,247.196 285.837,243.000 287.258 C 240.627 288.062,134.973 288.062,132.600 287.258 C 129.895 286.342,128.248 285.019,126.995 282.757 L 125.800 280.600 125.800 200.400 L 125.800 120.200 127.000 118.012 C 128.444 115.380,130.789 113.785,134.000 113.250 C 137.573 112.655,241.470 112.905,243.247 113.513 M171.493 125.602 C 167.456 126.308,166.125 127.317,161.506 133.177 C 160.562 134.374,158.269 136.541,156.410 137.992 C 154.326 139.620,152.020 141.927,150.394 144.015 C 148.861 145.983,146.355 148.522,144.407 150.079 C 138.740 154.613,138.084 156.212,137.719 166.400 C 137.230 180.019,138.402 183.770,144.600 188.415 C 146.875 190.120,148.716 192.027,151.147 195.200 C 152.075 196.410,154.391 198.660,156.295 200.200 C 158.199 201.740,161.206 204.760,162.978 206.912 C 164.750 209.063,167.370 211.696,168.800 212.762 C 174.102 216.716,174.997 218.540,174.999 225.400 C 175.001 234.652,172.527 237.093,162.256 237.971 C 151.756 238.869,150.256 241.383,150.475 257.706 C 150.719 275.823,150.321 275.594,181.600 275.594 C 205.102 275.594,207.018 275.361,210.079 272.137 C 212.691 269.385,212.577 270.780,212.828 238.400 C 212.991 217.304,213.190 208.592,213.532 207.555 C 214.332 205.124,216.060 202.973,219.200 200.500 C 222.335 198.032,223.376 196.946,226.470 192.913 C 227.499 191.572,229.659 189.493,231.270 188.292 C 237.706 183.497,237.800 183.222,237.800 169.200 C 237.800 155.133,237.788 155.098,231.097 149.905 C 229.062 148.325,227.135 146.331,225.497 144.112 C 223.644 141.601,222.051 140.016,219.321 137.968 C 216.767 136.052,214.901 134.235,213.215 132.020 C 208.154 125.371,208.433 125.448,189.000 125.349 C 180.420 125.305,172.542 125.419,171.493 125.602 M192.616 138.617 C 199.398 140.372,202.638 150.017,198.921 157.383 C 194.676 165.795,177.961 164.171,176.029 155.160 C 173.358 142.705,180.580 135.502,192.616 138.617 " stroke="none" fill="#040404" fill-rule="evenodd"></path><path id="path2" d="M134.000 113.250 C 130.789 113.785,128.444 115.380,127.000 118.012 L 125.800 120.200 125.800 200.400 L 125.800 280.600 126.995 282.757 C 128.248 285.019,129.895 286.342,132.600 287.258 C 134.973 288.062,240.627 288.062,243.000 287.258 C 247.196 285.837,249.276 283.261,249.992 278.597 C 250.652 274.307,250.361 121.901,249.690 119.953 C 248.605 116.801,246.392 114.589,243.247 113.513 C 241.470 112.905,137.573 112.655,134.000 113.250 M206.373 126.122 C 208.976 127.141,210.503 128.457,213.215 132.020 C 214.901 134.235,216.767 136.052,219.321 137.968 C 222.051 140.016,223.644 141.601,225.497 144.112 C 227.135 146.331,229.062 148.325,231.097 149.905 C 237.788 155.098,237.800 155.133,237.800 169.200 C 237.800 183.222,237.706 183.497,231.270 188.292 C 229.659 189.493,227.499 191.572,226.470 192.913 C 223.376 196.946,222.335 198.032,219.200 200.500 C 216.060 202.973,214.332 205.124,213.532 207.555 C 213.190 208.592,212.991 217.304,212.828 238.400 C 212.577 270.780,212.691 269.385,210.079 272.137 C 207.018 275.361,205.102 275.594,181.600 275.594 C 150.321 275.594,150.719 275.823,150.475 257.706 C 150.256 241.383,151.756 238.869,162.256 237.971 C 172.527 237.093,175.001 234.652,174.999 225.400 C 174.997 218.540,174.102 216.716,168.800 212.762 C 167.370 211.696,164.750 209.063,162.978 206.912 C 161.206 204.760,158.199 201.740,156.295 200.200 C 154.391 198.660,152.075 196.410,151.147 195.200 C 148.716 192.027,146.875 190.120,144.600 188.415 C 138.402 183.770,137.230 180.019,137.719 166.400 C 138.084 156.212,138.740 154.613,144.407 150.079 C 146.355 148.522,148.861 145.983,150.394 144.015 C 152.020 141.927,154.326 139.620,156.410 137.992 C 158.269 136.541,160.562 134.374,161.506 133.177 C 167.945 125.008,167.140 125.237,189.000 125.349 C 202.732 125.419,204.812 125.511,206.373 126.122 M183.494 138.435 C 176.992 139.967,174.141 146.356,176.029 155.160 C 177.231 160.765,183.013 163.656,190.649 162.469 C 196.597 161.545,198.967 159.298,200.000 153.601 C 201.994 142.605,194.606 135.817,183.494 138.435 " stroke="none" fill="#fc0404" fill-rule="evenodd"></path><path id="path3" d="M383.803 1.976 C 383.449 4.555,381.685 7.283,379.325 8.904 C 376.301 10.979,374.012 13.223,372.290 15.799 C 370.086 19.097,369.366 19.844,366.600 21.699 C 363.551 23.744,361.452 25.719,359.905 28.000 C 356.823 32.543,354.943 33.712,347.550 35.682 L 342.600 37.000 194.000 37.200 L 45.400 37.400 43.405 38.320 C 39.745 40.007,38.265 42.141,37.609 46.682 C 37.358 48.420,37.209 101.552,37.196 194.000 C 37.174 344.536,37.211 341.452,35.378 348.554 C 33.757 354.840,32.408 356.915,28.000 359.905 C 25.719 361.452,23.744 363.551,21.699 366.600 C 19.886 369.303,19.060 370.114,16.200 371.997 C 13.559 373.737,11.403 375.792,9.904 378.000 C 7.269 381.882,5.322 383.293,1.891 383.807 L 0.000 384.091 0.000 387.445 L 0.000 390.800 3.100 390.800 C 8.743 390.799,11.544 389.264,15.238 384.148 C 17.162 381.483,18.530 380.120,21.436 377.973 C 24.352 375.820,25.743 374.432,27.814 371.611 C 29.838 368.853,31.297 367.383,34.003 365.376 C 37.946 362.451,38.707 361.571,41.161 357.092 C 43.304 353.183,44.471 351.795,46.550 350.682 L 48.200 349.800 195.000 349.597 C 323.239 349.419,342.002 349.319,343.400 348.802 C 345.450 348.044,348.043 345.452,348.803 343.400 C 349.321 342.001,349.421 323.368,349.598 195.000 L 349.800 48.200 350.688 46.539 C 351.792 44.475,353.748 42.839,357.386 40.938 C 361.472 38.803,362.554 37.865,365.269 34.104 C 367.159 31.486,368.544 30.109,371.436 27.973 C 374.352 25.820,375.743 24.432,377.814 21.611 C 379.824 18.872,381.301 17.380,383.940 15.423 C 389.274 11.466,390.799 8.726,390.800 3.100 L 390.800 0.000 387.438 -0.000 L 384.075 -0.000 383.803 1.976 M280.427 75.243 C 285.657 76.365,287.371 81.247,283.276 83.359 C 281.992 84.021,270.885 87.456,267.200 88.331 C 264.911 88.874,255.300 88.961,186.930 89.051 C 101.763 89.163,106.986 88.993,104.241 91.738 C 101.365 94.613,101.576 86.447,101.459 199.600 C 101.375 280.744,101.247 302.660,100.846 304.400 C 100.567 305.610,99.827 308.220,99.203 310.200 C 98.578 312.180,97.655 315.231,97.152 316.979 C 95.093 324.131,90.212 324.955,87.942 318.534 C 87.133 316.245,87.134 84.185,87.943 81.800 C 89.119 78.335,91.040 76.469,94.566 75.365 C 96.778 74.673,277.215 74.554,280.427 75.243 M283.960 94.580 C 285.461 95.356,286.209 96.587,286.775 99.212 C 287.132 100.869,287.216 127.550,287.123 209.200 L 287.000 317.000 285.912 319.216 C 284.684 321.715,283.394 322.831,280.656 323.761 C 278.300 324.560,113.490 324.754,110.632 323.960 C 105.636 322.573,105.478 316.596,110.382 314.509 C 111.581 313.998,121.045 313.925,181.982 313.951 C 255.552 313.982,267.054 313.811,269.800 312.642 C 272.104 311.661,274.269 309.369,275.303 306.816 L 276.200 304.600 276.400 201.400 L 276.600 98.200 277.486 96.775 C 278.994 94.351,281.726 93.424,283.960 94.580 M257.292 96.396 C 262.243 97.925,264.991 101.045,266.065 106.354 C 266.861 110.289,266.857 290.562,266.061 294.395 C 264.679 301.051,261.617 303.310,253.008 304.022 C 247.316 304.493,128.861 304.495,122.800 304.024 C 113.776 303.322,109.707 300.253,108.395 293.156 C 108.127 291.707,108.025 259.823,108.095 198.982 L 108.200 107.000 109.162 104.612 C 110.794 100.558,114.432 97.421,118.892 96.220 C 122.770 95.176,253.882 95.342,257.292 96.396 " stroke="none" fill="#848484" fill-rule="evenodd"></path><path id="path4" d="M390.800 3.100 C 390.799 8.726,389.274 11.466,383.940 15.423 C 381.301 17.380,379.824 18.872,377.814 21.611 C 375.743 24.432,374.352 25.820,371.436 27.973 C 368.544 30.109,367.159 31.486,365.269 34.104 C 362.554 37.865,361.472 38.803,357.386 40.938 C 353.748 42.839,351.792 44.475,350.688 46.539 L 349.800 48.200 349.598 195.000 C 349.421 323.368,349.321 342.001,348.803 343.400 C 348.043 345.452,345.450 348.044,343.400 348.802 C 342.002 349.319,323.239 349.419,195.000 349.597 L 48.200 349.800 46.550 350.682 C 44.471 351.795,43.304 353.183,41.161 357.092 C 38.707 361.571,37.946 362.451,34.003 365.376 C 31.297 367.383,29.838 368.853,27.814 371.611 C 25.743 374.432,24.352 375.820,21.436 377.973 C 18.530 380.120,17.162 381.483,15.238 384.148 C 11.544 389.264,8.743 390.799,3.100 390.800 L 0.000 390.800 0.000 395.400 L 0.000 400.000 200.000 400.000 L 400.000 400.000 400.000 200.000 L 400.000 0.000 395.400 0.000 L 390.800 0.000 390.800 3.100 M94.566 75.365 C 91.040 76.469,89.119 78.335,87.943 81.800 C 87.134 84.185,87.133 316.245,87.942 318.534 C 90.212 324.955,95.093 324.131,97.152 316.979 C 97.655 315.231,98.578 312.180,99.203 310.200 C 99.827 308.220,100.567 305.610,100.846 304.400 C 101.247 302.660,101.375 280.744,101.459 199.600 C 101.576 86.447,101.365 94.613,104.241 91.738 C 106.986 88.993,101.763 89.163,186.930 89.051 C 255.300 88.961,264.911 88.874,267.200 88.331 C 270.885 87.456,281.992 84.021,283.276 83.359 C 287.371 81.247,285.657 76.365,280.427 75.243 C 277.215 74.554,96.778 74.673,94.566 75.365 M118.892 96.220 C 114.432 97.421,110.794 100.558,109.162 104.612 L 108.200 107.000 108.095 198.982 C 108.025 259.823,108.127 291.707,108.395 293.156 C 109.707 300.253,113.776 303.322,122.800 304.024 C 128.861 304.495,247.316 304.493,253.008 304.022 C 261.617 303.310,264.679 301.051,266.061 294.395 C 266.857 290.562,266.861 110.289,266.065 106.354 C 264.991 101.045,262.243 97.925,257.292 96.396 C 253.882 95.342,122.770 95.176,118.892 96.220 M254.301 104.436 C 256.637 105.079,258.583 107.299,259.157 109.973 C 259.785 112.904,259.785 287.896,259.157 290.827 C 258.603 293.410,256.663 295.675,254.432 296.343 C 251.612 297.188,122.961 297.018,120.834 296.167 C 118.847 295.372,117.364 293.695,116.802 291.606 C 116.223 289.459,116.214 111.375,116.793 109.228 C 117.589 106.271,119.699 104.548,123.126 104.058 C 126.584 103.563,252.447 103.926,254.301 104.436 " stroke="none" fill="#444444" fill-rule="evenodd"></path></g></svg>