<svg id="svg" version="1.1" xmlns="http://www.w3.org/2000/svg" xmlns:xlink="http://www.w3.org/1999/xlink" width="400" height="400" viewBox="0, 0, 400,400"><g id="svgg"><path id="path0" d="M128.400 84.874 C 119.331 86.151,120.038 99.042,129.329 101.801 C 138.993 104.671,143.547 90.004,134.325 85.708 C 131.828 84.545,131.283 84.468,128.400 84.874 M102.600 97.462 C 102.160 97.555,101.428 97.709,100.974 97.805 C 98.853 98.250,97.731 100.122,97.356 103.842 C 96.966 107.700,95.376 109.354,91.695 109.732 C 86.935 110.220,85.564 111.487,84.818 116.085 C 83.051 126.972,97.687 131.444,101.549 121.197 C 103.390 116.314,103.827 115.839,107.836 114.371 C 119.390 110.140,114.674 94.909,102.600 97.462 M130.600 125.664 C 129.017 126.533,126.314 129.437,125.367 131.285 C 123.947 134.059,122.219 135.836,119.247 137.581 C 116.596 139.138,114.086 141.436,113.247 143.074 C 112.946 143.663,112.800 148.010,112.800 156.408 L 112.800 168.869 114.057 170.620 C 114.749 171.583,115.964 172.796,116.757 173.316 C 117.551 173.835,119.234 174.923,120.498 175.733 C 122.076 176.744,123.256 177.924,124.267 179.502 C 125.077 180.766,126.165 182.449,126.684 183.243 C 127.204 184.036,128.427 185.258,129.401 185.958 L 131.173 187.230 133.486 186.564 C 136.377 185.731,138.798 184.634,141.500 182.932 L 143.600 181.610 143.600 168.805 L 143.600 156.000 149.171 156.000 C 156.383 156.000,156.000 156.383,156.000 149.171 L 156.000 143.600 159.900 143.573 C 162.778 143.553,163.586 143.442,162.983 143.149 C 162.219 142.778,162.163 142.377,162.130 137.048 C 162.087 130.078,161.489 128.717,157.211 125.860 C 155.996 125.049,132.041 124.872,130.600 125.664 M230.169 157.700 C 228.826 159.285,226.719 163.752,225.783 167.000 C 224.842 170.267,223.174 172.554,220.470 174.286 C 219.221 175.085,217.551 176.165,216.757 176.684 C 215.964 177.204,214.749 178.417,214.057 179.380 L 212.800 181.131 212.800 187.505 L 212.800 193.880 214.001 195.539 C 215.691 197.871,218.012 199.425,221.338 200.451 C 225.136 201.622,227.018 202.569,229.272 204.443 L 231.144 206.000 236.749 206.000 C 244.429 206.000,243.600 209.011,243.600 181.111 C 243.600 153.381,244.451 156.400,236.636 156.400 L 231.271 156.400 230.169 157.700 M81.325 219.886 C 81.418 231.932,80.801 230.953,88.413 231.130 L 94.000 231.260 94.000 236.808 C 94.000 243.877,93.711 243.600,101.089 243.600 L 106.400 243.600 106.400 248.911 C 106.400 256.688,105.142 256.000,119.363 256.000 L 131.081 256.000 131.305 261.650 C 131.615 269.480,128.464 268.600,156.200 268.600 C 184.082 268.600,180.946 269.483,181.130 261.577 L 181.261 255.980 187.530 256.090 L 193.800 256.200 194.000 261.882 C 194.246 268.858,193.811 268.420,200.756 268.695 L 206.400 268.919 206.400 274.183 C 206.400 281.302,206.073 280.964,213.130 281.138 L 218.725 281.275 218.862 286.870 C 219.036 293.927,218.698 293.600,225.817 293.600 L 231.081 293.600 231.305 299.244 C 231.580 306.189,231.142 305.754,238.118 306.000 L 243.800 306.200 244.000 311.882 C 244.246 318.858,243.811 318.420,250.756 318.695 L 256.400 318.919 256.400 324.183 C 256.400 331.302,256.073 330.964,263.130 331.138 L 268.725 331.275 268.862 336.870 C 269.036 343.927,268.698 343.600,275.817 343.600 L 281.081 343.600 281.305 349.244 C 281.580 356.189,281.142 355.754,288.118 356.000 L 293.800 356.200 294.000 361.882 C 294.137 365.779,294.363 367.726,294.720 368.082 C 295.646 369.005,329.350 368.821,330.286 367.887 C 330.889 367.285,331.020 366.305,331.130 361.587 L 331.260 356.000 336.808 356.000 C 344.343 356.000,343.600 358.036,343.600 337.387 C 343.600 316.995,344.326 319.048,337.048 318.861 L 331.631 318.722 329.316 320.518 C 326.468 322.726,325.293 323.326,321.395 324.564 C 317.407 325.830,315.540 327.172,313.611 330.159 C 310.462 335.031,309.984 335.609,308.108 336.805 L 306.200 338.021 299.400 337.911 C 290.808 337.771,289.070 337.046,287.759 333.053 C 286.416 328.962,283.887 326.423,279.554 324.816 C 276.860 323.817,276.207 323.153,275.152 320.345 C 273.556 316.097,271.000 313.572,266.947 312.241 C 264.324 311.380,263.591 310.471,261.971 306.077 C 261.417 304.574,258.688 301.632,257.197 300.932 C 256.648 300.674,255.158 300.006,253.885 299.447 C 251.749 298.509,251.491 298.251,250.553 296.115 C 249.994 294.842,249.326 293.352,249.068 292.803 C 248.368 291.312,245.426 288.583,243.923 288.029 C 239.529 286.409,238.620 285.676,237.759 283.053 C 236.428 279.000,233.903 276.444,229.655 274.848 C 226.847 273.793,226.183 273.140,225.184 270.446 C 223.577 266.113,221.038 263.584,216.947 262.241 C 214.324 261.380,213.591 260.471,211.971 256.077 C 211.417 254.574,208.688 251.632,207.197 250.932 C 206.648 250.674,205.158 250.006,203.885 249.447 C 201.749 248.509,201.491 248.251,200.553 246.115 C 199.994 244.842,199.326 243.355,199.068 242.812 C 198.297 241.185,195.962 239.098,193.014 237.400 C 190.195 235.777,189.319 234.818,186.291 230.043 C 185.374 228.596,184.054 227.181,182.923 226.432 L 181.063 225.200 175.000 225.200 L 168.937 225.200 167.083 226.428 C 165.960 227.172,164.598 228.631,163.631 230.128 C 160.454 235.043,159.986 235.607,158.108 236.787 L 156.200 237.985 143.778 237.992 L 131.357 238.000 129.570 236.867 C 127.488 235.547,125.894 233.758,124.739 231.447 C 123.782 229.530,121.075 226.586,119.520 225.768 C 118.713 225.344,116.762 225.200,111.804 225.200 C 103.285 225.200,100.996 224.121,99.875 219.576 C 99.495 218.035,97.407 215.355,95.522 213.989 L 93.846 212.776 88.331 212.824 C 82.539 212.875,81.963 212.720,81.468 210.972 C 81.347 210.547,81.283 214.559,81.325 219.886 M289.800 247.443 C 286.550 248.267,285.403 249.745,284.821 253.856 C 284.260 257.816,283.743 258.376,278.601 260.606 C 272.265 263.354,270.947 269.186,275.544 274.137 C 280.188 279.139,287.271 277.122,289.461 270.174 C 290.486 266.921,291.963 265.518,295.473 264.459 C 300.687 262.888,303.104 259.402,302.655 254.099 C 302.193 248.634,300.940 247.583,294.640 247.374 C 292.418 247.300,290.240 247.331,289.800 247.443 M317.729 282.646 C 316.115 284.697,315.039 286.872,313.776 290.633 L 312.738 293.727 313.879 295.351 C 314.507 296.244,315.795 297.565,316.741 298.287 L 318.462 299.600 323.598 299.600 C 326.423 299.600,329.019 299.709,329.367 299.843 C 329.803 300.010,330.002 299.855,330.006 299.343 C 330.011 298.738,330.080 298.707,330.379 299.179 C 331.062 300.259,331.255 297.962,331.125 290.285 C 330.968 280.935,331.449 281.569,324.313 281.297 L 318.952 281.092 317.729 282.646 " stroke="none" fill="#848484" fill-rule="evenodd"></path><path id="path1" d="M139.614 92.261 C 141.024 98.513,133.413 103.959,127.386 101.011 C 125.391 100.035,125.081 99.982,124.477 100.513 C 122.837 101.953,120.133 102.931,117.274 103.118 L 114.348 103.309 114.611 104.864 C 115.233 108.547,112.229 112.762,107.836 114.371 C 104.679 115.527,103.466 116.452,102.716 118.276 C 102.372 119.114,101.780 120.547,101.402 121.461 C 99.954 124.956,95.999 127.484,92.583 127.099 L 90.800 126.898 90.800 129.034 C 90.800 134.156,87.877 138.260,82.865 140.175 C 80.839 140.949,79.688 141.663,78.991 142.576 L 78.000 143.876 78.000 156.324 L 78.000 168.772 79.220 170.162 C 79.891 170.926,81.106 171.767,81.920 172.030 C 86.677 173.570,89.083 175.863,90.256 179.974 C 91.404 184.000,93.393 187.256,95.575 188.682 C 96.654 189.388,98.116 190.828,98.823 191.882 C 100.647 194.601,104.996 198.993,107.712 200.859 C 109.038 201.769,110.574 203.288,111.312 204.417 C 113.112 207.170,116.475 208.908,121.729 209.800 C 123.890 210.167,126.936 210.902,128.499 211.434 C 132.855 212.915,154.371 212.924,158.898 211.446 C 166.187 209.067,178.887 208.346,183.448 210.052 C 186.547 211.212,188.860 213.585,190.037 216.813 C 191.158 219.887,192.824 221.622,195.363 222.357 C 199.000 223.410,201.764 226.306,202.839 230.190 C 203.399 232.214,205.317 234.009,207.861 234.890 C 211.785 236.250,213.750 238.215,215.110 242.139 C 215.991 244.683,217.786 246.601,219.810 247.161 C 223.694 248.236,226.590 251.000,227.643 254.637 C 228.378 257.176,230.113 258.842,233.187 259.963 C 236.536 261.184,238.816 263.464,240.037 266.813 C 241.158 269.887,242.824 271.622,245.363 272.357 C 249.000 273.410,251.764 276.306,252.839 280.190 C 253.399 282.214,255.317 284.009,257.861 284.890 C 261.722 286.228,263.638 288.104,265.042 291.923 C 265.999 294.528,267.316 296.195,268.876 296.777 C 274.125 298.734,276.117 300.407,277.383 303.915 C 278.970 308.317,279.872 309.067,284.534 309.858 C 286.331 310.162,289.207 310.859,290.927 311.406 L 294.054 312.401 295.816 311.189 C 296.784 310.523,298.113 309.198,298.768 308.246 L 299.960 306.515 298.993 303.736 C 298.462 302.208,297.744 299.257,297.398 297.179 C 296.596 292.366,294.596 288.034,292.609 286.806 C 291.057 285.846,287.599 282.153,287.601 281.457 C 287.605 280.535,289.152 278.500,291.013 276.970 C 292.063 276.107,294.487 273.910,296.398 272.089 L 299.874 268.778 299.039 266.289 C 298.579 264.920,298.190 263.757,298.173 263.705 C 298.156 263.652,296.806 264.046,295.171 264.579 C 291.680 265.719,290.497 266.888,289.439 270.243 C 287.792 275.469,282.695 278.366,278.684 276.356 C 274.945 274.482,272.576 270.868,272.897 267.527 L 273.083 265.600 270.441 265.596 C 265.283 265.588,259.600 261.090,259.600 257.014 C 259.600 255.760,256.915 253.382,254.715 252.689 C 250.874 251.478,248.522 249.126,247.311 245.285 C 246.610 243.062,244.237 240.400,242.955 240.400 C 240.148 240.400,235.750 236.241,234.726 232.619 C 234.220 230.828,231.806 228.000,230.783 228.000 C 227.728 228.000,223.396 224.007,222.320 220.200 C 221.702 218.010,219.595 215.872,217.500 215.308 C 213.707 214.286,210.398 210.780,209.467 206.794 C 208.956 204.608,206.912 203.316,202.874 202.627 C 195.564 201.379,191.164 199.236,188.771 195.757 L 187.481 193.883 188.214 192.521 C 189.024 191.018,191.536 188.594,192.954 187.948 C 194.413 187.284,196.594 182.372,197.373 178.000 C 197.745 175.910,198.493 172.877,199.036 171.260 C 200.463 167.003,200.348 144.554,198.880 140.625 C 198.391 139.319,197.701 136.529,197.345 134.425 C 196.550 129.731,194.668 125.680,192.717 124.468 C 188.760 122.011,186.529 117.921,185.043 110.403 C 184.158 105.923,183.927 105.291,182.821 104.303 L 181.587 103.200 174.894 103.200 C 165.375 103.199,162.136 101.547,159.961 95.582 C 159.469 94.232,158.543 92.604,157.903 91.964 L 156.738 90.800 148.011 90.800 L 139.284 90.800 139.614 92.261 M144.720 100.568 C 145.995 101.239,148.905 104.207,149.583 105.529 C 150.046 106.431,155.914 109.600,157.123 109.600 C 159.856 109.600,164.263 113.806,165.275 117.381 C 165.893 119.565,167.745 121.451,170.012 122.204 C 174.195 123.593,178.000 127.680,178.000 130.783 C 178.000 131.806,180.828 134.220,182.619 134.726 C 185.510 135.543,187.765 137.372,189.245 140.101 L 190.600 142.600 190.721 155.326 C 190.855 169.442,190.688 170.778,188.388 173.953 C 187.242 175.536,183.179 177.999,181.714 178.000 C 180.785 178.000,178.446 180.449,177.970 181.920 C 176.452 186.609,174.145 189.070,170.192 190.220 C 167.656 190.957,166.308 192.321,165.215 195.258 C 163.936 198.692,162.393 200.548,159.729 201.856 L 157.400 203.000 143.600 203.000 L 129.800 203.000 127.614 201.800 C 125.047 200.390,123.135 198.049,122.357 195.363 C 121.622 192.824,119.887 191.158,116.813 190.037 C 113.464 188.816,111.184 186.536,109.963 183.187 C 108.842 180.113,107.176 178.378,104.637 177.643 C 100.994 176.588,98.226 173.683,97.163 169.800 C 96.418 167.076,93.931 162.497,92.954 162.052 C 91.536 161.406,89.024 158.982,88.214 157.479 L 87.481 156.117 88.772 154.241 C 89.482 153.209,90.944 151.788,92.021 151.082 C 94.807 149.258,96.138 146.580,97.393 140.276 C 98.980 132.296,100.585 128.957,103.962 126.605 C 106.531 124.816,111.930 119.615,112.889 118.006 C 115.584 113.486,119.795 111.239,128.271 109.800 C 133.472 108.917,136.922 107.160,138.563 104.559 C 140.511 101.473,143.167 99.751,144.720 100.568 " stroke="none" fill="#fc0404" fill-rule="evenodd"></path><path id="path2" d="M133.016 85.105 C 135.792 86.299,137.368 87.486,138.402 89.161 L 139.400 90.778 148.069 90.789 L 156.738 90.800 157.903 91.964 C 158.543 92.604,159.469 94.232,159.961 95.582 C 162.136 101.547,165.375 103.199,174.894 103.200 L 181.587 103.200 182.821 104.303 C 183.927 105.291,184.158 105.923,185.043 110.403 C 186.529 117.921,188.760 122.011,192.717 124.468 C 194.668 125.680,196.550 129.731,197.345 134.425 C 197.701 136.529,198.391 139.319,198.880 140.625 C 200.348 144.554,200.463 167.003,199.036 171.260 C 198.493 172.877,197.745 175.910,197.373 178.000 C 196.594 182.372,194.413 187.284,192.954 187.948 C 191.536 188.594,189.024 191.018,188.214 192.521 L 187.481 193.883 188.771 195.757 C 191.164 199.236,195.564 201.379,202.874 202.627 C 206.912 203.316,208.956 204.608,209.467 206.794 C 210.398 210.780,213.707 214.286,217.500 215.308 C 219.595 215.872,221.702 218.010,222.320 220.200 C 223.396 224.007,227.728 228.000,230.783 228.000 C 231.806 228.000,234.220 230.828,234.726 232.619 C 235.750 236.241,240.148 240.400,242.955 240.400 C 244.237 240.400,246.610 243.062,247.311 245.285 C 248.522 249.126,250.874 251.478,254.715 252.689 C 256.915 253.382,259.600 255.760,259.600 257.014 C 259.600 262.509,271.510 268.809,273.752 264.500 C 274.589 262.891,275.919 261.783,278.400 260.630 L 280.600 259.608 274.581 259.604 L 268.562 259.600 267.060 258.061 C 265.773 256.743,265.503 256.144,265.185 253.894 C 264.515 249.162,263.134 247.775,258.660 247.340 C 255.015 246.986,253.009 245.004,252.676 241.428 C 252.251 236.886,250.864 235.489,246.106 234.815 C 242.372 234.286,240.614 232.578,240.220 229.095 C 239.681 224.335,238.174 222.857,233.200 222.208 C 230.022 221.794,228.190 219.981,227.801 216.866 C 227.177 211.873,225.718 210.358,220.996 209.797 C 217.885 209.427,215.595 207.480,215.609 205.219 C 215.620 203.477,216.865 200.627,217.859 200.071 C 218.263 199.845,218.505 199.594,218.397 199.514 C 218.289 199.433,217.513 198.861,216.673 198.243 C 215.833 197.624,214.641 196.421,214.024 195.570 L 212.903 194.023 212.156 194.848 C 209.924 197.315,207.015 197.543,202.916 195.572 L 199.632 193.992 200.353 192.296 C 201.111 190.515,202.110 186.560,202.771 182.727 C 203.459 178.739,205.694 174.888,207.495 174.586 C 212.212 173.797,211.987 174.651,211.994 157.487 C 212.001 140.354,212.014 140.409,207.476 138.200 C 205.192 137.088,203.510 133.658,202.383 127.810 C 200.771 119.448,198.376 114.735,194.976 113.231 C 193.202 112.446,190.400 107.707,190.400 105.490 C 190.400 98.437,188.314 97.200,176.424 97.200 L 168.802 97.200 167.233 95.783 C 166.042 94.707,165.604 93.960,165.414 92.683 C 164.210 84.609,164.472 84.715,145.400 84.539 C 131.811 84.414,131.447 84.430,133.016 85.105 M120.275 95.660 L 118.749 97.200 113.075 97.209 L 107.400 97.217 109.600 98.343 C 111.041 99.080,112.283 100.123,113.200 101.368 L 114.600 103.269 117.400 103.098 C 121.570 102.843,125.829 100.558,124.622 99.224 C 124.300 98.869,123.566 97.548,122.989 96.289 C 122.413 95.030,121.910 94.027,121.871 94.060 C 121.832 94.093,121.114 94.813,120.275 95.660 M141.563 101.368 C 140.553 102.109,139.203 103.545,138.563 104.559 C 136.922 107.160,133.472 108.917,128.271 109.800 C 119.795 111.239,115.584 113.486,112.889 118.006 C 111.930 119.615,106.531 124.816,103.962 126.605 C 100.585 128.957,98.980 132.296,97.393 140.276 C 96.138 146.580,94.807 149.258,92.021 151.082 C 90.944 151.788,89.482 153.209,88.772 154.241 L 87.481 156.117 88.214 157.479 C 89.024 158.982,91.536 161.406,92.954 162.052 C 93.931 162.497,96.418 167.076,97.163 169.800 C 98.226 173.683,100.994 176.588,104.637 177.643 C 107.176 178.378,108.842 180.113,109.963 183.187 C 111.184 186.536,113.464 188.816,116.813 190.037 C 119.887 191.158,121.622 192.824,122.357 195.363 C 123.135 198.049,125.047 200.390,127.614 201.800 L 129.800 203.000 143.600 203.000 L 157.400 203.000 159.729 201.856 C 162.393 200.548,163.936 198.692,165.215 195.258 C 166.308 192.321,167.656 190.957,170.192 190.220 C 174.145 189.070,176.452 186.609,177.970 181.920 C 178.446 180.449,180.785 178.000,181.714 178.000 C 183.179 177.999,187.242 175.536,188.388 173.953 C 190.688 170.778,190.855 169.442,190.721 155.326 L 190.600 142.600 189.245 140.101 C 187.765 137.372,185.510 135.543,182.619 134.726 C 180.828 134.220,178.000 131.806,178.000 130.783 C 178.000 127.680,174.195 123.593,170.012 122.204 C 167.745 121.451,165.893 119.565,165.275 117.381 C 164.263 113.806,159.856 109.600,157.123 109.600 C 155.914 109.600,150.046 106.431,149.583 105.529 C 148.636 103.681,144.512 99.928,143.520 100.010 C 143.454 100.015,142.574 100.626,141.563 101.368 M95.375 108.100 L 94.200 109.400 95.500 108.225 C 96.215 107.579,96.800 106.994,96.800 106.925 C 96.800 106.616,96.470 106.888,95.375 108.100 M152.400 114.794 C 156.219 115.564,156.740 115.779,158.140 117.166 L 159.679 118.691 159.194 121.027 C 158.842 122.723,158.381 123.670,157.512 124.482 C 156.854 125.097,156.489 125.600,156.701 125.600 C 157.362 125.600,160.796 128.832,161.422 130.043 L 162.017 131.193 163.109 129.989 C 163.909 129.106,164.814 128.657,166.499 128.310 L 168.798 127.835 170.358 129.359 C 171.681 130.650,171.961 131.225,172.199 133.134 C 172.823 138.127,174.282 139.642,179.004 140.203 C 181.008 140.442,181.645 140.723,182.900 141.925 L 184.400 143.362 184.400 156.200 L 184.400 169.038 182.900 170.487 C 181.728 171.620,180.963 171.993,179.400 172.193 C 174.228 172.855,172.812 174.244,172.222 179.240 C 171.837 182.500,170.029 184.194,166.303 184.786 C 161.517 185.546,160.269 186.821,159.758 191.470 C 159.536 193.486,159.281 194.029,157.868 195.500 L 156.233 197.200 143.734 197.200 L 131.234 197.200 129.617 195.662 C 128.599 194.694,128.001 193.767,128.002 193.162 C 128.006 191.428,128.848 189.116,129.833 188.131 C 131.035 186.928,131.104 187.155,129.100 185.710 C 128.165 185.036,126.956 183.777,126.414 182.913 L 125.429 181.342 124.489 182.459 C 122.580 184.728,118.929 185.009,116.960 183.040 C 114.991 181.071,115.272 177.420,117.541 175.511 L 118.658 174.571 117.087 173.586 C 116.223 173.044,114.964 171.835,114.290 170.900 C 112.845 168.896,113.072 168.965,111.869 170.167 C 110.884 171.152,108.572 171.994,106.838 171.998 C 105.144 172.002,102.948 169.246,102.632 166.720 C 102.313 164.164,101.145 159.560,100.318 157.600 C 99.788 156.343,99.797 156.036,100.401 154.600 C 101.121 152.891,102.126 148.868,102.780 145.076 C 103.545 140.646,105.711 137.315,108.035 136.995 C 110.799 136.615,111.660 135.796,111.898 133.319 C 112.191 130.270,117.516 124.955,120.798 124.436 C 123.206 124.055,124.396 123.006,124.405 121.256 C 124.417 118.954,124.829 118.429,127.747 116.998 C 129.530 116.124,131.883 115.378,134.018 115.012 C 137.431 114.425,142.128 113.110,143.129 112.460 C 143.459 112.246,144.516 112.462,145.929 113.032 C 147.178 113.535,150.090 114.328,152.400 114.794 M84.434 125.069 C 84.390 133.471,83.812 134.339,77.821 135.011 C 72.301 135.629,71.865 137.369,72.061 158.000 C 72.240 176.799,72.285 176.923,79.272 177.774 C 82.001 178.106,84.800 180.621,84.800 182.740 C 84.800 188.199,88.864 197.327,92.000 198.912 C 94.904 200.380,100.399 205.794,100.402 207.191 C 100.410 210.514,101.217 211.441,104.600 212.013 C 105.700 212.199,107.872 212.806,109.428 213.361 C 110.983 213.916,113.863 214.647,115.828 214.985 C 121.155 215.900,125.088 217.924,125.408 219.914 C 126.198 224.838,125.283 224.573,142.022 224.731 C 160.618 224.907,161.451 224.741,161.938 220.748 L 162.200 218.600 165.000 217.113 L 167.800 215.625 174.740 215.613 L 181.680 215.600 183.040 216.960 C 185.009 218.929,184.728 222.580,182.459 224.489 L 181.342 225.429 182.913 226.414 C 183.777 226.956,185.036 228.165,185.710 229.100 C 187.155 231.104,186.928 231.035,188.131 229.833 C 189.116 228.848,191.428 228.006,193.162 228.002 C 197.002 227.993,198.081 235.548,194.524 237.538 C 194.090 237.781,194.352 238.135,195.611 239.008 C 196.523 239.640,197.812 240.946,198.475 241.910 C 199.654 243.622,199.695 243.643,200.265 242.829 C 201.030 241.736,202.591 240.974,204.736 240.645 C 209.284 239.948,211.158 246.943,207.171 249.735 C 206.357 250.305,206.378 250.346,208.090 251.525 C 209.054 252.188,210.360 253.477,210.992 254.389 C 211.865 255.648,212.219 255.910,212.462 255.476 C 214.452 251.919,222.007 252.998,221.998 256.838 C 221.994 258.572,221.152 260.884,220.167 261.869 C 218.965 263.072,218.896 262.845,220.900 264.290 C 221.835 264.964,223.044 266.223,223.586 267.087 L 224.571 268.658 225.511 267.541 C 227.420 265.272,231.071 264.991,233.040 266.960 C 235.009 268.929,234.728 272.580,232.459 274.489 L 231.342 275.429 232.913 276.414 C 233.777 276.956,235.036 278.165,235.710 279.100 C 237.155 281.104,236.928 281.035,238.131 279.833 C 239.116 278.848,241.428 278.006,243.162 278.002 C 247.002 277.993,248.081 285.548,244.524 287.538 C 244.090 287.781,244.352 288.135,245.611 289.008 C 246.523 289.640,247.812 290.946,248.475 291.910 C 249.654 293.622,249.695 293.643,250.265 292.829 C 253.057 288.842,260.052 290.716,259.355 295.264 C 259.026 297.409,258.264 298.970,257.171 299.735 C 256.357 300.305,256.378 300.346,258.090 301.525 C 259.054 302.188,260.360 303.477,260.992 304.389 C 261.865 305.648,262.219 305.910,262.462 305.476 C 264.452 301.919,272.007 302.998,271.998 306.838 C 271.994 308.572,271.152 310.884,270.167 311.869 C 268.965 313.072,268.896 312.845,270.900 314.290 C 271.835 314.964,273.044 316.223,273.586 317.087 L 274.571 318.658 275.511 317.541 C 277.488 315.192,281.079 315.030,285.000 317.113 L 287.800 318.600 288.062 320.748 C 288.518 324.483,290.196 324.974,301.600 324.707 C 312.605 324.450,312.000 325.152,312.000 312.634 C 312.000 301.104,311.723 300.412,307.111 300.402 C 305.768 300.399,303.046 295.137,302.634 291.746 C 302.318 289.147,300.929 283.810,300.203 282.405 C 299.571 281.183,305.169 275.078,307.902 274.010 C 313.300 271.900,312.995 265.047,307.421 263.207 C 306.220 262.811,305.795 262.291,304.411 259.526 C 303.525 257.756,302.800 256.520,302.800 256.779 C 302.800 257.776,300.586 261.709,299.519 262.607 C 298.197 263.719,298.158 264.155,299.152 266.770 L 299.904 268.749 296.413 272.075 C 294.493 273.904,292.063 276.107,291.013 276.970 C 289.152 278.500,287.605 280.535,287.601 281.457 C 287.599 282.153,291.057 285.846,292.609 286.806 C 294.596 288.034,296.596 292.366,297.398 297.179 C 297.744 299.257,298.462 302.208,298.993 303.736 L 299.960 306.515 298.768 308.246 C 298.113 309.198,296.784 310.523,295.816 311.189 L 294.054 312.401 290.927 311.406 C 289.207 310.859,286.331 310.162,284.534 309.858 C 279.872 309.067,278.970 308.317,277.383 303.915 C 276.117 300.407,274.125 298.734,268.876 296.777 C 267.316 296.195,265.999 294.528,265.042 291.923 C 263.638 288.104,261.722 286.228,257.861 284.890 C 255.317 284.009,253.399 282.214,252.839 280.190 C 251.764 276.306,249.000 273.410,245.363 272.357 C 242.824 271.622,241.158 269.887,240.037 266.813 C 238.816 263.464,236.536 261.184,233.187 259.963 C 230.113 258.842,228.378 257.176,227.643 254.637 C 226.590 251.000,223.694 248.236,219.810 247.161 C 217.786 246.601,215.991 244.683,215.110 242.139 C 213.750 238.215,211.785 236.250,207.861 234.890 C 205.317 234.009,203.399 232.214,202.839 230.190 C 201.764 226.306,199.000 223.410,195.363 222.357 C 192.824 221.622,191.158 219.887,190.037 216.813 C 188.860 213.585,186.547 211.212,183.448 210.052 C 178.887 208.346,166.187 209.067,158.898 211.446 C 154.371 212.924,132.855 212.915,128.499 211.434 C 126.936 210.902,123.890 210.167,121.729 209.800 C 116.475 208.908,113.112 207.170,111.312 204.417 C 110.574 203.288,109.038 201.769,107.712 200.859 C 104.996 198.993,100.647 194.601,98.823 191.882 C 98.116 190.828,96.654 189.388,95.575 188.682 C 93.393 187.256,91.404 184.000,90.256 179.974 C 89.083 175.863,86.677 173.570,81.920 172.030 C 81.106 171.767,79.891 170.926,79.220 170.162 L 78.000 168.772 78.000 156.324 L 78.000 143.876 78.991 142.576 C 79.688 141.663,80.839 140.949,82.865 140.175 C 86.481 138.793,88.756 136.633,89.948 133.448 C 90.785 131.209,91.133 126.800,90.472 126.800 C 89.085 126.800,85.645 122.452,84.774 119.600 C 84.602 119.038,84.454 121.431,84.434 125.069 M128.836 125.585 C 126.805 125.914,125.600 127.115,125.600 128.812 C 125.600 129.429,125.491 130.264,125.357 130.667 C 125.224 131.070,125.473 130.860,125.910 130.200 C 126.819 128.827,129.417 126.314,130.600 125.664 C 131.484 125.178,131.382 125.174,128.836 125.585 M114.926 138.403 C 113.829 138.845,113.367 139.717,113.018 142.000 L 112.744 143.800 113.515 142.584 C 113.939 141.916,115.147 140.611,116.199 139.684 C 118.202 137.922,117.607 137.323,114.926 138.403 M216.535 175.572 C 214.399 175.921,213.706 176.521,213.179 178.476 C 212.547 180.825,212.889 181.092,214.167 179.248 C 214.793 178.345,216.122 177.065,217.121 176.403 C 218.120 175.741,218.771 175.223,218.569 175.250 C 218.366 175.278,217.451 175.423,216.535 175.572 M95.499 213.959 C 96.433 214.643,97.738 215.949,98.399 216.861 C 99.505 218.389,99.600 218.441,99.600 217.520 C 99.600 214.648,98.566 213.480,95.600 213.004 L 93.800 212.714 95.499 213.959 M119.400 225.659 C 120.617 226.336,123.207 228.858,124.017 230.155 L 124.739 231.311 124.523 229.555 C 124.255 227.385,123.468 226.069,122.295 225.833 C 119.460 225.262,118.594 225.210,119.400 225.659 M166.535 225.572 C 164.399 225.921,163.706 226.521,163.179 228.476 C 162.547 230.825,162.889 231.092,164.167 229.248 C 164.793 228.345,166.122 227.065,167.121 226.403 C 168.120 225.741,168.771 225.223,168.569 225.250 C 168.366 225.278,167.451 225.423,166.535 225.572 M313.004 295.600 C 313.480 298.566,314.648 299.600,317.520 299.600 C 318.441 299.600,318.389 299.505,316.861 298.399 C 315.949 297.738,314.643 296.433,313.959 295.499 L 312.714 293.800 313.004 295.600 M282.934 326.439 C 283.903 327.081,285.207 328.345,285.833 329.248 C 287.119 331.104,287.453 330.824,286.808 328.429 C 286.299 326.538,285.287 325.778,282.886 325.483 L 281.172 325.272 282.934 326.439 M316.535 325.572 C 314.399 325.921,313.706 326.521,313.179 328.476 C 312.547 330.825,312.889 331.092,314.167 329.248 C 314.793 328.345,316.122 327.065,317.121 326.403 C 318.120 325.741,318.771 325.223,318.569 325.250 C 318.366 325.278,317.451 325.423,316.535 325.572 " stroke="none" fill="#840404" fill-rule="evenodd"></path><path id="path3" d="M119.429 69.429 C 118.917 69.940,118.800 71.097,118.800 75.629 L 118.800 81.200 107.500 81.240 C 92.726 81.292,94.277 80.562,93.846 87.662 L 93.492 93.492 87.662 93.846 C 80.745 94.266,81.300 93.622,81.240 101.300 L 81.200 106.400 75.414 106.400 C 68.137 106.400,68.800 105.084,68.800 119.536 L 68.800 131.125 63.100 131.262 C 59.965 131.338,57.175 131.546,56.900 131.724 C 55.932 132.350,56.199 180.265,57.174 180.786 C 57.599 181.014,60.389 181.200,63.374 181.200 L 68.800 181.200 68.800 193.151 C 68.800 207.246,68.081 205.834,75.449 206.209 L 81.098 206.497 81.302 209.030 C 81.605 212.813,81.517 212.773,89.867 212.895 C 98.963 213.029,99.107 213.110,99.755 218.495 C 100.422 224.036,102.501 225.065,113.425 225.260 C 123.980 225.448,123.958 225.438,124.591 230.101 C 124.910 232.447,126.680 234.898,129.359 236.700 L 131.290 238.000 143.750 238.000 L 156.209 238.000 158.205 236.696 C 160.758 235.028,162.604 232.297,162.953 229.673 C 163.485 225.660,164.582 225.262,175.230 225.224 C 181.649 225.201,181.889 225.170,182.740 224.264 C 184.781 222.092,184.914 218.834,183.040 216.960 L 181.680 215.600 174.740 215.613 L 167.800 215.625 165.000 217.113 L 162.200 218.600 161.938 220.748 C 161.451 224.741,160.618 224.907,142.022 224.731 C 125.283 224.573,126.198 224.838,125.408 219.914 C 125.088 217.924,121.155 215.900,115.828 214.985 C 113.863 214.647,110.983 213.916,109.428 213.361 C 107.872 212.806,105.700 212.199,104.600 212.013 C 101.217 211.441,100.410 210.514,100.402 207.191 C 100.399 205.794,94.904 200.380,92.000 198.912 C 88.864 197.327,84.800 188.199,84.800 182.740 C 84.800 180.621,82.001 178.106,79.272 177.774 C 72.285 176.923,72.240 176.799,72.061 158.000 C 71.865 137.369,72.301 135.629,77.821 135.011 C 83.824 134.338,84.399 133.468,84.402 125.069 C 84.407 112.543,85.383 110.427,91.470 109.758 C 95.017 109.368,96.993 107.340,97.365 103.709 C 97.966 97.842,98.725 97.460,110.125 97.268 L 118.849 97.121 120.348 95.660 C 121.683 94.359,121.903 93.853,122.363 91.021 C 123.387 84.714,123.779 84.600,144.400 84.600 C 164.255 84.600,164.306 84.619,165.384 92.472 C 165.590 93.978,165.949 94.622,167.221 95.772 L 168.802 97.200 176.424 97.200 C 188.314 97.200,190.400 98.437,190.400 105.490 C 190.400 107.707,193.202 112.446,194.976 113.231 C 198.376 114.735,200.771 119.448,202.383 127.810 C 203.510 133.658,205.192 137.088,207.476 138.200 C 212.014 140.409,212.001 140.354,211.994 157.487 C 211.987 174.651,212.212 173.797,207.495 174.586 C 205.694 174.888,203.459 178.739,202.771 182.727 C 202.110 186.560,201.111 190.515,200.353 192.296 L 199.632 193.992 202.916 195.571 C 205.918 197.013,206.354 197.118,208.000 196.792 C 208.990 196.595,209.921 196.427,210.069 196.417 C 210.217 196.408,210.892 195.934,211.569 195.364 L 212.800 194.329 212.802 187.064 C 212.805 176.935,213.178 175.977,217.321 175.453 C 221.097 174.975,224.446 171.633,225.784 167.007 C 226.746 163.682,228.612 159.678,230.017 157.923 L 231.200 156.447 231.194 144.523 C 231.190 137.718,231.025 132.342,230.809 132.000 C 230.507 131.523,229.241 131.372,224.615 131.262 L 218.800 131.125 218.760 119.862 C 218.738 113.668,218.595 108.150,218.443 107.600 L 218.165 106.600 212.342 106.490 L 206.519 106.379 206.159 100.290 L 205.800 94.200 199.710 93.841 L 193.621 93.481 193.510 87.658 L 193.400 81.835 192.400 81.557 C 191.850 81.405,186.332 81.262,180.138 81.240 L 168.875 81.200 168.738 75.385 C 168.628 70.759,168.477 69.493,168.000 69.191 C 166.849 68.464,120.165 68.693,119.429 69.429 M143.129 112.460 C 142.128 113.110,137.431 114.425,134.018 115.012 C 131.883 115.378,129.530 116.124,127.747 116.998 C 124.829 118.429,124.417 118.954,124.405 121.256 C 124.396 123.006,123.206 124.055,120.798 124.436 C 117.516 124.955,112.191 130.270,111.898 133.319 C 111.660 135.796,110.799 136.615,108.035 136.995 C 105.711 137.315,103.545 140.646,102.780 145.076 C 102.126 148.868,101.121 152.891,100.401 154.600 C 99.797 156.036,99.788 156.343,100.318 157.600 C 101.145 159.560,102.313 164.164,102.632 166.720 C 102.948 169.246,105.144 172.002,106.838 171.998 C 108.561 171.994,110.882 171.155,111.851 170.185 L 112.800 169.236 112.810 155.918 C 112.822 138.758,112.860 138.594,116.956 138.038 C 120.993 137.491,124.904 133.819,125.409 130.101 C 126.076 125.191,125.193 125.441,142.718 125.200 L 157.272 125.000 158.010 124.088 C 158.416 123.586,158.958 122.166,159.214 120.933 L 159.679 118.691 158.140 117.166 C 156.740 115.779,156.219 115.564,152.400 114.794 C 150.090 114.328,147.178 113.535,145.929 113.032 C 144.516 112.462,143.459 112.246,143.129 112.460 M165.503 128.480 C 162.512 129.275,162.089 130.337,162.130 136.948 C 162.171 143.673,162.124 143.600,166.419 143.600 L 168.800 143.600 168.800 156.200 L 168.800 168.800 163.374 168.800 C 155.961 168.800,156.400 168.384,156.400 175.414 L 156.400 181.200 150.240 181.200 L 144.080 181.200 141.998 182.601 C 139.291 184.423,137.766 185.133,133.415 186.595 C 127.947 188.433,126.232 192.442,129.561 195.609 L 131.234 197.200 143.734 197.200 L 156.233 197.200 157.868 195.500 C 159.281 194.029,159.536 193.486,159.758 191.470 C 160.269 186.821,161.517 185.546,166.303 184.786 C 170.029 184.194,171.837 182.500,172.222 179.240 C 172.812 174.244,174.228 172.855,179.400 172.193 C 180.963 171.993,181.728 171.620,182.900 170.487 L 184.400 169.038 184.400 156.200 L 184.400 143.362 182.900 141.925 C 181.645 140.723,181.008 140.442,179.004 140.203 C 174.299 139.644,172.854 138.155,172.208 133.200 C 171.681 129.159,169.288 127.475,165.503 128.480 M156.140 146.800 C 156.140 148.670,156.209 149.435,156.293 148.500 C 156.377 147.565,156.377 146.035,156.293 145.100 C 156.209 144.165,156.140 144.930,156.140 146.800 M145.100 156.293 C 146.035 156.377,147.565 156.377,148.500 156.293 C 149.435 156.209,148.670 156.140,146.800 156.140 C 144.930 156.140,144.165 156.209,145.100 156.293 M117.260 175.736 C 115.219 177.908,115.086 181.166,116.960 183.040 C 119.225 185.305,125.200 184.044,125.200 181.302 C 125.200 179.633,120.367 174.800,118.698 174.800 C 118.391 174.800,117.744 175.221,117.260 175.736 M217.862 200.053 C 213.566 202.551,215.694 209.166,220.996 209.797 C 225.701 210.356,227.146 211.845,227.792 216.800 C 228.206 219.978,230.019 221.810,233.134 222.199 C 238.147 222.826,239.679 224.317,240.220 229.095 C 240.614 232.578,242.372 234.286,246.106 234.815 C 250.864 235.489,252.251 236.886,252.676 241.428 C 253.009 245.004,255.015 246.986,258.660 247.340 C 263.134 247.775,264.515 249.162,265.185 253.894 C 265.503 256.144,265.773 256.743,267.060 258.061 L 268.562 259.600 275.000 259.600 L 281.438 259.600 282.940 258.061 C 284.234 256.736,284.496 256.150,284.823 253.838 C 285.582 248.483,287.052 247.400,293.569 247.400 C 298.494 247.400,299.606 247.643,300.982 249.018 C 302.095 250.131,302.238 250.568,302.769 254.478 C 303.291 258.317,305.586 262.601,307.450 263.217 C 312.997 265.047,313.284 271.907,307.902 274.010 C 305.169 275.078,299.571 281.183,300.203 282.405 C 300.929 283.810,302.318 289.147,302.634 291.746 C 303.046 295.137,305.768 300.399,307.111 300.402 C 311.723 300.412,312.000 301.104,312.000 312.634 C 312.000 325.152,312.605 324.450,301.600 324.707 C 290.196 324.974,288.518 324.483,288.062 320.748 L 287.800 318.600 285.000 317.113 C 279.938 314.424,274.235 315.880,274.952 319.678 C 275.597 323.091,277.511 324.573,282.359 325.415 C 285.885 326.028,286.628 326.683,287.010 329.517 C 287.974 336.668,289.565 337.747,299.400 337.920 L 306.200 338.040 308.200 336.716 C 310.795 334.999,312.605 332.295,312.962 329.603 C 313.330 326.827,314.376 325.810,317.217 325.464 C 321.677 324.921,325.666 323.323,329.100 320.704 L 331.200 319.103 331.194 308.851 C 331.190 302.939,331.042 298.831,330.842 299.145 C 330.551 299.606,330.463 299.606,330.280 299.145 C 330.110 298.718,330.056 298.729,330.032 299.200 C 329.957 300.660,314.451 299.606,313.653 298.086 C 312.003 294.943,313.975 287.377,317.654 282.731 L 318.936 281.113 323.968 281.215 C 329.998 281.336,329.786 281.357,330.571 280.571 C 331.332 279.811,331.527 258.558,330.786 257.174 C 330.406 256.464,329.897 256.400,324.586 256.400 L 318.800 256.400 318.760 251.300 C 318.700 243.622,319.255 244.266,312.338 243.846 L 306.508 243.492 306.154 237.669 L 305.800 231.847 304.472 231.505 C 302.276 230.939,282.537 231.302,281.919 231.919 C 281.557 232.281,281.361 234.126,281.270 238.019 L 281.140 243.600 275.000 243.600 L 268.860 243.600 268.730 238.019 C 268.567 231.018,268.979 231.433,262.031 231.271 L 256.500 231.141 256.210 225.471 C 255.846 218.324,256.335 218.800,249.351 218.800 L 243.600 218.800 243.600 213.049 C 243.600 206.050,244.086 206.542,236.799 206.172 L 231.000 205.878 229.200 204.384 C 227.062 202.609,218.879 198.924,218.605 199.612 C 218.602 199.619,218.268 199.817,217.862 200.053 M190.200 228.603 C 187.099 229.702,186.718 230.790,188.500 233.451 C 191.153 237.414,194.213 238.565,195.772 236.186 C 198.860 231.474,195.396 226.760,190.200 228.603 M81.600 230.411 C 81.600 230.758,83.153 231.381,83.401 231.132 C 83.478 231.055,83.105 230.785,82.571 230.533 C 82.037 230.281,81.600 230.226,81.600 230.411 M93.740 234.400 C 93.740 236.270,93.809 237.035,93.893 236.100 C 93.977 235.165,93.977 233.635,93.893 232.700 C 93.809 231.765,93.740 232.530,93.740 234.400 M204.000 240.772 C 198.627 241.846,198.507 247.028,203.800 249.451 C 208.250 251.489,211.633 245.539,208.058 241.964 C 206.437 240.343,206.319 240.308,204.000 240.772 M216.710 253.240 C 214.782 253.537,212.437 254.876,212.354 255.727 C 212.252 256.772,212.512 257.860,213.135 259.000 C 215.262 262.891,219.418 263.860,220.984 260.830 C 223.214 256.519,220.995 252.580,216.710 253.240 M117.123 256.299 C 119.831 256.368,124.151 256.368,126.723 256.299 C 129.295 256.229,127.080 256.172,121.800 256.173 C 116.520 256.173,114.415 256.230,117.123 256.299 M187.383 256.294 L 193.567 256.420 193.709 259.310 L 193.850 262.200 193.825 259.200 L 193.800 256.200 187.500 256.184 L 181.199 256.169 187.383 256.294 M131.293 265.600 C 131.293 266.370,131.375 266.685,131.476 266.300 C 131.576 265.915,131.576 265.285,131.476 264.900 C 131.375 264.515,131.293 264.830,131.293 265.600 M227.848 266.014 C 222.955 267.479,224.739 273.993,230.322 275.048 C 233.794 275.704,235.803 269.723,233.040 266.960 C 231.605 265.525,230.284 265.284,227.848 266.014 M180.533 267.429 C 180.281 267.963,180.226 268.400,180.411 268.400 C 180.758 268.400,181.381 266.847,181.132 266.599 C 181.055 266.522,180.785 266.895,180.533 267.429 M133.700 268.676 C 134.085 268.776,134.715 268.776,135.100 268.676 C 135.485 268.575,135.170 268.493,134.400 268.493 C 133.630 268.493,133.315 268.575,133.700 268.676 M240.200 278.603 C 237.181 279.673,236.718 281.099,238.324 284.379 C 239.232 286.232,242.178 287.850,244.273 287.646 C 244.533 287.621,245.128 287.063,245.596 286.406 C 248.957 281.685,245.521 276.716,240.200 278.603 M330.533 282.571 C 330.785 283.105,331.055 283.478,331.132 283.401 C 331.381 283.153,330.758 281.600,330.411 281.600 C 330.226 281.600,330.281 282.037,330.533 282.571 M254.000 290.772 C 248.627 291.846,248.507 297.028,253.800 299.451 C 258.250 301.489,261.633 295.539,258.058 291.964 C 256.437 290.343,256.319 290.308,254.000 290.772 M266.710 303.240 C 264.782 303.537,262.437 304.876,262.354 305.727 C 262.252 306.772,262.512 307.860,263.135 309.000 C 265.262 312.891,269.418 313.860,270.984 310.830 C 273.214 306.519,270.995 302.580,266.710 303.240 M240.582 306.290 L 243.567 306.433 243.710 309.418 L 243.854 312.403 243.827 309.301 L 243.800 306.200 240.699 306.173 L 237.597 306.146 240.582 306.290 M290.582 356.290 L 293.567 356.433 293.710 359.418 L 293.854 362.403 293.827 359.301 L 293.800 356.200 290.699 356.173 L 287.597 356.146 290.582 356.290 M332.700 356.293 C 333.635 356.377,335.165 356.377,336.100 356.293 C 337.035 356.209,336.270 356.140,334.400 356.140 C 332.530 356.140,331.765 356.209,332.700 356.293 M330.533 367.429 C 330.281 367.963,330.226 368.400,330.411 368.400 C 330.758 368.400,331.381 366.847,331.132 366.599 C 331.055 366.522,330.785 366.895,330.533 367.429 " stroke="none" fill="#040404" fill-rule="evenodd"></path></g></svg>