<?xml version="1.0" encoding="UTF-8"?>
<svg version="1.1" xmlns="http://www.w3.org/2000/svg" width="32" height="32">
<path d="M0 0 C10.56 0 21.12 0 32 0 C32 10.56 32 21.12 32 32 C21.44 32 10.88 32 0 32 C0 21.44 0 10.88 0 0 Z " fill="#808080" transform="translate(0,0)"/>
<path d="M0 0 C0 10.56 0 21.12 0 32 C-10.56 32 -21.12 32 -32 32 C-29 28 -29 28 -26.36450195 27.54589844 C-25.33284912 27.5668457 -24.30119629 27.58779297 -23.23828125 27.609375 C-21.56088867 27.62871094 -21.56088867 27.62871094 -19.84960938 27.6484375 C-18.68236328 27.68195312 -17.51511719 27.71546875 -16.3125 27.75 C-15.13365234 27.76804687 -13.95480469 27.78609375 -12.74023438 27.8046875 C-9.82601074 27.85188141 -6.91340969 27.91770923 -4 28 C-4.01571045 27.25838623 -4.0314209 26.51677246 -4.04760742 25.75268555 C-4.10990714 22.39770104 -4.14897507 19.04283814 -4.1875 15.6875 C-4.21263672 14.52025391 -4.23777344 13.35300781 -4.26367188 12.15039062 C-4.27333984 11.03212891 -4.28300781 9.91386719 -4.29296875 8.76171875 C-4.3086792 7.73006592 -4.32438965 6.69841309 -4.34057617 5.63549805 C-4 3 -4 3 -2.54418945 1.13989258 C-1 0 -1 0 0 0 Z " fill="#404040" transform="translate(32,0)"/>
<path d="M0 0 C10.23 0 20.46 0 31 0 C30.01 1.485 30.01 1.485 29 3 C26.38623047 3.34057617 26.38623047 3.34057617 23.1171875 3.29296875 C21.95058594 3.28330078 20.78398437 3.27363281 19.58203125 3.26367188 C18.35871094 3.23853516 17.13539062 3.21339844 15.875 3.1875 C14.64394531 3.17396484 13.41289062 3.16042969 12.14453125 3.14648438 C9.09592157 3.11103543 6.048175 3.06162079 3 3 C3.01571045 3.77714355 3.0314209 4.55428711 3.04760742 5.35498047 C3.10980351 8.8615802 3.14894207 12.36806413 3.1875 15.875 C3.21263672 17.09832031 3.23777344 18.32164063 3.26367188 19.58203125 C3.27333984 20.74863281 3.28300781 21.91523438 3.29296875 23.1171875 C3.3086792 24.19597168 3.32438965 25.27475586 3.34057617 26.38623047 C3.17199097 27.68004639 3.17199097 27.68004639 3 29 C2.01 29.66 1.02 30.32 0 31 C0 20.77 0 10.54 0 0 Z " fill="#C0C0C0" transform="translate(0,0)"/>
</svg>
