<svg id="svg" version="1.1" xmlns="http://www.w3.org/2000/svg" xmlns:xlink="http://www.w3.org/1999/xlink" width="400" height="400" viewBox="0, 0, 400,400"><g id="svgg"><path id="path0" d="M-0.000 192.045 L -0.000 384.091 1.891 383.807 C 5.322 383.293,7.269 381.882,9.904 378.000 C 11.403 375.792,13.559 373.737,16.200 371.997 C 19.060 370.114,19.886 369.303,21.699 366.600 C 23.744 363.551,25.719 361.452,28.000 359.905 C 32.408 356.915,33.757 354.840,35.378 348.554 C 37.211 341.452,37.174 344.536,37.196 194.000 C 37.209 101.552,37.358 48.420,37.609 46.682 C 38.265 42.141,39.745 40.007,43.405 38.320 L 45.400 37.400 194.000 37.200 L 342.600 37.000 347.550 35.682 C 354.943 33.712,356.823 32.543,359.905 28.000 C 361.452 25.719,363.551 23.744,366.600 21.699 C 369.373 19.839,370.083 19.101,372.324 15.750 C 373.938 13.336,376.067 11.266,379.591 8.685 C 381.808 7.061,383.465 4.402,383.821 1.900 L 384.091 -0.000 192.045 -0.000 L 0.000 0.000 -0.000 192.045 M280.800 94.261 C 279.196 94.789,278.297 95.471,277.486 96.775 L 276.600 98.200 276.400 201.400 L 276.200 304.600 275.303 306.816 C 274.269 309.369,272.104 311.661,269.800 312.642 C 267.054 313.811,255.552 313.982,181.982 313.951 C 121.045 313.925,111.581 313.998,110.382 314.509 C 105.478 316.596,105.636 322.573,110.632 323.960 C 113.490 324.754,278.300 324.560,280.656 323.761 C 283.394 322.831,284.684 321.715,285.912 319.216 L 287.000 317.000 287.123 209.200 C 287.250 97.759,287.259 98.484,285.692 96.092 C 284.643 94.490,282.518 93.695,280.800 94.261 " stroke="none" fill="#c4c4c4" fill-rule="evenodd"></path><path id="path1" d="M122.800 104.253 C 117.469 105.195,116.197 108.177,116.816 118.283 C 117.015 121.537,117.178 158.490,117.178 200.400 C 117.178 242.310,117.015 279.263,116.816 282.517 C 116.150 293.393,117.843 296.561,124.259 296.441 C 142.950 296.090,241.399 296.037,245.875 296.374 C 257.314 297.237,260.000 294.844,258.859 284.807 C 258.208 279.079,258.208 121.721,258.859 115.993 C 259.982 106.113,257.240 103.546,246.502 104.428 C 241.359 104.850,128.755 104.716,125.400 104.283 C 124.520 104.170,123.350 104.156,122.800 104.253 M239.071 107.619 C 246.969 108.676,251.200 111.638,254.317 118.290 L 255.400 120.600 255.400 200.400 L 255.400 280.200 253.900 283.268 C 251.247 288.697,246.819 291.964,241.000 292.788 C 237.223 293.323,138.368 293.324,134.670 292.789 C 127.848 291.803,122.903 287.387,121.151 280.716 C 119.971 276.221,119.981 124.544,121.161 120.046 C 123.027 112.940,128.088 108.762,136.200 107.632 C 139.843 107.124,235.287 107.112,239.071 107.619 M171.459 130.011 C 169.544 130.585,167.910 131.970,165.393 135.150 C 164.070 136.823,161.820 139.060,160.393 140.121 C 156.850 142.758,155.488 144.104,152.856 147.576 C 151.501 149.363,149.258 151.599,147.238 153.176 C 142.218 157.094,141.605 158.839,141.605 169.200 C 141.605 179.062,142.319 181.433,146.172 184.353 C 149.162 186.618,152.032 189.497,154.400 192.608 C 155.390 193.908,157.637 196.068,159.393 197.407 C 161.149 198.746,163.359 200.822,164.304 202.021 C 167.933 206.625,169.033 207.766,171.830 209.835 C 177.517 214.041,178.956 217.184,178.956 225.400 C 178.956 236.941,175.630 240.670,164.497 241.611 C 155.215 242.396,154.399 243.605,154.402 256.560 C 154.406 272.330,153.090 271.604,181.677 271.590 C 205.977 271.579,205.869 271.596,208.000 267.379 L 209.000 265.400 209.207 236.000 C 209.394 209.317,209.478 206.438,210.109 204.844 C 211.371 201.657,212.471 200.354,216.273 197.546 C 219.204 195.381,220.601 193.994,222.601 191.258 C 224.324 188.901,226.035 187.111,227.808 185.809 C 233.657 181.515,234.000 180.595,234.000 169.200 C 234.000 157.690,233.976 157.632,226.842 151.645 C 225.691 150.680,223.788 148.588,222.611 146.998 C 220.444 144.068,219.458 143.147,214.812 139.713 C 213.389 138.660,211.196 136.462,209.938 134.826 C 205.931 129.613,204.418 129.166,194.266 130.195 C 187.864 130.844,187.025 130.847,181.844 130.245 C 175.791 129.542,173.216 129.484,171.459 130.011 M195.289 134.283 C 202.127 137.500,203.800 140.630,203.800 150.209 L 203.800 157.018 202.476 159.707 C 199.894 164.950,197.069 166.200,187.800 166.200 C 174.731 166.200,170.254 160.629,171.930 146.451 C 173.256 135.234,184.672 129.287,195.289 134.283 " stroke="none" fill="#040404" fill-rule="evenodd"></path><path id="path2" d="M390.795 2.500 C 390.783 8.805,389.502 10.945,382.400 16.514 C 381.190 17.463,379.334 19.401,378.275 20.820 C 375.777 24.167,374.255 25.737,371.800 27.499 C 368.841 29.623,366.904 31.535,365.214 34.001 C 363.068 37.130,360.697 39.159,356.858 41.151 C 352.916 43.195,350.767 45.198,350.090 47.456 C 349.707 48.735,349.600 80.621,349.600 193.414 C 349.600 298.653,349.478 338.447,349.149 340.367 C 348.178 346.041,345.794 348.370,340.118 349.191 C 338.379 349.443,285.363 349.588,193.000 349.596 L 48.600 349.608 46.595 350.541 C 44.289 351.615,43.237 352.881,40.770 357.549 C 38.976 360.944,37.468 362.561,32.405 366.522 C 31.198 367.467,29.614 369.041,28.885 370.020 C 26.087 373.775,24.191 375.749,21.385 377.824 C 18.540 379.928,16.934 381.595,14.292 385.188 C 11.502 388.983,8.803 390.333,3.300 390.688 L -0.000 390.900 -0.000 395.450 L 0.000 400.000 200.000 400.000 L 400.000 400.000 400.000 200.000 L 400.000 0.000 395.400 0.000 L 390.800 0.000 390.795 2.500 M95.961 74.805 C 92.745 75.349,89.809 77.297,88.539 79.730 C 86.990 82.696,86.993 82.373,87.200 202.200 L 87.400 318.200 88.305 320.017 C 89.913 323.246,92.928 324.163,94.960 322.042 C 96.190 320.758,100.393 308.004,101.175 303.182 C 101.459 301.432,101.595 267.917,101.597 199.173 C 101.600 87.496,101.426 95.193,104.022 92.236 C 106.733 89.148,99.150 89.424,187.400 89.198 L 266.200 88.995 269.000 88.140 C 270.540 87.670,273.690 86.713,276.000 86.014 C 278.310 85.316,281.010 84.455,282.000 84.101 C 288.398 81.818,286.836 76.194,279.427 74.835 C 276.640 74.324,98.976 74.295,95.961 74.805 M119.666 95.810 C 113.163 97.231,108.895 102.021,108.002 108.898 C 107.496 112.790,107.496 288.010,108.002 291.902 C 108.778 297.880,111.756 301.670,116.966 303.309 L 119.800 304.200 187.800 304.200 C 252.432 304.200,255.919 304.164,258.200 303.471 C 263.178 301.960,265.249 299.542,266.217 294.111 C 267.044 289.477,267.044 111.323,266.217 106.689 C 265.297 101.525,262.656 98.175,258.032 96.303 L 255.800 95.400 189.000 95.328 C 133.374 95.268,121.776 95.348,119.666 95.810 M184.200 104.668 C 222.116 104.787,243.120 104.706,246.502 104.428 C 257.240 103.546,259.982 106.113,258.859 115.993 C 258.208 121.721,258.208 279.079,258.859 284.807 C 260.000 294.844,257.314 297.237,245.875 296.374 C 241.399 296.037,142.950 296.090,124.259 296.441 C 117.843 296.561,116.150 293.393,116.816 282.517 C 117.015 279.263,117.178 242.310,117.178 200.400 C 117.178 158.490,117.015 121.537,116.816 118.283 C 116.130 107.079,118.398 103.380,125.400 104.283 C 126.280 104.397,152.740 104.570,184.200 104.668 M136.200 107.632 C 128.088 108.762,123.027 112.940,121.161 120.046 C 119.981 124.544,119.971 276.221,121.151 280.716 C 122.903 287.387,127.848 291.803,134.670 292.789 C 138.368 293.324,237.223 293.323,241.000 292.788 C 246.819 291.964,251.247 288.697,253.900 283.268 L 255.400 280.200 255.400 200.400 L 255.400 120.600 254.317 118.290 C 251.200 111.638,246.969 108.676,239.071 107.619 C 235.287 107.112,139.843 107.124,136.200 107.632 M243.643 115.268 C 246.092 116.399,247.594 118.071,248.430 120.600 C 249.232 123.025,249.252 277.867,248.450 280.200 C 247.578 282.742,246.079 284.406,243.643 285.542 L 241.400 286.587 187.701 286.523 L 134.002 286.460 131.865 285.481 C 129.468 284.384,128.176 282.845,127.352 280.107 C 126.528 277.370,126.528 123.430,127.352 120.693 C 128.472 116.970,130.949 114.943,134.992 114.440 C 136.096 114.303,160.490 114.200,189.200 114.212 L 241.400 114.233 243.643 115.268 M169.972 124.547 C 166.606 125.454,164.574 127.002,161.604 130.918 C 160.069 132.943,157.980 135.230,156.963 136.000 C 153.051 138.962,151.821 140.118,149.611 142.912 C 147.408 145.697,146.332 146.753,141.441 150.934 C 137.272 154.499,136.425 157.583,136.425 169.200 C 136.425 182.455,137.243 184.536,144.652 190.124 C 146.001 191.141,148.013 193.194,149.123 194.687 C 151.398 197.744,153.072 199.402,156.714 202.205 C 158.097 203.269,160.109 205.324,161.186 206.770 C 163.412 209.761,165.502 211.827,169.099 214.594 C 172.854 217.482,173.800 219.658,173.800 225.400 C 173.800 233.868,171.614 235.907,161.595 236.781 C 150.646 237.736,149.049 240.474,149.272 257.907 C 149.517 277.044,148.739 276.600,182.000 276.600 L 205.400 276.600 207.515 275.644 C 209.923 274.556,212.378 272.004,213.202 269.731 C 213.648 268.502,213.804 262.407,213.996 238.800 C 214.283 203.374,213.754 206.140,221.336 200.450 C 222.619 199.487,224.627 197.403,225.798 195.820 C 227.897 192.982,230.078 190.867,234.399 187.478 C 238.504 184.259,239.578 180.467,239.578 169.200 C 239.578 158.552,238.474 154.202,235.067 151.427 C 234.150 150.680,232.421 149.286,231.223 148.329 C 230.026 147.373,227.856 145.064,226.400 143.200 C 224.944 141.336,222.774 139.038,221.577 138.094 C 217.009 134.494,215.912 133.437,213.636 130.447 C 210.942 126.909,208.952 125.438,205.717 124.595 C 202.696 123.808,172.860 123.768,169.972 124.547 M181.844 130.245 C 187.025 130.847,187.864 130.844,194.266 130.195 C 204.418 129.166,205.931 129.613,209.938 134.826 C 211.196 136.462,213.389 138.660,214.812 139.713 C 219.458 143.147,220.444 144.068,222.611 146.998 C 223.788 148.588,225.691 150.680,226.842 151.645 C 233.976 157.632,234.000 157.690,234.000 169.200 C 234.000 180.595,233.657 181.515,227.808 185.809 C 226.035 187.111,224.324 188.901,222.601 191.258 C 220.601 193.994,219.204 195.381,216.273 197.546 C 212.471 200.354,211.371 201.657,210.109 204.844 C 209.478 206.438,209.394 209.317,209.207 236.000 L 209.000 265.400 208.000 267.379 C 205.869 271.596,205.977 271.579,181.677 271.590 C 153.090 271.604,154.406 272.330,154.402 256.560 C 154.399 243.605,155.215 242.396,164.497 241.611 C 175.630 240.670,178.956 236.941,178.956 225.400 C 178.956 217.184,177.517 214.041,171.830 209.835 C 169.033 207.766,167.933 206.625,164.304 202.021 C 163.359 200.822,161.149 198.746,159.393 197.407 C 157.637 196.068,155.390 193.908,154.400 192.608 C 152.032 189.497,149.162 186.618,146.172 184.353 C 142.319 181.433,141.605 179.062,141.605 169.200 C 141.605 158.839,142.218 157.094,147.238 153.176 C 149.258 151.599,151.501 149.363,152.856 147.576 C 155.488 144.104,156.850 142.758,160.393 140.121 C 161.820 139.060,164.070 136.823,165.393 135.150 C 169.943 129.399,171.238 129.013,181.844 130.245 M182.195 133.498 C 173.847 136.474,170.665 142.763,171.920 153.807 C 173.016 163.461,176.527 166.200,187.800 166.200 C 197.069 166.200,199.894 164.950,202.476 159.707 L 203.800 157.018 203.800 150.209 C 203.800 142.181,203.303 140.529,199.946 137.388 C 195.555 133.281,187.658 131.550,182.195 133.498 M193.717 140.322 C 201.338 143.693,200.614 158.626,192.723 160.840 C 188.272 162.089,181.579 161.101,179.510 158.889 C 175.929 155.061,175.841 145.917,179.347 142.062 C 181.874 139.284,189.329 138.381,193.717 140.322 " stroke="none" fill="#444444" fill-rule="evenodd"></path><path id="path3" d="M134.992 114.440 C 130.949 114.943,128.472 116.970,127.352 120.693 C 126.528 123.430,126.528 277.370,127.352 280.107 C 128.176 282.845,129.468 284.384,131.865 285.481 L 134.002 286.460 187.701 286.523 L 241.400 286.587 243.643 285.542 C 246.079 284.406,247.578 282.742,248.450 280.200 C 249.252 277.867,249.232 123.025,248.430 120.600 C 247.594 118.071,246.092 116.399,243.643 115.268 L 241.400 114.233 189.200 114.212 C 160.490 114.200,136.096 114.303,134.992 114.440 M205.717 124.595 C 208.952 125.438,210.942 126.909,213.636 130.447 C 215.912 133.437,217.009 134.494,221.577 138.094 C 222.774 139.038,224.944 141.336,226.400 143.200 C 227.856 145.064,230.026 147.373,231.223 148.329 C 232.421 149.286,234.150 150.680,235.067 151.427 C 238.474 154.202,239.578 158.552,239.578 169.200 C 239.578 180.467,238.504 184.259,234.399 187.478 C 230.078 190.867,227.897 192.982,225.798 195.820 C 224.627 197.403,222.619 199.487,221.336 200.450 C 213.754 206.140,214.283 203.374,213.996 238.800 C 213.804 262.407,213.648 268.502,213.202 269.731 C 212.378 272.004,209.923 274.556,207.515 275.644 L 205.400 276.600 182.000 276.600 C 148.739 276.600,149.517 277.044,149.272 257.907 C 149.049 240.474,150.646 237.736,161.595 236.781 C 171.614 235.907,173.800 233.868,173.800 225.400 C 173.800 219.658,172.854 217.482,169.099 214.594 C 165.502 211.827,163.412 209.761,161.186 206.770 C 160.109 205.324,158.097 203.269,156.714 202.205 C 153.072 199.402,151.398 197.744,149.123 194.687 C 148.013 193.194,146.001 191.141,144.652 190.124 C 137.243 184.536,136.425 182.455,136.425 169.200 C 136.425 157.583,137.272 154.499,141.441 150.934 C 146.332 146.753,147.408 145.697,149.611 142.912 C 151.821 140.118,153.051 138.962,156.963 136.000 C 157.980 135.230,160.069 132.943,161.604 130.918 C 164.574 127.002,166.606 125.454,169.972 124.547 C 172.860 123.768,202.696 123.808,205.717 124.595 M184.131 139.592 C 178.853 140.717,177.000 143.526,177.000 150.400 C 177.000 158.482,179.845 161.363,187.800 161.335 C 195.665 161.307,198.825 158.200,198.842 150.478 C 198.861 141.840,193.207 137.656,184.131 139.592 " stroke="none" fill="#fcfc04" fill-rule="evenodd"></path><path id="path4" d="M383.803 1.976 C 383.449 4.555,381.685 7.283,379.325 8.904 C 376.301 10.979,374.012 13.223,372.290 15.799 C 370.086 19.097,369.366 19.844,366.600 21.699 C 363.551 23.744,361.452 25.719,359.905 28.000 C 356.823 32.543,354.943 33.712,347.550 35.682 L 342.600 37.000 194.000 37.200 L 45.400 37.400 43.405 38.320 C 39.745 40.007,38.265 42.141,37.609 46.682 C 37.358 48.420,37.209 101.552,37.196 194.000 C 37.174 344.536,37.211 341.452,35.378 348.554 C 33.757 354.840,32.408 356.915,28.000 359.905 C 25.719 361.452,23.744 363.551,21.699 366.600 C 19.886 369.303,19.060 370.114,16.200 371.997 C 13.559 373.737,11.403 375.792,9.904 378.000 C 7.269 381.882,5.322 383.293,1.891 383.807 L 0.000 384.091 0.000 387.496 L 0.000 390.900 3.300 390.688 C 8.803 390.333,11.502 388.983,14.292 385.188 C 16.934 381.595,18.540 379.928,21.385 377.824 C 24.191 375.749,26.087 373.775,28.885 370.020 C 29.614 369.041,31.198 367.467,32.405 366.522 C 37.468 362.561,38.976 360.944,40.770 357.549 C 43.237 352.881,44.289 351.615,46.595 350.541 L 48.600 349.608 193.000 349.596 C 285.363 349.588,338.379 349.443,340.118 349.191 C 345.794 348.370,348.178 346.041,349.149 340.367 C 349.478 338.447,349.600 298.653,349.600 193.414 C 349.600 80.621,349.707 48.735,350.090 47.456 C 350.767 45.198,352.916 43.195,356.858 41.151 C 360.697 39.159,363.068 37.130,365.214 34.001 C 366.904 31.535,368.841 29.623,371.800 27.499 C 374.255 25.737,375.777 24.167,378.275 20.820 C 379.334 19.401,381.190 17.463,382.400 16.514 C 389.502 10.945,390.783 8.805,390.795 2.500 L 390.800 0.000 387.438 -0.000 L 384.075 -0.000 383.803 1.976 M279.427 74.835 C 286.836 76.194,288.398 81.818,282.000 84.101 C 281.010 84.455,278.310 85.316,276.000 86.014 C 273.690 86.713,270.540 87.670,269.000 88.140 L 266.200 88.995 187.400 89.198 C 99.150 89.424,106.733 89.148,104.022 92.236 C 101.426 95.193,101.600 87.496,101.597 199.173 C 101.595 267.917,101.459 301.432,101.175 303.182 C 100.393 308.004,96.190 320.758,94.960 322.042 C 92.928 324.163,89.913 323.246,88.305 320.017 L 87.400 318.200 87.200 202.200 C 86.993 82.373,86.990 82.696,88.539 79.730 C 89.809 77.297,92.745 75.349,95.961 74.805 C 98.976 74.295,276.640 74.324,279.427 74.835 M283.960 94.580 C 285.461 95.356,286.209 96.587,286.775 99.212 C 287.132 100.869,287.216 127.550,287.123 209.200 L 287.000 317.000 285.912 319.216 C 284.684 321.715,283.394 322.831,280.656 323.761 C 278.300 324.560,113.490 324.754,110.632 323.960 C 105.636 322.573,105.478 316.596,110.382 314.509 C 111.581 313.998,121.045 313.925,181.982 313.951 C 255.552 313.982,267.054 313.811,269.800 312.642 C 272.104 311.661,274.269 309.369,275.303 306.816 L 276.200 304.600 276.400 201.400 L 276.600 98.200 277.486 96.775 C 278.994 94.351,281.726 93.424,283.960 94.580 M258.032 96.303 C 262.656 98.175,265.297 101.525,266.217 106.689 C 267.044 111.323,267.044 289.477,266.217 294.111 C 265.249 299.542,263.178 301.960,258.200 303.471 C 255.919 304.164,252.432 304.200,187.800 304.200 L 119.800 304.200 116.966 303.309 C 111.756 301.670,108.778 297.880,108.002 291.902 C 107.496 288.010,107.496 112.790,108.002 108.898 C 108.895 102.021,113.163 97.231,119.666 95.810 C 121.776 95.348,133.374 95.268,189.000 95.328 L 255.800 95.400 258.032 96.303 " stroke="none" fill="#848484" fill-rule="evenodd"></path></g></svg>