<svg id="svg" version="1.1" xmlns="http://www.w3.org/2000/svg" xmlns:xlink="http://www.w3.org/1999/xlink" width="400" height="400" viewBox="0, 0, 400,400"><g id="svgg"><path id="path0" d="M142.192 91.700 C 139.563 94.739,140.537 99.058,144.421 101.575 C 145.528 102.292,147.012 103.674,147.717 104.644 C 149.014 106.427,153.344 108.916,158.005 110.558 C 160.854 111.561,162.762 113.406,164.235 116.582 C 165.690 119.717,167.864 122.052,170.036 122.812 C 173.451 124.007,175.858 126.498,177.368 130.400 C 178.358 132.959,179.368 133.886,183.006 135.574 C 189.682 138.671,189.981 139.555,189.987 156.200 C 189.993 172.707,189.294 174.728,182.780 177.034 C 179.969 178.029,178.035 180.013,176.880 183.087 C 175.774 186.029,173.470 188.337,170.577 189.403 C 167.675 190.472,166.009 191.866,165.132 193.957 C 163.199 198.565,161.937 200.052,158.600 201.650 L 156.200 202.799 144.000 202.802 C 128.056 202.805,126.052 202.100,122.983 195.410 C 121.441 192.047,120.628 191.240,116.983 189.450 C 113.620 187.799,112.068 186.229,110.432 182.822 C 108.790 179.405,107.928 178.548,104.590 177.017 C 100.914 175.330,98.977 173.140,97.457 168.950 C 95.810 164.413,94.634 162.579,91.281 159.323 L 88.306 156.433 89.637 154.753 C 90.369 153.829,91.652 152.606,92.487 152.036 C 94.675 150.544,96.948 145.785,98.001 140.491 C 98.778 136.589,100.031 132.727,100.835 131.758 C 101.381 131.100,99.828 129.331,98.294 128.864 C 93.832 127.507,91.442 128.649,89.403 133.110 C 87.932 136.328,86.302 137.872,82.495 139.653 C 77.377 142.046,77.603 141.267,77.601 156.500 L 77.600 169.200 79.120 170.700 C 80.007 171.576,81.657 172.583,83.087 173.120 C 86.329 174.339,88.314 176.499,89.794 180.420 C 92.250 186.927,91.973 186.566,102.704 197.296 C 112.433 207.025,112.544 207.123,115.278 208.402 C 116.751 209.091,119.721 210.015,121.878 210.454 C 124.035 210.894,126.880 211.733,128.200 212.319 L 130.600 213.386 143.338 213.504 L 156.076 213.622 158.138 212.658 C 164.137 209.853,179.734 208.828,183.913 210.964 C 186.422 212.247,188.069 214.056,189.568 217.178 C 191.210 220.595,192.072 221.452,195.410 222.983 C 198.607 224.450,201.133 226.974,201.984 229.551 C 202.826 232.104,204.662 233.989,207.580 235.298 C 211.048 236.854,213.001 238.785,214.584 242.223 C 216.023 245.348,217.859 247.161,220.449 248.016 C 223.026 248.867,225.550 251.393,227.017 254.590 C 228.548 257.928,229.405 258.790,232.822 260.432 C 236.229 262.068,237.799 263.620,239.450 266.983 C 241.240 270.628,242.047 271.441,245.410 272.983 C 248.607 274.450,251.133 276.974,251.984 279.551 C 252.826 282.104,254.662 283.989,257.580 285.298 C 261.048 286.854,263.001 288.785,264.584 292.223 C 266.023 295.348,267.859 297.161,270.449 298.016 C 273.053 298.876,275.550 301.391,277.036 304.651 C 278.855 308.642,280.059 309.508,285.467 310.712 C 287.850 311.243,290.750 312.125,291.911 312.673 L 294.023 313.669 295.981 312.412 C 299.916 309.887,301.479 306.926,300.207 304.407 C 299.705 303.413,298.904 300.890,298.427 298.800 C 297.030 292.672,296.792 291.933,295.345 289.200 C 294.419 287.454,293.373 286.163,292.158 285.268 C 291.163 284.536,289.729 282.966,288.970 281.780 C 287.287 279.149,287.035 279.008,282.663 278.245 C 276.702 277.204,274.235 275.326,272.364 270.403 C 271.114 267.112,269.821 265.726,266.623 264.249 C 263.264 262.697,261.570 260.875,260.327 257.479 C 259.315 254.714,257.436 252.937,254.397 251.869 C 251.662 250.907,249.093 248.338,248.131 245.603 C 247.063 242.564,245.286 240.685,242.521 239.673 C 239.017 238.391,237.316 236.760,235.580 233.019 C 233.886 229.368,232.960 228.358,230.400 227.368 C 226.377 225.811,224.189 223.623,222.632 219.600 C 221.642 217.040,220.632 216.114,216.981 214.420 C 213.340 212.731,211.581 210.956,210.486 207.865 C 209.704 205.660,206.544 202.400,205.188 202.400 C 200.784 202.400,192.910 198.970,190.199 195.870 L 188.443 193.863 189.250 192.730 C 189.693 192.107,191.026 190.761,192.211 189.738 C 195.059 187.278,196.872 183.605,198.004 178.000 C 198.471 175.690,199.335 172.720,199.925 171.400 L 200.997 169.000 200.997 156.200 L 200.997 143.400 199.925 141.000 C 199.336 139.680,198.493 136.834,198.053 134.675 C 196.971 129.364,194.780 124.723,192.622 123.172 C 189.139 120.667,186.930 116.524,185.602 110.009 C 184.186 103.064,183.816 102.800,175.464 102.800 C 165.725 102.800,162.663 101.173,160.210 94.696 C 159.801 93.618,158.818 92.187,157.943 91.396 L 156.398 90.000 150.030 90.000 L 143.662 90.000 142.192 91.700 M117.047 104.401 C 113.827 107.965,116.585 114.746,120.452 112.773 C 122.147 111.909,129.057 110.000,130.492 110.000 C 131.446 110.000,137.778 107.083,138.158 106.468 C 139.393 104.470,135.352 103.308,125.991 102.969 L 118.583 102.701 117.047 104.401 M104.645 117.141 C 102.585 119.267,102.969 123.583,105.397 125.598 C 106.310 126.356,113.771 119.066,113.191 117.983 C 111.883 115.539,106.692 115.028,104.645 117.141 M292.172 267.106 C 290.066 269.152,290.711 274.866,293.154 275.804 C 293.723 276.022,300.800 269.450,300.800 268.703 C 300.800 268.341,297.002 266.604,295.003 266.052 C 293.755 265.707,293.523 265.794,292.172 267.106 " stroke="none" fill="#fcfc04" fill-rule="evenodd"></path><path id="path1" d="M119.429 69.429 C 118.917 69.940,118.800 71.097,118.800 75.629 L 118.800 81.200 107.500 81.240 C 92.726 81.292,94.277 80.562,93.846 87.662 L 93.492 93.492 87.662 93.846 C 80.745 94.266,81.300 93.622,81.240 101.300 L 81.200 106.400 75.414 106.400 C 68.137 106.400,68.800 105.084,68.800 119.536 L 68.800 131.125 63.100 131.262 C 59.965 131.338,57.175 131.546,56.900 131.724 C 55.932 132.350,56.199 180.265,57.174 180.786 C 57.599 181.014,60.389 181.200,63.374 181.200 L 68.800 181.200 68.800 193.151 C 68.800 207.246,68.081 205.834,75.449 206.209 L 81.098 206.497 81.305 209.071 C 81.572 212.404,81.085 212.187,88.533 212.288 C 97.477 212.410,99.907 213.578,100.000 217.800 C 100.023 218.867,101.374 221.797,102.277 222.738 C 103.898 224.428,104.757 224.594,113.000 224.808 C 123.122 225.070,124.149 225.524,125.011 230.116 C 125.366 232.010,127.135 234.458,129.261 235.999 L 130.920 237.200 143.688 237.200 L 156.456 237.200 158.265 235.955 C 160.385 234.497,162.231 231.782,162.604 229.575 C 163.256 225.715,165.603 224.805,174.913 224.802 C 183.802 224.799,184.644 224.456,185.540 220.467 C 185.967 218.569,185.112 217.050,182.520 215.100 C 178.071 211.753,161.077 215.069,159.178 219.654 C 158.216 221.976,158.049 222.001,143.714 221.991 C 129.167 221.981,130.088 222.144,127.934 219.198 C 126.517 217.260,122.025 215.104,116.400 213.663 C 109.658 211.936,104.911 209.588,103.423 207.246 C 102.918 206.450,99.716 203.088,96.307 199.772 C 89.290 192.948,88.323 191.430,86.563 184.492 C 85.183 179.055,83.513 177.330,78.334 175.996 C 73.769 174.820,73.200 172.664,73.200 156.536 C 73.200 139.108,73.616 137.721,79.279 136.248 C 81.806 135.590,83.458 134.530,84.814 132.696 L 85.714 131.478 85.007 125.943 C 83.414 113.482,84.535 110.507,91.223 109.443 C 95.599 108.746,96.560 107.790,96.959 103.737 C 97.604 97.193,102.670 95.521,115.200 97.714 C 119.022 98.383,119.116 98.350,120.713 95.821 C 121.442 94.667,121.805 93.364,122.035 91.081 C 122.687 84.617,126.325 83.235,138.000 85.015 C 140.556 85.405,146.333 85.824,151.000 85.958 C 161.642 86.264,163.149 86.998,163.865 92.220 C 164.082 93.808,164.463 94.445,166.270 96.253 L 168.417 98.400 175.336 98.400 C 186.043 98.400,187.696 99.199,188.985 104.992 C 189.969 109.412,192.860 114.969,194.681 115.939 C 196.899 117.120,199.514 122.368,201.213 129.050 C 202.679 134.816,204.818 138.975,207.609 141.484 L 209.600 143.274 209.600 156.057 C 209.600 170.087,209.517 170.639,207.244 171.645 C 205.110 172.589,202.636 177.527,201.023 184.063 C 200.219 187.321,198.979 190.515,197.300 193.655 C 196.526 195.101,205.974 198.581,208.600 197.817 C 212.028 196.821,212.157 196.448,212.400 186.800 C 212.653 176.779,213.004 175.982,217.600 174.996 C 220.992 174.269,224.196 170.818,225.418 166.576 C 226.305 163.501,228.140 159.835,229.847 157.733 L 231.200 156.065 231.194 144.333 C 231.190 137.648,231.025 132.342,230.809 132.000 C 230.507 131.523,229.241 131.372,224.615 131.262 L 218.800 131.125 218.760 119.862 C 218.738 113.668,218.595 108.150,218.443 107.600 L 218.165 106.600 212.342 106.490 L 206.519 106.379 206.159 100.290 L 205.800 94.200 199.710 93.841 L 193.621 93.481 193.510 87.658 L 193.400 81.835 192.400 81.557 C 191.850 81.405,186.332 81.262,180.138 81.240 L 168.875 81.200 168.738 75.385 C 168.628 70.759,168.477 69.493,168.000 69.191 C 166.849 68.464,120.165 68.693,119.429 69.429 M141.166 111.075 C 139.717 111.806,136.387 112.953,133.766 113.623 C 127.808 115.146,123.473 117.240,121.958 119.325 C 121.349 120.164,120.164 121.357,119.325 121.976 C 117.432 123.372,108.800 132.136,108.800 132.662 C 108.800 132.873,108.022 133.595,107.070 134.265 C 105.075 135.672,102.333 140.747,101.571 144.446 C 100.758 148.390,99.920 150.974,98.578 153.674 L 97.248 156.347 98.390 158.474 C 99.412 160.375,100.077 162.346,101.567 167.878 C 103.023 173.284,109.458 174.886,111.699 170.400 C 112.323 169.151,112.399 167.555,112.399 155.585 C 112.400 139.012,112.352 139.194,117.185 137.641 C 120.924 136.440,124.068 133.590,124.780 130.757 C 126.249 124.902,125.807 125.045,143.219 124.800 C 160.068 124.563,159.910 124.606,160.635 120.072 C 161.002 117.777,157.665 114.280,154.681 113.833 C 152.227 113.465,147.526 111.859,145.442 110.676 L 143.800 109.744 141.166 111.075 M166.400 127.061 C 163.199 128.115,162.800 129.172,162.800 136.587 C 162.800 140.963,162.676 142.404,162.300 142.414 C 160.492 142.465,164.278 143.574,166.300 143.586 L 168.800 143.600 168.800 156.200 L 168.800 168.800 163.374 168.800 C 155.961 168.800,156.400 168.384,156.400 175.414 L 156.400 181.200 150.156 181.200 L 143.911 181.200 142.056 182.747 C 139.597 184.797,136.731 186.205,132.924 187.233 C 125.859 189.140,124.617 193.428,129.982 197.387 L 131.355 198.400 143.939 198.400 L 156.522 198.400 158.615 196.300 C 160.394 194.515,160.781 193.851,161.188 191.876 C 161.887 188.485,163.315 187.022,166.672 186.256 C 170.626 185.354,172.724 183.196,173.850 178.872 C 174.581 176.067,175.905 174.630,178.334 174.004 C 181.596 173.164,182.328 172.759,184.185 170.775 L 186.000 168.834 186.000 156.191 L 186.000 143.548 183.869 141.417 C 182.059 139.607,181.391 139.213,179.445 138.809 C 177.938 138.497,176.682 137.921,175.782 137.130 C 174.510 136.014,174.210 135.343,173.424 131.864 C 172.790 129.060,168.740 126.290,166.400 127.061 M156.140 146.800 C 156.140 148.670,156.209 149.435,156.293 148.500 C 156.377 147.565,156.377 146.035,156.293 145.100 C 156.209 144.165,156.140 144.930,156.140 146.800 M145.100 156.293 C 146.035 156.377,147.565 156.377,148.500 156.293 C 149.435 156.209,148.670 156.140,146.800 156.140 C 144.930 156.140,144.165 156.209,145.100 156.293 M116.931 175.783 C 111.995 177.930,115.221 186.715,120.511 185.533 C 125.799 184.351,125.849 180.012,120.617 176.411 C 118.614 175.034,118.643 175.039,116.931 175.783 M217.000 200.778 C 211.936 202.851,214.506 209.889,220.821 211.241 C 223.720 211.862,225.774 213.839,226.184 216.401 C 226.762 220.019,229.967 223.264,233.481 223.791 C 236.219 224.202,238.140 226.220,238.795 229.374 C 239.510 232.822,242.342 235.602,245.866 236.317 C 249.300 237.014,251.587 239.810,251.598 243.326 C 251.601 244.270,255.730 248.399,256.674 248.402 C 260.083 248.413,262.947 250.681,263.639 253.920 C 264.175 256.426,265.322 258.242,267.345 259.785 L 268.666 260.793 272.833 260.217 C 275.125 259.900,278.039 259.528,279.310 259.390 C 282.669 259.026,284.212 257.382,284.494 253.864 C 284.950 248.186,286.535 247.018,293.800 247.007 C 301.159 246.996,302.420 248.066,303.181 254.966 C 303.825 260.809,305.084 264.074,307.580 266.381 C 309.963 268.584,309.994 268.753,308.300 270.356 C 307.585 271.032,304.791 273.704,302.091 276.293 L 297.182 281.000 298.581 283.801 C 299.350 285.342,300.523 288.736,301.186 291.343 C 302.982 298.408,304.721 301.582,308.263 304.260 L 309.400 305.120 309.528 311.620 C 309.737 322.169,309.890 322.000,300.128 322.000 C 292.517 322.000,291.710 321.797,290.822 319.654 C 289.767 317.106,282.146 313.802,279.122 314.581 C 273.500 316.030,274.693 323.293,280.776 324.652 C 284.117 325.398,285.054 325.787,286.038 326.841 C 286.675 327.523,287.250 328.710,287.415 329.686 C 288.481 336.000,290.506 337.200,300.088 337.200 L 306.456 337.200 308.265 335.955 C 310.336 334.530,312.188 331.853,312.592 329.702 C 313.175 326.593,314.239 325.817,319.827 324.425 C 323.877 323.415,325.459 322.754,328.654 320.736 L 331.200 319.128 331.200 308.944 L 331.200 298.759 330.200 299.838 C 329.650 300.431,329.200 300.739,329.200 300.522 C 329.200 300.279,327.010 300.141,323.500 300.163 C 315.038 300.218,312.442 298.817,312.409 294.178 C 312.389 291.438,315.222 285.042,317.600 282.455 L 318.837 281.110 323.918 281.213 C 330.003 281.336,329.786 281.357,330.571 280.571 C 331.332 279.811,331.527 258.558,330.786 257.174 C 330.406 256.464,329.897 256.400,324.586 256.400 L 318.800 256.400 318.760 251.300 C 318.700 243.622,319.255 244.266,312.338 243.846 L 306.508 243.492 306.154 237.669 L 305.800 231.847 304.472 231.505 C 302.276 230.939,282.537 231.302,281.919 231.919 C 281.557 232.281,281.361 234.126,281.270 238.019 L 281.140 243.600 275.000 243.600 L 268.860 243.600 268.730 238.019 C 268.567 231.018,268.979 231.433,262.031 231.271 L 256.500 231.141 256.210 225.471 C 255.846 218.324,256.335 218.800,249.351 218.800 L 243.600 218.800 243.600 213.049 C 243.600 206.050,244.086 206.541,236.799 206.175 L 231.000 205.884 228.800 204.426 C 224.314 201.453,219.208 199.874,217.000 200.778 M190.400 227.501 C 186.890 229.254,187.308 232.517,191.450 235.698 C 193.726 237.447,194.220 237.511,196.025 236.295 C 201.122 232.860,195.928 224.739,190.400 227.501 M81.600 230.411 C 81.600 230.758,83.153 231.381,83.401 231.132 C 83.478 231.055,83.105 230.785,82.571 230.533 C 82.037 230.281,81.600 230.226,81.600 230.411 M93.740 234.400 C 93.740 236.270,93.809 237.035,93.893 236.100 C 93.977 235.165,93.977 233.635,93.893 232.700 C 93.809 231.765,93.740 232.530,93.740 234.400 M203.405 239.803 C 199.831 241.076,199.425 245.159,202.596 247.943 C 207.815 252.525,213.691 246.205,208.779 241.293 C 206.533 239.048,205.967 238.891,203.405 239.803 M216.400 252.070 C 211.484 253.468,211.931 259.392,217.123 261.644 C 222.879 264.141,225.365 256.689,220.107 252.700 C 218.526 251.500,218.450 251.487,216.400 252.070 M117.123 256.299 C 119.831 256.368,124.151 256.368,126.723 256.299 C 129.295 256.229,127.080 256.172,121.800 256.173 C 116.520 256.173,114.415 256.230,117.123 256.299 M187.383 256.294 L 193.567 256.420 193.709 259.310 L 193.850 262.200 193.825 259.200 L 193.800 256.200 187.500 256.184 L 181.199 256.169 187.383 256.294 M229.122 264.581 C 223.858 265.938,224.111 271.430,229.565 274.196 C 234.816 276.858,237.869 269.315,233.089 265.489 C 231.458 264.184,231.037 264.087,229.122 264.581 M131.293 265.600 C 131.293 266.370,131.375 266.685,131.476 266.300 C 131.576 265.915,131.576 265.285,131.476 264.900 C 131.375 264.515,131.293 264.830,131.293 265.600 M180.533 267.429 C 180.281 267.963,180.226 268.400,180.411 268.400 C 180.758 268.400,181.381 266.847,181.132 266.599 C 181.055 266.522,180.785 266.895,180.533 267.429 M133.700 268.676 C 134.085 268.776,134.715 268.776,135.100 268.676 C 135.485 268.575,135.170 268.493,134.400 268.493 C 133.630 268.493,133.315 268.575,133.700 268.676 M240.400 277.501 C 236.346 279.526,237.649 285.228,242.524 286.790 C 246.424 288.039,249.771 283.422,247.422 280.031 C 245.265 276.920,243.115 276.145,240.400 277.501 M330.533 282.571 C 330.785 283.105,331.055 283.478,331.132 283.401 C 331.381 283.153,330.758 281.600,330.411 281.600 C 330.226 281.600,330.281 282.037,330.533 282.571 M253.405 289.803 C 249.831 291.076,249.425 295.159,252.596 297.943 C 257.815 302.525,263.691 296.205,258.779 291.293 C 256.533 289.048,255.967 288.891,253.405 289.803 M266.400 302.070 C 261.484 303.468,261.931 309.392,267.123 311.644 C 272.879 314.141,275.365 306.689,270.107 302.700 C 268.526 301.500,268.450 301.487,266.400 302.070 M240.582 306.290 L 243.567 306.433 243.710 309.418 L 243.854 312.403 243.827 309.301 L 243.800 306.200 240.699 306.173 L 237.597 306.146 240.582 306.290 M290.582 356.290 L 293.567 356.433 293.710 359.418 L 293.854 362.403 293.827 359.301 L 293.800 356.200 290.699 356.173 L 287.597 356.146 290.582 356.290 M332.700 356.293 C 333.635 356.377,335.165 356.377,336.100 356.293 C 337.035 356.209,336.270 356.140,334.400 356.140 C 332.530 356.140,331.765 356.209,332.700 356.293 M330.533 367.429 C 330.281 367.963,330.226 368.400,330.411 368.400 C 330.758 368.400,331.381 366.847,331.132 366.599 C 331.055 366.522,330.785 366.895,330.533 367.429 " stroke="none" fill="#040404" fill-rule="evenodd"></path><path id="path2" d="M126.074 84.796 C 123.413 85.426,122.007 87.760,122.002 91.556 C 122.000 93.464,120.776 96.319,119.432 97.551 C 118.638 98.280,118.444 98.287,115.200 97.717 C 102.687 95.516,97.604 97.193,96.959 103.737 C 96.560 107.790,95.599 108.746,91.223 109.443 C 84.535 110.507,83.414 113.482,85.007 125.943 L 85.714 131.478 84.814 132.696 C 83.458 134.530,81.806 135.590,79.279 136.248 C 73.616 137.721,73.200 139.108,73.200 156.536 C 73.200 172.664,73.769 174.820,78.334 175.996 C 83.513 177.330,85.183 179.055,86.563 184.492 C 88.323 191.430,89.290 192.948,96.307 199.772 C 99.716 203.088,102.918 206.450,103.423 207.246 C 104.911 209.588,109.658 211.936,116.400 213.663 C 122.025 215.104,126.517 217.260,127.934 219.198 C 130.088 222.144,129.167 221.981,143.714 221.991 C 158.049 222.001,158.216 221.976,159.178 219.654 C 161.044 215.149,177.990 211.763,182.422 215.009 C 185.000 216.897,185.964 218.583,185.541 220.463 C 184.644 224.456,183.804 224.799,174.913 224.802 C 165.603 224.805,163.256 225.715,162.604 229.575 C 162.231 231.782,160.385 234.497,158.265 235.955 L 156.456 237.200 143.688 237.200 L 130.920 237.200 129.261 235.999 C 127.135 234.458,125.366 232.010,125.011 230.116 C 124.149 225.524,123.122 225.070,113.000 224.808 C 104.757 224.594,103.898 224.428,102.277 222.738 C 101.374 221.797,100.023 218.867,100.000 217.800 C 99.910 213.689,97.283 212.314,89.600 212.355 C 82.928 212.391,81.709 212.197,81.446 211.060 C 81.337 210.587,81.310 214.430,81.386 219.600 C 81.568 231.890,80.881 230.806,88.671 231.102 L 93.941 231.302 94.071 236.832 C 94.233 243.773,93.824 243.365,100.782 243.538 L 106.325 243.675 106.462 249.218 C 106.642 256.465,105.317 255.777,119.362 255.917 L 131.085 256.034 131.364 261.517 C 131.769 269.470,128.780 268.600,155.711 268.600 C 168.080 268.600,178.675 268.467,179.256 268.303 C 180.723 267.891,180.874 267.317,181.103 261.290 L 181.305 255.980 187.553 256.090 L 193.800 256.200 194.000 261.682 C 194.254 268.651,194.305 268.688,203.661 268.775 L 206.322 268.800 206.461 274.186 C 206.642 281.188,206.338 280.882,213.332 281.119 L 218.699 281.301 218.881 286.668 C 219.118 293.662,218.812 293.358,225.814 293.539 L 231.200 293.678 231.225 296.339 C 231.312 305.695,231.349 305.746,238.318 306.000 L 243.800 306.200 244.000 311.682 C 244.254 318.651,244.305 318.688,253.661 318.775 L 256.322 318.800 256.461 324.186 C 256.642 331.188,256.338 330.882,263.332 331.119 L 268.699 331.301 268.881 336.668 C 269.118 343.662,268.812 343.358,275.814 343.539 L 281.200 343.678 281.225 346.339 C 281.312 355.695,281.349 355.746,288.318 356.000 L 293.800 356.200 294.000 361.733 C 294.245 368.498,293.991 368.221,300.279 368.613 C 305.639 368.948,328.677 368.641,329.669 368.221 C 330.717 367.778,330.888 366.959,331.102 361.329 L 331.302 356.059 336.832 355.929 C 340.689 355.839,342.519 355.643,342.881 355.280 C 343.776 354.383,343.624 320.653,342.721 319.750 C 342.176 319.204,341.033 319.034,336.911 318.886 L 331.779 318.700 328.990 320.504 C 325.585 322.705,323.993 323.386,319.827 324.425 C 314.239 325.817,313.175 326.593,312.592 329.702 C 312.188 331.853,310.336 334.530,308.265 335.955 L 306.456 337.200 300.088 337.200 C 290.506 337.200,288.481 336.000,287.415 329.686 C 287.250 328.710,286.675 327.523,286.038 326.841 C 285.054 325.787,284.117 325.398,280.776 324.652 C 274.693 323.293,273.500 316.030,279.122 314.581 C 282.146 313.802,289.767 317.106,290.822 319.654 C 291.710 321.797,292.517 322.000,300.128 322.000 C 309.890 322.000,309.737 322.169,309.528 311.620 L 309.400 305.120 308.263 304.260 C 304.721 301.582,302.982 298.408,301.186 291.343 C 300.523 288.736,299.350 285.342,298.581 283.801 L 297.182 281.000 302.091 276.293 C 304.791 273.704,307.585 271.032,308.300 270.356 C 309.994 268.753,309.963 268.584,307.580 266.381 C 305.084 264.074,303.825 260.809,303.181 254.966 C 302.420 248.066,301.159 246.996,293.800 247.007 C 286.535 247.018,284.950 248.186,284.494 253.864 C 284.212 257.382,282.669 259.026,279.310 259.390 C 278.039 259.528,275.125 259.900,272.833 260.217 L 268.666 260.793 267.345 259.785 C 265.322 258.242,264.175 256.426,263.639 253.920 C 262.947 250.681,260.083 248.413,256.674 248.402 C 255.730 248.399,251.601 244.270,251.598 243.326 C 251.587 239.810,249.300 237.014,245.866 236.317 C 242.342 235.602,239.510 232.822,238.795 229.374 C 238.153 226.282,236.243 224.239,233.599 223.816 C 229.981 223.238,226.736 220.033,226.209 216.519 C 225.811 213.863,223.781 211.875,220.821 211.241 C 215.216 210.041,212.602 205.155,215.720 201.706 C 217.712 199.502,223.078 200.646,228.922 204.520 L 231.244 206.060 236.803 205.930 C 240.682 205.839,242.519 205.643,242.881 205.280 C 243.810 204.349,243.623 158.252,242.687 157.314 C 242.085 156.712,241.108 156.580,236.444 156.471 L 230.914 156.342 229.708 157.871 C 228.108 159.901,226.263 163.646,225.418 166.576 C 224.196 170.818,220.992 174.269,217.600 174.996 C 213.004 175.982,212.653 176.779,212.400 186.800 C 212.157 196.448,212.028 196.821,208.600 197.817 C 205.974 198.581,196.526 195.101,197.300 193.655 C 198.979 190.515,200.219 187.321,201.023 184.063 C 202.636 177.527,205.110 172.589,207.244 171.645 C 209.517 170.639,209.600 170.087,209.600 156.057 L 209.600 143.274 207.609 141.484 C 204.818 138.975,202.679 134.816,201.213 129.050 C 199.514 122.368,196.899 117.120,194.681 115.939 C 192.860 114.969,189.969 109.412,188.985 104.992 C 187.696 99.199,186.043 98.400,175.336 98.400 L 168.417 98.400 166.270 96.253 C 164.456 94.438,164.083 93.811,163.862 92.201 C 163.148 86.991,161.651 86.274,150.800 85.941 C 146.070 85.795,140.400 85.393,138.200 85.046 C 133.994 84.383,128.313 84.266,126.074 84.796 M157.800 89.710 C 159.067 90.420,159.747 91.273,161.065 93.803 C 164.560 100.514,166.559 101.599,175.426 101.601 C 184.154 101.604,184.896 102.079,186.637 108.780 C 188.024 114.121,189.540 117.095,192.542 120.367 C 195.720 123.830,197.647 127.653,199.029 133.238 C 200.058 137.397,201.425 140.868,202.787 142.781 C 203.562 143.870,203.600 144.497,203.600 156.183 L 203.600 168.442 202.599 169.916 C 201.327 171.788,199.869 175.662,198.818 179.961 C 197.673 184.647,195.515 188.929,192.934 191.635 L 190.787 193.886 192.619 195.575 C 194.823 197.606,199.178 199.736,203.000 200.651 C 207.968 201.841,209.707 203.127,211.314 206.800 C 212.665 209.887,214.540 211.806,217.803 213.441 C 221.637 215.361,222.013 215.733,224.023 219.597 C 225.917 223.238,226.992 224.282,230.841 226.221 C 234.173 227.898,234.663 228.412,236.566 232.210 C 238.289 235.650,239.687 236.943,244.040 239.123 C 246.970 240.591,246.998 240.621,248.691 243.990 C 250.819 248.223,251.777 249.181,256.010 251.309 C 259.365 252.995,259.415 253.042,260.844 255.895 C 264.043 262.282,265.387 263.166,274.709 265.016 L 281.396 266.343 283.264 265.327 C 286.405 263.617,289.291 260.550,291.100 257.000 C 292.981 253.307,294.646 253.330,296.378 257.072 C 298.465 261.583,299.903 264.175,301.500 266.311 C 302.435 267.561,303.200 268.696,303.200 268.833 C 303.200 268.969,300.500 271.721,297.200 274.947 C 290.597 281.402,290.581 281.432,292.635 283.124 C 295.283 285.307,297.878 290.669,299.351 297.000 C 299.709 298.540,300.721 301.267,301.601 303.061 C 304.098 308.153,302.769 311.980,297.600 314.580 C 294.622 316.078,293.971 316.105,292.017 314.811 C 290.398 313.739,286.266 312.233,282.077 311.187 C 279.785 310.615,277.529 308.501,276.211 305.693 C 274.784 302.650,272.767 300.617,269.566 298.993 C 266.551 297.463,264.858 295.719,263.402 292.642 C 262.212 290.126,259.502 287.472,257.047 286.420 C 254.454 285.309,252.496 283.368,251.007 280.434 C 249.418 277.302,247.306 275.151,244.685 273.994 C 241.904 272.767,240.122 271.019,238.607 268.034 C 236.990 264.845,235.004 262.882,231.765 261.268 C 228.976 259.878,227.217 258.059,226.006 255.315 C 224.849 252.694,222.698 250.582,219.566 248.993 C 216.551 247.463,214.858 245.719,213.402 242.642 C 212.212 240.126,209.502 237.472,207.047 236.420 C 204.454 235.309,202.496 233.368,201.007 230.434 C 199.418 227.302,197.306 225.151,194.685 223.994 C 191.941 222.783,190.122 221.024,188.732 218.235 C 185.616 211.983,183.727 211.100,173.857 211.279 C 165.407 211.432,162.132 212.164,157.965 214.827 L 156.130 216.000 143.896 216.000 L 131.661 216.000 128.700 214.402 C 126.846 213.403,124.008 212.365,121.116 211.630 C 112.677 209.483,111.346 208.564,99.651 196.790 C 93.001 190.096,91.498 188.105,89.846 183.800 C 87.447 177.550,86.124 175.879,82.064 173.974 C 76.303 171.271,76.400 171.575,76.400 156.200 C 76.400 140.797,76.217 141.388,81.829 138.656 C 87.130 136.076,88.401 133.938,90.183 124.600 C 91.451 117.958,91.604 117.682,95.094 115.739 C 98.543 113.819,101.481 110.890,103.202 107.658 C 105.149 104.003,105.616 103.785,115.323 102.008 C 122.102 100.767,125.421 98.989,127.997 95.217 C 130.473 91.591,130.825 91.388,136.600 90.252 C 139.460 89.690,142.160 89.154,142.600 89.061 C 145.738 88.400,156.264 88.849,157.800 89.710 M141.185 105.715 C 138.354 108.379,134.670 110.158,128.990 111.603 C 121.599 113.482,120.490 114.208,111.666 122.943 C 101.606 132.902,100.924 133.936,98.816 142.448 C 97.629 147.236,95.623 151.216,93.021 153.944 L 90.819 156.252 92.633 158.026 C 94.746 160.092,96.384 162.800,97.806 166.577 C 99.871 172.064,101.761 174.437,105.315 176.006 C 108.096 177.233,109.878 178.981,111.393 181.966 C 113.010 185.155,114.996 187.118,118.235 188.732 C 121.024 190.122,122.783 191.941,123.994 194.685 C 126.724 200.871,128.812 201.600,143.803 201.600 C 159.067 201.600,160.185 201.191,163.620 194.360 C 165.279 191.060,166.520 189.852,169.649 188.493 C 172.470 187.268,174.595 185.098,176.138 181.868 C 177.750 178.492,178.643 177.579,181.627 176.260 C 184.401 175.033,186.211 173.525,187.667 171.230 L 188.800 169.443 188.800 156.548 C 188.800 148.447,188.643 143.238,188.377 142.539 C 187.516 140.275,185.263 138.095,182.197 136.559 C 178.413 134.664,177.898 134.171,176.221 130.841 C 174.359 127.143,173.272 125.959,170.321 124.411 C 166.267 122.285,165.352 121.414,163.563 117.975 C 161.466 113.944,159.719 112.477,154.780 110.594 C 149.960 108.758,147.826 107.500,145.856 105.335 C 143.893 103.178,143.878 103.179,141.185 105.715 M149.939 112.579 C 151.509 113.113,153.642 113.677,154.681 113.833 C 157.665 114.280,161.002 117.777,160.635 120.072 C 159.910 124.606,160.068 124.563,143.219 124.800 C 125.807 125.045,126.249 124.902,124.780 130.757 C 124.068 133.590,120.924 136.440,117.185 137.641 C 112.352 139.194,112.400 139.012,112.399 155.585 C 112.399 167.555,112.323 169.151,111.699 170.400 C 109.458 174.886,103.023 173.284,101.567 167.878 C 100.077 162.346,99.412 160.375,98.390 158.474 L 97.248 156.347 98.578 153.674 C 99.920 150.974,100.758 148.390,101.571 144.446 C 102.333 140.747,105.075 135.672,107.070 134.265 C 108.022 133.595,108.800 132.873,108.800 132.662 C 108.800 132.136,117.432 123.372,119.325 121.976 C 120.164 121.357,121.349 120.164,121.958 119.325 C 123.473 117.240,127.808 115.146,133.766 113.623 C 136.387 112.953,139.717 111.806,141.166 111.075 L 143.800 109.744 145.442 110.676 C 146.346 111.189,148.369 112.045,149.939 112.579 M171.202 128.764 C 172.283 129.845,173.282 131.240,173.424 131.864 C 174.210 135.343,174.510 136.014,175.782 137.130 C 176.682 137.921,177.938 138.497,179.445 138.809 C 181.391 139.213,182.059 139.607,183.869 141.417 L 186.000 143.548 186.000 156.191 L 186.000 168.834 184.185 170.775 C 182.328 172.759,181.596 173.164,178.334 174.004 C 175.905 174.630,174.581 176.067,173.850 178.872 C 172.724 183.196,170.626 185.354,166.672 186.256 C 163.315 187.022,161.887 188.485,161.188 191.876 C 160.781 193.851,160.394 194.515,158.615 196.300 L 156.522 198.400 143.939 198.400 L 131.355 198.400 129.982 197.387 C 124.617 193.428,125.859 189.140,132.924 187.233 C 136.613 186.237,139.555 184.815,141.900 182.895 L 143.600 181.504 143.600 168.782 L 143.600 156.060 149.181 155.930 C 156.186 155.767,155.767 156.186,155.930 149.181 L 156.060 143.600 159.930 143.586 C 163.488 143.573,163.719 143.526,162.800 143.000 C 162.250 142.686,162.025 142.422,162.300 142.414 C 162.676 142.404,162.800 140.963,162.800 136.587 C 162.800 130.241,163.193 128.535,164.838 127.729 C 167.803 126.278,168.894 126.456,171.202 128.764 M120.617 176.411 C 125.849 180.012,125.799 184.351,120.511 185.533 C 115.221 186.715,111.995 177.930,116.931 175.783 C 118.643 175.039,118.614 175.034,120.617 176.411 M196.144 228.607 C 198.354 230.817,198.538 231.347,197.883 233.609 C 196.519 238.320,191.582 237.778,188.559 232.584 C 185.997 228.184,192.376 224.839,196.144 228.607 M208.779 241.293 C 213.691 246.205,207.815 252.525,202.596 247.943 C 199.425 245.159,199.831 241.076,203.405 239.803 C 205.967 238.891,206.533 239.048,208.779 241.293 M220.107 252.700 C 225.365 256.689,222.879 264.141,217.123 261.644 C 211.931 259.392,211.484 253.468,216.400 252.070 C 218.450 251.487,218.526 251.500,220.107 252.700 M233.089 265.489 C 237.869 269.315,234.816 276.858,229.565 274.196 C 224.111 271.430,223.858 265.938,229.122 264.581 C 231.037 264.087,231.458 264.184,233.089 265.489 M245.212 277.672 C 247.590 279.430,248.514 281.289,247.989 283.259 C 246.587 288.523,240.696 288.272,238.344 282.848 C 236.615 278.861,241.669 275.052,245.212 277.672 M317.609 282.445 C 315.222 285.041,312.389 291.433,312.409 294.178 C 312.442 298.817,315.038 300.218,323.500 300.163 C 327.010 300.141,329.200 300.279,329.200 300.522 C 329.200 300.739,329.669 300.411,330.241 299.793 L 331.282 298.670 331.109 291.035 C 330.877 280.875,331.536 281.780,324.069 281.374 L 318.855 281.090 317.609 282.445 M258.779 291.293 C 263.691 296.205,257.815 302.525,252.596 297.943 C 249.425 295.159,249.831 291.076,253.405 289.803 C 255.967 288.891,256.533 289.048,258.779 291.293 M270.107 302.700 C 275.365 306.689,272.879 314.141,267.123 311.644 C 261.931 309.392,261.484 303.468,266.400 302.070 C 268.450 301.487,268.526 301.500,270.107 302.700 " stroke="none" fill="#84845f" fill-rule="evenodd"></path><path id="path3" d="" stroke="none" fill="#100c444" fill-rule="evenodd"></path></g></svg>