<svg xmlns="http://www.w3.org/2000/svg" xmlns:xlink="http://www.w3.org/1999/xlink" width="500" zoomAndPan="magnify" viewBox="0 0 375 374.999991" height="500" preserveAspectRatio="xMidYMid meet" version="1.0"><defs><clipPath 
id="952deb474d">

<path d="M 111.878906 19.851562 L 169.628906 19.851562 L 169.628906 77.601562 L 111.878906 77.601562 Z M 111.878906 19.851562 " clip-rule="nonzero"/></clipPath><clipPath id="bf559a68ff"><path d="M 18.65625 19.851562 L 76.40625 19.851562 L 76.40625 77.601562 L 18.65625 77.601562 Z M 18.65625 19.851562 " 

clip-rule="nonzero"/></clipPath><clipPath id="d2346fc046"><path d="M 205.101562 19.851562 L 262.851562 19.851562 L 262.851562 77.601562 L 205.101562 77.601562 Z M 205.101562 19.851562 " clip-rule="nonzero"/></clipPath><clipPath id="7f441ab7e9"><path d="M 298.277344 19.851562 L 356.027344 19.851562 L 356.027344 77.601562 L 298.277344 77.601562 Z M 298.277344 19.851562 " 

clip-rule="nonzero"/></clipPath><clipPath id="7bae5432a0"><path d="M 298.277344 113.074219 L 356.027344 113.074219 L 356.027344 170.824219 L 298.277344 170.824219 Z M 298.277344 113.074219 " 

clip-rule="nonzero"/></clipPath><clipPath id="5667ac41d4"><path d="M 205.101562 113.074219 L 262.851562 113.074219 L 262.851562 170.824219 L 205.101562 170.824219 Z M 205.101562 113.074219 " 

clip-rule="nonzero"/></clipPath><clipPath id="0d50c0488a"><path d="M 111.878906 113.074219 L 169.628906 113.074219 L 169.628906 170.824219 L 111.878906 170.824219 Z M 111.878906 113.074219 " 

clip-rule="nonzero"/></clipPath><clipPath id="63e2393c63"><path d="M 18.65625 113.074219 L 76.40625 113.074219 L 76.40625 170.824219 L 18.65625 170.824219 Z M 18.65625 113.074219 " 

clip-rule="nonzero"/></clipPath><clipPath id="ae8141b18a"><path d="M 111.878906 206.296875 L 169.628906 206.296875 L 169.628906 264.046875 L 111.878906 264.046875 Z M 111.878906 206.296875 " 

clip-rule="nonzero"/></clipPath><clipPath id="3af4bfc408"><path d="M 18.65625 206.296875 L 76.40625 206.296875 L 76.40625 264.046875 L 18.65625 264.046875 Z M 18.65625 206.296875 "

clip-rule="nonzero"/></clipPath><clipPath id="b5c06ccc4b"><path d="M 205.101562 206.296875 L 262.851562 206.296875 L 262.851562 264.046875 L 205.101562 264.046875 Z M 205.101562 206.296875 " 

clip-rule="nonzero"/></clipPath><clipPath id="a26594b2d4"><path d="M 298.277344 206.296875 L 356.027344 206.296875 L 356.027344 264.046875 L 298.277344 264.046875 Z M 298.277344 206.296875 " 

clip-rule="nonzero"/></clipPath><clipPath id="63ef45e862"><path d="M 298.324219 299.519531 L 356.074219 299.519531 L 356.074219 357.269531 L 298.324219 357.269531 Z M 298.324219 299.519531 " 

clip-rule="nonzero"/></clipPath><clipPath id="01f7a01fcb"><path d="M 205.101562 299.519531 L 262.851562 299.519531 L 262.851562 357.269531 L 205.101562 357.269531 Z M 205.101562 299.519531 " 

clip-rule="nonzero"/></clipPath><clipPath id="48e5c8ab17"><path d="M 111.878906 299.519531 L 169.628906 299.519531 L 169.628906 357.269531 L 111.878906 357.269531 Z M 111.878906 299.519531 " 

clip-rule="nonzero"/></clipPath><clipPath id="6db81d8e27"><path d="M 18.65625 299.519531 L 76.40625 299.519531 L 76.40625 357.269531 L 18.65625 357.269531 Z M 18.65625 299.519531 " 

clip-rule="nonzero"/></clipPath></defs><path fill="#f4be69" d="M 370.453125 190.707031 C 368.453125 193.992188 365.050781 195.929688 361.695312 197.804688 C 363.113281 199.859375 363.0625 202.613281 362.429688 205.027344 C 361.796875 207.441406 360.648438 209.699219 360.003906 212.113281 C 359.363281 214.53125 359.527344 217.722656 360.925781 219.78125 C 359 219.863281 357.382812 221.410156 356.59375 223.183594 C 355.816406 224.953125 355.691406 226.921875 355.527344 228.851562 C 355.363281 230.777344 355.101562 232.765625 354.097656 234.414062 L 354.140625 234.425781 C 356.90625 235.523438 359.789062 236.695312 361.746094 238.941406 C 362.316406 239.605469 362.804688 240.351562 363.105469 241.160156 C 363.789062 243.023438 363.511719 245.140625 362.742188 246.960938 C 361.976562 248.796875 360.761719 250.402344 359.574219 251.988281 C 361.128906 253.53125 363.675781 255.273438 364.378906 257.355469 C 364.824219 258.683594 364.867188 260.113281 365.066406 261.5 C 365.75 266.414062 368.359375 271.035156 368.195312 275.996094 L 368.195312 276.007812 C 368.183594 276.515625 367.8125 276.941406 367.378906 277.199219 C 366.941406 277.460938 366.453125 277.605469 366.011719 277.832031 C 364.464844 278.621094 363.648438 280.371094 363.324219 282.082031 C 363.003906 283.792969 363.054688 285.554688 362.691406 287.253906 C 361.957031 290.710938 359.304688 293.523438 357.003906 296.21875 C 358.257812 297.792969 359.53125 299.386719 360.246094 301.265625 C 360.960938 303.140625 361.042969 305.367188 359.976562 307.066406 C 358.671875 309.148438 355.53125 310.144531 353.15625 310.765625 C 354.90625 312.46875 356.761719 314.34375 357.113281 316.757812 C 357.351562 318.4375 356.832031 320.144531 357.050781 321.824219 C 357.238281 323.273438 357.972656 324.613281 358.914062 325.722656 C 359.859375 326.832031 361.007812 327.765625 362.136719 328.6875 C 360.085938 331.765625 360.292969 336.171875 361.257812 339.746094 C 362.222656 343.320312 363.929688 346.65625 364.875 350.242188 C 366.085938 354.8125 366.003906 359.714844 364.65625 364.242188 C 358.511719 365.703125 351.390625 365.714844 345.414062 363.671875 C 342.667969 362.730469 340.035156 361.433594 337.195312 360.824219 C 334.355469 360.210938 330.933594 360.304688 328.625 362.054688 C 327.566406 360.316406 325.941406 358.925781 324.054688 358.171875 C 321.867188 357.289062 319.441406 357.257812 317.113281 356.886719 C 314.78125 356.511719 312.191406 355.507812 310.875 353.546875 C 310.316406 356.003906 309.164062 358.324219 307.539062 360.253906 C 306.957031 360.9375 306.253906 361.609375 305.363281 361.746094 C 304.691406 361.835938 304.023438 361.609375 303.390625 361.363281 C 301.011719 360.429688 298.65625 359 296.5625 357.527344 C 295.320312 357.464844 294.199219 358.273438 293.339844 359.164062 C 292.480469 360.054688 291.734375 361.101562 290.6875 361.765625 C 288.003906 363.453125 284.355469 362.136719 281.402344 363.289062 C 278.976562 364.230469 276.925781 366.519531 275.601562 368.761719 C 274.75 368.035156 273.609375 367.785156 272.503906 367.691406 C 271.390625 367.601562 270.273438 367.640625 269.1875 367.390625 C 267.558594 367.03125 266.128906 366.066406 264.546875 365.558594 C 262.296875 364.832031 259.828125 365.050781 257.59375 364.316406 C 255.050781 363.484375 253.066406 361.515625 251.175781 359.621094 C 248.824219 361.382812 247.738281 361.773438 245 362.863281 C 243.902344 363.296875 242.710938 363.679688 241.558594 363.402344 C 240.609375 363.164062 239.820312 362.5 239.125 361.808594 C 237.082031 359.777344 235.433594 357.164062 234.296875 354.511719 C 231.308594 356.046875 227.601562 354.90625 224.398438 355.921875 C 222.160156 356.636719 220.160156 358.535156 219.382812 360.761719 C 217.765625 359.21875 215.183594 359.207031 213.050781 359.871094 C 210.914062 360.535156 208.988281 361.746094 206.851562 362.414062 C 203.960938 363.300781 200.746094 363.117188 197.984375 361.886719 L 197.992188 361.285156 C 196.945312 365.265625 194.09375 368.734375 190.398438 370.53125 C 189.351562 371.039062 188.191406 371.421875 187.050781 371.246094 C 186.085938 371.089844 185.226562 370.558594 184.4375 369.988281 C 181.546875 367.925781 179.078125 365.265625 177.234375 362.21875 C 173.949219 362.777344 170.601562 363.335938 167.546875 362.011719 C 165.980469 361.335938 164.621094 360.207031 163.027344 359.613281 C 160.519531 358.691406 157.515625 359.292969 155.546875 361.097656 C 155.148438 359.179688 153.503906 357.585938 151.71875 356.789062 C 149.925781 355.988281 147.949219 355.773438 146 355.566406 C 144.050781 355.359375 142.074219 355.128906 140.289062 354.308594 C 139.980469 357.160156 138.839844 359.347656 136.914062 361.46875 C 136.136719 362.328125 135.191406 363.117188 134.050781 363.296875 C 133.316406 363.410156 132.558594 363.253906 131.84375 363.058594 C 129.234375 362.351562 126.757812 361.171875 124.570312 359.585938 C 121.003906 360.808594 118.890625 364.539062 115.210938 365.359375 C 113.484375 365.738281 111.636719 365.398438 109.90625 365.78125 C 108.550781 366.082031 107.335938 366.796875 106 367.191406 C 103.648438 367.886719 100.976562 367.566406 98.871094 368.820312 C 97.761719 366.300781 95.058594 364.25 92.414062 363.492188 C 90.859375 363.046875 89.210938 363.015625 87.628906 362.675781 C 84.601562 362.03125 81.296875 359.699219 79.460938 357.214844 C 78.105469 358.46875 77.855469 358.707031 76.25 359.640625 C 74.640625 360.574219 72.757812 361.121094 70.933594 360.851562 C 69.265625 360.605469 67.742188 359.648438 66.675781 358.355469 C 65.597656 357.058594 64.726562 354.90625 64.511719 353.234375 C 63.109375 355.472656 60.539062 356.851562 57.921875 357.121094 C 56.128906 357.308594 54.300781 357.015625 52.53125 357.347656 C 50.054688 357.816406 47.433594 359.925781 46.398438 362.21875 C 44.210938 360.601562 41.265625 360.390625 38.5625 360.765625 C 34.21875 361.367188 30.179688 363.265625 25.949219 364.394531 C 21.070312 365.699219 14.25 365.734375 10.394531 364.25 C 9.039062 359.722656 8.964844 354.820312 10.175781 350.25 C 11.128906 346.675781 12.839844 343.328125 13.796875 339.753906 C 14.761719 336.175781 14.976562 331.773438 12.914062 328.695312 C 14.054688 327.773438 15.195312 326.851562 16.136719 325.730469 C 17.078125 324.609375 17.816406 323.285156 18.003906 321.832031 C 18.21875 320.152344 17.691406 318.445312 17.941406 316.765625 C 18.292969 314.351562 20.148438 312.476562 21.898438 310.773438 C 19.515625 310.164062 16.386719 309.15625 15.078125 307.074219 C 14.011719 305.375 14.09375 303.148438 14.808594 301.273438 C 15.523438 299.398438 16.796875 297.789062 18.050781 296.226562 C 15.75 293.53125 13.097656 290.734375 12.359375 287.261719 C 11.996094 285.558594 12.058594 283.800781 11.726562 282.089844 C 11.40625 280.378906 10.585938 278.628906 9.042969 277.839844 C 8.597656 277.613281 8.101562 277.46875 7.675781 277.207031 C 7.238281 276.949219 6.867188 276.523438 6.859375 276.015625 L 6.859375 276.003906 C 6.683594 271.050781 9.292969 266.421875 9.988281 261.507812 C 10.183594 260.121094 10.226562 258.691406 10.671875 257.363281 C 11.378906 255.28125 13.914062 253.550781 15.480469 251.996094 C 14.277344 250.410156 13.074219 248.800781 12.308594 246.96875 C 11.546875 245.136719 11.253906 243.023438 11.949219 241.167969 C 12.246094 240.351562 12.734375 239.601562 13.304688 238.949219 C 15.253906 236.699219 18.144531 235.519531 20.914062 234.433594 L 20.953125 234.421875 C 19.949219 232.765625 19.699219 230.785156 19.523438 228.859375 C 19.359375 226.929688 19.234375 224.949219 18.457031 223.191406 C 17.679688 221.425781 16.0625 219.875 14.125 219.789062 C 15.523438 217.71875 15.691406 214.535156 15.046875 212.121094 C 14.40625 209.710938 13.253906 207.449219 12.621094 205.035156 C 11.988281 202.621094 11.9375 199.863281 13.359375 197.8125 C 10 195.9375 6.601562 194 4.601562 190.714844 C 3.84375 189.484375 3.324219 188.011719 3.585938 186.589844 C 3.78125 185.511719 4.402344 184.558594 5.078125 183.6875 C 6.175781 182.265625 7.441406 180.984375 8.851562 179.863281 C 9.792969 179.117188 10.808594 178.421875 11.554688 177.480469 C 12.300781 176.539062 12.746094 175.253906 12.34375 174.113281 C 12.125 172.214844 12.1875 169.933594 12.789062 168.113281 C 13.460938 166.070312 14.960938 164.371094 15.574219 162.308594 C 16.28125 159.957031 15.738281 157.179688 14.125 155.335938 C 15.253906 154.859375 16.425781 154.351562 17.234375 153.425781 C 17.960938 152.597656 18.324219 151.519531 18.601562 150.453125 C 19.390625 147.46875 19.660156 144.371094 19.929688 141.300781 C 19.960938 141.003906 19.984375 140.671875 19.816406 140.414062 C 19.660156 140.152344 18.664062 139.894531 18.476562 140.132812 C 15.078125 139.316406 12.289062 136.359375 11.671875 132.910156 C 11.046875 129.460938 12.644531 125.726562 15.554688 123.78125 C 13.015625 122.183594 11.234375 119.386719 10.324219 116.523438 C 9.414062 113.664062 9.121094 110.648438 8.664062 107.683594 C 8.210938 104.71875 7.546875 101.714844 6.003906 99.144531 C 8.417969 97.332031 11.015625 95.578125 11.816406 92.792969 C 12.40625 90.761719 12.269531 88.574219 12.757812 86.511719 C 13.421875 83.664062 15.296875 81.125 17.816406 79.652344 C 16.574219 78.078125 15.347656 76.035156 14.726562 74.128906 C 14.105469 72.222656 14.09375 70.039062 15.132812 68.316406 C 16.4375 66.128906 19.351562 65.011719 21.835938 64.433594 L 21.941406 64.433594 C 20.707031 63.519531 20.757812 63.582031 19.867188 62.339844 C 18.789062 60.828125 18.324219 58.953125 18.042969 57.109375 C 17.761719 55.261719 17.636719 53.386719 17.121094 51.59375 C 17.164062 50.320312 16.476562 48.808594 15.410156 48.113281 C 14.703125 47.65625 13.78125 47.367188 13.441406 46.601562 C 13.222656 46.101562 13.324219 45.511719 13.605469 45.054688 C 13.886719 44.601562 14.390625 44.175781 14.871094 43.914062 C 14.714844 38.804688 12.632812 33.976562 11.316406 29.035156 C 9.6875 22.972656 9.191406 16.621094 9.855469 10.382812 C 13.71875 8.898438 21.101562 9.261719 25.980469 10.570312 C 30.207031 11.699219 34.25 13.59375 38.59375 14.199219 C 41.289062 14.570312 44.230469 14.363281 46.425781 12.746094 C 47.464844 15.046875 50.085938 17.164062 52.5625 17.617188 C 54.335938 17.949219 56.15625 17.660156 57.949219 17.84375 C 60.582031 18.113281 63.140625 19.492188 64.539062 21.730469 C 64.765625 20.0625 65.636719 17.917969 66.703125 16.609375 C 67.78125 15.316406 69.304688 14.371094 70.964844 14.113281 C 72.800781 13.832031 74.675781 14.390625 76.28125 15.324219 C 77.886719 16.246094 78.136719 16.484375 79.492188 17.75 C 81.335938 15.261719 84.632812 12.929688 87.65625 12.289062 C 89.242188 11.953125 90.890625 11.914062 92.445312 11.46875 C 95.097656 10.710938 97.792969 8.671875 98.898438 6.140625 C 101.015625 7.398438 103.675781 7.066406 106.03125 7.769531 C 107.359375 8.164062 108.578125 8.878906 109.9375 9.179688 C 111.675781 9.5625 113.511719 9.222656 115.242188 9.605469 C 118.921875 10.421875 121.035156 14.164062 124.601562 15.378906 C 126.789062 13.792969 129.261719 12.601562 131.875 11.90625 C 132.601562 11.707031 133.347656 11.550781 134.082031 11.667969 C 135.222656 11.84375 136.175781 12.632812 136.941406 13.492188 C 138.859375 15.617188 140.011719 17.800781 140.320312 20.652344 C 142.101562 19.835938 144.082031 19.605469 146.03125 19.398438 C 147.976562 19.191406 149.957031 18.972656 151.75 18.175781 C 153.542969 17.378906 155.179688 15.78125 155.574219 13.863281 C 157.546875 15.675781 160.550781 16.269531 163.058594 15.347656 C 164.664062 14.757812 166.011719 13.628906 167.574219 12.953125 C 170.632812 11.636719 173.980469 12.195312 177.265625 12.746094 C 179.109375 9.699219 181.574219 7.046875 184.46875 4.972656 C 185.265625 4.402344 186.113281 3.875 187.078125 3.71875 C 188.230469 3.542969 189.390625 3.925781 190.425781 4.433594 C 194.128906 6.226562 196.976562 9.699219 198.023438 13.675781 L 198.011719 13.078125 C 200.78125 11.84375 203.992188 11.65625 206.882812 12.550781 C 209.015625 13.210938 210.945312 14.425781 213.078125 15.089844 C 215.214844 15.753906 217.785156 15.734375 219.414062 14.199219 C 220.179688 16.417969 222.179688 18.324219 224.425781 19.039062 C 227.628906 20.054688 231.339844 18.914062 234.324219 20.449219 C 235.464844 17.796875 237.113281 15.195312 239.15625 13.15625 C 239.851562 12.460938 240.636719 11.796875 241.589844 11.558594 C 242.738281 11.28125 243.933594 11.664062 245.03125 12.101562 C 247.753906 13.1875 248.855469 13.582031 251.207031 15.34375 C 253.09375 13.445312 255.074219 11.488281 257.621094 10.648438 C 259.859375 9.914062 262.335938 10.128906 264.574219 9.40625 C 266.160156 8.898438 267.589844 7.933594 269.21875 7.570312 C 270.304688 7.332031 271.425781 7.371094 272.53125 7.269531 C 273.640625 7.175781 274.78125 6.917969 275.628906 6.203125 C 276.957031 8.441406 278.996094 10.742188 281.433594 11.675781 C 284.398438 12.816406 288.046875 11.5 290.71875 13.199219 C 291.773438 13.859375 292.511719 14.90625 293.371094 15.796875 C 294.230469 16.6875 295.351562 17.496094 296.59375 17.433594 C 298.683594 15.976562 301.046875 14.542969 303.421875 13.601562 C 304.054688 13.351562 304.71875 13.121094 305.390625 13.21875 C 306.28125 13.34375 306.988281 14.015625 307.566406 14.710938 C 309.195312 16.636719 310.34375 18.960938 310.90625 21.414062 C 312.21875 19.457031 314.8125 18.449219 317.140625 18.078125 C 319.476562 17.703125 321.886719 17.671875 324.085938 16.792969 C 325.96875 16.035156 327.597656 14.648438 328.65625 12.90625 C 330.964844 14.671875 334.386719 14.761719 337.226562 14.140625 C 340.066406 13.527344 342.699219 12.222656 345.441406 11.289062 C 351.421875 9.246094 359.101562 8.917969 365.257812 10.378906 C 365.921875 16.613281 365.421875 22.96875 363.796875 29.03125 C 362.46875 33.972656 360.386719 38.792969 360.242188 43.910156 C 360.71875 44.15625 361.21875 44.582031 361.507812 45.050781 C 361.796875 45.515625 361.890625 46.109375 361.671875 46.59375 C 361.328125 47.371094 360.40625 47.652344 359.703125 48.109375 C 358.636719 48.800781 357.949219 50.316406 357.992188 51.589844 C 357.484375 53.382812 357.359375 55.257812 357.070312 57.101562 C 356.78125 58.949219 356.324219 60.8125 355.246094 62.335938 C 354.355469 63.578125 354.40625 63.515625 353.171875 64.425781 L 353.273438 64.425781 C 355.761719 65.007812 358.664062 66.128906 359.980469 68.3125 C 361.003906 70.03125 361.003906 72.21875 360.386719 74.125 C 359.761719 76.03125 358.539062 78.074219 357.296875 79.648438 C 359.816406 81.121094 361.691406 83.667969 362.355469 86.507812 C 362.832031 88.570312 362.707031 90.746094 363.296875 92.789062 C 364.105469 95.566406 366.699219 97.328125 369.109375 99.140625 C 367.554688 101.710938 366.902344 104.714844 366.449219 107.679688 C 365.992188 110.644531 365.703125 113.660156 364.789062 116.519531 C 363.878906 119.378906 362.105469 122.175781 359.558594 123.773438 C 362.46875 125.722656 364.054688 129.464844 363.441406 132.90625 C 362.828125 136.34375 360.042969 139.308594 356.636719 140.128906 C 356.449219 139.890625 355.453125 140.148438 355.296875 140.40625 C 355.140625 140.667969 355.164062 140.988281 355.183594 141.296875 C 355.453125 144.375 355.734375 147.460938 356.511719 150.449219 C 356.789062 151.515625 357.152344 152.59375 357.878906 153.421875 C 358.683594 154.34375 359.859375 154.851562 360.988281 155.328125 C 359.371094 157.175781 358.832031 159.953125 359.539062 162.304688 C 360.148438 164.367188 361.652344 166.066406 362.324219 168.109375 C 362.925781 169.921875 362.988281 172.199219 362.769531 174.109375 C 362.363281 175.238281 362.8125 176.53125 363.558594 177.476562 C 364.300781 178.417969 365.320312 179.101562 366.261719 179.859375 C 367.664062 180.976562 368.933594 182.261719 370.035156 183.683594 C 370.707031 184.550781 371.328125 185.507812 371.527344 186.585938 C 371.738281 188.003906 371.210938 189.460938 370.453125 190.707031 Z M 370.453125 190.707031 " fill-opacity="1" fill-rule="nonzero"/><rect x="-37.5" width="450" fill="#48392e" y="-37.499999" height="449.999989" fill-opacity="1"/><g clip-path="url(#952deb474d)"><path fill="#000000" d="M 113.804688 50.652344 L 138.832031 50.652344 L 138.832031 75.675781 C 138.832031 76.738281 139.691406 77.601562 140.753906 77.601562 C 141.820312 77.601562 142.679688 76.738281 142.679688 75.675781 L 142.679688 50.652344 L 167.707031 50.652344 C 168.769531 50.652344 169.628906 49.789062 169.628906 48.726562 C 169.628906 47.664062 168.769531 46.800781 167.707031 46.800781 L 142.679688 46.800781 L 142.679688 21.777344 C 142.679688 20.714844 141.820312 19.851562 140.753906 19.851562 C 139.691406 19.851562 138.832031 20.714844 138.832031 21.777344 L 138.832031 46.800781 L 113.804688 46.800781 C 112.742188 46.800781 111.878906 47.664062 111.878906 48.726562 C 111.878906 49.789062 112.742188 50.652344 113.804688 50.652344 Z M 113.804688 50.652344 " fill-opacity="1" fill-rule="nonzero"/></g><g clip-path="url(#bf559a68ff)"><path fill="#000000" d="M 20.582031 50.652344 L 45.609375 50.652344 L 45.609375 75.675781 C 45.609375 76.738281 46.46875 77.601562 47.53125 77.601562 C 48.597656 77.601562 49.457031 76.738281 49.457031 75.675781 L 49.457031 50.652344 L 74.484375 50.652344 C 75.546875 50.652344 76.40625 49.789062 76.40625 48.726562 C 76.40625 47.664062 75.546875 46.800781 74.484375 46.800781 L 49.457031 46.800781 L 49.457031 21.777344 C 49.457031 20.714844 48.597656 19.851562 47.53125 19.851562 C 46.46875 19.851562 45.609375 20.714844 45.609375 21.777344 L 45.609375 46.800781 L 20.582031 46.800781 C 19.519531 46.800781 18.65625 47.664062 18.65625 48.726562 C 18.65625 49.789062 19.519531 50.652344 20.582031 50.652344 Z M 20.582031 50.652344 " fill-opacity="1" fill-rule="nonzero"/></g><g clip-path="url(#d2346fc046)"><path fill="#000000" d="M 207.027344 50.652344 L 232.050781 50.652344 L 232.050781 75.675781 C 232.050781 76.738281 232.914062 77.601562 233.976562 77.601562 C 235.042969 77.601562 235.902344 76.738281 235.902344 75.675781 L 235.902344 50.652344 L 260.925781 50.652344 C 261.992188 50.652344 262.851562 49.789062 262.851562 48.726562 C 262.851562 47.664062 261.992188 46.800781 260.925781 46.800781 L 235.902344 46.800781 L 235.902344 21.777344 C 235.902344 20.714844 235.042969 19.851562 233.976562 19.851562 C 232.914062 19.851562 232.050781 20.714844 232.050781 21.777344 L 232.050781 46.800781 L 207.027344 46.800781 C 205.964844 46.800781 205.101562 47.664062 205.101562 48.726562 C 205.101562 49.789062 205.964844 50.652344 207.027344 50.652344 Z M 207.027344 50.652344 " fill-opacity="1" fill-rule="nonzero"/></g><g clip-path="url(#7f441ab7e9)"><path fill="#000000" d="M 300.203125 50.652344 L 325.226562 50.652344 L 325.226562 75.675781 C 325.226562 76.738281 326.089844 77.601562 327.152344 77.601562 C 328.21875 77.601562 329.078125 76.738281 329.078125 75.675781 L 329.078125 50.652344 L 354.101562 50.652344 C 355.167969 50.652344 356.027344 49.789062 356.027344 48.726562 C 356.027344 47.664062 355.167969 46.800781 354.101562 46.800781 L 329.078125 46.800781 L 329.078125 21.777344 C 329.078125 20.714844 328.21875 19.851562 327.152344 19.851562 C 326.089844 19.851562 325.226562 20.714844 325.226562 21.777344 L 325.226562 46.800781 L 300.203125 46.800781 C 299.140625 46.800781 298.277344 47.664062 298.277344 48.726562 C 298.277344 49.789062 299.140625 50.652344 300.203125 50.652344 Z M 300.203125 50.652344 " fill-opacity="1" fill-rule="nonzero"/></g><g clip-path="url(#7bae5432a0)"><path fill="#000000" d="M 300.203125 143.875 L 325.226562 143.875 L 325.226562 168.898438 C 325.226562 169.960938 326.089844 170.824219 327.152344 170.824219 C 328.21875 170.824219 329.078125 169.960938 329.078125 168.898438 L 329.078125 143.875 L 354.101562 143.875 C 355.167969 143.875 356.027344 143.011719 356.027344 141.949219 C 356.027344 140.886719 355.167969 140.023438 354.101562 140.023438 L 329.078125 140.023438 L 329.078125 115 C 329.078125 113.9375 328.21875 113.074219 327.152344 113.074219 C 326.089844 113.074219 325.226562 113.9375 325.226562 115 L 325.226562 140.023438 L 300.203125 140.023438 C 299.140625 140.023438 298.277344 140.886719 298.277344 141.949219 C 298.277344 143.011719 299.140625 143.875 300.203125 143.875 Z M 300.203125 143.875 " fill-opacity="1" fill-rule="nonzero"/></g><g clip-path="url(#5667ac41d4)"><path fill="#000000" d="M 207.027344 143.875 L 232.050781 143.875 L 232.050781 168.898438 C 232.050781 169.960938 232.914062 170.824219 233.976562 170.824219 C 235.042969 170.824219 235.902344 169.960938 235.902344 168.898438 L 235.902344 143.875 L 260.925781 143.875 C 261.992188 143.875 262.851562 143.011719 262.851562 141.949219 C 262.851562 140.886719 261.992188 140.023438 260.925781 140.023438 L 235.902344 140.023438 L 235.902344 115 C 235.902344 113.9375 235.042969 113.074219 233.976562 113.074219 C 232.914062 113.074219 232.050781 113.9375 232.050781 115 L 232.050781 140.023438 L 207.027344 140.023438 C 205.964844 140.023438 205.101562 140.886719 205.101562 141.949219 C 205.101562 143.011719 205.964844 143.875 207.027344 143.875 Z M 207.027344 143.875 " fill-opacity="1" fill-rule="nonzero"/></g><g clip-path="url(#0d50c0488a)"><path fill="#000000" d="M 113.804688 143.875 L 138.832031 143.875 L 138.832031 168.898438 C 138.832031 169.960938 139.691406 170.824219 140.753906 170.824219 C 141.820312 170.824219 142.679688 169.960938 142.679688 168.898438 L 142.679688 143.875 L 167.707031 143.875 C 168.769531 143.875 169.628906 143.011719 169.628906 141.949219 C 169.628906 140.886719 168.769531 140.023438 167.707031 140.023438 L 142.679688 140.023438 L 142.679688 115 C 142.679688 113.9375 141.820312 113.074219 140.753906 113.074219 C 139.691406 113.074219 138.832031 113.9375 138.832031 115 L 138.832031 140.023438 L 113.804688 140.023438 C 112.742188 140.023438 111.878906 140.886719 111.878906 141.949219 C 111.878906 143.011719 112.742188 143.875 113.804688 143.875 Z M 113.804688 143.875 " fill-opacity="1" fill-rule="nonzero"/></g><g clip-path="url(#63e2393c63)"><path fill="#000000" d="M 20.582031 143.875 L 45.609375 143.875 L 45.609375 168.898438 C 45.609375 169.960938 46.46875 170.824219 47.53125 170.824219 C 48.597656 170.824219 49.457031 169.960938 49.457031 168.898438 L 49.457031 143.875 L 74.484375 143.875 C 75.546875 143.875 76.40625 143.011719 76.40625 141.949219 C 76.40625 140.886719 75.546875 140.023438 74.484375 140.023438 L 49.457031 140.023438 L 49.457031 115 C 49.457031 113.9375 48.597656 113.074219 47.53125 113.074219 C 46.46875 113.074219 45.609375 113.9375 45.609375 115 L 45.609375 140.023438 L 20.582031 140.023438 C 19.519531 140.023438 18.65625 140.886719 18.65625 141.949219 C 18.65625 143.011719 19.519531 143.875 20.582031 143.875 Z M 20.582031 143.875 " fill-opacity="1" fill-rule="nonzero"/></g><g clip-path="url(#ae8141b18a)"><path fill="#000000" d="M 113.804688 237.097656 L 138.832031 237.097656 L 138.832031 262.121094 C 138.832031 263.183594 139.691406 264.046875 140.753906 264.046875 C 141.820312 264.046875 142.679688 263.183594 142.679688 262.121094 L 142.679688 237.097656 L 167.707031 237.097656 C 168.769531 237.097656 169.628906 236.234375 169.628906 235.171875 C 169.628906 234.109375 168.769531 233.246094 167.707031 233.246094 L 142.679688 233.246094 L 142.679688 208.222656 C 142.679688 207.15625 141.820312 206.296875 140.753906 206.296875 C 139.691406 206.296875 138.832031 207.15625 138.832031 208.222656 L 138.832031 233.246094 L 113.804688 233.246094 C 112.742188 233.246094 111.878906 234.109375 111.878906 235.171875 C 111.878906 236.234375 112.742188 237.097656 113.804688 237.097656 Z M 113.804688 237.097656 " fill-opacity="1" fill-rule="nonzero"/></g><g clip-path="url(#3af4bfc408)"><path fill="#000000" d="M 20.582031 237.097656 L 45.609375 237.097656 L 45.609375 262.121094 C 45.609375 263.183594 46.46875 264.046875 47.53125 264.046875 C 48.597656 264.046875 49.457031 263.183594 49.457031 262.121094 L 49.457031 237.097656 L 74.484375 237.097656 C 75.546875 237.097656 76.40625 236.234375 76.40625 235.171875 C 76.40625 234.109375 75.546875 233.246094 74.484375 233.246094 L 49.457031 233.246094 L 49.457031 208.222656 C 49.457031 207.15625 48.597656 206.296875 47.53125 206.296875 C 46.46875 206.296875 45.609375 207.15625 45.609375 208.222656 L 45.609375 233.246094 L 20.582031 233.246094 C 19.519531 233.246094 18.65625 234.109375 18.65625 235.171875 C 18.65625 236.234375 19.519531 237.097656 20.582031 237.097656 Z M 20.582031 237.097656 " fill-opacity="1" fill-rule="nonzero"/></g><g clip-path="url(#b5c06ccc4b)"><path fill="#000000" d="M 207.027344 237.097656 L 232.050781 237.097656 L 232.050781 262.121094 C 232.050781 263.183594 232.914062 264.046875 233.976562 264.046875 C 235.042969 264.046875 235.902344 263.183594 235.902344 262.121094 L 235.902344 237.097656 L 260.925781 237.097656 C 261.992188 237.097656 262.851562 236.234375 262.851562 235.171875 C 262.851562 234.109375 261.992188 233.246094 260.925781 233.246094 L 235.902344 233.246094 L 235.902344 208.222656 C 235.902344 207.15625 235.042969 206.296875 233.976562 206.296875 C 232.914062 206.296875 232.050781 207.15625 232.050781 208.222656 L 232.050781 233.246094 L 207.027344 233.246094 C 205.964844 233.246094 205.101562 234.109375 205.101562 235.171875 C 205.101562 236.234375 205.964844 237.097656 207.027344 237.097656 Z M 207.027344 237.097656 " 

fill-opacity="" fill-rule="nonzero"/></g><g clip-path="url(#a26594b2d4)"><path fill="#000000" d="M 300.203125 237.097656 L 325.226562 237.097656 L 325.226562 262.121094 C 325.226562 263.183594 326.089844 264.046875 327.152344 264.046875 C 328.21875 264.046875 329.078125 263.183594 329.078125 262.121094 L 329.078125 237.097656 L 354.101562 237.097656 C 355.167969 237.097656 356.027344 236.234375 356.027344 235.171875 C 356.027344 234.109375 355.167969 233.246094 354.101562 233.246094 L 329.078125 233.246094 L 329.078125 208.222656 C 329.078125 207.15625 328.21875 206.296875 327.152344 206.296875 C 326.089844 206.296875 325.226562 207.15625 325.226562 208.222656 L 325.226562 233.246094 L 300.203125 233.246094 C 299.140625 233.246094 298.277344 234.109375 298.277344 235.171875 C 298.277344 236.234375 299.140625 237.097656 300.203125 237.097656 Z M 300.203125 237.097656 " fill-opacity="1" fill-rule="nonzero"/></g><g clip-path="url(#63ef45e862)"><path fill="#000000" d="M 300.25 330.316406 L 325.273438 330.316406 L 325.273438 355.34375 C 325.273438 356.40625 326.136719 357.269531 327.199219 357.269531 C 328.261719 357.269531 329.125 356.40625 329.125 355.34375 L 329.125 330.316406 L 354.148438 330.316406 C 355.214844 330.316406 356.074219 329.457031 356.074219 328.394531 C 356.074219 327.328125 355.214844 326.46875 354.148438 326.46875 L 329.125 326.46875 L 329.125 301.441406 C 329.125 300.378906 328.261719 299.519531 327.199219 299.519531 C 326.136719 299.519531 325.273438 300.378906 325.273438 301.441406 L 325.273438 326.46875 L 300.25 326.46875 C 299.183594 326.46875 298.324219 327.328125 298.324219 328.394531 C 298.324219 329.457031 299.183594 330.316406 300.25 330.316406 Z M 300.25 330.316406 " fill-opacity="1" fill-rule="nonzero"/></g><g clip-path="url(#01f7a01fcb)"><path fill="#000000" d="M 207.027344 330.316406 L 232.050781 330.316406 L 232.050781 355.34375 C 232.050781 356.40625 232.914062 357.269531 233.976562 357.269531 C 235.042969 357.269531 235.902344 356.40625 235.902344 355.34375 L 235.902344 330.316406 L 260.925781 330.316406 C 261.992188 330.316406 262.851562 329.457031 262.851562 328.394531 C 262.851562 327.328125 261.992188 326.46875 260.925781 326.46875 L 235.902344 326.46875 L 235.902344 301.441406 C 235.902344 300.378906 235.042969 299.519531 233.976562 299.519531 C 232.914062 299.519531 232.050781 300.378906 232.050781 301.441406 L 232.050781 326.46875 L 207.027344 326.46875 C 205.964844 326.46875 205.101562 327.328125 205.101562 328.394531 C 205.101562 329.457031 205.964844 330.316406 207.027344 330.316406 Z M 207.027344 330.316406 " fill-opacity="1" fill-rule="nonzero"/></g><g clip-path="url(#48e5c8ab17)"><path fill="#000000" d="M 113.804688 330.316406 L 138.832031 330.316406 L 138.832031 355.34375 C 138.832031 356.40625 139.691406 357.269531 140.753906 357.269531 C 141.820312 357.269531 142.679688 356.40625 142.679688 355.34375 L 142.679688 330.316406 L 167.707031 330.316406 C 168.769531 330.316406 169.628906 329.457031 169.628906 328.394531 C 169.628906 327.328125 168.769531 326.46875 167.707031 326.46875 L 142.679688 326.46875 L 142.679688 301.441406 C 142.679688 300.378906 141.820312 299.519531 140.753906 299.519531 C 139.691406 299.519531 138.832031 300.378906 138.832031 301.441406 L 138.832031 326.46875 L 113.804688 326.46875 C 112.742188 326.46875 111.878906 327.328125 111.878906 328.394531 C 111.878906 329.457031 112.742188 330.316406 113.804688 330.316406 Z M 113.804688 330.316406 " fill-opacity="1" fill-rule="nonzero"/></g><g clip-path="url(#6db81d8e27)"><path fill="#000000" d="M 20.582031 330.316406 L 45.609375 330.316406 L 45.609375 355.34375 C 45.609375 356.40625 46.46875 357.269531 47.53125 357.269531 C 48.597656 357.269531 49.457031 356.40625 49.457031 355.34375 L 49.457031 330.316406 L 74.484375 330.316406 C 75.546875 330.316406 76.40625 329.457031 76.40625 328.394531 C 76.40625 327.328125 75.546875 326.46875 74.484375 326.46875 L 49.457031 326.46875 L 49.457031 301.441406 C 49.457031 300.378906 48.597656 299.519531 47.53125 299.519531 C 46.46875 299.519531 45.609375 300.378906 45.609375 301.441406 L 45.609375 326.46875 L 20.582031 326.46875 C 19.519531 326.46875 18.65625 327.328125 18.65625 328.394531 C 18.65625 329.457031 19.519531 330.316406 20.582031 330.316406 Z M 20.582031 330.316406 " fill-opacity="1" fill-rule="nonzero"/></g>

<circle cx = "0" cy = "0" r = "1" fill = "white"/>

</svg>

