<svg xmlns="http://www.w3.org/2000/svg" xmlns:xlink="http://www.w3.org/1999/xlink" width="500" zoomAndPan="magnify" viewBox="0 0 375 374.999991" height="500" preserveAspectRatio="xMidYMid meet" version="1.0"><defs><clipPath id="5bcbb2ca01"><path d="M 25 152.695312 L 350 152.695312 L 350 222.445312 L 25 222.445312 Z M 25 152.695312 " clip-rule="nonzero"/></clipPath></defs><g clip-path="url(#5bcbb2ca01)"><path fill="#c1a37f" d="M 314.957031 152.695312 L 59.886719 152.695312 C 58.746094 152.695312 57.609375 152.75 56.476562 152.863281 C 55.34375 152.976562 54.21875 153.144531 53.101562 153.367188 C 51.984375 153.589844 50.878906 153.867188 49.789062 154.199219 C 48.699219 154.527344 47.628906 154.914062 46.574219 155.351562 C 45.523438 155.789062 44.496094 156.273438 43.492188 156.8125 C 42.484375 157.351562 41.507812 157.9375 40.5625 158.574219 C 39.617188 159.207031 38.703125 159.886719 37.820312 160.613281 C 36.941406 161.335938 36.097656 162.101562 35.292969 162.910156 C 34.484375 163.71875 33.722656 164.5625 33 165.445312 C 32.277344 166.328125 31.597656 167.246094 30.964844 168.195312 C 30.332031 169.144531 29.75 170.125 29.210938 171.128906 C 28.675781 172.136719 28.1875 173.167969 27.75 174.222656 C 27.316406 175.28125 26.933594 176.355469 26.601562 177.445312 C 26.269531 178.539062 25.996094 179.648438 25.773438 180.765625 C 25.550781 181.886719 25.382812 183.015625 25.273438 184.152344 C 25.160156 185.289062 25.105469 186.429688 25.105469 187.570312 C 25.105469 188.710938 25.160156 189.851562 25.273438 190.988281 C 25.382812 192.125 25.550781 193.253906 25.773438 194.375 C 25.996094 195.496094 26.269531 196.601562 26.601562 197.695312 C 26.933594 198.789062 27.316406 199.863281 27.75 200.917969 C 28.1875 201.972656 28.675781 203.003906 29.210938 204.011719 C 29.75 205.019531 30.332031 205.996094 30.964844 206.945312 C 31.597656 207.894531 32.277344 208.8125 33 209.695312 C 33.722656 210.578125 34.484375 211.421875 35.292969 212.230469 C 36.097656 213.039062 36.941406 213.804688 37.820312 214.53125 C 38.703125 215.253906 39.617188 215.933594 40.5625 216.566406 C 41.507812 217.203125 42.484375 217.789062 43.492188 218.328125 C 44.496094 218.867188 45.523438 219.355469 46.574219 219.789062 C 47.628906 220.226562 48.699219 220.613281 49.789062 220.945312 C 50.878906 221.277344 51.984375 221.550781 53.101562 221.777344 C 54.21875 222 55.34375 222.164062 56.476562 222.277344 C 57.609375 222.390625 58.746094 222.445312 59.886719 222.445312 L 314.957031 222.445312 C 316.097656 222.445312 317.234375 222.390625 318.367188 222.277344 C 319.5 222.164062 320.628906 222 321.746094 221.777344 C 322.863281 221.550781 323.964844 221.277344 325.054688 220.945312 C 326.144531 220.613281 327.21875 220.226562 328.269531 219.789062 C 329.320312 219.355469 330.351562 218.867188 331.355469 218.328125 C 332.359375 217.789062 333.335938 217.203125 334.28125 216.566406 C 335.230469 215.933594 336.144531 215.253906 337.023438 214.53125 C 337.90625 213.804688 338.75 213.039062 339.554688 212.230469 C 340.359375 211.421875 341.125 210.578125 341.847656 209.695312 C 342.570312 208.8125 343.246094 207.894531 343.878906 206.945312 C 344.511719 205.996094 345.097656 205.019531 345.632812 204.011719 C 346.171875 203.003906 346.65625 201.972656 347.09375 200.917969 C 347.53125 199.863281 347.914062 198.789062 348.242188 197.695312 C 348.574219 196.601562 348.851562 195.496094 349.074219 194.375 C 349.296875 193.253906 349.460938 192.125 349.574219 190.988281 C 349.683594 189.851562 349.742188 188.710938 349.742188 187.570312 C 349.742188 186.429688 349.683594 185.289062 349.574219 184.152344 C 349.460938 183.015625 349.296875 181.886719 349.074219 180.765625 C 348.851562 179.648438 348.574219 178.539062 348.242188 177.445312 C 347.914062 176.355469 347.53125 175.28125 347.09375 174.222656 C 346.65625 173.167969 346.171875 172.136719 345.632812 171.128906 C 345.097656 170.125 344.511719 169.144531 343.878906 168.195312 C 343.246094 167.246094 342.570312 166.328125 341.847656 165.445312 C 341.125 164.5625 340.359375 163.71875 339.554688 162.910156 C 338.75 162.101562 337.90625 161.335938 337.023438 160.613281 C 336.144531 159.886719 335.230469 159.207031 334.28125 158.574219 C 333.335938 157.9375 332.359375 157.351562 331.355469 156.8125 C 330.351562 156.273438 329.320312 155.789062 328.269531 155.351562 C 327.21875 154.914062 326.144531 154.527344 325.054688 154.199219 C 323.964844 153.867188 322.863281 153.589844 321.746094 153.367188 C 320.628906 153.144531 319.5 152.976562 318.367188 152.863281 C 317.234375 152.75 316.097656 152.695312 314.957031 152.695312 Z M 314.957031 152.695312 " fill-opacity="1" fill-rule="nonzero"/></g></svg>