<?xml version="1.0" encoding="utf-8"?><svg version="1.1" id="MoveButtonSVG" xmlns="http://www.w3.org/2000/svg" viewBox="-200 -200 775 775"><rect x="-200" y="-200" height="775" width="775" fill="white" opacity="0.001" stroke-width="0"/><path d="M 302.566406 72.679688 C 273.167969 43.183594 232.582031 24.871094 187.621094 24.871094 C 97.703125 24.871094 25.074219 97.703125 25.074219 187.621094 C 25.074219 277.542969 97.703125 350.371094 187.621094 350.371094 C 263.402344 350.371094 326.875 298.496094 344.878906 228.308594 L 302.566406 228.308594 C 285.78125 275.710938 240.820312 309.683594 187.621094 309.683594 C 120.183594 309.683594 65.558594 255.0625 65.558594 187.621094 C 65.558594 120.183594 120.183594 65.558594 187.621094 65.558594 C 221.292969 65.558594 251.5 79.597656 273.574219 101.671875 L 207.964844 167.277344 L 350.371094 167.277344 L 350.371094 24.871094 Z M 302.566406 72.679688 "/></svg>