<svg xmlns="http://www.w3.org/2000/svg" xmlns:xlink="http://www.w3.org/1999/xlink" width="500" zoomAndPan="magnify" viewBox="0 0 375 374.999991" height="500" preserveAspectRatio="xMidYMid meet" version="1.0"><defs><clipPath id="6c34fb51c6"><path d="M 152.546875 25 L 222.296875 25 L 222.296875 350 L 152.546875 350 Z M 152.546875 25 " clip-rule="nonzero"/></clipPath></defs><g clip-path="url(#6c34fb51c6)"><path fill="#c1a37f" d="M 222.296875 314.953125 L 222.296875 59.882812 C 222.296875 58.742188 222.242188 57.605469 222.128906 56.472656 C 222.019531 55.339844 221.851562 54.214844 221.628906 53.097656 C 221.40625 51.980469 221.128906 50.875 220.796875 49.785156 C 220.464844 48.695312 220.082031 47.625 219.644531 46.570312 C 219.207031 45.519531 218.71875 44.492188 218.179688 43.484375 C 217.640625 42.480469 217.054688 41.503906 216.421875 40.558594 C 215.785156 39.609375 215.105469 38.695312 214.382812 37.816406 C 213.65625 36.9375 212.890625 36.09375 212.082031 35.289062 C 211.273438 34.480469 210.429688 33.71875 209.546875 32.996094 C 208.664062 32.273438 207.746094 31.59375 206.796875 30.960938 C 205.847656 30.328125 204.871094 29.742188 203.863281 29.207031 C 202.855469 28.667969 201.824219 28.183594 200.769531 27.746094 C 199.714844 27.3125 198.640625 26.929688 197.546875 26.597656 C 196.453125 26.265625 195.347656 25.992188 194.226562 25.769531 C 193.105469 25.546875 191.976562 25.378906 190.839844 25.265625 C 189.703125 25.15625 188.566406 25.101562 187.421875 25.101562 C 186.28125 25.101562 185.140625 25.15625 184.003906 25.265625 C 182.867188 25.378906 181.738281 25.546875 180.617188 25.769531 C 179.5 25.992188 178.390625 26.265625 177.300781 26.597656 C 176.207031 26.929688 175.132812 27.3125 174.078125 27.746094 C 173.019531 28.183594 171.988281 28.667969 170.984375 29.207031 C 169.976562 29.742188 168.996094 30.328125 168.046875 30.960938 C 167.097656 31.59375 166.179688 32.273438 165.296875 32.996094 C 164.414062 33.71875 163.570312 34.480469 162.761719 35.289062 C 161.953125 36.09375 161.1875 36.9375 160.464844 37.816406 C 159.738281 38.695312 159.058594 39.609375 158.425781 40.558594 C 157.789062 41.503906 157.203125 42.480469 156.664062 43.484375 C 156.128906 44.492188 155.640625 45.519531 155.203125 46.570312 C 154.765625 47.625 154.382812 48.695312 154.050781 49.785156 C 153.71875 50.875 153.441406 51.980469 153.21875 53.097656 C 152.996094 54.214844 152.828125 55.339844 152.714844 56.472656 C 152.605469 57.605469 152.546875 58.742188 152.546875 59.882812 L 152.546875 314.953125 C 152.546875 316.09375 152.605469 317.230469 152.714844 318.363281 C 152.828125 319.496094 152.996094 320.621094 153.21875 321.738281 C 153.441406 322.855469 153.71875 323.960938 154.050781 325.050781 C 154.382812 326.140625 154.765625 327.210938 155.203125 328.265625 C 155.640625 329.316406 156.128906 330.347656 156.664062 331.351562 C 157.203125 332.355469 157.789062 333.332031 158.425781 334.277344 C 159.058594 335.226562 159.738281 336.140625 160.464844 337.019531 C 161.1875 337.902344 161.953125 338.742188 162.761719 339.550781 C 163.570312 340.355469 164.414062 341.117188 165.296875 341.839844 C 166.179688 342.5625 167.097656 343.242188 168.046875 343.875 C 168.996094 344.507812 169.976562 345.09375 170.984375 345.628906 C 171.988281 346.167969 173.019531 346.652344 174.078125 347.089844 C 175.132812 347.523438 176.207031 347.910156 177.300781 348.238281 C 178.390625 348.570312 179.5 348.847656 180.617188 349.070312 C 181.738281 349.289062 182.867188 349.457031 184.003906 349.570312 C 185.140625 349.679688 186.28125 349.738281 187.421875 349.738281 C 188.566406 349.738281 189.703125 349.679688 190.839844 349.570312 C 191.976562 349.457031 193.105469 349.289062 194.226562 349.070312 C 195.347656 348.847656 196.453125 348.570312 197.546875 348.238281 C 198.640625 347.910156 199.714844 347.523438 200.769531 347.089844 C 201.824219 346.652344 202.855469 346.167969 203.863281 345.628906 C 204.871094 345.09375 205.847656 344.507812 206.796875 343.875 C 207.746094 343.242188 208.664062 342.5625 209.546875 341.839844 C 210.429688 341.117188 211.273438 340.355469 212.082031 339.550781 C 212.890625 338.742188 213.65625 337.902344 214.382812 337.019531 C 215.105469 336.140625 215.785156 335.226562 216.421875 334.277344 C 217.054688 333.332031 217.640625 332.355469 218.179688 331.351562 C 218.71875 330.347656 219.207031 329.316406 219.644531 328.265625 C 220.078125 327.210938 220.464844 326.140625 220.796875 325.050781 C 221.128906 323.960938 221.40625 322.855469 221.628906 321.738281 C 221.851562 320.621094 222.019531 319.496094 222.128906 318.363281 C 222.242188 317.230469 222.296875 316.09375 222.296875 314.953125 Z M 222.296875 314.953125 " fill-opacity="1" fill-rule="nonzero"/></g></svg>