<svg xmlns="http://www.w3.org/2000/svg" viewBox="0 -136.5 773 773"><path fill="#d5bbc3" d="M190.919 457.574c-36.75 0-86.301-6.6-120.77-28.229-19.915-12.495-37.622-40.37-37.622-48.139 0-21.213 59.397-101.823 193.747-110.309 134.35-8.485 393.152 21.214 393.152 21.214s19.02 3.35 35.6 2.932c7.896-.2 16.579-1.347 22.054-1.347 16.97 0 52.654-17.142 61.14-8.656 2.404 2.404 9.717 1.268 13.498 4.403 2.07 1.716-3.165 4.922-2.182 7.72 1.08 3.073 7.61 2.223 8.699 4.331 2.498 4.842-14.52 12.165-10.717 13.487 13.385 4.65-12.674 10.706-18.605 12.881-11.01 4.038-20.104 1.62-28.424.782-22.604-2.278-29.716-15.234-36.939-15.234-11.313 0-48.196 6.929-48.196 6.929s17.228 8.213 15.814 23.77c-.543 5.971-4.957 15.735-10.18 17.86-10.326 4.2-67.033 11.396-83.587 19.237-11.945 5.658-35.968 15.58-61.267 12.764-17.997-2.003-37.66.99-53.248-1.138-11.145-1.522-25.799.385-27.542-8.434-1.345-6.8 20.02-13.849 31.334-16.677 11.314-2.829-16.556-30.356-26.456-31.77-6.167-.88-18.899-2.86-39.336-3.543-12.367-.413-23.528 5.148-38.86 2.215-7.388-1.414 4.827 11.802 2.479 25.604-.816 4.795-10.82 10.13-23.407 10.45 1.382 11.564-9.219 10.814-15.427 11.943-15.556 2.829-55.85-2.754-64.782-4.242-5.524-.921-15.945-7.056-23.757-13.728-7.323-6.254 2.707-9.436 3.998-15.793.888-4.375-13.913 1.269-15.454.393-7.742-4.4-45.669 10.743-44.255 22.057 1.415 11.313 24.042 79.196 49.498 86.267z"/><path fill="#ffeeed" d="M40.948 299.822c0 16.574-7.8 35.098 0 49.722 7.8 14.624 28.273 61.422 47.772 74.096 19.499 12.674 82.87 36.073 93.594 36.073 10.725 0 43.873-9.75 47.773-10.724 3.9-.975-1.95-9.75-6.825-9.75s-13.65-5.85-21.449-6.824c-7.8-.975-55.572-55.572-55.572-65.322 0-2.806 3.005-2.396 3.534-6.58 1.311-10.357 1.208-26.996 3.291-30.468 1.289-2.148-7.922-22.749-32.51-28.928-10.56-2.653-25.845-20.894-37.8-21.064-23.377-.332-41.808 19.77-41.808 19.77z"/><path fill="#ffb6e9" d="M146.39 368.746c-4.364-12.237-13.157-24.25-13.271-25.205-.391-3.27 16.773 15.7 17.194 17.58.421 1.88-3.922 7.625-3.922 7.625z"/><path fill="#ffe6f0" d="M40.948 293.973c3.9 23.398 35.856.322 43.656-.653 7.8-.975 26.609 11.35 32.458 14.276 5.85 2.924 25.28 25.374 33.08 20.5 7.799-4.875 36.072-17.55 36.072-21.45 0-3.899-5.85-16.573-3.9-20.473 1.95-3.9 2.925-15.6 2.925-21.449 0-3.141-16.32-32.627-38.301-49.76-18.946-14.77-44.045-17.349-43.594-21.41.975-8.775-62.396 87.744-62.396 100.419z"/><path fill="#f8dbfa" d="M100.72 188.997c-1.057 30.125 30.646 20.943 40.669 31.428 16.125 16.87 27.743 16.956 25.618 37.788-.84 8.23 11.343 12.577 11.343 12.577s11.921 34.804 17.436 43.076c2.48 3.72 10.636 11.846 16.196 22.064 6.807 12.51 11.444 27.294 18.274 30.33 12.409 5.515 31.195 12.236 44.983 10.858 3.76-.376 14.004-2.22 18.72-7.853 3.073-3.672 17.051-5.083 23.005-9.69 3.293-2.548-.944-8.104 1.185-10.75 6.992-8.696 1.864-14.381.242-18.166-4.136-9.651-49.53-19.55-49.53-19.55l-5.514-10.341 40.329 3.102s5.756 11.779 10.936 13.241c10.616 2.997 63.173 6.407 70.067 3.65 6.894-2.758 130.984-151.666 128.226-162.697-2.757-11.03-45.5-20.681-59.287-24.818-13.788-4.136-70.318-57.908-78.59-60.666-8.273-2.757-64.803-22.06-84.106-22.06-19.303 0-96.514 31.712-104.787 38.605-8.273 6.894-57.909 45.5-60.666 53.773-2.758 8.272-24.749 46.1-24.749 46.1z"/><path fill="#e3b3e2" d="M358.5 70c-10 3.75-18.75 12.25-20.25 15s-1 18-6.25 28.75c12.5-13 22.5-19.25 32.75-18C365 87.25 378.5 83.5 382.5 83s-24-13-24-13zM237.588 65.756c-9.193 14.143-14.496 25.103-15.91 25.81 12.374 4.596 14.142 20.152 14.142 25.102 0 4.95-1.06 8.662-3.889 9.723-2.828 1.06 10.643 2.76 19.445-11.137 13.435-21.213 2.829-31.82 0-32.527-2.828-.707 9.193-21.92 9.193-21.92z"/><path fill="#e9e7dc" d="M287.262 330.921c-1.237 3.36 4.95 24.396 9.723 29.169 4.773 4.773 20.86.53 22.097-3.36 1.237-3.888-6.894-14.672-7.778-16.44-.884-1.767-9.723-6.363-13.789-8.308-4.066-1.944-7.778-2.652-10.253-1.06z"/><path fill="#c6afe9" d="M301.263 200.117c-5.515 30.678-46.878 64.113-52.738 66.87-5.86 2.758-25.852 7.929-28.265 8.273-2.413.345 7.583 6.205 11.03 6.205 3.447 0 1.379 1.379-.69 3.792-2.068 2.412 10.216 1.378 10.216 1.378s8.053 18.959 12.19 19.993c4.136 1.034 8.885-5.272 10.264-5.961 1.379-.69-9.92-21.96-10.609-23.683-.69-1.724 50.67-35.159 48.602-76.867z"/><path fill="#ffeeed" d="M705.245 94.64c8.273 0 19.303-6.204 13.788-11.03-5.515-4.825-47.568-15.166-76.522-11.72-28.955 3.448-61.356 21.372-81.348 35.849-19.993 14.477-27.576 38.606-44.81 48.947-9.522 5.712-24.75 18.001-34.1 33.656-7.574 12.682-9.038 28.64-18.294 36.661-20.682 17.924-67.56 49.636-74.454 58.598-6.894 8.962-4.137 40.674-4.137 40.674s-8.272 18.614-5.515 25.508c2.758 6.894 14.478 22.06 18.614 22.75 4.136.689 13.098-15.856 24.128-15.856s78.516 15.48 88.167 14.102c9.651-1.38 104.173-36.852 109.688-49.95 5.515-13.1 4.136-26.887 6.205-28.266 2.068-1.378 19.303-11.72 12.409-48.257s-33.091-54.462-37.227-59.977c-4.137-5.515-4.137-41.363 7.583-57.219 11.72-15.856 55.84-38.606 95.825-34.47z"/><path fill="#a166ad" d="M619.071 197.36c-11.03-7.584-14.477-8.273-19.303-16.546-4.825-8.272 5.17-35.503 14.822-48.602 9.652-13.098 66.526-36.193 77.557-36.193-20.168 17.55-66.182 38.606-73.076 101.34z"/><path fill="#ffb6e9" d="M603.672 185.745c-3.377-.037-14.632.313-21.395-2.715-4.348-1.948-15.99-13.075-17.134-13.457-2.925-.974 23.235-45.728 42.247-58.402 19.011-12.675 58.984-23.886 69.708-23.399 10.725.488 33.636.488 33.636.488l6.337-2.438s3.9 7.312-.975 7.8c-4.875.487-33.636-3.9-44.36-.488-10.724 3.413-47.285 24.861-55.084 29.736-7.8 4.875-30.224 32.66-31.199 38.023-.974 5.362 14.772 21.233 18.22 24.852z"/><path fill="#dc84cb" d="M600.398 183.834c-3.35-.06-14.726-.514-17.206-2.282-5.727-4.082-9.05-13.084-8.226-15.415 6.41-18.145 25.945-47.954 52.508-58.511 11.372-4.52 28.973-15.556 43.94-16.454 9.381-.562 22.34-2.277 33.268-1.563 9.395.613 15.48-4.526 13.486-1.715-5.363 7.556-12.31 1.828-45.945 10.602-33.635 8.775-54.788 30.234-58.688 35.596-3.9 5.362-16.062 37.555-13.137 49.742z"/><path fill="#ffb6e9" d="M629.326 216.952c.175 14.709-3.318 27.49-5.637 31.75 6.176 13.477 2.05 17.385 1.737 18.947-.487 2.437-10.724 23.886-14.624 26.324-2.759 1.724 2.076 3.464.364 11.091-.708 3.155-5.394 5.889-7.676 12.307-7.8 21.936-26.805 24.566-43.38 27.003-6.814 1.002-10.062 4.49-19.035 7.2-12.85 3.883-30.92 7.26-32.642 8.695-1.72 1.433 7.058-16.549 11.367-20.15 2.259-1.889 10.098-4.66 15.061-7.164 6.988-3.525 12-6.856 20.174-9.388 4.379-1.356 15.38.323 18.35-.16 6.595-1.075 2.94-11.63-.202-14.333-3.614-3.109-12.966-2.144-20.091-.19-26.451 7.256-69.879 32.71-73.213 33.902-6.49 2.32-47.722-1.581-63.864 6.943-3.974 2.098 6.135 27.601 20.76 28.089 14.624.487 58.984-.488 68.733 0 9.75.487 19.499-16.087 59.472-22.424 39.972-6.337 40.46-3.9 51.672-21.449 11.211-17.549 9.262-39.485 9.262-39.485s9.337-6.661 12.521-18.433c4.378-16.186 1.897-40.73-9.11-59.075zm-127.718 7.8c8.287-9.75 4.875-19.5 14.137-25.836 9.262-6.338 19.011-12.187 25.836-11.212 6.825.975.132-3.507-11.104-2.866-5.007.286-20.212 9.607-21.985 12.438-4.663 7.448-7.859 22.6-10.783 24.063-2.925 1.463-10.7 2.354-11.843 6.16-2.632 8.772-2.294 20.164 3.556 24.064 4.593 3.062 12.736 3.747 15.748 2.57 1.238-.485 10.146-8.9 14.58-14.649 5.783-7.499 67.995-24.678 80.945-17.82-12.272-18.195-32.657-25.039-42.52-23.997-6.536.69-14.713 2.353-26.239 11.51-5.115 4.062-19.137 31.665-22.38 33.81-3.263 2.157-12.28 5.882-15.26 3.7-4.397-3.219-6.824-11.211-4.387-14.623 2.437-3.413 8.287-4.875 11.7-7.312z"/><path fill="#dc84cb" d="M531.728 214.622c-4.898 6.269-14.31 25.556-19.956 30.925-4.288 4.078-8.788 7.998-12.31 8.342-6.86.672-11.963-8.053-15.41-11.845 1.428 10.833 2.312 13.569 8.516 17.016 6.205 3.447 16.546.69 19.993 0 2.832-.567 59.053-52.216 65.76-53.465-5.576-5.203-16.757-5.873-26.459-4.772-4.289.486-10.293 2.159-20.134 13.799zM546.503 319.018c-3.447 1.196-15.146 8.512-18.458 8.466-7.616-.106 29.891-15.747 32.304-16.206 5.118-.975 12.186.731 12.674 3.168.487 2.438-1.219 5.119-3.412 2.681-2.194-2.437-15.807-.642-23.108 1.891z"/><path fill="#dc84cb" d="M624.586 300.768c-.689 11.03-5.515 15.856-8.272 20.682-2.758 4.825-7.583 10.34-13.788 15.855-6.204 5.516-38.995 7.862-48.647 12.688-9.651 4.826-44.532 12.534-54.81 17.444-3.172 1.515-44.762-.488-48.898-1.867-4.136-1.378-8.546-7.678-11.03-7.583-8.962.345-23.44.69-24.129 4.136-.69 3.447 4.137 13.099 18.614 14.478 14.477 1.378 65.492 2.757 72.386.689 6.893-2.068 29.643-16.545 54.461-20.682 24.818-4.136 46.19-9.651 48.947-12.409 2.757-2.757 15.166-21.37 17.235-26.196 2.068-4.826-2.069-17.235-2.069-17.235z"/><path fill="#ffb6e9" d="M457.754 353.85c-19.647-2.757-40.518-2.465-43.62-2.465-3.103 0-14.065 3.292-15.788 5.015-1.724 1.723-12.288-1.515-13.667-4.273-1.379-2.757 4.826 19.648 13.788 21.027 8.962 1.378 11.375-13.788 22.06-14.133 10.686-.344 37.227-5.17 37.227-5.17zM390.194 309.73c0 3.792 6.205 12.409 7.928 13.098 1.724.69-7.583 0-9.996 8.273-2.413 8.273 2.068-21.371 2.068-21.371zM414.15 310.936c4.137-3.447 9.997-4.825 11.03-3.619 1.035 1.206-3.274 11.892-5.17 13.443-1.896 1.551-3.016 1.379-4.222.69-1.207-.69 1.465-4.912 1.982-6.119.206-.481-.933-2.978-1.995-2.925-2.286.112-1.625-1.47-1.625-1.47z"/><path fill="#dc84cb" d="M414.323 311.712c2.068.345 4.554-1.72 5.515-.603 2.963 3.442.059 9.007.748 9.007.318 0 2.775-3.126 3.85-4.756 1.26-1.914 1.486-3.768 1.262-6.492-.185-2.24-9.424-.889-10.513.086-1.638 1.465-1.38.862-.862 2.758z"/><path fill="#fff" d="M554.441 206.235c11.72-1.378 41.363 4.481 48.257 23.44 3.974 10.928.118 40.32-24.128 59.632 1.723-8.962 3.447-33.78-4.481-46.879-7.928-13.098-18.27-35.503-19.648-36.193z"/><path fill="#00ffc0" d="M536 220.454c3.59-7.608 13.527-11.72 16.974-12.409 3.447-.69 24.807 11.23 31.123 36.538 5.991 24.004-3.111 38.576-4.32 39.984-6.296 7.33-25.407 7.785-28.854 7.785 7.277-6.58 13.758-22.43 8.272-43.574C553.965 228.62 536 220.454 536 220.454z"/><path fill="#00c4be" d="M549.624 219.694c2.585-3.255 5.504-5.228 6.173-6.853.19-.463-2.686.859-5.299 2.819-2.22 1.666-4.215 4.013-4.334 3.782-.503-.974 7.848-9.9 6.873-9.315-2.438 1.463-7.069 4.631-7.556 6.338-.488 1.706-.488-2.438.975-3.413 1.462-.975 5.24-2.925 4.996-4.63-.243-1.707-7.19 1.462-8.652 4.874-1.463 3.412-1.95 6.093-.732 6.825 1.22.73 17.793 15.842 20.962 28.03 3.168 12.186-6.094 41.19-6.825 43.872-.731 2.68 4.631-.853 8.043-2.56 3.413-1.706.546.005 2.986-1.28.675-.354 6.414-1.87 6.789-2.356.268-.349-4.472.306-5.387.102-.455-.1 1.897-.326 3.923-1.094 3.792-1.438 8.746-4.144 6.873-3.565-1.345.416-7.606 2.045-7.32 1.975 3.103-.759 5.19-2.414 4.562-2.247-2.663.713-6.226.978-5.845.788 1.463-.731 1.706-1.706-.975-1.463-2.68.244 7.373-1.035 9.323-2.742.99-.866-2.42.192-3.841.215-1.379.022-1.473-1.005-2.313-.885-.574.082 6.278-.602 8.421-2.542.26-.235-8.633 1.325-8.264 1.133 2.457-1.273 8.147-3.103 9.412-3.806-1.054.441-8.024 1.977-8.524 1.673-.472-.287 5.447-2.38 6.91-3.038.647-.292-7.492 1.8-8.026 1.747-2.438-.244-2.859-.8-.173-1.26 4.266-.731 3.412-1.95 1.463-1.706-1.95.243 5.143-1.965 8.986-3.873 2.008-.997-16.11 1.989-12.773 1.32 9.593-1.92 3.927-2.02 2.812-1.835-1.486.248 9.659-2.437 9.529-3.062-.077-.365-3.768.8-6.744 1.06-1.951.172-3.89-.489-3.273-.679.632-.194 7.375-.46 4.347-1.697-.583-.239 4.412-1.4 3.832-1.467-.832-.094-7.273.97-8.423.97-2.437 0 8.783-2.018 11.22-3.724 1.595-1.117-3.678.494-7.702.976-2.126.254-4.134-.332-4.808-.248-1.95.244 7.625-1.275 10.595-2.91 1.495-.823-11.274.41-9.053-.186 3.003-.807-2.417-.56-2.933-.732-1.462-.487 9.287-3.67 12.343-4.372 1.48-.34-2.862-.532-6.399.263-2.308.52-4.525 1.797-4.137 1.46 4.024-3.498 3.992-1.75 3.702-3-.23-.994-5.719.376-4.748-.055 1.677-.746 8.544-2.886 7.471-3.276-2.594-.943-6.897 1.382-7.643 1.382-.415 0 1.343-1.37 3.44-2.227 2.028-.829 4.397-1.143 4.059-1.33-1.917-1.06-6.524 1.33-7.15 1.399-4.059.45 8.975-4.332 7.899-4.624-1.314-.357-5.597 1.923-5.083.866 1.357-2.792-3.665 1.327-5.216 1.327-1.243 0 3.84-3.753 6.146-4.18.398-.074-.992-.14-2.558.036-1.409.158-3.03.584-2.43.183 1.566-1.044 5.671-1.555 5.305-2.153-.29-.472-4.106.753-2.92-.046 2.359-1.59-3.82 1.095-4.518 1.285-2.681.732 5.81-4.949 8.404-5.947 2.376-.914-1.978-.28-5.57 1.76-.927.526-2.823 1.985-4.08 2.202-.56.097 5.224-4.504 4.89-4.728-.41-.275-6.892 3.793-7.074 3.635-.658-.57 2.91-4.744 5.464-5.47 2.06-.585-1.435-.845-5.452 1.438-.935.53.763-1.483.007-1.105-2.437 1.218-5.565 2.539-3.902.66 2.856-3.228 12.573-6.786 8.163-5.774-3.982.913-6.528 3.22-8.894 4.067-1.134.406 4.144-3.604 3.75-4.205-.327-.501-6.55 2.538-5.456 1.524 3.351-3.107 8.432-4.673 7.19-4.692-4.083-.06-6.947 3.474-8.653 3.717-.787.113 4.892-4.924 8.565-7.036-3.08.227-10.484 5.591-9.784 4.843 2.682-2.864 3.9-3.169 4.388-4.387.487-1.22-6.094 2.924-6.581 4.143-.488 1.219-2.194.244.244-1.706 2.437-1.95 2.254-2.437 1.035-2.194-1.218.244-3.716 4.936-4.448 2.986z"/><path fill="#00a7be" d="M556.693 291.413c5.484.853 5.606-2.68 4.996-3.778-.61-1.096 4.51-3.168 2.681-5.727-1.828-2.56-1.462-4.997.244-5.972 1.706-.975 5.606-4.509 4.144-5.971-1.463-1.463-3.9-1.95-2.316-4.144s2.56-4.509 1.34-5.484c-1.218-.975-3.29-2.194-2.315-3.169.975-.974 2.925-3.534 1.584-4.509-1.34-.975-3.778-2.315-2.315-4.143 1.462-1.828.853-2.803.122-3.412-.731-.61-2.072-1.22-1.828-2.56s.61-4.021-.244-4.387c-.853-.366-1.95-.366-2.803-1.95s2.681-2.925.61-4.996c-.322-.322-5.448 4.183-1.849-.64 1.162-1.555-2.005-.533-2.417-.945-.487-.487.122-1.218-.487-1.828-.61-.61-2.682.731-3.778-.853-1.097-1.584-.366-3.656-1.219-4.265-.853-.61-.853.61-2.072.122-1.218-.488-1.34-1.828-1.34-1.828s-1.463.73-2.316.365c-.853-.365 0-1.95-1.462-2.559-1.463-.61-2.438-1.34-3.047-.487-.61.853-4.63.853-.731 3.412 3.9 2.56 18.09 12.865 20.717 28.03 4.266 24.617-5.484 38.388-8.652 41.556-3.169 3.169 4.143.854 4.753.122z"/><path fill="#366" d="M539.387 222.07c10.968 7.8 19.987 17.55 21.693 30.224 1.706 12.674-8.775 37.535-9.262 38.754-.488 1.218 0 3.412 2.194.243 2.193-3.168 13.399-15.434 9.018-39.728-3.585-19.882-21.083-30.711-22.546-30.955-1.462-.244-11.203-5.724-1.097 1.462z"/><path fill="#333341" d="M550.843 292.998c11.456-11.943 13.763-26.335 10.724-42.167-4.138-21.565-23.398-30.71-25.592-30.954-4.387 15.599-19.255 32.904-20.474 33.392-1.218.487 7.312 42.41 35.342 39.729z"/><path fill="#aed8ff" d="M599.956 238.888c-1.09 3.41-6.288 19.771-14.784 30.185-12.959 15.883-27.992 21.487-27.992 21.487-.61 5.484 11.09-1.218 23.764-6.946 0 0 3.413-1.219 5.972-4.022 2.56-2.803 14.015-17.67 13.04-40.704z"/><path fill="#f8dbfa" d="M631.606 216.711c18.958-.344 23.286.032 32.248 4.168 5.416 2.5 38.832 13.502 52.766 21.26 7.62 2.566 17.57 2.264 22.722 4.319 4.727 1.885 6.877 5.92 7.856 6.572 2.358 1.573-.775 7.297-5.831 11.832-.868.779-4.493 2.895-4.415 5.401 1.748 2.427 4.427 8.81 5.048 11.002 1.402 4.954-7.639 7.746-10.516 9.96-8.962 6.893-12.013 17.471-32.444 15.747-5.75-.485-12.081-10.08-21.862-17.634-6.925-5.349-17.281-8.459-22.838-11.976-10.084-6.383-13.485-1.639-15.705-1.639 1.654-16.574 3.818-31.654-7.03-59.012z"/><path fill="#00bec0" d="M585.5 268.65c-.114.143-.228.296-.344.438-12.958 15.882-27.968 21.468-27.968 21.468-.075.672.038 1.139.312 1.469 2.071-.17 4.36-.396 6.781-.812.018-.008.045.007.063 0 4.24-1.658 9.911-4.563 15.875-7.282 1.21-1.818 4.027-7.08 5.281-15.281z"/><path fill="#e9e7dc" d="M710.112 241.826c-.354 4.95 1.591 8.839 3.005 9.37 1.414.53 19.622 13.788 23.335 14.318 3.712.53 11.667-2.475 13.258-5.303 1.59-2.829 2.298-6.187 1.768-8.132-.53-1.944-8.309-4.773-11.844-5.657-3.536-.884-9.193-2.475-10.784-2.298-1.59.177-3.712-.884-6.364-1.237-2.651-.354-12.374-1.061-12.374-1.061z"/><path fill="#c6afe9" d="M640.338 255.463c5.622 1.957 15.315 3.665 21.925.326 2.269-1.146 7.245-5.624 9.453-6.334 5.762-1.85 6.633 4.934 6.806 7.845.163 2.732 2.156 9.91 3.537 13.324 1.91 4.718 16.237 19.699 28.487 31.699 0 0 5.423 3.912-9.074 4.324-8.912.254-16.559-3.93-23.968-13.585-6.439-8.39-15.423-12.196-22.465-15.874-6.16-3.217-14.526-2.77-15.476-2.226-1.924-3.106.486-13.142.775-19.499z"/><path fill="#8d5fd3" d="M706.759 304.985c-11.212-5.363-29.108-33.142-31.212-35.449-6.822-7.481-1.33-10.526-5.098-14.87-2.573 1.815-4.15 5.185-8.404 6.261-6.012 1.522-15.124.208-20.495-1.427-3.264-.993-.037 10.586-2.475 14.486-2.437 3.9 10.237.975 17.062 3.9 6.824 2.925 15.974 12.537 18.411 15.95 2.437 3.412 12.3 9.886 17.174 12.81 4.875 2.926 14.55 2.238 15.037-1.661zM267.48 262.107c-20.57 17.574-40.73 14.674-42.923 14.186-2.193-.487 10.16 5.737 15.523 4.03 5.362-1.706-2.925 2.438-4.631 4.144-.922.922 3.495-.006 7.903-1.286 1.898-.55 2.522 1.077 4.232 7.377.855 3.148 3.112 8.942 5.132 10.719 1.895 1.667 9.713-.966 9.025-4.913-.64-3.672 8.42-33.77 5.739-34.257z"/><path fill="#ffb6e9" d="M227.843 444.16c-3.102 4.482-29.466 3.365-43.668 1.843-22.095-2.37-63.852-25.936-77.64-31.451-13.788-5.515-51.822-59.322-50.444-62.77 1.38-3.446-11.803-55.923-11.803-55.923s-9.13 42.825-4.303 53.166c4.825 10.34 27.575 61.356 46.189 73.765 18.613 12.409 86.863 37.227 99.961 37.227 13.098 0 44.466-9.652 41.708-15.856z"/><path fill="#dc84cb" d="M227.843 444.16c-3.102 4.482-33.366 5.315-47.568 3.792-22.095-2.369-62.39-24.473-76.177-29.988-13.788-5.515-53.773-62.734-52.394-66.181 1.379-3.447-10.34-54.462-10.34-54.462s-6.205 41.363-1.38 51.704c4.826 10.34 27.576 61.356 46.19 73.765 18.613 12.409 86.863 37.227 99.961 37.227 13.098 0 44.466-9.652 41.708-15.856zM146.423 369.536c-1.426-9.737-9.04-19.176-5.327-16.666 3.848 2.6 7.012 5.624 8.377 12.029z"/><path fill="#e3a9f0" d="M149.481 332.303c1.795-10.224-6.401-32.789-5.976-33.93.862-2.313 8.628 7.544 10.699 17.684.259 1.267 9.076-14.729 19.77-24.16-1.394-39.785 11.835-29.801 9.017-25.69-2.65 21.252 2.853 42.532 2.905 42.687.157.471-14.278 10.493-25.035 16.08-5.92 3.075-11.38 7.33-11.38 7.33z"/><path fill="#a65fd3" d="M179.877 290.073c-1.293 5.435-7.336 9.712-12.14 14.687-7.484 7.753-14.396 15.113-14.396 15.113s-.606-6.452-3.299-6.032c1.207 2.875 1.335 11.876.296 15.175 2.925 2.438 8.09-2.383 10.528-3.358 2.437-.975 24.373-16.574 24.373-16.574s-3.639-14.013-5.362-19.011z"/><path fill="#c6afe9" d="M189.452 156.454c8.121-3.396 21.654-10.926 26.129-12.093 2.349-.613 15.47-5.237 28.604-7.19 18.206-2.707 37.071-2.985 32.985-4.505-11.97-4.453-33.73-3.929-40.867-3.232-24.881 2.427-37.516 15.332-40.407 17.72-6.39 5.279-10.695 11.077-6.444 9.3z"/><path fill="#8d5fd3" d="M198.662 149.385c14.58-7.824 18.474-6.978 28.883-10.185 9.433-2.905 36.177-4.143 32.277-6.58-3.9-2.438-17.061-3.413-29.735-.488-12.675 2.925-34.35 14.328-31.425 17.253z"/><path fill="#c6afe9" d="M458.467 136.275c-4.63 2.194-10.488 5.042-15.119 6.261-3.504.922 4.395-8.698 5.37-8.698.975 0 10.237 0 9.75 2.437zM309.544 246.688c-3.9 6.337-15.111 26.323-19.986 27.786-4.875 1.462-11.7-1.463-11.7-1.463s21.45-38.997 19.5-47.772c-1.95-8.774-29.736 38.998-31.198 49.235-1.463 10.237 17.548 13.649 25.836 13.649 1.49 0 23.09 22.128 93.4 22.055.958-5.944 1.493-8.369 2.493-12.754-14.349-9.24-41.133-2.376-52.952.433-6.044 1.437-22.541-9.984-22.832-12.092-.661-4.788-6.265-7.189-6.72-15.287-.516-9.158 4.16-23.79 4.16-23.79z"/><path fill="#8d5fd3" d="M298.85 223.901c-3.102 13.098-20.72 42.12-26.716 48.887-4.836 5.458 12.43 13.066 22.333 4.57 8.546-7.332 14.184-33.926 15.142-35.044-3.762 17.028-5.859 47.189.008 51.44 5.57 4.038 18.478 13.98 31.926 9.68 2.83-.905 36.553-8.028 44.654-2.295 4.185 2.962-1.683 13.491-2.896 18.669-11.268.006-23.585 3.165-40.454-.954-5.413-1.321-16.093 2.15-21.574-.03-11.923-4.742-17.252-15.643-17.252-15.643s-34.814.69-38.261-1.38c-3.447-2.067-11.03-24.472-12.41-25.162-1.378-.69 45.5-37.571 45.5-52.738z"/><path fill="#85369f" d="M288.165 141.691c-6.033 3.792-7.239 5.17-8.79 6.205-1.551 1.034-5.86 4.136-5.688 7.583.173 3.447 2.241 2.758 3.792 1.724 1.551-1.034 5.17-4.998 6.205-6.033 1.034-1.034 8.962-4.136 10.34-4.48 1.38-.345-5.86-4.999-5.86-4.999zM303.159 157.03c-3.102 5.515-8.445 6.722-10.513 7.584-2.069.861-3.792 1.206-4.998.689-1.207-.517.172-3.102 2.068-3.792 1.896-.69 6.721-3.447 6.549-5.342-.172-1.896-3.792-1.552-7.756.689-3.964 2.24-7.755 4.826-7.928 7.066-.172 2.24.218 5.802 4.998 6.55 11.03 1.723 19.476-6.033 21.371-7.929 1.896-1.895-3.791-5.515-3.791-5.515z"/><path fill="#c6afe9" d="M310.763 175.03c-4.875 10.724-13.405 21.692-13.405 23.154 0 1.463 1.95 17.55 1.95 19.987 0 2.437 12.43-38.754 11.455-43.142zM426.05 221.34c2.293-7.535 3.9-11.213 2.438-17.062-1.463-5.85-4.875 9.262-8.775 12.674-11.745 10.277-39.485 14.137-42.41 17.549-2.925 3.412-15.6 22.911-20.474 23.399-4.874.487 21.936-2.438 21.936-2.438s12.187-15.599 19.5-18.036c7.311-2.438 26.64-12.327 27.785-16.087z"/><path fill="#8d5fd3" d="M429.824 211.23c0 11.376 1.177 15.167-7.44 18.614-8.618 3.447-27.364 8.534-28.743 10.258-1.379 1.723-13.443 16.2-15.166 16.545-1.724.345-11.03.345-13.099.345-2.068 0 14.822-17.235 22.75-20.682 7.928-3.447 38.94-8.189 41.698-25.08z"/><path fill="#c6afe9" d="M184.756 260.783c3.447 11.03 12.75 35.563 28.265 39.985 1.767.503 2.78 17.536 12.67 28.884 8.923 10.24 6.267 17.987 8.357 18.684 1.65.55-2.169 10.375 4.008 14.66 9.31 6.46 37.987 11.824 36.493 13.26-4.48 4.309-33.263-5.17-40.157-9.307-6.894-4.136-20.681-31.712-20.681-31.712s-19.993-23.439-24.129-28.265c-4.136-4.825-10.34-17.924-9.651-24.128.689-6.205 4.825-22.06 4.825-22.06z"/><path fill="#8d5fd3" d="M183.008 265.065c0 10.341 15.536 35.703 20.362 37.082 4.825 1.378 4.703 20.084 14.797 26.482 9.375 5.942 6.574 22.12 10.71 25.567 1.132.943.478 6.503 3.578 8.59 8.23 5.538 31.744 14.52 36.751 15.021 6.894.69-39.295-6.721-42.742-12.926-3.447-6.204-10.685-26.197-14.132-30.333-3.447-4.136-22.75-24.818-26.886-33.78-4.137-8.962-5.885-32.256-2.438-35.703z"/><path fill="#c6afe9" d="M181.34 273.011c-.975-.487-5.85-4.143-5.85-4.143s7.312-31.93 12.918-40.46c5.606-8.531 14.624-21.205 17.549-21.205 2.925 0-1.95 6.093-4.144 10.237-2.193 4.143-22.18 51.428-20.474 55.571z"/><path fill="#e9e7dc" d="M272.766 345.24c-1.944 2.652-1.414 11.49-1.06 12.905.353 1.414 5.48 15.38 7.248 16.97 1.767 1.592 19.268.531 20.506-3.712 1.237-4.242-4.243-12.197-6.895-15.026-2.651-2.828-7.247-4.596-8.485-5.833-1.237-1.238-8.839-5.834-11.314-5.304z"/><path fill="#696767" d="M271.523 344.51c-.053 3.287.456 10.194 2.103 15.67 2.077 6.906 5.667 11.732 5.939 12.276.487.974-2.072 3.29-3.047 2.68-.975-.609-6.495-15.958-6.768-19.24-.309-3.721.311-13.093 1.773-11.386z"/><path fill="#c6afe9" d="M294.37 357.04c-1.207-3.103-4.284-9.664-4.999-10.859-2.386-3.982-5.005-6.25-7.791-7.232-1.952-.689-3.279-2.75-3.412-2.85-.344-.258-8.962-4.74-11.202-4.74s-.259 1.38 1.206 1.81c1.465.431 5.946 3.189 7.842 4.223 1.896 1.034 3.964 3.274 6.032 4.395 2.068 1.12 6.119 10.944 7.411 11.547 1.293.603 4.912 3.705 4.912 3.705z"/><path fill="#8d5fd3" d="M291.676 354.037c-4.149-10.673-9.308-13.996-11.267-14.836-1.778-.762-2.236-1.723-4.261-3.02-2.098-1.343-5.766-3.014-7.782-3.365-3.964-.69 5.15 2.319 6.528 4.042 1.379 1.724 4.7 3.947 6.94 5.153 1.98 1.066 6.294 9.124 6.984 9.986.689.862 2.341 3.591 2.858 2.04z"/><path fill="#696767" d="M289.95 343.31c2.705 10.323 7.164 13.79 8.626 15.862 1.463 2.072-3.168-.122-4.874-2.072-1.706-1.95-8.676-16.86-7.434-25.958.119-.87 2.585 11.193 3.682 12.168z"/><path fill="#c6afe9" d="M278.834 334.92c-.731-9.506 3.187-8.948 5.381-9.923 2.194-.975 9.221 1.996 10.44 2.24.527.105.479-1.282-1.43-2.206-2.5-1.209-6.534-2.176-8.054-2.176-2.681 0-6.825 1.828-6.825 3.047s-1.218 6.093.488 9.018z"/><path fill="#c6afe9" d="M303.817 333.823c-1.34-1.95-4.266-4.874-4.753-5.24-.488-.366-3.29-1.584-3.778-1.95-.488-.365-.244-.975-.975-1.706s-9.258-4.916-9.445-5.85c-.183-.914 10.176 3.29 10.786 4.51a8.851 8.851 0 001.462 2.071s3.778.488 4.51 1.828c.73 1.34 2.193 6.337 2.193 6.337z"/><path fill="#8d5fd3" d="M304.451 333.514c-.603-2.068-3.188-5.43-3.877-5.86-.69-.43-4.137-1.551-4.137-1.551s-.69-1.637-1.206-1.896c-.216-.108-1.797-1.139-3.486-2.013-2.354-1.218-5.031-2.36-5.533-2.31-.862.086 5.486 3.03 6.347 3.892.862.862 1.982 2.93 2.413 3.447.431.517 4.481 1.637 4.481 1.637l3.62 5.085z"/><path fill="#e9e7dc" d="M707.107 266.044c-.354 4.95 10.253 23.512 16.44 26.517 6.187 3.005 21.036-6.54 21.213-10.607.177-4.066-11.49-11.667-12.728-12.374-1.237-.707-4.95-2.121-6.894-2.298-1.945-.177-16.794-3.182-18.031-1.238z"/><path fill="#696767" d="M708.521 266.752c1.06 10.43 10.253 21.036 14.672 23.864 3.735 2.39-.883 3.536-1.767 3.182-.884-.353-11.314-10.43-13.612-18.384-1.295-4.484.707-8.662.707-8.662zM712.375 247.437c7.438 10 23.22 15.7 24.47 16.2s.457 4.25-2.293 3S716.5 257.813 715 254.376c-.854-1.958-3.75-7.438-2.625-6.938z"/><path fill="#c6afe9" d="M701.45 237.053c-.3.72-1.859 2.526-1.39 4.186.914 3.233 2.99 7.077 4.042 8.012 1.59 1.414-6.718-6.188-7.248-7.071-.53-.884.594-5.541.594-5.541zM706.03 257.354c-1.241-.07-3.63.6-4.703 1.158-1.424.742-3.035 4.453-3.797 5.842-.709 1.292.063 2.375 0 4.125-.062 1.75 4.625 10.875 5.625 14.5-3.66-2.125-7.695-10.24-8.195-15.338-.495-2.33.07-7.064.07-7.787 0-1.5 6-3.75 6-3.75z"/><path fill="#c6afe9" d="M717.537 298.571c-9.016-6.894-13.435-14.319-15.026-16.263-1.591-1.945 10.253 16.44 11.667 16.97 1.414.53 2.828.177 3.359-.707z"/><path fill="#e9e7dc" d="M299.283 321.817l6.01 13.612s10.43 10.96 10.872 11.226c.442.265 7.336-5.127 7.071-7.425-.265-2.298-12.02-15.026-15.821-16.529-3.801-1.502-8.132-.884-8.132-.884z"/><path fill="#e3b3e2" d="M443.356 129.396c-27.224 4.95-37.123 18.738-43.487 33.941-5.303-33.587 14.496-47.73 22.627-50.558 8.132-2.828 20.86 16.617 20.86 16.617zM410.829 103.233c-7.425 11.667-15.203 12.02-15.203 12.02s-6.717 20.507-19.092 27.578c-12.374 7.071-21.213 7.071-31.466 6.01-2.828.354 18.031-9.899 22.628-24.041 1.076-3.312-21.567 7.07-27.578 10.606-6.01 3.536-11.667 11.314-11.667 15.557-2.121-12.375-2.828-23.335 15.556-36.77 18.385-13.435 43.488-18.031 46.316-23.688 2.828-5.657 20.506 12.728 20.506 12.728zM312.5 56c-2 11.25-11 11.5-20 15.75s-18.25 11.5-22.25 20.75c-4.242 9.81-4.25 21-6.5 25.75s-4.604 6.75-9.104 8c-4.5 1.25 5.488 4.22 15.738-1.78S289 114.5 289 96c1.5-1.75 13.75-7.25 13.75-7.25s4.25 3.25-4.5 13-10.25 26.25-.75 33c1.5-3-1.75-7.25 7.5-16.75 12.126-12.454 23.5-13.25 18-35 3.75-2.75 4.25-11 2.25-13 1.5-1.5 7.75-3.5 9.5-7.25S312.5 56 312.5 56zM181.02 96.87c-1.415 11.313 4.242 16.263 4.242 16.263-9.546 10.96-3.182 22.627 2.475 26.163-.02-4.211 3.535-12.728 6.717-16.617 4.243 3.182 6.895 9.015 6.541 11.844-.353 2.828-4.773 9.722-6.187 10.076 5.303 0 16.75-10.955 16.97-18.031.354-11.314-8.485-22.981-8.485-22.981s-4.242-12.728-.707-20.506c1.18-2.595-22.627 11.313-21.567 13.788zM168.999 106.415c-1.061 13.082-10.607 25.456-10.607 25.456s9.9 24.749 15.91 27.224c-9.546 2.828-27.224-10.607-27.93-16.264-.708-5.657 0-15.556 0-15.556z"/><path fill="#fff" d="M547.918 243.763a5.606 5.606 0 11-11.212 0 5.606 5.606 0 0111.212 0zM532.35 252.97a3.047 3.047 0 11-6.093 0 3.047 3.047 0 016.094 0z"/><path fill="#c6afe9" d="M261.041 349.544c.488-8.53 2.797-9.047 5.077-10.177 3.213-1.593 10.468.26 9.791-.79-1.001-1.555-3.656-2.56-6.58-2.56-1.26 0-3.883.2-5.688 1.193-2.387 1.314-2.671 3.255-3.087 5.753-.732 4.388.487 6.581.487 6.581z"/><path fill="#ba369f" d="M395.5 109.5c-5.253 7.497-8.338 18.747-15.93 26.072-7.849 7.571-17.842 12.55-29.07 11.428 16.288-5.28 20.033-17.329 21.5-32m-181.923-3.446c-8.632 7.888-9.118 20.06-3.798 24.917.935-8.388 3.953-12.768 10.043-19.216M269.91 51.5c-10.185 3.366-20.013 17.873-22.496 31.864 12.324 7.722 7.27 20.5-2.92 36.482-1.49 2.335-6.531 6.661-10.03 6.243 3.234-1.6 3.855-4.902 4.049-6.55 1.675-14.23-2.358-23.07-13.487-28.87 5.998-9.755 14.302-21.712 18.777-30.845m138.473 20.52c-14.574 4.454-20.627 6.557-20.072 12.733-16.13-.476-23.9 11.512-26.108 15.193 4.379-10.88 3.916-14.45 4.346-22.972 6.902-7.986 17.316-12.926 21.288-14.016m-195.676 37.361c-.003 8.244-5.892 16.716-9.973 23.24 1.655 8.939 5.808 18.76 11.81 23.815-12.06-3.453-18.793-12.54-20.106-18.218-.945-4.087.863-11.456 1.617-13.286m260.32-24.093c-11.652 22.216-68.252 18.155-81.281 44.17 3.34-22.69 16.075-29.024 32.527-36.77 15.465-7.282 27.725-7.353 32.94-17.542M336.26 58.484c-9.341 9.975-5.829 5.294-14.298 10.312 1.803 1.478 4.35 9.976-1.674 13.464 8.543 27.616-18.607 23.294-24.53 47.488-13.03-21.762 16.346-27.615 8.887-46.25-3.795 4.84-13.405 9.645-18.666 10.072 6.596 17.463-19.65 35.468-29.987 33.558 7.416-1.887 10.2-6.496 12.274-18.242 1.87-10.591 5.424-21.944 14.97-29.415 9.585-7.504 22.813-7.554 30.394-15.894 3.858-6.908-1.34-6.281 6.741-10.509M440.906 127.3c-5.701-1.42-35.578 8.18-39.598 26.87.9-23.907 8.833-30.093 24.042-39.598"/><path fill="#ba369f" d="M203.559 78.06c-8.583 7.93-6.634 18.07-2.508 28.03 10.895 13.848 10.794 28.502-2.57 36.218 10.742-10.47-.626-18.928-9.67-29.974-4.615-5.637-5.428-11.11-4.209-18.679"/><path d="M301.608 301.802c-6.894 2.413-39.295-4.481-39.295-4.481s-1.724 7.583 5.515 7.928c7.238.345 32.746 5.515 36.193 2.068 3.446-3.447-2.413-5.515-2.413-5.515z"/><path d="M424.221 315.545c.288-1.02.803-6.245-.73-7.305-2.43-1.679-8.084 4.791-9.757 2.073 2.365-3.192 9.742-9.142 13.444-6.618 1.164 4.298 1.333 9.4-2.957 11.85z" fill="#000000;fill-rule:evenodd;stroke:none"/><path d="M736.82 263.603c4.868-.372 10.039-4.541 9.876-10.493-3.143-4.052-10.062-6.59-16.118-7.265-2.62-.292-5.087-1.027-7.825-1.926-1.132-.372-6.518-.521-10.83-.14.196.693-.115 1.246.41 2.02.611 4.248 3.168 9.099 3.168 9.099-4.189-3.824-8.15-8.807-7.51-13.529-.682-.484-1.761-2.819-3.677-3.85-.976-.526-3.503.74-4.714.283-5.117-1.926-10.568-4.796-16.152-3.329-8.814-3.707-19.427-14.748-34.582-13.468-3.83.324-8.284-1.015-11.435.21 5.388 18.768 8.775 34.136 4.751 53.036 3.234.97 8.482-.75 11.009-.171 10.617 2.431 3.758-2.4 14.462 3.638 1.957 1.104 5.542 7.722 10.057 13.066 6.283 7.435 13.9 14.04 17.282 14.456 6.872.846 14.636-2.805 20.24-7.031 4.19-.058 5.434-2.58 5.523-5.249 0-1.414 3.89-1.036 3.89-1.036 1.716-.082 6.013-1.18 7.547-1.912 2.654-1.267 13.645-8.12 6.094-13.346-2.44-1.69-4.71-4.698-8.848-6.337-1.876-.743-3.905-.394-6.607-1.956-3.673-2.121-11-3.206-13.754-2.314-1.944 2.829-.474 8.78-.494 11.397-2.352-4.694-4.462-11.081-3.358-12.109 1.9-1.767 7.098-3.034 13.366-1.826 1.09.21-6.4-3.439-7.488-4.044-4.776-2.658-10.298-2.092-9.547-2.207.164-.025-8.242-3.716-7.317-4.693.293-.309 6.683 3.22 7.822 3.063 3.42-.472 6.216.245 8.503.838 1.714.444 5.333 1.377 5.708 1.516 3.153 1.17 9.145 5.83 9.563 6.341 1.206 1.477 4.208 2.058 6.208 2.831 1.322.511 1.758 1.305 2.551 1.785.809-.182.679-.607.497-2.06zm-134.797-86.285c5.08 2.663 9.896 12.71 14.655 15.578 2.93-16.244 9.2-28.124 16.026-40.053 1.284-2.245 21.069-35.544 52.95-54.052-16.974 2.964-51.278 22.026-57.164 28.61-9.687 10.838-30.02 31.999-26.467 49.917zm17.582 146.096c3.005-6.508 4.471-17.305 3.446-28.82 4.288-7.022 11.073-15.222 12.205-24.683.868-7.251.28-40.418-7.558-53.914-9.45-16.275-27.738-32.194-31.207-34.246-3.874 1.378-16.774.346-10.349-1.926 4.771-1.687 6.732-1.154 7.868-4.054.422-1.077 2.266-6.24 2.497-7.96 2.126-15.86 23.556-43.144 30.8-48.324 24.624-17.605 52.163-26.692 61.657-27.315 5.499-.361 19.213-.58 21.424-.894 1.657-.236 5.416-2.027 4.775-4.347-.794-2.87-17.222-6.195-21.097-7.032-32.665-7.054-52.403-3.893-61.076-1.461-43.525 12.202-55.165 19.086-79.71 42.415-19.504 18.536-32.662 37.061-37.102 40.819-3.838 3.249-30.946 26.016-33.86 34.839-4.543 13.75-12.01 33.672-18.411 39.58-7.718 5.921-66.58 42.892-70.303 54.09-3.413 8.92-3.2 20.052-3.31 31.44-.1 10.326-6.357 25.216-4.826 31.596 1.575 6.565 7.197 11.635 11.443 14.184 4.164 2.497 4.924 1.236 8-1.932 6.03-6.212 16.27-9.625 23.715-10.756 6.952-1.055 14.502-1.687 22.615-2.481 10.407-1.018 19.488-.783 32.265-.828 8.242-4.897 17.054-11.561 25.098-17.097 2.857-1.969 14.254-10.133 16.269-11.309 6.056-3.529 19.829-10.595 31.355-11.121 12.892-.59-8.859 4.052-18.075 9.664-3.617 2.202-31.017 21.912-36.09 25.373-4.865 3.323-10.775 7.86-15.494 10.243-5.635 2.847-50.525-3.035-68.014 6.565 2.193 1.729 4.085 4.475 6.763 6.16 5.605 3.529 11.456 4.926 20.13 4.689 19.672-.538 40.656-.582 59.048-.554 5.743-1.891 23.447-12.073 44.447-18.024 10.25-2.905 47.507-10.546 55.298-15.05 8.827-7.263 11.242-13.368 15.364-17.53zm-304.56 12.907c-2.993-6.766-10.798-14.562-14.587-13.098 2.25 1.987 4.805 8.572 6.177 11.742 4.927 2.555 7.284 7.104 9.092 9.286.922-1.597 2.213-1.383-.683-7.93zm-10.127 23.74c3.506-.273 10.337-2.223 11.637-5.403.874-2.14-3.382-11.853-7.95-14.72-5.978-3.751-11.872-9.2-19.503-7.903-1.828 2.437 1.339 13.004 1.339 13.004-1.05-3.165-3.042-7.487-3.803-10.225-.21-.751-.746-3.82-.313-4.092 4.435-2.777 9.946-.7 14.896 1.968.274.147-1.46-2.148-3.157-3.719-.726-.672-3.54-1.184-3.714-1.903-.179-.74-.588-1.917-1.549-2.776-1.69-1.514-3.248-2.062-3.658-2.427-2.293-2.041 3.295 1.094 5.2 2.465.886.637 1.553 2.237 1.643 2.284 1.162.61 1.752.625 2.609 1.016 2.932 1.338 4.179 4.37 4.41 4.508-1.66-2.746-3.813-9.604-7.01-12.637-1.62-1.536-5.085-.922-9.989-3.2-5.116-2.378-11.047-4.527-15.759-5.13-8.748-1.12-13.249-20.06-17.103-28.303-.556-1.19 1.047-2.641.271-3.586-.889-1.081-4.04-1.712-2.474-4.187 1.377-2.077 18.568-12.493 27.662-26.557 9.095-14.064 17.905-23.747 19.58-40.539.912-9.146 11.63-25.769 11.857-33.094.136-4.388-.081-8.998-2.48-12.408-4.062-5.773-9.71-12.397-14.192-15.605-7.832-5.606-9.712-8.085-16.973-9.217-14.418-2.248-33.64-1.54-41.405-.661-20.986 2.375-14.15-2.182 4.712-5.419 9.715-1.667 22.038-2.143 34.212.565 11.916-1.6 33.174 18.857 38.333 27.854 2.027 3.537 2.338 10.426 1.895 14.726-1.084 10.53-7.326 21.53-7.755 32.294-.214 5.37-1.904 9.463-3.898 15.333-1.995 5.871-7.773 11.492-10.649 17.071-3.911 7.585-17.555 29.451-35.659 37.587 7.241 8.055 6.04 23.576 13.208 27.073 5.004 2.44 15.586 5.062 19.955 8.138 1.828.808 5.194 1.272 8.457 1.882 1.913.358 3.274 1.628 4.786 2.186 4.88 1.799 6.597 2.546 8.193 3.052-5.962-5.46-13.357-18.755-14.138-25.414-.875-7.456 3.595-13.197 4.298-20.308 2.613-26.398 16.839-51.566 25.648-60.12 2.645-2.567 5.01-5.338 9.1-4.136-2.697 4.899-6.92 8.908-9.927 13.789-17.584 28.535-22.748 54.704-20.688 70.754 1.06 8.25 6.179 13.108 8.009 15.736 6.953 3.098 17.711 8.732 24.692 5.713 6.081-2.63 31.29 2.136 43.66-.366 1.024-11.984 1.599-21.933 8.326-31.605 6.726-9.672 15.458-15.89 20.012-19.821-6.637-1.066-9.41-1.731-15.618-2.077-13.876-.774-28.29-4.076-40.264 1.102-2.253.975-4.262 3.093-6.619 1.655-1.035-.202-1.246-2.095-.275-3.31 5.29-7.079 17.638-6.537 27.854-6.341 6.46-5.198 12.546-15.897 22.322-19.943 7.081-3.4 24.474-2.708 29.695-9.257 2.395 15.375-21.143 9.912-27.21 16.387-5.3 5.655-10.157 8.738-16.258 13.088 8.601 1.436 17.53.87 27.301 1.93 5.615.609 4.64 1.439 8.235-.764 2.475-1.514 26.374-14.285 34.055-21.965 8.493-7.519 22.016-37.736 26.445-46.254 4.44-8.538 14.884-18.642 30.595-30.256-13.816-13.818-37.725-16.723-53.676-20.63-1.26-.308-5.881 1.814-7.033 1.488-1.209-.344 1.059-3.138-.01-3.514-6.634-2.336-57.363-43.161-70.685-52.727-9.546-6.855-65.513-29.872-88.993-27.8-11.708 1.032-78.305 18.957-101.525 38.798-22.395 19.136-46.119 40.45-56.025 49.672-9.032 8.408-18.702 44.631-32.145 57.426-9.224 8.78-55.24 84.854-55.197 97.893.056 16.966-5.345 28.07-.255 55.448 3.41 18.338 29.473 58.5 49.899 71.02 21.176 12.98 61.286 28.051 86.908 31.17 22.253-1.005 41.033-5.192 45.46-8.677 2.424-1.908-2.518-4.994-6.195-4.788-2.523.142-12.213-1.2-15.72-2.998-18.467-3.518-33.797-25.162-37.228-30.15-5.536-8.051-15.692-27.083-21.349-40.933-.705-2.157 1.888-5.227 1.832-8.732-.185-11.635-.247-28.06 2.15-31.743 1.093-1.545 5.265-.905 10.085-4.048 7.854-5.123 17.996-14.584 23.578-17.479-.692-8.514-6.08-17.518-5.621-25.009 2.331-38.023 17.372-61.93 21.169-65.263 2.134-1.874 4.713-1.537 2.757 1.93-11.905 21.1-19.785 48.367-18.128 66.338 1.358 14.735 10.518 22.603 10.992 23.674 2.205 4.99 9.734 16.826 17.34 22.783 7.653 5.991 8.83 28.645 16.341 34.125 4.203 3.067 37.396 14.312 47.09 9.93l3.584-2.207c1.897.863 7.66.133 8.91.003 2.85-.298 11.073-1.812 7.65-8.983-1.863-3.899-5.115-8.67-10.217-10.532-3.405-1.242-9.927-7.876-13.205-6.476-1.465 2.499 1.059 13.675 1.059 13.675-2.59-8.574-3.583-15.767-2.284-16.543 3.577-2.135 9.452 2.402 14.048 5.336.578.37-.25-3.784-3.822-6.44-.26-.194-4.31-3.201-5.763-3.981-.242-.13-.473-.708-1.054-1.674-.072-.121-5.998-3.21-6.099-3.617-.128-.521 5.563 2.502 5.85 2.634 1.362.627 2.682 2.483 2.963 2.573.93.3 2.986 1.898 3.093 1.95 6.554 3.233 9.135 11.676 9.979 12.398 1.674 1.432 3.296 3 4.829 4.658 3.222.33 6.354 2.76 9.55 2.51zm248.147-248.94c20.164-16.122 47.09-34.298 87.241-41.267 10.12-1.756 69.084-.674 81.475 15.147 1.674 2.137-1.303 7.303-3.653 9.17-2.273 1.806-18.164 2.887-19.518 3.353-30.656 10.111-76.453 68.903-75.811 101.849 1.71 1.71 5.369 4.676 8.346 8.659 1.896 2.537 2.107 2.899 3.74 4.905 9.741.06 18.42-.354 29.084 3.233 8.174 2.75 12.483 6.437 19.271 10.925 8.645 1.21 27.702 2.037 34.06 13.908 2.04-.035 4.717-.266 6.294.146 2.921.763 4.776 1.455 7.621 2.128 3.835.907 7.3 1.03 10.397 2.265 1.574.628 2.91.354 4.792 1.051 4.127 1.531 5.937 3.807 6.765 5.95.865 2.235-.032 4.502-.812 6.653-1.44 3.97-7.595 8.428-10.57 9.303-.188 1.17-.613 1.76-1.718 2.419 5.436 3.788 7.444 7.424 6.784 10.943-1.078 5.743-8.237 10.731-11.556 12.272-1.484.69-5.257 1.784-6.622 2.391h-2.482c.067 2.22-1.314 4.834-6.353 5.716-1.654 1.292-3.388 2.491-5.536 3.88-2.08 1.343-7.175 3.676-11.025 3.85-2.026.092-11.066 1.964-13.527.998-2.628-1.032-10.616-6.828-16.842-13.658-4.55-4.991-7.925-11.234-8.736-13.103-3.348-7.711-2.2-1.488-11.266-3.47-3.234-.707-9.519.564-13.002-.186-2.179 6.67-5.726 9.048-9.576 14.998 1.695 11.332 1.968 19.59-1.165 27.263-5.183 12.691-16.702 23.93-21.535 26.422-6.599 3.402-48.687 11.635-51.943 12.616-10.074 3.034-15.723 5.325-24.497 9.164-4.023 1.76-22.074 9.22-27.587 9.747-3.148.3-27.014-.495-35.417-.758-4.715-.147-12.176-.03-18.643.263-3.622.165-8.834.356-13.393.262-3.377-.07-7.875-2.202-10.766-3.94-5.104-3.066-8.053-5.879-11.65-10.015-2.269 1.613-3.408 2.469-5.683 4.501-1.495 1.338-4.473 5.197-6.04 5.514-2.778.566-9.11-3.144-10.766-4.464-4.112-3.277-10.504-7.878-12.342-18.645-2.188-12.812 4.58-23.054 1.359-29.569-16.156 1.64-28.968-2.546-39.346-.804-5.99 1.005-20.192.258-26.358-1.279 8.115 7.011 8.572 15.863 9.84 20.09.533 3.31-1.239 5.178-2.32 5.79 2.246 3.478 1.01 3.207.698 7.89-.242 3.647-3.15 8.298-11.47 10.142-3.569.791-7.543.335-9.362.286 1.03 3.783 1.07 5.941-2.066 8.556-3.135 2.614-9.13 8.243-21 5.731-.862 1.53-5.342 1.541-8.96 1.995-6.574.824-38.068-9.706-42.073-11.893-17.503-9.561-17.007-34.023-19.43-35.832-4.674-6.12-17.35-14.32-19.132-22.403-7.748-.248-17.981 9.227-25.509 15.187-2.545 2.015-6.612 2.407-7.705 3.528-3.214 3.298-2.671 15.53-2.636 25.718.031 8.97-2.253 10.108-1.413 11.615 0 0 9.769 22.621 19.823 34.613 7.868 9.382 15.652 26.586 33.194 29.096 13.287 4.024 8.874 1.852 21.97 4.599 12.232 2.566 8.806 9.672 6.852 14.204-14.063 7.137-30.824 10.89-41.467 11.465-24.544 1.328-86.596-20.579-103.142-32.094-19.744-13.739-45.098-57.39-50.304-69.517-5.206-12.126-3.642-16.29-1.1-59.932 1.184-20.313 37.767-83.154 61.63-110.763 5.972-6.91 18.517-44.43 29.425-53.817 14.688-12.636 33.433-27.189 51.749-45.74 19.014-19.26 84.325-45.805 111.411-43.717 16.416 1.266 74.697 20.141 85.286 26.973 25.036 16.153 64.626 50.992 76.019 55.465 4.108 1.613-.594 5.032 5.701 1.901 3.712-1.846 39.627 5.277 57.548 18.998 7.173-7.855 27.274-29.378 36.45-38.84z" fill="#000000;fill-rule:evenodd;stroke:none"/><path d="M517.153 253.778c2.677 15.164 14 36.016 37.12 37.018 6.615.287 24.68-7.158 28.918-9.66 10.238-10.118 19.52-41.448 14.986-53.016-2.553-6.514-13.772-15.63-24.754-19.283-7.695-2.56-14.922-.857-20.472-.457-9.198.664-11.034 9.977-12.685 14.034-3.803 9.347-10.328 18.392-23.113 31.364zm-1.533-3.734c21.196-25.466 12.569-53.237 56.813-46.626 14.335 2.142 28.19 18.352 29.299 24.012 3.188 16.272 1.684 45.804-13.943 58.916-5.307 4.453-22.324 9.411-25.409 9.903-10.22 1.63-25.247-1.467-34.014-9.311-11.209-10.03-13.446-14.727-16.84-29.992-1.68.96-4.125.918-5.66.833" fill="#000000;fill-rule:evenodd;stroke:none"/></svg>