<svg xmlns="http://www.w3.org/2000/svg" viewBox="0 -90 650 650"><path fill="#c7c3c4" d="M531.393 449.444c-50.146 6.06-78.922-2.169-95.154 5.046-8.507 3.78-68.006 4.328-57.247-7.522-26.15.602-49.52-3.1-44.836-16.392-8.104 0-54.266 5.307-70.23 8.103-38.17 6.685-33.667-8.73-33.667-8.73s-6.835 15.175-21.245 14.524c-25.256-1.141-86.877-18.286-98.056-25.165-9.441-5.81-11.588-12.487-15.383-27.825-61.533-5.26-48.647-37.881-41.764-45.461 13.942-15.352 31.143-14.369 52.124-20.273 4.91-32.012 126.15-8.599 161.648-7.733 55.373 1.35 201.978-11.083 244.846 5.866 29.719 11.75 87.845 66.38 77.579 95.07-3.287 9.186-47.996 29.208-58.615 30.492z"/><path fill="#a2ff94" d="M320.313 295.182c6.077-6.752 18.907-17.895 20.933-18.57 1.318-.439 16.139-19.602 21.267-20.798 7.683-1.793 18.348-.47 28.028 1.89 3.248.792 15.843-10.486 12.83-15.193-5.402-8.441-48.957 2.363-54.022 5.74-5.064 3.376-31.062 42.88-29.037 46.931z"/><path fill="#7fffa3" d="M322.715 293.75c20.055-8.595 36.545-21.623 38.933-21.623 2.387 0 22.09 2.05 22.09 2.05s9.073-11.46 7.64-15.757c-.773-2.32-17.75-7.397-30.398-2.18-10.785 4.448-17.407 19.146-19.165 19.365-3.82.478-19.1 18.145-19.1 18.145z"/><path fill="#b4ff69" d="M355.869 151.08c7.412-2.06 24.709-10.296 34.592-14.826 9.884-4.53 93.07-3.295 117.778 17.296 24.709 20.59 66.959 75.292 80.303 98.423 6.178 10.707 24.297 73.714 24.297 84.421 0 10.707-7 51.477-9.06 56.418-2.059 4.942-31.71 34.18-52.3 36.24-20.59 2.059-65.478-5.765-74.95-12.354-9.471-6.59-58.477-51.477-63.83-54.36-5.354-2.882-20.179-4.53-23.885-3.294-3.706 1.235-10.295 3.294-11.12-.824-.823-4.118 20.18-13.178 26.769-14.413 6.589-1.235 35.827-1.235 38.71 2.059 2.883 3.294 42.828 21.826 46.535 22.238 3.706.412 10.707 1.647 11.942 1.235 1.236-.412 7.825-18.12 8.236-22.65.412-4.53-3.194-16.201-5.765-20.59-3.255-2.163 11.306-15.524 10.722-18.712 6.54-13.832 17.677-28.725 14.838-36.892-5.657-16.272-9.497-30.303-22.7-39.62-12.518-8.832-26.76-13.046-44.845-11.773-8.642.608-33.172 4.535-51.576 18.73-3.774 2.912-4.445 1.778-6.531 5.062-9.803-4.784-35.33 1.502-52.589 5.088-9.682 2.012-37.877 59.71-37.73 57.933.413-4.941 3.86-21.409 1.801-25.939-2.059-4.53-19.767-41.593-19.355-46.123.412-4.53 59.713-82.774 59.713-82.774z"/><path fill="#a2ff94" d="M458.602 215.112c-8.153 2.912-15.142 2.912-18.636 6.407-3.495 3.494 61.15 9.9 61.15 17.471s10.483 54.745 11.066 57.074c.582 2.33-4.077 25.625-4.077 29.12 0 3.494 16.89-15.142 18.054-23.878.554-4.154 10.01-13.527 7.78-28.981-2.461-17.045-12.291-42.112-15.933-44.983-18.462-14.549-30.285-19.218-59.404-12.23z"/><path fill="#7fffa3" d="M415.505 233.166c17.472-2.33 20.966-2.912 26.79-3.494 5.824-.582 41.35 6.989 45.426 13.977 4.077 6.989 11.066 56.492 11.648 60.569.583 4.077 2.912 26.79 6.989 27.372 4.077.583 9.318-19.801 9.9-32.614.239-5.243 5.667-12.358 3.639-22.853-2.93-15.153-13.824-34.19-14.704-38.298-3.494-16.306-51.25-17.471-58.239-16.889-6.988.583-31.449 12.23-31.449 12.23z"/><path fill="#7fffcc" d="M345.574 380.458c18.943-28.003 26.356-35.416 26.356-44.475 0-9.06 8.236-58.478 10.707-65.067 2.47-6.589 11.53-22.238 19.767-28.826 8.236-6.59 34.233-14.809 40.822-14.809 6.59 0 44.976-2.164 48.27 16.78 1.233 7.09 18.994 28.992 19.559 38.024.945 15.102-8.869 26.547-9.384 31.701-.824 8.236-28.436 37.022-38.32 30.433-4.176-2.784-6.325 9.258-21.303 3.658-2.022-.756-22.832-4.228-29.815-4.289-10.176-.088-33.268 11.556-33.462 14.555-.137 2.123 8.94-.303 17.522-.162 7.836.129 15.21 2.883 15.753 3.423 10.823 10.77 25.588 18.063 24.695 20.024-7.13 15.68-6.204 18.435-11.276 18.797-3.901.279-31.218 22.498-32.853 32.211-.393 2.34-2.397.955-3.36 2.163.143-8.11 2.007-23.563-.558-22.568-10.201 3.959-12.79 8.584-12.79 8.584l-6.445-15.448-15.124 9.561s5.24-21.915 1.946-23.563c-1.59-.794-9.78 5.561-13.624 8.217-3.419 2.361-2.705-1.46-2.705-1.46zM338.586 221.941c2.68-4.466 5.09-18.749 4.59-27.01-.27-4.47 7.867-10.182 9.849-17.562 1.601-5.965-2.105-15.926 1.772-21.639 3.295-4.854-4.046-9.977-4.078-12.488-.106-8.32-10.926-15.041-10.926-17.523-4.304-8.014-7.771-3.664-12.876-10.144 3.07-15.689 9.971-30.81-5.266-41.06-4.016-2.7-12.673-1.53-25.564-2.566 3.108-8.752 4.359-23.948-2.503-27.758-4.832-2.682-26.486-.913-29.5-1.343-9.218-1.317-2.972-13.666-10.534-20.692-7.626-7.085-23.313-5.135-37.477-5.135-28.212 0-38.35 10.138-50.693 7.493-5.29 7.053-9.256 29.975-9.256 33.501-16.31-7.494-38.35-9.257-40.995-3.967-2.645 5.29 4.849 23.362-9.257 27.77-14.105 4.408-36.145 3.527-42.317 12.343-6.17 8.816-4.408 28.211-3.085 37.027-1.351 5.116-17.162 13.212-24.985 25.516-4.903 7.713-4.567 19.29-3.888 20.989 1.764 4.408-13.003 4.628-6.832 26.668 1.25 4.467 6.058 4.1 6.756 8.503 2.748 17.32.881 36.502 15.643 45.64 7.247 4.486 15.368 3.248 23.238 8.492 4.335 2.889 32.06-7.44 36.352-7.976 7.053-.881 14.987 10.58 5.29 11.461-9.698.882-26.448 14.106-25.567 23.803.882 9.698 19.395 19.396 24.685 19.396 5.29 0 19.395-16.75 22.04-22.04 2.645-5.29 10.58-9.698 4.408-17.632-1.09-1.402-10.044 13.797-15.176 7.457-2.204-2.723.25-27.395-2.175-29.463-10.478-8.934-21.85-13.097-24.221-27.924-2.351-14.704 21.524-38.013 24.09-46.875.747-2.578 24.94 7.476 25.857 5.559 9.698-20.277 15.392-34.735 19.22-48.022.558-1.935 2.413-6.468 6.515-12.735 1.965-3.001 11.792 9.966 17.648 8.943 5.804-1.014 7.65-16.018 8.756-17.602 4.275-6.124 50.032-15.428 52.125-4.883 3.129 15.76 26.37 38.12 31.01 39.28 14.106 3.526-13.172 1.959 1.815 19.59 14.988 17.633 32.324 26.449 27.034 32.62-5.29 6.171-6.757 17.632-11.165 17.632-4.408 0 .365 17.655.365 17.655 16.31-2.204 33.988-4.483 39.278-13.299z"/><path fill="#7fffa3" d="M176.055 142.15c3.74-4.052 15.897 3.117 19.637 1.87 3.74-1.246 14.65-22.13 18.39-23.377 3.74-1.246 33.128 6.867 36.869 5.62 2.051-.684 15.741 22.031 19.202 24.275 2.848 1.847 14.555.963 13.173-.442-16.893-17.18-26.765-35.677-30.817-42.223-4.052-6.545-34.052-7.123-44.961-5.253-10.91 1.87-13.414 3.374-12.79 10.231.622 6.857-2.494 14.338-4.988 15.273-2.494.935-10.91-8.416-17.143-9.04-6.234-.622-9.04 10.287-9.35 13.715-.313 3.429 4.986 10.286 12.779 9.351z"/><path fill="#a2ff94" d="M187.276 158.982c10.598-10.286 31.321-5.539 37.555-5.227 6.234.312 44.733-2.254 50.031 1.486 5.3 3.74 9.351 3.74 9.663.312.163-1.792-12.65-9.124-22.39-18.302-8.894-8.38-14.599-18.83-18.234-17.258-11.533 4.987-17.04-5.895-28.884-3.09-13.726 3.25-18.078 24.312-19.948 24-1.87-.311-13.715-8.104-17.767-3.74-4.052 4.364 9.974 21.819 9.974 21.819z"/><path fill="#b4ff69" d="M135.85 283.275c-7.934 22.922-1.345 36.178 12.343 48.488 18.748 16.861 90.805 43.199 98.74 44.962 7.934 1.763 22.04-14.987 22.04-14.987l6.17 6.17S301.593 346.75 306 330c4.408-16.75 17.632-41.435 12.342-50.251-5.29-8.816-24.684-52.896-22.04-59.95 2.645-7.052 7.935.882 11.461-9.697 3.527-10.58 6.171-13.224-2.645-20.277-8.816-7.053-25.244-28.629-27.007-37.445-1.398-6.99-26.51-12.018-33.337-13.969-13.244-5.898-10.202 3.038-14.392 9.168-5.548.64-8.347 3.587-12.592 3.826-9.797-4.201-22.816-1.976-28.161 4.038-2.962 3.332-30.237-29.34-33.23-24.481-2.225 3.613-7.478 22.107-3.76 34.831 3.187 10.911 15.61 16.507 12.305 16.98-6.13.875-12.695 7.405-18.615 16.241-13.052 8.955-12.218 14.106-15.768 24.312-7.053 20.277.882 57.304 5.29 59.95z"/><path fill="#f2ffa4" d="M155.903 127.441c-1.767 2.357-3.473 9.99-3.346 15.746.254 11.47 5.192 23.268 13.264 25.47 12.122 3.305 18.514 1.321 21.6-3.087 3.085-4.408 3.967-13.224-2.204-16.97-5.056-3.07-19.78-12.97-24.666-19.623-1.296-1.765-3.89.019-4.648-1.536z"/><path fill="#44357f" d="M413.33 266.383c.494-1.226 6.145-2.275 4.167 2.631-1.978 4.906-19.3 23.112-21.825 18.767-2.526-4.345-8.474-14.348-1.808-27.344 6.666-12.997 14.038-14.778 16.57-12.806 2.532 1.971 5.064 3.943 3.416 8.03-1.648 4.089-7.972 11.52-8.466 12.747-.495 1.227-5.994 6.614-5.901 2.849.092-3.765 4.53-10.056 5.927-12.344 1.398-2.288 6.152-4.649 3.864-6.047-2.289-1.398-8.671-2.07-11.638 5.289-2.967 7.359-7.174 18.97-3.659 20.863 3.515 1.892 10.135 5.512 19.352-12.635z"/><path fill="#fff" d="M180.478 211.965c-5.29-8.816-4.298-11.13-14.657-6.943-10.359 4.188-18.734 13.996-20.497 19.946-4.3 14.514-1.763 27.22-1.102 31.407.661 4.188 13.551 25.028 15.094 27.012.795 1.022 4.608.676 7.465-.045-.538-7.134-10.811-31.46-8.674-41.293 4.408-20.276 15.318-28.982 22.37-30.084z"/><path fill="#ffc800" d="M179.484 210.723c-18.701 1.247-25.123 17.259-27.007 31.677-1.92 14.704 2.722 22.733 5.068 28.857.5 1.302 1.308.594 1.092-.024-.95-2.71-6.195-16.458-4.9-28.705 1.04-9.837 7.825-31.494 26.059-29.935 1.56.133 1.714-1.559-.312-1.87z"/><path fill="#002232" d="M191.167 230.148c4.188 2.865 6.172 4.187 8.816 9.036 2.645 4.85 4.682 6.158 3.086 19.726-1.543 13.114-7.273 22.15-9.698 24.795-2.424 2.645-8.375 5.51-10.138 5.51s-6.392-4.628-7.714-5.29c-1.323-.66-10.036-14.37-5.07-34.382 3.903-15.722 13.665-22.48 20.718-19.395z"/><path fill="#7fffa3" d="M136.288 274.448c-3.527 7.935-3.086 11.02-8.816 10.58-5.73-.441-10.139-7.935-9.257-16.75.881-8.817 2.645-11.462-2.204-14.988-4.85-3.527-50.07-26.929-35.358-35.736 5.066-3.034 10.509-14.024 9.709-25.13-1.475-20.465 26.654-31.197 27.488-33.698 1.322-3.967 17.997 20.95 23.286 19.187 5.29-1.763 10.887-8.998 12.65-14.287 1.763-5.29 19.97 16.932 17.766 20.017-2.204 3.086-25.126 14.547-31.297 22.922-6.171 8.375-8.845 6.191-10.904 22.115-6.456 18.849 6.937 45.768 6.937 45.768z"/><path fill="#a2ff94" d="M135.406 281.06c-6.612-3.526-12.783-11.901-12.342-18.072.44-6.172 0-16.31 0-21.159s-21.6-15.428-20.718-21.6c.882-6.17 18.954-29.974 20.718-33.06 1.763-3.085 12.783 3.086 19.836 0 7.052-3.085 12.342-12.782 14.105-16.309 1.763-3.526 20.718 4.849 15.428 12.343-5.29 7.493-25.125 16.75-30.856 24.244-5.73 7.493-11.785 12.176-11.785 20.992-3.707 9.64 3.41 43.365 6.055 46.01 2.645 2.644-.441 6.611-.441 6.611z"/><path fill="#00a9ab" d="M37.941 156.89c.92 4.464-1.445 10.816.418 16.43 2.56 7.716 11.502 14.403 12.585 16.208 1.87 3.117 8.104 11.42 8.104 16.72 0 5.298-18.267-21.707-23.878-27.318-5.61-5.61-.969-24.221 2.771-22.04z"/><path fill="#d7e5ff" d="M59.794 149.943c-11.844 11.22-9.04 19.636-6.234 24.935 2.805 5.299 21.819 24.624 24.624 33.351 2.805 8.728 8.727.624 3.74-10.597s-19.013-23.69-22.754-30.858c-3.74-7.169.624-16.831.624-16.831z"/><path fill="#c1ffff" d="M173.37 38.1c-3.64 9.36-.52 40.562 2.08 46.282 2.6 5.72 12.48 28.081 13 33.801.52 5.72 5.2 1.56 5.72-7.8.52-9.36-14.04-21.841-14.56-33.801-.438-10.085-.877-24.142-.22-29.92.073-.65 8.442-11.902 7.237-13.572-1.544-2.138-12.8 5.285-13.257 5.01z"/><path fill="#5fd3b4" d="M238.103 34.186c4.78 1.838 13.537 9.412 14.64 17.869 1.104 8.457.736 40.448.736 42.655 0 2.206-5.516-2.574-8.09-7.722-2.574-5.148-4.412-29.417-6.25-34.565-.772-2.16-1.544-5.68-2.451-9.202-1.255-4.87-19.844-11.54-21.978-12.82-3.677-2.206 21.187 2.314 23.393 3.785z"/><path fill="#d7e5ff" d="M76.977 92.871c10.664-4.412 39.713 0 39.713-.735 0-.736-.368-4.78-3.677-5.148-3.31-.368-33.83 1.47-36.036 5.883zM196.77 25.1c17.162-6.241 46.803 0 48.883 2.08 2.08 2.08 4.16 1.04 3.64 4.68-.52 3.64-15.08-5.72-19.24-5.72-4.16 0-33.282-1.04-33.282-1.04z"/><path fill="#f2ffa4" d="M301.317 184.253c-3.545-.664-8.78-.413-13.04-5.954-2.11-2.744-7.693-10.067-8.557-11.847-2.734-5.634-2.865-13.343-2.031-14.652 1.179-1.853 9.886-3.816 17.6-8.652 5.323-3.337 9.729-9.373 12.67-12.262.69-.68 6.822 11.557 5.907 23.537-.968 12.655-6.407 26.467-12.549 29.83zM285.924 233.749c8.444 16.889 13.686 36.69 9.9 43.097-3.785 6.406-19.51 9.027-24.169 3.203-4.66-5.824-7.571-15.434-7.571-17.763 0-2.33 16.89-11.066 21.84-28.537z"/><path fill="#c1ffff" d="M302.745 80.66c-10.707 12.354-19.767 36.239-17.296 44.475 2.471 8.236 15.237 21.002 11.943 7-2.225-9.452 5.973-25.779 8.309-37.95 1.124-5.857-3.223-11.385-2.956-13.526z"/><path fill="#5fd3b4" d="M278.86 51.009c6.59-1.647 6.59 4.118 7.413 9.883.823 5.766 2.47 29.65 0 35.416-2.471 5.766-7.413 6.59-10.707 9.884-3.295 3.294 5.765-8.236 5.765-14.825 0-6.59 0-25.533-1.647-30.475-1.647-4.941-12.355-8.236-.824-9.883zM318.806 82.307c6.589 4.118 4.942 12.766 3.706 20.178-1.235 7.413-4.189 19.035-5.012 21.094-.497 1.241 11.786 7.511 18.92 12.93 10.677 8.11 9.886 19.943 8.087 20.27-1.659.301-5.065-13.658-12.389-17.298-14.928-7.416-22.772-16.196-19.901-20.111 4.53-6.177 7-25.533 7.824-27.592.824-2.059-1.235-9.471-1.235-9.471z"/><path fill="#d7e5ff" d="M55.247 218.204c-6.178 7.001-7.001 16.473-2.471 23.474 4.53 7 17.296 10.154 21.002 13.448 3.706 3.295 5.454 2.733 12.866 1.086 7.413-1.648-7.633-3.395-8.457-7.925-.823-4.53-20.008-8.648-21.243-12.354-1.236-3.706-4.168-11.14-1.697-17.729zM78.72 132.96c3.706-6.178 3.294-11.943 1.647-18.532s-2.059-7 .412-9.06c2.47-2.059 2.47 8.236 6.589 15.649 4.118 7.413-7.001 11.53-8.648 11.942z"/><path fill="#dcffc7" d="M219.148 179.288c-2.06 2.06-3.707 4.53-.824 6.177 2.883 1.648 3.706 1.236 7 .618 3.295-.618 2.883-.206 4.325-2.47 1.441-2.266-6.383-5.56-10.502-4.325zM242.209 178.67c-4.53.206-7 4.119-7.413 6.178-.411 2.059.206 1.647 3.295 2.47 3.088.824 4.942-.411 5.765-1.44.824-1.03 3.295-7.413-1.647-7.207zM234.59 173.523c-2.47.412-5.765 1.853-4.324 3.294 1.442 1.442 4.736 1.648 6.59.412 1.853-1.235-.412-3.912-2.266-3.706zM253.122 170.846c-3.295 0-6.589.824-4.736 2.265 1.853 1.441 4.118 3.5 5.354 1.853 1.235-1.647 3.294-3.912-.618-4.118zM269.183 166.934c-3.707.206-5.148 2.265-6.383 3.089-1.236.823 1.029 2.676 3.5 2.059 2.47-.618 4.736-.824 5.353-1.854.618-1.03.206-3.706-2.47-3.294zM260.123 175.17c-3.295 0-2.883 1.853-4.53 3.089-1.647 1.235-1.03 2.265 1.441 2.059 2.471-.206 4.736.412 5.971-1.853 1.236-2.265-2.059-3.707-2.882-3.295zM272.683 177.641c-3.089-.412-3.706 1.441-4.942 2.265-1.235.824-.206 2.883 2.677 2.47 2.883-.411 5.148.619 5.56-1.44.411-2.06-1.442-3.295-3.295-3.295zM258.98 183.957c4.39-.953 8.782 0 11.71.954 2.928.954.366 4.134-3.66 5.087-4.025.954-4.757.636-8.416-.318-3.66-.953-2.196-5.087.366-5.723zM234.796 192.054c-5.147-1.03-5.765.206-5.97 2.265-.207 2.06 6.382 3.295 7.823 2.677 1.442-.618 1.442-5.56-1.853-4.942zM247.562 189.584c-2.676-.206-4.941 1.853-5.353 2.676-.412.824 2.059 3.089 4.53 2.265 2.47-.823 3.088-1.647 3.706-2.676.618-1.03-1.235-3.09-2.883-2.265zM204.322 176.2c-6.177.823-10.295 4.53-6.589 8.648 3.707 4.118 7.825-.412 10.296-2.06 2.47-1.647-.412-7.824-3.707-6.588zM196.498 164.669c-.824 3.706.412 7 2.059 6.589 1.647-.412 5.765-.824 6.589-4.53.824-3.706-6.177-4.118-8.648-2.059zM212.559 159.315c-2.06 1.236-4.942 3.707-3.295 4.942 1.647 1.236 4.118.412 6.177-1.235 2.06-1.648 3.295-2.883 2.471-4.53-.824-1.647-2.883-.824-5.353.823zM186.614 174.552c-.411 3.295-.823 7.413 2.06 7.413 2.882 0 2.882-2.883 5.353-5.354 2.47-2.47 1.647-1.235-1.235-4.941-2.883-3.707-6.178 2.882-6.178 2.882zM262.388 152.315c5.765 1.235 10.295 3.706 9.06 4.941-1.236 1.236-7.413-.823-8.648-1.235-1.236-.412-3.295-3.295-.412-3.706zM279.684 171.67c-5.354-2.06-7.413.412-4.53 2.882 2.883 2.471 3.706 4.119 6.177 2.471 2.47-1.647-1.235-4.941-1.647-5.353zM444.826 157.434c1.197 3.097 10.012 3.565 13.123 3.96 3.11.397 3.636-4.003 2.603-5.882-1.6-2.906-7.694.056-9.843-1.472-2.15-1.527-6.419 2.009-5.883 3.394zM468.293 150.256c.412 2.882 3.707 2.882 6.178 5.353 2.47 2.471 7.412.824 7.824-.823.412-1.648-2.883-4.119-5.354-4.942-2.47-.824-8.648-2.883-8.648.412zM486.001 147.785c-.411 3.706 3.707 7 6.177 7.412 2.471.412 7.413.824 8.237-2.059.823-2.882-13.59-8.648-14.414-5.353zM494.65 161.374c-2.472 2.883 4.117 5.766 6.177 6.59 2.059.823 5.353 0 5.765-2.06.412-2.059-3.295-4.118-5.354-5.353-2.059-1.236-5.765-1.236-6.589.823zM470.352 160.55c-3.88.457-4.118 3.295-4.118 4.943 0 1.647.824.823 2.883 2.059 2.06 1.235 6.177.823 6.589-1.236.412-2.059-2.056-6.153-5.354-5.765zM521.417 171.67c-2.883-1.236-4.53-2.883-5.765-.412-1.236 2.47-.412 4.942 1.647 5.765 2.059.824 2.059 1.648 4.942 1.236 2.882-.412.947-5.83-.824-6.59zM507.416 174.552c-3.338-1.112-4.942-2.059-5.354.412-.412 2.471.412 2.883 2.47 5.354 2.06 2.47 6.59 3.294 7.002.823.411-2.47-2.508-6.052-4.118-6.589zM570.834 225.617c-3.706 1.647.412 7.413 1.236 9.472.824 2.059 6.177 2.882 6.589.823.412-2.059-7.825-10.295-7.825-10.295zM528.558 184.925c-1.73 3.091 1.558 4.273 2.808 5.96 1.25 1.688 2.718 1.906 4.778.481 2.06-1.426 1.949-4.56.15-6.444-1.797-1.884-6.597-1.444-7.736.003zM565.002 247.641c.582 5.242 1.747 5.242 5.823 5.242 4.077 0 .583-2.33 0-6.407-.582-4.076-4.076-5.823-5.823-4.076-1.748 1.747-2.33 2.33 0 5.241zM516.207 187.466c-3.906 2.606-2.603 3.907-1.04 7.032 1.565 3.125.784 4.167 4.43 3.645 3.646-.522 4.165-4.69 2.862-7.294-1.303-2.604-6.252-3.383-6.252-3.383zM540.719 245.979c-2.912 0-1.747 5.824-1.747 6.406 0 .583 0 3.495 3.494 1.747 3.494-1.747 4.077-.582 3.494-4.076-.582-3.495-3.494-5.824-5.241-4.077zM533.58 218.394c-2.804 3.18.062 5.494 1.947 8.436s3.633 4.589 5.594 3.332c1.962-1.257.78-7.417.78-7.417zM556.919 223.431s-4.213 3.119-.505 6.17c3.708 3.052 4.523 3.174 6.395 1.788 1.873-1.386.73-4.888-.31-6.292s-5.58-1.666-5.58-1.666z"/><path fill="#7fffcc" d="M300.338 245.396c9.172 3.932 18.49 5.679 19.51 9.61 1.019 3.931 1.164 17.472-2.184 19.51-3.349 2.038-20.238-23.878-17.326-29.12z"/><path fill="#c1ffff" d="M350.569 163.28c-2.912 3.203-12.813 13.686-15.725 15.433-2.912 1.747-2.038-.291 0-2.912 2.039-2.62 14.269-15.725 15.142-15.725.874 0 1.165 1.456.583 3.204z"/><path fill="#7fffcc" d="M261.564 424.522c9.06 2.059 22.65-7 24.709-8.648 2.059-1.647 34.592-7.824 37.475-7.824 2.882 0 9.06 4.941 11.942-.824 2.883-5.765-10.295-12.354-8.648-15.237 1.647-2.883 14.825-11.943 19.355-15.237 4.53-3.295 13.59-14.414 19.767-27.18s7.825-18.12 7.825-25.12c0-7.001 8.021-43.42 8.845-50.42.372-3.168-10.569-10.062-21.336-4.262-5.69 3.065-30.662 17.982-34.044 20.913-6.177 5.354-13.59 12.766-15.649 18.12-2.059 5.354-3.706 16.06-6.589 21.826-2.883 5.765-20.59 28.827-23.473 31.71-2.883 2.882-9.903 8.578-11.138 10.225-1.236 1.647 10.289 2.879 13.014 5.39 2.997 2.763-11.61 9.415-10.524 14.035.471 2.004.823 14.413-1.236 16.472-2.059 2.06-10.295 16.061-10.295 16.061zM189.333 364.953c-.507 5.064-4.22 16.544-2.533 22.284 1.688 5.74-32.92-21.44-34.945-27.687-2.026-6.246-.676-19.92-.676-19.92s8.61 12.324 14.856 15.869c6.247 3.545 23.298 9.454 23.298 9.454z"/><path fill="#fff" d="M347.408 377.229c-.506 6.415-17.388 12.155-19.583 13.167-2.195 1.013 6.668-6.921 9.2-9.116 2.533-2.194 8.526-5.57 10.383-4.051zM341.077 408.629c-1.52-5.571 3.883-12.155 8.104-14.518 4.22-2.364 6.584-2.702 7.765-2.702 1.182 0-12.324 15.194-15.869 17.22zM359.985 420.446c-1.013-6.921 3.208-11.986 5.571-14.18 2.364-2.195 6.197-2.216 7.21-2.384 1.013-.17-2.99 11.669-12.78 16.564zM377.341 427.973c-1.182-4.727 2.734-9.046 4.422-11.072 1.688-2.026 5.064-3.714 6.921-4.052 1.857-.337-1.383 8.71-11.343 15.124zM395.437 431.757c-1.35-6.077 3.27-10.538 4.79-11.551s3.82.41 3.145 2.604c-.676 2.194-6.753 8.272-7.935 8.947zM270.51 377.06c1.689 1.35 2.027 1.688 2.533 3.207.506 1.52 9.454-.169 11.48-2.026 2.026-1.857-11.48-2.532-14.012-1.181z"/><path fill="#5fd3b4" d="M106.762 99.49c-10.296 0-9.928-.368-13.973.735-2.504.683-12.37 5.852-6.694 8.4 1.41.634 8.044-3.164 12.387-3.11 6.407.08 6.358 6.426 6.692 7.845 1.47 6.25 1.015 15.723 8.737 20.504 5.477 3.39 18.364 15.627 24.192 26.047 2.388 4.27-5.571 10.552-3.262 11.474 9.03 3.604 9.28-6.928 4.647-22.99-4.34-15.043-6.986-23.9-13.605-26.842-6.619-2.942-13.238-21.695-19.121-22.063z"/><path fill="#00a9ab" d="M92.207 101.214c3.88-.97 15.342 1.216 20.81 8.304 4.095 5.307 1.15 15.299 9.247 18.192 9.965 3.56 17.461 23.764 19.066 35.927.571 4.329-3.56 7.28-3.08 8.6 3.547-.286 6.2-1.953 5.577-9.014-1.53-17.348-6.828-45.134-12.595-44.81-4.007.225-12.008-18.206-14.78-18.963-9.698-2.644-23.363-.881-24.245 1.764z"/><path fill="#deb400" d="M156.886 128.903c-.686 4.174-4.287 11.243-4 14.564 1.274 14.784 8.83 23.516 11.884 25.298 3.74 2.181 16.854 2.755 21.416-1.991.882-.918 2.337 2.182-6.702 8.416-7.766 5.355-21.195-.935-26.338-9.819-6.22-10.742-6.677-25.032 3.74-36.468z"/><path fill="#8c9e00" d="M207.419 191.9c7.618 4.681 14.163 19.127 13.281 20.162-1.708 2.003-4.243 3.9-4.407 4.862-1.763 10.359-4.188 9.036-11.24 7.053-7.053-1.984-16.31-19.836-23.363-22.481-7.053-2.645-19.137-4.636-24.166.806-1.807 1.956 13.366-3.892 18.876 2.94 5.51 6.833 24.245 30.195 27.991 30.195 3.747 0 12.343 1.102 13.224-3.306.882-4.408 2.645-7.273 3.306-10.138.962-4.17 2.772-7.685 2.527-10.394-.089-.977-2.503-15.645-16.03-19.7z"/><path fill="#de8000" d="M179.796 211.658c-5.292-.734-22.462 4.391-26.06 29.475-2.225 15.519 3.774 31.305 10.631 41.435 3.88 5.731 12.102 2.447 11.065.312-5.299-10.91-7.705-26.125-3.117-39.741 4.831-14.338 16.322-15.289 20.218-12.64 1.822 1.24-8.997-18.53-12.737-18.841z"/><path fill="#8c9e00" d="M202.107 241.79c2.066-.538 3.013-.285 3.152.568 3.295 20.2-11.313 48.362-13.856 48.27-3.085-.11-2.704 5.918-4.575 6.854 0 0-4.66-8.391-2.052-8.928 3.746-.771 9.036-5.95 11.46-9.918 2.425-3.967 9.456-17.209 5.871-36.846z"/><path fill="#5fd3b4" d="M160.89 120.263c3.64-14.56 0-19.24-.52-21.32-.52-2.08-10.401-21.321-11.961-23.922-1.56-2.6-13.001-6.76-16.121-8.32-3.12-1.56 6.24-4.68 10.4-4.16 4.16.52 8.32 9.36 10.92 10.92 2.601 1.56 16.642 24.441 15.082 28.602-1.56 4.16-7.8 18.2-7.8 18.2z"/><path fill="#deb400" d="M277.973 150.092c-.214 2.148-.66 9.25 1.022 14.74.547 1.787 2.974 5.058 3.533 5.757 1.85-3.132-.724-11.85 9.155-17.78 4.437-3.66 11.49-11.742 11.205-13.735-.284-1.993-12.104 15.857-24.915 11.018z"/><path fill="#8c9e00" d="M183.066 173.155c-3.825 4.227-10.065 11.675-13.487 12.48-3.423.806-9.26 2.215-10.065 2.013-.806-.2-4.228-1.61-5.435-6.039-.797-2.92-.403-5.837-.202-7.045.202-1.208 24.357 6.442 29.189-1.41zM157.837 282.619c-9.837-11.29-15.378-36.382-14.937-42.112.44-5.73 2.301-15.279 8.154-23.583 3.642-5.167 7.384-10.139 16.64-12.343 3.458-.823 2.094-.881-2.314-2.204-4.408-1.322-13.444 5.951-18.072 15.87-4.102 8.79-12.008 18.477-5.286 42.996-6.28-4.169-10.794-5.387-14.014-20.388-1.323 18.936 9.86 36.459 24.49 41.22 3.47 1.13 13.85 10.31 5.34.544zM263.211 265.151c1.648 7.413 4.422 13.174 15.97 17.808 1.575.632 10.561-1.094 13.032-2.33-4.081 3.86-9.583 5.05-14.484 5.6-3.887.435-14.88-8.965-16.115-12.26-1.235-3.294.774-6.759 1.597-8.818z"/><path fill="#8c9e00" d="M139.219 276.344c-.651-.01-1.098.119-1.188.344-.823 2.059-8.234 21.834-2.469 38.718 5.766 16.885 37.464 34.983 67.938 43.219 30.474 8.236 43.449 17.908 42.625 15.438-.619-1.856 13.591-1.687 19-11.032 1.49.19 2.085.851 3.031 1.75 0 0 5.236 1.176 9.313.594 4.076-.582 31.975-36.2 33.14-64.278-5.853 23.308-29.936 49.27-34.142 49.79-1.457.18-5.86 2.195-7-1.156-1.602-4.704-4.201-2.13-9.154-5.043-9.901-5.824-20.975-2.032-24.47-2.032-6.438-9.53-24.95-9.074-34-7.812-14.516 2.024-14.053-3.827-21.624-6.156a13.467 13.467 0 01-1.75-.688c-2.485-2.158-6.495-5.433-8.039-6.893-4.078-1.56-13.326 7.299-22.243-15.982-5.87-2.962-1.578-19.188-2.687-24.469-.644-3.067-4.328-4.282-6.281-4.312z"/><path fill="#deb400" d="M285.655 234.06c2.883 20.178-11.325 43.857-15.031 43.857-2.833-.582-8.648-10.707-8.648-14.001 0-3.295 22.444-11.737 23.68-29.857zM280.1 282.96c2.324.087 7.71-1.238 11.214-3.262.992-.573 2.777-4.468 3.491-5.182 1.747-1.747.728 6.26-.728 6.697-1.456.437-11.065 2.767-13.977 1.748zM309.375 166.728c-4.165 7.383-9.548 12.778-11.572 13.178-.808.16-6.588-.412-8.03-.618-1.441-.206 5.766 6.177 9.678 4.736 3.912-1.441 9.307-11.737 9.925-17.296z"/><path fill="#8c9e00" d="M253.427 192.287c-1.916-5.532-5.595-14.43-9.473-16.811-6.792-4.172-7.52-12.986-7.18-16.24.604-5.792 5.382 12.39 9.075 14.591 3.694 2.2 10.28 12.77 7.578 18.46zM307.275 206.674c-2.883 3.294-11.942 4.118-13.59 4.53-1.647.411-5.353 1.647-9.06-1.236-3.706-2.882-7.412-6.589-9.883-7-2.47-.412 8.948 12.736 14.825 13.59 12.766 1.852 21.414-5.766 17.708-9.884z"/><path fill="#dcffc7" d="M219.038 164.463c-9.735 5.503-4.75 10.09-2.137 10.09 2.612 0 4.274-.306 6.885-.306 2.612 0 7.836-4.28 4.75-7.033-3.087-2.751-7.836-4.28-9.498-2.751zM257.2 160.14c-7.433.268-11.633 5.648-8.402 6.186 3.231.538 7.432 3.766 10.34 1.614 2.908-2.152 6.14-7.8-1.939-7.8zM243.948 151.832c-9.472.412-5.766 1.236-3.707 4.53 2.06 3.295 4.53 3.706 7.825 1.236 3.294-2.471 2.059-6.59-4.118-5.766zM226.16 156.82c-3.56 1.528-2.374 3.057-1.424 3.974.95.917 2.137 1.834 4.037.306 1.9-1.53 0-4.892-2.612-4.28zM253.6 155.709c2.04.873 2.913 0 4.369-.583 1.456-.582.582-1.747-.583-3.785-1.164-2.039-5.532.29-5.532 1.164 0 .874.582 3.204 1.747 3.204z"/><path fill="#8c9e00" d="M378.815 356.05c3.203 5.388 16.307-3.494 22.13-4.076 5.824-.583 18.637 3.494 23.296 5.824 1.923.961 19.322 5.842 35.465 18.843 22.731 18.306 27.655 23.61 32.101 24.979 7.571 2.33 45.418 8.593 56.483 7.428 11.065-1.165 41.341-19.039 44.253-22.533 2.912-3.494 10.565-18.1 16.5-33.254 2.642 8.32-1.932 27.25-6.008 39.48-4.077 12.23-40.185 33.779-53.58 36.108-13.395 2.33-58.822-4.077-72.217-11.648-13.395-7.57-57.656-53.58-65.81-57.074-8.153-3.494-14.996-2.33-22.567-.582-7.571 1.747-10.046 4.077-10.046-3.495zM227.59 298.302c3.5 1.441 2.75-1.894 2.265-2.677-2.919-4.717.615-10.914 4.324-11.119 3.706-.205 7 3.295 6.795 7.619-.206 4.324-2.873 9.991-5.55 10.403-2.676.412-5.363-1.755-7.834-4.226z"/><path fill="#00a9ab" d="M506.18 333.1c-1.647 6.177-4.942 14.001-8.648 14.413-3.706.412-17.708 11.531-22.238 11.943-4.53.412-6.177 1.647-6.589-2.06-.412-3.706-18.12-7.412-19.767-8.236-1.647-.823 5.354-5.765 5.354-8.648 0-2.882-2.471-9.883-4.53-13.178-2.06-3.294 12.354 9.06 16.884 9.884 4.53.824 13.875-1.013 18.943-4.53 15.32-10.63 15.296-30.325 15.682-31.348.898-2.378 3.268-.64 3.272.196.042 8.323-2.43 24.315 1.637 31.564zM431.23 377.164c-4.941 7.412-9.883 14.825-20.178 18.943-1.99.796-14.83-11.478-17.652-10.538-3.166 1.055-26.528-1.009-28.913 1.43-4.192 4.287 3.933 7.908 7.787 11.368 1.869-.316 6.72 6.241 8.579 8.74 1.911 2.569 1.707 9.56 1.707 9.56s1.563-2.948 4.857-3.771c3.295-.824 3.044 8.331 3.868 12.45.823 4.118 8.48-6.422 11.363-5.599 2.883.824 1.815 13.011 7.58 13.835 5.765.823 15.649-.412 19.355-4.942 3.706-4.53 18.943-33.357 20.179-35.004 1.235-1.647-18.532-16.472-18.532-16.472z"/><path fill="#dcffc7" d="M381.123 161.178c5.74 1.147 10.195 2.51 12.16.066 1.966-2.444 4.908-10.07-3.865-7.273-8.773 2.797-14.034 6.06-8.295 7.207zM398.903 139.754c-4.952.248-9.266.618-9.677 3.5-.412 2.883 3.294 4.119 6.589 3.707 3.294-.412 10.295-1.647 11.119-3.706.823-2.06-4.74-3.665-8.03-3.5zM380.99 147.373c-3.707 2.47-9.472 3.706-7.001 6.177 2.47 2.47 4.53 0 6.589-.824 2.059-.823 6.177-1.235 5.765-4.53-.412-3.294-3.295-1.647-5.354-.823zM419.288 135.43c3.294 4.53 3.706 4.942 7.412 4.942 3.707 0 4.53 2.06 6.59-1.235 2.059-3.295-9.884-5.354-14.002-3.707zM424.641 151.903c-2.891 1.033-9.471 2.059-7.824 5.353 1.647 3.295 7.824 2.06 10.707.412 2.883-1.647 4.118-.823 4.53-3.294.412-2.471-4.52-3.504-7.413-2.471zM405.286 153.962c-2.882.823-7 4.942-4.118 6.177 2.883 1.235 4.942 0 7.413-1.647 2.47-1.647 1.647-2.471 1.235-4.118-.412-1.648-2.15-1.092-4.53-.412zM367.811 149.432c0 3.294-2.059 4.942-4.941 5.354-2.883.411-4.118 0-3.295-1.648.824-1.647 8.236-3.706 8.236-3.706zM371.93 161.786c-2.502-3.93-7.413-1.235-9.884-.412-2.47.824-2.47 2.06-2.059 4.53.412 2.471 2.47 3.295 6.589 1.648 4.118-1.648 6.053-4.667 5.354-5.766zM455.527 141.196c-3.706 0-6.177-1.236-7 .823-.824 2.06 1.647 3.707 5.765 4.118 4.118.412 7.824 1.236 8.236-1.235.412-2.47-4.651-3.706-7-3.706zM419.494 143.049c-2.265 0-7.207.823-6.795 2.47.412 1.648 3.294 2.472 5.148 2.266 1.853-.206 4.735.206 4.735-1.648 0-1.853-2.059-3.294-3.088-3.088zM436.996 143.46c-3.295-.205-5.148-.823-5.148.824 0 1.648 1.03 3.913 4.324 3.5 3.295-.411 5.765.413 5.56-1.852-.206-2.265-3.913-2.883-4.736-2.471zM388.608 166.934c-1.87.33-6.59 1.647-6.383 3.089.206 1.44 3.088 3.088 5.56 2.059 2.47-1.03 4.941-1.236 4.941-3.089s-2.483-2.348-4.118-2.06zM356.075 173.523c2.882 0 6.383-.412 6.589 1.235.206 1.648-.824 4.324-2.471 4.736-1.647.412-3.706.412-4.942 0-1.235-.412.824-5.971.824-5.971zM369.87 173.523c-2.446.35-4.118 2.265-4.118 3.912 0 1.647 3.089.618 5.354.618s4.324-1.03 4.53-2.677c.206-1.647-3.832-2.13-5.766-1.853z"/><path fill="#8c9e00" d="M523.83 166.192c13.395 21.548 22.13 43.096 23.878 48.92 1.747 5.824 7.57-5.824 3.494-15.724-4.077-9.9-27.372-33.196-27.372-33.196z"/><path fill="#cdc2a8" d="M533.771 183.715l3.5 6.59s1.545-.927.722-3.192c-.565-1.551-4.222-3.398-4.222-3.398z"/><path fill="#8c9e00" d="M444.042 211.181c-5.824 2.62-7.425 4.077-7.862 5.387-.437 1.31-3.931 7.28-4.222 8.008-.292.728 6.115-1.747 6.552-2.766.436-1.02 1.747-5.824 1.747-5.824z"/><path fill="#50ab74" d="M504.174 307.42c1.02 6.21 3.28 16.343 5.589 20.413 1.18 2.082-1.505 2.148-1.664 3.101-.437 2.62-2.402 1.057-3.925-4.731-1.456-5.533 0-18.782 0-18.782zM326.39 288.598c-2.701 3.208-10.467 5.909-10.467 5.909v5.065s9.116-9.117 10.467-10.974z"/><path fill="#00a9ab" d="M313.928 299.958c.388-.483 2.748-1.952 6.522-5.9 2.777-2.906 6.169-6.999 8.785-8.068 3.016-1.233-11.876 15.468-11.283 19.221.895 5.67-2.367 19.111-4.443 25.843 6.951 1.296 12.103 5.585 13.894 7.632 2.363 2.701 7.766 7.09 7.09 8.779-.443 1.107-12.1-6.227-16.095-8.349-.602-.32-7.175-.484-11.538 3.514-4.642 4.253-4.747 12.202-9.433 17.609-6.15 7.097-12.96 12.228-13.743 13.163 2.093.671 2.072 1.404 2.684 2.236.803 1.092 1.313 2.467 1.112 3.983-.352 2.666-13.831 10.853-14.057 8.78-.221-2.037 10.545-9.584 10.332-10.04-1.456-3.105-8.623-3.88-14.984-4.788-.53-.076-2.24-1.276-.834-2.542.758-.683 6.94-1.63 7.032-1.783 5.947-9.913 28.116-31.865 27.64-31.674-3.377 1.35 7.605-36.603 11.32-37.616z"/><path fill="#f2d5c4" d="M283.8 377.789c-2.03 1.432-9.909 2.03-10.505 2.03-.597 0 .477 3.82.596 4.655.12.836 10.744-2.149 9.908-6.685z"/><path fill="#f2d5c4" d="M284.057 377.875c-7.259-1.857-11.69-.478-12.365-.393-.675.084-3.545-1.942-3.798-2.532-.253-.591 12.871-2.393 16.163 2.925zM355.756 392.917c-2.372 3.89-10.484 10.008-13.493 13.13-.677.703 3.65-7.56 10.418-13.08-.933-1.74-13.485 11.242-13.901 11.635-1.043.984.103 5.658.103 6.053 0 1.688 6.752 7.428 11.142 5.57 4.389-1.856 9.28-20.825 5.731-23.308zM338.039 400.863c-2.364 0-8.453-3.693-8.453-3.693s-4.97-4.348-4.523-7.113c.893-5.516 14.578-12.163 17.927-12.297-8.66 4.302-14.94 12.604-14.523 12.14 3.746-4.18 14.946-9.132 19.87-13.01 2.305 2.658-8.61 23.804-10.298 23.973zM372.42 403.817c-3.208 7.259-8.012 10.878-11.22 14.423-.272.301 2.866-10.01 9.089-14.83-1.437-1.075-12.326 11.395-13.028 11.82-.862.522 1.511 7.472 1.205 7.411-.844-.169 9.791 5.065 14.012 2.532.691-7.99 5.161-16.444-.058-21.356zM378.304 425.927c-1.244.456 1.818-6.939 6.656-10.898-3.129 1.565-10.954 10.618-10.954 10.618s-.397 4.954 1.675 7.092c2.762 2.85 8.518 2.828 11.99.031 6.078-4.896.542-18.172.542-18.172-4.024 5.93-9.116 11.039-9.909 11.329zM402.865 420.278c-1.013 2.363-3.904 7.757-6.584 9.453-.248-3.011 3.322-7.546 1.93-6.788-.89.484-4.874 9.169-5.137 9.827-.676 1.688 3.883 5.065 8.103 3.208 4.22-1.857 5.402-5.909 5.233-7.09-.168-1.182-3.545-8.61-3.545-8.61z"/><path fill="#8c9e00" d="M502.638 371.151c5.402-3.376 14.18-12.155 15.869-19.92 1.688-7.766.954-19.327.337-20.934-1.132-2.95-.783 3.603-2.395 8.724-.2.633-4.761-9.521-6.614-11.362-.547 1.155-1.678 2.687-1.917 3.36-.593 1.669 5.983 15.222 5.524 15.484-2.363 1.351-9.116 23.635-10.804 24.648z"/><path fill="#f2d5c4" d="M186.033 361.793c-.836 1.313-1.672 6.804-3.94 7.043-2.268.239-9.08-5.421-10.631-6.734-1.552-1.313 12.66-4.606 14.57-.309z"/><path fill="#00a9ab" d="M153.256 52.873c3-14.926 14.185-37.255 11.44-25.442-1.894 8.145-3.778 18.34-2.777 28.518 1.645 16.727 7.582 32.714 8.187 34.327 1.87 4.987-10.107-22.914-10.107-22.914-6.73-3.384-3.626-16.983-6.743-14.489zM118.704 54.876c-2.494 4.364-4.356 21.806 3.33 40.997.628 1.567-4.71-9.567-8.47-12.005-6.347-4.113-12.793-1.403-10.445-2.186 3.74-1.247 8.728 3.74 8.104-5.61-.623-9.352 3.74-26.183 7.48-21.196z"/><path fill="#99c4df" d="M144.442 231.36c-1.284 23.4 8.147 33.57 12.73 38.952 1.62 4.67 6.931 12.59 6.931 12.59s-3.647.91-5.63.249c-1.984-.661-14.258-20.437-15.353-31.184-1.212-11.901 1.322-20.607 1.322-20.607z"/><path fill="#fff" d="M191.388 269.269a5.18 5.18 0 11-10.36 0 5.18 5.18 0 0110.36 0zM178.825 262.436a2.755 2.755 0 11-5.51 0 2.755 2.755 0 015.51 0z"/><path fill="#ba5100" d="M176.29 218.026c3.775 2.235 5.014 7.383 6.116 7.824 1.102.44 1.268 1.102-.275-2.424-1.543-3.527-2.891-6.743-2.007-6.085 2.314 1.723 2.469 5.033 3.99 6.636 1.05 1.105-2.865-9.918-3.085-10.58-.22-.66 10.57 11.643 11.497 17.409 0 0-13.62-7.477-21.2 17.277-5.26 17.174 4.049 33.318 4.672 35.278.035.11-8.229-.179-9.359-1.043-.512-.392 3.496-1.773 4.004-2.232.312-.281-6.025-.172-5.37-.31 4.117-.871 4.69-2.335 4.147-2.23-3.279.64-6.321.437-5.144.12 2.47-.663 3.556-1.027 4.958-2.27.893-.792-.334-1.283-1.466-.964-2.472.696-5.757-.763-6.368-.763-1.763 0 3.072-.087 4.835-.527 1.764-.441 2.189-.495 1.087-1.376-1.102-.882-4.775-1.164-6.038-2.05-.665-.468 4.52.189 6.1-.927.914-.646-2.749-1.13-2.021-1.291 1.983-.44 2.996-1.178.792-1.178-2.204 0-3.856-.175-4.764-.201-3.571-.103-4.326-1.536-2.988-1.465 2.74.145 7.748-.809 8.389-1.083 2.314-.992-1.064-.73-1.505-1.39-.44-.662-4.822.211-6.585.211-1.764 0-.412-.8.728-.957 2.313-.32 5.746-1.272 5.113-1.886-.68-.66-3.111-.407-3.55-1.318-.235-.49-4.75-.489-5.1-.72-2.905-1.924 11.083-.68 10.606-1.045-1.303-.995-7.963-2.457-7.852-2.93.28-1.192 9.05 1.154 8.584.647-.918-.998-6.144-2.477-6.153-3.105-.007-.442 6.338.816 6.048.575-1.323-1.102-4.355-1.906-7-2.567-2.644-.662-1.18-.906.143-1.127.13-.022 6.785.7 8.072.693.921-.005-7.137-2.534-11.762-3.906-.547-.162 13.039 1.15 12.816.73-.62-1.172-9.75-3.546-8.677-3.932 1.314-.474 8.764 1.269 9.112.965.432-.379-8.602-4.338-9.295-4.698-6.754-3.5 10.01 3.172 9.735 2.604-.432-.893-6.393-4.598-6.035-4.943.543-.523 7.376 3.277 5.872 1.57-1.487-1.687-7.05-4.844-5.438-4.24 5.11 1.916 7.165 4.243 7.034 2.682-.09-1.07-8.463-5.294-6.124-5.745 2.614-.503 4.993 2.66 6.876 4.102 1.107.847.843-2.1-1.691-3.752-1.702-1.11-7.13-5.43-5.158-5.121 4.4.688 9.186 7.586 8.602 6.228-1.239-2.878-6.2-7.97-5.512-7.88 2.045.267 7.654 6.828 7.714 6.55.329-1.53-5.404-7.714-4.984-8.27.601-.8 6.391 5.85 5.915 5.112-.639-.992-7.035-9.852-6.6-10.273.567-.55 6.823 6.472 7.55 8.05.612 1.326 2.62 3.06 2.436 2.69-.441-.88-.953-3.444-1.516-4.19-1.874-2.48-4.262-5.753-2.92-4.96z"/><path fill="#876400" d="M149.056 150.893c6.374 19.234 12.41 19.993 14.091 21.347 2.228 1.793 17.184 2.4 20.077-.011 1.87-1.559-2.337 5.298-8.104 7.169-7.983 2.589-10.282 2.556-12.102 1.31-15.824-10.826-13.962-29.816-13.962-29.816z"/><path fill="#9d5d00" d="M174.625 283.044c-7.053-2.975-14.79-9.885-16.285-11.819.407 2.768 6.049 11.599 6.49 11.819.44.22 9.795 0 9.795 0z"/><path fill="#505b00" d="M223.782 212.958c-3.428 4.675-5.34 4.778-5.34 8.206 0 3.43-.662 10.088-2.22 11.335-1.559 1.247-8.294 1.961-11.099.091-2.805-1.87-18.158-25.296-25.015-29.036-6.858-3.74-21.712-3.996-23.29-.548-.433.946 1.44 1.607 3.168 1.283 2.312-.433 1.378.654-.112 1.741-7.25 5.292-10.207 12.47-9.455 11.68 12.118-12.715 19.238-13.121 23.121-11.745 11.372 8.063 23.297 25.097 24.828 27.01 2.494 3.118 4.87 6.237 6.379 6.735 7.73 2.554 14.01-1.87 15.88-7.48 1.87-5.61.936-9.04 2.183-10.91 1.246-1.87 4.401-2.751.972-8.362zM182.134 288.802c2.365-.58 3.198-2.244 4.843-1.754.856.255 8.765-7.202 11.185-13.464-.768 5.833-5.154 14.924-8.89 15.572-1.962.34-2.29 3.5-3.554 3.542-4.675.156-3.584-3.896-3.584-3.896zM199.12 240.49c3.585 5.454 3.741 17.143 3.741 18.701 0 1.559 1.559-14.338.624-16.831-.936-2.494-4.208-3.585-4.364-1.87z"/><path fill="#00a9ab" d="M32.053 182.047c-.312 8.727-1.87 14.961 1.247 17.766 3.117 2.806 14.204 10.164 13.892 13.904-.312 3.74-5.099-1.336-5.099 8.639 0 9.974 1.648 21.006 9.128 26.305 7.481 5.298 15.742 11.621 20.729 10.998 2.392-.3 1.24 2.829 5.15 3.187 4.244.388 13.507-1.96 14.642-1.473 1.55.664-7.664 5.154-15.378 5.944-3.154.323-6.707-2.179-8.154-2.36-4.987-.623-27.118-9.35-30.858-16.52-3.74-7.168-4.052-32.727-5.922-36.467-1.87-3.74-8.728-5.923-7.17-13.715 1.56-7.792 7.793-16.208 7.793-16.208z"/><path fill="#876400" d="M291.57 148.79c-4.412 2.942-11.001 12.09-11.307 18.122-2.32-1.619-4.721-14.84-2.147-15.575 2.574-.735 12.352-4.385 13.455-2.547z"/><path fill="#505b00" d="M183.066 173.557c-6.04 8.052-18.923 11.676-21.74 11.676-2.819 0-6.644-5.838-4.832-8.455 0 0 3.48 3.665 7.06 3.86 5.476.3 15.996-3.151 19.512-7.08zM277.816 148.48c-2.125-3.488-7.727-7.06-9.759-6.442-2.306.701-14.013-2.73-9.442.794 2.055 0 4.222 3.322 9.087 3.375 3.955.044 6.72 4.295 8.01 6.053.42.574 4.036-.74 2.104-3.78zM130.23 227.866c-7.878 21.101 7.902 38.383 8.917 40.596 3.428 7.48 11.038 10.522 13.22 12.392 2.182 1.87-10.4 2.509-15.698-5.283-5.3-7.793-17.414-26.506-6.439-47.705z"/><path fill="#876400" d="M285.861 236.736c-3.089 23.061-15.88 29.04-16.884 31.298-1.747 3.926.823 10.295-1.236 7.824-2.059-2.47-4.941-8.236-3.706-11.53 1.235-3.295 20.59-23.062 21.826-27.592z"/><path fill="#8c3c00" d="M191.35 230.353c-9.883-.412-18.12 9.883-20.384 24.914-2.265 15.032 3.448 24.786 6.36 29.518 0 0-3.478-.485-3.684-1.514-.206-1.03-2.325-1.383-.823-3.295.48-.61-.412-1.235-1.648-1.647-1.235-.412.31-.309.515-1.544.061-.368.329-1.628-.084-1.332-.734.528-1.794-.783-1.048-1.485.728-.685-.179-1.377-.412-1.61-.824-.824-.463 0-.257-.824.083-.334.502-1.207-.012-1.375-2.88-.94-.289-1.64-.349-2.125-.069-.562-.168-1.137-.412-1.648-.147-.31.824-.206-.617-.823-1.442-.618-3.346-.566-.875-1.39 2.47-.824 1.75-1.853.103-2.677-.96-.48-1.201-1.656.443-2.345.747-.313-.96-2.442-.289-2.442.566 0 1.132-.206.309-1.442-.824-1.235.16-1.703-.824-2.213-1.263-.655 2.315-1 2.736-1.539.505-.647-1.299-.585-1.86-1.035-1.03-.823 3.088-.463 1.801-3.294-.518-1.14 2.368-.978 1.132-2.008-1.235-1.03-.411-.206.206-1.441.618-1.236 1.03-1.03.618-2.06-.412-1.029 0-2.264 1.03-2.47 1.03-.206 2.676-1.03 1.853-2.06-.824-1.029-.412-3.088.823-2.058 1.236 1.03 2.107.821 2.313-2.473.058-.925 2.02.155 2.172-.321.386-1.223-1.12-3.747-.379-3.451 1.03.412 2.014.53 1.866-.962-.073-.736.424-.237 1.958 1.678 1.858 2.318.483-2.815.766-2.499 1.235 1.376 1.649.901 1.54.432-.752-3.238-.116-1.622 1.398.8.546.874.309-1.852-.618-4.426-.418-1.163 1.236.103 2.471.72 1.236.618 2.574 5.148 2.162 5.766z"/><path fill="#432a00" d="M191.041 230.044c-5.147-.154-18.145 3.794-20.693 26.253-1.803 15.892 6.383 28.21 7 28.312.618.103.721.206 1.236.206s-10.913-12.457-6.486-33.048c4.427-20.59 16.987-20.693 18.532-20.796 1.047-.07.411-.927.411-.927z"/><path fill="#af8479" d="M157.324 270.556c.258.309.927.824.927.824 1.03 3.191 5.662 10.5 5.971 10.758.309.258-.257.258-.566.155-.309-.103-5.045-7.67-6.332-11.737z"/><path fill="#505b00" d="M142.345 241.266c.411 29.033 12.972 41.181 13.59 41.387.617.206 3.5 1.441 2.059 0-1.442-1.441-15.443-19.973-15.65-41.387zM261.151 355.839c-5.824 4.659-10.312 5.994-14.389 5.703-4.077-.291-24.319-1.415-30.143-4.327-5.824-2.912-51.25-13.395-62.315-22.713-11.066-9.318 10.483 18.345 45.135 23.878 34.652 5.533 40.185 16.307 48.92 14.85 8.736-1.455 18.054-9.9 18.054-11.064 0-1.165-5.262-6.328-5.262-6.328z"/><path fill="#00a9ab" d="M110.017 256.091c7.825-2.883 12.355-3.294 12.767 4.942.411 8.236 1.235 10.707-2.06 12.354-3.294 1.647-21.825 14.414-21.414 18.944.241 2.648 7.44 10.462 12.666 14.076 3.711 2.567 11.095-4.252 12.634-4.252 3.706 0-3.474 14.472-12.533 12.002-9.06-2.471-27.592-14.826-25.533-22.238 2.06-7.413 27.18-20.59 28.415-24.297 1.236-3.706-.823-8.648-4.942-11.53z"/><path fill="#505b00" d="M297.186 212.85c-4.118 2.06-5.971 2.472-7.207 2.266-1.235-.206 3.706 1.235 5.354.823 1.647-.411 1.853-3.088 1.853-3.088zM610.023 364.204c-5.241 14.56-12.812 20.384-14.56 26.79-1.747 6.406-35.525 27.954-47.755 29.12-6.656.633-39.29-3.122-54.172-8.078-.603-.201-13.46-4.345-32.043-21.885-9.505-8.973-50.942-36.735-57.439-32.985-2.211 1.276 13.782 9.209 27.172 19.852 14.845 11.8 28.037 26.777 43.127 36.36 11.851 7.528 22.948 9.065 22.687 9.065-2.33 0 26.79 9.9 47.173 6.989 20.384-2.912 54.745-26.79 58.822-33.78 4.076-6.988 6.988-31.448 6.988-31.448zM233.509 302.325c1.747-.291 3.988-5.372 4.134-6.39.145-1.02-.738-5.885-2.802-7.064-1.921-1.006-3.534-2.978-1.77-4.891 1.457-.583 2.913-1.747 4.223-.583 1.31 1.165 6.472 8.623 6.042 10.556-.582 2.62-5.896 7.644-6.188 8.663-.29 1.02-2.766.291-3.64-.291zM440.702 221.293c.593-2.372 1.257-3.939 2.072-6.04.6-1.545 3.419-3.543 3.36-4.19-.218-2.38-6.461 3.23-7.594 5.494-1.132 2.265-2.78 5.148-2.883 5.766-.103.617 4.736-.412 5.045-1.03zM267.141 359.836c2.621.437 7.135.728 10.047-1.456 2.912-2.184 17.908-16.452 22.858-25.916 4.95-9.464-15.433 30.284-21.694 31.886-6.26 1.601-7.716.436-9.755-.292-2.038-.728-1.456-4.222-1.456-4.222zM265.249 266.071c-1.02 5.387 4.513 12.23 8.153 14.269-5.241-1.456-12.23-10.774-12.23-10.774s1.747-5.242 4.077-3.495z"/><path fill="#00a9ab" d="M259.686 426.016c10.982 1.91 21.965-7.64 25.785-10.028 3.82-2.387 49.659-9.072 49.659-9.072l1.313-5.372s-11.693-7.646-11.573-12.301c1.074-4.656 16.945-11.454 16.945-11.454l6.685-2.865s9.207-8.16-9.073-1.432c-12.921 4.755-23.226 8.187-28.604 8.63-5.222.431-7.482-2.34-8.556-.849-4.634 6.431-23.004 8.93-24.914 8.93-1.91 0-6.207 0-5.73 3.343.478 3.343 1.91 12.893-.955 14.803-2.865 1.91-10.982 17.667-10.982 17.667z"/><path fill="#0075ad" d="M270.004 408.967c12.83-1.689 25.947-10.103 27.426-12.067 3.605-4.784 2.538 1.717 7.05 1.067 8.42-1.21 21.572-5.207 21.572-5.207s7.766 9.454 9.792 9.454 1.013 5.402-1.688 5.74c-2.701.337-44.906 5.064-48.283 8.103-3.376 3.039-18.907 10.467-23.972 9.792-5.065-.676 5.402-7.766 8.103-16.882zM303.643 331.068c4.918-.194 13.692 3.343 15.084 4.853 1.392 1.51-4.87-.04-6.739-.43-1.87-.39-9.164-1.667-10.995-1.073-1.83.594 2.65-3.35 2.65-3.35z"/><path fill="#005593" d="M232.946 369.194c-4.297 9.55-1.91 42.497 3.343 46.317 5.252 3.82 20.055 10.505 24.352 8.117 4.297-2.387 10.674-19.776 11.937-33.424 0 0-4.775-4.298-6.207-7.64-1.433-3.343 2.387-9.55 2.387-9.55s-4.297-3.82-4.775-6.207c-.477-2.388-5.252 8.595-11.46 6.685-6.207-1.91-19.577-4.298-19.577-4.298z"/><path fill="#008893" d="M189.646 354.944c-1.013 4.052-9.454 16.545-6.077 26.336 3.376 9.792 9.791 21.947 13.843 23.973 4.052 2.025 29.712-.676 30.725-4.052 1.013-3.376 5.74-29.375 5.74-30.725 0-1.35-44.23-15.532-44.23-15.532z"/><path fill="#00a9ab" d="M169.83 358.564c-9.136-4.04-10.571-3.957-12.597-7.334-3.81-6.35-10.467-18.232-12.155-21.609-1.688-3.376 8.778 9.454 11.817 11.48 3.039 2.026 33.426 13.843 33.426 13.843s-3.642 1.945-3.305 5.322c-1.59.438-11.037-.018-17.186-1.702z"/><path fill="#0075ad" d="M152.844 337.387c1.688 8.779 1.688 18.233 3.038 19.583 1.35 1.35 27.687 24.648 27.687 24.648s8.44 16.882 9.454 19.583c1.012 2.701-43.556-28.362-47.608-43.893-4.051-15.532-1.012-28.024-1.012-28.024z"/><path fill="#bb9b7b" d="M283.847 378.41c-1.012 2.87-8.947 4.558-9.791 4.558-.844 0-.844 2.702-.507 4.559.338 1.857 8.273-2.702 10.298-9.117z"/><path fill="#996f4d" d="M268.758 374.208c2.388 1.91 4.298 2.865 4.775 4.775.478 1.91 2.388 6.685.478 8.356-1.91 1.671-5.253-2.626-7.163-3.581-1.91-.955-.238-9.789 1.91-9.55z"/><path fill="#bb9b7b" d="M357.177 394.18c.337 6.078-6.477 13.774-8.503 14.955-2.026 1.182-8.61 3.546-10.467 2.702-1.857-.845 11.142 6.415 13.844 3.545 2.7-2.87 5.97-18.332 5.126-21.202zM374.143 406.94c1.013 9.792-5.38 14.013-5.548 14.688-.169.675-6.753 2.364-10.298.844 4.39 5.065 11.986 5.065 14.35 3.714 2.363-1.35 1.496-19.245 1.496-19.245zM389.022 417.408c-.169 7.596-3.376 10.804-4.39 11.648-1.012.844-5.364 5.007-7.728 3.994-2.363-1.013 4.352 4.447 8.235 2.421 3.883-2.026 7.819-12.441 3.883-18.063zM403.491 421.18c0 2.87-2.455 8.62-3.496 10.07-1.054 1.47-3.883 3.04-5.57 2.533-1.689-.506 3.882 4.896 6.583 3.039 2.701-1.857 4.896-3.714 5.065-5.402.169-1.689-2.582-10.24-2.582-10.24zM348.505 379.592c-3.545 7.428-9.919 12.897-11.776 14.247-1.857 1.35-8.53 1.767-8.53 1.767s8.32 6.439 10.008 4.582c1.689-1.857 11.477-16.219 10.298-20.596zM277.89 366.687c-1.492 2.209-8.415 4.059-9.49 4-1.074-.06 1.015-3.284.896-3.582-.12-.298 7.281.12 8.594-.418z"/><path fill="#996f4d" d="M269.115 367.593c-.06.805-.492 2.258-1.089 2.377-.596.12-1.834-1.73-1.834-2.387s2.625-.289 2.923.01zM182.093 368.358c-2.03-.358-7.998-3.103-10.505-6.684-.596 5.013 7.52 13.608 9.55 13.25 2.03-.358.955-6.566.955-6.566z"/><path fill="#bb9b7b" d="M185.674 361.554c-.407.102-1.137.242-1.49.425-3.118 1.61-4.315 7.998-2.568 11.274 1.91 3.581 5.38-1.607 6.434-4.565 1.12-3.142.956-5.206-.098-6.26-.667-.668 1.727-1.875-2.278-.874z"/><path fill="#6f602f" d="M350.729 415.201c-.297-2.595 4.252-6.58 5.88-13.831.563-2.51.707-7.181-.015-10.674 1.31 1.01 2.39 4.084 2.747 7.855.535 5.62-5.071 12.19-4.84 16.959-1.316.997-2.952.722-3.772-.309zM373.782 402.705c.776 6.386 1.16 14.803-1.766 20.804-.736 1.51 2.478.562 3.044-.716 3.766-8.503-1.278-20.088-1.278-20.088zM389.326 415.392c2.864 3.223 1.074 15.876-.24 16.831-1.312.955-5.646 2.064-5.132 1.313 1.552-2.268 6.804-9.43 5.372-18.144zM170.622 362.344c1.643-1.138 12.817-2.087 15.588-.862 1.075.063-.107-1.607-.107-1.607-3.538-.695-11.929.03-13.256.535-1.55.416-2.225 1.934-2.225 1.934z"/><g><path d="M240.32 292.928c-.09-2.508-1.172-3.767-3.191-9.698 4.443 2.455 5.45 4.49 6.817 10.024 0 0-4.893 7.329-6.345 7.314-.665-.006 2.43-6.192 2.719-7.64zM299.71 263.383c-.571 5.075-3.219 16.607-5.997 17.87-3.163 1.44-6.734.861-5.064 1.04 1.905-.745 3.643-1.975 4.59-3.283.952-3.59 3.142-11.687 2.545-15.72-.851-5.755-3.473-17.211-6.89-23.914-.563-1.106-2.085-2.169-3.107-2.386-4.602 18.755-17.158 24.104-18.141 26.865-3.824 1.424-1.312 5.374-2.135 8.621-.855-.163-3.327-2.867-4.121-5.128-.757-2.153.552-5.598 1.558-6.433 8.878-5.11 16.45-13.54 18.485-19.985.994-3.148.872-9.688 1.857-9.107 1.032.609 6.607 3.097 7.744 4.86 4.674 7.254 9.298 21.18 8.677 26.7z" fill="#000000;fill-rule:evenodd;stroke:none"/><path d="M491.383 353.173c-5.431 3.4-13.661 7.267-13.84 8.166 4.934 1.4 17.28 7.256 21.24 6.522 7.362-1.364 7.602-17.408 8.845-22.483.69-2.816-1.737-4.552-1.839-6.026-6.356 7.288-2.976 6.666-14.406 13.821zm-98.637 78.543c-.416-4.058 5.454-11.361 8.28-14.099.483-.467 2.604-.355 2.642.146l.444 5.79c-.157-.84-1.066-2.378-1.304-3.15-5.07 1.783-11.45 11.152-6.987 13.432 4.201 2.145 5.826-.113 8.243-3.795l5.481.015c4.399-.358 14.533-.014 20.7-8.7.375-.527 9.408-9.146 9.325-15.874 3.013-5.332 5.75-10.427 6.41-12.407-3.749-5.385-23.6-16.655-32.638-26.843-3.305-3.725-16.025-8.86-22.764-6.062-5.996 2.49-13.88.138-13.997-1.238-.47-5.521 18.516-14.646 27.685-15.992 8.362-1.227 24.313.299 35.103 1.226 4.386.377 24.517 10.384 28.982 11.395.872-1.76-1.035-7.181-.214-7.75 4.343 2.693 3.847 3.833 4.89 6.94.205.608.132 2.593.728 2.78 7.746-.564 15.986-7.487 19.714-10.335 6.174-4.716 8.706-11.948 10.5-12.821-.96-1.61-1.337-6.077-1.665-8.095.3-.8 1.21-.99 1.8-1.5 2.833 2.243 12.406 17.036 9.985 28.289-.578 2.685-8.573 18.95-12.09 18.569-4.964-.537-12.964.356-25.217-6.41-6.048-3.34-29.565-14.34-37.188-15.576-14.374-2.33-23.703-4.402-31.662-3.752-13.754 1.125-20.786 6.877-23.767 8.246-3.015 1.385-3.662 6.672 1.985 4.556 15.124-5.666 24.044-1.27 28.446 1.178 5.893 3.277 26.863 23.08 38.82 32.994 12.292 10.194 23.298 21.773 30.293 24.037 17.056 5.519 49.475 10.453 59.47 9.747 21.623-1.527 46.792-21.433 54.399-29.683 7.606-8.25 8.055-25.334 11.233-52 2.117-17.762-13.526-74.244-22.425-95.241-7.78-18.356-24.483-32.082-34.498-45.13-9.42-12.275-16.07-27.38-34.415-41.198-19.72-14.852-67.771-28.529-104.561-26.917-36.065 1.58-22.993 7.946-54.378 17.091-1.133.33-.166 8.277-5.211 8.835 11.621 6.558 1.739 22.148.373 24.273-1.641 2.554-5.532-1.186-6.196 3.542-1.377 9.814-1.43 24.097-8.771 34.637-2.492 3.577-7.68 6.27-13.438 8.277.996 5.732-22.982 5.052-24.35 5.362 1.036 8.908 5.813 20.186 10.112 26.631 2.298 3.447 6.046 5.987 6.598 10.2 1.13 12.786-.088 23.036-4.404 35.019-2.7 7.492-3.634 12.103-7.205 20.863-3.632 8.912-9.777 13.746-14.534 21.143-5.033 7.826-8.63 10.6-12.682 14.013-1.683 1.418-1.91 1.328-3.74 2.75-1.596 1.238-4.253 1.471-6.703 2.128.25.098.567 1.046.311 1.577 3.938-.215 9.454.278 12.027 1.108 1.221.393 2.89 1.659 3.658 2.168.54.797.388 3.106.272 3.723-.723 3.846-6.03 7.35-10.382 8.73 1.784 1.851-.092 14.138-1.663 18.438-2.049 5.605-5.394 8.553-7.686 12.042 11.124.247 21.926-4.142 28.55-9.37 2.896 1.394 16.027-.357 20.133-1.81 9.054-3.206 17.593-1.154 19.744-4.503-3.99-1.058-11.329-7.495-12.082-12.755-.685-4.784 9.562-14.377 24.152-17.124 3.985-6.501 7.084-11.618 11.57-13.369.49-5.187 2.52-8.538 9.295-16.458 2.559-2.991 1.864-7.7 3.05-13.763.738-3.776 1.9-39.817 3.071-43.071 1.366-3.796 17.951-43.634 42.157-53.883 7.6-3.218 6.468-2.22 15.076-7.936 6.093-3.57 6.872-2.79 10.72-4.674 12.432-6.085 32.4.11 13.483 1.157-13.556.75-28.024 10.86-38.85 15.745-15.358 6.93-32.965 38.382-35.193 47.183-5.717 22.585-4.085 51.423-10.775 61.977-4.69 5.717-8.224 10.972-7.72 15.788-3.843.991-8.736 16.355-12.31 15.539l-1.842-.42c-3.497-.798-7.959 1.966-11.617 3.788-4.98 2.482-9.877 7.151-9.787 8.768.122 2.185 3.575 6.913 11.011 8.524 1.528-.275 2.176.525 4.454-.66 3.618-3.396 8.615-6.783 13.313-7.626.73-.131 1.518.538 2.165.601.54 3.045.58 7.001.526 6.605-.393-2.867-1.683-4.336-2.691-4.11-4.817.79-8.202 3.787-11.276 7.174-4.12 4.536-7.382 8.021-2.01 11.53 3.22 2.103 7.258 4.113 9.395 3.392 1.257-.424 2.359-.55 3.243-.54.978 1.328 2.322.392 2.322.392 6.557-10.863 10.898-13.016 14.34-13.664.785-.147 1.782-.124 2.913.559 2.022.953 1.023 6.82 1.023 6.82-.186-1.458-2.046-3.516-2.67-4.641-6.063.369-11.465 7.085-13.119 11.768.199 3.17-1.11 5.981 1.618 7.326 2.88 1.42 7.57 2.766 10.905 1.174 2.017-.963 2.352-.741 2.352-.741 4.518-7.745 9.522-11.235 13.756-12.347 0 0 2.426 1.125 2.83 2.379.54 1.672.354 4.03-.533 6.76-.806-2.807-.464-4.773-2.267-5.767-5.953 2.063-9.537 5.697-12.776 11.037-.599 2.346.781 5.567 2.546 6.87 2.889 2.132 9.314 1.652 11.458-1.114zm-125.989-50.493c-.066 2.084 4.075 6.293 6.37 6.285 3.833-1.063 10.266-6.299 9.885-9.352-.097-.776-.963-2.129-2.213-2.572-1.571-.557-7.59-.94-9.662-.856-.895.037-2.648-.53-3.452.305-1.54 1.602-.88 4.662-.928 6.19zm8.599-13.844c-2.464.82-7.208 1.305-8.106.4-.502 1.043.687 2.006 1.668 1.969 1.734-.065 2.707.034 3.86-.458 1.105-.472 2.36-1.2 2.578-1.91zm-36.802 37.708c5.668 16.755 13.77 16.007 19.767 15.515 3.554-4.453 7.866-8.458 9.8-13.601 1.81-4.818 1.383-10.7.699-17-3.203-2.372-5.533-4.881-5.89-8.554-.325-3.347.887-5.425 3.19-7.945a43.982 43.982 0 01-3.973-2.001c-8.22 9.439-23.01 5.335-27.567 3.949-4.661 23.435 2.844 27 3.974 29.637zm-9.314-32.893c-7.273-2.636-23.18-11.293-35.746-13.872 0 0-1.767.631-2.21 2.665-.682 2.013 1.7 5.563-.178 10.102-1.245 3.012-2.551 6.223-4.798 6.819-.18 7.938 9.946 23.794 10.455 24.103 10.612 6.452 25.977.165 30.02-5.538 0 0-.682-14.381 2.457-24.279zm-56.954-10.41c-1.25 3.225 5.679 11.239 10.71 11.358 3.342.12 5.447-7.145 5.21-9.29-.145-1.315-.833-2.231-1.73-2.226 0 0-.267-1.146-.296-1.728-.066-1.327 1.097-2.436 1.116-3.03-2.03-.552-12.729-4.969-12.729-4.969-13.049-3.235-9.733-3.14-17.576-7.614-6.091-3.475-6.176-5.917-9.919-9.28l-.764 18.509c-.342 8.278 19.711 30.24 42.444 43.174-4.072-5.444-7.224-7.867-7.73-17.736-.855-.24 1.262-2.723.487-3.014-5.415-2.028-9.119-7.452-10.483-10.836-.402-.996-.503-2.36-.463-2.883.619-.27 1.087-.36 1.723-.435zm17.812-206.435c.316 2.216 2.165 5.253.147 5.906-2.198-.87-1.553-2.918-2.4-4.5-1.538-2.879-2.668-6.428-7.38-9.274-3.158-1.907-9.868-3.498-12.153-4.358-1.89-1.786-6.801-8.977-8.566-12.234-.77-1.422-2.822-.52-3.583.323-2.53 2.803-3.824 6.17-4.508 9.55-1.86 9.195-.394 18.636.712 21.613 1.498 4.031 4.348 12.1 7.524 14.565 1.87 1.452 7.334 5.923.074 3.063-5.08-2.002-10.826-10.044-12.254-14.404-1.298-3.964-4.042-29.089 5.865-40.465 1.222-1.404 4.85-.218 6.637-.56 4.679 7.8 8.568 13.04 10.904 13.563 10.987 2.46 13.182 3.949 16.882 12.412zm88.347-7.594c7.176.734 11.862-1.655 19.022-7.306 1.26-.994 3.946-5.983 5.874-8.822 1.088-1.602 2.988-3.136 3.515-3.531.7-.166 3.335.553 4.664 2.438 2.673 3.793 6.828 15.421 6.354 22.174-.523 7.44-5.923 24.937-14.227 32.547 7.477 6.99 9.293 15.748 6.686 23.24-1.586 4.558-5.261 8.676-11.494 9.908-1.189 8.125-.458 7.663.929 14.996 4.711-.354 19.288-2.182 21.206-5.68 6.843-1.07 9.655-4.232 11.72-6.224 16.053-15.49.415-28.235 12.178-35.122 8.605-5.037 9.234-14.499 4.472-21.421.692-10.048 3.366-3.769 2.836-13.372-.853-15.452-15.931-22.923-16.433-25.125-1.973-4.454-5.953-3.897-9.785-6.988-1.979-1.597.9-4.943 1.157-7.556.399-4.032 7.208-21.098-3.007-31.476-5.359-5.444-23.4-4.844-30.298-7.647.488-3.795 4.67-18.106 1.388-26.679-1.678-4.381-13.222-3.81-20.528-2.429-6.063 1.147-9.556 2.973-13.162 4.934-4.471-1.248 1.44-1.818-.467-4.06-.938-1.102-6.384-19.479-16.088-21.504-12.16-2.538-22.237-4.934-35.216-4.825-18.765.159-28.495 6.191-41.776 10.154-9.7 2.895-11.59 24.037-11.32 26.976.135 1.46 1.727 2.028 1.502 3.6-.794 1.317-1.785 1.91-3.002 1.5-3.951-1.383-6.564-4.908-12.057-6.266-8.801-2.176-20.85-1.55-26.447 1.576-2.598 7.701-5.597 14.212-4.676 26.97-6.097 4.957-33.301.11-43.19 12.215-9.89 12.105-5.683 23.348-4.557 32.895-.858 3.882-3.198 12.966-10.415 12.562-6.62 3.178-17.018 16.837-19.31 25.881-.97 3.824 1.146 10.811 5.223 18.103-.974.86-5.678-4.3-6.581-3.177-3.642 4.533-6.398 10.915-5.776 16.78 1.005 9.47 4.645 4.404 6.95 13.844.88 3.597-.32 17.778.836 23.217 5.921 27.862 33.73 27.521 35.414 29.718 3.4 4.437 25.504-6.678 39.038-9.115 3.962-.595 7.106 2.102 7.748 4.297.807 2.748 1.169 5.61-.9 8.4-3.968 6.466-12.446 8.55-18.6 14.4-2.845 2.705-9.056 7.78-7.5 13.8 1.614 3.49 4.218 5.17 7.2 7.5 2.415 1.885 9.314 6.345 12.3 6.9 8.47 1.576 19.213-15.894 19.964-18.44.433-1.47 1.585-10.898 5.236-14.86-1.614-1.978-3.753-8.964-4.522-13.314 5.002 8.956 9.851 12.047 9.024 13.314-1.02 1.386-3.398 6.14-3.993 12.483-2.002 21.352 15.97 45.919 27.391 52.846 5.72 3.47 26.066 8.665 40.185 12.805 11.106 3.256 21.177 7.528 26.715 9.766 4.674 1.887 9.557 3.89 13.8 5.1 10.695 3.043 14.984-2.48 19.84-7.653-2.375-2.318-3.473-7.919-4.543-8.9-1.9-1.74-17.946-3.653-30.847.835-.792-1.387-.792-9.512-9.115-10.106-10.281-.734-20.727-1.132-24.134-.73-4.4.521-16.66-7.926-19.9-10.346-3.542-2.645-7.718-14.074-6.9-23.4.6-1.194.603-3.197 2.7-3-2.003 11.296 3.256 20.2 7.505 23.44 3.02 2.305 15.977 8.603 17.994 8.36 4.242-.512 21.485.381 26.5 1.513 6.143 1.387 7.878 5.21 8.6 8.387 3.884-1.45 5.721-1.9 8.7-2.4 6.884-1.155 19.44 1.99 21.428 3.847 1.72 1.606 5.948 7.072 7.144 11.513 2.736.43 4.165 1.879 7.472.9 31.03-24.757 39.594-79.515 34.458-86.46-2.012-2.242-4.472-5.1-6.002-8.4-3.725-8.038-10.201-35.373-10.66-43.707-.166-3.03-.241-7.992 1.662-10.293 1.83-2.217 6.017-2.433 8.398-3.9 3.217-1.858 1.936-15.87-4.27-22.307-3.877-1.92-2.77-.035-7.41-5.902 4.65 1.091 5.444 1.015 8.595 1.002 6.768-11.656 12.458-18.433 11.871-34.899-.25-7.007-3.503-14.263-4.462-14.991-.378.368-1.61.826-1.997 1.336-1.492 1.97-2.15 4.72-3.314 6.1-4.534 5.377-8.585 7.518-15.049 10.512-2.456 1.136-4.744 1.26-8.197.964-1.142-.098-2.355 1.81-2.667 4.194-.997-1.564-1.85-3.498-1.516-4.808.523-2.059 1.428-3.082 2.916-3.601zm-188.999 156.3c-2.758-3.08-5.017-6.98-4.8-11.7 2.755-14.107 23.762-19.26 27.6-26.7 1.116-2.467.72-5.043-2.4-4.5-10.3 1.328-21.526 7.703-33.3 8.4-5.663.335-5.796-.075-8.388-2.025-5.814-4.372-25.894 1.863-35.413-23.175-3.06-8.05-.849-20.693-3.158-30.994-.878-3.916-5.592-5.198-6.44-8.606-2.526-10.13-.017-20.29 5.998-26.7-1.587-7.605-1.587-11.767 2.4-19.5 4.843-7.783 17.044-19.703 22.985-22.044 5.6-2.207 3.303-6.879 4.315-12.756.909-5.265-4.736-22.878 4.976-33.56 11.89-13.08 37.762-7.42 42.233-12.56-.532-8.73 4.694-23.49 9.38-27.628 4.396-2.687 16.834-2.501 25.564-1.2 5.437.81 6.801 2.925 10.848 4.148 3.128-13.887 9.52-34.347 14.277-32.143 12.314 5.706 19.83-7.676 40.968-8.576 31.047-1.323 35.61 6.833 42.163 5.42 9.455-2.04 14.234 22.689 18.475 24.385 1.807-1.358 5.304-2.409 8.398-3.302 5.255-1.517 21.393-2.97 25.002 7.455 2.095 6.054-2.808 15.123-2.003 22.377 7.004 1.504 19.511-.29 24.686 2.864 16.753 10.212 10.29 33.219 9.156 41.752-.662 4.982 1.99 3.018 6.891 8.316 2.361 5.06 16.705 9.536 14.595 15.197-.753 2.025 4.65 3.254 4.487 10.397 24.999-3.535 20.37-19.042 62.375-17.554 34.707 1.229 81.887 11.312 99.264 27.008 14.147 12.778 27.755 30.477 40.987 50.573 7.78 11.813 22.326 23.96 34.342 46.648 13.25 25.018 19.724 66.12 20.466 95.405.246 9.71-8.822 44.785-16.475 52.38-10.927 10.844-33.082 31.078-53.607 30.416-19.281-.621-46.523-4.767-61.986-11.233-12.233-5.116-28.437-17.766-33.905-24.947-1.03 1.855-.965 6.395-4.846 10.16.037 9.096-10.042 20.894-14.71 24.402-6.965 5.234-15.65 5.792-25.2 6-3.3 2.7-5.861 4.443-11.352 3.19-2.214-.505-5.092-1.183-5.747-3.79-1.525 1.418-2.716 2.348-3.602 2.4-7.67.448-12.522-3.2-12.9-9-4.136.975-10.107 1.332-13.498-.6-5.468-3.114-3.543-6.658-5.4-9.9-9.34 2.116-18.57-.588-19.01-9.184-4.7 3.102-8.943 1.042-19.63 4.264-3.986 1.202-16.25 2.829-20.524 4.006-5.3 1.46-13.546 7.845-19.3 9.114-4.056.895-11.71 2.675-16.662 2.147-12.747-1.36-19.273-.506-29.593-22.85-2.218-4.801-15.897 12.874-35.03.593-20.484-13.148-43.336-29.667-51.022-49.95-2.29-6.043.462-12.641-.457-17.232l-2.365-11.82c-6.672-11.715-8.381-20.393-9.007-26.688-3.116 5.221-12.387 15.588-21.284 15.265-9.227-.336-15.088-6.988-19.816-12.265z" fill="#000000;fill-rule:evenodd;stroke:none"/><path d="M184.755 290.18c1.612 2.133 3.585 7.59 1.59 9.374-4.474-1.626-3.627-7.236-9.969-11.002-8.123-4.161-14.862-1.386-20.03.802-.58-1.112-9.255-4.875-8.656-5.643 0-5.347 7.032.564 6.49-2.73 3.66 1.674 4.826 1.41 7.541 1.228 1.98-.132 9.7.007 12.482.07 1.277.029.446.619 2.53 1.277 4.265 1.666 5.595 3.416 8.022 6.625zm19.812-47.311c-3.945-.398-7.063-1.119-8.778-4.875-.596-1.306-5.589-5.858-5.53-7.069.051-1.036.525-2.14.153-3.107-1.949-5.071-7.021-10.721-10.213-14.709-3.054-3.816-7.705-6.846-10.962-7.074-1.845-.128-1.582-1.836-8.236-1.768-1.954-1.44 3.613-1.606 7.985-2.04 6.016-.598 10.167 2.645 13.073 6.486 6.476 8.556 13.435 15.234 17.325 24.262 1.241 2.88 2.851 4.018 5.252 5.602 3.526 2.326 8.06.847 10.241.677 0 0-5.263 4.124-10.31 3.615z" fill="#000000;fill-rule:evenodd;stroke:none"/></g></svg>