<svg viewBox="0 0 272 165" xmlns="http://www.w3.org/2000/svg"><g stroke="#000"><path fill="#f2c879" stroke-width="2.44" d="m9.341 82.742 126.786-73.2L262.96 82.823l-126.786 73.2z"/><path fill="#8ccbff" stroke-width="2.44" d="m9.341 82.742 31.697-18.3-.599 35.563z"/><path fill="#ff9f9f" stroke-width="2.44" d="m231.252 64.503 31.708 18.32-31.696 18.3z"/><path d="m41.05 101.062 126.786-73.2m-95.078 91.52 126.786-73.2m-95.078 91.52 126.786-73.2m-190.214-.06 126.833 73.281M72.734 46.142l126.833 73.281m-95.136-91.581 126.833 73.281M41.038 64.442l.011 36.62m31.685-54.92.024 73.24m31.673-91.54.035 109.86m31.661-128.16.047 146.481m31.662-128.161.035 109.861m31.673-91.54.023 73.24m31.685-54.92.012 36.62" stroke-width="1.83"/><g fill="#fff" stroke-width="2" transform="rotate(-30 83.476 288.195)scale(1.22)"><circle cx="100" cy="60" r="6"/><circle cx="130" cy="60" r="6"/><circle cx="160" cy="60" r="6"/><circle cx="190" cy="60" r="6"/><circle cx="220" cy="60" r="6"/><circle cx="115" cy="86" r="6"/><circle cx="145" cy="86" r="6"/><circle cx="175" cy="86" r="6"/><circle cx="205" cy="86" r="6"/><circle cx="235" cy="86" r="6"/><circle cx="130" cy="112" r="6"/><circle cx="160" cy="112" r="6"/><circle cx="190" cy="112" r="6"/><circle cx="220" cy="112" r="6"/><circle cx="250" cy="112" r="6"/><circle cx="145" cy="138" r="6"/><circle cx="175" cy="138" r="6"/><circle cx="205" cy="138" r="6"/><circle cx="235" cy="138" r="6"/><circle cx="265" cy="138" r="6"/><circle cx="160" cy="164" r="6"/><circle cx="190" cy="164" r="6"/><circle cx="220" cy="164" r="6"/><circle cx="250" cy="164" r="6"/><circle cx="280" cy="164" r="6"/></g></g></svg>
