<?xml version="1.0" encoding="utf-8"?><svg version="1.1" id="BackgroundSVG" xmlns="http://www.w3.org/2000/svg" viewBox="0 0 90 110"><style> .small { text-anchor: middle; font-size: 3px; font-family: Helvetica; fill: black; } </style><defs><linearGradient id="Gradient" x1="0" x2="0" y1="0" y2="1"><stop offset="0%" stop-color="#3333fe"/><stop offset="100%" stop-color="#00fff7"/></linearGradient><g id="cloud"><g fill="white"><rect x="0" y="0" width="12" height="3"/><circle cx="6" cy="0" r="3"/><circle cx="0" cy="0" r="3"/><circle cx="12" cy="0" r="3"/><circle cx="2" cy="-2" r="3"/><circle cx="6" cy="-3" r="3"/><circle cx="10" cy="-2" r="3"/></g></g></defs><rect x="0" y="0" width="90" height="110" fill="url(#Gradient)"/><circle cx="75" cy="10" r="6" fill="#ffff00"/><g fill="gray" stroke="#888888" stroke-width="0.5"><path d="M0,90L5,70L20,120L0,120z"/><path d="M20,90L25,65L40,120z"/><path d="M10,90L15,60L28,95L50,130L0,120z"/></g><path d="M80,100h2v20h-2zM66,95h2v20h-2zM66,103L72,101L66,105z" fill="#543131"/><g fill="green"><circle cx="80" cy="100" r="2"/><circle cx="79" cy="102" r="2"/><circle cx="83" cy="100" r="3"/><circle cx="79" cy="99" r="3"/><circle cx="82" cy="97" r="3"/><circle cx="65" cy="92" r="2.5"/><circle cx="69" cy="92" r="3"/><circle cx="65" cy="96" r="3"/><circle cx="69" cy="95" r="3"/><circle cx="66" cy="93" r="3"/><ellipse cx="71" cy="101" rx="2" ry="1"/></g><g fill="#38a838"><ellipse cx="60" cy="109" rx="20" ry="2"/><ellipse cx="10" cy="110" rx="40" ry="5"/><ellipse cx="90" cy="110" rx="30" ry="4"/></g><use href="#cloud" transform="translate(-20 0)"><animateTransform attributeName="transform" attributeType="XML" type="translate" from="-20 50" to="100 50" dur="60s" repeatCount="indefinite"/></use><use href="#cloud" transform="translate(-20 0)"><animateTransform attributeName="transform" attributeType="XML" type="translate" from="-20 50" to="100 50" dur="60s" begin="-20s" repeatCount="indefinite"/></use><use href="#cloud" transform="translate(-20 0)"><animateTransform attributeName="transform" attributeType="XML" type="translate" from="-20 50" to="100 50" dur="60s" begin="-40s" repeatCount="indefinite"/></use><use href="#cloud" transform="translate(-20 0)"><animateTransform attributeName="transform" attributeType="XML" type="translate" from="-20 35" to="100 35" dur="60s" begin="-10s" repeatCount="indefinite"/></use><use href="#cloud" transform="translate(-20 0)"><animateTransform attributeName="transform" attributeType="XML" type="translate" from="-20 35" to="100 35" dur="60s" begin="-30s" repeatCount="indefinite"/></use><use href="#cloud" transform="translate(-20 0)"><animateTransform attributeName="transform" attributeType="XML" type="translate" from="-20 35" to="100 35" dur="60s" begin="-50s" repeatCount="indefinite"/></use><g><animate attributeName="opacity" values="0.2;0.8;0.2" dur="3s" repeatCount="indefinite"/><text class="small" transform="translate(39 96)">1</text><text class="small" transform="translate(39 86)">2</text><text class="small" transform="translate(39 76)">3</text><text class="small" transform="translate(39 66)">4</text><text class="small" transform="translate(39 56)">5</text><text class="small" transform="translate(39 46)">6</text><text class="small" transform="translate(39 36)">7</text><text class="small" transform="translate(39 26)">8</text><text class="small" transform="translate(39 16)">9</text><text class="small" style="fill:gold" transform="translate(39 6)">10</text></g></svg>