<?xml version="1.0" encoding="utf-8"?>
<svg version="1.1" id="Layer_1" xmlns="http://www.w3.org/2000/svg" xmlns:xlink="http://www.w3.org/1999/xlink" x="0px" y="0px"
     viewBox="0 0 90 110" style="enable-background:new 0 0 90 110;" xml:space="preserve">

    <style>
        .small { 
            text-anchor: middle;
            font-size: 3px;
            font-family: Helvetica;
            fill: black
        }
    </style>
    <defs>
        <linearGradient id="Gradient2" x1="0" x2="0" y1="0" y2="1">
            <stop offset="0%" stop-color="#3333fe"/>
            <stop offset="100%" stop-color="#00fff7"/>
        </linearGradient>

        <g id="cloud">
            <rect x="0" y="0" width="12" height="3" fill="white"/>
            <circle cx="6" cy="0" r="3" fill="white"/>
            <circle cx="0" cy="0" r="3" fill="white"/>
            <circle cx="12" cy="0" r="3" fill="white"/>
            <circle cx="2" cy="-2" r="3" fill="white"/>
            <circle cx="6" cy="-3" r="3" fill="white"/>
            <circle cx="10" cy="-2" r="3" fill="white"/>
        </g>
    </defs>

    <rect x="0" y="0" width="90" height="110" fill="url(#Gradient2)"/>

    <circle cx="75" cy="10" r="6" fill="#ffff00"/>

    <polygon points="0 90 5 70 20 120 0 120" fill="gray" stroke="#888888" stroke-width="0.5"/>
    <polygon points="20 90 25 65 40 120" fill="gray" stroke="#888888" stroke-width="0.5"/>
    <polygon points="10 90 15 60 28 95 50 130 0 120" fill="gray" stroke="#888888" stroke-width="0.5"/>

    <rect x="80" y="100" width="2" height="20" fill="#543131"/>
    <circle cx="80" cy="100" r="2" fill="green"/>
    <circle cx="79" cy="102" r="2" fill="green"/>
    <circle cx="83" cy="100" r="3" fill="green"/>
    <circle cx="79" cy="99" r="3" fill="green"/>
    <circle cx="82" cy="97" r="3" fill="green"/>

    <rect x="66" y="95" width="2" height="20" fill="#543131"/>
    <polygon points="66 103 72 101 66 105" fill="#543131"/>
    <circle cx="65" cy="92" r="2.5" fill="green"/>
    <circle cx="69" cy="92" r="3" fill="green"/>
    <circle cx="65" cy="96" r="3" fill="green"/>
    <circle cx="69" cy="95" r="3" fill="green"/>
    <circle cx="66" cy="93" r="3" fill="green"/>
    <ellipse cx="71" cy="101" rx="2" ry="1" fill="green"/>

    <ellipse cx="60" cy="109" rx="20" ry="2" fill="#38a838"/>
    <ellipse cx="10" cy="110" rx="40" ry="5" fill="#38a838"/>
    <ellipse cx="90" cy="110" rx="30" ry="4" fill="#38a838"/>

    <use href="#cloud" transform="translate(-20 0)">
        <animateTransform attributeName="transform" attributeType="XML"
        type="translate"
        from="-20 50"
        to="100 50"
        dur="60s" repeatCount="indefinite"/>
    </use>

    <use href="#cloud" transform="translate(-20 0)">
        <animateTransform attributeName="transform" attributeType="XML"
        type="translate"
        from="-20 50"
        to="100 50"
        dur="60s" begin="-20s" repeatCount="indefinite"/>
    </use>

    <use href="#cloud" transform="translate(-20 0)">
        <animateTransform attributeName="transform" attributeType="XML"
        type="translate"
        from="-20 50"
        to="100 50"
        dur="60s" begin="-40s" repeatCount="indefinite"/>
    </use>

    <use href="#cloud" transform="translate(-20 0)">
        <animateTransform attributeName="transform" attributeType="XML"
        type="translate"
        from="-20 35"
        to="100 35"
        dur="60s" begin="-10s" repeatCount="indefinite"/>
    </use>

    <use href="#cloud" transform="translate(-20 0)">
        <animateTransform attributeName="transform" attributeType="XML"
        type="translate"
        from="-20 35"
        to="100 35"
        dur="60s" begin="-30s" repeatCount="indefinite"/>
    </use>

    <use href="#cloud" transform="translate(-20 0)">
        <animateTransform attributeName="transform" attributeType="XML"
        type="translate"
        from="-20 35"
        to="100 35"
        dur="60s" begin="-50s" repeatCount="indefinite"/>
    </use>

    <g>
        <animate
            attributeName="opacity"
            values="0.2;0.8;0.2"
            dur="3s"
            repeatCount="indefinite" />

        <text class="small" transform="matrix(1 0 0 1 39 96)">1</text>
        <text class="small" transform="matrix(1 0 0 1 39 86)">2</text>
        <text class="small" transform="matrix(1 0 0 1 39 76)">3</text>
        <text class="small" transform="matrix(1 0 0 1 39 66)">4</text>
        <text class="small" transform="matrix(1 0 0 1 39 56)">5</text>
        <text class="small" transform="matrix(1 0 0 1 39 46)">6</text>
        <text class="small" transform="matrix(1 0 0 1 39 36)">7</text>
        <text class="small" transform="matrix(1 0 0 1 39 26)">8</text>
        <text class="small" transform="matrix(1 0 0 1 39 16)">9</text>
        <text class="small" style="fill:gold" transform="matrix(1 0 0 1 39 6)">10</text>

    </g>

</svg>