<?xml version="1.0" encoding="UTF-8"?>
<svg xmlns="http://www.w3.org/2000/svg" version="1.1" xmlns:xlink="http://www.w3.org/1999/xlink" viewBox="0 0 800 800">
  <defs>
    <style>
      .cls-1 {
        fill: #fff;
        stroke: #231f20;
      }

      .cls-1, .cls-2 {
        stroke-miterlimit: 10;
      }

      .cls-3 {
        fill: none;
      }

      .cls-2 {
        fill: url(#New_Pattern);
        stroke: #fff;
      }
    </style>
    <pattern id="New_Pattern" data-name="New Pattern" x="0" y="0" width="97.01" height="56.01" patternUnits="userSpaceOnUse" viewBox="0 0 97.01 56.01">
      <g>
        <rect class="cls-3" x="0" width="97.01" height="56.01"/>
        <polygon class="cls-1" points="112.89 28.5 81.13 28.5 65.25 56.01 81.13 83.51 112.89 83.51 128.77 56.01 112.89 28.5"/>
        <polygon class="cls-1" points="15.88 28.5 -15.88 28.5 -31.76 56.01 -15.88 83.51 15.88 83.51 31.76 56.01 15.88 28.5"/>
        <polygon class="cls-1" points="112.89 -27.5 81.13 -27.5 65.25 0 81.13 27.5 112.89 27.5 128.77 0 112.89 -27.5"/>
        <polygon class="cls-1" points="64.38 .5 32.63 .5 16.75 28 32.63 55.51 64.38 55.51 80.26 28 64.38 .5"/>
        <polygon class="cls-1" points="15.88 -27.5 -15.88 -27.5 -31.76 0 -15.88 27.5 15.88 27.5 31.76 0 15.88 -27.5"/>
      </g>
    </pattern>
  </defs>
  <!-- Generator: Adobe Illustrator 28.7.5, SVG Export Plug-In . SVG Version: 1.2.0 Build 176)  -->
  <g>
    <g id="Layer_1">
      <rect class="cls-2" x="112.00" y="111.00" width="552.00" height="618"/>
    </g>
  </g>
</svg>