<?xml version="1.0" encoding="utf-8"?>
<svg version="1.1" id="Layer_1" xmlns="http://www.w3.org/2000/svg" xmlns:xlink="http://www.w3.org/1999/xlink" x="0px"
     y="0px"
     viewBox="0 0 80 60" style="enable-background:new 0 0 60 60;" xml:space="preserve">
    <rect x="0" y="0" width="60" height="60" fill="#f2e3a5"/>

    <line x1="0" y1="10" x2="60" y2="10" stroke="#888888" stroke-width="0.2"/>
    <line x1="0" y1="20" x2="60" y2="20" stroke="#888888" stroke-width="0.2"/>
    <line x1="0" y1="30" x2="60" y2="30" stroke="#888888" stroke-width="0.2"/>
    <line x1="0" y1="40" x2="60" y2="40" stroke="#888888" stroke-width="0.2"/>
    <line x1="0" y1="50" x2="60" y2="50" stroke="#888888" stroke-width="0.2"/>

    <line x1="10" y1="0" x2="10" y2="60" stroke="#888888" stroke-width="0.2"/>
    <line x1="20" y1="0" x2="20" y2="60" stroke="#888888" stroke-width="0.2"/>
    <line x1="30" y1="0" x2="30" y2="60" stroke="#888888" stroke-width="0.2"/>
    <line x1="40" y1="0" x2="40" y2="60" stroke="#888888" stroke-width="0.2"/>
    <line x1="50" y1="0" x2="50" y2="60" stroke="#888888" stroke-width="0.2"/>

    <line x1="0" y1="0" x2="0" y2="60" stroke="#000000" stroke-width="0.5"/>
    <line x1="0" y1="0" x2="60" y2="0" stroke="#000000" stroke-width="0.5"/>
    <line x1="0" y1="60" x2="60" y2="60" stroke="#000000" stroke-width="0.5"/>
    <line x1="60" y1="0" x2="60" y2="20" stroke="#000000" stroke-width="0.5"/>
    <line x1="60" y1="30" x2="60" y2="60" stroke="#000000" stroke-width="0.5"/>

    <rect x="61" y="23" width="5" height="4" fill="#fc7676"/>
    <polygon points="65,21 69,25 65,29" fill="#fc7676"/>
</svg>